<svg xmlns="http://www.w3.org/2000/svg" xmlns:xlink="http://www.w3.org/1999/xlink" width="24" height="24" viewBox="0 0 24 24"><path fill="currentColor" fill-rule="evenodd" d="M17.809 5.462c-.589-.382-1.008-.547-1.008-.547a23 23 0 0 0 1.604.126q-.391-.308-.776-.555c-1.55-1.003-3.008-1.316-4.222-1.316a7.1 7.1 0 0 0-2.543.469c-.475.182-.76.353-.803.379l-.002.001l.613-.974l.046-.477a.48.48 0 0 1 .433.465a7.6 7.6 0 0 1 2.256-.342c1.518 0 3.368.459 5.294 1.973a.48.48 0 0 1-.065.796c.347.266.719.59 1.085.982c1.327 1.419 2.554 3.692 2.225 7.085a.48.48 0 0 1-.595.418c-.107 1.45-.74 3.847-3.46 5.89a.48.48 0 0 1-.714-.163l-.084.076c-.773.7-1.951 1.466-3.542 1.688l-.066.004h-.015a.48.48 0 0 1-.473-.399a7 7 0 0 1-1.382.132c-.889 0-1.964-.151-3.223-.593a.479.479 0 0 1 .27-.917c.357.085.712.128 1.083.128c2.41 0 4.299-1.8 4.299-3.953c0-1.062-.45-2.036-1.209-2.754l-.006.008c-.173.223-.382.494-.53.688c-.239.335-.322.52-.303.689a1.94 1.94 0 0 1-.398 1.477l-.012.015a7 7 0 0 1-.565.528l-.028.025a12 12 0 0 0-.575.523c-.372.346-.856.395-1.145.395c-.08 0-.151-.006-.2-.01h-.005l-.077-.005h-.066l-.05.037c-.036.027-.08.065-.142.12a.8.8 0 0 1-.353.182a1.4 1.4 0 0 1-.332.038c-.28 0-.6-.063-.864-.128a8 8 0 0 1-.678-.204a.9.9 0 0 1-.312-.22A1.7 1.7 0 0 1 6 16.984a4 4 0 0 1-.288-.585c-.156-.386-.287-.829-.31-1.046a.9.9 0 0 1 .046-.366c.03-.098.072-.2.116-.298c.086-.19.198-.404.295-.587l.005-.008q.104-.195.175-.34q.034-.07.052-.114l.013-.032c.026-.125.108-.733.191-1.389c.083-.645.161-1.288.177-1.42a.6.6 0 0 0 0-.214a1 1 0 0 0-.14-.302l-.002-.002c-.21-.356-.22-.706-.131-1.134c-1.07-.743-3.787-2.75-3.955-2.887l-.004-.003a.64.64 0 0 1-.231-.374a.54.54 0 0 1 .074-.382l.001-.001s.001-.002.4.263c0 0-.031.048.063.126l.05.04l.228.17l.52.387c1.07.791 2.885 2.117 3.398 2.452c-.157.566-.157.833 0 1.1c.22.362.236.55.204.818c-.031.267-.314 2.577-.377 2.86c-.025.114-.148.346-.283.602c-.2.378-.427.807-.408.985c.031.299.44 1.572.801 1.713c.267.095.928.299 1.368.299c.157 0 .298-.032.361-.094c.267-.236.346-.283.534-.283h.048q.054 0 .117.007q.076.007.165.008c.252 0 .582-.047.818-.267c.163-.163.381-.354.587-.533c.23-.201.445-.388.544-.504c.236-.299.362-.707.299-1.116c-.047-.377.157-.707.393-1.037c.298-.393.848-1.1.848-1.1a5 5 0 0 1 .368.307c.867.806 1.393 1.915 1.393 3.135c0 2.122-1.602 3.891-3.746 4.328a5.2 5.2 0 0 1-2.227-.038q.632.22 1.195.346a9 9 0 0 0 1.051.176q.436.045.82.044a6.4 6.4 0 0 0 1.663-.21c.695-.188 1.055-.434 1.055-.434s-.093.12-.26.305a9 9 0 0 1-.552.558l-.037.034l-.001.001l-.014.013h.015q.448-.063.85-.182c1.364-.4 2.325-1.219 2.895-1.84c.418-.457.625-.807.625-.807s-.037.26-.095.583c-.025.143-.055.298-.088.448q-.033.151-.069.29q.318-.24.597-.485c2.303-2.016 2.675-4.26 2.691-5.437v-.16a5 5 0 0 0-.048-.644l-.001-.009l-.001-.008q0 .003.005.007l.006.008c.027.036.094.118.177.22l.155.187l.186.226l.1.122q.03-.315.042-.615v-.003l.003-.08c.141-4.197-2.28-6.395-3.706-7.32M7.083 4.594l.035.116c.07.228.153.479.238.692q.121-.36.277-.65c.674-1.256 1.783-1.598 2.46-1.685c.347-.045.58-.022.58-.022l.045-.477h-.006l-.005-.001l-.034-.003l-.098-.003a4 4 0 0 0-1.402.24A3.57 3.57 0 0 0 7.45 4.135l-.046-.17l-.006-.025l-.002-.006v-.002a.48.48 0 0 0-.78-.242l.316.36l-.316-.36l-.002.002l-.002.002l-.006.005l-.069.067q-.066.065-.165.183c-.13.158-.293.388-.434.685a3.3 3.3 0 0 0-.312 1.648a297 297 0 0 0-2.449-.87l-.368-.125h-.002a.5.5 0 0 0-.114-.028a.7.7 0 0 0-.378.047a.6.6 0 0 0-.226.186l-.002.003v.001s-.002.002.397.267c0 0 .031-.047.141-.03l.04.011h.002c.053.018.153.051.287.098c.161.056.374.13.619.217a287 287 0 0 1 2.683.962a3.4 3.4 0 0 1-.13-.557a2.8 2.8 0 0 1 .433-1.96c.192-.296.373-.454.373-.454s.06.238.151.544" clip-rule="evenodd"/><path fill="currentColor" fill-rule="evenodd" d="M8.613 6.47S8.33 4.444 9.745 3.596l-.029.01c-.289.11-2.393.9-1.103 2.866m3.05-1.854c1.083-.408 2.592-.628 4.934-.188a7.4 7.4 0 0 0-3.206-.802q-.613 0-1.132.094c-1.226.22-2.231 1.1-2.577 2.28c0 0 .251-.394.848-.802l.025-.034c.221-.3.553-.75.871-1.13c.095.205.205.456.236.582M17.1 7.225c2.216 1.462 3.222 3.08 3.929 4.982c-.032-2.012-.707-3.74-2.012-5.123l-.031-.032c-1.147-1.21-2.83-1.776-4.495-1.54c-.629.079-1.257.204-1.745.361a1.3 1.3 0 0 0-.235.063h.031c.126-.015 2.42-.125 4.558 1.289m2.043 9.996a9 9 0 0 1-.817.958c2.027-3.897.094-7.465.015-7.606c.142.141.283.298.41.44c1.555 1.729 1.744 4.322.392 6.208M6.739 5.134c-.06.228-.59 2.25 1.198 2.311c-1.068-.644-1.194-2.31-1.194-2.326l-.001.004l-.001.004zm3.116 4.213l-.818 1.399s.755-.346 1.053-.786c.236-.378-.235-.613-.235-.613m-.546 6.481c.1-.093.202-.182.294-.258c.161-.133.323-.223.463-.302c.258-.144.449-.25.449-.515c.01-.536-.35-.64-.616-.643l.012-.003c-.146.033-.26.08-.26.08s.455-.078.628.252s.031.518-.251.707c-.142.094-.446.391-.719.682m1.489-4.847c-.073.062-.316.684-.54 1.294a69 69 0 0 0-1.3.702c-.093.063-.423.723-.675 1.415c-.133-.413-.418-.674-.465-.718l-.006-.005l.014.062c.065.279.32 1.362.221 1.714c-.11.408-.801.77-.801.77l1.04.23c-.206.184-.354.241-.474.241a5.4 5.4 0 0 1-.802-.204c-.157-.204-.393-.88-.456-1.163c.034-.113.141-.316.234-.49q.056-.105.096-.186l.027-.05c.172-.33.273-.525.303-.704c.063-.267.268-1.918.346-2.61c.204.268.487.708.424.991c.456-.644.126-1.273-.031-1.524c-.141-.252-.33-.755-.173-1.29c.157-.534.723-2.01.723-2.01s.189.33.456.266c.267-.063 2.42-3.3 2.42-3.3s.582 1.273-.031 2.2c-.629.927-1.242 1.1-1.242 1.1s.062.012.168.017c.304.07.952.169 1.674-.025c.258.621.471 1.175.484 1.266l-.068.161c-.175.418-.618 1.473-.67 1.552c-.032.031-.252.094-.41.125c-.266.079-.423.126-.486.173m.424-5.626s.142.628-.22 1.053c-.456.518-.849.503-.833.503zm-3.63 8.927l-.126.628s.251-.031.251.252c0 .22-.251.518-.455.534s-.283-.236-.236-.377c.047-.126.566-1.037.566-1.037m2.404-5.25c.55.11.707.755.409 1.1c-.299.33-1.053.802-1.493.912c-.095.362-.896.204-.598-.943c0 0 .142.55.283.503c.142-.047 1.745-2.562 1.745-2.562s-.204.66-.346.99m-.558 5.851c-.008.152-.022.4-.133.562l.088-.094c.083-.087.201-.212.273-.284q.076-.064.157-.112c.116-.074.22-.14.22-.28c0-.22-.298-.268-.424-.236c-.126.031-.157.236-.173.346q-.004.036-.008.098m7.3.609c-.345 1.241-1.131 2.342-2.153 3.127a6 6 0 0 0 .378-.196a6 6 0 0 0 1.886-2.915c.011-.037.099-.092.181-.144l.07-.045l.014-.009l.01-.006l.017-.01l.013-.007c.137-.081.264-.155.292-.267c.062-.361.094-.738.094-1.115c0-.142-.142-.283-.283-.425c-.11-.094-.22-.204-.22-.283a6 6 0 0 0-1.403-3.255l.02.112a6.14 6.14 0 0 1 1.289 3.127c0 .06.07.136.138.21l.066.073c.142.142.283.283.283.425c0 .377-.032.754-.094 1.116c-.032.125-.189.22-.346.298l-.07.045c-.082.052-.17.107-.182.144M14.051 7.57c.19.079 3.458 1.713 4.023 4.919c.12.699.094 1.385-.058 2.04a6.44 6.44 0 0 0-4.428-7.896c-.36.43-.756.712-1.147.892c.267.666.588 1.48.588 1.538c0 .094-.298.864-.33.896a4 4 0 0 1-.534.047a13 13 0 0 1-.346.786c-.047.063-.188.11-.487.188l-.103.03c-.141.042-.296.087-.321.112c-.079.094-.503 1.21-.786 1.996q.065-.011.126-.017l.723-1.775s.738-.361 1.288-.361c.99-.016 2.452-1.226 1.792-3.395m-6.554.864c.11-.204.016-.346-.078-.424l-.032-.032c-.188-.094-1.367-.534-2.53-.943c1.021.676 2.153 1.336 2.342 1.43c.141.063.235.08.298-.03" clip-rule="evenodd"/><g fill="currentColor" opacity=".75"><path d="M10.782 15.256c-.048.06-.218.214-.38.36l-.138.127l-.2.18a9 9 0 0 0-.35.323q-.095.094-.378.094h-.471c.094-.126.262-.317.444-.512c.1-.093.202-.182.295-.258c.16-.133.322-.223.463-.302c.258-.144.448-.251.448-.515c.01-.536-.35-.64-.616-.643c.08-.018.17-.033.255-.033c-.299-.079-.676 0-.85.173c-.125.115-.153.426-.18.737c-.015.155-.029.31-.055.442c-.07.366-.292.568-.63.877l-.002.001l-.151.139l-1.04-.232s.692-.361.802-.77c.098-.352-.156-1.435-.222-1.713l-.014-.063l.006.006c.048.044.333.304.465.717c.252-.691.582-1.351.676-1.414c.081-.054 1.032-.56 1.299-.702a54 54 0 0 0-.309.86a1.3 1.3 0 0 0-.77.55c.11-.08.456-.127.707-.158c.22-.016.896.346 1.07 1.022v.031a1 1 0 0 1-.174.676"/><path d="M10.249 13.102c.322-.03.59.036.659.064c.613-1.163 1.1-1.792 1.226-1.792h.083c.35.013 1.597.056 2.117-1.194c.557-1.363-.227-2.527-.28-2.607l-.003-.002c.66 2.168-.801 3.379-1.791 3.394c-.55 0-1.29.362-1.29.362z"/><path d="m14.051 7.57l.003.002c.068.033 1.242.602 1.58 2.37a6 6 0 0 1 1.403 3.255c0 .079.11.189.22.283c.142.141.283.283.283.424c0 .377-.031.755-.094 1.116c-.028.111-.154.186-.292.267l-.013.007l-.016.01l-.025.015l-.07.044c-.082.053-.17.108-.181.144a6 6 0 0 1-1.886 2.916a6.46 6.46 0 0 0 3.053-3.893a5.1 5.1 0 0 0 .059-2.04c-.566-3.206-3.835-4.84-4.024-4.92m-3.777.159c.29.014.912-.015 1.499-.441q.09.21.175.416a3.56 3.56 0 0 1-1.674.025m2.168-.203c.39-.18.786-.462 1.146-.893q-.523-.15-1.077-.21c-.11.173-.22.33-.33.456c.065.16.16.393.26.647"/><path d="M15.576 12.443a7.5 7.5 0 0 0 .126-2.06a5.76 5.76 0 0 1 1.1 2.83c.015.126.141.251.267.377c.11.094.236.22.236.299q0 .542-.095 1.084c-.015.045-.143.118-.25.179l-.017.01c-.157.078-.299.157-.33.282a5.85 5.85 0 0 1-2.074 3.034c1.461-1.525 2.168-4.04 1.037-6.035"/></g></svg>