<svg xmlns="http://www.w3.org/2000/svg" xmlns:xlink="http://www.w3.org/1999/xlink" width="24" height="24" viewBox="0 0 24 24"><path fill="currentColor" fill-rule="evenodd" d="m12 2l8.888 5v10L12 22l-8.888-5V7zm8.055 5.156l-7.777-4.374v8.75zm.278.47L12.556 12l7.777 4.375zm-.278 9.218l-7.777-4.375v8.75zm-8.333 4.374l-7.777-4.374l7.777-4.375zm0-9.687L3.945 7.156l7.777-4.374zM3.668 7.625L11.444 12l-7.776 4.374z" clip-rule="evenodd"/><path fill="currentColor" d="m12.001 6.614l4.685 7.906L12 17.156L7.316 14.52zm0 1.084l-3.926 6.624l3.926 2.209l3.926-2.209z"/></svg>