<svg xmlns="http://www.w3.org/2000/svg" xmlns:xlink="http://www.w3.org/1999/xlink" width="24" height="24" viewBox="0 0 24 24"><path fill="currentColor" fill-rule="evenodd" d="M18.5 7.25H18v2h.5zm-9 .5h-1v9h1v-3a2 2 0 1 1 4 0v3h1v-3a3.001 3.001 0 0 0-5-2.235zm-4.5 9c.77 0 1.47-.29 2-.765v.765h1v-3a3 3 0 1 0-3 3m0-1a2 2 0 1 0 0-4a2 2 0 0 0 0 4m13 1c.77 0 1.47-.29 2-.765v.765h1v-3a3 3 0 1 0-3 3m0-1a2 2 0 1 0 0-4a2 2 0 0 0 0 4m-3.09-7.62l-.395.395l1.575 1.58l.4-.4zM22 8.5l-.395-.395l-1.575 1.58l.395.4z" clip-rule="evenodd"/></svg>