<svg xmlns="http://www.w3.org/2000/svg" xmlns:xlink="http://www.w3.org/1999/xlink" width="24" height="24" viewBox="0 0 24 24"><path fill="currentColor" d="M7.5 11.825L11.98 14l4.52-2l-4.52-2"/><path fill="currentColor" d="M7.5 11.825L11.98 14v-4z"/><path fill="currentColor" d="M19.535 7H4.465L2 9.835v4.33L4.465 17h15.07L22 14.165v-4.33zm.125 6.7s-.81 1.3-1.23 1.3H5.57c-.42 0-1.23-1.3-1.23-1.3s-.085-.865-.085-1.69s.085-1.69.085-1.69L5.57 9h12.86l1.23 1.32s.085.865.085 1.69s-.085 1.69-.085 1.69"/></svg>