<svg xmlns="http://www.w3.org/2000/svg" xmlns:xlink="http://www.w3.org/1999/xlink" width="24" height="24" viewBox="0 0 24 24"><g fill="currentColor" fill-rule="evenodd" clip-rule="evenodd"><path d="M16.684 21.192A10.02 10.02 0 0 0 22 12.335C22 6.8 17.523 2.313 12 2.313S2 6.8 2 12.335c0 4.068 2.419 7.57 5.894 9.141l.25-.416l.123-.144a9.38 9.38 0 0 1-5.642-8.602c0-5.177 4.198-9.375 9.376-9.375s9.376 4.198 9.376 9.375a9.37 9.37 0 0 1-4.944 8.264l.227.482zm-.505-1.15c2.747-1.458 4.573-4.335 4.573-7.728c0-4.916-3.834-8.75-8.75-8.75c-4.918 0-8.752 3.834-8.752 8.75c0 4.613 3.376 8.273 7.854 8.707l1.094-.042l1.235-.246l2.365-.829l.256-.128zm-5.661-.453l1.391.745l.305-.19l.448.114l1.325-.936l1.201-1.233v-3.65l-.162-1.012l.077-.86l-.077-1.194l-.085-1.701v-.248l.514-1.07l.43-.975l.18-1.204l-.267-.363l-.752.363l-1.183 1.31l-.371.534l-.63-.22h-1.23l-1.02.22l-.943-1.232l-.858-.765l-.572-.105l-.305.488l.2 1.08l.954 1.843l.228.23l-.324 1.155l-.067 2.13l.163.918l-.162.88v.85l-.077 1.299l-.133.974l.133.583z"/><path d="m18.25 18.562l1.875-.937l1.204-2.231l.333-1.876v-.434l-1.387.586l-.978 3.198zM8.113 19.838l.16.876l.937.334l2.117.095l-1.088-.81z"/><path d="M13.35 7.787c-.47-.21-1.011-.247-1.498-.212c-.482.035-.93.143-1.24.247c-.325-.484-.798-1.11-1.256-1.55c-.246-.235-.502-.432-.738-.511a.6.6 0 0 0-.369-.017a.52.52 0 0 0-.294.253c-.137.242-.15.552-.103.872c.049.324.164.68.31 1.032c.266.642.641 1.289.934 1.73c-.349.84-.37 1.624-.306 2.016c.06.38.035.653.014.872a3 3 0 0 0-.016.251c0 .126.03.275.057.403l.005.027c.027.127.05.238.056.329c.006.087-.019.29-.062.525a6 6 0 0 1-.138.593c-.058.186-.03.384.001.547l.033.154c.023.108.043.198.048.285q.003.082-.025.283c-.018.128-.044.278-.071.43l-.015.082c-.022.122-.043.244-.06.35c-.02.127-.037.246-.037.326v.853q-.372.182-.538.424a.77.77 0 0 0-.136.553c.02.156.084.303.166.432c-.134.213-.253.513-.226.823a.92.92 0 0 0 .276.584l-.3.738c-.029.07.025.087.092.11a1 1 0 0 1 .102.042c.055.028.09.045.117-.023l.268-.659q.128.072.288.128c.54.19 1.199.253 1.794.258a9.4 9.4 0 0 0 1.47-.102l.037-.01a.85.85 0 0 0 .356.07c.245 0 .415-.093.515-.24l.033-.003a13.3 13.3 0 0 0 2.244-.58c.309-.114.605-.242.862-.386l.508 1.13c.045.123.113.089.185.052l.034-.016l.02-.01c.075-.032.127-.055.067-.167l-.525-1.17c.22-.156.403-.337.5-.547c.243-.077.548-.181.834-.294a6 6 0 0 0 .52-.23c.147-.075.288-.16.375-.252a1.6 1.6 0 0 1 .325-.211c.17-.093.383-.197.61-.3c.222-.102.44-.228.644-.346a5 5 0 0 1 .584-.306l.113-.268c-.11.043-.263.097-.434.157c-.34.12-.756.267-1.065.409c-.232.106-.454.214-.635.312c-.173.095-.333.193-.42.285q-.057.062-.27.174c-.138.07-.307.144-.487.215c-.238.093-.49.181-.706.252a1.08 1.08 0 0 0-.567-.617c.045-.179.06-.417-.094-.599c-.14-.166-.342-.223-.512-.237a1 1 0 0 0-.182 0c-.004-.13-.008-.274-.014-.423c-.01-.256-.024-.53-.037-.787c.325-.248.792-.575 1.28-.877c.554-.342 1.12-.642 1.537-.767c.9-.27 2.896-1.139 3.786-1.541l.026-.431c-.897.406-3.05 1.34-3.922 1.6c-.469.14-1.07.463-1.627.808c-.404.25-.793.516-1.105.744l-.01-.165c.025-.214.055-.536.064-.823a4 4 0 0 0-.007-.41a1 1 0 0 0-.027-.169a.4.4 0 0 0-.082-.165l-.016-.033a1 1 0 0 1-.035-.115a2.7 2.7 0 0 1-.06-.705a.7.7 0 0 1 .034-.21c.073-.161.096-.382.093-.564a1.6 1.6 0 0 0-.025-.269a.7.7 0 0 0-.062-.189l.002-.062q.003-.067.01-.165l.008-.143c.016-.259.03-.61 0-1a4.4 4.4 0 0 0-.204-1.04c.133-.172.278-.444.417-.753c.164-.365.326-.8.453-1.224c.127-.422.222-.84.247-1.173a1.4 1.4 0 0 0-.021-.444c-.03-.123-.096-.25-.23-.303a.46.46 0 0 0-.306.003c-.1.031-.205.086-.312.154c-.215.136-.458.34-.7.569c-.446.42-.908.94-1.228 1.327M9.157 6.483c.434.417.892 1.022 1.21 1.496a.2.2 0 0 0 0 .14a.19.19 0 0 0 .247.113c.275-.104.75-.232 1.265-.27c.518-.037 1.053.02 1.467.257c.093.053.21.021.263-.072a.2.2 0 0 0-.01-.209a15 15 0 0 1 1.174-1.266c.237-.224.464-.414.656-.535q.145-.09.244-.121c.067-.021.101-.016.115-.011c.008.003.035.019.056.102q.03.123.013.352c-.023.301-.11.697-.235 1.111a10 10 0 0 1-.44 1.188a5 5 0 0 1-.282.548a3 3 0 0 0-.182-.338c.155-.312.353-.74.502-1.123c.084-.215.153-.42.19-.584a1 1 0 0 0 .031-.223c0-.06-.009-.134-.058-.185c-.059-.061-.136-.057-.192-.038a.6.6 0 0 0-.167.1a3 3 0 0 0-.378.39c-.255.304-.532.69-.72.969a.195.195 0 0 0-.039.326c.68.553.903 1.375.96 2.103l.01.128l-1.418.38a.146.146 0 0 0 .074.28l.085-.022c.098.218.317.53.644.53c.285 0 .49-.16.603-.298l-.005.08q-.008.105-.01.181q-.003.061-.002.115q.001.026.008.06a.24.24 0 0 0 .04.093q0-.002 0 0q.007.01.02.074c.01.054.017.124.018.201c.003.16-.02.312-.058.396a1 1 0 0 0-.068.35a3 3 0 0 0 .07.82q.022.091.053.17a.5.5 0 0 0 .079.136l.003.011a1 1 0 0 1 .016.107a3 3 0 0 1 .005.363c-.008.28-.038.599-.063.806l-.002.018l.001.017c.022.368.052.932.072 1.426c.01.247.017.475.02.652a6 6 0 0 1-.004.287v.003l-.044.052q-.069.078-.198.201c-.17.164-.403.375-.662.603a72 72 0 0 1-1.46 1.243a.65.65 0 0 0-.393-.114a.64.64 0 0 0-.49.224a21 21 0 0 1-1.69-.99a8 8 0 0 1-.82-.612a2.3 2.3 0 0 1-.26-.264a.6.6 0 0 1-.105-.167v-1.14c0-.047.011-.14.032-.27q.026-.158.06-.344l.014-.084c.027-.151.054-.306.073-.441c.019-.132.033-.259.028-.349a2.4 2.4 0 0 0-.061-.369q-.015-.063-.025-.118c-.031-.158-.041-.281-.01-.379a6 6 0 0 0 .147-.633c.042-.228.076-.473.067-.61a3 3 0 0 0-.06-.37l-.008-.033a2 2 0 0 1-.05-.333q.002-.059.012-.166a4 4 0 0 0 .016-.765a.87.87 0 0 0 .619.274c.338 0 .625-.313.766-.527l.044.013a.146.146 0 0 0 .083-.279l-1.542-.467c.037-.32.122-.697.284-1.09a.14.14 0 0 0 .034-.077c.164-.374.4-.758.735-1.118a.17.17 0 0 0-.008-.24a.17.17 0 0 0-.162-.04a7 7 0 0 0-.576-.9a2.4 2.4 0 0 0-.375-.402c-.118-.094-.26-.168-.397-.131a.22.22 0 0 0-.155.161a.6.6 0 0 0-.005.236c.025.17.098.387.191.615c.178.436.441.937.642 1.287l-.09.167c-.268-.42-.583-.98-.812-1.533a4.3 4.3 0 0 1-.29-.962c-.045-.295-.022-.526.068-.684c.042-.075.087-.107.13-.12a.3.3 0 0 1 .19.015c.174.058.392.216.632.446m4.802 4.89l.2-.054a.157.157 0 0 1-.07.298a.157.157 0 0 1-.13-.245m-4.503.087c0-.084.065-.152.146-.157l.104.031a.157.157 0 0 1-.094.283a.157.157 0 0 1-.156-.157m4.682-3.155q.266.222.456.48c.144-.297.315-.672.447-1.011c.082-.212.148-.406.182-.557a1 1 0 0 0 .026-.18L15.247 7a.4.4 0 0 0-.103.067a3 3 0 0 0-.351.363c-.227.27-.473.607-.655.874m1.287 9.702q.003-.06.002-.135a1 1 0 0 1 .15-.001c.125.01.223.049.282.119c.046.053.06.15.023.296a1.3 1.3 0 0 1-.163.36a.17.17 0 0 0 .045.235a.167.167 0 0 0 .233-.046q.043-.061.089-.15c.3.153.39.415.404.542c-.064.156-.224.321-.479.486c-.265.173-.61.33-.989.47c-.7.256-1.491.441-2.052.541l.002-.05a.5.5 0 0 0-.049-.214c.408-.338.978-.818 1.463-1.245c.261-.229.5-.444.676-.614q.134-.128.218-.223a1 1 0 0 0 .073-.09a.3.3 0 0 0 .058-.117a1 1 0 0 0 .014-.164M8.706 7.042c.043-.01.117.008.23.097c.106.084.223.214.341.368c.224.29.44.65.578.91a4.4 4.4 0 0 0-.411.547a11 11 0 0 1-.578-1.17a2.7 2.7 0 0 1-.178-.57a.4.4 0 0 1 0-.154c.006-.024.013-.026.018-.028M8.182 20.16a.97.97 0 0 1 .118-.512q.06.058.114.104a.17.17 0 0 0 .237-.025a.17.17 0 0 0-.024-.24c-.178-.145-.358-.374-.387-.596a.43.43 0 0 1 .078-.314a.9.9 0 0 1 .274-.24c.032.1.094.197.168.288q.122.15.299.305c.233.207.535.427.858.64c.58.385 1.241.758 1.725 1.012q-.018.071-.025.126l-.004.024l.003.024a.6.6 0 0 0 .062.206a10 10 0 0 1-1.193.066c-.58-.004-1.196-.066-1.685-.238a1.4 1.4 0 0 1-.316-.154a.17.17 0 0 0-.118-.095l-.042-.046a.58.58 0 0 1-.142-.335m4.115.28a.28.28 0 0 1 .214.092a.3.3 0 0 1 .075.123l.001.004v.003l.001.002v.003a.4.4 0 0 1-.04.192c-.018.03-.06.08-.202.08c-.155 0-.236-.05-.28-.093a.24.24 0 0 1-.064-.108a.5.5 0 0 1 .073-.197c.034-.048.092-.096.222-.1m.25-8.86c.142-.016.27.049.403.156c.142.114.159.31.143.469c-.012.133-.05.266-.088.368c.116.096.255.226.34.377a.6.6 0 0 1 .083.304a.55.55 0 0 1-.244.427a1 1 0 0 1-.229.423a.89.89 0 0 1-.694.278a.914.914 0 0 1-.908-.714a.6.6 0 0 1-.201-.14a.4.4 0 0 1-.121-.3a.6.6 0 0 1 .09-.29c.082-.141.207-.27.316-.36a1.1 1.1 0 0 1-.11-.348c-.022-.168.006-.363.176-.495a.52.52 0 0 1 .465-.098a.7.7 0 0 1 .24.121c.115-.098.223-.164.338-.177m.268 2.391a.8.8 0 0 0 .143-.22a.8.8 0 0 1-.236-.02a1.06 1.06 0 0 1-.507-.284a.87.87 0 0 1-.46.256a.8.8 0 0 1-.187.014a.72.72 0 0 0 .697.471a.7.7 0 0 0 .55-.217m-.05-.429a.5.5 0 0 0 .269-.003a.1.1 0 0 1 .055-.027a.35.35 0 0 0 .147-.264a.4.4 0 0 0-.057-.202c-.08-.14-.225-.267-.349-.366l-.058-.047l.03-.068c.039-.091.086-.239.1-.38c.014-.146-.012-.249-.072-.297c-.121-.098-.196-.122-.261-.115c-.071.009-.158.059-.296.186l-.069.064l-.065-.068a.5.5 0 0 0-.22-.13a.33.33 0 0 0-.299.063c-.094.074-.12.185-.103.317a1 1 0 0 0 .126.348l.047.076l-.072.053c-.107.079-.25.213-.331.355a.4.4 0 0 0-.064.194a.22.22 0 0 0 .067.161a.44.44 0 0 0 .427.12a.67.67 0 0 0 .364-.205a.17.17 0 0 1 .126-.06a.17.17 0 0 1 .134.052a.86.86 0 0 0 .424.243m-.796-1.257c.052.08.06.168.018.195c-.042.028-.118-.015-.17-.096c-.052-.08-.06-.168-.018-.195c.042-.028.118.015.17.096m.42.17c-.042-.027-.034-.115.018-.196c.052-.08.128-.123.17-.096c.042.028.034.115-.018.196c-.052.08-.128.123-.17.096"/></g></svg>