<svg xmlns="http://www.w3.org/2000/svg" xmlns:xlink="http://www.w3.org/1999/xlink" width="24" height="24" viewBox="0 0 24 24"><path fill="currentColor" d="M11.9 10.638L6.813 2L11.9 7.337L17.27 2z"/><path fill="currentColor" d="M12.02 10.456L17.27 2l-1.907 1.9zM8.812 4.094L6.813 2l5 8.481zm3.088 9.269L6.813 22l5.087-5.338L17.27 22z"/><path fill="currentColor" d="M12.02 13.544L17.27 22l-1.907-1.9l-3.344-6.563zm-3.207 6.362l-2 2.094l5-8.481z"/><path fill="currentColor" d="M7.269 12.056L2 6.719l4.544-4.607l5.412 8.538l5.5-8.538L22 6.72l-5.269 5.337L22 17.393L17.456 22l-5.5-8.563L6.544 22L2 17.393z"/></svg>