<svg xmlns="http://www.w3.org/2000/svg" xmlns:xlink="http://www.w3.org/1999/xlink" width="24" height="24" viewBox="0 0 24 24"><path fill="currentColor" d="m13.163 10.419l6.106-6.1L16.956 2L12 6.95L7.056 2L4.744 4.313l6.1 6.106a1.63 1.63 0 0 0 2.319 0M22 16.944l-4.944-4.95l4.938-4.944l-2.313-2.313l-6.1 6.1a1.64 1.64 0 0 0-.355 1.783c.082.198.203.378.355.53l6.1 6.106zm-10 .106L16.937 22l2.32-2.312l-6.1-6.107a1.63 1.63 0 0 0-1.788-.356c-.199.083-.38.204-.531.356l-6.107 6.1L7.044 22zm-1.581-3.888a1.633 1.633 0 0 0 0-2.312l-6.1-6.106L2 7.056l4.95 4.95L2 16.95l2.312 2.313z"/></svg>