<svg xmlns="http://www.w3.org/2000/svg" xmlns:xlink="http://www.w3.org/1999/xlink" width="24" height="24" viewBox="0 0 24 24"><path fill="currentColor" d="M12 3.334a.46.46 0 0 0-.397.23L2.062 19.983a.46.46 0 0 0 0 .46l5.822-3.11l4.117-7.336z"/><path fill="currentColor" d="M21.937 19.982L12.398 3.563a.47.47 0 0 0-.399-.23L12 10l4.105 7.347l5.833 3.098a.46.46 0 0 0-.001-.462"/><path fill="currentColor" d="m21.937 20.453l-5.827-3.12H7.888l-5.827 3.12q.061.099.168.156t.23.057h19.077c.08 0 .16-.02.232-.057a.45.45 0 0 0 .169-.156"/></svg>