<svg xmlns="http://www.w3.org/2000/svg" xmlns:xlink="http://www.w3.org/1999/xlink" width="24" height="24" viewBox="0 0 24 24"><path fill="currentColor" fill-rule="evenodd" d="M12 20.824a8.824 8.824 0 1 0 0-17.649a8.824 8.824 0 0 0 0 17.649M12 22a10 10 0 1 0 0-20a10 10 0 0 0 0 20" clip-rule="evenodd"/><path fill="currentColor" d="M10.824 7.882L9.647 9.06v2.353l2.059-2.353h1.765l-1.177 1.176h-.588l-1.176 1.177h4.411l-1.176 1.764h-2.941l-1.177 1.177h5.294l2.647-4.118h-3.235l2.353-2.353z"/><path fill="currentColor" d="m7.47 7.935l1 1v.835l-.764-.764L6.16 13.4l3.088 3.341l.453-1.212h.63l-.87 2.318l-3.971-4.306l1.976-5.606zm2.925 7.594l-.912 2.436l5.97-1l.477-1.436h-.618l-.306.918l-4.617.765l.64-1.683z"/></svg>