<svg xmlns="http://www.w3.org/2000/svg" xmlns:xlink="http://www.w3.org/1999/xlink" width="24" height="24" viewBox="0 0 24 24"><path fill="currentColor" d="M8.471 4.022L12.012 2l8.796 5.02l.016-.008V17L12 22v-4l5.295-2.988V9.04L12 6.053L8.47 8.04z"/><path fill="currentColor" d="M6.706 5.03L3.217 7.024L3.177 7v9.994l8.823 5V18l-5.294-2.988z"/><path fill="currentColor" fill-rule="evenodd" d="m12 16.018l-3.529-2v-.66l1.365.754l.63-.412l.605.353v.012c0 .135.088.253.206.253c.118.006.218-.106.224-.241c0-.136-.089-.253-.206-.253a.2.2 0 0 0-.17.088l-.66-.383l-.635.412l-1.359-.74v-.983l1.018.588v.006c0 .135.094.247.212.247s.217-.112.217-.247c0-.141-.094-.247-.211-.247a.21.21 0 0 0-.177.094l-1.059-.612v-1.059l2.435 1.4v.024c-.005.13.089.247.206.247c.118.006.218-.1.218-.235c.006-.136-.088-.253-.206-.253a.2.2 0 0 0-.165.082l-2.488-1.43v-.793l1.294-.736l2.277 1.26a.18.18 0 0 0-.024.146c.03.112.165.17.3.136c.13-.03.218-.148.189-.265c-.03-.112-.165-.17-.3-.136a.3.3 0 0 0-.048.018L9.912 9.212l.953-.541l.9.494l.977-.159l.906.488a.2.2 0 0 0-.006.147c.04.106.182.153.312.1c.135-.047.2-.176.158-.282c-.04-.106-.182-.153-.312-.106a.3.3 0 0 0-.052.03l-.983-.53l-.97.165l-.783-.43l.989-.558l3.529 2v3.994l-.853.482v-.794l.612-.753v-1.077c.106-.07.153-.194.1-.288c-.053-.1-.206-.123-.335-.058c-.13.07-.194.205-.136.305c.041.077.13.112.224.1v.965l-.612.753v.923l-1.012.577v-2.447c.135-.07.2-.206.141-.312c-.053-.1-.205-.13-.34-.059c-.13.07-.195.206-.142.312c.035.059.112.094.194.094v2.494zm.854-6.27a.18.18 0 0 1-.012.129v.005l1.523.824v1.706c.094-.012.183.023.218.094c.053.106-.006.241-.135.306c-.13.07-.277.041-.336-.059c-.053-.094-.005-.218.106-.288v-1.67l-1.482-.807a.3.3 0 0 1-.07.03c-.136.035-.271-.024-.3-.141c-.03-.112.058-.23.194-.265c.129-.035.264.03.293.135" clip-rule="evenodd"/></svg>