<svg xmlns="http://www.w3.org/2000/svg" xmlns:xlink="http://www.w3.org/1999/xlink" width="24" height="24" viewBox="0 0 24 24"><path fill="currentColor" d="M2 13.549V10.44c0-.219.24-.44.5-.44c.261 0 .5.24.5.44v3.109c0 .196-.164.45-.5.45c-.349 0-.5-.205-.5-.45m9.5-.012v-3.114c0-.219.239-.422.5-.422s.5.222.5.422v3.114a.48.48 0 0 1-.5.461c-.337 0-.5-.215-.5-.461m9.5.013v-3.14c0-.219.238-.41.5-.41c.26 0 .5.21.5.41v3.14c0 .196-.165.448-.5.448s-.5-.203-.5-.448M2.904 7.503c-.75.042-.915.527-.903.764c0 .722.68.764 1.02.694c1.433.042 2.75 1.604 3.229 2.379c.148-.32.564-.886.753-1.129c-1.522-2.187-3.162-2.76-4.099-2.708m18.192 8.994c.75-.043.915-.532.904-.772c0-.729-.68-.77-1.021-.7c-1.433-.043-2.75-1.619-3.23-2.402c-.147.322-.563.894-.752 1.14c1.522 2.208 3.162 2.786 4.099 2.734"/><path fill="currentColor" d="M2.626 15.057c-.391.09-.617.422-.617.694c0 .74.752.777 1.043.74c1.969 0 3.687-2.33 4.998-4.351c1.11-1.709 1.961-3.2 3.982-3.2c1.898 0 3.03 1.554 3.533 2.465l.787-1.255c-.61-.903-2.328-2.65-4.32-2.65S8.761 8.748 8.137 9.69c-1.742 2.636-2.803 4.315-3.787 4.941c-.915.582-1.235.313-1.724.425"/><path fill="currentColor" d="M21.383 8.944c.391-.09.617-.423.617-.695c0-.74-.752-.776-1.043-.74c-1.97 0-3.687 2.33-5 4.351c-1.108 1.709-1.96 3.2-3.98 3.2c-1.898 0-3.03-1.554-3.534-2.465l-.787 1.255c.61.903 2.328 2.65 4.32 2.65s3.272-1.248 3.895-2.19c1.743-2.636 2.804-4.315 3.788-4.941c.915-.582 1.234-.313 1.724-.425"/></svg>