<svg xmlns="http://www.w3.org/2000/svg" xmlns:xlink="http://www.w3.org/1999/xlink" width="24" height="24" viewBox="0 0 24 24"><path fill="currentColor" d="m7.433 11.073l-.014.013a1.285 1.285 0 0 0-.004 1.817l.014.014c.5.503 1.314.505 1.817.004l.014-.014c.503-.5.505-1.314.004-1.817l-.014-.014a1.285 1.285 0 0 0-1.817-.004"/><path fill="currentColor" d="M8.401 5.6L7.025 6.97l.009.01l-3.673 3.654v-.005L2 11.982l.005.005l-.005.006l1.346 1.35l5.011 5.06s1.185-1.562.02-2.732L4.71 11.985l3.67-3.658l1.854 1.864c1.58 1.589 2.706-.035 2.706-.035zm13.582 6.413l.017-.017l-6.336-6.363s-1.163 1.52-.061 2.627l3.74 3.758l-3.661 3.647l-1.713-1.719c-1.228-1.232-2.854-.116-2.854-.116l4.515 4.532l6.362-6.338z"/><path fill="currentColor" d="m14.758 11.073l-.014.013a1.285 1.285 0 0 0-.003 1.817l.013.014a1.286 1.286 0 0 0 1.818.004l.013-.014c.503-.5.505-1.314.004-1.817l-.013-.014a1.285 1.285 0 0 0-1.818-.004"/></svg>