<svg xmlns="http://www.w3.org/2000/svg" xmlns:xlink="http://www.w3.org/1999/xlink" width="24" height="24" viewBox="0 0 24 24"><path fill="currentColor" d="M2 17.623c.01.52.684.342.942.168h.11v.78l.233.273l.61-.642v-.453c.148-.084.448-.279.448-.368c.42-1.248 1.295-1.58 1.674-1.59l.563-.632h.69c.31-.158.984-.105 1.284-.1l.88-.763l.105-.337c.674 0 1.442-.38 2.027-.38h1.321c.284 0 .721.027.927-.079c0 .706.294.843.294 1.18c0 .274-.173.405-.294.479h.368c-.11.063-.379.263-.58.263c-.273.08-.315.969-.299 1.316h.421c.432-.405 1.285-1.453 1.285-1.68c0-.283-.374-.526-.374-1.289c0-.61.342-1.047.532-1.242l.194.12c.11-.284.385-.842.616-.842c.227 0 .59.664.764.995l-.242.253h.242c-.069.153-.316.447-.432.447c-.29 0-.342.685-.332 1.133c.527-.359 1.596-.911 1.596-1.132c0-.216-.222-.558-.306-.7v-.774c0-.78-.163-1.016-.274-1.08h-.568c.337-.063.732-1.579 1.242-1.579c.41 0 .59 1.148.648 1.653c.09.158.379.453.695.453s.737-.353.884-.527v-.5s.153-.337.253-.495v-.479l.263-.5V8.59a.63.63 0 0 0 .369.152c.184 0 .4-.194.473-.357a1.33 1.33 0 0 1-1.105-.622c.184.106.663.327 1.105.327c.553 0 .748-.443.748-.827c-.126.284-.432.527-.663.527c-.227 0-.343-.169-.637-.495c-.3-.327-.79-.316-1.053-.316c-1.474-1.758-2.748-1.822-3.064-1.822s-.295.042-.769.106c-.474.058-.821-.206-1.126-.064c-1.075.611-1.854.664-2.38.843c-.421.147-.753.684-.869.937c-.294.432-1.01 1.4-1.505 1.81c-.632.527-1.17.58-1.611.58c-.353 0-.948-.321-1.206-.527c-.11 0-.59 0-.774-.052c-.237-.058-.926-.537-.926-1.269c0-.59.242-1.053.405-1.21c.116.041.421.12.753.12c.463 0 .684-.263.695-.537a1.6 1.6 0 0 0-.063-.479a.47.47 0 0 1-.332.448a1.07 1.07 0 0 0-.584-.18c-.237 0-.453.28-.532.432c-.36.381-.572.878-.6 1.4c0 .748.39 1.206.658 1.39c.274.185 1.179.485 1.179.854c0 .594-.763 1.142-.784 1.42c-.021.222.052 1.49.126 2.07c-.19.179-.61.542-.79.542c-.284.016-.59.221-.663.416c-.305.985-1.448 1.516-1.822 1.664c-.379.147-.379.4-.473.579c-.095.184-.59.653-.59 1.179z"/><path fill="currentColor" d="M18.483 5.872c-.21.532-.526 1.222-.674 1.222c-.116 0-.179-.063-.242-.132c-.058-.063-.12-.126-.226-.126s-.142.063-.18.131c-.036.064-.073.127-.178.127c-.1 0-.216-.148-.342-.306c-.153-.19-.316-.394-.474-.394c-.232 0-.369.242-.41.357c-.227.67-.717 2.006-.864 2.006c-.09 0-.121-.042-.158-.09c-.042-.052-.084-.105-.205-.089c-.095.01-.185.221-.29.458c-.132.306-.284.658-.495.658c-.131 0-.21-.094-.279-.194c-.084-.111-.168-.227-.342-.227c-.258 0-.4.284-.437.421l-.521 1.311l-.39-.137c-.147.369-.516 1.106-.816 1.106c-.368 0-.595-.437-.79-.832c-.163-.316-.305-.59-.494-.59c-.337 0-.464.49-.49.737h-.358l-.684 1.496h-.29l-.79 2.374h.211c.263-.137.81-.116 1.148-.105l.131.005l.88-.763l.105-.337c.352 0 .726-.106 1.084-.2c.337-.09.658-.18.943-.18h1.463c.274 0 .61.011.79-.079c0 .422.1.632.184.817c.053.12.105.226.105.368c0 .263-.173.4-.294.474h.368l-.074.047c-.131.085-.337.221-.5.221c-.279.074-.316.964-.305 1.311h.421c.432-.405 1.285-1.453 1.285-1.68c0-.104-.053-.21-.121-.336c-.106-.21-.253-.48-.253-.953c0-.61.342-1.047.531-1.242l.195.12c.11-.284.385-.842.616-.842c.227 0 .59.664.764.995l-.242.253h.242c-.069.153-.316.447-.432.447c-.29 0-.342.685-.332 1.133c.158-.106.358-.227.569-.353c.5-.3 1.027-.621 1.027-.78c0-.189-.164-.468-.264-.631l-.042-.069v-.774c0-.779-.163-1.015-.274-1.079h-.568c.147-.026.3-.326.474-.663c.226-.432.479-.916.768-.916c.41 0 .59 1.148.648 1.653c.09.158.379.453.695.453s.737-.353.884-.527v-.5s.153-.337.253-.495v-.479l.263-.5V8.59a.63.63 0 0 0 .369.152c.184 0 .4-.194.473-.358a1.33 1.33 0 0 1-1.105-.62c.184.105.663.326 1.105.326c.553 0 .748-.443.748-.827c-.127.284-.432.527-.663.527c-.195 0-.316-.132-.537-.38l-.106-.115c-.284-.316-.758-.316-1.021-.316h-.021a6.7 6.7 0 0 0-1.174-1.106z"/><path fill="currentColor" d="M18.32 5.762c-.084.21-.19.453-.29.669a3.5 3.5 0 0 1-.263.452l-.052-.058l-.011-.01a.5.5 0 0 0-.363-.184a.35.35 0 0 0-.242.094c-.053.048-.085.106-.106.132v.005l-.01.016a3 3 0 0 1-.19-.221l-.037-.042a2 2 0 0 0-.237-.263c-.084-.074-.205-.158-.347-.158a.56.56 0 0 0-.421.194a.8.8 0 0 0-.18.3c-.11.332-.289.827-.457 1.238q-.118.296-.263.579a.4.4 0 0 0-.106-.09a.4.4 0 0 0-.237-.037a.33.33 0 0 0-.21.127c-.042.047-.074.105-.106.163a5 5 0 0 0-.131.29l-.047.105q-.073.18-.18.342a.4.4 0 0 1-.068.079l-.02.01c-.027 0-.043-.005-.138-.131c-.079-.105-.216-.29-.484-.29a.57.57 0 0 0-.448.227a.9.9 0 0 0-.173.326l-.448 1.127l-.39-.137l-.073.179a4 4 0 0 1-.332.658a1.4 1.4 0 0 1-.2.253c-.063.063-.095.068-.1.068c-.09 0-.179-.047-.279-.158a2.3 2.3 0 0 1-.279-.447l-.058-.11a4 4 0 0 0-.221-.401c-.053-.074-.105-.147-.174-.205a.42.42 0 0 0-.273-.106c-.28 0-.448.21-.537.39c-.053.11-.095.237-.116.347h-.316l-.685 1.495h-.31l-.858 2.58h.416l.72-2.174h.28l.684-1.495h.41l.017-.184a1.1 1.1 0 0 1 .105-.385c.063-.126.132-.168.19-.168c0 0 .01 0 .026.016a.5.5 0 0 1 .1.12q.101.167.184.343l.069.126c.094.18.205.38.342.532c.137.158.32.29.563.29c.153 0 .28-.09.369-.174c.094-.09.184-.21.263-.332c.11-.179.21-.384.29-.553l.394.132l.595-1.49v-.016a.6.6 0 0 1 .105-.184c.042-.058.095-.084.148-.084c.063 0 .095.026.174.131l.015.021c.069.09.2.264.432.264c.19 0 .326-.137.405-.248c.09-.12.158-.279.221-.416l.053-.12q.072-.162.158-.317c.01.016.047.063.09.095a.34.34 0 0 0 .22.074a.26.26 0 0 0 .159-.063c.026-.027.052-.053.068-.08l.11-.184c.074-.147.159-.342.248-.552c.168-.422.353-.927.463-1.264a.5.5 0 0 1 .09-.153q.071-.07.142-.068l.021.005l.068.053q.086.08.195.216l.032.042c.053.074.12.153.179.21a.6.6 0 0 0 .126.111a.35.35 0 0 0 .437-.026a.5.5 0 0 0 .1-.137v-.005l.021-.032c.01 0 .021.01.08.068v.006c.068.068.178.19.378.19a.32.32 0 0 0 .21-.106a.7.7 0 0 0 .127-.153a4 4 0 0 0 .237-.431l.263-.611a5 5 0 0 0-.326-.237"/></svg>