<svg xmlns="http://www.w3.org/2000/svg" xmlns:xlink="http://www.w3.org/1999/xlink" width="24" height="24" viewBox="0 0 24 24"><path fill="currentColor" d="M14.162 3.41L12 2L9.838 3.41v2.617l1.622 1.146v1.081l-3.784 2v4.595l-.573.427l-.578-4.12l-.573 4.53l.643.595v1.379l-1.352.826l-1.35-.826v-1.314l.929-.432l.286 1.373l.406-1.8V8.903L9.14 6.778l-.6-.973L4.433 8.26v6.52l-1.622.859v2.686l2.432 1.514l2.433-1.514v-2.048l.919-.46L12 17.8l3.444-2l.713.427l-1.86 2.476l2.568-1.568v-.486l2-1.135l1.243.783v1.39l-1.021.735l-.881-.562l.254-1.206l-.973.633l-5.2 3.335l-3.125-1.963l-.637.957L12.287 22l5.135-3.297l1.605 1.135l2.162-1.54v-2.611l-2.27-1.514l-2.032 1.157l-.562-.525v-4.55l-3.784-2v-.85l4.335 1.498l-4.016-2.611l-.287.27l-1.654-1.151V4.016L12 3.406l1.081.61v1.227h-.508l.508.54l5.406 3.12v4.8l1.08-.287V8.26l-5.405-3.145v-1.71zm-5.405 7.747L12 9.243l3.243 1.676v3.649L12 16.47l-3.243-1.902zm1.622.519L12 10.832l1.622.844l-1.622.848zm0 2.075V12.26l1.351.892v1.492zm3.243-1.492v1.492l-1.351.892v-1.492z"/></svg>