<svg xmlns="http://www.w3.org/2000/svg" xmlns:xlink="http://www.w3.org/1999/xlink" width="24" height="24" viewBox="0 0 24 24"><path fill="currentColor" d="M12 5.273A1.637 1.637 0 1 0 12 2a1.637 1.637 0 0 0 0 3.273M12 22a1.636 1.636 0 1 0 0-3.272A1.636 1.636 0 0 0 12 22m.585-15.844h-1.17v2.337h1.17zm0 9.35h-1.17v2.338h1.17zM5.273 12A1.636 1.636 0 1 0 2 12a1.636 1.636 0 0 0 3.273 0m15.09-1.636a1.637 1.637 0 1 1 0 3.273a1.637 1.637 0 0 1 0-3.273m-14.207 2.22v-1.168h2.337v1.168zm9.35 0v-1.168h2.338v1.168zm-8.27-7.65A1.637 1.637 0 1 1 4.92 7.248a1.637 1.637 0 0 1 2.315-2.314m11.83 14.132a1.634 1.634 0 0 0 0-2.314a1.637 1.637 0 1 0 0 2.314M8.763 7.082L7.091 8.763l1.545 1.555l1.673-1.682zm6.574 6.572l-1.683 1.683l1.554 1.555l1.673-1.682zm1.422-6.412a1.64 1.64 0 0 0 2.314 0a1.637 1.637 0 1 0-2.314 0M7.242 19.06a1.638 1.638 0 0 1-2.67-.531a1.636 1.636 0 1 1 2.67.53m2.913-5.215a2.607 2.607 0 0 0 4.256-.847a2.61 2.61 0 1 0-4.256.847m6.772-5.082l-1.7-1.69l-1.554 1.554l1.7 1.7zm-6.573 6.582l-1.7-1.7L7.1 15.2l1.7 1.69z"/></svg>