<svg xmlns="http://www.w3.org/2000/svg" xmlns:xlink="http://www.w3.org/1999/xlink" width="24" height="24" viewBox="0 0 24 24"><path fill="currentColor" d="M8.063 8.964c-1.417.283-3.174-.794-1.134-3.967s5.763-3.212 7.369-2.834c2.077.66 5.78 3.174 3.967 7.935c-.907 1.587-1.7 1.983-1.984 1.983c3.722.993 3.87 5.744 1.134 7.935c-1.707 1.366-4.27 1.538-6.094-.079C10.767 21.254 9.788 22 8.063 22c-4.352 0-3.967-4.25-1.7-4.25c1.022 0 1.133 1.416 1.133 2.266c0 .68 1.713 1.134 1.996-1.417c.08-1.12.076-2.222.072-3.299c-.013-3.46.246-6.666 3.033-9.453c1.09-1.09 1.984-.567 1.417 0c-.661.744-1.684 2.92-1.93 6.186c.545-.085 1.616-.271 2.214-.518c2.98-1.235 2.267-7.085-.567-7.936c-2.834-.85-4.818 1.134-5.101 1.418c-.163.163-.309.324-.284.567c0 0 2.267 2.55-.283 3.4m3.968 4.41v.124c0 2.038-.046 3.804-.335 5.19c.848.825 1.958.935 2.602.76c4.166-1.388 2.343-7.949-2.267-6.074"/></svg>