<svg xmlns="http://www.w3.org/2000/svg" xmlns:xlink="http://www.w3.org/1999/xlink" width="24" height="24" viewBox="0 0 24 24"><path fill="currentColor" d="M16.545 10.48L15.027 12l-8.48-8.473v-.019l1.5-1.5h.025zm.912-6.967l-1.512-1.506h-.012l-3.175 3.175v.012l1.506 1.512h.019l3.174-3.18zM7.453 10.475l-1.512 1.524l-3.924-3.924l-.003-.004l-.001-.005V8.06l.004-.005l1.5-1.5h.018L7.46 10.48z"/><path fill="currentColor" d="m18.063 12.006l-1.518 1.512l-2.268 2.268h-.007l-1.506-1.5l-.006-.012v-.013L15.033 12l5.442-5.449a.02.02 0 0 1 .025 0l1.5 1.5v.025l-3.924 3.937zm-9.085-.007l-1.512 1.525l-3.937 3.924l-.006.002l-.007-.002l-1.512-1.5l-.003-.004L2 15.94l.001-.005l.003-.004l3.924-3.937l1.519-1.518l2.268-2.25V8.22l.006-.002l.007.002l1.505 1.506v.012l-2.261 2.269z"/><path fill="currentColor" d="m8.978 12l8.473 8.473v.018l-1.5 1.5l-.006.002l-.006-.002l-8.474-8.467zm9.085.005L22 15.936v.02l-1.506 1.5l-.006.001l-.007-.002l-3.936-3.93l1.512-1.512h.012zM6.547 20.472l3.174-3.174l.005-.003l.005-.001l.005.001l.004.003l1.5 1.506h.006v.006l.002.007l-.002.006l-3.174 3.168h-.013l-1.512-1.5v-.006l-.002-.006z"/></svg>