<svg xmlns="http://www.w3.org/2000/svg" xmlns:xlink="http://www.w3.org/1999/xlink" width="24" height="24" viewBox="0 0 24 24"><path fill="currentColor" d="m6.375 14.094l-.9-1.469L2 18.55L10.125 22l-1.25-1.875l-4.769-2.075zm11.25 0l.9-1.469L22 18.55L13.875 22l1.25-1.875l4.769-2.075zm-7.5-3.344L12 7.625l1.875 3.125l-.694 1.544l.694 1.581L12 17l-1.875-3.125l.694-1.581zm1.875 5l1.106-1.875l-.312-.85l-.169.225v-1.362l.4-1.138L12 8.875l-1.025 1.875l.4 1.138v1.362l-.169-.225l-.312.85z"/><path fill="currentColor" d="M7.625 9.294L12 2l4.375 7.294l-.825 1.456L12 4.8l-3.55 5.95z"/><path fill="currentColor" d="M2 5.125L12 22L22 5.125L14.075 2l1.05 1.875l4.756 1.744L12 19.087L4.119 5.625l4.756-1.75L9.925 2z"/></svg>