<svg xmlns="http://www.w3.org/2000/svg" xmlns:xlink="http://www.w3.org/1999/xlink" width="24" height="24" viewBox="0 0 24 24"><g fill="currentColor" fill-rule="evenodd" clip-rule="evenodd"><path d="M12 21.112a9.194 9.194 0 1 0 0-18.388a9.194 9.194 0 0 0 0 18.388m-2.188-5.406a3.7 3.7 0 0 1-.389-1.224c-.11-1.073-.153-2.147-.197-3.224l-.032-.752l-.018-.783l-.008-.552c-.017-1.127-.035-2.267.026-3.389a.06.06 0 0 1 .059-.059q.354-.05.703-.09c.324-.04.646-.079.967-.133q.026-.001.024.023c.023 2.694.082 5.383.259 8.077c.011.24.029.506.094.73c.176.646.582 1.1 1.2 1.34c.253.1.511.094.776.077a1.74 1.74 0 0 0 1.065-.53a.06.06 0 0 1 .082 0l1.394 1.295q.018.018 0 .029c-.27.276-.564.53-.882.753a3.33 3.33 0 0 1-1.988.518a2.53 2.53 0 0 1-1.482-.365l-.136-.082a3 3 0 0 1-.482-.336a3.5 3.5 0 0 1-1.035-1.323m4.888-1.03c.353-.841.23-1.764-.412-2.423a1.7 1.7 0 0 0-1.23-.5q-.854.045-1.705.123q-.044-1.014-.077-2.03c0-.011.006-.023.024-.023q.817-.086 1.635-.153a3.35 3.35 0 0 1 1.676.294a3.8 3.8 0 0 1 2.106 2.612c.13.783.177 1.53-.029 2.312a4.7 4.7 0 0 1-.694 1.4h-.006l-1.394-1.318a.064.064 0 0 1-.012-.082c.041-.059.082-.135.118-.212m-5.712-2.894a15 15 0 0 0-.047-.87q-.01-.146-.014-.314a6 6 0 0 0-.027-.48a.08.08 0 0 0-.028-.057a.08.08 0 0 0-.06-.02l-1.683.17l-.04.004c-.12.011-.325.03-.325.155c-.011.524.006 1.112.048 1.777c0 .07.035.1.105.1a39 39 0 0 1 1.936-.17c.135 0 .135-.19.135-.295"/><path d="M12 21.617a9.636 9.636 0 1 0 0-19.271a9.636 9.636 0 0 0 0 19.271m0-.376a9.326 9.326 0 1 0-9.324-9.33A9.324 9.324 0 0 0 12 21.235z"/><path d="M22 12a10 10 0 1 1-20 0a10 10 0 0 1 20 0m-10 9.747a9.76 9.76 0 0 0 9.021-6.028A9.765 9.765 0 1 0 12 21.747"/></g></svg>