<svg xmlns="http://www.w3.org/2000/svg" xmlns:xlink="http://www.w3.org/1999/xlink" width="24" height="24" viewBox="0 0 24 24"><path fill="currentColor" d="m12.436 2l-.741 2.767l-3.873-1.038l-.594 2.213l1.66.445a.573.573 0 0 1 .406.702l-2.076 7.747a.574.574 0 0 1-.702.405l-1.107-.297l-1.146 2.065l3.873 1.038l-.74 2.767l1.66.445l2.371-8.854l1.937.52c2.175.582 5.623.042 6.295-2.466c.545-2.034-1.877-4.062-3.537-4.506l.741-2.767l-1.66-.445l-.741 2.767l-1.107-.296l.741-2.767zm.326 5.425l2.245.602a1.718 1.718 0 1 1-.89 3.32l-2.244-.602z"/><path fill="currentColor" d="M13.465 17.103a2.005 2.005 0 0 0 2.044-3.239c1.36-.001 1.787-.167 2.558-.467l.242-.094c.817.976 1.165 2.274.826 3.54c-.55 2.052-3.263 3.125-5.462 2.678l-.002.009l-1.107-.297L11.823 22l-1.66-.445l1.334-4.98z"/></svg>