<svg xmlns="http://www.w3.org/2000/svg" xmlns:xlink="http://www.w3.org/1999/xlink" width="24" height="24" viewBox="0 0 24 24"><path fill="currentColor" d="M10.782 15.75c-1.088 0-1.17-1.037-1.076-1.562l-1.35-.45l-1.062 2.45l.644 1.793l3.231 3.494l1.269.375c.187.05.687.15 1.125.15c5.219 0 6.894-3.206 6.869-4.913c0-.106-.013-.206-.025-.3c-.52-3.375-3.032-3.537-3.67-3.537a3.2 3.2 0 0 0-1.612.387c-3.562 1.7-4.087 2.113-4.344 2.113"/><path fill="currentColor" d="M3.563 11.525c0-.55.143-1.375.218-1.718l.594-1.313l.95-1.438l6.869-1.575l.712 3.476a4.8 4.8 0 0 0-2.15-.707c-.812 0-.93.925-.943 1.263v8.6c0 2.3 1.843 3.463 2.812 3.781c-8.562-1.45-9.062-8.625-9.062-10.369"/><path fill="currentColor" d="M20.438 6.875c0 2.769-2.5 3.875-3.813 3.875c-1.1 0-3.294-1.012-5.113-2.031C9.687 7.7 8.262 7 7.606 7C5.42 7 4.6 8.731 3.77 9.844C5.506 2.838 11.356 2 13.813 2s6.625 1.413 6.625 4.875"/></svg>