<svg xmlns="http://www.w3.org/2000/svg" xmlns:xlink="http://www.w3.org/1999/xlink" width="24" height="24" viewBox="0 0 24 24"><path fill="currentColor" d="M12 21.063a9.063 9.063 0 1 0 0-18.126a9.063 9.063 0 0 0 0 18.126M22 12a10 10 0 1 1-20 0a10 10 0 0 1 20 0"/><path fill="currentColor" d="M12 4.5v5.313l4.375 2.006zm0 0l-4.375 7.319l4.375-2zm0 10.763v3.612l4.375-6.218zm0 3.613v-3.613l-4.375-2.606zm0-4.444l4.375-2.613l-4.375-2z"/><path fill="currentColor" d="M7.625 11.82L12 14.431V9.813z"/></svg>