<svg xmlns="http://www.w3.org/2000/svg" xmlns:xlink="http://www.w3.org/1999/xlink" width="24" height="24" viewBox="0 0 24 24"><path fill="currentColor" d="M17 13.763c-1.106 1.323-2.353 1.765-4.118 1.765c-1.164 0-2.205-.412-2.94-.883l-1.177 1.47c.941.712 2.388 1.177 4.117 1.177c1.53 0 2.806-.265 4.117-1.176l1.765 1.764a10.16 10.16 0 0 1-6.47 2.353c-3.2.023-5.746-1.335-7.058-4.117a4.82 4.82 0 0 0 2.353-4.117c0-1.4-.988-3.123-2.353-4.117c1.365-2.57 3.723-4.059 7.058-4.118c2.217-.023 4.905.924 6.47 2.353l-1.765 1.765c-1.3-.824-2.587-1.177-4.117-1.177c-1.588 0-3.194.388-4.117 1.182l1.176 1.47c.706-.458 1.983-.887 2.941-.887c1.718 0 3.012.44 4.117 1.764l4.118-4.117C19.217 3.547 16.164 2 12.293 2C7.905 2 4.3 4.411 2.883 8.47c1.588.647 2.94 2.035 2.94 3.529s-1.34 2.893-2.94 3.529c1.076 4.423 4.934 6.558 9.41 6.47c4.035-.071 7.105-1.589 8.822-4.118z"/></svg>