<svg xmlns="http://www.w3.org/2000/svg" xmlns:xlink="http://www.w3.org/1999/xlink" width="24" height="24" viewBox="0 0 24 24"><path fill="currentColor" d="m11.902 2l-5.79 3.158v6.316l.964.526l-.963.526v6.316L11.833 22l5.859-3.158v-3.684h-2.785l-3.005 1.6l-2.632-1.4v1.174l2.632 1.426l3.353-1.78h1.384v2.138l-4.737 2.631l-4.737-2.631v-5.263l.91-.506l3.827 2.085l3.447-1.88l-.968-.552l-2.479 1.379L9.06 12l-.979-.547l-.916-.506V5.684l4.737-2.631l4.737 2.631V7h1.053V5.158zm5.79 5.5h-1.053v3.447l-.91.506l-3.827-2.085l-3.379 1.842l.99.537l2.389-1.326l2.042 1.132l1.974 1.09l-.01.004l.73.406v1.579h1.053v-2.106L16.729 12l.963-.526z"/><path fill="currentColor" d="M16.354 5.363c-.063-.005-.073.09-.068.132c0 .1.184 0 .205-.021c.016-.021-.052-.106-.137-.11m.864-.031c-.069-.016-.137.068-.164.115c0 .132.106.053.164 0c.031-.031.073-.105 0-.115m-.674-.421c-.063-.011-.053-.08-.042-.106c.037-.079.158 0 .158.048q.001.08-.116.058m.631 1.289a.13.13 0 0 1 .085-.158c.126.053.052.221.036.29c-.015.063-.09-.01-.12-.132m.442.632c-.136.026-.279.19-.331.263l.331.037c.053-.11.137-.332 0-.3m-1.01.047c-.074-.032-.137.132-.158.21h.321c-.02-.052-.09-.173-.158-.21zm.384-.047c-.052.031-.1-.069-.116-.121c.032-.095.116-.064.163-.027c.053.032.016.105-.047.148m.169-.258c-.043.02-.174-.095-.237-.158c0-.074.105-.048.152-.032c.037.016.137.158.085.19m-.337.005c.026-.068-.069-.079-.116-.079l-.09.158c.053 0 .18-.016.211-.079zm-5.064 3.8c-.026-.005-.036-.074-.036-.105c.073-.08.1 0 .115.026c.011.021-.042.09-.079.079m-.531-.168c-.01-.064-.047-.085-.063-.09h.252c-.02.037-.063.116-.047.132c.026.02-.01.115-.079.1c-.068-.021-.053-.069-.063-.143m6.342-1.69c-.037 0-.142-.147-.195-.221c.074.084.437 0 .448.021c.015.026-.206.2-.253.2m.132-.574c-.032-.052-.185-.042-.253-.031a.4.4 0 0 0 .121.11c.053.021.168-.005.132-.079m-.858.148c-.053-.01-.1.037-.116.063c.016.068.079.058.132.068c.052.01.131-.031.126-.094c-.005-.053-.08-.021-.142-.037m.4-.058a.14.14 0 0 0-.153-.126c0 .042-.02.152-.026.263c-.01.142.09.19.147.19c.058 0 .048-.196.026-.327z"/><path fill="currentColor" d="M17.76 8.674c.036-.085-.306-.264-.158-.227c.19.042.173.321.157.227m-.432.152c-.053.027-.032-.11-.016-.184a.5.5 0 0 1 .19 0c.052.026-.106.158-.174.184m-.232.3c-.031-.058.016-.137.043-.168c.105 0 .094.247.078.273c-.015.022-.078-.031-.12-.105m-.315-.2l-.027-.452a.6.6 0 0 1 .184-.053c.08.005.037.053.037.116c0 .052-.073.052-.11.047v.295a.3.3 0 0 0 .11-.026c.069-.032-.01-.095-.037-.169c-.02-.074.032-.026.18 0c.152.026.063.2 0 .195c-.058 0-.053.026-.069.09c-.016.057-.195.126-.263.105c-.074-.021 0-.064 0-.148zm-.164-1.037c-.052-.015-.079-.094-.084-.131l.332-.037c.063.026.184.095.163.147c-.021.063-.353.037-.41.021m-.057.995c-.064 0-.064-.084-.053-.131c.063-.053.137.01.147.036c.016.021-.015.095-.094.095m.094.216c-.02.031-.09-.069-.12-.126a.3.3 0 0 1 .12-.021c.037.01.032.105 0 .147m.774.426a.08.08 0 0 1-.026-.09c.158-.015.179.153.179.18s-.111-.053-.158-.09zm-.221.242c-.047.016-.09-.131-.105-.205a.14.14 0 0 1 .105 0c.053.026.063.19 0 .21zm-.39.085c-.052-.037.021-.143.064-.19c.015 0 .052.01.073.053s-.073.179-.137.137m-.242-.274c-.084 0-.079-.08-.063-.116c.037-.016.116-.042.142-.021c.037.021.027.137-.079.137m1.31.458c-.025-.042-.352-.048-.289-.032c0 .026.016.084.01.105c0 .032.306-.026.28-.073m-.178-.3c.016.094-.348.252-.126.22c.273-.036.231-.289.126-.215z"/><path fill="currentColor" d="M17.323 10.105c-.037.047-.016.116 0 .147c.058 0 .184-.01.232-.047c.058-.042.037-.2 0-.237s-.18.085-.227.142zm-.79.132c.027-.027.095-.248.127-.353c0 .105.174.216.258.263v.09c-.137.015-.4.031-.38 0zm.7 1.2c-.052-.01-.126.02-.157.037c0 .036.126.078.158.068c.031-.016.057-.09 0-.105m.222-.163c-.042-.08.226.036.231.042l-.037.115a.6.6 0 0 1-.194-.157m-.084-.174c-.032-.08.057-.127.11-.142v.237c0 .02-.068 0-.11-.095m-.369-.28c-.068-.057.026-.189.084-.247c.058-.005.184 0 .2.053c.021.069-.2.263-.284.195m-1.026 1.848c-.027-.01-.01-.079 0-.115c.09.02.263.073.263.115c0 .053-.232.006-.263 0m-.1-.194c-.063-.021.026-.158.073-.222c.032.011.095.043.106.085c.01.052-.106.158-.18.136m.447-.474c-.084 0-.095-.263-.09-.39c.164-.09.227.185.253.274c.032.084-.068.121-.168.116zm-.616-.31a.28.28 0 0 0 .105.247c.116-.053.037-.158.022-.232c-.006-.053.189-.237.284-.32c.068 0 .226-.006.295-.017c.068-.01.026-.079 0-.116c-.137-.005-.411-.005-.427.042c-.02.058-.252.248-.279.395m-.99.83c-.052 0-.005.09.022.138c.052 0 .168-.01.158-.058c-.01-.058-.121-.074-.18-.08m-.278.054c-.053-.053-.121.084-.153.157c.242 0 .132.18.169.169a1 1 0 0 1 .2.026c0 .09.01.263.052.284c.037.021.253-.179.358-.284c-.052-.037-.168-.126-.242-.158c-.095-.037-.242 0-.332-.037c-.084-.031.011-.094-.052-.157m-.427-.011c.006-.084.053-.253.2-.226s-.068.158-.2.226m-.363.29c-.052-.043-.215.042-.289.084l.037.058c.09.01.294.02.342 0c.063-.027-.016-.09-.084-.143zm-.152-.243c-.063-.026-.11.085-.132.143c.08 0 .237-.011.242-.053c.01-.053-.037-.053-.11-.09m1.12-1.452a5 5 0 0 1-.404.173c.215.132.668.385.731.358c.08-.031 0-.247 0-.294c0-.043-.274-.269-.326-.237m2.548 1.805c-.042-.021-.079.032-.095.058a4 4 0 0 0-.052.437c.016.1.179 0 .22-.021c.043-.021-.041-.195-.073-.227q-.046-.056.032-.105c.052-.02.02-.116-.032-.142m-.42.463c-.053 0-.127-.174-.159-.263c.158-.026.158.095.221.132c.053.031.006.142-.058.131zm.036-.631c-.026-.09.074-.195.126-.232c.1.032.053.263.037.295c-.016.042-.037.2-.09.168c-.052-.031-.047-.116-.073-.231m.347-.295c.053-.042.142-.158.174-.205c.047.02.121.079.063.152c-.068.085.105.306.121.4c.016.09-.042.095-.12.063c-.075-.031-.017-.242-.08-.305s-.095.063-.12.18c-.032.12-.038-.054-.064-.117c-.032-.058-.037-.115.026-.168m-.552 1.579c-.053.031 0 .105.037.142l.131.016l.042.142h.342l-.342-.19c0-.031 0-.105-.026-.142c-.037-.042-.126-.01-.184.032m.442 2.437c0-.085.02-.08.031-.069c.016 0 .053.005.074.027c.016.026-.037.268-.105.247c-.069-.021-.005-.105 0-.21zm-2.348 3.147c-.105.005 0 .142.074.205c.032 0 .09-.015.09-.079c0-.079-.037-.137-.164-.126m-1.01.458c-.074.032-.005.121.037.158c.042-.005.12-.047.116-.105c-.01-.085-.053-.095-.153-.053M17.323 18c-.121-.105-.253.047-.305.137c.047 0 .152.005.2.037c.052.026-.048.1-.095.131c-.021.037-.026.105.095.095c.152-.01.263-.263.105-.4m-.39-.184l.158-.216l.174.216zM13.65 20.61c-.12.042.011.185.095.248c.032-.021.105-.074.121-.142c.021-.085-.068-.158-.216-.106m3.211-4.726c0 .09.021.263.158.253c.174-.016-.069-.28-.158-.253m-.179-.079c-.021-.02-.01-.068 0-.09c.053-.089.126 0 .116.053c-.01.058-.095.058-.116.037m.631-.405c-.073-.016-.031-.121 0-.174c.032 0 .09.01.1.053c.011.053 0 .137-.1.12m-.989.337c-.053 0-.053-.08-.037-.121c.037-.09.121-.069.148 0c.026.063-.032.105-.106.115zm.221-.41c-.095 0-.063-.232-.037-.348h.09c.052 0 .063.347-.053.347m-1.737.13c-.063-.036-.126.095-.158.159c0 .094.106.037.158 0c.053-.032.08-.116 0-.158m.59.1c-.069-.036-.137.106-.169.174c0 .106.116.037.169 0c.052-.036.084-.131 0-.173m-1.4.5c.005-.052-.037-.062-.063-.062a.4.4 0 0 1-.148.063c-.052 0 0 .063.08.084c.078.021.12-.016.13-.084m-3.074.77c.016-.07-.031-.09-.053-.09c-.026 0-.079.01-.1.063c-.015.052.043.084.069.095c.021.005.063 0 .084-.069m.858.43c-.11-.068-.132.08-.126.159h.158c.079 0 .105-.074-.032-.158m-.337.085c-.016-.074-.005-.21.137-.168c.184.057-.084.305-.137.168m-1.22-.3c0-.095.036-.263.146-.184c.143.105-.052.284-.147.184m.283-.658c-.037 0-.037.068-.031.105c0 .037.02.127.068.127c.053 0 .063-.08.063-.142c0-.064-.052-.095-.105-.09zm-.2.053c-.047 0-.052.063-.052.094c.01.032.042.095.068.106c.032 0 .084-.08.084-.106c0-.031-.037-.1-.1-.094m-.258-.206c-.047-.01-.042-.063-.036-.089c.005-.026.026-.074.063-.074c.042 0 .063.042.058.084c0 .043-.021.085-.085.08m.458.085c.006-.053-.052-.09-.084-.106c-.079.043-.068.158-.031.174c.036.021.105-.016.115-.074zM9.555 16c-.074.005-.106-.084-.11-.127c.01-.047.047-.131.11-.12c.068.01.09.084.094.12c0 .037-.015.111-.094.122zm.19-.037c-.048.01-.064-.053-.07-.079c0-.026.027-.084.074-.079c.043.01.053.053.058.08c0 .025-.01.073-.058.078zm2.41 5.495c-.048 0-.069.052-.074.079c0 .026.016.09.074.09a.11.11 0 0 0 .105-.08c0-.031-.053-.09-.105-.09m-.5.047c.01-.068.047-.205.12-.184c.1.021.059.195-.12.184m-.306.263c-.084.037-.116-.094-.12-.168h.157c.116 0 .063.126-.037.168M10.96 21c-.03-.01-.036-.058-.036-.084c0-.01.01-.043.037-.058c.037-.021.074.058.074.105c0 .053-.027.053-.074.037m-.878-.669c-.053.048.005.106.042.132c.032-.026.09-.095.09-.132c0-.042-.058-.052-.132 0m-.932-.542c-.052 0-.157-.19-.205-.284a.214.214 0 0 1 .263.132c.021.052.01.163-.052.158zm-.431-.331v-.242a.6.6 0 0 1 .21.136c.048.058-.12.095-.21.106m-.963-.432c.01.08.047.226.094.19c.064-.053.048-.19-.094-.19m-.974-.584c-.037.132-.058.405.126.453c.184.042-.01-.285-.126-.453m-.279-.784c-.037-.016.01-.095.037-.137c.105-.047.142 0 .158.052c.005.043-.158.1-.195.085m.032-.574c-.074-.005-.032.116 0 .179c.036 0 .115-.016.157-.068c.043-.064-.068-.095-.157-.106zm.29-1.179c-.064-.026-.064.09-.054.158c.032.01.1.032.137 0c.042-.047-.01-.121-.084-.158m.025-.884c-.079-.047-.168.163-.21.274c-.026.073.137.037.179 0c.047-.037.126-.216.031-.274m3.316-1.758c-.02-.042-.116.01-.158.047c.084 0 .132.2.19.206c.058 0 .158-.074.158-.116c0-.048-.116-.027-.158-.037c-.037-.01 0-.053-.032-.105zm.253-.526c-.021-.021-.158.005-.226.026c-.053.053.152.116.226.116s.026-.116 0-.142m.326.331c-.063-.084-.168.032-.21.106a.13.13 0 0 0 .09.042c.052 0 .189-.048.115-.148zm-.026.542c-.074-.042-.032-.163 0-.22c.073 0 .2.141.184.194c-.021.053-.095.084-.184.026m-.374-.5c-.063-.026-.084.106-.084.169c.031.01.116.026.174-.021c.063-.063-.016-.105-.09-.148m-.51-.268c-.053-.01-.1.074-.116.121c.137.042.037.21 0 .237s-.042.12.016.142c.052.026.2-.053.22-.095c.027-.047-.089-.068-.068-.12c.027-.054.063-.038.069-.164c.01-.126-.053-.116-.121-.126zm-.41-1.621c-.011-.042.03-.084.057-.105c.11.063.053.2 0 .215c-.053.016-.042-.052-.058-.105zm.978-.379a.35.35 0 0 1-.142-.147c.047-.01.158-.037.226-.027c.084.006.174.169.137.195c-.037.032-.142 0-.221-.026zm-1.237 1.526c.08.032.237.105.21.18c-.03.089-.247-.006-.21-.18m-2.716.848c-.02-.053-.079-.021-.105 0a1 1 0 0 1 .063.158c0 .02.042.242.085.284c.047.037.242.09.242.052c0-.036-.221-.263-.185-.29c.032-.03.085-.12.053-.12s-.126-.021-.153-.084m.248-.321c-.053.02-.09-.037-.105-.069c.047-.053.147-.053.178 0c.027.053-.01.053-.073.074zm.363-.61c-.053-.017-.005-.08.021-.106c.021 0 .079.026.105.047c.042.021.053-.016.106.037c.042.053.026.232 0 .263c-.037.027-.106-.016-.106-.137c.01-.12-.073-.084-.131-.105zm.79-.511c-.043-.053.036-.106.078-.127a1 1 0 0 1 .169.08c.02.02.02.073-.042.104a.17.17 0 0 1-.206-.052zm.81.463c-.021-.08-.316-.316-.458-.421c-.084.052.2.42.263.473c.053.048 0 .206 0 .264c-.01.057.016.126.063.11c.042-.01.158-.337.132-.426M6.828 11.23c0-.052.032-.079.053-.089c.068 0 .105.1.11.137c0 .037-.052.052-.084.052c-.031 0-.068-.042-.079-.105zm1.074.9c-.032-.02-.137.006-.184.027c-.016.052-.042.158 0 .194c.052.053.168 0 .21-.052c.042-.053.021-.142-.02-.168zm-.474-.342c-.031-.115-.263-.226-.368-.263c.068.163.221.5.263.51c.053.011.132-.105.105-.252zm-.694-1.22c-.048-.022-.021-.159 0-.217c.12-.068.136 0 .179.064c.047.068-.116.184-.18.157zm.3-1.48c-.037-.052.079-.147.142-.184c.094.021.042.116 0 .169c-.037.052-.095.084-.142.015m-.448.169c.063.184.2.526.242.39c.058-.159 0-.459-.242-.39m-.026-.774c-.074-.021-.158.132-.19.21c0 .006.016.016.08 0c.078-.02.194-.184.105-.21zm.084-.142c.053-.021.516-.421.269.21c.01-.094-.037-.263-.264-.21zm.29-.647c-.048.015-.137-.106-.18-.164c.022-.073.116-.015.18.022c.063.031.063.131 0 .142m-.564.284c-.031.005-.052.068-.052.105a.09.09 0 0 0 .095.042c.057-.005.263-.12.257-.173c-.01-.053-.263.015-.3.026m.1-.542c-.031-.027-.026-.085-.015-.106c.179.011.152.143.131.158c-.026.021-.079-.015-.116-.052m-.22.168c0-.063.052-.12.078-.142c.106-.021.09.121.09.142c0 .026-.048.142-.09.137c-.052 0-.079-.053-.079-.137m.294-.447c0-.058-.105-.106-.158-.116c.016.053.042.147.08.168c.052.021.083.021.078-.052m.453-.927c-.037-.031-.032-.063-.027-.073c.022-.016.074-.037.122 0c.052.042.015.058 0 .116c-.022.063-.053 0-.095-.043m-.2.185c-.074-.021-.032-.08 0-.106c.095-.084.131 0 .2.106c.068.105-.106.026-.2 0m-.284.026c.01-.158-.185-.279-.28-.326c-.073.047-.194.126-.057.115c.168-.02.326.4.337.211m.189-.563c-.01-.026.037-.095.063-.126c.053-.064.105.026.105.063c0 .042-.073.12-.105.12c-.031.006-.042-.026-.063-.057m-.116-.032c-.037 0-.052-.052-.058-.079l.053-.052s.09.031.095.052s-.048.074-.09.08m.632-.268c-.069 0-.084-.074-.084-.105a.22.22 0 0 1 .084-.1c.042-.016.079.094.09.131s-.006.08-.09.08zm-.527.958a.12.12 0 0 1-.052-.095l.126.032c.021-.027.132-.032.11.063c-.015.09-.115.037-.178 0zm.7-1.627c-.031.027-.078-.042-.094-.079c0-.078.058-.084.095-.052c.036.031.042.1 0 .131m.727-.157c-.016-.011-.005-.09 0-.127c.052 0 .137.095.126.127c-.016.031-.105.01-.126 0m-.174-.111c-.068-.01-.031-.079 0-.116c.037-.063.105 0 .132.069c.026.063-.048.063-.132.052zm1.042-.374c-.068.01-.052-.1-.037-.158a.14.14 0 0 1 .132 0c.063.042-.005.143-.095.158m-1.231.721c-.064.032.01.137.052.19c.042-.037.132-.121.137-.158s-.105-.074-.19-.032m6.094-1.305c-.037 0-.037.074-.031.11c.126.048.053.127 0 .159c.01.073.037.22.074.215c.042 0 .157-.231.157-.268c-.005-.042-.079-.042-.105-.105c-.037-.058-.053-.1-.095-.106zm-.384.226c-.037 0-.084-.079-.105-.115c.037-.048.158 0 .21.052c.053.042-.057.069-.105.063m-.373-.19c-.069.032-.095-.041-.1-.083c.015-.027.052-.084.1-.074c.052.01.079.121 0 .158m1.81.864c0-.026-.147-.105-.221-.137c-.053 0-.021.137 0 .158s.21.016.221-.02m.79.416c-.053.053.015.3.052.416c.047-.158.232-.274.321-.316c-.047-.016-.137-.063-.142-.1s.3-.037.295-.058c0-.021-.174-.163-.263-.232c.015.027.047.1.026.137c-.026.053-.237.09-.295.158z"/><path fill="currentColor" d="M15.092 4.2c-.053-.02-.085 0-.095.016h-.021c-.037.042.105.142.179.19a3 3 0 0 0-.242.226c-.143.158.084.352.142.368c.058.021.3-.3.263-.337c-.032-.036-.084.11-.226.153c-.143.037-.095-.126-.069-.184s.316-.132.295-.18a.8.8 0 0 0-.226-.252"/><path fill="currentColor" d="M15.517 4.105c-.073-.02-.194.053-.242.09l-.031.052c-.084.106.3 0 .358.106c.057.105.168.205.247.094s-.242-.315-.332-.342m-.394 0a1.6 1.6 0 0 1 0-.473c.152.1.437.294.368.284c-.079-.01-.326.226-.368.19m-.3-.226c-.048-.026.02-.21.057-.305l.148.052c.037.01-.148.28-.205.253m-.253-.037c-.063-.047-.053-.342-.037-.479l.263.163c-.047.127-.157.358-.226.316m-1.29-.774c-.03-.073-.247 0-.236.027c.016.02.052.079.09.152c.052.09.11.116.147.137c.042.021.037-.242 0-.316m-.81.048c.016-.027-.179-.021-.274-.021c.027.052.095.147.116.147c.032 0 .142-.09.158-.126m.853-.142c-.01-.053.068-.148.11-.195c.042.031.121.105.121.126c0 .027-.226.127-.236.069zm-1.264.005c-.036-.026-.052-.263-.057-.379c.052-.042.147.179.194.195c.043.02.264-.016.237.052c-.031.08-.316.169-.368.132zm-.173-.874l-.132.084c.116 0 .021.19 0 .243c-.026.052.064.063.1.057c.037 0 .174-.179.206-.21c.031-.037.173.121.2.158c.026.026.178.016.205-.021c.016-.032-.38-.216-.58-.306zm3.631 2.648c-.047 0-.068.052-.073.09c.031.115.131.052.136.02c.006-.031-.005-.105-.063-.105zM10.44 3.579c-.074-.058-.106.153-.106.263c.058-.084.2-.053.263-.026a.7.7 0 0 0-.158-.237m4.715 12.479c-.052-.053 0-.142.037-.184c.132 0 .084.1.068.184c-.015.09-.042.068-.105 0m-3.01 5.131c-.053-.042-.021-.084 0-.1c.131-.047.142.032.12.08c-.02.041-.052.078-.12.02m.22.074c-.057-.047-.026-.084 0-.105c.127-.042.143.037.122.084c-.021.042-.053.079-.121.021"/></svg>