<svg xmlns="http://www.w3.org/2000/svg" xmlns:xlink="http://www.w3.org/1999/xlink" width="24" height="24" viewBox="0 0 24 24"><path fill="currentColor" d="M2.03 11.425c1.411 1.525 3.91 2.75 7.435 3.656l.325.08l.331.082l.338.082l.143.03l.288.07l.35.087l.343.087l.269.07l.262.074l.25.069l.257.075l.25.069l.23.075l.12.037l.23.075l.17.056l.162.056l.269.094l.05.019l.262.094l.25.093l.094.044l.28.113l.176.08c1 .445 1.725.913 2.156 1.394c.63.7.618 1.45-.163 2.394a10 10 0 0 1-4.73 1.418a5.7 5.7 0 0 0-.694-1.2a9 9 0 0 0-.537-.662l-.1-.113l-.131-.143l-.288-.3q-.37-.377-.762-.731l-.137-.125l-.563-.488l-.2-.168l-.1-.082l-.212-.168l-.213-.175l-.275-.213l-.28-.218l-.232-.182l-.244-.175l-.243-.187l-.313-.225l-.325-.231l-.262-.188l-.269-.187l-.275-.188l-.425-.293l-.294-.188l-.293-.2l-.3-.2l-.388-.25l-.393-.25l-.488-.312l-.33-.206l-.5-.313l-.288-.18A10 10 0 0 1 2.01 11.6zm.549 3.843l.175.106l.462.3l.6.388l.288.193l.287.188l.55.375l.269.187l.262.188l.256.175l.25.181l.25.175l.238.175l.23.175l.344.25l.325.256l.213.169l.206.162l.2.163l.187.156l.1.081l.188.156l.175.157l.175.15l.169.15l.243.224l.156.144l.425.425l.132.144q.5.532.912 1.137a10 10 0 0 1-8.267-6.73"/><path fill="currentColor" d="M4.466 5.464A3.16 3.16 0 0 0 4.99 7.42c.587.937 1.662 1.724 3.23 2.412l.12.05l.205.087q.591.237 1.275.463l.194.062l.25.081l.5.15l.268.075l.132.031l.137.038l.269.075l.143.031l.563.138l.362.087l.313.075l.6.15l.293.081l.288.075l.28.082l.276.08c3.893 1.188 5.961 2.725 6.348 4.644a10 10 0 0 1-1.774 2.537a3 3 0 0 0-.812-1.731a6.6 6.6 0 0 0-1.8-1.338l-.106-.062l-.182-.094l-.312-.15l-.162-.075l-.194-.087l-.106-.044l-.1-.044l-.319-.131l-.219-.087c-.318-.125-.656-.238-1.006-.357l-.181-.056l-.25-.081l-.262-.081l-.263-.075l-.412-.119l-.281-.075l-.357-.094l-.368-.093l-.15-.038l-.306-.075l-.52-.125l-.287-.062l-.274-.07l-.275-.074l-.138-.031l-.262-.075l-.263-.069l-.256-.075l-.125-.037l-.5-.15l-.231-.075l-.238-.082l-.23-.081l-.113-.037l-.219-.082q-.163-.06-.325-.125l-.206-.08a4 4 0 0 1-.406-.17l-.194-.08l-.1-.044l-.187-.088c-1.794-.85-2.906-1.831-3.375-2.962A9.95 9.95 0 0 1 4.416 5.52l.05-.062z"/><path fill="currentColor" d="M11.97 2.002h.282c-.75 1-.581 2.28.587 3.756q.244.316.563.643l.1.113l.33.33l.107.1l.156.15l.163.15c.18.157.362.32.562.482l.338.281l.2.156l.2.163l.424.325l.219.162l.344.25l.237.169l.363.25l.375.262l.256.175l.13.088l.27.175l.268.18l.281.176l.282.187l.293.181l.294.188l.3.181l.625.375l.312.194l.325.187l.331.2l.338.194l.175.1a10 10 0 0 1-.269 1.78c-.944-1.399-2.712-2.567-5.261-3.511l-.25-.094a26 26 0 0 0-1.044-.343l-.268-.088l-.563-.162l-.144-.038l-.293-.081l-.144-.038l-.3-.075l-.456-.112l-.588-.138l-.268-.062l-.269-.069l-.262-.062l-.25-.075l-.125-.031l-.25-.075l-.125-.032l-.231-.075l-.125-.037l-.225-.069l-.113-.037l-.218-.075l-.425-.15l-.207-.075l-.093-.038l-.1-.044l-.188-.075l-.1-.037l-.187-.081l-.388-.181l-.125-.063l-.156-.081a4.73 4.73 0 0 1-1.843-1.5c-.556-.862-.35-1.918.75-3.237a10.06 10.06 0 0 1 5.074-1.362"/><path fill="currentColor" d="M14.283 2.19A10.02 10.02 0 0 1 22 10.85l-.356-.212l-.437-.269l-.294-.181l-.288-.175l-.281-.175l-.269-.175l-.268-.169l-.269-.175l-.25-.168l-.256-.163l-.25-.168l-.475-.325l-.231-.163l-.225-.156l-.219-.163l-.219-.156l-.206-.15l-.206-.156l-.2-.15l-.375-.3l-.187-.144l-.175-.143l-.088-.075l-.169-.138l-.162-.143l-.156-.138l-.15-.137l-.15-.132l-.106-.106l-.107-.094l-.125-.13l-.068-.063l-.063-.069l-.125-.125l-.312-.35l-.075-.087l-.094-.125l-.1-.12c-.637-.836-.787-1.436-.581-1.849c.125-.243.375-.475.769-.687l.08-.044z"/></svg>