<svg xmlns="http://www.w3.org/2000/svg" xmlns:xlink="http://www.w3.org/1999/xlink" width="24" height="24" viewBox="0 0 24 24"><path fill="currentColor" d="M11.442 2.149a1.11 1.11 0 0 1 1.11 0l.228.133l-.5.994h-.005a.56.56 0 0 0-.556 0h-.01l-.523-.977l.261-.15zm-1.305.75l.583.944l-1.106.633l-.516-.983zm-2.094 1.2l-1.044.6l.516.977l1.122-.64l-.589-.943zm-2.1 1.199l.59.944l-1.09.617l-.505-.983l1-.578zM3.888 6.475l-.222.123a1.11 1.11 0 0 0-.555.966v.55h1.233q.097-.266.255-.5zm9.403-2.621l1.122.644l.517-.983l-1.067-.61zm3.255 1.86l-1.15-.655l.589-.944l1.077.616zm.983.561l.972.556l.56-.955l-.943-.54l-.589.945zm2.122 1.839a2.2 2.2 0 0 0-.245-.489l.711-1.144l.206.117a1.11 1.11 0 0 1 .56.966v.55zM3.11 9.224v1.111h1.11v-1.11zm0 3.333v-1.11h1.11v1.11zm0 1.11v1.112h1.11v-1.111zm0 2.778v-.556h1.11v.234c0 .2.112.383.278.483l.028.016l-.555.956l-.3-.172a1.11 1.11 0 0 1-.561-.967zm1.844 1.694l1.088.622l.584-.944l-1.083-.611zm3.193 1.827l-1.138-.65l.566-.955l1.155.666zm.972.555l1.078.617l.577-.944l-1.083-.622zm2.327 1.333l-.288-.166l.633-1.144q.203.018.405 0l.672 1.122l-.322.188a1.11 1.11 0 0 1-1.1 0m2.405-.75l1.083-.616l-.55-.966l-1.072.61zm3.188-1.821l-1.127.644l-.522-.977l1.077-.611zm.983-.561l1.078-.617l-.606-.933l-1 .572zm2.305-1.316l-.227.133l-.567-.956a.56.56 0 0 0 .244-.46v-.234h1.111v.556a1.11 1.11 0 0 1-.555.96zm.556-2.627h-1.111v-1.111h1.11zm-1.111-2.222h1.11v-1.11h-1.11zm1.11-2.222h-1.11v-1.11h1.11zM6.739 8.558l-1.2-.705l-.444.744l1.2.7l.444-.744zm2.438 1.333l-1.2-.694l-.444.744l1.2.7l.444-.744zm1.21.75l1.2.7l-.444.75l-1.2-.706zm6.815-2.088l1.2-.7l.444.744l-1.2.7zm-1.233.644l-1.2.7l.445.744l1.194-.7l-.444-.744zm-3.61 2.144l1.194-.7l.445.744l-1.2.705l-.444-.75zm.195.66h-1.111v1.111h1.11zm0 2.211h-1.111v1.122h1.11zm-1.111 3.343v-1.11h1.11v1.11zm0 1.111v1.111h1.11v-1.11z"/></svg>