<svg xmlns="http://www.w3.org/2000/svg" xmlns:xlink="http://www.w3.org/1999/xlink" width="24" height="24" viewBox="0 0 24 24"><path fill="currentColor" fill-rule="evenodd" d="M12 2.693L3.752 7.346v9.308L12 21.307l8.248-4.653V7.346zM20.862 7L12 2L3.138 7v10L12 22l8.862-5z" clip-rule="evenodd"/><path fill="currentColor" fill-rule="evenodd" d="M11.997 8.413a1.14 1.14 0 0 1-1.15-1.123c0-.62.516-1.123 1.15-1.123s1.148.503 1.148 1.123s-.515 1.123-1.149 1.123m0-1.634a.52.52 0 0 0-.523.51c0 .283.234.512.522.512s.523-.23.523-.511a.52.52 0 0 0-.523-.511" clip-rule="evenodd"/><path fill="currentColor" d="M11.7 8.6a1.4 1.4 0 0 0 .614 0v2.1a1.4 1.4 0 0 0-.614 0zm-.69 2.49l-1.863-1.05a1.3 1.3 0 0 1-.307.52l1.862 1.05a1.3 1.3 0 0 1 .308-.52m-.308 1.3L8.84 13.44a1.3 1.3 0 0 1 .307.52l1.863-1.05a1.3 1.3 0 0 1-.308-.52m.998.91v2.1a1.4 1.4 0 0 1 .614 0v-2.1a1.4 1.4 0 0 1-.614 0m1.305-.39l1.862 1.05a1.3 1.3 0 0 1 .307-.52l-1.862-1.05a1.3 1.3 0 0 1-.307.52m.307-1.3l1.862-1.05a1.3 1.3 0 0 1-.307-.52l-1.863 1.05c.14.147.247.324.308.52"/><path fill="currentColor" fill-rule="evenodd" d="M8.824 10.216a1.165 1.165 0 0 1-1.57.41a1.11 1.11 0 0 1-.421-1.533a1.165 1.165 0 0 1 1.57-.41c.549.309.737.997.42 1.533M7.375 9.4a.505.505 0 0 0 .192.698c.25.14.57.057.714-.187a.505.505 0 0 0-.191-.698a.53.53 0 0 0-.715.187m1.46 4.403a1.11 1.11 0 0 1-.421 1.534a1.165 1.165 0 0 1-1.57-.41a1.11 1.11 0 0 1 .42-1.535a1.165 1.165 0 0 1 1.57.41m-1.449.817a.53.53 0 0 0 .715.187a.505.505 0 0 0 .191-.698a.53.53 0 0 0-.714-.187a.505.505 0 0 0-.192.698m4.633.968c.634 0 1.149.504 1.149 1.123c0 .62-.515 1.123-1.149 1.123a1.14 1.14 0 0 1-1.149-1.123c0-.62.516-1.123 1.15-1.123m0 1.634a.52.52 0 0 0 .523-.511a.52.52 0 0 0-.523-.511a.52.52 0 0 0-.523.511c0 .282.235.511.523.511m3.172-3.437a1.165 1.165 0 0 1 1.57-.41c.549.31.738.998.421 1.534a1.165 1.165 0 0 1-1.57.41a1.11 1.11 0 0 1-.42-1.534m1.449.818a.505.505 0 0 0-.192-.699a.53.53 0 0 0-.714.187a.505.505 0 0 0 .191.698a.53.53 0 0 0 .715-.186m-1.461-4.405a1.11 1.11 0 0 1 .422-1.534a1.165 1.165 0 0 1 1.57.41a1.11 1.11 0 0 1-.422 1.535a1.165 1.165 0 0 1-1.57-.41m1.449-.817a.53.53 0 0 0-.715-.187a.505.505 0 0 0-.191.698a.53.53 0 0 0 .714.187a.505.505 0 0 0 .192-.698m-4.632 2.098a.52.52 0 0 0-.523.51c0 .283.234.512.522.512s.523-.23.523-.511a.52.52 0 0 0-.523-.511m0 1.634a1.14 1.14 0 0 1-1.15-1.123c0-.62.516-1.123 1.15-1.123s1.148.503 1.148 1.123s-.515 1.123-1.149 1.123" clip-rule="evenodd"/></svg>