<svg xmlns="http://www.w3.org/2000/svg" xmlns:xlink="http://www.w3.org/1999/xlink" width="24" height="24" viewBox="0 0 24 24"><path fill="currentColor" fill-rule="evenodd" d="M18.936 22H5.13c-.547 0-1-.353-1.042-.888L3.177 7.524a1 1 0 0 1 .494-.93l7.835-4.435c.165-.1.347-.153.53-.159c.194 0 .394.053.564.153l7.718 4.206c.335.194.53.553.506.935l-.841 13.812c-.036.53-.495.894-1.047.894m-1.018-2.353H6.14L5.318 8.412l6.73-4.06l6.629 3.866l-.765 11.429zM7.706 9.359l.247 4.406h6.118l-.124 1.764h-3.67l-.094-1.176h-2.2l.194 3.53H15.9L16.306 12h-6.294l-.118-1.412l2.136-1.53l2.323 1.53v.824h1.994l.141-2.053l-4.394-2.653z" clip-rule="evenodd"/></svg>