<svg xmlns="http://www.w3.org/2000/svg" xmlns:xlink="http://www.w3.org/1999/xlink" width="24" height="24" viewBox="0 0 24 24"><path fill="currentColor" d="M4.483 19.363A12 12 0 0 1 2 12.04c0-2.708.895-5.207 2.408-7.223h3.265c.783.053 2.589.24 3.552.632c.038-.376.301-1.219 1.068-1.52c.964-.376 1.295-.376 3.146-.376c1.015 0 1.85.052 2.603.098c.625.037 1.204.075 1.776.075c1.016 0 1.881-.339 2.182-.512a3.1 3.1 0 0 1-2.408 1.806a25 25 0 0 1-1.204.15c-1.527.174-3.055.34-3.213 1.084c-.158.753.316 1.73.58 2.137c.3.527.857 1.79.714 2.679c-.09.556-.15.82-.195.978a.8.8 0 0 0-.038.354c.023.225.64 2.302.948 3.31c.15.173.49.587.647.873c.204.354.392.94-.127 2.107c-.527 1.174-1.769 2.092-2.882 2.092c-.685 0-1.024-.422-1.31-.79c-.18-.226-.346-.43-.564-.504c-.12-.046-.339-.083-.632-.136c-1.121-.21-3.25-.602-4.342-1.919c-.745.301-2.392 1.091-3.49 1.927"/></svg>