<svg xmlns="http://www.w3.org/2000/svg" xmlns:xlink="http://www.w3.org/1999/xlink" width="24" height="24" viewBox="0 0 24 24"><path fill="currentColor" d="m2.321 8.982l.564 5.927l3.054 5.237L7.836 17.8l-2.442-7.63zm19.334 0l-.558 5.927l-3.054 5.237l-1.922-2.364l2.467-7.612zm-5.618 8.897H8.043l-1.885 2.357L12.103 22l5.758-1.764zM5.376 9.933L2.303 8.824L6.4 4.34L11.915 2v3.333l-6.545 4.6zm13.248 0l3.073-1.109L17.6 4.34L12.085 2v3.333l6.545 4.6z"/><path fill="currentColor" fill-rule="evenodd" d="m18.46 10.267l-6.448-4.63l-6.448 4.63l2.46 7.49H16l2.467-7.49zM7.092 13.909l4.921 3.612l4.921-3.612l-1.878-5.848H8.97z" clip-rule="evenodd"/></svg>