<svg xmlns="http://www.w3.org/2000/svg" xmlns:xlink="http://www.w3.org/1999/xlink" width="24" height="24" viewBox="0 0 24 24"><path fill="currentColor" d="M7.03 2.724A19.6 19.6 0 0 1 12 2c1.365 0 3.335.247 4.97.724c.818.235 1.589.54 2.177.917c.553.365 1.088.906 1.088 1.647v11.336c0 .511-.223 1.005-.63 1.34a33 33 0 0 1-3.31 2.377c-.7.43-1.448.841-2.172 1.147c-.711.294-1.452.512-2.123.512c-.67 0-1.412-.212-2.124-.512A16 16 0 0 1 7.7 20.341a33 33 0 0 1-3.306-2.376a1.72 1.72 0 0 1-.63-1.341V5.294c0-.741.53-1.282 1.095-1.647c.582-.376 1.353-.682 2.17-.918zM5.5 4.629c-.465.3-.559.53-.559.66v11.335c0 .176.077.329.194.429c.618.494 1.841 1.453 3.188 2.288q.963.607 2.006 1.059a4.6 4.6 0 0 0 1.67.424a4.6 4.6 0 0 0 1.672-.424a15 15 0 0 0 2.005-1.059a32 32 0 0 0 3.189-2.294a.54.54 0 0 0 .194-.424V5.294c0-.123-.094-.353-.56-.659a7.2 7.2 0 0 0-1.852-.776A18.4 18.4 0 0 0 12 3.176c-1.259 0-3.118.236-4.647.677c-.765.223-1.412.488-1.853.776"/><path fill="currentColor" d="M7.028 9.923L4.5 12.653v4.87h2.018c2.088-.5 3.317-1.576 3.67-2.053c.512.424 1.5.306 1.93.2h1.44c.642 0 .507.8.265 1.153c-.2.288-.57.718-.776.953h-.565a.2.2 0 0 0-.14.06c-.407.37-.577.9-.63 1.234c-.018.118.076.206.194.206h.712l1.005-.764a.53.53 0 0 0 .389.14c.441 0 .47-.752.606-1.129c.258-.753.54-1.153.54-1.794c0-.823-.693-1.076-1.058-1.106c-.53-.035-.553-.34-.259-.611c.283-.26.747-.648.994-.53c.36.177.67.712.824 1.059c.123.277.276.318.335.306v.194c-.2.03-.518.47-.453.753c.159.659.494 1.076.724 1.076c.188 0 .394-.447.476-.676c.136-.33.294-1.212.218-1.776c-.035-.271-.859-.883-1.17-1.23a3 3 0 0 1-.324-.412c-.26-.494-.606-.588-.783-.588c-.453 0-.717.465-1.147.465c-.953 0-.9-1.424-.888-1.636c.012-.205-.012-.329-.376-.664c-.36-.33-.371-1.294.158-1.294c.418 0 .56.647.577.964c.041.483 0 1.718.93 1.718c.758 0 .964-1.912 1.04-2.5s.353-1.47.724-1.47c.294 0 .365.529.359.794c.847-1.336-.683-2.089-.9-2.26c-.177-.135-.218-.3-.218-.364v-.459c-.159.141-.547.118-.723.088c-.63-1.053-2.124-.6-3.065-.476c-.4-.53-.741-.377-.865-.235l-.63.888a.52.52 0 0 1-.429.218H8.175c.618.17.965.805.336 1.058c-.506.189-.959-.2-1.118-.423c-.047.412.118.694.347 1.006c.353.482.218.659.088.688c-.847-.07-1.464.741-1.558.765c.947-.153 1.017.588.764.864z"/></svg>