<svg xmlns="http://www.w3.org/2000/svg" xmlns:xlink="http://www.w3.org/1999/xlink" width="24" height="24" viewBox="0 0 24 24"><path fill="currentColor" d="M3.113 7.003L11.999 2l8.887 5.003v9.994L11.999 22l-8.886-5.003z"/><path fill="currentColor" d="m6.555 8.999l5.45-2.97l5.454 3.068v6.002l-5.465 2.874l-5.44-2.874z"/><path fill="currentColor" d="m8.276 9.994l3.73-2.133l3.731 2.134v4.072L12.009 16.3l-3.733-2.232zm3.24-6.768v.972l-6.299 3.47l-.92-.457zm.968 0v.987l6.295 3.47l.924-.472zm-.022 17.498v-.943l6.272-3.518l.974.52zm-.946.025V19.8l-6.261-3.5l-.948.47z"/><path fill="currentColor" d="m12.003 2.02l-.477 1.211l-7.23 3.993v-.915L12 2.015v-.003l.002.002l.005-.003l-.002.004l7.698 4.235l-.013.96l-7.202-3.979zm.007 19.937l-.493-1.23l-7.207-3.968v.965l7.698 4.236l-.001.004l.003-.002l7.693-4.238v-.947l-7.24 3.937z"/><path fill="currentColor" d="m11.506 3.246l.498-1.234l.48 1.21v.964l-.462-.25l-.516.267zm0 17.468l.502 1.249l.454-1.248v-.926l-.492.267l-.464-.267zM3.073 7.016l1.235-.714v.906zm17.838-.015l-1.21-.75l-.016.954zm.027 9.972l-1.235.713v-.889zM3.062 16.96l1.262.776v-.956z"/><path fill="currentColor" d="m3.786 7.441l-.711-.426l1.233.186zm16.408-.009l.71-.43l-1.224.185z"/><path fill="currentColor" d="m3.508 7.562l-.435-.546l.724.416zm16.957-.004l.447-.556l-.718.421z"/><path fill="currentColor" d="m4.284 7.199l.952.467l-.483.278l-.208.53l-.573-.468v8.014l-.901.952v-9.95l.443.53zm15.407-.007l-.952.467l.482.278v.518l.82-.518v8.087l.897.953l-.034-9.962l-.444.53z"/><path fill="currentColor" d="m4.546 8.465l-.574-.487v8.042l-.892.935l1.466-.747zm14.922-.187l.573-.364v8.077l.895.984l-1.468-.834zM5.694 8.44l-1.148-.642v8.434l1.148-.68zm12.626-.017l1.147-.61v8.36l-1.147-.63zm-12.052.375l-.574-.354v7.118l.574-.341zm11.478.138l.574-.5v7.118l-.574-.334z"/><path fill="currentColor" d="m5.23 8.19l-.473-.276l7.25-3.992l7.239 4.01l-.453.304l-6.786-3.865z"/><path fill="currentColor" d="M6.268 8.833L5.21 8.177l6.797-3.834l6.782 3.893l-1.043.702l-5.74-3.23zm-.004 6.373l-1.456.856l7.166 4.003l7.25-4.062l-1.485-.797l-5.737 3.072z"/><path fill="currentColor" d="m7.99 9.86l-1.197-.748l5.214-2.853l5.175 2.865l-1.157.737l-4.018-2.308zm-.004 4.346l-1.144.78l5.13 2.726l5.195-2.727l-1.143-.779l-4.053 2.42z"/><path fill="currentColor" d="m6.842 9.129l1.147.731v4.368l-1.147.765zm10.33 0l-1.147.732l-.001 4.366l1.148.765zm-5.165-.969l-3.444 1.92l1.279.715l2.165-1.17l2.152 1.17l1.291-.715z"/><path fill="currentColor" d="M8.563 13.918v-3.859l1.294.754h4.299l1.294-.754v3.859l-2.08 1.233h-2.704z"/><path fill="currentColor" d="m9.711 10.786l2.308-1.27l2.283 1.27v2.516l-1.013.583l.452 3.215l-1.722.956l-1.746-.956l.5-3.215l-1.062-.583zm9.028 5.485l.488-.272l1.71.976l-1.233-.164zm-13.476.037l-.447-.254l-1.744.901l1.235-.16z"/></svg>