<svg xmlns="http://www.w3.org/2000/svg" xmlns:xlink="http://www.w3.org/1999/xlink" width="24" height="24" viewBox="0 0 24 24"><path fill="currentColor" d="M10.817 7.882V5.53h2.941l4.412 3.53l.882 3.53c0 7.058-7.059 9.411-9.706 9.411s-4.411-1.47-4.411-1.765l4.411-.588c1.961-1.275 5.942-4.47 6.177-7.059c0-2.647-3.04-4.216-4.706-4.706"/><path fill="currentColor" d="M10.817 17.294H7.876V2h2.647c4.08 0 8.824 3.53 8.53 11.176c-.589-5.294-5.981-7.647-8.236-7.647z"/><path fill="currentColor" d="M7.876 2L4.935 4.059v16.176h2.647c4.08 0 8.529-3.235 7.94-7.647c-1.176 4.118-5.392 4.706-7.646 4.706z"/></svg>