<svg xmlns="http://www.w3.org/2000/svg" xmlns:xlink="http://www.w3.org/1999/xlink" width="24" height="24" viewBox="0 0 24 24"><path fill="currentColor" d="M5.7 10.438L4.144 3.562l4.143 6.876zm0 0l-3.7 10l6.287-10z"/><path fill="currentColor" d="M4.125 3.581L2 20.437l3.75-10zM18.3 10.438l1.556-6.876l-4.144 6.876zm0 0l3.7 10l-6.288-10z"/><path fill="currentColor" d="M19.875 3.581L22 20.437l-3.75-10zM12 9.062s-2.375.85-3.569 1.263L12 16.08zm0-.006s2.388.857 3.575 1.27l-3.568 5.755V9.063z"/><path fill="currentColor" d="m12 9.081l-3.57 1.263L12 4.594zm0 0l3.575 1.25l-3.574-5.737z"/></svg>