<svg xmlns="http://www.w3.org/2000/svg" xmlns:xlink="http://www.w3.org/1999/xlink" width="24" height="24" viewBox="0 0 24 24"><path fill="currentColor" d="M4.927 4.926a10.017 10.017 0 0 1 14.148 0a10.017 10.017 0 0 1 0 14.148a10.02 10.02 0 0 1-14.148 0a10.01 10.01 0 0 1 0-14.148m13.98 13.98c3.812-3.813 3.812-10 0-13.811s-9.999-3.812-13.811 0s-3.812 9.998 0 13.81s9.999 3.812 13.81 0"/><path fill="currentColor" d="M5.771 5.77c1.919-1.925 4.08-3.056 6.25-3.269c2.405-.23 4.749.713 6.761 2.725s2.95 4.35 2.718 6.755c-.212 2.162-1.343 4.325-3.268 6.25s-4.087 3.055-6.25 3.268c-2.405.231-4.736-.706-6.748-2.719c-2.019-2.018-2.962-4.355-2.731-6.761c.212-2.169 1.344-4.33 3.268-6.25m12.292 12.292c3.194-3.187 5.018-8.2.55-12.667c-4.474-4.475-9.48-2.656-12.68.543c-3.186 3.187-5.011 8.2-.537 12.674c4.468 4.468 9.474 2.643 12.667-.55"/><path fill="currentColor" d="M6.61 6.607c1.512-1.512 3.343-3.124 5.424-3.593c2.162-.488 4.274.337 6.449 2.512c2.18 2.175 3 4.287 2.512 6.443c-.475 2.075-2.087 3.906-3.606 5.418c-1.512 1.518-3.343 3.13-5.418 3.6c-2.156.493-4.262-.326-6.437-2.5c-2.187-2.187-3-4.293-2.518-6.456c.469-2.08 2.081-3.912 3.593-5.424m10.61 10.611c3.787-3.787 5.425-7.193 1.094-11.523c-4.337-4.337-7.749-2.706-11.536 1.08c-3.787 3.788-5.418 7.2-1.081 11.537c4.33 4.33 7.736 2.7 11.523-1.094"/><path fill="currentColor" d="M5.659 9.194q.42-.421.868-.843c.62-.6 1.225-1.207 1.825-1.831c1.612-1.675 3.143-3.262 5.093-3.281c1.438-.013 2.987.83 4.75 2.587c1.75 1.75 2.593 3.3 2.574 4.73c-.019 1.938-1.6 3.463-3.268 5.062a76 76 0 0 0-1.875 1.875c-1.606 1.675-3.124 3.25-5.062 3.275c-1.437.012-2.98-.832-4.736-2.581c-1.75-1.75-2.6-3.312-2.588-4.75c.02-1.606 1.094-2.924 2.419-4.243m1.956-1.58c-.306.312-.625.612-.925.905c-1.644 1.581-3.193 3.075-3.212 4.925c-.013 1.374.812 2.868 2.518 4.574s3.194 2.525 4.562 2.512c1.837-.019 3.325-1.562 4.893-3.2a67 67 0 0 1 1.881-1.874c1.637-1.575 3.18-3.062 3.2-4.9c.012-1.368-.813-2.855-2.512-4.561c-1.706-1.706-3.206-2.531-4.575-2.519c-1.85.019-3.343 1.569-4.924 3.212c-.294.307-.594.625-.906.925"/><path fill="currentColor" d="M11.302 4.676c.612-.619 1.28-1.05 2.087-1.106c1.25-.081 2.68.731 4.5 2.562c1.824 1.812 2.636 3.25 2.549 4.487c-.094 1.419-1.387 2.4-2.75 3.437a19 19 0 0 0-1.98 1.65a19 19 0 0 0-1.65 1.975c-1.038 1.374-2.019 2.662-3.437 2.755c-1.244.088-2.669-.724-4.494-2.543c-1.824-1.83-2.637-3.262-2.556-4.506c.094-1.43 1.394-2.418 2.763-3.462A19 19 0 0 0 8.29 8.288c.606-.606 1.124-1.293 1.637-1.956c.456-.6.9-1.181 1.375-1.656m7.886 7.824c.575-.569.956-1.168 1.006-1.9c.081-1.15-.731-2.562-2.475-4.305c-1.75-1.75-3.162-2.563-4.324-2.488c-1.319.088-2.23 1.288-3.287 2.669c-.512.668-1.037 1.362-1.656 1.98c-.625.62-1.312 1.144-1.981 1.657c-1.387 1.056-2.58 1.968-2.668 3.287c-.075 1.162.737 2.575 2.487 4.324c1.75 1.75 3.156 2.556 4.312 2.475c1.312-.088 2.212-1.281 3.262-2.662c.512-.675 1.043-1.375 1.668-2s1.325-1.156 2-1.668c.619-.47 1.2-.907 1.656-1.369"/><path fill="currentColor" d="M4.49 12.144a8.6 8.6 0 0 1 2.063-1.325c.912-.481 1.862-.975 2.574-1.687c.719-.719 1.213-1.669 1.694-2.587c.675-1.281 1.312-2.487 2.43-2.656c1.07-.163 2.45.643 4.344 2.537c1.893 1.887 2.7 3.262 2.53 4.324c-.168 1.119-1.374 1.75-2.661 2.412c-.925.475-1.875.975-2.6 1.694c-.719.719-1.212 1.675-1.694 2.6c-.668 1.28-1.293 2.493-2.405 2.662c-1.063.169-2.444-.638-4.337-2.531c-1.894-1.894-2.7-3.275-2.538-4.35c.063-.424.282-.78.6-1.1zm4.812-2.85c-.75.744-1.712 1.25-2.643 1.738c-1.275.668-2.375 1.25-2.531 2.25c-.15.98.656 2.33 2.468 4.142c1.813 1.813 3.162 2.619 4.125 2.469c1-.156 1.575-1.262 2.237-2.537c.487-.944.993-1.919 1.737-2.662c.75-.75 1.719-1.25 2.662-1.738c1.275-.668 2.381-1.237 2.538-2.23c.15-.976-.657-2.325-2.463-4.131C15.62 4.782 14.264 3.97 13.29 4.12c-1 .156-1.58 1.262-2.25 2.537c-.5.938-1 1.9-1.743 2.637z"/><path fill="currentColor" d="M4.547 12.475c.5-.5 1.418-.781 2.374-1.069c1.138-.343 2.312-.7 3.05-1.437c.737-.737 1.093-1.912 1.437-3.05c.388-1.287.756-2.499 1.675-2.73c.918-.231 2.256.575 4.218 2.537c1.956 1.956 2.762 3.293 2.53 4.206c-.23.912-1.449 1.274-2.742 1.656c-1.144.337-2.325.687-3.062 1.437c-.75.737-1.1 1.918-1.438 3.062c-.387 1.294-.75 2.512-1.662 2.743c-.906.232-2.25-.574-4.2-2.53C4.765 15.336 3.96 14 4.19 13.08a1.36 1.36 0 0 1 .357-.606m14.766-1.125a1.05 1.05 0 0 0 .288-.481c.206-.812-.6-2.112-2.469-3.974c-1.874-1.875-3.174-2.681-3.993-2.475c-.787.2-1.131 1.35-1.5 2.568c-.343 1.113-.725 2.369-1.5 3.15c-.78.775-2.037 1.156-3.149 1.5c-1.219.362-2.375.712-2.562 1.5c-.213.812.6 2.124 2.468 3.993c1.869 1.862 3.169 2.668 3.975 2.468c.78-.2 1.124-1.356 1.487-2.575c.337-1.124.712-2.387 1.5-3.174c.78-.781 2.05-1.156 3.168-1.494c.938-.274 1.825-.543 2.287-1z"/><path fill="currentColor" d="M12.552 4.695q.15-.151.356-.219c.794-.281 2.056.506 4.1 2.55c2.037 2.037 2.818 3.3 2.543 4.087c-.275.775-1.5.906-2.918 1.062c-1.281.137-2.737.287-3.45 1c-.719.718-.875 2.175-1.012 3.462c-.15 1.412-.281 2.637-1.063 2.912c-.787.275-2.043-.506-4.08-2.543c-2.044-2.044-2.831-3.312-2.556-4.1c.275-.78 1.5-.918 2.906-1.081c1.275-.144 2.718-.306 3.437-1.018c.706-.713.868-2.156 1.012-3.425c.131-1.169.25-2.206.725-2.687m6.612 6.586a.7.7 0 0 0 .162-.25c.238-.675-.581-1.924-2.487-3.837c-1.919-1.918-3.18-2.73-3.856-2.5c-.637.226-.775 1.438-.918 2.713c-.15 1.312-.313 2.8-1.088 3.568c-.768.769-2.256.938-3.568 1.088c-1.281.143-2.487.28-2.706.918c-.237.675.575 1.937 2.494 3.856c1.912 1.906 3.162 2.725 3.837 2.487c.637-.225.762-1.437.9-2.718c.143-1.325.306-2.825 1.074-3.6c.775-.775 2.275-.937 3.6-1.075c1.093-.112 2.13-.225 2.556-.65"/><path fill="currentColor" d="M12.502 4.888a.7.7 0 0 1 .206-.15c.68-.3 1.912.5 3.999 2.588c2.081 2.08 2.875 3.312 2.58 3.98c-.311.688-1.63.625-3.161.538c-1.469-.075-3.125-.163-3.787.494c-.656.656-.569 2.318-.494 3.78c.082 1.537.156 2.856-.53 3.169c-.676.3-1.907-.5-3.988-2.581c-2.087-2.088-2.88-3.319-2.58-4c.305-.687 1.624-.625 3.149-.55c1.45.063 3.1.144 3.75-.512c.662-.656.58-2.3.512-3.75c-.063-1.356-.125-2.543.344-3.006m6.474 6.456a.4.4 0 0 0 .093-.131c.244-.55-.606-1.8-2.53-3.719c-1.925-1.924-3.181-2.78-3.731-2.537c-.544.244-.475 1.606-.413 2.925c.075 1.575.15 3.206-.581 3.937c-.725.725-2.356.65-3.937.575c-1.312-.063-2.675-.125-2.918.412c-.244.55.612 1.812 2.537 3.73c1.918 1.926 3.168 2.775 3.718 2.532c.538-.244.463-1.613.394-2.937c-.088-1.588-.175-3.231.562-3.962c.731-.738 2.375-.65 3.962-.563c1.206.063 2.45.125 2.844-.262"/></svg>