<svg xmlns="http://www.w3.org/2000/svg" xmlns:xlink="http://www.w3.org/1999/xlink" width="24" height="24" viewBox="0 0 24 24"><path fill="currentColor" fill-rule="evenodd" d="M11.52 2H4.537a1.944 1.944 0 0 0-1.913 1.975v16.081A1.937 1.937 0 0 0 4.538 22h6.981c5.437 0 9.856-4.512 9.856-10c0-5.519-4.45-10-9.856-10m-.145 16.25a6.25 6.25 0 1 0 0-12.5a6.25 6.25 0 0 0 0 12.5" clip-rule="evenodd"/><path fill="currentColor" d="M11.375 15.125c1.738 0 3.125-1.306 3.125-2.95c0-1.638-1.525-2.644-2.7-3.75a.606.606 0 0 0-.85 0c-1.175 1.106-2.7 2.075-2.7 3.75c0 1.644 1.419 2.95 3.125 2.95"/></svg>