<svg xmlns="http://www.w3.org/2000/svg" xmlns:xlink="http://www.w3.org/1999/xlink" width="24" height="24" viewBox="0 0 24 24"><path fill="currentColor" d="M2 14.744c0-.933 1.041-2.559 1.559-3.251c-.164.364-.497 1.051-.497 1.718c0 2.892 5.102 2.61 7.656 2.102c-.856.436-3.097 1.308-5.195 1.308c-2.615 0-3.523-.708-3.523-1.877m20-5.477c0 .934-1.102 2.559-1.651 3.251c.174-.364.528-1.051.528-1.718c0-2.892-5.405-2.61-8.108-2.102c.908-.436 3.282-1.308 5.503-1.308c2.77 0 3.728.708 3.728 1.877"/><path fill="currentColor" d="M19.462 12.005a7.697 7.697 0 0 1-13.313 5.272l.036.01c1.19.093 5.877-.538 8.461-4.353c-1.025.569-3.672 1.707-6.015 1.707c-2.092 0-3.431-.482-4.436-1.153a7.697 7.697 0 0 1 13.19-6.739a.3.3 0 0 0-.098-.026c-1.18-.092-5.846.539-8.42 4.354c1.025-.569 3.656-1.707 5.984-1.707c2.129 0 3.462.502 4.472 1.19c.092.466.139.953.139 1.445"/></svg>