<svg xmlns="http://www.w3.org/2000/svg" xmlns:xlink="http://www.w3.org/1999/xlink" width="24" height="24" viewBox="0 0 24 24"><path fill="currentColor" d="M6.676 2.4c.468-.313.95-.4 1.374-.4c2.613 0 5.531 1.381 7.787 3.287c2.244 1.894 3.931 4.4 3.931 6.725c0 2.35-1.812 4.387-3.98 5.8c-2.188 1.424-4.863 2.311-6.819 2.311a4.1 4.1 0 0 1-2.48-.756a4.63 4.63 0 0 1-1.438-1.856c-.663-1.437-.813-3.2-.813-4.556c0-4.687.481-7.399 1.188-8.955a3.7 3.7 0 0 1 1.25-1.6m-.563 1.906c-.644 1.4-1.231 3.981-1.231 8.65c0 1.324.25 2.955.844 4.25c.259.65.673 1.226 1.206 1.68c.512.375 1.175.613 2.037.613c1.775 0 4.312-.938 6.406-2.306c2.112-1.375 3.75-3.213 3.75-5.188c0-2-1.594-4.312-3.775-6.155c-2.162-1.831-4.925-3.225-7.287-3.225a1.67 1.67 0 0 0-.962.275c-.44.38-.777.863-.982 1.406z"/><path fill="currentColor" d="M7.97 3.65a2.4 2.4 0 0 1 1.374-.4c2.619 0 5.53 1.381 7.787 3.287c2.243 1.894 3.93 4.4 3.93 6.725c0 2.35-1.811 4.387-3.98 5.8c-2.187 1.424-4.856 2.311-6.818 2.311a4.1 4.1 0 0 1-2.481-.756a4.63 4.63 0 0 1-1.438-1.856c-.662-1.437-.812-3.2-.812-4.556c0-4.687.481-7.399 1.187-8.955a3.7 3.7 0 0 1 1.25-1.6m-.563 1.906c-.644 1.4-1.231 3.981-1.231 8.65c0 1.324.25 2.955.843 4.249c.26.65.673 1.227 1.206 1.681c.519.375 1.175.613 2.038.613c1.78 0 4.312-.938 6.412-2.306c2.106-1.375 3.737-3.213 3.737-5.188c0-2-1.587-4.312-3.768-6.155c-2.17-1.831-4.919-3.225-7.294-3.225a1.67 1.67 0 0 0-.962.275a3.5 3.5 0 0 0-.981 1.406"/><path fill="currentColor" d="M5.382 4.275c.468-.313.95-.4 1.375-.4c2.612 0 5.53 1.381 7.786 3.287c2.244 1.894 3.931 4.4 3.931 6.725c0 2.35-1.812 4.387-3.98 5.8c-2.188 1.424-4.863 2.311-6.819 2.311a4.1 4.1 0 0 1-2.48-.756a4.63 4.63 0 0 1-1.444-1.856c-.657-1.437-.813-3.2-.813-4.556c0-4.687.488-7.399 1.194-8.955a3.7 3.7 0 0 1 1.25-1.6m-.563 1.906c-.643 1.4-1.23 3.981-1.23 8.65c0 1.324.249 2.955.843 4.249c.259.65.673 1.227 1.206 1.681c.512.375 1.175.613 2.037.613c1.775 0 4.312-.938 6.406-2.306c2.106-1.375 3.75-3.213 3.75-5.188c0-2-1.594-4.312-3.775-6.155C11.887 5.894 9.131 4.5 6.756 4.5c-.312 0-.643.062-.956.275a3.5 3.5 0 0 0-.987 1.412z"/></svg>