<svg xmlns="http://www.w3.org/2000/svg" xmlns:xlink="http://www.w3.org/1999/xlink" width="24" height="24" viewBox="0 0 24 24"><path fill="currentColor" d="m20.85 9.001l-4.065 2.992c-.001-1.015-.34-2-.964-2.801c-1.59-2.058-4.59-2.47-6.7-.919L2 13.511l1.15 1.487l4.065-2.99c.001 1.014.34 2 .964 2.8c1.59 2.058 4.59 2.47 6.7.919L22 10.489zm-7.054 5.323a3.04 3.04 0 0 1-3.31.183a2.94 2.94 0 0 1-1.174-1.243a2.85 2.85 0 0 1-.266-1.669a2.9 2.9 0 0 1 .728-1.532c.397-.432.91-.738 1.479-.88a3.06 3.06 0 0 1 1.73.07a3 3 0 0 1 1.4.996a2.86 2.86 0 0 1 .572 2.156a2.9 2.9 0 0 1-1.16 1.919"/></svg>