<svg xmlns="http://www.w3.org/2000/svg" xmlns:xlink="http://www.w3.org/1999/xlink" width="24" height="24" viewBox="0 0 24 24"><path fill="currentColor" d="M5.587 12.206c-.847-.106-1.17-.341-1.223-.441c-.077.935.259 2.8 2.194 2.8c1.93 0 2.482-1.565 2.518-2.353h.123c.177.306.159.7.124.853a2.63 2.63 0 0 1 1.894 2.464h.882c0-1.588-.588-2.5-.882-2.74l.088-.165c.47.25.843.653 1.059 1.14l.159.06c1.223.546 2.14.158 2.453-.107a2.3 2.3 0 0 1-.324-.982h.241c.012.07.118.353.459.941c.3.524.853.63 1.394.736c.218.04.436.082.63.147c.54.194.564.73.511.97h.583v-.47c0-.53-.306-.983-.588-1.394c-.242-.353-.471-.677-.471-1c0-.571.318-.994.47-1.136c-.135-.04-.247-.2-.382-.394c-.2-.288-.453-.659-.959-.823a1.9 1.9 0 0 0-.764-.095c-.26.006-.624.018-1.336-.058c-.659-.077-1.058-.412-1.488-.765c-.53-.453-1.1-.924-2.235-.924c-1.63 0-2.177 1.371-2.253 2.06a1.38 1.38 0 0 0-.741-.583c.006.73-.165 1.623-.883 1.924c-.588.246-1.076-.165-1.253-.4c-.229.247-.094.588 0 .735M10 15.529a2.93 2.93 0 0 0-.106-1.623l.112-.06c.635.483.73 1.342.694 1.683zm5.147-1.547c.112.153.47.494 1 .636c-.075.34-.237.653-.47.911h-.83c.212-.235.536-.894.165-1.406z"/><path fill="currentColor" fill-rule="evenodd" d="M12 22a10 10 0 1 0 0-20a10 10 0 0 0 0 20m0-.588a9.412 9.412 0 1 0 0-18.824a9.412 9.412 0 0 0 0 18.824" clip-rule="evenodd"/></svg>