<svg xmlns="http://www.w3.org/2000/svg" xmlns:xlink="http://www.w3.org/1999/xlink" width="24" height="24" viewBox="0 0 24 24"><path fill="currentColor" fill-rule="evenodd" d="M3.521 2.158A.21.21 0 0 1 3.733 2h5.503l11.14 6.473a.23.23 0 0 1 .103.242h.006l-.012.018a.2.2 0 0 1-.049.073L12.018 22H6.255L3.533 2.303a.2.2 0 0 1-.012-.121l-.006-.024zm3.2.272l.164 1.194l2.43 1.43l-.364-2.624zm2.121 15.612L6.958 4.164l2.436 1.43l1.333 9.515l-1.879 2.933zm.091.655l.364 2.655l1.89-2.97l-.369-2.618l-1.879 2.933zm2.243-3.49l.363 2.611l5.637-8.873h-1.982zm4.03-6.692l-.03-.018l-5.394-3.17L9.4 2.594l10.194 5.921zm-.412.255l-3.715 5.788l-1.212-8.685z" clip-rule="evenodd"/></svg>