<svg xmlns="http://www.w3.org/2000/svg" xmlns:xlink="http://www.w3.org/1999/xlink" width="24" height="24" viewBox="0 0 24 24"><path fill="currentColor" d="M10.102 6.447H7.56l3.904 5.686l-3.904 5.976h2.426l2.722-4.165l2.86 4.165h2.543zm7.451 0h-2.321l-1.566 2.577l1.183 1.865z"/><path fill="currentColor" fill-rule="evenodd" d="M9.802 2.86c.888-.267 1.832-.35 2.804-.35c2.488 0 4.76.883 6.48 2.438a.222.222 0 0 0 .295-.334a10.07 10.07 0 0 0-9.707-2.176a.222.222 0 0 0 .128.422m10.15 2.893a.25.25 0 0 0 .245-.25a.25.25 0 0 0-.244-.25a.25.25 0 0 0-.25.25c0 .139.111.25.25.25m0 .25a.5.5 0 0 0 0-1c-.277 0-.499.222-.499.5s.222.5.5.5M4.043 7.24a.21.21 0 0 1 .09.294a9.55 9.55 0 0 0-1.078 4.543c0 2.177.667 4.187 1.888 5.803a.222.222 0 0 1-.35.261a10.02 10.02 0 0 1-2.032-6.064c0-1.721.428-3.332 1.188-4.748a.22.22 0 0 1 .295-.089m17.294 9.285c.1.056.133.195.078.3a9.86 9.86 0 0 1-5.665 4.665a.2.2 0 0 1-.162-.02a.2.2 0 0 1-.099-.13a.22.22 0 0 1 .139-.272a9.44 9.44 0 0 0 5.414-4.46a.21.21 0 0 1 .295-.083M7.99 3.548a.167.167 0 1 0-.155-.289q-.402.217-.778.467a.167.167 0 1 0 .178.278c.244-.167.5-.317.755-.456m-1.466.966a.166.166 0 1 0-.205-.255q-.352.282-.678.605a.167.167 0 0 0 .228.234c.21-.206.433-.4.655-.584m-1.26 1.222a.166.166 0 0 0-.25-.21q-.385.447-.717.938a.166.166 0 1 0 .278.183q.317-.475.689-.91m.888 13.49a.167.167 0 0 0-.261.133c0 .04.013.08.039.11q.429.382.9.711a.157.157 0 0 0 .227-.038a.167.167 0 0 0-.039-.223a10 10 0 0 1-.866-.7zm1.744 1.237a.167.167 0 0 0-.244.054a.166.166 0 0 0 .083.235c.316.172.638.333.966.467a.167.167 0 0 0 .128-.3a9 9 0 0 1-.933-.456m1.91.806a.166.166 0 0 0-.094.316q.515.15 1.038.25a.17.17 0 0 0 .141-.01a.166.166 0 0 0-.08-.312a10 10 0 0 1-1.005-.244m2.033.377a.167.167 0 1 0-.023.322c.178.017.356.023.534.028a.17.17 0 0 0 .137-.031a.17.17 0 0 0 .051-.197a.17.17 0 0 0-.177-.1c-.172 0-.35-.01-.522-.022" clip-rule="evenodd"/></svg>