<svg xmlns="http://www.w3.org/2000/svg" xmlns:xlink="http://www.w3.org/1999/xlink" width="24" height="24" viewBox="0 0 24 24"><path fill="currentColor" fill-rule="evenodd" d="M12 3.176a8.824 8.824 0 1 0 0 17.647a8.824 8.824 0 0 0 0-17.647M12 2a10 10 0 1 0 0 20a10 10 0 0 0 0-20M7.453 17.882a1.5 1.5 0 0 1-1.294-.817a1.38 1.38 0 0 1-.012-1.16l1.87-3.823v-.006l1.53-3.129c.1-.2.1-.212.1-.394V5.529H9.06a.597.597 0 0 1-.588-.588c0-.294.229-.588.57-.588h1.782v1.765H12v.588h-1.177v.588H12v.588h-1.177v1.012c0 .1-.017.118-.052.194l-.03.07l-1.235 2.5l-2.182 4.46a.3.3 0 0 0-.03.159a.47.47 0 0 0 .453.429h8.524c.329 0 .423-.259.435-.459a.36.36 0 0 0-.03-.176l-3.452-6.995c-.053-.117-.053-.117-.048-.276V4.353h1.765c.3 0 .588.294.588.588c0 .283-.276.588-.588.588h-.588v3.1c0 .124.03.177.088.295l.059.117q1.65 3.342 3.294 6.688c.206.418.276 1.018-.094 1.512a1.41 1.41 0 0 1-1.159.618c-.282 0-5.682.023-8.047.023zm4.188-2.453a.339.339 0 1 1 .677 0a.339.339 0 0 1-.677 0m1-.07a.1.1 0 0 1-.028-.073a.102.102 0 0 1 .175-.068a.1.1 0 0 1-.004.137a.1.1 0 0 1-.137.004zm-1.47 0a.1.1 0 0 1-.029-.073a.102.102 0 0 1 .176-.068a.1.1 0 0 1-.141.14zm1.917-.265a.277.277 0 0 1 .036-.441a.34.34 0 0 1 .376-.012c.218.13.17.43-.047.518a.34.34 0 0 1-.259 0a.3.3 0 0 1-.106-.065m-2.67-.012c-.13-.13-.089-.323.059-.417a.33.33 0 0 1 .364 0c.147.106.177.294.047.43a.327.327 0 0 1-.47-.013m1.47-.4a.1.1 0 1 1 .2 0a.1.1 0 0 1-.2 0m1-.053a.1.1 0 0 1-.02-.154a.1.1 0 0 1 .155.013a.1.1 0 0 1-.141.141zm-1.941 0a.1.1 0 0 1 .003-.139a.1.1 0 0 1 .044-.025a.1.1 0 0 1 .053-.003a.1.1 0 0 1 .075.068a.1.1 0 0 1 .002.052a.1.1 0 0 1-.074.081a.1.1 0 0 1-.104-.034m.941-.23a.1.1 0 0 1 .074-.097a.1.1 0 0 1 .094.023a.1.1 0 0 1-.054.172a.1.1 0 0 1-.114-.097m.794.03a.1.1 0 0 1-.033-.071a.1.1 0 0 1 .03-.074a.1.1 0 0 1 .073-.03a.1.1 0 1 1-.07.175m-1.53 0a.1.1 0 0 1-.026-.111a.1.1 0 0 1 .056-.056a.1.1 0 0 1 .112.026a.1.1 0 0 1-.141.141m2.536-.035a.1.1 0 1 1 .14-.143a.1.1 0 0 1-.14.143m-3.576 0a.1.1 0 0 1-.032-.071a.103.103 0 0 1 .1-.104a.1.1 0 0 1 .073.028a.102.102 0 0 1-.141.147m2.37-.165a.1.1 0 0 1 .03-.167a.1.1 0 0 1 .112.026a.1.1 0 0 1-.142.142m-1.13 0a.1.1 0 0 1 .037-.165a.1.1 0 0 1 .11.03a.1.1 0 0 1-.033.154a.1.1 0 0 1-.113-.018m.036-.635a.603.603 0 1 1 1.206 0a.603.603 0 0 1-1.206 0m2.177-.006a.338.338 0 1 1 .676 0a.338.338 0 0 1-.676 0m-3.824 0a.335.335 0 1 1 .572.24a.338.338 0 0 1-.578-.24zm3.512 0a.1.1 0 1 1 .194.041a.1.1 0 0 1-.044.053q-.032.018-.068.012a.1.1 0 0 1-.082-.1zm-.282 0a.1.1 0 1 1 .2 0a.1.1 0 0 1-.2 0m-.283 0a.1.1 0 0 1 .171-.07a.1.1 0 0 1 0 .14a.1.1 0 0 1-.17-.07m-1.6 0a.1.1 0 1 1 .194.041a.1.1 0 0 1-.044.053q-.031.018-.068.012a.1.1 0 0 1-.082-.1zm-.282 0a.1.1 0 1 1 .2 0a.1.1 0 0 1-.2 0m-.282 0a.1.1 0 1 1 .2 0a.1.1 0 0 1-.2 0m1.958-.488a.1.1 0 0 1-.026-.112a.1.1 0 0 1 .096-.063a.1.1 0 0 1 .072.034a.1.1 0 0 1-.142.141m-1.13 0a.1.1 0 0 1-.033-.072a.1.1 0 1 1 .034.072m2.336-.176a.1.1 0 0 1-.005-.134a.1.1 0 1 1 .112.158a.1.1 0 0 1-.107-.024m-3.553 0a.1.1 0 0 1 .07-.165a.1.1 0 1 1-.07.165m2.547-.024a.1.1 0 0 1-.03-.098a.1.1 0 0 1 .072-.073a.1.1 0 1 1-.042.171m-1.53 0a.1.1 0 0 1-.029-.098a.1.1 0 0 1 .071-.073a.1.1 0 1 1-.041.171m.736-.118q0-.03.018-.057a.1.1 0 0 1 .159-.007a.1.1 0 0 1-.002.13a.1.1 0 0 1-.175-.06zm1-.082a.1.1 0 0 1 .106-.165a.1.1 0 0 1 .06.079a.1.1 0 0 1-.036.092a.1.1 0 0 1-.136-.006zm-1.941 0a.1.1 0 0 1 .047-.17a.1.1 0 0 1 .096.024a.1.1 0 0 1-.137.146zm.941-.2a.1.1 0 1 1 .2 0a.1.1 0 0 1-.2 0m-1.476-.006a.335.335 0 1 1 .47-.018v.006a.34.34 0 0 1-.47.012m2.688-.012a.33.33 0 1 1 .365.077a.34.34 0 0 1-.365-.077m-1.212-.264a.1.1 0 1 1 .2-.003a.1.1 0 0 1-.2.003m-.247-.56a.342.342 0 1 1 .678-.088a.342.342 0 0 1-.678.089m1 .224a.1.1 0 0 1-.023-.095a.1.1 0 0 1 .07-.07a.1.1 0 0 1 .13.118a.1.1 0 0 1-.073.081a.1.1 0 0 1-.104-.034m-1.47-.005a.1.1 0 0 1-.028-.1a.1.1 0 0 1 .075-.071a.1.1 0 0 1 .118.05a.1.1 0 0 1-.03.126a.1.1 0 0 1-.13-.005zM12 15.059a.103.103 0 0 0 .103-.103a.103.103 0 1 0-.103.103" clip-rule="evenodd"/></svg>