<svg xmlns="http://www.w3.org/2000/svg" xmlns:xlink="http://www.w3.org/1999/xlink" width="24" height="24" viewBox="0 0 24 24"><path fill="currentColor" fill-rule="evenodd" d="M12 21.375a9.375 9.375 0 1 0 0-18.75a9.375 9.375 0 0 0 0 18.75M12 22c5.523 0 10-4.477 10-10S17.523 2 12 2S2 6.477 2 12s4.477 10 10 10" clip-rule="evenodd"/><path fill="currentColor" d="M11.91 3.878c-2.67 0-4.168 1.163-4.61 1.446l2.914 1.31c.739-.216 1.745-.25 2.156-.241c4.386.283 5.298 4.298 5.206 6.232h-9.48c.525 2.51 2.122 3.125 4.066 3.125c1.69 0 2.969-1.306 2.969-1.875h1.975c-.774 2.73-3.037 3.765-4.737 3.765c-.983 0-1.765-.175-2.156-.298l-2.927 1.334c1.67 1.259 4.085 1.492 5.083 1.449c5.756 0 7.756-5.172 7.756-7.989c0-6.486-5.334-8.258-8.214-8.258"/><path fill="currentColor" d="M12.156 8.25c-2.504 0-3.647 2.066-3.906 3.125h7.5c-.154-1.025-1.391-3.125-3.594-3.125"/></svg>