<svg xmlns="http://www.w3.org/2000/svg" xmlns:xlink="http://www.w3.org/1999/xlink" width="24" height="24" viewBox="0 0 24 24"><path fill="currentColor" d="M2.625 17.06v-1.422l8.125 4.17v-6.113l1.825-1.199c.027.087.05.172.05.346v7.988c0 1.33-1.412 1.321-2.026.969c-2.037-1.169-6.85-3.56-7.312-3.768c-.461-.208-.654-.734-.662-.971"/><path fill="currentColor" d="m8.25 14.781l-5.625-3.127v2.08l5.625 3.074zM2.625 9.356l8.127 4.338l1.827-1.187s-.202-.216-.437-.364L2.846 7.117c-.17.136-.221.377-.221.476z"/><path fill="currentColor" d="M11.267 2.179L2.845 7.118L4.64 8.159l2.942-1.631l7.555 4.333l1.691-1.17a1.9 1.9 0 0 0-.54-.483L9.573 5.433l2.514-1.387l7.409 4.267l1.73-1.152c-.123-.256-.42-.447-.572-.54l-7.863-4.442c-.665-.317-1.267-.145-1.525 0"/><path fill="currentColor" d="M15.125 21.565V10.868l1.7-1.178c.139.15.175.4.175.49v10.173zm4.375-2.68V8.318l1.7-1.164c.139.148.175.395.175.485v9.554s0 .4-.282.603z"/></svg>