<svg xmlns="http://www.w3.org/2000/svg" xmlns:xlink="http://www.w3.org/1999/xlink" width="24" height="24" viewBox="0 0 24 24"><path fill="currentColor" d="m10.82 8.843l-2.682-.6l-.21.802l2.606.612c-.697 2.903-2.26 9.052-2.944 10.412c-.842 1.676-1.939 1.48-2.003 1.223a1.25 1.25 0 0 0-.45-2.417A1.257 1.257 0 0 0 3.88 20.07C3.775 21.535 5.256 22 6.275 22c4.444-.34 7.044-7.773 7.787-11.448l2.677.654l.219-.848l-2.627-.701c1.168-5.522 2.651-7.193 3.503-7.048c.175.03.31.095.413.18a1.249 1.249 0 0 0 .622 2.336a1.253 1.253 0 0 0 1.24-1.45l-.002-.018a1.24 1.24 0 0 0-.217-.511c-.558-.874-1.861-1.164-2.496-1.145c-3.917.16-6.014 4.629-6.573 6.842"/></svg>