<svg xmlns="http://www.w3.org/2000/svg" xmlns:xlink="http://www.w3.org/1999/xlink" width="24" height="24" viewBox="0 0 24 24"><path fill="currentColor" fill-rule="evenodd" d="M12 22a10 10 0 1 0 0-19.998A10 10 0 0 0 12 22m0-1.111A8.89 8.89 0 1 0 12 3.11a8.89 8.89 0 0 0 0 17.779" clip-rule="evenodd"/><path fill="currentColor" d="M11.445 6.156a.82.82 0 0 1 .816-.822h.85v12.238c0 .606-.488 1.095-1.094 1.095h-.572z"/><path fill="currentColor" d="M14.779 11.133h-.189c-2.644 0-5.105 0-5.105-1.722c0-1.911 4.055-1.572 5.7-.778c.31.15.75.122.966-.15l.445-.555a.256.256 0 0 0-.073-.39a9.5 9.5 0 0 0-4.355-1.094c-2.689 0-4.967 1.25-4.967 2.973c0 1.316 1.39 2.044 2.178 2.277h-.011c-.806.206-2.622 1.2-2.622 2.656c0 1.822 2.416 3.205 5.26 3.205c2.023 0 3.984-.766 4.823-1.233a.278.278 0 0 0 .078-.416l-.461-.584c-.234-.289-.7-.317-1.034-.155c-1.733.833-6.1 1.216-6.1-.817c0-1.8 2.406-1.795 5.15-1.795h.317z"/></svg>