<svg xmlns="http://www.w3.org/2000/svg" xmlns:xlink="http://www.w3.org/1999/xlink" width="24" height="24" viewBox="0 0 24 24"><path fill="currentColor" d="M7.031 11.663a61 61 0 0 1-1.347.595L11.737 2v1.063L6.62 11.721l.526-.21l4.59-8.185v8.095l-1.721.642l-3.032-.21l.047-.185z"/><path fill="currentColor" d="m11.737 9.695l-4.769 2.157l4.769 2.864v-.421l-4.053-2.39l4.053-1.81zm0 .694l-3.453 1.553l3.453 2.031v-.436L9.189 12.01l2.548-1.147zm0 .785l-1.906.842l1.906 1.158zM5.684 12.4l6.053 3.637v-1.053l-5.063-3.053zm11.285-.726c.431.19 1.305.579 1.347.59L12.263 2v1.063l5.116 8.663l-.526-.21l-4.59-8.19v8.095l1.721.647l3.032-.21z"/><path fill="currentColor" d="m12.263 9.695l4.769 2.147l-4.769 2.852v-.42l4.053-2.38l-4.053-1.8zm0 .689l3.453 1.547l-3.453 2.021v-.431L14.811 12l-2.548-1.148v-.473zm0 2.774v-1.99l1.906.842zm6.053-.774l-6.053 3.632v-1.053l5.063-3.037z"/><path fill="currentColor" d="M11.963 17.158c-.074 0-4.216-2.384-6.279-3.58L11.964 22l6.352-8.421a326 326 0 0 1-6.353 3.579"/></svg>