<svg xmlns="http://www.w3.org/2000/svg" xmlns:xlink="http://www.w3.org/1999/xlink" width="24" height="24" viewBox="0 0 24 24"><path fill="currentColor" d="M5.048 17.963a9.137 9.137 0 0 1 11.93-13.632l.816-.42A9.953 9.953 0 0 0 4.488 18.554zm1.71-4.541l1.65 1.252l-2.722 2.877A8.374 8.374 0 0 1 16.354 4.845L8.51 8.888l-1.213.622l1.127.778l.801.56l-2.34 1.19l-1.167.599zm9.006-3.507l2.932-3.095A8.376 8.376 0 0 1 8.221 19.527l7.442-3.834l1.213-.622l-1.12-.778l-.808-.56l2.34-1.197l1.167-.591zm3.313-3.717A9.137 9.137 0 0 1 7.32 19.853l-.84.427A9.953 9.953 0 0 0 19.645 5.6z"/><path fill="currentColor" d="m7.31 12.815l2.38 1.797l-5.373 5.668l10.685-5.52l-1.929-1.33l3.562-1.82l-2.38-1.804l5.374-5.662L8.945 9.666l1.928 1.33z"/></svg>