<svg xmlns="http://www.w3.org/2000/svg" xmlns:xlink="http://www.w3.org/1999/xlink" width="24" height="24" viewBox="0 0 24 24"><path fill="currentColor" d="M3.7 6.63c-.04.22-.03.38.09.5c-.15.26-.27.46-.38.68c.11-.22.23-.42.38-.64c.34.42 1.4.42 2.84-.04c.17-.05.17.33.17.33c0 .22-.04.51-1.87.77c-.5.079-1.23.039-1.56-.341a.9.9 0 0 1-.13-.51c0-.04 0-.08.04-.17A.8.8 0 0 1 3.37 7c.04-.13.12-.21.2-.34c-.03.08-.12.25-.2.34a.9.9 0 0 1 .2-.34zm.25-.54c.06-.1.13-.19.22-.28l-.13.17l-.02.02l.15-.19l-.13.17a1 1 0 0 0-.09.1zm0 0l-.16.23l-.02.02l-.1.16zm.9-1.02l.38-.32c-.119.15-.204.324-.25.51c-.05.13-.05.26.04.34l-.03.02c.28.32 1.2.22 2.36-.27q.568-.24 1.1-.55c.13-.05.3.17.34.2c.04.05.08.18 0 .26c-.42.26-.89.51-1.4.68c-1.46.62-2.63.72-2.95.32l-.01.02c-.05-.13-.09-.21-.05-.38c0-.05 0-.09.05-.13a1.4 1.4 0 0 1 .12-.14q-.09.085-.17.18c0-.04.05-.12.05-.17c.08-.17.17-.3.3-.46l.08-.07c.13-.18.32-.34.5-.53l.51-.42a1 1 0 0 1 .12-.1l-.04.04c.12-.1.24-.18.37-.27h.02l.07-.06a11 11 0 0 1 1.92-1c.11-.07.22-.12.33-.17l-.18.07q-.16.07-.32.13c-.17.05-.17.05-.5.22c-.18.08-.18.08-.47.25l-.43.26l-.35.25c2.77-1.37 2.58-1.31 2.38-1.23a8.8 8.8 0 0 0-3.25 1.88a3 3 0 0 0-.26.28c-.13.13-.27.24-.38.36m-2.4 9.828q0 .054.03.1c.03.113.089.216.17.3l-.23-.7c0 .28.08.52.23.7c-.09-.25-.17-.5-.22-.8c.77 1.06 3.65.8 7.33-.76c4.7-2 8.99-5.379 9.58-7.588c.13-.55.04-.93-.25-1.23c.2.21.42.47.63.68c.26.3.3.68.17 1.19c-.6 2.239-4.96 5.668-9.79 7.698c-4.2 1.83-7.35 1.91-7.66.41c-.07-.24-.14-.56-.22-.78c.04.12.09.25.17.38l.03.09v.01v-.01zM9.31 2.36l.06-.02c1.27-.34 2.08-.17 1.91.55c-.04.25-.21.5-.47.76c-.2.09-.67 0-.76-.08c.21-.26.34-.47.38-.64c.13-.56-.48-.7-1.47-.45l-.04.02zm-.07.03l.17-.05l-.1.02zM2.21 13.408v.03c-.12-.12-.16-.28-.17-.47a1.3 1.3 0 0 1 0-.26q.003.12 0 .24a1.2 1.2 0 0 1 0-.25a8 8 0 0 1-.04-.66c0 .26.09.42.17.6l.02.4c-.02-.14-.02-.28-.02-.4c2.84 3 15.6-4.799 15.72-8.098c.04-.6-.3-.8-.47-.93l.34.21l.43.3c.34.3.46.72.34 1.27c-.56 2.12-4.7 5.379-9.24 7.288c-3.6 1.54-6.37 1.75-7.08.73m-.02-3.229l.06-.26c-.08.34-.04.64.13.8v.02c.08.1.2.17.34.24c.13.17.04.6.04.6c-.04.12-.08.3-.17.25c-.42-.21-.59-.55-.55-1.06a.97.97 0 0 0 .17.72v-.02a.98.98 0 0 1-.13-.66l.02-.1a.5.5 0 0 0-.02.1l.09-.6l.08-.33v-.08zm.62-1.04a2.3 2.3 0 0 0-.17.53c-.13-.17-.17-.38-.13-.64q.127-.48.34-.93a.93.93 0 0 0 .08.76l-.02.07c.53.7 2.46.52 4.94-.53c3.18-1.4 6.1-3.69 6.48-5.129c.13-.55-.04-.89-.5-1.06c.08-.04.08-.04.33.04c.17.05.3.09.38.09c.55.21.77.6.6 1.19c-.43 1.6-3.6 4.1-7.08 5.59c-2.75 1.139-4.87 1.349-5.42.549zm6.54 12.197a3.3 3.3 0 0 1-1.25-.15c-.25-.13-.6-.25-.8-.38c.51.21 1.2.27 1.97.19c4.47-.44 12.3-5.128 12.73-8.198l-.04.13c-.05.25-.09.55-.09.76c0 .05 0 .09-.04.13c-.5 1.82-4.1 4.659-8.05 6.349a13.2 13.2 0 0 1-4.43 1.18zm.5-1.74q1.051-.297 2.07-.7c.46-.12.63.17.63.17c.04.05.04.22-.21.34c-1.07.42-2.05.72-2.9.9l-.03.03l.02-.03c-1.5.31-2.64.27-3.24-.14c-.2-.17-.5-.38-.72-.55c.69.59 2.26.58 4.38-.02m-5.3-.9c-.18-.22-.39-.43-.52-.64c.17.2.43.5.6.72a.1.1 0 0 0-.09-.09zM11.28 2.04c.25 0 .6-.04.85-.04c.89 0 1.31.34 1.14 1.02c-.21.8-1.35 1.95-2.84 2.96c-.3.13-.6-.25-.5-.42c0-.04.04-.04.04-.04c1.31-.9 2.28-1.87 2.5-2.59c.17-.68-.38-.97-1.36-.89zm5.08.98c.51.25.72.68.56 1.31c-.51 1.9-4.24 4.829-8.31 6.568c-.76.34-1.52.59-2.2.8c-.39.04-.43-.46-.26-.719c.05-.08.09-.08.13-.13c.64-.17 1.31-.42 2.03-.72c3.86-1.65 7.38-4.44 7.84-6.219c.17-.64-.08-1.06-.63-1.27c.25.12.59.25.84.38m4.41 4.2l.13.2c.13.34.13.34.13.51v.04c-.13-.04-.39-.55-.43-.76a.9.9 0 0 0-.17-.6l.34.6zm.9 2.239c.03.2.03.46-.05.76c-.51 1.86-3.69 4.619-7.54 6.599c-.43.18-.68-.12-.6-.42a.43.43 0 0 1 .22-.25c3.9-2.03 7.16-4.83 7.67-6.739a1.6 1.6 0 0 0 0-.89c.12.34.25.68.3.94m.29 1.78v.33c0 .17 0 .3-.04.51c-.3 1.15-1.7 2.628-3.6 4.069c-.3.21-.47-.08-.43-.3a.8.8 0 0 1 .21-.34c2-1.48 3.43-3 3.73-4.19c.04-.21.09-.42.04-.63zM4.41 6.278c-.04-.13-.08-.21-.04-.38c-.04.17 0 .25.05.38zm-1.06 1.6a.9.9 0 0 1-.12-.5c0 .21 0 .34.13.5zm15.26 3.27a.58.58 0 0 1-.09.55a27.9 27.9 0 0 1-7.5 4.618c-4.28 1.78-7.5 1.9-7.8.38c-.03-.13 0-.04.05-.08c0 .04 0 .25.17.5c-.04-.08-.08-.12-.13-.2c-.04-.05-.04-.1-.08-.14c-.09-.12-.13-.3-.21-.42c.8 1.06 3.77.85 7.58-.8a29 29 0 0 0 7.5-4.618c.34-.17.47.08.51.21M7.9 18.896c.04.09.08.26-.09.3c-1.52.25-2.62.13-3.13-.42c-.17-.22-.42-.51-.6-.72c.47.59 1.62.76 3.27.5c.3 0 .5.26.55.34m13.35-3.09c.12-.25.25-.64.34-.89c-.51 1.65-3.77 4.2-7.33 5.72c-2.2.93-4.03 1.27-5 .97c.25.09.63.17.93.22c2.71.42 9.57-2.97 11.06-6.02m-2.2 3.05c0 .04-.1.17-.26.3c-.93.76-2.2 1.52-3.52 2.07c-1.1.47-2.07.72-2.8.769h-1.05c.84.04 2.07-.26 3.56-.85a16.5 16.5 0 0 0 3.98-2.369c.04 0 .04-.05.08-.05c0 0 0 .05.05.05c0 0 0 .04-.05.08zM2.52 8.859c0-.04.04-.12.04-.17l.34-.89c0 .13-.04.22-.09.34c-.12.21-.2.47-.3.72z"/></svg>