<svg xmlns="http://www.w3.org/2000/svg" xmlns:xlink="http://www.w3.org/1999/xlink" width="24" height="24" viewBox="0 0 24 24"><path fill="currentColor" d="M11.753 2.347h.51v4.58h-.51zM7.337 14.332l.268.436l-3.868 2.316l-.263-.431zm9.4.079l-.263.436L20.4 17.2l.263-.431z"/><path fill="currentColor" fill-rule="evenodd" d="M7.263 9.384L12 6.737l4.737 2.647v5.237L12 17.263L7.263 14.62zm.527.232L12 7.263l4.21 2.353v4.652l-4.204 2.469l-4.216-2.469z" clip-rule="evenodd"/><path fill="currentColor" d="M11.742 11.847h.51v10h-.51z"/><path fill="currentColor" d="m12.316 11.847l-.263.432l-8.69-4.974l.263-.431z"/><path fill="currentColor" d="m11.737 11.847l.263.432l8.684-4.974l-.263-.431z"/><path fill="currentColor" fill-rule="evenodd" d="M3.053 7.026L12 2l8.948 5.026v9.953L12 22l-8.947-5.021zm.526.237L12 2.526l8.421 4.737v9.474l-8.42 4.737l-8.422-4.737z" clip-rule="evenodd"/></svg>