<svg xmlns="http://www.w3.org/2000/svg" xmlns:xlink="http://www.w3.org/1999/xlink" width="24" height="24" viewBox="0 0 24 24"><path fill="currentColor" d="m7.95 17.993l-.15.029c-.45.214-1.321.55-2.393.785L6.057 22h3.057l1.386-4.364a47 47 0 0 0-2.036.264l-.443 1.472zm1.4-3.014a9 9 0 0 1 2.122-.393L12 12.907l.5 1.665c.914.042 1.572.214 2.143.435L12.65 9.143h-1.543l-1.764 5.836zm6.3 3.05l.457 1.343l.065-1.215l1.142.322l.358.107c.285.071.6.128.906.15L17.908 22h-3.15l-1.336-4.4c.77.093 1.542.257 2.228.429m3.428-1.715a13 13 0 0 1-1.414-.164a6.4 6.4 0 0 1-1.364-.393V15.7L18.872 2H22l-2.928 14.314zm-14.142.165L2 2h3.129l2.678 13.572l-.564.264c-.386.178-.722.336-1.022.435c-.407.143-.857.193-1.285.208"/></svg>