<svg xmlns="http://www.w3.org/2000/svg" xmlns:xlink="http://www.w3.org/1999/xlink" width="24" height="24" viewBox="0 0 24 24"><path fill="currentColor" d="M5.723 16.374c3.674.93 4.468 2.711 4.4 3.486l-4.4 2.137H4.85a2.83 2.83 0 0 1-2.843-2.812c0-1.555 1.274-2.811 2.843-2.811zm3.462.206l-7.117-3.512c-.5-2.961 1.856-3.611 3.555-3.561c.444.006.875.156 1.269.356c1.768.9 4.873 2.468 6.735 3.387c2.1 1.03 2.25 2.649 2.062 3.33l-4.673 2.293a4.13 4.13 0 0 0-1.831-2.293"/><path fill="currentColor" d="M15.033 12.531L2.005 6.064c0-3.249 2.4-4.061 3.693-4.061c1.037 0 1.806.256 2.062.387c2.98 1.45 9.372 4.562 11.078 5.411C20.968 8.864 22 9.532 22 11.301c0 1.624-.687 2.455-1.331 2.786c-.994.506-2.643 1.325-3.468 1.662a4.09 4.09 0 0 0-2.168-3.218"/></svg>