<svg xmlns="http://www.w3.org/2000/svg" xmlns:xlink="http://www.w3.org/1999/xlink" width="24" height="24" viewBox="0 0 24 24"><path fill="currentColor" d="M18.468 7.67c0-1.612-.751-3.273-1.03-3.903c1.012.733 4.556 2.757 4.556 8.864c0 6.798-6.41 9.076-9.621 9.367H6.12v-1.424c0-4.18 4.696-5.647 8.058-7.119c3.357-1.466 4.296-3.762 4.296-5.786z"/><path fill="currentColor" d="M6.12 21.877v-1.303c0-.254.012-.503.048-.739c1.648-3.38 5.047-4.32 5.974-4.447c.97-.14 5.708-1.103 7.919-2.254c1.194-.618 1.618-1.92 1.703-3.03c.145.752.23 1.594.23 2.527a9.2 9.2 0 0 1-.436 2.878l-8.955 6.398l-.376.091H6.26a1.4 1.4 0 0 1-.145-.121z"/><path fill="currentColor" d="M21.994 12.837c-.133 6.635-6.446 8.87-9.621 9.161H6.12v-.333l.049-.4c.739-4.774 6.997-5.604 11.323-5.786c2.727-.121 4.017-1.52 4.508-2.642zM2 11.08v7.392c1.284-2.739 5.32-4.38 7.47-5.065c2.157-.685 4.29-1.551 4.29-2.509c0-.957-2.938-1.32-2.938-2.278c0-.412.624-1.369 1.908-2.187c1.284-.824 2.793-2.145 2.793-3.011c0-1.206-2.72-1.448-4.077-1.418C4.726 2.004 2 8.487 2 11.08"/><path fill="currentColor" d="M2 18.472V11.08c0-1.393.788-3.902 2.55-5.931c3.672-1.454 9.095-3.333 9.095-2.278c0 1.211-1.745 2.362-4.047 3.877c-.564.376-1.164.764-1.776 1.188c-3.12 2.145-4.174 3.417-4.174 5.428c0 1.188.34 2.048.636 2.539c-.981.715-1.817 1.57-2.284 2.569"/><path fill="currentColor" d="M12.906 2.064c.363.236.648.503.648.764c0 .636-1.103 2.054-4.447 3.556C5.769 7.887 2.018 10.25 2 12.613V11.08c0-2.594 2.732-9.076 9.446-9.076c.4-.006.92.006 1.454.06z"/></svg>