<svg xmlns="http://www.w3.org/2000/svg" xmlns:xlink="http://www.w3.org/1999/xlink" width="24" height="24" viewBox="0 0 24 24"><path fill="currentColor" d="M11.443 8.5C8.4 13.214 6.543 19.771 5.815 22c-.408-4.2 1.757-9.921 3.335-13.3c-.736.029-4.285.393-6.435 2.636c0 0 .85-3.686 7.542-4.786l.022-.042c5.243-7.772 9.185-3.136 9.185-3.136c-2.393-.4-4.478.814-6.257 2.786c.864-.043 6.464-.108 8.078 4.378c0 0-3.242-2.357-9.842-2.036m3.786 5.4a2.37 2.37 0 0 0-1.715.714a2.48 2.48 0 0 0-.707 1.75a2.445 2.445 0 0 0 2.182 2.45c.4.043.803-.014 1.175-.164a2.4 2.4 0 0 0 1.314-1.336a2.448 2.448 0 0 0-2.242-3.414z"/></svg>