<svg xmlns="http://www.w3.org/2000/svg" xmlns:xlink="http://www.w3.org/1999/xlink" width="24" height="24" viewBox="0 0 24 24"><path fill="currentColor" d="M21.37 4.638c-.109 1.55-2.138 3.902-3.1 5.016l-.19.222c-.307.358-.598.725-.854 1.049c-.46.58-.811 1.025-.96 1.042q-.112.007-.225.002c-.505-.006-1.61-.018-1.831.543c-.135.313 1.662.233 1.662.233s-2.905 4.111-3.083 4.138a5 5 0 0 1-.432-.003c-.702-.016-2.089-.05-3.045.146c-1.26.259-1.734.965-1.734.965s1.788.152 3.048.215c1.251.053 3.182.08 3.182.08s-1.386.742-3.584.626s-3.075-.295-3.075-.295s.304.804.912 1.188c.37.235.892.439 1.24.575c.224.087.375.147.369.167a5.2 5.2 0 0 1-2.19-.447c-.54-.258-.8-.616-.948-.818c-.088-.12-.135-.186-.178-.147c-.125.107.214.93.51 1.207c.122.119.323.278.51.425c.262.207.494.39.437.407c-.09.035-1.788-.627-2.101-1.011c-.152.322-1.752 2.002-1.814 1.824c-.031-.088.253-.445.562-.833c.324-.407.674-.848.716-1.044c.09-.376-.018-.966-.304-.948s-.787 1.046-.787 1.046s-.179-.403-.107-.831c.071-.43.375-.742.375-.742s-.598-.644-.875-.92a7 7 0 0 0-.287-.263c-.292-.26-.622-.552-.562-.677c.071-.16 1.01.367 1.34.6c.322.223 1.028.92 1.028.92s-.269-.867-.474-1.448c-.078-.22-.173-.45-.259-.654c-.139-.336-.25-.603-.206-.642c.072-.062.688.75.948 1.153c.268.402.688 1.18.688 1.18s-.071-1.09.018-1.797c.09-.715.394-1.43.536-1.385c.072.027.113.186.175.432c.061.242.144.568.299.936c.312.732.527 1.072.661.983c.143-.09.269-1.028.188-2.404a59 59 0 0 0-.197-2.413s.84-.894.894-.85c.038.024.044.427.05.887c.005.406.01.857.04 1.133c.062.59.232 1.162.312 1.162c.081-.009.456-.626.698-2.1c.25-1.475.357-2.217.357-2.217s1.591-1.484 1.654-1.466c.031.01.064.222.1.467c.035.236.075.501.123.642a.87.87 0 0 0 .269.428s.375-.384.482-1.278l.073-.65c.046-.432.069-.647.132-.78c.09-.205 2.45-2.073 3.719-3.038C17.544 3.619 20.26 1.948 20.449 2c.187.063 1.036.965.92 2.637M9.4 16.044s3.28-3.272 4.701-4.961c1.431-1.69 4.04-5.47 4.04-5.47s-3.288 3.61-4.915 5.523a108 108 0 0 0-3.825 4.898z"/></svg>