<svg xmlns="http://www.w3.org/2000/svg" xmlns:xlink="http://www.w3.org/1999/xlink" width="24" height="24" viewBox="0 0 24 24"><path fill="currentColor" d="M4.877 3.857h12.74l2.877 5.756l-6.527 9.324h-3.933L3.507 9.613l2.275-4.55h10.93l2.274 4.549l-5.62 8.118h-2.73l-5.62-8.118l1.67-3.342h9.12l1.672 3.34l-4.716 6.914h-1.524L6.523 9.611l1.069-2.135h7.31l1.066 2.133L12 15.559l-3.968-5.95l.463-.927h5.5l.465.931l-2.475 3.537l-2.037-3.261h2.353v.603h-1.265l.977 1.565l1.747-2.496l-.137-.275H8.869l-.14.28l3.272 4.907l3.27-4.907l-.743-1.487H7.965l-.742 1.485l4.333 6.357h.888l4.334-6.357l-1.344-2.691H7.06l-1.345 2.69l5.237 7.564h2.097l5.237-7.565l-1.948-3.896H6.156L4.208 9.561l6.14 8.773h3.305l6.141-8.773l-2.551-5.101H5.25L2.699 9.564l6.747 9.976h5.11l6.747-9.976l-2.636-5.27l.54-.27L22 9.61l-7.125 10.533H9.127L2 9.61z"/></svg>