<svg xmlns="http://www.w3.org/2000/svg" xmlns:xlink="http://www.w3.org/1999/xlink" width="24" height="24" viewBox="0 0 24 24"><path fill="currentColor" fill-rule="evenodd" d="M9.647 20.486a7.312 7.312 0 1 0-.001-14.624a7.312 7.312 0 0 0 0 14.624m0 .335a7.647 7.647 0 1 0 0-15.294a7.647 7.647 0 0 0 0 15.294" clip-rule="evenodd"/><path fill="currentColor" d="M3.529 11.587c.176-.147.453-.247.8-.077c.217.118.517.336.811.56c.589.44 1.177.881 1.177.44c0-.664 1-.664 1.335 0c.141.283.1.5.059.741c-.053.324-.112.677.27 1.253c.389.577.436 1.706.477 2.559c.03.624.053 1.1.188 1.1c.335 0 1.335-1.665 1.665-2.33c.335-.664.335-1.329 0-1.658a8 8 0 0 1-.383-.435c-.453-.53-1.117-1.318-1.611-1.565c-.665-.33-.665-1.33 0-1.659c.159-.082.37-.158.588-.235c.73-.276 1.582-.588 1.076-1.094c-.353-.353-1.076-.518-1.629-.647c-.494-.118-.859-.194-.706-.353c.183-.176.27-.665.312-1.1a6.33 6.33 0 0 0-4.43 4.506zm10.517-2.941a6.293 6.293 0 0 1-.424 9.435c-.153-.2-.165-.56.012-.918c.335-.665 0-2.323-.33-3.323c-.205-.618-.54-.6-.929-.57c-.235.01-.482.029-.735-.095c-.665-.335 0-1.33.665-2c.488-.482.617-.788.782-1.176c.197-.527.527-.993.959-1.353"/><path fill="currentColor" fill-rule="evenodd" d="M9.646 19.304a6.13 6.13 0 1 0 0-12.258a6.13 6.13 0 0 0 0 12.258m0 .341a6.47 6.47 0 1 0 0-12.94a6.47 6.47 0 0 0 0 12.94" clip-rule="evenodd"/><path fill="currentColor" d="M3.782 18.863c1.882 1.806 3.912 2.047 4.7 1.941c-4.03-6.729 3.017-11.205 7.046-12.605v-.318c-9.94.777-11.97 7.647-11.746 10.982"/><path fill="currentColor" fill-rule="evenodd" d="M17.128 5.152h-.823a.13.13 0 0 0-.094.041l-1.236 1.453c-.088.1.018.247.142.2l.953-.377a.144.144 0 0 1 .188.118c.082.73.664.994 1.082 1.053c.088.012.153.106.118.188l-.436 1.059c-.04.106.083.212.183.153l1.858-1.035a.13.13 0 0 0 .065-.112v-.777c0-.058.035-.1.088-.117c1.9-.747 2.635-2.647 2.782-3.612a.12.12 0 0 0-.106-.135c-2.67-.423-4.176 1-4.646 1.83a.14.14 0 0 1-.118.07m3.106-.212a.588.588 0 1 0 0-1.177a.588.588 0 0 0 0 1.177" clip-rule="evenodd"/></svg>