<svg xmlns="http://www.w3.org/2000/svg" xmlns:xlink="http://www.w3.org/1999/xlink" width="24" height="24" viewBox="0 0 24 24"><path fill="currentColor" fill-rule="evenodd" d="M3.444 3.286a62 62 0 0 0-1.202 1.29c0 .013.584.604 1.31 1.296l.47.45l.772.752a8.69 8.69 0 0 0-.134 9.657c-.27.29-.706.76-1.203 1.276L2.06 19.498l-.06.067c0 .014 2.23 2.19 2.438 2.365l.08.067l1.263-1.323l1.343-1.424a8.69 8.69 0 0 0 9.685.04c.597.584 2.753 2.66 2.78 2.673c.02.007 2.418-2.518 2.411-2.552c-.007-.02-1.652-1.612-2.653-2.565l-.047-.047a8.69 8.69 0 0 0-.013-9.604l1.202-1.276q.715-.731 1.39-1.498a85 85 0 0 0-2.512-2.397c-.02 0-.638.63-1.37 1.41c-.517.55-.974 1.034-1.209 1.27a8.69 8.69 0 0 0-9.456-.081l-.04-.04l-.47-.45l-.739-.713l-1.215-1.175l-.242-.242L3.444 3.28zM12 17.376a5.372 5.372 0 1 0 0-10.744a5.372 5.372 0 0 0 0 10.744" clip-rule="evenodd"/></svg>