<svg xmlns="http://www.w3.org/2000/svg" xmlns:xlink="http://www.w3.org/1999/xlink" width="24" height="24" viewBox="0 0 24 24"><path fill="currentColor" fill-rule="evenodd" d="M10.393 2.873a.786.786 0 0 1 1.555-.221l.13.907a8.4 8.4 0 0 1 5.34 1.761a.505.505 0 0 1 .114.664l-.603.993l-.008-.006l-1.135 1.848l.002.003l-.304.493a1 1 0 0 0-.074.083c-.389.483-.796.399-1.028.248a3.162 3.162 0 1 0 .892 3.293a1 1 0 0 0 .06-.09c.301-.5.687-.505.94-.404l.153.082l.023.016v-.004l.47.25l2.976 1.57c.227.12.336.385.245.624a8.46 8.46 0 0 1-3.69 4.321l.138.985a.787.787 0 0 1-1.555.222l-.076-.534a8.4 8.4 0 0 1-1.792.393l.149.671a.79.79 0 0 1-.597.94a.784.784 0 0 1-.937-.596l-.22-.994A8.432 8.432 0 0 1 7.557 4.987l-.016-.06l-.25-1.128a.79.79 0 0 1 .597-.94a.784.784 0 0 1 .937.596l.168.757a8.4 8.4 0 0 1 1.521-.474zm5.236 3.15l-1.075 1.814a4.742 4.742 0 1 0 1.796 6.55l1.835 1.037a6.85 6.85 0 0 1-5.927 3.414a6.85 6.85 0 1 1 3.371-12.814" clip-rule="evenodd"/></svg>