<svg xmlns="http://www.w3.org/2000/svg" xmlns:xlink="http://www.w3.org/1999/xlink" width="24" height="24" viewBox="0 0 24 24"><path fill="currentColor" d="m12.247 2.001l.275.02l.543.043a9.9 9.9 0 0 1 4.455 1.612l-.993.993l-.419.413a.09.09 0 0 1-.081 0a7.997 7.997 0 0 0-10.94 10.946c.012.025.012.063 0 .075l-1.413 1.412h-.006l-.044-.062l-.087-.131a9.98 9.98 0 0 1 7.685-15.27l.438-.038l.093-.013zm9.747 10.241c0 .088 0 .175-.013.269a9.83 9.83 0 0 1-4.217 7.654a9.62 9.62 0 0 1-6.08 1.824a9.83 9.83 0 0 1-6.654-2.83c-.018-.02-.018-.082 0-.1c2.318-2.325 4.643-4.655 6.973-6.973a.3.3 0 0 1 .2-.081H22v.237zm-4.561-5.186A1.875 1.875 0 1 0 20.07 6.8a1.88 1.88 0 0 0-2.643.256z"/></svg>