<svg xmlns="http://www.w3.org/2000/svg" xmlns:xlink="http://www.w3.org/1999/xlink" width="24" height="24" viewBox="0 0 24 24"><path fill="currentColor" d="M10.669 16.219q-.158.225-.269.468l11.6-.012l-1.488-2.35l-1.68-2.769l-1.207-1.969l-.513-.83l-1.487-2.526l-.156-.25c-.394-.637-.725-1.175-1-1.6a7 7 0 0 0-.563-.819H10.05l-.319.507c-1.275 2.012-2.519 3.98-3.737 6.025a457 457 0 0 1-2 3.3L2 16.687h4.044l.693-1.069c.813-1.237 1.625-2.487 2.338-3.743a90 90 0 0 1 2.975-4.8a58 58 0 0 0 2.144 3.5a47 47 0 0 1 2.037 3.431h-4.15q-.16.283-.431.688l-.263.4l-.256.4c-.156.225-.293.45-.412.643zM4.5 18.562v.625h-.625v-.275a4 4 0 0 0-.419 0c-.143 0-.281.02-.4.05a.75.75 0 0 0-.306.157a.42.42 0 0 0-.138.28a.46.46 0 0 0 .062.338c.045.082.107.15.188.194q.122.075.282.113q.363.054.731.05v-.282H4.5v.625q-.427-.007-.856 0a7 7 0 0 1-.782-.075a1.4 1.4 0 0 1-.33-.118a1.1 1.1 0 0 1-.282-.194a.79.79 0 0 1-.244-.663a.67.67 0 0 1 .144-.356a.9.9 0 0 1 .294-.25a1.3 1.3 0 0 1 .418-.156a6 6 0 0 1 .5-.056c.175 0 .363-.013.557-.007zm1.937 1.875c0-.012.02-.03.038-.062l.037-.05l.038-.063l.081-.112l.063-.094h.65a9 9 0 0 0-.313-.494a6 6 0 0 1-.337-.5l-.475.688l-.463.687h-.631q.62-.942 1.256-1.875h.606l.088.119l.019.031l.162.232l.081.125l.157.23l.15.232l.118.175l.107.163l.156.23l.225.338zm3.438-1.875a56 56 0 0 0-1 1.875h.587l.5-.937l.376-.706l.124-.232zm2.231.807l-.219-.807H11.3l-.519.938l-.5.937h.531l.338-.593l.344-.588l.143.5l.025.088l.125.425l.044.168h.588l-.269-.937l-.031-.131zm1.144-.807h.625v1.875h-.625zm2.669 0h-.6v.007q.006.39-.013.78v.176l.019.212l.031.219a.4.4 0 0 0 .056.15a.54.54 0 0 0 .188.163c.26.115.54.173.825.168q.157.002.325-.025c.191-.024.374-.094.531-.206a.5.5 0 0 0 .157-.187a.5.5 0 0 0 .03-.125l.013-.17v-1.162h-.612v1.3l-.025.075a.2.2 0 0 1-.082.082a.5.5 0 0 1-.118.05a.8.8 0 0 1-.25.037l-.125-.006a.7.7 0 0 1-.231-.075a.2.2 0 0 1-.107-.15a1 1 0 0 1-.012-.169zm3.537 0h.588l-.125.232l-.375.706l-.494.937h-.588q.495-.94 1-1.875zm2.244.807l.038.125l.262.943h-.588l-.037-.143a42 42 0 0 0-.3-1.038a8 8 0 0 0-.344.588l-.344.593h-.53l.505-.937c.17-.313.338-.625.52-.938h.587z"/></svg>