<svg xmlns="http://www.w3.org/2000/svg" xmlns:xlink="http://www.w3.org/1999/xlink" width="24" height="24" viewBox="0 0 24 24"><path fill="currentColor" d="M21.999 12.064c0-7.337-6.706-10.35-10.23-10.043c-.65 0-1.394.431-1.394 1.212c0 .782.456 1.282 2.606 1.494c1.812.175 3.53 1.544 3.812 1.825c.425.412.481.968.269 1.418a1.38 1.38 0 0 1-1.25.763c-.587.019-.781-.081-1.65-.631a3.83 3.83 0 0 0-2.393-.732C8.8 7.464 7 9.74 7 12.07a4.793 4.793 0 0 0 4.769 4.624a4.72 4.72 0 0 0 4.212-2.63c.275-.563-.113-.8-.338-.813H11.77c-.469 0-1.394-.156-1.394-1.187c0-1.025.813-1.313 1.275-1.313h6.75c.6.044.812.438.843.663c.025 5.293-3.262 6.874-4.506 7.374c-1.037.425-2.1.687-3.23.687c-.626 0-1.188.469-1.126 1.325A1.25 1.25 0 0 0 11.5 22c8.093 0 10.499-6.655 10.499-9.936M7.626 5.752a1.25 1.25 0 1 0 0-2.5a1.25 1.25 0 0 0 0 2.5M4.501 8.876a1.25 1.25 0 1 0 0-2.5a1.25 1.25 0 0 0 0 2.5m-1.25 4.374a1.25 1.25 0 1 0 0-2.499a1.25 1.25 0 0 0 0 2.5m1.25 4.375a1.25 1.25 0 1 0 0-2.5a1.25 1.25 0 0 0 0 2.5m3.125 3.124a1.25 1.25 0 1 0 0-2.5a1.25 1.25 0 0 0 0 2.5"/></svg>