<svg xmlns="http://www.w3.org/2000/svg" xmlns:xlink="http://www.w3.org/1999/xlink" width="24" height="24" viewBox="0 0 24 24"><path fill="currentColor" fill-rule="evenodd" d="M21.241 10.955c.391-.487.51-.896.441-1.223c-.072-.328-.345-.641-.9-.91c-.545-.258-1.318-.445-2.273-.536c-1.895-.182-4.436.023-7.168.66c-2.732.64-5.114 1.59-6.755 2.6a7.2 7.2 0 0 0-1.827 1.5c-.396.486-.51.895-.441 1.227c.072.327.345.64.9.91c.545.258 1.318.444 2.273.535c1.895.182 4.436-.022 7.168-.659c2.732-.64 5.114-1.59 6.755-2.6a7.2 7.2 0 0 0 1.827-1.5zm-8.514 4.404c5.51-1.29 9.646-3.84 9.246-5.695s-5.19-2.314-10.7-1.023c-5.51 1.29-9.646 3.84-9.246 5.696c.4 1.854 5.19 2.313 10.7 1.022" clip-rule="evenodd"/><path fill="currentColor" fill-rule="evenodd" d="M19.569 11.091c.318-.39.404-.704.35-.945c-.05-.241-.26-.491-.705-.705c-.445-.21-1.073-.364-1.855-.432c-1.554-.145-3.64.023-5.886.546c-2.246.531-4.205 1.309-5.546 2.136c-.563.32-1.07.73-1.5 1.214c-.318.395-.4.709-.346.955c.05.236.26.486.705.7c.445.209 1.073.363 1.855.431c1.554.146 3.64-.022 5.886-.545c2.246-.532 4.205-1.31 5.546-2.137c.563-.32 1.07-.73 1.5-1.213zm-6.973 3.655c4.536-1.06 7.945-3.15 7.618-4.668s-4.273-1.887-8.81-.823c-4.536 1.059-7.945 3.15-7.618 4.668s4.273 1.886 8.81.823" clip-rule="evenodd"/><path fill="currentColor" fill-rule="evenodd" d="M17.896 11.237c.245-.3.3-.523.263-.682c-.032-.155-.173-.332-.518-.496a4.4 4.4 0 0 0-1.432-.327c-1.214-.109-2.845.023-4.605.437c-1.522.33-2.986.89-4.34 1.659c-.528.318-.92.64-1.16.936c-.246.3-.3.523-.264.682c.032.155.173.332.518.495c.337.16.819.273 1.432.328c1.214.109 2.846-.023 4.605-.437c1.523-.33 2.987-.89 4.341-1.659c.528-.318.919-.64 1.16-.936m-5.433 2.9c3.564-.837 6.246-2.468 5.992-3.65s-3.355-1.455-6.919-.623c-3.564.836-6.246 2.468-5.991 3.65c.254 1.182 3.355 1.455 6.918.623" clip-rule="evenodd"/><path fill="currentColor" fill-rule="evenodd" d="M16.227 11.377c.173-.209.187-.34.173-.409s-.086-.182-.327-.29a3.2 3.2 0 0 0-1.014-.224c-.868-.072-2.046.028-3.323.323c-1.273.3-2.382.737-3.137 1.191c-.381.227-.659.455-.827.655c-.173.209-.186.34-.173.409s.087.182.328.29c.232.105.572.183 1.013.224c.869.072 2.046-.028 3.323-.323a11.3 11.3 0 0 0 3.137-1.191c.382-.227.659-.455.827-.655m-3.895 2.15c2.59-.609 4.545-1.781 4.363-2.627c-.181-.841-2.432-1.032-5.027-.427c-2.591.609-4.546 1.782-4.364 2.627c.182.841 2.432 1.032 5.028.427" clip-rule="evenodd"/><path fill="currentColor" fill-rule="evenodd" d="M14.772 11.99c-.013-.008-.045-.045-.131-.08a1.9 1.9 0 0 0-.596-.12c-.532-.04-1.255.024-2.046.21c-.79.182-1.472.45-1.936.723c-.232.136-.395.263-.486.372c-.069.078-.082.119-.082.137c.009.009.036.04.127.082c.127.054.327.1.596.118c.531.04 1.254-.027 2.045-.21c.791-.186 1.473-.454 1.937-.726q.349-.207.486-.373c.068-.073.082-.114.082-.132zm-2.44 1.537c1.618-.381 2.84-1.1 2.731-1.604c-.109-.505-1.509-.61-3.132-.228c-1.618.378-2.84 1.096-2.732 1.6c.11.51 1.51.61 3.132.228z" clip-rule="evenodd"/><path fill="currentColor" d="M14.109 12.65c-.496.314-1.246.61-2.11.814c-.863.2-1.658.268-2.236.21a2.6 2.6 0 0 1-.373-.883a2.504 2.504 0 0 1 1.819-2.99a2.41 2.41 0 0 1 2.877 1.89c.068.327.073.65.023.96"/><path fill="currentColor" d="M12.596 8.59c-.15 1.555.031 2.746.136 3.237l-.291.068a11.3 11.3 0 0 1-.146-3.336l.3.027zm-3.214.719c.95.84 1.55 2.273 1.736 2.887l-.29.09c-.178-.59-.755-1.954-1.637-2.74zm7.364-1.15c-2.41 1.064-2.796 3.168-2.7 4.05h-.228c-.104-.995.182-3.132 2.728-4.255zm-8.837 3.273c.304.077.577.168.74.272c.44.27.766.69.92 1.182l-.296.073a1.83 1.83 0 0 0-.782-.986a2.4 2.4 0 0 0-.655-.241c-.3-.073-.659-.141-1.036-.2a28 28 0 0 0-2.091-.237l.182-.263c.527.04 1.186.068 1.954.19c.382.06.75.128 1.064.21m10.4-2.228a30 30 0 0 1 2.482-.709l.069.305a28 28 0 0 0-2.455.704c-.936.319-1.837.682-2.35 1.05a9.5 9.5 0 0 0-1.782 1.882c.654-.422 1.055-1.054 1.864-1.245c.709-.164 1.468-.223 2.186-.25c1.046-.046 2.227-.082 2.996-.1l.009.314c-.768.018-1.946.054-2.991.095c-.7.032-1.446.086-2.132.245c-.682.16-1.35.7-1.91 1.1q.295-.021.691.019c.66.077 1.546.304 2.655.822l-.122.287a8.4 8.4 0 0 0-2.564-.796a2.26 2.26 0 0 0-1.16.091l-.136-.282q.135-.067.364-.109c.136-.382.773-1.545 1.864-2.327c.554-.396 1.495-.777 2.427-1.091zM7.274 12.945a2.71 2.71 0 0 1 2.431.519l.173 2.263l-.3.023l-.154-2.227c-.319-.105-1.046-.046-1.305.173c-.418.354-2.11 1.672-2.9 2.286l-.182-.255c.796-.613 2.482-1.922 2.896-2.272c.168-.15 1.136-.082 1.345-.105c-.563-.332-1.477-.204-1.936-.1l-4.987 1.168l-.068-.304z"/></svg>