<svg xmlns="http://www.w3.org/2000/svg" xmlns:xlink="http://www.w3.org/1999/xlink" width="24" height="24" viewBox="0 0 24 24"><path fill="currentColor" d="M12 22c2.964-1.67 5.9-3.335 8.823-5V6.988L12 2l-1.765.982v1.236c.724-.412 1.035-.577 1.765-.983c2.553 1.447 5.088 2.924 7.647 4.37V16.4c-2.553 1.447-5.094 2.924-7.647 4.37c-2.589-1.458-5.059-2.929-7.647-4.394v-10c-.388.218-.788.395-1.177.612v10.024zm0-2.5c2.17-1.224 4.306-2.506 6.47-3.73V8.236C16.306 7.018 14.176 5.73 12 4.505l-2.941 1.66V3.659c-.4.235-.847.612-1.177.794v3.741c1.5-.847 2.67-1.63 4.118-2.447c1.788 1.006 3.512 2.118 5.294 3.13v6.264c-1.847 1.041-3.441 2.083-5.294 3.13c-1.847-1.053-3.43-2.095-5.294-3.148V5.147c-.394.218-.847.412-1.177.594v10.024c2.206 1.247 4.265 2.494 6.47 3.74zm2.94-8.765v-.617c-1.099-.624-1.823-1.236-2.94-1.871c-1.012.577-1.941 1.306-2.941 1.87v3.789c1.088.612 1.823 1.235 2.94 1.87c1.113-.629 1.836-1.252 2.942-1.882v-.623c.353-.2.794-.395 1.176-.612v1.853c-1.47.835-2.647 1.664-4.117 2.494c-1.4-.788-2.724-1.7-4.118-2.488v-5c1.212-.689 2.136-1.383 3.37-2.083l.742-.411c1.47.823 2.647 1.658 4.124 2.488v1.859c-.377-.218-.806-.424-1.177-.63zm-.587.018v1c-.765-.335-1.583-.677-2.353-1c-.236.118-.518.294-.747.412c1.03.294 2.135.564 3.094.84v1.26c-.724.412-1.618.817-2.341 1.23c-.747-.419-1.642-.83-2.36-1.236v-.941c.771.235 1.648.547 2.354.94l.765-.428c-1.03-.295-2.154-.565-3.112-.836v-1.253c.73-.406 1.623-.817 2.353-1.23c.735.418 1.63.83 2.347 1.236zm.97.823l.112.06l.212.117l-.153.094l-.165.094l-.082-.041l-.247-.141l.212-.118zm.294.718l.106-.059l-.017-.194l-.018-.159l-.177.1l-.123.07v.083l.018.277l.217-.118zm-.676-.035v-.365l.306.153v.359z"/></svg>