<svg xmlns="http://www.w3.org/2000/svg" xmlns:xlink="http://www.w3.org/1999/xlink" width="24" height="24" viewBox="0 0 24 24"><path fill="currentColor" fill-rule="evenodd" d="M12 21.412a9.412 9.412 0 1 0 0-18.824a9.412 9.412 0 0 0 0 18.824M12 22a10 10 0 1 0 0-20a10 10 0 0 0 0 20" clip-rule="evenodd"/><path fill="currentColor" d="M11.412 7.882H9.059l.588.588v6.47l-.588.59h2.353l-.588-.59V8.47z"/><path fill="currentColor" d="M6.118 13.765v-1.53c.676-.753 1.94-2.052 3.094-1.852c.712.117 1 .982.93 1.611c.235-.235.47-.482.746-.67c.206-.147.63-.371 1.082-.142c.418.206.589.571.665.853l.165-.1c.377-.223.941-.523 1.553-.523h3.53v1.176h-3.53c-.435 0-.841.289-1.194.512c-.259.165-.541.37-.865.37a.68.68 0 0 1-.53-.24c-.223-.26-.176-.589-.264-.9c-.37.288-.647.67-1.035.94c-.206.142-.63.365-1.083.136a1 1 0 0 1-.37-.3c-.383-.53.141-1.03-.077-1.535c-1.023.364-2.117 1.417-2.817 2.194"/><path fill="currentColor" d="M14.941 7.882h-2.353l.588.588v6.47l-.588.59h2.353l-.588-.59V8.47z"/></svg>