<svg xmlns="http://www.w3.org/2000/svg" xmlns:xlink="http://www.w3.org/1999/xlink" width="24" height="24" viewBox="0 0 24 24"><path fill="currentColor" d="M17.779 14.455c-1.722-.211-3.132-1.094-3.81-2.233c.928-.933 2.51-1.444 4.221-1.233c1.722.211 3.133 1.095 3.81 2.233l-.161.15c-.944.839-2.444 1.283-4.06 1.083"/><path fill="currentColor" d="M16.362 15.999c-1.433-.989-2.293-2.427-2.388-3.755c1.244-.405 2.877-.127 4.31.861c1.433.983 2.294 2.422 2.388 3.744c-.078.027-.155.055-.233.072c-1.21.3-2.733 0-4.077-.928z"/><path fill="currentColor" d="M14.586 16.666c-.89-1.5-1.078-3.177-.611-4.421c1.294.166 2.665 1.122 3.554 2.627c.889 1.5 1.072 3.182.611 4.42a3 3 0 0 1-.322-.055c-1.194-.272-2.416-1.188-3.232-2.566z"/><path fill="currentColor" d="M15.18 8.418a5.85 5.85 0 0 0-.39-4.471l-4.73 5.876c-.45-.272-.917-.506-1.4-.617a1.92 1.92 0 0 0-1.627.334c-.25.188-.389.427-.528.672c-.1.172-.2.35-.344.505c-.311.35-4.16 2.038-4.16 2.038l.056.128s3.593-1.61 4.32-1.477c.734.133 2.217.588 3.155 2.51c1 2.027 2.91 3.277 3.977 3.122l-1.033 3.004c5.332.261 3.432-4.276 1.788-6.554a11 11 0 0 0 2.1-.883c.4-.21.777-.483 1.122-.788a8.4 8.4 0 0 0 1.832-2.388a12.2 12.2 0 0 0 1.322-3.927l-5.465 2.916z"/></svg>