<svg xmlns="http://www.w3.org/2000/svg" xmlns:xlink="http://www.w3.org/1999/xlink" width="24" height="24" viewBox="0 0 24 24"><path fill="currentColor" fill-rule="evenodd" d="M14.882 22c3.143 0 5.686-2.497 5.686-5.577a5.63 5.63 0 0 0-5.686-5.572a5.63 5.63 0 0 0-5.68 5.572a5.625 5.625 0 0 0 3.522 5.168a5.6 5.6 0 0 0 2.158.409m.709-9.166l-.64-.171l-.269.937l-1.6-.44l-.268.937l.64.177a.316.316 0 0 1 .228.4l-.72 2.509a.33.33 0 0 1-.406.228l-.32-.091l-.588.851l1.6.44l-.274.943l.64.172l.268-.937l.32.085l-.268.943l.64.171l.268-.937l.64.178a1.555 1.555 0 0 0 1.857-1.075c.183-.628-.103-1.211-.628-1.554a1.298 1.298 0 0 0-.115-2.469l-.314-.091l.269-.937l-.64-.177l-.269.937l-.32-.086zm.417 2.143l-.954-.263l-.275.943l.96.263a.496.496 0 0 0 .571-.715a.5.5 0 0 0-.296-.228zm-.377 1.926l-1.12-.309l-.36 1.257l1.12.303a.65.65 0 0 0 .808-.448a.65.65 0 0 0-.448-.809z" clip-rule="evenodd"/><path fill="currentColor" d="M10.185 10.851c.286-1.063.543-3.805 1.177-5.4a25 25 0 0 0 2.526 3.892a7.23 7.23 0 0 0-3.703 1.508"/><path fill="currentColor" d="M5.312 10.32C6.786 8.354 8.877 5.829 9.654 2c.537 1.446 1.046 5.68-1.263 11.063c-2.017 4.685.178 7.611 1.8 8.937c-6.737-.217-8.588-6.726-4.874-11.68z"/><path fill="currentColor" d="M5.156 16.423c-.125 1.274-.04 2.702.503 4.062c1.109.892 2.629 1.452 4.526 1.515c-1.623-1.326-3.817-4.246-1.8-8.937c2.263-5.28 1.823-9.457 1.291-10.972c.046 3.132-1.143 5.555-2.32 7.96c-.983 2.006-1.96 4-2.2 6.372m6.726-6.566c-.1-1.414-.298-2.82-.594-4.206a22.4 22.4 0 0 0-.789 3.549c-.114.68-.211 1.268-.314 1.651c.388-.331.988-.703 1.697-.994"/></svg>