<svg xmlns="http://www.w3.org/2000/svg" xmlns:xlink="http://www.w3.org/1999/xlink" width="24" height="24" viewBox="0 0 24 24"><path fill="currentColor" d="M9.223 11.722v-.277h-.556v1.666h.556v-.833h.833v.833h.555v-.833h1.111v-.556h-1.11v-.277h-.556v.277zm3.887 4.411l.29 2.634l-1.206 1.205l-.389-.389l1.017-1.016l-.267-2.367zm-3.994-1.138l-1.389 1.11l-.344-.433l1.389-1.11zm9.461-1.895l1.578-1.31l.355.421l-1.755 1.467l-2.622-.289l.066-.555zM4.673 10.6l3.189.29l-.056.555l-2.922-.267l-1.022 1.017l-.39-.39zm4.077-.905l-1.388-1.39l.388-.388l1.39 1.389zm3.078-5.69l.345.434l-1.267 1.017l.261 2.344l-.556.067l-.294-2.656z"/><path fill="currentColor" fill-rule="evenodd" d="M12.556 4.222a.555.555 0 1 0 0-1.11a.555.555 0 0 0 0 1.11m0 .556a1.111 1.111 0 1 0 0-2.222a1.111 1.111 0 0 0 0 2.222m.556 8.333a1.111 1.111 0 1 0 0-2.222a1.111 1.111 0 0 0 0 2.222m0 .556a1.667 1.667 0 1 0 0-3.334a1.667 1.667 0 0 0 0 3.334" clip-rule="evenodd"/><path fill="currentColor" fill-rule="evenodd" d="M13.111 12.222a.223.223 0 0 0 .157-.38a.222.222 0 1 0-.157.38m0 .556a.778.778 0 1 0 0-1.556a.778.778 0 0 0 0 1.556m3.89-4.667A.556.556 0 1 0 17 7a.556.556 0 0 0 0 1.111m0 .556a1.111 1.111 0 1 0 0-2.223a1.111 1.111 0 0 0 0 2.223M20.888 12a.556.556 0 1 0 0-1.112a.556.556 0 0 0 0 1.112m0 .555a1.112 1.112 0 1 0 0-2.223a1.112 1.112 0 0 0 0 2.223" clip-rule="evenodd"/><path fill="currentColor" d="M15.889 12a3.89 3.89 0 0 0-2.595-3.667l.19-.522a4.444 4.444 0 1 1-5.673 5.667l.522-.184A3.889 3.889 0 0 0 15.89 12M12 8.111a3.89 3.89 0 0 0-3.856 4.406l-.55.078a4.444 4.444 0 0 1 5-5l-.078.555a3 3 0 0 0-.517-.039"/><path fill="currentColor" fill-rule="evenodd" d="M17 17a.555.555 0 1 0 0-1.111a.555.555 0 0 0 0 1.11m0 .555a1.111 1.111 0 1 0 0-2.222a1.111 1.111 0 0 0 0 2.222M7 17a.555.555 0 1 0 0-1.111a.555.555 0 0 0 0 1.11m0 .555a1.111 1.111 0 1 0 0-2.222a1.111 1.111 0 0 0 0 2.222m4.444 3.334a.555.555 0 1 0 0-1.111a.555.555 0 0 0 0 1.11m0 .555a1.11 1.11 0 1 0 0-2.221a1.11 1.11 0 0 0 0 2.221M3.111 13.11a.555.555 0 1 0 0-1.11a.555.555 0 0 0 0 1.11m0 .556a1.11 1.11 0 1 0 0-2.22a1.11 1.11 0 0 0 0 2.22M7 8.111A.555.555 0 1 0 7 7a.555.555 0 0 0 0 1.111m0 .556a1.111 1.111 0 1 0 0-2.223a1.111 1.111 0 0 0 0 2.223" clip-rule="evenodd"/><path fill="currentColor" d="M7.278 7.556a.278.278 0 1 1-.556 0a.278.278 0 0 1 .556 0m10 8.889a.278.278 0 1 1-.556 0a.278.278 0 0 1 .556 0M15.14 9.028l1.11-1.112l.39.39l-1.112 1.11zm.088 5.533l1.39 1.111l-.345.433l-1.39-1.11z"/></svg>