<svg xmlns="http://www.w3.org/2000/svg" xmlns:xlink="http://www.w3.org/1999/xlink" width="24" height="24" viewBox="0 0 24 24"><path fill="currentColor" d="M22 20.662L12.011 3.25L2 20.75c1.037-.482 2.706-1.076 4.206-1.076c.863 0 1.712.17 2.362.3c.388.076.738.15.932.15c1.712 0 3.106-1.068 3.8-1.593c.224-.169.374-.281.437-.281c.437 0 .637.325.831.637c.2.313.394.619.8.619c.163 0 .275-.125.4-.263c.156-.175.331-.368.638-.368c.7 0 1.168.8 1.356 1.243c.05-.218.268-.612.712-.612c.332 0 .532.306.7.562c.125.175.225.332.338.332c.1 0 .156-.038.237-.082c.138-.087.331-.2.919-.2c.512 0 .969.25 1.325.544z"/><path fill="currentColor" d="M22 20.674L12.02 3.25l-10 17.475c1.037-.526 2.687-1.22 4.187-1.22c.862 0 1.712.238 2.362.42c.388.112.738.2.931.2c1.713 0 3.107-1.063 3.8-1.588c.225-.175.375-.287.438-.287c.437 0 .637.318.837.637c.194.313.388.613.8.613c.156 0 .269-.125.394-.263c.156-.169.331-.362.637-.362c.7 0 1.17.812 1.357 1.25c.05-.213.268-.625.712-.625c.331 0 .531.312.7.562c.125.181.225.338.337.338c.1 0 .157-.038.238-.082c.137-.081.331-.187.919-.187c.512 0 .975.25 1.331.543"/></svg>