<svg xmlns="http://www.w3.org/2000/svg" xmlns:xlink="http://www.w3.org/1999/xlink" width="24" height="24" viewBox="0 0 24 24"><path fill="currentColor" d="M15.029 3.059A11 11 0 0 0 12 2.399c-1.13.083-2.135.319-3.029.648l1.265 2.752L12 6.834L13.764 5.8l1.265-2.746zM11.889 2l.111.006l.118-.006v.018c1.9.152 3.733.779 5.328 1.823l-.294.282a10.4 10.4 0 0 0-1.753-.923L14.07 6.076L12.047 7.27l-.024.04L12 7.3l-.024.01l-.023-.04L9.93 6.076L8.6 3.2c-.629.259-1.2.564-1.705.888l-.294-.277a11 11 0 0 1 5.287-1.793zM3.765 6.893v9.363c.006.277.059.724.212 1.177c.147.447.388.935.788 1.258l.823.647l4 2.617a.266.266 0 0 0 .411-.223v-1.67c.394.247 1.035.517 1.877.564q.123.003.246 0A3.9 3.9 0 0 0 14 20.062v1.67c0 .212.235.335.411.224l4-2.624l.823-.64c.376-.338.649-.774.788-1.26c.147-.452.206-.9.212-1.176V7l-.4.518v8.734c0 .235-.059.646-.188 1.058c-.135.412-.353.818-.665 1.076l-.806.63l-3.822 2.47v-6.428c.764 0 1.817-.2 2.587-.93c.853-.811 1.377-2.217 1.041-4.552l-.017-.123l-.118-.041a8.8 8.8 0 0 0-2.117-.324c-.9-.023-1.923.077-2.858.465l-.118.047v4.317L12 14.34l-.747-.423V9.599l-.117-.047a7 7 0 0 0-2.859-.465c-.894.03-1.67.188-2.117.324l-.124.04l-.017.118c-.336 2.341.188 3.747 1.04 4.558c.717.623 1.64.954 2.588.93v6.434l-3.822-2.47l-.806-.63a2.3 2.3 0 0 1-.665-1.082a4 4 0 0 1-.188-1.059V7.41zM14 19.573a3.33 3.33 0 0 1-2 .66a3.3 3.3 0 0 1-2-.66v-4.928l-.205.006a3.35 3.35 0 0 1-2.459-.824c-.717-.67-1.235-1.9-.94-4.081a8.8 8.8 0 0 1 1.893-.27c.823-.024 1.706.064 2.535.382v4.281l1.176.67l1.176-.67V9.858a6.5 6.5 0 0 1 2.535-.383c.782.03 1.47.153 1.894.27c.294 2.183-.224 3.412-.941 4.088a3.35 3.35 0 0 1-2.459.824L14 14.645zM7.142 11.34l-.053-.106a2.5 2.5 0 0 1 1.73-.859c.8 0 1.37.453 1.552.682l-.088.136a2.57 2.57 0 0 0-1.47-.553c-.636 0-1.377.47-1.671.705zm.03.611l-.06-.117c.26-.283.989-1.018 1.847-1.018c.859 0 1.547.694 1.741.918l-.094.135a3.6 3.6 0 0 0-1.082-.535v.088c-.018.03-.03.023-.047.012c-.03-.018-.07-.041-.176-.041c-.177 0-.136.252.035.252c.076 0 .135-.047.176-.082c.041-.047.065-.065.065.059c0 .23-.212.635-.688.635c-.47 0-.63-.33-.63-.612c0-.117.024-.211.048-.282a4 4 0 0 0-1.136.588m6.292-.717l.053.111c.295-.235 1.03-.705 1.67-.705c.642 0 1.242.364 1.471.553l.082-.136a2.1 2.1 0 0 0-1.552-.682c-.806 0-1.482.57-1.724.859m.024.606l.059.111c.344-.252.725-.45 1.129-.588a.9.9 0 0 0-.041.282c0 .283.153.612.63.612a.68.68 0 0 0 .687-.635c0-.124-.023-.106-.07-.059c-.041.035-.1.082-.177.082c-.17 0-.212-.252-.03-.252c.1 0 .148.023.172.04c.023.012.029.018.046-.011a.11.11 0 0 0 0-.088a3.5 3.5 0 0 1 1.088.535l.095-.135c-.2-.224-.883-.918-1.741-.918s-1.588.735-1.847 1.024M11.7 15.71c-.03-.118-.335-.383-.482-.5c-.047.076-.124.27-.06.44c.078.218.572.212.542.06m1.47-.5c-.153.117-.458.376-.482.5c-.03.152.465.158.541-.06a.57.57 0 0 0-.058-.44m-1.058 2.252a.58.58 0 0 0-.353-.123c-.13 0-.224.029-.306.053a.5.5 0 0 1-.288.017a4 4 0 0 0-.388-.07c.023.064.14.235.411.235h1.859c.264 0 .388-.17.412-.235a3 3 0 0 0-.394.07c-.112.03-.194.006-.289-.017c-.082-.024-.176-.053-.305-.053a.65.65 0 0 0-.353.117zm-.647.435c.059.053.264.153.576.153c.318 0 .618-.1.73-.153c-.03.118-.206.353-.695.353c-.488 0-.611-.235-.611-.353"/><path fill="currentColor" d="M4.137 3.076C5.46 3.382 8.124 4.535 8.183 6.7c-.118.277-.47.912-.976 1.235c-.894.253-2.835.265-3.423-1.729c.047 0 .158.018.211.094c.06.095.47.47.941.653c.06.03.136 0 .17-.064a.16.16 0 0 0-.087-.218a1.88 1.88 0 0 1-1.235-1.923l.658.235c.413.473.912.862 1.47 1.147a.176.176 0 0 0 .263-.134a.19.19 0 0 0-.11-.196c-.852-.411-2.187-1.411-1.929-2.723m15.732 0c-1.323.306-3.982 1.459-4.04 3.623c.111.277.47.912.976 1.235c.894.253 2.835.265 3.423-1.729c-.047 0-.159.018-.212.094c-.059.095-.47.47-.94.653a.135.135 0 0 1-.177-.064a.167.167 0 0 1 .094-.218a1.88 1.88 0 0 0 1.235-1.923l-.665.235a4.9 4.9 0 0 1-1.47 1.147a.176.176 0 0 1-.262-.134a.19.19 0 0 1 .11-.196c.852-.411 2.193-1.411 1.928-2.723"/></svg>