<svg xmlns="http://www.w3.org/2000/svg" xmlns:xlink="http://www.w3.org/1999/xlink" width="24" height="24" viewBox="0 0 24 24"><path fill="currentColor" d="M14.105 8.155c0-2.871-1.375-5.34-2.42-6.145c-.005-.003-.081-.046-.074.07l-.003.003c-.086 5.544-2.871 7.047-4.402 9.071c-3.533 4.671-.247 9.793 3.099 10.74c1.872.53-.433-.937-.73-4.035c-.359-3.745 4.53-6.604 4.53-9.704m1.825 1.753c-.02-.015-.051-.025-.072.01c-.058.707-.755 2.217-1.64 3.603c-3 4.702-1.29 6.969-.328 8.186c.557.707 0 0 1.394-.722c.11-.057 2.722-1.57 3.005-5.02c.274-3.34-1.667-5.445-2.358-6.057"/></svg>