<svg xmlns="http://www.w3.org/2000/svg" xmlns:xlink="http://www.w3.org/1999/xlink" width="24" height="24" viewBox="0 0 24 24"><path fill="currentColor" d="M12.444 2c3.437 0 6.25 2.237 7.23 3.356l-.937 1.019l-.068-.069c-2.32-2.112-3.426-3.112-6.825-3.518c-2.75-.332-5.625 1.387-6.72 2.293C5.475 4.531 8.15 2 12.445 2m-.42 20c-3.494 0-6.356-2.213-7.35-3.313l.95-1.012c2.406 2.131 3.513 3.144 7.013 3.55c2.793.325 5.75-1.375 6.862-2.269C19.144 19.5 16.387 22 12.025 22m-3.5-9.844L5.712 7.444l-.287.7l2.612 4.012L2 22z"/><path fill="currentColor" d="m12.731 9.094l3.019-2.719l-3.569 4l-1.45-2.125H8.606l2.269 3.7L2 22l7.625-10.05L6.675 7h4.712l1.35 2.094zm2.806 3.362L22 2.625l-6.113 9.831l2.75 4.275l-.2.763z"/><path fill="currentColor" d="M13.256 12.5L22 2.625L14.469 12.5l3.05 5.125H12.83l-1.337-2.038L8.25 18.25l3.675-4.181l1.606 2.306h2.131z"/></svg>