<svg xmlns="http://www.w3.org/2000/svg" xmlns:xlink="http://www.w3.org/1999/xlink" width="24" height="24" viewBox="0 0 24 24"><path fill="currentColor" d="M14.067 6.056h.411l.039-.59h-.45zm.411-1.378l-.456.117l.045.433h.494l-.083-.556zm-.122-.278l-.334-.472l-.366.278l.289.389zm-.54-.628l-.533-.316l-.244.277l.45.278l.333-.239zm-1.438-.238l.5.122l.2-.278l-.533-.117l-.167.278zm-.244-.034l.122-.278h-.694V3.5zm-2.2 14.444h-.411l-.04.588h.45zm-.411 1.377l.455-.116l-.044-.434h-.49l.079.556zm.122.278l.333.472l.367-.277l-.289-.39zm.539.628l.533.317l.244-.278l-.45-.278l-.333.239zm1.439.239l-.5-.123l-.2.278l.533.117l.167-.278zm.244.033l-.122.278h.7v-.278zm6.544-9.744l.205.34l.556-.262l-.228-.372zm.744-.41l.25.405l.456-.34l-.333-.316zm1.156-.684l-.433-.167l-.212.434l.384.238zm.044-.25l.017-.6L20 8.744l-.023.511zM19.85 8.1l.139.466l.35.034l-.156-.5zm-.372-.706l.283.478l.311-.033l-.344-.578l-.25.139zM5.59 13.244l-.2-.339l-.556.261l.222.372zm-.745.411l-.244-.405l-.461.338l.333.317zm-1.155.683l.433.167l.211-.433l-.383-.24zm-.04.25l-.021.6l.372.067l.028-.511zm.5 1.311l-.138-.466l-.35-.034l.156.5zm.373.7l-.283-.477l-.311.038l.344.578z"/><path fill="currentColor" d="M21.655 13.011s.056-.472.128-1.211a.755.755 0 0 0-.567-.867l-.222.2c.05-.033.128-.066.156.106c.039.25-.29.933-.29.933l-.1-.927l-.2.255c.045 1.167-.777 1.661-.971 1.961c-.19.306-.195.711-.195.711s-.083 1.144-.416 1.689c-.334.539-.595.578-1.156.717c-.555.133-1.483-.556-1.505-.578c.016.022.544.76 1.294.916c.76.156 1.472-.45 1.778-.96c.316-.506.333-.912.333-.912s-.106-.927.111-1.355c.217-.422.556-.511.556-.511c-1.078 1.588.038 2.722.038 2.722l-.583.95c-.522.85-1.644 1.127-1.644 1.127c-2.056.39-3.111-2.077-3.111-2.077l.867.994l.277-.3c-.316-.178-.722-1.777-.722-1.777s-.305-1.59-1.15-2.161c-.478-.323-1.222-.278-1.772-.167l.033-.122c.917-.823 3.7-.54 4.3-.39c.611.168 1.572-.133 1.572-.133l-.139.39c.89-.167 2.022-1.2 2.022-1.2s1.006-1.328.873-2.661c-.14-1.334-1.311-2.184-1.311-2.184l.46-.25c-.944-.072-1.8-1.305-1.8-1.305c-.277-.389-.91-.178-.91-.178l-1.04-.7c-.632-.428-1.06.04-1.06.04l.066.288c-.005-.061.006-.144.173-.083c.273.193.512.432.705.705l-.889-.378l.128.295c1.083.539 1.122 1.472 1.311 1.777c.184.306.545.517.545.517s.994.633 1.322 1.178c.328.55.233.783.078 1.322c-.15.533-1.267.966-1.267.966s.95-.066 1.472-.627c.517-.556.317-1.445.011-1.956a2.1 2.1 0 0 0-.666-.722s-.89-.372-1.173-.76c-.277-.39-.189-.717-.189-.717c.912 1.677 2.49 1.31 2.49 1.31l.571.956c.511.856.211 1.928.211 1.928c-.66 1.905-3.421 1.566-3.421 1.566l1.333-.233l-.14-.378c-.321.172-1.966-.278-1.966-.278s-1.6-.533-2.527-.11c-.534.244-.856.888-1.034 1.4l-.088-.09c-.295-1.166 1.35-3.344 1.794-3.766c.45-.433.656-1.378.656-1.378l.288.317c.29-.833-.083-2.283-.083-2.283s-.7-1.5-1.972-2.05c-1.278-.556-2.628 0-2.628 0V2c-.538.75-2.077.844-2.077.844c-.495.039-.611.667-.611.667l-1.156.516c-.7.317-.494.906-.494.906l.294.083c-.055-.022-.122-.078.017-.183c.205-.156.983-.233.983-.233l-.778.55l.328.038c1.028-.627 1.889-.194 2.261-.194c.367 0 .739-.2.739-.2s1.067-.511 1.722-.511c.661 0 .822.194 1.233.589s.25 1.539.25 1.539s.411-.834.167-1.54c-.25-.705-1.156-.982-1.772-.982c-.611 0-.983.2-.983.2s-.778.55-1.278.588c-.489.04-.739-.2-.739-.2c1.972.084 2.428-1.416 2.428-1.416h1.15c1.027 0 1.85.789 1.85.789c1.377 1.477-.25 3.577-.29 3.622l.45-1.223l-.41-.077c0 .355-1.234 1.5-1.234 1.5s-1.272 1.055-1.355 2.044c-.045.566.389 1.166.76 1.56l-.11.034c-1.2-.333-2.334-2.822-2.49-3.4c-.16-.594-.905-1.244-.905-1.244l.434-.078c-.6-.655-2.1-1.089-2.1-1.089s-1.7-.183-2.839.59c-1.144.772-1.333 2.166-1.333 2.166L2.345 8c.4.822-.289 2.145-.289 2.145c-.222.427.284.844.284.844s-.056.472-.122 1.211a.756.756 0 0 0 .566.867l.222-.2c-.05.033-.127.066-.155-.106c-.04-.25.289-.933.289-.933l.1.928l.2-.256c-.045-1.167.777-1.661.972-1.96c.189-.306.194-.712.194-.712s.084-1.144.417-1.683c.333-.545.594-.578 1.16-.722c.556-.134 1.479.555 1.5.577a2.46 2.46 0 0 0-1.294-.91c-.76-.162-1.466.444-1.777.955c-.317.51-.328.916-.328.916s.1.923-.111 1.345c-.222.428-.556.51-.556.51c1.073-1.582-.044-2.721-.044-2.721l.583-.945c.522-.85 1.65-1.127 1.65-1.127C7.862 5.628 8.917 8.1 8.917 8.1l-.872-1l-.278.306c.317.178.722 1.778.722 1.778s.306 1.588 1.15 2.155c.49.333 1.245.278 1.795.167l-.028.1c-.883.855-3.722.566-4.328.41c-.61-.155-1.572.14-1.572.14l.14-.395c-.89.172-2.023 1.206-2.023 1.206s-1.005 1.327-.867 2.66c.134 1.334 1.306 2.184 1.306 2.184l-.461.255c.944.073 1.8 1.3 1.8 1.3c.277.39.91.178.91.178l1.04.7c.633.428 1.06-.039 1.06-.039l-.066-.289c.005.061-.006.145-.172.084a3 3 0 0 1-.706-.706l.889.378l-.128-.295c-1.083-.539-1.122-1.472-1.305-1.777c-.184-.311-.545-.517-.545-.517s-1-.633-1.327-1.178c-.328-.55-.228-.783-.078-1.322c.15-.533 1.266-.966 1.266-.966s-.95.066-1.472.627c-.516.556-.316 1.445-.01 1.956c.31.516.666.722.666.722s.889.378 1.172.767c.278.388.189.71.189.71c-.911-1.677-2.489-1.305-2.489-1.305s-.055-.105-.572-.955c-.511-.856-.211-1.933-.211-1.933c.661-1.906 3.422-1.561 3.422-1.561l-1.328.227l.134.383c.322-.177 1.966.278 1.966.278s1.6.528 2.528.111c.544-.25.866-.905 1.039-1.416l.077.072c.334 1.167-1.339 3.366-1.783 3.794c-.455.434-.661 1.378-.661 1.378l-.283-.317c-.29.833.077 2.284.077 2.284s.7 1.5 1.973 2.05c1.277.555 2.633 0 2.633 0v.51c.533-.75 2.072-.844 2.072-.844c.5-.039.616-.667.616-.667l1.15-.516c.7-.317.5-.906.5-.906l-.3-.083c.056.022.122.078-.01.183c-.206.156-.99.234-.99.234l.778-.55l-.322-.04c-1.028.629-1.889.195-2.261.195s-.739.2-.739.2s-1.072.511-1.728.511s-.822-.194-1.233-.589c-.41-.394-.244-1.538-.244-1.538s-.411.833-.167 1.538s1.15.984 1.767.984c.616 0 .989-.2.989-.2s.777-.55 1.272-.59c.494-.038.738.2.738.2c-1.972-.082-2.422 1.417-2.422 1.417h-1.15a3.03 3.03 0 0 1-1.85-.788c-1.383-1.478.25-3.578.29-3.622l-.456 1.222l.411.077c0-.355 1.233-1.5 1.233-1.5s1.278-1.055 1.356-2.044c.05-.566-.383-1.155-.756-1.555l.111-.034c1.206.345 2.333 2.817 2.483 3.395c.167.594.906 1.244.906 1.244l-.428.078c.595.655 2.095 1.089 2.095 1.089s1.7.183 2.844-.59c1.139-.777 1.333-2.166 1.333-2.166l.461.256c-.405-.822.289-2.144.289-2.144c.222-.423-.289-.845-.289-.845m-3.583-8.11s.217-.117.256-.056l.222.378s-.24 0-.478-.322M8.6 3.417s0-.233.084-.233h.45s-.122.194-.534.233M2.556 10.45s-.21-.116-.166-.189l.228-.372s.11.2-.056.556zm3.372 8.65s-.216.116-.255.05l-.222-.378s.233.005.477.328m9.472 1.483s0 .233-.083.233h-.45s.122-.194.533-.233m6.216-6.844l-.233.372s-.111-.2.056-.556c0 0 .222.112.177.184"/><path fill="currentColor" d="m16.09 17.06l.51.334l.228-.372l-.528-.3zm1.36.273l-.41-.19l-.25.406l.538.212l.122-.434zm.717-.011l-.5.038l-.028.44l.589-.034l-.056-.444zm.739-.267l-.478.233l.05.39l.555-.279zm.155-.094l.145.305l.377-.378l-.166-.277zm1.056-.867l-.245-.139l-.294.472l.189.245zM7.912 6.939l-.511-.333l-.228.372l.533.3zm-1.361-.272l.411.189l.25-.406l-.539-.21l-.122.432zm-.717.011l.5-.039l.028-.439l-.589.034l.056.444zm-.738.267l.477-.234l-.05-.389l-.555.278zm-.156.094l-.144-.306l-.378.378l.166.278zm-1.055.867l.244.139l.294-.473l-.183-.244zm9.087-2.461a7.23 7.23 0 0 0-4.1.666l.29.212a6.83 6.83 0 0 1 3.832-.55l-.022-.323zm1.89 12.232a6.9 6.9 0 0 1-3.923.54v.316c1.397.206 2.824 0 4.105-.594l-.189-.262zm-8.978-3.394l-.306.122a6.7 6.7 0 0 0 2.611 3.1v-.383a6.4 6.4 0 0 1-2.3-2.839zm12.677-1.772a6.13 6.13 0 0 1-1.489 3.5l.317.128a6.43 6.43 0 0 0 1.505-3.65zm-2.728-6.01v.383a6.37 6.37 0 0 1 2.306 2.838l.294-.144a6.7 6.7 0 0 0-2.6-3.078M6.606 7.888a6.42 6.42 0 0 0-1.483 3.706l.333-.084a6.1 6.1 0 0 1 1.417-3.433z"/></svg>