<svg xmlns="http://www.w3.org/2000/svg" xmlns:xlink="http://www.w3.org/1999/xlink" width="24" height="24" viewBox="0 0 24 24"><path fill="currentColor" d="M9.595 21.95a4.7 4.7 0 0 0 2.564-1.267a5.1 5.1 0 0 0 1.442-2.206c.327-.964.412-1.612.412-3.345v-1.334h.418c.994 0 2.606-.181 3.443-.387a5 5 0 0 0 1.72-.655c2.085-1.351 2.843-3.333 2.164-5.654c-.097-.34-.133-.364-.2-.146a9.7 9.7 0 0 1-.654 1.649a5.5 5.5 0 0 1-3.249 2.848c-.872.29-1.497.382-3.012.436l-.715.03l-.03-.242a18 18 0 0 1-.006-1.418c.018-1 .036-1.254.115-1.594c.327-1.43 1.018-2.315 2.109-2.69c.255-.085.424-.11.86-.122c.304-.012.534-.042.51-.06c-.085-.085-.71-.17-1.412-.2a5.35 5.35 0 0 0-2.419.363c-.557.206-.878.412-1.018.655a5.7 5.7 0 0 0-.563 1.776c-.091.4-.158 1.702-.121 2.672l.03.885l-.776.024c-3.612.14-5.909 1.127-6.77 2.909a4 4 0 0 0-.423 2.145c0 .582.012.922.066 1.188c.11.57.346 1.091.715 1.636c.225.322.625.746.667.703a9.2 9.2 0 0 1-.157-2.648c.06-.388.2-.836.339-1.151c.06-.122.109-.243.109-.261c0-.109.57-.836.885-1.127a5.6 5.6 0 0 1 2.957-1.352c.43-.072 2.4-.206 2.442-.157c.061.048.122 1.29.097 1.842c-.03.727-.2 1.758-.345 2.121c-.23.564-.454.91-.842 1.285a2.63 2.63 0 0 1-1.934.824c-.503 0-.787-.06-1.284-.29a3.2 3.2 0 0 1-1.152-.928l-.206-.303c-.133-.182-.309-.727-.345-1.067l-.037-.315l-.09.176a5 5 0 0 0-.243.576c-.145.394-.151.418-.145 1.09c0 .68 0 .685.163 1.104a2.85 2.85 0 0 0 1.624 1.739a4.65 4.65 0 0 0 2.297.242m-6.2-3.982c-.181-1.473.182-2.897 1.08-4.206c.605-.885 1.957-1.806 3.32-2.254c.467-.158 1.618-.48 2.54-.71l.563-.139l.049-.218c.375-1.733.672-2.848.89-3.297l.122-.303c.303-.745 1.018-1.685 1.678-2.206a6.9 6.9 0 0 1 2.91-1.303a7.6 7.6 0 0 1 1.836-.066c.218.024.406.036.418.024a3 3 0 0 0-.606-.533a4.8 4.8 0 0 0-1.915-.734a5.4 5.4 0 0 0-2.606.406c-.764.34-1.66 1.03-2.218 1.697a7.8 7.8 0 0 0-1.449 2.885c-.078.29-.527 2.2-.527 2.23c0 .055-.503.23-1.273.442a13.2 13.2 0 0 0-3.381 1.358c-.473.26-.905.586-1.285.97a5.2 5.2 0 0 0-1.364 2.06l-.12.424a5.6 5.6 0 0 0 0 1.497l.12.448c.085.34.437 1.049.667 1.37c.182.255.558.649.588.618c.012-.006 0-.218-.036-.466zM21.414 6.41c-.06-.352-.71-1.11-1.382-1.606a4.76 4.76 0 0 0-2.976-1.024a4.24 4.24 0 0 0-2.03.46c-.382.182-.982.588-1.188.8c-.12.121-.109.134.225.067a10.6 10.6 0 0 1 1.818-.194c1.654-.06 2.745.152 4.042.776c.448.218 1.37.788 1.37.842c0 .018.036.036.072.036c.06 0 .067-.03.049-.157"/><path fill="currentColor" d="M3.468 16.07a5.8 5.8 0 0 0-.072 1.898c.03.248.048.46.036.466c-.03.03-.406-.363-.588-.618a5.7 5.7 0 0 1-.666-1.37l-.116-.405l-.012-.043a3.7 3.7 0 0 1-.048-.727a2.87 2.87 0 0 1 1.466.8m5.163-2.461c3.322-.46 4.23-.248 3.485.97a3.6 3.6 0 0 0-.079-.727c-.042-.049-2.012.085-2.442.157a5.6 5.6 0 0 0-2.957 1.352a4.9 4.9 0 0 0-.885 1.127c0 .024-.049.14-.11.26c-.072-1.108.437-2.787 2.988-3.139m5.382.994v-.812h.418c.994 0 2.606-.182 3.442-.382a5 5 0 0 0 1.721-.654a5.35 5.35 0 0 0 1.97-2.121c-.273-.121-.909.351-1.606.878c-.515.388-1.066.806-1.527 1.018c-.66.304-1.812.503-2.818.68c-.976.169-1.818.314-1.97.508c-.176.243.091.606.364.885zM13.595 4.06a5.3 5.3 0 0 1 1.672-.351a6.8 6.8 0 0 0-1.63.927a6 6 0 0 0-1.072 1.158c-.049-.522.103-1.406 1.03-1.734m-3.552 5.952c.443-.23.776-.182 1.006-.037l-.102.467l-.049.218l-.564.14c-.92.236-2.072.545-2.545.708c-1.357.449-2.715 1.37-3.315 2.255q-.273.39-.473.8c.437-1.133 1.425-2.442 2.243-2.83c.351-.17.848-.382 1.375-.606c.855-.376 1.806-.788 2.425-1.115m6.97-5.515c.69.036 1.351.406 1.806.751a8.4 8.4 0 0 0-3.303-.321a2.45 2.45 0 0 1 1.49-.424zM9.595 21.949a4.7 4.7 0 0 0 2.563-1.267a5.1 5.1 0 0 0 1.437-2.181c-.521.133-.824.527-1.17.976c-.57.739-1.248 1.618-3.157 1.727c-1.485.085-2.752-.643-3.697-1.515l.103.279a2.85 2.85 0 0 0 1.624 1.739a4.65 4.65 0 0 0 2.297.242M4.08 18.21a3.5 3.5 0 0 1-.054-.478c.26.473.69 1.091 1.26 1.679c.011.385.068.768.17 1.14c-.036.042-.436-.383-.66-.704a4.3 4.3 0 0 1-.716-1.636"/></svg>