<svg xmlns="http://www.w3.org/2000/svg" xmlns:xlink="http://www.w3.org/1999/xlink" width="24" height="24" viewBox="0 0 24 24"><path fill="currentColor" d="M6 7.428A1.714 1.714 0 1 0 6 4a1.714 1.714 0 0 0 0 3.428"/><path fill="currentColor" d="M6 6.588A.874.874 0 1 0 6 4.84a.874.874 0 0 0 0 1.748m14.284 7.697a1.143 1.143 0 1 0 0-2.286a1.143 1.143 0 0 0 0 2.286"/><path fill="currentColor" d="M20.285 13.724a.583.583 0 1 0 0-1.165a.583.583 0 0 0 0 1.165M5.315 7.897c-4.777.965-3.36 6.04-2.057 8.456c-.412-3.217.828-5.525 2.61-5.69c1.79-.16 3.058.913 6.389 4.227c3.33 3.314 5.222 3.965 7.005 3.903c1.788-.063 2.474-.743 2.342-1.92c-.114-.937-1.817-.737-2.651-.514c.389 0 1.211.165 1.371.84c.172.68-.64.845-1.062.845c-2.503-.388-4.668-3.12-8.137-6.925C8.35 8.074 6.417 7.68 5.32 7.897z"/><path fill="currentColor" d="M20.376 18.639c-2.571-.172-3.948-1.2-5.223-2.154c-.222-.172-.44-.332-.662-.486c-.434-.309-1.034-.966-1.754-1.754c-1.977-2.16-4.845-5.291-7.485-4.72c-2.663.572-2.743 3.983-2.4 6l.16.342l.012-.023l.165-.325c-.114-2.777 1.052-4.708 2.686-4.857c1.782-.16 3.05.914 6.382 4.228c3.33 3.314 5.222 3.965 7.005 3.903a5 5 0 0 0 1.114-.154"/><path fill="currentColor" d="M7.76 19.998c-3.52-.057-3.571-3.102-3.16-4.622c.446 2.245.994 3.222 3.16 3.382c1.731.132 4.862-1.177 6.216-1.851l1.474 1.143c-1.44.485-3.296 2.01-7.69 1.942z"/><path fill="currentColor" d="M4.423 16.747c.012 1.497.709 3.211 3.337 3.251c3.371.046 5.257-.84 6.594-1.48c.405-.188.765-.36 1.097-.474l-.875-.669c-1.577.783-4.553 2-6.782 2c-2.01 0-2.994-1.474-3.37-2.628m15.454-1.863c-1.314-.114-3.028.686-3.713 1.091l1.342 1.189c.252-.189 1.029-.572 2.114-.583c1.097-.017 1.577.971 1.68 1.474c1.577-1.44.212-3.028-1.428-3.17z"/><path fill="currentColor" d="M16.742 16.484c.81-.303 2.28-.754 3.194-.686c1.12.08 1.542.989 1.474 2.154c1.405-1.411.063-2.925-1.532-3.068c-1.314-.114-3.028.686-3.713 1.091l.571.509z"/></svg>