<svg xmlns="http://www.w3.org/2000/svg" xmlns:xlink="http://www.w3.org/1999/xlink" width="24" height="24" viewBox="0 0 24 24"><path fill="currentColor" fill-rule="evenodd" d="M4.171 2h15.572L22 4.879l-5.529 7.178L22 19.186L19.771 22h-15.6L2 19.186l5.493-7.129L2 4.88zm.058.993l14.285 18.286H4.343l-1.086-1.415h10.65a.181.181 0 0 0 .143-.286L2.693 4.914l1.543-1.928zm5.514 11.943l2.207 2.778H8.579a.515.515 0 0 1-.408-.835zm6.321-3.422l-1.871-2.35l1.6-2c.279-.335.036-.878-.407-.878h-3.407l-.293-.429c-.143-.228.014-.286.286-.286h8.942l-4.857 5.943z" clip-rule="evenodd"/></svg>