<svg xmlns="http://www.w3.org/2000/svg" xmlns:xlink="http://www.w3.org/1999/xlink" width="24" height="24" viewBox="0 0 24 24"><path fill="currentColor" d="M12 21.998a9.997 9.997 0 0 0 9.897-11.428l-2.264 1.835a7.646 7.646 0 0 1-15.274-.117l-.182-.006l-2.076-1.7a10 10 0 0 0 9.898 11.416m5.457-15.88l3.488 1.412A10 10 0 0 0 5.889 4.09l3.975.452l.236.053a7.66 7.66 0 0 1 6.586 1.364l.771.165zm-8.54 8.587C7.06 12.01 3.971 9.518 2.654 8.6c-.088-.076-.265-.294-.247-.535c0-1.794 2.564-2.558 4.205-2.558c.94 0 1.588.1 2.147.182c.411.059.77.117 1.164.117c.453 0 1.07-.1 1.694-.194c.647-.1 1.3-.2 1.794-.2c.776 0 1.364.347 1.558.518c-1.117.118-2.352.494-2.835.67c.453.153.841.536.983.706c2.858-.994 4.94-.182 5.616.347c-1.54.011-3.062.34-4.47.965l.706.647c1.97-.565 3.158-.065 3.505.258c-.794.06-1.881.324-2.329.453c.812.424 2.447 1.27 2.494 1.27c.3 3.159-1.5 3.776-3.534 3.794c-1.918.018-2.23.888-2.506 1.665l-.047.147c-.235.646-.294 2.017-.294 2.622c-.33-1.429-1.03-4.593-1.153-5.763c-.135-1.294.388-1.406.853-1.506l.176-.04c.495-.136 1.041-.66.824-1.354a2.8 2.8 0 0 0-.741-1.152c.852 1.664.388 1.823-.47 2.111c-.148.053-.312.106-.477.177c-1.135.458-.847 2.393-.776 2.87c.058.376.529 2.323.764 3.246c-1.729.335-2.264-.923-2.511-1.488c-.194-.453-.718-1.764-.953-2.358c.376.1.906.364 1.117.482zM6.97 6.235a4 4 0 0 0-1.37.136a1.176 1.176 0 0 0 1.187.912c.46 0 .835-.389.965-.588L6.97 6.23z"/></svg>