<svg xmlns="http://www.w3.org/2000/svg" xmlns:xlink="http://www.w3.org/1999/xlink" width="24" height="24" viewBox="0 0 24 24"><path fill="currentColor" d="M12 2C6.473 2 2 6.473 2 12c0 5.526 4.473 10 10 10c5.526 0 10-4.474 10-10c0-5.527-4.474-10-10-10m-.429 4.045c.28-.14.569-.13.84.028c.931.53 1.863 1.071 2.795 1.612a.89.89 0 0 1 .447.801c.01 1.212 0 2.414 0 3.626c0 .046-.028.112-.065.13c-.354.215-.727.42-1.118.653V8.98c0-.242-.084-.391-.29-.512a580 580 0 0 1-3.242-1.864c-.047-.028-.094-.056-.168-.103c.289-.177.531-.326.801-.456m-.205 12.358c-.065-.028-.102-.056-.149-.075c-1.426-.82-2.861-1.659-4.296-2.47c-.401-.233-.587-.559-.578-1.016q.015-1.468 0-2.935c0-.438.177-.764.568-.979c1.007-.578 2.014-1.155 3.01-1.733c.085-.047.15-.056.243 0q.517.307 1.063.615a2 2 0 0 1-.178.102c-1.08.625-2.171 1.258-3.252 1.874c-.177.102-.261.233-.261.438c.01.773.01 1.537 0 2.311c0 .214.084.345.26.447c1.147.653 2.293 1.324 3.44 1.976c.093.056.14.112.14.233c-.01.4-.01.792-.01 1.212m0-2.2a4 4 0 0 1-.242-.14c-.913-.521-1.817-1.053-2.73-1.575c-.103-.056-.14-.111-.131-.233c.01-.587 0-1.183 0-1.77c0-.084.01-.14.093-.178c.336-.186.671-.382.997-.577a.4.4 0 0 1 .093-.047v.662c0 .363.01.717 0 1.08c0 .206.075.346.252.448c.513.29 1.025.597 1.538.886c.102.056.13.12.13.233zm-1.043-7.772a.49.49 0 0 0-.55 0a368 368 0 0 1-3.253 1.882c-.047.028-.093.047-.177.093c.028-.41-.056-.801.084-1.174a.88.88 0 0 1 .41-.466L9.549 7.2a.94.94 0 0 1 .997.01c1.025.596 2.06 1.183 3.085 1.78c.046.028.102.084.102.12c.01.42 0 .849 0 1.306c-.372-.215-.717-.42-1.062-.616c-.783-.456-1.566-.903-2.348-1.37m7.232 6.654c-.029.335-.224.568-.513.736c-1.1.634-2.209 1.268-3.309 1.91c-.344.196-.69.401-1.034.597a2 2 0 0 1-.14.075c0-.056-.01-.103-.01-.14v-1.1c0-.084.02-.13.094-.177c1.603-.923 3.215-1.855 4.818-2.777a.4.4 0 0 1 .094-.047c.009.326.027.625 0 .923m.009-2.293c0 .382-.205.643-.531.83c-1.259.726-2.517 1.444-3.766 2.171c-.232.13-.456.261-.708.4c0-.064-.01-.102-.01-.148v-1.081c0-.103.029-.159.122-.205c1.137-.653 2.283-1.315 3.42-1.967c.205-.112.29-.26.29-.494c-.01-1.24 0-2.488 0-3.728v-.214c.297.177.577.326.829.513a.84.84 0 0 1 .354.699q.015 1.604 0 3.224"/></svg>