<svg xmlns="http://www.w3.org/2000/svg" xmlns:xlink="http://www.w3.org/1999/xlink" width="24" height="24" viewBox="0 0 24 24"><path fill="currentColor" d="M21.948 5.48c.66 8.851-5.083 13.035-10.23 13.48c-4.787.415-9.292-2.498-9.687-6.975c-.326-3.699 1.981-5.274 3.794-5.43c1.864-.162 3.431 1.111 3.567 2.654c.13 1.483-.803 2.158-1.453 2.214c-.513.045-1.16-.264-1.218-.928c-.05-.57.169-.647.115-1.253c-.095-1.078-1.044-1.204-1.563-1.16c-.629.055-1.77.782-1.61 2.593c.162 1.827 1.93 3.27 4.246 3.07c2.5-.217 4.242-2.146 4.373-4.852a1 1 0 0 1 .089-.415v-.004q.042-.084.095-.162q.079-.12.21-.263q0-.002.003-.002a4 4 0 0 1 .229-.233c1.092-1.022 5.026-3.43 8.747-2.667a.37.37 0 0 1 .293.333"/></svg>