<svg xmlns="http://www.w3.org/2000/svg" xmlns:xlink="http://www.w3.org/1999/xlink" width="24" height="24" viewBox="0 0 24 24"><path fill="currentColor" d="M4.425 5.456A8 8 0 0 1 4.813 5l.025-.02l.043-.037l.012-.012a4.5 4.5 0 0 1 1.55-.938a4.03 4.03 0 0 1 4.17.963c1.706 1.594 1.556 4.168.186 5.874c-1.712 2.55-4.668 6.108-.574 9.294c.73.569 1.282 1.044 3.593 1.712c-1.512.282-2.918.189-4.481-.205c-1.106-.625-2.844-1.963-3.438-3.769c-.894-2.737 1.575-6.825 2.77-8.4c1.637-2.187-1.012-4.544-2.964-1.906C4.687 8.93 2.9 12.812 3.518 15.7c.369 1.63.85 2.824 2.763 4.462a9.5 9.5 0 0 1-1.03-.713a10.106 10.106 0 0 1-.826-13.993"/><path fill="currentColor" d="M19.574 18.543a9 9 0 0 1-.387.457l-.024.019l-.044.036l-.013.013a4.5 4.5 0 0 1-1.55.938c-1.395.5-2.95.187-4.168-.962c-1.707-1.594-1.55-4.17-.188-5.876c1.712-2.55 4.668-6.106.574-9.294c-.73-.569-1.28-1.043-3.593-1.712c1.49-.27 3.022-.2 4.481.205c1.106.627 2.844 1.963 3.437 3.77c.895 2.737-1.575 6.825-2.769 8.4c-1.636 2.188 1.014 4.543 2.964 1.906c1.017-1.375 2.805-5.256 2.187-8.143c-.369-1.632-.85-2.826-2.762-4.463q.534.319 1.031.712a10.107 10.107 0 0 1 .824 13.994"/></svg>