<svg xmlns="http://www.w3.org/2000/svg" xmlns:xlink="http://www.w3.org/1999/xlink" width="24" height="24" viewBox="0 0 24 24"><path fill="currentColor" d="m7.58 7.002l12.932-.025l-4.092-2.474H3.45zm14.05.625H7.48a.4.4 0 0 1-.194-.05l-5.11-3.05a.344.344 0 0 1-.163-.393a.36.36 0 0 1 .35-.256h14.15c.07 0 .138.019.194.05l5.11 3.049a.34.34 0 0 1 .163.394a.36.36 0 0 1-.35.256M7.81 19.497h12.708l-4.11-2.5H3.5zm-.324.625a.4.4 0 0 1-.194-.05l-5.11-3.05a.344.344 0 0 1-.163-.393a.36.36 0 0 1 .35-.256h14.15c.07 0 .138.019.194.05l5.11 3.049a.34.34 0 0 1 .163.393a.36.36 0 0 1-.35.257zm4.51-5.623a2.496 2.496 0 0 1-2.51-2.487a2.5 2.5 0 0 1 2.486-2.511h.024a2.48 2.48 0 0 1 2.5 2.474a2.496 2.496 0 0 1-2.474 2.524z"/></svg>