<svg xmlns="http://www.w3.org/2000/svg" xmlns:xlink="http://www.w3.org/1999/xlink" width="24" height="24" viewBox="0 0 24 24"><path fill="currentColor" d="M12 2L3.11 6.998v10.004L12 22l8.889-4.998V6.998zm.185 16.206L5.357 14.41l.033-1.845l6.788 3.786l3.272-1.845l-2.19-1.228l-.824.458l-1.535-.859l.816-.465l-1.075-.61l-.646.37l-1.552-.867l.655-.369L5.624 8.98l6.554-3.69l6.19 3.442l-1.665.939l-4.525-2.528L8.905 8.98l1.834 1.035l.93-.537l1.55.866l-.945.53l1.075.61l.768-.434l1.543.859l-.775.44l3.846 2.168z"/></svg>