<svg xmlns="http://www.w3.org/2000/svg" xmlns:xlink="http://www.w3.org/1999/xlink" width="24" height="24" viewBox="0 0 24 24"><path fill="currentColor" d="M17.69 3.489c0 .645-.52 1.17-1.165 1.17c-.306 0-.6-.122-.816-.342a1.186 1.186 0 0 1 .002-1.66a1.15 1.15 0 0 1 1.639 0c.217.22.34.52.34.832m-.838 4.076a.98.98 0 0 1-.98-.987a1 1 0 0 1 .16-.556a.985.985 0 0 1 1.008-.431a.97.97 0 0 1 .504.27a1.01 1.01 0 0 1-.145 1.536a.97.97 0 0 1-.547.168m-.308 2.454a.82.82 0 0 1-.58-.25a.847.847 0 0 1 0-1.18a.822.822 0 0 1 1.35.26a.85.85 0 0 1-.176.924a.83.83 0 0 1-.594.246m-.046 1.263a.73.73 0 0 1-.437.665a.705.705 0 0 1-.774-.156a.725.725 0 0 1 .23-1.173a.7.7 0 0 1 .774.156a.73.73 0 0 1 .207.508M15.38 12.87a.616.616 0 0 1-.61.618a.6.6 0 0 1-.52-.302a.626.626 0 0 1 .09-.753a.606.606 0 0 1 1.04.437m-1.228 1.135a.54.54 0 0 1-.322.49a.52.52 0 0 1-.57-.115a.534.534 0 0 1 .17-.865a.52.52 0 0 1 .723.49M20.4 7.169a1 1 0 0 1-.802.756a.97.97 0 0 1-.996-.462a1 1 0 0 1-.121-.756a1 1 0 0 1 .802-.756a.97.97 0 0 1 .996.462c.138.226.181.497.12.756m-.473 2.583a.84.84 0 0 1-.388.46a.83.83 0 0 1-1.086-.26a.86.86 0 0 1-.145-.588a.85.85 0 0 1 .388-.461a.826.826 0 0 1 1.086.26c.119.172.17.381.145.589m-.873 2.066a.72.72 0 0 1-.33.395a.7.7 0 0 1-.925-.224a.73.73 0 0 1-.118-.504a.72.72 0 0 1 .333-.369a.7.7 0 0 1 .9.219c.099.14.146.311.131.483zm-1.128 1.568a.62.62 0 0 1-.49.469a.6.6 0 0 1-.614-.281a.624.624 0 0 1 .19-.851a.6.6 0 0 1 .46-.075a.6.6 0 0 1 .464.497a.6.6 0 0 1-.01.24m-1.236 1.098a.524.524 0 0 1-.605.325a.53.53 0 0 1-.396-.565a.52.52 0 0 1 .243-.278a.51.51 0 0 1 .665.16a.53.53 0 0 1 .093.358m-1.237.691a.45.45 0 0 1-.523.296a.456.456 0 0 1-.34-.499a.45.45 0 0 1 .205-.25a.44.44 0 0 1 .583.138c.062.092.09.204.075.316m6.455-4.483a.84.84 0 0 1-.797.477a.82.82 0 0 1-.739-.565a.842.842 0 0 1 .84-1.122q.166.011.315.085c.418.203.59.71.39 1.125zm-.863 2.048a.71.71 0 0 1-1.286-.098a.74.74 0 0 1-.005-.529a.73.73 0 0 1 .408-.37a.7.7 0 0 1 .546.029a.7.7 0 0 1 .37.412a.73.73 0 0 1-.033.556m-1.1 1.55a.62.62 0 0 1-.588.346a.6.6 0 0 1-.23-.06a.6.6 0 0 1-.317-.354a.63.63 0 0 1 .026-.476a.61.61 0 0 1 .8-.245c.14.068.25.187.307.333a.64.64 0 0 1 .002.456m-1.227 1.097a.53.53 0 0 1-.71.249a.53.53 0 0 1-.305-.307a.55.55 0 0 1 .15-.613a.535.535 0 0 1 .62-.057a.54.54 0 0 1 .27.312a.55.55 0 0 1-.025.416m-1.228.674a.46.46 0 0 1-.437.258a.46.46 0 0 1-.402-.311a.47.47 0 0 1 .129-.496a.45.45 0 0 1 .5-.069a.46.46 0 0 1 .21.618m-1.155.34a.386.386 0 0 1-.737-.192a.4.4 0 0 1 .26-.35a.38.38 0 0 1 .295.017a.385.385 0 0 1 .182.526m.937 4.475a1.17 1.17 0 0 1-.539-.709a1.166 1.166 0 0 1 .815-1.434a1.15 1.15 0 0 1 1.42.828c.08.3.04.62-.114.89c-.156.268-.41.463-.705.542c-.296.08-.611.038-.877-.117m-2.719-1.412a.98.98 0 0 1-.46-.6a1 1 0 0 1 1.078-1.25q.195.026.364.126a1.014 1.014 0 0 1 .112 1.659a.97.97 0 0 1-1.094.075zm-2-1.697a.82.82 0 0 1-.39-.506a.84.84 0 0 1 .587-1.03a.8.8 0 0 1 .63.088a.82.82 0 0 1 .392.506a.843.843 0 0 1-.587 1.03a.8.8 0 0 1-.632-.088M11.19 15.95a.71.71 0 0 1-.338-.862a.707.707 0 0 1 1.047-.383a.72.72 0 0 1-.448 1.333a.7.7 0 0 1-.261-.088m-.8-1.78a.626.626 0 0 1-.228-.83a.61.61 0 0 1 .603-.306a.6.6 0 0 1 .468.332a.611.611 0 0 1-.619.88a.6.6 0 0 1-.224-.076m-.364-1.642a.53.53 0 0 1-.181-.72a.52.52 0 0 1 .709-.184a.52.52 0 0 1 .28.319a.53.53 0 0 1-.19.588a.51.51 0 0 1-.609-.003zm3.419 9.16a.97.97 0 0 1-.7-.29a1 1 0 0 1-.292-.707c0-.197.058-.389.165-.552a.98.98 0 0 1 1.007-.426a.97.97 0 0 1 .502.27a1.01 1.01 0 0 1 .218 1.083a1 1 0 0 1-.358.449a.97.97 0 0 1-.542.172m-2.655-1.974a.84.84 0 0 1-.263-.588a.85.85 0 0 1 .491-.794a.83.83 0 0 1 .917.155a.86.86 0 0 1 .027 1.199a.83.83 0 0 1-1.182.027zm-1.337-1.79a.7.7 0 0 1-.224-.502a.72.72 0 0 1 .691-.735a.705.705 0 0 1 .725.692a.72.72 0 0 1-.192.508a.7.7 0 0 1-1 .028zm-.782-1.78a.612.612 0 0 1 .394-1.053a.6.6 0 0 1 .433.167a.612.612 0 0 1-.394 1.053a.6.6 0 0 1-.433-.167M8.36 14.52a.53.53 0 0 1-.027-.739a.515.515 0 0 1 .727-.027a.51.51 0 0 1 .028.737a.516.516 0 0 1-.728.029m.018-1.43a.443.443 0 0 1-.018-.637a.45.45 0 0 1 .48-.11q.083.03.148.091a.456.456 0 0 1-.01.611a.443.443 0 0 1-.6.045m.619 7.895a.854.854 0 0 1 .218-1.18a.83.83 0 0 1 1.203.3a.86.86 0 0 1-.258 1.102a.836.836 0 0 1-1.163-.222m-1.319-1.78a.725.725 0 0 1 .722-1.128a.7.7 0 0 1 .46.307a.725.725 0 0 1-.306 1.081a.72.72 0 0 1-.678-.067a.7.7 0 0 1-.198-.202zm-.782-1.744a.625.625 0 0 1 .385-.96a.61.61 0 0 1 .633.26a.623.623 0 0 1-.625.963a.6.6 0 0 1-.393-.263M6.57 15.85a.55.55 0 0 1 .339-.84a.53.53 0 0 1 .403.08a.54.54 0 0 1 .003.898a.53.53 0 0 1-.745-.138m.036-1.421a.465.465 0 0 1 .473-.716a.45.45 0 0 1 .29.2a.47.47 0 0 1-.292.715a.45.45 0 0 1-.47-.199m.291-1.18a.398.398 0 0 1 .218-.665a.39.39 0 0 1 .442.493a.387.387 0 0 1-.66.17m-4.318-1.43a1.15 1.15 0 0 1 1.285.085a1.17 1.17 0 0 1 .412 1.232c-.08.3-.275.556-.542.712a1.15 1.15 0 0 1-1.582-.433a1.2 1.2 0 0 1-.112-.888c.08-.3.274-.554.539-.708m2.573-1.66a.97.97 0 0 1 .74-.1a.983.983 0 0 1 .693 1.212a1 1 0 0 1-.46.603a.97.97 0 0 1-1.226-.211a1 1 0 0 1 .253-1.505m2.455-.904a.825.825 0 0 1 1.13.31a.845.845 0 0 1-.304 1.147a.826.826 0 0 1-1.136-.314a.84.84 0 0 1 .31-1.143m2.245-.277a.7.7 0 0 1 .964.258a.73.73 0 0 1-.261.976a.7.7 0 0 1-.966-.266a.73.73 0 0 1 .263-.978zm1.91.184a.603.603 0 0 1 .836.221a.627.627 0 0 1-.23.832a.6.6 0 0 1-.824-.214a.626.626 0 0 1 .226-.839zm1.59.508a.52.52 0 0 1 .71.193a.533.533 0 0 1-.182.72a.515.515 0 0 1-.714-.19a.535.535 0 0 1 .186-.723M4.36 7.612a.97.97 0 0 1 1.048.32a1.007 1.007 0 0 1-.136 1.404a.97.97 0 0 1-1.088.11a1 1 0 0 1-.478-.59a1 1 0 0 1 .654-1.244m2.455-.877a.83.83 0 0 1 .952.589c.06.2.045.415-.042.604a.84.84 0 0 1-.428.421a.82.82 0 0 1-.883-.272a.9.9 0 0 1-.153-.29q-.047-.162-.031-.328a.85.85 0 0 1 .3-.569a.8.8 0 0 1 .285-.155m2.2-.267a.7.7 0 0 1 .536.053a.72.72 0 0 1 .29.966a.705.705 0 0 1-.953.293a.72.72 0 0 1-.368-.699a.72.72 0 0 1 .254-.482a.7.7 0 0 1 .241-.131m1.91.202a.6.6 0 0 1 .46.045a.62.62 0 0 1 .005 1.08a.6.6 0 0 1-.572.004a.6.6 0 0 1-.293-.363a.616.616 0 0 1 .4-.766m1.555.535a.5.5 0 0 1 .382.052a.533.533 0 0 1 .002.914a.52.52 0 0 1-.491.013a.528.528 0 0 1 .107-.979m1.209.739a.44.44 0 0 1 .512.115a.454.454 0 0 1-.249.743a.44.44 0 0 1-.512-.116a.45.45 0 0 1-.048-.53a.46.46 0 0 1 .297-.212M6.634 4.522a.83.83 0 0 1 .616.198a.85.85 0 0 1 .293.585a.87.87 0 0 1-.464.825a.84.84 0 0 1-.645.047a.854.854 0 0 1 .21-1.656zm2.19-.26a.7.7 0 0 1 .517.176a.72.72 0 0 1 .243.494a.73.73 0 0 1-.391.695a.7.7 0 0 1-.783-.103a.73.73 0 0 1-.065-1.017a.7.7 0 0 1 .489-.244zm1.883.186a.6.6 0 0 1 .412.172a.635.635 0 0 1 .06.841a.62.62 0 0 1-.381.231a.6.6 0 0 1-.412-.172a.63.63 0 0 1 .32-1.072m1.545.525a.54.54 0 0 1 .496.408a.546.546 0 0 1-.423.671a.53.53 0 0 1-.57-.28a.54.54 0 0 1-.029-.442a.54.54 0 0 1 .526-.357"/></svg>