<svg xmlns="http://www.w3.org/2000/svg" xmlns:xlink="http://www.w3.org/1999/xlink" width="24" height="24" viewBox="0 0 24 24"><path fill="currentColor" d="m2 12l1.579-1.579l1.579 1.58l-1.579 1.578zm2.105 2.105l1.58-1.579l3.683 3.685L7.79 17.79zm4.21 0l1.58-1.579l1.578 1.58l-1.579 1.578zM10.421 12l1.58-1.579l1.578 1.58L12 13.578zm2.106-2.105l1.579-1.58l1.579 1.58l-1.58 1.579zm2.105-2.105l1.579-1.58l3.684 3.685l-1.579 1.579zm-2.105 6.315l1.579-1.579l1.579 1.58l-1.58 1.578zm2.105 2.105l3.684-3.684l1.58 1.58l-3.685 3.684zm4.21-4.21l1.579-1.579L22 12.001l-1.579 1.578zM4.105 9.895L7.79 6.21l1.58 1.58l-3.685 3.684zm4.21 0l1.58-1.58l1.578 1.58l-1.579 1.579z"/></svg>