<svg xmlns="http://www.w3.org/2000/svg" xmlns:xlink="http://www.w3.org/1999/xlink" width="24" height="24" viewBox="0 0 24 24"><path fill="currentColor" d="M9.873 2.119a10.3 10.3 0 0 0-6.22 4.331A9.6 9.6 0 0 0 2.21 9.9a12 12 0 0 0-.15 3.42a9.96 9.96 0 0 0 3.537 6.456c1.044.881 2.22 1.538 2.22 1.231c0-.043-.126-.193-.276-.35c-1.025-1-1.562-2.768-1.35-4.406c.288-2.188 1.17-3.644 2.888-4.776c.325-.218.625-.393.656-.393c.125 0 .05-.25-.262-.863a5.9 5.9 0 0 1-.813-3a6.5 6.5 0 0 1 1.7-4.375c.3-.294.338-.356.338-.594c0-.237-.013-.25-.163-.25c-.1 0-.393.056-.662.119m6.101.638c0 .05.093.218.206.375c.53.75.827 1.638.856 2.556c.056 1.15-.25 2.15-.812 2.656c-.42.375-.776.388-1.294.057c-.363-.238-.407-.413-.163-.725a3.72 3.72 0 0 0 .67-2.22c0-.88-.17-1.374-.626-1.8a1.64 1.64 0 0 0-1.656-.437c-.675.156-1.313.894-1.657 1.925c-.175.532-.325 1.444-.325 1.975c.007 1 .3 2.175.732 2.894c.325.506.725.96 1.187 1.344c.125.1.244.2.244.219c0 .025-.125.087-.281.15c-1.15.431-2.313 1.731-2.825 3.162c-.311.8-.45 1.656-.407 2.513c.044 1.05.232 1.544.819 2.188c.463.512 1.338.75 2.388.644c1.212-.125 2.143-.563 2.937-1.4c.35-.375.42-.42.488-.338c.062.075.05.131-.075.35c-.794 1.369-2.269 2.538-3.638 2.882c-.3.074-.425.137-.425.2c0 .218 1.863-.082 2.994-.488a10.31 10.31 0 0 0 6.22-6.363c.393-1.2.462-1.675.468-3.169c0-1.162-.013-1.437-.131-2.025a10.22 10.22 0 0 0-5.182-6.957q-.713-.403-.713-.168"/></svg>