<svg xmlns="http://www.w3.org/2000/svg" xmlns:xlink="http://www.w3.org/1999/xlink" width="24" height="24" viewBox="0 0 24 24"><path fill="currentColor" d="m10.611 9.656l-2.778-6.7l4.445 2.255z"/><path fill="currentColor" d="M10.611 9.656v-3.89l1.667-.555z"/><path fill="currentColor" d="M10.611 5.767L7.833 2.955l4.445 2.256zM22 8.545h-4.722l2.222 3.889z"/><path fill="currentColor" d="m17.278 8.545l-4.167 1.666l6.39 2.223zm-2.27-3.889L13.11 10.21l4.167-1.667zm4.77-.834l-2.5 4.722H22z"/><path fill="currentColor" d="m15.008 4.655l2.27 3.89l2.5-4.723zM13.39 20.49l-3.056-8.612l7.5 2.778z"/><path fill="currentColor" d="M13.389 20.489v-5.834h4.444z"/><path fill="currentColor" d="m13.39 14.656l-3.056-2.778l7.5 2.778zM5.333 3.544L2 7.711l3.333 7.778l5.834 5.556z"/><path fill="currentColor" d="m8.111 11.878l-2.778 3.611l5.834 5.556zM5.333 9.933L2 7.711l3.333 7.778l2.778-3.612z"/></svg>