<svg xmlns="http://www.w3.org/2000/svg" xmlns:xlink="http://www.w3.org/1999/xlink" width="24" height="24" viewBox="0 0 24 24"><path fill="currentColor" d="M20.952 16.404q-.096.188-.19.366a10 10 0 0 1-4.572 4.302a9.95 9.95 0 0 1-4.549.922a9.9 9.9 0 0 1-5.76-2.083a10 10 0 0 1-2.973-3.745a3.2 3.2 0 0 1-.256-.972a2.1 2.1 0 0 1 .064-.823c.112-.377.342-.666.672-.875c.283-.18.588-.29.93-.278c.33.012.617.138.877.333c.291.219.506.5.695.809q.598.984 1.356 1.853a9.5 9.5 0 0 0 2.089 1.806a8 8 0 0 0 1.886.867a9.1 9.1 0 0 0 3.036.384a10 10 0 0 0 1.939-.29a12 12 0 0 0 1.591-.514a10.5 10.5 0 0 0 1.788-.907c.502-.324.972-.687 1.357-1.15zM3.05 7.588c.078-.145.152-.292.232-.435a10 10 0 0 1 2.164-2.684a9.9 9.9 0 0 1 5-2.346a10.2 10.2 0 0 1 2.051-.112a9.9 9.9 0 0 1 3.916 1.007c1.885.93 3.43 2.428 4.419 4.283c.193.363.371.733.46 1.14c.074.35.102.7.028 1.051a1.52 1.52 0 0 1-.678.991a1.7 1.7 0 0 1-.75.29a1.4 1.4 0 0 1-.919-.213c-.354-.216-.615-.52-.83-.871a13.3 13.3 0 0 0-1.7-2.244a8.9 8.9 0 0 0-2.37-1.805a8 8 0 0 0-2.05-.726a9.3 9.3 0 0 0-2.3-.186c-.536.023-1.064.1-1.588.214a12 12 0 0 0-2.118.67c-.783.33-1.527.731-2.199 1.258a5 5 0 0 0-.735.7l-.022.024z"/><path fill="currentColor" d="M12.002 7.395c2.53-.004 4.578 2.05 4.597 4.566c.02 2.573-2.06 4.694-4.595 4.696c-2.537 0-4.584-2.11-4.601-4.628c-.017-2.536 2.041-4.642 4.599-4.634M14.215 12l.022-.03q.38-.398.446-.946a1.6 1.6 0 0 0-.229-1.046c-.257-.413-.82-.664-1.297-.76c-.041-.008-.047-.026-.046-.063c.003-.104-.001-.324 0-.427c.001-.048-.017-.065-.066-.064c-.28.001-.708.007-.989.005c-.046 0-.057.018-.056.058c.003.094-.002.338 0 .432c.002.047-.015.066-.064.066c-.43-.001-.556-.004-.986-.004c-.046 0-.061-.019-.06-.062l-.001-.432c0-.041-.013-.062-.062-.061a109 109 0 0 1-.99 0c-.046 0-.062.018-.06.061c.001.09-.003.33.001.42c.003.057-.018.075-.074.074c-.172-.002-.247 0-.418 0c-.035 0-.064-.004-.063.05c.002.28.003.707 0 .988c-.001.062.022.077.079.076c.168-.004.238.004.405 0c.055 0 .071.018.071.072c-.001 1.183-.002 2 0 3.183c0 .063-.02.077-.078.076c-.172-.003-.246-.001-.418-.002c-.035 0-.06.002-.06.049c0 .288-.001.721-.003 1.01c0 .035.011.056.05.054c.055-.003.188 0 .242 0h.206c.045 0 .064.027.063.072c-.003.089.003.33 0 .42c-.002.053.015.064.07.064q.486-.005.973 0c.05 0 .067-.018.066-.065c-.001-.093.002-.333 0-.426c-.001-.043.011-.065.053-.065h.842l.143.001c.053 0 .078.018.075.078c-.006.093 0 .333-.002.426c0 .037.014.05.052.05h1.003c.039 0 .057-.012.056-.053c0-.105.004-.327 0-.432c-.001-.044.013-.06.055-.071c.106-.028.404-.055.505-.095a1.64 1.64 0 0 0 .544-2.68m-11.677-.685c-.007-.146-.02-.292-.019-.438q.002-.72.253-1.394A3.9 3.9 0 0 1 3.795 7.98A8.8 8.8 0 0 1 5.84 6.55a10 10 0 0 1 2.088-.77a12.2 12.2 0 0 1 3.702-.327q.207.017.413.04c.008 0 .015.004.03.008c-1.96.164-3.77.76-5.432 1.8a13.4 13.4 0 0 0-4.103 4.014m9.397 7.192a12.1 12.1 0 0 0 5.428-1.812a13.2 13.2 0 0 0 4.093-4.027c.009.1.021.195.024.29c.024.885-.202 1.697-.713 2.425c-.21.3-.468.555-.74.797a8.8 8.8 0 0 1-2.305 1.473c-.812.355-1.664.606-2.538.748c-.848.14-1.71.193-2.57.155c-.226-.01-.453-.032-.68-.049"/><path fill="currentColor" d="M10.972 11.445c-.082 0-.083-.001-.083-.083v-.953c0-.053.009-.079.07-.078c.695.002 1.424-.002 2.119.003c.351.002.556.11.588.422c.043.395-.181.635-.514.681q-.083.01-.167.008zm1.078 1.113l1.03.001c.283.006.495.095.586.361c.133.388-.242.75-.61.75c-.683.002-1.4 0-2.082 0c-.086 0-.085 0-.085-.085q0-.489-.004-.979c0-.051.028-.05.064-.05z"/></svg>