<svg xmlns="http://www.w3.org/2000/svg" xmlns:xlink="http://www.w3.org/1999/xlink" width="24" height="24" viewBox="0 0 24 24"><path fill="currentColor" d="M6 8.667h2.367c.306 0 1.206-.314 2.36-1.407c1.146-1.1 4.22-3.98 5.606-5.26h5l-8 7.667l7.934 11h-3.933L14 16c.427 1.02.68 3.613-.127 6c.2-2.307-1.073-4.84-1.32-5.167c-.22-.293-1.386-2.626-1.946-3.753c-.507-2.187 1.773-4.38 2.98-5.2c-1.587-1.013-3 .16-3.507.867c-.907-.12-1.687.506-1.966.833l-2.627 3.713c-.6.867-1.227.927-1.467.847c.493 1.167 1.687.567 2.22.127c.133.88-.247 1.4-.453 1.546a1.65 1.65 0 0 0 1.42-1.286c.2.293.533 1.453.26 3.7a3.01 3.01 0 0 1-1.734 2.44l-.04-.007H2.667V2H6zM8.647 10.7c0-.387.213-1.167 1.086-1.18c-.073.893-.76 1.16-1.086 1.18"/></svg>