<svg xmlns="http://www.w3.org/2000/svg" xmlns:xlink="http://www.w3.org/1999/xlink" width="24" height="24" viewBox="0 0 24 24"><path fill="currentColor" d="m8.711 12l5.747 5.926l3.635-3.736a1.63 1.63 0 0 1 2.323 0a1.74 1.74 0 0 1 0 2.39l-4.791 4.937a1.64 1.64 0 0 1-2.324 0l-7.016-7.115v4.225c.013.904-.684 1.672-1.588 1.69c-.909-.012-1.6-.782-1.588-1.69V5.373c0-.933.676-1.69 1.588-1.69c.9 0 1.588.757 1.588 1.69v4.225l7.017-7.115a1.64 1.64 0 0 1 2.323 0l4.78 4.936a1.74 1.74 0 0 1 0 2.39a1.627 1.627 0 0 1-2.312 0l-3.635-3.735zm5.758-1.69c.9 0 1.634.756 1.634 1.69s-.734 1.69-1.634 1.69s-1.646-.756-1.646-1.69s.735-1.69 1.646-1.69"/></svg>