<svg xmlns="http://www.w3.org/2000/svg" xmlns:xlink="http://www.w3.org/1999/xlink" width="24" height="24" viewBox="0 0 24 24"><path fill="currentColor" d="M12 7.625a4.362 4.362 0 1 1 0 8.725a4.362 4.362 0 0 1 0-8.725"/><path fill="currentColor" d="m9.706 9.281l-.13.35c.774 0 .674.106 1.112-.35c.468-.5.368-.262 1.137-.287c1.175-.019.475-.769 2.113-.769c-1.238.325-.944.656-1.77 1.094a5.4 5.4 0 0 1-2.25.675l.445.437c1.88.057 1.625.657 2.83.469c.688-.1 1.688-.044 2.37.106l.6.306l-2-.1c.456.7-.026-.025-.063 2.138c.188.144.294.231.519.375c.3.212.319.181.437.469c.15.268.107.443.194.725a4.357 4.357 0 0 0-3.237-7.294H11.8c-.181.181-.437.281-.944.813c-.425.456-.837.6-1.15.843m5.188 5.994c-.369-.375-.875-.181-2.313-.494c-.437-.1-.893-.3-1.125-.331c-.625-.081-.256.169-1.08-.063c.23.538.324.15.355.932c-.268-.1-.287-.144-.5-.3l-1.206-1.025c-.206-.27-.231-.4-.544-.57c-.275-.155-.412-.143-.687-.299a4.364 4.364 0 0 0 7.1 2.15"/><path fill="currentColor" d="M11.713 12.181c-.213.432-.525.519-1.125.563c-.913.069-.757.2-1.382.337l-.012.244c.394.075.756.3.981.669c1.25.412.425.112.981.087c.25-.012.77.282 1.125.325l1.22.213c.687.087.768-.157 1.305.219l.02-.644c-1.564-1.05-.388-2.313-1.301-2.375c-.7-.044-1.312.325-1.812.356z"/><path fill="currentColor" d="M7.756 13.013c1.75.087.481.125 1.675-.3c.363-.132.631-.025 1.044-.075c.4-.063.512-.27.8-.45c.669-.657 1.406-.213 1.962-.513c-.412-.262-.525-.044-.981-.25c-.331-.162-.287-.269-.687-.425c-.738-.294-1.338.156-1.675-.562c-.463-.22-.788-.288-1.2-.02c-.438.282-.37.313-.938.513a4.26 4.26 0 0 0 0 2.082m.069-2.282c.525-.125.287-.156.687-.5c.67-.58.525.057.263-.725c.587.3.437.538.819-.212l.1-1a4.33 4.33 0 0 0-1.87 2.437"/><path fill="currentColor" fill-rule="evenodd" d="M21.362 2.688c-.281-.957-4.687-.907-9.862.093c-5.163 1-9.138 2.582-8.863 3.532c.282.956 4.688.906 9.863-.094s9.137-2.581 8.862-3.531m-8.25 2.906c4.044-.875 7.638-2.206 7.638-2.625c0-.825-4.2-.625-8.488.131c-4.456.788-9 2.294-9 3.006c0 .77 5.194.494 9.857-.512zm8.25 12.093c-.281-.956-4.687-.906-9.862.094c-5.163 1-9.138 2.581-8.863 3.531c.282.956 4.688.906 9.863-.093c5.175-1 9.137-2.582 8.862-3.532m-8.25 2.906c4.044-.874 7.638-2.206 7.638-2.624c0-.825-4.2-.625-8.488.13c-4.456.788-9 2.295-9 3.007c0 .769 5.194.494 9.857-.513z" clip-rule="evenodd"/></svg>