<svg xmlns="http://www.w3.org/2000/svg" xmlns:xlink="http://www.w3.org/1999/xlink" width="24" height="24" viewBox="0 0 24 24"><path fill="currentColor" d="M12.357 2a9.6 9.6 0 0 1 6.056 2.331L7.269 15.494z"/><path fill="currentColor" d="M12.357 2a9.6 9.6 0 0 1 6.056 2.331L7.269 15.494zm.913 10.025l6.424-6.45a10.106 10.106 0 0 1 0 12.85z"/><path fill="currentColor" d="m13.27 12.025l6.424-6.45a10.106 10.106 0 0 1 0 12.85zm-11.25-.65l7.825-7.856l-5.575 14.85a10.07 10.07 0 0 1-2.25-6.994"/><path fill="currentColor" d="m2.02 11.375l7.825-7.856l-5.575 14.85a10.07 10.07 0 0 1-2.25-6.994m3.587 8.294l6.43-6.394l6.426 6.394A10 10 0 0 1 12.038 22a10 10 0 0 1-6.431-2.331"/><path fill="currentColor" d="m5.607 19.669l6.43-6.394l6.426 6.394A10 10 0 0 1 12.038 22a10 10 0 0 1-6.431-2.331"/></svg>