<svg xmlns="http://www.w3.org/2000/svg" xmlns:xlink="http://www.w3.org/1999/xlink" width="24" height="24" viewBox="0 0 24 24"><path fill="currentColor" d="M12.868 2.059a.294.294 0 0 0-.465.178l-1.541 7.81a.294.294 0 0 0 .432.312l6.844-3.844a.29.29 0 0 0 .122-.378a.3.3 0 0 0-.09-.111z"/><path fill="currentColor" d="M10.643 2.425a.294.294 0 0 1 .465.29l-1.782 9.033a.3.3 0 0 0 0 .111l1.789 9.467a.29.29 0 0 1-.128.299a.3.3 0 0 1-.325-.002l-5.59-3.717a.3.3 0 0 1-.131-.244V6.837c0-.092.043-.18.118-.235z"/><path fill="currentColor" d="M12.395 21.76a.295.295 0 0 0 .452.19l5.528-3.676a.29.29 0 0 0 .093-.388a.3.3 0 0 0-.1-.104l-7.056-4.41a.294.294 0 0 0-.446.302zm6.214-5.211a.295.295 0 0 0 .41-.1a.3.3 0 0 0 .04-.148V7.845a.29.29 0 0 0-.292-.293a.3.3 0 0 0-.146.037l-7.126 4.002a.293.293 0 0 0-.012.504z"/></svg>