<svg xmlns="http://www.w3.org/2000/svg" xmlns:xlink="http://www.w3.org/1999/xlink" width="24" height="24" viewBox="0 0 24 24"><path fill="currentColor" fill-rule="evenodd" d="M12 22a10 10 0 1 0 0-20a10 10 0 0 0 0 20m0-1.177a8.824 8.824 0 1 0 0-17.648a8.824 8.824 0 0 0 0 17.649" clip-rule="evenodd"/><path fill="currentColor" d="M8.47 7.759v9.512l1.765-.941V8.74zm2.94 5.87l1.33 1.012l-1.33.883z"/><path fill="currentColor" d="m12.746 10.835l1.459 1.059l-1.188.765l1.494 1.182l2.782-1.63l-7.3-5.382l-1.523.9l2.94 2.136v1.794z"/></svg>