<svg xmlns="http://www.w3.org/2000/svg" xmlns:xlink="http://www.w3.org/1999/xlink" width="24" height="24" viewBox="0 0 24 24"><path fill="currentColor" fill-rule="evenodd" d="M12 3.089L4.222 7.544v8.912L12 20.91l7.778-4.455V7.544zM20.889 7l-8.89-5l-8.888 5v10L12 22l8.889-5z" clip-rule="evenodd"/><path fill="currentColor" fill-rule="evenodd" d="m12 8.666l-2.779 1.64v3.388L12 15.333l2.778-1.639v-3.389zm3.888 1.111L12 7.555L8.11 9.777v4.445L12 16.444l3.888-2.222z" clip-rule="evenodd"/><path fill="currentColor" d="M11.444 12.222L3.4 7.695l.483-.823L12 11.445l7.922-4.567l.483.811l-7.85 4.533v9.073h-1.11z"/></svg>