<svg xmlns="http://www.w3.org/2000/svg" xmlns:xlink="http://www.w3.org/1999/xlink" width="24" height="24" viewBox="0 0 24 24"><path fill="currentColor" fill-rule="evenodd" d="M2 8.667h3.492l.35.358l.237-.358h4.234c.145.145.437.437.437.45l.167-.45h1.804l.441.45l.221-.45h4.709l.483.491l.2 3.313l.683-3.804h1.963l.579.45l-1.058 6.216h-4.1l-.471-.475V14.5h-.292l-.32.833h-4.342l-.459-.425V14.2l-.404 1.133H6.346l-.454-.425l-.646-1.375l-.334 1.8H2.817l-.438-.425l.871-5.225zm5 3.429l1.042-1.792v3.625zM2.517 8.875l.959.704l-.892 5.13h1.75l.404-2.58l1.267 2.58H8.15l-1.738-3.021l1.759-2.813H6.188l-1.246 2.32l.355-2.32zm7.421 0H8.251v5.833h1.841l1.075-3.325v3.325h2.281l1.32-2.362h-.884l1.033-3.471h-1.512l-1.07 3.45l.107-3.45h-1.541l-1.084 3.45zm5.163 5.833h-1.63l3.163-3.375h-1.25l1.492-2.458h.97l.355 5.833h-1.742v-.841h-1.067zm3.475 0h1.72l1.042-5.833h-1.783z" clip-rule="evenodd"/></svg>