<svg xmlns="http://www.w3.org/2000/svg" xmlns:xlink="http://www.w3.org/1999/xlink" width="24" height="24" viewBox="0 0 24 24"><path fill="currentColor" d="M17 10.536V4.964L11.846 2L9.6 3.222l.913.535l1.305-.693l4.07 2.422v4.292h-2.222V11.9zM4.222 9.778v-2.47L8.316 4.8l3.46 1.849l.013-.036l.428-.786l-3.9-2.214l-5.17 3.164l-.014 3zm3.032.794l3.08 1.32V9.779h-3.28l-3.908 1.865l-.035 5.164l2.232 1.571l.596-.815l-1.717-1.235V12.15zm5.947 9.72l-1.397.572l-3.693-1.942v-4.215H7v4.786L11.754 22l1.797-.728zm5.465-3.756v-1.758h1.111v2.244l-5.071 3.7l-3.262-2.622v-2.578l-2.942-2.966h6.532l-2.479 2.959v2.142l2.172 1.686zm.011-10.772l2.212 1.764v5.2l-4.265 2.657l-.499-.786l3.653-2.385V7.958L18.044 6.65l.633-.893z"/></svg>