<svg xmlns="http://www.w3.org/2000/svg" xmlns:xlink="http://www.w3.org/1999/xlink" width="24" height="24" viewBox="0 0 24 24"><path fill="currentColor" d="M11.2 2.013a.28.28 0 0 1 .228.275v19.43a.28.28 0 0 1-.273.28a.3.3 0 0 1-.138-.029L3.59 18.433a.274.274 0 0 1-.137-.36L10.88 2.168a.285.285 0 0 1 .325-.16zM4.727 16.696l6.13-6.576V3.573L4.727 16.69zm6.13-5.742l-6.673 7.142l6.673 3.182zm1.942-8.94a.28.28 0 0 0-.228.274v19.43a.28.28 0 0 0 .137.24c.08.051.188.057.274.011l7.427-3.536a.274.274 0 0 0 .137-.36L13.12 2.168a.286.286 0 0 0-.325-.16zm6.473 14.682l-6.13-6.576V3.573l6.13 13.117zm-6.13-5.742l6.673 7.142l-6.673 3.182z"/></svg>