<svg xmlns="http://www.w3.org/2000/svg" xmlns:xlink="http://www.w3.org/1999/xlink" width="24" height="24" viewBox="0 0 24 24"><path fill="currentColor" d="M13.574 10.18a.675.675 0 0 1 0 .988a.79.79 0 0 1-1.053 0l-1.58-1.481l-3.476 3.263a.79.79 0 0 1-1.054 0a.666.666 0 0 1 0-.987l3.952-3.705l.05-.053a.78.78 0 0 1 1.054 0z"/><path fill="currentColor" d="M17.559 10.368a.666.666 0 0 1 0 .988l-3.952 3.7l-.05.052a.78.78 0 0 1-1.053 0l-2.107-1.976a.675.675 0 0 1 0-.987a.79.79 0 0 1 1.053 0l1.58 1.481l3.476-3.258a.79.79 0 0 1 1.053 0m4.226.016a.79.79 0 0 0-1.054 0L18.63 12.36a.666.666 0 0 0 0 .987a.79.79 0 0 0 1.053 0l2.107-1.975a.68.68 0 0 0-.005-.988M3.268 12.94a.79.79 0 0 1-1.053 0a.675.675 0 0 1 0-.988l2.107-1.976a.79.79 0 0 1 1.053 0a.666.666 0 0 1 0 .988z"/></svg>