<svg xmlns="http://www.w3.org/2000/svg" xmlns:xlink="http://www.w3.org/1999/xlink" width="24" height="24" viewBox="0 0 24 24"><path fill="currentColor" fill-rule="evenodd" d="M22 11.997a10 10 0 1 0-20.001.006A10 10 0 0 0 22 11.997m-1.176 0a8.821 8.821 0 1 0-17.642 0a8.821 8.821 0 0 0 17.642 0m-8.821-1.176a1.176 1.176 0 1 1 0 2.352a1.176 1.176 0 0 1 0-2.352m4.898 7.91a8.4 8.4 0 0 0 2.835-3.647a.94.94 0 0 0-.041-.811a.93.93 0 0 0-.635-.5l-4.822-1.153a.85.85 0 0 0-.87.312a.82.82 0 0 0-.089.918l2.193 4.54c.13.252.353.428.636.493c.282.07.558.024.793-.153m-9.761.005a8.4 8.4 0 0 1-2.8-3.505a.94.94 0 0 1 .03-.823a.93.93 0 0 1 .647-.506l4.751-1.293a1 1 0 0 1 .177-.024a.82.82 0 0 1 .694.335a.84.84 0 0 1 .088.918l-2.152 4.557a.95.95 0 0 1-.636.5a.93.93 0 0 1-.805-.159zM17.53 5.781a8.6 8.6 0 0 0-4.222-2.005a.98.98 0 0 0-.782.212a.93.93 0 0 0-.34.735l-.03 5.233a.82.82 0 0 0 .488.783a.87.87 0 0 0 .917-.118l3.946-3.37a.9.9 0 0 0 .353-.729a.94.94 0 0 0-.33-.74m-5.72 4.145l-.165-5.204a.94.94 0 0 0-.358-.724a.91.91 0 0 0-.783-.194a8.3 8.3 0 0 0-4.145 2.059a.95.95 0 0 0-.312.752a.91.91 0 0 0 .37.724l4 3.293a.84.84 0 0 0 .564.188a.85.85 0 0 0 .829-.894m6.016-2.264l-3.734 3.146a.84.84 0 0 0-.33.694a.864.864 0 0 0 .7.83l4.705.94a.9.9 0 0 0 .776-.194a.91.91 0 0 0 .37-.723c.012-.118.012-.241.012-.359c0-1.47-.382-2.846-1.047-4.052a.97.97 0 0 0-.664-.47a.9.9 0 0 0-.788.188m-7.94 3.14l-3.792-3.04a.9.9 0 0 0-.788-.165a.95.95 0 0 0-.647.488a8.26 8.26 0 0 0-.959 4.517a.95.95 0 0 0 .389.711a.92.92 0 0 0 .793.165l4.681-1.14a.84.84 0 0 0 .647-.665a.83.83 0 0 0-.323-.87m4.488 9.174c-.424.118-.847-.03-1.282-.176c-.335-.118-.676-.236-1.035-.236c-.335 0-.7.118-1.059.23c-.47.147-.929.294-1.329.188c-.282-.076-.4-.23-.517-.482a.88.88 0 0 1 0-.788l2.14-4.47a.86.86 0 0 1 .782-.482c.342 0 .636.177.783.482l2.134 4.434a.89.89 0 0 1 .006.782a1 1 0 0 1-.623.512zm-2.37-5.757v4.693s.023.2-.441.34l-1.282.377c-.1.03-.876.135-.553-.74c.318-.871 1.835-4.276 1.835-4.276s.159-.365.441-.394" clip-rule="evenodd"/></svg>