<svg xmlns="http://www.w3.org/2000/svg" xmlns:xlink="http://www.w3.org/1999/xlink" width="24" height="24" viewBox="0 0 24 24"><path fill="currentColor" d="m10.718 7.374l.513-1.784l.512 1.784l-.512 1.293zM22 8.667h-2.108l-1.994 3.184l-1.995-3.185h-2.108l3.046 4.872l-3.046 4.872h2.108l1.995-3.184l1.994 3.184H22l-3.046-4.872zM9.18 7.128c.359.03 1.159.385 1.538 1.539c-.236-.15-1.302-.246-1.538-1.539m4.102 0c-.359.03-1.159.385-1.538 1.539c.236-.15 1.303-.246 1.538-1.539M4.051 8.667H2v9.743h6.667v-2.05H4.05zm5.41 3.266l-.24-.743a.8.8 0 0 1 .087-.693c.24-.39.543-.887.723-1.195a.26.26 0 0 1 .308-.107c.384.123.769.184.892.2c.118-.016.508-.077.887-.205c.118-.036.256.01.308.112l.472.77l-1.61.307l1.974.385a.8.8 0 0 1-.02.426l-1.006 3.097l-1.297.257l1.143.215l-.851 2.625l-1.513-4.661l1.923-.37zm-.281 6.221l2.051-.256l2.051.256l-2.051.256z"/></svg>