<svg xmlns="http://www.w3.org/2000/svg" xmlns:xlink="http://www.w3.org/1999/xlink" width="24" height="24" viewBox="0 0 24 24"><path fill="currentColor" d="m4.242 8.248l.059.024l1.135.506a6.9 6.9 0 0 1 3.312-3.312l-.265-.594l-.376-.876c-.43-.853-1.2-.565-1.471-.424A9.65 9.65 0 0 0 3.642 6.49l-.006.047c-.488 1.129.365 1.6.606 1.711"/><path fill="currentColor" d="m5.448 8.766l.964.43l.842.364l.664.3a4.25 4.25 0 0 1 1.935-1.93l-.3-.67l-.37-.835l-.424-.97a6.96 6.96 0 0 0-3.311 3.311"/><path fill="currentColor" d="m7.907 9.86l2.682 1.176a.47.47 0 0 0 .423-.453l-.564-1.276l-.606-1.388a4.32 4.32 0 0 0-1.935 1.94m13.864.083c-.447-1.117-1.364-.865-1.617-.765l-.07.03l-.565.217l-.606.236a6.97 6.97 0 0 1 0 4.7l.606.235l.782.3c.906.382 1.288-.265 1.423-.606a9.5 9.5 0 0 0 .047-4.353z"/><path fill="currentColor" d="m18.924 9.666l-.982.376l-1.536.6a4.27 4.27 0 0 1 0 2.736l.665.264l.865.336l.976.382c.535-1.47.57-3.118.012-4.694"/><path fill="currentColor" d="M16.413 10.648L15 11.195l-1.312.518a.46.46 0 0 0-.076.482a.7.7 0 0 0 .076.13l1.312.506l1.412.547a4.3 4.3 0 0 0 0-2.736zM4.471 14.6l.612-.24a6.92 6.92 0 0 1 0-4.694l-.612-.242l-.794-.311c-.917-.371-1.282.311-1.411.647a9.6 9.6 0 0 0-.047 4.276v.012c.447 1.147 1.382.882 1.635.794z"/><path fill="currentColor" d="m5.083 14.354l.977-.377l.853-.335l.676-.265a4.2 4.2 0 0 1 0-2.735l-.676-.264l-.853-.324l-.977-.377a6.88 6.88 0 0 0 0 4.683z"/><path fill="currentColor" d="m7.6 13.378l1.412-.547l1.3-.506a.46.46 0 0 0-.011-.624l-2.712-1.059c-.294.889-.29 1.85.012 2.736M5.46 15.254l-.595.265l-.623.276s-1.089.589-.589 1.712v.012a9.55 9.55 0 0 0 3.036 2.97c.311.147 1.094.4 1.488-.553l.33-.764l.264-.588a7.04 7.04 0 0 1-3.312-3.33"/><path fill="currentColor" d="m9.577 16.765l.289-.658A4.25 4.25 0 0 1 7.93 14.17l-.664.295l-.841.364l-.965.424a6.93 6.93 0 0 0 3.323 3.311l.424-.964l.37-.841z"/><path fill="currentColor" d="m9.865 16.095l.606-1.394l.565-1.276a.465.465 0 0 0-.447-.436l-1.277.565l-1.394.606a4.27 4.27 0 0 0 1.941 1.935zm8.689-7.317l.6-.265l.665-.294l-.06.012c.242-.118 1.083-.577.613-1.683a9.5 9.5 0 0 0-3.13-3.035c-.87-.447-1.412.577-1.412.577l-.335.764l-.264.6a6.9 6.9 0 0 1 3.323 3.324"/><path fill="currentColor" d="m14.436 7.248l-.283.671a4.3 4.3 0 0 1 1.941 1.941l1.506-.653l.953-.43a6.96 6.96 0 0 0-3.323-3.323l-.424.97z"/><path fill="currentColor" d="m14.153 7.919l-.611 1.388l-.565 1.3a.45.45 0 0 0 .294.394c.041.024.1.035.159.035l1.282-.564l1.394-.612a4.44 4.44 0 0 0-1.953-1.941m.436 11.611l-.242-.605a6.9 6.9 0 0 1-4.688 0l-.24.605l-.395 1.012s-.194.794.953 1.235a9.6 9.6 0 0 0 4.147-.011c.2-.06 1.153-.36.812-1.36z"/><path fill="currentColor" d="m14.353 18.925l-.376-.977l-.33-.865l-.264-.664a4.27 4.27 0 0 1-2.736 0l-.264.664l-.336.865l-.376.976a6.9 6.9 0 0 0 4.688 0z"/><path fill="currentColor" d="m13.372 16.413l-1.06-2.706a.48.48 0 0 0-.493-.088a.4.4 0 0 0-.124.082l-.506 1.3l-.553 1.412a4.23 4.23 0 0 0 2.736 0M9.406 4.478l.235.611a7 7 0 0 1 4.694-.011l.241-.612l.242-.618c.094-.253.352-1.2-.795-1.635L14 2.201a9.9 9.9 0 0 0-4.218.059c-.323.1-1.082.47-.676 1.447l.294.77z"/><path fill="currentColor" d="m9.648 5.09l.376.976l.336.853l.264.676a4.2 4.2 0 0 1 2.736 0l.264-.676l.33-.853l.382-.977a6.9 6.9 0 0 0-4.688 0"/><path fill="currentColor" d="m10.625 7.595l1.07 2.735a.464.464 0 0 0 .606-.023l.506-1.312l.553-1.412a4.36 4.36 0 0 0-2.735.012m9.141 8.177l-.071-.024l-.541-.235l-.6-.27a6.96 6.96 0 0 1-3.323 3.323l.6 1.358c.435 1.06 1.335.648 1.564.506a9.6 9.6 0 0 0 2.941-2.9l.024-.047c.494-1.123-.353-1.594-.6-1.711z"/><path fill="currentColor" d="m18.553 15.242l-.965-.424l-.852-.37l-.653-.288a4.22 4.22 0 0 1-1.93 1.923l.283.653l.37.853l.424.965a6.9 6.9 0 0 0 3.323-3.312"/><path fill="currentColor" d="m16.082 14.178l-1.388-.612l-1.264-.553a.4.4 0 0 0-.153.035a.45.45 0 0 0-.253.253a.3.3 0 0 0-.036.147l.553 1.265l.612 1.394a4.3 4.3 0 0 0 1.93-1.935z"/></svg>