<svg xmlns="http://www.w3.org/2000/svg" xmlns:xlink="http://www.w3.org/1999/xlink" width="24" height="24" viewBox="0 0 24 24"><path fill="currentColor" d="m17.08 4.992l-2.858 2l-1.092-.833l3.9-2.909l3.525 2.392a3.266 3.266 0 0 1 .116 5.341L19.305 12l1.166.825a3.392 3.392 0 0 1 0 5.533l-3.366 2.392l-11.2-7.875l-1.633 1.2a1.75 1.75 0 0 0-.1 2.808l2.833 2.3l2.84-2.033l1.05.8l-3.915 2.8l-3.9-2.95a2.84 2.84 0 0 1 .075-4.516l1.625-1.209l-1.217-.85a3.31 3.31 0 0 1-.05-5.366L6.939 3.35l11.167 7.817l1.524-1.083a2.14 2.14 0 0 0-.1-3.55L17.08 5zm-.025 6.916L6.83 4.808L3.922 7.226a1.65 1.65 0 0 0 .1 2.633l1.933 1.35l3.916-2.9l1.109.825L7.097 12l10.149 7.066l2.542-1.833a2.102 2.102 0 0 0-.017-3.416l-1.5-1.042l-4.083 3.05l-1.192-1.034l4.05-2.866z"/></svg>