<svg xmlns="http://www.w3.org/2000/svg" xmlns:xlink="http://www.w3.org/1999/xlink" width="24" height="24" viewBox="0 0 24 24"><path fill="currentColor" fill-rule="evenodd" d="m22 13.43l-9.646-9.642L6.64 9.5L4.86 7.712L2 10.571l9.641 9.641L17.36 14.5l1.782 1.788zm-15.354-2.5l.708-.718l5-5l8.217 8.217l-1.43 1.43l-1.782-1.788l-5.718 5.717l-2.853-2.859l1.07-1.07l1.425 1.424l5-5l-1.424-1.424l1.07-1.071l-.717-.717l-1.07 1.07l-1.43-1.429l-5 5l1.43 1.43l-1.071 1.07l-2.859-2.854l-1.783-1.787l1.43-1.43L6.64 10.93zm6.066-1.789l-3.57 3.571l2.146 2.146l3.57-3.57z" clip-rule="evenodd"/></svg>