<svg xmlns="http://www.w3.org/2000/svg" xmlns:xlink="http://www.w3.org/1999/xlink" width="24" height="24" viewBox="0 0 24 24"><path fill="currentColor" fill-rule="evenodd" d="M12 22a10 10 0 1 0 0-20a10 10 0 0 0 0 20m0-.388a9.612 9.612 0 1 0 0-19.224a9.612 9.612 0 0 0 0 19.224" clip-rule="evenodd"/><path fill="currentColor" d="M6.706 9.677c0 .853-.006 5.747 5.294 8.794c5.3-3.047 5.294-7.941 5.294-8.794v-.03c0-.741-.088-1.676-.23-2C15.918 6.071 13.212 5.582 12 5.535c-1.212.047-3.918.53-5.065 2.118a7 7 0 0 0-.23 1.994z"/><path fill="currentColor" d="M10.823 10.235h2.353v7.059h-2.353z"/><path fill="currentColor" d="M11.17 10.517h1.717v6.694H11.17z"/><path fill="currentColor" d="m9.253 10.612l-1.041 1.235l-.465-.37l1.041-1.242zm5.518 0l.988 1.235l.465-.37l-.989-1.242zm-3.67 3.87l-1.16 1.341l-.435-.382l1.317-1.382zm1.77 0L14 15.817l.353-.288l-1.176-1.47zm-1.83-3.876l-2.47 2.912l-.465-.377l2.47-2.912l.471.377zm1.888 0l2.471 2.912l.47-.377l-2.488-2.906l-.458.377zm-1.758 1.835l-2.089 2.394l-.458-.376l2.2-2.46zm1.711.147l2.012 2.253l.453-.388L13.177 12z"/><path fill="currentColor" d="M7.882 10.235h8.235v.588H7.882z"/><path fill="currentColor" fill-rule="evenodd" d="m12.053 7.265l-.041-.194l-.035.194a1.24 1.24 0 0 0-1.148.853l-.24-.03l.217.118a1.2 1.2 0 0 0 .459 1.253l-.135.27l.229-.211a1.26 1.26 0 0 0 1.312 0l.23.211l-.136-.27a1.2 1.2 0 0 0 .459-1.259l.217-.118l-.235.036a1.24 1.24 0 0 0-1.153-.853m0 0h-.076l-.183.976l-.97-.123l-.024.082l.853.453l-.394.806l.094.059l.653-.612l.659.612l.094-.06l-.394-.805l.853-.453a.2.2 0 0 0-.024-.082l-.965.123l-.182-.976z" clip-rule="evenodd"/><path fill="currentColor" d="M12.459 8.53a.453.453 0 0 1-.46.446a.45.45 0 0 1-.458-.447c0-.253.206-.453.459-.453s.459.2.459.453"/><path fill="currentColor" fill-rule="evenodd" d="M12 16.941c-2.448-1.635-4.118-4.306-4.118-7.265q0-.724.106-1.44A4.8 4.8 0 0 1 9.87 7.117A8.4 8.4 0 0 1 12 6.706a8.4 8.4 0 0 1 2.129.412c.705.222 1.35.605 1.882 1.117l.053.383q.053.528.053 1.058v.006c0 .724-.135 4.589-4.118 7.265zm5.293-7.265c0 .853.006 5.748-5.294 8.795c-5.306-3.047-5.294-7.942-5.294-8.795c0-.635-.035-1.44.23-2.035c1.147-1.576 3.853-2.065 5.064-2.112c1.212.047 3.918.53 5.065 2.118c.265.588.23 1.394.23 2.03" clip-rule="evenodd"/><path fill="currentColor" d="M12.264 13.988h.182c.077 0 .142-.053.142-.118c0-.058-.06-.105-.142-.105l-.282.005a2 2 0 0 0-.494.071a.3.3 0 0 0-.13.076c-.035.042-.046.1-.017.148c.03.058.117.082.176.058a.12.12 0 0 0 .083-.076l.147-.035l-.059.07a.9.9 0 0 1-.259.224c-.059.03-.076.082-.053.135a.16.16 0 0 0 .16.065l.205-.036l-.082.071c-.077.059-.195.17-.306.176c-.077.006-.13.06-.118.124c0 .059.07.106.147.1a.7.7 0 0 0 .253-.088q.316-.211.57-.495a.09.09 0 0 0 0-.117a.15.15 0 0 0-.146-.053l-.148.023zM11.929 15a.87.87 0 0 1 .57-.018c.071.024.106.088.077.153c-.03.059-.112.088-.183.065a.52.52 0 0 0-.34.018c-.124.046-.271.17-.354.447c-.017.07.036.152.13.194c.047.017.1.023.147.011a.35.35 0 0 0 .182-.117c.053-.047.141-.06.2-.018c.065.041.077.118.03.17a.67.67 0 0 1-.336.2a.6.6 0 0 1-.347-.029c-.194-.082-.335-.27-.282-.465c.1-.329.288-.517.506-.611m.564-3.547a.12.12 0 0 1-.017.164l-.212.171a.7.7 0 0 0-.176.218c-.036.076-.047.164-.083.24a.4.4 0 0 0 .16.107h.099a.27.27 0 0 0 .118-.106c.035-.059.106-.065.159-.03a.12.12 0 0 1 .023.165a.5.5 0 0 1-.218.177a.4.4 0 0 1-.24.011a.6.6 0 0 1-.254-.147c-.082.06-.182.077-.27.13a.11.11 0 0 1-.09.011a.11.11 0 0 1-.07-.058a.117.117 0 0 1 .048-.153l.088-.041c.082-.036.2-.065.241-.16c.042-.082.047-.17.088-.246c.06-.118.148-.218.23-.295l.218-.176a.12.12 0 0 1 .158.018m-.74 1.388a.15.15 0 0 1-.177-.059a.116.116 0 0 1 .076-.153a.6.6 0 0 1 .236-.041c.04 0 .105.018.153.059a.22.22 0 0 1 .058.165a.44.44 0 0 1-.094.205c-.088.118-.2.236-.282.353c-.035.06-.047.089-.047.106c0 .035.035.047.07.053q.312-.378.589-.782c.04-.059.117-.077.188-.041c.059.03.082.1.047.153c-.106.17-.253.358-.382.529q.04.075.105.13l.012-.012c.041-.06.118-.07.183-.036c.058.036.076.106.035.16a.3.3 0 0 1-.212.123a.3.3 0 0 1-.206-.07a.6.6 0 0 1-.088-.09l-.106.124a.14.14 0 0 1-.094.047a.5.5 0 0 1-.235-.04c-.089-.042-.17-.124-.17-.248a.4.4 0 0 1 .081-.217c.083-.13.2-.236.295-.365l.04-.07a.4.4 0 0 0-.076.017"/></svg>