<svg xmlns="http://www.w3.org/2000/svg" xmlns:xlink="http://www.w3.org/1999/xlink" width="24" height="24" viewBox="0 0 24 24"><path fill="currentColor" d="M13.875 22C18.496 21.118 22 16.878 22 12s-3.504-8.94-8.125-9.823v2.649c.942.38 1.856 1.143 2.677 2.566c0 .086-1.663 1.224-2.448 1.757c-.97-2.347-2.478-2.37-3.105-1.527c-.896 1.21.67 2.012 2.465 2.682c2.03.755 3.565 2.543 3.536 4.82c-.028 2.228-1.619 3.395-3.125 3.97z"/><path fill="currentColor" d="M10.75 2H2v10.18c.09 5.032 3.856 9.231 8.75 9.82v-2.831c-1.694-.403-3.346-1.676-3.539-4.312l2.794-.811c-.018.869.357 2.605 1.996 2.595c1.64-.011 1.996-1.194 1.969-1.783c.062-.387-.244-1.323-1.969-1.983c-2.155-.825-4.098-2.395-4.098-4.524c0-2.295 1.378-3.164 2.847-3.6z"/></svg>