<svg xmlns="http://www.w3.org/2000/svg" xmlns:xlink="http://www.w3.org/1999/xlink" width="24" height="24" viewBox="0 0 24 24"><path fill="currentColor" d="m21.53 10.537l-4.404-6.15a1.69 1.69 0 0 0-1.39-.72a1.69 1.69 0 0 0-1.392.72l-.48.67l-.478-.67a1.69 1.69 0 0 0-1.391-.72a1.69 1.69 0 0 0-1.39.72l-.474.66l-.474-.66a1.7 1.7 0 0 0-1.39-.72c-.555 0-1.063.26-1.392.72l-4.406 6.15a2.52 2.52 0 0 0 0 2.926l4.406 6.15a1.7 1.7 0 0 0 1.392.72c.557 0 1.063-.26 1.39-.72L12 16.339l.483.676l.005.007l1.855 2.59a1.7 1.7 0 0 0 1.39.722c.556 0 1.063-.261 1.39-.721l4.404-6.15a2.5 2.5 0 0 0 .003-2.926M11.307 4.91a.84.84 0 0 1 .688-.356a.84.84 0 0 1 .689.356l.642.898L12 7.659l-1.331-1.86zM8.955 19.087a.84.84 0 0 1-.69.355a.84.84 0 0 1-.687-.355l-4.404-6.15a1.61 1.61 0 0 1 0-1.877l4.403-6.15a.84.84 0 0 1 .69-.355a.84.84 0 0 1 .688.356l.638.89L6.2 10.537a2.51 2.51 0 0 0 .002 2.926l.259.356l2.273 3.194c.29.405.719.656 1.197.71zm1.86-2.595a.842.842 0 0 1-1.378 0L7.1 13.207h-.003l-.196-.272a1.61 1.61 0 0 1 0-1.877l3.228-4.507l1.33 1.86l-1.52 2.123a2.515 2.515 0 0 0 0 2.928l1.52 2.123zM12 9.164l1.359 1.895a1.61 1.61 0 0 1 0 1.878l-1.36 1.896l-1.358-1.894a1.61 1.61 0 0 1 0-1.88L12 9.166zm2.061 4.297a2.52 2.52 0 0 0 0-2.928l-1.52-2.123l1.326-1.85l3.22 4.499a1.61 1.61 0 0 1-.002 1.881l-.515.73l-2.006 2.819a.84.84 0 0 1-.688.356a.84.84 0 0 1-.683-.349l-.654-.912zm6.767-.524l-4.404 6.15a.84.84 0 0 1-.688.355a.84.84 0 0 1-.688-.356l-.978-1.364a1.7 1.7 0 0 0 1.197-.712l1.724-2.42l.002.002l.281-.4l.331-.465l-.002-.002l.187-.267a2.515 2.515 0 0 0 0-2.927l-3.384-4.722l.642-.899a.84.84 0 0 1 .688-.355a.84.84 0 0 1 .69.355l4.402 6.149a1.61 1.61 0 0 1 0 1.878"/><path fill="currentColor" d="M10.123 17.734q-.098-.001-.198-.011l-.945 1.329l.714.513l1.728-2.42a1.71 1.71 0 0 1-1.299.589m3.747 0q.1 0 .2-.012l.944 1.33l-.713.513l-1.72-2.418a1.69 1.69 0 0 0 1.29.587"/><path fill="currentColor" d="m11.454 15.58l.55.766l-.836 1.145l-.55-.744zM9.59 5.8l.542.758l-1.959 2.743l-.683-.551zm1.874 2.61l.533.759l-1.247 1.761l-.684-.554zm1.862-2.601l.538.754l-1.323 1.847l-.54-.754z"/></svg>