<svg xmlns="http://www.w3.org/2000/svg" xmlns:xlink="http://www.w3.org/1999/xlink" width="24" height="24" viewBox="0 0 24 24"><path fill="currentColor" d="M11.85 2.017v1.277l-5 2.923V11.8l-.961.733V5.394zM12.083 2v1.289l6.028 3.489v-1.39z"/><path fill="currentColor" d="M17.945 6.944L11.967 3.5L7.223 6.278l1.144.489l3.55-2.128l3.778 2.217l-4.861 2.95l4.667 2.688l1.122-.544l-3.784-2.078l5.106-2.922z"/><path fill="currentColor" d="m14.55 9.189l-1.222.678l3.666 2.016v5.69l1.117.594v-6.89L14.55 9.184zm3.505 9.21l-1.166-.621l-4.9 2.916l-3.961-2.305l5-2.861L6.972 12l-.961.733L10.85 15.5l-4.783 2.972L11.994 22z"/><path fill="currentColor" d="m5.889 18.306l4.5-2.795l-1.078-.589L5.89 16.94zm7.233-2.99v-1.294l-4.872-2.7V6.967l-1.167-.5v5.322zm-3.455 2.456l-1.167.622l3.367 1.962v-1.39zm2.433 1.206v1.372l4.667-2.778V12.14l-1.145.555v4.278l-3.527 2zm-1.339-9.406l4.484-2.722l-1.028-.644l-3.456 2.022z"/></svg>