<svg xmlns="http://www.w3.org/2000/svg" xmlns:xlink="http://www.w3.org/1999/xlink" width="24" height="24" viewBox="0 0 24 24"><path fill="currentColor" d="M14.858 10.07v-.005c-.14.411-.476 1.44-.747 2.294c-.817 2.405-1.759 3.17-2.111 3.17c-.383 0-1.283-.765-2.118-3.176L9.4 10.835L8.253 7.329a.6.6 0 0 1 .2-.035c.664 0 1.276 1.082 2.094 2.518l.394.694l.235.44c.324.618.576 1.036.824 1.054c.247-.018.5-.436.823-1.06l.235-.434l.395-.694c.817-1.436 1.429-2.518 2.094-2.518q.106 0 .205.035zm.242.824c.24.859.523 1.97.576 2.612c.059.57.118 1.129.176 1.54a.6.6 0 0 0 .6.518h1.771a.245.245 0 0 0 .247-.276c-.353-2.4-1.188-6.47-2.294-7.659L15.1 10.9zm-9.571 4.4c.353-2.406 1.194-6.483 2.306-7.665L8.9 10.888c-.236.865-.524 1.976-.577 2.624c-.059.57-.118 1.129-.176 1.54a.6.6 0 0 1-.6.518H5.776a.24.24 0 0 1-.24-.171a.24.24 0 0 1-.007-.105"/><path fill="currentColor" fill-rule="evenodd" d="M12 22a10 10 0 1 0 0-20a10 10 0 0 0 0 20m0-.588a9.412 9.412 0 1 0 0-18.824a9.412 9.412 0 0 0 0 18.824" clip-rule="evenodd"/></svg>