<svg xmlns="http://www.w3.org/2000/svg" xmlns:xlink="http://www.w3.org/1999/xlink" width="24" height="24" viewBox="0 0 24 24"><path fill="currentColor" fill-rule="evenodd" d="M12 2c5.512 0 10 4.487 10 10c0 5.512-4.488 10-10 10c-5.513 0-10-4.488-10-10C2 6.487 6.487 2 12 2m0 14.375c-1.25-1.113-1.875-2.562-1.875-4.375c0-1.812.625-3.263 1.875-4.375c1.25 1.112 1.875 2.563 1.875 4.375c0 1.813-.625 3.231-1.875 4.375" clip-rule="evenodd"/><path fill="currentColor" d="M2.281 14.394c.038.062 2.232 3.919 5.813 3.856c1.169-.019 2.463-.781 3.906-1.875c1.25-1.113 1.875-2.562 1.875-4.375c0-1.812-.625-3.263-1.875-4.375c0 0 2.013-1.919 4.375-1.875c1.85.031 3.938 1.244 5.488 4.581A10.015 10.015 0 0 1 12 21.975a9.956 9.956 0 0 1-9.719-7.581"/></svg>