<svg xmlns="http://www.w3.org/2000/svg" xmlns:xlink="http://www.w3.org/1999/xlink" width="24" height="24" viewBox="0 0 24 24"><path fill="currentColor" fill-rule="evenodd" d="M12 20.788a9.09 9.09 0 1 0 0-18.181a9.09 9.09 0 0 0 0 18.18M12 20a8.303 8.303 0 1 0 0-16.606A8.303 8.303 0 0 0 12 20" clip-rule="evenodd"/><path fill="currentColor" fill-rule="evenodd" d="M12 20.327a8.634 8.634 0 0 0 8.186-11.99a8.64 8.64 0 0 0-8.185-5.276a8.636 8.636 0 1 0 0 17.272zm0 .212a8.842 8.842 0 1 0 0-17.683a8.842 8.842 0 0 0 0 17.683" clip-rule="evenodd"/><path fill="currentColor" d="M7.617 17.055c-.654.788-1.97 2.37-1.981 2.406c-.067-.085-.4-.067-.576.12a.43.43 0 0 0-.073.425l-.273.06l-.485 1.819l.14.115l1.776-.703l-.103-.376c.109-.006.357-.06.436-.194c.079-.133.06-.333.036-.412l2.206-2.594z"/><path fill="currentColor" d="m6.667 20.249l-1.03-.94l.212-.242l1.03.939zm.26-.352l-1.03-.94l.218-.242l1.03.946zm.358-.352l-1.03-.939l.212-.242l1.03.945zm.26-.284l-1.03-.94l.218-.242l1.03.945zm.213-.352l-1.025-.94l.212-.242l1.03.946zm.284-.345l-1.03-.946l.218-.242l1.03.945zm.382-.352L7.4 17.267l.218-.237l1.03.94zm-2.89 1.546c-.23-.122-.425-.103-.492-.08c.037-.236.425-.266.57-.211c.146.054.667.66.818.794c.122.109.08.157.037.17c-.218-.17-.703-.546-.934-.667z"/><path fill="currentColor" d="m6.327 20.8l-1.006-.86c.182.036.588.15.812.345c.224.2.224.424.194.515m-2 1.115l.097-.303l.158.079l1.151-.334l-1.248.558zm1.388-.794l-.8-.685c0 .012 0 .043.018.085c.018.06.043.121.067.346s-.03.072-.049.133c-.024.06 0 .079-.09.103c-.091.03-.103.127-.158.224c-.049.079.018.133.06.146a6 6 0 0 1 .328-.334c.079-.066.157-.018.182-.018s.109-.036.194-.06c.066-.025.084.03.09.06zm2.722-5.939l-.346-.303l.48-.376l2.12 1.618l-.09.715l-.522-.242l-.424.315l-1.34-.897z"/><path fill="currentColor" d="m8.642 15.958l.043-.594l.375.303zm.618-.073l-.52.279l.484.37zm.164.14l.067.624l.442-.28z"/><path fill="currentColor" d="M12.242 18.97c1.636 0 3.145-.54 4.357-1.455c-.03-.079-.03-.2-.036-.327c0-.133-.006-.26-.042-.34c-.037-.09.036-.096.109-.103c.121-.012.242-.024-.012-.32c.036-.122-.043-.158-.17-.146l-.218.194a2 2 0 0 0-.037-.158c-.042-.151-.09-.127-.315-.012c-.376.188-1.272.642-3.503.927c-2.836.358-4.97-1.727-5.672-2.812c.133.315.594 1.049 1.484 2a6.219 6.219 0 1 1 9.485-1.69a.7.7 0 0 0 .243.078c.181.024.327-.212.436-.54c-.036.304 0 .589.06.607c.085.03.485-1.073.51-1.267c.018-.121.018.503-.08 1.14a7.274 7.274 0 1 0-6.599 4.224m6.109-4.697c.012-.097.036-.2.06-.291c.092-.32.153-.65.182-.982c-.03.345-.109.873-.242 1.273"/><path fill="currentColor" d="M7.436 13.945a.75.75 0 0 1-.873-.212C6.74 14.945 8 14.957 8.612 14.812a4.2 4.2 0 0 0 1.788 1.49c-.2 1.631.86 1.855 1.412 1.758c-.49-.866-.17-1.466.055-1.66l-3.613-2.806a10 10 0 0 1-.818.351"/><path fill="currentColor" d="m8.243 13.818l-.067.679l.68-.224l-.62-.461zm2.564 2.23l-.061.68l.679-.219zm-.134-3.793h-.563l.139.575h-.576l.11.467h-.528v.115h-.151v.279l.824 1.272l4.527-5.09l6.406-7.721l-.17-.152c-1.6.933-2.872.976-3.309.885l-6.212 8.218l-.703.558z"/><path fill="currentColor" d="M10.11 12.255h.563l-.206-.594l.703-.558l1.782-2.352c.485.23 1.097.594.94.776c-.194.218-.867.06-1.176-.048l-.788.909h.763c.085-.012.273.006.273.182c0 .23-.685.406-1.503.375l.842 1.346l-2.375 2.672l-.824-1.272v-.279h.151v-.115h.527l-.109-.467h.576zm6.477-8.315c.352-.08.849-.134 1.213.011c.484.194.697.485.684 1.061l2.376-2.86L20.69 2c-1.6.933-2.872.976-3.309.885zM12.66 13.963l.091.564l-.581-.048l.09.575l-.472-.03l.085.521l-.11.018l.025.158l-.273.042l-1.376-.612l4.412-5.4l6.315-7.6l.182.146c-.654 1.757-.497 3.03-.333 3.454l-7.018 7.522l-.424.8l-.619-.116z"/><path fill="currentColor" d="M18.315 5.23c.594-.473 1.303-.964 1.448-.8c.2.224.485.594.48 1.824l.472-.503c-.164-.424-.321-1.697.327-3.454l-.176-.146z"/><path fill="currentColor" d="m14.085 10.649l5.819-7.043c-2.122 3.127-6.424 9.449-6.606 9.691a2.2 2.2 0 0 1-.534.485h-.394v.564h-.503v.412h-.485v.485l-.636-.213l.545-.684l1.473-.94l-.23-.224l.764-.485l-.273-.267l.582-.4l-.182-.236l.666-1.152z"/><path fill="currentColor" d="M10.581 13.418c-.151.437-.872.897-1.212 1.073l.6.667l.612.339c0-.66 1.249-1.697 1.879-2.133l-.152-.17l.728-.564l-.303-.103l.624-.472l-.206-.104l1.273-2.157l-1.806 1.685l-.17-.26l-.321.836l-.2-.364l-.394.94l-.218-.322l-.582 1.11h-.158z"/><path fill="currentColor" d="m10.818 13.418l-.4.546l.667-.546h.206l2.242-2.57l-.945.916l-.146-.134l-.254.588h-.206l-.394.6l-.237-.121l-.375.721z"/></svg>