<svg xmlns="http://www.w3.org/2000/svg" xmlns:xlink="http://www.w3.org/1999/xlink" width="24" height="24" viewBox="0 0 24 24"><path fill="currentColor" fill-rule="evenodd" d="M21.375 2L12 4.5L2.625 2C2.625 4.112 2 6.375 2 6.375L5.987 17.3L12 22l6.012-4.7L22 6.375c-.063 0-.625-2.263-.625-4.375M12 6.375L4.5 4.5c0 1.844-.412 2.356-.412 2.356l3.537 9.207L9.5 17.625L6.375 7l3.75 1.25l1.25 9.688L12 19.5l.625-1.562l1.25-9.688L17.625 7L14.5 17.625l1.875-1.562l3.537-9.207S19.5 6.07 19.5 4.5z" clip-rule="evenodd"/></svg>