<svg xmlns="http://www.w3.org/2000/svg" xmlns:xlink="http://www.w3.org/1999/xlink" width="24" height="24" viewBox="0 0 24 24"><path fill="currentColor" d="m22 8.49l-3.202-3.245l3.2-3.244zm-.002 6.753l-.002.002l-3.2-3.247l3.2-3.243l.002.001zm0 6.757l-3.203-3.245l3.201-3.244zm-3.332-3.379l-.001-6.487v-.002l3.204 3.245zm0-6.754l-.001-6.487l3.204 3.244zm0 6.754l-3.203-3.245l3.201-3.242v6.485z"/><path fill="currentColor" d="m18.666 11.866l-3.2-3.243l3.2-3.245zm-.111.134l.003.003l-3.203 3.244l-3.202-3.244l.001-.003zm-6.401 0l3.201-3.25L18.558 12zm-.155 6.621v-6.488l3.202 3.244zm0 0l-3.201-3.244l3.201-3.244zM11.889 12l.001.003l-3.202 3.244l-3.201-3.244l.001-.003zm-6.401 0l3.178-3.25L11.889 12zm-.154 6.621v-6.486l3.202 3.242zm0-6.756V5.38l3.202 3.244zm0 6.756l-3.202-3.244l3.2-3.244l.002.001zm0-6.756l-.001.002l-3.201-3.244l3.202-3.244zM2 22v-6.49l3.202 3.244zm0-6.755v-6.49L5.202 12zM2 8.49V2l3.202 3.244z"/></svg>