<svg xmlns="http://www.w3.org/2000/svg" xmlns:xlink="http://www.w3.org/1999/xlink" width="24" height="24" viewBox="0 0 24 24"><path fill="currentColor" d="M11.794 12.906c.206-.376.559-.782.876-1.188c.86.012 1.442.047 2.271-.394c.294-.153.37-.141.459-.482c-1.024 0-1.247.117-2.082.317c.547-.788 2.67-1.294 2.8-2.294c-.736.165-1 .288-1.506.67l-1.206.977c.053-.33.282-.682.412-.976c.188-.442.135-.606.258-1.065c-.358.035-.54.43-.764.747c-.983 1.47-.612 2.665-1.7 3.306c.07-.73.358-1.553.14-2.37c-.617-.06-.687 1.335-.687 2.129c0 1.829.029.94-.6 2.247c-.047-.506-.006-1.677-.147-2.03c-.171-.44-.042-.288-.4-.294c-.26.482-.089 1.83.023 2.37c.088.46.206.636.088 1.018c-.053.165-.282.76-.37.936c-.16-.736-.565-2.042-1.165-1.965c-.17.706.63 1.976 1.035 2.294c-.011.647-.188.835-.206 1.612c.106-.188.136-.288.189-.494c.047-.2.088-.442.105-.647c.783-.024 2.295-.188 2.436-1.236c-.647-.211-1.735.53-2.236.806c.071-.394.389-1.235.6-1.494c.606.153 2.195.047 2.4-.812l-2.3.442l.777-1.43c.847 0 2.588-.259 2.788-1.076c-.994-.118-1.5.223-2.294.376z"/><path fill="currentColor" d="M12.024 2C17.53 2 22 6.553 22 12.165c0 5.659-4.376 8.588-7.441 9.835h-.018c-.741-.941-.47-.765.306-2.665c.565-1.382.47-1.576.682-2.2c.083-.235.242-.412.336-.588c2.688-.035 2.9-.065 2.882-1.176c0-.76-.047-.489.27-.971c-.223-.353-.164-.488-.087-.741c.135-.441-.018-.388-.118-.77c.33-.295.635-.307.835-.754c-.223-.364-.559-.535-.894-.806c-.588-.482-.859-.858-.87-1.164c-.018-.412.358-.7.364-.941c.012-.277-.347-.706-.517-1.018l-.53-1.177c-.576-1.423-1.365-1.564-3.018-1.753c-1.34-.158-2.164-.34-2.864-.335c-.883.006-1.577.5-2.883 1.53a9 9 0 0 1-1.87 1.117c-.906.694-2.177 1.765-2.188 2.924c-.018.5-.012.994-.024 1.488c-.03 1.341.965 1.582 1.118 1.918c.117.247.047.506.206.858c.24.53.211.224.558.506c.306.236.442 1 .653 1.371c.424.741 2.1 1.13 2.424 1.388c-.053.912-.988 2.5-1.647 3.282A10.19 10.19 0 0 1 2 12.154C2.041 6.553 6.512 2 12.024 2"/></svg>