<svg xmlns="http://www.w3.org/2000/svg" xmlns:xlink="http://www.w3.org/1999/xlink" width="24" height="24" viewBox="0 0 24 24"><path fill="currentColor" d="m5.02 7.9l1.002-.649l.94.648l-.94.572zm-1.7.941l-1.001.65l1.002.57l.94-.57zM2 9.75v4.687l4 2.313v-4.626zm4.022-.908l-1.002.65l1.002.57l.94-.57zm-1.002 2.24l1.002-.649l.94.649l-.94.572zm-.365-1.438l-1.001.648l1.002.572l.94-.572zm1.702.648l1.001-.648l.941.648l-.94.572zm2.366-1.45l-1.002.65l1.002.57l.94-.57zM10 14.749v-5h1l1.5 3.318L14 9.749h3.5v1h-2.511v1h2.51v1h-2.51v1h2.51v.686l1.559-2.286l-1.555-2.4h1.217l.958 1.493l.913-1.493h1.307l-1.578 2.4l1.68 2.6h-1.263l-1.06-1.682l-1.048 1.682H14v-2.6l-1 2.6h-1l-1-2.6v2.6z"/></svg>