<svg xmlns="http://www.w3.org/2000/svg" xmlns:xlink="http://www.w3.org/1999/xlink" width="24" height="24" viewBox="0 0 24 24"><path fill="currentColor" fill-rule="evenodd" d="M2.926 5.227L9.416 2.5c.948-.377 3.254-.906 4.893 0c1.639.907 1.601 1.925 1.378 2.32l5.746 1.275l-2.356 1.257l-5.04-1.257l-1.794.709l3.77 2.071l-3.1 1.682zm5.84-.328l2.23-.92c.28-.1.92-.242 1.25 0c.413.302.18.68-.193.92c-.299.191-1.199.6-1.61.78z" clip-rule="evenodd"/><path fill="currentColor" d="M2.303 6.28v10.34l2.424 1.246v-6.123l1.725 4.016l2.517-2.22v6.585L12.606 22V11.493l-3.41-1.601l-2.31 1.765L4.73 7.552zm19.394.91l-8.485 4.2v2.523l3.03-1.464v5.281l-3.03 1.485v2.503l8.485-4.475v-2.481l-2.424 1.42V10.9l2.424-1.273z"/></svg>