<svg xmlns="http://www.w3.org/2000/svg" xmlns:xlink="http://www.w3.org/1999/xlink" width="24" height="24" viewBox="0 0 24 24"><path fill="currentColor" d="M20.398 13.282q-.059 0-.122-.004a.96.96 0 0 1-.613-.25a.8.8 0 0 1-.172-.227a.04.04 0 0 1 0-.032a.04.04 0 0 1 .024-.022a.05.05 0 0 1 .034 0q.016.006.023.022s.046.1.156.202q.221.204.554.224q.412.025.56-.11a.25.25 0 0 0 .079-.201c-.007-.2-.434-.255-.846-.308c-.145-.02-.294-.039-.43-.065c-.325-.062-.589-.199-.76-.395a.83.83 0 0 1-.208-.636c.029-.27.186-.52.444-.702c.287-.204.68-.312 1.138-.313h.002c.443 0 .806.07 1.078.207q.54.272.598.878a.04.04 0 0 1-.01.03a.046.046 0 0 1-.062.005a.04.04 0 0 1-.016-.028a1 1 0 0 0-.18-.505a1 1 0 0 0-.372-.307c-.259-.13-.608-.196-1.036-.196h-.002c-.438 0-.813.102-1.085.295c-.238.169-.383.398-.41.644a.75.75 0 0 0 .189.574c.159.182.404.31.71.368c.133.025.28.044.424.062c.229.03.445.058.613.11q.304.091.31.279a.33.33 0 0 1-.106.263q-.151.137-.506.137"/><path fill="currentColor" d="M20.422 13.519q-.076 0-.159-.005a1.4 1.4 0 0 1-.534-.132a1.1 1.1 0 0 1-.329-.245c-.157-.171-.208-.337-.21-.343a.04.04 0 0 1 .004-.032a.04.04 0 0 1 .027-.02a.05.05 0 0 1 .033.004q.016.008.021.025c0 .002.049.157.195.315q.13.139.302.224q.219.105.496.121q.472.026.718-.105a.5.5 0 0 0 .269-.417c.018-.178-.076-.304-.297-.394c-.205-.083-.49-.125-.766-.164q-.158-.022-.311-.048c-.291-.05-.527-.162-.681-.32a.64.64 0 0 1-.19-.514c.022-.213.154-.407.371-.548c.24-.156.568-.235.946-.228c.802.014 1.256.31 1.312.854l-.001.017l-.008.014a.05.05 0 0 1-.03.016l-.018-.002l-.015-.008l-.011-.013l-.005-.016a.74.74 0 0 0-.404-.604c-.203-.11-.48-.169-.821-.175c-.791-.014-1.192.354-1.229.701a.56.56 0 0 0 .168.45c.141.145.36.246.632.294c.099.017.206.032.309.047c.28.04.572.083.788.17c.257.106.37.262.349.48a.58.58 0 0 1-.313.48c-.151.08-.351.12-.608.12"/><path fill="currentColor" d="M20.433 13.758q-.094 0-.196-.006a1.7 1.7 0 0 1-.696-.174a1.3 1.3 0 0 1-.415-.327c-.194-.23-.246-.451-.249-.46v-.017l.006-.015l.012-.013a.046.046 0 0 1 .062.012l.007.015c0 .002.051.214.234.429c.105.124.237.228.387.304c.188.095.41.15.657.163c.83.044 1.254-.187 1.334-.728c.04-.279-.066-.468-.334-.597c-.245-.118-.586-.167-.917-.215l-.223-.033c-.256-.04-.464-.126-.6-.246c-.128-.112-.19-.252-.174-.393c.018-.155.125-.295.303-.393c.192-.106.452-.156.752-.143q.408.019.649.168a.6.6 0 0 1 .296.457l-.002.017l-.008.014l-.013.01a.04.04 0 0 1-.034.004l-.015-.007a.04.04 0 0 1-.016-.028c-.028-.235-.2-.522-.86-.552c-.284-.012-.527.034-.704.132c-.153.085-.245.202-.26.33c-.012.114.039.229.146.323c.124.11.316.187.555.225l.222.033c.337.048.686.099.943.222c.302.146.427.369.381.683q-.071.481-.489.674c-.19.088-.434.132-.741.132"/><path fill="currentColor" d="M20.453 14q-.126 0-.245-.007a2.1 2.1 0 0 1-.86-.217a1.6 1.6 0 0 1-.5-.409a1.44 1.44 0 0 1-.286-.575a.04.04 0 0 1 .007-.031l.013-.012a.05.05 0 0 1 .033-.005l.016.006a.04.04 0 0 1 .018.027a1.46 1.46 0 0 0 .745.928c.232.12.508.19.818.205c.464.023.803-.018 1.068-.13a1 1 0 0 0 .394-.287a1.1 1.1 0 0 0 .22-.517c.043-.253.005-.45-.114-.604c-.109-.139-.289-.243-.55-.32a6 6 0 0 0-.771-.141l-.137-.02c-.532-.074-.697-.283-.677-.439c.012-.1.096-.185.235-.24c.144-.058.337-.078.557-.06q.286.026.435.152a.4.4 0 0 1 .141.242a.04.04 0 0 1-.02.043a.05.05 0 0 1-.049 0l-.012-.013l-.006-.015q-.056-.286-.497-.325c-.32-.028-.673.042-.696.226c-.009.065.034.132.121.191c.108.073.274.127.481.156l.137.02c.266.036.541.074.784.144c.28.081.476.196.596.35c.134.172.177.39.13.666c-.147.86-.888 1.011-1.53 1.011m-3.348-.091a.05.05 0 0 1-.031-.013a.04.04 0 0 1-.013-.03v-3.324a.04.04 0 0 1 .013-.03a.046.046 0 0 1 .063 0a.04.04 0 0 1 .013.03v3.325a.04.04 0 0 1-.013.03a.05.05 0 0 1-.032.011m.296 0a.05.05 0 0 1-.03-.013a.04.04 0 0 1-.014-.03v-3.324a.04.04 0 0 1 .013-.03a.046.046 0 0 1 .063 0a.04.04 0 0 1 .013.03v3.325a.04.04 0 0 1-.013.03a.05.05 0 0 1-.032.011m.278 0a.05.05 0 0 1-.031-.013a.04.04 0 0 1-.013-.03V10.54a.04.04 0 0 1 .013-.03a.046.046 0 0 1 .063 0a.04.04 0 0 1 .013.03v3.325a.04.04 0 0 1-.013.03a.05.05 0 0 1-.032.011m.297 0a.05.05 0 0 1-.032-.013a.04.04 0 0 1-.013-.03v-3.324a.04.04 0 0 1 .013-.03a.046.046 0 0 1 .063 0a.04.04 0 0 1 .013.03v3.325a.04.04 0 0 1-.013.03a.05.05 0 0 1-.031.011m-.4-3.763a.64.64 0 0 1-.338-.097a.6.6 0 0 1-.224-.257a.54.54 0 0 1 .132-.624a.64.64 0 0 1 .663-.124a.6.6 0 0 1 .273.21a.55.55 0 0 1-.076.724a.63.63 0 0 1-.43.168m0-1.063a.54.54 0 0 0-.288.083a.5.5 0 0 0-.192.22a.46.46 0 0 0-.03.282a.5.5 0 0 0 .143.251a.55.55 0 0 0 .566.106a.5.5 0 0 0 .233-.18a.47.47 0 0 0-.065-.618a.54.54 0 0 0-.367-.144"/><path fill="currentColor" d="M17.575 9.935a.4.4 0 0 1-.26-.096a.345.345 0 0 1-.077-.442a.4.4 0 0 1 .16-.147a.4.4 0 0 1 .425.045a.36.36 0 0 1 .122.176a.34.34 0 0 1-.003.21a.36.36 0 0 1-.126.175a.4.4 0 0 1-.24.079m-.295-.339a.27.27 0 0 0 .064.15a.3.3 0 0 0 .142.093a.3.3 0 0 0 .172.002a.3.3 0 0 0 .144-.089a.27.27 0 0 0 .036-.309a.3.3 0 0 0-.12-.116a.31.31 0 0 0-.37.065a.27.27 0 0 0-.068.204"/><path fill="currentColor" d="M17.585 9.743a.18.18 0 0 1-.117-.043a.156.156 0 0 1-.02-.219a.18.18 0 0 1 .23-.036a.16.16 0 0 1 .073.096q.016.061-.015.117a.2.2 0 0 1-.063.062a.2.2 0 0 1-.088.023m0-.241a.1.1 0 0 0-.066.03a.07.07 0 0 0-.015.068a.1.1 0 0 0 .023.037q.017.015.04.02a.1.1 0 0 0 .046-.003a.1.1 0 0 0 .037-.026a.08.08 0 0 0 .018-.054a.08.08 0 0 0-.027-.052a.1.1 0 0 0-.056-.02m-3.4.36a.04.04 0 0 0-.013-.03a.046.046 0 0 0-.062 0a.04.04 0 0 0-.013.03v.675h.088zm.278-.07a.04.04 0 0 0-.013-.03a.05.05 0 0 0-.031-.012a.05.05 0 0 0-.032.012a.04.04 0 0 0-.012.03v.74h.088zm.296-.053a.04.04 0 0 0-.007-.023a.04.04 0 0 0-.02-.015a.05.05 0 0 0-.048.009a.04.04 0 0 0-.013.03v.804h.088zm.278-.07a.04.04 0 0 0-.013-.029a.05.05 0 0 0-.048-.009a.04.04 0 0 0-.024.023l-.003.016v.868h.088zm1.453 4.076l-.011-.012l-.016-.007a.05.05 0 0 0-.034.005c-.126.07-.383.147-.724.155a1.9 1.9 0 0 1-.916-.195q-.28-.151-.431-.404a1.34 1.34 0 0 1-.173-.698v-1.216h-.088v1.216q0 .432.184.74q.163.272.464.434c.311.168.656.207.907.207h.055c.3-.008.594-.071.767-.168a.04.04 0 0 0 .02-.025a.04.04 0 0 0-.004-.031"/><path fill="currentColor" d="M14.375 12.46c0 .406.117.722.35.936q.186.172.46.25a1.7 1.7 0 0 0 .515.063c.317-.006.607-.092.742-.168a.04.04 0 0 0 .02-.026a.04.04 0 0 0-.005-.031a.04.04 0 0 0-.027-.02a.05.05 0 0 0-.033.005c-.13.074-.412.15-.699.157c-.484.01-.763-.152-.911-.29c-.215-.198-.324-.493-.324-.876v-1.087h-.088z"/><path fill="currentColor" d="M14.671 12.33q.001.606.32.892c.17.15.41.229.696.229l.097-.003c.242-.014.523-.099.644-.169a.04.04 0 0 0 .02-.026a.04.04 0 0 0-.006-.03a.04.04 0 0 0-.027-.02a.05.05 0 0 0-.033.005a1.6 1.6 0 0 1-.695.16c-.33 0-.526-.11-.635-.207c-.194-.172-.293-.452-.293-.83v-.958h-.088z"/><path fill="currentColor" d="M14.949 12.2c0 .402.096.686.286.844q.182.151.473.152q.071 0 .142-.009c.2-.023.457-.116.546-.17a.04.04 0 0 0 .015-.014a.04.04 0 0 0 .006-.02a.04.04 0 0 0-.005-.02a.04.04 0 0 0-.014-.015a.05.05 0 0 0-.05 0c-.068.04-.31.134-.509.156q-.35.04-.545-.122q-.256-.215-.257-.781v-.828h-.088z"/><path fill="currentColor" d="M16.306 11.421h-2.832a.05.05 0 0 1-.03-.013a.04.04 0 0 1-.013-.029a.04.04 0 0 1 .013-.029a.05.05 0 0 1 .03-.012h2.832q.017 0 .03.012a.04.04 0 0 1 .013.03a.04.04 0 0 1-.013.028a.05.05 0 0 1-.03.013m0-.28h-2.832a.05.05 0 0 1-.03-.012a.04.04 0 0 1-.013-.029a.04.04 0 0 1 .013-.029a.05.05 0 0 1 .03-.012h2.832q.017 0 .03.012a.04.04 0 0 1 .013.03a.04.04 0 0 1-.013.028a.05.05 0 0 1-.03.013m0-.26h-2.832a.05.05 0 0 1-.031-.013a.04.04 0 0 1-.013-.03a.04.04 0 0 1 .013-.029l.014-.009l.017-.003h2.832a.05.05 0 0 1 .03.012a.04.04 0 0 1 .014.03q0 .008-.004.015a.04.04 0 0 1-.023.023zm0-.28h-2.832a.05.05 0 0 1-.03-.013a.04.04 0 0 1-.013-.029a.04.04 0 0 1 .013-.029a.05.05 0 0 1 .03-.012h2.832q.017 0 .03.012a.04.04 0 0 1 .013.03a.04.04 0 0 1-.013.028a.05.05 0 0 1-.03.013m-4.184 3.305a.05.05 0 0 1-.031-.012a.04.04 0 0 1-.013-.03V9.268a.04.04 0 0 1 .012-.029a.046.046 0 0 1 .073.014l.003.015v4.596q0 .009-.003.016l-.01.014a.05.05 0 0 1-.031.012m.296 0a.05.05 0 0 1-.031-.012a.04.04 0 0 1-.013-.03V9.268a.04.04 0 0 1 .013-.029a.05.05 0 0 1 .031-.012q.018 0 .031.012a.04.04 0 0 1 .013.03v4.595a.04.04 0 0 1-.013.03a.05.05 0 0 1-.03.012m.278 0l-.017-.003a.05.05 0 0 1-.024-.023l-.003-.016V9.268a.04.04 0 0 1 .013-.029a.05.05 0 0 1 .048-.009a.04.04 0 0 1 .024.023l.003.015v4.596a.04.04 0 0 1-.013.03a.05.05 0 0 1-.031.012m.296 0a.05.05 0 0 1-.03-.012a.04.04 0 0 1-.014-.03V9.268a.04.04 0 0 1 .013-.029a.046.046 0 0 1 .063 0a.04.04 0 0 1 .013.03v4.595a.04.04 0 0 1-.013.03a.05.05 0 0 1-.032.012m-2.56-.407q0-.108-.006-.217a.05.05 0 0 0-.028.014a.04.04 0 0 0-.011.027c0 .2-.149.328-.272.4a1.3 1.3 0 0 1-.65.153h-.003q-.246 0-.48-.072a1.3 1.3 0 0 1-.435-.223a1.1 1.1 0 0 1-.316-.392a1.3 1.3 0 0 1-.122-.582v-2.065a.04.04 0 0 0-.007-.023a.04.04 0 0 0-.02-.015a.05.05 0 0 0-.048.008a.04.04 0 0 0-.013.03v2.065c0 .437.162.796.469 1.037q.199.157.464.24q.248.075.507.075h.003c.264 0 .512-.059.697-.166a.64.64 0 0 0 .271-.278z"/><path fill="currentColor" d="M10.393 12.88a.04.04 0 0 0-.014.03a.6.6 0 0 1-.272.503a1.1 1.1 0 0 1-.625.183c-.546 0-1.095-.346-1.095-1.117v-1.937a.04.04 0 0 0-.008-.023a.04.04 0 0 0-.02-.015a.05.05 0 0 0-.048.008a.04.04 0 0 0-.013.03v1.937c0 .383.13.698.377.914c.212.184.498.286.806.286h.001c.257 0 .497-.071.678-.2a.75.75 0 0 0 .252-.3z"/><path fill="currentColor" d="m10.392 12.483l-.003.014a.79.79 0 0 1-.263.612a.9.9 0 0 1-.58.213c-.43 0-.863-.3-.863-.97v-1.81a.04.04 0 0 0-.013-.03a.05.05 0 0 0-.03-.012a.05.05 0 0 0-.032.012a.04.04 0 0 0-.013.03v1.81c0 .33.102.605.296.794c.17.167.403.259.655.259a.98.98 0 0 0 .64-.235a.84.84 0 0 0 .217-.297a5 5 0 0 1-.011-.39"/><path fill="currentColor" d="M10.408 12.158a.1.1 0 0 1 .01-.033l-.015-.077a.04.04 0 0 0-.016.016a.04.04 0 0 0-.006.02c0 .377-.134.604-.246.728a.7.7 0 0 1-.519.242a.6.6 0 0 1-.45-.201c-.134-.15-.205-.367-.205-.629v-1.682a.04.04 0 0 0-.013-.03a.05.05 0 0 0-.031-.012a.05.05 0 0 0-.031.012a.04.04 0 0 0-.013.03v1.682c0 .283.078.518.226.683c.133.148.317.23.517.23a.8.8 0 0 0 .586-.27a1 1 0 0 0 .181-.297c0-.137.005-.275.025-.412"/><path fill="currentColor" d="M10.417 13.91a.05.05 0 0 1-.03-.012a.04.04 0 0 1-.014-.03V10.56a.04.04 0 0 1 .013-.029a.05.05 0 0 1 .031-.012a.05.05 0 0 1 .041.025l.004.016v3.31l-.004.015a.04.04 0 0 1-.024.023zm.297 0a.05.05 0 0 1-.032-.012a.04.04 0 0 1-.012-.03V10.56a.04.04 0 0 1 .013-.029a.05.05 0 0 1 .03-.012q.02 0 .032.012a.04.04 0 0 1 .013.03v3.309l-.003.015a.04.04 0 0 1-.024.023zm.278 0a.05.05 0 0 1-.032-.012a.04.04 0 0 1-.013-.03V10.56a.04.04 0 0 1 .013-.029a.046.046 0 0 1 .063 0a.04.04 0 0 1 .013.03v3.309l-.003.016a.04.04 0 0 1-.024.022zm.296 0a.05.05 0 0 1-.031-.012l-.01-.013l-.003-.016v-3.31a.04.04 0 0 1 .013-.029a.046.046 0 0 1 .062 0a.04.04 0 0 1 .013.03v3.309a.04.04 0 0 1-.013.03a.05.05 0 0 1-.03.011m-3.924-2.716a1.2 1.2 0 0 0-.3-.414a1.54 1.54 0 0 0-.914-.362a1.7 1.7 0 0 0-.899.168a1 1 0 0 0-.398.356a1 1 0 0 1 .064.063a1 1 0 0 1 .079-.115a1 1 0 0 1 .298-.23a1.64 1.64 0 0 1 .85-.159c.336.025.641.146.859.34c.12.108.216.24.28.385q.106.244.106.548v2.1a.04.04 0 0 0 .013.03a.05.05 0 0 0 .048.01a.04.04 0 0 0 .024-.023l.003-.016v-2.101q0-.32-.113-.58"/><path fill="currentColor" d="M5.293 10.937c.2-.127.457-.19.724-.177c.287.013.551.115.742.286c.22.196.336.478.336.814v2.016a.04.04 0 0 0 .013.03q.014.011.03.012a.05.05 0 0 0 .032-.012a.04.04 0 0 0 .013-.03V11.86c0-.36-.125-.662-.363-.875a1.3 1.3 0 0 0-.799-.308a1.34 1.34 0 0 0-.778.191a.9.9 0 0 0-.26.242q.024.045.042.094a.8.8 0 0 1 .268-.267"/><path fill="currentColor" d="M5.091 11.501a.76.76 0 0 1 .225-.289a.94.94 0 0 1 .607-.192a.94.94 0 0 1 .617.237c.183.167.28.406.28.69v1.933a.04.04 0 0 0 .008.023a.04.04 0 0 0 .02.015a.05.05 0 0 0 .048-.009a.04.04 0 0 0 .013-.03v-1.931c0-.308-.106-.568-.307-.75a1.03 1.03 0 0 0-.677-.261a1.04 1.04 0 0 0-.665.211a.9.9 0 0 0-.185.2q.012.068.015.134z"/><path fill="currentColor" d="M5.325 11.466a.7.7 0 0 1 .493-.202a.72.72 0 0 1 .487.19a.76.76 0 0 1 .222.566v1.847a.04.04 0 0 0 .008.023a.04.04 0 0 0 .02.015l.025.003l.023-.011a.04.04 0 0 0 .013-.03V12.02c0-.551-.402-.84-.798-.84a.8.8 0 0 0-.304.06a.8.8 0 0 0-.254.17a.8.8 0 0 0-.166.247l.01.313a.83.83 0 0 1 .221-.504"/><path fill="currentColor" d="M2.044 13.935a.05.05 0 0 1-.031-.012a.04.04 0 0 1-.013-.03v-2.156c0-.412.168-.757.485-.997c.278-.21.656-.327 1.062-.327q.299 0 .584.084q.291.088.513.253c.33.246.506.594.506 1.005v2.117a.04.04 0 0 1-.013.029a.05.05 0 0 1-.031.012a.05.05 0 0 1-.032-.012a.04.04 0 0 1-.013-.03v-2.116c0-.385-.163-.71-.472-.94a1.6 1.6 0 0 0-.485-.238a2 2 0 0 0-.557-.08c-.386 0-.744.109-1.007.308a1.12 1.12 0 0 0-.452.932v2.156a.04.04 0 0 1-.013.03a.05.05 0 0 1-.03.012"/><path fill="currentColor" d="m2.322 13.93l-.017-.002a.04.04 0 0 1-.024-.023l-.003-.016v-2.064c0-.357.138-.656.4-.865c.23-.184.542-.285.877-.285c.341 0 .66.104.9.293c.27.213.412.516.412.875v2.032a.04.04 0 0 1-.013.03a.05.05 0 0 1-.031.012a.05.05 0 0 1-.031-.012a.04.04 0 0 1-.013-.03v-2.032a1 1 0 0 0-.382-.811a1.2 1.2 0 0 0-.392-.205a1.5 1.5 0 0 0-.45-.069c-.314 0-.605.095-.82.266a.99.99 0 0 0-.369.8v2.065a.04.04 0 0 1-.013.03a.04.04 0 0 1-.03.012"/><path fill="currentColor" d="m2.6 13.927l-.017-.003a.04.04 0 0 1-.024-.023l-.003-.015v-1.973c0-.3.109-.554.314-.732c.183-.157.429-.245.693-.245c.267 0 .515.09.701.25c.21.182.32.44.32.746v1.947a.04.04 0 0 1-.012.03a.05.05 0 0 1-.048.009a.04.04 0 0 1-.024-.023l-.004-.015v-1.948a.87.87 0 0 0-.291-.684a.98.98 0 0 0-.642-.228a.96.96 0 0 0-.633.223a.86.86 0 0 0-.286.67v1.973a.04.04 0 0 1-.013.029a.04.04 0 0 1-.031.012"/><path fill="currentColor" d="M4.258 13.907a.05.05 0 0 1-.031-.012l-.01-.013l-.003-.016v-1.863c0-.232-.07-.425-.204-.558a.63.63 0 0 0-.683-.134a.6.6 0 0 0-.201.132a.74.74 0 0 0-.204.54v1.881a.04.04 0 0 1-.013.03a.05.05 0 0 1-.031.012a.05.05 0 0 1-.031-.013a.04.04 0 0 1-.013-.029v-1.88c0-.245.079-.452.228-.599a.7.7 0 0 1 .23-.151a.73.73 0 0 1 .783.154c.148.149.227.362.227.615v1.863a.04.04 0 0 1-.013.03l-.014.008z"/></svg>