<svg xmlns="http://www.w3.org/2000/svg" xmlns:xlink="http://www.w3.org/1999/xlink" width="24" height="24" viewBox="0 0 24 24"><path fill="currentColor" d="M2.625 18.25h18.75V22H2.625zM10.75 2h1.875v14.375H10.75z"/><path fill="currentColor" d="M13.556 7h3.419s.037-.206.025-.519c-.05-1.025-.5-3.231-5.094-3.231c-5.087 0-5.187 3.069-5.187 3.525c0 .356-.207 2.619 2.787 3.375c3 .756 4.369.831 4.369 1.938c0 1.112-.969 1.437-1.775 1.437c-.813 0-1.975-.081-1.975-1.525h-3.75s-.263 3.75 5.531 3.75s5.719-3.5 5.719-4.031c0-.5-.113-2.456-3.4-3.269c-3.281-.812-4.1-.825-4.1-1.969c0-.937 1.3-1.043 1.937-1.043c.457 0 1.494-.007 1.494 1.562"/></svg>