<svg xmlns="http://www.w3.org/2000/svg" xmlns:xlink="http://www.w3.org/1999/xlink" width="24" height="24" viewBox="0 0 24 24"><path fill="currentColor" d="m7.482 14.18l-4.516 5.08V4.564a2.258 2.258 0 1 1 4.516 0z"/><path fill="currentColor" d="m7.32 10.549l-.2-7.218l12.456 15.018a2.215 2.215 0 0 1-.32 3.148a2.273 2.273 0 0 1-3.167-.326zm-4.35 8.536l4.517-5.361v6.018a2.258 2.258 0 0 1-4.517 0z"/><path fill="currentColor" d="m2.97 5.277l4.517 5.524V4.565a2.258 2.258 0 0 0-4.517 0zm17.84 1.034c.148-.367.225-.76.224-1.157C21.034 3.412 19.59 2 17.808 2c-1.781 0-3.226 1.412-3.226 3.154c0 .387.071.758.202 1.1c.611 2.003 2.21 3.562 3.007 4.134c1.78-1.31 2.663-2.978 3.019-4.077"/><path fill="currentColor" d="M17.809 6.516a1.29 1.29 0 1 0 0-2.581a1.29 1.29 0 0 0 0 2.581"/></svg>