<svg xmlns="http://www.w3.org/2000/svg" xmlns:xlink="http://www.w3.org/1999/xlink" width="24" height="24" viewBox="0 0 24 24"><path fill="currentColor" d="m7.721 12l-5.555 6.904c-.194-.114-.177-.434-.149-.583L3.395 12zm3.961 2.829L7.727 12l-5.566 6.915c.125.155.44.115.577.069zM7.727 12H3.389c.617-2.195 1.869-6.63 1.931-6.824c.058-.189.246-.331.338-.377z"/><path fill="currentColor" d="M6.282 4.805c-.24-.16-.515-.069-.63 0l2.081 7.2l9.31.567C13.557 10.08 6.527 4.97 6.282 4.805"/><path fill="currentColor" d="M11.688 14.846L7.72 12l4.4.234z"/><path fill="currentColor" d="m17.032 12.572l-4.915-.355l-.446 2.612l7.07 4.298c.154.103.491.303.64.303c.154 0 .308-.04.371-.057l-2.726-6.801z"/><path fill="currentColor" d="M21.112 12.469H16.94l2.8 6.904c.355-.08.56-.446.606-.612l.766-6.286z"/><path fill="currentColor" d="m16.98 12.572l-4.4-3.207l8.458-4.646c.074-.08.309-.212.64-.115c.332.098.343.492.309.675l-.892 7.293z"/></svg>