<svg xmlns="http://www.w3.org/2000/svg" xmlns:xlink="http://www.w3.org/1999/xlink" width="24" height="24" viewBox="0 0 24 24"><path fill="currentColor" d="m13.094 13.112l-.488 1.241H11.37l-.46-1.265l.883-1.941h.13L11.9 12.97a.353.353 0 1 0 .2 0l.023-1.823h.13z"/><path fill="currentColor" d="M15.053 15.335h-6.1l-.035-.165c-.018-.088-.412-2.147.464-2.976q.495-.44 1.06-.765c.47-.294.84-.53.84-.806v-.164c0-.277-.37-.506-.84-.8a6.7 6.7 0 0 1-1.06-.771C8.5 8.064 8.9 6 8.918 5.912l.035-.165h6.1l.03.165c.017.088.411 2.147-.46 2.976a7 7 0 0 1-1.064.77c-.47.295-.841.53-.841.8v.165c0 .277.37.506.84.8c.377.224.736.483 1.06.77c.882.83.482 2.89.47 2.977zm-5.677-.394h5.253c.1-.647.177-1.97-.382-2.5a6.7 6.7 0 0 0-.994-.718c-.547-.34-1.024-.64-1.024-1.1v-.164c0-.46.471-.753 1.024-1.1c.353-.206.688-.447.994-.718c.559-.53.482-1.882.382-2.524H9.376c-.1.647-.176 2 .383 2.524c.306.27.635.512.988.718c.553.34 1.024.64 1.024 1.1v.164c0 .46-.471.753-1.024 1.1a6.6 6.6 0 0 0-.988.718c-.559.53-.483 1.859-.383 2.5m6.154-10H8.47v.588h7.06zm0 10.589H8.47v.588h7.06z"/><path fill="currentColor" d="m10.735 7.294l-.511-.812l.135-.094l.176.294l.03-.082a.2.2 0 0 1 .064-.06l.089-.034c.023 0 .047 0 .07.011a.1.1 0 0 1 .047.036l.06.094l.14.217l.047.083l.012.059a.16.16 0 0 1-.088.129a.2.2 0 0 1-.088.035a.4.4 0 0 1-.077-.011l.03.058l-.136.083zm.024-.57a.1.1 0 0 0-.047-.042a.07.07 0 0 0-.065.012a.08.08 0 0 0-.041.082c0 .006 0 .018.012.024l.14.235a.08.08 0 0 0 .083.035l.035-.011a.07.07 0 0 0 .036-.06a.1.1 0 0 0-.018-.058zm.671.417a.4.4 0 0 1 .029-.07a.2.2 0 0 1 .047-.053a.2.2 0 0 1 .105-.036a.26.26 0 0 1 .136.018a.3.3 0 0 1 .106.07a.3.3 0 0 1 .053.1a.2.2 0 0 1 0 .065l-.024.077l-.082.217a.4.4 0 0 1-.03.071a.2.2 0 0 1-.047.047a.2.2 0 0 1-.1.041a.4.4 0 0 1-.135-.023a.3.3 0 0 1-.106-.07a.2.2 0 0 1-.053-.1a.2.2 0 0 1 0-.06l.024-.082zm.058.288a.08.08 0 0 0 0 .06q.018.034.053.04a.05.05 0 0 0 .059 0a.08.08 0 0 0 .04-.047l.095-.253a.08.08 0 0 0 0-.058a.1.1 0 0 0-.047-.042a.1.1 0 0 0-.059 0a.08.08 0 0 0-.041.048l-.094.252zm.024 1.012l-.06-.053a.2.2 0 0 1-.04-.059a.2.2 0 0 1-.006-.105a.32.32 0 0 1 .152-.212a.2.2 0 0 1 .107-.024c.023 0 .047 0 .064.012l.07.041l.177.136l.06.052l.04.06c.012.029.012.07.006.105a.3.3 0 0 1-.053.118a.3.3 0 0 1-.1.088a.2.2 0 0 1-.106.024a.2.2 0 0 1-.064-.012l-.065-.041zm.294.018a.08.08 0 0 0 .059.018a.1.1 0 0 0 .053-.036a.08.08 0 0 0-.018-.118l-.218-.152a.08.08 0 0 0-.059-.018a.1.1 0 0 0-.047.035a.08.08 0 0 0-.023.059a.08.08 0 0 0 .041.053zm-.171 1.276l.324-.912l.152.06l-.194.54l.289-.217l.153.059l-.277.2l.082.458L12 9.865l-.036-.336l-.105.077l-.071.176zm-3.341 9.324v-2.353h.677c.129 0 .258.012.382.047q.14.046.253.135a.5.5 0 0 1 .147.188a.6.6 0 0 1 .041.224v.082a.5.5 0 0 1-.023.165a.3.3 0 0 1-.06.118a.8.8 0 0 1-.235.159a.4.4 0 0 1 .236.164a.5.5 0 0 1 .082.294v.136a.59.59 0 0 1-.206.476q-.208.166-.665.165zm.459-2.035v.647h.212a.44.44 0 0 0 .311-.089a.34.34 0 0 0 .083-.24a.3.3 0 0 0-.088-.236a.5.5 0 0 0-.324-.082zm0 .94v.754h.2a.7.7 0 0 0 .218-.03a.26.26 0 0 0 .117-.082a.25.25 0 0 0 .053-.124a1.2 1.2 0 0 0 0-.317a.23.23 0 0 0-.059-.112a.26.26 0 0 0-.123-.065a.8.8 0 0 0-.206-.023zm1.447-.693c0-.083.024-.17.07-.247a.6.6 0 0 1 .183-.177a1 1 0 0 1 .247-.106c.276-.073.57-.035.818.106q.106.07.176.177c.047.076.07.164.07.247v1.223a.45.45 0 0 1-.07.247a.6.6 0 0 1-.177.177a1.12 1.12 0 0 1-.811.106a.8.8 0 0 1-.253-.106a.55.55 0 0 1-.176-.17a.45.45 0 0 1-.071-.248v-1.23zm.47 1.223c0 .035 0 .07.018.1s.041.059.077.077a.45.45 0 0 0 .44 0a.18.18 0 0 0 .088-.177v-1.223a.2.2 0 0 0-.017-.1a.2.2 0 0 0-.07-.077a.45.45 0 0 0-.441 0a.2.2 0 0 0-.077.077a.2.2 0 0 0-.018.1zm1.418-1.223c0-.083.024-.17.07-.247a.6.6 0 0 1 .177-.177a1.09 1.09 0 0 1 1.06 0a.6.6 0 0 1 .181.177a.5.5 0 0 1 .071.247v1.223a.4.4 0 0 1-.07.247a.6.6 0 0 1-.177.177a1.12 1.12 0 0 1-.812.106a.8.8 0 0 1-.247-.106a.55.55 0 0 1-.182-.177a.45.45 0 0 1-.07-.247zm.47 1.223q-.008.054.018.1a.2.2 0 0 0 .071.077a.45.45 0 0 0 .441 0a.2.2 0 0 0 .07-.077a.2.2 0 0 0 .018-.1v-1.223a.2.2 0 0 0-.017-.1a.2.2 0 0 0-.07-.077a.45.45 0 0 0-.442 0a.2.2 0 0 0-.094.177v1.223zm2.918-1.082a1 1 0 0 0-.423-.13l.382-.558c.094-.142-.047-.3-.264-.3l-.583.906v-.624c-.259 0-.47.147-.47.335v2c.264 0 .47-.147.47-.33v-.91c0-.036.012-.071.024-.1a.2.2 0 0 1 .07-.077a.56.56 0 0 1 .541 0a.3.3 0 0 1 .083.094q.026.054.018.117v.941c0 .148.176.271.382.271v-1.212a.44.44 0 0 0-.053-.235a.5.5 0 0 0-.177-.188"/><path fill="currentColor" d="M12 22a10 10 0 1 1 0-20a10 10 0 0 1 0 20m0-19.776a9.777 9.777 0 1 0 0 19.553a9.777 9.777 0 0 0 0-19.553"/></svg>