<svg xmlns="http://www.w3.org/2000/svg" xmlns:xlink="http://www.w3.org/1999/xlink" width="24" height="24" viewBox="0 0 24 24"><path fill="currentColor" d="M2 6.894C2 4.918 3.388 4.06 4.606 4.06c1.782 0 3.87 1.188 5.159 2.317A4.06 4.06 0 0 0 12 7.365a4.06 4.06 0 0 0 2.235-.989c1.294-1.129 3.377-2.317 5.16-2.317c1.217 0 2.605.859 2.605 2.835c0 1.97-1.865 4.935-4.424 6.435c.389.389 2.071 2.406 2.071 4.077c0 1.676-1.206 2.535-2.2 2.535c-1.653 0-2.447-.853-3.176-1.647c-.63-.676-1.218-1.288-2.271-1.294c-1.053.006-1.641.618-2.27 1.294c-.73.794-1.524 1.647-3.177 1.647c-1 0-2.2-.859-2.2-2.53c0-1.676 1.682-3.693 2.07-4.082C3.866 11.83 2 8.865 2 6.894m2.953 1.241c.23.53 1.206 1.953 3.253 3.395c.43-.348 1.341-1.248 1.341-2.018c0-.777-1.735-2.365-3.341-2.365c-.906 0-1.253.559-1.253.988m10.882 3.395c2.053-1.442 3.03-2.865 3.259-3.395c0-.43-.353-.988-1.259-.988c-1.606 0-3.34 1.588-3.34 2.365c0 .77.91 1.67 1.346 2.018zm-3.835-1a75 75 0 0 0-1.841 1.764c.911.241 1.588.276 1.823.259c.236.017.942-.018 1.906-.259A70 70 0 0 0 12 10.53m-2.73 5.44a5.9 5.9 0 0 0-1.411-1.652c-.912.817-1.218 1.629-1.218 2.147c0 .511.394.9.783.9c.835 0 1.494-.906 1.758-1.27a.4.4 0 0 1 .089-.118zm6.918-1.652a5.9 5.9 0 0 0-1.412 1.653l.089.117c.264.37.917 1.277 1.753 1.277c.394 0 .782-.389.782-.9c0-.518-.3-1.33-1.212-2.147"/><path fill="currentColor" d="M8.129 19.612c-.424.2-.942.33-1.577.33c-1 0-2.2-.86-2.2-2.53c0-1.676 1.677-3.688 2.07-4.076c.489.288.983.617 1.43.988c-.912.811-1.147 1.63-1.147 2.14c0 .513.33.9.718.9c.835 0 1.511-.928 1.776-1.293l.07-.1c.177.353.277.717.277 1.094c0 1.053-.682 1.93-1.412 2.547zm9.458-6.259c.43.424 2.06 2.412 2.06 4.059c0 1.67-1.207 2.53-2.2 2.53a3.65 3.65 0 0 1-1.483-.289c-.753-.612-1.612-1.512-1.612-2.588c0-.377.241-.741.423-1.094c.2.27.918 1.394 1.842 1.394c.394 0 .782-.388.782-.9s-.3-1.33-1.206-2.141a11 11 0 0 1 1.4-.977zM7.576 4.9a11.2 11.2 0 0 1 2.188 1.477a4.06 4.06 0 0 0 2.235.988a4.06 4.06 0 0 0 2.235-.988a11 11 0 0 1 2.236-1.5a6.4 6.4 0 0 1 1.623-.23c1 0 1.553.612 1.553 1.6c0 1.03-.382 1.883-1.117 2.77c.294-.382.482-.687.564-.882c0-.429-.353-.988-1.259-.988c-1.605 0-3.34 1.588-3.34 2.365c0 .765.888 1.647 1.329 2a6.1 6.1 0 0 1-1.941.782a58 58 0 0 0-1.883-1.764a75 75 0 0 0-1.841 1.764l.276.07a5.65 5.65 0 0 1-2.223-.846c.441-.347 1.335-1.235 1.335-2.006c0-.777-1.735-2.365-3.341-2.365c-.906 0-1.253.559-1.253.988c.024.065.059.142.118.23a4.1 4.1 0 0 1-.718-2.118c0-.988.512-1.6 1.506-1.6a6.6 6.6 0 0 1 1.718.253"/></svg>