<svg xmlns="http://www.w3.org/2000/svg" xmlns:xlink="http://www.w3.org/1999/xlink" width="24" height="24" viewBox="0 0 24 24"><path fill="currentColor" fill-rule="evenodd" d="M12 22a10 10 0 1 0 0-20a10 10 0 0 0 0 20m0-.4a9.6 9.6 0 1 0 0-19.2a9.6 9.6 0 0 0 0 19.2" clip-rule="evenodd"/><path fill="currentColor" d="m10.918 5.788l1.029-1.406c.035-.041.065-.041.1 0l1.012 1.412c-.612-.03-.77.706-.188.806a7.6 7.6 0 0 1 1.517.4c.247.094.57-.077.5-.383c-.047-.205-.194-.352-.441-.429q-.123-.043 0-.076l1.6-.4q.105-.034.053.064l-1.135 2.03c-.03.053-.071.064-.124.053c-1.87-.565-3.765-.56-5.676.017c-.047.018-.089 0-.112-.047L7.9 5.77c-.035-.058-.018-.076.041-.058l1.482.37c.147.035.16.088.018.165c-.259.141-.506.33-.27.659a.35.35 0 0 0 .411.117a6.2 6.2 0 0 1 1.57-.423c.577-.077.371-.865-.234-.812m-3.306 4.4l-.118.059a.2.2 0 0 1-.094.041c-.07 0-.094-.023-.077-.082c.16-.542.56-1.012.894-1.47a.87.87 0 0 1 .412-.29c.865-.3 1.67-.481 2.43-.534c.023 0 .04.023.03.04a.88.88 0 0 1-.46.413c-.647.247-1.2.352-1.494 1.058c-.253.589-.447 1.547-1.076 1.836c-.453.206-.553.782-.612 1.217c-.012.118-.035.118-.059 0a3.1 3.1 0 0 1-.059-1.2c.047-.364.265-.664.365-1.017c.024-.077 0-.1-.082-.07"/><path fill="currentColor" d="M12.454 11.635q-.001.378.146.024a1.7 1.7 0 0 0 .118-.412c0-.03.012-.059.041-.076c.024-.024.06-.03.089-.036q.263-.002.535.042q.661.116 1.147-.236q.089-.05 0-.112c-.447-.34-1.118-.158-1.641-.047c-.094.018-.106 0-.035-.064c.411-.371.94-.512 1.564-.43l.165.006q.17 0 .223.141c.124.324.295.959.689 1.077c.035.011.047.047.023.07a5.5 5.5 0 0 0-.859 1.388c-.07.165-.294.242-.47.177l-.965-.388q-.08-.037-.088-.1a.5.5 0 0 0-.259-.341a.2.2 0 0 0-.182-.018a.15.15 0 0 0-.089.076c-.035.089 0 .118.095.1q.116-.026.205.124c.03.059.024.118-.023.165a.2.2 0 0 1-.053.035l-.653.259a.4.4 0 0 1-.265.018a4.6 4.6 0 0 1-.764-.295a.156.156 0 0 1 .04-.294a.3.3 0 0 1 .142-.006c.07.012.076-.059.07-.1c-.011-.053-.047-.082-.1-.088c-.3-.047-.388.159-.452.365a.17.17 0 0 1-.106.106l-.906.364q-.37.15-.518-.176a8 8 0 0 0-.83-1.377c-.029-.035-.023-.058.03-.082c.424-.153.53-.753.688-1.106a.13.13 0 0 1 .112-.076q1.034-.157 1.636.258c.276.195.246.248-.1.165c-.448-.106-1-.2-1.4.083a.083.083 0 0 0 0 .141q.617.378 1.482.164q.266-.06.347.177l.135.494c.018.059.118.088.118.012l-.018-1.347c0-.053-.03-.088-.082-.118a7.1 7.1 0 0 0-1.918-.506c-.059-.006-.07-.035-.053-.082q.355-.757 1.018-.8c.635-.035.959-.535 1.182-1c.024-.047.059-.065.118-.065l.4-.006q.046-.002.082.024c.024.012.041.03.06.059c.205.435.582.982 1.181.988c.483.006.836.441 1.03.812c.023.035.006.059-.035.059a7.2 7.2 0 0 0-1.965.54a.11.11 0 0 0-.077.1v1.171z"/><path fill="currentColor" d="M16.235 10.224a.25.25 0 0 0 .018.205c.376.647.47 1.324.265 2.041c-.041.142-.065.142-.077-.011a2.3 2.3 0 0 0-.253-.912c-.147-.282-.464-.294-.682-.518a1.2 1.2 0 0 1-.27-.376c-.213-.43-.413-.882-.607-1.347c-.14-.33-.458-.788-.858-.824a3 3 0 0 1-.5-.082a.5.5 0 0 1-.277-.182l-.135-.189c-.077-.094-.047-.14.076-.129q1.35.13 2.595.606c.058.017.1.059.129.106q.309.51.688.97q.238.292.353.67c.018.066 0 .095-.07.077a.66.66 0 0 1-.283-.14a.078.078 0 0 0-.117.034z"/><path fill="currentColor" d="M15.906 15.318c.176.411.118.823-.153 1.223c-.165.235-.223.218-.165-.047c.183-.83-.764-1.53-.635-2.4a4.9 4.9 0 0 1 .977-2.059q.05-.07.094 0q.527.885.323 1.706c-.176.736.847.924.06 1.777q-.071.07-.13 0l-.247-.289c-.048-.047-.148.036-.124.089M8 14.848a.34.34 0 0 0-.235.2q-.06.13-.183.023c-.323-.271-.394-.671-.105-.971a1 1 0 0 0 .188-.27a.18.18 0 0 0 .012-.13a1.95 1.95 0 0 1 .306-1.694a.1.1 0 0 1 .058 0a.06.06 0 0 1 .03.018c.54.647 1.27 1.7.876 2.435c-.294.547-.6.97-.553 1.588q.01.132-.094.018c-.335-.37-.412-.765-.218-1.16c.018-.034-.035-.07-.082-.058m3.235-.548c-.917.27-1.647.823-1.529 1.806c.047.365.318.635.494.953a.43.43 0 0 1 .018.359c-.13.329-.241.664 0 .988c.035.059.023.076-.047.059a.57.57 0 0 1-.377-.27a.2.2 0 0 1-.017-.16c.105-.335-.136-.553-.342-.794c-.623-.747-.364-1.918 0-2.717c.242-.53.871-.883 1.277-1.318c.106-.118.306.141.394.182q.531.281.912.27a1.87 1.87 0 0 0 1.094-.434q.069-.072.147 0c.247.217.518.453.806.688c.647.53.823 1.376.87 2.147c.041.576-.17.994-.558 1.412c-.177.188-.218.388-.142.6a.12.12 0 0 1-.005.105a.6.6 0 0 1-.365.283c-.077.023-.094 0-.047-.059c.435-.6-.212-1.106.276-1.759c.512-.682.253-1.523-.435-1.964a3.2 3.2 0 0 0-.87-.365a.33.33 0 0 0-.2.006a1.7 1.7 0 0 1-1.177-.012a.27.27 0 0 0-.177 0z"/><path fill="currentColor" d="M11.96 15.047c.429 0 .776-.064.776-.153c0-.082-.353-.152-.777-.152c-.43 0-.782.07-.782.152c0 .083.353.153.782.153"/><path fill="currentColor" d="M12.206 17.747c.024.235-.064.441-.276.635c-.07.07-.07.4-.177.365a2.3 2.3 0 0 1-1.094-.777a.17.17 0 0 1-.023-.164c.194-.47.059-.918-.2-1.312q-.423-.646.047-1.282a.62.62 0 0 1 .4-.248a.15.15 0 0 1 .112.024c.676.441 1.329.435 1.94-.018a.15.15 0 0 1 .136-.023q.567.157.682.8c.06.347-.117.606-.282.882c-.247.441-.247.959.018 1.37c.053.09.035.16-.047.219a1 1 0 0 1-.542.188a.2.2 0 0 0-.152.07a.9.9 0 0 0-.253.477c-.018.117-.071.14-.153.047c-.118-.124-.2-.247-.147-.43l.194-.647c.023-.088-.07-.153-.118-.205c-.053-.048-.07-.036-.059.029z"/></svg>