<svg xmlns="http://www.w3.org/2000/svg" xmlns:xlink="http://www.w3.org/1999/xlink" width="24" height="24" viewBox="0 0 24 24"><path fill="currentColor" fill-rule="evenodd" d="m11.135 5.683l-.27.724l3.88 6.866l.27-.725zM8.98 11.47l3.89 6.848l.258-.691l-3.883-6.87zm4.82 4.34L9.92 8.944l.27-.725l3.879 6.866z" clip-rule="evenodd"/><path fill="currentColor" d="M16.613 18.315h-3.746L17.332 6.33c.071-.19.197-.354.361-.47a.97.97 0 0 1 .559-.178H22l-4.467 11.983a1 1 0 0 1-.361.47a.97.97 0 0 1-.56.179m-10.866.001H2L6.466 6.33c.07-.19.197-.354.36-.47a.97.97 0 0 1 .56-.178h3.748L6.666 17.666c-.07.19-.196.353-.36.47a.97.97 0 0 1-.56.179"/><path fill="currentColor" fill-rule="evenodd" d="M11.134 5.683h.004l.542.958l-.274.717l-.54-.956zm-.41 3.466l-.534-.945l-.271.724l.532.94zm-.96 2.526l-.52-.92l-.265.714l.517.911z" clip-rule="evenodd"/><path fill="currentColor" d="m14.484 11.606l.534.946l-.277.724l-.527-.952zm-.411 3.477l-.547-.96l-.27.72l.547.97zm-.948 2.535l-.544-.958l-.258.703l.543.952z"/></svg>