<svg xmlns="http://www.w3.org/2000/svg" xmlns:xlink="http://www.w3.org/1999/xlink" width="24" height="24" viewBox="0 0 24 24"><path fill="currentColor" d="M3.947 12.068c-.163-1.347.432-3.015.748-3.684l.831.853a7 7 0 0 0-.505 3.131z"/><path fill="currentColor" d="m4.684 8.337l.879.895l-.01.015a7 7 0 0 0-.5 3.116v.048l-1.137-.316v-.027c-.085-.678.026-1.436.194-2.105c.169-.668.4-1.252.558-1.59l.021-.036zm.021.105a9 9 0 0 0-.537 1.537a6 6 0 0 0-.195 2.063l1.011.284c-.053-.542-.01-1.842.505-3.084l-.79-.8zm15.348 3.49c.163 1.347-.432 3.015-.748 3.684l-.831-.853a7 7 0 0 0 .505-3.131z"/><path fill="currentColor" d="m19.315 15.668l-.879-.894l.011-.021a7 7 0 0 0 .5-3.116v-.048l1.137.316v.027c.084.679-.026 1.436-.195 2.105a9 9 0 0 1-.558 1.59l-.02.041zm-.02-.105c.157-.342.373-.9.536-1.542c.163-.658.269-1.4.195-2.063l-1.01-.284c.052.542.01 1.842-.506 3.084l.79.8zM4.548 5.037H2.953l6.705 6.958l-2.447 2.542l-2.842-2.927L2.042 14l5.169 5.3L12 14.405l3.641 3.774l1.684.131L12 12.784l-4.79 4.974l-3.63-3.763l.789-.821l2.842 2.994l4.063-4.173z"/><path fill="currentColor" d="M2.879 5h1.684l6.753 7l-4.106 4.21l-2.842-2.99l-.747.775l3.59 3.715L12 12.742l5.379 5.59l-1.753-.122l-3.631-3.758l-4.785 4.895L2 14l2.368-2.432L7.21 14.49L9.616 12L2.879 5.012zm.147.068L9.7 11.995l-2.49 2.584l-2.842-2.926L2.084 14l5.126 5.258L12 14.363l3.658 3.79l1.594.115L12 12.831L7.21 17.8l-3.673-3.805l.837-.863l2.842 2.989L11.226 12l-6.69-6.932zm16.426 13.895h1.595l-6.705-6.958l2.447-2.542l2.842 2.926L21.957 10L16.79 4.7L12 9.595L8.359 5.82l-1.686-.13L12 11.216l4.789-4.974l3.631 3.763l-.789.821l-2.842-2.994l-4.063 4.173z"/><path fill="currentColor" d="M21.12 19h-1.683l-6.753-7l4.105-4.21l2.842 2.989l.748-.774l-3.59-3.715L12 11.258L6.647 5.705l1.727.085l3.631 3.757l4.784-4.894L22 10l-2.367 2.432l-2.843-2.921L14.384 12l6.737 6.99zm-.146-.069L14.3 12.005l2.49-2.584l2.842 2.926L21.915 10l-5.127-5.258L12 9.637l-3.658-3.79l-1.595-.115L12 11.168L16.79 6.2l3.673 3.805l-.837.863l-2.842-2.989l-4.01 4.12l6.689 6.927h1.51zM7.21 17.753V19.3L12 14.405l3.658 3.795l1.673.105L12 12.79l-4.79 4.969z"/><path fill="currentColor" d="m12 12.742l5.379 5.595l-1.774-.158L12 14.458l-4.79 4.895V17.72L12 12.737zM7.21 17.79v1.463L12 14.369l3.71 3.827l1.6.136l-5.315-5.494zm9.579-11.543V4.7l-4.79 4.895L8.358 5.82l-1.69-.13l5.331 5.526l4.79-4.974z"/><path fill="currentColor" d="M12 11.258L6.652 5.71l1.721.079l3.632 3.757l4.784-4.894v1.626zm4.789-5.053V4.737l-4.79 4.895l-3.657-3.79l-1.595-.116L12 11.168zm-4.62 14.179a8.2 8.2 0 0 1-4.632-1.374l.816-.82a7.37 7.37 0 0 0 3.72 1.041c1.87-.063 2.98-.684 3.564-1.042l1.684.11c-.768.785-2.61 1.974-5.158 2.085z"/><path fill="currentColor" d="m8.348 18.153l.02.01a7.33 7.33 0 0 0 3.706 1.037a6.86 6.86 0 0 0 3.547-1.037l1.758.174c-.774.784-2.658 1.968-5.21 2.079c-2.042.089-3.948-.885-4.648-1.38l-.031-.02zm7.389.02a7.26 7.26 0 0 1-3.663 1.09c-.642.026-2.274-.153-3.716-1.032l-.774.774c.716.5 2.585 1.432 4.58 1.348c2.484-.106 4.326-1.253 5.115-2.027zM11.832 3.616a8.2 8.2 0 0 1 4.631 1.374l-.816.82a7.37 7.37 0 0 0-3.72-1.041c-1.87.063-3.106.72-3.685 1.084l-1.526-.127a7.85 7.85 0 0 1 5.116-2.105z"/><path fill="currentColor" d="m15.653 5.848l-.021-.011A7.34 7.34 0 0 0 11.926 4.8c-1.863.063-2.973.684-3.558 1.042l-1.72-.131l.01-.032c.774-.79 2.621-1.984 5.174-2.095c2.042-.09 3.947.885 4.647 1.38l.031.02zm-7.39-.016a7.24 7.24 0 0 1 3.663-1.095c.637-.026 2.274.153 3.716 1.032l.774-.774a8.2 8.2 0 0 0-4.58-1.347a8.05 8.05 0 0 0-5.104 2.068l1.526.116z"/></svg>