<svg xmlns="http://www.w3.org/2000/svg" xmlns:xlink="http://www.w3.org/1999/xlink" width="24" height="24" viewBox="0 0 24 24"><path fill="currentColor" d="M21.971 14.175c.106-.469-.112-.937-.512-1.206l-.513-.344l-1.262.625c.95 0 1.75.431 1.687.731a9.455 9.455 0 0 1-9.262 7.394A9.423 9.423 0 0 1 2.627 12c0-5.175 4.244-9.375 9.475-9.375c4.544 0 8.344 3.169 9.263 7.394c.062.312-.738.731-1.688.731l1.263.625l.5-.312a1.155 1.155 0 0 0 .531-1.22A10.086 10.086 0 0 0 12.102 2a10.05 10.05 0 0 0-10.1 10c0 5.525 4.525 10 10.107 10c4.825 0 8.862-3.35 9.862-7.825m-8.412-.225a3.94 3.94 0 0 0 2.268-3.619c0-2.187-1.706-3.956-3.837-3.956s-3.825 1.813-3.825 4a3.88 3.88 0 0 0 2.275 3.581L8.984 15.22c-.3-.331-1-1-1.357-1.081c.17.2.37.562.55.9c.194.356.375.687.5.793c.225.188 1.332.044 1.963-.687v.187l-.956 1.532a3.3 3.3 0 0 0-1.432-.532l.088.07c.169.137.331.262.537.512c.25.312.494.606.638.687c.275.144 1.481-.281 1.894-1.269l.593-.581l.575.531c.388 1.025 1.632 1.463 1.913 1.313c.144-.075.381-.369.637-.681c.175-.213.32-.313.463-.42l.162-.118c-.509.045-1 .213-1.43.488l-.976-1.55l.05-.144c.625.706 1.706.843 1.925.662c.131-.106.313-.437.5-.793c.188-.338.388-.7.556-.9c-.362.08-1.056.75-1.356 1.08zm-1.507-3.7h-.1l-.168.219c-.325.425-.694.906-1.17.906c-.612 0-1.112-.562-1.112-1.25c0-.65.438-1.181 1-1.244v-.006h3.113V8.9c.5.119.887.625.887 1.225c0 .688-.5 1.25-1.112 1.25c-.475 0-.844-.481-1.169-.906z"/></svg>