<svg xmlns="http://www.w3.org/2000/svg" xmlns:xlink="http://www.w3.org/1999/xlink" width="24" height="24" viewBox="0 0 24 24"><path fill="currentColor" d="M6.036 17.573a5 5 0 0 1-.386-.518a3 3 0 0 0-.154-.22c-.013-.013-.026-.04-.04-.052c-.038-.065-.089-.143-.127-.22l-.039-.078c-.038-.064-.077-.143-.116-.207l-.038-.078a1 1 0 0 1-.103-.22c-.013-.026-.026-.065-.038-.09c-.04-.078-.065-.144-.103-.221a1 1 0 0 1-.04-.09c-.024-.078-.063-.156-.089-.234c0-.012-.012-.039-.012-.052a9 9 0 0 1-.18-.543c0-.013-.013-.027-.013-.052c-.013-.065-.04-.13-.052-.195l-.039-.156c-.012-.064-.025-.116-.038-.18l-.039-.169c-.012-.064-.025-.116-.038-.181l-.039-.195c-.012-.051-.012-.116-.025-.168a1 1 0 0 1-.026-.207c-.012-.052-.012-.104-.026-.168c-.013-.078-.013-.143-.025-.22c0-.053-.014-.104-.014-.156c0-.09-.012-.168-.012-.26c0-.038 0-.076-.013-.129c0-.13-.013-.259-.013-.388c0-.13 0-.247.013-.376v-.117c0-.09.012-.168.012-.258c0-.039.013-.091.013-.13c.013-.078.013-.168.026-.246c0-.039.013-.078.013-.117l.038-.285c0-.026 0-.051.013-.064c.014-.117.04-.234.065-.35c.012-.039.012-.078.026-.103c.012-.078.038-.156.05-.234a.5.5 0 0 0 .026-.13c.013-.077.039-.142.052-.22c.012-.038.025-.09.039-.13a2 2 0 0 0 .064-.232c.012-.04.025-.065.038-.104l.116-.311c.012-.039.026-.065.039-.103a2 2 0 0 1 .09-.22c.012-.04.038-.078.05-.13c.026-.065.053-.116.091-.181c.025-.04.039-.091.064-.13c.026-.065.064-.117.09-.181c.026-.039.038-.078.065-.117l.154-.272a5.3 5.3 0 0 0-.168 1.386c0 1.684.707 2.967 2.108 3.834c.077 1.516.514 2.707 1.26 3.472zm8.148-9.067c.437.66.72 1.49.822 2.487c.36.168.668.362.95.583c1.042.815 1.57 2.007 1.57 3.522c0 .182-.014.364-.027.545v-.013c1.286-2.918.863-6.929-1.222-9.376z"/><path fill="currentColor" fill-rule="evenodd" d="M12.382 10.502q.118.028.246.05c2.146.427 4.614 1.321 4.601 4.612c0 .492-.052.958-.167 1.372q-.322.573-.746 1.075a6.5 6.5 0 0 1-2.698 1.917q-.072.021-.142.046l-.142.045a5 5 0 0 1-.278.084V22H9.32v-2.323c-1.077-.381-2.715-1.395-3.299-2.091v-.091l2.507-1.697a3.7 3.7 0 0 0 2.646 1.127c1.8 0 2.661-.984 2.661-1.774c0-1.266-1.202-1.49-2.599-1.748h-.01q-.616-.099-1.221-.247c-2.236-.544-4.524-1.516-4.524-4.572c0-.894.193-1.672.579-2.319C7.73 4.297 8.901 4.174 9.228 4.14c.066-.007.098-.01.092-.025V2h3.735v2.153c1.371.32 2.37 1.083 3.273 2.164l.013.077l-2.07 2.138l-.086-.019c-.669-.998-1.712-1.535-3.01-1.535c-1.452 0-2.262.66-2.262 1.489c0 1.326 1.357 1.602 3.24 1.987l.037.007q.095.018.19.04m7.461-5.572c-1.184 0-1.622.385-1.622 1.624c0-1.238-.438-1.624-1.622-1.624c1.184 0 1.622-.386 1.622-1.624c0 1.238.438 1.624 1.622 1.624" clip-rule="evenodd"/></svg>