<svg xmlns="http://www.w3.org/2000/svg" xmlns:xlink="http://www.w3.org/1999/xlink" width="24" height="24" viewBox="0 0 24 24"><path fill="currentColor" d="M6.978 4.594a1.141 1.141 0 1 1-1.983-1.13a1.141 1.141 0 0 1 1.983 1.13m-3.385.143a.857.857 0 1 1-1.472-.88a.857.857 0 0 1 1.472.88m10.324 16.332a9.13 9.13 0 0 0 1.306-17.892a9.1 9.1 0 0 0-3.578-.227a7.4 7.4 0 0 0-2.225.56c-.833.4-1.37 1.078-1.37 1.986c0 1.175.92 1.9 2.095 1.9c.2 0 .879-.217 1.038-.268a4.9 4.9 0 0 1 1.93-.263c3.2 0 4.867 2.625 4.867 5.444s-2.02 4.828-5.507 4.828c-3.059 0-4.65-3.042-4.765-5.82c-.04-1.142-.708-2.032-1.86-2.032a2.135 2.135 0 0 0-2.06 1.575a9.13 9.13 0 0 0 10.129 10.209"/><path fill="currentColor" d="M5.796 7.88a1.428 1.428 0 1 1-2.454-1.46a1.428 1.428 0 0 1 2.454 1.46"/></svg>