<svg xmlns="http://www.w3.org/2000/svg" xmlns:xlink="http://www.w3.org/1999/xlink" width="24" height="24" viewBox="0 0 24 24"><path fill="currentColor" d="M8.47 13.965v4.3L12 19.888v-4.306z"/><path fill="currentColor" d="m15.529 18.265l-3.53 1.623v-4.306l3.53-1.617zm-7.059-4.3l-3.365 5.917l3.365-1.617z"/><path fill="currentColor" d="M8.47 22L12 19.882l-3.53-1.617zm-3.365-2.118L8.47 22v-3.735l-3.365 1.623zm10.424-5.917v4.3l3.364 1.623z"/><path fill="currentColor" d="m15.529 22l3.364-2.118l-3.364-1.612zM12 19.882L15.529 22v-3.735l-3.53 1.623zm0-8.029L8.47 13.97L12 15.595z"/><path fill="currentColor" d="m15.529 13.965l-3.53-2.118v3.735zM4.941 8.059V11.5l2.941 1.294zm0 0L2 12.799l2.941-1.293z"/><path fill="currentColor" d="m4.94 14.488l2.942-1.694L4.941 11.5z"/><path fill="currentColor" d="m2 12.8l2.941 1.688V11.5L2 12.794zm2.941 2.23v2.34l2.947-4.023l-2.941 1.683z"/><path fill="currentColor" d="M4.941 17.37v-2.34L2 13.34zm14.118-9.311V11.5l2.935 1.294z"/><path fill="currentColor" d="m19.059 8.059l-2.936 4.74l2.942-1.293V8.059z"/><path fill="currentColor" d="m19.059 14.488l2.94-1.694l-2.94-1.294z"/><path fill="currentColor" d="m16.124 12.8l2.94 1.688V11.5l-2.94 1.294zm2.935 2.23v2.34l2.94-4.023z"/><path fill="currentColor" d="M19.059 17.37v-2.34l-2.936-1.689l2.942 4.03zM8.47 2v3.441l2.76 1.294z"/><path fill="currentColor" d="M8.47 2L5.713 6.741l2.765-1.294V2z"/><path fill="currentColor" d="m8.47 8.43l2.76-1.694L8.47 5.44z"/><path fill="currentColor" d="M5.712 6.741L8.477 8.43V5.44L5.712 6.736zm2.759 2.23v2.34l2.764-4.028z"/><path fill="currentColor" d="M8.47 11.312V8.97L5.713 7.282l2.765 4.03zM15.529 2v3.441l2.765 1.294z"/><path fill="currentColor" d="m15.53 2l-2.754 4.741l2.753-1.294z"/><path fill="currentColor" d="m15.529 8.43l2.765-1.694l-2.765-1.295z"/><path fill="currentColor" d="m12.771 6.741l2.765 1.689V5.44L12.77 6.736zm2.759 2.23v2.34l2.765-4.028zm0 2.341V8.97l-2.754-1.689z"/></svg>