<svg xmlns="http://www.w3.org/2000/svg" xmlns:xlink="http://www.w3.org/1999/xlink" width="24" height="24" viewBox="0 0 24 24"><path fill="currentColor" d="M11.985 14.624c.017-.035.056-.015.075 0l.363 4.249l-.4.377l-.42-.377c.12-1.402.364-4.214.382-4.249m-.82-3.099l.383-.475l.464.985l.471-.985l.383.475l-.854 1.839z"/><path fill="currentColor" d="m11.608 10.52l.41-.42l.417.42l-.417.764zm-7.415.324l-.372-1.087l7.557 3.18l.481.84l-.657 4.745l-.575-.533l.95-4.213zm15.614 0l.373-1.087l-7.557 3.18l-.481.84l.657 4.745l.575-.533l-.95-4.213zm-9.848-.53L2 4.75l.793 2.172l7.64 4.283zm4.082 0L22 4.75l-.793 2.172l-7.64 4.283zM3.61 9.18l-.596-1.653l7.64 4.102l.47.874zm16.78 0l.596-1.653l-7.64 4.102l-.47.874z"/></svg>