<svg xmlns="http://www.w3.org/2000/svg" xmlns:xlink="http://www.w3.org/1999/xlink" width="24" height="24" viewBox="0 0 24 24"><path fill="currentColor" d="m17.189 8.994l.922 4.028l1.427-2.917l-.872-3.583zm-12.695 4.8l.839 4.223l1.406-3.24l-.85-3.81L4.494 13.8zm4.172 5.35l.978-.083l.689-3.01V7.632l-1.667 3.695zm5-2.222l.978-.722l.69-3V4.856l-1.668 3.61z"/><path fill="currentColor" d="M8.667 19.145c1.277.316 2.6-.378 2.944-1.556l3.722-12.733c-1.277-.317-2.6.377-2.944 1.555zm-.684-2.656a2.17 2.17 0 0 1-2.65 1.544l2.35-8.855a2.167 2.167 0 0 1 2.65-1.545zm8.334-1.111a2.167 2.167 0 0 1-2.65 1.544l2.35-8.855a2.166 2.166 0 0 1 2.65-1.545zm4.555-3.834c-.317 1.128-1.555 1.795-2.76 1.495l1.121-3.917c.323-1.128 1.561-1.794 2.767-1.494l-1.122 3.916zM2 16.372c1.206.3 2.444-.366 2.767-1.494l1.122-3.917c-1.206-.3-2.445.367-2.767 1.495z"/></svg>