<svg xmlns="http://www.w3.org/2000/svg" xmlns:xlink="http://www.w3.org/1999/xlink" width="24" height="24" viewBox="0 0 24 24"><path fill="currentColor" d="M20.083 6.972L19.5 5.056l-.583 1.916L17 7.556l1.917.583l.583 1.917l.583-1.917L22 7.556zM5.89 7.695c0-.228.172-.417.389-.417h3.11c.218 0 .39.189.39.417s-.172.416-.39.416h-3.11c-.217 0-.39-.189-.39-.416m7.222 0c0-.228.172-.417.389-.417h3.111c.217 0 .39.189.39.417s-.173.416-.39.416H13.5c-.217 0-.389-.189-.389-.416M7 9.767c0-.456.372-.822.833-.822s.834.366.834.822v2.8a.833.833 0 0 1-1.667 0zm7.222 0c0-.456.373-.822.834-.822s.833.366.833.822v2.8a.832.832 0 0 1-1.667 0zm-8.889 3.066a1.666 1.666 0 1 1-3.333 0a1.666 1.666 0 0 1 3.333 0m13.89 1.667a1.666 1.666 0 1 0 0-3.332a1.666 1.666 0 0 0 0 3.332m-4 2.411c.166.228.144.572-.056.761c-.5.467-1.867 1.273-3.823 1.273c-1.944 0-3.21-.806-3.65-1.306a.59.59 0 0 1 0-.761a.446.446 0 0 1 .678 0c.234.267 1.234.989 2.972.989c1.74 0 2.89-.723 3.2-1.017a.446.446 0 0 1 .678.061"/></svg>