<svg xmlns="http://www.w3.org/2000/svg" xmlns:xlink="http://www.w3.org/1999/xlink" width="24" height="24" viewBox="0 0 24 24"><path fill="currentColor" fill-rule="evenodd" d="m12 2.001l10 9.997l-10 10l-10-10zm.06.827l9.118 9.17l-9.118 9.064l-9.233-9.064z" clip-rule="evenodd"/><path fill="currentColor" d="m9.734 18.003l1.354 1.326l.467-.512l-.859-.855l1.308-1.314l1.29 1.355l-.833.813l.518.512l1.264-1.325l-2.24-2.319zm2.855-4.239l-.598.589l-.579-.589zm.303-7.147L11.53 7.954l.46.493l.901-.946l.453.453l-.839.89l.46.413l.824-.897l1.859 1.83l.872-.845l1.358 1.305l.476-.46l-1.834-1.83l-.872.897zm-7.673 4.118l-.44.454l1.272 1.343l1.888-1.867l-.464-.485l-1.424 1.382zm10.368.382l-.445-.451l-1.347 1.268l1.83 1.925l.485-.461l-1.354-1.453z"/><path fill="currentColor" d="m18.706 10.755l.411.482l-1.354 1.259l-1.789-1.938l.503-.474l1.374 1.46z"/><path fill="currentColor" d="m18.72 12.618l.412.481l-1.355 1.259l-2.154-2.286l.528-.477l1.687 1.795zM8.475 11.21l.462-.432l1.297 1.32l-1.903 1.851l-.467-.48l1.41-1.398z"/><path fill="currentColor" d="m5.22 12.555l-.441.454l1.272 1.344l2.316-2.265l-.463-.485l-1.852 1.78zm6.302-8.25l.495-.473l.496.473l-.496.474zM3.81 12.001l.495-.474l.496.474l-.496.472zM19.182 12l.496-.473l.495.473l-.495.473zm-7.66 7.78l.495-.473l.495.473l-.495.473zm0-1.8l.495-.474l.495.473l-.495.473zm-.46-13.2l-3.18 3.13l.43.48l2.75-2.752l.476.454l-3.08 3.182l-1-.884l-1.784 1.818l.412.443l1.37-1.377l1.003.934l1.726-1.818l.877.884l.476-.505l-.827-.859l2.178-2.272l2.729 2.752l.425-.48l-3.154-3.13l-.926.858zM9.31 17.511l-.906-.901l.434-.463l.472.463l1.34-1.365l-.461-.46l.461-.478l.931.938zm5.338 0l.906-.901l-.434-.463l-.472.463l-1.34-1.365l.461-.46l-.462-.478l-.93.938z"/><path fill="currentColor" d="M10.825 9.645h-.748l-.429.588h1.177zm2.352 0h.749l.428.588h-1.177z"/><path fill="currentColor" fill-rule="evenodd" d="M11.66 9.645v.863l-.994 1.077l.422.385l-3.15 3.217l-.381-.425l.429-.457l-.466-.465l-.926.922l1.344 1.422l3.065-3.01h2.028l3.037 3.01l1.423-1.422l-.913-.929l-.476.456l.414.473l-.447.426l-3.163-3.218l.461-.386l-1.001-1.076v-.863zm.35 2.353l-.598.588h1.177zm-.01-.945l-.495.472l.495.473l.496-.473z" clip-rule="evenodd"/></svg>