<svg xmlns="http://www.w3.org/2000/svg" xmlns:xlink="http://www.w3.org/1999/xlink" width="24" height="24" viewBox="0 0 24 24"><path fill="currentColor" d="m8.453 6.706l-.518 1.589l3.295 2.4l-2.618 1.894l-3.082-2.253l1.176-3.63zm.612 0l2.641 1.924v1.694L8.618 8.077zM8.624 13.3l-.006.024l3.088 2.247v-4.512l-3.082 2.236zm.564 1.16l2.512 1.829h.006v2.182l-3.088-2.247l.576-1.765zm6.359-7.754h1.747l1.176 3.641l-3.088 2.242l-2.6-1.9l3.282-2.383zM12.294 8.63l2.647-1.924l.441 1.37l-3.088 2.242V8.624zm3.082 4.67L12.3 11.065h-.006v4.506l3.088-2.247zm-3.082 2.994l2.518-1.829l.57 1.765l-3.088 2.241V16.29z"/><path fill="currentColor" fill-rule="evenodd" d="M12 21.412a9.412 9.412 0 1 0 0-18.824a9.412 9.412 0 0 0 0 18.824M12 22a10 10 0 1 0 0-20a10 10 0 0 0 0 20" clip-rule="evenodd"/></svg>