<svg xmlns="http://www.w3.org/2000/svg" xmlns:xlink="http://www.w3.org/1999/xlink" width="24" height="24" viewBox="0 0 24 24"><path fill="currentColor" d="m7.777 11.464l7.96-3.424l-1.16 8.609zm.675-7.837L14.81 6.32L7.122 9.295zm-2.161 9.461l6.91 4.857l-6.74 1.725zm11.002-5.171L22 12.624l-5.948 4.338zM8.992 20.51l5.825-1.501h.007l1.024 1.93zm6.991-2.013l5.095-3.738h.007l-4.093 5.689zM17.676 6.28l.996-2.005l2.694 5.696zm-.243-2.96l-6.476-.26l5.347 2.3zM2.198 9.882L6.734 4.24l-1.5 6.275zM2 10.987l3.05.634h-.008l.137 6.746z"/></svg>