<svg xmlns="http://www.w3.org/2000/svg" xmlns:xlink="http://www.w3.org/1999/xlink" width="24" height="24" viewBox="0 0 24 24"><path fill="currentColor" d="M20.824 16.994v-10L12 2L3.177 6.994v10l2.94 1.653V8.665L12 5.312l5.882 3.353v6.67L12 18.677V22z"/><path fill="currentColor" d="m16.118 9.688l-4.117-2.311l-4.118 2.311v10l2.353 1.271v-9.982L12 9.947l1.764 1.03v2.047L12 14.054v2.558l4.117-2.3z"/><path fill="currentColor" d="M20.824 6.994L12 2L3.177 6.994l2.929 1.67L12 5.313l5.894 3.353z"/><path fill="currentColor" d="M12 7.377L7.918 9.688l2.27 1.289L12 9.94l1.812 1.03l2.306-1.283z"/></svg>