<svg xmlns="http://www.w3.org/2000/svg" xmlns:xlink="http://www.w3.org/1999/xlink" width="24" height="24" viewBox="0 0 24 24"><path fill="currentColor" d="M4.312 17.031L15.675 2.344l.987.769L5.306 17.8l-.987-.769z"/><path fill="currentColor" d="M21.406 9.9L8.92 12.65L2.375 9.875l.487-1.15l6.17 2.625l12.1-2.662l.268 1.218z"/><path fill="currentColor" d="M11.388 21.137L15.35 2.7l1.219.262L12.612 21.4z"/><path fill="currentColor" fill-rule="evenodd" d="M8.137 3.25L3.35 9.481l1.719 7.606l6.937 3.513l7.025-3.513L20.656 9.5L15.77 3.25zM16.375 2H7.519L2 9.188l1.981 8.75L12 22l8.125-4.062L22 9.188z" clip-rule="evenodd"/><path fill="currentColor" d="M19.013 17.906L7.344 3.126l.981-.776l11.669 14.775l-.981.775z"/></svg>