<svg xmlns="http://www.w3.org/2000/svg" xmlns:xlink="http://www.w3.org/1999/xlink" width="24" height="24" viewBox="0 0 24 24"><path fill="currentColor" d="m11.947 2l3.304 3.304l-3.304 3.311l-3.312-3.303z" opacity=".9"/><path fill="currentColor" d="m6.964 3.382l4.54 1.114l-1.114 4.547L5.85 7.93l1.114-4.555z" opacity=".85"/><path fill="currentColor" d="m16.884 3.344l-2.724.732l1.229 1.237l-2.221 2.22l.42 1.549l4.517-1.221z" opacity=".3"/><path fill="currentColor" d="m20.47 6.93l-1.114 4.54l-4.548-1.107l1.114-4.548z" opacity=".35"/><path fill="currentColor" d="m21.92 11.92l-3.236 3.388l-3.38-3.227l3.235-3.388l3.38 3.235z" opacity=".4"/><path fill="currentColor" d="m20.547 17.085l-4.54 1.13l-1.13-4.54l4.54-1.13z" opacity=".45"/><path fill="currentColor" d="m16.944 20.619l-4.54-1.114l1.107-4.532l4.547 1.113l-1.114 4.54z" opacity=".5"/><path fill="currentColor" d="m11.962 22l-3.304-3.305l3.304-3.31l3.311 3.31z" opacity=".55"/><path fill="currentColor" d="m7.033 20.733l-1.221-4.518l4.51-1.22l1.22 4.51l-4.51 1.22z" opacity=".6"/><path fill="currentColor" d="m3.377 16.956l1.106-4.54l4.548 1.114l-1.114 4.54l-4.548-1.114z" opacity=".65"/><path fill="currentColor" d="m2.08 12.118l3.305-3.31l3.31 3.31l-3.302 3.305z" opacity=".7"/><path fill="currentColor" d="m3.302 6.937l4.524-1.122l1.13 4.54l-4.54 1.13l-1.13-4.54z" opacity=".75"/></svg>