<svg xmlns="http://www.w3.org/2000/svg" xmlns:xlink="http://www.w3.org/1999/xlink" width="24" height="24" viewBox="0 0 24 24"><path fill="currentColor" d="M11.11 22h1.84c-1.65-2.735-3.29-5.475-4.935-8.21a1.35 1.35 0 0 1-.135-1.285c.09-.235.28-.455.46-.62a4.3 4.3 0 0 1-.725-1.62c-1.68.84-2.06 2.52-1.09 4.2zm-.7-6.005c1.07.125 2.065.12 3.14 0c1.3-.15 2.465-.47 3.19-.96a2.74 2.74 0 0 0 1.26-2.27c0-1.1-.65-1.95-1.54-2.44a4.3 4.3 0 0 1-.72 1.68c.205.215.385.49.385.76c0 .435-.485.915-.835 1.125c-.41.235-1.015.39-1.48.44c-.605.07-1.22.1-1.83.11c-.325 0-.665-.02-.99-.04c-.54-.03-1.13-.065-1.655-.215L10.41 16z"/><path fill="currentColor" d="M12.015 2c1.61 2.72 1.045 4.345.825 5.365c-.335 1.58 1.595 2.1 1.735.26c.035-.43.01-.93-.015-1.4c1.985 3.3.69 6.275-2.55 6.275c-2.71 0-4.235-2.57-3.16-5.13c-.12 1.355.8 1.79.65 1.17c-.04-.155-.125-.425-.175-.975c-.255-2.63 2.87-3.3 2.69-5.565"/></svg>