<svg xmlns="http://www.w3.org/2000/svg" xmlns:xlink="http://www.w3.org/1999/xlink" width="24" height="24" viewBox="0 0 24 24"><path fill="currentColor" fill-rule="evenodd" d="M12.578 2c.02.4-.25 1.592-1.485 3.152c-.335.424-.718.862-1.112 1.312C8.562 8.086 7 9.873 7 11.75c0 1.92.884 3.188 1.325 3.582c.066-.487.499-1.789 1.706-3.1c.372-.404.91-.848 1.497-1.331c1.8-1.481 4.056-3.338 3.362-5.582c0 .578-.439 1.968-2.193 2.905c-1.755.938-2.823 2.078-3.137 2.531c-.04-.219.116-1.016.68-1.776q.09-.125.21-.279c.933-1.226 2.89-3.796 2.128-6.701m-1.155 20c-.02-.4.25-1.592 1.485-3.152c.335-.424.718-.862 1.112-1.312C15.438 15.914 17 14.127 17 12.25c0-1.92-.884-3.188-1.325-3.582c-.066.487-.499 1.789-1.706 3.1c-.372.404-.91.848-1.497 1.331c-1.8 1.481-4.056 3.338-3.362 5.582c0-.578.439-1.968 2.194-2.905c1.754-.938 2.822-2.078 3.136-2.53c.04.218-.116 1.015-.68 1.775q-.09.125-.21.279c-.933 1.226-2.889 3.797-2.127 6.701" clip-rule="evenodd"/></svg>