<svg xmlns="http://www.w3.org/2000/svg" xmlns:xlink="http://www.w3.org/1999/xlink" width="24" height="24" viewBox="0 0 24 24"><path fill="currentColor" fill-rule="evenodd" d="M9.07 3.656h5.422l4.38 3.203l1.661 5.163l-1.605 4.897l1.965 1.81l-.377.408l-1.929-1.777l-4.139 2.984H9.025l-4.378-3.207l-1.663-5.162l1.69-5.153zm9.648 12.12l-.53-3.8l.547-3.724l1.214 3.768zm-.661-8.824l-3.109-2.274l1.04 3.059zm-2.218 1.773l-1.476 3.25l1.476 3.204l1.752-3.204zm1.909 4.122l-1.54 2.816l2.057.888zm.3 4.216l-2.065-.89l-1.08 3.157zm-3.775 2.395l1.137-3.328l-3.173.407zm-2.029-3.482l3.163-.406l-1.367-2.968zm1.798-4.638l1.37-3.018l-3.17-.47zm-.298.636l-2.011-3.899l-2.252 3.898l2.251 3.78zm-2.492 4.567l-2.073 2.951l-1.392-3.363zm-3.487-.974l1.422-3.001l2.032 3.412zm1.087-3.592l-1.516 3.2l-1.681-3.2l1.681-3.247zM7.207 7.729L8.5 4.75L5.462 6.94zm-2.456.644l-1.182 3.604l1.161 3.609l.332-3.611zm.781 4.564l1.436 2.734l-1.763.835zm.003-1.94l-.308-3.554l1.74.788zm-.11 6.02l3.055 2.238l-1.276-3.08zm4.226 2.771h4.175l-2.08-2.983zM9.22 4.491L7.8 7.756l3.45-.472zm.484-.28l2.046 2.816l2.097-2.815zm4.604.313l-2.06 2.765l3.16.468zm-3.086 3.324l-3.462.475l1.425 3.052zm6.532 3.258l-1.541-2.86l2.078-.788z" clip-rule="evenodd"/><path fill="currentColor" d="M10.337 4.217a1.111 1.111 0 1 1-2.223 0a1.111 1.111 0 0 1 2.223 0m4.992 0a1.111 1.111 0 1 1-2.223 0a1.111 1.111 0 0 1 2.223 0M4.767 8.11a1.112 1.112 0 1 0 0-2.224a1.112 1.112 0 0 0 0 2.224m12.786-1.112a1.112 1.112 0 1 0 2.224 0a1.112 1.112 0 0 0-2.224 0M7.556 9.22a1.112 1.112 0 1 0 0-2.223a1.112 1.112 0 0 0 0 2.223m7.208-1.111a1.112 1.112 0 1 0 2.224 0a1.112 1.112 0 0 0-2.224 0m-3.048.556a1.112 1.112 0 1 0 0-2.224a1.112 1.112 0 0 0 0 2.224M9.226 18.67a1.112 1.112 0 1 1-.001 2.224a1.112 1.112 0 0 1 0-2.224m4.991 0a1.112 1.112 0 1 1 0 2.224a1.112 1.112 0 0 1 0-2.224M5.88 17.003a1.112 1.112 0 1 0-2.224 0a1.112 1.112 0 0 0 2.224 0m12.786-1.112a1.111 1.111 0 1 0 0 2.223a1.111 1.111 0 0 0 0-2.223m1.111 3.374a1.112 1.112 0 1 1 2.224 0a1.112 1.112 0 0 1-2.224 0M7.556 14.78a1.112 1.112 0 1 1 0 2.224a1.112 1.112 0 0 1 0-2.224m7.208 1.111a1.112 1.112 0 1 1 2.225 0a1.112 1.112 0 0 1-2.225 0m-.825-5.003a1.112 1.112 0 1 0 0 2.225a1.112 1.112 0 0 0 0-2.225M10.35 12a1.112 1.112 0 1 0-2.224 0a1.112 1.112 0 0 0 2.225 0m7.437-1.112a1.112 1.112 0 1 0 0 2.224a1.112 1.112 0 0 0 0-2.224M6.731 12a1.112 1.112 0 1 0-2.224 0a1.112 1.112 0 0 0 2.224 0m13.562-1.112a1.112 1.112 0 1 0 0 2.225a1.112 1.112 0 0 0 0-2.225M4.223 12A1.112 1.112 0 1 0 2 12a1.112 1.112 0 0 0 2.225 0m7.493 3.335a1.111 1.111 0 1 1 0 2.223a1.111 1.111 0 0 1 0-2.222"/></svg>