<svg xmlns="http://www.w3.org/2000/svg" xmlns:xlink="http://www.w3.org/1999/xlink" width="24" height="24" viewBox="0 0 24 24"><path fill="currentColor" d="M14.631 13.618L12 15.23l-2.632-1.612v-3.23L12 8.772l2.631 1.618z"/><path fill="currentColor" d="M12 2L3.579 7.003v9.994L11.999 22l8.422-5.003V7.003zM7.79 14.423v-4.87L12 7.156l4.21 2.397v4.87l-4.241 2.43zm0 2.807v-1.69l5.616 3.293l-1.406.84zm10.526-1.394l-3.972 2.442l-1.456-.871l4.375-2.442V9.01L12 6.08L6.737 9.01v7.524l-1.053-.765V8.232L12 4.464l6.316 3.7z"/></svg>