<svg xmlns="http://www.w3.org/2000/svg" xmlns:xlink="http://www.w3.org/1999/xlink" width="24" height="24" viewBox="0 0 24 24"><g fill="currentColor" fill-rule="evenodd" clip-rule="evenodd"><path d="M12 17.882a5.882 5.882 0 1 0 0-11.764a5.882 5.882 0 0 0 0 11.764m0-.588a5.294 5.294 0 1 0 0-10.588a5.294 5.294 0 0 0 0 10.588"/><path d="M8.177 18.623a7.647 7.647 0 1 0 7.647-13.245a7.647 7.647 0 0 0-7.647 13.245m3.822.436A7.059 7.059 0 1 0 12 4.94a7.059 7.059 0 0 0 0 14.118"/><path d="M12 22c5.523 0 10-4.477 10-10S17.523 2 12 2S2 6.477 2 12s4.477 10 10 10m0-.588A9.41 9.41 0 0 0 21.412 12A9.41 9.41 0 0 0 12 2.588A9.41 9.41 0 0 0 2.588 12A9.41 9.41 0 0 0 12 21.412"/></g></svg>