<svg xmlns="http://www.w3.org/2000/svg" xmlns:xlink="http://www.w3.org/1999/xlink" width="24" height="24" viewBox="0 0 24 24"><path fill="currentColor" d="M21.038 10.235c-.118 0-.241.024-.353.065a8.1 8.1 0 0 0-3.388-.653c-1.889 0-3.695.63-5.295 1.941a8.24 8.24 0 0 0-5.294-1.941c-1.106 0-2.24.147-3.376.653a1 1 0 0 0-.359-.065c-.512 0-.97.33-.97.835c0 .506.435.918.94.93c.471.012.9-.318.989-.777c2.53-1.276 5.041-.617 7.265 1.247a7.28 7.28 0 0 0-1.547 4.46c.017 1.893.911 3.57 2.352 5.07c1.412-1.576 2.336-3.259 2.353-5.07c.012-1.283-.476-2.636-1.364-4.06a6 6 0 0 0-.735.971c.588 1.065.94 2.094.923 3.088c-.024 1.16-.53 2.26-1.182 3.306a4.82 4.82 0 0 1-1.171-3.306a6.4 6.4 0 0 1 1.982-4.453c2.218-1.864 4.736-2.535 7.265-1.258c.076.44.47.764.924.782c.529.024 1.023-.3 1-.847a.98.98 0 0 0-.953-.918z"/><path fill="currentColor" d="M20.237 7.63a.86.86 0 0 0-.176-.53a1 1 0 0 0-.483-.341a1.06 1.06 0 0 0-.588-.018c-.2.059-.376.165-.5.312a10.53 10.53 0 0 0-6.488 1.306a10.54 10.54 0 0 0-6.494-1.306a1 1 0 0 0-.718-.347c-.576-.03-1.07.447-1.03.988c.042.488.483.859.995.859c.33-.006.653-.177.823-.447a9.2 9.2 0 0 1 3.377.165a8.9 8.9 0 0 1 3.041 1.376a9.12 9.12 0 0 1 6.412-1.535a1.02 1.02 0 0 0 1.412.27l.04.012l-.017-.03a.88.88 0 0 0 .388-.735z"/><path fill="currentColor" d="M15.767 4.353a.96.96 0 0 0-.824.482A9.9 9.9 0 0 0 12.003 6A9.9 9.9 0 0 0 9.06 4.835a.96.96 0 0 0-.812-.482c-.506-.006-.953.412-.953.923c0 .495.412.918.912.93a.97.97 0 0 0 .741-.33a8.5 8.5 0 0 1 3.053 1.418a8.4 8.4 0 0 1 3.053-1.412a.97.97 0 0 0 .712.33c.5 0 .935-.424.941-.918a.95.95 0 0 0-.941-.941"/><path fill="currentColor" d="M12.002 4.353a1.177 1.177 0 1 0 0-2.353a1.177 1.177 0 0 0 0 2.353"/></svg>