<svg xmlns="http://www.w3.org/2000/svg" xmlns:xlink="http://www.w3.org/1999/xlink" width="24" height="24" viewBox="0 0 24 24"><path fill="currentColor" d="M8.142 3.445a.32.32 0 0 1-.01-.437a2.915 2.915 0 0 1 4.279-.142l2.21 2.195a4.626 4.626 0 0 1 .053 6.432l-2.82 2.932l2.936 3.037a3.23 3.23 0 0 1 .01 4.447a.29.29 0 0 1-.42 0l-4.206-4.253a4.626 4.626 0 0 1 .01-6.453l2.8-2.816L8.143 3.44z"/><path fill="currentColor" d="m11.106 10.272l1.873-1.885a3.42 3.42 0 0 1 .469 4.38l-1.595 1.652c-.6-.605-1.705-2.052-.779-4.074z"/></svg>