<svg xmlns="http://www.w3.org/2000/svg" xmlns:xlink="http://www.w3.org/1999/xlink" width="24" height="24" viewBox="0 0 24 24"><path fill="currentColor" fill-rule="evenodd" d="M22 12c0 5.523-4.477 10-10 10S2 17.523 2 12S6.477 2 12 2s10 4.477 10 10m-.588 0A9.41 9.41 0 0 1 12 21.412a9.37 9.37 0 0 1-5.96-2.127l-.057.053l-.43-.468l.007-.006l-.155-.149l-.026.024l-.431-.466l.02-.018l-.137-.157l-.028.026l-.429-.47l.06-.054A9.37 9.37 0 0 1 2.589 12A9.41 9.41 0 0 1 12 2.588A9.41 9.41 0 0 1 21.412 12M4.445 17.59A9.36 9.36 0 0 1 2.602 12a9.398 9.398 0 1 1 3.449 7.276l3.306-3.04l-.43-.467l-3.356 3.086l-.156-.15l4.04-3.727l-.43-.467l-4.047 3.735l-.137-.157l3.308-3.023l-.43-.47zm3.992-5.365l.96-1.15l1.406-.35c.784-1.024 2.96-3.027 5.394-2.854c.19.686-.119 2.68-2.866 5.179l-.298 1.324l-1.19 1.082l-.473-1.38a1.9 1.9 0 0 1-.878-.105l-.506.524l-.514-.524l.514-.476c-.06-.042-.181-.255-.2-.764zm5.117-.747a.785.785 0 1 1-1.111-1.11a.785.785 0 0 1 1.111 1.11" clip-rule="evenodd"/></svg>