<svg xmlns="http://www.w3.org/2000/svg" xmlns:xlink="http://www.w3.org/1999/xlink" width="24" height="24" viewBox="0 0 24 24"><path fill="currentColor" d="M15.51 4.615L9.57 6.524l6.594.871zM9.461 6.36l.762-1.417l3.27-1.308zm.762-1.526l.382-1.09l2.67-.109zm4.415-.818l.382-1.035l.436 1.417zm-.055 0l.382-1.036l-1.907-.816zm-1.798-1.961l-1.308.6l2.997 1.307zM14.255 2H12.84l2.18.872zm.874 1.035v-.163l2.913.818c.053.015.053.09-.001.105l-2.477.657zm-4.524.6l.872-.873l1.854.818zm2.997.055L9.515 6.413l5.94-1.907zm2.562 3.814l-6.757-.927l5.231 11.663zm-1.417 10.518l1.526-10.41l.98 1.2zm-.218.218L9.35 6.687l1.908 11.444zm-3.325-.055L9.298 6.741L5.918 22z"/></svg>