<svg xmlns="http://www.w3.org/2000/svg" xmlns:xlink="http://www.w3.org/1999/xlink" width="24" height="24" viewBox="0 0 24 24"><path fill="currentColor" d="M11.194 18.223L5.946 22L9.282 6.658zm.112-.028l3.187.037l-5.09-11.527zm3.497-.262l2.445-9.073l-.928-1.124zM13.622 3.706L9.59 6.424l5.886-1.903zm-.506 0l-2.503.093l-.375 1.031zM9.47 6.601l5.173 11.575l1.574-10.628zm.768-1.65l3.187-1.246l-3.956 2.662zm.412-1.311l.806-.872l1.837.806zm.928-.975l1.265-.58l1.612 1.845zM12.928 2h1.349l.75.815zm1.818 2.052l.318-.965l.329 1.274zM9.695 6.498l6.448.881l-.638-2.718zm5.875-2.08l-.412-1.51l2.897.853zm-.6-1.415l-.356.965l-1.499-1.771z"/></svg>