<svg xmlns="http://www.w3.org/2000/svg" xmlns:xlink="http://www.w3.org/1999/xlink" width="24" height="24" viewBox="0 0 24 24"><path fill="currentColor" fill-rule="evenodd" d="M6.4 2a11.05 11.05 0 0 0 0 7.634l.034.046l-1.863 1.6l2.515 1.64L4 15.669l4.177 2.514l.88 3.817l2.857-2.549L14.886 22l.897-3.817L20 15.669l-3.08-2.726l2.508-1.663l-1.874-1.589l.052-.057c.514-1.205 1.234-4.428 0-7.634l-3.818 4.52A3.3 3.3 0 0 0 11.984 6c-.8 0-1.452.274-1.8.486zm-.463 13.423l2.109-1.88l1.257.817l.56 1.926h4.148l.606-1.817l1.486-.989l-.195.171l2.155 1.772l-3.28 2l-.52 2.491l-2.354-1.891l-2.189 1.886l-.663-2.492l-3.12-2zm8.731-2.383l2.84-1.886l-3.308-2.84l-.457 2.057zm-1.434-5.486a2.64 2.64 0 0 0-1.251-.337a2.54 2.54 0 0 0-1.326.389l.697 2.92l-1.108 3.348l.48 1.269h.702v-1.714h1.143v1.714h.595l.451-1.269l-1.08-3.348zm-3.525.823L6.44 11.154l2.88 1.835l.868-2.623zM9.33 7.19L7.07 4.514c-.149.446-.229 1.257-.212 2.057c.017.835.2 1.698.514 2.298zm5.303.04l1.977 1.668c.359-.735.54-1.543.532-2.36c0-.691-.097-1.308-.172-1.771l-.04-.252z" clip-rule="evenodd"/></svg>