<svg xmlns="http://www.w3.org/2000/svg" xmlns:xlink="http://www.w3.org/1999/xlink" width="24" height="24" viewBox="0 0 24 24"><path fill="currentColor" d="m20.78 6.914l-8.658-4.89a.3.3 0 0 0-.066-.022h-.011a.24.24 0 0 0-.128.017h-.022L3.243 6.903l-.016.011a.22.22 0 0 0-.117.19v9.784a.22.22 0 0 0 .111.189l8.668 4.89A.2.2 0 0 0 12 22a.2.2 0 0 0 .117-.034l8.668-4.889a.22.22 0 0 0 .105-.156V7.11a.22.22 0 0 0-.11-.19zM11.721 21.39L3.637 16.8l4.14-6.94l3.944 2.267zM3.666 7.47l3.722 2.167l-3.722 6.412zm8.612 4.656l4.245-2.428l3.812-2.2v9.246h-8.057zm4.212-2.922l-3.323-5.496l-.533-.872l7.573 4.267zm-4.573-6.68l4.173 6.902l-2.473 1.394l-1.617.917l-8.19-4.645zm.36 14.736h6.996l-6.995 4.129z"/></svg>