<svg xmlns="http://www.w3.org/2000/svg" xmlns:xlink="http://www.w3.org/1999/xlink" width="24" height="24" viewBox="0 0 24 24"><path fill="currentColor" d="M7.556 9.5v-5L3.11 7z"/><path fill="currentColor" d="M12 7L7.555 9.5v5L12 17z"/><path fill="currentColor" d="m3.111 7l4.445 2.5v5L3.11 17z"/><path fill="currentColor" d="M7.555 4.5L12 7L7.555 9.5zM3.111 17l4.445-2.5L12 17v5z"/><path fill="currentColor" d="M16.444 4.5L12 7L7.555 4.5L12 2zM12 7l4.445 2.5v5L12 17z"/><path fill="currentColor" d="m20.888 7l-4.444 2.5v5l4.444 2.5z"/><path fill="currentColor" d="M16.445 4.5L12 7l4.445 2.5zM20.889 17l-4.444-2.5L12 17v5z"/><path fill="currentColor" d="M16.444 9.5v-5L20.888 7z"/></svg>