<svg xmlns="http://www.w3.org/2000/svg" xmlns:xlink="http://www.w3.org/1999/xlink" width="24" height="24" viewBox="0 0 24 24"><path fill="currentColor" d="M14.737 2.02q-.42.054-.832.162l-.368.075q-.581.129-1.169.225a3 3 0 0 1-.494.062c-.3.023-.596.092-.875.206a4.1 4.1 0 0 1-1.13.238a.5.5 0 0 0-.182.037c-.038.02-.131.05-.213.07q-.44.104-.85.293a6 6 0 0 0-.93.469a3 3 0 0 0-.507.4c-.075.062-.144.124-.225.174a9 9 0 0 0-1.156.863c-.125.125-.25.262-.3.3c-.075.075-.175.237-.325.531a2 2 0 0 1-.144.25c-.069.094-.075.106-.037.175c.018.038.03.119.03.269c0 .4.032.775.063.85c.038.094.113.131.307.15c.23.025.33.081.33.181c0 .038.032.088.1.163c.126.137.132.143.176.13c.031 0 .062 0 .1.02c.062.025.087.08.094.187c.006.144.006.144.068.169l.157.031c.143.019.218.044.275.1c.037.044.08.062.175.075c.13.025.2.05.362.162c.138.094.169.138.169.25c0 .082.012.107.062.17c.063.087.094.093.2.05c.082-.038.263-.045.319-.013c.025.012.069.075.1.143a.8.8 0 0 0 .119.182c.1.093.256.193.337.218l.213.063c.112.025.156.031.175.012c.025-.025.462-.025.58 0c.176.093.367.152.563.175c.194.038.4.088.444.113c.081.031.45.156.663.219a1 1 0 0 0 .23.03a.4.4 0 0 1 .22.05l.25.088l.225.063a.7.7 0 0 0 .168.044c.05.006.125.024.163.043l.168.069l.2.081c.05.025.15.063.225.082q.294.077.575.187q.355.105.694.25c.294.144.55.256.563.256q.271.118.506.294c.269.206.369.325.444.5c.018.037.043.056.093.063c.125.024.138.03.232.174c.143.225.137.425-.02.688c-.174.294-.368.438-1.074.794c-.094.05-.2.112-.225.137a.6.6 0 0 1-.125.088q-.288.141-.575.287l-.138.063l-.156.075l-1.037.418l-.3.119a4 4 0 0 1-.313.106a.5.5 0 0 0-.162.075a.8.8 0 0 1-.219.1l-.337.113l-.413.131q-.465.132-.925.281l-1 .313a38 38 0 0 0-1.6.562q-1.036.372-1.987.925a4.8 4.8 0 0 0-1.475 1.188c-.175.162-.356.387-.356.437c0 .031-.05.113-.125.2a.3.3 0 0 0-.063.1q-.148.24-.256.5c-.012.044-.006.056.044.081c.062.038.062.063.031.144c-.012.031.081.075.175.075c.081 0 .113.044.106.169c0 .05 0 .106.013.112c.037.02.018.063-.044.107a.2.2 0 0 0-.081.112l-.025.081l.093-.012c.107-.013.15.018.15.125l.007.162v.094l.1.012q.141.018.425-.125a.4.4 0 0 1 .2-.037c.125 0 .137 0 .243-.088a.6.6 0 0 0 .113-.093c0-.025.137-.082.187-.082s.05.02 0 .07l-.037.043l.062.031c.044.019.094.031.113.025H5.2c.037.032.012.088-.113.25c-.15.2-.125.2.125.006c.106-.08.219-.137.219-.1a.2.2 0 0 1-.031.05c-.038.05-.038.07 0 .07c.018 0 .037-.02.05-.038c.025-.05.125-.094.206-.094c.05 0 .062 0 .05.038c-.019.043-.019.043.106-.013c.1-.044.3-.175.381-.25a.4.4 0 0 1 .113-.062q.186-.066.362-.157c.038 0 .007.063-.043.094c-.044.031-.05.05-.038.069c.019.025.038.018.125-.025c.169-.088.25-.094.163-.013c-.025.019-.038.044-.038.063c0 .018-.062.094-.15.169l-.137.15c.012.012.175-.063.212-.094q.316-.222.669-.382c.2-.074.369-.156.437-.218c.038-.044.075-.056.163-.063q.11-.002.1-.03c0-.013 0-.032.018-.045c.063-.043.45-.156.563-.156c.037 0 .037 0 .025.031q-.038.064.037.063c.044 0 .044.025 0 .062c-.043.044-.3.163-.38.181c-.082.013-.27.107-.27.126c0 .024.125 0 .257-.05c.218-.082.543-.17.562-.157c.013.019-.025.05-.087.081c-.088.044-.088.075.012.075c.088 0 .088.026.013.082c-.05.037-.05.043-.025.043a.8.8 0 0 0 .325-.093a.5.5 0 0 1 .162-.069c.125-.038.269-.113.269-.137c0-.013-.05-.02-.113-.026a.4.4 0 0 1-.125-.024a.4.4 0 0 0-.15 0c-.093 0-.125 0-.125-.013c0-.037.113-.081.238-.087c.075 0 .112-.013.106-.025c-.012-.032.188-.1.35-.125q.14-.012.188-.05c.043-.05.156-.082.268-.082q.075 0 .113-.037c.05-.056.162-.1.312-.125l.25-.063a1 1 0 0 1 .2-.062c.119-.031.1-.063-.03-.063c-.063.013-.107 0-.114-.012c-.006-.019.082-.056.294-.125a.6.6 0 0 0 .163-.063l.144-.062a.4.4 0 0 0 .118-.044a1.3 1.3 0 0 1 .469-.112a1 1 0 0 0 .219-.025l.281-.032c.119-.012.219-.03.231-.037a.1.1 0 0 1 .063-.025q.039 0-.025-.019a.2.2 0 0 0-.088-.006c-.043 0-.081 0-.125-.013l-.156-.031c-.044 0-.075-.019-.075-.025c0-.025.219-.087.344-.106l.275-.075c.1-.038.206-.069.225-.069q.34-.162.712-.219c.125-.018.219-.05.25-.062c.063-.05.175-.088.563-.181q.432-.144.887-.188a.4.4 0 0 1 .156-.012c.063.012.088-.013.044-.044c-.044-.025.019-.075.225-.175c.256-.125.387-.163.544-.163c.062 0 .15-.006.187-.018q.427-.143.825-.35a.4.4 0 0 0 .119-.063q.24-.166.462-.356a.6.6 0 0 0 .138-.081c.087-.063.125-.094.131-.138c.025-.106.238-.225.425-.225c.094 0 .138-.006.175-.037l.044-.038h-.138c-.106.006-.143 0-.15-.018c-.012-.032.15-.188.232-.22c.043-.018.062-.043.062-.062c0-.025.025-.062.044-.075l.1-.1a.5.5 0 0 1 .106-.075c.044-.012.05-.043.013-.062c-.044-.013-.038-.056.006-.088a.16.16 0 0 0 .05-.081a.5.5 0 0 1 .05-.112c.037-.075.062-.22.031-.263c-.025-.044 0-.162.044-.2l.087-.062c.144-.088.2-.132.232-.2a.3.3 0 0 0 .037-.107q.05-.114.094-.23c.056-.107.194-.288.25-.313c.037-.02.05-.02.062 0c.02.025.006.143-.018.225c-.007.03 0 .043.012.03c.012 0 .019-.03.019-.05c0-.024.025-.062.062-.093q.075-.074.075-.287c-.012-.313 0-.388.044-.475c.063-.113.063-.125 0-.188c-.037-.044-.044-.062-.025-.093c.031-.07 0-.126-.062-.12c-.088.02-.125-.018-.157-.155l-.037-.126l.05-.062c.056-.062.062-.075.05-.144a.3.3 0 0 1 .056-.125a.24.24 0 0 0 .05-.187a.3.3 0 0 0-.031-.138a.2.2 0 0 1-.038-.106a.3.3 0 0 0-.044-.131a.3.3 0 0 1-.05-.113a.6.6 0 0 0-.093-.206l-.038-.094a.6.6 0 0 0-.087-.137l-.225-.3a4.9 4.9 0 0 0-1.144-1.125c-.037-.063-.212-.194-.369-.281a4 4 0 0 1-.268-.188a4 4 0 0 0-.469-.312l-.25-.157l-.456-.268a26 26 0 0 0-2.6-1.338a8.4 8.4 0 0 0-1.413-.437a15 15 0 0 1-.825-.188c-.268-.05-.418-.118-.418-.2c0-.018.025-.043.056-.062l.063-.038l-.063-.062c-.031-.031-.062-.075-.062-.088c0-.056.106-.125.356-.262q.387-.19.756-.419l.313-.187q.271-.173.562-.313a3 3 0 0 0 .269-.137a.8.8 0 0 1 .25-.107c.125 0 .225-.056.675-.356c.287-.187.343-.219.543-.287c.225-.082.275-.107.4-.188a4 4 0 0 1 .431-.25l.438-.25c.125-.106.25-.281.394-.575l.137-.212a1 1 0 0 0 .119-.213c.025-.062.063-.162.1-.212c.069-.125.062-.188-.025-.431c-.088-.225-.138-.282-.269-.32c-.156-.043-.187-.062-.212-.124l-.044-.063c-.162.082-.238.094-.462.063a1.4 1.4 0 0 0-.276-.013a.5.5 0 0 1-.274-.043a5 5 0 0 0-1.182-.038zm-6.1 7.667c.025.02.094.05.15.07c.125.043.169.087.087.087a.34.34 0 0 1-.143-.063a.7.7 0 0 0-.182-.081c-.05-.013-.093-.031-.1-.044c-.006-.037.125-.012.188.031m1.45 1.17c-.063.012-.056.124.019.155c.1.05.425.082.625.07l.187-.013l-.125-.044a.7.7 0 0 1-.181-.094a.3.3 0 0 0-.1-.062a3 3 0 0 0-.425-.013m9.387.868c.062.031.094.081.162.281a.5.5 0 0 0 .063.137c.131.082.187.2.181.375c-.012.138-.056.15-.175.038a2 2 0 0 0-.144-.119a.2.2 0 0 1-.068-.075c-.038-.056-.088-.106-.132-.156a.8.8 0 0 1-.125-.156a1 1 0 0 0-.037-.125c-.044-.113-.05-.2-.019-.231c.063-.044.181-.032.294.03m.375 1.162c0 .044-.063.063-.1.044c-.031-.025-.031-.106 0-.125s.094.037.094.081zm.831.425c-.038.038-.025.088.019.082c.043-.013.062-.038.043-.075q-.016-.055-.062-.007m-.375.381c.025.025 0 .144-.038.175c-.043.038-.1 0-.124-.075c-.02-.075 0-.112.037-.124c.038-.013.1 0 .125.024m-.375.063c.056.062.05.062.019.15c-.025.081-.063.137-.094.125c-.025 0-.088-.187-.088-.244c0-.106.082-.125.157-.037zm-.212.5l-.013.125c0 .05-.019.075-.044.094c-.069.043-.087.018-.075-.094c.02-.119.063-.187.107-.187c.037 0 .037.006.025.062M19.51 16.7a.2.2 0 0 0-.075.08l-.075.126l-.037.069l.062-.038a.5.5 0 0 0 .125-.138c.088-.125.088-.143 0-.1m-3.656 1.456c0 .025-.062.037-.112.03c-.025-.005-.038-.018-.032-.03c.02-.02.144-.02.144 0m-.362.237c-.019.05-.213.1-.375.1c-.169 0-.219-.018-.125-.062c.131-.057.512-.082.5-.038m-.844.056c-.012.025-.125.044-.187.032l-.038-.007l.044-.018c.062-.032.2-.032.187-.007zm-1.325.1c-.006.032-.1.05-.15.038c-.037-.013-.037-.013 0-.038c.038-.03.163-.03.15 0m.638-.012c.037.006.069.025.069.037c0 .013.018.025.037.032l-.125.018a.5.5 0 0 1-.2 0a.25.25 0 0 0-.125-.012c-.1.012-.175-.025-.15-.063c.019-.024.369-.03.494-.012m.962.019c-.025.03-.131.037-.131.012s.044-.037.112-.044c.038 0 .038 0 .02.032m-.206.006c0 .05-.294.087-.45.062l-.094-.018l.113-.013l.187-.031c.088-.019.244-.019.244 0m-1.444.175c.15 0-.518.25-.781.3q-.262.03-.525 0c-.05-.013-.05-.013-.019-.038a.5.5 0 0 1 .132-.05l.312-.068c.55-.125.706-.163.762-.15zm.144.244l-.113.037c-.18.05-.374.025-.225-.025c.05-.025.357-.031.338-.012m-1.619.025c0 .012-.025.018-.037.018q-.028 0-.019-.018c.006-.013.025-.02.044-.02q.02 0 .012.02m-.55.212a.9.9 0 0 1-.3.094q-.118 0 .082-.075c.112-.038.25-.05.218-.019m.275.038c-.062.05-.806.28-.843.262c-.038-.012.2-.106.387-.156c.106-.025.213-.063.25-.075a.6.6 0 0 1 .225-.063c.019 0 .013.007-.019.032m1.1-.02c0 .032-.069.082-.162.107a.3.3 0 0 0-.125.069a1.2 1.2 0 0 1-.238.125c-.212.087-.231.087-.5.106c-.287.019-.375.006-.375-.05q.002-.03.05-.05c.3-.125.825-.275 1.025-.306c.15-.019.325-.025.325 0m-2.168.8a.2.2 0 0 1-.1.032c-.05 0-.057 0-.02-.031a.2.2 0 0 1 .095-.031c.062 0 .062 0 .025.03"/></svg>