<svg xmlns="http://www.w3.org/2000/svg" xmlns:xlink="http://www.w3.org/1999/xlink" width="24" height="24" viewBox="0 0 24 24"><path fill="currentColor" d="m16.081 3.196l-4.764 4.9a.3.3 0 0 0-.047.04l-3.458 3.459a.855.855 0 0 0 0 1.211l3.276 3.276l-4.035 4.234a12 12 0 0 1-1.81-1.523C1.012 14.576.865 9.353 5.123 5.09C8.5 1.714 12.482 1.144 16.081 3.196"/><path fill="currentColor" d="M18.917 18.875c-3.365 3.358-7.323 3.964-10.898 2.03l1.423-1.483l3.258-3.37l3.24-3.24a.866.866 0 0 0 0-1.212l-3.252-3.252l3.994-4.176l.353-.365a13 13 0 0 1 1.734 1.47c4.194 4.182 4.37 9.37.148 13.598"/></svg>