<svg xmlns="http://www.w3.org/2000/svg" xmlns:xlink="http://www.w3.org/1999/xlink" width="24" height="24" viewBox="0 0 24 24"><path fill="currentColor" fill-rule="evenodd" d="M10.589 8.524c-3.2-1.607-2.134-5.185 1.333-5.185c3.847 0 6.402 2.41 6.935 3.214l.8-.804C18.057 3.607 15.389 2 11.922 2c-1.36 0-2.876.344-4.027.93c-2.435 1.241-5.171 5.7-1.574 8.54c1.526 1.203 3.399 2.054 5.066 2.81c2.337 1.062 4.27 1.94 4.27 3.35c0 2.41-5.895 4.793-10.403.267l-1.066.535c1.68 1.688 3.854 2.842 5.251 3.264c1.398.423 3.707.388 5.252 0c3.08-.774 5.55-3.287 5.059-6.199c-.569-3.363-3.942-4.757-6.916-5.986c-.798-.33-1.567-.647-2.245-.987M7.655 4.506c-1.304.906-2.668 4.406-.267 6.16c.988.721 2.414 1.336 3.873 1.964c2.482 1.07 5.059 2.182 5.729 3.927c.517 1.35-.534 2.947-.534 2.947s2.803-1.652 1.868-4.285c-.773-2.172-3.146-3.142-5.527-4.115c-1.732-.708-3.466-1.417-4.593-2.59c-1.795-1.872-.549-4.008-.549-4.008" clip-rule="evenodd"/></svg>