<svg xmlns="http://www.w3.org/2000/svg" xmlns:xlink="http://www.w3.org/1999/xlink" width="24" height="24" viewBox="0 0 24 24"><path fill="currentColor" d="M20.496 17.25a9.94 9.94 0 0 0-.687-11.482c-.5.125-.818.406-1.33.85c-.044.037-.094.075-.138.125a4.18 4.18 0 0 1-2.923 1.199c-.669 0-1.187-.125-1.637-.344c-.387-.2-.675-.462-.868-.637l-.044-.044c-.206-.187-.337-.293-.525-.374a2.4 2.4 0 0 0-1-.163c-.711 0-1.448.338-2.135.862a7 7 0 0 0-1.462 1.53L6.185 7.737a8.7 8.7 0 0 1 1.88-1.98a5.5 5.5 0 0 1 3.28-1.25c.724 0 1.293.113 1.768.325c.474.212.793.5 1.018.7c.237.218.35.312.5.393c.137.069.356.144.787.144c.75 0 1.162-.287 1.686-.75l.163-.137a6.4 6.4 0 0 1 1.13-.843a10.014 10.014 0 0 0-16.366 6.465a4.7 4.7 0 0 1 1.805-.363a4.15 4.15 0 0 1 2.712.938l.024.018c.282.2.475.338.713.437c.218.094.5.17.937.17c.73 0 1.205-.338 1.924-.894l.043-.038c.687-.537 1.618-1.255 3.036-1.255c1.168 0 2.33.606 3.223 1.218a12.8 12.8 0 0 1 2.174 1.905l-1.405 1.25a10.8 10.8 0 0 0-1.837-1.612c-.812-.556-1.574-.887-2.155-.887c-.737 0-1.212.337-1.93.893l-.044.037c-.687.538-1.618 1.256-3.036 1.256a4.2 4.2 0 0 1-1.667-.318c-.438-.188-.781-.438-1.05-.625l-.019-.012a3.8 3.8 0 0 0-.712-.438c-.225-.094-.506-.169-.937-.169c-.718 0-1.349.294-1.83.638a9.93 9.93 0 0 0 2.211 5.372c.331-.35.725-.719 1.156-1.062c.824-.669 1.899-1.343 3.03-1.5a3.37 3.37 0 0 1 1.855.225c.506.225.9.55 1.2.813l.068.062c.612.525.887.762 1.393.762c.58 0 .98-.268 1.561-.73l.113-.094c.53-.419 1.312-1.05 2.398-1.05c.482 0 .969.138 1.393.306c.438.169.875.406 1.287.65c.288.175.575.362.837.55zm-1.137 1.498a9 9 0 0 0-.674-.437a6.3 6.3 0 0 0-1-.512a2 2 0 0 0-.706-.175c-.393 0-.674.206-1.33.73c-.594.476-1.443 1.144-2.736 1.144c-1.237 0-2.03-.7-2.549-1.162l-.144-.125c-.28-.243-.5-.406-.724-.5a1.46 1.46 0 0 0-.837-.1c-.625.094-1.374.513-2.118 1.106a13 13 0 0 0-1.012.937a10 10 0 0 0 6.44 2.343a10 10 0 0 0 7.39-3.249"/></svg>