<svg xmlns="http://www.w3.org/2000/svg" xmlns:xlink="http://www.w3.org/1999/xlink" width="24" height="24" viewBox="0 0 24 24"><path fill="currentColor" d="m15.177 6.9l-.016-.023l-2.79-4.823q-.066-.116-.066.017v4.945a3.166 3.166 0 0 1 2.789 3.2l2.59 1.139a.03.03 0 0 0 .032-.011a.06.06 0 0 0 0-.056l-1.228-2.122c-.016-.022-.01-.044.006-.067l2.7-2.855q.06-.066 0-.123L17.666 4.5a.11.11 0 0 0-.16 0l-2.25 2.39a.06.06 0 0 1-.05.016a.1.1 0 0 1-.029-.006m-3.466-4.84l.005 4.95a3.167 3.167 0 0 0-2.811 3.206l-2.567 1.133a.03.03 0 0 1-.022 0H6.31l-.01-.01a.04.04 0 0 1 0-.045l1.233-2.14a.04.04 0 0 0-.006-.05l-2.74-2.888a.04.04 0 0 1-.01-.034a.04.04 0 0 1 .01-.027L6.41 4.449a.04.04 0 0 1 .017-.011h.017l.01.011l2.323 2.467l.011.005a.03.03 0 0 0 .033 0l.012-.01l2.805-4.873a.04.04 0 0 1 .023-.011h.022q.014.003.022.016v.017zm-5.423 9.984l2.678-1.178a3.14 3.14 0 0 0 2.75 2.55v2.111c0 .012 0 .023-.011.034l-.017.022a.06.06 0 0 1-.055 0l-5.35-3.434a.1.1 0 0 1-.023-.022a.06.06 0 0 1 .006-.06a.1.1 0 0 1 .022-.023m6.017 3.483v-2.11a3.14 3.14 0 0 0 2.722-2.556l2.695 1.183h.011q.01.006.017.017a.06.06 0 0 1 .002.071l-.019.018l-5.34 3.427a.06.06 0 0 1-.055 0l-.022-.016a.06.06 0 0 1-.011-.034M9.415 18.8a.07.07 0 0 1 .04-.022c.022 0 .039 0 .05.022a277 277 0 0 0 2.105 3.145a.13.13 0 0 0 .056.055h.017l.022-.006l.005-.01l.006-.023v-4.444a.1.1 0 0 0-.011-.05a.1.1 0 0 0-.039-.04l-5.278-3.394c-.028-.022-.044-.011-.039.028q.001.042.028.077l1.678 2.5a.07.07 0 0 1-.006.084l-2.556 2.706a.06.06 0 0 0 0 .083l1.578 1.667l.023.016q.019.01.04.008a.1.1 0 0 0 .037-.019l2.245-2.389zm5.168-.011h.005l2.223 2.355q.082.084.166 0l1.528-1.616q.06-.06 0-.111l-2.522-2.667a.11.11 0 0 1-.011-.145l1.722-2.55l.006-.013v-.015a.03.03 0 0 0-.011-.016h-.034L12.383 17.4a.17.17 0 0 0-.067.11l-.005.034l-.006 4.417l.006.022l.027.011q.015.005.028 0a.1.1 0 0 0 .022-.022l2.123-3.172a.06.06 0 0 1 .039-.022h.016l.017.01m-2.023-7.912a.4.4 0 0 1-.028.35a.36.36 0 0 1-.166.134a.7.7 0 0 1-.283.05c-.106 0-.195-.012-.278-.028a.54.54 0 0 1-.211-.095a.44.44 0 0 1-.133-.178a.8.8 0 0 1-.045-.266h-.795q.002.298.128.522q.126.215.334.356c.139.094.3.166.472.21c.346.09.71.09 1.056 0c.16-.038.294-.105.41-.188a.85.85 0 0 0 .356-.711a.9.9 0 0 0-.305-.695a1.5 1.5 0 0 0-.372-.25a3.5 3.5 0 0 0-.5-.194a3 3 0 0 1-.5-.211a.5.5 0 0 1-.134-.128a.3.3 0 0 1-.044-.15c0-.072.016-.133.055-.195a.4.4 0 0 1 .178-.138a.8.8 0 0 1 .294-.056a.6.6 0 0 1 .3.067a.43.43 0 0 1 .178.166a.56.56 0 0 1 .061.256h.79a.94.94 0 0 0-.167-.561a1.07 1.07 0 0 0-.462-.378a1.94 1.94 0 0 0-1.216-.067a1.3 1.3 0 0 0-.422.195a.8.8 0 0 0-.278.305a.8.8 0 0 0-.1.4c0 .156.027.29.094.4a.95.95 0 0 0 .261.3q.167.136.384.228q.215.099.455.172c.14.045.25.084.334.128a.8.8 0 0 1 .2.117c.05.044.083.083.1.133"/></svg>