<svg xmlns="http://www.w3.org/2000/svg" xmlns:xlink="http://www.w3.org/1999/xlink" width="24" height="24" viewBox="0 0 24 24"><path fill="currentColor" d="M6.513 2L2 6.513l1.933 1.614c.52-2.32 3.014-3.76 4.2-4.194L6.507 2zM17.16 2l-1.613 1.933c2.84 2.067 3.98 4.087 4.2 4.84L22 6.84zm0 19.68l-1.933-2.267c2.58-.513 3.866-3.22 4.193-4.513l2.26 2.267zm-8.387-1.613L6.84 22l-4.52-4.513l1.613-1.614c1.034 2.58 3.66 3.867 4.84 4.194"/><path fill="currentColor" fill-rule="evenodd" d="m12 6.667l3.333 1.466V15.2L12 17.333L8.666 15.2V8.133zM9.333 8.92v2.187l1.98-1.094zm2.334 1.653l-2.027 1.12l2.027 1.34zm.666 2.467l2.027-1.347l-2.027-1.12zm2.333-.754L12 14.053l-2.667-1.767v2.48L12 16.334l2.666-1.566zm0-1.18l-1.98-1.093l1.98-1.093zm-.413-2.72L12 9.634L9.747 8.387l2.253-1z" clip-rule="evenodd"/></svg>