<svg xmlns="http://www.w3.org/2000/svg" xmlns:xlink="http://www.w3.org/1999/xlink" width="24" height="24" viewBox="0 0 24 24"><path fill="currentColor" d="M14.776 12.77q-1.112-.467-2.647-.652a.7.7 0 0 0-.247.017a11.5 11.5 0 0 1-1.824.353c-1.235.153-2.206 0-2.923-.435a2.04 2.04 0 0 1-.989-1.553c-.129-.965.177-1.706.93-2.23a4.4 4.4 0 0 1 1.418-.623c1.329-.335 3.011-.435 5.047-.288c1.435.106 2.8.294 4.105.559c.036 0 .047.023.042.059l-.053.258q-.09.505-.194.718c-.118.247-.289.4-.518.47a1.1 1.1 0 0 1-.459 0a26.6 26.6 0 0 0-5.553-.4c-.459.018-.894.048-1.294.107q-1.034.14-1.318.635a.87.87 0 0 0-.04.823q.166.37.57.6c.288.165.53.277.712.347c.676.236 1.4.412 2.176.512c.1.018.2.012.288-.012q1.246-.326 2.606-.405a4.1 4.1 0 0 1 1.877.294a2.09 2.09 0 0 1 1.288 1.353c.159.564.141 1.076-.065 1.553c-.206.47-.564.829-1.076 1.094a6 6 0 0 1-1.73.559a17 17 0 0 1-3.294.217a35 35 0 0 1-5.453-.606c-.03-.006-.035-.023-.03-.053l.036-.2c.065-.34.135-.588.206-.73a.83.83 0 0 1 .547-.458c.24-.036.483-.024.718.035c.43.083.859.141 1.294.189c1.388.14 2.782.194 4.182.152c.453-.011.9-.053 1.353-.117c1.018-.153 1.447-.57 1.282-1.259a1 1 0 0 0-.4-.553a2.5 2.5 0 0 0-.57-.33"/><path fill="currentColor" fill-rule="evenodd" d="M12 22a10 10 0 1 0 0-20a10 10 0 0 0 0 20m0-1.177a8.824 8.824 0 1 0 0-17.648a8.824 8.824 0 0 0 0 17.649" clip-rule="evenodd"/></svg>