<svg xmlns="http://www.w3.org/2000/svg" xmlns:xlink="http://www.w3.org/1999/xlink" width="24" height="24" viewBox="0 0 24 24"><path fill="currentColor" d="M9.2 3.512h-.447l-.282.34v.454l-.1.094l-.46.059l-1.117 1.43l.059.47l-.13.159l.018.158L6.118 7v2.676l.588.341l-.006.206l.118.124l-.047.447l1.1 1.43l.458.058l.142.118v.453l.276.341h.012h-.006v.165l-.282.33v2.346l-.183.082H5.641l-.112-.082v-.47l-.353-.33l.006-.135l.347-.324v-2.094l-.311-.33l.006-.14l.305-.306v-.453l-.34-.335H4.74l-.059-.06l-.058-.464l-1.877-1.27l-.453.058l-.294.36l.059.47l1.882 1.282l.412-.041v.453l.376.34h.03v.083l-.406.33v2.1l.37.335v.141h-.005l-.365.33v.47l.365.318h.458l.148.153v.47l.317.318h2.647l.183-.318v-.47l.158-.153h.595l.423-.318v-2.347l-.423-.33l-.006-.176l.43-.33V12.4l-.442-.4h-.453l-.059-.088l.053-.389l-1.118-1.435l-.458-.059v-.006l.123-.329V7.029L7.2 6.694v-.03l.018-.017l.458-.053l1.1-1.435l-.058-.46l.058-.058h.442l.43-.341v-.447l.046-.088h4.624l.035.088V4.3l.441.341h.447l.047.059l-.053.459l1.1 1.435l.46.059l.017.012v.029l-.106.335v2.665l.135.33v.011l-.459.053l-1.117 1.436l.058.464l-.088.012h-.459l-.423.4v.453l.423.341h.006l-.006.165l-.423.33v2.346l.423.318h.46l.293.153v.47l.324.318h2.53l.311-.318v-.47l.147-.153h.459l.347-.318v-.47l-.347-.33v-.141l.347-.335v-2.1l-.388-.33v-.082h.03l.358-.341v-.453l.435.041l1.865-1.288L22 9.74l-.282-.353l-.453-.059l-1.865 1.265l-.059.47l-.059.054h-.453l-.358.335v.453l.323.306l.012.14l-.335.33v2.094l.364.324l.006.135l-.37.33v.47l-.095.082h-2.664l-.183-.082v-2.347l-.282-.33v-.164l-.006-.006l.33-.335V12.4h.011l.1-.118l.46-.059l1.1-1.429l-.048-.447l.118-.118l-.006-.211l.576-.342V7l-.611-.324l.017-.158l-.13-.16l.06-.47l-1.118-1.43l-.459-.058l-.112-.094v-.453l-.276-.341h-.441l-.147-.118v-.47l-.353-.336H9.694l-.353.335v.471zm1.859 6.723h-.489l-.335.324v1.117l.335.324h.489l.353-.324V10.56zm2.37 0h-.488l-.353.324v1.117l.353.324h.488l.336-.324V10.56zm-2.017 7.247v-.447l-.324-.323l-.47-.006l-.383.335v.441l-.117.13h-.43l-2.212 2.117v.37l-.147.136H5l-.065-.135v-.37l-.4-.318h-.464l-.312.317v.46l.312.31h.47l.147.148v.453l.312.312h2.324l.323-.312v-.453l.147-.147l.465.006l2.206-2.118l.006-.447l.135-.147h.441l.353-.312zm1.176 0l.353.318h.447l.136.141v.441l2.211 2.124h.46l.146.14v.454l.33.312h2.317l.318-.312v-.453l.147-.147h.47l.312-.312v-.459l-.317-.317h-.465l-.394.317v.37l-.07.136H16.67l-.148-.135v-.453l-2.211-2.035h-.459l-.088-.13v-.459l-.389-.317h-.464l-.324.33z"/></svg>