<svg xmlns="http://www.w3.org/2000/svg" xmlns:xlink="http://www.w3.org/1999/xlink" width="24" height="24" viewBox="0 0 24 24"><path fill="currentColor" d="m2.588 17.806l2.941-5.47l6.53 2.87l6.411-2.87l2.942 5.47L12.059 22z"/><path fill="currentColor" fill-rule="evenodd" d="M11.988 15.594c-2.124-1.077-6.388-3.235-6.459-3.259l6.459-3.212l6.482 3.212zm0-1.018c-1.453-.735-4.376-2.218-4.43-2.235l4.43-2.2l4.453 2.206l-4.453 2.235zm-2.047-1.694l2.059.882l2.059-.888l-2.06-.876l-2.058.876z" clip-rule="evenodd"/><path fill="currentColor" d="M12 11.412L7.293 9.34L12 2zm0 0l4.706-2.071L12 2z"/></svg>