<svg xmlns="http://www.w3.org/2000/svg" xmlns:xlink="http://www.w3.org/1999/xlink" width="24" height="24" viewBox="0 0 24 24"><path fill="currentColor" d="M16.437 17.625c-.143.362-1.887 1.875-3.706 1.875c-2.7 0-4.481-.981-4.481-2.937c0-1.8 2.25-2.663 5.012-3.663c3.332-1.125 4.988-3.112 4.988-5.838c0-3.25-2.638-5.062-6.6-5.062c-2.094 0-4.775 1.087-5.481 1.812L7.83 5.75c.67-.344 1.94-1.25 3.795-1.25c2.781 0 4.125 1.244 4.125 2.562c0 1.807-1.019 2.638-3.838 3.67C8.462 12 5.75 13.524 5.75 16.361C5.75 19.35 7.912 22 12.731 22c1.969 0 4.25-1.088 5.519-2.425z"/></svg>