<svg xmlns="http://www.w3.org/2000/svg" xmlns:xlink="http://www.w3.org/1999/xlink" width="24" height="24" viewBox="0 0 24 24"><path fill="currentColor" d="M19.075 8.25H14.5c0-1.65-1.725-2.438-2.5-2.5c-.881-.044-2.5.481-2.5 2.019c0 1.918.675 1.575 5.569 2.512c3.918.75 5 3.756 5.05 5.169c.125 2.187-1.3 6.55-8 6.55c-6.694 0-8.288-4.119-8.244-6.25h4.85c-.063 2.175 2.65 2.5 3.394 2.5c.75 0 3.006-.438 3.006-2.331s-1.856-1.8-2.581-1.85a30 30 0 0 1-1.794-.194C5.875 13.23 4.506 9.9 4.506 8.219C4.506 6.53 4.687 2 12 2c5.85 0 7.15 4.175 7.075 6.25"/></svg>