<svg xmlns="http://www.w3.org/2000/svg" xmlns:xlink="http://www.w3.org/1999/xlink" width="24" height="24" viewBox="0 0 24 24"><path fill="currentColor" d="M18.438 2.182c-1.119-.369-2.519-.188-4.337.644l-.032.012l-.025.019l-.125.075a.5.5 0 0 1-.125.037c-.156.025-.425.038-.98.038c-.563 0-2.282.025-4 .55c-1.67.512-3.432 1.531-4.02 3.543l-.074.044c-.331.188-.606.35-.813.525c-.275.25-.425.519-.525.925a.77.77 0 0 0 .02.513a.55.55 0 0 0 .505.293c.157 0 .325-.05.482-.112c.15-.063.325-.15.512-.256a17 17 0 0 1 2.794-.438q.993-.054 1.575.106a7.1 7.1 0 0 0 1.287 2.625c.231.269.513.519.838.613c.087.025.187.043.274.05c.082 0 .207 0 .326-.069a.5.5 0 0 0 .225-.3a.8.8 0 0 0 .018-.256a2.5 2.5 0 0 0-.062-.375l-.013-.1a6 6 0 0 1-.08-.619q-.028-.403-.007-1.575c3.83.638 6.612 2.569 8.38 5.806a.46.46 0 0 0 .213.175a.39.39 0 0 0 .338-.044a.5.5 0 0 0 .118-.118l.044-.075a1.4 1.4 0 0 0 .081-.275c.044-.207.082-.513.107-.882c.044-.75.018-1.793-.213-2.937v-.019l-.012-.025a12.1 12.1 0 0 0-1.5-3.168a14.4 14.4 0 0 0-2.5-2.569l-.225-.194l.15-.169c.119-.125.25-.243.375-.362l.187-.175c.157-.1.275-.194.375-.275l.05-.044c.107-.087.225-.175.438-.275a.8.8 0 0 0 .175-.112a.44.44 0 0 0 .162-.319a.43.43 0 0 0-.168-.356a.7.7 0 0 0-.213-.106zM3.644 10.994a.451.451 0 1 0-.894-.125a14 14 0 0 0-.125 1.631c0 5.375 4.157 9.5 9.456 9.5c3.763 0 6.95-2.412 8.525-5.55a.443.443 0 0 0-.206-.6a.45.45 0 0 0-.606.2c-1.444 2.894-4.35 5.056-7.713 5.056A8.456 8.456 0 0 1 3.525 12.5c0-.412.063-1.093.12-1.506"/></svg>