<svg xmlns="http://www.w3.org/2000/svg" xmlns:xlink="http://www.w3.org/1999/xlink" width="24" height="24" viewBox="0 0 24 24"><path fill="currentColor" d="M7.75 9.475c.2-1.507.656-3.025 2.006-3.875a3.1 3.1 0 0 1 1.375-.475h7.894L20.131 3.6a.607.607 0 0 0-.481-.975H3.987a.55.55 0 0 0-.356.125a.613.613 0 0 0-.125.85L7.75 9.5h4.6c.306.018.606.062.888.162l.218.05c.238.044.456.087.625.269c.108.137.183.298.219.468c.044.144.044.307.044.47c0 .174-.019.343-.038.512l-.025.237L17.881 7H11.85c-.425 0-.762-.726-.762-1.15v-.1a2.6 2.6 0 0 0-1.107.2c-.406.187-.762.43-1.044.774a5.7 5.7 0 0 0-1.187 2.75m4.6 1.274h-3.5l1.513 2.15l.018.026c0 .006 0 .012.013.018l.006.019l.244.325l.725.994l.119.125a.606.606 0 0 0 .843-.125l.763-1.032l.925-1.237l.243-.325a10 10 0 0 0-.08-.769a1.03 1.03 0 0 0-.345-.687c-.2-.144-.437-.25-.7-.25h-.024v.106c0 .425-.338.662-.763.662m-1.063 4.688L6.862 9.293L2.037 2.625H2l4.144 8.23L10.08 18.7l1.144 2.268c.081.144.188.269.325.325a.74.74 0 0 0 1-.325l1.15-2.225l.019-.062l-2.313-3.144c-.043-.013-.062-.038-.094-.069zm7.638-8.675l.644-.875l2.368-3.262H22l-4.863 9.368l-.643 1.232l-2.438 4.725l-1.75-2.376a.5.5 0 0 0 .169-.137l1.625-2.188l.925-1.237z"/></svg>