<svg xmlns="http://www.w3.org/2000/svg" xmlns:xlink="http://www.w3.org/1999/xlink" width="24" height="24" viewBox="0 0 24 24"><path fill="currentColor" fill-rule="evenodd" d="M14.571 18.781c1.658-.48 3.057-1.937 3.84-3.348a7.36 7.36 0 0 0 .846-4.172a3 3 0 0 0-.143-.657c-.034-.114.257-.503.371-.657l.035-.046Q20.573 8.46 21.6 7q.18-.23.308-.492l.075-.068q.043-.054-.023-.046q-1.833.077-3.743.223q-.627.05-1.28.04a.5.5 0 0 1-.132-.017a.12.12 0 0 1-.062-.046c-.989-1.251-4.503-2.137-6.606-1.554a7.55 7.55 0 0 0-4.811 3.89a7.35 7.35 0 0 0-.594 4.451c.205 1.263-.915 2.4-1.869 3.372c-.32.325-.628.628-.851.914q-.033.06.028.051a54 54 0 0 0 1.897-.142c1-.092 2-.178 3.006-.172c.12 0 .2.069.269.137l.097.086a8.4 8.4 0 0 0 7.262 1.154M7.657 15.33c.24.023.412.063.589.245a5.256 5.256 0 0 0 7.565-.165a5.2 5.2 0 0 0 1.12-4.754c-.057-.155-.114-.326-.057-.435l.823-1.462a.04.04 0 0 0-.04-.029c-.64.057-1.183.04-1.64-.046c-.229-.045-.354-.183-.491-.325a5.45 5.45 0 0 0-5.086-1.223c-.126.034-.234.086-.349.137l-.2.091c-2.228.863-3.382 3.246-3.045 5.486c.011.097.04.2.068.303c.063.251.132.52.046.743a5.8 5.8 0 0 1-.748 1.36a.06.06 0 0 0 .034.057c.006.011.023.011.034.011c.474-.046.931-.04 1.383 0z" clip-rule="evenodd"/><path fill="currentColor" d="M3.429 8.856a1.429 1.429 0 1 0 0-2.857a1.429 1.429 0 0 0 0 2.857"/></svg>