<svg xmlns="http://www.w3.org/2000/svg" xmlns:xlink="http://www.w3.org/1999/xlink" width="24" height="24" viewBox="0 0 24 24"><path fill="currentColor" d="m17.05 8.157l-1.673 6.122l-1.383-.097l1.043-6.312zm-1.46 6.76l-.434 2.163l-1.84-.535l.422-2.076z"/><path fill="currentColor" d="M5.246 17.582v.13H3.924v-2.425l-.041.134l-1.265-.387l.715-2.336l-.088.13l-1.096-.74l1.37-2.03l-.131.106l-.832-1.028l1.97-1.596l-.251.097L3.8 6.402L6.155 5.5l-.275.02l-.092-1.32l2.464-.173l-.222-.05l.298-1.289l2.355.544l-.15-.086L11.196 2l2.053 1.186l-.08-.086l.967-.902l1.6 1.715l-.034-.07l1.188-.58l1.026 2.104l-.01-.059l1.306-.207l.386 2.43l.027-.173l1.306.207l-.391 2.465l.096-.198l1.189.58l-1.1 2.256l.16-.173l.967.902l-1.71 1.833l.208-.12l.661 1.146l-2.149 1.24l.216-.05l.298 1.289l-2.374.548l.182.013l-.092 1.319l-2.376-.167l.12.047l-.473 1.234l-2.275-.873l.143.116L11.398 22l-1.877-1.52l.092.136l-1.096.74l-1.342-1.99l.04.13l-1.265.388zm0-1.57l.826-.253l.642 2.1l.714-.483l1.22 1.81l.545-.673l1.692 1.37l.303-.789l2.038.782l.06-.853l2.18.153l-.196-.85l2.138-.494l-.443-.767l1.909-1.102l-.654-.61l1.507-1.616l-.804-.392l.97-1.989l-.88-.138l.345-2.183l-.84.133l-.346-2.182l-.758.37l-.962-1.974l-.618.576l-1.489-1.597l-.426.738l-1.885-1.088l-.195.844l-2.121-.49l.061.88l-2.177.153l.322.838l-2.05.788l.55.68l-1.72 1.394l.726.49l-1.24 1.84l.835.255l-.647 2.12h.868z"/><path fill="currentColor" d="M11.74 13.337q0-.493-.347-.754q-.348-.267-1.253-.557q-.906-.295-1.433-.58q-1.44-.778-1.44-2.094q.001-.685.383-1.22q.39-.54 1.11-.84a4.2 4.2 0 0 1 1.623-.302q.905 0 1.613.33q.708.326 1.097.923q.394.598.394 1.358h-1.74q0-.58-.365-.9q-.366-.324-1.028-.325q-.637 0-.991.273a.84.84 0 0 0-.354.708q0 .412.411.69q.418.279 1.224.522q1.486.448 2.165 1.109q.678.66.678 1.647q0 1.097-.829 1.724q-.83.62-2.234.62q-.974 0-1.775-.354q-.801-.36-1.224-.98q-.418-.621-.418-1.439h1.746q0 1.399 1.67 1.399q.622 0 .97-.25a.83.83 0 0 0 .348-.708"/></svg>