<svg xmlns="http://www.w3.org/2000/svg" xmlns:xlink="http://www.w3.org/1999/xlink" width="24" height="24" viewBox="0 0 24 24"><path fill="currentColor" d="M5.2 6.146c-3.023 3.627-2.113 7.96-1.28 9.672l1.976-1.153c-.577-1.168-.596-2.507-.541-3.162c.425-5.107 5.004-6.188 6.633-6.188c1.296 0 2.49.448 2.926.672c-1.896 1.075-5.756 3.283-6.025 3.52c-.337.294-.589.767-.21 1.462c.336.614 1.034.534 1.453.39L21.65 4.787c.275-.137.553-.855.136-1.458c-.4-.58-1.24-.5-1.633-.249c-1.411.906-2.269 1.076-2.964 1.139c-.556.05-1.954-.542-2.62-.762c-1.864-.614-6.505-.748-9.37 2.69m13.598 11.716c3.023-3.628 2.113-7.96 1.28-9.673l-1.976 1.154c.576 1.168.596 2.507.541 3.161c-.425 5.108-5.004 6.189-6.633 6.189c-1.296 0-2.49-.449-2.927-.673c1.897-1.074 5.756-3.282 6.026-3.518c.337-.295.589-.767.21-1.463c-.336-.615-1.034-.535-1.453-.391L2.347 19.214c-.276.137-.548.865-.138 1.458c.402.58 1.24.501 1.634.248c1.411-.905 2.27-1.067 2.965-1.13c.556-.05 1.954.542 2.62.761c1.864.615 6.505.748 9.37-2.69"/></svg>