<svg xmlns="http://www.w3.org/2000/svg" xmlns:xlink="http://www.w3.org/1999/xlink" width="24" height="24" viewBox="0 0 24 24"><path fill="currentColor" d="M5.375 4.163c.222.04-.322 1.483-.02 3.127c.262 1.412 3.531 6.9 3.4 8.777c-.101 1.19-2.795 3.955-3.077 3.774c-.303-.091.817-1.968.404-3.532c-.495-1.836-3.37-6.557-3.37-8.646c0-1.523 2.472-3.601 2.663-3.5m6.154-2.16c.283.052-.403 1.887-.02 3.996c.333 1.805 4.51 8.797 4.338 11.198c-.131 1.504-3.561 5.024-3.924 4.792c-.394-.1 1.039-2.502.504-4.5c-.605-2.33-4.287-8.363-4.287-11.016c0-1.957 3.147-4.59 3.399-4.469zm6.366 2.16c.222.04-.323 1.483-.02 3.127c.262 1.412 3.531 6.9 3.41 8.777c-.1 1.19-2.795 3.955-3.088 3.774c-.301-.091.818-1.968.405-3.532c-.485-1.836-3.37-6.557-3.37-8.646c0-1.523 2.471-3.601 2.663-3.5"/></svg>