<svg xmlns="http://www.w3.org/2000/svg" xmlns:xlink="http://www.w3.org/1999/xlink" width="24" height="24" viewBox="0 0 24 24"><path fill="currentColor" fill-rule="evenodd" d="M20.883 16.999V7.01l-8.884-5v9.993l-8.882 4.998L12.002 22l8.875-4.994l.006.003v-.006l.003-.002z" clip-rule="evenodd"/><path fill="currentColor" d="m12.005 2l8.884 4.999l-2.778 1.804l-8.889-5.228z"/><path fill="currentColor" d="M18.111 8.525v3.38l-8.889-5.04V3.57z"/><path fill="currentColor" d="m9.22 6.865l8.891 5.027l-3.333 1.879L5.89 8.74z"/><path fill="currentColor" d="M14.775 13.771v3.364L5.89 11.946V8.733z"/><path fill="currentColor" d="m5.89 11.943l8.888 5.146l-2.776 1.578l-8.89-4.999z"/><path fill="currentColor" d="M12 18.667V22l-8.89-5.003v-3.333zm6.113-10.128l2.776-1.52v10l-2.776 1.542zm-3.338 5.232l3.336-1.886v6.678l-3.336 1.862zM12 18.665l2.774-1.58v3.358L12 21.999z"/></svg>