<svg xmlns="http://www.w3.org/2000/svg" xmlns:xlink="http://www.w3.org/1999/xlink" width="24" height="24" viewBox="0 0 24 24"><path fill="currentColor" d="M8.259 2.046a.23.23 0 0 1 .274 0l1.143.88a.23.23 0 0 1 .084.242a.23.23 0 0 1-.105.142a.23.23 0 0 1-.253-.014l-1.006-.769l-3.293 2.5L19.553 16a.232.232 0 0 1 0 .37l-1.06.807a.226.226 0 0 1-.32-.047a.234.234 0 0 1 .045-.324l.823-.62L4.581 5.212a.23.23 0 0 1-.067-.29a.2.2 0 0 1 .068-.081L8.24 2.046zm3.667 0a.23.23 0 0 1 .274 0l7.353 5.432a.232.232 0 0 1-.002.374a.23.23 0 0 1-.135.042H15.74a.24.24 0 0 1-.137-.046l-4.82-3.506a.23.23 0 0 1-.088-.152a.24.24 0 0 1 .109-.232a.23.23 0 0 1 .254.014l4.756 3.322h2.918l-6.66-4.767l-4.609 3.5a.227.227 0 0 1-.359-.127a.24.24 0 0 1 .085-.243zm-6.33 4.815a.226.226 0 0 1 .32.046a.234.234 0 0 1-.045.324l-.768.583l14.45 10.983a.233.233 0 0 1 0 .37l-3.676 2.787a.226.226 0 0 1-.275 0l-1.051-.806a.234.234 0 0 1-.016-.356a.23.23 0 0 1 .12-.058a.23.23 0 0 1 .17.044l.923.694l3.293-2.5L4.581 8a.23.23 0 0 1-.067-.289a.2.2 0 0 1 .068-.082l1.005-.768zm-.877 9.247h3.676a.27.27 0 0 1 .138.047l4.765 3.465a.23.23 0 0 1 .068.285a.226.226 0 0 1-.343.085l-4.701-3.284H5.404l6.658 4.767l4.6-3.491a.22.22 0 0 1 .17-.045a.23.23 0 0 1 .151.09a.234.234 0 0 1-.046.325L12.2 21.954a.226.226 0 0 1-.274 0l-7.344-5.429a.23.23 0 0 1-.225-.197a.23.23 0 0 1 .264-.26a.2.2 0 0 1 .099.04"/></svg>