<svg xmlns="http://www.w3.org/2000/svg" xmlns:xlink="http://www.w3.org/1999/xlink" width="24" height="24" viewBox="0 0 24 24"><path fill="currentColor" d="M7 9.352V10.5L10.5 8L7 5.75v1.023a5.5 5.5 0 0 0 .5 10.977c1.26 0 3-.443 4-1.5c1.25-1.443 2.74-5.077 2.74-5.077l-4.464 2.893a2.877 2.877 0 0 1-4.627-.449a2.875 2.875 0 0 1 1.85-4.265"/><path fill="currentColor" d="M17 14.648V13.5L13.5 16l3.5 2.25v-1.023a5.5 5.5 0 0 0-.5-10.977c-1.26 0-3 .443-4 1.5c-1.25 1.443-2.74 5.077-2.74 5.077l4.464-2.893A2.875 2.875 0 1 1 17 14.648"/></svg>