<svg xmlns="http://www.w3.org/2000/svg" xmlns:xlink="http://www.w3.org/1999/xlink" width="24" height="24" viewBox="0 0 24 24"><path fill="currentColor" d="M6.179 11.392a.444.444 0 0 0 .375.68h5.066a.213.213 0 0 1 .181.325L6.83 20.36a.18.18 0 0 1-.25.056A10.011 10.011 0 0 1 11.68 2a.176.176 0 0 1 .153.269zm11.425-7.68a.175.175 0 0 0-.25.053l-4.896 7.844a.213.213 0 0 0 .18.325h5.066a.443.443 0 0 1 .375.68l-5.728 9.172a.14.14 0 0 0 .052.197a.14.14 0 0 0 .073.017a10.01 10.01 0 0 0 5.125-18.29z"/></svg>