<svg xmlns="http://www.w3.org/2000/svg" xmlns:xlink="http://www.w3.org/1999/xlink" width="24" height="24" viewBox="0 0 24 24"><g fill="currentColor" fill-rule="evenodd" clip-rule="evenodd"><path d="M18.062 18.062A8.573 8.573 0 1 1 5.937 5.937a8.573 8.573 0 0 1 12.125 12.125m-3.658-3.961a18.5 18.5 0 0 1 3.242-.4c.48-.011.957.084 1.397.278c.121.05.121.11.018.177a10.2 10.2 0 0 1-3.479 1.433c-.607.121-.644.327-.079.619c.553.285 1.05.625 1.482 1.026q.156.144-.061.17c-1.615.2-2.963-.31-4.335-1.105c-.116-.06-.182-.037-.207.091c-.133.631-.485 2.076-1.099 2.368a.07.07 0 0 1-.085-.012a.06.06 0 0 1 0-.08a4.9 4.9 0 0 0 .869-2.276a.14.14 0 0 0-.061-.134a.14.14 0 0 0-.146-.012c-1.487.753-2.853 1.372-4.59 1.172a.13.13 0 0 1-.103-.085a.12.12 0 0 1 .03-.121c.41-.379.874-.692 1.378-.93c.668-.315.644-.546-.085-.686a9.3 9.3 0 0 1-3.582-1.48a.1.1 0 0 1-.05-.074a.1.1 0 0 1 .026-.085a.1.1 0 0 1 .055-.03c1.481-.443 3.193-.122 4.705.188c.206.043.23 0 .067-.14a12.2 12.2 0 0 1-3.358-4.59q-.411-1.004.516-.449a14.3 14.3 0 0 1 3.965 3.46q.211.276.122-.06a4.7 4.7 0 0 1-.17-1.9q.075-.48.144-.945c.202-1.347.394-2.636.888-3.998a.44.44 0 0 1 .206-.242a.146.146 0 0 1 .2.072c.407.972.717 1.968.93 3.012c.177.858.166 1.757.155 2.65c-.004.39-.009.779.002 1.163q.01.244.164.06a14.5 14.5 0 0 1 4.299-3.52c.303-.159.395-.08.267.242a14.3 14.3 0 0 1-2.49 4.074a4.1 4.1 0 0 1-1.135.953a.12.12 0 0 0-.06.091a.1.1 0 0 0 0 .03q.02.036.048.025"/><path d="M19.071 19.071A10 10 0 1 1 4.93 4.928a10 10 0 0 1 14.14 14.143m-.55-.55A9.223 9.223 0 1 1 5.479 5.48a9.223 9.223 0 0 1 13.043 13.04"/></g></svg>