<svg xmlns="http://www.w3.org/2000/svg" xmlns:xlink="http://www.w3.org/1999/xlink" width="24" height="24" viewBox="0 0 24 24"><path fill="currentColor" d="M2 3.842v2.116l2.047 2.026l4.464 1.21v.948l1.794 4.442v1.469l1.68 1.857v.037l.015-.015l.016.015v-.037l1.679-1.857v-1.474l1.79-4.442v-.948l4.473-1.21L22 5.958V3.842l-.542 1.468l-1.505.906l-4.463.773l-3.474-.768v-.005h-.032v.005l-3.473.768l-4.464-.773l-1.505-.906z"/><path fill="currentColor" d="m6.737 15.39l1.084-4.874l1.706 4.137l-.395 1.684l2.342 2.421v1.4zm10.526 0l-1.084-4.874l-1.705 4.137l.395 1.684l-2.342 2.421v1.4z"/></svg>