<svg xmlns="http://www.w3.org/2000/svg" xmlns:xlink="http://www.w3.org/1999/xlink" width="24" height="24" viewBox="0 0 24 24"><path fill="currentColor" d="M17.74 6.591a7.286 7.286 0 0 0-11.482-.02q-.024.024-.047.01a2.9 2.9 0 0 0-1.19-.41a.03.03 0 0 1 0-.027a8.49 8.49 0 0 1 9.55-3.217a8.6 8.6 0 0 1 4.401 3.227l-.002.015l-.008.012l-.016.005a2.9 2.9 0 0 0-1.158.41q-.024.018-.048-.005"/><path fill="currentColor" d="M16.845 7.376a6.106 6.106 0 0 0-9.718.01a.03.03 0 0 1-.021-.01a3.5 3.5 0 0 0-.564-.59q-.022-.014 0-.037a6.955 6.955 0 0 1 10.92.021l-.003.015l-.008.012a2.8 2.8 0 0 0-.58.59a.03.03 0 0 1-.026-.011"/><path fill="currentColor" fill-rule="evenodd" d="M7.347 8.565a.03.03 0 0 1-.01-.015a2.7 2.7 0 0 0-2.195-2.09A2.738 2.738 0 0 0 2.6 10.877a2.696 2.696 0 0 0 4.739-1.106c.005-.015.01-.02.026-.02H8.87a.03.03 0 0 0 .026-.011a3 3 0 0 1 0-1.137v-.016a.03.03 0 0 0-.016-.016H7.364a.03.03 0 0 1-.017-.006m-1.169 1.583a1.8 1.8 0 0 0 .301-.988c0-.237-.047-.473-.137-.684A1.76 1.76 0 0 0 4.705 7.37a1.795 1.795 0 0 0-1.253 3.054a1.76 1.76 0 0 0 1.932.384a1.8 1.8 0 0 0 .794-.66m4.676-.398h5.765c.021 0 .037.011.037.032a2.67 2.67 0 0 0 2.906 2.09a2.64 2.64 0 0 0 1.869-1.042a2.74 2.74 0 0 0-.01-3.36a2.7 2.7 0 0 0-4.77 1.07a.04.04 0 0 1-.016.023a.04.04 0 0 1-.026.008h-5.776a.05.05 0 0 0-.052.032a1.5 1.5 0 0 0-.011 1.09a.085.085 0 0 0 .084.058m9.905.4a1.8 1.8 0 0 0 .303-.99v-.005a1.77 1.77 0 0 0-3.032-1.263a1.8 1.8 0 0 0 .571 2.916a1.76 1.76 0 0 0 1.36 0c.325-.137.603-.366.798-.659" clip-rule="evenodd"/><path fill="currentColor" d="M4.847 8.187a.2.2 0 0 1-.105-.053l-.005-.016v-.016h.031a.4.4 0 0 1 .09.063q.045.035-.01.022m14.9.21l-.027.016l-.006.004a.02.02 0 0 0-.004.016l.005.006l.115.184c0 .011.016.016.022.006l.031-.016l.005-.006a.02.02 0 0 0-.005-.02l-.11-.185l-.006-.005a.02.02 0 0 0-.015 0l-.006.005zm-.144.69c.068.105.132.173.147.163c.016-.01-.026-.1-.094-.2c-.069-.095-.132-.169-.148-.158c-.016.01.026.1.095.195"/><path fill="currentColor" d="M20.789 9.255c.01-.152 0-.342-.042-.563a.6.6 0 0 0 .026.184a.05.05 0 0 1-.01.048c-.006.015-.016.015-.027.015a.05.05 0 0 1-.052-.02l-.1-.132l-.011-.005a.03.03 0 0 0-.026.005a1.4 1.4 0 0 0-.042.353c0 .1-.021.11-.069.015l-.033-.07c-.043-.094-.078-.171-.188-.235h-.053a.4.4 0 0 1-.31-.042c-.037-.026-.048-.016-.027.02c.043.085.106.111.19.09a.06.06 0 0 1 .068.021a.06.06 0 0 1 0 .074a.83.83 0 0 1-.316.263q-.024.01-.01.027l.016.02c.005.011.015.011.026.011l.11-.052c.032-.01.043-.006.032.026c-.039.146-.131.242-.228.343l-.024.026a.1.1 0 0 0-.032.073a.26.26 0 0 0 .026.127q.01.017.01.036a.105.105 0 0 1-.062.106a.16.16 0 0 0-.085.095q-.093.268-.352.252a.07.07 0 0 1-.058-.037l-.158-.295a.06.06 0 0 1 0-.063c.063-.11.005-.231-.08-.31a.05.05 0 0 1-.012-.034q0-.02.013-.035a.1.1 0 0 0 .016-.042a.05.05 0 0 0-.026-.053l-.106-.052a.1.1 0 0 0-.053-.016h-.215a.05.05 0 0 1-.037-.01c-.148-.143-.169-.285-.106-.474a.4.4 0 0 1 .125-.154a.6.6 0 0 0 .107-.11a.07.07 0 0 1 .053-.026l.3-.037q.03 0 .031.032c.01.09.153.19.232.11a.04.04 0 0 1 .042-.005c.067.025.14.03.21.016c.043-.005.07-.047.064-.09q-.006-.03-.037-.031h-.079c-.032 0-.058-.016-.068-.042c-.006-.016-.006-.027.01-.037a.25.25 0 0 1 .174-.026q.158.022.031-.074c-.042-.032-.089-.037-.152-.032a.05.05 0 0 0-.042.037a.16.16 0 0 1-.106.11c-.02.006-.037 0-.042-.026a.3.3 0 0 0-.095-.158h-.01l-.026.011v.026a.17.17 0 0 1 .052.148v.01h-.02c-.011 0-.011-.005-.011-.01a.18.18 0 0 0-.09-.137a.07.07 0 0 0-.084 0l-.195.142a.05.05 0 0 1-.068 0q-.056-.063.015-.158c.016-.016.032-.016.053-.016l.042.016q.047.008.053-.032l.005-.047a.06.06 0 0 1 .032-.042l.19-.105a.13.13 0 0 1 .063-.006c.084.016.147-.015.2-.09c.01-.02.005-.03-.011-.041l-.016-.01q-.03-.015-.052.01l-.032.058q-.023.024-.053.01l-.068-.026l-.01-.01l-.006-.011v-.01l.01-.011l.006-.005c.086-.075.244-.214.353-.111c.005.005.01.016 0 .026v.021q.001.042.026.01a.4.4 0 0 1 .216-.11q.029 0 .005-.015c-.032-.027-.042-.058-.042-.1a.04.04 0 0 1 .026-.032l.053-.01c.052-.011.052-.022 0-.043a1.5 1.5 0 0 0-1.064.069a.55.55 0 0 0-.202.182l-.071.086l-.042.027a.57.57 0 0 0-.285.194q-.339.468-.237.974a.5.5 0 0 0 .092.182a1 1 0 0 1 .066.108a.1.1 0 0 1 .016.063a.76.76 0 0 0 .026.369c.03.083.079.16.143.22c.248.264.582.432.942.474a1.5 1.5 0 0 0 1.669-1.395"/><path fill="currentColor" fill-rule="evenodd" d="m4.974 8.597l.09.19v.005q.021.039-.011.016a.3.3 0 0 1-.077-.092a.3.3 0 0 0-.081-.093a.07.07 0 0 0-.058-.01a.6.6 0 0 1-.19.016a.06.06 0 0 0-.052.026c-.069.1-.074.295.084.305a.06.06 0 0 0 .052-.031a.4.4 0 0 1 .043-.058l.026-.01a.03.03 0 0 1 .021 0q.03.014.021.052l-.032.068q-.014.042.027.043l.084.015a.04.04 0 0 1 .03.018a.04.04 0 0 1 .007.035a.13.13 0 0 0 .02.126a.02.02 0 0 1 0 .027l-.01.015a.75.75 0 0 0-.447-.263a.4.4 0 0 1-.163-.073q-.03-.015-.037-.053a.43.43 0 0 0-.153-.242a.35.35 0 0 1-.089-.138l-.021-.047c-.064-.1-.016-.205.052-.284c.016-.01.021-.031.021-.053v-.205a.03.03 0 0 0-.042-.01l-.079.015q-.062-.001-.005-.026a.4.4 0 0 0 .11-.079q.064-.062-.015-.02a1.53 1.53 0 0 0-.864 1.673a1.51 1.51 0 0 0 1.818 1.061c.098-.146.178-.317.23-.508a.05.05 0 0 0-.004-.042a.05.05 0 0 0-.033-.027c-.088-.029-.13-.107-.173-.185a1 1 0 0 0-.059-.099a.06.06 0 0 1-.01-.052a.35.35 0 0 1 .063-.174a.2.2 0 0 0 .052-.137c0-.021 0-.032.01-.042c.075-.08.159-.126.264-.09q.063.024.126.016c.022 0 .032 0 .043.016a.32.32 0 0 0 .173.105q.03 0 .053.021q.023.025.04.055c.016.024.031.049.055.066a.4.4 0 0 0 .142.064a.04.04 0 0 1 .031.026a.05.05 0 0 1 0 .042c-.03.05-.053.103-.077.155a.7.7 0 0 1-.186.282q-.063.056-.116.12a.8.8 0 0 1-.2.18q-.114.064-.221.143A1.51 1.51 0 0 0 6.2 8.966c-.037-.148-.09-.311-.142-.474c-.116-.38-.526-.669-.879-.79c-.032-.016-.037-.01-.005.01l.042.032a.1.1 0 0 1 .042.058a.07.07 0 0 1-.01.053q-.01.015-.027 0a1 1 0 0 0-.326-.163a.05.05 0 0 0-.037.005a.05.05 0 0 0-.021.031a.17.17 0 0 1-.084.137q-.134.08.026.106a.16.16 0 0 1 .121.079l.01.01a.03.03 0 0 0 .022 0l.01-.005c.021-.027.026-.058.005-.095c-.01-.021-.01-.047-.01-.074a.06.06 0 0 0-.01-.052l-.038-.053c-.015-.021-.01-.037.016-.037a.2.2 0 0 1 .121.053l.006.016a.03.03 0 0 1-.011.036c-.01.006-.01.022-.01.032a.04.04 0 0 0 .031.026a.58.58 0 0 1 .332.2l-.01.011h-.017a.19.19 0 0 0-.163-.032l-.01.006v.01a.02.02 0 0 0 .01.021l.106.053a.02.02 0 0 1 .01.01v.016c-.01.016-.021.021-.042.016a.08.08 0 0 0-.074.021a.3.3 0 0 0-.116.21a.07.07 0 0 1-.02.043l-.064.063q-.017.017-.01.042m.162.247c-.026-.005-.026.006-.01.022h.047l.016.005q.056.046.105.02c.026-.004.021-.015 0-.025a.5.5 0 0 0-.158-.022" clip-rule="evenodd"/><path fill="currentColor" d="M8.39 19.005a8.65 8.65 0 0 1-4.922-7.117h.02c.359.157.753.247 1.196.263a.06.06 0 0 1 .052.052a7.42 7.42 0 0 0 4.396 5.77q.033.017.027.048a3.1 3.1 0 0 0-.053 1.269h-.01a5 5 0 0 1-.706-.285"/><path fill="currentColor" d="M9.185 17.637a7.1 7.1 0 0 1-4.107-5.476a.04.04 0 0 1 .027-.02c.27-.037.536-.108.79-.211l.01.006l.005.01a6.16 6.16 0 0 0 3.722 4.932c.021.011.021.027.01.043c-.157.21-.289.437-.4.69c-.01.026-.03.036-.057.02zm9.745-5.46a7.1 7.1 0 0 1-4.16 5.465a.03.03 0 0 1-.01-.016a3.2 3.2 0 0 0-.421-.732l.005-.01h.01a6.19 6.19 0 0 0 3.744-4.96h.021c.254.114.524.19.8.227l.008.012q.003.007.003.014"/><path fill="currentColor" d="M20.53 11.94a8.67 8.67 0 0 1-5.548 7.318l-.007-.007l-.004-.009a3 3 0 0 0-.068-1.253c-.01-.02 0-.037.021-.047a7.4 7.4 0 0 0 4.333-5.76q.002-.03.042-.031c.415.002.827-.08 1.21-.237q.008 0 .013.005l.009.01z"/><path fill="currentColor" fill-rule="evenodd" d="M9.847 10.812c.382.5.926.853 1.54.996v-.005q.03.009.03.042v4.207q.001.007-.002.014l-.008.012a2.742 2.742 0 0 0-1.295 4.633a2.696 2.696 0 0 0 3.354.332a2.732 2.732 0 0 0-.848-4.95a.05.05 0 0 1-.037-.041V11.86c0-.021.01-.037.027-.037a2.75 2.75 0 0 0 1.89-1.606v-.01q0-.007-.003-.012l-.008-.01l-.01-.005h-.974a.1.1 0 0 0-.074.037a1.75 1.75 0 0 1-2.437.406a1.8 1.8 0 0 1-.359-2.612a1.77 1.77 0 0 1 2.79.08a.06.06 0 0 0 .053.026h.995q.039.001.021-.037a2.72 2.72 0 0 0-2.274-1.653a2.71 2.71 0 0 0-2.927 2.637c-.023.63.174 1.247.556 1.747m3.404 9.205c.332-.335.519-.787.52-1.26a1.795 1.795 0 0 0-1.774-1.789a1.795 1.795 0 0 0 0 3.58a1.8 1.8 0 0 0 1.254-.531" clip-rule="evenodd"/><path fill="currentColor" fill-rule="evenodd" d="M12.197 17.484c.042.005.048.026.021.053a.37.37 0 0 1-.2.12l-.024.009l-.018.018c-.02.042-.016.084.021.137q.006.008.016.01h.016c.126-.047.2-.115.231-.22q.016-.048.016 0a.25.25 0 0 1-.02.136c-.027.056-.092.07-.15.082l-.035.008a.04.04 0 0 0-.026.021q-.008.024-.032.01a.24.24 0 0 1-.116-.12a.07.07 0 0 0-.063-.054h-.053c-.042.011-.047.027-.026.064c.147.242-.132.368-.316.395q-.119.009-.047.105q.072.101-.021.21a.05.05 0 0 1-.069 0l-.03-.029c-.016-.016-.03-.031-.054-.044a.33.33 0 0 1-.158-.237l-.005-.021l-.021-.01a.04.04 0 0 0-.02-.002l-.017.006a.8.8 0 0 0-.221.295a.1.1 0 0 0 0 .058l.02.08c.017.041.006.041-.025.01c-.058-.064-.069-.185-.032-.353a.12.12 0 0 0-.026-.116l-.01-.016l-.011-.004l-.011.004l-.005.006q-.03.126-.09.242c-.095.19-.116.42-.09.632a1.53 1.53 0 0 0 .748 1.142c.234.138.496.145.758.152l.169.006a.8.8 0 0 0 .369-.069a1.516 1.516 0 0 0 0-2.81a.04.04 0 0 0-.042.005l-.012.013l-.005.018v.053q-.001.024-.026.026h-.026l-.021-.021l-.005-.053l-.01-.02c-.006-.011-.011-.011-.017-.011l-.231.01h-.01a.03.03 0 0 0-.016.024a.03.03 0 0 0 .015.024a.2.2 0 0 0 .063.026m-.469.768c-.015.032-.005.064.021.085q.031.021.042.058l.037.168q.01.024.027.016h.02l.014-.005l.008-.01a.03.03 0 0 0 0-.027l-.027-.046c-.042-.075-.08-.14-.089-.228q-.014-.08-.053-.01m-.49.343l-.073-.11c-.021-.027-.021-.022-.021.01a1 1 0 0 0 .032.105a.06.06 0 0 1 0 .063q-.015.015-.037 0a.1.1 0 0 0-.026-.02q-.057-.027-.027.026c.095.189.195.342.427.357c.02.006.026-.005.01-.02c-.027-.022-.055-.03-.084-.039a.2.2 0 0 1-.095-.051c-.074-.084-.105-.174-.09-.253a.15.15 0 0 0-.015-.068m.206.252l.116.043v-.006a.03.03 0 0 0 .021 0a.03.03 0 0 0 .016-.015l.079-.28a.03.03 0 0 0-.003-.017a.03.03 0 0 0-.011-.013a.03.03 0 0 0-.017-.006a.03.03 0 0 0-.017.005l-.22.179a.03.03 0 0 0-.006.042l.026.053a.03.03 0 0 0 .016.015m.332.037l-.01-.026a.03.03 0 0 1-.011-.016q0-.006.002-.011l.008-.01l.053-.053c.021-.026.021-.036-.016-.026c-.053.005-.084.032-.105.08c-.026.047-.005.078.052.083a.03.03 0 0 0 .026-.021m.479.069c.031.079.079.095.153.052v.006a.06.06 0 0 1 .063 0l.047.026c.063.037.074.021.032-.037c-.09-.131-.216-.184-.385-.184a.07.07 0 0 1-.052-.021c-.021-.016-.037-.027-.063-.027h-.01a.02.02 0 0 0-.01.015v.01l.004.007a.25.25 0 0 0 .168.11a.06.06 0 0 1 .053.042m-.09.168q-.093-.025-.147.053a.05.05 0 0 1-.042.021h-.053a.06.06 0 0 0-.053.026l-.079.1c-.01.016-.026.032-.042.032l-.105.026a.07.07 0 0 0-.052.037a.08.08 0 0 0 0 .063l.073.2c.021.048.048.058.095.053l.184-.053c.127-.034.213.032.31.104l.022.017a.1.1 0 0 0 .053.016a.18.18 0 0 0 .147-.052a.7.7 0 0 0 .132-.2a.11.11 0 0 0-.021-.106a.9.9 0 0 1-.164-.279c-.02-.063-.047-.063-.063 0a.2.2 0 0 0 0 .063a.05.05 0 0 1-.01.042a.05.05 0 0 1-.053.01c-.068-.025-.105-.067-.105-.136a.036.036 0 0 0-.027-.037" clip-rule="evenodd"/></svg>