<svg xmlns="http://www.w3.org/2000/svg" xmlns:xlink="http://www.w3.org/1999/xlink" width="24" height="24" viewBox="0 0 24 24"><mask id="tokenTrias0" width="20" height="20" x="2" y="2" maskUnits="userSpaceOnUse" style="mask-type:luminance"><path fill="#fff" d="M22 2H2v20h20z"/></mask><g fill="none" mask="url(#tokenTrias0)"><mask id="tokenTrias1" width="20" height="20" x="2" y="2" maskUnits="userSpaceOnUse" style="mask-type:luminance"><path fill="#fff" d="M2 2h20v20H2z"/></mask><g mask="url(#tokenTrias1)"><path fill="currentColor" fill-rule="evenodd" d="M12.529 6.34a.265.265 0 0 0-.357.033L6.34 13.115a.22.22 0 0 0 .048.335l6.252 4.22a.27.27 0 0 0 .316-.015l3.959-3.278a.22.22 0 0 0 .075-.237l-1.704-5.668zm-5.682 6.812l6.123.555l.441-3.977l-1.163-2.824zm6.08.941l-5.628-.51l5.289 3.57zm.417.038l2.92.264l-3.247 2.69zm3.178-.103l-3.135-.284l.429-3.863l1.165-.98zm-1.766-5.46l-1.022.857l-.996-2.417z" clip-rule="evenodd"/></g></g></svg>