<svg xmlns="http://www.w3.org/2000/svg" xmlns:xlink="http://www.w3.org/1999/xlink" width="24" height="24" viewBox="0 0 24 24"><path fill="currentColor" d="m8.593 2.595l9.898 10.811L6.705 3.501l-.48.325l11.91 9.999L4.637 5.22c-.131.137-.25.275-.375.425l13.573 8.648L3.094 7.42a8 8 0 0 0-.244.5l14.747 6.873L2.194 9.938l-.1.55l15.34 4.836L2 12.612l.05.569l15.285 2.7l-14.823-.65c.063.187.138.38.213.562l14.585.644l-13.604 1.187l.375.525l13.279-1.162l-11.873 2.637c.187.15.375.3.562.437l11.436-2.53l-9.749 3.549c.25.112.5.218.763.312l9.173-3.337l-7.355 3.83q.486.075.981.113l6.624-3.45l-4.874 3.419c.438-.044.862-.125 1.281-.219l3.918-2.75l-2.5 2.294a10 10 0 0 0 2.075-1.143l.8-.738l-.281.338a9.99 9.99 0 0 0 3.25-10.561l-.126 2.906l-.368-4.237a9 9 0 0 0-.663-1.219l.481 5.5l-1.524-6.862c-.232-.25-.475-.5-.725-.725l1.706 7.711L17.16 3.44a9 9 0 0 0-.738-.406l3.425 9.417l-5.255-10.11a15 15 0 0 0-.713-.163l5.474 10.53l-7.492-10.705q-.329.001-.656.031l7.698 10.998L9.168 2.408a9 9 0 0 0-.575.187"/></svg>