<svg xmlns="http://www.w3.org/2000/svg" xmlns:xlink="http://www.w3.org/1999/xlink" width="24" height="24" viewBox="0 0 24 24"><path fill="currentColor" d="m13.875 20.125l-.625 1.563l-.625-4.044z"/><path fill="currentColor" d="m12.938 17l.938 3.125l-1.25-2.5L8.25 12l.938.625h.313zm-10-5.937l-.313 4.687l3.75-10z"/><path fill="currentColor" d="M8.25 6.062L6.375 5.75l-3.75 10zM7.313 14.5l.937-8.437l-5.625 9.687z"/><path fill="currentColor" d="m7.313 14.187l.937-8.125L21.375 2l-11.25 5.625L8.25 12l4.375 5.625zM9.5 3.25L10.125 2l.312 1.875l-.312.937l-.625.313zm2.188 0L10.126 2l.312 1.875h1.25z"/><path fill="currentColor" d="m10.438 3.875l-.312.938l1.562-.313l-.938-.625z"/><path fill="currentColor" d="M11.688 3.875h-.938l.938.625h.937l-.937-1.25zM8.25 20.75l-5.625-5l1.25 1.875z"/><path fill="currentColor" d="m5.75 14.813l-3.125.937l5.625 5h.937zm1.562-.625l-1.562.624l3.437 5.938l2.188-.937l1.25-2.188z"/><path fill="currentColor" d="m13.25 21.688l-.625-4.063l-1.25 2.188l-3.125.937L9.813 22zm-5-15.626L6.375 5.75l15-3.75zm.938 6.563L8.25 12l.938-2.187l.313 2.812z"/><path fill="currentColor" d="M9.188 11.063v-1.25l1.25.312v1.25l-.313.313zm3.75-3.75l-2.188 1.25l5 3.437z"/><path fill="currentColor" d="m14.5 12l-4.063-1.875v1.25z"/><path fill="currentColor" d="M14.5 12L9.188 9.812l1.562-1.25l5 3.438zm-4.062-.625l-.312.312l2.812 1.25L14.5 12zm2.5 1.563L14.5 12v2.188zM15.75 12H14.5v1.25h1.25zm-1.25 2.187v-.937h1.25l.938.937z"/><path fill="currentColor" d="m16.688 14.188l-.938-.938V12H17l.313.938zM17 12h-1.25l-2.812-4.687l.937-.313l2.813 3.75z"/><path fill="currentColor" d="M21.375 2L9.188 9.812l12.187-7.187z"/><path fill="currentColor" d="M10.125 7.312L21.375 2L9.188 9.812z"/></svg>