<svg xmlns="http://www.w3.org/2000/svg" xmlns:xlink="http://www.w3.org/1999/xlink" width="24" height="24" viewBox="0 0 24 24"><path fill="currentColor" d="M15.547 14.58V2.322l3.226 6.452V21.46c-.968.217-3.226.217-3.226.217zl-1.935 3.871h-3.226l-1.936-3.87v7.096s-1.984.032-3.225-.217V8.774L8.45 2.322V14.58z"/><path fill="currentColor" d="M5.226 21.46C3.883 21.147 2 19.819 2 18.47V2.322l3.226 6.452zm13.548 0C20.117 21.147 22 19.819 22 18.47V2.322l-3.226 6.452zM5.226 8.774L2 2.322h6.452zm13.548 0L22 2.322h-6.452zm-3.226 12.903H8.45l1.935-3.226h3.226z"/><path fill="currentColor" d="m10.386 18.451l-1.935 3.226V14.58zm5.162 3.226l-1.936-3.226l1.935-3.87z"/></svg>