<svg xmlns="http://www.w3.org/2000/svg" xmlns:xlink="http://www.w3.org/1999/xlink" width="24" height="24" viewBox="0 0 24 24"><g fill="currentColor" fill-rule="evenodd" clip-rule="evenodd"><path d="M11.152 6.375c3.225 0 5.848 2.726 5.848 6.078c0 3.35-2.623 5.797-5.848 5.797h-1.024v-2.5h1.024c1.848 0 3.35-1.37 3.35-3.297c0-1.929-1.502-3.578-3.35-3.578H5.126V19.5h-2.5V6.375z"/><path d="M11.641 2c5.368 0 9.734 4.486 9.734 10s-4.366 10-9.734 10H6.375V10.125h2.5V19.5h2.766c4.005 0 7.234-3.378 7.234-7.5c0-4.123-3.23-7.5-7.234-7.5H5.75V2z"/></g></svg>