<svg xmlns="http://www.w3.org/2000/svg" xmlns:xlink="http://www.w3.org/1999/xlink" width="24" height="24" viewBox="0 0 24 24"><path fill="currentColor" d="m7.025 4.87l4.315 4.22a.4.4 0 0 1 0 .57l-4.32 4.23a.42.42 0 0 1-.585 0L2.119 9.665a.4.4 0 0 1 0-.57L6.44 4.87a.42.42 0 0 1 .586 0m5.27 5.24l4.315 4.225a.4.4 0 0 1 0 .57l-4.32 4.226a.42.42 0 0 1-.585 0L7.39 14.91a.4.4 0 0 1 0-.57l4.32-4.231a.42.42 0 0 1 .585 0m5.27-5.24l4.316 4.22a.4.4 0 0 1 0 .57l-4.32 4.23a.42.42 0 0 1-.586 0L12.66 9.665a.4.4 0 0 1 0-.57l4.32-4.225a.42.42 0 0 1 .585 0"/></svg>