<svg xmlns="http://www.w3.org/2000/svg" xmlns:xlink="http://www.w3.org/1999/xlink" width="24" height="24" viewBox="0 0 24 24"><path fill="currentColor" fill-rule="evenodd" d="M21.997 12.004C21.997 17.524 17.52 22 12 22s-9.996-4.475-9.996-9.996S6.479 2.007 12 2.007s9.997 4.476 9.997 9.997m-8.855-5.88h2.352l-1.658 4.116l5.221-1.665v2.247l-3.704 1.182l3.704 1.176v2.252l-5.104-1.635l1.647 4.087h-2.352L12 14.797l-1.247 3.087H8.402l1.694-4.199l-5.151 1.647v-2.246l3.393-1.088l-3.393-1.082V8.67l5.268 1.687l-1.705-4.234h2.352l1.141 2.829z" clip-rule="evenodd"/><path fill="currentColor" d="M21.45 15.267a10 10 0 0 1-3.181 4.528c-1-.988-1.923-3.293-.788-4.587c1.1-1.252 2.999-.54 3.969.059M7.867 21.106a10.04 10.04 0 0 1-4.892-4.798c.788-.294 2.105-.377 3.404.794c1.459 1.317 1.694 3.063 1.488 4.004M4.98 4.888c.823.365 1.9.647 2.705.242l.7-.36c.781-.41.964-.51 1.628-.352c.312.076.565.276.823.476c.424.335.865.682 1.624.512c1.093-.247 3.01-1.5 3.01-2.781A9.98 9.98 0 0 0 4.98 4.883z"/></svg>