<svg xmlns="http://www.w3.org/2000/svg" xmlns:xlink="http://www.w3.org/1999/xlink" width="24" height="24" viewBox="0 0 24 24"><path fill="currentColor" d="M22 3.765L18.418 16.04c-.089.306-.177.618-.277.93c-.047.152-.094.305-.153.458a4.06 4.06 0 0 1-2.194 2.347c-.6.247-1.235.353-1.876.4c-.594.048-1.318.06-1.918.06a26 26 0 0 1-1.918-.06a6 6 0 0 1-1.876-.4a3.85 3.85 0 0 1-2.194-2.352a6 6 0 0 1-.153-.453c-.1-.312-.188-.624-.277-.93L2 3.765c.659.023 1.465.053 2.118.117c.688.065 1.423.189 2.064.489c.683.323 1.177.8 1.553 1.47c.365.647.589 1.388.794 2.088A1145 1145 0 0 0 11.8 18.735h.4s1.765-5.723 3.276-10.806c.206-.7.424-1.44.789-2.082a3.37 3.37 0 0 1 1.553-1.47c.647-.306 1.382-.424 2.058-.495A37 37 0 0 1 22 3.765"/></svg>