<svg xmlns="http://www.w3.org/2000/svg" xmlns:xlink="http://www.w3.org/1999/xlink" width="24" height="24" viewBox="0 0 24 24"><path fill="currentColor" d="m12.358 3l-.321-1l-.326 1h-1.043l.843.61l-.316 1l.842-.62l.842.615l-.321-.994l.842-.616h-1.042zM8.153 4.437l-.321-1l-.327 1H6.463l.842.616l-.316.994l.843-.615l.842.615l-.321-1l.842-.61zm7.979-1l.32 1H17.5l-.842.616l.316.994l-.842-.615l-.842.615l.315-1l-.842-.61h1.042zm3.6 3.879l-.316-.995l-.326 1h-1.048l.842.61l-.316 1l.843-.62l.842.615l-.316-.994l.842-.616zm.9 3.352l.326 1H22l-.842.616l.316.995l-.842-.616l-.843.616l.316-1l-.842-.61h1.047zm-1.116 5.616l-.321-1l-.321 1h-1.048l.843.616l-.316 1l.842-.621l.842.616l-.316-1l.842-.61zm-3.195 1.884l.316 1h1.052l-.847.611l.321 1l-.842-.616l-.847.616l.32-1l-.841-.616h1.042zm-4.01 2.222l-.316-1l-.326 1H10.62l.842.615l-.316.995l.842-.616l.843.616l-.316-1l.842-.61zm-4.648-2.437l.321 1h1.042l-.842.61l.321 1l-.842-.62l-.842.615l.316-.995l-.842-.616h1.042zm-2.752-1.885l-.322-1l-.32 1H3.22l.842.616l-.316.995l.842-.616l.843.616l-.316-1l.842-.61zm-1.543-5.4l.321 1h1.048l-.842.616l.316.995l-.843-.616l-.842.616l.316-1L2 11.674h1.042l.326-1zm1.316-3.352l-.316-.995l-.326 1H2.995l.842.61l-.316 1l.842-.62l.842.615l-.316-.994l.843-.616z"/><path fill="currentColor" d="M15.474 13.58V7.263h2.368c.453 0 .842.084 1.158.258q.482.251.737.715q.252.465.252 1.09q.002.628-.258 1.084c-.168.3-.42.526-.747.684q-.483.246-1.179.248h-1.584v-1.08H17.6c.242 0 .447-.036.605-.105a.75.75 0 0 0 .358-.315q.12-.213.121-.521c0-.621-.474-1.011-1.09-1.011h-.857v5.263h-1.263zm3.236-2.874l1.5 2.873h-1.4l-1.463-2.873h1.369zm-5.658-3.442h1.316v4.042a2.13 2.13 0 0 1-1.19 1.99q-.56.283-1.31.283q-.749 0-1.316-.284a2.13 2.13 0 0 1-1.184-1.99v-4.04h1.316v3.931c0 .71.442 1.227 1.184 1.227c.737 0 1.184-.516 1.184-1.227zm-8.684 6.315V7.264h3.948v1.052H5.684v1.58h2.632v1.052H5.684v1.579h2.632v1.052zm4.948 4.737l-1.1-2.105h.773l1.042 2.105h-.72zm1.72-2.105h-.741l-.511 1l.395.637zm.19 2.105v-2.105h.568l1.053 1.116V16.21h.59v2.105h-.585L11.8 17.053v1.263h-.58zm2.421-2.105h.821l1.663 2.105h-.858l-.405-.526l-.4.526h-.82l.81-1.052zm2.405 0h-.779l-.273.416l.4.353z"/></svg>