<svg xmlns="http://www.w3.org/2000/svg" xmlns:xlink="http://www.w3.org/1999/xlink" width="24" height="24" viewBox="0 0 24 24"><path fill="currentColor" d="m11.904 17.099l.065-.394c.023-.124.03-.26.03-.4V3.27c0-.318-.024-.635 0-.947c.01-.13-.036-.218-.148-.265c.07-.058.135-.07.188-.047l8.188 3.612q.028.016.012.041l-8.211 11.529q-.02.027-.048.011q-.05-.017-.076-.105"/><path fill="currentColor" d="M11.851 2.058q.167.071.147.265v13.982c0 .14-.006.276-.03.4l-.064.394L3.752 5.652v-.017zm.147 16.429v2.94c0 .183.018.33.082.436c-.011.064-.035.106-.064.13c-.024.011-.041.011-.053-.013q-4.68-8.224-9.37-16.446h.017l9.388 12.958z"/><path fill="currentColor" d="M12.08 21.863a.8.8 0 0 1-.088-.435q.027-.796 0-2.941a6732 6732 0 0 0 9.382-12.94c.006-.012.018-.012.024-.007c.011 0 .011.012.006.024l-9.112 15.97a3 3 0 0 1-.206.329z"/></svg>