<svg xmlns="http://www.w3.org/2000/svg" xmlns:xlink="http://www.w3.org/1999/xlink" width="24" height="24" viewBox="0 0 24 24"><path fill="currentColor" fill-rule="evenodd" d="M20.402 7.286L12 2.56L3.598 7.286v9.428L12 21.44l8.402-4.726zm-8.128-5.214a.56.56 0 0 0-.549 0L3.323 6.798a.56.56 0 0 0-.285.488v9.428a.56.56 0 0 0 .285.488l8.402 4.726a.56.56 0 0 0 .55 0l8.402-4.726a.56.56 0 0 0 .285-.488V7.286a.56.56 0 0 0-.285-.488z" clip-rule="evenodd"/><path fill="currentColor" fill-rule="evenodd" d="m12.347 18.532l6.021-10.297c.246-.42-.227-.892-.652-.65l-5.7 3.235l-5.684-3.234c-.425-.242-.898.23-.653.65l6.005 10.296a.385.385 0 0 0 .663 0m-.025-1.796l3.802-6.713c.096-.168-.093-.354-.262-.258l-3.865 2.203l.009.02l-2.317 1.32l1.966 3.43a.385.385 0 0 0 .667-.002m-3.131-4.298l1.82-1.031L8.02 9.679c-.17-.098-.36.09-.263.258z" clip-rule="evenodd"/><path fill="currentColor" d="m11.7 12.16l-.99-.579l1.517-.88l.957.587z"/><path fill="currentColor" d="m10.412 11.06l3.97 2.288l.67-.726l-3.925-2.306z"/></svg>