<svg xmlns="http://www.w3.org/2000/svg" xmlns:xlink="http://www.w3.org/1999/xlink" width="24" height="24" viewBox="0 0 24 24"><path fill="currentColor" fill-rule="evenodd" d="M12 22a10 10 0 1 0 0-20a10 10 0 0 0 0 20m0-1.177a8.824 8.824 0 1 0 0-17.648a8.824 8.824 0 0 0 0 17.649" clip-rule="evenodd"/><path fill="currentColor" d="M6.865 9.647H5.53l3.152 7.059h.965l2.37-5.383l2.318 5.383h1.053l3.083-7.059h-1.26L14.86 15l-2.33-5.353h-1L9.136 15L6.86 9.647zM5.53 7.882v.589h4.57l.377-.318h7.994v-.27z"/></svg>