<svg xmlns="http://www.w3.org/2000/svg" xmlns:xlink="http://www.w3.org/1999/xlink" width="24" height="24" viewBox="0 0 24 24"><path fill="currentColor" d="M10.336 19.346A9.01 9.01 0 0 0 13.76 2A10.084 10.084 0 1 1 2 13.76a9.01 9.01 0 0 0 8.336 5.586"/><path fill="currentColor" d="M19.346 10.335a9.01 9.01 0 0 1-14.272 7.311A9.01 9.01 0 1 0 17.278 4.593a8.97 8.97 0 0 1 2.062 5.749z"/><path fill="currentColor" d="M2.338 11.298c.287 2.237 2.262 6.81 7.885 7.192c-1.106-6.542-5.717-7.523-7.885-7.192m16.264 0c-.28 2.237-2.262 6.81-7.885 7.192c1.112-6.542 5.723-7.523 7.885-7.192"/><path fill="currentColor" d="M10.073 16.303c.194.462.35 1.137.406 1.418c.256-1.73 1.719-5.442 5.511-6.448c.007-1-.093-3.25-.53-4.324c-4.943 2.256-5.65 7.173-5.387 9.354"/><path fill="currentColor" d="M9.642 15.278c-1.437-2.856-3.7-3.868-4.65-4.011c-.043-.794-.012-2.762.488-4.3c3.093 1.45 4.474 3.912 4.774 4.968a9.7 9.7 0 0 0-.612 3.343"/><path fill="currentColor" d="M8.217 8.349a11.5 11.5 0 0 1 2.287 3.105c.338-.693 1.262-2.293 2.25-3.105c-.306-.794-1.175-2.637-2.25-3.668c-1.106 1.018-1.987 2.874-2.287 3.668"/></svg>