<svg xmlns="http://www.w3.org/2000/svg" xmlns:xlink="http://www.w3.org/1999/xlink" width="24" height="24" viewBox="0 0 24 24"><path fill="currentColor" d="M2.135 10.47a.54.54 0 0 1 0-.713a.43.43 0 0 1 .652 0L6.22 13.53a.55.55 0 0 1 0 .713a.43.43 0 0 1-.652 0zm9.302-.713a.55.55 0 0 1 0 .713l-3.434 3.773a.43.43 0 0 1-.652 0a.54.54 0 0 1 0-.713l3.434-3.773a.43.43 0 0 1 .652 0m1.13.713a.54.54 0 0 1 0-.713a.43.43 0 0 1 .652 0l3.434 3.773a.55.55 0 0 1 0 .713a.43.43 0 0 1-.652 0zm9.303 0a.55.55 0 0 0 0-.713a.43.43 0 0 0-.652 0l-3.434 3.773a.54.54 0 0 0 0 .713a.43.43 0 0 0 .652 0z"/></svg>