<svg xmlns="http://www.w3.org/2000/svg" xmlns:xlink="http://www.w3.org/1999/xlink" width="24" height="24" viewBox="0 0 24 24"><path fill="currentColor" d="M21.975 11.031C19.675-2.263 2.312.312 2 11.031l1.637.844s-.53.312-1.637 1.037c2.012 13.05 19.094 11.15 20-.018q-.838-.515-1.681-1.02zm-8.563 4.65l-1.63-2.812l-1.638 2.812l-1.263-.094l2.369-3.98L9.125 8.18l1.281-.112l1.5 2.543l1.513-2.437l1.187.025l-1.962 3.387l2.187 4.05l-1.412.044z"/><path fill="currentColor" d="M21.156 10.5C18.038-1.312 3.77 1.875 2.794 10.5l2.437 1.375l-2.437 1.55C4.919 24.794 20.319 22.6 21.156 13.4c-1.543-.975-2.475-1.55-2.475-1.55s2.1-1.125 2.475-1.35m-7.737 5.2l-1.638-2.812L10.12 15.7l-1.263-.087l2.376-3.982l-2.126-3.43l1.282-.107l1.5 2.544L13.394 8.2l1.194.025l-1.963 3.381l2.213 4.05l-1.413.044z"/></svg>