<svg xmlns="http://www.w3.org/2000/svg" xmlns:xlink="http://www.w3.org/1999/xlink" width="24" height="24" viewBox="0 0 24 24"><path fill="currentColor" d="M12.003 21.998a10 10 0 0 0 9.83-11.823l-2.344 1.375l.012.45a7.499 7.499 0 0 1-13.478 4.53l2.993-1.787a4.06 4.06 0 0 0 6.636-3.962l3.25-1.937l2.087-1.218a9.998 9.998 0 1 0-8.986 14.372M7.69 12.406l-2.874 1.719a7.499 7.499 0 0 1 12.472-7.449l-3.062 1.83A4.061 4.061 0 0 0 7.704 12.4zm10.436-4.361l-4.543 2.736v2l-1.894 1.094l-1.656-.956l-4.355 2.618l-.25-.413L9.797 12.5v-1.906L11.69 9.5l1.575.913l4.612-2.775z"/></svg>