<svg xmlns="http://www.w3.org/2000/svg" xmlns:xlink="http://www.w3.org/1999/xlink" width="24" height="24" viewBox="0 0 24 24"><path fill="currentColor" d="M3.667 5.333a1.667 1.667 0 1 0 0-3.333a1.667 1.667 0 0 0 0 3.333m16.666 0a1.667 1.667 0 1 0 0-3.333a1.667 1.667 0 0 0 0 3.333m0 16a1.667 1.667 0 1 0 0-3.333a1.667 1.667 0 0 0 0 3.333M3.667 22a1.667 1.667 0 1 0 0-3.333a1.667 1.667 0 0 0 0 3.333m13.573-3.333a1.41 1.41 0 0 1-1.187-.634a1.5 1.5 0 0 1-.2-.433a4 4 0 0 0-7.713 0c-.083.303-.26.572-.507.767c-.247.2-.553.3-.867.3H6.76a1.425 1.425 0 0 1-1.427-1.427a1.41 1.41 0 0 1 .633-1.187q.202-.13.434-.2a4.006 4.006 0 0 0 0-7.713a1.47 1.47 0 0 1-.767-.507a1.4 1.4 0 0 1-.3-.866V6.76a1.427 1.427 0 0 1 2.613-.793q.13.202.2.433a4.007 4.007 0 0 0 7.714 0a1.47 1.47 0 0 1 .506-.767c.247-.2.554-.3.867-.3h.007a1.426 1.426 0 0 1 1.427 1.427a1.42 1.42 0 0 1-.634 1.187a1.7 1.7 0 0 1-.433.2a4 4 0 0 0 0 7.713c.303.083.572.26.766.507c.2.246.3.553.3.866v.007a1.427 1.427 0 0 1-1.426 1.427m-5.24-5a1.667 1.667 0 1 0 0-3.335a1.667 1.667 0 0 0 0 3.335"/></svg>