<svg xmlns="http://www.w3.org/2000/svg" xmlns:xlink="http://www.w3.org/1999/xlink" width="24" height="24" viewBox="0 0 24 24"><path fill="currentColor" fill-rule="evenodd" d="M15.045 5.512C14.732 4.406 13.689 2 12.032 2c-1.662 0-2.78 2.281-3.125 3.512c-.237.744-.7 2.613-.762 4.157l-2.038 1.63c-.818-.818-2.337-2.712-1.85-3.693c.488-.987 2.532-.862 3.494-.675l.188-.912c-1.607-.325-4.794-.407-4.688 1.906c.138 2.894 3.575 5.444 4.894 6.325c.019.488.112 1.675.344 2.55c-.875.269-2.9.644-3.938 0c-1.037-.644.256-2.631 1.031-3.538l-.687-.725c-.938 1.038-2.456 3.457-1.063 4.85c1.75 1.744 6.719-.13 8.2-.83l2.3.968c-.262 1.131-1.093 3.412-2.3 3.456s-2-1.875-2.25-2.844l-.843.3c.262 1.175 1.256 3.544 3.093 3.563c1.844.019 3.007-3.063 3.357-4.613c.137-.762.412-2.468.45-3.137c.418-.262 1.406-.963 2.03-1.6c.72.706 2.107 2.394 1.913 3.437c-.237 1.3-1.93 1.1-3.518.907L16 17.93c1.563.344 4.688.469 4.75-1.844c.056-2.318-3.25-5.243-4.912-6.418a15.5 15.5 0 0 0-.344-2.438c1.225-.419 3.787-.912 4.275.519c.1.362-.025 1.462-1.325 2.95l.687.719c.881-.963 2.35-3.257 1.175-4.694c-1.462-1.794-6.537-.4-8.275.706c-.5-.237-1.668-.756-2.362-.906c.219-1.1.981-3.35 2.275-3.556c.406-.05 1.431.443 2.243 2.806zm-8.206 6.456l1.218-1.012v2.062zm2.587-4.6l1.475.557l-1.756 1.037zm5.188.025l.28 1.575l-1.78-1.012zm2.568 4.619l-1.212 1.025l-.013-2.062zm-2.562 4.469l-1.5-.482v-.006l1.706-1.112zm-5.219.043l1.5-.487l-1.706-1.119zM12.02 8.25L8.876 10.2v3.687l3.144 1.862l3.106-1.862V10.2z" clip-rule="evenodd"/><path fill="currentColor" d="M12.002 13.25a1.25 1.25 0 1 0 0-2.5a1.25 1.25 0 0 0 0 2.5"/></svg>