<svg xmlns="http://www.w3.org/2000/svg" xmlns:xlink="http://www.w3.org/1999/xlink" width="24" height="24" viewBox="0 0 24 24"><path fill="currentColor" fill-rule="evenodd" d="M12.313 4.416a.622.622 0 1 0-.708-1.023a.624.624 0 0 0 .074 1.036l-8.772 15.13a.622.622 0 0 0-.816.88a.623.623 0 0 0 1.156-.324h17.476a.624.624 0 0 0 .625.622a.624.624 0 1 0-.02-1.245zm8.71 15.165l-9.038-15.07l-8.842 15.258l.02.031h17.645a.6.6 0 0 1 .216-.219" clip-rule="evenodd"/><path fill="currentColor" d="m7.617 16.994l4.366-2.253l4.372 2.253z"/><path fill="currentColor" d="m11.986 9.504l-4.37 7.49l4.37-2.21z"/><path fill="currentColor" d="m11.985 9.504l4.37 7.49l-4.37-2.21z"/></svg>