<svg xmlns="http://www.w3.org/2000/svg" xmlns:xlink="http://www.w3.org/1999/xlink" width="24" height="24" viewBox="0 0 24 24"><path fill="currentColor" d="m21.661 6.98l-7.327 12.529a2.5 2.5 0 0 1-2.182 1.244a2.54 2.54 0 0 1-2.182-1.244L8.688 17.32l-.006-.009a.03.03 0 0 1 .006-.029l.025-.006l.019.006a2.114 2.114 0 0 0 2.65.25a1.96 1.96 0 0 0 .651-.687l6.133-10.492a2.063 2.063 0 0 0-1.288-3.057l-.018-.006l-.006-.009l-.003-.01q0-.006.003-.01l.006-.009l.018-.006h2.601a2.54 2.54 0 0 1 2.189 1.25a2.47 2.47 0 0 1-.007 2.483M12.99 3.247h-2.54a.03.03 0 0 0-.014.01a.03.03 0 0 0-.005.015v.012l.02.013a1.27 1.27 0 0 1 .737.75a1.24 1.24 0 0 1-.094 1.044l-3.701 6.321a1.27 1.27 0 0 1-.9.607a1.3 1.3 0 0 1-1.063-.313a.03.03 0 0 0-.018.007a.03.03 0 0 0-.007.018v.019l1.3 2.226a1.65 1.65 0 0 0 1.438.825a1.68 1.68 0 0 0 1.444-.825l4.846-8.266a1.627 1.627 0 0 0-.613-2.244a1.67 1.67 0 0 0-.831-.22m-8.816 0c-.875 0-1.688.531-2.026 1.338A2.238 2.238 0 0 0 4.18 7.623A2.25 2.25 0 0 0 6.368 5.41c0-1.188-1.019-2.163-2.188-2.163z"/></svg>