<svg xmlns="http://www.w3.org/2000/svg" xmlns:xlink="http://www.w3.org/1999/xlink" width="24" height="24" viewBox="0 0 24 24"><path fill="currentColor" fill-rule="evenodd" d="M6.939 3.25h10.04L22 11.986l-5.02 8.764H6.938L2 11.986zm.785 1.458h7.194L9.091 6.78zm-.404.38l-3.439 5.87l4.592-3.823zm10.187 6.736l-1.413-6.786l-6.75 2.067zm-14.257.478l5.443-4.611v9.338zm6.068 4.768V7.49l8.233 4.79zm7.495-11.06l3.541 5.997h-2.246zm-.042 12.686l3.619-6.106h-2.406zm-7.36-1.173l7.946-4.59l-1.314 6.774zm-5.46-3.846l3.328 5.817l1.1-2.006zm3.819 6.03h6.848L8.78 17.808z" clip-rule="evenodd"/><path fill="currentColor" d="M9.084 8.548a1.633 1.633 0 1 0 0-3.265a1.633 1.633 0 0 0 0 3.265m8.866 5.509a1.966 1.966 0 1 0-.001-3.933a1.966 1.966 0 0 0 0 3.933"/><path fill="currentColor" d="M9.084 8.067a1.151 1.151 0 1 0 0-2.303a1.151 1.151 0 0 0 0 2.303m1.633 9.268a1.767 1.767 0 1 1-3.533 0a1.767 1.767 0 0 1 3.533 0m7.232-3.858a1.386 1.386 0 1 0 0-2.773a1.386 1.386 0 0 0 0 2.773"/></svg>