<svg xmlns="http://www.w3.org/2000/svg" xmlns:xlink="http://www.w3.org/1999/xlink" width="24" height="24" viewBox="0 0 24 24"><path fill="currentColor" d="M2.572 11.612a4.5 4.5 0 0 1-.522-2.13c3.579-2.37 10.902-7.137 11.555-7.226a2.13 2.13 0 0 1 1.332.206c5.578 6.402 6.746 11.754 7.028 15.23c.13.913-.035 2.933-1.704 3.75c-2.088 1.03-3.874-.247-5.324-.59c-1.442-.35-4.396-1.477-5.763-2.357c-1.36-.886-1.903-1.56-2.645-2.253c-.749-.7-3.394-3.648-3.957-4.63"/><path fill="currentColor" d="M17.204 6.144c.268-.371.715.206.907.535c1.656 2.123 3.16 6.78 3.098 6.78c-.46-1.483-4.328-6.855-4.005-7.315m-8.422.999c3.37-2.052 5.813-4.21 5.457-4.818c-.357-.61-3.377.56-6.748 2.613c-3.37 2.052-5.813 4.209-5.456 4.818s3.377-.56 6.747-2.613m-6.595 3.445c-.165-.15-.062-.384.014-.48c.522.247 2.322-.22 3.16-.481c-.99.377-3.009 1.113-3.174.961"/></svg>