<svg xmlns="http://www.w3.org/2000/svg" xmlns:xlink="http://www.w3.org/1999/xlink" width="24" height="24" viewBox="0 0 24 24"><path fill="currentColor" d="M16.865 5.055a43 43 0 0 1-4.94 7.234c-1.695-1.647-3.506-3.958-5.488-7.005c1.411-1.935 3.235-3.211 5.14-3.282c1.659-.059 3.647 1.147 5.288 3.053m-6.14 9.675l.264 7.27c-4.776-.424-7.881-4.206-7.105-10.17c.182-1.4.57-2.764 1.112-4c0 0 2.835 4.365 5.728 6.9m2.617-.117l.259 7.293c4.734-.765 7.558-4.752 6.358-10.646a13.5 13.5 0 0 0-1.441-3.84a42.4 42.4 0 0 1-5.176 7.193"/></svg>