<svg xmlns="http://www.w3.org/2000/svg" xmlns:xlink="http://www.w3.org/1999/xlink" width="24" height="24" viewBox="0 0 24 24"><path fill="currentColor" fill-rule="evenodd" d="M12 21.45a9.451 9.451 0 1 0 0-18.902a9.451 9.451 0 0 0 0 18.902m0 .55a10 10 0 1 0 0-19.998A10 10 0 0 0 12 22" clip-rule="evenodd"/><path fill="currentColor" fill-rule="evenodd" d="M12 20.9a8.9 8.9 0 1 0 0-17.8a8.9 8.9 0 0 0 0 17.8m0 .55a9.45 9.45 0 1 0 0-18.9a9.45 9.45 0 0 0 0 18.9" clip-rule="evenodd"/><path fill="currentColor" d="M15.75 7.625h-7.5V9.5h4.563L8.25 14.938v1.437h7.5V14.5h-4.488l4.488-5.419z"/></svg>