<svg xmlns="http://www.w3.org/2000/svg" xmlns:xlink="http://www.w3.org/1999/xlink" width="24" height="24" viewBox="0 0 24 24"><path fill="currentColor" d="M12 22a10 10 0 1 0 0-20a10 10 0 0 0 0 20M4.353 7.565l-.1.03a8.93 8.93 0 1 1 7.765 13.329a3.37 3.37 0 0 1-3.355-3.6a3.37 3.37 0 0 1 .608-1.712l.005-.012a3.354 3.354 0 0 1 4.448-.941l1.352 1.335c.16.235 1.489.159 1.724 0c.188-.117.177-.735.165-.988c0-.065.023-.135.076-.177c.177-.158.577-.511.7-.635c.118-.118.147-.547.153-.753c0-.065.035-.13.094-.176c.218-.177.318-.465.353-.618a.21.21 0 0 0-.023-.177l-1.236-1.964a.22.22 0 0 1-.03-.153c.019-.159.013-.541-.41-1.018c-.548-.63-3.213-2.117-3.6-2.194c-.295-.059-.719-.03-.912-.012a.22.22 0 0 1-.189-.064c-.264-.265-1.13-1.118-1.33-1.26c-.223-.146-.323-.058-.382 0h-.005c-.146.303-.24.627-.283.96a.235.235 0 0 1-.253.194c-1.506-.153-4.012.317-5.33.606z"/></svg>