<svg xmlns="http://www.w3.org/2000/svg" xmlns:xlink="http://www.w3.org/1999/xlink" width="24" height="24" viewBox="0 0 24 24"><path fill="currentColor" d="m10.816 21.919l.737.08h.928l.118-.027l.186-.015q.373-.025.742-.085c2.439-.38 4.44-1.518 6.078-3.363c.055-.073.064-.118 0-.2l-2.093-2.782l-.081-.09l-.092.145a6.5 6.5 0 0 1-2.483 2.172c-.091.055-.146.055-.237-.036l-1-.981l-.61-.591l-6.015 4.49l.032.026q.018.02.032.02a9.9 9.9 0 0 0 3.758 1.237m2.13-19.865L12.435 2h-.865l-.043.011c-.029.008-.057.016-.094.016q-.196.022-.397.04a9 9 0 0 0-.785.097a9.9 9.9 0 0 0-5.26 2.727c-.176.17-.343.351-.515.539l-.148.161l2.247 2.981l.091-.136a6.5 6.5 0 0 1 2.52-2.2c.082-.045.137-.036.21.028q.476.48.962.952l.32.311l.237.219l6.114-4.374c-.027-.026-.046-.045-.064-.045a9.8 9.8 0 0 0-4.02-1.273M7.876 12.982L3.328 7.027c-1.21 2.2-1.62 4.51-1.12 6.955a9.94 9.94 0 0 0 3.385 5.69l2.966-2.226l-.027-.046l-.09-.064a6.5 6.5 0 0 1-2.203-2.518c-.045-.081-.036-.127.028-.19l.682-.7zm9.18-2.846L16.22 11v.01l4.476 5.908a9.984 9.984 0 0 0-2.274-12.59l-2.984 2.236l.118.09a6.5 6.5 0 0 1 2.23 2.546c.045.081.045.146-.029.21z"/></svg>