<svg xmlns="http://www.w3.org/2000/svg" xmlns:xlink="http://www.w3.org/1999/xlink" width="24" height="24" viewBox="0 0 24 24"><path fill="currentColor" d="M7.879 2.11a.88.88 0 0 0-1.017.118l-1.072.966c-.473.428-.39 1.222.177 1.522l8.656 4.667l-6.056 4.445a.7.7 0 0 0 .09 1.189l9.988 5.05l-1.389 1.005L5.33 14.378l5.627-4a.706.706 0 0 0-.039-1.173L7.462 7.083l-.511.767l3.205 1.966l-5.644 4.017a.71.71 0 0 0 .06 1.184l12.251 6.872c.3.166.667.144.944-.056l1.395-1.011a.944.944 0 0 0-.117-1.589L9.39 14.355l6.055-4.433a.707.707 0 0 0-.078-1.183l-8.983-4.85l1.067-.967l11.228 6.222l-6.084 4.45a.712.712 0 0 0 .072 1.184l5.528 3.066l.484-.85l-5.267-2.86l6.083-4.45a.712.712 0 0 0-.072-1.184zm-1.4 5.445l.51-.76l-1.022-.629l-.46.795l.972.6z"/></svg>