<svg xmlns="http://www.w3.org/2000/svg" xmlns:xlink="http://www.w3.org/1999/xlink" width="32" height="32" viewBox="0 0 32 32"><g fill="none"><path fill="#7763BB" d="m16.329 28.76l-2.54-6.95c-.16-.49-.62-.81-1.13-.81s-.97.32-1.12.79l-2.57 6.98c-.18.48.07 1 .55 1.18c.1.03.21.05.32.05c.37 0 .73-.23.86-.6l.41-1.13c.04.01.08.01.12.01h2.87c.03 0 .07 0 .1-.01l.41 1.12c.18.48.7.73 1.18.55c.47-.17.71-.7.54-1.18m-4.54-2.32l.87-2.38l.86 2.38zM8.23 23.71c0 .53-.15 1.02-.41 1.43a2.7 2.7 0 0 1 1.07 2.15c0 1.38-1.05 2.54-2.4 2.69c-.04.01-.09.02-.13.01c-.06.01-.12.01-.18.01H2.92a.92.92 0 0 1-.92-.93v-7.16c0-.5.41-.91.92-.91h2.6c.1 0 .19 0 .27.01l.095.015l.095.015c1.28.22 2.25 1.34 2.25 2.67m-2.7-.87H3.84v1.74h1.68c.48 0 .88-.39.88-.87a.87.87 0 0 0-.87-.87m-1.69 3.57v1.74h2.35a.87.87 0 0 0 0-1.74z"/><path fill="#7969B9" d="m2.36 11.23l8.31 7.57c.61.56 1.6.12 1.6-.71v-3.63c0-.35.29-.64.64-.64h15.86c.66 0 1.19-.53 1.19-1.19V8.42c0-.66-.53-1.19-1.19-1.19H12.91c-.35 0-.64-.29-.64-.64V2.96c0-.83-.99-1.27-1.6-.71L2.36 9.82a.946.946 0 0 0 0 1.41"/><path fill="url(#f68id0)" d="m2.36 11.23l8.31 7.57c.61.56 1.6.12 1.6-.71v-3.63c0-.35.29-.64.64-.64h15.86c.66 0 1.19-.53 1.19-1.19V8.42c0-.66-.53-1.19-1.19-1.19H12.91c-.35 0-.64-.29-.64-.64V2.96c0-.83-.99-1.27-1.6-.71L2.36 9.82a.946.946 0 0 0 0 1.41"/><path fill="url(#f68id1)" d="m2.36 11.23l8.31 7.57c.61.56 1.6.12 1.6-.71v-3.63c0-.35.29-.64.64-.64h15.86c.66 0 1.19-.53 1.19-1.19V8.42c0-.66-.53-1.19-1.19-1.19H12.91c-.35 0-.64-.29-.64-.64V2.96c0-.83-.99-1.27-1.6-.71L2.36 9.82a.946.946 0 0 0 0 1.41"/><path fill="url(#f68id2)" d="m2.36 11.23l8.31 7.57c.61.56 1.6.12 1.6-.71v-3.63c0-.35.29-.64.64-.64h15.86c.66 0 1.19-.53 1.19-1.19V8.42c0-.66-.53-1.19-1.19-1.19H12.91c-.35 0-.64-.29-.64-.64V2.96c0-.83-.99-1.27-1.6-.71L2.36 9.82a.946.946 0 0 0 0 1.41"/><path fill="url(#f68id3)" d="m2.36 11.23l8.31 7.57c.61.56 1.6.12 1.6-.71v-3.63c0-.35.29-.64.64-.64h15.86c.66 0 1.19-.53 1.19-1.19V8.42c0-.66-.53-1.19-1.19-1.19H12.91c-.35 0-.64-.29-.64-.64V2.96c0-.83-.99-1.27-1.6-.71L2.36 9.82a.946.946 0 0 0 0 1.41"/><path fill="url(#f68id4)" d="m2.36 11.23l8.31 7.57c.61.56 1.6.12 1.6-.71v-3.63c0-.35.29-.64.64-.64h15.86c.66 0 1.19-.53 1.19-1.19V8.42c0-.66-.53-1.19-1.19-1.19H12.91c-.35 0-.64-.29-.64-.64V2.96c0-.83-.99-1.27-1.6-.71L2.36 9.82a.946.946 0 0 0 0 1.41"/><path fill="url(#f68id5)" d="m2.36 11.23l8.31 7.57c.61.56 1.6.12 1.6-.71v-3.63c0-.35.29-.64.64-.64h15.86c.66 0 1.19-.53 1.19-1.19V8.42c0-.66-.53-1.19-1.19-1.19H12.91c-.35 0-.64-.29-.64-.64V2.96c0-.83-.99-1.27-1.6-.71L2.36 9.82a.946.946 0 0 0 0 1.41"/><path fill="url(#f68id6)" d="m2.36 11.23l8.31 7.57c.61.56 1.6.12 1.6-.71v-3.63c0-.35.29-.64.64-.64h15.86c.66 0 1.19-.53 1.19-1.19V8.42c0-.66-.53-1.19-1.19-1.19H12.91c-.35 0-.64-.29-.64-.64V2.96c0-.83-.99-1.27-1.6-.71L2.36 9.82a.946.946 0 0 0 0 1.41"/><path fill="url(#f68id7)" d="m2.36 11.23l8.31 7.57c.61.56 1.6.12 1.6-.71v-3.63c0-.35.29-.64.64-.64h15.86c.66 0 1.19-.53 1.19-1.19V8.42c0-.66-.53-1.19-1.19-1.19H12.91c-.35 0-.64-.29-.64-.64V2.96c0-.83-.99-1.27-1.6-.71L2.36 9.82a.946.946 0 0 0 0 1.41"/><path fill="#7969B9" d="M12.272 14.46c0-.35.29-.64.64-.64h15.86c.66 0 1.19-.53 1.19-1.19V8.42c0-.66-.53-1.19-1.19-1.19h-15.86c-.35 0-.64-.29-.64-.64z"/><path fill="url(#f68id8)" d="M12.272 14.46c0-.35.29-.64.64-.64h15.86c.66 0 1.19-.53 1.19-1.19V8.42c0-.66-.53-1.19-1.19-1.19h-15.86c-.35 0-.64-.29-.64-.64z"/><path fill="url(#f68id9)" d="M12.272 14.46c0-.35.29-.64.64-.64h15.86c.66 0 1.19-.53 1.19-1.19V8.42c0-.66-.53-1.19-1.19-1.19h-15.86c-.35 0-.64-.29-.64-.64z"/><path fill="url(#f68idd)" d="M12.272 14.46c0-.35.29-.64.64-.64h15.86c.66 0 1.19-.53 1.19-1.19V8.42c0-.66-.53-1.19-1.19-1.19h-15.86c-.35 0-.64-.29-.64-.64z"/><path fill="url(#f68ide)" d="M12.272 14.46c0-.35.29-.64.64-.64h15.86c.66 0 1.19-.53 1.19-1.19V8.42c0-.66-.53-1.19-1.19-1.19h-15.86c-.35 0-.64-.29-.64-.64z"/><path fill="url(#f68ida)" d="M12.272 14.46c0-.35.29-.64.64-.64h15.86c.66 0 1.19-.53 1.19-1.19V8.42c0-.66-.53-1.19-1.19-1.19h-15.86c-.35 0-.64-.29-.64-.64z"/><path fill="url(#f68idb)" d="M12.272 14.46c0-.35.29-.64.64-.64h15.86c.66 0 1.19-.53 1.19-1.19V8.42c0-.66-.53-1.19-1.19-1.19h-15.86c-.35 0-.64-.29-.64-.64z"/><path fill="url(#f68idc)" d="M12.272 14.46c0-.35.29-.64.64-.64h15.86c.66 0 1.19-.53 1.19-1.19V8.42c0-.66-.53-1.19-1.19-1.19h-15.86c-.35 0-.64-.29-.64-.64z"/><path fill="#7763BB" d="M22.6 28.35a3.308 3.308 0 0 1-6.17-1.66v-2.38c0-1.83 1.48-3.31 3.31-3.31c1.18 0 2.28.64 2.87 1.65c.26.44.1 1-.33 1.26c-.44.26-1 .11-1.26-.33a1.5 1.5 0 0 0-1.28-.74c-.8 0-1.47.66-1.47 1.47v2.38c0 .81.67 1.47 1.47 1.47c.53 0 1.01-.28 1.28-.74c.26-.43.81-.59 1.26-.33c.42.26.58.82.32 1.26m4.629-3.48l2.6 3.68c.29.42.2.99-.23 1.29c-.42.29-.99.19-1.28-.22l-2.41-3.42l-.69.69v2.2c0 .51-.41.92-.92.92s-.92-.41-.92-.92v-7.17c0-.51.41-.92.92-.92s.92.41.92.92v2.37l3.01-3.02c.36-.36.94-.36 1.3 0s.36.94 0 1.3z"/><defs><radialGradient id="f68id0" cx="0" cy="0" r="1" gradientTransform="matrix(1.34375 -1.4375 22.03021 20.59345 6.373 15.438)" gradientUnits="userSpaceOnUse"><stop offset=".297" stop-color="#5836AB"/><stop offset=".586" stop-color="#7647CD"/><stop offset="1" stop-color="#7647CD" stop-opacity="0"/></radialGradient><radialGradient id="f68id1" cx="0" cy="0" r="1" gradientTransform="matrix(1.125 1.25 -12.3895 11.1506 6.123 6.125)" gradientUnits="userSpaceOnUse"><stop offset=".195" stop-color="#483F6E"/><stop offset="1" stop-color="#5F5395" stop-opacity="0"/></radialGradient><radialGradient id="f68id2" cx="0" cy="0" r="1" gradientTransform="matrix(-.10937 4.53125 -2.1519 -.05194 12.592 4.828)" gradientUnits="userSpaceOnUse"><stop offset=".61" stop-color="#968ACD"/><stop offset="1" stop-color="#897DC2" stop-opacity="0"/></radialGradient><radialGradient id="f68id3" cx="0" cy="0" r="1" gradientTransform="matrix(-.12495 6.84375 -1.43338 -.02617 12.936 2.594)" gradientUnits="userSpaceOnUse"><stop offset=".52" stop-color="#6E5DAF"/><stop offset="1" stop-color="#6E5DAF" stop-opacity="0"/></radialGradient><radialGradient id="f68id4" cx="0" cy="0" r="1" gradientTransform="matrix(.76563 1.15625 -.61965 .4103 11.904 7.484)" gradientUnits="userSpaceOnUse"><stop stop-color="#A297D5"/><stop offset="1" stop-color="#A297D5" stop-opacity="0"/></radialGradient><radialGradient id="f68id5" cx="0" cy="0" r="1" gradientTransform="matrix(-.23438 .79688 -.53183 -.15643 11.545 2.86)" gradientUnits="userSpaceOnUse"><stop stop-color="#A096D0"/><stop offset="1" stop-color="#A096D0" stop-opacity="0"/></radialGradient><radialGradient id="f68id6" cx="0" cy="0" r="1" gradientTransform="matrix(-.89064 1.70312 -1.83336 -.95874 12.92 14.11)" gradientUnits="userSpaceOnUse"><stop offset=".317" stop-color="#5F36BA"/><stop offset=".489" stop-color="#8649E1"/><stop offset="1" stop-color="#8155D1" stop-opacity="0"/></radialGradient><radialGradient id="f68id7" cx="0" cy="0" r="1" gradientTransform="matrix(.21875 3.875 -.83036 .04687 12.373 16.563)" gradientUnits="userSpaceOnUse"><stop offset=".443" stop-color="#62529E"/><stop offset="1" stop-color="#62529E" stop-opacity="0"/></radialGradient><radialGradient id="f68id8" cx="0" cy="0" r="1" gradientTransform="matrix(1.34375 -1.4375 22.03021 20.59345 6.373 15.438)" gradientUnits="userSpaceOnUse"><stop offset=".297" stop-color="#5836AB"/><stop offset=".586" stop-color="#7647CD"/><stop offset="1" stop-color="#7647CD" stop-opacity="0"/></radialGradient><radialGradient id="f68id9" cx="0" cy="0" r="1" gradientTransform="matrix(1.125 1.25 -12.3895 11.1506 6.123 6.126)" gradientUnits="userSpaceOnUse"><stop offset=".195" stop-color="#483F6E"/><stop offset="1" stop-color="#5F5395" stop-opacity="0"/></radialGradient><radialGradient id="f68ida" cx="0" cy="0" r="1" gradientTransform="matrix(0 -1.97363 43.6774 0 21.686 14.095)" gradientUnits="userSpaceOnUse"><stop offset=".217" stop-color="#5E36B9"/><stop offset=".491" stop-color="#8745E5"/><stop offset="1" stop-color="#8745E5" stop-opacity="0"/></radialGradient><radialGradient id="f68idb" cx="0" cy="0" r="1" gradientTransform="matrix(-.75 .5625 -.35576 -.47435 28.983 8.283)" gradientUnits="userSpaceOnUse"><stop stop-color="#A398D7"/><stop offset="1" stop-color="#A398D7" stop-opacity="0"/></radialGradient><radialGradient id="f68idc" cx="0" cy="0" r="1" gradientTransform="matrix(.85937 1.32813 -.82903 .53643 11.842 7.36)" gradientUnits="userSpaceOnUse"><stop offset=".173" stop-color="#A297D5"/><stop offset="1" stop-color="#A297D5" stop-opacity="0"/></radialGradient><linearGradient id="f68idd" x1="30.28" x2="27.967" y1="11.188" y2="11.188" gradientUnits="userSpaceOnUse"><stop offset=".122" stop-color="#6454A3"/><stop offset=".514" stop-color="#8172C2"/><stop offset=".689" stop-color="#8273C3"/><stop offset="1" stop-color="#8172C2" stop-opacity="0"/></linearGradient><linearGradient id="f68ide" x1="21.717" x2="21.717" y1="7.095" y2="8.907" gradientUnits="userSpaceOnUse"><stop offset=".122" stop-color="#6454A3"/><stop offset=".5" stop-color="#8172C2"/><stop offset=".689" stop-color="#8273C3"/><stop offset="1" stop-color="#8172C2" stop-opacity="0"/></linearGradient></defs></g></svg>