<svg xmlns="http://www.w3.org/2000/svg" xmlns:xlink="http://www.w3.org/1999/xlink" width="32" height="32" viewBox="0 0 32 32"><g fill="none"><g filter="url(#f207idf)"><path fill="url(#f207idb)" d="M17.98 10.42c3.217 1.826 5.399 5.346 5.399 9.273c0 1.603-.364 3.112-1.013 4.453h4.17a2.898 2.898 0 1 1 0 5.797h-12.47q-.334 0-.64-.008q-.21.008-.422.008c-6.938 0-10.438-4.551-10.438-10.281c0-4.284 2.632-8.067 6.356-9.703l.035-.02c1.438-.605 4.263-2.804 6.672-6.504c1.203-1.547 3.024-1.764 4.296-.791c1.271.972 1.384 2.784.587 4.073c-.546.883-1.93 2.85-2.532 3.703"/><path fill="url(#f207id0)" d="M17.98 10.42c3.217 1.826 5.399 5.346 5.399 9.273c0 1.603-.364 3.112-1.013 4.453h4.17a2.898 2.898 0 1 1 0 5.797h-12.47q-.334 0-.64-.008q-.21.008-.422.008c-6.938 0-10.438-4.551-10.438-10.281c0-4.284 2.632-8.067 6.356-9.703l.035-.02c1.438-.605 4.263-2.804 6.672-6.504c1.203-1.547 3.024-1.764 4.296-.791c1.271.972 1.384 2.784.587 4.073c-.546.883-1.93 2.85-2.532 3.703"/></g><g filter="url(#f207idg)"><path fill="url(#f207id1)" d="M14.66 14.715c0-1.439 1.07-2.606 2.388-2.606h3.474c1.319 0 2.388 1.167 2.388 2.606c0 .942-.457 1.767-1.143 2.224c.683.43 1.143 1.235 1.143 2.157c0 .934-.471 1.747-1.168 2.173c.699.449 1.168 1.28 1.168 2.229c0 .75-.145 1.874-1.338 2.15l-4.543.435c-1.308 0-2.369-1.157-2.369-2.585c0-.95.47-1.78 1.169-2.23c-.697-.425-1.169-1.238-1.169-2.172c0-.922.46-1.727 1.143-2.157c-.686-.457-1.143-1.282-1.143-2.224"/></g><rect width="15.25" height="5.797" x="14.184" y="24.146" fill="url(#f207id2)" rx="2.898"/><rect width="15.25" height="5.797" x="14.184" y="24.146" fill="url(#f207id3)" rx="2.898"/><rect width="10.088" height="5.828" x="15.499" y="9.568" fill="url(#f207id4)" rx="2.914"/><rect width="10.088" height="5.828" x="15.499" y="9.568" fill="url(#f207idc)" rx="2.914"/><rect width="10.088" height="5.781" x="15.499" y="19.412" fill="url(#f207id5)" rx="2.891"/><rect width="10.088" height="5.781" x="15.499" y="19.412" fill="url(#f207idd)" rx="2.891"/><rect width="10.088" height="5.781" x="15.499" y="19.412" fill="url(#f207id6)" rx="2.891"/><g filter="url(#f207idh)"><rect width="6.815" height=".688" x="17.181" y="14.451" fill="#C26B04" rx=".344"/></g><g filter="url(#f207idi)"><rect width="6.815" height=".688" x="17.181" y="19.622" fill="#C26B04" rx=".344"/></g><rect width="10.088" height="5.563" x="15.499" y="14.599" fill="url(#f207id7)" rx="2.781"/><rect width="10.088" height="5.563" x="15.499" y="14.599" fill="url(#f207ide)" rx="2.781"/><rect width="10.088" height="5.563" x="15.499" y="14.599" fill="url(#f207id8)" rx="2.781"/><path fill="url(#f207id9)" d="M10.661 14.758c-1.058-.81-2.426-2.71-2.293-4.058c.05-.518.135-.507.589-.76c1.438-.606 4.263-2.805 6.672-6.505c1.203-1.547 3.024-1.764 4.296-.791c1.271.972 1.384 2.784.587 4.073c-.707 1.144-2.82 4.109-2.82 4.109l-2.968 3.39a2.9 2.9 0 0 1-4.063.542"/><path fill="url(#f207ida)" d="M10.661 14.758c-1.058-.81-2.426-2.71-2.293-4.058c.05-.518.135-.507.589-.76c1.438-.606 4.263-2.805 6.672-6.505c1.203-1.547 3.024-1.764 4.296-.791c1.271.972 1.384 2.784.587 4.073c-.707 1.144-2.82 4.109-2.82 4.109l-2.968 3.39a2.9 2.9 0 0 1-4.063.542"/><defs><radialGradient id="f207id0" cx="0" cy="0" r="1" gradientTransform="matrix(8.64474 0 0 4.57895 7.634 11.043)" gradientUnits="userSpaceOnUse"><stop stop-color="#FFD337"/><stop offset="1" stop-color="#FFC42A" stop-opacity="0"/></radialGradient><radialGradient id="f207id1" cx="0" cy="0" r="1" gradientTransform="matrix(4.68782 -7.19713 5.98956 3.90127 15.696 24.596)" gradientUnits="userSpaceOnUse"><stop stop-color="#E47938"/><stop offset="1" stop-color="#A95A0C"/></radialGradient><radialGradient id="f207id2" cx="0" cy="0" r="1" gradientTransform="matrix(-10.1053 0 0 -1.65789 28.16 26.36)" gradientUnits="userSpaceOnUse"><stop stop-color="#FFD230"/><stop offset="1" stop-color="#FFD230" stop-opacity="0"/></radialGradient><radialGradient id="f207id3" cx="0" cy="0" r="1" gradientTransform="rotate(149.897 11.105 16.738)scale(2.78329 3.32669)" gradientUnits="userSpaceOnUse"><stop stop-color="#FFEA4A"/><stop offset="1" stop-color="#FFEA4A" stop-opacity="0"/></radialGradient><radialGradient id="f207id4" cx="0" cy="0" r="1" gradientTransform="matrix(-5.875 0 0 -2.84274 23.785 11.85)" gradientUnits="userSpaceOnUse"><stop stop-color="#FFE949"/><stop offset="1" stop-color="#FFBE3E"/></radialGradient><radialGradient id="f207id5" cx="0" cy="0" r="1" gradientTransform="matrix(-5.875 0 0 -2.81988 23.785 21.675)" gradientUnits="userSpaceOnUse"><stop stop-color="#FFE949"/><stop offset="1" stop-color="#FFBE3E"/></radialGradient><radialGradient id="f207id6" cx="0" cy="0" r="1" gradientTransform="matrix(6.56347 0 0 1.84498 17.422 25.304)" gradientUnits="userSpaceOnUse"><stop stop-color="#F27C5B"/><stop offset="1" stop-color="#F27C5B" stop-opacity="0"/></radialGradient><radialGradient id="f207id7" cx="0" cy="0" r="1" gradientTransform="matrix(-5.875 0 0 -2.71318 23.785 16.777)" gradientUnits="userSpaceOnUse"><stop stop-color="#FFE949"/><stop offset="1" stop-color="#FFBE3E"/></radialGradient><radialGradient id="f207id8" cx="0" cy="0" r="1" gradientTransform="matrix(6.56347 0 0 1.39474 17.422 20.268)" gradientUnits="userSpaceOnUse"><stop stop-color="#E9842F"/><stop offset="1" stop-color="#E9842F" stop-opacity="0"/></radialGradient><radialGradient id="f207id9" cx="0" cy="0" r="1" gradientTransform="matrix(1.875 1.8125 -5.24074 5.42145 12.973 6.38)" gradientUnits="userSpaceOnUse"><stop stop-color="#D6983B"/><stop offset=".858" stop-color="#D6983B" stop-opacity="0"/></radialGradient><radialGradient id="f207ida" cx="0" cy="0" r="1" gradientTransform="rotate(143.588 10.004 4.99)scale(4.0537 4.18537)" gradientUnits="userSpaceOnUse"><stop stop-color="#FFEA4A"/><stop offset="1" stop-color="#FFEA4A" stop-opacity="0"/></radialGradient><linearGradient id="f207idb" x1="14.344" x2="30.608" y1="31.333" y2="11.833" gradientUnits="userSpaceOnUse"><stop stop-color="#FDB033"/><stop offset="1" stop-color="#FFCB25"/></linearGradient><linearGradient id="f207idc" x1="14.895" x2="19.225" y1="13.293" y2="13.293" gradientUnits="userSpaceOnUse"><stop stop-color="#E08C16"/><stop offset="1" stop-color="#E08C16" stop-opacity="0"/></linearGradient><linearGradient id="f207idd" x1="14.895" x2="19.225" y1="23.107" y2="23.107" gradientUnits="userSpaceOnUse"><stop stop-color="#E08C16"/><stop offset="1" stop-color="#E08C16" stop-opacity="0"/></linearGradient><linearGradient id="f207ide" x1="15.499" x2="19.16" y1="17.991" y2="17.991" gradientUnits="userSpaceOnUse"><stop stop-color="#E08C16"/><stop offset="1" stop-color="#E08C16" stop-opacity="0"/></linearGradient><filter id="f207idf" width="27.617" height="28.636" x="2.566" y="1.307" color-interpolation-filters="sRGB" filterUnits="userSpaceOnUse"><feFlood flood-opacity="0" result="BackgroundImageFix"/><feBlend in="SourceGraphic" in2="BackgroundImageFix" result="shape"/><feColorMatrix in="SourceAlpha" result="hardAlpha" values="0 0 0 0 0 0 0 0 0 0 0 0 0 0 0 0 0 0 127 0"/><feOffset dx=".75" dy="-.75"/><feGaussianBlur stdDeviation="1"/><feComposite in2="hardAlpha" k2="-1" k3="1" operator="arithmetic"/><feColorMatrix values="0 0 0 0 0.898039 0 0 0 0 0.470588 0 0 0 0 0.364706 0 0 0 1 0"/><feBlend in2="shape" result="effect1_innerShadow_20020_2615"/></filter><filter id="f207idg" width="11.25" height="16.974" x="13.16" y="10.609" color-interpolation-filters="sRGB" filterUnits="userSpaceOnUse"><feFlood flood-opacity="0" result="BackgroundImageFix"/><feBlend in="SourceGraphic" in2="BackgroundImageFix" result="shape"/><feGaussianBlur result="effect1_foregroundBlur_20020_2615" stdDeviation=".75"/></filter><filter id="f207idh" width="8.315" height="2.188" x="16.431" y="13.701" color-interpolation-filters="sRGB" filterUnits="userSpaceOnUse"><feFlood flood-opacity="0" result="BackgroundImageFix"/><feBlend in="SourceGraphic" in2="BackgroundImageFix" result="shape"/><feGaussianBlur result="effect1_foregroundBlur_20020_2615" stdDeviation=".375"/></filter><filter id="f207idi" width="8.315" height="2.188" x="16.431" y="18.872" color-interpolation-filters="sRGB" filterUnits="userSpaceOnUse"><feFlood flood-opacity="0" result="BackgroundImageFix"/><feBlend in="SourceGraphic" in2="BackgroundImageFix" result="shape"/><feGaussianBlur result="effect1_foregroundBlur_20020_2615" stdDeviation=".375"/></filter></defs></g></svg>