<svg xmlns="http://www.w3.org/2000/svg" xmlns:xlink="http://www.w3.org/1999/xlink" width="32" height="32" viewBox="0 0 32 32"><g fill="none"><path fill="url(#f237idk)" d="M2.07 5.847a3.8 3.8 0 0 1 3.8-3.8h20.307a3.8 3.8 0 0 1 3.8 3.8v20.306a3.8 3.8 0 0 1-3.8 3.8H5.87a3.8 3.8 0 0 1-3.8-3.8z"/><path fill="url(#f237idl)" d="M2.07 5.847a3.8 3.8 0 0 1 3.8-3.8h20.307a3.8 3.8 0 0 1 3.8 3.8v20.306a3.8 3.8 0 0 1-3.8 3.8H5.87a3.8 3.8 0 0 1-3.8-3.8z"/><path fill="url(#f237id0)" d="M2.07 5.847a3.8 3.8 0 0 1 3.8-3.8h20.307a3.8 3.8 0 0 1 3.8 3.8v20.306a3.8 3.8 0 0 1-3.8 3.8H5.87a3.8 3.8 0 0 1-3.8-3.8z"/><path fill="url(#f237idm)" d="M2.07 5.847a3.8 3.8 0 0 1 3.8-3.8h20.307a3.8 3.8 0 0 1 3.8 3.8v20.306a3.8 3.8 0 0 1-3.8 3.8H5.87a3.8 3.8 0 0 1-3.8-3.8z"/><path fill="url(#f237id1)" d="M2.07 5.847a3.8 3.8 0 0 1 3.8-3.8h20.307a3.8 3.8 0 0 1 3.8 3.8v20.306a3.8 3.8 0 0 1-3.8 3.8H5.87a3.8 3.8 0 0 1-3.8-3.8z"/><path fill="url(#f237id2)" d="M2.07 5.847a3.8 3.8 0 0 1 3.8-3.8h20.307a3.8 3.8 0 0 1 3.8 3.8v20.306a3.8 3.8 0 0 1-3.8 3.8H5.87a3.8 3.8 0 0 1-3.8-3.8z"/><path fill="url(#f237id3)" d="M2.07 5.847a3.8 3.8 0 0 1 3.8-3.8h20.307a3.8 3.8 0 0 1 3.8 3.8v20.306a3.8 3.8 0 0 1-3.8 3.8H5.87a3.8 3.8 0 0 1-3.8-3.8z"/><path fill="url(#f237id4)" d="M2.07 5.847a3.8 3.8 0 0 1 3.8-3.8h20.307a3.8 3.8 0 0 1 3.8 3.8v20.306a3.8 3.8 0 0 1-3.8 3.8H5.87a3.8 3.8 0 0 1-3.8-3.8z"/><path fill="url(#f237idn)" d="M2.07 5.847a3.8 3.8 0 0 1 3.8-3.8h20.307a3.8 3.8 0 0 1 3.8 3.8v20.306a3.8 3.8 0 0 1-3.8 3.8H5.87a3.8 3.8 0 0 1-3.8-3.8z"/><path fill="url(#f237ido)" d="M2.07 5.847a3.8 3.8 0 0 1 3.8-3.8h20.307a3.8 3.8 0 0 1 3.8 3.8v20.306a3.8 3.8 0 0 1-3.8 3.8H5.87a3.8 3.8 0 0 1-3.8-3.8z"/><path fill="url(#f237idp)" d="M2.07 5.847a3.8 3.8 0 0 1 3.8-3.8h20.307a3.8 3.8 0 0 1 3.8 3.8v20.306a3.8 3.8 0 0 1-3.8 3.8H5.87a3.8 3.8 0 0 1-3.8-3.8z"/><path fill="url(#f237idq)" d="M2.07 5.847a3.8 3.8 0 0 1 3.8-3.8h20.307a3.8 3.8 0 0 1 3.8 3.8v20.306a3.8 3.8 0 0 1-3.8 3.8H5.87a3.8 3.8 0 0 1-3.8-3.8z"/><path fill="url(#f237idr)" d="M2.07 5.847a3.8 3.8 0 0 1 3.8-3.8h20.307a3.8 3.8 0 0 1 3.8 3.8v20.306a3.8 3.8 0 0 1-3.8 3.8H5.87a3.8 3.8 0 0 1-3.8-3.8z"/><path fill="url(#f237id5)" d="M2.07 5.847a3.8 3.8 0 0 1 3.8-3.8h20.307a3.8 3.8 0 0 1 3.8 3.8v20.306a3.8 3.8 0 0 1-3.8 3.8H5.87a3.8 3.8 0 0 1-3.8-3.8z"/><path fill="url(#f237id6)" d="M2.07 5.847a3.8 3.8 0 0 1 3.8-3.8h20.307a3.8 3.8 0 0 1 3.8 3.8v20.306a3.8 3.8 0 0 1-3.8 3.8H5.87a3.8 3.8 0 0 1-3.8-3.8z"/><path fill="url(#f237id7)" fill-opacity=".8" d="M2.07 5.847a3.8 3.8 0 0 1 3.8-3.8h20.307a3.8 3.8 0 0 1 3.8 3.8v20.306a3.8 3.8 0 0 1-3.8 3.8H5.87a3.8 3.8 0 0 1-3.8-3.8z"/><path fill="url(#f237id8)" fill-opacity=".8" d="M2.07 5.847a3.8 3.8 0 0 1 3.8-3.8h20.307a3.8 3.8 0 0 1 3.8 3.8v20.306a3.8 3.8 0 0 1-3.8 3.8H5.87a3.8 3.8 0 0 1-3.8-3.8z"/><path fill="url(#f237ids)" fill-rule="evenodd" d="M11.547 2.047h-1v8.39H2.07v1h8.477v8.97H2.07v1h8.477v8.546h1v-8.547h9v8.547h1v-8.547h8.43v-1h-8.43v-8.968h8.43v-1h-8.43V2.047h-1v8.39h-9zm9 9.39v8.97h-9v-8.97z" clip-rule="evenodd"/><path fill="url(#f237idt)" fill-rule="evenodd" d="M11.547 2.047h-1v8.39H2.07v1h8.477v8.97H2.07v1h8.477v8.546h1v-8.547h9v8.547h1v-8.547h8.43v-1h-8.43v-8.968h8.43v-1h-8.43V2.047h-1v8.39h-9zm9 9.39v8.97h-9v-8.97z" clip-rule="evenodd"/><path fill="url(#f237idu)" fill-rule="evenodd" d="M11.547 2.047h-1v8.39H2.07v1h8.477v8.97H2.07v1h8.477v8.546h1v-8.547h9v8.547h1v-8.547h8.43v-1h-8.43v-8.968h8.43v-1h-8.43V2.047h-1v8.39h-9zm9 9.39v8.97h-9v-8.97z" clip-rule="evenodd"/><path fill="url(#f237idv)" fill-rule="evenodd" d="M11.547 2.047h-1v8.39H2.07v1h8.477v8.97H2.07v1h8.477v8.546h1v-8.547h9v8.547h1v-8.547h8.43v-1h-8.43v-8.968h8.43v-1h-8.43V2.047h-1v8.39h-9zm9 9.39v8.97h-9v-8.97z" clip-rule="evenodd"/><path fill="url(#f237id9)" fill-rule="evenodd" d="M11.547 2.047h-1v8.39H2.07v1h8.477v8.97H2.07v1h8.477v8.546h1v-8.547h9v8.547h1v-8.547h8.43v-1h-8.43v-8.968h8.43v-1h-8.43V2.047h-1v8.39h-9zm9 9.39v8.97h-9v-8.97z" clip-rule="evenodd"/><path fill="url(#f237ida)" fill-rule="evenodd" d="M11.547 2.047h-1v8.39H2.07v1h8.477v8.97H2.07v1h8.477v8.546h1v-8.547h9v8.547h1v-8.547h8.43v-1h-8.43v-8.968h8.43v-1h-8.43V2.047h-1v8.39h-9zm9 9.39v8.97h-9v-8.97z" clip-rule="evenodd"/><path fill="url(#f237idb)" fill-rule="evenodd" d="M11.547 2.047h-1v8.39H2.07v1h8.477v8.97H2.07v1h8.477v8.546h1v-8.547h9v8.547h1v-8.547h8.43v-1h-8.43v-8.968h8.43v-1h-8.43V2.047h-1v8.39h-9zm9 9.39v8.97h-9v-8.97z" clip-rule="evenodd"/><path fill="url(#f237idc)" fill-rule="evenodd" d="M11.547 2.047h-1v8.39H2.07v1h8.477v8.97H2.07v1h8.477v8.546h1v-8.547h9v8.547h1v-8.547h8.43v-1h-8.43v-8.968h8.43v-1h-8.43V2.047h-1v8.39h-9zm9 9.39v8.97h-9v-8.97z" clip-rule="evenodd"/><path fill="url(#f237idw)" d="M2.235 27.265a3.8 3.8 0 0 1-.165-1.112v-1.552l7.083-7.083a2.5 2.5 0 0 1 3.497-.038l1.927 1.845a.5.5 0 0 0 .7-.007L29.825 4.783q.148.507.15 1.064v1.612L16.69 20.733a2.5 2.5 0 0 1-3.496.037l-1.927-1.845a.5.5 0 0 0-.7.007z"/><path fill="url(#f237idx)" d="M2.235 27.265a3.8 3.8 0 0 1-.165-1.112v-1.552l7.083-7.083a2.5 2.5 0 0 1 3.497-.038l1.927 1.845a.5.5 0 0 0 .7-.007L29.825 4.783q.148.507.15 1.064v1.612L16.69 20.733a2.5 2.5 0 0 1-3.496.037l-1.927-1.845a.5.5 0 0 0-.7.007z"/><path fill="url(#f237idy)" d="M2.235 27.265a3.8 3.8 0 0 1-.165-1.112v-1.552l7.083-7.083a2.5 2.5 0 0 1 3.497-.038l1.927 1.845a.5.5 0 0 0 .7-.007L29.825 4.783q.148.507.15 1.064v1.612L16.69 20.733a2.5 2.5 0 0 1-3.496.037l-1.927-1.845a.5.5 0 0 0-.7.007z"/><path fill="url(#f237idz)" d="M2.235 27.265a3.8 3.8 0 0 1-.165-1.112v-1.552l7.083-7.083a2.5 2.5 0 0 1 3.497-.038l1.927 1.845a.5.5 0 0 0 .7-.007L29.825 4.783q.148.507.15 1.064v1.612L16.69 20.733a2.5 2.5 0 0 1-3.496.037l-1.927-1.845a.5.5 0 0 0-.7.007z"/><path fill="url(#f237id10)" fill-opacity=".4" d="M2.235 27.265a3.8 3.8 0 0 1-.165-1.112v-1.552l7.083-7.083a2.5 2.5 0 0 1 3.497-.038l1.927 1.845a.5.5 0 0 0 .7-.007L29.825 4.783q.148.507.15 1.064v1.612L16.69 20.733a2.5 2.5 0 0 1-3.496.037l-1.927-1.845a.5.5 0 0 0-.7.007z"/><path fill="url(#f237idd)" d="M2.235 27.265a3.8 3.8 0 0 1-.165-1.112v-1.552l7.083-7.083a2.5 2.5 0 0 1 3.497-.038l1.927 1.845a.5.5 0 0 0 .7-.007L29.825 4.783q.148.507.15 1.064v1.612L16.69 20.733a2.5 2.5 0 0 1-3.496.037l-1.927-1.845a.5.5 0 0 0-.7.007z"/><path fill="url(#f237ide)" d="M2.235 27.265a3.8 3.8 0 0 1-.165-1.112v-1.552l7.083-7.083a2.5 2.5 0 0 1 3.497-.038l1.927 1.845a.5.5 0 0 0 .7-.007L29.825 4.783q.148.507.15 1.064v1.612L16.69 20.733a2.5 2.5 0 0 1-3.496.037l-1.927-1.845a.5.5 0 0 0-.7.007z"/><path fill="url(#f237idf)" d="M2.235 27.265a3.8 3.8 0 0 1-.165-1.112v-1.552l7.083-7.083a2.5 2.5 0 0 1 3.497-.038l1.927 1.845a.5.5 0 0 0 .7-.007L29.825 4.783q.148.507.15 1.064v1.612L16.69 20.733a2.5 2.5 0 0 1-3.496.037l-1.927-1.845a.5.5 0 0 0-.7.007z"/><path fill="url(#f237idg)" d="M2.235 27.265a3.8 3.8 0 0 1-.165-1.112v-1.552l7.083-7.083a2.5 2.5 0 0 1 3.497-.038l1.927 1.845a.5.5 0 0 0 .7-.007L29.825 4.783q.148.507.15 1.064v1.612L16.69 20.733a2.5 2.5 0 0 1-3.496.037l-1.927-1.845a.5.5 0 0 0-.7.007z"/><path fill="url(#f237idh)" d="M2.235 27.265a3.8 3.8 0 0 1-.165-1.112v-1.552l7.083-7.083a2.5 2.5 0 0 1 3.497-.038l1.927 1.845a.5.5 0 0 0 .7-.007L29.825 4.783q.148.507.15 1.064v1.612L16.69 20.733a2.5 2.5 0 0 1-3.496.037l-1.927-1.845a.5.5 0 0 0-.7.007z"/><path fill="url(#f237idi)" d="M2.235 27.265a3.8 3.8 0 0 1-.165-1.112v-1.552l7.083-7.083a2.5 2.5 0 0 1 3.497-.038l1.927 1.845a.5.5 0 0 0 .7-.007L29.825 4.783q.148.507.15 1.064v1.612L16.69 20.733a2.5 2.5 0 0 1-3.496.037l-1.927-1.845a.5.5 0 0 0-.7.007z"/><path fill="url(#f237idj)" d="M2.235 27.265a3.8 3.8 0 0 1-.165-1.112v-1.552l7.083-7.083a2.5 2.5 0 0 1 3.497-.038l1.927 1.845a.5.5 0 0 0 .7-.007L29.825 4.783q.148.507.15 1.064v1.612L16.69 20.733a2.5 2.5 0 0 1-3.496.037l-1.927-1.845a.5.5 0 0 0-.7.007z"/><defs><radialGradient id="f237id0" cx="0" cy="0" r="1" gradientTransform="rotate(135.828 12.912 6.659)scale(22.2227)" gradientUnits="userSpaceOnUse"><stop offset=".953" stop-color="#D7CDE1"/><stop offset=".976" stop-color="#D7CDE1" stop-opacity=".458"/><stop offset=".992" stop-color="#D7CDE1" stop-opacity="0"/></radialGradient><radialGradient id="f237id1" cx="0" cy="0" r="1" gradientTransform="matrix(4.07344 -14.44525 8.07135 2.27605 11.73 34.59)" gradientUnits="userSpaceOnUse"><stop offset=".925" stop-color="#D5C9E3"/><stop offset=".992" stop-color="#D5C9E3" stop-opacity="0"/></radialGradient><radialGradient id="f237id2" cx="0" cy="0" r="1" gradientTransform="rotate(62.475 -9.395 22.708)scale(2.24303)" gradientUnits="userSpaceOnUse"><stop offset=".161" stop-color="#B19AA4"/><stop offset=".711" stop-color="#B19AA4" stop-opacity=".141"/><stop offset=".883" stop-color="#B19AA4" stop-opacity=".032"/><stop offset="1" stop-color="#B19AA4" stop-opacity="0"/></radialGradient><radialGradient id="f237id3" cx="0" cy="0" r="1" gradientTransform="rotate(131.987 1.89 12.581)scale(1.50766 3.40824)" gradientUnits="userSpaceOnUse"><stop offset=".161" stop-color="#B19AA4"/><stop offset=".711" stop-color="#B19AA4" stop-opacity=".141"/><stop offset=".883" stop-color="#B19AA4" stop-opacity=".032"/><stop offset="1" stop-color="#B19AA4" stop-opacity="0"/></radialGradient><radialGradient id="f237id4" cx="0" cy="0" r="1" gradientTransform="rotate(64.252 4.857 12.14)scale(16.3731 11.7951)" gradientUnits="userSpaceOnUse"><stop offset=".678" stop-color="#D8D1E0"/><stop offset="1" stop-color="#D5C9E3" stop-opacity="0"/></radialGradient><radialGradient id="f237id5" cx="0" cy="0" r="1" gradientTransform="matrix(-5.58858 .20883 -.81418 -21.7886 29.977 16.395)" gradientUnits="userSpaceOnUse"><stop stop-color="#F2EDF5"/><stop offset="1" stop-color="#DED3E7" stop-opacity="0"/></radialGradient><radialGradient id="f237id6" cx="0" cy="0" r="1" gradientTransform="matrix(-3.69009 3.2723 -3.38707 -3.81951 29.61 2.888)" gradientUnits="userSpaceOnUse"><stop stop-color="#F7F4F7"/><stop offset="1" stop-color="#E2DCE5" stop-opacity="0"/></radialGradient><radialGradient id="f237id7" cx="0" cy="0" r="1" gradientTransform="matrix(.62323 .65163 -1.98673 1.90013 9.47 19.55)" gradientUnits="userSpaceOnUse"><stop stop-color="#814F7C" stop-opacity=".43"/><stop offset=".677" stop-color="#814F7C" stop-opacity=".091"/><stop offset=".846" stop-color="#814F7C" stop-opacity=".024"/><stop offset="1" stop-color="#814F7C" stop-opacity="0"/></radialGradient><radialGradient id="f237id8" cx="0" cy="0" r="1" gradientTransform="matrix(-.61304 .63325 -1.71478 -1.66005 12.428 19.516)" gradientUnits="userSpaceOnUse"><stop stop-color="#814F7C" stop-opacity=".43"/><stop offset=".677" stop-color="#814F7C" stop-opacity=".091"/><stop offset=".798" stop-color="#814F7C" stop-opacity=".024"/><stop offset="1" stop-color="#814F7C" stop-opacity="0"/></radialGradient><radialGradient id="f237id9" cx="0" cy="0" r="1" gradientTransform="matrix(.8321 .80437 -1.8813 1.94616 8.53 20.32)" gradientUnits="userSpaceOnUse"><stop stop-color="#814F7C" stop-opacity=".71"/><stop offset=".783" stop-color="#814F7C" stop-opacity=".091"/><stop offset=".92" stop-color="#814F7C" stop-opacity=".024"/><stop offset="1" stop-color="#814F7C" stop-opacity="0"/></radialGradient><radialGradient id="f237ida" cx="0" cy="0" r="1" gradientTransform="matrix(.35639 .93553 -2.43102 .9261 10.527 18.656)" gradientUnits="userSpaceOnUse"><stop stop-color="#814F7C" stop-opacity=".67"/><stop offset=".728" stop-color="#814F7C" stop-opacity=".091"/><stop offset=".92" stop-color="#814F7C" stop-opacity=".024"/><stop offset="1" stop-color="#814F7C" stop-opacity="0"/></radialGradient><radialGradient id="f237idb" cx="0" cy="0" r="1" gradientTransform="matrix(-.41208 .8687 -2.25737 -1.07081 11.574 18.678)" gradientUnits="userSpaceOnUse"><stop stop-color="#814F7C" stop-opacity=".67"/><stop offset=".728" stop-color="#814F7C" stop-opacity=".091"/><stop offset=".92" stop-color="#814F7C" stop-opacity=".024"/><stop offset="1" stop-color="#814F7C" stop-opacity="0"/></radialGradient><radialGradient id="f237idc" cx="0" cy="0" r="1" gradientTransform="rotate(121.862 1.204 13.98)scale(1.11326 1.9038)" gradientUnits="userSpaceOnUse"><stop stop-color="#814F7C" stop-opacity=".8"/><stop offset=".849" stop-color="#814F7C" stop-opacity=".091"/><stop offset=".92" stop-color="#814F7C" stop-opacity=".024"/><stop offset="1" stop-color="#814F7C" stop-opacity="0"/></radialGradient><radialGradient id="f237idd" cx="0" cy="0" r="1" gradientTransform="rotate(89.876 -2.655 13.7)scale(1.45912 3.5966)" gradientUnits="userSpaceOnUse"><stop offset=".328" stop-color="#4799D3"/><stop offset="1" stop-color="#4799D3" stop-opacity="0"/></radialGradient><radialGradient id="f237ide" cx="0" cy="0" r="1" gradientTransform="rotate(-100.204 16.677 4.476)scale(1.85051 4.56135)" gradientUnits="userSpaceOnUse"><stop offset=".328" stop-color="#2F6FCE"/><stop offset="1" stop-color="#2F6FCE" stop-opacity="0"/></radialGradient><radialGradient id="f237idf" cx="0" cy="0" r="1" gradientTransform="matrix(0 -.4905 1.03652 0 14.955 20.342)" gradientUnits="userSpaceOnUse"><stop stop-color="#5BB3F7"/><stop offset=".526" stop-color="#5BB3F7" stop-opacity=".27"/><stop offset=".931" stop-color="#5BB3F7" stop-opacity="0"/></radialGradient><radialGradient id="f237idg" cx="0" cy="0" r="1" gradientTransform="matrix(-.3599 -.41257 2.19949 -1.91873 16.477 19.475)" gradientUnits="userSpaceOnUse"><stop stop-color="#5BB3F7" stop-opacity=".5"/><stop offset=".308" stop-color="#5BB3F7" stop-opacity=".27"/><stop offset=".931" stop-color="#5BB3F7" stop-opacity="0"/></radialGradient><radialGradient id="f237idh" cx="0" cy="0" r="1" gradientTransform="matrix(.12513 -.48422 1.53962 .39786 14.617 20.435)" gradientUnits="userSpaceOnUse"><stop stop-color="#5BB3F7" stop-opacity=".61"/><stop offset=".543" stop-color="#5BB3F7" stop-opacity=".27"/><stop offset=".931" stop-color="#5BB3F7" stop-opacity="0"/></radialGradient><radialGradient id="f237idi" cx="0" cy="0" r="1" gradientTransform="matrix(-.23761 -.40482 1.28718 -.75552 15.711 20.337)" gradientUnits="userSpaceOnUse"><stop stop-color="#5BB3F7" stop-opacity=".61"/><stop offset=".543" stop-color="#5BB3F7" stop-opacity=".27"/><stop offset=".931" stop-color="#5BB3F7" stop-opacity="0"/></radialGradient><radialGradient id="f237idj" cx="0" cy="0" r="1" gradientTransform="matrix(4.48737 -4.42036 5.4869 5.57007 18.407 18.029)" gradientUnits="userSpaceOnUse"><stop stop-color="#2C89D4" stop-opacity=".89"/><stop offset=".771" stop-color="#2C89D4" stop-opacity=".179"/><stop offset="1" stop-color="#2C89D4" stop-opacity="0"/></radialGradient><linearGradient id="f237idk" x1="27.148" x2="11.898" y1="3.875" y2="23.313" gradientUnits="userSpaceOnUse"><stop stop-color="#D8D1E0"/><stop offset="1" stop-color="#D5C9E3"/></linearGradient><linearGradient id="f237idl" x1="6.94" x2="7.888" y1="21.669" y2="22.609" gradientUnits="userSpaceOnUse"><stop offset=".075" stop-color="#B19AA4" stop-opacity="0"/><stop offset=".425" stop-color="#B19AA4"/><stop offset=".86" stop-color="#B19AA4" stop-opacity=".141"/><stop offset="1" stop-color="#B19AA4" stop-opacity="0"/></linearGradient><linearGradient id="f237idm" x1="20.972" x2="21.653" y1="16.032" y2="16.714" gradientUnits="userSpaceOnUse"><stop offset=".075" stop-color="#B19AA4" stop-opacity="0"/><stop offset=".198" stop-color="#B19AA4"/><stop offset=".514" stop-color="#B19AA4" stop-opacity=".405"/><stop offset=".79" stop-color="#B19AA4" stop-opacity=".141"/><stop offset="1" stop-color="#B19AA4" stop-opacity="0"/></linearGradient><linearGradient id="f237idn" x1="16.023" x2="16.023" y1="1.896" y2="4.36" gradientUnits="userSpaceOnUse"><stop stop-color="#E0DFE2"/><stop offset="1" stop-color="#E0DFE2" stop-opacity="0"/></linearGradient><linearGradient id="f237ido" x1="16.023" x2="16.023" y1="1.014" y2="2.565" gradientUnits="userSpaceOnUse"><stop offset=".494" stop-color="#BABABA"/><stop offset=".797" stop-color="#BABABA" stop-opacity=".267"/><stop offset="1" stop-color="#BABABA" stop-opacity="0"/></linearGradient><linearGradient id="f237idp" x1="2.07" x2="6.223" y1="16" y2="16" gradientUnits="userSpaceOnUse"><stop stop-color="#A9A2B0"/><stop offset="1" stop-color="#DAD3E2" stop-opacity="0"/></linearGradient><linearGradient id="f237idq" x1="16.023" x2="16.023" y1="30.366" y2="26.42" gradientUnits="userSpaceOnUse"><stop stop-color="#B9B2BF"/><stop offset="1" stop-color="#B9B2BF" stop-opacity="0"/></linearGradient><linearGradient id="f237idr" x1="21.499" x2="21.499" y1="30.216" y2="26.971" gradientUnits="userSpaceOnUse"><stop offset=".122" stop-color="#A88AC4"/><stop offset="1" stop-color="#CDBCE0" stop-opacity="0"/></linearGradient><linearGradient id="f237ids" x1="16.023" x2="16.023" y1="4.359" y2="29.953" gradientUnits="userSpaceOnUse"><stop stop-color="#C2BEC6"/><stop offset="1" stop-color="#BAACC6"/></linearGradient><linearGradient id="f237idt" x1="21.742" x2="21.742" y1="30.668" y2="27.187" gradientUnits="userSpaceOnUse"><stop stop-color="#9E83B7"/><stop offset="1" stop-color="#9E83B7" stop-opacity="0"/></linearGradient><linearGradient id="f237idu" x1="1.102" x2="6.414" y1="17.359" y2="17.359" gradientUnits="userSpaceOnUse"><stop stop-color="#96909C"/><stop offset="1" stop-color="#96909C" stop-opacity="0"/></linearGradient><linearGradient id="f237idv" x1="30.789" x2="26.977" y1="18.047" y2="18.047" gradientUnits="userSpaceOnUse"><stop stop-color="#D6D1DA"/><stop offset="1" stop-color="#D6D1DA" stop-opacity="0"/></linearGradient><linearGradient id="f237idw" x1="27.664" x2="4.102" y1="13.422" y2="23.172" gradientUnits="userSpaceOnUse"><stop stop-color="#3191D1"/><stop offset="1" stop-color="#4182BD"/></linearGradient><linearGradient id="f237idx" x1="23.205" x2="21.666" y1="14.255" y2="12.682" gradientUnits="userSpaceOnUse"><stop stop-color="#34A3E8" stop-opacity="0"/><stop offset=".201" stop-color="#34A3E8" stop-opacity=".218"/><stop offset=".346" stop-color="#34A3E8" stop-opacity=".763"/><stop offset=".42" stop-color="#34A3E8"/><stop offset=".526" stop-color="#34A3E8" stop-opacity=".788"/><stop offset=".562" stop-color="#34A3E8" stop-opacity=".788"/><stop offset=".687" stop-color="#34A3E8" stop-opacity=".281"/><stop offset=".931" stop-color="#34A3E8" stop-opacity="0"/></linearGradient><linearGradient id="f237idy" x1="7.45" x2="9.025" y1="19.566" y2="21.212" gradientUnits="userSpaceOnUse"><stop stop-color="#4498E7" stop-opacity="0"/><stop offset=".344" stop-color="#4498E7" stop-opacity=".906"/><stop offset=".406" stop-color="#4498E7"/><stop offset=".484" stop-color="#4498E7" stop-opacity=".867"/><stop offset=".741" stop-color="#4498E7" stop-opacity="0"/></linearGradient><linearGradient id="f237idz" x1="14.226" x2="12.032" y1="18.138" y2="20.331" gradientUnits="userSpaceOnUse"><stop stop-color="#55ADF0" stop-opacity="0"/><stop offset=".311" stop-color="#55ADF0" stop-opacity=".906"/><stop offset=".386" stop-color="#5AB3F6"/><stop offset=".437" stop-color="#5AB3F6"/><stop offset=".517" stop-color="#55ADF0" stop-opacity=".867"/><stop offset=".741" stop-color="#55ADF0" stop-opacity="0"/></linearGradient><linearGradient id="f237id10" x1="9.558" x2="3.515" y1="18.922" y2="24.154" gradientUnits="userSpaceOnUse"><stop stop-color="#DA267D" stop-opacity="0"/><stop offset="0" stop-color="#2C7DC5" stop-opacity="0"/><stop offset="1" stop-color="#2C7DC5"/></linearGradient></defs></g></svg>