<svg xmlns="http://www.w3.org/2000/svg" xmlns:xlink="http://www.w3.org/1999/xlink" width="32" height="32" viewBox="0 0 32 32"><g fill="none"><path fill="#785DC8" fill-rule="evenodd" d="M28.928 10.3a3.25 3.25 0 0 1-.137 4.595L13.94 28.89a3.25 3.25 0 0 1-4.557-.098l-6.264-6.435a3.25 3.25 0 0 1 4.658-4.534l4.033 4.143l12.525-11.802a3.25 3.25 0 0 1 4.594.136" clip-rule="evenodd"/><path fill="url(#f240id6)" fill-rule="evenodd" d="M28.928 10.3a3.25 3.25 0 0 1-.137 4.595L13.94 28.89a3.25 3.25 0 0 1-4.557-.098l-6.264-6.435a3.25 3.25 0 0 1 4.658-4.534l4.033 4.143l12.525-11.802a3.25 3.25 0 0 1 4.594.136" clip-rule="evenodd"/><path fill="url(#f240id0)" fill-rule="evenodd" d="M28.928 10.3a3.25 3.25 0 0 1-.137 4.595L13.94 28.89a3.25 3.25 0 0 1-4.557-.098l-6.264-6.435a3.25 3.25 0 0 1 4.658-4.534l4.033 4.143l12.525-11.802a3.25 3.25 0 0 1 4.594.136" clip-rule="evenodd"/><path fill="url(#f240id1)" fill-opacity=".8" fill-rule="evenodd" d="M28.928 10.3a3.25 3.25 0 0 1-.137 4.595L13.94 28.89a3.25 3.25 0 0 1-4.557-.098l-6.264-6.435a3.25 3.25 0 0 1 4.658-4.534l4.033 4.143l12.525-11.802a3.25 3.25 0 0 1 4.594.136" clip-rule="evenodd"/><path fill="url(#f240id7)" fill-rule="evenodd" d="M11.771 29.774v-7.847l.038.04l12.525-11.803a3.25 3.25 0 0 1 4.457 4.73L13.94 28.89a3.24 3.24 0 0 1-2.168.884" clip-rule="evenodd"/><path fill="url(#f240id2)" fill-rule="evenodd" d="M11.771 29.774v-7.847l.038.04l12.525-11.803a3.25 3.25 0 0 1 4.457 4.73L13.94 28.89a3.24 3.24 0 0 1-2.168.884" clip-rule="evenodd"/><path fill="url(#f240id3)" fill-rule="evenodd" d="M11.771 29.774v-7.847l.038.04l12.525-11.803a3.25 3.25 0 0 1 4.457 4.73L13.94 28.89a3.24 3.24 0 0 1-2.168.884" clip-rule="evenodd"/><path fill="url(#f240id4)" fill-rule="evenodd" d="M11.771 29.774v-7.847l.038.04l12.525-11.803a3.25 3.25 0 0 1 4.457 4.73L13.94 28.89a3.24 3.24 0 0 1-2.168.884" clip-rule="evenodd"/><path fill="url(#f240id5)" fill-opacity=".8" fill-rule="evenodd" d="M11.771 29.774v-7.847l.038.04l12.525-11.803a3.25 3.25 0 0 1 4.457 4.73L13.94 28.89a3.24 3.24 0 0 1-2.168.884" clip-rule="evenodd"/><defs><radialGradient id="f240id0" cx="0" cy="0" r="1" gradientTransform="rotate(47.198 -22.29 22.15)scale(10.1514)" gradientUnits="userSpaceOnUse"><stop offset=".569" stop-color="#423473" stop-opacity="0"/><stop offset=".863" stop-color="#41366A"/></radialGradient><radialGradient id="f240id1" cx="0" cy="0" r="1" gradientTransform="matrix(0 -2.01214 2.70769 0 12.008 27.808)" gradientUnits="userSpaceOnUse"><stop offset=".096" stop-color="#9447FE"/><stop offset=".846" stop-color="#9447FE" stop-opacity="0"/></radialGradient><radialGradient id="f240id2" cx="0" cy="0" r="1" gradientTransform="rotate(-54.105 24.814 -21.83)scale(3.17799)" gradientUnits="userSpaceOnUse"><stop offset=".177" stop-color="#A398D8"/><stop offset="1" stop-color="#8A7ACC" stop-opacity="0"/></radialGradient><radialGradient id="f240id3" cx="0" cy="0" r="1" gradientTransform="matrix(0 3.02803 -2.08177 0 11.345 24.242)" gradientUnits="userSpaceOnUse"><stop offset=".366" stop-color="#978CCF"/><stop offset="1" stop-color="#7363B5" stop-opacity="0"/></radialGradient><radialGradient id="f240id4" cx="0" cy="0" r="1" gradientTransform="matrix(.21913 21.7968 -19.36452 .19468 19.513 24.22)" gradientUnits="userSpaceOnUse"><stop offset=".569" stop-color="#423473" stop-opacity="0"/><stop offset=".863" stop-color="#41366A"/></radialGradient><radialGradient id="f240id5" cx="0" cy="0" r="1" gradientTransform="matrix(0 -2.17861 2.70919 0 11.771 27.7)" gradientUnits="userSpaceOnUse"><stop offset=".096" stop-color="#9447FE"/><stop offset=".846" stop-color="#9447FE" stop-opacity="0"/></radialGradient><linearGradient id="f240id6" x1="10.719" x2="5.785" y1="20.389" y2="25.323" gradientUnits="userSpaceOnUse"><stop stop-color="#655898"/><stop offset=".199" stop-color="#978CCF"/><stop offset=".291" stop-color="#978CCF"/><stop offset=".362" stop-color="#978CCF"/><stop offset=".523" stop-color="#7966C1"/><stop offset=".818" stop-color="#8842EC"/><stop offset="1" stop-color="#6035BE"/></linearGradient><linearGradient id="f240id7" x1="15.354" x2="20.792" y1="17.951" y2="23.716" gradientUnits="userSpaceOnUse"><stop stop-color="#473B76"/><stop offset=".266" stop-color="#6C5EA9"/><stop offset=".523" stop-color="#7966C1"/><stop offset=".736" stop-color="#7C50D8"/><stop offset=".895" stop-color="#6035BE"/></linearGradient></defs></g></svg>