<svg xmlns="http://www.w3.org/2000/svg" xmlns:xlink="http://www.w3.org/1999/xlink" width="32" height="32" viewBox="0 0 32 32"><g fill="none"><path fill="url(#f306id0)" d="M15.999 29.998c9.334 0 13.999-6.268 13.999-14c0-7.73-4.665-13.998-14-13.998C6.665 2 2 8.268 2 15.999s4.664 13.999 13.999 13.999"/><path fill="url(#f306id1)" d="M15.999 29.998c9.334 0 13.999-6.268 13.999-14c0-7.73-4.665-13.998-14-13.998C6.665 2 2 8.268 2 15.999s4.664 13.999 13.999 13.999"/><path fill="url(#f306id2)" d="M15.999 29.998c9.334 0 13.999-6.268 13.999-14c0-7.73-4.665-13.998-14-13.998C6.665 2 2 8.268 2 15.999s4.664 13.999 13.999 13.999"/><path fill="url(#f306id3)" fill-opacity=".6" d="M15.999 29.998c9.334 0 13.999-6.268 13.999-14c0-7.73-4.665-13.998-14-13.998C6.665 2 2 8.268 2 15.999s4.664 13.999 13.999 13.999"/><path fill="url(#f306id4)" d="M15.999 29.998c9.334 0 13.999-6.268 13.999-14c0-7.73-4.665-13.998-14-13.998C6.665 2 2 8.268 2 15.999s4.664 13.999 13.999 13.999"/><path fill="url(#f306id5)" d="M15.999 29.998c9.334 0 13.999-6.268 13.999-14c0-7.73-4.665-13.998-14-13.998C6.665 2 2 8.268 2 15.999s4.664 13.999 13.999 13.999"/><path fill="url(#f306id6)" d="M15.999 29.998c9.334 0 13.999-6.268 13.999-14c0-7.73-4.665-13.998-14-13.998C6.665 2 2 8.268 2 15.999s4.664 13.999 13.999 13.999"/><path fill="url(#f306id7)" d="M15.999 29.998c9.334 0 13.999-6.268 13.999-14c0-7.73-4.665-13.998-14-13.998C6.665 2 2 8.268 2 15.999s4.664 13.999 13.999 13.999"/><g fill-opacity=".6" filter="url(#f306idn)"><path fill="url(#f306id8)" d="M9.447 19.328a1 1 0 1 1-.894-1.79l2.206-1.103H14a1 1 0 0 1-.553.893z"/><path fill="url(#f306id9)" d="M9.447 13.543a1 1 0 1 0-.894 1.79l2.206 1.102H14a1 1 0 0 0-.553-.892z"/></g><path fill="url(#f306idc)" d="M9.447 18.89a1 1 0 1 1-.894-1.789l2.206-1.103H14a1 1 0 0 1-.553.892z"/><path fill="url(#f306idd)" d="M9.447 13.106a1 1 0 1 0-.894 1.789l2.206 1.103H14a1 1 0 0 0-.553-.892z"/><g filter="url(#f306ido)"><path fill="url(#f306ida)" d="M21.959 19.328a1 1 0 0 0 .895-1.79l-2.207-1.103h-3.24a1 1 0 0 0 .552.893z"/><path fill="url(#f306idb)" d="M21.959 13.543a1 1 0 0 1 .895 1.79l-2.207 1.102h-3.24a1 1 0 0 1 .552-.892z"/></g><path fill="url(#f306ide)" d="M22.537 18.89a1 1 0 1 0 .895-1.789l-2.207-1.103h-3.24a1 1 0 0 0 .552.892z"/><path fill="url(#f306idf)" d="M22.537 13.106a1 1 0 1 1 .895 1.789l-2.207 1.103h-3.24a1 1 0 0 1 .552-.892z"/><g filter="url(#f306idp)"><path stroke="#CD6256" stroke-linecap="round" stroke-linejoin="round" stroke-width="1.5" d="m12.873 23.088l2.392 2.002m2.719-2.329l2.392 2.002"/></g><path stroke="url(#f306idg)" stroke-linecap="round" stroke-linejoin="round" stroke-width="2" d="m7.854 22.45l2.396 2.005"/><path stroke="url(#f306idh)" stroke-linecap="round" stroke-linejoin="round" stroke-width="2" d="m10.25 24.455l2.768-2.329"/><path stroke="url(#f306idi)" stroke-linecap="round" stroke-linejoin="round" stroke-width="2" d="m13.13 22.051l2.871 2.405"/><path stroke="url(#f306idj)" stroke-linecap="round" stroke-linejoin="round" stroke-width="2" d="M18.87 22.051L16 24.456"/><path stroke="url(#f306idk)" stroke-linecap="round" stroke-linejoin="round" stroke-width="2" d="m18.87 22.051l2.871 2.405"/><path stroke="url(#f306idl)" stroke-linecap="round" stroke-linejoin="round" stroke-width="2" d="m24.161 22.427l-2.41 2.028"/><path stroke="url(#f306idm)" stroke-linecap="round" stroke-linejoin="round" stroke-width="2" d="m7.854 22.45l2.396 2.005l2.876-2.406L16 24.455l2.876-2.406l2.875 2.406l2.396-2.005"/><g filter="url(#f306idq)"><path stroke="#694C5E" stroke-linecap="round" stroke-linejoin="round" stroke-width=".5" d="m7.854 22.45l2.396 2.005l2.876-2.406L16 24.455l2.876-2.406l2.875 2.406l2.396-2.005"/></g><defs><radialGradient id="f306id0" cx="0" cy="0" r="1" gradientTransform="rotate(132.839 10.786 10.065)scale(37.5033)" gradientUnits="userSpaceOnUse"><stop stop-color="#FFF478"/><stop offset=".475" stop-color="#FFB02E"/><stop offset="1" stop-color="#F70A8D"/></radialGradient><radialGradient id="f306id1" cx="0" cy="0" r="1" gradientTransform="rotate(131.878 10.74 10.193)scale(38.9487)" gradientUnits="userSpaceOnUse"><stop stop-color="#FFF478"/><stop offset=".475" stop-color="#FFB02E"/><stop offset="1" stop-color="#F70A8D"/></radialGradient><radialGradient id="f306id2" cx="0" cy="0" r="1" gradientTransform="rotate(101.31 2.876 12.808)scale(17.8466 22.8581)" gradientUnits="userSpaceOnUse"><stop offset=".788" stop-color="#F59639" stop-opacity="0"/><stop offset=".973" stop-color="#FF7DCE"/></radialGradient><radialGradient id="f306id3" cx="0" cy="0" r="1" gradientTransform="matrix(-29 29 -29 -29 18 14)" gradientUnits="userSpaceOnUse"><stop offset=".315" stop-opacity="0"/><stop offset="1"/></radialGradient><radialGradient id="f306id4" cx="0" cy="0" r="1" gradientTransform="rotate(77.692 -2.555 18.434)scale(28.1469)" gradientUnits="userSpaceOnUse"><stop offset=".508" stop-color="#7D6133" stop-opacity="0"/><stop offset="1" stop-color="#715B32"/></radialGradient><radialGradient id="f306id5" cx="0" cy="0" r="1" gradientTransform="matrix(7.5 10.99996 -7.97335 5.4364 16.5 16.5)" gradientUnits="userSpaceOnUse"><stop stop-color="#FFB849"/><stop offset="1" stop-color="#FFB847" stop-opacity="0"/></radialGradient><radialGradient id="f306id6" cx="0" cy="0" r="1" gradientTransform="matrix(11.49998 2 -2 11.49998 20.5 18)" gradientUnits="userSpaceOnUse"><stop stop-color="#FFA64B"/><stop offset=".9" stop-color="#FFAE46" stop-opacity="0"/></radialGradient><radialGradient id="f306id7" cx="0" cy="0" r="1" gradientTransform="rotate(43.971 -9.827 29.173)scale(59.0529)" gradientUnits="userSpaceOnUse"><stop offset=".185" stop-opacity="0"/><stop offset="1" stop-opacity=".4"/></radialGradient><radialGradient id="f306id8" cx="0" cy="0" r="1" gradientTransform="matrix(-2.62502 7.125 -9.31237 -3.4309 9.781 13.438)" gradientUnits="userSpaceOnUse"><stop stop-color="#9F5E0F"/><stop offset=".889" stop-color="#9F5E0F" stop-opacity="0"/></radialGradient><radialGradient id="f306id9" cx="0" cy="0" r="1" gradientTransform="matrix(-2.62502 7.125 -9.31237 -3.4309 9.781 13.438)" gradientUnits="userSpaceOnUse"><stop stop-color="#9F5E0F"/><stop offset=".889" stop-color="#9F5E0F" stop-opacity="0"/></radialGradient><radialGradient id="f306ida" cx="0" cy="0" r="1" gradientTransform="rotate(-135.995 17.543 4.798)scale(13.3597 17.4611)" gradientUnits="userSpaceOnUse"><stop stop-color="#E9830A"/><stop offset=".802" stop-color="#F08B13" stop-opacity="0"/></radialGradient><radialGradient id="f306idb" cx="0" cy="0" r="1" gradientTransform="rotate(-135.995 17.543 4.798)scale(13.3597 17.4611)" gradientUnits="userSpaceOnUse"><stop stop-color="#E9830A"/><stop offset=".802" stop-color="#F08B13" stop-opacity="0"/></radialGradient><linearGradient id="f306idc" x1="10.578" x2="8" y1="19.732" y2="14.388" gradientUnits="userSpaceOnUse"><stop offset=".25" stop-color="#482641"/><stop offset=".406" stop-color="#503A4A"/><stop offset=".511" stop-color="#482641"/></linearGradient><linearGradient id="f306idd" x1="8.86" x2="11.25" y1="16.139" y2="11.451" gradientUnits="userSpaceOnUse"><stop offset=".25" stop-color="#482641"/><stop offset=".406" stop-color="#503A4A"/><stop offset=".511" stop-color="#482641"/></linearGradient><linearGradient id="f306ide" x1="21.406" x2="23.985" y1="19.732" y2="14.388" gradientUnits="userSpaceOnUse"><stop offset=".25" stop-color="#482641"/><stop offset=".406" stop-color="#503A4A"/><stop offset=".511" stop-color="#482641"/></linearGradient><linearGradient id="f306idf" x1="23.125" x2="20.734" y1="16.139" y2="11.451" gradientUnits="userSpaceOnUse"><stop offset=".25" stop-color="#482641"/><stop offset=".406" stop-color="#503A4A"/><stop offset=".511" stop-color="#482641"/></linearGradient><linearGradient id="f306idg" x1="7.432" x2="11.244" y1="23.818" y2="19.263" gradientUnits="userSpaceOnUse"><stop stop-color="#482641"/><stop offset=".323" stop-color="#57434E"/><stop offset=".438" stop-color="#483637"/></linearGradient><linearGradient id="f306idh" x1="11.745" x2="8.82" y1="24.695" y2="21.126" gradientUnits="userSpaceOnUse"><stop offset=".02" stop-color="#482641"/><stop offset=".323" stop-color="#57434E"/><stop offset=".464" stop-color="#483637"/></linearGradient><linearGradient id="f306idi" x1="12.931" x2="15.94" y1="23.39" y2="19.869" gradientUnits="userSpaceOnUse"><stop offset=".02" stop-color="#482641"/><stop offset=".323" stop-color="#57434E"/><stop offset=".464" stop-color="#483637"/></linearGradient><linearGradient id="f306idj" x1="19.07" x2="16.061" y1="23.39" y2="19.869" gradientUnits="userSpaceOnUse"><stop offset=".02" stop-color="#482641"/><stop offset=".323" stop-color="#57434E"/><stop offset=".464" stop-color="#483637"/></linearGradient><linearGradient id="f306idk" x1="18.671" x2="21.68" y1="23.39" y2="19.869" gradientUnits="userSpaceOnUse"><stop offset=".02" stop-color="#482641"/><stop offset=".323" stop-color="#57434E"/><stop offset=".464" stop-color="#483637"/></linearGradient><linearGradient id="f306idl" x1="24.821" x2="21.812" y1="23.39" y2="19.868" gradientUnits="userSpaceOnUse"><stop offset=".02" stop-color="#482641"/><stop offset=".323" stop-color="#57434E"/><stop offset=".464" stop-color="#483637"/></linearGradient><linearGradient id="f306idm" x1="16.001" x2="16.001" y1="25.56" y2="24.006" gradientUnits="userSpaceOnUse"><stop stop-color="#53265E"/><stop offset="1" stop-color="#53265E" stop-opacity="0"/></linearGradient><filter id="f306idn" width="7" height="6.996" x="7.5" y="12.938" color-interpolation-filters="sRGB" filterUnits="userSpaceOnUse"><feFlood flood-opacity="0" result="BackgroundImageFix"/><feBlend in="SourceGraphic" in2="BackgroundImageFix" result="shape"/><feGaussianBlur result="effect1_foregroundBlur_31_1661" stdDeviation=".25"/></filter><filter id="f306ido" width="7" height="6.996" x="16.906" y="12.938" color-interpolation-filters="sRGB" filterUnits="userSpaceOnUse"><feFlood flood-opacity="0" result="BackgroundImageFix"/><feBlend in="SourceGraphic" in2="BackgroundImageFix" result="shape"/><feGaussianBlur result="effect1_foregroundBlur_31_1661" stdDeviation=".25"/></filter><filter id="f306idp" width="12.004" height="6.828" x="10.623" y="20.511" color-interpolation-filters="sRGB" filterUnits="userSpaceOnUse"><feFlood flood-opacity="0" result="BackgroundImageFix"/><feBlend in="SourceGraphic" in2="BackgroundImageFix" result="shape"/><feGaussianBlur result="effect1_foregroundBlur_31_1661" stdDeviation=".75"/></filter><filter id="f306idq" width="18.295" height="4.406" x="6.854" y="21.049" color-interpolation-filters="sRGB" filterUnits="userSpaceOnUse"><feFlood flood-opacity="0" result="BackgroundImageFix"/><feBlend in="SourceGraphic" in2="BackgroundImageFix" result="shape"/><feGaussianBlur result="effect1_foregroundBlur_31_1661" stdDeviation=".375"/></filter></defs></g></svg>