<svg xmlns="http://www.w3.org/2000/svg" xmlns:xlink="http://www.w3.org/1999/xlink" width="32" height="32" viewBox="0 0 32 32"><g fill="none"><path fill="url(#f349ids)" d="M20.811 2.67c-2.136 2.178-4.64 5.148-5.515 8.633l-.223 2.765h5.03c1.032-1.823 2.813-5.32 4.575-7.305s.555-3.777-.066-4.308a2.68 2.68 0 0 0-3.8.215"/><path fill="url(#f349id0)" d="M20.811 2.67c-2.136 2.178-4.64 5.148-5.515 8.633l-.223 2.765h5.03c1.032-1.823 2.813-5.32 4.575-7.305s.555-3.777-.066-4.308a2.68 2.68 0 0 0-3.8.215"/><path fill="url(#f349id1)" d="M20.811 2.67c-2.136 2.178-4.64 5.148-5.515 8.633l-.223 2.765h5.03c1.032-1.823 2.813-5.32 4.575-7.305s.555-3.777-.066-4.308a2.68 2.68 0 0 0-3.8.215"/><path fill="url(#f349id2)" d="M20.811 2.67c-2.136 2.178-4.64 5.148-5.515 8.633l-.223 2.765h5.03c1.032-1.823 2.813-5.32 4.575-7.305s.555-3.777-.066-4.308a2.68 2.68 0 0 0-3.8.215"/><path fill="url(#f349id3)" d="M20.811 2.67c-2.136 2.178-4.64 5.148-5.515 8.633l-.223 2.765h5.03c1.032-1.823 2.813-5.32 4.575-7.305s.555-3.777-.066-4.308a2.68 2.68 0 0 0-3.8.215"/><path fill="url(#f349id4)" d="M20.811 2.67c-2.136 2.178-4.64 5.148-5.515 8.633l-.223 2.765h5.03c1.032-1.823 2.813-5.32 4.575-7.305s.555-3.777-.066-4.308a2.68 2.68 0 0 0-3.8.215"/><g filter="url(#f349idj)"><path stroke="#FAC9A2" stroke-linecap="round" stroke-width="2.5" d="M23.581 4.419c-.929 1.151-1.946 2.619-3.247 4.415"/></g><g filter="url(#f349idk)"><path fill="#D59A8D" d="m6.01 20.559l-.187-5.114V13.89H20.29c.01-.844-1.843-4.116-4.253-7.32c-1.422-1.891-.62-3.566.515-4.305c1.477-.961 3.051-.16 3.946.898c0 0 5.636 5.93 5.636 13.304c.127 4.64.032 5.398-1.219 7.86c-1.815 3.575-5.716 5.357-9.247 5.357c-5.813 0-9.471-4.138-9.659-9.125"/><path fill="url(#f349id5)" d="m6.01 20.559l-.187-5.114V13.89H20.29c.01-.844-1.843-4.116-4.253-7.32c-1.422-1.891-.62-3.566.515-4.305c1.477-.961 3.051-.16 3.946.898c0 0 5.636 5.93 5.636 13.304c.127 4.64.032 5.398-1.219 7.86c-1.815 3.575-5.716 5.357-9.247 5.357c-5.813 0-9.471-4.138-9.659-9.125"/><path fill="url(#f349id6)" d="m6.01 20.559l-.187-5.114V13.89H20.29c.01-.844-1.843-4.116-4.253-7.32c-1.422-1.891-.62-3.566.515-4.305c1.477-.961 3.051-.16 3.946.898c0 0 5.636 5.93 5.636 13.304c.127 4.64.032 5.398-1.219 7.86c-1.815 3.575-5.716 5.357-9.247 5.357c-5.813 0-9.471-4.138-9.659-9.125"/><path fill="url(#f349id7)" d="m6.01 20.559l-.187-5.114V13.89H20.29c.01-.844-1.843-4.116-4.253-7.32c-1.422-1.891-.62-3.566.515-4.305c1.477-.961 3.051-.16 3.946.898c0 0 5.636 5.93 5.636 13.304c.127 4.64.032 5.398-1.219 7.86c-1.815 3.575-5.716 5.357-9.247 5.357c-5.813 0-9.471-4.138-9.659-9.125"/></g><g filter="url(#f349idl)"><path fill="#A26057" d="M16.842 14.865c-1.732 0-3.136 1.246-3.136 2.782s1.404 2.783 3.136 2.783h1.671c2.525 0 3.18.132 3.379.359l1.536-.178c1.23 1.4.995.652.995-1.122v-.505c0-2.84-1.56-3.711-4.65-4.071a3.6 3.6 0 0 0-.583-.048z"/></g><g filter="url(#f349idm)"><path fill="#A26057" d="M6.375 11.915c0-1.357 1.155-2.456 2.58-2.456c1.424 0 2.578 1.1 2.578 2.456v2.26c0 1.356-1.154 2.455-2.579 2.455c-1.424 0-2.579-1.1-2.579-2.456z"/></g><g filter="url(#f349idn)"><path fill="#A26057" d="M9.827 12.673c0-1.348 1.148-2.441 2.564-2.441s2.564 1.093 2.564 2.441v2.247c0 1.348-1.148 2.441-2.564 2.441s-2.564-1.093-2.564-2.441z"/></g><path fill="#D7A783" d="M5.823 11.424c0-1.43 1.25-2.59 2.79-2.59c1.542 0 2.792 1.16 2.792 2.59v2.383c0 1.43-1.25 2.59-2.791 2.59c-1.542 0-2.791-1.16-2.791-2.59z"/><path fill="url(#f349idt)" d="M5.823 11.424c0-1.43 1.25-2.59 2.79-2.59c1.542 0 2.792 1.16 2.792 2.59v2.383c0 1.43-1.25 2.59-2.791 2.59c-1.542 0-2.791-1.16-2.791-2.59z"/><path fill="url(#f349id8)" d="M5.823 11.424c0-1.43 1.25-2.59 2.79-2.59c1.542 0 2.792 1.16 2.792 2.59v2.383c0 1.43-1.25 2.59-2.791 2.59c-1.542 0-2.791-1.16-2.791-2.59z"/><path fill="url(#f349id9)" d="M5.823 11.424c0-1.43 1.25-2.59 2.79-2.59c1.542 0 2.792 1.16 2.792 2.59v2.383c0 1.43-1.25 2.59-2.791 2.59c-1.542 0-2.791-1.16-2.791-2.59z"/><path fill="url(#f349idu)" d="M5.823 11.424c0-1.43 1.25-2.59 2.79-2.59c1.542 0 2.792 1.16 2.792 2.59v2.383c0 1.43-1.25 2.59-2.791 2.59c-1.542 0-2.791-1.16-2.791-2.59z"/><path fill="#E1AB85" d="M10.335 10.673c0-1.646 1.27-2.98 2.84-2.98c1.567 0 2.839 1.334 2.839 2.98v2.743c0 1.646-1.272 2.98-2.84 2.98s-2.84-1.334-2.84-2.98z"/><path fill="url(#f349ida)" d="M10.335 10.673c0-1.646 1.27-2.98 2.84-2.98c1.567 0 2.839 1.334 2.839 2.98v2.743c0 1.646-1.272 2.98-2.84 2.98s-2.84-1.334-2.84-2.98z"/><path fill="url(#f349idv)" d="M10.335 10.673c0-1.646 1.27-2.98 2.84-2.98c1.567 0 2.839 1.334 2.839 2.98v2.743c0 1.646-1.272 2.98-2.84 2.98s-2.84-1.334-2.84-2.98z"/><path fill="url(#f349idb)" d="M10.335 10.673c0-1.646 1.27-2.98 2.84-2.98c1.567 0 2.839 1.334 2.839 2.98v2.743c0 1.646-1.272 2.98-2.84 2.98s-2.84-1.334-2.84-2.98z"/><g filter="url(#f349ido)"><path stroke="#FFD1A9" stroke-linecap="round" stroke-width="2" d="M18.73 3.988c2.11 2.245 4.896 6.194 5.22 9.602c.345 3.617 0 5.966 0 7.36"/></g><path fill="url(#f349idc)" d="M17.827 13.24a2.984 2.984 0 0 0 0 5.969h1.59a1 1 0 0 1 .788.385l2.044 2.621c1.17 1.501 3.578.674 3.578-1.23V19.24a6 6 0 0 0-5.212-5.949a3 3 0 0 0-.554-.051z"/><path fill="url(#f349idw)" d="M17.827 13.24a2.984 2.984 0 0 0 0 5.969h1.59a1 1 0 0 1 .788.385l2.044 2.621c1.17 1.501 3.578.674 3.578-1.23V19.24a6 6 0 0 0-5.212-5.949a3 3 0 0 0-.554-.051z"/><path fill="url(#f349idd)" d="M17.827 13.24a2.984 2.984 0 0 0 0 5.969h1.59a1 1 0 0 1 .788.385l2.044 2.621c1.17 1.501 3.578.674 3.578-1.23V19.24a6 6 0 0 0-5.212-5.949a3 3 0 0 0-.554-.051z"/><path fill="url(#f349ide)" d="M17.827 13.24a2.984 2.984 0 0 0 0 5.969h1.59a1 1 0 0 1 .788.385l2.044 2.621c1.17 1.501 3.578.674 3.578-1.23V19.24a6 6 0 0 0-5.212-5.949a3 3 0 0 0-.554-.051z"/><g filter="url(#f349idp)"><rect width="1.36" height="4.484" x="8.467" y="10.246" fill="url(#f349idx)" rx=".68"/></g><g filter="url(#f349idq)"><rect width="1.693" height="5.457" x="13.379" y="9.273" fill="#FFD0A9" rx=".847"/></g><path fill="url(#f349idf)" d="m6.01 20.578l-.187-5.114v-1.556h.002c.06 1.382 1.285 2.485 2.789 2.485c.967 0 1.819-.456 2.32-1.15c.52.7 1.33 1.15 2.24 1.15c1.407 0 2.576-1.075 2.8-2.485h4.317c.01-.843-1.843-4.115-4.253-7.32c-1.422-1.89-.62-3.565.515-4.305c1.477-.96 3.219-.25 3.946.899c0 0 5.636 5.93 5.636 13.304c.127 4.64.032 5.398-1.219 7.86c-1.815 3.575-5.716 5.357-9.247 5.357c-5.813 0-9.471-4.138-9.659-9.125"/><path fill="url(#f349idg)" d="m6.01 20.578l-.187-5.114v-1.556h.002c.06 1.382 1.285 2.485 2.789 2.485c.967 0 1.819-.456 2.32-1.15c.52.7 1.33 1.15 2.24 1.15c1.407 0 2.576-1.075 2.8-2.485h4.317c.01-.843-1.843-4.115-4.253-7.32c-1.422-1.89-.62-3.565.515-4.305c1.477-.96 3.219-.25 3.946.899c0 0 5.636 5.93 5.636 13.304c.127 4.64.032 5.398-1.219 7.86c-1.815 3.575-5.716 5.357-9.247 5.357c-5.813 0-9.471-4.138-9.659-9.125"/><g filter="url(#f349idr)"><path stroke="url(#f349idy)" stroke-linecap="round" stroke-width="2" d="M18.735 15.76h.615c2.03 0 4.2.588 4.723 2.548c.1.372.175.788.215 1.25"/></g><path fill="url(#f349idh)" d="M20.125 13.24c1.027.112 3.18.378 4.78 2.76c.886-7.739-4.406-12.815-4.406-12.815c-.727-1.148-2.47-1.859-3.946-.898c-1.135.739-1.937 2.414-.515 4.305c1.979 2.63 3.582 5.307 4.087 6.648"/><path fill="url(#f349idi)" d="M20.125 13.24c1.027.112 3.18.378 4.78 2.76c.886-7.739-4.406-12.815-4.406-12.815c-.727-1.148-2.47-1.859-3.946-.898c-1.135.739-1.937 2.414-.515 4.305c1.979 2.63 3.582 5.307 4.087 6.648"/><defs><radialGradient id="f349id0" cx="0" cy="0" r="1" gradientTransform="rotate(-145.784 13.28 1.689)scale(7.55811 20.3298)" gradientUnits="userSpaceOnUse"><stop offset=".55" stop-color="#C39472" stop-opacity="0"/><stop offset="1" stop-color="#C39472"/></radialGradient><radialGradient id="f349id1" cx="0" cy="0" r="1" gradientTransform="matrix(-1.44892 .96594 -7.83612 -11.75422 20.126 11.329)" gradientUnits="userSpaceOnUse"><stop offset=".331" stop-color="#C17B56"/><stop offset="1" stop-color="#C17B56" stop-opacity="0"/></radialGradient><radialGradient id="f349id2" cx="0" cy="0" r="1" gradientTransform="matrix(-1.0767 .48941 -3.97031 -8.73467 20.016 11.897)" gradientUnits="userSpaceOnUse"><stop offset=".479" stop-color="#CC8B65"/><stop offset=".652" stop-color="#CC8B65" stop-opacity="0"/></radialGradient><radialGradient id="f349id3" cx="0" cy="0" r="1" gradientTransform="matrix(0 -3.26935 1.63468 0 19.197 14.561)" gradientUnits="userSpaceOnUse"><stop stop-color="#E8B691"/><stop offset="1" stop-color="#E8B691" stop-opacity="0"/></radialGradient><radialGradient id="f349id4" cx="0" cy="0" r="1" gradientTransform="rotate(128.409 12.367 7.35)scale(3.53833 4.6463)" gradientUnits="userSpaceOnUse"><stop offset=".146" stop-color="#F4C8A0"/><stop offset="1" stop-color="#F4C8A0" stop-opacity="0"/></radialGradient><radialGradient id="f349id5" cx="0" cy="0" r="1" gradientTransform="matrix(9.31253 10.06253 -14.13907 13.08522 6.687 14.29)" gradientUnits="userSpaceOnUse"><stop stop-color="#BF8574"/><stop offset="1" stop-color="#BF8574" stop-opacity="0"/></radialGradient><radialGradient id="f349id6" cx="0" cy="0" r="1" gradientTransform="matrix(-5.53125 0 0 -2.78125 20.704 20.5)" gradientUnits="userSpaceOnUse"><stop stop-color="#E4AB99"/><stop offset="1" stop-color="#E4AB99" stop-opacity="0"/></radialGradient><radialGradient id="f349id7" cx="0" cy="0" r="1" gradientTransform="matrix(.61472 -8.4666 16.95696 1.23117 14.364 29.684)" gradientUnits="userSpaceOnUse"><stop stop-color="#DC9E96"/><stop offset="1" stop-color="#DC9E96" stop-opacity="0"/></radialGradient><radialGradient id="f349id8" cx="0" cy="0" r="1" gradientTransform="matrix(0 6.14698 -4.32661 0 8.614 10.25)" gradientUnits="userSpaceOnUse"><stop offset=".613" stop-color="#B97679" stop-opacity="0"/><stop offset="1" stop-color="#B97679"/></radialGradient><radialGradient id="f349id9" cx="0" cy="0" r="1" gradientTransform="matrix(-1.375 0 0 -3.75 10.874 12.459)" gradientUnits="userSpaceOnUse"><stop offset=".423" stop-color="#B77C58"/><stop offset="1" stop-color="#B77C58" stop-opacity="0"/></radialGradient><radialGradient id="f349ida" cx="0" cy="0" r="1" gradientTransform="matrix(0 6.80191 -4.23235 0 13.174 9.322)" gradientUnits="userSpaceOnUse"><stop offset=".661" stop-color="#B77379" stop-opacity="0"/><stop offset="1" stop-color="#B77379"/></radialGradient><radialGradient id="f349idb" cx="0" cy="0" r="1" gradientTransform="matrix(-1.16274 -.82077 1.14253 -1.61856 15.598 15.637)" gradientUnits="userSpaceOnUse"><stop offset=".174" stop-color="#AC6848"/><stop offset="1" stop-color="#AC6848" stop-opacity="0"/></radialGradient><radialGradient id="f349idc" cx="0" cy="0" r="1" gradientTransform="matrix(-2.36442 6.31216 -14.65791 -5.49058 23.382 14.66)" gradientUnits="userSpaceOnUse"><stop offset=".165" stop-color="#EEBC91"/><stop offset="1" stop-color="#B57079"/></radialGradient><radialGradient id="f349idd" cx="0" cy="0" r="1" gradientTransform="matrix(2.53066 1.77831 -3.77054 5.36574 14.657 14.372)" gradientUnits="userSpaceOnUse"><stop stop-color="#C68D69"/><stop offset="1" stop-color="#C68D69" stop-opacity="0"/></radialGradient><radialGradient id="f349ide" cx="0" cy="0" r="1" gradientTransform="matrix(.90292 -.5788 .91809 1.43221 15.386 17.67)" gradientUnits="userSpaceOnUse"><stop stop-color="#C98E7E"/><stop offset="1" stop-color="#C98E7E" stop-opacity="0"/></radialGradient><radialGradient id="f349idf" cx="0" cy="0" r="1" gradientTransform="matrix(17.92986 -4.46025 4.67365 18.78772 8.247 18.119)" gradientUnits="userSpaceOnUse"><stop offset=".876" stop-color="#F9C9A0" stop-opacity="0"/><stop offset="1" stop-color="#F9C9A0"/></radialGradient><radialGradient id="f349idg" cx="0" cy="0" r="1" gradientTransform="matrix(-16.56248 5.49997 -10.06467 -30.30848 23 17.996)" gradientUnits="userSpaceOnUse"><stop offset=".808" stop-color="#DEA288" stop-opacity="0"/><stop offset="1" stop-color="#DEA288"/></radialGradient><radialGradient id="f349idh" cx="0" cy="0" r="1" gradientTransform="matrix(2.53891 -1.50963 7.16354 12.04777 18.266 9.404)" gradientUnits="userSpaceOnUse"><stop stop-color="#CB8658"/><stop offset="1" stop-color="#CB8658" stop-opacity="0"/></radialGradient><radialGradient id="f349idi" cx="0" cy="0" r="1" gradientTransform="matrix(1.99614 3.81794 -5.7135 2.9872 16.285 1.838)" gradientUnits="userSpaceOnUse"><stop stop-color="#C49777"/><stop offset="1" stop-color="#C49777" stop-opacity="0"/></radialGradient><filter id="f349idj" width="9.747" height="10.915" x="17.084" y="1.169" color-interpolation-filters="sRGB" filterUnits="userSpaceOnUse"><feFlood flood-opacity="0" result="BackgroundImageFix"/><feBlend in="SourceGraphic" in2="BackgroundImageFix" result="shape"/><feGaussianBlur result="effect1_foregroundBlur_20020_2255" stdDeviation="1"/></filter><filter id="f349idk" width="20.855" height="28.601" x="5.823" y="1.084" color-interpolation-filters="sRGB" filterUnits="userSpaceOnUse"><feFlood flood-opacity="0" result="BackgroundImageFix"/><feBlend in="SourceGraphic" in2="BackgroundImageFix" result="shape"/><feColorMatrix in="SourceAlpha" result="hardAlpha" values="0 0 0 0 0 0 0 0 0 0 0 0 0 0 0 0 0 0 127 0"/><feOffset dx=".5" dy="-.75"/><feGaussianBlur stdDeviation=".75"/><feComposite in2="hardAlpha" k2="-1" k3="1" operator="arithmetic"/><feColorMatrix values="0 0 0 0 0.745098 0 0 0 0 0.47451 0 0 0 0 0.545098 0 0 0 1 0"/><feBlend in2="shape" result="effect1_innerShadow_20020_2255"/></filter><filter id="f349idl" width="14.735" height="10.475" x="11.706" y="12.865" color-interpolation-filters="sRGB" filterUnits="userSpaceOnUse"><feFlood flood-opacity="0" result="BackgroundImageFix"/><feBlend in="SourceGraphic" in2="BackgroundImageFix" result="shape"/><feGaussianBlur result="effect1_foregroundBlur_20020_2255" stdDeviation="1"/></filter><filter id="f349idm" width="7.158" height="9.171" x="5.375" y="8.459" color-interpolation-filters="sRGB" filterUnits="userSpaceOnUse"><feFlood flood-opacity="0" result="BackgroundImageFix"/><feBlend in="SourceGraphic" in2="BackgroundImageFix" result="shape"/><feGaussianBlur result="effect1_foregroundBlur_20020_2255" stdDeviation=".5"/></filter><filter id="f349idn" width="9.128" height="11.13" x="7.827" y="8.232" color-interpolation-filters="sRGB" filterUnits="userSpaceOnUse"><feFlood flood-opacity="0" result="BackgroundImageFix"/><feBlend in="SourceGraphic" in2="BackgroundImageFix" result="shape"/><feGaussianBlur result="effect1_foregroundBlur_20020_2255" stdDeviation="1"/></filter><filter id="f349ido" width="11.372" height="22.961" x="15.73" y=".988" color-interpolation-filters="sRGB" filterUnits="userSpaceOnUse"><feFlood flood-opacity="0" result="BackgroundImageFix"/><feBlend in="SourceGraphic" in2="BackgroundImageFix" result="shape"/><feGaussianBlur result="effect1_foregroundBlur_20020_2255" stdDeviation="1"/></filter><filter id="f349idp" width="3.86" height="6.984" x="7.217" y="8.996" color-interpolation-filters="sRGB" filterUnits="userSpaceOnUse"><feFlood flood-opacity="0" result="BackgroundImageFix"/><feBlend in="SourceGraphic" in2="BackgroundImageFix" result="shape"/><feGaussianBlur result="effect1_foregroundBlur_20020_2255" stdDeviation=".625"/></filter><filter id="f349idq" width="5.193" height="8.957" x="11.629" y="7.523" color-interpolation-filters="sRGB" filterUnits="userSpaceOnUse"><feFlood flood-opacity="0" result="BackgroundImageFix"/><feBlend in="SourceGraphic" in2="BackgroundImageFix" result="shape"/><feGaussianBlur result="effect1_foregroundBlur_20020_2255" stdDeviation=".875"/></filter><filter id="f349idr" width="11.553" height="9.797" x="15.735" y="12.76" color-interpolation-filters="sRGB" filterUnits="userSpaceOnUse"><feFlood flood-opacity="0" result="BackgroundImageFix"/><feBlend in="SourceGraphic" in2="BackgroundImageFix" result="shape"/><feGaussianBlur result="effect1_foregroundBlur_20020_2255" stdDeviation="1"/></filter><linearGradient id="f349ids" x1="16.8" x2="25.028" y1="15.813" y2="3.045" gradientUnits="userSpaceOnUse"><stop stop-color="#CF8A5F"/><stop offset="1" stop-color="#F1BE98"/></linearGradient><linearGradient id="f349idt" x1="5.823" x2="8.155" y1="13.115" y2="13.115" gradientUnits="userSpaceOnUse"><stop stop-color="#C99976"/><stop offset="1" stop-color="#C99976" stop-opacity="0"/></linearGradient><linearGradient id="f349idu" x1="5.495" x2="9.238" y1="12.78" y2="12.78" gradientUnits="userSpaceOnUse"><stop stop-color="#DEA587"/><stop offset=".25" stop-color="#DEA587" stop-opacity="0"/></linearGradient><linearGradient id="f349idv" x1="9.944" x2="12.707" y1="12.62" y2="12.62" gradientUnits="userSpaceOnUse"><stop stop-color="#B98361"/><stop offset="1" stop-color="#B98361" stop-opacity="0"/></linearGradient><linearGradient id="f349idw" x1="23.378" x2="23.378" y1="22.989" y2="19.912" gradientUnits="userSpaceOnUse"><stop stop-color="#D69C8E"/><stop offset="1" stop-color="#D69C8E" stop-opacity="0"/></linearGradient><linearGradient id="f349idx" x1="9.497" x2="9.497" y1="14.317" y2="10.246" gradientUnits="userSpaceOnUse"><stop stop-color="#DFAC98"/><stop offset="1" stop-color="#DFAC98" stop-opacity="0"/></linearGradient><linearGradient id="f349idy" x1="17.666" x2="27.234" y1="15.76" y2="20.125" gradientUnits="userSpaceOnUse"><stop stop-color="#FFD0AC"/><stop offset="1" stop-color="#FFD0AC" stop-opacity="0"/></linearGradient></defs></g></svg>