<svg xmlns="http://www.w3.org/2000/svg" xmlns:xlink="http://www.w3.org/1999/xlink" width="32" height="32" viewBox="0 0 32 32"><g fill="none"><path fill="url(#f390ida)" d="M2 16.5c0-1.68 1.38-3.06 3.06-3.06h21.85c1.69 0 3.06 1.38 3.06 3.06c0 1.69-1.38 3.06-3.06 3.06H5.06C3.38 19.57 2 18.19 2 16.5"/><path fill="url(#f390id0)" d="M2 16.5c0-1.68 1.38-3.06 3.06-3.06h21.85c1.69 0 3.06 1.38 3.06 3.06c0 1.69-1.38 3.06-3.06 3.06H5.06C3.38 19.57 2 18.19 2 16.5"/><path fill="url(#f390id1)" d="M2 16.5c0-1.68 1.38-3.06 3.06-3.06h21.85c1.69 0 3.06 1.38 3.06 3.06c0 1.69-1.38 3.06-3.06 3.06H5.06C3.38 19.57 2 18.19 2 16.5"/><path fill="url(#f390id2)" d="M20 26a4 4 0 1 1-8 0a4 4 0 0 1 8 0"/><path fill="url(#f390id3)" d="M20 26a4 4 0 1 1-8 0a4 4 0 0 1 8 0"/><path fill="url(#f390id4)" d="M20 26a4 4 0 1 1-8 0a4 4 0 0 1 8 0"/><path fill="url(#f390id5)" d="M20 26a4 4 0 1 1-8 0a4 4 0 0 1 8 0"/><path fill="url(#f390id6)" d="M16 11a4 4 0 1 0 0-8a4 4 0 0 0 0 8"/><path fill="url(#f390id7)" d="M16 11a4 4 0 1 0 0-8a4 4 0 0 0 0 8"/><path fill="url(#f390id8)" d="M16 11a4 4 0 1 0 0-8a4 4 0 0 0 0 8"/><path fill="url(#f390id9)" d="M16 11a4 4 0 1 0 0-8a4 4 0 0 0 0 8"/><defs><radialGradient id="f390id0" cx="0" cy="0" r="1" gradientTransform="matrix(-.7059 13.73557 -20.97342 -1.07788 16.69 16.5)" gradientUnits="userSpaceOnUse"><stop offset=".609" stop-color="#423473" stop-opacity="0"/><stop offset=".704" stop-color="#41366A"/></radialGradient><radialGradient id="f390id1" cx="0" cy="0" r="1" gradientTransform="rotate(130.356 10.409 14.076)scale(1.62901 1.629)" gradientUnits="userSpaceOnUse"><stop stop-color="#9C92D2"/><stop offset="1" stop-color="#9D93D3" stop-opacity="0"/></radialGradient><radialGradient id="f390id2" cx="0" cy="0" r="1" gradientTransform="rotate(131.634 3.249 16.18)scale(6.0208)" gradientUnits="userSpaceOnUse"><stop stop-color="#B2A7E8"/><stop offset=".336" stop-color="#897ADC"/><stop offset=".92" stop-color="#543EA8"/><stop offset="1" stop-color="#524679"/></radialGradient><radialGradient id="f390id3" cx="0" cy="0" r="1" gradientTransform="matrix(-.5 4 -7.49524 -.9369 16 30)" gradientUnits="userSpaceOnUse"><stop offset=".096" stop-color="#9447FE"/><stop offset=".846" stop-color="#9447FE" stop-opacity="0"/></radialGradient><radialGradient id="f390id4" cx="0" cy="0" r="1" gradientTransform="matrix(-1.5 8.5 -8.5 -1.5 17.5 26)" gradientUnits="userSpaceOnUse"><stop offset=".356" stop-color="#7363BC" stop-opacity="0"/><stop offset=".635" stop-color="#392F64"/></radialGradient><radialGradient id="f390id5" cx="0" cy="0" r="1" gradientTransform="matrix(0 11 -11 0 16 26)" gradientUnits="userSpaceOnUse"><stop offset=".269" stop-opacity="0"/><stop offset="1" stop-color="#453C67"/></radialGradient><radialGradient id="f390id6" cx="0" cy="0" r="1" gradientTransform="rotate(131.634 7.515 6.68)scale(6.0208)" gradientUnits="userSpaceOnUse"><stop stop-color="#B2A7E8"/><stop offset=".336" stop-color="#897ADC"/><stop offset=".92" stop-color="#543EA8"/><stop offset="1" stop-color="#524679"/></radialGradient><radialGradient id="f390id7" cx="0" cy="0" r="1" gradientTransform="matrix(-.5 4 -7.49524 -.9369 16 11)" gradientUnits="userSpaceOnUse"><stop offset=".096" stop-color="#9447FE"/><stop offset=".846" stop-color="#9447FE" stop-opacity="0"/></radialGradient><radialGradient id="f390id8" cx="0" cy="0" r="1" gradientTransform="matrix(-1.5 8.5 -8.5 -1.5 17.5 7)" gradientUnits="userSpaceOnUse"><stop offset=".356" stop-color="#7363BC" stop-opacity="0"/><stop offset=".635" stop-color="#392F64"/></radialGradient><radialGradient id="f390id9" cx="0" cy="0" r="1" gradientTransform="matrix(0 11 -11 0 16 7)" gradientUnits="userSpaceOnUse"><stop offset=".269" stop-opacity="0"/><stop offset="1" stop-color="#453C67"/></radialGradient><linearGradient id="f390ida" x1="15.985" x2="15.985" y1="13.44" y2="19.56" gradientUnits="userSpaceOnUse"><stop stop-color="#655898"/><stop offset=".214" stop-color="#8276BD"/><stop offset=".335" stop-color="#897EC1"/><stop offset=".523" stop-color="#7966C1"/><stop offset=".863" stop-color="#8842EC"/><stop offset="1" stop-color="#6035BE"/></linearGradient></defs></g></svg>