<svg xmlns="http://www.w3.org/2000/svg" xmlns:xlink="http://www.w3.org/1999/xlink" width="32" height="32" viewBox="0 0 32 32"><g fill="none"><path fill="#1F1C1A" fill-rule="evenodd" d="m8.43 7.876l-3.45 3.45l1.925 1.925l.962-.962l1.925 1.924l1.924 1.925l4.471-4.471a.48.48 0 0 0 0-.68l-.223-.224a1.924 1.924 0 0 0-2.722 0l1.02-1.02a.48.48 0 0 0 0-.681l-.223-.224a1.924 1.924 0 0 0-2.721 0l.058-.058a.48.48 0 0 0 0-.68l-.224-.224a1.924 1.924 0 0 0-2.721 0" clip-rule="evenodd"/><path fill="url(#f400id0)" fill-rule="evenodd" d="m8.43 7.876l-3.45 3.45l1.925 1.925l.962-.962l1.925 1.924l1.924 1.925l4.471-4.471a.48.48 0 0 0 0-.68l-.223-.224a1.924 1.924 0 0 0-2.722 0l1.02-1.02a.48.48 0 0 0 0-.681l-.223-.224a1.924 1.924 0 0 0-2.721 0l.058-.058a.48.48 0 0 0 0-.68l-.224-.224a1.924 1.924 0 0 0-2.721 0" clip-rule="evenodd"/><path fill="url(#f400id1)" fill-rule="evenodd" d="m8.43 7.876l-3.45 3.45l1.925 1.925l.962-.962l1.925 1.924l1.924 1.925l4.471-4.471a.48.48 0 0 0 0-.68l-.223-.224a1.924 1.924 0 0 0-2.722 0l1.02-1.02a.48.48 0 0 0 0-.681l-.223-.224a1.924 1.924 0 0 0-2.721 0l.058-.058a.48.48 0 0 0 0-.68l-.224-.224a1.924 1.924 0 0 0-2.721 0" clip-rule="evenodd"/><path fill="url(#f400id2)" fill-rule="evenodd" d="m8.43 7.876l-3.45 3.45l1.925 1.925l.962-.962l1.925 1.924l1.924 1.925l4.471-4.471a.48.48 0 0 0 0-.68l-.223-.224a1.924 1.924 0 0 0-2.722 0l1.02-1.02a.48.48 0 0 0 0-.681l-.223-.224a1.924 1.924 0 0 0-2.721 0l.058-.058a.48.48 0 0 0 0-.68l-.224-.224a1.924 1.924 0 0 0-2.721 0" clip-rule="evenodd"/><path fill="url(#f400id3)" fill-rule="evenodd" d="m8.43 7.876l-3.45 3.45l1.925 1.925l.962-.962l1.925 1.924l1.924 1.925l4.471-4.471a.48.48 0 0 0 0-.68l-.223-.224a1.924 1.924 0 0 0-2.722 0l1.02-1.02a.48.48 0 0 0 0-.681l-.223-.224a1.924 1.924 0 0 0-2.721 0l.058-.058a.48.48 0 0 0 0-.68l-.224-.224a1.924 1.924 0 0 0-2.721 0" clip-rule="evenodd"/><path fill="url(#f400id4)" fill-rule="evenodd" d="m8.43 7.876l-3.45 3.45l1.925 1.925l.962-.962l1.925 1.924l1.924 1.925l4.471-4.471a.48.48 0 0 0 0-.68l-.223-.224a1.924 1.924 0 0 0-2.722 0l1.02-1.02a.48.48 0 0 0 0-.681l-.223-.224a1.924 1.924 0 0 0-2.721 0l.058-.058a.48.48 0 0 0 0-.68l-.224-.224a1.924 1.924 0 0 0-2.721 0" clip-rule="evenodd"/><path fill="url(#f400id5)" fill-rule="evenodd" d="m8.43 7.876l-3.45 3.45l1.925 1.925l.962-.962l1.925 1.924l1.924 1.925l4.471-4.471a.48.48 0 0 0 0-.68l-.223-.224a1.924 1.924 0 0 0-2.722 0l1.02-1.02a.48.48 0 0 0 0-.681l-.223-.224a1.924 1.924 0 0 0-2.721 0l.058-.058a.48.48 0 0 0 0-.68l-.224-.224a1.924 1.924 0 0 0-2.721 0" clip-rule="evenodd"/><path fill="url(#f400id6)" fill-rule="evenodd" d="m8.43 7.876l-3.45 3.45l1.925 1.925l.962-.962l1.925 1.924l1.924 1.925l4.471-4.471a.48.48 0 0 0 0-.68l-.223-.224a1.924 1.924 0 0 0-2.722 0l1.02-1.02a.48.48 0 0 0 0-.681l-.223-.224a1.924 1.924 0 0 0-2.721 0l.058-.058a.48.48 0 0 0 0-.68l-.224-.224a1.924 1.924 0 0 0-2.721 0" clip-rule="evenodd"/><path fill="url(#f400id7)" fill-rule="evenodd" d="m8.43 7.876l-3.45 3.45l1.925 1.925l.962-.962l1.925 1.924l1.924 1.925l4.471-4.471a.48.48 0 0 0 0-.68l-.223-.224a1.924 1.924 0 0 0-2.722 0l1.02-1.02a.48.48 0 0 0 0-.681l-.223-.224a1.924 1.924 0 0 0-2.721 0l.058-.058a.48.48 0 0 0 0-.68l-.224-.224a1.924 1.924 0 0 0-2.721 0" clip-rule="evenodd"/><path fill="url(#f400id8)" fill-rule="evenodd" d="m8.43 7.876l-3.45 3.45l1.925 1.925l.962-.962l1.925 1.924l1.924 1.925l4.471-4.471a.48.48 0 0 0 0-.68l-.223-.224a1.924 1.924 0 0 0-2.722 0l1.02-1.02a.48.48 0 0 0 0-.681l-.223-.224a1.924 1.924 0 0 0-2.721 0l.058-.058a.48.48 0 0 0 0-.68l-.224-.224a1.924 1.924 0 0 0-2.721 0" clip-rule="evenodd"/><path fill="url(#f400id9)" fill-rule="evenodd" d="m8.43 7.876l-3.45 3.45l1.925 1.925l.962-.962l1.925 1.924l1.924 1.925l4.471-4.471a.48.48 0 0 0 0-.68l-.223-.224a1.924 1.924 0 0 0-2.722 0l1.02-1.02a.48.48 0 0 0 0-.681l-.223-.224a1.924 1.924 0 0 0-2.721 0l.058-.058a.48.48 0 0 0 0-.68l-.224-.224a1.924 1.924 0 0 0-2.721 0" clip-rule="evenodd"/><path fill="url(#f400ida)" d="m24.227 19.6l-5.774.962l2.887-3.85h3.483c.236 0 .463.087.64.244l2.812 2.5l.113.74a.48.48 0 0 1-.13.407l-.457.471a.48.48 0 0 1-.412.142l-.741-.103z"/><path fill="url(#f400id1z)" d="m24.227 19.6l-5.774.962l2.887-3.85h3.483c.236 0 .463.087.64.244l2.812 2.5l.113.74a.48.48 0 0 1-.13.407l-.457.471a.48.48 0 0 1-.412.142l-.741-.103z"/><path fill="url(#f400idb)" d="m5.95 26.01l-.006-3.664c0-.255.1-.499.28-.68l4.53-4.564l2.887 1.924l-5.401 4.206a.96.96 0 0 0-.371.762l.004 2.013a.48.48 0 0 1-.48.483H6.43a.48.48 0 0 1-.48-.48"/><path fill="url(#f400idc)" d="m5.95 26.01l-.006-3.664c0-.255.1-.499.28-.68l4.53-4.564l2.887 1.924l-5.401 4.206a.96.96 0 0 0-.371.762l.004 2.013a.48.48 0 0 1-.48.483H6.43a.48.48 0 0 1-.48-.48"/><path fill="url(#f400id20)" d="m5.95 26.01l-.006-3.664c0-.255.1-.499.28-.68l4.53-4.564l2.887 1.924l-5.401 4.206a.96.96 0 0 0-.371.762l.004 2.013a.48.48 0 0 1-.48.483H6.43a.48.48 0 0 1-.48-.48"/><path fill="url(#f400id21)" d="m5.95 26.01l-.006-3.664c0-.255.1-.499.28-.68l4.53-4.564l2.887 1.924l-5.401 4.206a.96.96 0 0 0-.371.762l.004 2.013a.48.48 0 0 1-.48.483H6.43a.48.48 0 0 1-.48-.48"/><path fill="url(#f400idd)" d="m5.95 26.01l-.006-3.664c0-.255.1-.499.28-.68l4.53-4.564l2.887 1.924l-5.401 4.206a.96.96 0 0 0-.371.762l.004 2.013a.48.48 0 0 1-.48.483H6.43a.48.48 0 0 1-.48-.48"/><path fill="url(#f400ide)" d="m5.95 26.01l-.006-3.664c0-.255.1-.499.28-.68l4.53-4.564l2.887 1.924l-5.401 4.206a.96.96 0 0 0-.371.762l.004 2.013a.48.48 0 0 1-.48.483H6.43a.48.48 0 0 1-.48-.48"/><path fill="url(#f400idf)" fill-rule="evenodd" d="m5.949 25.854l.001.962c0 .266.216.48.481.48h.962a.48.48 0 0 0 .481-.481l-.001-.962z" clip-rule="evenodd"/><path fill="url(#f400id22)" fill-rule="evenodd" d="M26.01 4.733a.48.48 0 0 1 0 .68l-3.028 3.028h2.106c.643 0 .965.777.51 1.232l-2.03 2.031a.481.481 0 1 1-.681-.68l1.62-1.621h-2.106a.722.722 0 0 1-.51-1.232l3.438-3.438a.48.48 0 0 1 .68 0" clip-rule="evenodd"/><path fill="url(#f400id23)" fill-rule="evenodd" d="M26.01 4.733a.48.48 0 0 1 0 .68l-3.028 3.028h2.106c.528 0 .84.523.683.962h-3.37a.722.722 0 0 1-.51-1.232l3.438-3.438a.48.48 0 0 1 .68 0" clip-rule="evenodd"/><path fill="url(#f400id24)" fill-rule="evenodd" d="M26.01 4.733a.48.48 0 0 1 0 .68l-3.028 3.028l-.904.888a.724.724 0 0 1-.187-1.158l3.438-3.438a.48.48 0 0 1 .68 0" clip-rule="evenodd"/><path fill="url(#f400idg)" d="m2.163 13.275l2.82.94V12.77l-1.586-.528a.99.99 0 0 0-1.301.938a.1.1 0 0 0 .067.094"/><path fill="#D8C0C1" d="M8.831 15.53v1.596c-.526.358-1.706 1.154-1.706 1.154s-1.072-.721-1.735-1.154l-1.13-3.874l-2.015-1.791a.19.19 0 0 1-.008-.275a1.416 1.416 0 0 1 1.786-.177l.478.319a5.463 5.463 0 0 1 7.945-.234l.234.234l1.61 1.432a2.165 2.165 0 0 0 2.408.319l4.466-2.236a2.643 2.643 0 0 1 3.813 2.624l-.1 1.01a3.9 3.9 0 0 1-1.482 2.688L19.06 20.54a4.81 4.81 0 0 1-6.652-.717z"/><path fill="url(#f400idh)" d="M8.831 15.53v1.596c-.526.358-1.706 1.154-1.706 1.154s-1.072-.721-1.735-1.154l-1.13-3.874l-2.015-1.791a.19.19 0 0 1-.008-.275a1.416 1.416 0 0 1 1.786-.177l.478.319a5.463 5.463 0 0 1 7.945-.234l.234.234l1.61 1.432a2.165 2.165 0 0 0 2.408.319l4.466-2.236a2.643 2.643 0 0 1 3.813 2.624l-.1 1.01a3.9 3.9 0 0 1-1.482 2.688L19.06 20.54a4.81 4.81 0 0 1-6.652-.717z"/><path fill="url(#f400idi)" d="M8.831 15.53v1.596c-.526.358-1.706 1.154-1.706 1.154s-1.072-.721-1.735-1.154l-1.13-3.874l-2.015-1.791a.19.19 0 0 1-.008-.275a1.416 1.416 0 0 1 1.786-.177l.478.319a5.463 5.463 0 0 1 7.945-.234l.234.234l1.61 1.432a2.165 2.165 0 0 0 2.408.319l4.466-2.236a2.643 2.643 0 0 1 3.813 2.624l-.1 1.01a3.9 3.9 0 0 1-1.482 2.688L19.06 20.54a4.81 4.81 0 0 1-6.652-.717z"/><path fill="url(#f400idj)" d="M8.831 15.53v1.596c-.526.358-1.706 1.154-1.706 1.154s-1.072-.721-1.735-1.154l-1.13-3.874l-2.015-1.791a.19.19 0 0 1-.008-.275a1.416 1.416 0 0 1 1.786-.177l.478.319a5.463 5.463 0 0 1 7.945-.234l.234.234l1.61 1.432a2.165 2.165 0 0 0 2.408.319l4.466-2.236a2.643 2.643 0 0 1 3.813 2.624l-.1 1.01a3.9 3.9 0 0 1-1.482 2.688L19.06 20.54a4.81 4.81 0 0 1-6.652-.717z"/><path fill="url(#f400idk)" d="M8.831 15.53v1.596c-.526.358-1.706 1.154-1.706 1.154s-1.072-.721-1.735-1.154l-1.13-3.874l-2.015-1.791a.19.19 0 0 1-.008-.275a1.416 1.416 0 0 1 1.786-.177l.478.319a5.463 5.463 0 0 1 7.945-.234l.234.234l1.61 1.432a2.165 2.165 0 0 0 2.408.319l4.466-2.236a2.643 2.643 0 0 1 3.813 2.624l-.1 1.01a3.9 3.9 0 0 1-1.482 2.688L19.06 20.54a4.81 4.81 0 0 1-6.652-.717z"/><path fill="url(#f400idl)" d="M8.831 15.53v1.596c-.526.358-1.706 1.154-1.706 1.154s-1.072-.721-1.735-1.154l-1.13-3.874l-2.015-1.791a.19.19 0 0 1-.008-.275a1.416 1.416 0 0 1 1.786-.177l.478.319a5.463 5.463 0 0 1 7.945-.234l.234.234l1.61 1.432a2.165 2.165 0 0 0 2.408.319l4.466-2.236a2.643 2.643 0 0 1 3.813 2.624l-.1 1.01a3.9 3.9 0 0 1-1.482 2.688L19.06 20.54a4.81 4.81 0 0 1-6.652-.717z"/><path fill="url(#f400idm)" d="M8.831 15.53v1.596c-.526.358-1.706 1.154-1.706 1.154s-1.072-.721-1.735-1.154l-1.13-3.874l-2.015-1.791a.19.19 0 0 1-.008-.275a1.416 1.416 0 0 1 1.786-.177l.478.319a5.463 5.463 0 0 1 7.945-.234l.234.234l1.61 1.432a2.165 2.165 0 0 0 2.408.319l4.466-2.236a2.643 2.643 0 0 1 3.813 2.624l-.1 1.01a3.9 3.9 0 0 1-1.482 2.688L19.06 20.54a4.81 4.81 0 0 1-6.652-.717z"/><path fill="url(#f400idn)" d="M8.831 15.53v1.596c-.526.358-1.706 1.154-1.706 1.154s-1.072-.721-1.735-1.154l-1.13-3.874l-2.015-1.791a.19.19 0 0 1-.008-.275a1.416 1.416 0 0 1 1.786-.177l.478.319a5.463 5.463 0 0 1 7.945-.234l.234.234l1.61 1.432a2.165 2.165 0 0 0 2.408.319l4.466-2.236a2.643 2.643 0 0 1 3.813 2.624l-.1 1.01a3.9 3.9 0 0 1-1.482 2.688L19.06 20.54a4.81 4.81 0 0 1-6.652-.717z"/><path fill="url(#f400ido)" d="M8.831 15.53v1.596c-.526.358-1.706 1.154-1.706 1.154s-1.072-.721-1.735-1.154l-1.13-3.874l-2.015-1.791a.19.19 0 0 1-.008-.275a1.416 1.416 0 0 1 1.786-.177l.478.319a5.463 5.463 0 0 1 7.945-.234l.234.234l1.61 1.432a2.165 2.165 0 0 0 2.408.319l4.466-2.236a2.643 2.643 0 0 1 3.813 2.624l-.1 1.01a3.9 3.9 0 0 1-1.482 2.688L19.06 20.54a4.81 4.81 0 0 1-6.652-.717z"/><path fill="url(#f400idp)" d="M8.831 15.53v1.596c-.526.358-1.706 1.154-1.706 1.154s-1.072-.721-1.735-1.154l-1.13-3.874l-2.015-1.791a.19.19 0 0 1-.008-.275a1.416 1.416 0 0 1 1.786-.177l.478.319a5.463 5.463 0 0 1 7.945-.234l.234.234l1.61 1.432a2.165 2.165 0 0 0 2.408.319l4.466-2.236a2.643 2.643 0 0 1 3.813 2.624l-.1 1.01a3.9 3.9 0 0 1-1.482 2.688L19.06 20.54a4.81 4.81 0 0 1-6.652-.717z"/><path fill="url(#f400idq)" d="M8.831 15.53v1.596c-.526.358-1.706 1.154-1.706 1.154s-1.072-.721-1.735-1.154l-1.13-3.874l-2.015-1.791a.19.19 0 0 1-.008-.275a1.416 1.416 0 0 1 1.786-.177l.478.319a5.463 5.463 0 0 1 7.945-.234l.234.234l1.61 1.432a2.165 2.165 0 0 0 2.408.319l4.466-2.236a2.643 2.643 0 0 1 3.813 2.624l-.1 1.01a3.9 3.9 0 0 1-1.482 2.688L19.06 20.54a4.81 4.81 0 0 1-6.652-.717z"/><path fill="url(#f400idr)" d="M8.831 15.53v1.596c-.526.358-1.706 1.154-1.706 1.154s-1.072-.721-1.735-1.154l-1.13-3.874l-2.015-1.791a.19.19 0 0 1-.008-.275a1.416 1.416 0 0 1 1.786-.177l.478.319a5.463 5.463 0 0 1 7.945-.234l.234.234l1.61 1.432a2.165 2.165 0 0 0 2.408.319l4.466-2.236a2.643 2.643 0 0 1 3.813 2.624l-.1 1.01a3.9 3.9 0 0 1-1.482 2.688L19.06 20.54a4.81 4.81 0 0 1-6.652-.717z"/><path fill="url(#f400ids)" d="M8.831 15.53v1.596c-.526.358-1.706 1.154-1.706 1.154s-1.072-.721-1.735-1.154l-1.13-3.874l-2.015-1.791a.19.19 0 0 1-.008-.275a1.416 1.416 0 0 1 1.786-.177l.478.319a5.463 5.463 0 0 1 7.945-.234l.234.234l1.61 1.432a2.165 2.165 0 0 0 2.408.319l4.466-2.236a2.643 2.643 0 0 1 3.813 2.624l-.1 1.01a3.9 3.9 0 0 1-1.482 2.688L19.06 20.54a4.81 4.81 0 0 1-6.652-.717z"/><path fill="url(#f400idt)" d="M8.831 15.53v1.596c-.526.358-1.706 1.154-1.706 1.154s-1.072-.721-1.735-1.154l-1.13-3.874l-2.015-1.791a.19.19 0 0 1-.008-.275a1.416 1.416 0 0 1 1.786-.177l.478.319a5.463 5.463 0 0 1 7.945-.234l.234.234l1.61 1.432a2.165 2.165 0 0 0 2.408.319l4.466-2.236a2.643 2.643 0 0 1 3.813 2.624l-.1 1.01a3.9 3.9 0 0 1-1.482 2.688L19.06 20.54a4.81 4.81 0 0 1-6.652-.717z"/><path fill="url(#f400idu)" d="M8.831 15.53v1.596c-.526.358-1.706 1.154-1.706 1.154s-1.072-.721-1.735-1.154l-1.13-3.874l-2.015-1.791a.19.19 0 0 1-.008-.275a1.416 1.416 0 0 1 1.786-.177l.478.319a5.463 5.463 0 0 1 7.945-.234l.234.234l1.61 1.432a2.165 2.165 0 0 0 2.408.319l4.466-2.236a2.643 2.643 0 0 1 3.813 2.624l-.1 1.01a3.9 3.9 0 0 1-1.482 2.688L19.06 20.54a4.81 4.81 0 0 1-6.652-.717z"/><path fill="url(#f400idv)" d="M8.831 15.53v1.596c-.526.358-1.706 1.154-1.706 1.154s-1.072-.721-1.735-1.154l-1.13-3.874l-2.015-1.791a.19.19 0 0 1-.008-.275a1.416 1.416 0 0 1 1.786-.177l.478.319a5.463 5.463 0 0 1 7.945-.234l.234.234l1.61 1.432a2.165 2.165 0 0 0 2.408.319l4.466-2.236a2.643 2.643 0 0 1 3.813 2.624l-.1 1.01a3.9 3.9 0 0 1-1.482 2.688L19.06 20.54a4.81 4.81 0 0 1-6.652-.717z"/><path fill="url(#f400idw)" d="M8.831 15.53v1.596c-.526.358-1.706 1.154-1.706 1.154s-1.072-.721-1.735-1.154l-1.13-3.874l-2.015-1.791a.19.19 0 0 1-.008-.275a1.416 1.416 0 0 1 1.786-.177l.478.319a5.463 5.463 0 0 1 7.945-.234l.234.234l1.61 1.432a2.165 2.165 0 0 0 2.408.319l4.466-2.236a2.643 2.643 0 0 1 3.813 2.624l-.1 1.01a3.9 3.9 0 0 1-1.482 2.688L19.06 20.54a4.81 4.81 0 0 1-6.652-.717z"/><path fill="#A69790" d="M8.832 15.53v1.595c-.527.359-1.707 1.154-1.707 1.154s-1.071-.72-1.734-1.154l-1.13-3.873c-1.575-1.4-2.052-3.453.24-1.925c.57-.641 1.272-1.085 1.82-1.35c4.075 0 2.96 3.523 2.51 5.553"/><path fill="url(#f400idx)" d="M8.832 15.53v1.595c-.527.359-1.707 1.154-1.707 1.154s-1.071-.72-1.734-1.154l-1.13-3.873c-1.575-1.4-2.052-3.453.24-1.925c.57-.641 1.272-1.085 1.82-1.35c4.075 0 2.96 3.523 2.51 5.553"/><path fill="url(#f400idy)" d="M8.832 15.53v1.595c-.527.359-1.707 1.154-1.707 1.154s-1.071-.72-1.734-1.154l-1.13-3.873c-1.575-1.4-2.052-3.453.24-1.925c.57-.641 1.272-1.085 1.82-1.35c4.075 0 2.96 3.523 2.51 5.553"/><path fill="url(#f400idz)" d="M8.832 15.53v1.595c-.527.359-1.707 1.154-1.707 1.154s-1.071-.72-1.734-1.154l-1.13-3.873c-1.575-1.4-2.052-3.453.24-1.925c.57-.641 1.272-1.085 1.82-1.35c4.075 0 2.96 3.523 2.51 5.553"/><path fill="url(#f400id10)" d="M8.832 15.53v1.595c-.527.359-1.707 1.154-1.707 1.154s-1.071-.72-1.734-1.154l-1.13-3.873c-1.575-1.4-2.052-3.453.24-1.925c.57-.641 1.272-1.085 1.82-1.35c4.075 0 2.96 3.523 2.51 5.553"/><path fill="url(#f400id11)" d="M8.832 15.53v1.595c-.527.359-1.707 1.154-1.707 1.154s-1.071-.72-1.734-1.154l-1.13-3.873c-1.575-1.4-2.052-3.453.24-1.925c.57-.641 1.272-1.085 1.82-1.35c4.075 0 2.96 3.523 2.51 5.553"/><path fill="url(#f400id12)" d="M8.832 15.53v1.595c-.527.359-1.707 1.154-1.707 1.154s-1.071-.72-1.734-1.154l-1.13-3.873c-1.575-1.4-2.052-3.453.24-1.925c.57-.641 1.272-1.085 1.82-1.35c4.075 0 2.96 3.523 2.51 5.553"/><path fill="url(#f400id13)" d="M8.832 15.53v1.595c-.527.359-1.707 1.154-1.707 1.154s-1.071-.72-1.734-1.154l-1.13-3.873c-1.575-1.4-2.052-3.453.24-1.925c.57-.641 1.272-1.085 1.82-1.35c4.075 0 2.96 3.523 2.51 5.553"/><path fill="url(#f400id14)" d="M8.832 15.53v1.595c-.527.359-1.707 1.154-1.707 1.154s-1.071-.72-1.734-1.154l-1.13-3.873c-1.575-1.4-2.052-3.453.24-1.925c.57-.641 1.272-1.085 1.82-1.35c4.075 0 2.96 3.523 2.51 5.553"/><path fill="url(#f400id15)" d="m4.26 13.252l-2.015-1.791a.19.19 0 0 1-.008-.275a1.416 1.416 0 0 1 1.786-.177l.774.452c.234.148.43.57.273 1.062c-.146.46-.43.649-.81.73"/><path fill="url(#f400id16)" d="m4.26 13.252l-2.015-1.791a.19.19 0 0 1-.008-.275a1.416 1.416 0 0 1 1.786-.177l.774.452c.234.148.43.57.273 1.062c-.146.46-.43.649-.81.73"/><path fill="url(#f400id17)" d="m4.26 13.252l-2.015-1.791a.19.19 0 0 1-.008-.275a1.416 1.416 0 0 1 1.786-.177l.774.452c.234.148.43.57.273 1.062c-.146.46-.43.649-.81.73"/><path fill="url(#f400id18)" d="m8.836 25.856l-.005-3.51c0-.255.1-.499.279-.68l2.621-2.64s1.3-.282 1.988.474s.274 1.5.274 1.5l-2.866 2.232a.96.96 0 0 0-.371.762l.004 1.86a.48.48 0 0 1-.481.482h-.962a.48.48 0 0 1-.481-.48"/><path fill="url(#f400id19)" d="m8.836 25.856l-.005-3.51c0-.255.1-.499.279-.68l2.621-2.64s1.3-.282 1.988.474s.274 1.5.274 1.5l-2.866 2.232a.96.96 0 0 0-.371.762l.004 1.86a.48.48 0 0 1-.481.482h-.962a.48.48 0 0 1-.481-.48"/><path fill="url(#f400id1a)" d="m8.836 25.856l-.005-3.51c0-.255.1-.499.279-.68l2.621-2.64s1.3-.282 1.988.474s.274 1.5.274 1.5l-2.866 2.232a.96.96 0 0 0-.371.762l.004 1.86a.48.48 0 0 1-.481.482h-.962a.48.48 0 0 1-.481-.48"/><path fill="url(#f400id1b)" d="m8.836 25.856l-.005-3.51c0-.255.1-.499.279-.68l2.621-2.64s1.3-.282 1.988.474s.274 1.5.274 1.5l-2.866 2.232a.96.96 0 0 0-.371.762l.004 1.86a.48.48 0 0 1-.481.482h-.962a.48.48 0 0 1-.481-.48"/><path fill="url(#f400id1c)" d="m8.836 25.856l-.005-3.51c0-.255.1-.499.279-.68l2.621-2.64s1.3-.282 1.988.474s.274 1.5.274 1.5l-2.866 2.232a.96.96 0 0 0-.371.762l.004 1.86a.48.48 0 0 1-.481.482h-.962a.48.48 0 0 1-.481-.48"/><path fill="url(#f400id1d)" d="m8.836 25.856l-.005-3.51c0-.255.1-.499.279-.68l2.621-2.64s1.3-.282 1.988.474s.274 1.5.274 1.5l-2.866 2.232a.96.96 0 0 0-.371.762l.004 1.86a.48.48 0 0 1-.481.482h-.962a.48.48 0 0 1-.481-.48"/><path fill="url(#f400id1e)" fill-rule="evenodd" d="m8.834 25.854l.001.962c0 .266.216.48.481.48h.962a.48.48 0 0 0 .481-.481l-.002-.962z" clip-rule="evenodd"/><path fill="#202020" fill-rule="evenodd" d="M26.152 5.553c.531 0 .962-.43.962-.962V3.87a.24.24 0 0 0-.24-.24h-.722a.962.962 0 0 0 0 1.924" clip-rule="evenodd"/><path fill="url(#f400id1f)" fill-rule="evenodd" d="M26.152 5.553c.531 0 .962-.43.962-.962V3.87a.24.24 0 0 0-.24-.24h-.722a.962.962 0 0 0 0 1.924" clip-rule="evenodd"/><path fill="url(#f400id1g)" fill-rule="evenodd" d="M26.152 5.553c.531 0 .962-.43.962-.962V3.87a.24.24 0 0 0-.24-.24h-.722a.962.962 0 0 0 0 1.924" clip-rule="evenodd"/><path fill="url(#f400id1h)" d="M7.174 19.024a1.65 1.65 0 0 1-1.576-1.188l-.215-.736H8.83v.276a1.65 1.65 0 0 1-1.642 1.648z"/><path fill="#836A81" fill-rule="evenodd" d="m28.244 19.43l.892.793a.48.48 0 0 1 .02.7l-.811.811a.48.48 0 0 1-.595.068l-1.156-.722z" clip-rule="evenodd"/><path fill="url(#f400id1i)" fill-rule="evenodd" d="m28.244 19.43l.892.793a.48.48 0 0 1 .02.7l-.811.811a.48.48 0 0 1-.595.068l-1.156-.722z" clip-rule="evenodd"/><path fill="url(#f400id25)" fill-rule="evenodd" d="m28.244 19.43l.892.793a.48.48 0 0 1 .02.7l-.811.811a.48.48 0 0 1-.595.068l-1.156-.722z" clip-rule="evenodd"/><path fill="url(#f400id1j)" d="M6.5 13.95a.5.5 0 1 0 0-1a.5.5 0 0 0 0 1"/><path fill="url(#f400id1k)" d="M23.094 17.559h-.14a2.63 2.63 0 0 1-1.91-.824c-.94-.996-.94-2.563-.024-3.58a2.7 2.7 0 0 1 1.987-.889h.258l.696-1.392a.96.96 0 0 1 .86-.532h4.698a.48.48 0 0 1 .481.48v.963a.48.48 0 0 1-.48.481h-1.397a.96.96 0 0 0-.812.446l-2.476 3.89a2.07 2.07 0 0 1-1.741.956"/><path fill="url(#f400id26)" d="M23.094 17.559h-.14a2.63 2.63 0 0 1-1.91-.824c-.94-.996-.94-2.563-.024-3.58a2.7 2.7 0 0 1 1.987-.889h.258l.696-1.392a.96.96 0 0 1 .86-.532h4.698a.48.48 0 0 1 .481.48v.963a.48.48 0 0 1-.48.481h-1.397a.96.96 0 0 0-.812.446l-2.476 3.89a2.07 2.07 0 0 1-1.741.956"/><path fill="url(#f400id1l)" d="M23.094 17.559h-.14a2.63 2.63 0 0 1-1.91-.824c-.94-.996-.94-2.563-.024-3.58a2.7 2.7 0 0 1 1.987-.889h.258l.696-1.392a.96.96 0 0 1 .86-.532h4.698a.48.48 0 0 1 .481.48v.963a.48.48 0 0 1-.48.481h-1.397a.96.96 0 0 0-.812.446l-2.476 3.89a2.07 2.07 0 0 1-1.741.956"/><path fill="url(#f400id1m)" d="M23.094 17.559h-.14a2.63 2.63 0 0 1-1.91-.824c-.94-.996-.94-2.563-.024-3.58a2.7 2.7 0 0 1 1.987-.889h.258l.696-1.392a.96.96 0 0 1 .86-.532h4.698a.48.48 0 0 1 .481.48v.963a.48.48 0 0 1-.48.481h-1.397a.96.96 0 0 0-.812.446l-2.476 3.89a2.07 2.07 0 0 1-1.741.956"/><path fill="url(#f400id1n)" d="M23.094 17.559h-.14a2.63 2.63 0 0 1-1.91-.824c-.94-.996-.94-2.563-.024-3.58a2.7 2.7 0 0 1 1.987-.889h.258l.696-1.392a.96.96 0 0 1 .86-.532h4.698a.48.48 0 0 1 .481.48v.963a.48.48 0 0 1-.48.481h-1.397a.96.96 0 0 0-.812.446l-2.476 3.89a2.07 2.07 0 0 1-1.741.956"/><path fill="url(#f400id1o)" d="M23.094 17.559h-.14a2.63 2.63 0 0 1-1.91-.824c-.94-.996-.94-2.563-.024-3.58a2.7 2.7 0 0 1 1.987-.889h.258l.696-1.392a.96.96 0 0 1 .86-.532h4.698a.48.48 0 0 1 .481.48v.963a.48.48 0 0 1-.48.481h-1.397a.96.96 0 0 0-.812.446l-2.476 3.89a2.07 2.07 0 0 1-1.741.956"/><path fill="url(#f400id1p)" d="M23.094 17.559h-.14a2.63 2.63 0 0 1-1.91-.824c-.94-.996-.94-2.563-.024-3.58a2.7 2.7 0 0 1 1.987-.889h.258l.696-1.392a.96.96 0 0 1 .86-.532h4.698a.48.48 0 0 1 .481.48v.963a.48.48 0 0 1-.48.481h-1.397a.96.96 0 0 0-.812.446l-2.476 3.89a2.07 2.07 0 0 1-1.741.956"/><path fill="url(#f400id1q)" d="M23.094 17.559h-.14a2.63 2.63 0 0 1-1.91-.824c-.94-.996-.94-2.563-.024-3.58a2.7 2.7 0 0 1 1.987-.889h.258l.696-1.392a.96.96 0 0 1 .86-.532h4.698a.48.48 0 0 1 .481.48v.963a.48.48 0 0 1-.48.481h-1.397a.96.96 0 0 0-.812.446l-2.476 3.89a2.07 2.07 0 0 1-1.741.956"/><path fill="url(#f400id1r)" d="M23.094 17.559h-.14a2.63 2.63 0 0 1-1.91-.824c-.94-.996-.94-2.563-.024-3.58a2.7 2.7 0 0 1 1.987-.889h.258l.696-1.392a.96.96 0 0 1 .86-.532h4.698a.48.48 0 0 1 .481.48v.963a.48.48 0 0 1-.48.481h-1.397a.96.96 0 0 0-.812.446l-2.476 3.89a2.07 2.07 0 0 1-1.741.956"/><path fill="url(#f400id27)" d="M23.094 17.559h-.14a2.63 2.63 0 0 1-1.91-.824c-.94-.996-.94-2.563-.024-3.58a2.7 2.7 0 0 1 1.987-.889h.258l.696-1.392a.96.96 0 0 1 .86-.532h4.698a.48.48 0 0 1 .481.48v.963a.48.48 0 0 1-.48.481h-1.397a.96.96 0 0 0-.812.446l-2.476 3.89a2.07 2.07 0 0 1-1.741.956"/><path fill="url(#f400id1s)" d="M23.094 17.559h-.14a2.63 2.63 0 0 1-1.91-.824c-.94-.996-.94-2.563-.024-3.58a2.7 2.7 0 0 1 1.987-.889h.258l.696-1.392a.96.96 0 0 1 .86-.532h4.698a.48.48 0 0 1 .481.48v.963a.48.48 0 0 1-.48.481h-1.397a.96.96 0 0 0-.812.446l-2.476 3.89a2.07 2.07 0 0 1-1.741.956"/><path fill="url(#f400id1t)" fill-rule="evenodd" d="M28.557 12.266v-1.924h.962a.48.48 0 0 1 .48.48v.963a.48.48 0 0 1-.48.481z" clip-rule="evenodd"/><path fill="url(#f400id1u)" fill-rule="evenodd" d="M28.557 12.266v-1.924h.962a.48.48 0 0 1 .48.48v.963a.48.48 0 0 1-.48.481z" clip-rule="evenodd"/><path fill="url(#f400id1v)" d="M23.078 8.68a.71.71 0 0 1-.7.72a.71.71 0 0 1-.7-.72c0-.254.128-.477.322-.605a.7.7 0 0 1 .378-.114c.387 0 .7.322.7.72"/><path fill="url(#f400id28)" d="M23.078 8.68a.71.71 0 0 1-.7.72a.71.71 0 0 1-.7-.72c0-.254.128-.477.322-.605a.7.7 0 0 1 .378-.114c.387 0 .7.322.7.72"/><path fill="url(#f400id29)" d="M23.078 8.68a.71.71 0 0 1-.7.72a.71.71 0 0 1-.7-.72c0-.254.128-.477.322-.605a.7.7 0 0 1 .378-.114c.387 0 .7.322.7.72"/><path fill="url(#f400id2a)" d="M23.078 8.68a.71.71 0 0 1-.7.72a.71.71 0 0 1-.7-.72c0-.254.128-.477.322-.605a.7.7 0 0 1 .378-.114c.387 0 .7.322.7.72"/><path fill="url(#f400id2b)" d="M23.078 8.68a.71.71 0 0 1-.7.72a.71.71 0 0 1-.7-.72c0-.254.128-.477.322-.605a.7.7 0 0 1 .378-.114c.387 0 .7.322.7.72"/><path fill="url(#f400id1w)" d="M23.078 8.68a.71.71 0 0 1-.7.72a.71.71 0 0 1-.7-.72c0-.254.128-.477.322-.605a.7.7 0 0 1 .378-.114c.387 0 .7.322.7.72"/><path fill="url(#f400id1x)" d="M23.078 8.68a.71.71 0 0 1-.7.72a.71.71 0 0 1-.7-.72c0-.254.128-.477.322-.605a.7.7 0 0 1 .378-.114c.387 0 .7.322.7.72"/><path fill="url(#f400id1y)" d="M23.078 8.68a.71.71 0 0 1-.7.72a.71.71 0 0 1-.7-.72c0-.254.128-.477.322-.605a.7.7 0 0 1 .378-.114c.387 0 .7.322.7.72"/><defs><radialGradient id="f400id0" cx="0" cy="0" r="1" gradientTransform="matrix(-.8125 .98438 -.51448 -.42464 10.563 8.75)" gradientUnits="userSpaceOnUse"><stop offset=".669" stop-color="#515151"/><stop offset="1" stop-color="#515151" stop-opacity="0"/></radialGradient><radialGradient id="f400id1" cx="0" cy="0" r="1" gradientTransform="matrix(-1 .78126 -.58985 -.755 13.328 9.906)" gradientUnits="userSpaceOnUse"><stop offset=".751" stop-color="#6E6E6E"/><stop offset="1" stop-color="#515151" stop-opacity="0"/></radialGradient><radialGradient id="f400id2" cx="0" cy="0" r="1" gradientTransform="matrix(-2.71878 2.47459 -1.49367 -1.64106 9.094 9.25)" gradientUnits="userSpaceOnUse"><stop offset=".596" stop-color="#464548"/><stop offset=".667" stop-color="#3F3B42" stop-opacity="0"/></radialGradient><radialGradient id="f400id3" cx="0" cy="0" r="1" gradientTransform="matrix(-3.21874 1.78712 -1.14506 -2.06235 12.313 9.938)" gradientUnits="userSpaceOnUse"><stop offset=".434" stop-color="#464548"/><stop offset=".623" stop-color="#3F3B42" stop-opacity="0"/></radialGradient><radialGradient id="f400id4" cx="0" cy="0" r="1" gradientTransform="rotate(153.873 5.632 7.556)scale(3.65468 1.98726)" gradientUnits="userSpaceOnUse"><stop offset=".536" stop-color="#464548"/><stop offset=".623" stop-color="#3F3B42" stop-opacity="0"/></radialGradient><radialGradient id="f400id5" cx="0" cy="0" r="1" gradientTransform="matrix(6.90625 6.4375 -8.27741 8.88013 11.25 12.375)" gradientUnits="userSpaceOnUse"><stop offset=".391" stop-color="#1E1E1E" stop-opacity="0"/><stop offset=".54" stop-color="#1E1E1E"/></radialGradient><radialGradient id="f400id6" cx="0" cy="0" r="1" gradientTransform="matrix(3.8125 2.61914 -1.59052 2.3152 11.094 11.725)" gradientUnits="userSpaceOnUse"><stop offset=".705" stop-color="#3C383D"/><stop offset="1" stop-color="#3C383D" stop-opacity="0"/></radialGradient><radialGradient id="f400id7" cx="0" cy="0" r="1" gradientTransform="matrix(-2.09375 1.34375 -.49615 -.77308 16.172 11.219)" gradientUnits="userSpaceOnUse"><stop offset=".294" stop-color="#575757"/><stop offset="1" stop-color="#49474A" stop-opacity="0"/></radialGradient><radialGradient id="f400id8" cx="0" cy="0" r="1" gradientTransform="matrix(-1.99999 1.54688 -.5695 -.73633 15.876 12.593)" gradientUnits="userSpaceOnUse"><stop offset=".438" stop-color="#1D1A18"/><stop offset="1" stop-color="#1D1A18" stop-opacity="0"/></radialGradient><radialGradient id="f400id9" cx="0" cy="0" r="1" gradientTransform="matrix(-1.8125 1.35938 -.30474 -.40632 14.672 9.625)" gradientUnits="userSpaceOnUse"><stop offset=".151"/><stop offset="1" stop-opacity="0"/></radialGradient><radialGradient id="f400ida" cx="0" cy="0" r="1" gradientTransform="matrix(-.53125 4.21875 -11.28984 -1.4217 23.281 20.344)" gradientUnits="userSpaceOnUse"><stop offset=".208" stop-color="#B291A9"/><stop offset=".632" stop-color="#B09D9D"/><stop offset=".905" stop-color="#988C82"/></radialGradient><radialGradient id="f400idb" cx="0" cy="0" r="1" gradientTransform="matrix(-7.75003 6.7813 -3.90949 -4.46797 11.188 22.844)" gradientUnits="userSpaceOnUse"><stop offset=".345" stop-color="#8F7982"/><stop offset=".518" stop-color="#A38D96"/><stop offset=".766" stop-color="#746964"/></radialGradient><radialGradient id="f400idc" cx="0" cy="0" r="1" gradientTransform="rotate(133.135 1.678 11.715)scale(4.75339 5.10812)" gradientUnits="userSpaceOnUse"><stop offset=".317" stop-color="#8C7B7C"/><stop offset="1" stop-color="#8C7B7C" stop-opacity="0"/></radialGradient><radialGradient id="f400idd" cx="0" cy="0" r="1" gradientTransform="rotate(135.458 -.352 13.266)scale(1.38111 .65447)" gradientUnits="userSpaceOnUse"><stop offset=".518" stop-color="#A3869E"/><stop offset="1" stop-color="#A3869E" stop-opacity="0"/></radialGradient><radialGradient id="f400ide" cx="0" cy="0" r="1" gradientTransform="rotate(132.101 .801 12.684)scale(3.49581 1.27227)" gradientUnits="userSpaceOnUse"><stop stop-color="#786569"/><stop offset="1" stop-color="#786569" stop-opacity="0"/></radialGradient><radialGradient id="f400idf" cx="0" cy="0" r="1" gradientTransform="matrix(0 -2.40625 1.16939 0 7.031 27.672)" gradientUnits="userSpaceOnUse"><stop offset=".159" stop-color="#876F84"/><stop offset=".708" stop-color="#6C5D65"/><stop offset="1" stop-color="#5C5054"/></radialGradient><radialGradient id="f400idg" cx="0" cy="0" r="1" gradientTransform="matrix(-.21875 1.34375 -2.01563 -.32812 3.281 13.531)" gradientUnits="userSpaceOnUse"><stop offset=".394" stop-color="#9C8391"/><stop offset="1" stop-color="#6F665F"/></radialGradient><radialGradient id="f400idh" cx="0" cy="0" r="1" gradientTransform="matrix(0 10.4687 -14.2813 0 15.652 11.348)" gradientUnits="userSpaceOnUse"><stop stop-color="#968A7F"/><stop offset=".307" stop-color="#CAB8B0"/><stop offset=".549" stop-color="#DCC1C7"/><stop offset="1" stop-color="#DBB0D0"/></radialGradient><radialGradient id="f400idi" cx="0" cy="0" r="1" gradientTransform="matrix(3.4375 7.125 -3.49223 1.68485 9.406 16.781)" gradientUnits="userSpaceOnUse"><stop offset=".282" stop-color="#BC9CAA"/><stop offset="1" stop-color="#CDAEBA" stop-opacity="0"/></radialGradient><radialGradient id="f400idj" cx="0" cy="0" r="1" gradientTransform="matrix(4.875 7.5625 -4.6134 2.97393 18.844 10.188)" gradientUnits="userSpaceOnUse"><stop offset=".193" stop-color="#AC9C94"/><stop offset=".672" stop-color="#C1AEA8" stop-opacity="0"/></radialGradient><radialGradient id="f400idk" cx="0" cy="0" r="1" gradientTransform="rotate(64.29 1.316 20.087)scale(2.80937 6.44154)" gradientUnits="userSpaceOnUse"><stop offset=".584" stop-color="#8C8177"/><stop offset=".824" stop-color="#9F9188" stop-opacity="0"/></radialGradient><radialGradient id="f400idl" cx="0" cy="0" r="1" gradientTransform="rotate(65.12 -.483 18.961)scale(2.37685 3.48475)" gradientUnits="userSpaceOnUse"><stop offset=".598" stop-color="#8C8177"/><stop offset=".904" stop-color="#AD9F95" stop-opacity="0"/></radialGradient><radialGradient id="f400idm" cx="0" cy="0" r="1" gradientTransform="rotate(120.493 3.298 8.954)scale(3.26394 4.31592)" gradientUnits="userSpaceOnUse"><stop offset=".652" stop-color="#CFBEB4"/><stop offset="1" stop-color="#CFBEB4" stop-opacity="0"/></radialGradient><radialGradient id="f400idn" cx="0" cy="0" r="1" gradientTransform="matrix(13.25003 14.46879 -16.70167 15.29483 17.531 16.813)" gradientUnits="userSpaceOnUse"><stop offset=".352" stop-color="#D0BCB8" stop-opacity="0"/><stop offset=".51" stop-color="#C5B2AC"/></radialGradient><radialGradient id="f400ido" cx="0" cy="0" r="1" gradientTransform="matrix(.0625 2.88183 -1.18078 .0256 9.188 15.524)" gradientUnits="userSpaceOnUse"><stop stop-color="#BA98A7"/><stop offset="1" stop-color="#BA98A7" stop-opacity="0"/></radialGradient><radialGradient id="f400idp" cx="0" cy="0" r="1" gradientTransform="matrix(-5.96876 2.49997 -1.18101 -2.8197 3.969 9.781)" gradientUnits="userSpaceOnUse"><stop offset=".461" stop-color="#A0928B"/><stop offset=".861" stop-color="#B4A39D" stop-opacity="0"/></radialGradient><radialGradient id="f400idq" cx="0" cy="0" r="1" gradientTransform="rotate(122.233 1.039 13.596)scale(1.87489 2.80703)" gradientUnits="userSpaceOnUse"><stop offset=".333" stop-color="#D8B2C8"/><stop offset="1" stop-color="#D8B2C8" stop-opacity="0"/></radialGradient><radialGradient id="f400idr" cx="0" cy="0" r="1" gradientTransform="matrix(1.53125 1.8125 -.81869 .69165 11.5 18.969)" gradientUnits="userSpaceOnUse"><stop stop-color="#8D7B79"/><stop offset="1" stop-color="#AE949C" stop-opacity="0"/></radialGradient><radialGradient id="f400ids" cx="0" cy="0" r="1" gradientTransform="rotate(149.323 8.785 11.767)scale(2.14376 1.38757)" gradientUnits="userSpaceOnUse"><stop offset=".252" stop-color="#CCA7BF"/><stop offset="1" stop-color="#CCA7BF" stop-opacity="0"/></radialGradient><radialGradient id="f400idt" cx="0" cy="0" r="1" gradientTransform="rotate(130.101 9.08 11.124)scale(1.55247 2.19637)" gradientUnits="userSpaceOnUse"><stop stop-color="#CDBDB1"/><stop offset="1" stop-color="#C3B2A8" stop-opacity="0"/></radialGradient><radialGradient id="f400idu" cx="0" cy="0" r="1" gradientTransform="rotate(99.09 2.632 12.958)scale(1.58237 2.28653)" gradientUnits="userSpaceOnUse"><stop offset=".524" stop-color="#8C8177"/><stop offset=".782" stop-color="#9E9187" stop-opacity="0"/></radialGradient><radialGradient id="f400idv" cx="0" cy="0" r="1" gradientTransform="matrix(-1.49998 1.68751 -1.3406 -1.19163 22.156 14.125)" gradientUnits="userSpaceOnUse"><stop offset=".786" stop-color="#9F908C"/><stop offset="1" stop-color="#9F908C" stop-opacity="0"/></radialGradient><radialGradient id="f400idw" cx="0" cy="0" r="1" gradientTransform="matrix(-1.40624 1.43751 -.6563 -.64202 23.688 12.031)" gradientUnits="userSpaceOnUse"><stop offset=".41" stop-color="#93857E"/><stop offset="1" stop-color="#93857E" stop-opacity="0"/></radialGradient><radialGradient id="f400idx" cx="0" cy="0" r="1" gradientTransform="rotate(86.906 -4.893 12.178)scale(12.7373 6.85855)" gradientUnits="userSpaceOnUse"><stop offset=".079" stop-color="#E3C4CE"/><stop offset=".197" stop-color="#D2B4BF"/><stop offset=".505" stop-color="#B7A2A2"/><stop offset=".755" stop-color="#B7A2A2" stop-opacity="0"/></radialGradient><radialGradient id="f400idy" cx="0" cy="0" r="1" gradientTransform="matrix(-2.46867 9.43752 -5.73795 -1.50094 5.75 16.969)" gradientUnits="userSpaceOnUse"><stop offset=".476" stop-color="#CCB6B4" stop-opacity="0"/><stop offset=".704" stop-color="#C6B3AD"/></radialGradient><radialGradient id="f400idz" cx="0" cy="0" r="1" gradientTransform="matrix(4.15627 31.0312 -11.48207 1.53789 8.406 13.656)" gradientUnits="userSpaceOnUse"><stop offset=".182" stop-color="#CFB1BC" stop-opacity="0"/><stop offset=".266" stop-color="#B99FA7"/><stop offset=".333" stop-color="#917E81"/></radialGradient><radialGradient id="f400id10" cx="0" cy="0" r="1" gradientTransform="matrix(.40623 3.03125 -1.11529 .14947 9.688 15.687)" gradientUnits="userSpaceOnUse"><stop offset=".365" stop-color="#BE9DAA"/><stop offset="1" stop-color="#BE9DAA" stop-opacity="0"/></radialGradient><radialGradient id="f400id11" cx="0" cy="0" r="1" gradientTransform="matrix(-.3125 2.375 -1.8757 -.2468 4.438 12.219)" gradientUnits="userSpaceOnUse"><stop stop-color="#B29E9D"/><stop offset="1" stop-color="#B29E9D" stop-opacity="0"/></radialGradient><radialGradient id="f400id12" cx="0" cy="0" r="1" gradientTransform="matrix(-.10938 .84375 -.64906 -.08414 4.406 13.047)" gradientUnits="userSpaceOnUse"><stop stop-color="#B49EA0"/><stop offset="1" stop-color="#B49EA0" stop-opacity="0"/></radialGradient><radialGradient id="f400id13" cx="0" cy="0" r="1" gradientTransform="matrix(-17.31234 14.71886 -9.02508 -10.61531 7.438 13.813)" gradientUnits="userSpaceOnUse"><stop offset=".186" stop-color="#AB9C95" stop-opacity="0"/><stop offset=".333" stop-color="#82776F"/></radialGradient><radialGradient id="f400id14" cx="0" cy="0" r="1" gradientTransform="rotate(90 -3.64 9.984)scale(.6875)" gradientUnits="userSpaceOnUse"><stop offset=".182" stop-color="#A89098"/><stop offset="1" stop-color="#A89098" stop-opacity="0"/></radialGradient><radialGradient id="f400id15" cx="0" cy="0" r="1" gradientTransform="matrix(4.13435 1.93949 -.7171 1.5286 4.106 11.313)" gradientUnits="userSpaceOnUse"><stop offset=".173" stop-color="#D5C0BB"/><stop offset="1" stop-color="#C09FB2"/></radialGradient><radialGradient id="f400id16" cx="0" cy="0" r="1" gradientTransform="rotate(102.059 -3.415 7.034)scale(7.03014 7.95678)" gradientUnits="userSpaceOnUse"><stop offset=".233" stop-color="#B59FA2" stop-opacity="0"/><stop offset=".274" stop-color="#B39D9F"/></radialGradient><radialGradient id="f400id17" cx="0" cy="0" r="1" gradientTransform="rotate(68.11 -8.206 9.484)scale(4.95067 5.55539)" gradientUnits="userSpaceOnUse"><stop offset=".452" stop-color="#C8B7AE" stop-opacity="0"/><stop offset=".6" stop-color="#90837D"/></radialGradient><radialGradient id="f400id18" cx="0" cy="0" r="1" gradientTransform="matrix(0 21.875 -15.5175 0 12.678 24.566)" gradientUnits="userSpaceOnUse"><stop offset=".166" stop-color="#EED1D6"/><stop offset=".229" stop-color="#C6AAB3"/><stop offset=".26" stop-color="#AC949A"/></radialGradient><radialGradient id="f400id19" cx="0" cy="0" r="1" gradientTransform="matrix(-3.71873 3.40627 -3.1167 -3.4026 13.813 19.531)" gradientUnits="userSpaceOnUse"><stop offset=".545" stop-color="#E7C5D4"/><stop offset="1" stop-color="#DBBFC6" stop-opacity="0"/></radialGradient><radialGradient id="f400id1a" cx="0" cy="0" r="1" gradientTransform="matrix(-3.4375 4 -2.57576 -2.21355 9.938 18.281)" gradientUnits="userSpaceOnUse"><stop offset=".338" stop-color="#A3928D"/><stop offset="1" stop-color="#A3928D" stop-opacity="0"/></radialGradient><radialGradient id="f400id1b" cx="0" cy="0" r="1" gradientTransform="rotate(146.31 3.31 13.181)scale(3.8309 1.71522)" gradientUnits="userSpaceOnUse"><stop offset=".229" stop-color="#D9B4CD"/><stop offset="1" stop-color="#D9B4CD" stop-opacity="0"/></radialGradient><radialGradient id="f400id1c" cx="0" cy="0" r="1" gradientTransform="rotate(133.608 .052 13.69)scale(11.8254 6.8394)" gradientUnits="userSpaceOnUse"><stop offset=".377" stop-color="#D8B5C8" stop-opacity="0"/><stop offset=".43" stop-color="#D8B5C8"/></radialGradient><radialGradient id="f400id1d" cx="0" cy="0" r="1" gradientTransform="matrix(2.45313 .50586 -.1348 .65374 10.422 18.469)" gradientUnits="userSpaceOnUse"><stop offset=".384" stop-color="#8D7B79"/><stop offset="1" stop-color="#AE949C" stop-opacity="0"/></radialGradient><radialGradient id="f400id1e" cx="0" cy="0" r="1" gradientTransform="matrix(0 2.39648 -1.56505 0 10.125 25.854)" gradientUnits="userSpaceOnUse"><stop offset=".074" stop-color="#A18F96"/><stop offset=".536" stop-color="#847179"/><stop offset="1" stop-color="#66595D"/></radialGradient><radialGradient id="f400id1f" cx="0" cy="0" r="1" gradientTransform="rotate(12.339 -12.918 120.87)scale(1.21558)" gradientUnits="userSpaceOnUse"><stop stop-color="#3B3040"/><stop offset="1" stop-color="#3B3040" stop-opacity="0"/></radialGradient><radialGradient id="f400id1g" cx="0" cy="0" r="1" gradientTransform="matrix(-1.55077 1.56251 -.69574 -.6905 27.114 3.813)" gradientUnits="userSpaceOnUse"><stop offset=".269" stop-color="#5A5A5A"/><stop offset="1" stop-color="#4F4F50" stop-opacity="0"/></radialGradient><radialGradient id="f400id1h" cx="0" cy="0" r="1" gradientTransform="matrix(.1875 2.6875 -2.18734 .1526 7.344 17.438)" gradientUnits="userSpaceOnUse"><stop offset=".123" stop-color="#FFE5FE"/><stop offset=".538" stop-color="#E1C5E2"/><stop offset=".861" stop-color="#B29FB0"/></radialGradient><radialGradient id="f400id1i" cx="0" cy="0" r="1" gradientTransform="matrix(-5.07812 -3.96875 .59636 -.76306 29.297 20.874)" gradientUnits="userSpaceOnUse"><stop offset=".037" stop-color="#8F8683"/><stop offset="1" stop-color="#86777D" stop-opacity="0"/></radialGradient><radialGradient id="f400id1j" cx="0" cy="0" r="1" gradientTransform="matrix(-.375 .51563 -.45655 -.33203 6.688 13.281)" gradientUnits="userSpaceOnUse"><stop stop-color="#504F50"/><stop offset=".877" stop-color="#252326"/></radialGradient><radialGradient id="f400id1k" cx="0" cy="0" r="1" gradientTransform="matrix(-3.49997 5.28127 -4.54116 -3.0095 26.469 15.438)" gradientUnits="userSpaceOnUse"><stop offset=".389" stop-color="#E4C6CE"/><stop offset="1" stop-color="#D3BCBD"/></radialGradient><radialGradient id="f400id1l" cx="0" cy="0" r="1" gradientTransform="matrix(7.21873 -8.78123 6.48106 5.32785 24.906 12.063)" gradientUnits="userSpaceOnUse"><stop offset=".415" stop-color="#D5AEC7" stop-opacity="0"/><stop offset=".52" stop-color="#CFABBF"/></radialGradient><radialGradient id="f400id1m" cx="0" cy="0" r="1" gradientTransform="rotate(55.505 -3.113 30.113)scale(6.78708)" gradientUnits="userSpaceOnUse"><stop offset=".435" stop-color="#988B82" stop-opacity="0"/><stop offset=".518" stop-color="#988B82"/></radialGradient><radialGradient id="f400id1n" cx="0" cy="0" r="1" gradientTransform="rotate(120.906 9.666 14.233)scale(5.35397 1.69887)" gradientUnits="userSpaceOnUse"><stop offset=".26" stop-color="#C1A8AD"/><stop offset="1" stop-color="#C1A8AD" stop-opacity="0"/></radialGradient><radialGradient id="f400id1o" cx="0" cy="0" r="1" gradientTransform="matrix(2.90625 .21875 -.38891 5.16696 24.938 13.563)" gradientUnits="userSpaceOnUse"><stop offset=".352" stop-color="#E0C4CA"/><stop offset=".72" stop-color="#E0C4CA" stop-opacity="0"/></radialGradient><radialGradient id="f400id1p" cx="0" cy="0" r="1" gradientTransform="matrix(0 2.3252 -5.31204 0 27.25 11.625)" gradientUnits="userSpaceOnUse"><stop offset=".352" stop-color="#E0C4CA"/><stop offset=".72" stop-color="#E0C4CA" stop-opacity="0"/></radialGradient><radialGradient id="f400id1q" cx="0" cy="0" r="1" gradientTransform="matrix(1.5625 1.25 -5.01524 6.26906 26.813 13.719)" gradientUnits="userSpaceOnUse"><stop stop-color="#C0A7AC"/><stop offset=".595" stop-color="#DABEC4" stop-opacity="0"/></radialGradient><radialGradient id="f400id1r" cx="0" cy="0" r="1" gradientTransform="matrix(.8125 1.3125 -1.94289 1.20274 28 12.938)" gradientUnits="userSpaceOnUse"><stop offset=".232" stop-color="#CCA5C1"/><stop offset="1" stop-color="#D9B3CA" stop-opacity="0"/></radialGradient><radialGradient id="f400id1s" cx="0" cy="0" r="1" gradientTransform="matrix(-.68751 1.34374 -.39685 -.20304 23.594 11.156)" gradientUnits="userSpaceOnUse"><stop stop-color="#8E8179"/><stop offset="1" stop-color="#8E8179" stop-opacity="0"/></radialGradient><radialGradient id="f400id1t" cx="0" cy="0" r="1" gradientTransform="matrix(-2.4375 .03127 -.01163 -.9067 30 11.063)" gradientUnits="userSpaceOnUse"><stop offset=".183" stop-color="#9C918D"/><stop offset=".516" stop-color="#95828B"/><stop offset="1" stop-color="#91778B"/></radialGradient><radialGradient id="f400id1u" cx="0" cy="0" r="1" gradientTransform="matrix(2.25 .2793 -.12831 1.0337 28 10.063)" gradientUnits="userSpaceOnUse"><stop offset=".257" stop-color="#6F6760"/><stop offset="1" stop-color="#6F6760" stop-opacity="0"/></radialGradient><radialGradient id="f400id1v" cx="0" cy="0" r="1" gradientTransform="matrix(-.21583 1.04687 -1.01846 -.20997 22.594 8.578)" gradientUnits="userSpaceOnUse"><stop offset=".166" stop-color="#DCC7C2"/><stop offset=".499" stop-color="#C3ADAD"/><stop offset="1" stop-color="#92847E"/></radialGradient><radialGradient id="f400id1w" cx="0" cy="0" r="1" gradientTransform="matrix(-.71973 .36818 -.1581 -.30907 23.099 8.313)" gradientUnits="userSpaceOnUse"><stop offset=".31" stop-color="#BFA8AA"/><stop offset="1" stop-color="#BDA8A0" stop-opacity="0"/></radialGradient><radialGradient id="f400id1x" cx="0" cy="0" r="1" gradientTransform="matrix(0 .13672 -.30382 0 23.047 8.477)" gradientUnits="userSpaceOnUse"><stop offset=".204" stop-color="#B0A094"/><stop offset="1" stop-color="#BCAAA2" stop-opacity="0"/></radialGradient><radialGradient id="f400id1y" cx="0" cy="0" r="1" gradientTransform="rotate(134.999 9.545 8.974)scale(.41985 .40845)" gradientUnits="userSpaceOnUse"><stop offset=".137" stop-color="#DFCAC5"/><stop offset="1" stop-color="#D5BEBE" stop-opacity="0"/></radialGradient><linearGradient id="f400id1z" x1="26.781" x2="26.25" y1="17.813" y2="18.438" gradientUnits="userSpaceOnUse"><stop offset=".338" stop-color="#998F85"/><stop offset="1" stop-color="#A89B92" stop-opacity="0"/></linearGradient><linearGradient id="f400id20" x1="7.344" x2="7.75" y1="20.469" y2="20.875" gradientUnits="userSpaceOnUse"><stop stop-color="#605551"/><stop offset="1" stop-color="#766966" stop-opacity="0"/></linearGradient><linearGradient id="f400id21" x1="5.943" x2="6.469" y1="23.438" y2="23.438" gradientUnits="userSpaceOnUse"><stop stop-color="#605551"/><stop offset="1" stop-color="#7E6E71" stop-opacity="0"/></linearGradient><linearGradient id="f400id22" x1="23.828" x2="24.625" y1="10.016" y2="10.844" gradientUnits="userSpaceOnUse"><stop offset=".052" stop-color="#8D8079"/><stop offset=".223" stop-color="#BDABA5"/><stop offset=".406" stop-color="#C2AEA8"/><stop offset=".807" stop-color="#AF9B9A"/></linearGradient><linearGradient id="f400id23" x1="23.914" x2="23.914" y1="8.469" y2="9.403" gradientUnits="userSpaceOnUse"><stop stop-color="#AFA094"/><stop offset=".145" stop-color="#CDB9B5"/><stop offset=".567" stop-color="#C8B2B1"/><stop offset=".769" stop-color="#BFA7A9"/><stop offset="1" stop-color="#9F888E"/></linearGradient><linearGradient id="f400id24" x1="23.563" x2="24.281" y1="6.5" y2="7.234" gradientUnits="userSpaceOnUse"><stop stop-color="#8C7F78"/><stop offset=".225" stop-color="#C1ACAB"/><stop offset=".391" stop-color="#CDB6B7"/><stop offset=".621" stop-color="#CAB3B4"/><stop offset="1" stop-color="#B9A2A4"/></linearGradient><linearGradient id="f400id25" x1="28.781" x2="28.438" y1="19.813" y2="20.25" gradientUnits="userSpaceOnUse"><stop stop-color="#6F6761"/><stop offset="1" stop-color="#7C746E" stop-opacity="0"/></linearGradient><linearGradient id="f400id26" x1="22.313" x2="23.563" y1="11.875" y2="13.75" gradientUnits="userSpaceOnUse"><stop stop-color="#C5B2AC"/><stop offset="1" stop-color="#C5B2AC" stop-opacity="0"/></linearGradient><linearGradient id="f400id27" x1="25.168" x2="25.168" y1="9.563" y2="11.219" gradientUnits="userSpaceOnUse"><stop offset="0" stop-color="#AC9E93"/><stop offset="1" stop-color="#BCACA3" stop-opacity="0"/></linearGradient><linearGradient id="f400id28" x1="22.664" x2="22.625" y1="8.063" y2="8.594" gradientUnits="userSpaceOnUse"><stop offset=".013" stop-color="#CAB3B4"/><stop offset="1" stop-color="#CEB7B8" stop-opacity="0"/></linearGradient><linearGradient id="f400id29" x1="23.121" x2="22.5" y1="8.84" y2="8.555" gradientUnits="userSpaceOnUse"><stop offset=".263" stop-color="#CAB5B2"/><stop offset="1" stop-color="#CEB7B8" stop-opacity="0"/></linearGradient><linearGradient id="f400id2a" x1="22.378" x2="22.378" y1="9.586" y2="9.016" gradientUnits="userSpaceOnUse"><stop offset=".395" stop-color="#A38C91"/><stop offset="1" stop-color="#BAA2A5" stop-opacity="0"/></linearGradient><linearGradient id="f400id2b" x1="21.719" x2="22.273" y1="8.063" y2="8.523" gradientUnits="userSpaceOnUse"><stop offset=".35" stop-color="#94867F"/><stop offset=".789" stop-color="#B9A5A3" stop-opacity="0"/></linearGradient></defs></g></svg>