<svg xmlns="http://www.w3.org/2000/svg" xmlns:xlink="http://www.w3.org/1999/xlink" width="32" height="32" viewBox="0 0 32 32"><g fill="none"><path fill="url(#f404id0)" fill-rule="evenodd" d="M24.15 11.805h-2.197V10.27a.2.2 0 0 0 .063-.013c1.751-.794 3.865-1.232 6.294-1.304h.03a1 1 0 0 1 .028 1.999c-1.543.046-2.931.25-4.147.614a.15.15 0 0 0-.072.24" clip-rule="evenodd"/><path fill="url(#f404id1)" fill-rule="evenodd" d="M24.15 11.805h-2.197V10.27a.2.2 0 0 0 .063-.013c1.751-.794 3.865-1.232 6.294-1.304h.03a1 1 0 0 1 .028 1.999c-1.543.046-2.931.25-4.147.614a.15.15 0 0 0-.072.24" clip-rule="evenodd"/><path fill="url(#f404id2)" fill-rule="evenodd" d="M24.15 11.805h-2.197V10.27a.2.2 0 0 0 .063-.013c1.751-.794 3.865-1.232 6.294-1.304h.03a1 1 0 0 1 .028 1.999c-1.543.046-2.931.25-4.147.614a.15.15 0 0 0-.072.24" clip-rule="evenodd"/><path fill="url(#f404id3)" fill-rule="evenodd" d="M24.15 11.805h-2.197V10.27a.2.2 0 0 0 .063-.013c1.751-.794 3.865-1.232 6.294-1.304h.03a1 1 0 0 1 .028 1.999c-1.543.046-2.931.25-4.147.614a.15.15 0 0 0-.072.24" clip-rule="evenodd"/><path fill="url(#f404id4)" d="M16.33 18.48a5.273 5.273 0 0 0 5.268 5.26a5.273 5.273 0 0 0 5.267-5.243s-.443-.763-1-.763s-1 .74-1 .74a3.27 3.27 0 0 1-3.267 3.267a3.27 3.27 0 0 1-3.267-3.268s-.268-.739-1-.739s-1 .746-1 .746"/><path fill="url(#f404id5)" d="M16.33 18.48a5.273 5.273 0 0 0 5.268 5.26a5.273 5.273 0 0 0 5.267-5.243s-.443-.763-1-.763s-1 .74-1 .74a3.27 3.27 0 0 1-3.267 3.267a3.27 3.27 0 0 1-3.267-3.268s-.268-.739-1-.739s-1 .746-1 .746"/><path fill="url(#f404id6)" d="M16.33 18.48a5.273 5.273 0 0 0 5.268 5.26a5.273 5.273 0 0 0 5.267-5.243s-.443-.763-1-.763s-1 .74-1 .74a3.27 3.27 0 0 1-3.267 3.267a3.27 3.27 0 0 1-3.267-3.268s-.268-.739-1-.739s-1 .746-1 .746"/><path fill="url(#f404id7)" d="M16.33 18.48a5.273 5.273 0 0 0 5.268 5.26a5.273 5.273 0 0 0 5.267-5.243s-.443-.763-1-.763s-1 .74-1 .74a3.27 3.27 0 0 1-3.267 3.267a3.27 3.27 0 0 1-3.267-3.268s-.268-.739-1-.739s-1 .746-1 .746"/><path fill="url(#f404id8)" d="M16.33 18.49v-.01c-.001-.215.015-2.435 1.476-4.689a9.2 9.2 0 0 1 1.8-2.032c.5-.373 1.277-.929 2.366-.929c.759 0 1.493.503 1.975.833q.106.074.195.133l.021.024q.202.191.39.394c2.412 2.602 2.337 5.816 2.313 6.276h-2v-.017c.067-1.776-.581-3.618-1.798-4.92a6.7 6.7 0 0 0-1.083-.93a.15.15 0 0 0-.16-.004a7.4 7.4 0 0 0-2.289 2.182c-1.21 1.811-1.206 3.64-1.205 3.657v.032z"/><path fill="url(#f404id9)" d="M16.33 18.49v-.01c-.001-.215.015-2.435 1.476-4.689a9.2 9.2 0 0 1 1.8-2.032c.5-.373 1.277-.929 2.366-.929c.759 0 1.493.503 1.975.833q.106.074.195.133l.021.024q.202.191.39.394c2.412 2.602 2.337 5.816 2.313 6.276h-2v-.017c.067-1.776-.581-3.618-1.798-4.92a6.7 6.7 0 0 0-1.083-.93a.15.15 0 0 0-.16-.004a7.4 7.4 0 0 0-2.289 2.182c-1.21 1.811-1.206 3.64-1.205 3.657v.032z"/><path fill="url(#f404ida)" d="M16.33 18.49v-.01c-.001-.215.015-2.435 1.476-4.689a9.2 9.2 0 0 1 1.8-2.032c.5-.373 1.277-.929 2.366-.929c.759 0 1.493.503 1.975.833q.106.074.195.133l.021.024q.202.191.39.394c2.412 2.602 2.337 5.816 2.313 6.276h-2v-.017c.067-1.776-.581-3.618-1.798-4.92a6.7 6.7 0 0 0-1.083-.93a.15.15 0 0 0-.16-.004a7.4 7.4 0 0 0-2.289 2.182c-1.21 1.811-1.206 3.64-1.205 3.657v.032z"/><path fill="url(#f404idb)" d="M16.33 18.49v-.01c-.001-.215.015-2.435 1.476-4.689a9.2 9.2 0 0 1 1.8-2.032c.5-.373 1.277-.929 2.366-.929c.759 0 1.493.503 1.975.833q.106.074.195.133l.021.024q.202.191.39.394c2.412 2.602 2.337 5.816 2.313 6.276h-2v-.017c.067-1.776-.581-3.618-1.798-4.92a6.7 6.7 0 0 0-1.083-.93a.15.15 0 0 0-.16-.004a7.4 7.4 0 0 0-2.289 2.182c-1.21 1.811-1.206 3.64-1.205 3.657v.032z"/><path fill="url(#f404idc)" d="M16.33 18.49v-.01c-.001-.215.015-2.435 1.476-4.689a9.2 9.2 0 0 1 1.8-2.032c.5-.373 1.277-.929 2.366-.929c.759 0 1.493.503 1.975.833q.106.074.195.133l.021.024q.202.191.39.394c2.412 2.602 2.337 5.816 2.313 6.276h-2v-.017c.067-1.776-.581-3.618-1.798-4.92a6.7 6.7 0 0 0-1.083-.93a.15.15 0 0 0-.16-.004a7.4 7.4 0 0 0-2.289 2.182c-1.21 1.811-1.206 3.64-1.205 3.657v.032z"/><path fill="url(#f404idd)" d="M9.08 23.74a5.274 5.274 0 0 0 5.267-5.267s-.363-.739-1-.739s-1 .74-1 .74A3.27 3.27 0 0 1 9.08 21.74a3.27 3.27 0 0 1-3.268-3.267s-.359-.74-1-.74s-1 .742-1 .742A5.274 5.274 0 0 0 9.08 23.74"/><path fill="url(#f404ide)" d="M9.08 23.74a5.274 5.274 0 0 0 5.267-5.267s-.363-.739-1-.739s-1 .74-1 .74A3.27 3.27 0 0 1 9.08 21.74a3.27 3.27 0 0 1-3.268-3.267s-.359-.74-1-.74s-1 .742-1 .742A5.274 5.274 0 0 0 9.08 23.74"/><path fill="url(#f404idf)" d="M9.08 23.74a5.274 5.274 0 0 0 5.267-5.267s-.363-.739-1-.739s-1 .74-1 .74A3.27 3.27 0 0 1 9.08 21.74a3.27 3.27 0 0 1-3.268-3.267s-.359-.74-1-.74s-1 .742-1 .742A5.274 5.274 0 0 0 9.08 23.74"/><path fill="url(#f404idg)" d="M9.08 23.74a5.274 5.274 0 0 0 5.267-5.267s-.363-.739-1-.739s-1 .74-1 .74A3.27 3.27 0 0 1 9.08 21.74a3.27 3.27 0 0 1-3.268-3.267s-.359-.74-1-.74s-1 .742-1 .742A5.274 5.274 0 0 0 9.08 23.74"/><path fill="url(#f404id12)" fill-rule="evenodd" d="M11.134 11.805H8.851v-1.48a.15.15 0 0 0 .077-.017c1.753-.9 3.898-1.355 6.41-1.355c2.591 0 4.78.436 6.548 1.302q.032.015.067.015v1.535h-2.402l.062-.051c.091-.077.064-.226-.05-.26q-1.824-.541-4.224-.542c-1.57 0-2.962.197-4.167.588c-.112.036-.137.18-.048.257z" clip-rule="evenodd"/><path fill="url(#f404idh)" fill-rule="evenodd" d="M11.134 11.805H8.851v-1.48a.15.15 0 0 0 .077-.017c1.753-.9 3.898-1.355 6.41-1.355c2.591 0 4.78.436 6.548 1.302q.032.015.067.015v1.535h-2.402l.062-.051c.091-.077.064-.226-.05-.26q-1.824-.541-4.224-.542c-1.57 0-2.962.197-4.167.588c-.112.036-.137.18-.048.257z" clip-rule="evenodd"/><path fill="url(#f404idi)" fill-rule="evenodd" d="M11.134 11.805H8.851v-1.48a.15.15 0 0 0 .077-.017c1.753-.9 3.898-1.355 6.41-1.355c2.591 0 4.78.436 6.548 1.302q.032.015.067.015v1.535h-2.402l.062-.051c.091-.077.064-.226-.05-.26q-1.824-.541-4.224-.542c-1.57 0-2.962.197-4.167.588c-.112.036-.137.18-.048.257z" clip-rule="evenodd"/><path fill="url(#f404idj)" fill-rule="evenodd" d="M11.134 11.805H8.851v-1.48a.15.15 0 0 0 .077-.017c1.753-.9 3.898-1.355 6.41-1.355c2.591 0 4.78.436 6.548 1.302q.032.015.067.015v1.535h-2.402l.062-.051c.091-.077.064-.226-.05-.26q-1.824-.541-4.224-.542c-1.57 0-2.962.197-4.167.588c-.112.036-.137.18-.048.257z" clip-rule="evenodd"/><path fill="url(#f404idk)" fill-rule="evenodd" d="M8.701 12.805H5.867a9 9 0 0 1 .848-.93a.15.15 0 0 0-.055-.254c-1.264-.402-2.72-.629-4.351-.677a1 1 0 0 1 .06-1.998c2.49.073 4.648.532 6.425 1.365c.041.02.09.019.13-.001v2.37a.15.15 0 0 0-.092.028z" clip-rule="evenodd"/><path fill="url(#f404idl)" fill-rule="evenodd" d="M8.701 12.805H5.867a9 9 0 0 1 .848-.93a.15.15 0 0 0-.055-.254c-1.264-.402-2.72-.629-4.351-.677a1 1 0 0 1 .06-1.998c2.49.073 4.648.532 6.425 1.365c.041.02.09.019.13-.001v2.37a.15.15 0 0 0-.092.028z" clip-rule="evenodd"/><path fill="url(#f404idm)" fill-rule="evenodd" d="M8.701 12.805H5.867a9 9 0 0 1 .848-.93a.15.15 0 0 0-.055-.254c-1.264-.402-2.72-.629-4.351-.677a1 1 0 0 1 .06-1.998c2.49.073 4.648.532 6.425 1.365c.041.02.09.019.13-.001v2.37a.15.15 0 0 0-.092.028z" clip-rule="evenodd"/><path fill="url(#f404idn)" d="m6.715 11.874l-.173.17c-2.703 2.724-2.73 6.226-2.73 6.432l2-.01c0-.028.003-2.849 2.15-5.013q.402-.405.87-.745a.15.15 0 0 1 .166-.004a7.35 7.35 0 0 1 2.142 2.09c.703 1.053 1.207 2.396 1.207 3.68h2v-.003c.003-.218-.016-2.437-1.477-4.688a9.2 9.2 0 0 0-1.746-1.986c-.378-.322-1.29-.871-2.235-.871c-.933 0-1.817.606-2.174.948"/><path fill="url(#f404ido)" d="m6.715 11.874l-.173.17c-2.703 2.724-2.73 6.226-2.73 6.432l2-.01c0-.028.003-2.849 2.15-5.013q.402-.405.87-.745a.15.15 0 0 1 .166-.004a7.35 7.35 0 0 1 2.142 2.09c.703 1.053 1.207 2.396 1.207 3.68h2v-.003c.003-.218-.016-2.437-1.477-4.688a9.2 9.2 0 0 0-1.746-1.986c-.378-.322-1.29-.871-2.235-.871c-.933 0-1.817.606-2.174.948"/><path fill="url(#f404idp)" d="m6.715 11.874l-.173.17c-2.703 2.724-2.73 6.226-2.73 6.432l2-.01c0-.028.003-2.849 2.15-5.013q.402-.405.87-.745a.15.15 0 0 1 .166-.004a7.35 7.35 0 0 1 2.142 2.09c.703 1.053 1.207 2.396 1.207 3.68h2v-.003c.003-.218-.016-2.437-1.477-4.688a9.2 9.2 0 0 0-1.746-1.986c-.378-.322-1.29-.871-2.235-.871c-.933 0-1.817.606-2.174.948"/><path fill="url(#f404idq)" d="m6.715 11.874l-.173.17c-2.703 2.724-2.73 6.226-2.73 6.432l2-.01c0-.028.003-2.849 2.15-5.013q.402-.405.87-.745a.15.15 0 0 1 .166-.004a7.35 7.35 0 0 1 2.142 2.09c.703 1.053 1.207 2.396 1.207 3.68h2v-.003c.003-.218-.016-2.437-1.477-4.688a9.2 9.2 0 0 0-1.746-1.986c-.378-.322-1.29-.871-2.235-.871c-.933 0-1.817.606-2.174.948"/><path fill="url(#f404idr)" d="m6.715 11.874l-.173.17c-2.703 2.724-2.73 6.226-2.73 6.432l2-.01c0-.028.003-2.849 2.15-5.013q.402-.405.87-.745a.15.15 0 0 1 .166-.004a7.35 7.35 0 0 1 2.142 2.09c.703 1.053 1.207 2.396 1.207 3.68h2v-.003c.003-.218-.016-2.437-1.477-4.688a9.2 9.2 0 0 0-1.746-1.986c-.378-.322-1.29-.871-2.235-.871c-.933 0-1.817.606-2.174.948"/><path fill="url(#f404ids)" d="M8.925 10.926h-.036c-.981 0-1.776.568-2.174.948l-.173.17c-2.703 2.724-2.73 6.226-2.73 6.432l2-.01c0-.028.003-2.849 2.15-5.013q.402-.405.87-.745q.042-.03.093-.027z"/><path fill="url(#f404idt)" d="M8.925 10.926h-.036c-.981 0-1.776.568-2.174.948l-.173.17c-2.703 2.724-2.73 6.226-2.73 6.432l2-.01c0-.028.003-2.849 2.15-5.013q.402-.405.87-.745q.042-.03.093-.027z"/><path fill="url(#f404id13)" d="M8.925 10.926h-.036c-.981 0-1.776.568-2.174.948l-.173.17c-2.703 2.724-2.73 6.226-2.73 6.432l2-.01c0-.028.003-2.849 2.15-5.013q.402-.405.87-.745q.042-.03.093-.027z"/><path fill="url(#f404idu)" d="M8.925 10.926h-.036c-.981 0-1.776.568-2.174.948l-.173.17c-2.703 2.724-2.73 6.226-2.73 6.432l2-.01c0-.028.003-2.849 2.15-5.013q.402-.405.87-.745q.042-.03.093-.027z"/><path fill="url(#f404idv)" d="M8.925 10.926h-.036c-.981 0-1.776.568-2.174.948l-.173.17c-2.703 2.724-2.73 6.226-2.73 6.432l2-.01c0-.028.003-2.849 2.15-5.013q.402-.405.87-.745q.042-.03.093-.027z"/><path fill="url(#f404idw)" d="M8.925 10.926h-.036c-.981 0-1.776.568-2.174.948l-.173.17c-2.703 2.724-2.73 6.226-2.73 6.432l2-.01c0-.028.003-2.849 2.15-5.013q.402-.405.87-.745q.042-.03.093-.027z"/><path fill="url(#f404idx)" d="M8.925 10.926h-.036c-.981 0-1.776.568-2.174.948l-.173.17c-2.703 2.724-2.73 6.226-2.73 6.432l2-.01c0-.028.003-2.849 2.15-5.013q.402-.405.87-.745q.042-.03.093-.027z"/><path fill="url(#f404idy)" fill-rule="evenodd" d="M19.607 11.759c.496-.371 1.267-.923 2.346-.929v1.776a.15.15 0 0 0-.129.013a7.4 7.4 0 0 0-2.288 2.182c-1.21 1.811-1.206 3.64-1.205 3.657v.039h-2v-.017c-.002-.215.014-2.435 1.475-4.689a9.2 9.2 0 0 1 1.8-2.033" clip-rule="evenodd"/><path fill="url(#f404idz)" fill-rule="evenodd" d="M19.607 11.759c.496-.371 1.267-.923 2.346-.929v1.776a.15.15 0 0 0-.129.013a7.4 7.4 0 0 0-2.288 2.182c-1.21 1.811-1.206 3.64-1.205 3.657v.039h-2v-.017c-.002-.215.014-2.435 1.475-4.689a9.2 9.2 0 0 1 1.8-2.033" clip-rule="evenodd"/><path fill="url(#f404id14)" fill-rule="evenodd" d="M19.607 11.759c.496-.371 1.267-.923 2.346-.929v1.776a.15.15 0 0 0-.129.013a7.4 7.4 0 0 0-2.288 2.182c-1.21 1.811-1.206 3.64-1.205 3.657v.039h-2v-.017c-.002-.215.014-2.435 1.475-4.689a9.2 9.2 0 0 1 1.8-2.033" clip-rule="evenodd"/><path fill="url(#f404id10)" fill-rule="evenodd" d="M19.607 11.759c.496-.371 1.267-.923 2.346-.929v1.776a.15.15 0 0 0-.129.013a7.4 7.4 0 0 0-2.288 2.182c-1.21 1.811-1.206 3.64-1.205 3.657v.039h-2v-.017c-.002-.215.014-2.435 1.475-4.689a9.2 9.2 0 0 1 1.8-2.033" clip-rule="evenodd"/><path fill="url(#f404id11)" fill-rule="evenodd" d="M19.607 11.759c.496-.371 1.267-.923 2.346-.929v1.776a.15.15 0 0 0-.129.013a7.4 7.4 0 0 0-2.288 2.182c-1.21 1.811-1.206 3.64-1.205 3.657v.039h-2v-.017c-.002-.215.014-2.435 1.475-4.689a9.2 9.2 0 0 1 1.8-2.033" clip-rule="evenodd"/><defs><radialGradient id="f404id0" cx="0" cy="0" r="1" gradientTransform="rotate(-91.937 21.95 -6.65)scale(6.33823 13.1887)" gradientUnits="userSpaceOnUse"><stop offset=".74" stop-color="#8347DE"/><stop offset=".811" stop-color="#765EC0"/><stop offset=".873" stop-color="#867BC1"/><stop offset=".906" stop-color="#867AC1"/><stop offset=".977" stop-color="#675B9F"/></radialGradient><radialGradient id="f404id1" cx="0" cy="0" r="1" gradientTransform="matrix(-2.17498 -.1863 .61575 -7.18827 30.31 9.94)" gradientUnits="userSpaceOnUse"><stop offset=".333" stop-color="#413576"/><stop offset=".812" stop-color="#5E509C" stop-opacity="0"/></radialGradient><radialGradient id="f404id2" cx="0" cy="0" r="1" gradientTransform="matrix(.13182 1.04335 -3.92846 .49635 26.257 11.599)" gradientUnits="userSpaceOnUse"><stop offset=".56" stop-color="#5D36B6"/><stop offset="1" stop-color="#5D36B6" stop-opacity="0"/></radialGradient><radialGradient id="f404id3" cx="0" cy="0" r="1" gradientTransform="matrix(0 .63346 -.56022 0 28.73 9.474)" gradientUnits="userSpaceOnUse"><stop stop-color="#A499DA"/><stop offset="1" stop-color="#958ACF" stop-opacity="0"/></radialGradient><radialGradient id="f404id4" cx="0" cy="0" r="1" gradientTransform="matrix(0 6.22509 -6.52241 0 21.598 18.217)" gradientUnits="userSpaceOnUse"><stop offset=".594" stop-color="#664BB3"/><stop offset=".694" stop-color="#7961C1"/><stop offset=".736" stop-color="#7E6AC2"/><stop offset=".828" stop-color="#9446FD"/><stop offset=".983" stop-color="#6334C9"/></radialGradient><radialGradient id="f404id5" cx="0" cy="0" r="1" gradientTransform="matrix(3.99343 6.0889 -4.70161 3.08357 20.426 19.17)" gradientUnits="userSpaceOnUse"><stop offset=".316" stop-color="#9388CA" stop-opacity="0"/><stop offset=".457" stop-color="#9388CA"/><stop offset=".597" stop-color="#9388CA" stop-opacity="0"/></radialGradient><radialGradient id="f404id6" cx="0" cy="0" r="1" gradientTransform="matrix(.15509 3.38489 -3.37314 .15455 21.802 19.52)" gradientUnits="userSpaceOnUse"><stop offset=".709" stop-color="#524785"/><stop offset=".861" stop-color="#524785" stop-opacity="0"/></radialGradient><radialGradient id="f404id7" cx="0" cy="0" r="1" gradientTransform="matrix(0 10.2908 -8.00625 0 21.725 17.497)" gradientUnits="userSpaceOnUse"><stop offset=".583" stop-color="#483484" stop-opacity="0"/><stop offset=".706" stop-color="#504485"/></radialGradient><radialGradient id="f404id8" cx="0" cy="0" r="1" gradientTransform="rotate(56.264 -2.894 28.174)scale(7.02248 3.82421)" gradientUnits="userSpaceOnUse"><stop offset=".428" stop-color="#5335A0"/><stop offset=".64" stop-color="#745FBB"/><stop offset=".767" stop-color="#9082CA"/><stop offset=".839" stop-color="#9A8FD0"/><stop offset=".89" stop-color="#7655C1"/><stop offset=".98" stop-color="#6B5DA5"/></radialGradient><radialGradient id="f404id9" cx="0" cy="0" r="1" gradientTransform="matrix(0 1.42886 -1.12508 0 21.166 11.97)" gradientUnits="userSpaceOnUse"><stop offset=".347" stop-color="#7C6ABF"/><stop offset="1" stop-color="#7C6ABF" stop-opacity="0"/></radialGradient><radialGradient id="f404ida" cx="0" cy="0" r="1" gradientTransform="matrix(-1.9398 .45487 -.21347 -.91036 22.194 10.83)" gradientUnits="userSpaceOnUse"><stop offset=".347" stop-color="#867BC1"/><stop offset="1" stop-color="#867BC1" stop-opacity="0"/></radialGradient><radialGradient id="f404idb" cx="0" cy="0" r="1" gradientTransform="matrix(0 1.08593 -.8523 0 21.6 12.638)" gradientUnits="userSpaceOnUse"><stop offset=".208" stop-color="#8348DD"/><stop offset="1" stop-color="#8348DD" stop-opacity="0"/></radialGradient><radialGradient id="f404idc" cx="0" cy="0" r="1" gradientTransform="matrix(-2.44414 1.16213 -1.55306 -3.26632 24.25 18.086)" gradientUnits="userSpaceOnUse"><stop offset=".437" stop-color="#664BB3"/><stop offset="1" stop-color="#664BB3" stop-opacity="0"/></radialGradient><radialGradient id="f404idd" cx="0" cy="0" r="1" gradientTransform="matrix(0 6.22509 -6.52279 0 9.08 18.217)" gradientUnits="userSpaceOnUse"><stop offset=".594" stop-color="#664BB3"/><stop offset=".694" stop-color="#7961C1"/><stop offset=".736" stop-color="#7E6AC2"/><stop offset=".828" stop-color="#9446FD"/><stop offset=".983" stop-color="#6334C9"/></radialGradient><radialGradient id="f404ide" cx="0" cy="0" r="1" gradientTransform="matrix(3.99366 6.08891 -4.70172 3.08382 7.907 19.17)" gradientUnits="userSpaceOnUse"><stop offset=".316" stop-color="#9388CA" stop-opacity="0"/><stop offset=".457" stop-color="#9388CA"/><stop offset=".597" stop-color="#9388CA" stop-opacity="0"/></radialGradient><radialGradient id="f404idf" cx="0" cy="0" r="1" gradientTransform="matrix(.15507 3.38489 -3.37334 .15454 9.284 19.521)" gradientUnits="userSpaceOnUse"><stop offset=".709" stop-color="#524785"/><stop offset=".861" stop-color="#524785" stop-opacity="0"/></radialGradient><radialGradient id="f404idg" cx="0" cy="0" r="1" gradientTransform="matrix(0 10.2908 -8.00672 0 9.206 17.497)" gradientUnits="userSpaceOnUse"><stop offset=".583" stop-color="#483484" stop-opacity="0"/><stop offset=".706" stop-color="#504485"/></radialGradient><radialGradient id="f404idh" cx="0" cy="0" r="1" gradientTransform="matrix(0 6.05334 -5.125 0 9.094 17.687)" gradientUnits="userSpaceOnUse"><stop offset=".699" stop-color="#635994" stop-opacity="0"/><stop offset=".837" stop-color="#7C6FBC"/><stop offset="1" stop-color="#635994" stop-opacity="0"/></radialGradient><radialGradient id="f404idi" cx="0" cy="0" r="1" gradientTransform="matrix(0 5.99084 -5.07208 0 21.719 17.75)" gradientUnits="userSpaceOnUse"><stop offset=".699" stop-color="#635994" stop-opacity="0"/><stop offset=".837" stop-color="#7C6FBC"/><stop offset="1" stop-color="#635994" stop-opacity="0"/></radialGradient><radialGradient id="f404idj" cx="0" cy="0" r="1" gradientTransform="scale(11.4612 8.06219)rotate(-90 1.7 .355)" gradientUnits="userSpaceOnUse"><stop offset=".725" stop-color="#8347DE"/><stop offset=".796" stop-color="#765EC0"/><stop offset=".858" stop-color="#867BC1"/><stop offset=".9" stop-color="#9388CA"/><stop offset="1" stop-color="#675B9F"/></radialGradient><radialGradient id="f404idk" cx="0" cy="0" r="1" gradientTransform="matrix(0 -6.32444 12.5061 0 1.34 15.027)" gradientUnits="userSpaceOnUse"><stop offset=".725" stop-color="#8347DE"/><stop offset=".796" stop-color="#765EC0"/><stop offset=".858" stop-color="#867BC1"/><stop offset=".9" stop-color="#9388CA"/><stop offset="1" stop-color="#675B9F"/></radialGradient><radialGradient id="f404idl" cx="0" cy="0" r="1" gradientTransform="matrix(1.60768 .20546 -.662 5.17994 .967 9.543)" gradientUnits="userSpaceOnUse"><stop offset=".333" stop-color="#413576"/><stop offset=".866" stop-color="#5E509C" stop-opacity="0"/></radialGradient><radialGradient id="f404idm" cx="0" cy="0" r="1" gradientTransform="matrix(-.13538 1.04603 -4.03161 -.5218 4.504 11.598)" gradientUnits="userSpaceOnUse"><stop offset=".56" stop-color="#5D36B6"/><stop offset="1" stop-color="#5D36B6" stop-opacity="0"/></radialGradient><radialGradient id="f404idn" cx="0" cy="0" r="1" gradientTransform="matrix(4.3038 5.67106 -3.10008 2.35266 9.381 15.073)" gradientUnits="userSpaceOnUse"><stop offset=".428" stop-color="#5335A0"/><stop offset=".64" stop-color="#745FBB"/><stop offset=".767" stop-color="#9082CA"/><stop offset=".839" stop-color="#9A8FD0"/><stop offset=".89" stop-color="#7655C1"/><stop offset=".98" stop-color="#6B5DA5"/></radialGradient><radialGradient id="f404ido" cx="0" cy="0" r="1" gradientTransform="matrix(0 1.40837 -1.12442 0 8.644 12.05)" gradientUnits="userSpaceOnUse"><stop offset=".347" stop-color="#7C6ABF"/><stop offset="1" stop-color="#7C6ABF" stop-opacity="0"/></radialGradient><radialGradient id="f404idp" cx="0" cy="0" r="1" gradientTransform="matrix(-1.93865 .44832 -.2078 -.8986 9.672 10.926)" gradientUnits="userSpaceOnUse"><stop offset=".347" stop-color="#867BC1"/><stop offset="1" stop-color="#867BC1" stop-opacity="0"/></radialGradient><radialGradient id="f404idq" cx="0" cy="0" r="1" gradientTransform="matrix(0 2.35225 -2.55476 0 8.925 14.162)" gradientUnits="userSpaceOnUse"><stop offset=".563" stop-color="#8348DD"/><stop offset="1" stop-color="#8348DD" stop-opacity="0"/></radialGradient><radialGradient id="f404idr" cx="0" cy="0" r="1" gradientTransform="matrix(-2.4427 1.14549 -1.5174 -3.23579 11.727 18.078)" gradientUnits="userSpaceOnUse"><stop offset=".411" stop-color="#664BB3"/><stop offset="1" stop-color="#664BB3" stop-opacity="0"/></radialGradient><radialGradient id="f404ids" cx="0" cy="0" r="1" gradientTransform="rotate(118.509 -.77 10.025)scale(13.337 5.1454)" gradientUnits="userSpaceOnUse"><stop offset=".211" stop-color="#6146AE"/><stop offset=".278" stop-color="#785EC4"/><stop offset=".304" stop-color="#806AC4"/><stop offset=".32" stop-color="#8471C4"/><stop offset=".398" stop-color="#7D6BBC"/><stop offset=".437" stop-color="#6E5EAD"/><stop offset=".499" stop-color="#584B91"/><stop offset=".572" stop-color="#423871"/></radialGradient><radialGradient id="f404idt" cx="0" cy="0" r="1" gradientTransform="matrix(-.13106 1.52132 -3.73135 -.32145 8.46 10.754)" gradientUnits="userSpaceOnUse"><stop stop-color="#988ECC"/><stop offset=".205" stop-color="#8375C1"/><stop offset="1" stop-color="#7A69BC" stop-opacity="0"/></radialGradient><radialGradient id="f404idu" cx="0" cy="0" r="1" gradientTransform="matrix(.03745 1.45088 -.85552 .02208 4.978 18.37)" gradientUnits="userSpaceOnUse"><stop offset=".072" stop-color="#8E80C8"/><stop offset=".542" stop-color="#8E80C8" stop-opacity="0"/></radialGradient><radialGradient id="f404idv" cx="0" cy="0" r="1" gradientTransform="matrix(.69393 .48462 -.28575 .40918 8.23 10.926)" gradientUnits="userSpaceOnUse"><stop offset=".072" stop-color="#8171C1"/><stop offset=".715" stop-color="#8476C1" stop-opacity="0"/></radialGradient><radialGradient id="f404idw" cx="0" cy="0" r="1" gradientTransform="matrix(.69393 .48462 -.28575 .40918 8.23 10.926)" gradientUnits="userSpaceOnUse"><stop offset=".072" stop-color="#8171C1"/><stop offset=".715" stop-color="#8476C1" stop-opacity="0"/></radialGradient><radialGradient id="f404idx" cx="0" cy="0" r="1" gradientTransform="rotate(93.101 -1.998 11.165)scale(2.18571 2.21127)" gradientUnits="userSpaceOnUse"><stop offset=".208" stop-color="#8348DD"/><stop offset="1" stop-color="#8348DD" stop-opacity="0"/></radialGradient><radialGradient id="f404idy" cx="0" cy="0" r="1" gradientTransform="matrix(-7.00053 11.9002 -4.7838 -2.81416 20.577 15.46)" gradientUnits="userSpaceOnUse"><stop offset=".211" stop-color="#6146AE"/><stop offset=".278" stop-color="#785EC4"/><stop offset=".304" stop-color="#806AC4"/><stop offset=".32" stop-color="#8471C4"/><stop offset=".398" stop-color="#7D6BBC"/><stop offset=".437" stop-color="#6E5EAD"/><stop offset=".499" stop-color="#584B91"/><stop offset=".572" stop-color="#423871"/></radialGradient><radialGradient id="f404idz" cx="0" cy="0" r="1" gradientTransform="matrix(-.14413 1.54474 -4.09818 -.38237 21.442 10.655)" gradientUnits="userSpaceOnUse"><stop stop-color="#988ECC"/><stop offset=".205" stop-color="#8375C1"/><stop offset="1" stop-color="#7A69BC" stop-opacity="0"/></radialGradient><radialGradient id="f404id10" cx="0" cy="0" r="1" gradientTransform="matrix(.04118 1.47322 -.94071 .0263 17.613 18.388)" gradientUnits="userSpaceOnUse"><stop offset=".072" stop-color="#8E80C8"/><stop offset=".542" stop-color="#8E80C8" stop-opacity="0"/></radialGradient><radialGradient id="f404id11" cx="0" cy="0" r="1" gradientTransform="matrix(0 1.21639 -.64607 0 22.058 12.912)" gradientUnits="userSpaceOnUse"><stop offset=".208" stop-color="#8348DD"/><stop offset="1" stop-color="#8348DD" stop-opacity="0"/></radialGradient><linearGradient id="f404id12" x1="15.339" x2="15.339" y1="10.498" y2="22.701" gradientUnits="userSpaceOnUse"><stop stop-color="#7167A4"/><stop offset="1" stop-color="#635994"/></linearGradient><linearGradient id="f404id13" x1="8.804" x2="8.515" y1="10.614" y2="11.457" gradientUnits="userSpaceOnUse"><stop stop-color="#988DCD"/><stop offset="1" stop-color="#8376C1" stop-opacity="0"/></linearGradient><linearGradient id="f404id14" x1="21.72" x2="21.532" y1="10.693" y2="11.378" gradientUnits="userSpaceOnUse"><stop stop-color="#988DCD"/><stop offset="1" stop-color="#8376C1" stop-opacity="0"/></linearGradient></defs></g></svg>