<svg xmlns="http://www.w3.org/2000/svg" xmlns:xlink="http://www.w3.org/1999/xlink" width="32" height="32" viewBox="0 0 32 32"><g fill="none"><path fill="url(#f419idh)" d="M5.94 14.138h19.953v6.18c0 5.51-4.466 9.977-9.976 9.977S5.94 25.83 5.94 20.32z"/><path fill="url(#f419idi)" d="M5.94 14.138h19.953v6.18c0 5.51-4.466 9.977-9.976 9.977S5.94 25.83 5.94 20.32z"/><path fill="url(#f419id0)" d="M5.94 14.138h19.953v6.18c0 5.51-4.466 9.977-9.976 9.977S5.94 25.83 5.94 20.32z"/><path fill="url(#f419idj)" d="M9.854 28.243a10 10 0 0 1-1.812-1.798v-6.743h1.812z"/><path fill="url(#f419idk)" d="M16.823 30.255a10 10 0 0 1-1.812 0V19.702h1.812z"/><path fill="url(#f419idl)" d="M23.792 26.445a10 10 0 0 1-1.813 1.798v-8.541h1.813z"/><path fill="#F3B050" d="M23.792 26.445a10 10 0 0 1-1.762 1.759a.9.9 0 0 1-.05-.3v-2.593a.906.906 0 0 1 1.812 0z"/><path fill="url(#f419idm)" d="M9.804 28.204a10 10 0 0 1-1.762-1.759v-1.134a.906.906 0 0 1 1.812 0v2.594a.9.9 0 0 1-.05.299"/><path fill="#F1B14C" d="M21.98 18.702a.906.906 0 0 1 1.812 0v2.593a.906.906 0 1 1-1.813 0z"/><path fill="url(#f419idn)" d="M8.042 18.702a.906.906 0 1 1 1.812 0v2.593a.906.906 0 1 1-1.812 0z"/><path fill="url(#f419ido)" d="M15.01 21.67a.906.906 0 1 1 1.813 0v2.594a.906.906 0 1 1-1.812 0z"/><path fill="#DB8F4F" d="M16.823 30.255a10 10 0 0 1-1.812 0v-1.897a.906.906 0 1 1 1.812 0z"/><g filter="url(#f419idu)"><ellipse cx="15.901" cy="14.057" fill="url(#f419id1)" rx="7.805" ry="7.559"/><ellipse cx="15.901" cy="14.057" fill="url(#f419id2)" rx="7.805" ry="7.559"/><ellipse cx="15.901" cy="14.057" fill="url(#f419id3)" rx="7.805" ry="7.559"/></g><g filter="url(#f419idv)"><path fill="#D3A1AC" d="M7.684 11.66c.172-.572.384-1.1.602-1.563l2.526 2.688c.41-.096.86.014 1.183.332l1.057 1.04a1.273 1.273 0 0 1-1.786 1.815l-1.057-1.04a1.27 1.27 0 0 1-.34-1.227z"/></g><g filter="url(#f419idw)"><path fill="url(#f419idp)" d="M23.001 9.95c-.172-.572-.384-1.1-.602-1.563l-3.862 4.06a1.27 1.27 0 0 0-1.184.333l-1.056 1.04a1.273 1.273 0 0 0 1.786 1.814l1.056-1.04c.336-.33.45-.802.34-1.227z"/></g><g filter="url(#f419idx)"><path fill="url(#f419id4)" d="M5.942 20.512c.103 5.42 4.53 9.783 9.975 9.783s9.871-4.362 9.975-9.783c-.81 4.711-4.968 8.299-9.975 8.299c-5.008 0-9.166-3.588-9.975-8.299"/></g><g filter="url(#f419idy)"><path fill="url(#f419idq)" fill-rule="evenodd" d="M25.893 14.057c0 5.34-4.638 9.559-9.992 9.559s-9.96-4.299-9.96-9.638S10.546 4.14 15.9 4.14s9.992 4.219 9.992 9.918M15.9 21.617c4.31 0 7.805-3.384 7.805-7.559c0-4.174-3.494-7.558-7.805-7.558c-4.31 0-7.805 3.384-7.805 7.558c0 4.175 3.495 7.559 7.805 7.559" clip-rule="evenodd"/><path fill="url(#f419id5)" fill-rule="evenodd" d="M25.893 14.057c0 5.34-4.638 9.559-9.992 9.559s-9.96-4.299-9.96-9.638S10.546 4.14 15.9 4.14s9.992 4.219 9.992 9.918M15.9 21.617c4.31 0 7.805-3.384 7.805-7.559c0-4.174-3.494-7.558-7.805-7.558c-4.31 0-7.805 3.384-7.805 7.558c0 4.175 3.495 7.559 7.805 7.559" clip-rule="evenodd"/><path fill="url(#f419id6)" fill-rule="evenodd" d="M25.893 14.057c0 5.34-4.638 9.559-9.992 9.559s-9.96-4.299-9.96-9.638S10.546 4.14 15.9 4.14s9.992 4.219 9.992 9.918M15.9 21.617c4.31 0 7.805-3.384 7.805-7.559c0-4.174-3.494-7.558-7.805-7.558c-4.31 0-7.805 3.384-7.805 7.558c0 4.175 3.495 7.559 7.805 7.559" clip-rule="evenodd"/><path fill="url(#f419id7)" fill-rule="evenodd" d="M25.893 14.057c0 5.34-4.638 9.559-9.992 9.559s-9.96-4.299-9.96-9.638S10.546 4.14 15.9 4.14s9.992 4.219 9.992 9.918M15.9 21.617c4.31 0 7.805-3.384 7.805-7.559c0-4.174-3.494-7.558-7.805-7.558c-4.31 0-7.805 3.384-7.805 7.558c0 4.175 3.495 7.559 7.805 7.559" clip-rule="evenodd"/><path fill="url(#f419id8)" fill-rule="evenodd" d="M25.893 14.057c0 5.34-4.638 9.559-9.992 9.559s-9.96-4.299-9.96-9.638S10.546 4.14 15.9 4.14s9.992 4.219 9.992 9.918M15.9 21.617c4.31 0 7.805-3.384 7.805-7.559c0-4.174-3.494-7.558-7.805-7.558c-4.31 0-7.805 3.384-7.805 7.558c0 4.175 3.495 7.559 7.805 7.559" clip-rule="evenodd"/><path fill="url(#f419id9)" fill-rule="evenodd" d="M25.893 14.057c0 5.34-4.638 9.559-9.992 9.559s-9.96-4.299-9.96-9.638S10.546 4.14 15.9 4.14s9.992 4.219 9.992 9.918M15.9 21.617c4.31 0 7.805-3.384 7.805-7.559c0-4.174-3.494-7.558-7.805-7.558c-4.31 0-7.805 3.384-7.805 7.558c0 4.175 3.495 7.559 7.805 7.559" clip-rule="evenodd"/></g><g filter="url(#f419idz)"><ellipse cx="16" cy="13.961" stroke="url(#f419idr)" stroke-width=".4" rx="8.316" ry="8.054"/></g><g filter="url(#f419id10)"><path fill="url(#f419ids)" d="M28.058 2.83a1.05 1.05 0 1 1 1.484 1.486l-9.516 8.901l-.883-.898z"/></g><path fill="url(#f419ida)" d="M28.058 2.83a1.05 1.05 0 1 1 1.484 1.486l-9.516 8.901l-.883-.898z"/><g filter="url(#f419id11)"><path fill="#FEC0A1" d="M3.775 2.83a1.05 1.05 0 1 0-1.483 1.486l9.516 8.901l.883-.898z"/></g><path fill="url(#f419idb)" d="M3.775 2.83a1.05 1.05 0 1 0-1.483 1.486l9.516 8.901l.883-.898z"/><path fill="url(#f419idc)" d="M3.775 2.83a1.05 1.05 0 1 0-1.483 1.486l9.516 8.901l.883-.898z"/><g filter="url(#f419id12)"><path fill="#FDB595" d="M13.282 12.02a1.273 1.273 0 0 0-1.787 1.815l1.057 1.04a1.273 1.273 0 0 0 1.786-1.814z"/></g><path fill="url(#f419idd)" d="M13.282 12.02a1.273 1.273 0 0 0-1.787 1.815l1.057 1.04a1.273 1.273 0 0 0 1.786-1.814z"/><path fill="url(#f419idt)" d="M13.282 12.02a1.273 1.273 0 0 0-1.787 1.815l1.057 1.04a1.273 1.273 0 0 0 1.786-1.814z"/><path fill="url(#f419ide)" d="M13.282 12.02a1.273 1.273 0 0 0-1.787 1.815l1.057 1.04a1.273 1.273 0 0 0 1.786-1.814z"/><g filter="url(#f419id13)"><path fill="#FFBB98" d="M18.552 12.02a1.273 1.273 0 0 1 1.786 1.815l-1.057 1.04a1.273 1.273 0 0 1-1.786-1.814z"/></g><path fill="url(#f419idf)" d="M18.552 12.02a1.273 1.273 0 0 1 1.786 1.815l-1.057 1.04a1.273 1.273 0 0 1-1.786-1.814z"/><path fill="url(#f419idg)" d="M18.552 12.02a1.273 1.273 0 0 1 1.786 1.815l-1.057 1.04a1.273 1.273 0 0 1-1.786-1.814z"/><g filter="url(#f419id14)"><rect width="2.465" height=".698" x="12.703" y="11.933" fill="#FFE2AF" rx=".349" transform="rotate(43.887 12.703 11.933)"/></g><defs><radialGradient id="f419id0" cx="0" cy="0" r="1" gradientTransform="matrix(0 10.2091 -10.3073 0 15.925 14.14)" gradientUnits="userSpaceOnUse"><stop offset=".85" stop-color="#DB2156"/><stop offset="1" stop-color="#DB2156" stop-opacity="0"/></radialGradient><radialGradient id="f419id1" cx="0" cy="0" r="1" gradientTransform="matrix(9.53575 9.83608 -8.86135 8.59078 10.387 8.035)" gradientUnits="userSpaceOnUse"><stop offset=".158" stop-color="#FFE4D8"/><stop offset="1" stop-color="#FED8D0"/></radialGradient><radialGradient id="f419id2" cx="0" cy="0" r="1" gradientTransform="matrix(0 11.1776 -13.0978 0 15.9 10.44)" gradientUnits="userSpaceOnUse"><stop offset=".674" stop-color="#FFE4E3" stop-opacity="0"/><stop offset="1" stop-color="#FFE4E3"/></radialGradient><radialGradient id="f419id3" cx="0" cy="0" r="1" gradientTransform="rotate(53.625 -4.883 21.617)scale(9.55863 9.86984)" gradientUnits="userSpaceOnUse"><stop offset=".809" stop-color="#F9D6D5" stop-opacity="0"/><stop offset=".975" stop-color="#D2ABA8"/></radialGradient><radialGradient id="f419id4" cx="0" cy="0" r="1" gradientTransform="rotate(-71.168 26.912 6.371)scale(9.11912 18.5955)" gradientUnits="userSpaceOnUse"><stop offset=".188" stop-color="#B791D7"/><stop offset="1" stop-color="#D3C4E2"/></radialGradient><radialGradient id="f419id5" cx="0" cy="0" r="1" gradientTransform="matrix(10.11266 -4.71445 4.8298 10.3601 15.005 14.318)" gradientUnits="userSpaceOnUse"><stop offset=".868" stop-color="#D9C9D6" stop-opacity="0"/><stop offset=".98" stop-color="#F7EEF3"/></radialGradient><radialGradient id="f419id6" cx="0" cy="0" r="1" gradientTransform="rotate(40.601 -5.394 16.456)scale(1.73062 5.29515)" gradientUnits="userSpaceOnUse"><stop stop-color="#DFD1CA"/><stop offset="1" stop-color="#DFD1CA" stop-opacity="0"/></radialGradient><radialGradient id="f419id7" cx="0" cy="0" r="1" gradientTransform="rotate(127.776 1.713 6.963)scale(1.89988 8.29046)" gradientUnits="userSpaceOnUse"><stop stop-color="#9B7D91"/><stop offset="1" stop-color="#B29EAF" stop-opacity="0"/></radialGradient><radialGradient id="f419id8" cx="0" cy="0" r="1" gradientTransform="rotate(-132.51 13.414 -.837)scale(1.22229 3.77066)" gradientUnits="userSpaceOnUse"><stop offset=".009" stop-color="#A69690"/><stop offset="1" stop-color="#B9ACA8" stop-opacity="0"/></radialGradient><radialGradient id="f419id9" cx="0" cy="0" r="1" gradientTransform="matrix(2.4472 -7.34155 8.1297 2.7099 16.66 12.807)" gradientUnits="userSpaceOnUse"><stop offset=".816" stop-color="#B2969F"/><stop offset=".972" stop-color="#B2969F" stop-opacity="0"/></radialGradient><radialGradient id="f419ida" cx="0" cy="0" r="1" gradientTransform="rotate(136.302 14.188 7.47)scale(1.55262 1.84294)" gradientUnits="userSpaceOnUse"><stop stop-color="#FFE6B8"/><stop offset="1" stop-color="#FFC7A6" stop-opacity="0"/></radialGradient><radialGradient id="f419idb" cx="0" cy="0" r="1" gradientTransform="rotate(-135.931 6.046 2.58)scale(8.82917 6.01608)" gradientUnits="userSpaceOnUse"><stop offset=".878" stop-color="#D7AE81" stop-opacity="0"/><stop offset=".975" stop-color="#D7AE81"/></radialGradient><radialGradient id="f419idc" cx="0" cy="0" r="1" gradientTransform="rotate(-115.301 9.78 2.924)scale(1.90112 3.71029)" gradientUnits="userSpaceOnUse"><stop offset=".272" stop-color="#E39472"/><stop offset="1" stop-color="#E39472" stop-opacity="0"/></radialGradient><radialGradient id="f419idd" cx="0" cy="0" r="1" gradientTransform="matrix(-.0625 -1.3517 1.8939 -.08757 13.44 15.24)" gradientUnits="userSpaceOnUse"><stop stop-color="#DB8583"/><stop offset="1" stop-color="#DB8583" stop-opacity="0"/></radialGradient><radialGradient id="f419ide" cx="0" cy="0" r="1" gradientTransform="rotate(-134.519 10.099 4.28)scale(3.96672 4.03388)" gradientUnits="userSpaceOnUse"><stop offset=".697" stop-color="#E2A46F" stop-opacity="0"/><stop offset="1" stop-color="#E2A46F"/></radialGradient><radialGradient id="f419idf" cx="0" cy="0" r="1" gradientTransform="matrix(.24945 -1.7212 1.7931 .25987 18.157 15.667)" gradientUnits="userSpaceOnUse"><stop stop-color="#DA8181"/><stop offset="1" stop-color="#D58B6A" stop-opacity="0"/></radialGradient><radialGradient id="f419idg" cx="0" cy="0" r="1" gradientTransform="rotate(135.641 7.536 10.302)scale(1.50026 1.732)" gradientUnits="userSpaceOnUse"><stop offset=".115" stop-color="#FFE5B0"/><stop offset="1" stop-color="#FDC596" stop-opacity="0"/></radialGradient><linearGradient id="f419idh" x1="23.121" x2="10.199" y1="23.948" y2="23.948" gradientUnits="userSpaceOnUse"><stop stop-color="#F1469C"/><stop offset="1" stop-color="#CB235C"/></linearGradient><linearGradient id="f419idi" x1="5.51" x2="12.195" y1="18.91" y2="18.91" gradientUnits="userSpaceOnUse"><stop offset=".104" stop-color="#C8615D"/><stop offset="1" stop-color="#C8615D" stop-opacity="0"/></linearGradient><linearGradient id="f419idj" x1="8.565" x2="9.854" y1="23.795" y2="23.795" gradientUnits="userSpaceOnUse"><stop stop-color="#B497BF"/><stop offset="1" stop-color="#C19ED7"/></linearGradient><linearGradient id="f419idk" x1="15.534" x2="16.823" y1="24.779" y2="24.779" gradientUnits="userSpaceOnUse"><stop stop-color="#BA97D9"/><stop offset="1" stop-color="#CCA9ED"/></linearGradient><linearGradient id="f419idl" x1="22.503" x2="24.003" y1="23.795" y2="23.795" gradientUnits="userSpaceOnUse"><stop stop-color="#CAB4E1"/><stop offset="1" stop-color="#E5D1F9"/></linearGradient><linearGradient id="f419idm" x1="8.042" x2="9.51" y1="27.638" y2="28.577" gradientUnits="userSpaceOnUse"><stop stop-color="#CE9051"/><stop offset="1" stop-color="#CD8A4C"/></linearGradient><linearGradient id="f419idn" x1="8.042" x2="9.628" y1="21.545" y2="22.42" gradientUnits="userSpaceOnUse"><stop stop-color="#CE9051"/><stop offset="1" stop-color="#CD8A4C"/></linearGradient><linearGradient id="f419ido" x1="15.917" x2="15.917" y1="23.389" y2="25.17" gradientUnits="userSpaceOnUse"><stop offset=".246" stop-color="#E5A148"/><stop offset="1" stop-color="#D88E50"/></linearGradient><linearGradient id="f419idp" x1="17.182" x2="23.189" y1="14.755" y2="8.111" gradientUnits="userSpaceOnUse"><stop stop-color="#DAA9B3"/><stop offset="1" stop-color="#D6ADA7"/></linearGradient><linearGradient id="f419idq" x1="15.917" x2="15.917" y1="4.139" y2="23.616" gradientUnits="userSpaceOnUse"><stop stop-color="#CBC2C8"/><stop offset="1" stop-color="#D4C9DE"/></linearGradient><linearGradient id="f419idr" x1="9.113" x2="13.901" y1="18.953" y2="13.961" gradientUnits="userSpaceOnUse"><stop stop-color="#E6DCE6"/><stop offset="1" stop-color="#E6DCE6" stop-opacity="0"/></linearGradient><linearGradient id="f419ids" x1="23.865" x2="24.991" y1="7.172" y2="8.598" gradientUnits="userSpaceOnUse"><stop stop-color="#EBB589"/><stop offset="1" stop-color="#F5AD8E"/></linearGradient><linearGradient id="f419idt" x1="14.159" x2="13.346" y1="12.202" y2="13.045" gradientUnits="userSpaceOnUse"><stop stop-color="#FFDDA8"/><stop offset="1" stop-color="#FFDDA8" stop-opacity="0"/></linearGradient><filter id="f419idu" width="15.859" height="15.367" x="7.846" y="6.499" color-interpolation-filters="sRGB" filterUnits="userSpaceOnUse"><feFlood flood-opacity="0" result="BackgroundImageFix"/><feBlend in="SourceGraphic" in2="BackgroundImageFix" result="shape"/><feColorMatrix in="SourceAlpha" result="hardAlpha" values="0 0 0 0 0 0 0 0 0 0 0 0 0 0 0 0 0 0 127 0"/><feOffset dx="-.25" dy=".25"/><feGaussianBlur stdDeviation=".5"/><feComposite in2="hardAlpha" k2="-1" k3="1" operator="arithmetic"/><feColorMatrix values="0 0 0 0 0.866667 0 0 0 0 0.662745 0 0 0 0 0.690196 0 0 0 1 0"/><feBlend in2="shape" result="effect1_innerShadow_18_18924"/></filter><filter id="f419idv" width="8.748" height="9.241" x="6.184" y="8.597" color-interpolation-filters="sRGB" filterUnits="userSpaceOnUse"><feFlood flood-opacity="0" result="BackgroundImageFix"/><feBlend in="SourceGraphic" in2="BackgroundImageFix" result="shape"/><feGaussianBlur result="effect1_foregroundBlur_18_18924" stdDeviation=".75"/></filter><filter id="f419idw" width="10.084" height="10.613" x="14.417" y="6.887" color-interpolation-filters="sRGB" filterUnits="userSpaceOnUse"><feFlood flood-opacity="0" result="BackgroundImageFix"/><feBlend in="SourceGraphic" in2="BackgroundImageFix" result="shape"/><feGaussianBlur result="effect1_foregroundBlur_18_18924" stdDeviation=".75"/></filter><filter id="f419idx" width="19.95" height="9.883" x="5.942" y="20.412" color-interpolation-filters="sRGB" filterUnits="userSpaceOnUse"><feFlood flood-opacity="0" result="BackgroundImageFix"/><feBlend in="SourceGraphic" in2="BackgroundImageFix" result="shape"/><feColorMatrix in="SourceAlpha" result="hardAlpha" values="0 0 0 0 0 0 0 0 0 0 0 0 0 0 0 0 0 0 127 0"/><feOffset dy="-.1"/><feGaussianBlur stdDeviation=".15"/><feComposite in2="hardAlpha" k2="-1" k3="1" operator="arithmetic"/><feColorMatrix values="0 0 0 0 0.701961 0 0 0 0 0.533333 0 0 0 0 0.839216 0 0 0 1 0"/><feBlend in2="shape" result="effect1_innerShadow_18_18924"/></filter><filter id="f419idy" width="20.053" height="19.577" x="5.94" y="4.039" color-interpolation-filters="sRGB" filterUnits="userSpaceOnUse"><feFlood flood-opacity="0" result="BackgroundImageFix"/><feBlend in="SourceGraphic" in2="BackgroundImageFix" result="shape"/><feColorMatrix in="SourceAlpha" result="hardAlpha" values="0 0 0 0 0 0 0 0 0 0 0 0 0 0 0 0 0 0 127 0"/><feOffset dx=".1" dy="-.1"/><feGaussianBlur stdDeviation=".25"/><feComposite in2="hardAlpha" k2="-1" k3="1" operator="arithmetic"/><feColorMatrix values="0 0 0 0 0.631373 0 0 0 0 0.54902 0 0 0 0 0.556863 0 0 0 1 0"/><feBlend in2="shape" result="effect1_innerShadow_18_18924"/></filter><filter id="f419idz" width="17.832" height="17.308" x="7.084" y="5.308" color-interpolation-filters="sRGB" filterUnits="userSpaceOnUse"><feFlood flood-opacity="0" result="BackgroundImageFix"/><feBlend in="SourceGraphic" in2="BackgroundImageFix" result="shape"/><feGaussianBlur result="effect1_foregroundBlur_18_18924" stdDeviation=".2"/></filter><filter id="f419id10" width="11.032" height="11.019" x="18.993" y="2.348" color-interpolation-filters="sRGB" filterUnits="userSpaceOnUse"><feFlood flood-opacity="0" result="BackgroundImageFix"/><feBlend in="SourceGraphic" in2="BackgroundImageFix" result="shape"/><feColorMatrix in="SourceAlpha" result="hardAlpha" values="0 0 0 0 0 0 0 0 0 0 0 0 0 0 0 0 0 0 127 0"/><feOffset dx=".15" dy=".15"/><feGaussianBlur stdDeviation=".3"/><feComposite in2="hardAlpha" k2="-1" k3="1" operator="arithmetic"/><feColorMatrix values="0 0 0 0 0.831373 0 0 0 0 0.588235 0 0 0 0 0.427451 0 0 0 1 0"/><feBlend in2="shape" result="effect1_innerShadow_18_18924"/><feColorMatrix in="SourceAlpha" result="hardAlpha" values="0 0 0 0 0 0 0 0 0 0 0 0 0 0 0 0 0 0 127 0"/><feOffset dx="-.15" dy="-.15"/><feGaussianBlur stdDeviation=".3"/><feComposite in2="hardAlpha" k2="-1" k3="1" operator="arithmetic"/><feColorMatrix values="0 0 0 0 0.94902 0 0 0 0 0.682353 0 0 0 0 0.576471 0 0 0 1 0"/><feBlend in2="effect1_innerShadow_18_18924" result="effect2_innerShadow_18_18924"/></filter><filter id="f419id11" width="11.232" height="11.219" x="1.709" y="2.248" color-interpolation-filters="sRGB" filterUnits="userSpaceOnUse"><feFlood flood-opacity="0" result="BackgroundImageFix"/><feBlend in="SourceGraphic" in2="BackgroundImageFix" result="shape"/><feColorMatrix in="SourceAlpha" result="hardAlpha" values="0 0 0 0 0 0 0 0 0 0 0 0 0 0 0 0 0 0 127 0"/><feOffset dx=".25" dy="-.25"/><feGaussianBlur stdDeviation=".3"/><feComposite in2="hardAlpha" k2="-1" k3="1" operator="arithmetic"/><feColorMatrix values="0 0 0 0 0.858824 0 0 0 0 0.556863 0 0 0 0 0.490196 0 0 0 1 0"/><feBlend in2="shape" result="effect1_innerShadow_18_18924"/><feColorMatrix in="SourceAlpha" result="hardAlpha" values="0 0 0 0 0 0 0 0 0 0 0 0 0 0 0 0 0 0 127 0"/><feOffset dx="-.25" dy=".25"/><feGaussianBlur stdDeviation=".3"/><feComposite in2="hardAlpha" k2="-1" k3="1" operator="arithmetic"/><feColorMatrix values="0 0 0 0 1 0 0 0 0 0.917647 0 0 0 0 0.72549 0 0 0 1 0"/><feBlend in2="effect1_innerShadow_18_18924" result="effect2_innerShadow_18_18924"/></filter><filter id="f419id12" width="3.853" height="3.836" x="11.116" y="11.405" color-interpolation-filters="sRGB" filterUnits="userSpaceOnUse"><feFlood flood-opacity="0" result="BackgroundImageFix"/><feBlend in="SourceGraphic" in2="BackgroundImageFix" result="shape"/><feColorMatrix in="SourceAlpha" result="hardAlpha" values="0 0 0 0 0 0 0 0 0 0 0 0 0 0 0 0 0 0 127 0"/><feOffset dx=".25" dy="-.25"/><feGaussianBlur stdDeviation=".5"/><feComposite in2="hardAlpha" k2="-1" k3="1" operator="arithmetic"/><feColorMatrix values="0 0 0 0 0.862745 0 0 0 0 0.545098 0 0 0 0 0.501961 0 0 0 1 0"/><feBlend in2="shape" result="effect1_innerShadow_18_18924"/></filter><filter id="f419id13" width="4.003" height="3.986" x="17.115" y="11.255" color-interpolation-filters="sRGB" filterUnits="userSpaceOnUse"><feFlood flood-opacity="0" result="BackgroundImageFix"/><feBlend in="SourceGraphic" in2="BackgroundImageFix" result="shape"/><feColorMatrix in="SourceAlpha" result="hardAlpha" values="0 0 0 0 0 0 0 0 0 0 0 0 0 0 0 0 0 0 127 0"/><feOffset dx=".4" dy="-.4"/><feGaussianBlur stdDeviation=".5"/><feComposite in2="hardAlpha" k2="-1" k3="1" operator="arithmetic"/><feColorMatrix values="0 0 0 0 0.839216 0 0 0 0 0.533333 0 0 0 0 0.411765 0 0 0 1 0"/><feBlend in2="shape" result="effect1_innerShadow_18_18924"/></filter><filter id="f419id14" width="3.172" height="3.123" x="11.763" y="11.478" color-interpolation-filters="sRGB" filterUnits="userSpaceOnUse"><feFlood flood-opacity="0" result="BackgroundImageFix"/><feBlend in="SourceGraphic" in2="BackgroundImageFix" result="shape"/><feGaussianBlur result="effect1_foregroundBlur_18_18924" stdDeviation=".3"/></filter></defs></g></svg>