<svg xmlns="http://www.w3.org/2000/svg" xmlns:xlink="http://www.w3.org/1999/xlink" width="32" height="32" viewBox="0 0 32 32"><g fill="none"><g filter="url(#f445idi)"><path fill="url(#f445id0)" d="M12.558 2.953a.984.984 0 1 1 1.968 0v6.133a.984.984 0 0 1-1.968 0z"/></g><g filter="url(#f445idj)"><path fill="url(#f445id1)" d="M13.636 2.703a.281.281 0 0 1 .562 0v4.985a.281.281 0 1 1-.562 0z"/></g><g filter="url(#f445idk)"><path fill="url(#f445id2)" d="M17.526 2.953a.984.984 0 1 1 1.97 0v6.133a.984.984 0 1 1-1.97 0z"/></g><g filter="url(#f445idl)"><path fill="url(#f445id3)" d="M18.605 2.703a.281.281 0 1 1 .562 0v4.985a.281.281 0 1 1-.562 0z"/></g><path fill="url(#f445id4)" d="M14.532 22.289h2.988v7.641h-2.988z"/><path fill="url(#f445id5)" d="M14.532 22.289h2.988v7.641h-2.988z"/><path fill="url(#f445id6)" d="M14.532 22.289h2.988v7.641h-2.988z"/><path fill="url(#f445id7)" d="M13.534 16h4.985v5.922a1 1 0 0 1-1 1h-2.985a1 1 0 0 1-1-1z"/><path fill="url(#f445id8)" d="M13.534 16h4.985v5.922a1 1 0 0 1-1 1h-2.985a1 1 0 0 1-1-1z"/><path fill="url(#f445id9)" d="M13.534 16h4.985v5.922a1 1 0 0 1-1 1h-2.985a1 1 0 0 1-1-1z"/><path fill="url(#f445idr)" d="M13.534 16h4.985v5.922a1 1 0 0 1-1 1h-2.985a1 1 0 0 1-1-1z"/><path fill="url(#f445ids)" d="M13.534 16h4.985v5.922a1 1 0 0 1-1 1h-2.985a1 1 0 0 1-1-1z"/><path fill="url(#f445idt)" d="M10.558 7.828h10.937v5.36a5.469 5.469 0 1 1-10.937 0z"/><path fill="url(#f445ida)" d="M10.558 7.828h10.937v5.36a5.469 5.469 0 1 1-10.937 0z"/><path fill="url(#f445idu)" d="M10.558 7.828h10.937v5.36a5.469 5.469 0 1 1-10.937 0z"/><g filter="url(#f445idm)"><path fill="#544E5A" d="M16.976 9.016h3.493v4.269a1.746 1.746 0 0 1-3.493 0z"/></g><path fill="url(#f445idb)" d="M9.538 8.488c0-.83.673-1.504 1.504-1.504h9.969a1.504 1.504 0 1 1 0 3.008h-9.97c-.83 0-1.503-.673-1.503-1.504"/><path fill="url(#f445idv)" d="M9.538 8.488c0-.83.673-1.504 1.504-1.504h9.969a1.504 1.504 0 1 1 0 3.008h-9.97c-.83 0-1.503-.673-1.503-1.504"/><path fill="url(#f445idw)" d="M9.538 8.488c0-.83.673-1.504 1.504-1.504h9.969a1.504 1.504 0 1 1 0 3.008h-9.97c-.83 0-1.503-.673-1.503-1.504"/><g filter="url(#f445idn)"><path fill="url(#f445idc)" d="M14.105 11.473c0-.274.222-.496.496-.496h2.851a.496.496 0 1 1 0 .992h-2.851a.496.496 0 0 1-.497-.496"/></g><g filter="url(#f445ido)"><path fill="url(#f445idd)" d="M14.105 13.449c0-.274.222-.496.496-.496h2.851a.496.496 0 1 1 0 .992h-2.851a.496.496 0 0 1-.497-.496"/></g><g filter="url(#f445idp)"><rect width="3.252" height=".326" x="14.388" y="11.422" fill="url(#f445ide)" rx=".163"/><rect width="3.252" height=".326" x="14.388" y="11.422" fill="url(#f445idf)" rx=".163"/></g><g filter="url(#f445idq)"><rect width="3.252" height=".326" x="14.374" y="13.406" fill="url(#f445idg)" rx=".163"/><rect width="3.252" height=".326" x="14.374" y="13.406" fill="url(#f445idh)" rx=".163"/></g><defs><linearGradient id="f445id0" x1="13.542" x2="13.542" y1="1.969" y2="8.078" gradientUnits="userSpaceOnUse"><stop offset=".074" stop-color="#DBA572"/><stop offset="1" stop-color="#C1834B"/></linearGradient><linearGradient id="f445id1" x1="13.917" x2="13.917" y1="2.422" y2="7.969" gradientUnits="userSpaceOnUse"><stop stop-color="#F3C39A"/><stop offset="1" stop-color="#F3C39A" stop-opacity="0"/></linearGradient><linearGradient id="f445id2" x1="18.511" x2="18.511" y1="1.969" y2="8.078" gradientUnits="userSpaceOnUse"><stop offset=".074" stop-color="#DBA572"/><stop offset="1" stop-color="#C1834B"/></linearGradient><linearGradient id="f445id3" x1="18.886" x2="18.886" y1="2.422" y2="7.969" gradientUnits="userSpaceOnUse"><stop stop-color="#F3C39A"/><stop offset="1" stop-color="#F3C39A" stop-opacity="0"/></linearGradient><linearGradient id="f445id4" x1="15.226" x2="17.319" y1="28.578" y2="28.578" gradientUnits="userSpaceOnUse"><stop offset=".194" stop-color="#38333E"/><stop offset=".701" stop-color="#534F58"/></linearGradient><linearGradient id="f445id5" x1="17.585" x2="17.241" y1="29.328" y2="29.328" gradientUnits="userSpaceOnUse"><stop offset=".352" stop-color="#4E4B51"/><stop offset="1" stop-color="#4E4B51" stop-opacity="0"/></linearGradient><linearGradient id="f445id6" x1="14.532" x2="15.007" y1="29.328" y2="29.328" gradientUnits="userSpaceOnUse"><stop stop-color="#4F4D51"/><stop offset="1" stop-color="#4F4D51" stop-opacity="0"/></linearGradient><linearGradient id="f445id7" x1="17.57" x2="15.413" y1="21.984" y2="21.984" gradientUnits="userSpaceOnUse"><stop offset=".232" stop-color="#534E59"/><stop offset="1" stop-color="#36303D"/></linearGradient><linearGradient id="f445id8" x1="13.351" x2="14.413" y1="20.859" y2="20.859" gradientUnits="userSpaceOnUse"><stop stop-color="#504F52"/><stop offset="1" stop-color="#504F52" stop-opacity="0"/></linearGradient><linearGradient id="f445id9" x1="16.882" x2="16.882" y1="22.922" y2="21.766" gradientUnits="userSpaceOnUse"><stop offset=".311" stop-color="#392948"/><stop offset="1" stop-color="#392948" stop-opacity="0"/></linearGradient><linearGradient id="f445ida" x1="10.226" x2="13.069" y1="13.242" y2="13.242" gradientUnits="userSpaceOnUse"><stop stop-color="#4E4B51"/><stop offset="1" stop-color="#4E4B51" stop-opacity="0"/></linearGradient><linearGradient id="f445idb" x1="16.026" x2="16.026" y1="6.984" y2="9.992" gradientUnits="userSpaceOnUse"><stop stop-color="#3D3642"/><stop offset="1" stop-color="#382548"/></linearGradient><linearGradient id="f445idc" x1="16.21" x2="18.07" y1="11.473" y2="11.473" gradientUnits="userSpaceOnUse"><stop stop-color="#7D53C7"/><stop offset=".901" stop-color="#734CBD"/></linearGradient><linearGradient id="f445idd" x1="16.21" x2="18.07" y1="13.449" y2="13.449" gradientUnits="userSpaceOnUse"><stop stop-color="#7D53C7"/><stop offset=".901" stop-color="#734CBD"/></linearGradient><linearGradient id="f445ide" x1="17.64" x2="15.051" y1="11.748" y2="11.748" gradientUnits="userSpaceOnUse"><stop stop-color="#8F6DD2"/><stop offset="1" stop-color="#8F6DD2" stop-opacity="0"/></linearGradient><linearGradient id="f445idf" x1="14.475" x2="14.944" y1="11.673" y2="11.673" gradientUnits="userSpaceOnUse"><stop offset=".193" stop-color="#8F6DD2"/><stop offset="1" stop-color="#8F6DD2" stop-opacity="0"/></linearGradient><linearGradient id="f445idg" x1="17.626" x2="15.037" y1="13.732" y2="13.732" gradientUnits="userSpaceOnUse"><stop stop-color="#8F6DD2"/><stop offset="1" stop-color="#8F6DD2" stop-opacity="0"/></linearGradient><linearGradient id="f445idh" x1="14.461" x2="14.93" y1="13.657" y2="13.657" gradientUnits="userSpaceOnUse"><stop offset=".193" stop-color="#8F6DD2"/><stop offset="1" stop-color="#8F6DD2" stop-opacity="0"/></linearGradient><filter id="f445idi" width="2.069" height="8.202" x="12.558" y="1.869" color-interpolation-filters="sRGB" filterUnits="userSpaceOnUse"><feFlood flood-opacity="0" result="BackgroundImageFix"/><feBlend in="SourceGraphic" in2="BackgroundImageFix" result="shape"/><feColorMatrix in="SourceAlpha" result="hardAlpha" values="0 0 0 0 0 0 0 0 0 0 0 0 0 0 0 0 0 0 127 0"/><feOffset dx=".1" dy="-.1"/><feGaussianBlur stdDeviation=".25"/><feComposite in2="hardAlpha" k2="-1" k3="1" operator="arithmetic"/><feColorMatrix values="0 0 0 0 0.745098 0 0 0 0 0.498039 0 0 0 0 0.282353 0 0 0 1 0"/><feBlend in2="shape" result="effect1_innerShadow_18_19384"/></filter><filter id="f445idj" width="1.363" height="6.347" x="13.236" y="2.022" color-interpolation-filters="sRGB" filterUnits="userSpaceOnUse"><feFlood flood-opacity="0" result="BackgroundImageFix"/><feBlend in="SourceGraphic" in2="BackgroundImageFix" result="shape"/><feGaussianBlur result="effect1_foregroundBlur_18_19384" stdDeviation=".2"/></filter><filter id="f445idk" width="2.069" height="8.202" x="17.526" y="1.869" color-interpolation-filters="sRGB" filterUnits="userSpaceOnUse"><feFlood flood-opacity="0" result="BackgroundImageFix"/><feBlend in="SourceGraphic" in2="BackgroundImageFix" result="shape"/><feColorMatrix in="SourceAlpha" result="hardAlpha" values="0 0 0 0 0 0 0 0 0 0 0 0 0 0 0 0 0 0 127 0"/><feOffset dx=".1" dy="-.1"/><feGaussianBlur stdDeviation=".25"/><feComposite in2="hardAlpha" k2="-1" k3="1" operator="arithmetic"/><feColorMatrix values="0 0 0 0 0.72549 0 0 0 0 0.470588 0 0 0 0 0.27451 0 0 0 1 0"/><feBlend in2="shape" result="effect1_innerShadow_18_19384"/></filter><filter id="f445idl" width="1.363" height="6.347" x="18.204" y="2.022" color-interpolation-filters="sRGB" filterUnits="userSpaceOnUse"><feFlood flood-opacity="0" result="BackgroundImageFix"/><feBlend in="SourceGraphic" in2="BackgroundImageFix" result="shape"/><feGaussianBlur result="effect1_foregroundBlur_18_19384" stdDeviation=".2"/></filter><filter id="f445idm" width="7.493" height="10.016" x="14.976" y="7.016" color-interpolation-filters="sRGB" filterUnits="userSpaceOnUse"><feFlood flood-opacity="0" result="BackgroundImageFix"/><feBlend in="SourceGraphic" in2="BackgroundImageFix" result="shape"/><feGaussianBlur result="effect1_foregroundBlur_18_19384" stdDeviation="1"/></filter><filter id="f445idn" width="3.844" height="1.242" x="14.104" y="10.977" color-interpolation-filters="sRGB" filterUnits="userSpaceOnUse"><feFlood flood-opacity="0" result="BackgroundImageFix"/><feBlend in="SourceGraphic" in2="BackgroundImageFix" result="shape"/><feColorMatrix in="SourceAlpha" result="hardAlpha" values="0 0 0 0 0 0 0 0 0 0 0 0 0 0 0 0 0 0 127 0"/><feOffset dy=".25"/><feGaussianBlur stdDeviation=".25"/><feComposite in2="hardAlpha" k2="-1" k3="1" operator="arithmetic"/><feColorMatrix values="0 0 0 0 0.47451 0 0 0 0 0.305882 0 0 0 0 0.768627 0 0 0 1 0"/><feBlend in2="shape" result="effect1_innerShadow_18_19384"/></filter><filter id="f445ido" width="3.844" height="1.242" x="14.104" y="12.953" color-interpolation-filters="sRGB" filterUnits="userSpaceOnUse"><feFlood flood-opacity="0" result="BackgroundImageFix"/><feBlend in="SourceGraphic" in2="BackgroundImageFix" result="shape"/><feColorMatrix in="SourceAlpha" result="hardAlpha" values="0 0 0 0 0 0 0 0 0 0 0 0 0 0 0 0 0 0 127 0"/><feOffset dy=".25"/><feGaussianBlur stdDeviation=".25"/><feComposite in2="hardAlpha" k2="-1" k3="1" operator="arithmetic"/><feColorMatrix values="0 0 0 0 0.47451 0 0 0 0 0.305882 0 0 0 0 0.768627 0 0 0 1 0"/><feBlend in2="shape" result="effect1_innerShadow_18_19384"/></filter><filter id="f445idp" width="3.752" height=".826" x="14.138" y="11.172" color-interpolation-filters="sRGB" filterUnits="userSpaceOnUse"><feFlood flood-opacity="0" result="BackgroundImageFix"/><feBlend in="SourceGraphic" in2="BackgroundImageFix" result="shape"/><feGaussianBlur result="effect1_foregroundBlur_18_19384" stdDeviation=".125"/></filter><filter id="f445idq" width="3.752" height=".826" x="14.124" y="13.156" color-interpolation-filters="sRGB" filterUnits="userSpaceOnUse"><feFlood flood-opacity="0" result="BackgroundImageFix"/><feBlend in="SourceGraphic" in2="BackgroundImageFix" result="shape"/><feGaussianBlur result="effect1_foregroundBlur_18_19384" stdDeviation=".125"/></filter><radialGradient id="f445idr" cx="0" cy="0" r="1" gradientTransform="matrix(0 -.29688 2.60562 0 16.026 22.922)" gradientUnits="userSpaceOnUse"><stop stop-color="#2A1E35"/><stop offset="1" stop-color="#2A1E35" stop-opacity="0"/></radialGradient><radialGradient id="f445ids" cx="0" cy="0" r="1" gradientTransform="matrix(0 1.35938 -2.61327 0 16.026 17.64)" gradientUnits="userSpaceOnUse"><stop stop-color="#2B2234"/><stop offset="1" stop-color="#2B2234" stop-opacity="0"/></radialGradient><radialGradient id="f445idt" cx="0" cy="0" r="1" gradientTransform="matrix(0 -6.03125 9.84375 0 16.195 18.422)" gradientUnits="userSpaceOnUse"><stop offset=".171" stop-color="#352346"/><stop offset="1" stop-color="#393240"/></radialGradient><radialGradient id="f445idu" cx="0" cy="0" r="1" gradientTransform="matrix(0 .84375 -6.92563 0 16.026 9.578)" gradientUnits="userSpaceOnUse"><stop offset=".352" stop-color="#291E34"/><stop offset="1" stop-color="#291E34" stop-opacity="0"/></radialGradient><radialGradient id="f445idv" cx="0" cy="0" r="1" gradientTransform="matrix(3.9378 0 0 2.46875 9.538 8.234)" gradientUnits="userSpaceOnUse"><stop stop-color="#524F54"/><stop offset="1" stop-color="#524F54" stop-opacity="0"/></radialGradient><radialGradient id="f445idw" cx="0" cy="0" r="1" gradientTransform="matrix(0 1.3125 -5.66263 0 19.413 8.078)" gradientUnits="userSpaceOnUse"><stop stop-color="#635D69"/><stop offset="1" stop-color="#635D69" stop-opacity="0"/></radialGradient></defs></g></svg>