<svg xmlns="http://www.w3.org/2000/svg" xmlns:xlink="http://www.w3.org/1999/xlink" width="32" height="32" viewBox="0 0 32 32"><g fill="none"><g clip-path="url(#f473idl)"><path fill="url(#f473id0)" d="M15.999 29.998c9.334 0 13.999-6.268 13.999-14c0-7.73-4.665-13.998-14-13.998C6.665 2 2 8.268 2 15.999s4.664 13.999 13.999 13.999"/><path fill="url(#f473id1)" d="M15.999 29.998c9.334 0 13.999-6.268 13.999-14c0-7.73-4.665-13.998-14-13.998C6.665 2 2 8.268 2 15.999s4.664 13.999 13.999 13.999"/><path fill="url(#f473id2)" d="M15.999 29.998c9.334 0 13.999-6.268 13.999-14c0-7.73-4.665-13.998-14-13.998C6.665 2 2 8.268 2 15.999s4.664 13.999 13.999 13.999"/><path fill="url(#f473id3)" fill-opacity=".6" d="M15.999 29.998c9.334 0 13.999-6.268 13.999-14c0-7.73-4.665-13.998-14-13.998C6.665 2 2 8.268 2 15.999s4.664 13.999 13.999 13.999"/><path fill="url(#f473id4)" d="M15.999 29.998c9.334 0 13.999-6.268 13.999-14c0-7.73-4.665-13.998-14-13.998C6.665 2 2 8.268 2 15.999s4.664 13.999 13.999 13.999"/><path fill="url(#f473id5)" d="M15.999 29.998c9.334 0 13.999-6.268 13.999-14c0-7.73-4.665-13.998-14-13.998C6.665 2 2 8.268 2 15.999s4.664 13.999 13.999 13.999"/><path fill="url(#f473id6)" d="M15.999 29.998c9.334 0 13.999-6.268 13.999-14c0-7.73-4.665-13.998-14-13.998C6.665 2 2 8.268 2 15.999s4.664 13.999 13.999 13.999"/><path fill="url(#f473id7)" d="M15.999 29.998c9.334 0 13.999-6.268 13.999-14c0-7.73-4.665-13.998-14-13.998C6.665 2 2 8.268 2 15.999s4.664 13.999 13.999 13.999"/><path fill="url(#f473id8)" d="M7.5 23a6.5 6.5 0 1 0 0-13a6.5 6.5 0 0 0 0 13" opacity=".5"/><path fill="url(#f473id9)" d="M24.5 23a6.5 6.5 0 1 0 0-13a6.5 6.5 0 0 0 0 13" opacity=".5"/><g filter="url(#f473idh)" opacity=".5"><path stroke="#9A4609" stroke-linecap="round" stroke-width="2" d="M7.5 12.5s.25-2 2.5-2s2.5 2 2.5 2"/></g><g filter="url(#f473idi)" opacity=".5"><path stroke="#9A4609" stroke-linecap="round" stroke-width="2" d="M18.5 12.5s.5-2 2.5-2s2.5 2 2.5 2"/></g><path stroke="#43273B" stroke-linecap="round" stroke-linejoin="round" stroke-width="2" d="M8 12s.25-2 2.5-2s2.5 2 2.5 2"/><g filter="url(#f473idj)" opacity=".26"><path stroke="#fff" stroke-linecap="round" stroke-linejoin="round" stroke-width=".75" d="M8.25 11.75s.25-2 2.5-2s2.5 2 2.5 2"/></g><path stroke="#43273B" stroke-linecap="round" stroke-linejoin="round" stroke-width="2" d="M19 12s.5-2 2.5-2s2.5 2 2.5 2"/><g filter="url(#f473idk)" opacity=".26"><path stroke="#fff" stroke-linecap="round" stroke-linejoin="round" stroke-width=".75" d="M19.25 11.75s.25-2 2.5-2s2.5 2 2.5 2"/></g><path stroke="url(#f473ida)" stroke-linecap="round" stroke-linejoin="round" d="M6.5 9.5c.333-1 1.6-3 4-3"/><path stroke="url(#f473idb)" stroke-linecap="round" stroke-linejoin="round" d="M25.5 9.5c-.333-1-1.6-3-4-3"/><path fill="url(#f473idc)" d="M8 17.562a2 2 0 0 1 1.515-1.94l4.545-1.137a8 8 0 0 1 3.88 0l4.545 1.136A2 2 0 0 1 24 17.561v6.053a2 2 0 0 1-1.298 1.873l-1.084.406a16 16 0 0 1-11.236 0l-1.084-.406A2 2 0 0 1 8 23.614z"/><path fill="url(#f473idd)" fill-rule="evenodd" d="M3.523 23H9v-1H3.08q.203.512.443 1" clip-rule="evenodd"/><path fill="url(#f473ide)" fill-rule="evenodd" d="m2.167 13.523l6.063 3.898l.54-.842l-6.419-4.126a16 16 0 0 0-.184 1.07" clip-rule="evenodd"/><path fill="url(#f473idf)" fill-rule="evenodd" d="M29.647 12.454L23.23 16.58l.54.842l6.06-3.896q-.074-.544-.183-1.07" clip-rule="evenodd"/><path fill="url(#f473idg)" fill-rule="evenodd" d="M28.918 22H24v1h4.475q.24-.488.443-1" clip-rule="evenodd"/></g><defs><radialGradient id="f473id0" cx="0" cy="0" r="1" gradientTransform="rotate(132.839 10.786 10.065)scale(37.5033)" gradientUnits="userSpaceOnUse"><stop stop-color="#FFF478"/><stop offset=".475" stop-color="#FFB02E"/><stop offset="1" stop-color="#F70A8D"/></radialGradient><radialGradient id="f473id1" cx="0" cy="0" r="1" gradientTransform="rotate(131.878 10.74 10.193)scale(38.9487)" gradientUnits="userSpaceOnUse"><stop stop-color="#FFF478"/><stop offset=".475" stop-color="#FFB02E"/><stop offset="1" stop-color="#F70A8D"/></radialGradient><radialGradient id="f473id2" cx="0" cy="0" r="1" gradientTransform="rotate(101.31 2.876 12.808)scale(17.8466 22.8581)" gradientUnits="userSpaceOnUse"><stop offset=".788" stop-color="#F59639" stop-opacity="0"/><stop offset=".973" stop-color="#FF7DCE"/></radialGradient><radialGradient id="f473id3" cx="0" cy="0" r="1" gradientTransform="matrix(-29 29 -29 -29 18 14)" gradientUnits="userSpaceOnUse"><stop offset=".315" stop-opacity="0"/><stop offset="1"/></radialGradient><radialGradient id="f473id4" cx="0" cy="0" r="1" gradientTransform="rotate(77.692 -2.555 18.434)scale(28.1469)" gradientUnits="userSpaceOnUse"><stop offset=".508" stop-color="#7D6133" stop-opacity="0"/><stop offset="1" stop-color="#715B32"/></radialGradient><radialGradient id="f473id5" cx="0" cy="0" r="1" gradientTransform="matrix(7.5 10.99996 -7.97335 5.4364 16.5 16.5)" gradientUnits="userSpaceOnUse"><stop stop-color="#FFB849"/><stop offset="1" stop-color="#FFB847" stop-opacity="0"/></radialGradient><radialGradient id="f473id6" cx="0" cy="0" r="1" gradientTransform="matrix(11.49998 2 -2 11.49998 20.5 18)" gradientUnits="userSpaceOnUse"><stop stop-color="#FFA64B"/><stop offset=".9" stop-color="#FFAE46" stop-opacity="0"/></radialGradient><radialGradient id="f473id7" cx="0" cy="0" r="1" gradientTransform="rotate(43.971 -9.827 29.173)scale(59.0529)" gradientUnits="userSpaceOnUse"><stop offset=".185" stop-opacity="0"/><stop offset="1" stop-opacity=".4"/></radialGradient><radialGradient id="f473id8" cx="0" cy="0" r="1" gradientTransform="translate(7.505 16.501)scale(6.49487)" gradientUnits="userSpaceOnUse"><stop stop-color="#F70A8D" stop-opacity=".59"/><stop offset="1" stop-color="#FF6DC6" stop-opacity="0"/></radialGradient><radialGradient id="f473id9" cx="0" cy="0" r="1" gradientTransform="translate(24.505 16.501)scale(6.49487)" gradientUnits="userSpaceOnUse"><stop stop-color="#F70A8D" stop-opacity=".59"/><stop offset="1" stop-color="#FF6DC6" stop-opacity="0"/></radialGradient><linearGradient id="f473ida" x1="6.833" x2="6.833" y1="10.4" y2="8.6" gradientUnits="userSpaceOnUse"><stop offset=".03" stop-color="#524049"/><stop offset="1" stop-color="#4A2C42"/></linearGradient><linearGradient id="f473idb" x1="25.167" x2="25.167" y1="10.4" y2="8.6" gradientUnits="userSpaceOnUse"><stop offset=".03" stop-color="#524049"/><stop offset="1" stop-color="#4A2C42"/></linearGradient><linearGradient id="f473idc" x1="8.5" x2="24" y1="23.5" y2="17" gradientUnits="userSpaceOnUse"><stop stop-color="#DFB6FF"/><stop offset="1" stop-color="#F3EFF9"/></linearGradient><linearGradient id="f473idd" x1="3" x2="8" y1="22.5" y2="22.5" gradientUnits="userSpaceOnUse"><stop stop-color="#BB8FC3"/><stop offset="1" stop-color="#E1BBFF"/></linearGradient><linearGradient id="f473ide" x1="1.5" x2="8.5" y1="12.5" y2="17" gradientUnits="userSpaceOnUse"><stop stop-color="#D5A4A9"/><stop offset="1" stop-color="#E3C1FF"/></linearGradient><linearGradient id="f473idf" x1="24" x2="30.5" y1="16.5" y2="12.5" gradientUnits="userSpaceOnUse"><stop stop-color="#F3EDFA"/><stop offset="1" stop-color="#D7D7D7"/></linearGradient><linearGradient id="f473idg" x1="30" x2="25" y1="22.5" y2="22.5" gradientUnits="userSpaceOnUse"><stop stop-color="#E1CCF6"/><stop offset="1" stop-color="#F1E7FA"/></linearGradient><filter id="f473idh" width="10" height="7" x="5" y="8" color-interpolation-filters="sRGB" filterUnits="userSpaceOnUse"><feFlood flood-opacity="0" result="BackgroundImageFix"/><feBlend in="SourceGraphic" in2="BackgroundImageFix" result="shape"/><feGaussianBlur result="effect1_foregroundBlur_31_96" stdDeviation=".75"/></filter><filter id="f473idi" width="10.001" height="7" x="16" y="8" color-interpolation-filters="sRGB" filterUnits="userSpaceOnUse"><feFlood flood-opacity="0" result="BackgroundImageFix"/><feBlend in="SourceGraphic" in2="BackgroundImageFix" result="shape"/><feGaussianBlur result="effect1_foregroundBlur_31_96" stdDeviation=".75"/></filter><filter id="f473idj" width="8.75" height="5.75" x="6.375" y="7.875" color-interpolation-filters="sRGB" filterUnits="userSpaceOnUse"><feFlood flood-opacity="0" result="BackgroundImageFix"/><feBlend in="SourceGraphic" in2="BackgroundImageFix" result="shape"/><feGaussianBlur result="effect1_foregroundBlur_31_96" stdDeviation=".75"/></filter><filter id="f473idk" width="8.75" height="5.75" x="17.375" y="7.875" color-interpolation-filters="sRGB" filterUnits="userSpaceOnUse"><feFlood flood-opacity="0" result="BackgroundImageFix"/><feBlend in="SourceGraphic" in2="BackgroundImageFix" result="shape"/><feGaussianBlur result="effect1_foregroundBlur_31_96" stdDeviation=".75"/></filter><clipPath id="f473idl"><path fill="#fff" d="M0 0h32v32H0z"/></clipPath></defs></g></svg>