<svg xmlns="http://www.w3.org/2000/svg" xmlns:xlink="http://www.w3.org/1999/xlink" width="32" height="32" viewBox="0 0 32 32"><g fill="none"><g filter="url(#f480idb)"><path fill="url(#f480idi)" d="M16.007 29.998c9.335 0 14-6.268 14-14c0-7.73-4.665-13.998-14-13.998C6.673 2 2.008 8.268 2.008 15.999s4.665 13.999 14 13.999"/></g><path fill="url(#f480idj)" d="M16.007 29.998c-9.334 0-13.999-6.268-13.999-14C2.008 8.269 6.673 2 16.008 2c9.334 0 13.998 6.268 13.998 13.999s-4.664 13.999-13.999 13.999"/><g filter="url(#f480idc)"><path stroke="#B87506" stroke-linecap="round" stroke-linejoin="round" stroke-miterlimit="10" stroke-width="1.5" d="M26.29 13.976c-.41-2.6-2.84-4.87-5.73-4.24c-2.31.5-3.78 2.78-3.28 5.09a3.42 3.42 0 0 0 4.07 2.62a2.74 2.74 0 0 0 2.1-3.26c-.26-1.18-1.23-1.83-2.41-1.58c-.95.2-1.31 1.85-.38 2.13"/></g><g filter="url(#f480idd)"><path stroke="#B56318" stroke-linecap="round" stroke-linejoin="round" stroke-miterlimit="10" stroke-width="1.5" d="M4.29 13.976c.41-2.6 2.84-4.87 5.73-4.24c2.31.5 3.78 2.78 3.28 5.09a3.42 3.42 0 0 1-4.07 2.62a2.74 2.74 0 0 1-2.1-3.26c.26-1.18 1.23-1.83 2.41-1.58c.95.2 1.31 1.85.38 2.13"/></g><path stroke="url(#f480idk)" stroke-linecap="round" stroke-linejoin="round" stroke-miterlimit="10" stroke-width="2" d="M26.978 13.32c-.41-2.6-2.84-4.87-5.73-4.24c-2.31.5-3.78 2.78-3.28 5.09a3.42 3.42 0 0 0 4.07 2.62a2.74 2.74 0 0 0 2.1-3.26c-.26-1.18-1.23-1.83-2.41-1.58c-.95.2-1.31 1.85-.38 2.13"/><path stroke="url(#f480id0)" stroke-linecap="round" stroke-linejoin="round" stroke-miterlimit="10" stroke-width="2" d="M26.978 13.32c-.41-2.6-2.84-4.87-5.73-4.24c-2.31.5-3.78 2.78-3.28 5.09a3.42 3.42 0 0 0 4.07 2.62a2.74 2.74 0 0 0 2.1-3.26c-.26-1.18-1.23-1.83-2.41-1.58c-.95.2-1.31 1.85-.38 2.13"/><path stroke="url(#f480id1)" stroke-linecap="round" stroke-linejoin="round" stroke-miterlimit="10" stroke-width="2" d="M26.978 13.32c-.41-2.6-2.84-4.87-5.73-4.24c-2.31.5-3.78 2.78-3.28 5.09a3.42 3.42 0 0 0 4.07 2.62a2.74 2.74 0 0 0 2.1-3.26c-.26-1.18-1.23-1.83-2.41-1.58c-.95.2-1.31 1.85-.38 2.13"/><path stroke="url(#f480idl)" stroke-linecap="round" stroke-linejoin="round" stroke-miterlimit="10" stroke-width="2" d="M4.978 13.32c.41-2.6 2.84-4.87 5.73-4.24c2.31.5 3.78 2.78 3.28 5.09a3.42 3.42 0 0 1-4.07 2.62a2.74 2.74 0 0 1-2.1-3.26c.26-1.18 1.23-1.83 2.41-1.58c.95.2 1.31 1.85.38 2.13"/><path stroke="url(#f480id2)" stroke-linecap="round" stroke-linejoin="round" stroke-miterlimit="10" stroke-width="2" d="M4.978 13.32c.41-2.6 2.84-4.87 5.73-4.24c2.31.5 3.78 2.78 3.28 5.09a3.42 3.42 0 0 1-4.07 2.62a2.74 2.74 0 0 1-2.1-3.26c.26-1.18 1.23-1.83 2.41-1.58c.95.2 1.31 1.85.38 2.13"/><path stroke="url(#f480id3)" stroke-linecap="round" stroke-linejoin="round" stroke-miterlimit="10" stroke-width="2" d="M4.978 13.32c.41-2.6 2.84-4.87 5.73-4.24c2.31.5 3.78 2.78 3.28 5.09a3.42 3.42 0 0 1-4.07 2.62a2.74 2.74 0 0 1-2.1-3.26c.26-1.18 1.23-1.83 2.41-1.58c.95.2 1.31 1.85.38 2.13"/><g filter="url(#f480ide)"><path stroke="#694C5E" stroke-linecap="round" stroke-linejoin="round" stroke-width=".4" d="M26.978 13.32c-.41-2.6-2.84-4.87-5.73-4.24c-2.31.5-3.78 2.78-3.28 5.09a3.42 3.42 0 0 0 4.07 2.62a2.74 2.74 0 0 0 2.1-3.26c-.26-1.18-1.23-1.83-2.41-1.58c-.95.2-1.31 1.85-.38 2.13"/></g><g filter="url(#f480idf)"><path stroke="#694C5E" stroke-linecap="round" stroke-linejoin="round" stroke-width=".4" d="M4.978 13.32c.41-2.6 2.84-4.87 5.73-4.24c2.31.5 3.78 2.78 3.28 5.09a3.42 3.42 0 0 1-4.07 2.62a2.74 2.74 0 0 1-2.1-3.26c.26-1.18 1.23-1.83 2.41-1.58c.95.2 1.31 1.85.38 2.13"/></g><g filter="url(#f480idg)"><path stroke="#CD6256" stroke-linecap="round" stroke-linejoin="round" stroke-width="1.5" d="m12.873 23.088l2.392 2.002m2.719-2.329l2.392 2.002"/></g><path stroke="url(#f480id4)" stroke-linecap="round" stroke-linejoin="round" stroke-width="2" d="m7.854 22.45l2.396 2.005"/><path stroke="url(#f480id5)" stroke-linecap="round" stroke-linejoin="round" stroke-width="2" d="m10.25 24.455l2.768-2.329"/><path stroke="url(#f480id6)" stroke-linecap="round" stroke-linejoin="round" stroke-width="2" d="m13.13 22.051l2.871 2.405"/><path stroke="url(#f480id7)" stroke-linecap="round" stroke-linejoin="round" stroke-width="2" d="M18.87 22.051L16 24.456"/><path stroke="url(#f480id8)" stroke-linecap="round" stroke-linejoin="round" stroke-width="2" d="m18.87 22.051l2.871 2.405"/><path stroke="url(#f480id9)" stroke-linecap="round" stroke-linejoin="round" stroke-width="2" d="m24.161 22.427l-2.41 2.028"/><path stroke="url(#f480ida)" stroke-linecap="round" stroke-linejoin="round" stroke-width="2" d="m7.854 22.45l2.396 2.005l2.876-2.406L16 24.455l2.876-2.406l2.875 2.406l2.396-2.005"/><g filter="url(#f480idh)"><path stroke="#694C5E" stroke-linecap="round" stroke-linejoin="round" stroke-width=".5" d="m7.854 22.45l2.396 2.005l2.876-2.406L16 24.455l2.876-2.406l2.875 2.406l2.396-2.005"/></g><defs><linearGradient id="f480id0" x1="25.303" x2="25.303" y1="18.815" y2="15.627" gradientUnits="userSpaceOnUse"><stop stop-color="#633563"/><stop offset=".573" stop-color="#633563" stop-opacity="0"/></linearGradient><linearGradient id="f480id1" x1="27.928" x2="23.803" y1="8.252" y2="14.127" gradientUnits="userSpaceOnUse"><stop stop-color="#5A4B4E"/><stop offset="1" stop-color="#5A4B4E" stop-opacity="0"/></linearGradient><linearGradient id="f480id2" x1="6.654" x2="6.654" y1="18.815" y2="15.627" gradientUnits="userSpaceOnUse"><stop stop-color="#633563"/><stop offset=".573" stop-color="#633563" stop-opacity="0"/></linearGradient><linearGradient id="f480id3" x1="4.029" x2="8.154" y1="8.252" y2="14.127" gradientUnits="userSpaceOnUse"><stop stop-color="#5A4B4E"/><stop offset="1" stop-color="#5A4B4E" stop-opacity="0"/></linearGradient><linearGradient id="f480id4" x1="7.432" x2="11.244" y1="23.818" y2="19.263" gradientUnits="userSpaceOnUse"><stop stop-color="#482641"/><stop offset=".323" stop-color="#57434E"/><stop offset=".438" stop-color="#483637"/></linearGradient><linearGradient id="f480id5" x1="11.745" x2="8.82" y1="24.695" y2="21.126" gradientUnits="userSpaceOnUse"><stop offset=".02" stop-color="#482641"/><stop offset=".323" stop-color="#57434E"/><stop offset=".464" stop-color="#483637"/></linearGradient><linearGradient id="f480id6" x1="12.931" x2="15.94" y1="23.391" y2="19.869" gradientUnits="userSpaceOnUse"><stop offset=".02" stop-color="#482641"/><stop offset=".323" stop-color="#57434E"/><stop offset=".464" stop-color="#483637"/></linearGradient><linearGradient id="f480id7" x1="19.07" x2="16.061" y1="23.391" y2="19.869" gradientUnits="userSpaceOnUse"><stop offset=".02" stop-color="#482641"/><stop offset=".323" stop-color="#57434E"/><stop offset=".464" stop-color="#483637"/></linearGradient><linearGradient id="f480id8" x1="18.671" x2="21.68" y1="23.391" y2="19.869" gradientUnits="userSpaceOnUse"><stop offset=".02" stop-color="#482641"/><stop offset=".323" stop-color="#57434E"/><stop offset=".464" stop-color="#483637"/></linearGradient><linearGradient id="f480id9" x1="24.821" x2="21.812" y1="23.39" y2="19.869" gradientUnits="userSpaceOnUse"><stop offset=".02" stop-color="#482641"/><stop offset=".323" stop-color="#57434E"/><stop offset=".464" stop-color="#483637"/></linearGradient><linearGradient id="f480ida" x1="16.001" x2="16.001" y1="25.56" y2="24.006" gradientUnits="userSpaceOnUse"><stop stop-color="#53265E"/><stop offset="1" stop-color="#53265E" stop-opacity="0"/></linearGradient><filter id="f480idb" width="29.998" height="29.998" x="2.008" y="0" color-interpolation-filters="sRGB" filterUnits="userSpaceOnUse"><feFlood flood-opacity="0" result="BackgroundImageFix"/><feBlend in="SourceGraphic" in2="BackgroundImageFix" result="shape"/><feColorMatrix in="SourceAlpha" result="hardAlpha" values="0 0 0 0 0 0 0 0 0 0 0 0 0 0 0 0 0 0 127 0"/><feOffset dx="2" dy="-2"/><feGaussianBlur stdDeviation="2"/><feComposite in2="hardAlpha" k2="-1" k3="1" operator="arithmetic"/><feColorMatrix values="0 0 0 0 0 0 0 0 0 0 0 0 0 0 0 0 0 0 0.08 0"/><feBlend in2="shape" result="effect1_innerShadow_7320_6152"/></filter><filter id="f480idc" width="12.608" height="11.397" x="15.433" y="7.878" color-interpolation-filters="sRGB" filterUnits="userSpaceOnUse"><feFlood flood-opacity="0" result="BackgroundImageFix"/><feBlend in="SourceGraphic" in2="BackgroundImageFix" result="shape"/><feGaussianBlur result="effect1_foregroundBlur_7320_6152" stdDeviation=".5"/></filter><filter id="f480idd" width="12.608" height="11.397" x="2.541" y="7.878" color-interpolation-filters="sRGB" filterUnits="userSpaceOnUse"><feFlood flood-opacity="0" result="BackgroundImageFix"/><feBlend in="SourceGraphic" in2="BackgroundImageFix" result="shape"/><feGaussianBlur result="effect1_foregroundBlur_7320_6152" stdDeviation=".5"/></filter><filter id="f480ide" width="10.708" height="9.495" x="17.071" y="8.173" color-interpolation-filters="sRGB" filterUnits="userSpaceOnUse"><feFlood flood-opacity="0" result="BackgroundImageFix"/><feBlend in="SourceGraphic" in2="BackgroundImageFix" result="shape"/><feGaussianBlur result="effect1_foregroundBlur_7320_6152" stdDeviation=".3"/></filter><filter id="f480idf" width="10.708" height="9.495" x="4.178" y="8.173" color-interpolation-filters="sRGB" filterUnits="userSpaceOnUse"><feFlood flood-opacity="0" result="BackgroundImageFix"/><feBlend in="SourceGraphic" in2="BackgroundImageFix" result="shape"/><feGaussianBlur result="effect1_foregroundBlur_7320_6152" stdDeviation=".3"/></filter><filter id="f480idg" width="12.004" height="6.828" x="10.623" y="20.511" color-interpolation-filters="sRGB" filterUnits="userSpaceOnUse"><feFlood flood-opacity="0" result="BackgroundImageFix"/><feBlend in="SourceGraphic" in2="BackgroundImageFix" result="shape"/><feGaussianBlur result="effect1_foregroundBlur_7320_6152" stdDeviation=".75"/></filter><filter id="f480idh" width="18.295" height="4.406" x="6.854" y="21.049" color-interpolation-filters="sRGB" filterUnits="userSpaceOnUse"><feFlood flood-opacity="0" result="BackgroundImageFix"/><feBlend in="SourceGraphic" in2="BackgroundImageFix" result="shape"/><feGaussianBlur result="effect1_foregroundBlur_7320_6152" stdDeviation=".375"/></filter><radialGradient id="f480idi" cx="0" cy="0" r="1" gradientTransform="rotate(132.839 10.79 10.067)scale(37.5033)" gradientUnits="userSpaceOnUse"><stop stop-color="#FFF478"/><stop offset=".475" stop-color="#FFB02E"/><stop offset="1" stop-color="#F70A8D"/></radialGradient><radialGradient id="f480idj" cx="0" cy="0" r="1" gradientTransform="rotate(90 1.753 14.253)scale(17.8854)" gradientUnits="userSpaceOnUse"><stop offset=".824" stop-color="#F59639" stop-opacity="0"/><stop offset="1" stop-color="#FF63C4"/></radialGradient><radialGradient id="f480idk" cx="0" cy="0" r="1" gradientTransform="rotate(-119.993 15.044 .628)scale(5.37618 7.49908)" gradientUnits="userSpaceOnUse"><stop offset=".02" stop-color="#482641"/><stop offset="1" stop-color="#483637"/></radialGradient><radialGradient id="f480idl" cx="0" cy="0" r="1" gradientTransform="rotate(-60.007 17.065 -1.617)scale(5.37618 7.49908)" gradientUnits="userSpaceOnUse"><stop offset=".02" stop-color="#482641"/><stop offset="1" stop-color="#483637"/></radialGradient></defs></g></svg>