<svg xmlns="http://www.w3.org/2000/svg" xmlns:xlink="http://www.w3.org/1999/xlink" width="32" height="32" viewBox="0 0 32 32"><g fill="none"><path fill="url(#f629id0)" d="M15.999 29.998c9.334 0 13.999-6.268 13.999-14c0-7.73-4.665-13.998-14-13.998C6.665 2 2 8.268 2 15.999s4.664 13.999 13.999 13.999"/><path fill="url(#f629id1)" d="M15.999 29.998c9.334 0 13.999-6.268 13.999-14c0-7.73-4.665-13.998-14-13.998C6.665 2 2 8.268 2 15.999s4.664 13.999 13.999 13.999"/><path fill="url(#f629id2)" d="M15.999 29.998c9.334 0 13.999-6.268 13.999-14c0-7.73-4.665-13.998-14-13.998C6.665 2 2 8.268 2 15.999s4.664 13.999 13.999 13.999"/><path fill="url(#f629id3)" fill-opacity=".6" d="M15.999 29.998c9.334 0 13.999-6.268 13.999-14c0-7.73-4.665-13.998-14-13.998C6.665 2 2 8.268 2 15.999s4.664 13.999 13.999 13.999"/><path fill="url(#f629id4)" d="M15.999 29.998c9.334 0 13.999-6.268 13.999-14c0-7.73-4.665-13.998-14-13.998C6.665 2 2 8.268 2 15.999s4.664 13.999 13.999 13.999"/><path fill="url(#f629id5)" d="M15.999 29.998c9.334 0 13.999-6.268 13.999-14c0-7.73-4.665-13.998-14-13.998C6.665 2 2 8.268 2 15.999s4.664 13.999 13.999 13.999"/><path fill="url(#f629id6)" d="M15.999 29.998c9.334 0 13.999-6.268 13.999-14c0-7.73-4.665-13.998-14-13.998C6.665 2 2 8.268 2 15.999s4.664 13.999 13.999 13.999"/><path fill="url(#f629id7)" d="M15.999 29.998c9.334 0 13.999-6.268 13.999-14c0-7.73-4.665-13.998-14-13.998C6.665 2 2 8.268 2 15.999s4.664 13.999 13.999 13.999"/><circle cx="9" cy="13" r="5" fill="url(#f629id8)"/><circle cx="19.5" cy="13.5" r="4.5" fill="url(#f629id9)"/><path fill="#fff" d="M10.5 16a4.5 4.5 0 1 0 0-9a4.5 4.5 0 0 0 0 9m11 0a4.5 4.5 0 1 0 0-9a4.5 4.5 0 0 0 0 9"/><path fill="url(#f629idd)" d="M12 14a2 2 0 1 0 0-4a2 2 0 0 0 0 4"/><path fill="url(#f629ide)" d="M20 14a2 2 0 1 0 0-4a2 2 0 0 0 0 4"/><rect width="16" height="6" x="8" y="19" fill="url(#f629ida)" rx="3"/><path fill="url(#f629idb)" fill-rule="evenodd" d="M23 19.764v.736a1 1 0 0 1-1 1H10a1 1 0 0 1-1-1v-.736A3 3 0 0 1 11 19h10c.768 0 1.47.289 2 .764" clip-rule="evenodd"/><path fill="url(#f629idf)" fill-rule="evenodd" d="M23 19.764v.736a1 1 0 0 1-1 1H10a1 1 0 0 1-1-1v-.736A3 3 0 0 1 11 19h10c.768 0 1.47.289 2 .764" clip-rule="evenodd"/><path fill="url(#f629idc)" fill-rule="evenodd" d="M23 24.236A3 3 0 0 1 21 25H11c-.768 0-1.47-.289-2-.764V23.5a1 1 0 0 1 1-1h12a1 1 0 0 1 1 1z" clip-rule="evenodd"/><defs><radialGradient id="f629id0" cx="0" cy="0" r="1" gradientTransform="rotate(132.839 10.786 10.065)scale(37.5033)" gradientUnits="userSpaceOnUse"><stop stop-color="#FFF478"/><stop offset=".475" stop-color="#FFB02E"/><stop offset="1" stop-color="#F70A8D"/></radialGradient><radialGradient id="f629id1" cx="0" cy="0" r="1" gradientTransform="rotate(131.878 10.74 10.193)scale(38.9487)" gradientUnits="userSpaceOnUse"><stop stop-color="#FFF478"/><stop offset=".475" stop-color="#FFB02E"/><stop offset="1" stop-color="#F70A8D"/></radialGradient><radialGradient id="f629id2" cx="0" cy="0" r="1" gradientTransform="rotate(101.31 2.876 12.808)scale(17.8466 22.8581)" gradientUnits="userSpaceOnUse"><stop offset=".788" stop-color="#F59639" stop-opacity="0"/><stop offset=".973" stop-color="#FF7DCE"/></radialGradient><radialGradient id="f629id3" cx="0" cy="0" r="1" gradientTransform="matrix(-29 29 -29 -29 18 14)" gradientUnits="userSpaceOnUse"><stop offset=".315" stop-opacity="0"/><stop offset="1"/></radialGradient><radialGradient id="f629id4" cx="0" cy="0" r="1" gradientTransform="rotate(77.692 -2.555 18.434)scale(28.1469)" gradientUnits="userSpaceOnUse"><stop offset=".508" stop-color="#7D6133" stop-opacity="0"/><stop offset="1" stop-color="#715B32"/></radialGradient><radialGradient id="f629id5" cx="0" cy="0" r="1" gradientTransform="matrix(7.5 10.99996 -7.97335 5.4364 16.5 16.5)" gradientUnits="userSpaceOnUse"><stop stop-color="#FFB849"/><stop offset="1" stop-color="#FFB847" stop-opacity="0"/></radialGradient><radialGradient id="f629id6" cx="0" cy="0" r="1" gradientTransform="matrix(11.49998 2 -2 11.49998 20.5 18)" gradientUnits="userSpaceOnUse"><stop stop-color="#FFA64B"/><stop offset=".9" stop-color="#FFAE46" stop-opacity="0"/></radialGradient><radialGradient id="f629id7" cx="0" cy="0" r="1" gradientTransform="rotate(43.971 -9.827 29.173)scale(59.0529)" gradientUnits="userSpaceOnUse"><stop offset=".185" stop-opacity="0"/><stop offset="1" stop-opacity=".4"/></radialGradient><radialGradient id="f629id8" cx="0" cy="0" r="1" gradientTransform="rotate(135 4.557 7.225)scale(9.74236 5.04232)" gradientUnits="userSpaceOnUse"><stop stop-color="#392108"/><stop offset="1" stop-color="#C87928" stop-opacity="0"/></radialGradient><radialGradient id="f629id9" cx="0" cy="0" r="1" gradientTransform="matrix(-5.75 5.75 -3.24597 -3.24597 23 10)" gradientUnits="userSpaceOnUse"><stop stop-color="#392108"/><stop offset="1" stop-color="#C87928" stop-opacity="0"/></radialGradient><radialGradient id="f629ida" cx="0" cy="0" r="1" gradientTransform="matrix(0 -7.5 20 0 16 25)" gradientUnits="userSpaceOnUse"><stop stop-color="#F70A8D"/><stop offset="1" stop-color="#89029C"/></radialGradient><radialGradient id="f629idb" cx="0" cy="0" r="1" gradientTransform="rotate(141.546 7 12.536)scale(8.44211 8.28716)" gradientUnits="userSpaceOnUse"><stop stop-color="#fff"/><stop offset="1" stop-color="#ECCDFF"/></radialGradient><radialGradient id="f629idc" cx="0" cy="0" r="1" gradientTransform="rotate(141.546 6.39 14.286)scale(8.44211 8.28716)" gradientUnits="userSpaceOnUse"><stop stop-color="#fff"/><stop offset="1" stop-color="#ECCDFF"/></radialGradient><linearGradient id="f629idd" x1="20.615" x2="19.927" y1="10" y2="14.03" gradientUnits="userSpaceOnUse"><stop stop-color="#553B3E"/><stop offset="1" stop-color="#3D2432"/></linearGradient><linearGradient id="f629ide" x1="20.615" x2="19.927" y1="10" y2="14.03" gradientUnits="userSpaceOnUse"><stop stop-color="#553B3E"/><stop offset="1" stop-color="#3D2432"/></linearGradient><linearGradient id="f629idf" x1="16" x2="16" y1="21" y2="21.75" gradientUnits="userSpaceOnUse"><stop stop-color="#E181F4" stop-opacity="0"/><stop offset="1" stop-color="#E181F4"/></linearGradient></defs></g></svg>