<svg xmlns="http://www.w3.org/2000/svg" xmlns:xlink="http://www.w3.org/1999/xlink" width="32" height="32" viewBox="0 0 32 32"><g fill="none"><path fill="#986AB2" d="M7.003 13.288C5.226 13.678 5.5 16 4 16v2l.479 11.49a.532.532 0 0 0 1.062.022l.92-11.035a.52.52 0 0 1 1.04.043v10.96a.52.52 0 0 0 1.04.043l.92-11.045a.52.52 0 0 1 1.04.043v10.958a.52.52 0 0 0 1.04.043l.918-11.034a.532.532 0 0 1 1.062.022l.458 10.99a.521.521 0 0 0 1.042 0l.458-11a.521.521 0 0 1 1.042 0l.458 11a.521.521 0 0 0 1.042 0l.458-10.99a.532.532 0 0 1 1.062-.022l.92 11.035a.52.52 0 0 0 1.04-.043V18.52a.52.52 0 0 1 1.04-.043l.92 11.046a.52.52 0 0 0 1.04-.043V18.52a.52.52 0 0 1 1.04-.043l.918 11.035a.532.532 0 0 0 1.062-.022L28 18v-2c-1.5 0-1.226-2.322-3.003-2.712C22.381 12.713 18.607 12 16 12s-6.381.713-8.997 1.288"/><path fill="url(#f646id0)" d="M7.003 13.288C5.226 13.678 5.5 16 4 16v2l.479 11.49a.532.532 0 0 0 1.062.022l.92-11.035a.52.52 0 0 1 1.04.043v10.96a.52.52 0 0 0 1.04.043l.92-11.045a.52.52 0 0 1 1.04.043v10.958a.52.52 0 0 0 1.04.043l.918-11.034a.532.532 0 0 1 1.062.022l.458 10.99a.521.521 0 0 0 1.042 0l.458-11a.521.521 0 0 1 1.042 0l.458 11a.521.521 0 0 0 1.042 0l.458-10.99a.532.532 0 0 1 1.062-.022l.92 11.035a.52.52 0 0 0 1.04-.043V18.52a.52.52 0 0 1 1.04-.043l.92 11.046a.52.52 0 0 0 1.04-.043V18.52a.52.52 0 0 1 1.04-.043l.918 11.035a.532.532 0 0 0 1.062-.022L28 18v-2c-1.5 0-1.226-2.322-3.003-2.712C22.381 12.713 18.607 12 16 12s-6.381.713-8.997 1.288"/><path fill="url(#f646id1)" d="M7.003 13.288C5.226 13.678 5.5 16 4 16v2l.479 11.49a.532.532 0 0 0 1.062.022l.92-11.035a.52.52 0 0 1 1.04.043v10.96a.52.52 0 0 0 1.04.043l.92-11.045a.52.52 0 0 1 1.04.043v10.958a.52.52 0 0 0 1.04.043l.918-11.034a.532.532 0 0 1 1.062.022l.458 10.99a.521.521 0 0 0 1.042 0l.458-11a.521.521 0 0 1 1.042 0l.458 11a.521.521 0 0 0 1.042 0l.458-10.99a.532.532 0 0 1 1.062-.022l.92 11.035a.52.52 0 0 0 1.04-.043V18.52a.52.52 0 0 1 1.04-.043l.92 11.046a.52.52 0 0 0 1.04-.043V18.52a.52.52 0 0 1 1.04-.043l.918 11.035a.532.532 0 0 0 1.062-.022L28 18v-2c-1.5 0-1.226-2.322-3.003-2.712C22.381 12.713 18.607 12 16 12s-6.381.713-8.997 1.288"/><path fill="url(#f646id2)" d="M7.003 13.288C5.226 13.678 5.5 16 4 16v2l.479 11.49a.532.532 0 0 0 1.062.022l.92-11.035a.52.52 0 0 1 1.04.043v10.96a.52.52 0 0 0 1.04.043l.92-11.045a.52.52 0 0 1 1.04.043v10.958a.52.52 0 0 0 1.04.043l.918-11.034a.532.532 0 0 1 1.062.022l.458 10.99a.521.521 0 0 0 1.042 0l.458-11a.521.521 0 0 1 1.042 0l.458 11a.521.521 0 0 0 1.042 0l.458-10.99a.532.532 0 0 1 1.062-.022l.92 11.035a.52.52 0 0 0 1.04-.043V18.52a.52.52 0 0 1 1.04-.043l.92 11.046a.52.52 0 0 0 1.04-.043V18.52a.52.52 0 0 1 1.04-.043l.918 11.035a.532.532 0 0 0 1.062-.022L28 18v-2c-1.5 0-1.226-2.322-3.003-2.712C22.381 12.713 18.607 12 16 12s-6.381.713-8.997 1.288"/><path fill="url(#f646id3)" d="M7.003 13.288C5.226 13.678 5.5 16 4 16v2l.479 11.49a.532.532 0 0 0 1.062.022l.92-11.035a.52.52 0 0 1 1.04.043v10.96a.52.52 0 0 0 1.04.043l.92-11.045a.52.52 0 0 1 1.04.043v10.958a.52.52 0 0 0 1.04.043l.918-11.034a.532.532 0 0 1 1.062.022l.458 10.99a.521.521 0 0 0 1.042 0l.458-11a.521.521 0 0 1 1.042 0l.458 11a.521.521 0 0 0 1.042 0l.458-10.99a.532.532 0 0 1 1.062-.022l.92 11.035a.52.52 0 0 0 1.04-.043V18.52a.52.52 0 0 1 1.04-.043l.92 11.046a.52.52 0 0 0 1.04-.043V18.52a.52.52 0 0 1 1.04-.043l.918 11.035a.532.532 0 0 0 1.062-.022L28 18v-2c-1.5 0-1.226-2.322-3.003-2.712C22.381 12.713 18.607 12 16 12s-6.381.713-8.997 1.288"/><path fill="url(#f646id4)" d="M7.003 13.288C5.226 13.678 5.5 16 4 16v2l.479 11.49a.532.532 0 0 0 1.062.022l.92-11.035a.52.52 0 0 1 1.04.043v10.96a.52.52 0 0 0 1.04.043l.92-11.045a.52.52 0 0 1 1.04.043v10.958a.52.52 0 0 0 1.04.043l.918-11.034a.532.532 0 0 1 1.062.022l.458 10.99a.521.521 0 0 0 1.042 0l.458-11a.521.521 0 0 1 1.042 0l.458 11a.521.521 0 0 0 1.042 0l.458-10.99a.532.532 0 0 1 1.062-.022l.92 11.035a.52.52 0 0 0 1.04-.043V18.52a.52.52 0 0 1 1.04-.043l.92 11.046a.52.52 0 0 0 1.04-.043V18.52a.52.52 0 0 1 1.04-.043l.918 11.035a.532.532 0 0 0 1.062-.022L28 18v-2c-1.5 0-1.226-2.322-3.003-2.712C22.381 12.713 18.607 12 16 12s-6.381.713-8.997 1.288"/><path fill="url(#f646id5)" d="M7.003 13.288C5.226 13.678 5.5 16 4 16v2l.479 11.49a.532.532 0 0 0 1.062.022l.92-11.035a.52.52 0 0 1 1.04.043v10.96a.52.52 0 0 0 1.04.043l.92-11.045a.52.52 0 0 1 1.04.043v10.958a.52.52 0 0 0 1.04.043l.918-11.034a.532.532 0 0 1 1.062.022l.458 10.99a.521.521 0 0 0 1.042 0l.458-11a.521.521 0 0 1 1.042 0l.458 11a.521.521 0 0 0 1.042 0l.458-10.99a.532.532 0 0 1 1.062-.022l.92 11.035a.52.52 0 0 0 1.04-.043V18.52a.52.52 0 0 1 1.04-.043l.92 11.046a.52.52 0 0 0 1.04-.043V18.52a.52.52 0 0 1 1.04-.043l.918 11.035a.532.532 0 0 0 1.062-.022L28 18v-2c-1.5 0-1.226-2.322-3.003-2.712C22.381 12.713 18.607 12 16 12s-6.381.713-8.997 1.288"/><path fill="url(#f646id6)" d="M7.003 13.288C5.226 13.678 5.5 16 4 16v2l.479 11.49a.532.532 0 0 0 1.062.022l.92-11.035a.52.52 0 0 1 1.04.043v10.96a.52.52 0 0 0 1.04.043l.92-11.045a.52.52 0 0 1 1.04.043v10.958a.52.52 0 0 0 1.04.043l.918-11.034a.532.532 0 0 1 1.062.022l.458 10.99a.521.521 0 0 0 1.042 0l.458-11a.521.521 0 0 1 1.042 0l.458 11a.521.521 0 0 0 1.042 0l.458-10.99a.532.532 0 0 1 1.062-.022l.92 11.035a.52.52 0 0 0 1.04-.043V18.52a.52.52 0 0 1 1.04-.043l.92 11.046a.52.52 0 0 0 1.04-.043V18.52a.52.52 0 0 1 1.04-.043l.918 11.035a.532.532 0 0 0 1.062-.022L28 18v-2c-1.5 0-1.226-2.322-3.003-2.712C22.381 12.713 18.607 12 16 12s-6.381.713-8.997 1.288"/><path fill="url(#f646id7)" d="M7.003 13.288C5.226 13.678 5.5 16 4 16v2l.479 11.49a.532.532 0 0 0 1.062.022l.92-11.035a.52.52 0 0 1 1.04.043v10.96a.52.52 0 0 0 1.04.043l.92-11.045a.52.52 0 0 1 1.04.043v10.958a.52.52 0 0 0 1.04.043l.918-11.034a.532.532 0 0 1 1.062.022l.458 10.99a.521.521 0 0 0 1.042 0l.458-11a.521.521 0 0 1 1.042 0l.458 11a.521.521 0 0 0 1.042 0l.458-10.99a.532.532 0 0 1 1.062-.022l.92 11.035a.52.52 0 0 0 1.04-.043V18.52a.52.52 0 0 1 1.04-.043l.92 11.046a.52.52 0 0 0 1.04-.043V18.52a.52.52 0 0 1 1.04-.043l.918 11.035a.532.532 0 0 0 1.062-.022L28 18v-2c-1.5 0-1.226-2.322-3.003-2.712C22.381 12.713 18.607 12 16 12s-6.381.713-8.997 1.288"/><path fill="url(#f646id8)" d="M7.003 13.288C5.226 13.678 5.5 16 4 16v2l.479 11.49a.532.532 0 0 0 1.062.022l.92-11.035a.52.52 0 0 1 1.04.043v10.96a.52.52 0 0 0 1.04.043l.92-11.045a.52.52 0 0 1 1.04.043v10.958a.52.52 0 0 0 1.04.043l.918-11.034a.532.532 0 0 1 1.062.022l.458 10.99a.521.521 0 0 0 1.042 0l.458-11a.521.521 0 0 1 1.042 0l.458 11a.521.521 0 0 0 1.042 0l.458-10.99a.532.532 0 0 1 1.062-.022l.92 11.035a.52.52 0 0 0 1.04-.043V18.52a.52.52 0 0 1 1.04-.043l.92 11.046a.52.52 0 0 0 1.04-.043V18.52a.52.52 0 0 1 1.04-.043l.918 11.035a.532.532 0 0 0 1.062-.022L28 18v-2c-1.5 0-1.226-2.322-3.003-2.712C22.381 12.713 18.607 12 16 12s-6.381.713-8.997 1.288"/><path fill="url(#f646id9)" d="M7.003 13.288C5.226 13.678 5.5 16 4 16v2l.479 11.49a.532.532 0 0 0 1.062.022l.92-11.035a.52.52 0 0 1 1.04.043v10.96a.52.52 0 0 0 1.04.043l.92-11.045a.52.52 0 0 1 1.04.043v10.958a.52.52 0 0 0 1.04.043l.918-11.034a.532.532 0 0 1 1.062.022l.458 10.99a.521.521 0 0 0 1.042 0l.458-11a.521.521 0 0 1 1.042 0l.458 11a.521.521 0 0 0 1.042 0l.458-10.99a.532.532 0 0 1 1.062-.022l.92 11.035a.52.52 0 0 0 1.04-.043V18.52a.52.52 0 0 1 1.04-.043l.92 11.046a.52.52 0 0 0 1.04-.043V18.52a.52.52 0 0 1 1.04-.043l.918 11.035a.532.532 0 0 0 1.062-.022L28 18v-2c-1.5 0-1.226-2.322-3.003-2.712C22.381 12.713 18.607 12 16 12s-6.381.713-8.997 1.288"/><path fill="url(#f646ida)" d="M7.003 13.288C5.226 13.678 5.5 16 4 16v2l.479 11.49a.532.532 0 0 0 1.062.022l.92-11.035a.52.52 0 0 1 1.04.043v10.96a.52.52 0 0 0 1.04.043l.92-11.045a.52.52 0 0 1 1.04.043v10.958a.52.52 0 0 0 1.04.043l.918-11.034a.532.532 0 0 1 1.062.022l.458 10.99a.521.521 0 0 0 1.042 0l.458-11a.521.521 0 0 1 1.042 0l.458 11a.521.521 0 0 0 1.042 0l.458-10.99a.532.532 0 0 1 1.062-.022l.92 11.035a.52.52 0 0 0 1.04-.043V18.52a.52.52 0 0 1 1.04-.043l.92 11.046a.52.52 0 0 0 1.04-.043V18.52a.52.52 0 0 1 1.04-.043l.918 11.035a.532.532 0 0 0 1.062-.022L28 18v-2c-1.5 0-1.226-2.322-3.003-2.712C22.381 12.713 18.607 12 16 12s-6.381.713-8.997 1.288"/><path fill="url(#f646idb)" d="M7.003 13.288C5.226 13.678 5.5 16 4 16v2l.479 11.49a.532.532 0 0 0 1.062.022l.92-11.035a.52.52 0 0 1 1.04.043v10.96a.52.52 0 0 0 1.04.043l.92-11.045a.52.52 0 0 1 1.04.043v10.958a.52.52 0 0 0 1.04.043l.918-11.034a.532.532 0 0 1 1.062.022l.458 10.99a.521.521 0 0 0 1.042 0l.458-11a.521.521 0 0 1 1.042 0l.458 11a.521.521 0 0 0 1.042 0l.458-10.99a.532.532 0 0 1 1.062-.022l.92 11.035a.52.52 0 0 0 1.04-.043V18.52a.52.52 0 0 1 1.04-.043l.92 11.046a.52.52 0 0 0 1.04-.043V18.52a.52.52 0 0 1 1.04-.043l.918 11.035a.532.532 0 0 0 1.062-.022L28 18v-2c-1.5 0-1.226-2.322-3.003-2.712C22.381 12.713 18.607 12 16 12s-6.381.713-8.997 1.288"/><path fill="url(#f646idc)" d="M7.003 13.288C5.226 13.678 5.5 16 4 16v2l.479 11.49a.532.532 0 0 0 1.062.022l.92-11.035a.52.52 0 0 1 1.04.043v10.96a.52.52 0 0 0 1.04.043l.92-11.045a.52.52 0 0 1 1.04.043v10.958a.52.52 0 0 0 1.04.043l.918-11.034a.532.532 0 0 1 1.062.022l.458 10.99a.521.521 0 0 0 1.042 0l.458-11a.521.521 0 0 1 1.042 0l.458 11a.521.521 0 0 0 1.042 0l.458-10.99a.532.532 0 0 1 1.062-.022l.92 11.035a.52.52 0 0 0 1.04-.043V18.52a.52.52 0 0 1 1.04-.043l.92 11.046a.52.52 0 0 0 1.04-.043V18.52a.52.52 0 0 1 1.04-.043l.918 11.035a.532.532 0 0 0 1.062-.022L28 18v-2c-1.5 0-1.226-2.322-3.003-2.712C22.381 12.713 18.607 12 16 12s-6.381.713-8.997 1.288"/><path fill="url(#f646idd)" d="M7.003 13.288C5.226 13.678 5.5 16 4 16v2l.479 11.49a.532.532 0 0 0 1.062.022l.92-11.035a.52.52 0 0 1 1.04.043v10.96a.52.52 0 0 0 1.04.043l.92-11.045a.52.52 0 0 1 1.04.043v10.958a.52.52 0 0 0 1.04.043l.918-11.034a.532.532 0 0 1 1.062.022l.458 10.99a.521.521 0 0 0 1.042 0l.458-11a.521.521 0 0 1 1.042 0l.458 11a.521.521 0 0 0 1.042 0l.458-10.99a.532.532 0 0 1 1.062-.022l.92 11.035a.52.52 0 0 0 1.04-.043V18.52a.52.52 0 0 1 1.04-.043l.92 11.046a.52.52 0 0 0 1.04-.043V18.52a.52.52 0 0 1 1.04-.043l.918 11.035a.532.532 0 0 0 1.062-.022L28 18v-2c-1.5 0-1.226-2.322-3.003-2.712C22.381 12.713 18.607 12 16 12s-6.381.713-8.997 1.288"/><path fill="url(#f646ide)" d="M7.003 13.288C5.226 13.678 5.5 16 4 16v2l.479 11.49a.532.532 0 0 0 1.062.022l.92-11.035a.52.52 0 0 1 1.04.043v10.96a.52.52 0 0 0 1.04.043l.92-11.045a.52.52 0 0 1 1.04.043v10.958a.52.52 0 0 0 1.04.043l.918-11.034a.532.532 0 0 1 1.062.022l.458 10.99a.521.521 0 0 0 1.042 0l.458-11a.521.521 0 0 1 1.042 0l.458 11a.521.521 0 0 0 1.042 0l.458-10.99a.532.532 0 0 1 1.062-.022l.92 11.035a.52.52 0 0 0 1.04-.043V18.52a.52.52 0 0 1 1.04-.043l.92 11.046a.52.52 0 0 0 1.04-.043V18.52a.52.52 0 0 1 1.04-.043l.918 11.035a.532.532 0 0 0 1.062-.022L28 18v-2c-1.5 0-1.226-2.322-3.003-2.712C22.381 12.713 18.607 12 16 12s-6.381.713-8.997 1.288"/><path fill="url(#f646idf)" d="M7.003 13.288C5.226 13.678 5.5 16 4 16v2l.479 11.49a.532.532 0 0 0 1.062.022l.92-11.035a.52.52 0 0 1 1.04.043v10.96a.52.52 0 0 0 1.04.043l.92-11.045a.52.52 0 0 1 1.04.043v10.958a.52.52 0 0 0 1.04.043l.918-11.034a.532.532 0 0 1 1.062.022l.458 10.99a.521.521 0 0 0 1.042 0l.458-11a.521.521 0 0 1 1.042 0l.458 11a.521.521 0 0 0 1.042 0l.458-10.99a.532.532 0 0 1 1.062-.022l.92 11.035a.52.52 0 0 0 1.04-.043V18.52a.52.52 0 0 1 1.04-.043l.92 11.046a.52.52 0 0 0 1.04-.043V18.52a.52.52 0 0 1 1.04-.043l.918 11.035a.532.532 0 0 0 1.062-.022L28 18v-2c-1.5 0-1.226-2.322-3.003-2.712C22.381 12.713 18.607 12 16 12s-6.381.713-8.997 1.288"/><path fill="url(#f646idw)" d="M7.003 13.288C5.226 13.678 5.5 16 4 16v2l.479 11.49a.532.532 0 0 0 1.062.022l.92-11.035a.52.52 0 0 1 1.04.043v10.96a.52.52 0 0 0 1.04.043l.92-11.045a.52.52 0 0 1 1.04.043v10.958a.52.52 0 0 0 1.04.043l.918-11.034a.532.532 0 0 1 1.062.022l.458 10.99a.521.521 0 0 0 1.042 0l.458-11a.521.521 0 0 1 1.042 0l.458 11a.521.521 0 0 0 1.042 0l.458-10.99a.532.532 0 0 1 1.062-.022l.92 11.035a.52.52 0 0 0 1.04-.043V18.52a.52.52 0 0 1 1.04-.043l.92 11.046a.52.52 0 0 0 1.04-.043V18.52a.52.52 0 0 1 1.04-.043l.918 11.035a.532.532 0 0 0 1.062-.022L28 18v-2c-1.5 0-1.226-2.322-3.003-2.712C22.381 12.713 18.607 12 16 12s-6.381.713-8.997 1.288"/><path fill="url(#f646idx)" d="M7.003 13.288C5.226 13.678 5.5 16 4 16v2l.479 11.49a.532.532 0 0 0 1.062.022l.92-11.035a.52.52 0 0 1 1.04.043v10.96a.52.52 0 0 0 1.04.043l.92-11.045a.52.52 0 0 1 1.04.043v10.958a.52.52 0 0 0 1.04.043l.918-11.034a.532.532 0 0 1 1.062.022l.458 10.99a.521.521 0 0 0 1.042 0l.458-11a.521.521 0 0 1 1.042 0l.458 11a.521.521 0 0 0 1.042 0l.458-10.99a.532.532 0 0 1 1.062-.022l.92 11.035a.52.52 0 0 0 1.04-.043V18.52a.52.52 0 0 1 1.04-.043l.92 11.046a.52.52 0 0 0 1.04-.043V18.52a.52.52 0 0 1 1.04-.043l.918 11.035a.532.532 0 0 0 1.062-.022L28 18v-2c-1.5 0-1.226-2.322-3.003-2.712C22.381 12.713 18.607 12 16 12s-6.381.713-8.997 1.288"/><path fill="url(#f646idy)" d="M7.003 13.288C5.226 13.678 5.5 16 4 16v2l.479 11.49a.532.532 0 0 0 1.062.022l.92-11.035a.52.52 0 0 1 1.04.043v10.96a.52.52 0 0 0 1.04.043l.92-11.045a.52.52 0 0 1 1.04.043v10.958a.52.52 0 0 0 1.04.043l.918-11.034a.532.532 0 0 1 1.062.022l.458 10.99a.521.521 0 0 0 1.042 0l.458-11a.521.521 0 0 1 1.042 0l.458 11a.521.521 0 0 0 1.042 0l.458-10.99a.532.532 0 0 1 1.062-.022l.92 11.035a.52.52 0 0 0 1.04-.043V18.52a.52.52 0 0 1 1.04-.043l.92 11.046a.52.52 0 0 0 1.04-.043V18.52a.52.52 0 0 1 1.04-.043l.918 11.035a.532.532 0 0 0 1.062-.022L28 18v-2c-1.5 0-1.226-2.322-3.003-2.712C22.381 12.713 18.607 12 16 12s-6.381.713-8.997 1.288"/><path fill="url(#f646idg)" d="M7.003 13.288C5.226 13.678 5.5 16 4 16v2l.479 11.49a.532.532 0 0 0 1.062.022l.92-11.035a.52.52 0 0 1 1.04.043v10.96a.52.52 0 0 0 1.04.043l.92-11.045a.52.52 0 0 1 1.04.043v10.958a.52.52 0 0 0 1.04.043l.918-11.034a.532.532 0 0 1 1.062.022l.458 10.99a.521.521 0 0 0 1.042 0l.458-11a.521.521 0 0 1 1.042 0l.458 11a.521.521 0 0 0 1.042 0l.458-10.99a.532.532 0 0 1 1.062-.022l.92 11.035a.52.52 0 0 0 1.04-.043V18.52a.52.52 0 0 1 1.04-.043l.92 11.046a.52.52 0 0 0 1.04-.043V18.52a.52.52 0 0 1 1.04-.043l.918 11.035a.532.532 0 0 0 1.062-.022L28 18v-2c-1.5 0-1.226-2.322-3.003-2.712C22.381 12.713 18.607 12 16 12s-6.381.713-8.997 1.288"/><path fill="url(#f646idh)" d="M7.003 13.288C5.226 13.678 5.5 16 4 16v2l.479 11.49a.532.532 0 0 0 1.062.022l.92-11.035a.52.52 0 0 1 1.04.043v10.96a.52.52 0 0 0 1.04.043l.92-11.045a.52.52 0 0 1 1.04.043v10.958a.52.52 0 0 0 1.04.043l.918-11.034a.532.532 0 0 1 1.062.022l.458 10.99a.521.521 0 0 0 1.042 0l.458-11a.521.521 0 0 1 1.042 0l.458 11a.521.521 0 0 0 1.042 0l.458-10.99a.532.532 0 0 1 1.062-.022l.92 11.035a.52.52 0 0 0 1.04-.043V18.52a.52.52 0 0 1 1.04-.043l.92 11.046a.52.52 0 0 0 1.04-.043V18.52a.52.52 0 0 1 1.04-.043l.918 11.035a.532.532 0 0 0 1.062-.022L28 18v-2c-1.5 0-1.226-2.322-3.003-2.712C22.381 12.713 18.607 12 16 12s-6.381.713-8.997 1.288"/><path fill="url(#f646idi)" d="M7.003 13.288C5.226 13.678 5.5 16 4 16v2l.479 11.49a.532.532 0 0 0 1.062.022l.92-11.035a.52.52 0 0 1 1.04.043v10.96a.52.52 0 0 0 1.04.043l.92-11.045a.52.52 0 0 1 1.04.043v10.958a.52.52 0 0 0 1.04.043l.918-11.034a.532.532 0 0 1 1.062.022l.458 10.99a.521.521 0 0 0 1.042 0l.458-11a.521.521 0 0 1 1.042 0l.458 11a.521.521 0 0 0 1.042 0l.458-10.99a.532.532 0 0 1 1.062-.022l.92 11.035a.52.52 0 0 0 1.04-.043V18.52a.52.52 0 0 1 1.04-.043l.92 11.046a.52.52 0 0 0 1.04-.043V18.52a.52.52 0 0 1 1.04-.043l.918 11.035a.532.532 0 0 0 1.062-.022L28 18v-2c-1.5 0-1.226-2.322-3.003-2.712C22.381 12.713 18.607 12 16 12s-6.381.713-8.997 1.288"/><path fill="url(#f646idj)" d="M7.003 13.288C5.226 13.678 5.5 16 4 16v2l.479 11.49a.532.532 0 0 0 1.062.022l.92-11.035a.52.52 0 0 1 1.04.043v10.96a.52.52 0 0 0 1.04.043l.92-11.045a.52.52 0 0 1 1.04.043v10.958a.52.52 0 0 0 1.04.043l.918-11.034a.532.532 0 0 1 1.062.022l.458 10.99a.521.521 0 0 0 1.042 0l.458-11a.521.521 0 0 1 1.042 0l.458 11a.521.521 0 0 0 1.042 0l.458-10.99a.532.532 0 0 1 1.062-.022l.92 11.035a.52.52 0 0 0 1.04-.043V18.52a.52.52 0 0 1 1.04-.043l.92 11.046a.52.52 0 0 0 1.04-.043V18.52a.52.52 0 0 1 1.04-.043l.918 11.035a.532.532 0 0 0 1.062-.022L28 18v-2c-1.5 0-1.226-2.322-3.003-2.712C22.381 12.713 18.607 12 16 12s-6.381.713-8.997 1.288"/><path fill="url(#f646idk)" d="M7.003 13.288C5.226 13.678 5.5 16 4 16v2l.479 11.49a.532.532 0 0 0 1.062.022l.92-11.035a.52.52 0 0 1 1.04.043v10.96a.52.52 0 0 0 1.04.043l.92-11.045a.52.52 0 0 1 1.04.043v10.958a.52.52 0 0 0 1.04.043l.918-11.034a.532.532 0 0 1 1.062.022l.458 10.99a.521.521 0 0 0 1.042 0l.458-11a.521.521 0 0 1 1.042 0l.458 11a.521.521 0 0 0 1.042 0l.458-10.99a.532.532 0 0 1 1.062-.022l.92 11.035a.52.52 0 0 0 1.04-.043V18.52a.52.52 0 0 1 1.04-.043l.92 11.046a.52.52 0 0 0 1.04-.043V18.52a.52.52 0 0 1 1.04-.043l.918 11.035a.532.532 0 0 0 1.062-.022L28 18v-2c-1.5 0-1.226-2.322-3.003-2.712C22.381 12.713 18.607 12 16 12s-6.381.713-8.997 1.288"/><path fill="url(#f646idl)" d="M7.003 13.288C5.226 13.678 5.5 16 4 16v2l.479 11.49a.532.532 0 0 0 1.062.022l.92-11.035a.52.52 0 0 1 1.04.043v10.96a.52.52 0 0 0 1.04.043l.92-11.045a.52.52 0 0 1 1.04.043v10.958a.52.52 0 0 0 1.04.043l.918-11.034a.532.532 0 0 1 1.062.022l.458 10.99a.521.521 0 0 0 1.042 0l.458-11a.521.521 0 0 1 1.042 0l.458 11a.521.521 0 0 0 1.042 0l.458-10.99a.532.532 0 0 1 1.062-.022l.92 11.035a.52.52 0 0 0 1.04-.043V18.52a.52.52 0 0 1 1.04-.043l.92 11.046a.52.52 0 0 0 1.04-.043V18.52a.52.52 0 0 1 1.04-.043l.918 11.035a.532.532 0 0 0 1.062-.022L28 18v-2c-1.5 0-1.226-2.322-3.003-2.712C22.381 12.713 18.607 12 16 12s-6.381.713-8.997 1.288"/><path fill="url(#f646idm)" d="M7.003 13.288C5.226 13.678 5.5 16 4 16v2l.479 11.49a.532.532 0 0 0 1.062.022l.92-11.035a.52.52 0 0 1 1.04.043v10.96a.52.52 0 0 0 1.04.043l.92-11.045a.52.52 0 0 1 1.04.043v10.958a.52.52 0 0 0 1.04.043l.918-11.034a.532.532 0 0 1 1.062.022l.458 10.99a.521.521 0 0 0 1.042 0l.458-11a.521.521 0 0 1 1.042 0l.458 11a.521.521 0 0 0 1.042 0l.458-10.99a.532.532 0 0 1 1.062-.022l.92 11.035a.52.52 0 0 0 1.04-.043V18.52a.52.52 0 0 1 1.04-.043l.92 11.046a.52.52 0 0 0 1.04-.043V18.52a.52.52 0 0 1 1.04-.043l.918 11.035a.532.532 0 0 0 1.062-.022L28 18v-2c-1.5 0-1.226-2.322-3.003-2.712C22.381 12.713 18.607 12 16 12s-6.381.713-8.997 1.288"/><path fill="url(#f646idz)" fill-rule="evenodd" d="m13.192 7.37l-.325-1.465a3.209 3.209 0 1 1 6.264 0l-.325 1.465a4 4 0 0 0 2.755 4.699l4.3 1.29A3 3 0 0 1 27.99 16H4.008a3 3 0 0 1 2.129-2.641l4.3-1.29a4 4 0 0 0 2.755-4.7M17 5a1 1 0 1 1-2 0a1 1 0 0 1 2 0" clip-rule="evenodd"/><path fill="url(#f646idn)" fill-rule="evenodd" d="m13.192 7.37l-.325-1.465a3.209 3.209 0 1 1 6.264 0l-.325 1.465a4 4 0 0 0 2.755 4.699l4.3 1.29A3 3 0 0 1 27.99 16H4.008a3 3 0 0 1 2.129-2.641l4.3-1.29a4 4 0 0 0 2.755-4.7M17 5a1 1 0 1 1-2 0a1 1 0 0 1 2 0" clip-rule="evenodd"/><path fill="url(#f646ido)" fill-rule="evenodd" d="m13.192 7.37l-.325-1.465a3.209 3.209 0 1 1 6.264 0l-.325 1.465a4 4 0 0 0 2.755 4.699l4.3 1.29A3 3 0 0 1 27.99 16H4.008a3 3 0 0 1 2.129-2.641l4.3-1.29a4 4 0 0 0 2.755-4.7M17 5a1 1 0 1 1-2 0a1 1 0 0 1 2 0" clip-rule="evenodd"/><path fill="url(#f646idp)" fill-rule="evenodd" d="m13.192 7.37l-.325-1.465a3.209 3.209 0 1 1 6.264 0l-.325 1.465a4 4 0 0 0 2.755 4.699l4.3 1.29A3 3 0 0 1 27.99 16H4.008a3 3 0 0 1 2.129-2.641l4.3-1.29a4 4 0 0 0 2.755-4.7M17 5a1 1 0 1 1-2 0a1 1 0 0 1 2 0" clip-rule="evenodd"/><path fill="url(#f646id10)" fill-rule="evenodd" d="m13.192 7.37l-.325-1.465a3.209 3.209 0 1 1 6.264 0l-.325 1.465a4 4 0 0 0 2.755 4.699l4.3 1.29A3 3 0 0 1 27.99 16H4.008a3 3 0 0 1 2.129-2.641l4.3-1.29a4 4 0 0 0 2.755-4.7M17 5a1 1 0 1 1-2 0a1 1 0 0 1 2 0" clip-rule="evenodd"/><path fill="url(#f646idq)" fill-rule="evenodd" d="m13.192 7.37l-.325-1.465a3.209 3.209 0 1 1 6.264 0l-.325 1.465a4 4 0 0 0 2.755 4.699l4.3 1.29A3 3 0 0 1 27.99 16H4.008a3 3 0 0 1 2.129-2.641l4.3-1.29a4 4 0 0 0 2.755-4.7M17 5a1 1 0 1 1-2 0a1 1 0 0 1 2 0" clip-rule="evenodd"/><path fill="url(#f646idr)" fill-rule="evenodd" d="m13.192 7.37l-.325-1.465a3.209 3.209 0 1 1 6.264 0l-.325 1.465a4 4 0 0 0 2.755 4.699l4.3 1.29A3 3 0 0 1 27.99 16H4.008a3 3 0 0 1 2.129-2.641l4.3-1.29a4 4 0 0 0 2.755-4.7M17 5a1 1 0 1 1-2 0a1 1 0 0 1 2 0" clip-rule="evenodd"/><path fill="url(#f646ids)" fill-rule="evenodd" d="m13.192 7.37l-.325-1.465a3.209 3.209 0 1 1 6.264 0l-.325 1.465a4 4 0 0 0 2.755 4.699l4.3 1.29A3 3 0 0 1 27.99 16H4.008a3 3 0 0 1 2.129-2.641l4.3-1.29a4 4 0 0 0 2.755-4.7M17 5a1 1 0 1 1-2 0a1 1 0 0 1 2 0" clip-rule="evenodd"/><path fill="url(#f646idt)" fill-rule="evenodd" d="m13.192 7.37l-.325-1.465a3.209 3.209 0 1 1 6.264 0l-.325 1.465a4 4 0 0 0 2.755 4.699l4.3 1.29A3 3 0 0 1 27.99 16H4.008a3 3 0 0 1 2.129-2.641l4.3-1.29a4 4 0 0 0 2.755-4.7M17 5a1 1 0 1 1-2 0a1 1 0 0 1 2 0" clip-rule="evenodd"/><path fill="url(#f646idu)" fill-rule="evenodd" d="m13.192 7.37l-.325-1.465a3.209 3.209 0 1 1 6.264 0l-.325 1.465a4 4 0 0 0 2.755 4.699l4.3 1.29A3 3 0 0 1 27.99 16H4.008a3 3 0 0 1 2.129-2.641l4.3-1.29a4 4 0 0 0 2.755-4.7M17 5a1 1 0 1 1-2 0a1 1 0 0 1 2 0" clip-rule="evenodd"/><path fill="url(#f646idv)" fill-rule="evenodd" d="m13.192 7.37l-.325-1.465a3.209 3.209 0 1 1 6.264 0l-.325 1.465a4 4 0 0 0 2.755 4.699l4.3 1.29A3 3 0 0 1 27.99 16H4.008a3 3 0 0 1 2.129-2.641l4.3-1.29a4 4 0 0 0 2.755-4.7M17 5a1 1 0 1 1-2 0a1 1 0 0 1 2 0" clip-rule="evenodd"/><defs><radialGradient id="f646id0" cx="0" cy="0" r="1" gradientTransform="matrix(-.0625 13.43745 -.9665 -.0045 5.594 27.656)" gradientUnits="userSpaceOnUse"><stop offset=".513" stop-color="#AC7FC6"/><stop offset="1" stop-color="#AC7FC6" stop-opacity="0"/></radialGradient><radialGradient id="f646id1" cx="0" cy="0" r="1" gradientTransform="matrix(-.62497 14.50004 -1.90692 -.0822 6.813 27.125)" gradientUnits="userSpaceOnUse"><stop offset=".503" stop-color="#714F83"/><stop offset="1" stop-color="#9063AB" stop-opacity="0"/></radialGradient><radialGradient id="f646id2" cx="0" cy="0" r="1" gradientTransform="matrix(-.46877 13.2188 -.62318 -.0221 8.469 25.312)" gradientUnits="userSpaceOnUse"><stop offset=".326" stop-color="#AF80C9"/><stop offset="1" stop-color="#AF80C9" stop-opacity="0"/></radialGradient><radialGradient id="f646id3" cx="0" cy="0" r="1" gradientTransform="matrix(-.5625 14.43755 -1.66066 -.0647 9.875 27)" gradientUnits="userSpaceOnUse"><stop offset=".503" stop-color="#714F83"/><stop offset="1" stop-color="#9063AB" stop-opacity="0"/></radialGradient><radialGradient id="f646id4" cx="0" cy="0" r="1" gradientTransform="matrix(-.4375 13.6563 -.6438 -.02063 11.531 25.438)" gradientUnits="userSpaceOnUse"><stop offset=".326" stop-color="#AF80C9"/><stop offset="1" stop-color="#AF80C9" stop-opacity="0"/></radialGradient><radialGradient id="f646id5" cx="0" cy="0" r="1" gradientTransform="matrix(-.09375 14.875 -1.59726 -.01007 13.063 27.281)" gradientUnits="userSpaceOnUse"><stop offset=".566" stop-color="#714F83"/><stop offset="1" stop-color="#9063AB" stop-opacity="0"/></radialGradient><radialGradient id="f646id6" cx="0" cy="0" r="1" gradientTransform="matrix(-.0624 13.59376 -.64086 -.00294 14.905 24.375)" gradientUnits="userSpaceOnUse"><stop offset=".466" stop-color="#AF80C9"/><stop offset="1" stop-color="#AF80C9" stop-opacity="0"/></radialGradient><radialGradient id="f646id7" cx="0" cy="0" r="1" gradientTransform="rotate(89.884 -5.684 21.86)scale(15.4063 1.625)" gradientUnits="userSpaceOnUse"><stop offset=".566" stop-color="#714F83"/><stop offset="1" stop-color="#9063AB" stop-opacity="0"/></radialGradient><radialGradient id="f646id8" cx="0" cy="0" r="1" gradientTransform="rotate(89.574 -3.404 21.317)scale(12.5941 .72593)" gradientUnits="userSpaceOnUse"><stop offset=".466" stop-color="#AB7EC4"/><stop offset="1" stop-color="#AF80C9" stop-opacity="0"/></radialGradient><radialGradient id="f646id9" cx="0" cy="0" r="1" gradientTransform="rotate(89.67 -4.22 23.634)scale(16.2503 1.78122)" gradientUnits="userSpaceOnUse"><stop offset=".566" stop-color="#714F83"/><stop offset="1" stop-color="#9063AB" stop-opacity="0"/></radialGradient><radialGradient id="f646ida" cx="0" cy="0" r="1" gradientTransform="matrix(.5 12.96877 -1.03212 .0398 21.156 24.438)" gradientUnits="userSpaceOnUse"><stop offset=".466" stop-color="#AB7EC4"/><stop offset="1" stop-color="#8E5FAA" stop-opacity="0"/></radialGradient><radialGradient id="f646idb" cx="0" cy="0" r="1" gradientTransform="matrix(.5625 16.18753 -1.62087 .05632 22.469 27.625)" gradientUnits="userSpaceOnUse"><stop offset=".566" stop-color="#714F83"/><stop offset="1" stop-color="#9063AB" stop-opacity="0"/></radialGradient><radialGradient id="f646idc" cx="0" cy="0" r="1" gradientTransform="matrix(.71865 13.06255 -.72858 .04008 24.156 24.312)" gradientUnits="userSpaceOnUse"><stop offset=".466" stop-color="#AB7EC4"/><stop offset="1" stop-color="#8E5FAA" stop-opacity="0"/></radialGradient><radialGradient id="f646idd" cx="0" cy="0" r="1" gradientTransform="matrix(.03125 15.34377 -1.71836 .0035 27.344 23.25)" gradientUnits="userSpaceOnUse"><stop offset=".234" stop-color="#AB7EC4"/><stop offset="1" stop-color="#8E5FAA" stop-opacity="0"/></radialGradient><radialGradient id="f646ide" cx="0" cy="0" r="1" gradientTransform="matrix(.40625 15.81248 -1.573 .04041 25.531 28.063)" gradientUnits="userSpaceOnUse"><stop offset=".566" stop-color="#714F83"/><stop offset="1" stop-color="#9162AE" stop-opacity="0"/></radialGradient><radialGradient id="f646idf" cx="0" cy="0" r="1" gradientTransform="matrix(15.9062 0 0 2.15625 15 16.094)" gradientUnits="userSpaceOnUse"><stop offset=".613" stop-color="#A174BB"/><stop offset="1" stop-color="#A172BC" stop-opacity="0"/></radialGradient><radialGradient id="f646idg" cx="0" cy="0" r="1" gradientTransform="matrix(-.125 1.21875 -1.03235 -.10588 7.125 18.5)" gradientUnits="userSpaceOnUse"><stop offset=".444" stop-color="#8A4EB1"/><stop offset="1" stop-color="#9459BA" stop-opacity="0"/></radialGradient><radialGradient id="f646idh" cx="0" cy="0" r="1" gradientTransform="matrix(-.1875 1.3125 -1.11176 -.15882 10.062 18.47)" gradientUnits="userSpaceOnUse"><stop offset=".444" stop-color="#8A4EB1"/><stop offset="1" stop-color="#9459BA" stop-opacity="0"/></radialGradient><radialGradient id="f646idi" cx="0" cy="0" r="1" gradientTransform="matrix(0 1.28125 -1.08529 0 12.938 18.375)" gradientUnits="userSpaceOnUse"><stop offset=".444" stop-color="#8A4EB1"/><stop offset="1" stop-color="#9459BA" stop-opacity="0"/></radialGradient><radialGradient id="f646idj" cx="0" cy="0" r="1" gradientTransform="matrix(0 1.28125 -1.08529 0 16 18.563)" gradientUnits="userSpaceOnUse"><stop offset=".444" stop-color="#8A4EB1"/><stop offset="1" stop-color="#9459BA" stop-opacity="0"/></radialGradient><radialGradient id="f646idk" cx="0" cy="0" r="1" gradientTransform="matrix(0 1.3125 -1.11177 0 19 18.531)" gradientUnits="userSpaceOnUse"><stop offset=".444" stop-color="#8A4EB1"/><stop offset="1" stop-color="#9459BA" stop-opacity="0"/></radialGradient><radialGradient id="f646idl" cx="0" cy="0" r="1" gradientTransform="matrix(-.1875 1.375 -1.16471 -.15882 22.156 18.438)" gradientUnits="userSpaceOnUse"><stop offset=".444" stop-color="#8A4EB1"/><stop offset="1" stop-color="#9459BA" stop-opacity="0"/></radialGradient><radialGradient id="f646idm" cx="0" cy="0" r="1" gradientTransform="matrix(0 1.25 -1.05882 0 24.969 18.406)" gradientUnits="userSpaceOnUse"><stop offset=".444" stop-color="#8A4EB1"/><stop offset="1" stop-color="#9459BA" stop-opacity="0"/></radialGradient><radialGradient id="f646idn" cx="0" cy="0" r="1" gradientTransform="matrix(1.875 4.4375 -7.60148 3.2119 4.813 13.75)" gradientUnits="userSpaceOnUse"><stop offset=".217" stop-color="#4E3960"/><stop offset=".925" stop-color="#573276" stop-opacity="0"/></radialGradient><radialGradient id="f646ido" cx="0" cy="0" r="1" gradientTransform="matrix(-.53125 1.65624 -5.21253 -1.67195 24.313 12.219)" gradientUnits="userSpaceOnUse"><stop offset=".477" stop-color="#65467A"/><stop offset="1" stop-color="#65467A" stop-opacity="0"/></radialGradient><radialGradient id="f646idp" cx="0" cy="0" r="1" gradientTransform="matrix(0 3.1875 -6.15846 0 9.563 16)" gradientUnits="userSpaceOnUse"><stop offset=".559" stop-color="#6B4290"/><stop offset=".978" stop-color="#6B4290" stop-opacity="0"/></radialGradient><radialGradient id="f646idq" cx="0" cy="0" r="1" gradientTransform="rotate(90.754 5.628 10.798)scale(4.75041)" gradientUnits="userSpaceOnUse"><stop offset=".504" stop-color="#714C92"/><stop offset=".685" stop-color="#714C92" stop-opacity="0"/></radialGradient><radialGradient id="f646idr" cx="0" cy="0" r="1" gradientTransform="rotate(90 5.656 10.5)scale(2.46875)" gradientUnits="userSpaceOnUse"><stop offset=".357" stop-color="#52217B"/><stop offset=".786" stop-color="#632E8D" stop-opacity="0"/></radialGradient><radialGradient id="f646ids" cx="0" cy="0" r="1" gradientTransform="rotate(94.359 5.704 10.048)scale(2.06848)" gradientUnits="userSpaceOnUse"><stop offset=".365" stop-color="#43295B"/><stop offset=".862" stop-color="#43295B" stop-opacity="0"/></radialGradient><radialGradient id="f646idt" cx="0" cy="0" r="1" gradientTransform="matrix(-.99997 3.75 -3.46186 -.92314 16.188 8.156)" gradientUnits="userSpaceOnUse"><stop offset=".298" stop-color="#69418C"/><stop offset=".76" stop-color="#6A428D" stop-opacity="0"/></radialGradient><radialGradient id="f646idu" cx="0" cy="0" r="1" gradientTransform="matrix(1.4375 2.15625 -3.69368 2.46245 10.563 10.438)" gradientUnits="userSpaceOnUse"><stop offset=".589" stop-color="#4E3960"/><stop offset="1" stop-color="#573276" stop-opacity="0"/></radialGradient><radialGradient id="f646idv" cx="0" cy="0" r="1" gradientTransform="matrix(3.5 3.21875 -1.91794 2.08552 20.688 9.5)" gradientUnits="userSpaceOnUse"><stop offset=".413" stop-color="#7D5F96"/><stop offset="1" stop-color="#7D5F96" stop-opacity="0"/></radialGradient><linearGradient id="f646idw" x1="28" x2="27" y1="22.844" y2="22.844" gradientUnits="userSpaceOnUse"><stop offset=".25" stop-color="#A180AD"/><stop offset="1" stop-color="#AC83C0" stop-opacity="0"/></linearGradient><linearGradient id="f646idx" x1="3.844" x2="5.5" y1="22.375" y2="22.313" gradientUnits="userSpaceOnUse"><stop offset=".315" stop-color="#755B83"/><stop offset=".766" stop-color="#895FA1" stop-opacity="0"/></linearGradient><linearGradient id="f646idy" x1="14.594" x2="14.594" y1="30.156" y2="29.25" gradientUnits="userSpaceOnUse"><stop offset=".207" stop-color="#9B54CB"/><stop offset="1" stop-color="#9B54CB" stop-opacity="0"/></linearGradient><linearGradient id="f646idz" x1="20.469" x2="7.156" y1="9.844" y2="16.156" gradientUnits="userSpaceOnUse"><stop stop-color="#6D4690"/><stop offset="1" stop-color="#6A428D"/></linearGradient><linearGradient id="f646id10" x1="15.999" x2="15.999" y1="2" y2="12.969" gradientUnits="userSpaceOnUse"><stop offset=".397" stop-color="#503664"/><stop offset="1" stop-color="#633A86" stop-opacity="0"/></linearGradient></defs></g></svg>