<svg xmlns="http://www.w3.org/2000/svg" xmlns:xlink="http://www.w3.org/1999/xlink" width="32" height="32" viewBox="0 0 32 32"><g fill="none"><path fill="url(#f668id0)" d="M15 30c9.335 0 14-6.268 14-14S24.335 2 15 2S1 8.268 1 16s4.665 14 14 14"/><path fill="url(#f668id1)" d="M15 30c9.335 0 14-6.268 14-14S24.335 2 15 2S1 8.268 1 16s4.665 14 14 14"/><path fill="url(#f668id2)" fill-opacity=".6" d="M15 30c9.335 0 14-6.268 14-14S24.335 2 15 2S1 8.268 1 16s4.665 14 14 14"/><path fill="url(#f668id3)" d="M15 30c9.335 0 14-6.268 14-14S24.335 2 15 2S1 8.268 1 16s4.665 14 14 14"/><path fill="url(#f668id4)" d="M15 30c9.335 0 14-6.268 14-14S24.335 2 15 2S1 8.268 1 16s4.665 14 14 14"/><path fill="url(#f668id5)" d="M15 30c9.335 0 14-6.268 14-14S24.335 2 15 2S1 8.268 1 16s4.665 14 14 14"/><path fill="url(#f668id6)" fill-opacity=".6" d="M15 30c9.335 0 14-6.268 14-14S24.335 2 15 2S1 8.268 1 16s4.665 14 14 14"/><path fill="url(#f668id7)" d="M15 30c9.335 0 14-6.268 14-14S24.335 2 15 2S1 8.268 1 16s4.665 14 14 14"/><path fill="url(#f668id8)" d="M15 30c9.335 0 14-6.268 14-14S24.335 2 15 2S1 8.268 1 16s4.665 14 14 14"/><path fill="url(#f668id9)" d="M15 30c9.335 0 14-6.268 14-14S24.335 2 15 2S1 8.268 1 16s4.665 14 14 14"/><path fill="url(#f668ida)" d="M15 30c9.335 0 14-6.268 14-14S24.335 2 15 2S1 8.268 1 16s4.665 14 14 14"/><path fill="url(#f668idb)" d="M15 30c9.335 0 14-6.268 14-14S24.335 2 15 2S1 8.268 1 16s4.665 14 14 14"/><path fill="url(#f668idc)" d="M15 30c9.335 0 14-6.268 14-14S24.335 2 15 2S1 8.268 1 16s4.665 14 14 14"/><path fill="url(#f668idd)" d="M15 30c9.335 0 14-6.268 14-14S24.335 2 15 2S1 8.268 1 16s4.665 14 14 14"/><path fill="url(#f668ide)" d="M15 30c9.335 0 14-6.268 14-14S24.335 2 15 2S1 8.268 1 16s4.665 14 14 14"/><path fill="url(#f668idf)" fill-opacity=".4" d="M15 30c9.335 0 14-6.268 14-14S24.335 2 15 2S1 8.268 1 16s4.665 14 14 14"/><path fill="url(#f668idg)" d="M8.637 23.4a1 1 0 0 0-1.6 1.2c.69.92 2.688 2.4 5.8 2.4s5.11-1.48 5.8-2.4a1 1 0 0 0-1.6-1.2c-.31.413-1.712 1.6-4.2 1.6s-3.89-1.187-4.2-1.6"/><path fill="url(#f668idh)" d="M8.637 23.4a1 1 0 0 0-1.6 1.2c.69.92 2.688 2.4 5.8 2.4s5.11-1.48 5.8-2.4a1 1 0 0 0-1.6-1.2c-.31.413-1.712 1.6-4.2 1.6s-3.89-1.187-4.2-1.6"/><path fill="url(#f668idi)" d="M8.637 23.4a1 1 0 0 0-1.6 1.2c.69.92 2.688 2.4 5.8 2.4s5.11-1.48 5.8-2.4a1 1 0 0 0-1.6-1.2c-.31.413-1.712 1.6-4.2 1.6s-3.89-1.187-4.2-1.6"/><path fill="url(#f668idz)" d="M16.544 16.293a1 1 0 0 0-1.414 1.414c.525.525 1.847 1.293 3.707 1.293s3.183-.768 3.707-1.293a1 1 0 1 0-1.414-1.414c-.142.142-.953.707-2.293.707s-2.15-.565-2.293-.707"/><path fill="url(#f668idj)" d="M16.544 16.293a1 1 0 0 0-1.414 1.414c.525.525 1.847 1.293 3.707 1.293s3.183-.768 3.707-1.293a1 1 0 1 0-1.414-1.414c-.142.142-.953.707-2.293.707s-2.15-.565-2.293-.707"/><path fill="url(#f668idk)" d="M16.544 16.293a1 1 0 0 0-1.414 1.414c.525.525 1.847 1.293 3.707 1.293s3.183-.768 3.707-1.293a1 1 0 1 0-1.414-1.414c-.142.142-.953.707-2.293.707s-2.15-.565-2.293-.707"/><path fill="url(#f668idl)" d="M16.544 16.293a1 1 0 0 0-1.414 1.414c.525.525 1.847 1.293 3.707 1.293s3.183-.768 3.707-1.293a1 1 0 1 0-1.414-1.414c-.142.142-.953.707-2.293.707s-2.15-.565-2.293-.707"/><path fill="url(#f668idm)" d="M4.544 16.293a1 1 0 0 0-1.414 1.414C3.655 18.232 4.977 19 6.837 19s3.183-.768 3.707-1.293a1 1 0 1 0-1.414-1.414c-.142.142-.953.707-2.293.707s-2.15-.565-2.293-.707"/><path fill="url(#f668idn)" d="M4.544 16.293a1 1 0 0 0-1.414 1.414C3.655 18.232 4.977 19 6.837 19s3.183-.768 3.707-1.293a1 1 0 1 0-1.414-1.414c-.142.142-.953.707-2.293.707s-2.15-.565-2.293-.707"/><path fill="url(#f668ido)" d="M4.544 16.293a1 1 0 0 0-1.414 1.414C3.655 18.232 4.977 19 6.837 19s3.183-.768 3.707-1.293a1 1 0 1 0-1.414-1.414c-.142.142-.953.707-2.293.707s-2.15-.565-2.293-.707"/><path fill="url(#f668idp)" d="M3.811 10.658c.144-.43.502-1.108 1.095-1.67C5.491 8.433 6.29 8 7.337 8a.5.5 0 0 0 0-1c-1.352 0-2.387.567-3.12 1.262c-.723.688-1.164 1.51-1.354 2.08a.5.5 0 1 0 .948.316"/><path fill="url(#f668idq)" d="M3.811 10.658c.144-.43.502-1.108 1.095-1.67C5.491 8.433 6.29 8 7.337 8a.5.5 0 0 0 0-1c-1.352 0-2.387.567-3.12 1.262c-.723.688-1.164 1.51-1.354 2.08a.5.5 0 1 0 .948.316"/><path fill="#3EB9FF" d="M29.571 11.068a1 1 0 0 1 1.391.257a5.9 5.9 0 0 1 .97 2.536c.297 2.105-.634 4.062-2.244 5.633c-1.606 1.568-3.95 2.824-6.72 3.613a1 1 0 0 1-.547-1.924c2.541-.723 4.561-1.842 5.87-3.12c1.306-1.274 1.843-2.633 1.66-3.922a3.9 3.9 0 0 0-.637-1.682a1 1 0 0 1 .257-1.39"/><path fill="url(#f668idr)" d="M29.571 11.068a1 1 0 0 1 1.391.257a5.9 5.9 0 0 1 .97 2.536c.297 2.105-.634 4.062-2.244 5.633c-1.606 1.568-3.95 2.824-6.72 3.613a1 1 0 0 1-.547-1.924c2.541-.723 4.561-1.842 5.87-3.12c1.306-1.274 1.843-2.633 1.66-3.922a3.9 3.9 0 0 0-.637-1.682a1 1 0 0 1 .257-1.39"/><path fill="url(#f668ids)" d="M29.571 11.068a1 1 0 0 1 1.391.257a5.9 5.9 0 0 1 .97 2.536c.297 2.105-.634 4.062-2.244 5.633c-1.606 1.568-3.95 2.824-6.72 3.613a1 1 0 0 1-.547-1.924c2.541-.723 4.561-1.842 5.87-3.12c1.306-1.274 1.843-2.633 1.66-3.922a3.9 3.9 0 0 0-.637-1.682a1 1 0 0 1 .257-1.39"/><path fill="url(#f668idt)" d="M29.571 11.068a1 1 0 0 1 1.391.257a5.9 5.9 0 0 1 .97 2.536c.297 2.105-.634 4.062-2.244 5.633c-1.606 1.568-3.95 2.824-6.72 3.613a1 1 0 0 1-.547-1.924c2.541-.723 4.561-1.842 5.87-3.12c1.306-1.274 1.843-2.633 1.66-3.922a3.9 3.9 0 0 0-.637-1.682a1 1 0 0 1 .257-1.39"/><path fill="url(#f668idu)" d="M29.751 22.83a1 1 0 0 1-.143 1.407c-1.867 1.523-4.067 2.592-6.75 3.235a1 1 0 0 1-.466-1.944c2.421-.581 4.341-1.527 5.952-2.841a1 1 0 0 1 1.407.143"/><path fill="url(#f668idv)" d="M29.751 22.83a1 1 0 0 1-.143 1.407c-1.867 1.523-4.067 2.592-6.75 3.235a1 1 0 0 1-.466-1.944c2.421-.581 4.341-1.527 5.952-2.841a1 1 0 0 1 1.407.143"/><path fill="url(#f668idw)" d="M29.751 22.83a1 1 0 0 1-.143 1.407c-1.867 1.523-4.067 2.592-6.75 3.235a1 1 0 0 1-.466-1.944c2.421-.581 4.341-1.527 5.952-2.841a1 1 0 0 1 1.407.143"/><path fill="url(#f668idx)" d="M20.768 8.988c.592.562.951 1.24 1.095 1.67a.5.5 0 1 0 .948-.316c-.19-.57-.631-1.392-1.355-2.08C20.724 7.567 19.69 7 18.336 7a.5.5 0 0 0 0 1c1.049 0 1.847.433 2.432.988"/><path fill="url(#f668idy)" d="M20.768 8.988c.592.562.951 1.24 1.095 1.67a.5.5 0 1 0 .948-.316c-.19-.57-.631-1.392-1.355-2.08C20.724 7.567 19.69 7 18.336 7a.5.5 0 0 0 0 1c1.049 0 1.847.433 2.432.988"/><defs><radialGradient id="f668id0" cx="0" cy="0" r="1" gradientTransform="rotate(131.878 10.242 9.97)scale(38.9518)" gradientUnits="userSpaceOnUse"><stop stop-color="#FFF478"/><stop offset=".475" stop-color="#FFB02E"/><stop offset="1" stop-color="#F70A8D"/></radialGradient><radialGradient id="f668id1" cx="0" cy="0" r="1" gradientTransform="matrix(-3.5003 17.5014 -22.41597 -4.48322 15.001 12.5)" gradientUnits="userSpaceOnUse"><stop offset=".788" stop-color="#F59639" stop-opacity="0"/><stop offset=".973" stop-color="#FF7DCE"/></radialGradient><radialGradient id="f668id2" cx="0" cy="0" r="1" gradientTransform="rotate(135 5.6 10.522)scale(41.0155)" gradientUnits="userSpaceOnUse"><stop offset=".315" stop-opacity="0"/><stop offset="1"/></radialGradient><radialGradient id="f668id3" cx="0" cy="0" r="1" gradientTransform="rotate(76.632 -3.524 17.654)scale(28.2681)" gradientUnits="userSpaceOnUse"><stop offset=".508" stop-color="#D1671A" stop-opacity="0"/><stop offset=".784" stop-color="#B2753D"/></radialGradient><radialGradient id="f668id4" cx="0" cy="0" r="1" gradientTransform="rotate(77.692 -3.055 17.814)scale(28.1492)" gradientUnits="userSpaceOnUse"><stop offset=".508" stop-color="#7D6133" stop-opacity="0"/><stop offset="1" stop-color="#715B32"/></radialGradient><radialGradient id="f668id5" cx="0" cy="0" r="1" gradientTransform="matrix(9.3475 3.78331 -2.74234 6.77553 15.501 16.501)" gradientUnits="userSpaceOnUse"><stop stop-color="#FFB849"/><stop offset="1" stop-color="#FFB847" stop-opacity="0"/></radialGradient><radialGradient id="f668id6" cx="0" cy="0" r="1" gradientTransform="rotate(9.866 -94.534 121.976)scale(11.6735)" gradientUnits="userSpaceOnUse"><stop stop-color="#FFA64B"/><stop offset=".9" stop-color="#FFAE46" stop-opacity="0"/></radialGradient><radialGradient id="f668id7" cx="0" cy="0" r="1" gradientTransform="rotate(43.971 -10.327 27.936)scale(59.0577)" gradientUnits="userSpaceOnUse"><stop offset=".185" stop-opacity="0"/><stop offset="1" stop-opacity=".4"/></radialGradient><radialGradient id="f668id8" cx="0" cy="0" r="1" gradientTransform="matrix(-.04175 3.09488 -6.2178 -.08388 16.837 18.639)" gradientUnits="userSpaceOnUse"><stop stop-color="#D77C49"/><stop offset="1" stop-color="#FFB446" stop-opacity="0"/></radialGradient><radialGradient id="f668id9" cx="0" cy="0" r="1" gradientTransform="matrix(0 3.24397 -5.07056 0 5.435 19.304)" gradientUnits="userSpaceOnUse"><stop stop-color="#D87D31"/><stop offset="1" stop-color="#DD7C37" stop-opacity="0"/></radialGradient><radialGradient id="f668ida" cx="0" cy="0" r="1" gradientTransform="rotate(-132.748 10.225 2.95)scale(24.2508 30.8783)" gradientUnits="userSpaceOnUse"><stop offset=".452" stop-color="#EF6E6B" stop-opacity="0"/><stop offset="1" stop-color="#EF6E6B"/></radialGradient><radialGradient id="f668idb" cx="0" cy="0" r="1" gradientTransform="rotate(124.095 4.035 18.424)scale(6.99351)" gradientUnits="userSpaceOnUse"><stop stop-color="#E7884B"/><stop offset="1" stop-color="#E7884B" stop-opacity="0"/></radialGradient><radialGradient id="f668idc" cx="0" cy="0" r="1" gradientTransform="rotate(90.546 -8.496 22.445)scale(9.30337)" gradientUnits="userSpaceOnUse"><stop stop-color="#EF7161"/><stop offset="1" stop-color="#EF7161" stop-opacity="0"/></radialGradient><radialGradient id="f668idd" cx="0" cy="0" r="1" gradientTransform="matrix(-3.78427 5.99446 -12.865 -8.1216 19.622 9.601)" gradientUnits="userSpaceOnUse"><stop offset=".095" stop-color="#FCB73C"/><stop offset=".381" stop-color="#FFDC64" stop-opacity="0"/></radialGradient><radialGradient id="f668ide" cx="0" cy="0" r="1" gradientTransform="rotate(104.409 5.116 12.244)scale(3.29796 6.92351)" gradientUnits="userSpaceOnUse"><stop offset=".127" stop-color="#FFD25A"/><stop offset=".381" stop-color="#FFDC64" stop-opacity="0"/></radialGradient><radialGradient id="f668idf" cx="0" cy="0" r="1" gradientTransform="matrix(-3.46855 6.08644 -12.7775 -7.28166 17.917 12.472)" gradientUnits="userSpaceOnUse"><stop offset=".127" stop-color="#FFC353"/><stop offset=".381" stop-color="#FFC050" stop-opacity="0"/></radialGradient><radialGradient id="f668idg" cx="0" cy="0" r="1" gradientTransform="matrix(0 5.5 -8.41855 0 12.837 22)" gradientUnits="userSpaceOnUse"><stop offset=".348" stop-color="#241A1A"/><stop offset=".628" stop-color="#57444A"/><stop offset="1" stop-color="#4E2553"/><stop offset="1" stop-color="#502A56"/></radialGradient><radialGradient id="f668idh" cx="0" cy="0" r="1" gradientTransform="matrix(0 5.33334 -7.8719 0 12.837 22.111)" gradientUnits="userSpaceOnUse"><stop offset=".518" stop-color="#4E2553"/><stop offset=".703" stop-color="#5E425A"/><stop offset="1" stop-color="#4E2553"/><stop offset="1" stop-color="#4E2553"/></radialGradient><radialGradient id="f668idi" cx="0" cy="0" r="1" gradientTransform="matrix(0 2.42755 -11.377 0 12.837 25.119)" gradientUnits="userSpaceOnUse"><stop offset=".646" stop-color="#4C2746" stop-opacity="0"/><stop offset="1" stop-color="#4E2847"/></radialGradient><radialGradient id="f668idj" cx="0" cy="0" r="1" gradientTransform="matrix(0 3.3125 -6.00026 0 18.837 16)" gradientUnits="userSpaceOnUse"><stop offset=".34" stop-color="#4E3225"/><stop offset=".558" stop-color="#56424D"/><stop offset=".868" stop-color="#502A53"/></radialGradient><radialGradient id="f668idk" cx="0" cy="0" r="1" gradientTransform="rotate(-177.108 10.633 8.487)scale(6.40942 3.35694)" gradientUnits="userSpaceOnUse"><stop offset=".705" stop-color="#4D3231" stop-opacity="0"/><stop offset="1" stop-color="#322020"/></radialGradient><radialGradient id="f668idl" cx="0" cy="0" r="1" gradientTransform="rotate(136.043 7.77 12.827)scale(1.0172 2.21752)" gradientUnits="userSpaceOnUse"><stop stop-color="#66515A"/><stop offset="1" stop-color="#58464D" stop-opacity="0"/></radialGradient><radialGradient id="f668idm" cx="0" cy="0" r="1" gradientTransform="matrix(0 3.3125 -6.00026 0 6.837 16)" gradientUnits="userSpaceOnUse"><stop offset=".34" stop-color="#4E3225"/><stop offset=".558" stop-color="#56424D"/><stop offset=".868" stop-color="#502A53"/></radialGradient><radialGradient id="f668idn" cx="0" cy="0" r="1" gradientTransform="rotate(-177.108 4.633 8.639)scale(6.40942 3.35694)" gradientUnits="userSpaceOnUse"><stop offset=".705" stop-color="#4D3231" stop-opacity="0"/><stop offset="1" stop-color="#322020"/></radialGradient><radialGradient id="f668ido" cx="0" cy="0" r="1" gradientTransform="rotate(136.043 1.77 10.406)scale(1.0172 2.21752)" gradientUnits="userSpaceOnUse"><stop stop-color="#66515A"/><stop offset="1" stop-color="#58464D" stop-opacity="0"/></radialGradient><radialGradient id="f668idp" cx="0" cy="0" r="1" gradientTransform="rotate(-124.747 6.177 3.656)scale(3.41018 4.28513)" gradientUnits="userSpaceOnUse"><stop offset=".552" stop-color="#4A2F37"/><stop offset=".822" stop-color="#51394C"/><stop offset=".891" stop-color="#563E48"/><stop offset=".949" stop-color="#563E48"/><stop offset="1" stop-color="#4D3635"/></radialGradient><radialGradient id="f668idq" cx="0" cy="0" r="1" gradientTransform="rotate(-176.169 3.922 3.685)scale(.41398 .77857)" gradientUnits="userSpaceOnUse"><stop stop-color="#5A4950"/><stop offset="1" stop-color="#5D4C4F" stop-opacity="0"/></radialGradient><radialGradient id="f668idr" cx="0" cy="0" r="1" gradientTransform="rotate(49.544 -3.457 35.93)scale(8.67333 17.0502)" gradientUnits="userSpaceOnUse"><stop offset=".543" stop-color="#3FBAFF" stop-opacity="0"/><stop offset=".63" stop-color="#3088FF"/></radialGradient><radialGradient id="f668ids" cx="0" cy="0" r="1" gradientTransform="rotate(99.481 7.774 25.637)scale(19.114)" gradientUnits="userSpaceOnUse"><stop offset=".579" stop-color="#3088FF" stop-opacity="0"/><stop offset=".69" stop-color="#2B93E2"/></radialGradient><radialGradient id="f668idt" cx="0" cy="0" r="1" gradientTransform="rotate(54.142 -3.643 32.554)scale(9.64607 18.0586)" gradientUnits="userSpaceOnUse"><stop offset=".268" stop-color="#2465A2"/><stop offset=".402" stop-color="#356BB4" stop-opacity="0"/></radialGradient><radialGradient id="f668idu" cx="0" cy="0" r="1" gradientTransform="rotate(64.656 -6.148 31.85)scale(4.22494 11.5135)" gradientUnits="userSpaceOnUse"><stop offset=".155" stop-color="#378CD7"/><stop offset=".308" stop-color="#3EB2FF"/><stop offset=".446" stop-color="#3EB2FF"/><stop offset=".522" stop-color="#3DAEFF"/><stop offset=".684" stop-color="#3C84FF"/></radialGradient><radialGradient id="f668idv" cx="0" cy="0" r="1" gradientTransform="rotate(96.404 2.797 23.59)scale(8.75484)" gradientUnits="userSpaceOnUse"><stop offset=".579" stop-color="#3088FF" stop-opacity="0"/><stop offset=".69" stop-color="#2B93E2"/></radialGradient><radialGradient id="f668idw" cx="0" cy="0" r="1" gradientTransform="rotate(133.662 6.744 18.82)scale(9.85841 6.3125)" gradientUnits="userSpaceOnUse"><stop offset=".579" stop-color="#3088FF" stop-opacity="0"/><stop offset=".69" stop-color="#2B93E2"/></radialGradient><radialGradient id="f668idx" cx="0" cy="0" r="1" gradientTransform="matrix(-3.24928 -2.23116 2.04341 -2.97585 19.06 10.498)" gradientUnits="userSpaceOnUse"><stop offset=".641" stop-color="#2F1F2A"/><stop offset=".822" stop-color="#51394C"/><stop offset=".881" stop-color="#50394C"/><stop offset="1" stop-color="#442E3E"/></radialGradient><radialGradient id="f668idy" cx="0" cy="0" r="1" gradientTransform="matrix(-2.59444 3.11339 -2.51183 -2.09315 20.149 9)" gradientUnits="userSpaceOnUse"><stop offset=".646" stop-color="#362530" stop-opacity="0"/><stop offset="1" stop-color="#342330"/></radialGradient><linearGradient id="f668idz" x1="20.037" x2="19.802" y1="16.75" y2="18.161" gradientUnits="userSpaceOnUse"><stop stop-color="#52383E"/><stop offset="1" stop-color="#432A35"/></linearGradient></defs></g></svg>