<svg xmlns="http://www.w3.org/2000/svg" xmlns:xlink="http://www.w3.org/1999/xlink" width="32" height="32" viewBox="0 0 32 32"><g fill="none"><path fill="url(#f699id0)" d="M29.99 21H2.01v3h27.98z"/><path fill="url(#f699ide)" d="M29.99 21H2.01v3h27.98z"/><path fill="url(#f699idf)" d="M4.01 30v-6h3v6z"/><path fill="url(#f699idg)" d="M11.01 30v-6h3v6z"/><path fill="url(#f699idh)" d="M18 30v-6h2.99v6z"/><path fill="url(#f699idi)" d="M24.99 30v-6h3v6z"/><g filter="url(#f699idl)"><path fill="url(#f699id1)" d="M29.99 21H9.01l1.4 1.41c.38.38.89.59 1.42.59H30v-2z"/><path fill="url(#f699id2)" d="M29.99 21H9.01l1.4 1.41c.38.38.89.59 1.42.59H30v-2z"/></g><g filter="url(#f699idm)"><path fill="url(#f699id3)" d="M15.1 8.52c.58-.34 1.25-.52 1.92-.52h12.97v13H7.82c-2.11 0-3.81-1.71-3.81-3.81c0-1.29.65-2.49 1.72-3.19z"/><path fill="url(#f699id4)" d="M15.1 8.52c.58-.34 1.25-.52 1.92-.52h12.97v13H7.82c-2.11 0-3.81-1.71-3.81-3.81c0-1.29.65-2.49 1.72-3.19z"/></g><path fill="url(#f699id5)" d="M15.1 8.52c.58-.34 1.25-.52 1.92-.52h12.97v13H7.82c-2.11 0-3.81-1.71-3.81-3.81c0-1.29.65-2.49 1.72-3.19z"/><g filter="url(#f699idn)"><path fill="url(#f699id6)" d="M7.82 21h22.17v-2H4.49c.64 1.19 1.89 2 3.33 2"/></g><path fill="url(#f699id7)" d="M4.49 19H30v-1H4.1c.08.36.22.69.39 1"/><g filter="url(#f699ido)"><path fill="url(#f699idj)" d="M13 17h-2c-.55 0-1-.45-1-1s.45-1 1-1h2c.55 0 1 .45 1 1c0 .56-.45 1-1 1"/></g><path fill="url(#f699idk)" d="M29.99 14h-7.05a.95.95 0 0 1-.95-.95V9.96c0-.53.43-.95.95-.95h7.05z"/><path fill="url(#f699id8)" d="M29.99 14h-7.05a.95.95 0 0 1-.95-.95V9.96c0-.53.43-.95.95-.95h7.05z"/><path fill="url(#f699id9)" d="M29.99 14h-7.05a.95.95 0 0 1-.95-.95V9.96c0-.53.43-.95.95-.95h7.05z"/><path fill="url(#f699ida)" d="M18.05 9h-3.76l-6.67 3.9S5.76 13.99 5.74 14h12.32c.53 0 .95-.43.95-.95V9.96a.973.973 0 0 0-.96-.96"/><path fill="url(#f699idb)" d="M18.05 9h-3.76l-6.67 3.9S5.76 13.99 5.74 14h12.32c.53 0 .95-.43.95-.95V9.96a.973.973 0 0 0-.96-.96"/><path fill="url(#f699idc)" d="M18.05 9h-3.76l-6.67 3.9S5.76 13.99 5.74 14h12.32c.53 0 .95-.43.95-.95V9.96a.973.973 0 0 0-.96-.96"/><path fill="url(#f699idd)" d="M18.05 9h-3.76l-6.67 3.9S5.76 13.99 5.74 14h12.32c.53 0 .95-.43.95-.95V9.96a.973.973 0 0 0-.96-.96"/><defs><linearGradient id="f699id0" x1="29.99" x2="2.01" y1="22.501" y2="22.501" gradientUnits="userSpaceOnUse"><stop stop-color="#532B82"/><stop offset="1" stop-color="#231535"/></linearGradient><linearGradient id="f699id1" x1="30" x2="10.719" y1="22.003" y2="22.003" gradientUnits="userSpaceOnUse"><stop stop-color="#409FFB"/><stop offset="1" stop-color="#456BB0"/></linearGradient><linearGradient id="f699id2" x1="19.505" x2="19.505" y1="20.688" y2="21.172" gradientUnits="userSpaceOnUse"><stop stop-color="#295BB2"/><stop offset="1" stop-color="#295BB2" stop-opacity="0"/></linearGradient><linearGradient id="f699id3" x1="23.627" x2="23.627" y1="16.183" y2="8" gradientUnits="userSpaceOnUse"><stop stop-color="#ECDFF2"/><stop offset="1" stop-color="#F4F4F4"/><stop offset="1" stop-color="#EFE8F1"/></linearGradient><linearGradient id="f699id4" x1="4.644" x2="16.279" y1="21" y2="21" gradientUnits="userSpaceOnUse"><stop stop-color="#D7CCD7"/><stop offset="1" stop-color="#D7CCD7" stop-opacity="0"/></linearGradient><linearGradient id="f699id5" x1="29.99" x2="29.807" y1="15.633" y2="15.633" gradientUnits="userSpaceOnUse"><stop stop-color="#F0EFF1"/><stop offset="1" stop-color="#F0EFF1" stop-opacity="0"/></linearGradient><linearGradient id="f699id6" x1="17.24" x2="17.24" y1="19.289" y2="21" gradientUnits="userSpaceOnUse"><stop offset=".353" stop-color="#50A9E4"/><stop offset="1" stop-color="#3D7AC3"/></linearGradient><linearGradient id="f699id7" x1="30" x2="4.1" y1="18.503" y2="18.5" gradientUnits="userSpaceOnUse"><stop stop-color="#6CF0FF"/><stop offset=".93" stop-color="#70FBFF"/><stop offset=".992" stop-color="#5DC9ED"/></linearGradient><linearGradient id="f699id8" x1="25.99" x2="25.99" y1="8.501" y2="9.875" gradientUnits="userSpaceOnUse"><stop stop-color="#037FF5"/><stop offset="1" stop-color="#037FF5" stop-opacity="0"/></linearGradient><linearGradient id="f699id9" x1="25.99" x2="25.99" y1="14.278" y2="13.258" gradientUnits="userSpaceOnUse"><stop stop-color="#2DD4FF"/><stop offset="1" stop-color="#2DD4FF" stop-opacity="0"/></linearGradient><linearGradient id="f699ida" x1="8.813" x2="19.416" y1="14" y2="10.296" gradientUnits="userSpaceOnUse"><stop stop-color="#59FDFF"/><stop offset="1" stop-color="#218FEA"/></linearGradient><linearGradient id="f699idb" x1="14.491" x2="14.491" y1="14.366" y2="13.135" gradientUnits="userSpaceOnUse"><stop stop-color="#1C9CE3"/><stop offset="1" stop-color="#1C9CE3" stop-opacity="0"/></linearGradient><linearGradient id="f699idc" x1="5.256" x2="12.375" y1="14.743" y2="14" gradientUnits="userSpaceOnUse"><stop stop-color="#5BFFFF"/><stop offset="1" stop-color="#5BFFFF" stop-opacity="0"/></linearGradient><linearGradient id="f699idd" x1="14.354" x2="14.354" y1="8.312" y2="10.672" gradientUnits="userSpaceOnUse"><stop stop-color="#047DE4"/><stop offset="1" stop-color="#047DE4" stop-opacity="0"/></linearGradient><radialGradient id="f699ide" cx="0" cy="0" r="1" gradientTransform="matrix(-9.46875 0 0 -1.94032 10.965 22.344)" gradientUnits="userSpaceOnUse"><stop stop-color="#40305B"/><stop offset="1" stop-color="#3D2D57" stop-opacity="0"/></radialGradient><radialGradient id="f699idf" cx="0" cy="0" r="1" gradientTransform="matrix(0 -6.9375 2.96875 0 6.777 29.781)" gradientUnits="userSpaceOnUse"><stop offset=".41" stop-color="#5B4080"/><stop offset="1" stop-color="#2D203F"/></radialGradient><radialGradient id="f699idg" cx="0" cy="0" r="1" gradientTransform="matrix(0 -6.9375 2.96875 0 13.777 29.781)" gradientUnits="userSpaceOnUse"><stop offset=".41" stop-color="#5B4080"/><stop offset="1" stop-color="#2D203F"/></radialGradient><radialGradient id="f699idh" cx="0" cy="0" r="1" gradientTransform="matrix(0 -6.9375 2.95885 0 20.758 29.781)" gradientUnits="userSpaceOnUse"><stop offset=".41" stop-color="#5B4080"/><stop offset="1" stop-color="#2D203F"/></radialGradient><radialGradient id="f699idi" cx="0" cy="0" r="1" gradientTransform="matrix(0 -6.9375 2.96875 0 27.757 29.781)" gradientUnits="userSpaceOnUse"><stop offset=".41" stop-color="#5B4080"/><stop offset="1" stop-color="#2D203F"/></radialGradient><radialGradient id="f699idj" cx="0" cy="0" r="1" gradientTransform="matrix(3.75568 0 0 1.64929 10.523 16.003)" gradientUnits="userSpaceOnUse"><stop stop-color="#FF6D46"/><stop offset="1" stop-color="#F43A21"/></radialGradient><radialGradient id="f699idk" cx="0" cy="0" r="1" gradientTransform="matrix(.12713 4.38657 -7.64468 .22155 24.086 8.036)" gradientUnits="userSpaceOnUse"><stop offset=".117" stop-color="#0686FB"/><stop offset="1" stop-color="#50E9FF"/></radialGradient><filter id="f699idl" width="21.29" height="2.3" x="9.01" y="20.7" color-interpolation-filters="sRGB" filterUnits="userSpaceOnUse"><feFlood flood-opacity="0" result="BackgroundImageFix"/><feBlend in="SourceGraphic" in2="BackgroundImageFix" result="shape"/><feColorMatrix in="SourceAlpha" result="hardAlpha" values="0 0 0 0 0 0 0 0 0 0 0 0 0 0 0 0 0 0 127 0"/><feOffset dx=".3" dy="-.3"/><feGaussianBlur stdDeviation=".375"/><feComposite in2="hardAlpha" k2="-1" k3="1" operator="arithmetic"/><feColorMatrix values="0 0 0 0 0.192157 0 0 0 0 0.313726 0 0 0 0 0.623529 0 0 0 1 0"/><feBlend in2="shape" result="effect1_innerShadow_18_9167"/></filter><filter id="f699idm" width="26.78" height="13" x="4.01" y="8" color-interpolation-filters="sRGB" filterUnits="userSpaceOnUse"><feFlood flood-opacity="0" result="BackgroundImageFix"/><feBlend in="SourceGraphic" in2="BackgroundImageFix" result="shape"/><feColorMatrix in="SourceAlpha" result="hardAlpha" values="0 0 0 0 0 0 0 0 0 0 0 0 0 0 0 0 0 0 127 0"/><feOffset dx=".8"/><feGaussianBlur stdDeviation=".6"/><feComposite in2="hardAlpha" k2="-1" k3="1" operator="arithmetic"/><feColorMatrix values="0 0 0 0 0.670588 0 0 0 0 0.631373 0 0 0 0 0.65098 0 0 0 1 0"/><feBlend in2="shape" result="effect1_innerShadow_18_9167"/></filter><filter id="f699idn" width="26.5" height="2.2" x="4.49" y="18.8" color-interpolation-filters="sRGB" filterUnits="userSpaceOnUse"><feFlood flood-opacity="0" result="BackgroundImageFix"/><feBlend in="SourceGraphic" in2="BackgroundImageFix" result="shape"/><feColorMatrix in="SourceAlpha" result="hardAlpha" values="0 0 0 0 0 0 0 0 0 0 0 0 0 0 0 0 0 0 127 0"/><feOffset dx="1" dy="-.2"/><feGaussianBlur stdDeviation=".5"/><feComposite in2="hardAlpha" k2="-1" k3="1" operator="arithmetic"/><feColorMatrix values="0 0 0 0 0.141176 0 0 0 0 0.317647 0 0 0 0 0.607843 0 0 0 1 0"/><feBlend in2="shape" result="effect1_innerShadow_18_9167"/></filter><filter id="f699ido" width="4" height="2" x="10" y="15" color-interpolation-filters="sRGB" filterUnits="userSpaceOnUse"><feFlood flood-opacity="0" result="BackgroundImageFix"/><feBlend in="SourceGraphic" in2="BackgroundImageFix" result="shape"/><feColorMatrix in="SourceAlpha" result="hardAlpha" values="0 0 0 0 0 0 0 0 0 0 0 0 0 0 0 0 0 0 127 0"/><feOffset/><feGaussianBlur stdDeviation=".2"/><feComposite in2="hardAlpha" k2="-1" k3="1" operator="arithmetic"/><feColorMatrix values="0 0 0 0 0.909804 0 0 0 0 0.180392 0 0 0 0 0.0666667 0 0 0 1 0"/><feBlend in2="shape" result="effect1_innerShadow_18_9167"/></filter></defs></g></svg>