<svg xmlns="http://www.w3.org/2000/svg" xmlns:xlink="http://www.w3.org/1999/xlink" width="32" height="32" viewBox="0 0 32 32"><g fill="none"><path fill="url(#f717id0)" d="M5 5a2 2 0 0 1 2-2h16.165a2 2 0 0 1 2 2v14L10.5 30H5z"/><path fill="url(#f717idn)" d="M5 5a2 2 0 0 1 2-2h16.165a2 2 0 0 1 2 2v14L10.5 30H5z"/><path fill="url(#f717id1)" d="M5 5a2 2 0 0 1 2-2h16.165a2 2 0 0 1 2 2v14L10.5 30H5z"/><path fill="url(#f717ido)" d="M5 5a2 2 0 0 1 2-2h16.165a2 2 0 0 1 2 2v14L10.5 30H5z"/><path fill="url(#f717idp)" d="M5 5a2 2 0 0 1 2-2h16.165a2 2 0 0 1 2 2v14L10.5 30H5z"/><path fill="url(#f717id2)" d="M5 5a2 2 0 0 1 2-2h16.165a2 2 0 0 1 2 2v14L10.5 30H5z"/><path fill="url(#f717id3)" d="M5 5a2 2 0 0 1 2-2h16.165a2 2 0 0 1 2 2v14L10.5 30H5z"/><path fill="url(#f717idq)" d="M5 5a2 2 0 0 1 2-2h16.165a2 2 0 0 1 2 2v14L10.5 30H5z"/><path fill="url(#f717idr)" d="M5 5a2 2 0 0 1 2-2h16.165a2 2 0 0 1 2 2v14L10.5 30H5z"/><path fill="url(#f717ids)" d="M5 5a2 2 0 0 1 2-2h16.165a2 2 0 0 1 2 2v14L10.5 30H5z"/><path fill="url(#f717id4)" d="M10.165 21a2 2 0 0 1 2-2h15a2 2 0 0 1 2 2v9H27l-2.75-1l-2.75 1h-3l-1-1l-1 1h-2l-1.168-1l-1.167 1h-2z"/><path fill="url(#f717id5)" d="M10.165 21a2 2 0 0 1 2-2h15a2 2 0 0 1 2 2v9H27l-2.75-1l-2.75 1h-3l-1-1l-1 1h-2l-1.168-1l-1.167 1h-2z"/><path fill="url(#f717id6)" d="M10.165 21a2 2 0 0 1 2-2h15a2 2 0 0 1 2 2v9H27l-2.75-1l-2.75 1h-3l-1-1l-1 1h-2l-1.168-1l-1.167 1h-2z"/><path fill="url(#f717id7)" d="M10.165 21a2 2 0 0 1 2-2h15a2 2 0 0 1 2 2v9H27l-2.75-1l-2.75 1h-3l-1-1l-1 1h-2l-1.168-1l-1.167 1h-2z"/><path fill="url(#f717id8)" d="M10.165 21a2 2 0 0 1 2-2h15a2 2 0 0 1 2 2v9H27l-2.75-1l-2.75 1h-3l-1-1l-1 1h-2l-1.168-1l-1.167 1h-2z"/><path fill="url(#f717idt)" d="M10.165 21a2 2 0 0 1 2-2h15a2 2 0 0 1 2 2v9H27l-2.75-1l-2.75 1h-3l-1-1l-1 1h-2l-1.168-1l-1.167 1h-2z"/><rect width="9" height="9" x="9.165" y="2" fill="#F1E3FF" rx="1"/><rect width="9" height="9" x="9.165" y="2" fill="url(#f717id9)" rx="1"/><rect width="9" height="9" x="9.165" y="2" fill="url(#f717ida)" rx="1"/><rect width="9" height="9" x="9.165" y="2" fill="url(#f717idb)" rx="1"/><rect width="9" height="9" x="9.165" y="2" fill="url(#f717idu)" rx="1"/><rect width="9" height="9" x="9.165" y="2" fill="url(#f717idc)" rx="1"/><path fill="url(#f717idd)" fill-rule="evenodd" d="M13.665 4a.5.5 0 0 0-.5.5V6h-1.5a.5.5 0 0 0 0 1h1.5v1.5a.5.5 0 0 0 1 0V7h1.5a.5.5 0 1 0 0-1h-1.5V4.5a.5.5 0 0 0-.5-.5m-1.5.5a1.5 1.5 0 0 1 3 0V5h.5a1.5 1.5 0 1 1 0 3h-.5v.5a1.5 1.5 0 1 1-3 0V8h-.5a1.5 1.5 0 0 1 0-3h.5z" clip-rule="evenodd"/><rect width="15" height="1.5" x="12.165" y="21" fill="url(#f717ide)" rx=".75"/><rect width="15" height="1.5" x="12.165" y="23.5" fill="url(#f717idf)" rx=".75"/><path fill="#DF30B8" d="M21.165 28.5a.5.5 0 0 1 .5-.5h5a.5.5 0 0 1 .5.5V30h-6z"/><path fill="url(#f717idg)" d="M21.165 28.5a.5.5 0 0 1 .5-.5h5a.5.5 0 0 1 .5.5V30h-6z"/><path fill="url(#f717idh)" d="M21.165 28.5a.5.5 0 0 1 .5-.5h5a.5.5 0 0 1 .5.5V30h-6z"/><path fill="#DF30B8" d="M16.165 28h2a.5.5 0 0 1 .5.5V30h-2.5z"/><path fill="url(#f717idi)" d="M16.165 28h2a.5.5 0 0 1 .5.5V30h-2.5z"/><path fill="url(#f717idj)" d="M16.165 28h2a.5.5 0 0 1 .5.5V30h-2.5z"/><path fill="#E839BD" d="M14.665 28h-2a.5.5 0 0 0-.5.5V30h2.5z"/><path fill="url(#f717idk)" d="M14.665 28h-2a.5.5 0 0 0-.5.5V30h2.5z"/><path fill="url(#f717idl)" d="M14.665 28h-2a.5.5 0 0 0-.5.5V30h2.5z"/><path fill="url(#f717idm)" d="M14.665 28h-2a.5.5 0 0 0-.5.5V30h2.5z"/><defs><linearGradient id="f717id0" x1="4.267" x2="26.226" y1="14.5" y2="14.5" gradientUnits="userSpaceOnUse"><stop stop-color="#826F96"/><stop offset="1" stop-color="#BBB5C4"/></linearGradient><linearGradient id="f717id1" x1="28.973" x2="20.618" y1="12.158" y2="12.158" gradientUnits="userSpaceOnUse"><stop stop-color="#BAB5BF"/><stop offset="1" stop-color="#BAB5BF" stop-opacity="0"/></linearGradient><linearGradient id="f717id2" x1="4.478" x2="6.282" y1="19.374" y2="19.374" gradientUnits="userSpaceOnUse"><stop stop-color="#6D6277"/><stop offset="1" stop-color="#6D6277" stop-opacity="0"/></linearGradient><linearGradient id="f717id3" x1="15.083" x2="15.083" y1="2.141" y2="4.42" gradientUnits="userSpaceOnUse"><stop stop-color="#8F8E8F"/><stop offset="1" stop-color="#8F8E8F" stop-opacity="0"/></linearGradient><linearGradient id="f717id4" x1="10.165" x2="29.165" y1="23.685" y2="23.685" gradientUnits="userSpaceOnUse"><stop stop-color="#CEAFF2"/><stop offset="1" stop-color="#D4B8F6"/></linearGradient><linearGradient id="f717id5" x1="29.165" x2="27.014" y1="25.674" y2="25.674" gradientUnits="userSpaceOnUse"><stop stop-color="#DFD8EE"/><stop offset="1" stop-color="#DFD8EE" stop-opacity="0"/></linearGradient><linearGradient id="f717id6" x1="19.665" x2="19.665" y1="19" y2="20.977" gradientUnits="userSpaceOnUse"><stop stop-color="#B6B5BD"/><stop offset="1" stop-color="#B6B5BD" stop-opacity="0"/></linearGradient><linearGradient id="f717id7" x1="10.165" x2="12.163" y1="26.859" y2="26.859" gradientUnits="userSpaceOnUse"><stop stop-color="#A185C2"/><stop offset="1" stop-color="#A185C2" stop-opacity="0"/></linearGradient><linearGradient id="f717id8" x1="9.92" x2="10.555" y1="27.028" y2="27.028" gradientUnits="userSpaceOnUse"><stop stop-color="#8F7DA5"/><stop offset="1" stop-color="#8F7DA5" stop-opacity="0"/></linearGradient><linearGradient id="f717id9" x1="13.665" x2="13.665" y1="11" y2="10.158" gradientUnits="userSpaceOnUse"><stop stop-color="#DDC9F3"/><stop offset="1" stop-color="#DDC9F3" stop-opacity="0"/></linearGradient><linearGradient id="f717ida" x1="18.602" x2="16.915" y1="6" y2="6" gradientUnits="userSpaceOnUse"><stop stop-color="#FFFBFF"/><stop offset="1" stop-color="#FFFBFF" stop-opacity="0"/></linearGradient><linearGradient id="f717idb" x1="8.652" x2="10.326" y1="7.181" y2="7.181" gradientUnits="userSpaceOnUse"><stop offset=".538" stop-color="#DDC9F3"/><stop offset="1" stop-color="#F2E4FF" stop-opacity="0"/></linearGradient><linearGradient id="f717idc" x1="13.665" x2="13.665" y1="2" y2="3.109" gradientUnits="userSpaceOnUse"><stop stop-color="#E8E6E8"/><stop offset="1" stop-color="#E8E6E8" stop-opacity="0"/></linearGradient><linearGradient id="f717idd" x1="13.665" x2="13.665" y1="3.5" y2="9.5" gradientUnits="userSpaceOnUse"><stop stop-color="#E41653"/><stop offset="1" stop-color="#DB1E6A"/></linearGradient><linearGradient id="f717ide" x1="19.665" x2="19.665" y1="21" y2="22.5" gradientUnits="userSpaceOnUse"><stop stop-color="#E3CAFF"/><stop offset="1" stop-color="#F3EEF8"/><stop offset="1" stop-color="#F3EDF9"/></linearGradient><linearGradient id="f717idf" x1="19.665" x2="19.665" y1="23.344" y2="25" gradientUnits="userSpaceOnUse"><stop stop-color="#E3CAFF"/><stop offset="1" stop-color="#F3EDF9"/><stop offset="1" stop-color="#F3EEF8"/></linearGradient><linearGradient id="f717idg" x1="24.165" x2="24.165" y1="27.276" y2="30" gradientUnits="userSpaceOnUse"><stop offset=".119" stop-color="#361530" stop-opacity=".72"/><stop offset=".572" stop-color="#DE30B8" stop-opacity="0"/></linearGradient><linearGradient id="f717idh" x1="27.596" x2="20.734" y1="29.123" y2="29.123" gradientUnits="userSpaceOnUse"><stop offset=".055" stop-color="#871371"/><stop offset=".122" stop-color="#DD2FB6" stop-opacity="0"/><stop offset=".874" stop-color="#DD2FB6" stop-opacity="0"/><stop offset=".956" stop-color="#871371"/></linearGradient><linearGradient id="f717idi" x1="17.415" x2="17.415" y1="27.276" y2="30" gradientUnits="userSpaceOnUse"><stop offset=".119" stop-color="#361530" stop-opacity=".72"/><stop offset=".572" stop-color="#DE30B8" stop-opacity="0"/></linearGradient><linearGradient id="f717idj" x1="18.845" x2="15.985" y1="29.123" y2="29.123" gradientUnits="userSpaceOnUse"><stop offset=".029" stop-color="#871371"/><stop offset=".122" stop-color="#DD2FB6" stop-opacity="0"/><stop offset=".874" stop-color="#DD2FB6" stop-opacity="0"/><stop offset=".994" stop-color="#871371"/></linearGradient><linearGradient id="f717idk" x1="12.165" x2="12.568" y1="30" y2="30" gradientUnits="userSpaceOnUse"><stop stop-color="#EE2FBA"/><stop offset="1" stop-color="#EE2FBA" stop-opacity="0"/></linearGradient><linearGradient id="f717idl" x1="13.415" x2="13.415" y1="27.276" y2="30" gradientUnits="userSpaceOnUse"><stop offset=".119" stop-color="#361530" stop-opacity=".72"/><stop offset=".572" stop-color="#DE30B8" stop-opacity="0"/></linearGradient><linearGradient id="f717idm" x1="11.986" x2="14.845" y1="29.123" y2="29.123" gradientUnits="userSpaceOnUse"><stop stop-color="#871371"/><stop offset=".122" stop-color="#DD2FB6" stop-opacity="0"/><stop offset=".874" stop-color="#DD2FB6" stop-opacity="0"/><stop offset=".956" stop-color="#871371"/></linearGradient><radialGradient id="f717idn" cx="0" cy="0" r="1" gradientTransform="matrix(10.4912 0 0 6.78348 14.21 21.272)" gradientUnits="userSpaceOnUse"><stop stop-color="#938F98"/><stop offset="1" stop-color="#938F98" stop-opacity="0"/></radialGradient><radialGradient id="f717ido" cx="0" cy="0" r="1" gradientTransform="matrix(0 -12.3829 4.68745 0 8.348 30)" gradientUnits="userSpaceOnUse"><stop stop-color="#8665A3"/><stop offset="1" stop-color="#8665A3" stop-opacity="0"/></radialGradient><radialGradient id="f717idp" cx="0" cy="0" r="1" gradientTransform="matrix(-3.87952 8.02268 -5.53316 -2.67567 12.077 4.99)" gradientUnits="userSpaceOnUse"><stop stop-color="#7F6796"/><stop offset="1" stop-color="#7F6796" stop-opacity="0"/></radialGradient><radialGradient id="f717idq" cx="0" cy="0" r="1" gradientTransform="matrix(-.44124 9.42643 -1.33272 -.06238 9.068 6.765)" gradientUnits="userSpaceOnUse"><stop offset=".193" stop-color="#6E5883" stop-opacity=".4"/><stop offset=".481" stop-color="#7F6796" stop-opacity="0"/></radialGradient><radialGradient id="f717idr" cx="0" cy="0" r="1" gradientTransform="matrix(-5.96533 -.0481 .00532 -.66 13.545 11.195)" gradientUnits="userSpaceOnUse"><stop stop-color="#6E5883" stop-opacity=".66"/><stop offset=".758" stop-color="#7F6796" stop-opacity="0"/></radialGradient><radialGradient id="f717ids" cx="0" cy="0" r="1" gradientTransform="rotate(126.061 2.672 7.481)scale(2.71326 3.15841)" gradientUnits="userSpaceOnUse"><stop offset=".343" stop-color="#6E5883" stop-opacity=".85"/><stop offset=".758" stop-color="#7F6796" stop-opacity="0"/></radialGradient><radialGradient id="f717idt" cx="0" cy="0" r="1" gradientTransform="rotate(44.828 -17.346 21.573)scale(2.19066 2.77661)" gradientUnits="userSpaceOnUse"><stop stop-color="#868390"/><stop offset="1" stop-color="#868390" stop-opacity="0"/></radialGradient><radialGradient id="f717idu" cx="0" cy="0" r="1" gradientTransform="rotate(126.591 2.166 7.75)scale(1.26205 2.7966)" gradientUnits="userSpaceOnUse"><stop stop-color="#DECAF4"/><stop offset="1" stop-color="#F2E4FF" stop-opacity="0"/></radialGradient></defs></g></svg>