<svg xmlns="http://www.w3.org/2000/svg" xmlns:xlink="http://www.w3.org/1999/xlink" width="32" height="32" viewBox="0 0 32 32"><g fill="none"><circle cx="19.796" cy="12.125" r="1.969" fill="url(#f768id0)"/><circle cx="24.734" cy="12.125" r="1.969" fill="url(#f768id1)"/><path fill="url(#f768id2)" d="M22.26 12.07a1.81 1.81 0 1 0 0-3.62a1.81 1.81 0 0 0 0 3.62"/><path fill="url(#f768id3)" d="m22.47 7.85l.43-.74A.742.742 0 0 0 22.26 6c-.57 0-.93.62-.64 1.11l.43.74c.09.17.33.17.42 0"/><path fill="url(#f768idp)" d="m22.47 7.85l.43-.74A.742.742 0 0 0 22.26 6c-.57 0-.93.62-.64 1.11l.43.74c.09.17.33.17.42 0"/><path fill="url(#f768idq)" d="m22.47 7.85l.43-.74A.742.742 0 0 0 22.26 6c-.57 0-.93.62-.64 1.11l.43.74c.09.17.33.17.42 0"/><g filter="url(#f768id1e)"><path fill="url(#f768id4)" d="m21.57 8.13l-.33-.79c-.22-.53-.93-.61-1.28-.16a.742.742 0 0 0 .5 1.18l.85.1c.19.04.34-.15.26-.33"/><path fill="url(#f768id5)" d="m21.57 8.13l-.33-.79c-.22-.53-.93-.61-1.28-.16a.742.742 0 0 0 .5 1.18l.85.1c.19.04.34-.15.26-.33"/><path fill="url(#f768idr)" d="m21.57 8.13l-.33-.79c-.22-.53-.93-.61-1.28-.16a.742.742 0 0 0 .5 1.18l.85.1c.19.04.34-.15.26-.33"/></g><g filter="url(#f768id1f)"><path fill="url(#f768id6)" d="m22.94 8.13l.33-.79c.22-.53.93-.61 1.28-.16c.34.46.06 1.11-.5 1.18l-.85.1c-.19.04-.33-.15-.26-.33"/></g><path fill="url(#f768id7)" d="M22.26 10a1.13 1.13 0 1 0 0-2.26a1.13 1.13 0 0 0 0 2.26"/><path fill="url(#f768ids)" d="M22.83 13.77H21.7a5.16 5.16 0 0 0-5.16 5.16v7.76c0 .58.47 1.06 1.06 1.06h9.33c.58 0 1.06-.47 1.06-1.06v-7.76a5.16 5.16 0 0 0-5.16-5.16"/><path fill="url(#f768id8)" d="M22.83 13.77H21.7a5.16 5.16 0 0 0-5.16 5.16v7.76c0 .58.47 1.06 1.06 1.06h9.33c.58 0 1.06-.47 1.06-1.06v-7.76a5.16 5.16 0 0 0-5.16-5.16"/><path fill="url(#f768idt)" d="M22.83 13.77H21.7a5.16 5.16 0 0 0-5.16 5.16v7.76c0 .58.47 1.06 1.06 1.06h9.33c.58 0 1.06-.47 1.06-1.06v-7.76a5.16 5.16 0 0 0-5.16-5.16"/><path fill="url(#f768id9)" d="M22.83 13.77H21.7a5.16 5.16 0 0 0-5.16 5.16v7.76c0 .58.47 1.06 1.06 1.06h9.33c.58 0 1.06-.47 1.06-1.06v-7.76a5.16 5.16 0 0 0-5.16-5.16"/><path fill="url(#f768idu)" d="M22.83 13.77H21.7a5.16 5.16 0 0 0-5.16 5.16v7.76c0 .58.47 1.06 1.06 1.06h9.33c.58 0 1.06-.47 1.06-1.06v-7.76a5.16 5.16 0 0 0-5.16-5.16"/><path fill="url(#f768idv)" d="M22.83 13.77H21.7a5.16 5.16 0 0 0-5.16 5.16v7.76c0 .58.47 1.06 1.06 1.06h9.33c.58 0 1.06-.47 1.06-1.06v-7.76a5.16 5.16 0 0 0-5.16-5.16"/><g filter="url(#f768id1g)"><path fill="url(#f768idw)" d="m22.49 23.747l2.59-2.65c1.24-1.27.34-3.41-1.44-3.41h-3.32c-1.78 0-2.68 2.14-1.44 3.41l2.59 2.65c.29.28.75.28 1.02 0"/></g><path fill="url(#f768idx)" d="m22.74 23.53l2.59-2.65c1.24-1.27.34-3.41-1.44-3.41h-3.32c-1.78 0-2.68 2.14-1.44 3.41l2.59 2.65c.29.28.75.28 1.02 0"/><path fill="url(#f768ida)" d="m22.74 23.53l2.59-2.65c1.24-1.27.34-3.41-1.44-3.41h-3.32c-1.78 0-2.68 2.14-1.44 3.41l2.59 2.65c.29.28.75.28 1.02 0"/><path fill="url(#f768idb)" d="m22.74 23.53l2.59-2.65c1.24-1.27.34-3.41-1.44-3.41h-3.32c-1.78 0-2.68 2.14-1.44 3.41l2.59 2.65c.29.28.75.28 1.02 0"/><path fill="url(#f768idy)" d="m22.74 23.53l2.59-2.65c1.24-1.27.34-3.41-1.44-3.41h-3.32c-1.78 0-2.68 2.14-1.44 3.41l2.59 2.65c.29.28.75.28 1.02 0"/><g filter="url(#f768id1h)"><path fill="#7ED2FB" d="M10.3 13.77H9.17a5.16 5.16 0 0 0-5.16 5.16v7.76c0 .58.47 1.06 1.06 1.06h9.33c.58 0 1.06-.47 1.06-1.06v-7.76a5.16 5.16 0 0 0-5.16-5.16"/></g><path fill="url(#f768idz)" d="M10.3 13.77H9.17a5.16 5.16 0 0 0-5.16 5.16v7.76c0 .58.47 1.06 1.06 1.06h9.33c.58 0 1.06-.47 1.06-1.06v-7.76a5.16 5.16 0 0 0-5.16-5.16"/><path fill="url(#f768idc)" d="M10.3 13.77H9.17a5.16 5.16 0 0 0-5.16 5.16v7.76c0 .58.47 1.06 1.06 1.06h9.33c.58 0 1.06-.47 1.06-1.06v-7.76a5.16 5.16 0 0 0-5.16-5.16"/><g filter="url(#f768id1i)"><path fill="#4E8DB3" d="M9.091 17.778h.965a.4.4 0 0 1 .396.434l-.483 5.336a.398.398 0 0 1-.79 0l-.483-5.336a.4.4 0 0 1 .395-.434"/></g><g filter="url(#f768id1j)"><path fill="url(#f768idd)" d="M9.23 17.51h1c.24 0 .43.21.41.45l-.5 5.53a.412.412 0 0 1-.82 0l-.5-5.53c-.02-.24.17-.45.41-.45"/><path fill="url(#f768id10)" d="M9.23 17.51h1c.24 0 .43.21.41.45l-.5 5.53a.412.412 0 0 1-.82 0l-.5-5.53c-.02-.24.17-.45.41-.45"/></g><g filter="url(#f768id1k)"><path fill="url(#f768id11)" d="M29 27.75H3c-.55 0-1 .45-1 1s.45 1 1 1h26c.55 0 1-.45 1-1s-.45-1-1-1"/></g><path fill="url(#f768id12)" d="M29 27.75H3c-.55 0-1 .45-1 1s.45 1 1 1h26c.55 0 1-.45 1-1s-.45-1-1-1"/><g filter="url(#f768id1l)"><path fill="url(#f768ide)" d="M19.55 13.81c0 1.49 1.21 2.7 2.7 2.7s2.7-1.21 2.7-2.7v-1.76h-5.41v1.76z"/></g><g filter="url(#f768id1m)"><path fill="url(#f768idf)" d="M24.96 12.05c0-1.5-1.21-2.71-2.7-2.71s-2.7 1.21-2.7 2.7v.01z"/><path fill="url(#f768id13)" d="M24.96 12.05c0-1.5-1.21-2.71-2.7-2.71s-2.7 1.21-2.7 2.7v.01z"/><path fill="url(#f768idg)" d="M24.96 12.05c0-1.5-1.21-2.71-2.7-2.71s-2.7 1.21-2.7 2.7v.01z"/></g><path fill="url(#f768id14)" fill-rule="evenodd" d="M7.5 8.41a.5.5 0 0 1 .5-.5h3.594a.5.5 0 0 1 0 1H8a.5.5 0 0 1-.5-.5" clip-rule="evenodd"/><path fill="url(#f768id15)" fill-rule="evenodd" d="M7.5 8.41a.5.5 0 0 1 .5-.5h3.594a.5.5 0 0 1 0 1H8a.5.5 0 0 1-.5-.5" clip-rule="evenodd"/><path fill="url(#f768idh)" fill-rule="evenodd" d="M7.5 8.41a.5.5 0 0 1 .5-.5h3.594a.5.5 0 0 1 0 1H8a.5.5 0 0 1-.5-.5" clip-rule="evenodd"/><path fill="url(#f768id16)" fill-rule="evenodd" d="M7.5 8.41a.5.5 0 0 1 .5-.5h3.594a.5.5 0 0 1 0 1H8a.5.5 0 0 1-.5-.5" clip-rule="evenodd"/><path fill="url(#f768idi)" fill-rule="evenodd" d="M7.5 8.41a.5.5 0 0 1 .5-.5h3.594a.5.5 0 0 1 0 1H8a.5.5 0 0 1-.5-.5" clip-rule="evenodd"/><g filter="url(#f768id1n)"><path stroke="url(#f768id17)" stroke-linecap="round" stroke-width=".25" d="m9.563 8.398l2.171-.046"/></g><g filter="url(#f768id1o)"><path fill="url(#f768idj)" d="M9.73 9.34c-1.49 0-2.7 1.21-2.7 2.7v1.77c0 1.49 1.21 2.7 2.7 2.7s2.7-1.21 2.7-2.7v-1.77c.01-1.49-1.2-2.7-2.7-2.7"/></g><g filter="url(#f768id1p)"><path fill="#CAAB9F" d="M8.538 14.38c-.28 0-.5-.209-.5-.475v-.38c0-.267.22-.476.5-.476s.5.209.5.475v.39c0 .257-.23.466-.5.466"/></g><path fill="url(#f768id18)" d="M8.61 14.34c-.28 0-.5-.22-.5-.5v-.4c0-.28.22-.5.5-.5s.5.22.5.5v.41a.5.5 0 0 1-.5.49"/><path fill="url(#f768idk)" d="M8.61 14.34c-.28 0-.5-.22-.5-.5v-.4c0-.28.22-.5.5-.5s.5.22.5.5v.41a.5.5 0 0 1-.5.49"/><g filter="url(#f768id1q)"><path fill="#D3AEA3" d="M10.778 14.38c-.28 0-.5-.209-.5-.475v-.38c0-.267.22-.476.5-.476s.5.209.5.475v.39c0 .257-.23.466-.5.466"/></g><path fill="url(#f768id19)" d="M10.86 14.34c-.28 0-.5-.22-.5-.5v-.4c0-.28.22-.5.5-.5s.5.22.5.5v.41a.5.5 0 0 1-.5.49"/><path fill="url(#f768idl)" d="M10.86 14.34c-.28 0-.5-.22-.5-.5v-.4c0-.28.22-.5.5-.5s.5.22.5.5v.41a.5.5 0 0 1-.5.49"/><path fill="url(#f768id1a)" d="M21.14 14.34c-.28 0-.5-.22-.5-.5v-.4c0-.28.22-.5.5-.5s.5.22.5.5v.41c0 .27-.22.49-.5.49"/><path fill="url(#f768idm)" d="M21.14 14.34c-.28 0-.5-.22-.5-.5v-.4c0-.28.22-.5.5-.5s.5.22.5.5v.41c0 .27-.22.49-.5.49"/><path fill="url(#f768id1b)" d="M23.39 14.34c-.28 0-.5-.22-.5-.5v-.4c0-.28.22-.5.5-.5s.5.22.5.5v.41c0 .27-.22.49-.5.49"/><path fill="url(#f768idn)" d="M23.39 14.34c-.28 0-.5-.22-.5-.5v-.4c0-.28.22-.5.5-.5s.5.22.5.5v.41c0 .27-.22.49-.5.49"/><g filter="url(#f768id1r)"><rect width="1.284" height="4.507" x="9.088" y="6.333" fill="#5F5A94" rx=".642"/></g><g filter="url(#f768id1s)"><path stroke="url(#f768id1c)" stroke-linecap="round" stroke-width=".25" d="M9.875 6.797v3.062"/></g><g filter="url(#f768id1t)"><path fill="url(#f768ido)" d="M12.43 12.05h-5.4v-.01c0-1.49 1.21-2.7 2.7-2.7c1.5 0 2.71 1.21 2.7 2.7z"/><path fill="url(#f768id1d)" d="M12.43 12.05h-5.4v-.01c0-1.49 1.21-2.7 2.7-2.7c1.5 0 2.71 1.21 2.7 2.7z"/></g><defs><radialGradient id="f768id0" cx="0" cy="0" r="1" gradientTransform="matrix(1.96875 .4375 -.64583 2.90625 17.828 11.313)" gradientUnits="userSpaceOnUse"><stop stop-color="#6C6772"/><stop offset="1" stop-color="#3C243B"/></radialGradient><radialGradient id="f768id1" cx="0" cy="0" r="1" gradientTransform="rotate(-16.026 54.1 -82.77)scale(1.52814 1.35058)" gradientUnits="userSpaceOnUse"><stop stop-color="#6E6975"/><stop offset="1" stop-color="#311742"/></radialGradient><radialGradient id="f768id2" cx="0" cy="0" r="1" gradientTransform="rotate(4.086 -123.585 298.06)scale(2.41238)" gradientUnits="userSpaceOnUse"><stop stop-color="#706878"/><stop offset="1" stop-color="#584E64"/></radialGradient><radialGradient id="f768id3" cx="0" cy="0" r="1" gradientTransform="matrix(-.74218 1.01563 -.96685 -.70654 22.797 6.438)" gradientUnits="userSpaceOnUse"><stop stop-color="#FDF57B"/><stop offset="1" stop-color="#F1BA51"/></radialGradient><radialGradient id="f768id4" cx="0" cy="0" r="1" gradientTransform="matrix(-.1885 1.25 -1.6707 -.25196 20.89 7.094)" gradientUnits="userSpaceOnUse"><stop stop-color="#FBE673"/><stop offset="1" stop-color="#E1A747"/></radialGradient><radialGradient id="f768id5" cx="0" cy="0" r="1" gradientTransform="rotate(-151.586 11.761 1.487)scale(.26788 .6139)" gradientUnits="userSpaceOnUse"><stop offset=".516" stop-color="#CD8937"/><stop offset="1" stop-color="#CD8937" stop-opacity="0"/></radialGradient><radialGradient id="f768id6" cx="0" cy="0" r="1" gradientTransform="matrix(-.78906 .65626 -.54879 -.65984 24.281 7.375)" gradientUnits="userSpaceOnUse"><stop stop-color="#FBE878"/><stop offset="1" stop-color="#EAAF4A"/></radialGradient><radialGradient id="f768id7" cx="0" cy="0" r="1" gradientTransform="rotate(127.933 9.446 9.762)scale(1.34711)" gradientUnits="userSpaceOnUse"><stop stop-color="#F9DB78"/><stop offset="1" stop-color="#E5AB48"/></radialGradient><radialGradient id="f768id8" cx="0" cy="0" r="1" gradientTransform="matrix(1.58177 4.03103 -7.49501 2.94104 18.53 13.77)" gradientUnits="userSpaceOnUse"><stop stop-color="#B55965"/><stop offset="1" stop-color="#B55965" stop-opacity="0"/></radialGradient><radialGradient id="f768id9" cx="0" cy="0" r="1" gradientTransform="rotate(153.153 9.267 9.9)scale(2.8338 2.66448)" gradientUnits="userSpaceOnUse"><stop offset=".636" stop-color="#AB3140"/><stop offset="1" stop-color="#AB3140" stop-opacity="0"/></radialGradient><radialGradient id="f768ida" cx="0" cy="0" r="1" gradientTransform="matrix(3.67428 2.48001 -3.189 4.72468 18.556 18.125)" gradientUnits="userSpaceOnUse"><stop stop-color="#FBE774"/><stop offset="1" stop-color="#FBE774" stop-opacity="0"/></radialGradient><radialGradient id="f768idb" cx="0" cy="0" r="1" gradientTransform="rotate(142.261 9.801 13.646)scale(2.96127 2.16049)" gradientUnits="userSpaceOnUse"><stop stop-color="#FBE47A"/><stop offset="1" stop-color="#FBE47A" stop-opacity="0"/></radialGradient><radialGradient id="f768idc" cx="0" cy="0" r="1" gradientTransform="matrix(2.28124 -1.65626 1.35652 1.8684 10.656 18.125)" gradientUnits="userSpaceOnUse"><stop stop-color="#82D8FB"/><stop offset="1" stop-color="#82D8FB" stop-opacity="0"/></radialGradient><radialGradient id="f768idd" cx="0" cy="0" r="1" gradientTransform="rotate(97.989 -2.071 13.427)scale(5.39612 1.71944)" gradientUnits="userSpaceOnUse"><stop stop-color="#FEF67E"/><stop offset="1" stop-color="#ECCA54"/></radialGradient><radialGradient id="f768ide" cx="0" cy="0" r="1" gradientTransform="matrix(0 4.46 -5.70418 0 23.173 12.05)" gradientUnits="userSpaceOnUse"><stop offset=".006" stop-color="#FDF4D3"/><stop offset="1" stop-color="#EDC6C0"/></radialGradient><radialGradient id="f768idf" cx="0" cy="0" r="1" gradientTransform="matrix(0 -1.625 1.71385 0 23.278 12.156)" gradientUnits="userSpaceOnUse"><stop stop-color="#766C82"/><stop offset="1" stop-color="#4F3C62"/></radialGradient><radialGradient id="f768idg" cx="0" cy="0" r="1" gradientTransform="rotate(8.49 -59.908 133.993)scale(2.59089 6.08263)" gradientUnits="userSpaceOnUse"><stop stop-color="#70687A"/><stop offset="1" stop-color="#70687A" stop-opacity="0"/></radialGradient><radialGradient id="f768idh" cx="0" cy="0" r="1" gradientTransform="matrix(0 1.20313 -.57071 0 9.203 8.297)" gradientUnits="userSpaceOnUse"><stop offset=".201" stop-color="#76737F"/><stop offset="1" stop-color="#76737F" stop-opacity="0"/></radialGradient><radialGradient id="f768idi" cx="0" cy="0" r="1" gradientTransform="matrix(-.8125 0 0 -.85387 12.422 8.41)" gradientUnits="userSpaceOnUse"><stop stop-color="#E9E6ED"/><stop offset="1" stop-color="#E9E6ED" stop-opacity="0"/></radialGradient><radialGradient id="f768idj" cx="0" cy="0" r="1" gradientTransform="matrix(0 3.8225 -3.62625 0 10.656 12.688)" gradientUnits="userSpaceOnUse"><stop offset=".006" stop-color="#FDF4D3"/><stop offset="1" stop-color="#EDC6C0"/></radialGradient><radialGradient id="f768idk" cx="0" cy="0" r="1" gradientTransform="matrix(0 .88645 -.3572 0 8.752 13.292)" gradientUnits="userSpaceOnUse"><stop stop-color="#695D77"/><stop offset="1" stop-color="#695D77" stop-opacity="0"/></radialGradient><radialGradient id="f768idl" cx="0" cy="0" r="1" gradientTransform="matrix(0 .88645 -.3572 0 11.002 13.292)" gradientUnits="userSpaceOnUse"><stop stop-color="#695D77"/><stop offset="1" stop-color="#695D77" stop-opacity="0"/></radialGradient><radialGradient id="f768idm" cx="0" cy="0" r="1" gradientTransform="matrix(0 .88645 -.3572 0 21.282 13.292)" gradientUnits="userSpaceOnUse"><stop stop-color="#695D77"/><stop offset="1" stop-color="#695D77" stop-opacity="0"/></radialGradient><radialGradient id="f768idn" cx="0" cy="0" r="1" gradientTransform="matrix(0 .88645 -.3572 0 23.532 13.292)" gradientUnits="userSpaceOnUse"><stop stop-color="#695D77"/><stop offset="1" stop-color="#695D77" stop-opacity="0"/></radialGradient><radialGradient id="f768ido" cx="0" cy="0" r="1" gradientTransform="matrix(0 -1.67689 2.22991 0 10.748 11.696)" gradientUnits="userSpaceOnUse"><stop stop-color="#7E78A4"/><stop offset="1" stop-color="#56517E"/></radialGradient><linearGradient id="f768idp" x1="21.891" x2="22.035" y1="7.672" y2="7.59" gradientUnits="userSpaceOnUse"><stop stop-color="#CE9658"/><stop offset="1" stop-color="#CE9658" stop-opacity="0"/></linearGradient><linearGradient id="f768idq" x1="22.703" x2="22.477" y1="7.844" y2="7.711" gradientUnits="userSpaceOnUse"><stop stop-color="#CE9658"/><stop offset="1" stop-color="#CE9658" stop-opacity="0"/></linearGradient><linearGradient id="f768idr" x1="20.617" x2="20.648" y1="8.465" y2="8.25" gradientUnits="userSpaceOnUse"><stop stop-color="#AD7A41"/><stop offset="1" stop-color="#AD7A41" stop-opacity="0"/></linearGradient><linearGradient id="f768ids" x1="17.597" x2="25.597" y1="24.961" y2="24.961" gradientUnits="userSpaceOnUse"><stop stop-color="#DB4C66"/><stop offset="1" stop-color="#EC5D92"/></linearGradient><linearGradient id="f768idt" x1="16.029" x2="18.835" y1="23.873" y2="23.873" gradientUnits="userSpaceOnUse"><stop stop-color="#C36472"/><stop offset="1" stop-color="#C36472" stop-opacity="0"/></linearGradient><linearGradient id="f768idu" x1="22.656" x2="22.656" y1="28.406" y2="26.594" gradientUnits="userSpaceOnUse"><stop stop-color="#AD2B62"/><stop offset="1" stop-color="#AD2B62" stop-opacity="0"/></linearGradient><linearGradient id="f768idv" x1="28.594" x2="26.344" y1="24.344" y2="24.344" gradientUnits="userSpaceOnUse"><stop stop-color="#D34F8A"/><stop offset="1" stop-color="#D34F8A" stop-opacity="0"/></linearGradient><linearGradient id="f768idw" x1="22.224" x2="18.306" y1="23.686" y2="19.451" gradientUnits="userSpaceOnUse"><stop stop-color="#AB2E4D"/><stop offset="1" stop-color="#AB2E4D" stop-opacity="0"/></linearGradient><linearGradient id="f768idx" x1="22.23" x2="22.23" y1="17.47" y2="23.74" gradientUnits="userSpaceOnUse"><stop stop-color="#FBE46C"/><stop offset="1" stop-color="#F5C056"/></linearGradient><linearGradient id="f768idy" x1="24.754" x2="23.616" y1="22.549" y2="21.51" gradientUnits="userSpaceOnUse"><stop stop-color="#EBAC4C"/><stop offset="1" stop-color="#EBAC4C" stop-opacity="0"/></linearGradient><linearGradient id="f768idz" x1="9.313" x2="9.313" y1="28" y2="26.938" gradientUnits="userSpaceOnUse"><stop stop-color="#4347A5"/><stop offset="1" stop-color="#4347A5" stop-opacity="0"/></linearGradient><linearGradient id="f768id10" x1="9.73" x2="9.73" y1="24.031" y2="23.281" gradientUnits="userSpaceOnUse"><stop stop-color="#DC9C49"/><stop offset="1" stop-color="#DC9C49" stop-opacity="0"/></linearGradient><linearGradient id="f768id11" x1="3.229" x2="29.452" y1="28.75" y2="28.75" gradientUnits="userSpaceOnUse"><stop stop-color="#EE9463"/><stop offset="1" stop-color="#BD7659"/></linearGradient><linearGradient id="f768id12" x1="16" x2="16" y1="27.75" y2="27.93" gradientUnits="userSpaceOnUse"><stop stop-color="#B6674C"/><stop offset="1" stop-color="#B6674C" stop-opacity="0"/></linearGradient><linearGradient id="f768id13" x1="22.858" x2="22.858" y1="12.098" y2="11.891" gradientUnits="userSpaceOnUse"><stop stop-color="#46345D"/><stop offset="1" stop-color="#46345D" stop-opacity="0"/></linearGradient><linearGradient id="f768id14" x1="7.5" x2="12.094" y1="8.41" y2="8.41" gradientUnits="userSpaceOnUse"><stop stop-color="#B3B2B4"/><stop offset="1" stop-color="#C7C7C8"/></linearGradient><linearGradient id="f768id15" x1="9.797" x2="9.797" y1="9.109" y2="8.563" gradientUnits="userSpaceOnUse"><stop stop-color="#636071"/><stop offset="1" stop-color="#636071" stop-opacity="0"/></linearGradient><linearGradient id="f768id16" x1="7.375" x2="7.891" y1="8.578" y2="8.578" gradientUnits="userSpaceOnUse"><stop stop-color="#A6A3AA"/><stop offset="1" stop-color="#A6A3AA" stop-opacity="0"/></linearGradient><linearGradient id="f768id17" x1="9.547" x2="7.938" y1="8.352" y2="8.352" gradientUnits="userSpaceOnUse"><stop stop-color="#E3E1E7"/><stop offset="1" stop-color="#E3E1E7" stop-opacity="0"/></linearGradient><linearGradient id="f768id18" x1="8.607" x2="8.607" y1="12.935" y2="14.344" gradientUnits="userSpaceOnUse"><stop offset=".006" stop-color="#4C3F56"/><stop offset="1" stop-color="#321F43"/></linearGradient><linearGradient id="f768id19" x1="10.857" x2="10.857" y1="12.935" y2="14.344" gradientUnits="userSpaceOnUse"><stop offset=".006" stop-color="#4C3F56"/><stop offset="1" stop-color="#321F43"/></linearGradient><linearGradient id="f768id1a" x1="21.137" x2="21.137" y1="12.935" y2="14.344" gradientUnits="userSpaceOnUse"><stop offset=".006" stop-color="#4C3F56"/><stop offset="1" stop-color="#321F43"/></linearGradient><linearGradient id="f768id1b" x1="23.387" x2="23.387" y1="12.935" y2="14.344" gradientUnits="userSpaceOnUse"><stop offset=".006" stop-color="#4C3F56"/><stop offset="1" stop-color="#321F43"/></linearGradient><linearGradient id="f768id1c" x1="9.875" x2="9.875" y1="7.055" y2="9.547" gradientUnits="userSpaceOnUse"><stop stop-color="#8380B1"/><stop offset="1" stop-color="#726E9B"/></linearGradient><linearGradient id="f768id1d" x1="10.328" x2="10.328" y1="12.098" y2="11.891" gradientUnits="userSpaceOnUse"><stop stop-color="#4F4773"/><stop offset="1" stop-color="#4F4773" stop-opacity="0"/></linearGradient><filter id="f768id1e" width="1.805" height="1.603" x="19.787" y="6.887" color-interpolation-filters="sRGB" filterUnits="userSpaceOnUse"><feFlood flood-opacity="0" result="BackgroundImageFix"/><feBlend in="SourceGraphic" in2="BackgroundImageFix" result="shape"/><feColorMatrix in="SourceAlpha" result="hardAlpha" values="0 0 0 0 0 0 0 0 0 0 0 0 0 0 0 0 0 0 127 0"/><feOffset dx="-.025" dy=".025"/><feGaussianBlur stdDeviation=".1"/><feComposite in2="hardAlpha" k2="-1" k3="1" operator="arithmetic"/><feColorMatrix values="0 0 0 0 0.945098 0 0 0 0 0.698039 0 0 0 0 0.27451 0 0 0 1 0"/><feBlend in2="shape" result="effect1_innerShadow_18_806"/></filter><filter id="f768id1f" width="1.826" height="1.653" x="22.922" y="6.812" color-interpolation-filters="sRGB" filterUnits="userSpaceOnUse"><feFlood flood-opacity="0" result="BackgroundImageFix"/><feBlend in="SourceGraphic" in2="BackgroundImageFix" result="shape"/><feColorMatrix in="SourceAlpha" result="hardAlpha" values="0 0 0 0 0 0 0 0 0 0 0 0 0 0 0 0 0 0 127 0"/><feOffset dx=".05" dy="-.075"/><feGaussianBlur stdDeviation=".1"/><feComposite in2="hardAlpha" k2="-1" k3="1" operator="arithmetic"/><feColorMatrix values="0 0 0 0 0.603922 0 0 0 0 0.415686 0 0 0 0 0.196078 0 0 0 1 0"/><feBlend in2="shape" result="effect1_innerShadow_18_806"/></filter><filter id="f768id1g" width="8.149" height="7.07" x="17.906" y="17.287" color-interpolation-filters="sRGB" filterUnits="userSpaceOnUse"><feFlood flood-opacity="0" result="BackgroundImageFix"/><feBlend in="SourceGraphic" in2="BackgroundImageFix" result="shape"/><feGaussianBlur result="effect1_foregroundBlur_18_806" stdDeviation=".2"/></filter><filter id="f768id1h" width="14.45" height="15.48" x="2.51" y="13.77" color-interpolation-filters="sRGB" filterUnits="userSpaceOnUse"><feFlood flood-opacity="0" result="BackgroundImageFix"/><feBlend in="SourceGraphic" in2="BackgroundImageFix" result="shape"/><feColorMatrix in="SourceAlpha" result="hardAlpha" values="0 0 0 0 0 0 0 0 0 0 0 0 0 0 0 0 0 0 127 0"/><feOffset dx="1.5" dy="1.5"/><feGaussianBlur stdDeviation="1"/><feComposite in2="hardAlpha" k2="-1" k3="1" operator="arithmetic"/><feColorMatrix values="0 0 0 0 0.411765 0 0 0 0 0.682353 0 0 0 0 0.858824 0 0 0 1 0"/><feBlend in2="shape" result="effect1_innerShadow_18_806"/><feColorMatrix in="SourceAlpha" result="hardAlpha" values="0 0 0 0 0 0 0 0 0 0 0 0 0 0 0 0 0 0 127 0"/><feOffset dx="-1.5"/><feGaussianBlur stdDeviation="1.25"/><feComposite in2="hardAlpha" k2="-1" k3="1" operator="arithmetic"/><feColorMatrix values="0 0 0 0 0.364706 0 0 0 0 0.545098 0 0 0 0 0.764706 0 0 0 1 0"/><feBlend in2="effect1_innerShadow_18_806" result="effect2_innerShadow_18_806"/></filter><filter id="f768id1i" width="2.259" height="6.627" x="8.444" y="17.528" color-interpolation-filters="sRGB" filterUnits="userSpaceOnUse"><feFlood flood-opacity="0" result="BackgroundImageFix"/><feBlend in="SourceGraphic" in2="BackgroundImageFix" result="shape"/><feGaussianBlur result="effect1_foregroundBlur_18_806" stdDeviation=".125"/></filter><filter id="f768id1j" width="1.973" height="6.35" x="8.819" y="17.51" color-interpolation-filters="sRGB" filterUnits="userSpaceOnUse"><feFlood flood-opacity="0" result="BackgroundImageFix"/><feBlend in="SourceGraphic" in2="BackgroundImageFix" result="shape"/><feColorMatrix in="SourceAlpha" result="hardAlpha" values="0 0 0 0 0 0 0 0 0 0 0 0 0 0 0 0 0 0 127 0"/><feOffset dx=".15"/><feGaussianBlur stdDeviation=".15"/><feComposite in2="hardAlpha" k2="-1" k3="1" operator="arithmetic"/><feColorMatrix values="0 0 0 0 0.803922 0 0 0 0 0.690196 0 0 0 0 0.32549 0 0 0 1 0"/><feBlend in2="shape" result="effect1_innerShadow_18_806"/></filter><filter id="f768id1k" width="28.3" height="2.3" x="1.85" y="27.6" color-interpolation-filters="sRGB" filterUnits="userSpaceOnUse"><feFlood flood-opacity="0" result="BackgroundImageFix"/><feBlend in="SourceGraphic" in2="BackgroundImageFix" result="shape"/><feColorMatrix in="SourceAlpha" result="hardAlpha" values="0 0 0 0 0 0 0 0 0 0 0 0 0 0 0 0 0 0 127 0"/><feOffset dx=".15" dy="-.15"/><feGaussianBlur stdDeviation=".125"/><feComposite in2="hardAlpha" k2="-1" k3="1" operator="arithmetic"/><feColorMatrix values="0 0 0 0 0.596078 0 0 0 0 0.27451 0 0 0 0 0.313726 0 0 0 1 0"/><feBlend in2="shape" result="effect1_innerShadow_18_806"/><feColorMatrix in="SourceAlpha" result="hardAlpha" values="0 0 0 0 0 0 0 0 0 0 0 0 0 0 0 0 0 0 127 0"/><feOffset dx="-.15" dy=".15"/><feGaussianBlur stdDeviation=".125"/><feComposite in2="hardAlpha" k2="-1" k3="1" operator="arithmetic"/><feColorMatrix values="0 0 0 0 0.792157 0 0 0 0 0.552941 0 0 0 0 0.403922 0 0 0 1 0"/><feBlend in2="effect1_innerShadow_18_806" result="effect2_innerShadow_18_806"/></filter><filter id="f768id1l" width="5.56" height="4.56" x="19.54" y="11.95" color-interpolation-filters="sRGB" filterUnits="userSpaceOnUse"><feFlood flood-opacity="0" result="BackgroundImageFix"/><feBlend in="SourceGraphic" in2="BackgroundImageFix" result="shape"/><feColorMatrix in="SourceAlpha" result="hardAlpha" values="0 0 0 0 0 0 0 0 0 0 0 0 0 0 0 0 0 0 127 0"/><feOffset dx=".15" dy="-.1"/><feGaussianBlur stdDeviation=".3"/><feComposite in2="hardAlpha" k2="-1" k3="1" operator="arithmetic"/><feColorMatrix values="0 0 0 0 0.886275 0 0 0 0 0.596078 0 0 0 0 0.541176 0 0 0 1 0"/><feBlend in2="shape" result="effect1_innerShadow_18_806"/></filter><filter id="f768id1m" width="5.55" height="2.81" x="19.56" y="9.34" color-interpolation-filters="sRGB" filterUnits="userSpaceOnUse"><feFlood flood-opacity="0" result="BackgroundImageFix"/><feBlend in="SourceGraphic" in2="BackgroundImageFix" result="shape"/><feColorMatrix in="SourceAlpha" result="hardAlpha" values="0 0 0 0 0 0 0 0 0 0 0 0 0 0 0 0 0 0 127 0"/><feOffset dx=".15" dy=".1"/><feGaussianBlur stdDeviation=".375"/><feComposite in2="hardAlpha" k2="-1" k3="1" operator="arithmetic"/><feColorMatrix values="0 0 0 0 0.290196 0 0 0 0 0.25098 0 0 0 0 0.341176 0 0 0 1 0"/><feBlend in2="shape" result="effect1_innerShadow_18_806"/></filter><filter id="f768id1n" width="2.922" height=".797" x="9.188" y="7.977" color-interpolation-filters="sRGB" filterUnits="userSpaceOnUse"><feFlood flood-opacity="0" result="BackgroundImageFix"/><feBlend in="SourceGraphic" in2="BackgroundImageFix" result="shape"/><feGaussianBlur result="effect1_foregroundBlur_18_806" stdDeviation=".125"/></filter><filter id="f768id1o" width="5.55" height="7.27" x="7.03" y="9.24" color-interpolation-filters="sRGB" filterUnits="userSpaceOnUse"><feFlood flood-opacity="0" result="BackgroundImageFix"/><feBlend in="SourceGraphic" in2="BackgroundImageFix" result="shape"/><feColorMatrix in="SourceAlpha" result="hardAlpha" values="0 0 0 0 0 0 0 0 0 0 0 0 0 0 0 0 0 0 127 0"/><feOffset dx=".15" dy="-.1"/><feGaussianBlur stdDeviation=".3"/><feComposite in2="hardAlpha" k2="-1" k3="1" operator="arithmetic"/><feColorMatrix values="0 0 0 0 0.717647 0 0 0 0 0.654902 0 0 0 0 0.576471 0 0 0 1 0"/><feBlend in2="shape" result="effect1_innerShadow_18_806"/></filter><filter id="f768id1p" width="1.5" height="1.832" x="7.788" y="12.799" color-interpolation-filters="sRGB" filterUnits="userSpaceOnUse"><feFlood flood-opacity="0" result="BackgroundImageFix"/><feBlend in="SourceGraphic" in2="BackgroundImageFix" result="shape"/><feGaussianBlur result="effect1_foregroundBlur_18_806" stdDeviation=".125"/></filter><filter id="f768id1q" width="1.5" height="1.832" x="10.028" y="12.799" color-interpolation-filters="sRGB" filterUnits="userSpaceOnUse"><feFlood flood-opacity="0" result="BackgroundImageFix"/><feBlend in="SourceGraphic" in2="BackgroundImageFix" result="shape"/><feGaussianBlur result="effect1_foregroundBlur_18_806" stdDeviation=".125"/></filter><filter id="f768id1r" width="1.584" height="4.507" x="9.088" y="6.333" color-interpolation-filters="sRGB" filterUnits="userSpaceOnUse"><feFlood flood-opacity="0" result="BackgroundImageFix"/><feBlend in="SourceGraphic" in2="BackgroundImageFix" result="shape"/><feColorMatrix in="SourceAlpha" result="hardAlpha" values="0 0 0 0 0 0 0 0 0 0 0 0 0 0 0 0 0 0 127 0"/><feOffset dx=".3"/><feGaussianBlur stdDeviation=".3"/><feComposite in2="hardAlpha" k2="-1" k3="1" operator="arithmetic"/><feColorMatrix values="0 0 0 0 0.341176 0 0 0 0 0.333333 0 0 0 0 0.478431 0 0 0 1 0"/><feBlend in2="shape" result="effect1_innerShadow_18_806"/></filter><filter id="f768id1s" width=".95" height="4.013" x="9.4" y="6.322" color-interpolation-filters="sRGB" filterUnits="userSpaceOnUse"><feFlood flood-opacity="0" result="BackgroundImageFix"/><feBlend in="SourceGraphic" in2="BackgroundImageFix" result="shape"/><feGaussianBlur result="effect1_foregroundBlur_18_806" stdDeviation=".175"/></filter><filter id="f768id1t" width="5.55" height="2.81" x="7.03" y="9.34" color-interpolation-filters="sRGB" filterUnits="userSpaceOnUse"><feFlood flood-opacity="0" result="BackgroundImageFix"/><feBlend in="SourceGraphic" in2="BackgroundImageFix" result="shape"/><feColorMatrix in="SourceAlpha" result="hardAlpha" values="0 0 0 0 0 0 0 0 0 0 0 0 0 0 0 0 0 0 127 0"/><feOffset dx=".15" dy=".1"/><feGaussianBlur stdDeviation=".375"/><feComposite in2="hardAlpha" k2="-1" k3="1" operator="arithmetic"/><feColorMatrix values="0 0 0 0 0.278431 0 0 0 0 0.262745 0 0 0 0 0.423529 0 0 0 1 0"/><feBlend in2="shape" result="effect1_innerShadow_18_806"/></filter></defs></g></svg>