<svg xmlns="http://www.w3.org/2000/svg" xmlns:xlink="http://www.w3.org/1999/xlink" width="32" height="32" viewBox="0 0 32 32"><g fill="none"><path fill="url(#f814id0)" fill-rule="evenodd" d="m20.302 2.442l7.71 1.72a.86.86 0 0 1 .657.606a.5.5 0 0 1 .053.104l.17.51c1.98 5.94 1.18 14.68-3.24 19.11l-1.15 1.15c-4.42 4.42-13.17 5.22-19.1 3.23l-.51-.17a.4.4 0 0 1-.073-.031a.86.86 0 0 1-.647-.669l-1.7-7.62c-.22-.63-.45-2.19-.45-2.19c-.17-2.34.64-4.74 2.43-6.53a8.36 8.36 0 0 1 4.82-2.39a8.36 8.36 0 0 1 2.39-4.82c1.79-1.79 4.2-2.6 6.54-2.43c0 0 1.53.23 2.1.42M7.085 25.661a.5.5 0 0 0 .685.661l.952-.51a41.73 41.73 0 0 0 17.11-17.11l.507-.945a.5.5 0 0 0-.662-.685l-4.015 1.98c-5.47 2.7-9.9 7.13-12.6 12.6z" clip-rule="evenodd"/><path fill="url(#f814id1)" fill-rule="evenodd" d="m20.302 2.442l7.71 1.72a.86.86 0 0 1 .657.606a.5.5 0 0 1 .053.104l.17.51c1.98 5.94 1.18 14.68-3.24 19.11l-1.15 1.15c-4.42 4.42-13.17 5.22-19.1 3.23l-.51-.17a.4.4 0 0 1-.073-.031a.86.86 0 0 1-.647-.669l-1.7-7.62c-.22-.63-.45-2.19-.45-2.19c-.17-2.34.64-4.74 2.43-6.53a8.36 8.36 0 0 1 4.82-2.39a8.36 8.36 0 0 1 2.39-4.82c1.79-1.79 4.2-2.6 6.54-2.43c0 0 1.53.23 2.1.42M7.085 25.661a.5.5 0 0 0 .685.661l.952-.51a41.73 41.73 0 0 0 17.11-17.11l.507-.945a.5.5 0 0 0-.662-.685l-4.015 1.98c-5.47 2.7-9.9 7.13-12.6 12.6z" clip-rule="evenodd"/><path fill="url(#f814id2)" fill-rule="evenodd" d="m20.302 2.442l7.71 1.72a.86.86 0 0 1 .657.606a.5.5 0 0 1 .053.104l.17.51c1.98 5.94 1.18 14.68-3.24 19.11l-1.15 1.15c-4.42 4.42-13.17 5.22-19.1 3.23l-.51-.17a.4.4 0 0 1-.073-.031a.86.86 0 0 1-.647-.669l-1.7-7.62c-.22-.63-.45-2.19-.45-2.19c-.17-2.34.64-4.74 2.43-6.53a8.36 8.36 0 0 1 4.82-2.39a8.36 8.36 0 0 1 2.39-4.82c1.79-1.79 4.2-2.6 6.54-2.43c0 0 1.53.23 2.1.42M7.085 25.661a.5.5 0 0 0 .685.661l.952-.51a41.73 41.73 0 0 0 17.11-17.11l.507-.945a.5.5 0 0 0-.662-.685l-4.015 1.98c-5.47 2.7-9.9 7.13-12.6 12.6z" clip-rule="evenodd"/><path fill="url(#f814id3)" fill-rule="evenodd" d="m20.302 2.442l7.71 1.72a.86.86 0 0 1 .657.606a.5.5 0 0 1 .053.104l.17.51c1.98 5.94 1.18 14.68-3.24 19.11l-1.15 1.15c-4.42 4.42-13.17 5.22-19.1 3.23l-.51-.17a.4.4 0 0 1-.073-.031a.86.86 0 0 1-.647-.669l-1.7-7.62c-.22-.63-.45-2.19-.45-2.19c-.17-2.34.64-4.74 2.43-6.53a8.36 8.36 0 0 1 4.82-2.39a8.36 8.36 0 0 1 2.39-4.82c1.79-1.79 4.2-2.6 6.54-2.43c0 0 1.53.23 2.1.42M7.085 25.661a.5.5 0 0 0 .685.661l.952-.51a41.73 41.73 0 0 0 17.11-17.11l.507-.945a.5.5 0 0 0-.662-.685l-4.015 1.98c-5.47 2.7-9.9 7.13-12.6 12.6z" clip-rule="evenodd"/><path fill="url(#f814id4)" fill-rule="evenodd" d="m20.302 2.442l7.71 1.72a.86.86 0 0 1 .657.606a.5.5 0 0 1 .053.104l.17.51c1.98 5.94 1.18 14.68-3.24 19.11l-1.15 1.15c-4.42 4.42-13.17 5.22-19.1 3.23l-.51-.17a.4.4 0 0 1-.073-.031a.86.86 0 0 1-.647-.669l-1.7-7.62c-.22-.63-.45-2.19-.45-2.19c-.17-2.34.64-4.74 2.43-6.53a8.36 8.36 0 0 1 4.82-2.39a8.36 8.36 0 0 1 2.39-4.82c1.79-1.79 4.2-2.6 6.54-2.43c0 0 1.53.23 2.1.42M7.085 25.661a.5.5 0 0 0 .685.661l.952-.51a41.73 41.73 0 0 0 17.11-17.11l.507-.945a.5.5 0 0 0-.662-.685l-4.015 1.98c-5.47 2.7-9.9 7.13-12.6 12.6z" clip-rule="evenodd"/><g filter="url(#f814id5)"><path stroke="#FFACB1" stroke-linecap="round" stroke-width=".5" d="m18.844 4.313l3.5.562l3.918.621c.74.118 1.359.639 1.505 1.375c.316 1.59.548 4.122.014 6.754"/></g><g filter="url(#f814id6)"><path fill="#FF6775" d="m5.906 27.594l1.094-1c-.562-.438-.937-1.375-.937-2.563c-.675 1.775-.438 3.23-.157 3.563"/></g><g filter="url(#f814id7)"><path stroke="url(#f814id9)" stroke-linecap="round" d="M9.094 27.125c1.219.406 6.062.9 8.719.244"/></g><g filter="url(#f814id8)"><path stroke="url(#f814ida)" stroke-linecap="round" d="M19.969 7.625c-2.063.625-9.313 4-12.625 12.625"/></g><defs><radialGradient id="f814id0" cx="0" cy="0" r="1" gradientTransform="rotate(-30.835 41.258 27.972)scale(38.4717 38.1438)" gradientUnits="userSpaceOnUse"><stop stop-color="#ED1C26"/><stop offset=".492" stop-color="#ED1452"/><stop offset="1" stop-color="#EC098C"/></radialGradient><radialGradient id="f814id1" cx="0" cy="0" r="1" gradientTransform="matrix(1.21875 .875 -4.4444 6.1904 21.469 14.156)" gradientUnits="userSpaceOnUse"><stop offset=".313" stop-color="#AF1B6B"/><stop offset="1" stop-color="#AF1B6B" stop-opacity="0"/></radialGradient><radialGradient id="f814id2" cx="0" cy="0" r="1" gradientTransform="matrix(-32.4375 4.00006 -6.26236 -50.78303 31.094 16.375)" gradientUnits="userSpaceOnUse"><stop offset=".786" stop-color="#FE5B00" stop-opacity="0"/><stop offset="1" stop-color="#FF6F1E"/></radialGradient><radialGradient id="f814id3" cx="0" cy="0" r="1" gradientTransform="rotate(-87.842 24.008 .01)scale(24.8927 27.5544)" gradientUnits="userSpaceOnUse"><stop offset=".874" stop-color="#AF1B6B" stop-opacity="0"/><stop offset="1" stop-color="#AF1B6B"/></radialGradient><radialGradient id="f814id4" cx="0" cy="0" r="1" gradientTransform="matrix(4.625 17.49995 -29.87197 7.89475 16.906 11.75)" gradientUnits="userSpaceOnUse"><stop offset=".874" stop-color="#AF1B6B" stop-opacity="0"/><stop offset="1" stop-color="#AF1B6B"/></radialGradient><filter id="f814id5" width="13.256" height="13.313" x="16.844" y="2.312" color-interpolation-filters="sRGB" filterUnits="userSpaceOnUse"><feFlood flood-opacity="0" result="BackgroundImageFix"/><feBlend in="SourceGraphic" in2="BackgroundImageFix" result="shape"/><feGaussianBlur result="effect1_foregroundBlur_6987_5186" stdDeviation=".875"/></filter><filter id="f814id6" width="3.375" height="5.563" x="4.625" y="23.031" color-interpolation-filters="sRGB" filterUnits="userSpaceOnUse"><feFlood flood-opacity="0" result="BackgroundImageFix"/><feBlend in="SourceGraphic" in2="BackgroundImageFix" result="shape"/><feGaussianBlur result="effect1_foregroundBlur_6987_5186" stdDeviation=".5"/></filter><filter id="f814id7" width="13.719" height="5.564" x="6.594" y="24.625" color-interpolation-filters="sRGB" filterUnits="userSpaceOnUse"><feFlood flood-opacity="0" result="BackgroundImageFix"/><feBlend in="SourceGraphic" in2="BackgroundImageFix" result="shape"/><feGaussianBlur result="effect1_foregroundBlur_6987_5186" stdDeviation="1"/></filter><filter id="f814id8" width="19.625" height="19.625" x="3.844" y="4.125" color-interpolation-filters="sRGB" filterUnits="userSpaceOnUse"><feFlood flood-opacity="0" result="BackgroundImageFix"/><feBlend in="SourceGraphic" in2="BackgroundImageFix" result="shape"/><feGaussianBlur result="effect1_foregroundBlur_6987_5186" stdDeviation="1.5"/></filter><linearGradient id="f814id9" x1="10.938" x2="16.625" y1="27.125" y2="27.407" gradientUnits="userSpaceOnUse"><stop stop-color="#FF6775"/><stop offset="1" stop-color="#FF6775" stop-opacity="0"/></linearGradient><linearGradient id="f814ida" x1="18.531" x2="10.11" y1="5.713" y2="13.957" gradientUnits="userSpaceOnUse"><stop stop-color="#FF67A7" stop-opacity="0"/><stop offset="1" stop-color="#FF67A7"/></linearGradient></defs></g></svg>