<svg xmlns="http://www.w3.org/2000/svg" xmlns:xlink="http://www.w3.org/1999/xlink" width="32" height="32" viewBox="0 0 32 32"><g fill="none"><g filter="url(#f827idp)"><path fill="url(#f827id0)" d="M8.6 2.978a1.2 1.2 0 0 1 1.161-.9h3.728a.65.65 0 0 1 .629.813l-6.76 26.131a1.2 1.2 0 0 1-1.162.9H2.468a.65.65 0 0 1-.629-.813z"/><path fill="url(#f827idv)" d="M8.6 2.978a1.2 1.2 0 0 1 1.161-.9h3.728a.65.65 0 0 1 .629.813l-6.76 26.131a1.2 1.2 0 0 1-1.162.9H2.468a.65.65 0 0 1-.629-.813z"/><path fill="url(#f827id1)" d="M8.6 2.978a1.2 1.2 0 0 1 1.161-.9h3.728a.65.65 0 0 1 .629.813l-6.76 26.131a1.2 1.2 0 0 1-1.162.9H2.468a.65.65 0 0 1-.629-.813z"/><path fill="url(#f827id2)" d="M8.6 2.978a1.2 1.2 0 0 1 1.161-.9h3.728a.65.65 0 0 1 .629.813l-6.76 26.131a1.2 1.2 0 0 1-1.162.9H2.468a.65.65 0 0 1-.629-.813z"/></g><g filter="url(#f827idq)"><path fill="url(#f827id3)" d="M12.265 8.984L10.52 6.727l2.476-.102z"/></g><g filter="url(#f827idr)"><path fill="url(#f827id4)" d="m10.406 15.94l-1.747-2.258l2.477-.102z"/></g><g filter="url(#f827ids)"><path fill="url(#f827id5)" d="m8.703 22.894l-1.747-2.257l2.477-.102z"/></g><g filter="url(#f827idt)"><path fill="url(#f827id6)" d="M6.828 29.797L5.08 27.539l2.477-.102z"/></g><path fill="url(#f827id7)" d="M10.976 4.356a.5.5 0 0 1 .484-.376h13.855v3.043H10.683a.3.3 0 0 1-.29-.374z"/><path fill="url(#f827id8)" d="M10.976 4.356a.5.5 0 0 1 .484-.376h13.855v3.043H10.683a.3.3 0 0 1-.29-.374z"/><path fill="url(#f827id9)" d="M10.976 4.356a.5.5 0 0 1 .484-.376h13.855v3.043H10.683a.3.3 0 0 1-.29-.374z"/><path fill="url(#f827ida)" d="M10.976 4.356a.5.5 0 0 1 .484-.376h13.855v3.043H10.683a.3.3 0 0 1-.29-.374z"/><path fill="url(#f827idb)" d="M9.17 11.27a.5.5 0 0 1 .484-.376H23.51v3.043H8.877a.3.3 0 0 1-.29-.374z"/><path fill="url(#f827idc)" d="M9.17 11.27a.5.5 0 0 1 .484-.376H23.51v3.043H8.877a.3.3 0 0 1-.29-.374z"/><path fill="url(#f827idd)" d="M9.17 11.27a.5.5 0 0 1 .484-.376H23.51v3.043H8.877a.3.3 0 0 1-.29-.374z"/><path fill="url(#f827ide)" d="M9.17 11.27a.5.5 0 0 1 .484-.376H23.51v3.043H8.877a.3.3 0 0 1-.29-.374z"/><path fill="url(#f827idf)" d="M7.414 18.283a.5.5 0 0 1 .484-.376h13.855v3.043H7.121a.3.3 0 0 1-.29-.374z"/><path fill="url(#f827idg)" d="M7.414 18.283a.5.5 0 0 1 .484-.376h13.855v3.043H7.121a.3.3 0 0 1-.29-.374z"/><path fill="url(#f827idh)" d="M7.414 18.283a.5.5 0 0 1 .484-.376h13.855v3.043H7.121a.3.3 0 0 1-.29-.374z"/><path fill="url(#f827idi)" d="M7.414 18.283a.5.5 0 0 1 .484-.376h13.855v3.043H7.121a.3.3 0 0 1-.29-.374z"/><path fill="url(#f827idj)" d="M5.614 25.23a.5.5 0 0 1 .485-.376h13.854v3.043H5.322a.3.3 0 0 1-.29-.374z"/><path fill="url(#f827idk)" d="M5.614 25.23a.5.5 0 0 1 .485-.376h13.854v3.043H5.322a.3.3 0 0 1-.29-.374z"/><path fill="url(#f827idl)" d="M5.614 25.23a.5.5 0 0 1 .485-.376h13.854v3.043H5.322a.3.3 0 0 1-.29-.374z"/><path fill="url(#f827idm)" d="M5.614 25.23a.5.5 0 0 1 .485-.376h13.854v3.043H5.322a.3.3 0 0 1-.29-.374z"/><g filter="url(#f827idu)"><path fill="url(#f827idn)" d="M24.26 2.978a1.2 1.2 0 0 1 1.162-.9h3.728a.65.65 0 0 1 .629.813l-6.76 26.131a1.2 1.2 0 0 1-1.162.9H18.13a.65.65 0 0 1-.63-.813z"/><path fill="url(#f827idw)" d="M24.26 2.978a1.2 1.2 0 0 1 1.162-.9h3.728a.65.65 0 0 1 .629.813l-6.76 26.131a1.2 1.2 0 0 1-1.162.9H18.13a.65.65 0 0 1-.63-.813z"/><path fill="url(#f827ido)" d="M24.26 2.978a1.2 1.2 0 0 1 1.162-.9h3.728a.65.65 0 0 1 .629.813l-6.76 26.131a1.2 1.2 0 0 1-1.162.9H18.13a.65.65 0 0 1-.63-.813z"/></g><defs><linearGradient id="f827id0" x1="4.375" x2="11.181" y1="9.378" y2="19.586" gradientUnits="userSpaceOnUse"><stop stop-color="#915F51"/><stop offset="1" stop-color="#7A4D49"/></linearGradient><linearGradient id="f827id1" x1="11.704" x2="11.704" y1="2.078" y2="3.358" gradientUnits="userSpaceOnUse"><stop offset=".202" stop-color="#9F705F"/><stop offset="1" stop-color="#956455" stop-opacity="0"/></linearGradient><linearGradient id="f827id2" x1="9.651" x2="5.714" y1="26.422" y2="25.172" gradientUnits="userSpaceOnUse"><stop offset=".291" stop-color="#6A4038"/><stop offset="1" stop-color="#6A4038" stop-opacity="0"/></linearGradient><linearGradient id="f827id3" x1="11.827" x2="12.114" y1="7.031" y2="8.816" gradientUnits="userSpaceOnUse"><stop stop-color="#592D2B"/><stop offset="1" stop-color="#592D2B" stop-opacity="0"/></linearGradient><linearGradient id="f827id4" x1="9.968" x2="10.254" y1="13.986" y2="15.771" gradientUnits="userSpaceOnUse"><stop stop-color="#592D2B"/><stop offset="1" stop-color="#592D2B" stop-opacity="0"/></linearGradient><linearGradient id="f827id5" x1="8.265" x2="8.551" y1="20.941" y2="22.726" gradientUnits="userSpaceOnUse"><stop stop-color="#592D2B"/><stop offset="1" stop-color="#592D2B" stop-opacity="0"/></linearGradient><linearGradient id="f827id6" x1="6.39" x2="6.676" y1="27.844" y2="29.628" gradientUnits="userSpaceOnUse"><stop stop-color="#592D2B"/><stop offset="1" stop-color="#592D2B" stop-opacity="0"/></linearGradient><linearGradient id="f827id7" x1="12.129" x2="24.317" y1="6.455" y2="6.455" gradientUnits="userSpaceOnUse"><stop stop-color="#945B4B"/><stop offset="1" stop-color="#753E2D"/></linearGradient><linearGradient id="f827id8" x1="17.849" x2="17.849" y1="3.766" y2="4.328" gradientUnits="userSpaceOnUse"><stop stop-color="#9F684B"/><stop offset="1" stop-color="#9F684B" stop-opacity="0"/></linearGradient><linearGradient id="f827id9" x1="10.537" x2="11.216" y1="5.848" y2="6.045" gradientUnits="userSpaceOnUse"><stop stop-color="#78402D"/><stop offset="1" stop-color="#965D4D" stop-opacity="0"/></linearGradient><linearGradient id="f827ida" x1="19.87" x2="19.87" y1="7.023" y2="6.516" gradientUnits="userSpaceOnUse"><stop stop-color="#653036"/><stop offset="1" stop-color="#844849" stop-opacity="0"/></linearGradient><linearGradient id="f827idb" x1="10.247" x2="22.506" y1="13.37" y2="13.37" gradientUnits="userSpaceOnUse"><stop stop-color="#945B4B"/><stop offset="1" stop-color="#753E2D"/></linearGradient><linearGradient id="f827idc" x1="16" x2="16" y1="10.68" y2="11.243" gradientUnits="userSpaceOnUse"><stop stop-color="#9F684B"/><stop offset="1" stop-color="#9F684B" stop-opacity="0"/></linearGradient><linearGradient id="f827idd" x1="8.646" x2="9.328" y1="12.763" y2="12.962" gradientUnits="userSpaceOnUse"><stop stop-color="#78402D"/><stop offset="1" stop-color="#965D4D" stop-opacity="0"/></linearGradient><linearGradient id="f827ide" x1="18.033" x2="18.033" y1="13.937" y2="13.43" gradientUnits="userSpaceOnUse"><stop stop-color="#653036"/><stop offset="1" stop-color="#844849" stop-opacity="0"/></linearGradient><linearGradient id="f827idf" x1="8.491" x2="20.75" y1="20.382" y2="20.382" gradientUnits="userSpaceOnUse"><stop stop-color="#945B4B"/><stop offset="1" stop-color="#753E2D"/></linearGradient><linearGradient id="f827idg" x1="14.244" x2="14.244" y1="17.693" y2="18.255" gradientUnits="userSpaceOnUse"><stop stop-color="#9F684B"/><stop offset="1" stop-color="#9F684B" stop-opacity="0"/></linearGradient><linearGradient id="f827idh" x1="6.89" x2="7.572" y1="19.775" y2="19.975" gradientUnits="userSpaceOnUse"><stop stop-color="#78402D"/><stop offset="1" stop-color="#965D4D" stop-opacity="0"/></linearGradient><linearGradient id="f827idi" x1="16.277" x2="16.277" y1="20.95" y2="20.443" gradientUnits="userSpaceOnUse"><stop stop-color="#653036"/><stop offset="1" stop-color="#844849" stop-opacity="0"/></linearGradient><linearGradient id="f827idj" x1="6.692" x2="18.95" y1="27.33" y2="27.33" gradientUnits="userSpaceOnUse"><stop stop-color="#945B4B"/><stop offset="1" stop-color="#753E2D"/></linearGradient><linearGradient id="f827idk" x1="12.445" x2="12.445" y1="24.64" y2="25.202" gradientUnits="userSpaceOnUse"><stop stop-color="#9F684B"/><stop offset="1" stop-color="#9F684B" stop-opacity="0"/></linearGradient><linearGradient id="f827idl" x1="5.091" x2="5.773" y1="26.722" y2="26.922" gradientUnits="userSpaceOnUse"><stop stop-color="#78402D"/><stop offset="1" stop-color="#965D4D" stop-opacity="0"/></linearGradient><linearGradient id="f827idm" x1="14.477" x2="14.477" y1="27.897" y2="27.39" gradientUnits="userSpaceOnUse"><stop stop-color="#653036"/><stop offset="1" stop-color="#844849" stop-opacity="0"/></linearGradient><linearGradient id="f827idn" x1="20.036" x2="26.842" y1="9.378" y2="19.586" gradientUnits="userSpaceOnUse"><stop stop-color="#915F51"/><stop offset="1" stop-color="#7A4D49"/></linearGradient><linearGradient id="f827ido" x1="27.365" x2="27.365" y1="2.078" y2="3.358" gradientUnits="userSpaceOnUse"><stop offset=".202" stop-color="#9F705F"/><stop offset="1" stop-color="#956455" stop-opacity="0"/></linearGradient><filter id="f827idp" width="13.121" height="28.244" x="1.818" y="1.678" color-interpolation-filters="sRGB" filterUnits="userSpaceOnUse"><feFlood flood-opacity="0" result="BackgroundImageFix"/><feBlend in="SourceGraphic" in2="BackgroundImageFix" result="shape"/><feColorMatrix in="SourceAlpha" result="hardAlpha" values="0 0 0 0 0 0 0 0 0 0 0 0 0 0 0 0 0 0 127 0"/><feOffset dx="1" dy="-.4"/><feGaussianBlur stdDeviation=".4"/><feComposite in2="hardAlpha" k2="-1" k3="1" operator="arithmetic"/><feColorMatrix values="0 0 0 0 0.411765 0 0 0 0 0.239216 0 0 0 0 0.215686 0 0 0 1 0"/><feBlend in2="shape" result="effect1_innerShadow_18_24814"/></filter><filter id="f827idq" width="3.477" height="3.359" x="10.019" y="6.125" color-interpolation-filters="sRGB" filterUnits="userSpaceOnUse"><feFlood flood-opacity="0" result="BackgroundImageFix"/><feBlend in="SourceGraphic" in2="BackgroundImageFix" result="shape"/><feGaussianBlur result="effect1_foregroundBlur_18_24814" stdDeviation=".25"/></filter><filter id="f827idr" width="3.477" height="3.359" x="8.159" y="13.08" color-interpolation-filters="sRGB" filterUnits="userSpaceOnUse"><feFlood flood-opacity="0" result="BackgroundImageFix"/><feBlend in="SourceGraphic" in2="BackgroundImageFix" result="shape"/><feGaussianBlur result="effect1_foregroundBlur_18_24814" stdDeviation=".25"/></filter><filter id="f827ids" width="3.477" height="3.359" x="6.456" y="20.035" color-interpolation-filters="sRGB" filterUnits="userSpaceOnUse"><feFlood flood-opacity="0" result="BackgroundImageFix"/><feBlend in="SourceGraphic" in2="BackgroundImageFix" result="shape"/><feGaussianBlur result="effect1_foregroundBlur_18_24814" stdDeviation=".25"/></filter><filter id="f827idt" width="3.477" height="3.359" x="4.581" y="26.937" color-interpolation-filters="sRGB" filterUnits="userSpaceOnUse"><feFlood flood-opacity="0" result="BackgroundImageFix"/><feBlend in="SourceGraphic" in2="BackgroundImageFix" result="shape"/><feGaussianBlur result="effect1_foregroundBlur_18_24814" stdDeviation=".25"/></filter><filter id="f827idu" width="13.121" height="28.244" x="17.479" y="1.678" color-interpolation-filters="sRGB" filterUnits="userSpaceOnUse"><feFlood flood-opacity="0" result="BackgroundImageFix"/><feBlend in="SourceGraphic" in2="BackgroundImageFix" result="shape"/><feColorMatrix in="SourceAlpha" result="hardAlpha" values="0 0 0 0 0 0 0 0 0 0 0 0 0 0 0 0 0 0 127 0"/><feOffset dx="1" dy="-.4"/><feGaussianBlur stdDeviation=".4"/><feComposite in2="hardAlpha" k2="-1" k3="1" operator="arithmetic"/><feColorMatrix values="0 0 0 0 0.411765 0 0 0 0 0.239216 0 0 0 0 0.215686 0 0 0 1 0"/><feBlend in2="shape" result="effect1_innerShadow_18_24814"/></filter><radialGradient id="f827idv" cx="0" cy="0" r="1" gradientTransform="rotate(-164.358 6.178 13.218)scale(2.2651 11.5372)" gradientUnits="userSpaceOnUse"><stop stop-color="#7A4D49"/><stop offset="1" stop-color="#7A4D49" stop-opacity="0"/></radialGradient><radialGradient id="f827idw" cx="0" cy="0" r="1" gradientTransform="rotate(-164.358 14.009 12.143)scale(2.2651 11.5372)" gradientUnits="userSpaceOnUse"><stop stop-color="#7A4D49"/><stop offset="1" stop-color="#7A4D49" stop-opacity="0"/></radialGradient></defs></g></svg>