<svg xmlns="http://www.w3.org/2000/svg" xmlns:xlink="http://www.w3.org/1999/xlink" width="32" height="32" viewBox="0 0 32 32"><g fill="none"><path fill="#8248DD" d="m13.99 26.047l3.026-8.769c.059.216.94.29 1.373.3l13.598 2.352v11.553l-14.752-2.527c-2.322-.306-3.125-2.074-3.246-2.91"/><path fill="url(#f861idy)" d="m13.99 26.047l3.026-8.769c.059.216.94.29 1.373.3l13.598 2.352v11.553l-14.752-2.527c-2.322-.306-3.125-2.074-3.246-2.91"/><path fill="url(#f861idz)" d="m13.99 26.047l3.026-8.769c.059.216.94.29 1.373.3l13.598 2.352v11.553l-14.752-2.527c-2.322-.306-3.125-2.074-3.246-2.91"/><path fill="url(#f861id0)" d="m13.99 26.047l3.026-8.769c.059.216.94.29 1.373.3l13.598 2.352v11.553l-14.752-2.527c-2.322-.306-3.125-2.074-3.246-2.91"/><path fill="url(#f861id10)" d="m13.99 26.047l3.026-8.769c.059.216.94.29 1.373.3l13.598 2.352v11.553l-14.752-2.527c-2.322-.306-3.125-2.074-3.246-2.91"/><path fill="url(#f861id11)" d="m13.99 26.047l3.026-8.769c.059.216.94.29 1.373.3l13.598 2.352v11.553l-14.752-2.527c-2.322-.306-3.125-2.074-3.246-2.91"/><path fill="url(#f861id1)" d="m13.99 26.047l3.026-8.769c.059.216.94.29 1.373.3l13.598 2.352v11.553l-14.752-2.527c-2.322-.306-3.125-2.074-3.246-2.91"/><path fill="url(#f861id2)" d="m13.99 26.047l3.026-8.769c.059.216.94.29 1.373.3l13.598 2.352v11.553l-14.752-2.527c-2.322-.306-3.125-2.074-3.246-2.91"/><path fill="url(#f861id3)" d="m13.99 26.047l3.026-8.769c.059.216.94.29 1.373.3l13.598 2.352v11.553l-14.752-2.527c-2.322-.306-3.125-2.074-3.246-2.91"/><path fill="url(#f861id4)" d="m13.99 26.047l3.026-8.769c.059.216.94.29 1.373.3l13.598 2.352v11.553l-14.752-2.527c-2.322-.306-3.125-2.074-3.246-2.91"/><path fill="url(#f861id5)" d="m13.99 26.047l3.026-8.769c.059.216.94.29 1.373.3l13.598 2.352v11.553l-14.752-2.527c-2.322-.306-3.125-2.074-3.246-2.91"/><path fill="url(#f861id12)" d="m13.99 26.047l3.026-8.769c.059.216.94.29 1.373.3l13.598 2.352v11.553l-14.752-2.527c-2.322-.306-3.125-2.074-3.246-2.91"/><path fill="url(#f861id13)" d="M14.45 26.225c-.865-.173-1.416-.37-1.584-.447c2.339-3.984 6.98-11.862 6.83-11.512c-.188.437-1.017 2-1.384 2.718c-.367.72-.36 1.602-.36 1.758s.29.68.36 1.008c.07.078.633.625.797 1.828c.131.963.099 1.622.066 1.832c-.094 1.241-.6 1.906-1.02 2.384c-.735.834-1.872.87-2.137.828c-.138-.022-.486-.182-1.568-.397"/><path fill="#C28D7B" d="M7.91 21.687c1.05 2.271 3.919 3.744 5.222 4.196c.56.18 2.161.195 4.087-1.184c2.408-1.723 1.135-4.65 1.068-4.96s-.31-.93-.343-1.114s.1-.954.284-1.439c.144-.38.625-1.27.855-1.694l.014-.027l-2.844-3.336l-4.816-.754l-4.925.504c-.026 1.097-.137 3.453-.032 4.735c.12 1.447.118 2.233 1.43 5.072"/><path fill="url(#f861id6)" d="M7.91 21.687c1.05 2.271 3.919 3.744 5.222 4.196c.56.18 2.161.195 4.087-1.184c2.408-1.723 1.135-4.65 1.068-4.96s-.31-.93-.343-1.114s.1-.954.284-1.439c.144-.38.625-1.27.855-1.694l.014-.027l-2.844-3.336l-4.816-.754l-4.925.504c-.026 1.097-.137 3.453-.032 4.735c.12 1.447.118 2.233 1.43 5.072"/><path fill="url(#f861id14)" d="M7.91 21.687c1.05 2.271 3.919 3.744 5.222 4.196c.56.18 2.161.195 4.087-1.184c2.408-1.723 1.135-4.65 1.068-4.96s-.31-.93-.343-1.114s.1-.954.284-1.439c.144-.38.625-1.27.855-1.694l.014-.027l-2.844-3.336l-4.816-.754l-4.925.504c-.026 1.097-.137 3.453-.032 4.735c.12 1.447.118 2.233 1.43 5.072"/><path fill="url(#f861id7)" d="M7.91 21.687c1.05 2.271 3.919 3.744 5.222 4.196c.56.18 2.161.195 4.087-1.184c2.408-1.723 1.135-4.65 1.068-4.96s-.31-.93-.343-1.114s.1-.954.284-1.439c.144-.38.625-1.27.855-1.694l.014-.027l-2.844-3.336l-4.816-.754l-4.925.504c-.026 1.097-.137 3.453-.032 4.735c.12 1.447.118 2.233 1.43 5.072"/><path fill="url(#f861id8)" d="M7.91 21.687c1.05 2.271 3.919 3.744 5.222 4.196c.56.18 2.161.195 4.087-1.184c2.408-1.723 1.135-4.65 1.068-4.96s-.31-.93-.343-1.114s.1-.954.284-1.439c.144-.38.625-1.27.855-1.694l.014-.027l-2.844-3.336l-4.816-.754l-4.925.504c-.026 1.097-.137 3.453-.032 4.735c.12 1.447.118 2.233 1.43 5.072"/><path fill="url(#f861id9)" d="M7.91 21.687c1.05 2.271 3.919 3.744 5.222 4.196c.56.18 2.161.195 4.087-1.184c2.408-1.723 1.135-4.65 1.068-4.96s-.31-.93-.343-1.114s.1-.954.284-1.439c.144-.38.625-1.27.855-1.694l.014-.027l-2.844-3.336l-4.816-.754l-4.925.504c-.026 1.097-.137 3.453-.032 4.735c.12 1.447.118 2.233 1.43 5.072"/><path fill="url(#f861ida)" d="M7.91 21.687c1.05 2.271 3.919 3.744 5.222 4.196c.56.18 2.161.195 4.087-1.184c2.408-1.723 1.135-4.65 1.068-4.96s-.31-.93-.343-1.114s.1-.954.284-1.439c.144-.38.625-1.27.855-1.694l.014-.027l-2.844-3.336l-4.816-.754l-4.925.504c-.026 1.097-.137 3.453-.032 4.735c.12 1.447.118 2.233 1.43 5.072"/><path fill="url(#f861id15)" d="m6.503 11.896l-.06 2.666c1.688-.203 2.602-1.26 2.602-2.744c.012-.255.046-.838.09-1.766c.036-.743.143-2.258.193-2.923c-.252-.083-.896-.175-1.455.123c-1.351.607-1.252 1.986-1.37 4.644"/><path fill="url(#f861idb)" d="m6.503 11.896l-.06 2.666c1.688-.203 2.602-1.26 2.602-2.744c.012-.255.046-.838.09-1.766c.036-.743.143-2.258.193-2.923c-.252-.083-.896-.175-1.455.123c-1.351.607-1.252 1.986-1.37 4.644"/><path fill="url(#f861idc)" d="m6.503 11.896l-.06 2.666c1.688-.203 2.602-1.26 2.602-2.744c.012-.255.046-.838.09-1.766c.036-.743.143-2.258.193-2.923c-.252-.083-.896-.175-1.455.123c-1.351.607-1.252 1.986-1.37 4.644"/><path fill="url(#f861id16)" d="m6.503 11.896l-.06 2.666c1.688-.203 2.602-1.26 2.602-2.744c.012-.255.046-.838.09-1.766c.036-.743.143-2.258.193-2.923c-.252-.083-.896-.175-1.455.123c-1.351.607-1.252 1.986-1.37 4.644"/><path fill="url(#f861id17)" d="M9.082 10.704c-.036 1.254-.216 2.174-.3 2.478c.965-.182 2.696-.41 2.587-2.715c.009-.483.072-1.822.109-2.45c.036-.63.137-2.46.255-3.39c-.255-.036-.692-.127-1.476.383c-.783.51-.829 1.34-.92 1.977c-.091.638-.21 2.15-.255 3.717"/><path fill="url(#f861idd)" d="M9.082 10.704c-.036 1.254-.216 2.174-.3 2.478c.965-.182 2.696-.41 2.587-2.715c.009-.483.072-1.822.109-2.45c.036-.63.137-2.46.255-3.39c-.255-.036-.692-.127-1.476.383c-.783.51-.829 1.34-.92 1.977c-.091.638-.21 2.15-.255 3.717"/><path fill="url(#f861ide)" d="M9.082 10.704c-.036 1.254-.216 2.174-.3 2.478c.965-.182 2.696-.41 2.587-2.715c.009-.483.072-1.822.109-2.45c.036-.63.137-2.46.255-3.39c-.255-.036-.692-.127-1.476.383c-.783.51-.829 1.34-.92 1.977c-.091.638-.21 2.15-.255 3.717"/><path fill="url(#f861idf)" d="M9.082 10.704c-.036 1.254-.216 2.174-.3 2.478c.965-.182 2.696-.41 2.587-2.715c.009-.483.072-1.822.109-2.45c.036-.63.137-2.46.255-3.39c-.255-.036-.692-.127-1.476.383c-.783.51-.829 1.34-.92 1.977c-.091.638-.21 2.15-.255 3.717"/><path fill="url(#f861id18)" d="M9.082 10.704c-.036 1.254-.216 2.174-.3 2.478c.965-.182 2.696-.41 2.587-2.715c.009-.483.072-1.822.109-2.45c.036-.63.137-2.46.255-3.39c-.255-.036-.692-.127-1.476.383c-.783.51-.829 1.34-.92 1.977c-.091.638-.21 2.15-.255 3.717"/><path fill="url(#f861id19)" d="M11.37 10.027c-.062 1.684-.267 1.689-.377 1.975c1.07 1.51 3.642.885 4.794.384V4.627c-.108-.717-.708-2.1-2.246-1.896c-1.923.256-1.88 2.214-1.958 3.316a165 165 0 0 0-.212 3.98"/><path fill="url(#f861idg)" d="M11.37 10.027c-.062 1.684-.267 1.689-.377 1.975c1.07 1.51 3.642.885 4.794.384V4.627c-.108-.717-.708-2.1-2.246-1.896c-1.923.256-1.88 2.214-1.958 3.316a165 165 0 0 0-.212 3.98"/><path fill="url(#f861idh)" d="M11.37 10.027c-.062 1.684-.267 1.689-.377 1.975c1.07 1.51 3.642.885 4.794.384V4.627c-.108-.717-.708-2.1-2.246-1.896c-1.923.256-1.88 2.214-1.958 3.316a165 165 0 0 0-.212 3.98"/><path fill="url(#f861id1a)" d="M11.37 10.027c-.062 1.684-.267 1.689-.377 1.975c1.07 1.51 3.642.885 4.794.384V4.627c-.108-.717-.708-2.1-2.246-1.896c-1.923.256-1.88 2.214-1.958 3.316a165 165 0 0 0-.212 3.98"/><path fill="url(#f861idi)" d="M11.37 10.027c-.062 1.684-.267 1.689-.377 1.975c1.07 1.51 3.642.885 4.794.384V4.627c-.108-.717-.708-2.1-2.246-1.896c-1.923.256-1.88 2.214-1.958 3.316a165 165 0 0 0-.212 3.98"/><path fill="url(#f861id1b)" d="M13.404 10.228c-.217 1.955-.586 2.714-.744 2.85c.198 1.232.184 4.189.744 4.61c.965.726 2.704-1.725 3.446-2.077l.416-3.03c.203-1.629.627-5.024.699-5.574c.09-.687-.136-2.399-1.825-2.455S13.967 5.926 13.876 6.5l-.003.02c-.09.571-.202 1.292-.47 3.708"/><path fill="url(#f861idj)" d="M13.404 10.228c-.217 1.955-.586 2.714-.744 2.85c.198 1.232.184 4.189.744 4.61c.965.726 2.704-1.725 3.446-2.077l.416-3.03c.203-1.629.627-5.024.699-5.574c.09-.687-.136-2.399-1.825-2.455S13.967 5.926 13.876 6.5l-.003.02c-.09.571-.202 1.292-.47 3.708"/><path fill="url(#f861idk)" d="M13.404 10.228c-.217 1.955-.586 2.714-.744 2.85c.198 1.232.184 4.189.744 4.61c.965.726 2.704-1.725 3.446-2.077l.416-3.03c.203-1.629.627-5.024.699-5.574c.09-.687-.136-2.399-1.825-2.455S13.967 5.926 13.876 6.5l-.003.02c-.09.571-.202 1.292-.47 3.708"/><path fill="url(#f861id1c)" d="M13.404 10.228c-.217 1.955-.586 2.714-.744 2.85c.198 1.232.184 4.189.744 4.61c.965.726 2.704-1.725 3.446-2.077l.416-3.03c.203-1.629.627-5.024.699-5.574c.09-.687-.136-2.399-1.825-2.455S13.967 5.926 13.876 6.5l-.003.02c-.09.571-.202 1.292-.47 3.708"/><path fill="url(#f861idl)" d="M13.404 10.228c-.217 1.955-.586 2.714-.744 2.85c.198 1.232.184 4.189.744 4.61c.965.726 2.704-1.725 3.446-2.077l.416-3.03c.203-1.629.627-5.024.699-5.574c.09-.687-.136-2.399-1.825-2.455S13.967 5.926 13.876 6.5l-.003.02c-.09.571-.202 1.292-.47 3.708"/><path fill="url(#f861idm)" d="M13.404 10.228c-.217 1.955-.586 2.714-.744 2.85c.198 1.232.184 4.189.744 4.61c.965.726 2.704-1.725 3.446-2.077l.416-3.03c.203-1.629.627-5.024.699-5.574c.09-.687-.136-2.399-1.825-2.455S13.967 5.926 13.876 6.5l-.003.02c-.09.571-.202 1.292-.47 3.708"/><path fill="#C18784" d="M14.992 13.928c-.818 1.407-1.593 2.09-1.878 2.256c-.088.051-1.862 2.456 1.212 5.877c1.669 1.469 4.692 2.669 4.279-1.241c-.055-.518-.548-1.744-.658-2.18c-.087-.35.11-1.03.219-1.325c.234-.764.717-1.435 1.48-2.962c.765-1.528-.046-3.165-1.683-3.072c-1.637.094-1.95.887-2.971 2.647"/><path fill="url(#f861id1d)" d="M14.992 13.928c-.818 1.407-1.593 2.09-1.878 2.256c-.088.051-1.862 2.456 1.212 5.877c1.669 1.469 4.692 2.669 4.279-1.241c-.055-.518-.548-1.744-.658-2.18c-.087-.35.11-1.03.219-1.325c.234-.764.717-1.435 1.48-2.962c.765-1.528-.046-3.165-1.683-3.072c-1.637.094-1.95.887-2.971 2.647"/><path fill="url(#f861idn)" d="M14.992 13.928c-.818 1.407-1.593 2.09-1.878 2.256c-.088.051-1.862 2.456 1.212 5.877c1.669 1.469 4.692 2.669 4.279-1.241c-.055-.518-.548-1.744-.658-2.18c-.087-.35.11-1.03.219-1.325c.234-.764.717-1.435 1.48-2.962c.765-1.528-.046-3.165-1.683-3.072c-1.637.094-1.95.887-2.971 2.647"/><path fill="url(#f861ido)" d="M14.992 13.928c-.818 1.407-1.593 2.09-1.878 2.256c-.088.051-1.862 2.456 1.212 5.877c1.669 1.469 4.692 2.669 4.279-1.241c-.055-.518-.548-1.744-.658-2.18c-.087-.35.11-1.03.219-1.325c.234-.764.717-1.435 1.48-2.962c.765-1.528-.046-3.165-1.683-3.072c-1.637.094-1.95.887-2.971 2.647"/><path fill="url(#f861idp)" d="M14.992 13.928c-.818 1.407-1.593 2.09-1.878 2.256c-.088.051-1.862 2.456 1.212 5.877c1.669 1.469 4.692 2.669 4.279-1.241c-.055-.518-.548-1.744-.658-2.18c-.087-.35.11-1.03.219-1.325c.234-.764.717-1.435 1.48-2.962c.765-1.528-.046-3.165-1.683-3.072c-1.637.094-1.95.887-2.971 2.647"/><path fill="url(#f861idq)" d="M14.992 13.928c-.818 1.407-1.593 2.09-1.878 2.256c-.088.051-1.862 2.456 1.212 5.877c1.669 1.469 4.692 2.669 4.279-1.241c-.055-.518-.548-1.744-.658-2.18c-.087-.35.11-1.03.219-1.325c.234-.764.717-1.435 1.48-2.962c.765-1.528-.046-3.165-1.683-3.072c-1.637.094-1.95.887-2.971 2.647"/><path fill="url(#f861idr)" d="M14.992 13.928c-.818 1.407-1.593 2.09-1.878 2.256c-.088.051-1.862 2.456 1.212 5.877c1.669 1.469 4.692 2.669 4.279-1.241c-.055-.518-.548-1.744-.658-2.18c-.087-.35.11-1.03.219-1.325c.234-.764.717-1.435 1.48-2.962c.765-1.528-.046-3.165-1.683-3.072c-1.637.094-1.95.887-2.971 2.647"/><path fill="url(#f861ids)" d="M14.992 13.928c-.818 1.407-1.593 2.09-1.878 2.256c-.088.051-1.862 2.456 1.212 5.877c1.669 1.469 4.692 2.669 4.279-1.241c-.055-.518-.548-1.744-.658-2.18c-.087-.35.11-1.03.219-1.325c.234-.764.717-1.435 1.48-2.962c.765-1.528-.046-3.165-1.683-3.072c-1.637.094-1.95.887-2.971 2.647"/><path fill="url(#f861idt)" d="M14.992 13.928c-.818 1.407-1.593 2.09-1.878 2.256c-.088.051-1.862 2.456 1.212 5.877c1.669 1.469 4.692 2.669 4.279-1.241c-.055-.518-.548-1.744-.658-2.18c-.087-.35.11-1.03.219-1.325c.234-.764.717-1.435 1.48-2.962c.765-1.528-.046-3.165-1.683-3.072c-1.637.094-1.95.887-2.971 2.647"/><path fill="url(#f861idu)" d="m16.116 12.126l-9.636-.251c-.026 1.096-.063 3.58 0 4.739v.012c.078 1.441.121 2.228 1.43 5.06c1.05 2.272 3.919 3.745 5.222 4.197c.56.18 2.16.194 4.087-1.184c1.46-1.045 1.566-2.532 1.41-3.61a8 8 0 0 0-.024-.269c-.035-.328-.246-.94-.424-1.457c-.102-.297-.194-.563-.234-.723l-.005-.023c-.029-.197.104-.952.286-1.431c.147-.389.583-1.187.807-1.6l.082-.172c.17-.313.317-.636.53-1.061c.764-1.528-.047-3.165-1.684-3.072c-.907.052-1.407.318-1.847.845"/><path fill="url(#f861idv)" d="m16.116 12.126l-9.636-.251c-.026 1.096-.063 3.58 0 4.739v.012c.078 1.441.121 2.228 1.43 5.06c1.05 2.272 3.919 3.745 5.222 4.197c.56.18 2.16.194 4.087-1.184c1.46-1.045 1.566-2.532 1.41-3.61a8 8 0 0 0-.024-.269c-.035-.328-.246-.94-.424-1.457c-.102-.297-.194-.563-.234-.723l-.005-.023c-.029-.197.104-.952.286-1.431c.147-.389.583-1.187.807-1.6l.082-.172c.17-.313.317-.636.53-1.061c.764-1.528-.047-3.165-1.684-3.072c-.907.052-1.407.318-1.847.845"/><path fill="url(#f861idw)" d="m16.116 12.126l-9.636-.251c-.026 1.096-.063 3.58 0 4.739v.012c.078 1.441.121 2.228 1.43 5.06c1.05 2.272 3.919 3.745 5.222 4.197c.56.18 2.16.194 4.087-1.184c1.46-1.045 1.566-2.532 1.41-3.61a8 8 0 0 0-.024-.269c-.035-.328-.246-.94-.424-1.457c-.102-.297-.194-.563-.234-.723l-.005-.023c-.029-.197.104-.952.286-1.431c.147-.389.583-1.187.807-1.6l.082-.172c.17-.313.317-.636.53-1.061c.764-1.528-.047-3.165-1.684-3.072c-.907.052-1.407.318-1.847.845"/><path fill="url(#f861idx)" d="m16.116 12.126l-9.636-.251c-.026 1.096-.063 3.58 0 4.739v.012c.078 1.441.121 2.228 1.43 5.06c1.05 2.272 3.919 3.745 5.222 4.197c.56.18 2.16.194 4.087-1.184c1.46-1.045 1.566-2.532 1.41-3.61a8 8 0 0 0-.024-.269c-.035-.328-.246-.94-.424-1.457c-.102-.297-.194-.563-.234-.723l-.005-.023c-.029-.197.104-.952.286-1.431c.147-.389.583-1.187.807-1.6l.082-.172c.17-.313.317-.636.53-1.061c.764-1.528-.047-3.165-1.684-3.072c-.907.052-1.407.318-1.847.845"/><defs><radialGradient id="f861id0" cx="0" cy="0" r="1" gradientTransform="rotate(81.469 -3.443 20.66)scale(10.1119 24.3768)" gradientUnits="userSpaceOnUse"><stop offset=".294" stop-color="#8E4AE5"/><stop offset=".874" stop-color="#8E4AE5" stop-opacity="0"/></radialGradient><radialGradient id="f861id1" cx="0" cy="0" r="1" gradientTransform="matrix(.68764 6.50127 -6.0031 .63494 14.32 20.942)" gradientUnits="userSpaceOnUse"><stop offset=".825" stop-color="#852DBD"/><stop offset="1" stop-color="#852DBD" stop-opacity="0"/></radialGradient><radialGradient id="f861id2" cx="0" cy="0" r="1" gradientTransform="matrix(-.53853 7.97018 -6.15248 -.41571 14.9 21.648)" gradientUnits="userSpaceOnUse"><stop offset=".462" stop-color="#852AAB"/><stop offset="1" stop-color="#6F32FB" stop-opacity="0"/></radialGradient><radialGradient id="f861id3" cx="0" cy="0" r="1" gradientTransform="rotate(147.095 12.777 12.887)scale(19.0802 24.1752)" gradientUnits="userSpaceOnUse"><stop offset=".974" stop-color="#806DD1" stop-opacity="0"/><stop offset="1" stop-color="#806DD1"/></radialGradient><radialGradient id="f861id4" cx="0" cy="0" r="1" gradientTransform="matrix(7.822 5.35543 -6.78547 9.91068 15.167 26.128)" gradientUnits="userSpaceOnUse"><stop stop-color="#5C3BD1"/><stop offset="1" stop-color="#5C3BD1" stop-opacity="0"/></radialGradient><radialGradient id="f861id5" cx="0" cy="0" r="1" gradientTransform="rotate(161.642 15.253 12.985)scale(20.8924 11.2164)" gradientUnits="userSpaceOnUse"><stop offset=".914" stop-color="#A58FF2" stop-opacity="0"/><stop offset="1" stop-color="#A58FF2"/></radialGradient><radialGradient id="f861id6" cx="0" cy="0" r="1" gradientTransform="rotate(-138.262 12.229 10.024)scale(8.19524 7.34776)" gradientUnits="userSpaceOnUse"><stop stop-color="#B16C8C"/><stop offset="1" stop-color="#B16C8C" stop-opacity="0"/></radialGradient><radialGradient id="f861id7" cx="0" cy="0" r="1" gradientTransform="rotate(-128.224 12.913 10.751)scale(8.31471 7.09704)" gradientUnits="userSpaceOnUse"><stop stop-color="#B36F89"/><stop offset="1" stop-color="#B36F89" stop-opacity="0"/></radialGradient><radialGradient id="f861id8" cx="0" cy="0" r="1" gradientTransform="matrix(.20312 1.89063 -1.69511 .18212 7.484 13.875)" gradientUnits="userSpaceOnUse"><stop offset=".501" stop-color="#CA957E"/><stop offset="1" stop-color="#CA957E" stop-opacity="0"/></radialGradient><radialGradient id="f861id9" cx="0" cy="0" r="1" gradientTransform="matrix(-.07017 1.9789 -1.77426 -.06291 9.43 12.287)" gradientUnits="userSpaceOnUse"><stop stop-color="#CA957E"/><stop offset=".501" stop-color="#CA957E"/><stop offset="1" stop-color="#CA957E" stop-opacity="0"/></radialGradient><radialGradient id="f861ida" cx="0" cy="0" r="1" gradientTransform="rotate(56.915 -11.895 22.783)scale(4.92324 3.22008)" gradientUnits="userSpaceOnUse"><stop offset=".348" stop-color="#BB827B"/><stop offset="1" stop-color="#BB827B" stop-opacity="0"/></radialGradient><radialGradient id="f861idb" cx="0" cy="0" r="1" gradientTransform="rotate(-99.139 11.643 4.219)scale(9.07953 6.02015)" gradientUnits="userSpaceOnUse"><stop offset=".92" stop-color="#B4896C" stop-opacity="0"/><stop offset="1" stop-color="#B4896C"/></radialGradient><radialGradient id="f861idc" cx="0" cy="0" r="1" gradientTransform="rotate(93.604 -.668 9.797)scale(3.89053 .58167)" gradientUnits="userSpaceOnUse"><stop stop-color="#8B503E"/><stop offset="1" stop-color="#8B503E" stop-opacity="0"/></radialGradient><radialGradient id="f861idd" cx="0" cy="0" r="1" gradientTransform="matrix(-1.09735 -10.6667 6.36718 -.65503 11.733 15.264)" gradientUnits="userSpaceOnUse"><stop offset=".92" stop-color="#B68E71" stop-opacity="0"/><stop offset="1" stop-color="#B68E71"/></radialGradient><radialGradient id="f861ide" cx="0" cy="0" r="1" gradientTransform="rotate(-84.713 12.329 .618)scale(8.27578 3.00234)" gradientUnits="userSpaceOnUse"><stop offset=".95" stop-color="#B88F71" stop-opacity="0"/><stop offset="1" stop-color="#B88F71"/></radialGradient><radialGradient id="f861idf" cx="0" cy="0" r="1" gradientTransform="matrix(-.2503 4.43595 -.59456 -.03355 11.467 9.203)" gradientUnits="userSpaceOnUse"><stop stop-color="#8D5342"/><stop offset="1" stop-color="#8D5342" stop-opacity="0"/></radialGradient><radialGradient id="f861idg" cx="0" cy="0" r="1" gradientTransform="rotate(94.456 5.5 8.91)scale(2.09298)" gradientUnits="userSpaceOnUse"><stop stop-color="#F3CAA4"/><stop offset="1" stop-color="#F3CAA4" stop-opacity="0"/></radialGradient><radialGradient id="f861idh" cx="0" cy="0" r="1" gradientTransform="matrix(-.46068 4.7966 -1.33392 -.12811 14.052 9.293)" gradientUnits="userSpaceOnUse"><stop offset=".027" stop-color="#915847"/><stop offset=".232" stop-color="#915847"/><stop offset="1" stop-color="#915847" stop-opacity="0"/></radialGradient><radialGradient id="f861idi" cx="0" cy="0" r="1" gradientTransform="matrix(.05462 7.9463 -4.4508 .0306 14.727 9.35)" gradientUnits="userSpaceOnUse"><stop offset=".846" stop-color="#C28D7B" stop-opacity="0"/><stop offset=".944" stop-color="#C28D7B"/></radialGradient><radialGradient id="f861idj" cx="0" cy="0" r="1" gradientTransform="matrix(-.3759 1.44996 -1.08526 -.28136 16.578 6.214)" gradientUnits="userSpaceOnUse"><stop stop-color="#F2C3A4"/><stop offset="1" stop-color="#F2C3A4" stop-opacity="0"/></radialGradient><radialGradient id="f861idk" cx="0" cy="0" r="1" gradientTransform="rotate(124.218 4.036 10.903)scale(3.56813 2.05017)" gradientUnits="userSpaceOnUse"><stop stop-color="#AD7863"/><stop offset="1" stop-color="#AD7863" stop-opacity="0"/></radialGradient><radialGradient id="f861idl" cx="0" cy="0" r="1" gradientTransform="matrix(0 2.4375 -2.66064 0 15.32 13.937)" gradientUnits="userSpaceOnUse"><stop stop-color="#AA7763"/><stop offset="1" stop-color="#AA7763" stop-opacity="0"/></radialGradient><radialGradient id="f861idm" cx="0" cy="0" r="1" gradientTransform="rotate(146.659 5.897 9.19)scale(2.84289 1.38778)" gradientUnits="userSpaceOnUse"><stop stop-color="#925945"/><stop offset="1" stop-color="#925945" stop-opacity="0"/></radialGradient><radialGradient id="f861idn" cx="0" cy="0" r="1" gradientTransform="matrix(-3.75002 8 -4.8677 -2.28175 18.375 16.5)" gradientUnits="userSpaceOnUse"><stop offset=".728" stop-color="#BE877C" stop-opacity="0"/><stop offset=".82" stop-color="#BE877C"/></radialGradient><radialGradient id="f861ido" cx="0" cy="0" r="1" gradientTransform="rotate(115.769 5.298 12.337)scale(4.16637 3.02086)" gradientUnits="userSpaceOnUse"><stop stop-color="#F9CBA9"/><stop offset=".393" stop-color="#E5B594"/><stop offset="1" stop-color="#E5B594" stop-opacity="0"/></radialGradient><radialGradient id="f861idp" cx="0" cy="0" r="1" gradientTransform="matrix(-3.125 -2.75001 3.96162 -4.50181 18.062 21.125)" gradientUnits="userSpaceOnUse"><stop offset=".237" stop-color="#EEB99F"/><stop offset="1" stop-color="#EEB99F" stop-opacity="0"/></radialGradient><radialGradient id="f861idq" cx="0" cy="0" r="1" gradientTransform="matrix(2.8562 5.33265 -4.90861 2.62908 13.375 18.125)" gradientUnits="userSpaceOnUse"><stop stop-color="#BB8579"/><stop offset="1" stop-color="#BB8579" stop-opacity="0"/></radialGradient><radialGradient id="f861idr" cx="0" cy="0" r="1" gradientTransform="matrix(-1.71402 3.80039 -1.45013 -.65403 15.968 16.887)" gradientUnits="userSpaceOnUse"><stop stop-color="#C78C8A"/><stop offset="1" stop-color="#C78C8A" stop-opacity="0"/></radialGradient><radialGradient id="f861ids" cx="0" cy="0" r="1" gradientTransform="rotate(114.193 4.41 13.67)scale(8.99795 5.47492)" gradientUnits="userSpaceOnUse"><stop offset=".76" stop-color="#BB817B" stop-opacity="0"/><stop offset=".907" stop-color="#BB817B"/></radialGradient><radialGradient id="f861idt" cx="0" cy="0" r="1" gradientTransform="matrix(-4.06177 0 0 -2.47144 19.936 21.562)" gradientUnits="userSpaceOnUse"><stop stop-color="#EDBBA3"/><stop offset="1" stop-color="#EDBBA3" stop-opacity="0"/><stop offset="1" stop-color="#FA9461" stop-opacity="0"/></radialGradient><radialGradient id="f861idu" cx="0" cy="0" r="1" gradientTransform="rotate(147.212 5.531 14.62)scale(2.95308 2.71188)" gradientUnits="userSpaceOnUse"><stop stop-color="#E7B19C"/><stop offset="1" stop-color="#E7B19C" stop-opacity="0"/></radialGradient><radialGradient id="f861idv" cx="0" cy="0" r="1" gradientTransform="rotate(142.892 5.86 14.371)scale(2.8478 2.6152)" gradientUnits="userSpaceOnUse"><stop stop-color="#E5B19A"/><stop offset="1" stop-color="#E5B19A" stop-opacity="0"/></radialGradient><radialGradient id="f861idw" cx="0" cy="0" r="1" gradientTransform="matrix(2.60627 4.4161 -4.0554 2.3934 12.693 23.19)" gradientUnits="userSpaceOnUse"><stop stop-color="#B47085"/><stop offset="1" stop-color="#B47085" stop-opacity="0"/></radialGradient><radialGradient id="f861idx" cx="0" cy="0" r="1" gradientTransform="rotate(61.132 -11.188 19.179)scale(4.51891 2.88818)" gradientUnits="userSpaceOnUse"><stop offset=".166" stop-color="#C28D7C"/><stop offset="1" stop-color="#C28D7C" stop-opacity="0"/></radialGradient><linearGradient id="f861idy" x1="23.5" x2="22.988" y1="27" y2="31.063" gradientUnits="userSpaceOnUse"><stop offset=".456" stop-color="#4D51FF"/><stop offset=".974" stop-color="#9D68FF"/><stop offset="1" stop-color="#4D51FF" stop-opacity="0"/></linearGradient><linearGradient id="f861idz" x1="16.5" x2="19.625" y1="30.047" y2="22.991" gradientUnits="userSpaceOnUse"><stop stop-color="#5D3AD5"/><stop offset="1" stop-color="#5D3AD5" stop-opacity="0"/></linearGradient><linearGradient id="f861id10" x1="32.55" x2="24.875" y1="27.45" y2="26.309" gradientUnits="userSpaceOnUse"><stop stop-color="#465EFF"/><stop offset="1" stop-color="#465EFF" stop-opacity="0"/></linearGradient><linearGradient id="f861id11" x1="25.25" x2="23.437" y1="18.063" y2="30.25" gradientUnits="userSpaceOnUse"><stop offset=".052" stop-color="#A4A7FF" stop-opacity="0"/><stop offset=".313" stop-color="#A4A7FF" stop-opacity=".62"/><stop offset=".716" stop-color="#A4A7FF" stop-opacity="0"/></linearGradient><linearGradient id="f861id12" x1="24.117" x2="23.274" y1="26.209" y2="30.964" gradientUnits="userSpaceOnUse"><stop offset=".67" stop-color="#9D6AFF" stop-opacity="0"/><stop offset=".804" stop-color="#9D6AFF"/></linearGradient><linearGradient id="f861id13" x1="18.128" x2="16.017" y1="21.022" y2="26.633" gradientUnits="userSpaceOnUse"><stop stop-color="#E4B098"/><stop offset=".525" stop-color="#E7B19C"/><stop offset=".844" stop-color="#B37086"/><stop offset="1" stop-color="#AC6786"/></linearGradient><linearGradient id="f861id14" x1="5.644" x2="8.04" y1="16.939" y2="16.87" gradientUnits="userSpaceOnUse"><stop stop-color="#D79D85"/><stop offset="1" stop-color="#D79D85" stop-opacity="0"/></linearGradient><linearGradient id="f861id15" x1="6.443" x2="10.363" y1="11.856" y2="11.856" gradientUnits="userSpaceOnUse"><stop stop-color="#D6A084"/><stop offset=".109" stop-color="#D69F84"/><stop offset=".333" stop-color="#C08C75"/><stop offset=".521" stop-color="#B48372"/><stop offset=".661" stop-color="#A37062"/><stop offset=".712" stop-color="#8C513F"/></linearGradient><linearGradient id="f861id16" x1="7.125" x2="8.328" y1="12.797" y2="15.125" gradientUnits="userSpaceOnUse"><stop offset=".226" stop-color="#C28D7B" stop-opacity="0"/><stop offset=".572" stop-color="#C28D7B"/></linearGradient><linearGradient id="f861id17" x1="9.07" x2="12.677" y1="10.091" y2="10.308" gradientUnits="userSpaceOnUse"><stop stop-color="#AF7D63"/><stop offset=".109" stop-color="#C08F77"/><stop offset=".291" stop-color="#B58572"/><stop offset=".46" stop-color="#A67464"/><stop offset=".571" stop-color="#A26F60"/><stop offset=".743" stop-color="#8F5645"/></linearGradient><linearGradient id="f861id18" x1="9.478" x2="10.937" y1="11.166" y2="13.694" gradientUnits="userSpaceOnUse"><stop offset=".226" stop-color="#C28D7B" stop-opacity="0"/><stop offset=".572" stop-color="#C28D7B"/></linearGradient><linearGradient id="f861id19" x1="11.529" x2="15.358" y1="9.002" y2="9.002" gradientUnits="userSpaceOnUse"><stop stop-color="#C8967D"/><stop offset=".255" stop-color="#B78772"/><stop offset=".552" stop-color="#C89980"/><stop offset=".73" stop-color="#C89980"/></linearGradient><linearGradient id="f861id1a" x1="12.734" x2="11.065" y1="10.703" y2="13.759" gradientUnits="userSpaceOnUse"><stop offset=".226" stop-color="#C28D7B" stop-opacity="0"/><stop offset=".495" stop-color="#C28D7B"/></linearGradient><linearGradient id="f861id1b" x1="13.514" x2="17.483" y1="9.649" y2="10.249" gradientUnits="userSpaceOnUse"><stop stop-color="#CA967C"/><stop offset=".24" stop-color="#C08D76"/><stop offset=".453" stop-color="#D29F85"/><stop offset=".721" stop-color="#EEBD98"/><stop offset="1" stop-color="#EDBE98"/></linearGradient><linearGradient id="f861id1c" x1="14.421" x2="12.31" y1="12.812" y2="14.989" gradientUnits="userSpaceOnUse"><stop offset=".226" stop-color="#C28D7B" stop-opacity="0"/><stop offset=".572" stop-color="#C28D7B"/></linearGradient><linearGradient id="f861id1d" x1="18.805" x2="16.525" y1="11.277" y2="20.687" gradientUnits="userSpaceOnUse"><stop stop-color="#DCAF8A"/><stop offset="1" stop-color="#DCAF8A" stop-opacity="0"/></linearGradient></defs></g></svg>