<svg xmlns="http://www.w3.org/2000/svg" xmlns:xlink="http://www.w3.org/1999/xlink" width="32" height="32" viewBox="0 0 32 32"><g fill="none"><path fill="url(#f873id8)" d="M6 6.003c4.664-2.332 8.498.5 9.998 2.5c1.5-2 5.334-4.832 9.998-2.5c6 3 4.5 10.498 0 14.997c-2.195 2.195-6.061 6.062-8.89 8.212a1.76 1.76 0 0 1-2.185-.04C12.329 27.079 8.164 23.165 6 21C1.5 16.5 0 9.002 6 6.003"/><path fill="url(#f873id0)" d="M6 6.003c4.664-2.332 8.498.5 9.998 2.5c1.5-2 5.334-4.832 9.998-2.5c6 3 4.5 10.498 0 14.997c-2.195 2.195-6.061 6.062-8.89 8.212a1.76 1.76 0 0 1-2.185-.04C12.329 27.079 8.164 23.165 6 21C1.5 16.5 0 9.002 6 6.003"/><path fill="url(#f873id1)" d="M6 6.003c4.664-2.332 8.498.5 9.998 2.5c1.5-2 5.334-4.832 9.998-2.5c6 3 4.5 10.498 0 14.997c-2.195 2.195-6.061 6.062-8.89 8.212a1.76 1.76 0 0 1-2.185-.04C12.329 27.079 8.164 23.165 6 21C1.5 16.5 0 9.002 6 6.003"/><path fill="url(#f873id9)" d="M6 6.003c4.664-2.332 8.498.5 9.998 2.5c1.5-2 5.334-4.832 9.998-2.5c6 3 4.5 10.498 0 14.997c-2.195 2.195-6.061 6.062-8.89 8.212a1.76 1.76 0 0 1-2.185-.04C12.329 27.079 8.164 23.165 6 21C1.5 16.5 0 9.002 6 6.003"/><path fill="url(#f873id2)" d="M6 6.003c4.664-2.332 8.498.5 9.998 2.5c1.5-2 5.334-4.832 9.998-2.5c6 3 4.5 10.498 0 14.997c-2.195 2.195-6.061 6.062-8.89 8.212a1.76 1.76 0 0 1-2.185-.04C12.329 27.079 8.164 23.165 6 21C1.5 16.5 0 9.002 6 6.003"/><path fill="url(#f873ida)" d="M6 6.003c4.664-2.332 8.498.5 9.998 2.5c1.5-2 5.334-4.832 9.998-2.5c6 3 4.5 10.498 0 14.997c-2.195 2.195-6.061 6.062-8.89 8.212a1.76 1.76 0 0 1-2.185-.04C12.329 27.079 8.164 23.165 6 21C1.5 16.5 0 9.002 6 6.003"/><path fill="url(#f873id3)" d="M6 6.003c4.664-2.332 8.498.5 9.998 2.5c1.5-2 5.334-4.832 9.998-2.5c6 3 4.5 10.498 0 14.997c-2.195 2.195-6.061 6.062-8.89 8.212a1.76 1.76 0 0 1-2.185-.04C12.329 27.079 8.164 23.165 6 21C1.5 16.5 0 9.002 6 6.003"/><path fill="url(#f873id4)" d="M6 6.003c4.664-2.332 8.498.5 9.998 2.5c1.5-2 5.334-4.832 9.998-2.5c6 3 4.5 10.498 0 14.997c-2.195 2.195-6.061 6.062-8.89 8.212a1.76 1.76 0 0 1-2.185-.04C12.329 27.079 8.164 23.165 6 21C1.5 16.5 0 9.002 6 6.003"/><path fill="url(#f873id5)" d="M6 6.003c4.664-2.332 8.498.5 9.998 2.5c1.5-2 5.334-4.832 9.998-2.5c6 3 4.5 10.498 0 14.997c-2.195 2.195-6.061 6.062-8.89 8.212a1.76 1.76 0 0 1-2.185-.04C12.329 27.079 8.164 23.165 6 21C1.5 16.5 0 9.002 6 6.003"/><path fill="url(#f873id6)" d="M6 6.003c4.664-2.332 8.498.5 9.998 2.5c1.5-2 5.334-4.832 9.998-2.5c6 3 4.5 10.498 0 14.997c-2.195 2.195-6.061 6.062-8.89 8.212a1.76 1.76 0 0 1-2.185-.04C12.329 27.079 8.164 23.165 6 21C1.5 16.5 0 9.002 6 6.003"/><path fill="url(#f873id7)" d="M6 6.003c4.664-2.332 8.498.5 9.998 2.5c1.5-2 5.334-4.832 9.998-2.5c6 3 4.5 10.498 0 14.997c-2.195 2.195-6.061 6.062-8.89 8.212a1.76 1.76 0 0 1-2.185-.04C12.329 27.079 8.164 23.165 6 21C1.5 16.5 0 9.002 6 6.003"/><defs><radialGradient id="f873id0" cx="0" cy="0" r="1" gradientTransform="matrix(35.61891 36.11887 -16.52094 16.29226 24.871 28.25)" gradientUnits="userSpaceOnUse"><stop offset=".521" stop-color="#50A5C3" stop-opacity="0"/><stop offset=".58" stop-color="#5599B1"/></radialGradient><radialGradient id="f873id1" cx="0" cy="0" r="1" gradientTransform="rotate(119.541 11.712 11.935)scale(25.2213)" gradientUnits="userSpaceOnUse"><stop offset=".225" stop-color="#55C9F7"/><stop offset="1" stop-color="#55C9F7" stop-opacity="0"/></radialGradient><radialGradient id="f873id2" cx="0" cy="0" r="1" gradientTransform="matrix(-33.00001 -13.49999 10.17079 -24.86195 28.75 26)" gradientUnits="userSpaceOnUse"><stop offset=".172" stop-color="#5AAEFF"/><stop offset=".811" stop-color="#59B2FF" stop-opacity="0"/></radialGradient><radialGradient id="f873id3" cx="0" cy="0" r="1" gradientTransform="rotate(134.433 11.362 10.142)scale(11.5107 6.49213)" gradientUnits="userSpaceOnUse"><stop offset=".164" stop-color="#78DBFF"/><stop offset="1" stop-color="#5DBCF3" stop-opacity="0"/></radialGradient><radialGradient id="f873id4" cx="0" cy="0" r="1" gradientTransform="matrix(3.24805 11.62497 -6.73477 1.88171 12.75 9.875)" gradientUnits="userSpaceOnUse"><stop offset=".228" stop-color="#66CDFE"/><stop offset=".755" stop-color="#58B7F2" stop-opacity="0"/></radialGradient><radialGradient id="f873id5" cx="0" cy="0" r="1" gradientTransform="rotate(125.723 10.668 5.511)scale(11.2378 3.93989)" gradientUnits="userSpaceOnUse"><stop offset=".23" stop-color="#518BA9"/><stop offset="1" stop-color="#518BA9" stop-opacity="0"/></radialGradient><radialGradient id="f873id6" cx="0" cy="0" r="1" gradientTransform="rotate(117.773 3.752 17.444)scale(10.5937 8.6569)" gradientUnits="userSpaceOnUse"><stop stop-color="#45A1EC"/><stop offset="1" stop-color="#47B0F1" stop-opacity="0"/></radialGradient><radialGradient id="f873id7" cx="0" cy="0" r="1" gradientTransform="matrix(-33.36905 31.49492 -24.50803 -25.9664 8.249 7.255)" gradientUnits="userSpaceOnUse"><stop offset=".567" stop-color="#4D9BD4" stop-opacity="0"/><stop offset=".671" stop-color="#5390C8"/></radialGradient><linearGradient id="f873id8" x1="4" x2="28.62" y1="10.754" y2="10.754" gradientUnits="userSpaceOnUse"><stop stop-color="#4FA8DB"/><stop offset="1" stop-color="#5CC8FF"/></linearGradient><linearGradient id="f873id9" x1="14.373" x2="25.683" y1="11.629" y2="11.629" gradientUnits="userSpaceOnUse"><stop offset=".055" stop-color="#40A6D6" stop-opacity="0"/><stop offset=".155" stop-color="#42A2CD"/><stop offset=".669" stop-color="#46B4E4"/><stop offset="1" stop-color="#4ABCEB" stop-opacity="0"/></linearGradient><linearGradient id="f873ida" x1="15.998" x2="20.125" y1="32.375" y2="16.125" gradientUnits="userSpaceOnUse"><stop offset=".244" stop-color="#5E83FF"/><stop offset="1" stop-color="#598BFF" stop-opacity="0"/></linearGradient></defs></g></svg>