<svg xmlns="http://www.w3.org/2000/svg" xmlns:xlink="http://www.w3.org/1999/xlink" width="32" height="32" viewBox="0 0 32 32"><g fill="none"><path fill="url(#f1324id0)" d="M8.329 29.647q.004-.08.004-.163a3.138 3.138 0 1 0-6.271.163z"/><path fill="url(#f1324id1)" d="M29.938 29.647q.005-.08.005-.163a3.138 3.138 0 1 0-6.272.163z"/><path fill="url(#f1324idr)" d="M16 15.148c-6.07 0-11 4.92-11 11v3.5h22v-3.5c0-6.08-4.93-11-11-11"/><path fill="url(#f1324ids)" d="M8.98 17.648a10.99 10.99 0 0 0-3.97 8.5l.02 3.5l4-.02z"/><path fill="url(#f1324idt)" d="M23 17.658v11.98h4v-3.5c0-3.41-1.56-6.46-4-8.48"/><circle cx="11.234" cy="10.962" r="1.671" fill="url(#f1324id2)"/><g filter="url(#f1324id1e)"><circle cx="11.234" cy="10.962" r=".996" fill="url(#f1324idu)"/></g><g filter="url(#f1324id1f)"><circle cx="20.756" cy="10.962" r="1.671" fill="url(#f1324idv)"/><circle cx="20.756" cy="10.962" r="1.671" fill="url(#f1324id3)"/></g><g filter="url(#f1324id1g)"><circle cx="20.756" cy="10.962" r=".996" fill="#FFBF34"/><circle cx="20.756" cy="10.962" r=".996" fill="url(#f1324id4)"/><circle cx="20.756" cy="10.962" r=".996" fill="url(#f1324id5)"/></g><path fill="url(#f1324idw)" d="M10.882 10.349a30 30 0 0 1-.058-1.44c0-.267.107-.587.322-.747l.16-.16c.27-.214.377-.534.377-.855v-.854a.52.52 0 0 1 .43-.534c.644-.16 1.986-.427 3.919-.427s3.275.267 3.919.427c.215.054.43.267.43.534v.854c0 .32.16.641.375.854c.503.353.472.546.43.961c-.013.129-.054 1.196-.09 1.442l-.265 3.962c-.161 1.771-1.554 3.006-3.214 3.006h-3.213c-1.714 0-3.053-1.235-3.214-3.006z"/><path fill="url(#f1324idx)" d="M10.882 10.349a30 30 0 0 1-.058-1.44c0-.267.107-.587.322-.747l.16-.16c.27-.214.377-.534.377-.855v-.854a.52.52 0 0 1 .43-.534c.644-.16 1.986-.427 3.919-.427s3.275.267 3.919.427c.215.054.43.267.43.534v.854c0 .32.16.641.375.854c.503.353.472.546.43.961c-.013.129-.054 1.196-.09 1.442l-.265 3.962c-.161 1.771-1.554 3.006-3.214 3.006h-3.213c-1.714 0-3.053-1.235-3.214-3.006z"/><path fill="url(#f1324id6)" d="M10.882 10.349a30 30 0 0 1-.058-1.44c0-.267.107-.587.322-.747l.16-.16c.27-.214.377-.534.377-.855v-.854a.52.52 0 0 1 .43-.534c.644-.16 1.986-.427 3.919-.427s3.275.267 3.919.427c.215.054.43.267.43.534v.854c0 .32.16.641.375.854c.503.353.472.546.43.961c-.013.129-.054 1.196-.09 1.442l-.265 3.962c-.161 1.771-1.554 3.006-3.214 3.006h-3.213c-1.714 0-3.053-1.235-3.214-3.006z"/><path fill="url(#f1324id7)" d="M10.882 10.349a30 30 0 0 1-.058-1.44c0-.267.107-.587.322-.747l.16-.16c.27-.214.377-.534.377-.855v-.854a.52.52 0 0 1 .43-.534c.644-.16 1.986-.427 3.919-.427s3.275.267 3.919.427c.215.054.43.267.43.534v.854c0 .32.16.641.375.854c.503.353.472.546.43.961c-.013.129-.054 1.196-.09 1.442l-.265 3.962c-.161 1.771-1.554 3.006-3.214 3.006h-3.213c-1.714 0-3.053-1.235-3.214-3.006z"/><path fill="url(#f1324id8)" d="M10.882 10.349a30 30 0 0 1-.058-1.44c0-.267.107-.587.322-.747l.16-.16c.27-.214.377-.534.377-.855v-.854a.52.52 0 0 1 .43-.534c.644-.16 1.986-.427 3.919-.427s3.275.267 3.919.427c.215.054.43.267.43.534v.854c0 .32.16.641.375.854c.503.353.472.546.43.961c-.013.129-.054 1.196-.09 1.442l-.265 3.962c-.161 1.771-1.554 3.006-3.214 3.006h-3.213c-1.714 0-3.053-1.235-3.214-3.006z"/><g filter="url(#f1324id1h)"><path fill="#FFA91B" d="m20.81 4.478l.43.214c.751.373 1.18 1.227 1.02 2.135l-.59 3.043c-.054.314-.261.526-.573.534c.035-.505.069-1.318.081-1.446c.044-.434-.024-.561-.422-.957c-.214-.213-.375-.533-.375-.854v-.854c0-.267-.215-.48-.43-.534c-.644-.16-1.986-.427-3.92-.427c-1.932 0-3.274.267-3.919.427a.52.52 0 0 0-.43.534v.854c0 .32-.107.64-.375.854l-.161.16c-.215.16-.323.495-.323.762c.014.156.035 1.052.059 1.426a.634.634 0 0 1-.595-.533l-.59-3.042c-.108-.855.321-1.709 1.073-2.082c1.015-.445 1.385-1.12 2.201-1.815c.59-.534 1.45-.694 2.202-.32c.537.16 1.127.16 1.664 0c.805-.268 1.718-.054 2.362.533l.806.8c.215.268.483.428.805.588"/><path fill="url(#f1324id9)" d="m20.81 4.478l.43.214c.751.373 1.18 1.227 1.02 2.135l-.59 3.043c-.054.314-.261.526-.573.534c.035-.505.069-1.318.081-1.446c.044-.434-.024-.561-.422-.957c-.214-.213-.375-.533-.375-.854v-.854c0-.267-.215-.48-.43-.534c-.644-.16-1.986-.427-3.92-.427c-1.932 0-3.274.267-3.919.427a.52.52 0 0 0-.43.534v.854c0 .32-.107.64-.375.854l-.161.16c-.215.16-.323.495-.323.762c.014.156.035 1.052.059 1.426a.634.634 0 0 1-.595-.533l-.59-3.042c-.108-.855.321-1.709 1.073-2.082c1.015-.445 1.385-1.12 2.201-1.815c.59-.534 1.45-.694 2.202-.32c.537.16 1.127.16 1.664 0c.805-.268 1.718-.054 2.362.533l.806.8c.215.268.483.428.805.588"/><path fill="url(#f1324idy)" d="m20.81 4.478l.43.214c.751.373 1.18 1.227 1.02 2.135l-.59 3.043c-.054.314-.261.526-.573.534c.035-.505.069-1.318.081-1.446c.044-.434-.024-.561-.422-.957c-.214-.213-.375-.533-.375-.854v-.854c0-.267-.215-.48-.43-.534c-.644-.16-1.986-.427-3.92-.427c-1.932 0-3.274.267-3.919.427a.52.52 0 0 0-.43.534v.854c0 .32-.107.64-.375.854l-.161.16c-.215.16-.323.495-.323.762c.014.156.035 1.052.059 1.426a.634.634 0 0 1-.595-.533l-.59-3.042c-.108-.855.321-1.709 1.073-2.082c1.015-.445 1.385-1.12 2.201-1.815c.59-.534 1.45-.694 2.202-.32c.537.16 1.127.16 1.664 0c.805-.268 1.718-.054 2.362.533l.806.8c.215.268.483.428.805.588"/><path fill="url(#f1324ida)" d="m20.81 4.478l.43.214c.751.373 1.18 1.227 1.02 2.135l-.59 3.043c-.054.314-.261.526-.573.534c.035-.505.069-1.318.081-1.446c.044-.434-.024-.561-.422-.957c-.214-.213-.375-.533-.375-.854v-.854c0-.267-.215-.48-.43-.534c-.644-.16-1.986-.427-3.92-.427c-1.932 0-3.274.267-3.919.427a.52.52 0 0 0-.43.534v.854c0 .32-.107.64-.375.854l-.161.16c-.215.16-.323.495-.323.762c.014.156.035 1.052.059 1.426a.634.634 0 0 1-.595-.533l-.59-3.042c-.108-.855.321-1.709 1.073-2.082c1.015-.445 1.385-1.12 2.201-1.815c.59-.534 1.45-.694 2.202-.32c.537.16 1.127.16 1.664 0c.805-.268 1.718-.054 2.362.533l.806.8c.215.268.483.428.805.588"/><path fill="url(#f1324idb)" d="m20.81 4.478l.43.214c.751.373 1.18 1.227 1.02 2.135l-.59 3.043c-.054.314-.261.526-.573.534c.035-.505.069-1.318.081-1.446c.044-.434-.024-.561-.422-.957c-.214-.213-.375-.533-.375-.854v-.854c0-.267-.215-.48-.43-.534c-.644-.16-1.986-.427-3.92-.427c-1.932 0-3.274.267-3.919.427a.52.52 0 0 0-.43.534v.854c0 .32-.107.64-.375.854l-.161.16c-.215.16-.323.495-.323.762c.014.156.035 1.052.059 1.426a.634.634 0 0 1-.595-.533l-.59-3.042c-.108-.855.321-1.709 1.073-2.082c1.015-.445 1.385-1.12 2.201-1.815c.59-.534 1.45-.694 2.202-.32c.537.16 1.127.16 1.664 0c.805-.268 1.718-.054 2.362.533l.806.8c.215.268.483.428.805.588"/><path fill="url(#f1324idc)" d="m20.81 4.478l.43.214c.751.373 1.18 1.227 1.02 2.135l-.59 3.043c-.054.314-.261.526-.573.534c.035-.505.069-1.318.081-1.446c.044-.434-.024-.561-.422-.957c-.214-.213-.375-.533-.375-.854v-.854c0-.267-.215-.48-.43-.534c-.644-.16-1.986-.427-3.92-.427c-1.932 0-3.274.267-3.919.427a.52.52 0 0 0-.43.534v.854c0 .32-.107.64-.375.854l-.161.16c-.215.16-.323.495-.323.762c.014.156.035 1.052.059 1.426a.634.634 0 0 1-.595-.533l-.59-3.042c-.108-.855.321-1.709 1.073-2.082c1.015-.445 1.385-1.12 2.201-1.815c.59-.534 1.45-.694 2.202-.32c.537.16 1.127.16 1.664 0c.805-.268 1.718-.054 2.362.533l.806.8c.215.268.483.428.805.588"/><path fill="url(#f1324idd)" d="m20.81 4.478l.43.214c.751.373 1.18 1.227 1.02 2.135l-.59 3.043c-.054.314-.261.526-.573.534c.035-.505.069-1.318.081-1.446c.044-.434-.024-.561-.422-.957c-.214-.213-.375-.533-.375-.854v-.854c0-.267-.215-.48-.43-.534c-.644-.16-1.986-.427-3.92-.427c-1.932 0-3.274.267-3.919.427a.52.52 0 0 0-.43.534v.854c0 .32-.107.64-.375.854l-.161.16c-.215.16-.323.495-.323.762c.014.156.035 1.052.059 1.426a.634.634 0 0 1-.595-.533l-.59-3.042c-.108-.855.321-1.709 1.073-2.082c1.015-.445 1.385-1.12 2.201-1.815c.59-.534 1.45-.694 2.202-.32c.537.16 1.127.16 1.664 0c.805-.268 1.718-.054 2.362.533l.806.8c.215.268.483.428.805.588"/></g><path fill="url(#f1324ide)" d="m20.81 4.478l.43.214c.751.373 1.18 1.227 1.02 2.135l-.59 3.043c-.054.314-.261.526-.573.534c.035-.505.069-1.318.081-1.446c.044-.434-.024-.561-.422-.957c-.214-.213-.375-.533-.375-.854v-.854c0-.267-.215-.48-.43-.534c-.644-.16-1.986-.427-3.92-.427c-1.932 0-3.274.267-3.919.427a.52.52 0 0 0-.43.534v.854c0 .32-.107.64-.375.854l-.161.16c-.215.16-.323.495-.323.762c.014.156.035 1.052.059 1.426a.634.634 0 0 1-.595-.533l-.59-3.042c-.108-.855.321-1.709 1.073-2.082c1.015-.445 1.385-1.12 2.201-1.815c.59-.534 1.45-.694 2.202-.32c.537.16 1.127.16 1.664 0c.805-.268 1.718-.054 2.362.533l.806.8c.215.268.483.428.805.588"/><path fill="url(#f1324idf)" d="m20.81 4.478l.43.214c.751.373 1.18 1.227 1.02 2.135l-.59 3.043c-.054.314-.261.526-.573.534c.035-.505.069-1.318.081-1.446c.044-.434-.024-.561-.422-.957c-.214-.213-.375-.533-.375-.854v-.854c0-.267-.215-.48-.43-.534c-.644-.16-1.986-.427-3.92-.427c-1.932 0-3.274.267-3.919.427a.52.52 0 0 0-.43.534v.854c0 .32-.107.64-.375.854l-.161.16c-.215.16-.323.495-.323.762c.014.156.035 1.052.059 1.426a.634.634 0 0 1-.595-.533l-.59-3.042c-.108-.855.321-1.709 1.073-2.082c1.015-.445 1.385-1.12 2.201-1.815c.59-.534 1.45-.694 2.202-.32c.537.16 1.127.16 1.664 0c.805-.268 1.718-.054 2.362.533l.806.8c.215.268.483.428.805.588"/><path fill="url(#f1324idg)" d="m20.81 4.478l.43.214c.751.373 1.18 1.227 1.02 2.135l-.59 3.043c-.054.314-.261.526-.573.534c.035-.505.069-1.318.081-1.446c.044-.434-.024-.561-.422-.957c-.214-.213-.375-.533-.375-.854v-.854c0-.267-.215-.48-.43-.534c-.644-.16-1.986-.427-3.92-.427c-1.932 0-3.274.267-3.919.427a.52.52 0 0 0-.43.534v.854c0 .32-.107.64-.375.854l-.161.16c-.215.16-.323.495-.323.762c.014.156.035 1.052.059 1.426a.634.634 0 0 1-.595-.533l-.59-3.042c-.108-.855.321-1.709 1.073-2.082c1.015-.445 1.385-1.12 2.201-1.815c.59-.534 1.45-.694 2.202-.32c.537.16 1.127.16 1.664 0c.805-.268 1.718-.054 2.362.533l.806.8c.215.268.483.428.805.588"/><g filter="url(#f1324id1i)"><path fill="#F1901C" d="m15.71 10.84l-.82 1.701c-.102.35.142.7.488.7h.738c.346 0 .59-.355.489-.7l-.499-1.701c-.107-.377-.283-.377-.395 0"/></g><g filter="url(#f1324id1j)"><path fill="#FFCC28" d="m15.604 10.676l-.532 1.702a.54.54 0 0 0 .521.7h.787c.37 0 .63-.356.521-.7l-.532-1.702c-.114-.376-.646-.376-.765 0"/><path fill="url(#f1324idz)" d="m15.604 10.676l-.532 1.702a.54.54 0 0 0 .521.7h.787c.37 0 .63-.356.521-.7l-.532-1.702c-.114-.376-.646-.376-.765 0"/><path fill="url(#f1324id10)" d="m15.604 10.676l-.532 1.702a.54.54 0 0 0 .521.7h.787c.37 0 .63-.356.521-.7l-.532-1.702c-.114-.376-.646-.376-.765 0"/><path fill="url(#f1324id11)" d="m15.604 10.676l-.532 1.702a.54.54 0 0 0 .521.7h.787c.37 0 .63-.356.521-.7l-.532-1.702c-.114-.376-.646-.376-.765 0"/></g><path fill="url(#f1324id12)" d="m15.604 10.676l-.532 1.702a.54.54 0 0 0 .521.7h.787c.37 0 .63-.356.521-.7l-.532-1.702c-.114-.376-.646-.376-.765 0"/><g filter="url(#f1324id1k)"><path stroke="url(#f1324idh)" stroke-width=".2" d="M15.987 14.095a3 3 0 0 1-1.387-.329c-.137-.07-.284.085-.198.21c.335.507.92.846 1.585.846s1.249-.339 1.584-.847c.086-.129-.06-.278-.198-.209c-.401.21-.874.329-1.387.329Z"/></g><path fill="#8A004F" d="M15.987 14.095a3 3 0 0 1-1.387-.329c-.137-.07-.284.085-.198.21c.335.507.92.846 1.585.846s1.249-.339 1.584-.847c.086-.129-.06-.278-.198-.209c-.401.21-.874.329-1.387.329"/><path fill="#fff" d="M18.377 9.53c.653 0 1.205.45 1.356 1.06a.274.274 0 0 1-.268.34h-2.233a.23.23 0 0 1-.227-.271a1.4 1.4 0 0 1 1.372-1.129"/><path fill="url(#f1324idi)" d="M18.17 9.802a.893.893 0 0 1 .86 1.129h-1.725a.897.897 0 0 1 .865-1.129"/><path fill="#000" d="M17.658 10.695a.51.51 0 0 1 .512-.511a.51.51 0 0 1 .454.747h-.905a.46.46 0 0 1-.06-.236"/><g filter="url(#f1324id1l)"><path fill="#C7A7A3" d="M18.104 9.99c.064.086-.07.19-.22.303c-.152.113-.264.192-.328.107c-.063-.085.008-.246.159-.359s.325-.135.389-.05"/><path fill="url(#f1324idj)" d="M18.104 9.99c.064.086-.07.19-.22.303c-.152.113-.264.192-.328.107c-.063-.085.008-.246.159-.359s.325-.135.389-.05"/></g><g filter="url(#f1324id1m)"><path fill="url(#f1324id13)" d="M18.965 10.578a.84.84 0 0 0-.231-.463l-.26.285l.117.228z"/></g><path fill="#fff" d="M13.591 9.53c-.653 0-1.205.45-1.356 1.06a.274.274 0 0 0 .268.34h2.233a.23.23 0 0 0 .227-.271a1.4 1.4 0 0 0-1.372-1.129"/><path fill="url(#f1324idk)" d="M13.798 9.802a.893.893 0 0 0-.86 1.129h1.725a1 1 0 0 0 .032-.236a.9.9 0 0 0-.897-.893"/><path fill="#000" d="M14.31 10.695a.51.51 0 0 0-.512-.511a.51.51 0 0 0-.454.747h.905a.5.5 0 0 0 .06-.236"/><g filter="url(#f1324id1n)"><path fill="url(#f1324id14)" d="M14.614 10.59c0-.288-.234-.48-.298-.539l-.289.28l.178.36z"/></g><g filter="url(#f1324id1o)"><ellipse cx="13.529" cy="10.184" fill="#C7A7A3" fill-opacity=".9" rx=".39" ry=".197" transform="rotate(-27.914 13.529 10.184)"/><ellipse cx="13.529" cy="10.184" fill="url(#f1324idl)" rx=".39" ry=".197" transform="rotate(-27.914 13.529 10.184)"/></g><g filter="url(#f1324id1p)"><path fill="url(#f1324idm)" fill-rule="evenodd" d="M17.768 8.754c.72-.067 1.183.214 1.294.317a.473.473 0 0 0 .641-.695c-.306-.282-1.032-.656-2.023-.563a.473.473 0 0 0 .088.941" clip-rule="evenodd"/></g><g filter="url(#f1324id1q)"><path stroke="#D76D5B" stroke-linecap="round" stroke-width=".25" d="M19.383 8.613c-.21-.193-.803-.52-1.659-.44"/></g><g filter="url(#f1324id1r)"><path fill="url(#f1324idn)" fill-rule="evenodd" d="M14.205 8.754c-.72-.067-1.182.214-1.294.317a.473.473 0 1 1-.641-.695c.306-.282 1.032-.656 2.023-.563a.473.473 0 1 1-.088.941" clip-rule="evenodd"/></g><g filter="url(#f1324id1s)"><path stroke="#D76D5B" stroke-linecap="round" stroke-width=".25" d="M12.59 8.613c.21-.193.804-.52 1.66-.44"/></g><g filter="url(#f1324id1t)"><path fill="url(#f1324id15)" d="M26.03 15.648H5.97a.97.97 0 0 0-.97.97v13.03h22v-13.03a.97.97 0 0 0-.97-.97"/><path fill="url(#f1324ido)" d="M26.03 15.648H5.97a.97.97 0 0 0-.97.97v13.03h22v-13.03a.97.97 0 0 0-.97-.97"/><path fill="url(#f1324id16)" d="M26.03 15.648H5.97a.97.97 0 0 0-.97.97v13.03h22v-13.03a.97.97 0 0 0-.97-.97"/><path fill="url(#f1324id17)" d="M26.03 15.648H5.97a.97.97 0 0 0-.97.97v13.03h22v-13.03a.97.97 0 0 0-.97-.97"/><path fill="url(#f1324id18)" d="M26.03 15.648H5.97a.97.97 0 0 0-.97.97v13.03h22v-13.03a.97.97 0 0 0-.97-.97"/><path fill="url(#f1324idp)" d="M26.03 15.648H5.97a.97.97 0 0 0-.97.97v13.03h22v-13.03a.97.97 0 0 0-.97-.97"/></g><path fill="url(#f1324id19)" d="M14.444 21.89a.25.25 0 0 1 .25-.25h2.61a.25.25 0 0 1 .25.25v2.417a.25.25 0 0 1-.25.25h-2.61a.25.25 0 0 1-.25-.25z"/><path fill="url(#f1324id1a)" d="M14.444 21.89a.25.25 0 0 1 .25-.25h2.61a.25.25 0 0 1 .25.25v2.417a.25.25 0 0 1-.25.25h-2.61a.25.25 0 0 1-.25-.25z"/><path fill="url(#f1324id1b)" d="M14.444 21.89a.25.25 0 0 1 .25-.25h2.61a.25.25 0 0 1 .25.25v2.417a.25.25 0 0 1-.25.25h-2.61a.25.25 0 0 1-.25-.25z"/><path fill="url(#f1324id1c)" d="M14.444 21.89a.25.25 0 0 1 .25-.25h2.61a.25.25 0 0 1 .25.25v2.417a.25.25 0 0 1-.25.25h-2.61a.25.25 0 0 1-.25-.25z"/><path fill="url(#f1324id1d)" d="M14.444 21.89a.25.25 0 0 1 .25-.25h2.61a.25.25 0 0 1 .25.25v2.417a.25.25 0 0 1-.25.25h-2.61a.25.25 0 0 1-.25-.25z"/><path fill="url(#f1324idq)" fill-opacity=".6" d="M14.444 21.89a.25.25 0 0 1 .25-.25h2.61a.25.25 0 0 1 .25.25v2.417a.25.25 0 0 1-.25.25h-2.61a.25.25 0 0 1-.25-.25z"/><defs><radialGradient id="f1324id0" cx="0" cy="0" r="1" gradientTransform="matrix(2.78125 -.09375 .1236 3.66674 2.774 28.382)" gradientUnits="userSpaceOnUse"><stop offset=".331" stop-color="#FDC64D"/><stop offset="1" stop-color="#EBA02A"/></radialGradient><radialGradient id="f1324id1" cx="0" cy="0" r="1" gradientTransform="rotate(151.68 11.09 17.687)scale(3.47887 3.35016)" gradientUnits="userSpaceOnUse"><stop stop-color="#FFEB48"/><stop offset="1" stop-color="#F8C743"/></radialGradient><radialGradient id="f1324id2" cx="0" cy="0" r="1" gradientTransform="matrix(1.75652 0 0 3.07393 9.563 10.962)" gradientUnits="userSpaceOnUse"><stop offset=".351" stop-color="#E6962B"/><stop offset="1" stop-color="#CA8F29"/></radialGradient><radialGradient id="f1324id3" cx="0" cy="0" r="1" gradientTransform="matrix(.82748 -.60254 .68772 .94447 21.129 10.697)" gradientUnits="userSpaceOnUse"><stop offset=".543" stop-color="#FFC532"/><stop offset="1" stop-color="#FFC532" stop-opacity="0"/></radialGradient><radialGradient id="f1324id4" cx="0" cy="0" r="1" gradientTransform="matrix(.82204 -1.51196 .88496 .48114 20.715 11.784)" gradientUnits="userSpaceOnUse"><stop offset=".69" stop-color="#F4A51A" stop-opacity="0"/><stop offset="1" stop-color="#F4A51A"/></radialGradient><radialGradient id="f1324id5" cx="0" cy="0" r="1" gradientTransform="matrix(.25953 .2569 -.33118 .33457 20.756 10.962)" gradientUnits="userSpaceOnUse"><stop stop-color="#E59B1F"/><stop offset="1" stop-color="#E59B1F" stop-opacity="0"/></radialGradient><radialGradient id="f1324id6" cx="0" cy="0" r="1" gradientTransform="matrix(-.86793 7.39614 -10.23954 -1.2016 17.345 9.975)" gradientUnits="userSpaceOnUse"><stop offset=".636" stop-color="#F49A3E" stop-opacity="0"/><stop offset=".928" stop-color="#D07F50"/></radialGradient><radialGradient id="f1324id7" cx="0" cy="0" r="1" gradientTransform="matrix(0 -1.30832 1.61023 0 18.335 9.69)" gradientUnits="userSpaceOnUse"><stop stop-color="#FFBA0D"/><stop offset="1" stop-color="#FFBA0D" stop-opacity="0"/></radialGradient><radialGradient id="f1324id8" cx="0" cy="0" r="1" gradientTransform="matrix(0 -1.39218 1.7313 0 13.773 9.656)" gradientUnits="userSpaceOnUse"><stop stop-color="#EE911A"/><stop offset="1" stop-color="#EE911A" stop-opacity="0"/></radialGradient><radialGradient id="f1324id9" cx="0" cy="0" r="1" gradientTransform="matrix(-3.43986 4.43352 -7.5396 -5.84979 19.682 3.242)" gradientUnits="userSpaceOnUse"><stop stop-color="#FFE336"/><stop offset="1" stop-color="#FFE336" stop-opacity="0"/></radialGradient><radialGradient id="f1324ida" cx="0" cy="0" r="1" gradientTransform="rotate(-95.29 9.26 -1.74)scale(2.00292 .98368)" gradientUnits="userSpaceOnUse"><stop offset=".222" stop-color="#FFB42C"/><stop offset="1" stop-color="#FFB42C" stop-opacity="0"/></radialGradient><radialGradient id="f1324idb" cx="0" cy="0" r="1" gradientTransform="matrix(.85996 -1.96834 1.60534 .70136 20.217 9.223)" gradientUnits="userSpaceOnUse"><stop offset=".479" stop-color="#E57D1C"/><stop offset="1" stop-color="#E57D1C" stop-opacity="0"/></radialGradient><radialGradient id="f1324idc" cx="0" cy="0" r="1" gradientTransform="matrix(.99373 1.23303 -1.08867 .87739 15.21 2.353)" gradientUnits="userSpaceOnUse"><stop stop-color="#FFCE2C"/><stop offset="1" stop-color="#FFCE2C" stop-opacity="0"/></radialGradient><radialGradient id="f1324idd" cx="0" cy="0" r="1" gradientTransform="matrix(1.45237 -3.03851 1.04984 .50181 20.18 6.739)" gradientUnits="userSpaceOnUse"><stop stop-color="#FFD93A"/><stop offset="1" stop-color="#FFD93A" stop-opacity="0"/></radialGradient><radialGradient id="f1324ide" cx="0" cy="0" r="1" gradientTransform="matrix(.26142 1.01586 -1.67013 .42978 16.682 2.353)" gradientUnits="userSpaceOnUse"><stop offset=".208" stop-color="#DDB13B"/><stop offset="1" stop-color="#FFC926" stop-opacity="0"/></radialGradient><radialGradient id="f1324idf" cx="0" cy="0" r="1" gradientTransform="matrix(1.108 1.60044 -3.3305 2.30572 11.6 3.615)" gradientUnits="userSpaceOnUse"><stop offset=".288" stop-color="#C9993E"/><stop offset="1" stop-color="#F29322" stop-opacity="0"/></radialGradient><radialGradient id="f1324idg" cx="0" cy="0" r="1" gradientTransform="matrix(-7.21429 3.2501 -4.0668 -9.02713 17.14 6.594)" gradientUnits="userSpaceOnUse"><stop offset=".756" stop-color="#CF7D35" stop-opacity="0"/><stop offset=".959" stop-color="#CF7D35"/></radialGradient><radialGradient id="f1324idh" cx="0" cy="0" r="1" gradientTransform="matrix(.02462 -.62786 1.8836 .07386 15.902 14.978)" gradientUnits="userSpaceOnUse"><stop stop-color="#FFD069"/><stop offset="1" stop-color="#FFBE30" stop-opacity="0"/></radialGradient><radialGradient id="f1324idi" cx="0" cy="0" r="1" gradientTransform="matrix(0 .90401 -1.06968 0 18.168 10.613)" gradientUnits="userSpaceOnUse"><stop offset=".75" stop-color="#925C51"/><stop offset="1" stop-color="#694B43"/><stop offset="1" stop-color="#804D49"/><stop offset="1" stop-color="#85534D"/></radialGradient><radialGradient id="f1324idj" cx="0" cy="0" r="1" gradientTransform="matrix(-.23208 -.29907 .41175 -.31952 17.938 10.364)" gradientUnits="userSpaceOnUse"><stop offset=".766" stop-color="#FFE6E2" stop-opacity="0"/><stop offset=".966" stop-color="#FFE6E2"/></radialGradient><radialGradient id="f1324idk" cx="0" cy="0" r="1" gradientTransform="matrix(0 .90406 -1.06973 0 13.8 10.613)" gradientUnits="userSpaceOnUse"><stop offset=".75" stop-color="#925C51"/><stop offset="1" stop-color="#694B43"/><stop offset="1" stop-color="#804D49"/><stop offset="1" stop-color="#85534D"/></radialGradient><radialGradient id="f1324idl" cx="0" cy="0" r="1" gradientTransform="rotate(-90.897 11.925 -1.403)scale(.4945 .5944)" gradientUnits="userSpaceOnUse"><stop offset=".766" stop-color="#FFE6E2" stop-opacity="0"/><stop offset=".966" stop-color="#FFE6E2"/></radialGradient><radialGradient id="f1324idm" cx="0" cy="0" r="1" gradientTransform="matrix(.19698 -.81253 1.78257 .43214 18.44 8.76)" gradientUnits="userSpaceOnUse"><stop offset=".657" stop-color="#C64F38"/><stop offset="1" stop-color="#BB4F29"/></radialGradient><radialGradient id="f1324idn" cx="0" cy="0" r="1" gradientTransform="matrix(-.19698 -.81253 1.78256 -.43214 13.533 8.76)" gradientUnits="userSpaceOnUse"><stop offset=".657" stop-color="#C64F38"/><stop offset="1" stop-color="#BB4F29"/></radialGradient><radialGradient id="f1324ido" cx="0" cy="0" r="1" gradientTransform="matrix(0 -7.59705 13.2772 0 17.243 30.695)" gradientUnits="userSpaceOnUse"><stop offset=".027" stop-color="#78698C"/><stop offset="1" stop-color="#7A6B8E" stop-opacity="0"/></radialGradient><radialGradient id="f1324idp" cx="0" cy="0" r="1" gradientTransform="matrix(-.78125 .4375 -.4057 -.72446 26.696 16.288)" gradientUnits="userSpaceOnUse"><stop stop-color="#E5DFF1"/><stop offset=".724" stop-color="#E5DFF1" stop-opacity="0"/></radialGradient><radialGradient id="f1324idq" cx="0" cy="0" r="1" gradientTransform="matrix(-.0957 .08008 -.11939 -.14269 17.371 21.824)" gradientUnits="userSpaceOnUse"><stop stop-color="#806B97"/><stop offset="1" stop-color="#8D78A4" stop-opacity="0"/></radialGradient><linearGradient id="f1324idr" x1="16" x2="16" y1="6.331" y2="34.239" gradientUnits="userSpaceOnUse"><stop stop-color="#636363"/><stop offset="1" stop-color="#1C1C1C"/></linearGradient><linearGradient id="f1324ids" x1="10.918" x2="1.428" y1="23.631" y2="23.672" gradientUnits="userSpaceOnUse"><stop stop-color="#1C1C1C"/><stop offset="1" stop-color="#636363"/></linearGradient><linearGradient id="f1324idt" x1="22.998" x2="28.652" y1="23.648" y2="23.648" gradientUnits="userSpaceOnUse"><stop stop-color="#1C1C1C"/><stop offset="1" stop-color="#636363"/></linearGradient><linearGradient id="f1324idu" x1="11.234" x2="10.593" y1="11.241" y2="11.241" gradientUnits="userSpaceOnUse"><stop stop-color="#BD6A1E"/><stop offset="1" stop-color="#D77A1C"/></linearGradient><linearGradient id="f1324idv" x1="21.844" x2="21.025" y1="9.869" y2="12.408" gradientUnits="userSpaceOnUse"><stop stop-color="#FFE446"/><stop offset="1" stop-color="#FFC339"/></linearGradient><linearGradient id="f1324idw" x1="20.026" x2="12.382" y1="11.352" y2="12.491" gradientUnits="userSpaceOnUse"><stop stop-color="#FFE833"/><stop offset=".916" stop-color="#F9A528"/></linearGradient><linearGradient id="f1324idx" x1="10.586" x2="12.9" y1="14.05" y2="13.748" gradientUnits="userSpaceOnUse"><stop stop-color="#D19C3A"/><stop offset="1" stop-color="#D19C3A" stop-opacity="0"/></linearGradient><linearGradient id="f1324idy" x1="11.121" x2="14.026" y1="10.694" y2="5.535" gradientUnits="userSpaceOnUse"><stop stop-color="#E07027"/><stop offset="1" stop-color="#E07027" stop-opacity="0"/></linearGradient><linearGradient id="f1324idz" x1="15.122" x2="16.061" y1="12.012" y2="12.012" gradientUnits="userSpaceOnUse"><stop stop-color="#FAA416"/><stop offset="1" stop-color="#FAA416" stop-opacity="0"/></linearGradient><linearGradient id="f1324id10" x1="16.926" x2="15.899" y1="12.335" y2="12.32" gradientUnits="userSpaceOnUse"><stop stop-color="#FFE721"/><stop offset="1" stop-color="#FFE721" stop-opacity="0"/></linearGradient><linearGradient id="f1324id11" x1="16.181" x2="16.181" y1="13.078" y2="12.504" gradientUnits="userSpaceOnUse"><stop stop-color="#EB8A1C"/><stop offset="1" stop-color="#EB8A1C" stop-opacity="0"/></linearGradient><linearGradient id="f1324id12" x1="16.112" x2="16.112" y1="13.12" y2="12.952" gradientUnits="userSpaceOnUse"><stop stop-color="#E88613"/><stop offset="1" stop-color="#E88613" stop-opacity="0"/></linearGradient><linearGradient id="f1324id13" x1="18.946" x2="18.632" y1="10.333" y2="10.527" gradientUnits="userSpaceOnUse"><stop stop-color="#B4948D"/><stop offset="1" stop-color="#B4948D" stop-opacity="0"/></linearGradient><linearGradient id="f1324id14" x1="14.545" x2="14.231" y1="10.333" y2="10.527" gradientUnits="userSpaceOnUse"><stop stop-color="#B4948D"/><stop offset="1" stop-color="#B4948D" stop-opacity="0"/></linearGradient><linearGradient id="f1324id15" x1="7.493" x2="11.284" y1="19.382" y2="30.433" gradientUnits="userSpaceOnUse"><stop stop-color="#AB9CBE"/><stop offset="1" stop-color="#847498"/></linearGradient><linearGradient id="f1324id16" x1="16" x2="16" y1="15.648" y2="17.007" gradientUnits="userSpaceOnUse"><stop stop-color="#BEB0B0"/><stop offset=".268" stop-color="#BEB7C7"/><stop offset=".863" stop-color="#BEB7C7" stop-opacity="0"/></linearGradient><linearGradient id="f1324id17" x1="5" x2="6.055" y1="23.882" y2="23.882" gradientUnits="userSpaceOnUse"><stop stop-color="#9F93B2"/><stop offset="1" stop-color="#9F93B2" stop-opacity="0"/></linearGradient><linearGradient id="f1324id18" x1="27" x2="25.524" y1="24.82" y2="24.82" gradientUnits="userSpaceOnUse"><stop offset=".174" stop-color="#BAB9C0"/><stop offset="1" stop-color="#A191B5" stop-opacity="0"/></linearGradient><linearGradient id="f1324id19" x1="17.977" x2="13.911" y1="23.099" y2="23.099" gradientUnits="userSpaceOnUse"><stop offset=".096" stop-color="#56416B"/><stop offset=".13" stop-color="#614C77"/><stop offset=".165" stop-color="#51366C"/><stop offset="1" stop-color="#4F3568"/></linearGradient><linearGradient id="f1324id1a" x1="15.999" x2="15.999" y1="21.641" y2="23.196" gradientUnits="userSpaceOnUse"><stop stop-color="#60407F"/><stop offset="1" stop-color="#543870" stop-opacity="0"/></linearGradient><linearGradient id="f1324id1b" x1="15.999" x2="15.999" y1="21.641" y2="24.557" gradientUnits="userSpaceOnUse"><stop stop-color="#594170"/><stop offset=".037" stop-color="#6D5686"/><stop offset=".058" stop-color="#6F5783"/><stop offset=".097" stop-color="#5F447B" stop-opacity="0"/></linearGradient><linearGradient id="f1324id1c" x1="14.444" x2="15.02" y1="23.122" y2="23.122" gradientUnits="userSpaceOnUse"><stop offset=".086" stop-color="#3B2B50"/><stop offset=".663" stop-color="#52376C" stop-opacity="0"/></linearGradient><linearGradient id="f1324id1d" x1="15.999" x2="15.999" y1="24.842" y2="24.168" gradientUnits="userSpaceOnUse"><stop offset=".507" stop-color="#3D2555"/><stop offset=".736" stop-color="#4A3261" stop-opacity="0"/></linearGradient><filter id="f1324id1e" width="2.992" height="2.992" x="9.738" y="9.466" color-interpolation-filters="sRGB" filterUnits="userSpaceOnUse"><feFlood flood-opacity="0" result="BackgroundImageFix"/><feBlend in="SourceGraphic" in2="BackgroundImageFix" result="shape"/><feGaussianBlur result="effect1_foregroundBlur_3_765" stdDeviation=".25"/></filter><filter id="f1324id1f" width="3.592" height="3.592" x="19.085" y="9.041" color-interpolation-filters="sRGB" filterUnits="userSpaceOnUse"><feFlood flood-opacity="0" result="BackgroundImageFix"/><feBlend in="SourceGraphic" in2="BackgroundImageFix" result="shape"/><feColorMatrix in="SourceAlpha" result="hardAlpha" values="0 0 0 0 0 0 0 0 0 0 0 0 0 0 0 0 0 0 127 0"/><feOffset dx=".25" dy="-.25"/><feGaussianBlur stdDeviation=".25"/><feComposite in2="hardAlpha" k2="-1" k3="1" operator="arithmetic"/><feColorMatrix values="0 0 0 0 0.85098 0 0 0 0 0.560784 0 0 0 0 0.376471 0 0 0 1 0"/><feBlend in2="shape" result="effect1_innerShadow_3_765"/></filter><filter id="f1324id1g" width="2.992" height="2.992" x="19.261" y="9.466" color-interpolation-filters="sRGB" filterUnits="userSpaceOnUse"><feFlood flood-opacity="0" result="BackgroundImageFix"/><feBlend in="SourceGraphic" in2="BackgroundImageFix" result="shape"/><feGaussianBlur result="effect1_foregroundBlur_3_765" stdDeviation=".25"/></filter><filter id="f1324id1h" width="12.614" height="8.301" x="9.68" y="2.103" color-interpolation-filters="sRGB" filterUnits="userSpaceOnUse"><feFlood flood-opacity="0" result="BackgroundImageFix"/><feBlend in="SourceGraphic" in2="BackgroundImageFix" result="shape"/><feColorMatrix in="SourceAlpha" result="hardAlpha" values="0 0 0 0 0 0 0 0 0 0 0 0 0 0 0 0 0 0 127 0"/><feOffset dy="-.25"/><feGaussianBlur stdDeviation=".125"/><feComposite in2="hardAlpha" k2="-1" k3="1" operator="arithmetic"/><feColorMatrix values="0 0 0 0 0.984314 0 0 0 0 0.584314 0 0 0 0 0.129412 0 0 0 1 0"/><feBlend in2="shape" result="effect1_innerShadow_3_765"/><feColorMatrix in="SourceAlpha" result="hardAlpha" values="0 0 0 0 0 0 0 0 0 0 0 0 0 0 0 0 0 0 127 0"/><feOffset dy="-.25"/><feGaussianBlur stdDeviation=".125"/><feComposite in2="hardAlpha" k2="-1" k3="1" operator="arithmetic"/><feColorMatrix values="0 0 0 0 0.972549 0 0 0 0 0.572549 0 0 0 0 0.0156863 0 0 0 1 0"/><feBlend in2="effect1_innerShadow_3_765" result="effect2_innerShadow_3_765"/></filter><filter id="f1324id1i" width="3.262" height="4.184" x="14.117" y="9.807" color-interpolation-filters="sRGB" filterUnits="userSpaceOnUse"><feFlood flood-opacity="0" result="BackgroundImageFix"/><feBlend in="SourceGraphic" in2="BackgroundImageFix" result="shape"/><feGaussianBlur result="effect1_foregroundBlur_3_765" stdDeviation=".375"/></filter><filter id="f1324id1j" width="2.379" height="3.184" x="14.797" y="10.144" color-interpolation-filters="sRGB" filterUnits="userSpaceOnUse"><feFlood flood-opacity="0" result="BackgroundImageFix"/><feBlend in="SourceGraphic" in2="BackgroundImageFix" result="shape"/><feGaussianBlur result="effect1_foregroundBlur_3_765" stdDeviation=".125"/></filter><filter id="f1324id1k" width="3.621" height="1.474" x="14.176" y="13.548" color-interpolation-filters="sRGB" filterUnits="userSpaceOnUse"><feFlood flood-opacity="0" result="BackgroundImageFix"/><feBlend in="SourceGraphic" in2="BackgroundImageFix" result="shape"/><feGaussianBlur result="effect1_foregroundBlur_3_765" stdDeviation=".05"/></filter><filter id="f1324id1l" width=".787" height=".697" x="17.433" y="9.839" color-interpolation-filters="sRGB" filterUnits="userSpaceOnUse"><feFlood flood-opacity="0" result="BackgroundImageFix"/><feBlend in="SourceGraphic" in2="BackgroundImageFix" result="shape"/><feGaussianBlur result="effect1_foregroundBlur_3_765" stdDeviation=".05"/></filter><filter id="f1324id1m" width=".892" height=".914" x="18.274" y="9.915" color-interpolation-filters="sRGB" filterUnits="userSpaceOnUse"><feFlood flood-opacity="0" result="BackgroundImageFix"/><feBlend in="SourceGraphic" in2="BackgroundImageFix" result="shape"/><feGaussianBlur result="effect1_foregroundBlur_3_765" stdDeviation=".1"/></filter><filter id="f1324id1n" width=".987" height="1.041" x="13.828" y="9.851" color-interpolation-filters="sRGB" filterUnits="userSpaceOnUse"><feFlood flood-opacity="0" result="BackgroundImageFix"/><feBlend in="SourceGraphic" in2="BackgroundImageFix" result="shape"/><feGaussianBlur result="effect1_foregroundBlur_3_765" stdDeviation=".1"/></filter><filter id="f1324id1o" width=".914" height=".705" x="13.072" y="9.831" color-interpolation-filters="sRGB" filterUnits="userSpaceOnUse"><feFlood flood-opacity="0" result="BackgroundImageFix"/><feBlend in="SourceGraphic" in2="BackgroundImageFix" result="shape"/><feGaussianBlur result="effect1_foregroundBlur_3_765" stdDeviation=".05"/></filter><filter id="f1324id1p" width="2.604" height="1.648" x="17.251" y="7.549" color-interpolation-filters="sRGB" filterUnits="userSpaceOnUse"><feFlood flood-opacity="0" result="BackgroundImageFix"/><feBlend in="SourceGraphic" in2="BackgroundImageFix" result="shape"/><feColorMatrix in="SourceAlpha" result="hardAlpha" values="0 0 0 0 0 0 0 0 0 0 0 0 0 0 0 0 0 0 127 0"/><feOffset dy="-.25"/><feGaussianBlur stdDeviation=".2"/><feComposite in2="hardAlpha" k2="-1" k3="1" operator="arithmetic"/><feColorMatrix values="0 0 0 0 0.698039 0 0 0 0 0.25098 0 0 0 0 0.313726 0 0 0 1 0"/><feBlend in2="shape" result="effect1_innerShadow_3_765"/></filter><filter id="f1324id1q" width="2.709" height="1.502" x="17.199" y="7.635" color-interpolation-filters="sRGB" filterUnits="userSpaceOnUse"><feFlood flood-opacity="0" result="BackgroundImageFix"/><feBlend in="SourceGraphic" in2="BackgroundImageFix" result="shape"/><feGaussianBlur result="effect1_foregroundBlur_3_765" stdDeviation=".2"/></filter><filter id="f1324id1r" width="2.604" height="1.648" x="12.117" y="7.549" color-interpolation-filters="sRGB" filterUnits="userSpaceOnUse"><feFlood flood-opacity="0" result="BackgroundImageFix"/><feBlend in="SourceGraphic" in2="BackgroundImageFix" result="shape"/><feColorMatrix in="SourceAlpha" result="hardAlpha" values="0 0 0 0 0 0 0 0 0 0 0 0 0 0 0 0 0 0 127 0"/><feOffset dy="-.25"/><feGaussianBlur stdDeviation=".2"/><feComposite in2="hardAlpha" k2="-1" k3="1" operator="arithmetic"/><feColorMatrix values="0 0 0 0 0.698039 0 0 0 0 0.25098 0 0 0 0 0.313726 0 0 0 1 0"/><feBlend in2="shape" result="effect1_innerShadow_3_765"/></filter><filter id="f1324id1s" width="2.709" height="1.502" x="12.065" y="7.635" color-interpolation-filters="sRGB" filterUnits="userSpaceOnUse"><feFlood flood-opacity="0" result="BackgroundImageFix"/><feBlend in="SourceGraphic" in2="BackgroundImageFix" result="shape"/><feGaussianBlur result="effect1_foregroundBlur_3_765" stdDeviation=".2"/></filter><filter id="f1324id1t" width="22" height="14.1" x="5" y="15.648" color-interpolation-filters="sRGB" filterUnits="userSpaceOnUse"><feFlood flood-opacity="0" result="BackgroundImageFix"/><feBlend in="SourceGraphic" in2="BackgroundImageFix" result="shape"/><feColorMatrix in="SourceAlpha" result="hardAlpha" values="0 0 0 0 0 0 0 0 0 0 0 0 0 0 0 0 0 0 127 0"/><feOffset dy=".1"/><feGaussianBlur stdDeviation=".25"/><feComposite in2="hardAlpha" k2="-1" k3="1" operator="arithmetic"/><feColorMatrix values="0 0 0 0 0.678431 0 0 0 0 0.670588 0 0 0 0 0.682353 0 0 0 1 0"/><feBlend in2="shape" result="effect1_innerShadow_3_765"/></filter></defs></g></svg>