<svg xmlns="http://www.w3.org/2000/svg" xmlns:xlink="http://www.w3.org/1999/xlink" width="32" height="32" viewBox="0 0 32 32"><g fill="none"><path fill="url(#f1326idt)" d="M8.329 29.657q.004-.08.004-.163a3.138 3.138 0 1 0-6.271.163z"/><path fill="url(#f1326idu)" d="M8.329 29.657q.004-.08.004-.163a3.138 3.138 0 1 0-6.271.163z"/><path fill="#BD977B" d="M29.938 29.657q.004-.08.004-.163a3.138 3.138 0 1 0-6.27.163z"/><path fill="url(#f1326idv)" d="M29.938 29.657q.004-.08.004-.163a3.138 3.138 0 1 0-6.27.163z"/><path fill="url(#f1326id0)" d="M29.938 29.657q.004-.08.004-.163a3.138 3.138 0 1 0-6.27.163z"/><path fill="url(#f1326id1)" d="M16 15.158c-6.07 0-11 4.92-11 11v3.5h22v-3.5c0-6.08-4.93-11-11-11"/><path fill="url(#f1326id2)" d="M8.98 17.658a10.99 10.99 0 0 0-3.97 8.5l.02 3.5l4-.02z"/><path fill="url(#f1326id3)" d="M23 17.668v11.98h4v-3.5c0-3.41-1.56-6.46-4-8.48"/><g filter="url(#f1326id1i)"><circle cx="11.244" cy="10.943" r="1.669" fill="url(#f1326idw)"/></g><circle cx="11.244" cy="10.943" r="1.669" fill="url(#f1326idx)"/><g filter="url(#f1326id1j)"><circle cx="11.244" cy="10.943" r=".995" fill="url(#f1326id4)"/></g><g filter="url(#f1326id1k)"><circle cx="20.756" cy="10.943" r="1.669" fill="url(#f1326id5)"/><circle cx="20.756" cy="10.943" r="1.669" fill="url(#f1326idy)"/></g><g filter="url(#f1326id1l)"><circle cx="20.756" cy="10.943" r=".995" fill="#A57C70"/><circle cx="20.756" cy="10.943" r=".995" fill="url(#f1326idz)"/><circle cx="20.756" cy="10.943" r=".995" fill="url(#f1326id10)"/></g><g filter="url(#f1326id1m)"><path fill="url(#f1326id6)" d="m10.892 10.33l.049.002s-.054-.853-.107-1.44c0-.266.107-.586.322-.746l.16-.16c.269-.214.376-.534.376-.854V6.28c0-.267.16-.48.429-.533c.644-.16 1.984-.427 3.915-.427s3.272.267 3.916.427c.214.053.429.266.429.533v.853c0 .32.16.64.375.854c.502.351.471.545.43.96c-.054.533-.108 1.44-.108 1.44h.018l-.266 3.957c-.16 1.77-1.551 3.003-3.21 3.003h-3.21c-1.712 0-3.05-1.233-3.21-3.003z"/><path fill="url(#f1326id11)" d="m10.892 10.33l.049.002s-.054-.853-.107-1.44c0-.266.107-.586.322-.746l.16-.16c.269-.214.376-.534.376-.854V6.28c0-.267.16-.48.429-.533c.644-.16 1.984-.427 3.915-.427s3.272.267 3.916.427c.214.053.429.266.429.533v.853c0 .32.16.64.375.854c.502.351.471.545.43.96c-.054.533-.108 1.44-.108 1.44h.018l-.266 3.957c-.16 1.77-1.551 3.003-3.21 3.003h-3.21c-1.712 0-3.05-1.233-3.21-3.003z"/><path fill="url(#f1326id12)" d="m10.892 10.33l.049.002s-.054-.853-.107-1.44c0-.266.107-.586.322-.746l.16-.16c.269-.214.376-.534.376-.854V6.28c0-.267.16-.48.429-.533c.644-.16 1.984-.427 3.915-.427s3.272.267 3.916.427c.214.053.429.266.429.533v.853c0 .32.16.64.375.854c.502.351.471.545.43.96c-.054.533-.108 1.44-.108 1.44h.018l-.266 3.957c-.16 1.77-1.551 3.003-3.21 3.003h-3.21c-1.712 0-3.05-1.233-3.21-3.003z"/></g><path fill="url(#f1326id7)" d="M10.834 8.892c0-.266.107-.586.322-.746l.16-.16c.269-.214.376-.534.376-.854V6.28c0-.267.16-.48.429-.533c.644-.16 1.984-.427 3.915-.427s3.272.267 3.916.427c.214.053.429.266.429.533v.853c0 .32.16.64.375.854c.502.351.471.545.43.96c-.054.533-.108 1.44-.108 1.44h.018l-.266 3.957c-.16 1.77-1.551 3.003-3.21 3.003h-3.21c-1.712 0-3.05-1.233-3.21-3.003c-.14-1.816-.2-3.638-.366-5.45"/><path fill="url(#f1326id8)" d="M10.834 8.892c0-.266.107-.586.322-.746l.16-.16c.269-.214.376-.534.376-.854V6.28c0-.267.16-.48.429-.533c.644-.16 1.984-.427 3.915-.427s3.272.267 3.916.427c.214.053.429.266.429.533v.853c0 .32.16.64.375.854c.502.351.471.545.43.96c-.054.533-.108 1.44-.108 1.44h.018l-.266 3.957c-.16 1.77-1.551 3.003-3.21 3.003h-3.21c-1.712 0-3.05-1.233-3.21-3.003c-.14-1.816-.2-3.638-.366-5.45"/><path fill="url(#f1326id13)" d="M10.834 8.892c0-.266.107-.586.322-.746l.16-.16c.269-.214.376-.534.376-.854V6.28c0-.267.16-.48.429-.533c.644-.16 1.984-.427 3.915-.427s3.272.267 3.916.427c.214.053.429.266.429.533v.853c0 .32.16.64.375.854c.502.351.471.545.43.96c-.054.533-.108 1.44-.108 1.44h.018l-.266 3.957c-.16 1.77-1.551 3.003-3.21 3.003h-3.21c-1.712 0-3.05-1.233-3.21-3.003c-.14-1.816-.2-3.638-.366-5.45"/><g filter="url(#f1326id1n)"><path fill="url(#f1326id9)" d="m19.954 5.32l-3.077 1.025a1.047 1.047 0 0 0 .47 2.031l3.06-.41z"/></g><g filter="url(#f1326id1o)"><path fill="#4F3332" d="m20.81 4.466l.429.213c.75.373 1.18 1.227 1.019 2.133l-.59 3.04c-.053.314-.26.525-.572.533h-.018s.053-.906.107-1.44c.044-.433-.032-.565-.429-.96a1.25 1.25 0 0 1-.375-.853V6.28c0-.267-.215-.48-.43-.533c-.643-.16-1.984-.427-3.915-.427c-1.93 0-3.272.267-3.915.427a.52.52 0 0 0-.43.533v.853c0 .32-.107.64-.375.854l-.16.16c-.215.16-.322.48-.322.746c.053.587.107 1.44.107 1.44l-.05-.002a.63.63 0 0 1-.594-.531l-.59-3.04c-.107-.853.322-1.707 1.073-2.08l.429-.213a8 8 0 0 0 .805-.587l.965-1.013c.59-.533 1.448-.693 2.199-.32a2.94 2.94 0 0 0 1.663 0c.804-.267 1.716-.053 2.36.533l.804.8c.215.267.483.427.805.587"/><path fill="url(#f1326id14)" d="m20.81 4.466l.429.213c.75.373 1.18 1.227 1.019 2.133l-.59 3.04c-.053.314-.26.525-.572.533h-.018s.053-.906.107-1.44c.044-.433-.032-.565-.429-.96a1.25 1.25 0 0 1-.375-.853V6.28c0-.267-.215-.48-.43-.533c-.643-.16-1.984-.427-3.915-.427c-1.93 0-3.272.267-3.915.427a.52.52 0 0 0-.43.533v.853c0 .32-.107.64-.375.854l-.16.16c-.215.16-.322.48-.322.746c.053.587.107 1.44.107 1.44l-.05-.002a.63.63 0 0 1-.594-.531l-.59-3.04c-.107-.853.322-1.707 1.073-2.08l.429-.213a8 8 0 0 0 .805-.587l.965-1.013c.59-.533 1.448-.693 2.199-.32a2.94 2.94 0 0 0 1.663 0c.804-.267 1.716-.053 2.36.533l.804.8c.215.267.483.427.805.587"/><path fill="url(#f1326id15)" d="m20.81 4.466l.429.213c.75.373 1.18 1.227 1.019 2.133l-.59 3.04c-.053.314-.26.525-.572.533h-.018s.053-.906.107-1.44c.044-.433-.032-.565-.429-.96a1.25 1.25 0 0 1-.375-.853V6.28c0-.267-.215-.48-.43-.533c-.643-.16-1.984-.427-3.915-.427c-1.93 0-3.272.267-3.915.427a.52.52 0 0 0-.43.533v.853c0 .32-.107.64-.375.854l-.16.16c-.215.16-.322.48-.322.746c.053.587.107 1.44.107 1.44l-.05-.002a.63.63 0 0 1-.594-.531l-.59-3.04c-.107-.853.322-1.707 1.073-2.08l.429-.213a8 8 0 0 0 .805-.587l.965-1.013c.59-.533 1.448-.693 2.199-.32a2.94 2.94 0 0 0 1.663 0c.804-.267 1.716-.053 2.36.533l.804.8c.215.267.483.427.805.587"/><path fill="url(#f1326id16)" d="m20.81 4.466l.429.213c.75.373 1.18 1.227 1.019 2.133l-.59 3.04c-.053.314-.26.525-.572.533h-.018s.053-.906.107-1.44c.044-.433-.032-.565-.429-.96a1.25 1.25 0 0 1-.375-.853V6.28c0-.267-.215-.48-.43-.533c-.643-.16-1.984-.427-3.915-.427c-1.93 0-3.272.267-3.915.427a.52.52 0 0 0-.43.533v.853c0 .32-.107.64-.375.854l-.16.16c-.215.16-.322.48-.322.746c.053.587.107 1.44.107 1.44l-.05-.002a.63.63 0 0 1-.594-.531l-.59-3.04c-.107-.853.322-1.707 1.073-2.08l.429-.213a8 8 0 0 0 .805-.587l.965-1.013c.59-.533 1.448-.693 2.199-.32a2.94 2.94 0 0 0 1.663 0c.804-.267 1.716-.053 2.36.533l.804.8c.215.267.483.427.805.587"/><path fill="url(#f1326id17)" d="m20.81 4.466l.429.213c.75.373 1.18 1.227 1.019 2.133l-.59 3.04c-.053.314-.26.525-.572.533h-.018s.053-.906.107-1.44c.044-.433-.032-.565-.429-.96a1.25 1.25 0 0 1-.375-.853V6.28c0-.267-.215-.48-.43-.533c-.643-.16-1.984-.427-3.915-.427c-1.93 0-3.272.267-3.915.427a.52.52 0 0 0-.43.533v.853c0 .32-.107.64-.375.854l-.16.16c-.215.16-.322.48-.322.746c.053.587.107 1.44.107 1.44l-.05-.002a.63.63 0 0 1-.594-.531l-.59-3.04c-.107-.853.322-1.707 1.073-2.08l.429-.213a8 8 0 0 0 .805-.587l.965-1.013c.59-.533 1.448-.693 2.199-.32a2.94 2.94 0 0 0 1.663 0c.804-.267 1.716-.053 2.36.533l.804.8c.215.267.483.427.805.587"/></g><g filter="url(#f1326id1p)"><path fill="#87565C" d="m15.716 10.82l-.82 1.7c-.102.35.142.7.488.7h.737c.346 0 .59-.355.488-.7l-.498-1.7c-.107-.376-.283-.376-.395 0"/></g><g filter="url(#f1326id1q)"><path fill="#B7877D" d="m15.61 10.658l-.532 1.7a.54.54 0 0 0 .52.698h.786a.54.54 0 0 0 .52-.699l-.53-1.7c-.114-.376-.646-.376-.765 0"/><path fill="url(#f1326ida)" d="m15.61 10.658l-.532 1.7a.54.54 0 0 0 .52.698h.786a.54.54 0 0 0 .52-.699l-.53-1.7c-.114-.376-.646-.376-.765 0"/><path fill="url(#f1326idb)" d="m15.61 10.658l-.532 1.7a.54.54 0 0 0 .52.698h.786a.54.54 0 0 0 .52-.699l-.53-1.7c-.114-.376-.646-.376-.765 0"/><path fill="url(#f1326idc)" d="m15.61 10.658l-.532 1.7a.54.54 0 0 0 .52.698h.786a.54.54 0 0 0 .52-.699l-.53-1.7c-.114-.376-.646-.376-.765 0"/><path fill="url(#f1326id18)" d="m15.61 10.658l-.532 1.7a.54.54 0 0 0 .52.698h.786a.54.54 0 0 0 .52-.699l-.53-1.7c-.114-.376-.646-.376-.765 0"/></g><path fill="url(#f1326idd)" d="m15.61 10.658l-.532 1.7a.54.54 0 0 0 .52.698h.786a.54.54 0 0 0 .52-.699l-.53-1.7c-.114-.376-.646-.376-.765 0"/><path fill="#88024E" stroke="url(#f1326ide)" stroke-width=".1" d="M14.63 13.7c.393.205.862.323 1.361.323c.505 0 .969-.118 1.362-.323a.2.2 0 0 1 .242.04c.058.06.079.155.02.241m-2.985-.28l2.944.252M14.63 13.7a.2.2 0 0 0-.242.042a.19.19 0 0 0-.02.24m.262-.282l-.22.254m3.207.027l-.042-.027m.042.027l-.042-.027m.042.027a1.94 1.94 0 0 1-1.625.868c-.681 0-1.28-.347-1.624-.867m3.207-.028a1.9 1.9 0 0 1-1.583.845a1.9 1.9 0 0 1-1.582-.845m-.042.027v.001l.041-.028m-.04.027h-.001l.041-.027"/><g filter="url(#f1326id1r)"><path fill="#4C3230" d="m19.71 8.223l-.003-.002l-.004-.004l-.012-.01a1.4 1.4 0 0 0-.155-.107c-.1-.062-.24-.14-.42-.21a2.83 2.83 0 0 0-1.492-.159a.534.534 0 0 0 .166 1.054c.398-.062.717.011.934.097a1.5 1.5 0 0 1 .308.165a.534.534 0 0 0 .678-.824"/><path fill="url(#f1326id19)" d="m19.71 8.223l-.003-.002l-.004-.004l-.012-.01a1.4 1.4 0 0 0-.155-.107c-.1-.062-.24-.14-.42-.21a2.83 2.83 0 0 0-1.492-.159a.534.534 0 0 0 .166 1.054c.398-.062.717.011.934.097a1.5 1.5 0 0 1 .308.165a.534.534 0 0 0 .678-.824"/></g><g filter="url(#f1326id1s)"><path fill="#4C3230" d="m12.218 8.224l.002-.002l.001-.001l.005-.004l.012-.01a1.4 1.4 0 0 1 .155-.107c.1-.062.24-.14.42-.21a2.83 2.83 0 0 1 1.492-.159a.534.534 0 1 1-.166 1.054a1.77 1.77 0 0 0-.934.097a1.5 1.5 0 0 0-.308.165a.534.534 0 0 1-.68-.823"/><path fill="url(#f1326id1a)" d="m12.218 8.224l.002-.002l.001-.001l.005-.004l.012-.01a1.4 1.4 0 0 1 .155-.107c.1-.062.24-.14.42-.21a2.83 2.83 0 0 1 1.492-.159a.534.534 0 1 1-.166 1.054a1.77 1.77 0 0 0-.934.097a1.5 1.5 0 0 0-.308.165a.534.534 0 0 1-.68-.823"/></g><path fill="#fff" d="M18.379 9.513c.653 0 1.204.45 1.354 1.058a.274.274 0 0 1-.267.34h-2.23a.23.23 0 0 1-.228-.27a1.4 1.4 0 0 1 1.371-1.128"/><path fill="url(#f1326id1b)" d="M18.172 9.784a.892.892 0 0 1 .86 1.128h-1.724a.896.896 0 0 1 .864-1.127"/><path fill="#000" d="M17.661 10.677c0-.284.227-.511.511-.511a.51.51 0 0 1 .454.746h-.904a.46.46 0 0 1-.06-.236"/><g filter="url(#f1326id1t)"><path fill="#C7A7A3" d="M18.107 9.973c.063.085-.07.189-.22.301c-.152.114-.264.193-.328.108c-.063-.085.008-.245.159-.358c.15-.113.325-.136.389-.051"/><path fill="url(#f1326id1c)" d="M18.107 9.973c.063.085-.07.189-.22.301c-.152.114-.264.193-.328.108c-.063-.085.008-.245.159-.358c.15-.113.325-.136.389-.051"/></g><g filter="url(#f1326id1u)"><path fill="url(#f1326idf)" d="M18.967 10.559a.84.84 0 0 0-.232-.463l-.26.286l.118.228z"/></g><path fill="#fff" d="M13.599 9.513c-.653 0-1.205.45-1.355 1.058c-.045.175.09.34.268.34h2.23a.23.23 0 0 0 .227-.27a1.4 1.4 0 0 0-1.37-1.128"/><path fill="url(#f1326id1d)" d="M13.805 9.784a.892.892 0 0 0-.86 1.128h1.724a1 1 0 0 0 .033-.236a.9.9 0 0 0-.897-.892"/><path fill="#000" d="M14.316 10.677a.51.51 0 0 0-.51-.511a.51.51 0 0 0-.455.746h.905a.5.5 0 0 0 .06-.236"/><g filter="url(#f1326id1v)"><path fill="url(#f1326idg)" d="M14.62 10.572c0-.289-.234-.481-.297-.539l-.289.279l.178.361z"/></g><g filter="url(#f1326id1w)"><ellipse cx="13.536" cy="10.165" fill="#C7A7A3" fill-opacity=".9" rx=".389" ry=".197" transform="rotate(-27.914 13.536 10.165)"/><ellipse cx="13.536" cy="10.165" fill="url(#f1326id1e)" rx=".389" ry=".197" transform="rotate(-27.914 13.536 10.165)"/></g><g filter="url(#f1326id1x)"><path stroke="url(#f1326idh)" stroke-linecap="round" stroke-width=".25" d="M17.652 8.079c.43-.075 1.268-.054 1.85.398"/></g><g filter="url(#f1326id1y)"><path stroke="url(#f1326idi)" stroke-linecap="round" stroke-width=".25" d="M12.433 8.597c.327-.289 1.041-.593 1.927-.452"/></g><g filter="url(#f1326id1z)"><path stroke="url(#f1326idj)" stroke-linecap="round" stroke-width=".25" d="M11.459 6.132v.898c-.008.148-.07.48-.258.622"/></g><g filter="url(#f1326id20)"><path fill="url(#f1326idk)" d="M26.03 15.658H5.97a.97.97 0 0 0-.97.97v13.03h22v-13.03a.97.97 0 0 0-.97-.97"/><path fill="url(#f1326id1f)" d="M26.03 15.658H5.97a.97.97 0 0 0-.97.97v13.03h22v-13.03a.97.97 0 0 0-.97-.97"/><path fill="url(#f1326idl)" d="M26.03 15.658H5.97a.97.97 0 0 0-.97.97v13.03h22v-13.03a.97.97 0 0 0-.97-.97"/><path fill="url(#f1326idm)" d="M26.03 15.658H5.97a.97.97 0 0 0-.97.97v13.03h22v-13.03a.97.97 0 0 0-.97-.97"/><path fill="url(#f1326idn)" d="M26.03 15.658H5.97a.97.97 0 0 0-.97.97v13.03h22v-13.03a.97.97 0 0 0-.97-.97"/><path fill="url(#f1326id1g)" d="M26.03 15.658H5.97a.97.97 0 0 0-.97.97v13.03h22v-13.03a.97.97 0 0 0-.97-.97"/></g><path fill="url(#f1326ido)" d="M14.444 21.89a.25.25 0 0 1 .25-.25h2.61a.25.25 0 0 1 .25.25v2.417a.25.25 0 0 1-.25.25h-2.61a.25.25 0 0 1-.25-.25z"/><path fill="url(#f1326idp)" d="M14.444 21.89a.25.25 0 0 1 .25-.25h2.61a.25.25 0 0 1 .25.25v2.417a.25.25 0 0 1-.25.25h-2.61a.25.25 0 0 1-.25-.25z"/><path fill="url(#f1326idq)" d="M14.444 21.89a.25.25 0 0 1 .25-.25h2.61a.25.25 0 0 1 .25.25v2.417a.25.25 0 0 1-.25.25h-2.61a.25.25 0 0 1-.25-.25z"/><path fill="url(#f1326idr)" d="M14.444 21.89a.25.25 0 0 1 .25-.25h2.61a.25.25 0 0 1 .25.25v2.417a.25.25 0 0 1-.25.25h-2.61a.25.25 0 0 1-.25-.25z"/><path fill="url(#f1326ids)" d="M14.444 21.89a.25.25 0 0 1 .25-.25h2.61a.25.25 0 0 1 .25.25v2.417a.25.25 0 0 1-.25.25h-2.61a.25.25 0 0 1-.25-.25z"/><path fill="url(#f1326id1h)" fill-opacity=".6" d="M14.444 21.89a.25.25 0 0 1 .25-.25h2.61a.25.25 0 0 1 .25.25v2.417a.25.25 0 0 1-.25.25h-2.61a.25.25 0 0 1-.25-.25z"/><defs><linearGradient id="f1326id0" x1="26.966" x2="27.302" y1="28.476" y2="28.476" gradientUnits="userSpaceOnUse"><stop stop-color="#B38F78"/><stop offset="1" stop-color="#B38F78" stop-opacity="0"/></linearGradient><linearGradient id="f1326id1" x1="16" x2="16" y1="6.341" y2="34.249" gradientUnits="userSpaceOnUse"><stop stop-color="#636363"/><stop offset="1" stop-color="#1C1C1C"/></linearGradient><linearGradient id="f1326id2" x1="10.918" x2="1.428" y1="23.641" y2="23.682" gradientUnits="userSpaceOnUse"><stop stop-color="#1C1C1C"/><stop offset="1" stop-color="#636363"/></linearGradient><linearGradient id="f1326id3" x1="22.998" x2="28.652" y1="23.658" y2="23.658" gradientUnits="userSpaceOnUse"><stop stop-color="#1C1C1C"/><stop offset="1" stop-color="#636363"/></linearGradient><linearGradient id="f1326id4" x1="11.244" x2="10.603" y1="11.222" y2="11.222" gradientUnits="userSpaceOnUse"><stop stop-color="#694448"/><stop offset="1" stop-color="#6E464D"/></linearGradient><linearGradient id="f1326id5" x1="21.843" x2="21.024" y1="9.852" y2="12.388" gradientUnits="userSpaceOnUse"><stop stop-color="#CCA68C"/><stop offset="1" stop-color="#AE7F75"/></linearGradient><linearGradient id="f1326id6" x1="20.027" x2="12.391" y1="11.332" y2="12.47" gradientUnits="userSpaceOnUse"><stop stop-color="#C69980"/><stop offset="1" stop-color="#916762"/></linearGradient><linearGradient id="f1326id7" x1="10.596" x2="12.477" y1="14.028" y2="13.961" gradientUnits="userSpaceOnUse"><stop stop-color="#9B7569"/><stop offset="1" stop-color="#9B7569" stop-opacity="0"/></linearGradient><linearGradient id="f1326id8" x1="20.912" x2="19.8" y1="13.187" y2="13.09" gradientUnits="userSpaceOnUse"><stop stop-color="#C1987F"/><stop offset="1" stop-color="#C1987F" stop-opacity="0"/></linearGradient><linearGradient id="f1326id9" x1="15.46" x2="23.603" y1="8.348" y2="5.432" gradientUnits="userSpaceOnUse"><stop stop-color="#C89F8B"/><stop offset="1" stop-color="#C89F8B" stop-opacity="0"/></linearGradient><linearGradient id="f1326ida" x1="15.127" x2="16.065" y1="11.992" y2="11.992" gradientUnits="userSpaceOnUse"><stop stop-color="#8B6455"/><stop offset="1" stop-color="#8B6455" stop-opacity="0"/></linearGradient><linearGradient id="f1326idb" x1="16.93" x2="15.904" y1="12.314" y2="12.3" gradientUnits="userSpaceOnUse"><stop stop-color="#CDA186"/><stop offset="1" stop-color="#CDA186" stop-opacity="0"/></linearGradient><linearGradient id="f1326idc" x1="16.186" x2="16.186" y1="13.056" y2="12.483" gradientUnits="userSpaceOnUse"><stop stop-color="#9C6073"/><stop offset="1" stop-color="#9C6073" stop-opacity="0"/></linearGradient><linearGradient id="f1326idd" x1="16.117" x2="16.117" y1="13.098" y2="12.931" gradientUnits="userSpaceOnUse"><stop stop-color="#8E5263"/><stop offset="1" stop-color="#8E5263" stop-opacity="0"/></linearGradient><linearGradient id="f1326ide" x1="14.954" x2="15.389" y1="14.671" y2="13.984" gradientUnits="userSpaceOnUse"><stop stop-color="#A87D7B"/><stop offset=".663" stop-color="#A87D7B" stop-opacity="0"/></linearGradient><linearGradient id="f1326idf" x1="18.948" x2="18.634" y1="10.315" y2="10.508" gradientUnits="userSpaceOnUse"><stop stop-color="#B4948D"/><stop offset="1" stop-color="#B4948D" stop-opacity="0"/></linearGradient><linearGradient id="f1326idg" x1="14.551" x2="14.237" y1="10.315" y2="10.508" gradientUnits="userSpaceOnUse"><stop stop-color="#B4948D"/><stop offset="1" stop-color="#B4948D" stop-opacity="0"/></linearGradient><linearGradient id="f1326idh" x1="18.963" x2="18.543" y1="8.176" y2="7.317" gradientUnits="userSpaceOnUse"><stop stop-color="#5B4545"/><stop offset="1" stop-color="#5B4545" stop-opacity="0"/></linearGradient><linearGradient id="f1326idi" x1="13.659" x2="12.47" y1="8.048" y2="7.549" gradientUnits="userSpaceOnUse"><stop stop-color="#5B4545"/><stop offset="1" stop-color="#5B4545" stop-opacity="0"/></linearGradient><linearGradient id="f1326idj" x1="11.33" x2="11.33" y1="6.034" y2="8.19" gradientUnits="userSpaceOnUse"><stop offset=".228" stop-color="#4A3236"/><stop offset="1" stop-color="#4A3236" stop-opacity="0"/></linearGradient><linearGradient id="f1326idk" x1="7.493" x2="11.284" y1="19.392" y2="30.443" gradientUnits="userSpaceOnUse"><stop stop-color="#AB9CBE"/><stop offset="1" stop-color="#847498"/></linearGradient><linearGradient id="f1326idl" x1="16" x2="16" y1="15.658" y2="17.017" gradientUnits="userSpaceOnUse"><stop stop-color="#BEB0B0"/><stop offset=".268" stop-color="#BEB7C7"/><stop offset=".863" stop-color="#BEB7C7" stop-opacity="0"/></linearGradient><linearGradient id="f1326idm" x1="5" x2="6.055" y1="23.892" y2="23.892" gradientUnits="userSpaceOnUse"><stop stop-color="#9F93B2"/><stop offset="1" stop-color="#9F93B2" stop-opacity="0"/></linearGradient><linearGradient id="f1326idn" x1="27" x2="25.524" y1="24.83" y2="24.83" gradientUnits="userSpaceOnUse"><stop offset=".174" stop-color="#BAB9C0"/><stop offset="1" stop-color="#A191B5" stop-opacity="0"/></linearGradient><linearGradient id="f1326ido" x1="17.977" x2="13.911" y1="23.099" y2="23.099" gradientUnits="userSpaceOnUse"><stop offset=".096" stop-color="#56416B"/><stop offset=".13" stop-color="#614C77"/><stop offset=".165" stop-color="#51366C"/><stop offset="1" stop-color="#4F3568"/></linearGradient><linearGradient id="f1326idp" x1="15.999" x2="15.999" y1="21.641" y2="23.196" gradientUnits="userSpaceOnUse"><stop stop-color="#60407F"/><stop offset="1" stop-color="#543870" stop-opacity="0"/></linearGradient><linearGradient id="f1326idq" x1="15.999" x2="15.999" y1="21.641" y2="24.557" gradientUnits="userSpaceOnUse"><stop stop-color="#594170"/><stop offset=".037" stop-color="#6D5686"/><stop offset=".058" stop-color="#6F5783"/><stop offset=".097" stop-color="#5F447B" stop-opacity="0"/></linearGradient><linearGradient id="f1326idr" x1="14.444" x2="15.02" y1="23.122" y2="23.122" gradientUnits="userSpaceOnUse"><stop offset=".086" stop-color="#3B2B50"/><stop offset=".663" stop-color="#52376C" stop-opacity="0"/></linearGradient><linearGradient id="f1326ids" x1="15.999" x2="15.999" y1="24.842" y2="24.168" gradientUnits="userSpaceOnUse"><stop offset=".507" stop-color="#3D2555"/><stop offset=".736" stop-color="#4A3261" stop-opacity="0"/></linearGradient><radialGradient id="f1326idt" cx="0" cy="0" r="1" gradientTransform="matrix(2.80768 -1.35912 1.47617 3.04948 2.748 29.657)" gradientUnits="userSpaceOnUse"><stop offset=".406" stop-color="#B28A78"/><stop offset="1" stop-color="#8A6959"/></radialGradient><radialGradient id="f1326idu" cx="0" cy="0" r="1" gradientTransform="rotate(177.157 2.336 14.813)scale(3.35044 4.79049)" gradientUnits="userSpaceOnUse"><stop offset=".764" stop-color="#BA907D" stop-opacity="0"/><stop offset=".927" stop-color="#BA907D"/></radialGradient><radialGradient id="f1326idv" cx="0" cy="0" r="1" gradientTransform="matrix(5.64062 -3.71875 1.03844 1.57511 27.091 29.757)" gradientUnits="userSpaceOnUse"><stop offset=".127" stop-color="#CCA28F"/><stop offset="1" stop-color="#CCA28F" stop-opacity="0"/></radialGradient><radialGradient id="f1326idw" cx="0" cy="0" r="1" gradientTransform="matrix(1.75472 0 0 3.07077 9.574 10.943)" gradientUnits="userSpaceOnUse"><stop offset=".351" stop-color="#865D5F"/><stop offset="1" stop-color="#76594A"/></radialGradient><radialGradient id="f1326idx" cx="0" cy="0" r="1" gradientTransform="rotate(-124.98 8.906 3.378)scale(1.6566)" gradientUnits="userSpaceOnUse"><stop offset=".34" stop-color="#834E63"/><stop offset="1" stop-color="#834E63" stop-opacity="0"/></radialGradient><radialGradient id="f1326idy" cx="0" cy="0" r="1" gradientTransform="matrix(.82663 -.60192 .68701 .9435 21.128 10.678)" gradientUnits="userSpaceOnUse"><stop offset=".543" stop-color="#8F6459"/><stop offset="1" stop-color="#8F6459" stop-opacity="0"/></radialGradient><radialGradient id="f1326idz" cx="0" cy="0" r="1" gradientTransform="matrix(.8212 -1.5104 .88405 .48065 20.715 11.764)" gradientUnits="userSpaceOnUse"><stop offset=".755" stop-color="#8A5D55" stop-opacity="0"/><stop offset=".916" stop-color="#8A5D55"/></radialGradient><radialGradient id="f1326id10" cx="0" cy="0" r="1" gradientTransform="rotate(44.707 -2.927 30.709)scale(.3648 .47028)" gradientUnits="userSpaceOnUse"><stop stop-color="#895F52"/><stop offset="1" stop-color="#895F52" stop-opacity="0"/></radialGradient><radialGradient id="f1326id11" cx="0" cy="0" r="1" gradientTransform="matrix(0 -1.30697 1.60858 0 18.338 9.672)" gradientUnits="userSpaceOnUse"><stop stop-color="#AB7773"/><stop offset="1" stop-color="#AB7773" stop-opacity="0"/></radialGradient><radialGradient id="f1326id12" cx="0" cy="0" r="1" gradientTransform="matrix(0 -1.37399 1.70868 0 13.78 9.806)" gradientUnits="userSpaceOnUse"><stop stop-color="#8F5D65"/><stop offset="1" stop-color="#8F5D65" stop-opacity="0"/></radialGradient><radialGradient id="f1326id13" cx="0" cy="0" r="1" gradientTransform="matrix(-1.00592 8.83292 -10.94784 -1.24677 16.868 8.904)" gradientUnits="userSpaceOnUse"><stop offset=".608" stop-color="#9B7168" stop-opacity="0"/><stop offset=".884" stop-color="#8F5D78"/><stop offset="1" stop-color="#7C5267"/></radialGradient><radialGradient id="f1326id14" cx="0" cy="0" r="1" gradientTransform="rotate(-74.899 14.631 -9.857)scale(3.06211 1.13553)" gradientUnits="userSpaceOnUse"><stop stop-color="#554042"/><stop offset="1" stop-color="#554042" stop-opacity="0"/></radialGradient><radialGradient id="f1326id15" cx="0" cy="0" r="1" gradientTransform="rotate(5.258 -45.944 206.104)scale(3.84067 2.0651)" gradientUnits="userSpaceOnUse"><stop offset=".392" stop-color="#644949"/><stop offset="1" stop-color="#644949" stop-opacity="0"/></radialGradient><radialGradient id="f1326id16" cx="0" cy="0" r="1" gradientTransform="matrix(0 1.67903 -2.60035 0 15.991 2.343)" gradientUnits="userSpaceOnUse"><stop stop-color="#624C49"/><stop offset="1" stop-color="#624C49" stop-opacity="0"/></radialGradient><radialGradient id="f1326id17" cx="0" cy="0" r="1" gradientTransform="matrix(3.07368 -2.25248 3.5289 4.81545 9.543 9.16)" gradientUnits="userSpaceOnUse"><stop stop-color="#4E3C3A"/><stop offset="1" stop-color="#4E3C3A" stop-opacity="0"/></radialGradient><radialGradient id="f1326id18" cx="0" cy="0" r="1" gradientTransform="matrix(0 .19688 -.63254 0 16.319 12.55)" gradientUnits="userSpaceOnUse"><stop stop-color="#C39787"/><stop offset="1" stop-color="#C39787" stop-opacity="0"/></radialGradient><radialGradient id="f1326id19" cx="0" cy="0" r="1" gradientTransform="matrix(.10418 -.60322 1.78457 .30822 18.434 8.86)" gradientUnits="userSpaceOnUse"><stop stop-color="#422235"/><stop offset="1" stop-color="#422235" stop-opacity="0"/></radialGradient><radialGradient id="f1326id1a" cx="0" cy="0" r="1" gradientTransform="rotate(-80.2 11.904 -3.46)scale(.61215 1.81109)" gradientUnits="userSpaceOnUse"><stop stop-color="#422235"/><stop offset="1" stop-color="#422235" stop-opacity="0"/></radialGradient><radialGradient id="f1326id1b" cx="0" cy="0" r="1" gradientTransform="matrix(0 .81106 -1.29009 0 18.17 10.261)" gradientUnits="userSpaceOnUse"><stop offset=".802" stop-color="#7D574A"/><stop offset="1" stop-color="#694B43"/><stop offset="1" stop-color="#804D49"/><stop offset="1" stop-color="#664944"/></radialGradient><radialGradient id="f1326id1c" cx="0" cy="0" r="1" gradientTransform="matrix(-.23184 -.29876 .41132 -.3192 17.942 10.345)" gradientUnits="userSpaceOnUse"><stop offset=".766" stop-color="#FFE6E2" stop-opacity="0"/><stop offset=".966" stop-color="#FFE6E2"/></radialGradient><radialGradient id="f1326id1d" cx="0" cy="0" r="1" gradientTransform="matrix(0 .8111 -1.29015 0 13.807 10.261)" gradientUnits="userSpaceOnUse"><stop offset=".802" stop-color="#7D574A"/><stop offset="1" stop-color="#694B43"/><stop offset="1" stop-color="#804D49"/><stop offset="1" stop-color="#664944"/></radialGradient><radialGradient id="f1326id1e" cx="0" cy="0" r="1" gradientTransform="rotate(-90.897 11.92 -1.415)scale(.49399 .59379)" gradientUnits="userSpaceOnUse"><stop offset=".766" stop-color="#FFE6E2" stop-opacity="0"/><stop offset=".966" stop-color="#FFE6E2"/></radialGradient><radialGradient id="f1326id1f" cx="0" cy="0" r="1" gradientTransform="matrix(0 -7.59705 13.2772 0 17.243 30.705)" gradientUnits="userSpaceOnUse"><stop offset=".027" stop-color="#78698C"/><stop offset="1" stop-color="#7A6B8E" stop-opacity="0"/></radialGradient><radialGradient id="f1326id1g" cx="0" cy="0" r="1" gradientTransform="matrix(-.78125 .4375 -.4057 -.72446 26.696 16.298)" gradientUnits="userSpaceOnUse"><stop stop-color="#E5DFF1"/><stop offset=".724" stop-color="#E5DFF1" stop-opacity="0"/></radialGradient><radialGradient id="f1326id1h" cx="0" cy="0" r="1" gradientTransform="matrix(-.0957 .08008 -.11939 -.14269 17.371 21.824)" gradientUnits="userSpaceOnUse"><stop stop-color="#806B97"/><stop offset="1" stop-color="#8D78A4" stop-opacity="0"/></radialGradient><filter id="f1326id1i" width="3.539" height="3.339" x="9.574" y="9.274" color-interpolation-filters="sRGB" filterUnits="userSpaceOnUse"><feFlood flood-opacity="0" result="BackgroundImageFix"/><feBlend in="SourceGraphic" in2="BackgroundImageFix" result="shape"/><feColorMatrix in="SourceAlpha" result="hardAlpha" values="0 0 0 0 0 0 0 0 0 0 0 0 0 0 0 0 0 0 127 0"/><feOffset dx=".2"/><feGaussianBlur stdDeviation=".15"/><feComposite in2="hardAlpha" k2="-1" k3="1" operator="arithmetic"/><feColorMatrix values="0 0 0 0 0.619608 0 0 0 0 0.470588 0 0 0 0 0.407843 0 0 0 1 0"/><feBlend in2="shape" result="effect1_innerShadow_3_1106"/></filter><filter id="f1326id1j" width="2.99" height="2.99" x="9.749" y="9.448" color-interpolation-filters="sRGB" filterUnits="userSpaceOnUse"><feFlood flood-opacity="0" result="BackgroundImageFix"/><feBlend in="SourceGraphic" in2="BackgroundImageFix" result="shape"/><feGaussianBlur result="effect1_foregroundBlur_3_1106" stdDeviation=".25"/></filter><filter id="f1326id1k" width="3.589" height="3.589" x="19.087" y="9.024" color-interpolation-filters="sRGB" filterUnits="userSpaceOnUse"><feFlood flood-opacity="0" result="BackgroundImageFix"/><feBlend in="SourceGraphic" in2="BackgroundImageFix" result="shape"/><feColorMatrix in="SourceAlpha" result="hardAlpha" values="0 0 0 0 0 0 0 0 0 0 0 0 0 0 0 0 0 0 127 0"/><feOffset dx=".25" dy="-.25"/><feGaussianBlur stdDeviation=".25"/><feComposite in2="hardAlpha" k2="-1" k3="1" operator="arithmetic"/><feColorMatrix values="0 0 0 0 0.584314 0 0 0 0 0.368627 0 0 0 0 0.470588 0 0 0 1 0"/><feBlend in2="shape" result="effect1_innerShadow_3_1106"/></filter><filter id="f1326id1l" width="2.99" height="2.99" x="19.262" y="9.448" color-interpolation-filters="sRGB" filterUnits="userSpaceOnUse"><feFlood flood-opacity="0" result="BackgroundImageFix"/><feBlend in="SourceGraphic" in2="BackgroundImageFix" result="shape"/><feGaussianBlur result="effect1_foregroundBlur_3_1106" stdDeviation=".25"/></filter><filter id="f1326id1m" width="10.373" height="12.177" x="10.834" y="5.319" color-interpolation-filters="sRGB" filterUnits="userSpaceOnUse"><feFlood flood-opacity="0" result="BackgroundImageFix"/><feBlend in="SourceGraphic" in2="BackgroundImageFix" result="shape"/><feColorMatrix in="SourceAlpha" result="hardAlpha" values="0 0 0 0 0 0 0 0 0 0 0 0 0 0 0 0 0 0 127 0"/><feOffset dy=".15"/><feGaussianBlur stdDeviation=".125"/><feComposite in2="hardAlpha" k2="-1" k3="1" operator="arithmetic"/><feColorMatrix values="0 0 0 0 0.305882 0 0 0 0 0.2 0 0 0 0 0.172549 0 0 0 1 0"/><feBlend in2="shape" result="effect1_innerShadow_3_1106"/></filter><filter id="f1326id1n" width="8.246" height="7.066" x="14.161" y="3.319" color-interpolation-filters="sRGB" filterUnits="userSpaceOnUse"><feFlood flood-opacity="0" result="BackgroundImageFix"/><feBlend in="SourceGraphic" in2="BackgroundImageFix" result="shape"/><feGaussianBlur result="effect1_foregroundBlur_3_1106" stdDeviation="1"/></filter><filter id="f1326id1o" width="12.601" height="8.543" x="9.691" y="1.843" color-interpolation-filters="sRGB" filterUnits="userSpaceOnUse"><feFlood flood-opacity="0" result="BackgroundImageFix"/><feBlend in="SourceGraphic" in2="BackgroundImageFix" result="shape"/><feColorMatrix in="SourceAlpha" result="hardAlpha" values="0 0 0 0 0 0 0 0 0 0 0 0 0 0 0 0 0 0 127 0"/><feOffset dy="-.5"/><feGaussianBlur stdDeviation=".375"/><feComposite in2="hardAlpha" k2="-1" k3="1" operator="arithmetic"/><feColorMatrix values="0 0 0 0 0.207843 0 0 0 0 0.109804 0 0 0 0 0.109804 0 0 0 1 0"/><feBlend in2="shape" result="effect1_innerShadow_3_1106"/></filter><filter id="f1326id1p" width="3.26" height="4.181" x="14.123" y="9.789" color-interpolation-filters="sRGB" filterUnits="userSpaceOnUse"><feFlood flood-opacity="0" result="BackgroundImageFix"/><feBlend in="SourceGraphic" in2="BackgroundImageFix" result="shape"/><feGaussianBlur result="effect1_foregroundBlur_3_1106" stdDeviation=".375"/></filter><filter id="f1326id1q" width="2.377" height="3.181" x="14.803" y="10.126" color-interpolation-filters="sRGB" filterUnits="userSpaceOnUse"><feFlood flood-opacity="0" result="BackgroundImageFix"/><feBlend in="SourceGraphic" in2="BackgroundImageFix" result="shape"/><feGaussianBlur result="effect1_foregroundBlur_3_1106" stdDeviation=".125"/></filter><filter id="f1326id1r" width="2.979" height="1.873" x="17.173" y="7.295" color-interpolation-filters="sRGB" filterUnits="userSpaceOnUse"><feFlood flood-opacity="0" result="BackgroundImageFix"/><feBlend in="SourceGraphic" in2="BackgroundImageFix" result="shape"/><feColorMatrix in="SourceAlpha" result="hardAlpha" values="0 0 0 0 0 0 0 0 0 0 0 0 0 0 0 0 0 0 127 0"/><feOffset dx=".25" dy="-.4"/><feGaussianBlur stdDeviation=".3"/><feComposite in2="hardAlpha" k2="-1" k3="1" operator="arithmetic"/><feColorMatrix values="0 0 0 0 0.254902 0 0 0 0 0.156863 0 0 0 0 0.152941 0 0 0 1 0"/><feBlend in2="shape" result="effect1_innerShadow_3_1106"/></filter><filter id="f1326id1s" width="2.98" height="1.873" x="12.026" y="7.295" color-interpolation-filters="sRGB" filterUnits="userSpaceOnUse"><feFlood flood-opacity="0" result="BackgroundImageFix"/><feBlend in="SourceGraphic" in2="BackgroundImageFix" result="shape"/><feColorMatrix in="SourceAlpha" result="hardAlpha" values="0 0 0 0 0 0 0 0 0 0 0 0 0 0 0 0 0 0 127 0"/><feOffset dx=".25" dy="-.4"/><feGaussianBlur stdDeviation=".3"/><feComposite in2="hardAlpha" k2="-1" k3="1" operator="arithmetic"/><feColorMatrix values="0 0 0 0 0.254902 0 0 0 0 0.156863 0 0 0 0 0.152941 0 0 0 1 0"/><feBlend in2="shape" result="effect1_innerShadow_3_1106"/></filter><filter id="f1326id1t" width=".787" height=".696" x="17.436" y="9.821" color-interpolation-filters="sRGB" filterUnits="userSpaceOnUse"><feFlood flood-opacity="0" result="BackgroundImageFix"/><feBlend in="SourceGraphic" in2="BackgroundImageFix" result="shape"/><feGaussianBlur result="effect1_foregroundBlur_3_1106" stdDeviation=".05"/></filter><filter id="f1326id1u" width=".891" height=".913" x="18.276" y="9.896" color-interpolation-filters="sRGB" filterUnits="userSpaceOnUse"><feFlood flood-opacity="0" result="BackgroundImageFix"/><feBlend in="SourceGraphic" in2="BackgroundImageFix" result="shape"/><feGaussianBlur result="effect1_foregroundBlur_3_1106" stdDeviation=".1"/></filter><filter id="f1326id1v" width=".986" height="1.04" x="13.834" y="9.833" color-interpolation-filters="sRGB" filterUnits="userSpaceOnUse"><feFlood flood-opacity="0" result="BackgroundImageFix"/><feBlend in="SourceGraphic" in2="BackgroundImageFix" result="shape"/><feGaussianBlur result="effect1_foregroundBlur_3_1106" stdDeviation=".1"/></filter><filter id="f1326id1w" width=".913" height=".704" x="13.08" y="9.813" color-interpolation-filters="sRGB" filterUnits="userSpaceOnUse"><feFlood flood-opacity="0" result="BackgroundImageFix"/><feBlend in="SourceGraphic" in2="BackgroundImageFix" result="shape"/><feGaussianBlur result="effect1_foregroundBlur_3_1106" stdDeviation=".05"/></filter><filter id="f1326id1x" width="3.099" height="1.681" x="17.027" y="7.421" color-interpolation-filters="sRGB" filterUnits="userSpaceOnUse"><feFlood flood-opacity="0" result="BackgroundImageFix"/><feBlend in="SourceGraphic" in2="BackgroundImageFix" result="shape"/><feGaussianBlur result="effect1_foregroundBlur_3_1106" stdDeviation=".25"/></filter><filter id="f1326id1y" width="3.177" height="1.738" x="11.808" y="7.484" color-interpolation-filters="sRGB" filterUnits="userSpaceOnUse"><feFlood flood-opacity="0" result="BackgroundImageFix"/><feBlend in="SourceGraphic" in2="BackgroundImageFix" result="shape"/><feGaussianBlur result="effect1_foregroundBlur_3_1106" stdDeviation=".25"/></filter><filter id="f1326id1z" width="1.008" height="2.269" x="10.826" y="5.757" color-interpolation-filters="sRGB" filterUnits="userSpaceOnUse"><feFlood flood-opacity="0" result="BackgroundImageFix"/><feBlend in="SourceGraphic" in2="BackgroundImageFix" result="shape"/><feGaussianBlur result="effect1_foregroundBlur_3_1106" stdDeviation=".125"/></filter><filter id="f1326id20" width="22" height="14.1" x="5" y="15.658" color-interpolation-filters="sRGB" filterUnits="userSpaceOnUse"><feFlood flood-opacity="0" result="BackgroundImageFix"/><feBlend in="SourceGraphic" in2="BackgroundImageFix" result="shape"/><feColorMatrix in="SourceAlpha" result="hardAlpha" values="0 0 0 0 0 0 0 0 0 0 0 0 0 0 0 0 0 0 127 0"/><feOffset dy=".1"/><feGaussianBlur stdDeviation=".25"/><feComposite in2="hardAlpha" k2="-1" k3="1" operator="arithmetic"/><feColorMatrix values="0 0 0 0 0.678431 0 0 0 0 0.670588 0 0 0 0 0.682353 0 0 0 1 0"/><feBlend in2="shape" result="effect1_innerShadow_3_1106"/></filter></defs></g></svg>