<svg xmlns="http://www.w3.org/2000/svg" xmlns:xlink="http://www.w3.org/1999/xlink" width="32" height="32" viewBox="0 0 32 32"><g fill="none"><g filter="url(#f1358idy)"><circle cx="7.109" cy="17.994" r="3.121" fill="url(#f1358id0)"/></g><g filter="url(#f1358idz)"><circle cx="7.109" cy="17.994" r="1.86" fill="url(#f1358id1j)"/></g><g filter="url(#f1358id10)"><circle cx="24.891" cy="17.994" r="3.121" fill="url(#f1358id1k)"/><circle cx="24.891" cy="17.994" r="3.121" fill="url(#f1358id1)"/></g><g filter="url(#f1358id11)"><circle cx="24.891" cy="17.994" r="1.86" fill="#D79E81"/><circle cx="24.891" cy="17.994" r="1.86" fill="url(#f1358id2)"/><circle cx="24.891" cy="17.994" r="1.86" fill="url(#f1358id3)"/></g><g filter="url(#f1358id12)"><path fill="url(#f1358id1l)" d="m6.531 14.838l.01.007l-.002-.166c-.007-.59-.02-1.727.477-2.47c.802-1.196 1.711-1.285 2.602-1.285h12.96c2.464 0 3.08 1.796 3.08 2.694l-.08.986q-.011.068-.019.135c-.09 1.625-.186 3.4-.272 4.986a732 732 0 0 1-.257 4.626c-.3 3.307-2.9 5.613-6.001 5.613h-6.001c-3.2 0-5.701-2.306-6.001-5.613c-.12-1.567-.183-3.153-.246-4.739c-.064-1.6-.127-3.198-.25-4.774"/><path fill="url(#f1358id1m)" d="m6.531 14.838l.01.007l-.002-.166c-.007-.59-.02-1.727.477-2.47c.802-1.196 1.711-1.285 2.602-1.285h12.96c2.464 0 3.08 1.796 3.08 2.694l-.08.986q-.011.068-.019.135c-.09 1.625-.186 3.4-.272 4.986a732 732 0 0 1-.257 4.626c-.3 3.307-2.9 5.613-6.001 5.613h-6.001c-3.2 0-5.701-2.306-6.001-5.613c-.12-1.567-.183-3.153-.246-4.739c-.064-1.6-.127-3.198-.25-4.774"/><path fill="url(#f1358id4)" d="m6.531 14.838l.01.007l-.002-.166c-.007-.59-.02-1.727.477-2.47c.802-1.196 1.711-1.285 2.602-1.285h12.96c2.464 0 3.08 1.796 3.08 2.694l-.08.986q-.011.068-.019.135c-.09 1.625-.186 3.4-.272 4.986a732 732 0 0 1-.257 4.626c-.3 3.307-2.9 5.613-6.001 5.613h-6.001c-3.2 0-5.701-2.306-6.001-5.613c-.12-1.567-.183-3.153-.246-4.739c-.064-1.6-.127-3.198-.25-4.774"/><path fill="url(#f1358id5)" d="m6.531 14.838l.01.007l-.002-.166c-.007-.59-.02-1.727.477-2.47c.802-1.196 1.711-1.285 2.602-1.285h12.96c2.464 0 3.08 1.796 3.08 2.694l-.08.986q-.011.068-.019.135c-.09 1.625-.186 3.4-.272 4.986a732 732 0 0 1-.257 4.626c-.3 3.307-2.9 5.613-6.001 5.613h-6.001c-3.2 0-5.701-2.306-6.001-5.613c-.12-1.567-.183-3.153-.246-4.739c-.064-1.6-.127-3.198-.25-4.774"/></g><path fill="url(#f1358id6)" d="m6.531 14.838l.01.007l-.002-.166c-.007-.59-.02-1.727.477-2.47c.802-1.196 1.711-1.285 2.602-1.285h12.96c2.464 0 3.08 1.796 3.08 2.694l-.08.986q-.011.068-.019.135c-.09 1.625-.186 3.4-.272 4.986a732 732 0 0 1-.257 4.626c-.3 3.307-2.9 5.613-6.001 5.613h-6.001c-3.2 0-5.701-2.306-6.001-5.613c-.12-1.567-.183-3.153-.246-4.739c-.064-1.6-.127-3.198-.25-4.774"/><path fill="url(#f1358id1n)" d="m6.531 14.838l.01.007l-.002-.166c-.007-.59-.02-1.727.477-2.47c.802-1.196 1.711-1.285 2.602-1.285h12.96c2.464 0 3.08 1.796 3.08 2.694l-.08.986q-.011.068-.019.135c-.09 1.625-.186 3.4-.272 4.986a732 732 0 0 1-.257 4.626c-.3 3.307-2.9 5.613-6.001 5.613h-6.001c-3.2 0-5.701-2.306-6.001-5.613c-.12-1.567-.183-3.153-.246-4.739c-.064-1.6-.127-3.198-.25-4.774"/><path fill="url(#f1358id7)" d="m6.531 14.838l.01.007l-.002-.166c-.007-.59-.02-1.727.477-2.47c.802-1.196 1.711-1.285 2.602-1.285h12.96c2.464 0 3.08 1.796 3.08 2.694l-.08.986q-.011.068-.019.135c-.09 1.625-.186 3.4-.272 4.986a732 732 0 0 1-.257 4.626c-.3 3.307-2.9 5.613-6.001 5.613h-6.001c-3.2 0-5.701-2.306-6.001-5.613c-.12-1.567-.183-3.153-.246-4.739c-.064-1.6-.127-3.198-.25-4.774"/><path fill="url(#f1358id8)" d="m6.531 14.838l.01.007l-.002-.166c-.007-.59-.02-1.727.477-2.47c.802-1.196 1.711-1.285 2.602-1.285h12.96c2.464 0 3.08 1.796 3.08 2.694l-.08.986q-.011.068-.019.135c-.09 1.625-.186 3.4-.272 4.986a732 732 0 0 1-.257 4.626c-.3 3.307-2.9 5.613-6.001 5.613h-6.001c-3.2 0-5.701-2.306-6.001-5.613c-.12-1.567-.183-3.153-.246-4.739c-.064-1.6-.127-3.198-.25-4.774"/><g filter="url(#f1358id13)"><path fill="#C68378" d="m15.469 17.766l-1.533 3.177c-.19.653.266 1.307.912 1.307h1.378c.646 0 1.102-.664.912-1.307l-.931-3.177c-.2-.704-.529-.704-.738 0"/></g><g filter="url(#f1358id14)"><path fill="#E4AC8F" d="m15.27 17.461l-.994 3.177a1.008 1.008 0 0 0 .973 1.307h1.47c.689 0 1.175-.663.973-1.307l-.994-3.177c-.213-.704-1.206-.704-1.429 0"/><path fill="url(#f1358id1o)" d="m15.27 17.461l-.994 3.177a1.008 1.008 0 0 0 .973 1.307h1.47c.689 0 1.175-.663.973-1.307l-.994-3.177c-.213-.704-1.206-.704-1.429 0"/><path fill="url(#f1358id1p)" d="m15.27 17.461l-.994 3.177a1.008 1.008 0 0 0 .973 1.307h1.47c.689 0 1.175-.663.973-1.307l-.994-3.177c-.213-.704-1.206-.704-1.429 0"/><path fill="url(#f1358id1q)" d="m15.27 17.461l-.994 3.177a1.008 1.008 0 0 0 .973 1.307h1.47c.689 0 1.175-.663.973-1.307l-.994-3.177c-.213-.704-1.206-.704-1.429 0"/></g><g filter="url(#f1358id15)"><path fill="url(#f1358id1r)" d="m15.27 17.156l-.994 3.177a1.008 1.008 0 0 0 .973 1.307h1.47a1.01 1.01 0 0 0 .972-1.308l-.993-3.177c-.213-.703-1.206-.703-1.429 0"/></g><path fill="#88024E" stroke="url(#f1358id1s)" stroke-width=".1" d="M13.418 23.187a.336.336 0 0 0-.401.069a.306.306 0 0 0-.034.394a3.59 3.59 0 0 0 3 1.603a3.59 3.59 0 0 0 3.001-1.604a.31.31 0 0 0-.034-.397a.34.34 0 0 0-.4-.065a5.54 5.54 0 0 1-2.566.608a5.56 5.56 0 0 1-2.566-.608Z"/><g filter="url(#f1358id16)"><path fill="#9A6634" d="m22.936 12.91l-.002-.002l-.003-.003l-.009-.007l-.022-.018l-.067-.05a4 4 0 0 0-.223-.15a5 5 0 0 0-.784-.395a5.3 5.3 0 0 0-2.79-.295a.998.998 0 1 0 .31 1.97a3.3 3.3 0 0 1 1.746.18a3 3 0 0 1 .561.299l.015.011a.998.998 0 0 0 1.268-1.54"/></g><g filter="url(#f1358id17)"><path fill="#9A6634" d="m8.93 12.91l.002-.002l.004-.003l.008-.007l.022-.018l.067-.05q.083-.061.223-.15c.186-.117.45-.262.784-.395a5.3 5.3 0 0 1 2.79-.295a.998.998 0 1 1-.31 1.97a3.3 3.3 0 0 0-1.746.18a3 3 0 0 0-.561.299l-.015.011a.998.998 0 0 1-1.269-1.54"/></g><path fill="#fff" d="M20.447 15.32a2.61 2.61 0 0 1 2.532 1.979a.512.512 0 0 1-.5.637h-4.17a.43.43 0 0 1-.424-.508a2.61 2.61 0 0 1 2.562-2.108"/><path fill="url(#f1358id9)" d="M20.06 15.828a1.668 1.668 0 0 1 1.607 2.107h-3.222a1.7 1.7 0 0 1-.06-.44c0-.917.75-1.667 1.675-1.667"/><path fill="#000" d="M19.105 17.496c0-.53.425-.955.955-.955c.531 0 .956.424.956.955c0 .16-.038.31-.106.44h-1.691a.86.86 0 0 1-.114-.44"/><g filter="url(#f1358id18)"><path fill="#C7A7A3" d="M19.938 16.18c.118.16-.13.353-.412.564c-.283.212-.492.36-.611.201s.014-.459.296-.67s.608-.253.727-.094"/><path fill="url(#f1358ida)" d="M19.938 16.18c.118.16-.13.353-.412.564c-.283.212-.492.36-.611.201s.014-.459.296-.67s.608-.253.727-.094"/></g><g filter="url(#f1358id19)"><path fill="url(#f1358id1t)" d="M21.546 17.276a1.57 1.57 0 0 0-.432-.865l-.486.533l.22.427z"/></g><path fill="#fff" d="M11.51 15.32a2.61 2.61 0 0 0-2.531 1.98a.512.512 0 0 0 .5.637h4.17a.43.43 0 0 0 .425-.508a2.62 2.62 0 0 0-2.562-2.108"/><path fill="url(#f1358idb)" d="M11.897 15.828a1.668 1.668 0 0 0-1.607 2.108h3.222a1.7 1.7 0 0 0 .06-.44a1.68 1.68 0 0 0-1.675-1.668"/><path fill="#000" d="M12.852 17.496a.95.95 0 0 0-.955-.955a.95.95 0 0 0-.955.955c0 .16.038.31.106.44h1.69a.95.95 0 0 0 .114-.44"/><g filter="url(#f1358id1a)"><path fill="url(#f1358id1u)" d="M13.42 17.3c0-.539-.437-.898-.556-1.007l-.539.521l.332.676z"/></g><g filter="url(#f1358id1b)"><ellipse cx="11.394" cy="16.541" fill="#C7A7A3" fill-opacity=".9" rx=".728" ry=".368" transform="rotate(-27.914 11.394 16.54)"/><ellipse cx="11.394" cy="16.541" fill="url(#f1358idc)" rx=".728" ry=".368" transform="rotate(-27.914 11.394 16.54)"/></g><g filter="url(#f1358id1c)"><path stroke="url(#f1358id1v)" stroke-linecap="round" stroke-width=".25" d="M19.088 12.64c.804-.14 2.371-.1 3.457.744"/></g><g filter="url(#f1358id1d)"><path stroke="url(#f1358id1w)" stroke-linecap="round" stroke-width=".25" d="M9.331 13.609c.612-.54 1.947-1.11 3.603-.846"/></g><path fill="url(#f1358idd)" d="M4.78 10.665c.193 2.806 1.396 3.89 1.76 4.18c0-.515-.073-1.815.476-2.636c.802-1.196 1.711-1.285 2.602-1.285h12.96c2.464 0 3.08 1.796 3.08 2.694l-.093 1.146c.217 0 .867-.237 1.115-.728c.65-1.285 1.069-3.964 1.162-5.528s.03-2.763-1.193-4.451c-.978-1.35-2.794-2.02-4.42-2.02H10.678c-3.711 0-4.678 1.406-5.42 2.8c-.594 1.114-.674 2.2-.674 2.843c0 .759.013 2.128.195 2.985"/><path fill="url(#f1358ide)" d="M4.78 10.665c.193 2.806 1.396 3.89 1.76 4.18c0-.515-.073-1.815.476-2.636c.802-1.196 1.711-1.285 2.602-1.285h12.96c2.464 0 3.08 1.796 3.08 2.694l-.093 1.146c.217 0 .867-.237 1.115-.728c.65-1.285 1.069-3.964 1.162-5.528s.03-2.763-1.193-4.451c-.978-1.35-2.794-2.02-4.42-2.02H10.678c-3.711 0-4.678 1.406-5.42 2.8c-.594 1.114-.674 2.2-.674 2.843c0 .759.013 2.128.195 2.985"/><path fill="url(#f1358idf)" d="M4.78 10.665c.193 2.806 1.396 3.89 1.76 4.18c0-.515-.073-1.815.476-2.636c.802-1.196 1.711-1.285 2.602-1.285h12.96c2.464 0 3.08 1.796 3.08 2.694l-.093 1.146c.217 0 .867-.237 1.115-.728c.65-1.285 1.069-3.964 1.162-5.528s.03-2.763-1.193-4.451c-.978-1.35-2.794-2.02-4.42-2.02H10.678c-3.711 0-4.678 1.406-5.42 2.8c-.594 1.114-.674 2.2-.674 2.843c0 .759.013 2.128.195 2.985"/><g filter="url(#f1358id1e)"><path fill="url(#f1358idg)" d="m20.645 2.036l.055 2.427c1.223-.03 3.562.083 5.578 1.227c.849.482 1.289.993 1.573 1.414c-.072-.969-.366-1.894-1.202-3.047c-.978-1.35-2.794-2.02-4.42-2.02z"/><path fill="url(#f1358idh)" d="m20.645 2.036l.055 2.427c1.223-.03 3.562.083 5.578 1.227c.849.482 1.289.993 1.573 1.414c-.072-.969-.366-1.894-1.202-3.047c-.978-1.35-2.794-2.02-4.42-2.02z"/></g><g filter="url(#f1358id1f)"><path fill="url(#f1358id1x)" d="M27.218 12.504c.005-1.483-1.086-2.607-1.931-3.106c-1.34-.79-3.267-1.003-4.103-.998h-1.487l-4.954.805l.255 1.719h7.58c2.464 0 3.101 1.792 3.043 2.694l-.056 1.145c.217 0 .867-.236 1.115-.727c.203-.4.383-.937.538-1.532"/></g><path fill="url(#f1358idi)" d="M27.218 12.504c.005-1.483-1.086-2.607-1.931-3.106c-1.34-.79-3.267-1.003-4.103-.998h-1.487l-4.954.805l.255 1.719h7.58c2.464 0 3.101 1.792 3.043 2.694l-.056 1.145c.217 0 .867-.236 1.115-.727c.203-.4.383-.937.538-1.532"/><path fill="url(#f1358idj)" d="M27.218 12.504c.005-1.483-1.086-2.607-1.931-3.106c-1.34-.79-3.267-1.003-4.103-.998h-1.487l-4.954.805l.255 1.719h7.58c2.464 0 3.101 1.792 3.043 2.694l-.056 1.145c.217 0 .867-.236 1.115-.727c.203-.4.383-.937.538-1.532"/><path fill="url(#f1358idk)" d="M27.218 12.504c.005-1.483-1.086-2.607-1.931-3.106c-1.34-.79-3.267-1.003-4.103-.998h-1.487l-4.954.805l.255 1.719h7.58c2.464 0 3.101 1.792 3.043 2.694l-.056 1.145c.217 0 .867-.236 1.115-.727c.203-.4.383-.937.538-1.532"/><g filter="url(#f1358id1g)"><path fill="url(#f1358idl)" d="M21.173 2.036c.357 1.962.193 4.541-1.019 6.426c-.922 1.433-2.181 2.462-3.473 2.462H9.618c-.89 0-1.8.089-2.602 1.285c-.497.743-.484 1.88-.477 2.47l.001.166c-.364-.29-1.567-1.374-1.76-4.18c-.183-.857-.196-2.226-.196-2.985c0-.643.08-1.73.674-2.844c.742-1.393 1.709-2.8 5.42-2.8z"/></g><path fill="url(#f1358idm)" d="M21.173 2.036c.357 1.962.193 4.541-1.019 6.426c-.922 1.433-2.181 2.462-3.473 2.462H9.618c-.89 0-1.8.089-2.602 1.285c-.497.743-.484 1.88-.477 2.47l.001.166c-.364-.29-1.567-1.374-1.76-4.18c-.183-.857-.196-2.226-.196-2.985c0-.643.08-1.73.674-2.844c.742-1.393 1.709-2.8 5.42-2.8z"/><path fill="url(#f1358idn)" d="M21.173 2.036c.357 1.962.193 4.541-1.019 6.426c-.922 1.433-2.181 2.462-3.473 2.462H9.618c-.89 0-1.8.089-2.602 1.285c-.497.743-.484 1.88-.477 2.47l.001.166c-.364-.29-1.567-1.374-1.76-4.18c-.183-.857-.196-2.226-.196-2.985c0-.643.08-1.73.674-2.844c.742-1.393 1.709-2.8 5.42-2.8z"/><path fill="url(#f1358ido)" d="M21.173 2.036c.357 1.962.193 4.541-1.019 6.426c-.922 1.433-2.181 2.462-3.473 2.462H9.618c-.89 0-1.8.089-2.602 1.285c-.497.743-.484 1.88-.477 2.47l.001.166c-.364-.29-1.567-1.374-1.76-4.18c-.183-.857-.196-2.226-.196-2.985c0-.643.08-1.73.674-2.844c.742-1.393 1.709-2.8 5.42-2.8z"/><path fill="url(#f1358idp)" d="M21.173 2.036c.357 1.962.193 4.541-1.019 6.426c-.922 1.433-2.181 2.462-3.473 2.462H9.618c-.89 0-1.8.089-2.602 1.285c-.497.743-.484 1.88-.477 2.47l.001.166c-.364-.29-1.567-1.374-1.76-4.18c-.183-.857-.196-2.226-.196-2.985c0-.643.08-1.73.674-2.844c.742-1.393 1.709-2.8 5.42-2.8z"/><path fill="url(#f1358idq)" d="M21.173 2.036c.357 1.962.193 4.541-1.019 6.426c-.922 1.433-2.181 2.462-3.473 2.462H9.618c-.89 0-1.8.089-2.602 1.285c-.497.743-.484 1.88-.477 2.47l.001.166c-.364-.29-1.567-1.374-1.76-4.18c-.183-.857-.196-2.226-.196-2.985c0-.643.08-1.73.674-2.844c.742-1.393 1.709-2.8 5.42-2.8z"/><g filter="url(#f1358id1h)"><path fill="url(#f1358idr)" d="M4.769 10.615c.457-.912 1.614-2.205 5.677-2.625c.406-.042 1.004-.06 1.673-.08c1.665-.05 3.775-.113 4.482-.594c.933-.445 1.972-3.245 1.539-5.28h-5.97L5.182 4.985c-.524 1.062-.597 2.081-.597 2.695c0 .744.012 2.076.185 2.935"/><path fill="url(#f1358ids)" d="M4.769 10.615c.457-.912 1.614-2.205 5.677-2.625c.406-.042 1.004-.06 1.673-.08c1.665-.05 3.775-.113 4.482-.594c.933-.445 1.972-3.245 1.539-5.28h-5.97L5.182 4.985c-.524 1.062-.597 2.081-.597 2.695c0 .744.012 2.076.185 2.935"/><path fill="url(#f1358id1y)" d="M4.769 10.615c.457-.912 1.614-2.205 5.677-2.625c.406-.042 1.004-.06 1.673-.08c1.665-.05 3.775-.113 4.482-.594c.933-.445 1.972-3.245 1.539-5.28h-5.97L5.182 4.985c-.524 1.062-.597 2.081-.597 2.695c0 .744.012 2.076.185 2.935"/><path fill="url(#f1358idt)" d="M4.769 10.615c.457-.912 1.614-2.205 5.677-2.625c.406-.042 1.004-.06 1.673-.08c1.665-.05 3.775-.113 4.482-.594c.933-.445 1.972-3.245 1.539-5.28h-5.97L5.182 4.985c-.524 1.062-.597 2.081-.597 2.695c0 .744.012 2.076.185 2.935"/><path fill="url(#f1358idu)" d="M4.769 10.615c.457-.912 1.614-2.205 5.677-2.625c.406-.042 1.004-.06 1.673-.08c1.665-.05 3.775-.113 4.482-.594c.933-.445 1.972-3.245 1.539-5.28h-5.97L5.182 4.985c-.524 1.062-.597 2.081-.597 2.695c0 .744.012 2.076.185 2.935"/></g><g filter="url(#f1358id1i)"><path fill="url(#f1358idv)" d="M4.584 7.772C5.142 7.102 6.148 6.16 7.48 5.8c1.88-.509 4.836-.733 6.07-.82c.448.025 1.556-.442 1.556-1.611c0-.433-.017-.889-.054-1.332h-4.375c-3.711 0-4.678 1.407-5.42 2.8c-.594 1.115-.674 2.201-.674 2.844z"/></g><path fill="url(#f1358idw)" d="M4.584 7.772C5.142 7.102 6.148 6.16 7.48 5.8c1.88-.509 4.836-.733 6.07-.82c.448.025 1.556-.442 1.556-1.611c0-.433-.017-.889-.054-1.332h-4.375c-3.711 0-4.678 1.407-5.42 2.8c-.594 1.115-.674 2.201-.674 2.844z"/><path fill="url(#f1358idx)" d="M4.584 7.772C5.142 7.102 6.148 6.16 7.48 5.8c1.88-.509 4.836-.733 6.07-.82c.448.025 1.556-.442 1.556-1.611c0-.433-.017-.889-.054-1.332h-4.375c-3.711 0-4.678 1.407-5.42 2.8c-.594 1.115-.674 2.201-.674 2.844z"/><defs><radialGradient id="f1358id0" cx="0" cy="0" r="1" gradientTransform="matrix(3.28026 0 0 5.74048 3.988 17.994)" gradientUnits="userSpaceOnUse"><stop offset=".351" stop-color="#C28775"/><stop offset="1" stop-color="#BA7867"/></radialGradient><radialGradient id="f1358id1" cx="0" cy="0" r="1" gradientTransform="matrix(1.5453 -1.12522 1.2843 1.76377 25.587 17.5)" gradientUnits="userSpaceOnUse"><stop offset=".543" stop-color="#E3AB88"/><stop offset="1" stop-color="#E3AB88" stop-opacity="0"/></radialGradient><radialGradient id="f1358id2" cx="0" cy="0" r="1" gradientTransform="matrix(1.53516 -2.82353 1.65263 .89854 24.813 19.529)" gradientUnits="userSpaceOnUse"><stop offset=".69" stop-color="#D79A76" stop-opacity="0"/><stop offset="1" stop-color="#D79A76"/></radialGradient><radialGradient id="f1358id3" cx="0" cy="0" r="1" gradientTransform="rotate(44.708 -9.433 39.262)scale(.68196 .87914)" gradientUnits="userSpaceOnUse"><stop stop-color="#CB8E6D"/><stop offset="1" stop-color="#CB8E6D" stop-opacity="0"/></radialGradient><radialGradient id="f1358id4" cx="0" cy="0" r="1" gradientTransform="matrix(0 -2.44324 3.00707 0 20.37 15.617)" gradientUnits="userSpaceOnUse"><stop stop-color="#E2A18C"/><stop offset="1" stop-color="#E2A18C" stop-opacity="0"/></radialGradient><radialGradient id="f1358id5" cx="0" cy="0" r="1" gradientTransform="matrix(0 -2.59986 3.23316 0 11.85 15.555)" gradientUnits="userSpaceOnUse"><stop stop-color="#C2837A"/><stop offset="1" stop-color="#C2837A" stop-opacity="0"/></radialGradient><radialGradient id="f1358id6" cx="0" cy="0" r="1" gradientTransform="rotate(-177.207 12.9 10.605)scale(2.93206 16.677)" gradientUnits="userSpaceOnUse"><stop stop-color="#F6C19C"/><stop offset="1" stop-color="#F6C19C" stop-opacity="0"/></radialGradient><radialGradient id="f1358id7" cx="0" cy="0" r="1" gradientTransform="matrix(0 16.3882 -25.3991 0 16.095 13.575)" gradientUnits="userSpaceOnUse"><stop offset=".745" stop-color="#C18187" stop-opacity="0"/><stop offset="1" stop-color="#B57091"/></radialGradient><radialGradient id="f1358id8" cx="0" cy="0" r="1" gradientTransform="rotate(-51.933 16.753 1.194)scale(10.2522 1.7196)" gradientUnits="userSpaceOnUse"><stop stop-color="#9F6363"/><stop offset="1" stop-color="#9F6363" stop-opacity="0"/></radialGradient><radialGradient id="f1358id9" cx="0" cy="0" r="1" gradientTransform="matrix(0 1.68821 -1.99759 0 20.056 17.343)" gradientUnits="userSpaceOnUse"><stop offset=".75" stop-color="#925C51"/><stop offset="1" stop-color="#694B43"/><stop offset="1" stop-color="#804D49"/><stop offset="1" stop-color="#85534D"/></radialGradient><radialGradient id="f1358ida" cx="0" cy="0" r="1" gradientTransform="matrix(-.4334 -.5585 .76893 -.5967 19.63 16.877)" gradientUnits="userSpaceOnUse"><stop offset=".766" stop-color="#FFE6E2" stop-opacity="0"/><stop offset=".966" stop-color="#FFE6E2"/></radialGradient><radialGradient id="f1358idb" cx="0" cy="0" r="1" gradientTransform="matrix(0 1.6883 -1.99769 0 11.9 17.343)" gradientUnits="userSpaceOnUse"><stop offset=".75" stop-color="#925C51"/><stop offset="1" stop-color="#694B43"/><stop offset="1" stop-color="#804D49"/><stop offset="1" stop-color="#85534D"/></radialGradient><radialGradient id="f1358idc" cx="0" cy="0" r="1" gradientTransform="rotate(-90.897 14.114 2.97)scale(.92346 1.11004)" gradientUnits="userSpaceOnUse"><stop offset=".766" stop-color="#FFE6E2" stop-opacity="0"/><stop offset=".966" stop-color="#FFE6E2"/></radialGradient><radialGradient id="f1358idd" cx="0" cy="0" r="1" gradientTransform="matrix(-.84218 3.75478 -8.78476 -1.97039 26.108 5.063)" gradientUnits="userSpaceOnUse"><stop stop-color="#F8F6FB"/><stop offset=".789" stop-color="#EBE6F2"/></radialGradient><radialGradient id="f1358ide" cx="0" cy="0" r="1" gradientTransform="matrix(2.09375 .53125 -1.15317 4.54483 20.574 6.697)" gradientUnits="userSpaceOnUse"><stop offset=".152" stop-color="#CFCAD4"/><stop offset="1" stop-color="#ECE8F1" stop-opacity="0"/></radialGradient><radialGradient id="f1358idf" cx="0" cy="0" r="1" gradientTransform="matrix(1.5 -2.625 6.33197 3.61827 22.512 10.54)" gradientUnits="userSpaceOnUse"><stop stop-color="#D3CFD9"/><stop offset="1" stop-color="#D3CFD9" stop-opacity="0"/></radialGradient><radialGradient id="f1358idg" cx="0" cy="0" r="1" gradientTransform="matrix(.17188 2.91016 -14.53547 .85847 21.48 2.036)" gradientUnits="userSpaceOnUse"><stop stop-color="#DBDBDC"/><stop offset="1" stop-color="#FAFAFA"/></radialGradient><radialGradient id="f1358idh" cx="0" cy="0" r="1" gradientTransform="matrix(1.45313 0 0 5.1925 21.027 3.353)" gradientUnits="userSpaceOnUse"><stop offset=".253" stop-color="#E2DCE8"/><stop offset="1" stop-color="#E2DCE8" stop-opacity="0"/></radialGradient><radialGradient id="f1358idi" cx="0" cy="0" r="1" gradientTransform="matrix(2.46875 1.71875 -3.03125 4.35398 17.918 9.071)" gradientUnits="userSpaceOnUse"><stop offset=".391" stop-color="#BFB1C9"/><stop offset="1" stop-color="#E0DAE8" stop-opacity="0"/></radialGradient><radialGradient id="f1358idj" cx="0" cy="0" r="1" gradientTransform="matrix(0 -2.93844 1.49148 0 24.88 14.52)" gradientUnits="userSpaceOnUse"><stop offset=".306" stop-color="#B384B3"/><stop offset="1" stop-color="#B384B3" stop-opacity="0"/></radialGradient><radialGradient id="f1358idk" cx="0" cy="0" r="1" gradientTransform="matrix(3.71875 0 0 .30337 18.98 8.696)" gradientUnits="userSpaceOnUse"><stop stop-color="#D0CCD3"/><stop offset="1" stop-color="#D0CCD3" stop-opacity="0"/></radialGradient><radialGradient id="f1358idl" cx="0" cy="0" r="1" gradientTransform="matrix(-4.28125 -.09372 .19553 -8.93238 21.793 5.603)" gradientUnits="userSpaceOnUse"><stop stop-color="#F5F4F6"/><stop offset="1" stop-color="#CFC8D7"/></radialGradient><radialGradient id="f1358idm" cx="0" cy="0" r="1" gradientTransform="matrix(11.55068 3.52232 -4.80864 15.76891 9.357 5.757)" gradientUnits="userSpaceOnUse"><stop offset=".633" stop-color="#D1CAD9" stop-opacity="0"/><stop offset=".952" stop-color="#F1EDF4"/></radialGradient><radialGradient id="f1358idn" cx="0" cy="0" r="1" gradientTransform="matrix(1.11064 -4.72815 1.61144 .37853 17.068 4.614)" gradientUnits="userSpaceOnUse"><stop offset=".348" stop-color="#C5C2C8"/><stop offset="1" stop-color="#C5C2C8" stop-opacity="0"/></radialGradient><radialGradient id="f1358ido" cx="0" cy="0" r="1" gradientTransform="matrix(-.06346 1.33277 -6.75892 -.32185 9.42 7.407)" gradientUnits="userSpaceOnUse"><stop stop-color="#BDBBBE"/><stop offset="1" stop-color="#BDBBBE" stop-opacity="0"/></radialGradient><radialGradient id="f1358idp" cx="0" cy="0" r="1" gradientTransform="matrix(-13.48639 2.82409 -3.69438 -17.64244 17.766 7.534)" gradientUnits="userSpaceOnUse"><stop offset=".681" stop-color="#BFB7C6" stop-opacity="0"/><stop offset="1" stop-color="#BFB7C6"/></radialGradient><radialGradient id="f1358idq" cx="0" cy="0" r="1" gradientTransform="matrix(.88851 -3.93483 2.3195 .52376 7.168 14.515)" gradientUnits="userSpaceOnUse"><stop offset=".201" stop-color="#A87B9C"/><stop offset="1" stop-color="#A87B9C" stop-opacity="0"/></radialGradient><radialGradient id="f1358idr" cx="0" cy="0" r="1" gradientTransform="rotate(137.988 8.663 4.694)scale(9.89862 9.45071)" gradientUnits="userSpaceOnUse"><stop stop-color="#DDDDDE"/><stop offset="1" stop-color="#C0BBC4"/></radialGradient><radialGradient id="f1358ids" cx="0" cy="0" r="1" gradientTransform="matrix(-1.78125 0 0 -4.75 18.668 3.509)" gradientUnits="userSpaceOnUse"><stop stop-color="#EBEAEC"/><stop offset="1" stop-color="#EBEAEC" stop-opacity="0"/></radialGradient><radialGradient id="f1358idt" cx="0" cy="0" r="1" gradientTransform="matrix(5.90625 .125 -.02777 1.31192 10.355 4.134)" gradientUnits="userSpaceOnUse"><stop stop-color="#B8B2BE"/><stop offset="1" stop-color="#B8B2BE" stop-opacity="0"/></radialGradient><radialGradient id="f1358idu" cx="0" cy="0" r="1" gradientTransform="matrix(1.28125 -.09375 .17757 2.4268 14.355 2.478)" gradientUnits="userSpaceOnUse"><stop offset=".256" stop-color="#BBB9BD"/><stop offset="1" stop-color="#BBB9BD" stop-opacity="0"/></radialGradient><radialGradient id="f1358idv" cx="0" cy="0" r="1" gradientTransform="matrix(-8.06249 1.65631 -3.03846 -14.79042 14.761 2.603)" gradientUnits="userSpaceOnUse"><stop stop-color="#D2D1D3"/><stop offset="1" stop-color="#B5B4B6"/></radialGradient><radialGradient id="f1358idw" cx="0" cy="0" r="1" gradientTransform="matrix(8.03125 .96875 -1.11478 9.24187 7.48 3.259)" gradientUnits="userSpaceOnUse"><stop offset=".869" stop-color="#A5A0A9" stop-opacity="0"/><stop offset="1" stop-color="#A5A0A9"/></radialGradient><radialGradient id="f1358idx" cx="0" cy="0" r="1" gradientTransform="matrix(2.71875 -2.3259 1.71042 1.99932 4.824 7.773)" gradientUnits="userSpaceOnUse"><stop stop-color="#BCB7C1"/><stop offset="1" stop-color="#BCB7C1" stop-opacity="0"/></radialGradient><filter id="f1358idy" width="6.441" height="6.241" x="3.988" y="14.874" color-interpolation-filters="sRGB" filterUnits="userSpaceOnUse"><feFlood flood-opacity="0" result="BackgroundImageFix"/><feBlend in="SourceGraphic" in2="BackgroundImageFix" result="shape"/><feColorMatrix in="SourceAlpha" result="hardAlpha" values="0 0 0 0 0 0 0 0 0 0 0 0 0 0 0 0 0 0 127 0"/><feOffset dx=".2"/><feGaussianBlur stdDeviation=".2"/><feComposite in2="hardAlpha" k2="-1" k3="1" operator="arithmetic"/><feColorMatrix values="0 0 0 0 0.866667 0 0 0 0 0.643137 0 0 0 0 0.533333 0 0 0 1 0"/><feBlend in2="shape" result="effect1_innerShadow_4002_3107"/></filter><filter id="f1358idz" width="4.72" height="4.72" x="4.749" y="15.634" color-interpolation-filters="sRGB" filterUnits="userSpaceOnUse"><feFlood flood-opacity="0" result="BackgroundImageFix"/><feBlend in="SourceGraphic" in2="BackgroundImageFix" result="shape"/><feGaussianBlur result="effect1_foregroundBlur_4002_3107" stdDeviation=".25"/></filter><filter id="f1358id10" width="6.491" height="6.491" x="21.771" y="14.624" color-interpolation-filters="sRGB" filterUnits="userSpaceOnUse"><feFlood flood-opacity="0" result="BackgroundImageFix"/><feBlend in="SourceGraphic" in2="BackgroundImageFix" result="shape"/><feColorMatrix in="SourceAlpha" result="hardAlpha" values="0 0 0 0 0 0 0 0 0 0 0 0 0 0 0 0 0 0 127 0"/><feOffset dx=".25" dy="-.25"/><feGaussianBlur stdDeviation=".25"/><feComposite in2="hardAlpha" k2="-1" k3="1" operator="arithmetic"/><feColorMatrix values="0 0 0 0 0.768627 0 0 0 0 0.529412 0 0 0 0 0.505882 0 0 0 1 0"/><feBlend in2="shape" result="effect1_innerShadow_4002_3107"/></filter><filter id="f1358id11" width="4.72" height="4.72" x="22.532" y="15.634" color-interpolation-filters="sRGB" filterUnits="userSpaceOnUse"><feFlood flood-opacity="0" result="BackgroundImageFix"/><feBlend in="SourceGraphic" in2="BackgroundImageFix" result="shape"/><feGaussianBlur result="effect1_foregroundBlur_4002_3107" stdDeviation=".25"/></filter><filter id="f1358id12" width="19.127" height="19.29" x="6.531" y="10.924" color-interpolation-filters="sRGB" filterUnits="userSpaceOnUse"><feFlood flood-opacity="0" result="BackgroundImageFix"/><feBlend in="SourceGraphic" in2="BackgroundImageFix" result="shape"/><feColorMatrix in="SourceAlpha" result="hardAlpha" values="0 0 0 0 0 0 0 0 0 0 0 0 0 0 0 0 0 0 127 0"/><feOffset dy=".25"/><feGaussianBlur stdDeviation=".25"/><feComposite in2="hardAlpha" k2="-1" k3="1" operator="arithmetic"/><feColorMatrix values="0 0 0 0 0.643137 0 0 0 0 0.411765 0 0 0 0 0.407843 0 0 0 1 0"/><feBlend in2="shape" result="effect1_innerShadow_4002_3107"/></filter><filter id="f1358id13" width="4.79" height="6.512" x="13.142" y="16.488" color-interpolation-filters="sRGB" filterUnits="userSpaceOnUse"><feFlood flood-opacity="0" result="BackgroundImageFix"/><feBlend in="SourceGraphic" in2="BackgroundImageFix" result="shape"/><feGaussianBlur result="effect1_foregroundBlur_4002_3107" stdDeviation=".375"/></filter><filter id="f1358id14" width="4.008" height="5.512" x="13.98" y="16.683" color-interpolation-filters="sRGB" filterUnits="userSpaceOnUse"><feFlood flood-opacity="0" result="BackgroundImageFix"/><feBlend in="SourceGraphic" in2="BackgroundImageFix" result="shape"/><feGaussianBlur result="effect1_foregroundBlur_4002_3107" stdDeviation=".125"/></filter><filter id="f1358id15" width="4.008" height="5.512" x="13.979" y="16.378" color-interpolation-filters="sRGB" filterUnits="userSpaceOnUse"><feFlood flood-opacity="0" result="BackgroundImageFix"/><feBlend in="SourceGraphic" in2="BackgroundImageFix" result="shape"/><feGaussianBlur result="effect1_foregroundBlur_4002_3107" stdDeviation=".125"/></filter><filter id="f1358id16" width="5.352" height="3.153" x="18.193" y="11.521" color-interpolation-filters="sRGB" filterUnits="userSpaceOnUse"><feFlood flood-opacity="0" result="BackgroundImageFix"/><feBlend in="SourceGraphic" in2="BackgroundImageFix" result="shape"/><feColorMatrix in="SourceAlpha" result="hardAlpha" values="0 0 0 0 0 0 0 0 0 0 0 0 0 0 0 0 0 0 127 0"/><feOffset dx=".25" dy="-.4"/><feGaussianBlur stdDeviation=".3"/><feComposite in2="hardAlpha" k2="-1" k3="1" operator="arithmetic"/><feColorMatrix values="0 0 0 0 0.47451 0 0 0 0 0.262745 0 0 0 0 0.168627 0 0 0 1 0"/><feBlend in2="shape" result="effect1_innerShadow_4002_3107"/></filter><filter id="f1358id17" width="5.353" height="3.153" x="8.571" y="11.521" color-interpolation-filters="sRGB" filterUnits="userSpaceOnUse"><feFlood flood-opacity="0" result="BackgroundImageFix"/><feBlend in="SourceGraphic" in2="BackgroundImageFix" result="shape"/><feColorMatrix in="SourceAlpha" result="hardAlpha" values="0 0 0 0 0 0 0 0 0 0 0 0 0 0 0 0 0 0 127 0"/><feOffset dx=".25" dy="-.4"/><feGaussianBlur stdDeviation=".3"/><feComposite in2="hardAlpha" k2="-1" k3="1" operator="arithmetic"/><feColorMatrix values="0 0 0 0 0.47451 0 0 0 0 0.262745 0 0 0 0 0.168627 0 0 0 1 0"/><feBlend in2="shape" result="effect1_innerShadow_4002_3107"/></filter><filter id="f1358id18" width="1.297" height="1.127" x="18.771" y="15.985" color-interpolation-filters="sRGB" filterUnits="userSpaceOnUse"><feFlood flood-opacity="0" result="BackgroundImageFix"/><feBlend in="SourceGraphic" in2="BackgroundImageFix" result="shape"/><feGaussianBlur result="effect1_foregroundBlur_4002_3107" stdDeviation=".05"/></filter><filter id="f1358id19" width="1.318" height="1.359" x="20.428" y="16.211" color-interpolation-filters="sRGB" filterUnits="userSpaceOnUse"><feFlood flood-opacity="0" result="BackgroundImageFix"/><feBlend in="SourceGraphic" in2="BackgroundImageFix" result="shape"/><feGaussianBlur result="effect1_foregroundBlur_4002_3107" stdDeviation=".1"/></filter><filter id="f1358id1a" width="1.496" height="1.597" x="12.125" y="16.093" color-interpolation-filters="sRGB" filterUnits="userSpaceOnUse"><feFlood flood-opacity="0" result="BackgroundImageFix"/><feBlend in="SourceGraphic" in2="BackgroundImageFix" result="shape"/><feGaussianBlur result="effect1_foregroundBlur_4002_3107" stdDeviation=".1"/></filter><filter id="f1358id1b" width="1.533" height="1.143" x="10.627" y="15.969" color-interpolation-filters="sRGB" filterUnits="userSpaceOnUse"><feFlood flood-opacity="0" result="BackgroundImageFix"/><feBlend in="SourceGraphic" in2="BackgroundImageFix" result="shape"/><feGaussianBlur result="effect1_foregroundBlur_4002_3107" stdDeviation=".05"/></filter><filter id="f1358id1c" width="4.707" height="2.056" x="18.463" y="11.953" color-interpolation-filters="sRGB" filterUnits="userSpaceOnUse"><feFlood flood-opacity="0" result="BackgroundImageFix"/><feBlend in="SourceGraphic" in2="BackgroundImageFix" result="shape"/><feGaussianBlur result="effect1_foregroundBlur_4002_3107" stdDeviation=".25"/></filter><filter id="f1358id1d" width="4.852" height="2.162" x="8.706" y="12.071" color-interpolation-filters="sRGB" filterUnits="userSpaceOnUse"><feFlood flood-opacity="0" result="BackgroundImageFix"/><feBlend in="SourceGraphic" in2="BackgroundImageFix" result="shape"/><feGaussianBlur result="effect1_foregroundBlur_4002_3107" stdDeviation=".25"/></filter><filter id="f1358id1e" width="7.307" height="5.168" x="20.645" y="1.936" color-interpolation-filters="sRGB" filterUnits="userSpaceOnUse"><feFlood flood-opacity="0" result="BackgroundImageFix"/><feBlend in="SourceGraphic" in2="BackgroundImageFix" result="shape"/><feColorMatrix in="SourceAlpha" result="hardAlpha" values="0 0 0 0 0 0 0 0 0 0 0 0 0 0 0 0 0 0 127 0"/><feOffset dx=".1" dy="-.1"/><feGaussianBlur stdDeviation=".15"/><feComposite in2="hardAlpha" k2="-1" k3="1" operator="arithmetic"/><feColorMatrix values="0 0 0 0 0.843137 0 0 0 0 0.8 0 0 0 0 0.890196 0 0 0 1 0"/><feBlend in2="shape" result="effect1_innerShadow_4002_3107"/></filter><filter id="f1358id1f" width="12.925" height="6.714" x="14.693" y="8.15" color-interpolation-filters="sRGB" filterUnits="userSpaceOnUse"><feFlood flood-opacity="0" result="BackgroundImageFix"/><feBlend in="SourceGraphic" in2="BackgroundImageFix" result="shape"/><feColorMatrix in="SourceAlpha" result="hardAlpha" values="0 0 0 0 0 0 0 0 0 0 0 0 0 0 0 0 0 0 127 0"/><feOffset dx="-.05" dy=".1"/><feGaussianBlur stdDeviation=".125"/><feComposite in2="hardAlpha" k2="-1" k3="1" operator="arithmetic"/><feColorMatrix values="0 0 0 0 1 0 0 0 0 0.992157 0 0 0 0 1 0 0 0 1 0"/><feBlend in2="shape" result="effect1_innerShadow_4002_3107"/><feColorMatrix in="SourceAlpha" result="hardAlpha" values="0 0 0 0 0 0 0 0 0 0 0 0 0 0 0 0 0 0 127 0"/><feOffset dx=".4" dy="-.25"/><feGaussianBlur stdDeviation=".325"/><feComposite in2="hardAlpha" k2="-1" k3="1" operator="arithmetic"/><feColorMatrix values="0 0 0 0 0.670588 0 0 0 0 0.560784 0 0 0 0 0.756863 0 0 0 1 0"/><feBlend in2="effect1_innerShadow_4002_3107" result="effect2_innerShadow_4002_3107"/></filter><filter id="f1358id1g" width="17.006" height="13.059" x="4.334" y="1.786" color-interpolation-filters="sRGB" filterUnits="userSpaceOnUse"><feFlood flood-opacity="0" result="BackgroundImageFix"/><feBlend in="SourceGraphic" in2="BackgroundImageFix" result="shape"/><feColorMatrix in="SourceAlpha" result="hardAlpha" values="0 0 0 0 0 0 0 0 0 0 0 0 0 0 0 0 0 0 127 0"/><feOffset dx="-.25" dy="-.25"/><feGaussianBlur stdDeviation=".3"/><feComposite in2="hardAlpha" k2="-1" k3="1" operator="arithmetic"/><feColorMatrix values="0 0 0 0 0.603922 0 0 0 0 0.45098 0 0 0 0 0.721569 0 0 0 1 0"/><feBlend in2="shape" result="effect1_innerShadow_4002_3107"/></filter><filter id="f1358id1h" width="13.757" height="8.679" x="4.484" y="1.936" color-interpolation-filters="sRGB" filterUnits="userSpaceOnUse"><feFlood flood-opacity="0" result="BackgroundImageFix"/><feBlend in="SourceGraphic" in2="BackgroundImageFix" result="shape"/><feColorMatrix in="SourceAlpha" result="hardAlpha" values="0 0 0 0 0 0 0 0 0 0 0 0 0 0 0 0 0 0 127 0"/><feOffset dx="-.1" dy="-.1"/><feGaussianBlur stdDeviation=".15"/><feComposite in2="hardAlpha" k2="-1" k3="1" operator="arithmetic"/><feColorMatrix values="0 0 0 0 0.611765 0 0 0 0 0.588235 0 0 0 0 0.635294 0 0 0 1 0"/><feBlend in2="shape" result="effect1_innerShadow_4002_3107"/></filter><filter id="f1358id1i" width="10.523" height="5.986" x="4.584" y="1.836" color-interpolation-filters="sRGB" filterUnits="userSpaceOnUse"><feFlood flood-opacity="0" result="BackgroundImageFix"/><feBlend in="SourceGraphic" in2="BackgroundImageFix" result="shape"/><feColorMatrix in="SourceAlpha" result="hardAlpha" values="0 0 0 0 0 0 0 0 0 0 0 0 0 0 0 0 0 0 127 0"/><feOffset dy="-.2"/><feGaussianBlur stdDeviation=".2"/><feComposite in2="hardAlpha" k2="-1" k3="1" operator="arithmetic"/><feColorMatrix values="0 0 0 0 0.686275 0 0 0 0 0.619608 0 0 0 0 0.752941 0 0 0 1 0"/><feBlend in2="shape" result="effect1_innerShadow_4002_3107"/><feColorMatrix in="SourceAlpha" result="hardAlpha" values="0 0 0 0 0 0 0 0 0 0 0 0 0 0 0 0 0 0 127 0"/><feOffset dy=".05"/><feGaussianBlur stdDeviation=".15"/><feComposite in2="hardAlpha" k2="-1" k3="1" operator="arithmetic"/><feColorMatrix values="0 0 0 0 0.705882 0 0 0 0 0.701961 0 0 0 0 0.705882 0 0 0 1 0"/><feBlend in2="effect1_innerShadow_4002_3107" result="effect2_innerShadow_4002_3107"/></filter><linearGradient id="f1358id1j" x1="7.109" x2="5.911" y1="18.515" y2="18.515" gradientUnits="userSpaceOnUse"><stop stop-color="#AF6F5D"/><stop offset="1" stop-color="#B87862"/></linearGradient><linearGradient id="f1358id1k" x1="26.922" x2="25.392" y1="15.954" y2="20.695" gradientUnits="userSpaceOnUse"><stop stop-color="#F5C8A5"/><stop offset="1" stop-color="#DCA189"/></linearGradient><linearGradient id="f1358id1l" x1="23.528" x2="9.253" y1="18.722" y2="20.849" gradientUnits="userSpaceOnUse"><stop stop-color="#FAC39E"/><stop offset="1" stop-color="#C9917C"/></linearGradient><linearGradient id="f1358id1m" x1="5.898" x2="10.22" y1="23.762" y2="23.198" gradientUnits="userSpaceOnUse"><stop stop-color="#D99E84"/><stop offset="1" stop-color="#D99E84" stop-opacity="0"/></linearGradient><linearGradient id="f1358id1n" x1="6.531" x2="8.376" y1="20.444" y2="20.444" gradientUnits="userSpaceOnUse"><stop stop-color="#D69B7E"/><stop offset="1" stop-color="#D69B7E" stop-opacity="0"/></linearGradient><linearGradient id="f1358id1o" x1="14.368" x2="16.122" y1="19.955" y2="19.955" gradientUnits="userSpaceOnUse"><stop stop-color="#CB9173"/><stop offset="1" stop-color="#CB9173" stop-opacity="0"/></linearGradient><linearGradient id="f1358id1p" x1="17.738" x2="15.821" y1="20.558" y2="20.53" gradientUnits="userSpaceOnUse"><stop stop-color="#FEC8A4"/><stop offset="1" stop-color="#FEC8A4" stop-opacity="0"/></linearGradient><linearGradient id="f1358id1q" x1="16.348" x2="16.348" y1="21.945" y2="20.874" gradientUnits="userSpaceOnUse"><stop stop-color="#C98583"/><stop offset="1" stop-color="#C98583" stop-opacity="0"/></linearGradient><linearGradient id="f1358id1r" x1="15.984" x2="15.984" y1="16.628" y2="18.466" gradientUnits="userSpaceOnUse"><stop stop-color="#E2AB8E"/><stop offset="1" stop-color="#E2AB8E" stop-opacity="0"/></linearGradient><linearGradient id="f1358id1s" x1="14.045" x2="14.858" y1="24.964" y2="23.679" gradientUnits="userSpaceOnUse"><stop stop-color="#D79E8E"/><stop offset=".663" stop-color="#D79E8E" stop-opacity="0"/></linearGradient><linearGradient id="f1358id1t" x1="21.51" x2="20.924" y1="16.82" y2="17.181" gradientUnits="userSpaceOnUse"><stop stop-color="#B4948D"/><stop offset="1" stop-color="#B4948D" stop-opacity="0"/></linearGradient><linearGradient id="f1358id1u" x1="13.291" x2="12.705" y1="16.82" y2="17.182" gradientUnits="userSpaceOnUse"><stop stop-color="#B4948D"/><stop offset="1" stop-color="#B4948D" stop-opacity="0"/></linearGradient><linearGradient id="f1358id1v" x1="21.54" x2="20.754" y1="12.821" y2="11.216" gradientUnits="userSpaceOnUse"><stop stop-color="#A57146"/><stop offset="1" stop-color="#A57146" stop-opacity="0"/></linearGradient><linearGradient id="f1358id1w" x1="11.624" x2="9.401" y1="12.582" y2="11.649" gradientUnits="userSpaceOnUse"><stop stop-color="#A57146"/><stop offset="1" stop-color="#A57146" stop-opacity="0"/></linearGradient><linearGradient id="f1358id1x" x1="26.387" x2="15.636" y1="13.602" y2="13.602" gradientUnits="userSpaceOnUse"><stop stop-color="#EEE8F4"/><stop offset="1" stop-color="#DDD6E4"/></linearGradient><linearGradient id="f1358id1y" x1="4.584" x2="8.761" y1="9.572" y2="8.603" gradientUnits="userSpaceOnUse"><stop stop-color="#B6B0BB"/><stop offset="1" stop-color="#B6B0BB" stop-opacity="0"/></linearGradient></defs></g></svg>