<svg xmlns="http://www.w3.org/2000/svg" xmlns:xlink="http://www.w3.org/1999/xlink" width="32" height="32" viewBox="0 0 32 32"><g fill="none"><g filter="url(#f1165idm)"><path fill="#97919F" d="M17.27 25.572c.05-1.837-.196-4.492-.32-5.57l-3.485-.696c.555 3.344 1.328 5.508 1.687 6.266c-1.062-.266-2.578-.172-3.765-.117l-.39 1.516c1.233.125 3.339.522 3.843.648c.562.14 2.372.085 2.43-2.047"/></g><g filter="url(#f1165idn)"><path stroke="url(#f1165id0)" stroke-width=".5" d="M14.792 20.549c.138.94.573 3.263 1.239 5.337a.5.5 0 0 1-.152.535a.55.55 0 0 1-.538.086c-.689-.243-2.053-.526-3.737-.302"/></g><path fill="url(#f1165id1)" d="M17.27 25.572c.05-1.837-.196-4.492-.32-5.57l-3.485-.696c.555 3.344 1.328 5.508 1.687 6.266c-1.062-.266-2.578-.172-3.765-.117l-.39 1.516c1.233.125 3.339.522 3.843.648c.562.14 2.372.085 2.43-2.047"/><g filter="url(#f1165ido)"><path fill="#968BA1" d="M22.764 21.064c-.137.575-.807 3.427-1.125 4.782c.573.231 1.39.668 2.067 1.007c.325.163.533.496.443.848a.26.26 0 0 1-.252.195h-3.43a.25.25 0 0 1-.25-.252l.076-7.17c-1.787.443-3.937.809-5.747.262c-1.2-.362-1.266-1.816-1.266-2.875l7.61.078a2.726 2.726 0 0 1 1.874 3.125"/></g><path fill="url(#f1165idy)" d="M22.764 21.064c-.137.575-.807 3.427-1.125 4.782c.573.231 1.39.668 2.067 1.007c.325.163.533.496.443.848a.26.26 0 0 1-.252.195h-3.43a.25.25 0 0 1-.25-.252l.076-7.17c-1.787.443-3.937.809-5.747.262c-1.2-.362-1.266-1.816-1.266-2.875l7.61.078a2.726 2.726 0 0 1 1.874 3.125"/><path fill="url(#f1165id2)" d="M22.764 21.064c-.137.575-.807 3.427-1.125 4.782c.573.231 1.39.668 2.067 1.007c.325.163.533.496.443.848a.26.26 0 0 1-.252.195h-3.43a.25.25 0 0 1-.25-.252l.076-7.17c-1.787.443-3.937.809-5.747.262c-1.2-.362-1.266-1.816-1.266-2.875l7.61.078a2.726 2.726 0 0 1 1.874 3.125"/><path fill="url(#f1165id3)" d="M20.293 20.477v-.003c-1.787.443-3.937.809-5.747.262c-1.2-.362-1.266-1.816-1.266-2.875l7.61.078q.4.139.701.337z"/><g filter="url(#f1165idp)"><path fill="#55538A" d="M20.23 26.474a6.3 6.3 0 0 1 1.413-.642l-.004.014c.433.175 1.005.466 1.55.745q.267.137.517.262c.325.163.533.496.443.848a.26.26 0 0 1-.252.195h-3.43a.25.25 0 0 1-.25-.252z"/><path fill="url(#f1165idz)" d="M20.23 26.474a6.3 6.3 0 0 1 1.413-.642l-.004.014c.433.175 1.005.466 1.55.745q.267.137.517.262c.325.163.533.496.443.848a.26.26 0 0 1-.252.195h-3.43a.25.25 0 0 1-.25-.252z"/><path fill="url(#f1165id10)" d="M20.23 26.474a6.3 6.3 0 0 1 1.413-.642l-.004.014c.433.175 1.005.466 1.55.745q.267.137.517.262c.325.163.533.496.443.848a.26.26 0 0 1-.252.195h-3.43a.25.25 0 0 1-.25-.252z"/></g><g filter="url(#f1165idq)"><path fill="#443C7F" d="m10.524 24.72l.885.75l-.406 1.5c-.39.198-1.35.654-2.063.891c-.547.183-.887.06-1.056-.083c-.078-.066-.066-.18 0-.258l2.285-2.768a.25.25 0 0 1 .355-.032"/><path fill="url(#f1165id11)" d="m10.524 24.72l.885.75l-.406 1.5c-.39.198-1.35.654-2.063.891c-.547.183-.887.06-1.056-.083c-.078-.066-.066-.18 0-.258l2.285-2.768a.25.25 0 0 1 .355-.032"/><path fill="url(#f1165id12)" d="m10.524 24.72l.885.75l-.406 1.5c-.39.198-1.35.654-2.063.891c-.547.183-.887.06-1.056-.083c-.078-.066-.066-.18 0-.258l2.285-2.768a.25.25 0 0 1 .355-.032"/></g><path fill="url(#f1165id4)" d="M0 0h1.976v2.198H0z" transform="scale(-1 1)rotate(-14.867 26.913 74.109)"/><path fill="url(#f1165id5)" d="M0 0h1.976v2.198H0z" transform="scale(-1 1)rotate(-14.867 26.913 74.109)"/><path fill="url(#f1165id13)" d="M0 0h1.976v2.198H0z" transform="scale(-1 1)rotate(-14.867 26.913 74.109)"/><path fill="url(#f1165id6)" d="M18.323 13.084c.162 1.15.094 2.636-.016 3.527v1.29h-5.031c.055-2.063.578-4.73 1.367-6.048c.664-1.11 1.422-1.176 2.055-.957c.605.184 1.422.75 1.625 2.188"/><path fill="url(#f1165id7)" d="M18.323 13.084c.162 1.15.094 2.636-.016 3.527v1.29h-5.031c.055-2.063.578-4.73 1.367-6.048c.664-1.11 1.422-1.176 2.055-.957c.605.184 1.422.75 1.625 2.188"/><path fill="url(#f1165id8)" d="M18.323 13.084c.162 1.15.094 2.636-.016 3.527v1.29h-5.031c.055-2.063.578-4.73 1.367-6.048c.664-1.11 1.422-1.176 2.055-.957c.605.184 1.422.75 1.625 2.188"/><g filter="url(#f1165idr)"><path fill="#835C5A" d="m17.315 16.033l.04-.781l-1.891-.125c-.047.664-.118 1.594.148 1.984s.765.858 2.2.945a42 42 0 0 0 3.269.032v-.18h.672l.34-.215c.038-.191-.39-.568-.79-.71c-1.254-.45-2.96-.821-3.988-.95"/><path fill="url(#f1165id9)" d="m17.315 16.033l.04-.781l-1.891-.125c-.047.664-.118 1.594.148 1.984s.765.858 2.2.945a42 42 0 0 0 3.269.032v-.18h.672l.34-.215c.038-.191-.39-.568-.79-.71c-1.254-.45-2.96-.821-3.988-.95"/></g><g filter="url(#f1165ids)"><path fill="#785451" d="m21.401 17.103l-.043.633c.233.182.452.428.603.608a.27.27 0 0 0 .346.059c.117-.072.16-.223.084-.338a3.6 3.6 0 0 0-.99-.962"/></g><g filter="url(#f1165idt)"><path fill="#785451" d="M21.448 17.701c-.325-.003-.516.178-.57.27c.271.144.499.375.65.566c.1.125.278.17.413.086a.266.266 0 0 0 .079-.39c-.257-.328-.48-.49-.572-.532"/></g><path fill="url(#f1165id14)" d="M17.724 12.569a1.261 1.261 0 0 0-2.52-.12l-.155 2.775l2.567.153z"/><path fill="url(#f1165ida)" d="M17.724 12.569a1.261 1.261 0 0 0-2.52-.12l-.155 2.775l2.567.153z"/><g filter="url(#f1165idu)"><path fill="url(#f1165id15)" d="m21.682 20.4l-.656 5.492l-.312.125l.43-5.73a.487.487 0 0 0-.482-.527c-.926-.006-3.848 0-4.542 0c-.813 0-1.094-.274-1.094-.649c1.193-.01 4.677-.025 5.664 0s1.04.862.992 1.29"/></g><path fill="url(#f1165idb)" d="M20.208 7.856a1 1 0 0 1-.258-.457h-.18v1.125c.215.137.523.115.614-.09c.078-.176.02-.394-.176-.578"/><g filter="url(#f1165idv)"><path fill="url(#f1165id16)" d="M19.984 6.892c-.039-.801-.298-1.187-.42-1.3H15.83l-.062 3.163c.866 2.122 3.511 2.213 3.906 1.446s.354-2.381.309-3.309"/><path fill="url(#f1165idc)" d="M19.984 6.892c-.039-.801-.298-1.187-.42-1.3H15.83l-.062 3.163c.866 2.122 3.511 2.213 3.906 1.446s.354-2.381.309-3.309"/><path fill="url(#f1165idd)" d="M19.984 6.892c-.039-.801-.298-1.187-.42-1.3H15.83l-.062 3.163c.866 2.122 3.511 2.213 3.906 1.446s.354-2.381.309-3.309"/><path fill="url(#f1165ide)" d="M19.984 6.892c-.039-.801-.298-1.187-.42-1.3H15.83l-.062 3.163c.866 2.122 3.511 2.213 3.906 1.446s.354-2.381.309-3.309"/></g><g filter="url(#f1165idw)"><path fill="url(#f1165idf)" d="M19.345 6.14c.656 0 .969-.372 1-.837c0-.656-.501-.795-.695-.816c-.22-.024-.305-.047-.61-.262a.9.9 0 0 0-.91-.098c-.148.07-.476.106-.71.035c-.391-.117-.696-.113-.997.118c-.209.16-.363.16-.613.16c-.344 0-.636.154-.856.32c-.657.498-.582 2.207-.258 3.168c.31.92.778 1.027 1.168.992c.47-.042.59-.398.66-.695c.057-.238.201-.99.266-1.238c.136-.062.431-.085.532-.473c.1-.387.492-.432.757-.406c.162.015.61.031 1.266.031"/><path fill="url(#f1165idg)" d="M19.345 6.14c.656 0 .969-.372 1-.837c0-.656-.501-.795-.695-.816c-.22-.024-.305-.047-.61-.262a.9.9 0 0 0-.91-.098c-.148.07-.476.106-.71.035c-.391-.117-.696-.113-.997.118c-.209.16-.363.16-.613.16c-.344 0-.636.154-.856.32c-.657.498-.582 2.207-.258 3.168c.31.92.778 1.027 1.168.992c.47-.042.59-.398.66-.695c.057-.238.201-.99.266-1.238c.136-.062.431-.085.532-.473c.1-.387.492-.432.757-.406c.162.015.61.031 1.266.031"/><path fill="url(#f1165idh)" d="M19.345 6.14c.656 0 .969-.372 1-.837c0-.656-.501-.795-.695-.816c-.22-.024-.305-.047-.61-.262a.9.9 0 0 0-.91-.098c-.148.07-.476.106-.71.035c-.391-.117-.696-.113-.997.118c-.209.16-.363.16-.613.16c-.344 0-.636.154-.856.32c-.657.498-.582 2.207-.258 3.168c.31.92.778 1.027 1.168.992c.47-.042.59-.398.66-.695c.057-.238.201-.99.266-1.238c.136-.062.431-.085.532-.473c.1-.387.492-.432.757-.406c.162.015.61.031 1.266.031"/></g><path fill="url(#f1165idi)" d="m17.213 8.346l-.2-1.439a.727.727 0 0 0 .2 1.44"/><path fill="url(#f1165idj)" d="m17.213 8.346l-.2-1.439a.727.727 0 0 0 .2 1.44"/><path fill="url(#f1165id17)" d="m17.213 8.346l-.2-1.439a.727.727 0 0 0 .2 1.44"/><path fill="#86004C" fill-rule="evenodd" d="M18.732 8.8a.125.125 0 0 0 .002.176c.238.234.582.294.692.305a.125.125 0 1 0 .025-.249c-.093-.01-.366-.061-.542-.234a.125.125 0 0 0-.177.002" clip-rule="evenodd"/><path fill="#fff" d="M19.478 7.686h-.989c0-.392.221-.709.494-.709s.494.317.494.709"/><path fill="url(#f1165idk)" d="M18.872 7.686v-.004c0-.32.137-.58.307-.58s.306.26.306.58v.004z"/><path fill="url(#f1165idl)" d="m19.068 7.686l-.005-.072c0-.186.08-.336.176-.336c.097 0 .176.15.176.336l-.004.072z"/><ellipse cx=".064" cy=".088" fill="url(#f1165id18)" rx=".064" ry=".088" transform="scale(-1 1)rotate(24.61 -26.23 -40.685)"/><g filter="url(#f1165idx)"><path fill="#403235" fill-rule="evenodd" d="M18.708 6.829c.147-.106.363-.111.5-.111a.2.2 0 1 0 0-.4h-.01c-.128 0-.463 0-.723.186a.2.2 0 0 0 .233.325" clip-rule="evenodd"/></g><defs><radialGradient id="f1165id0" cx="0" cy="0" r="1" gradientTransform="rotate(-130.67 14.029 9.627)scale(5.34656 3.97082)" gradientUnits="userSpaceOnUse"><stop stop-color="#A49DAC"/><stop offset="1" stop-color="#A49DAC" stop-opacity="0"/></radialGradient><radialGradient id="f1165id1" cx="0" cy="0" r="1" gradientTransform="matrix(.53125 3.29646 -1.78135 .28708 15.776 20.19)" gradientUnits="userSpaceOnUse"><stop offset=".189" stop-color="#6A5A7A"/><stop offset="1" stop-color="#766B81" stop-opacity="0"/></radialGradient><radialGradient id="f1165id2" cx="0" cy="0" r="1" gradientTransform="matrix(0 1.03125 -5.37969 0 19.151 17.861)" gradientUnits="userSpaceOnUse"><stop offset=".167" stop-color="#774E55"/><stop offset="1" stop-color="#8F7C7F" stop-opacity="0"/></radialGradient><radialGradient id="f1165id3" cx="0" cy="0" r="1" gradientTransform="matrix(.1094 3.14063 -8.2876 .28869 17.557 17.97)" gradientUnits="userSpaceOnUse"><stop offset=".558" stop-color="#857297" stop-opacity="0"/><stop offset=".971" stop-color="#7E5E9A"/></radialGradient><radialGradient id="f1165id4" cx="0" cy="0" r="1" gradientTransform="matrix(1.75062 .2869 -.80955 4.93989 .09 1.583)" gradientUnits="userSpaceOnUse"><stop offset=".194" stop-color="#774B48"/><stop offset="1" stop-color="#8D6C64"/></radialGradient><radialGradient id="f1165id5" cx="0" cy="0" r="1" gradientTransform="rotate(117.861 .923 .84)scale(.83385 .74963)" gradientUnits="userSpaceOnUse"><stop stop-color="#744F48"/><stop offset="1" stop-color="#744F48" stop-opacity="0"/></radialGradient><radialGradient id="f1165id6" cx="0" cy="0" r="1" gradientTransform="matrix(3.45312 4 -4.99487 4.31198 14.323 13.486)" gradientUnits="userSpaceOnUse"><stop offset=".317" stop-color="#45A7F8"/><stop offset="1" stop-color="#3370B9"/></radialGradient><radialGradient id="f1165id7" cx="0" cy="0" r="1" gradientTransform="matrix(2.03122 3.14064 -3.13218 2.02576 14.76 11.612)" gradientUnits="userSpaceOnUse"><stop stop-color="#4AA9EE"/><stop offset="1" stop-color="#4AA9EE" stop-opacity="0"/></radialGradient><radialGradient id="f1165id8" cx="0" cy="0" r="1" gradientTransform="matrix(3.73437 .23436 -.4261 6.78981 14.837 15.235)" gradientUnits="userSpaceOnUse"><stop offset=".563" stop-color="#4B77AF" stop-opacity="0"/><stop offset="1" stop-color="#4B77AF"/></radialGradient><radialGradient id="f1165id9" cx="0" cy="0" r="1" gradientTransform="matrix(-.125 2.34375 -.8049 -.04293 15.651 15.23)" gradientUnits="userSpaceOnUse"><stop offset=".238" stop-color="#906964"/><stop offset="1" stop-color="#906964" stop-opacity="0"/></radialGradient><radialGradient id="f1165ida" cx="0" cy="0" r="1" gradientTransform="matrix(1.28125 1.04686 -.99542 1.2183 15.203 11.611)" gradientUnits="userSpaceOnUse"><stop stop-color="#4BA6ED"/><stop offset="1" stop-color="#4BA6ED" stop-opacity="0"/></radialGradient><radialGradient id="f1165idb" cx="0" cy="0" r="1" gradientTransform="rotate(151.587 9.2 6.741)scale(.54183 .76481)" gradientUnits="userSpaceOnUse"><stop offset=".101" stop-color="#9E746B"/><stop offset=".684" stop-color="#8A5752"/></radialGradient><radialGradient id="f1165idc" cx="0" cy="0" r="1" gradientTransform="matrix(.84375 -.04687 .05715 1.0287 16.837 7.59)" gradientUnits="userSpaceOnUse"><stop offset=".156" stop-color="#794B40"/><stop offset="1" stop-color="#794B40" stop-opacity="0"/></radialGradient><radialGradient id="f1165idd" cx="0" cy="0" r="1" gradientTransform="matrix(0 -5.1875 1.40625 0 19.733 8.778)" gradientUnits="userSpaceOnUse"><stop offset=".163" stop-color="#9D726C"/><stop offset="1" stop-color="#9A7468" stop-opacity="0"/></radialGradient><radialGradient id="f1165ide" cx="0" cy="0" r="1" gradientTransform="matrix(0 .39063 -.60919 0 18.905 7.637)" gradientUnits="userSpaceOnUse"><stop offset=".155" stop-color="#845A4E"/><stop offset="1" stop-color="#845A4E" stop-opacity="0"/></radialGradient><radialGradient id="f1165idf" cx="0" cy="0" r="1" gradientTransform="matrix(3.4375 3.125 -3.54355 3.8979 14.962 4.928)" gradientUnits="userSpaceOnUse"><stop offset=".363" stop-color="#35232C"/><stop offset="1" stop-color="#2A1528"/></radialGradient><radialGradient id="f1165idg" cx="0" cy="0" r="1" gradientTransform="matrix(-.39452 2.68273 -1.18513 -.17428 15.069 5.678)" gradientUnits="userSpaceOnUse"><stop offset=".106" stop-color="#3F3035"/><stop offset="1" stop-color="#3F3035" stop-opacity="0"/></radialGradient><radialGradient id="f1165idh" cx="0" cy="0" r="1" gradientTransform="matrix(-1.5 -.09374 .18396 -2.94358 20.259 5.543)" gradientUnits="userSpaceOnUse"><stop offset=".218" stop-color="#514342"/><stop offset="1" stop-color="#514342" stop-opacity="0"/></radialGradient><radialGradient id="f1165idi" cx="0" cy="0" r="1" gradientTransform="rotate(-163.812 9.062 2.523)scale(.75656 .36927)" gradientUnits="userSpaceOnUse"><stop offset=".17" stop-color="#917169"/><stop offset="1" stop-color="#7F5A4D"/></radialGradient><radialGradient id="f1165idj" cx="0" cy="0" r="1" gradientTransform="rotate(100.843 5.55 10.625)scale(1.20119 1.25169)" gradientUnits="userSpaceOnUse"><stop offset=".716" stop-color="#7B4845" stop-opacity="0"/><stop offset="1" stop-color="#7B4845"/></radialGradient><radialGradient id="f1165idk" cx="0" cy="0" r="1" gradientTransform="matrix(-.27344 0 0 -.53125 19.2 7.665)" gradientUnits="userSpaceOnUse"><stop offset=".895" stop-color="#916A62"/><stop offset="1" stop-color="#824D44"/></radialGradient><radialGradient id="f1165idl" cx="0" cy="0" r="1" gradientTransform="matrix(-.25 0 0 -.54102 19.368 7.686)" gradientUnits="userSpaceOnUse"><stop stop-color="#666361"/><stop offset=".813" stop-color="#565352"/></radialGradient><filter id="f1165idm" width="7.28" height="8.609" x="10.996" y="19.056" color-interpolation-filters="sRGB" filterUnits="userSpaceOnUse"><feFlood flood-opacity="0" result="BackgroundImageFix"/><feBlend in="SourceGraphic" in2="BackgroundImageFix" result="shape"/><feColorMatrix in="SourceAlpha" result="hardAlpha" values="0 0 0 0 0 0 0 0 0 0 0 0 0 0 0 0 0 0 127 0"/><feOffset dx=".25" dy="-.25"/><feGaussianBlur stdDeviation=".375"/><feComposite in2="hardAlpha" k2="-1" k3="1" operator="arithmetic"/><feColorMatrix values="0 0 0 0 0.517647 0 0 0 0 0.384314 0 0 0 0 0.635294 0 0 0 1 0"/><feBlend in2="shape" result="effect1_innerShadow_2_2073"/><feColorMatrix in="SourceAlpha" result="hardAlpha" values="0 0 0 0 0 0 0 0 0 0 0 0 0 0 0 0 0 0 127 0"/><feOffset dx="1"/><feGaussianBlur stdDeviation=".5"/><feComposite in2="hardAlpha" k2="-1" k3="1" operator="arithmetic"/><feColorMatrix values="0 0 0 0 0.494118 0 0 0 0 0.466667 0 0 0 0 0.521569 0 0 0 1 0"/><feBlend in2="effect1_innerShadow_2_2073" result="effect2_innerShadow_2_2073"/></filter><filter id="f1165idn" width="5.734" height="7.279" x="11.071" y="20.012" color-interpolation-filters="sRGB" filterUnits="userSpaceOnUse"><feFlood flood-opacity="0" result="BackgroundImageFix"/><feBlend in="SourceGraphic" in2="BackgroundImageFix" result="shape"/><feGaussianBlur result="effect1_foregroundBlur_2_2073" stdDeviation=".25"/></filter><filter id="f1165ido" width="11.64" height="10.135" x="13.28" y="17.861" color-interpolation-filters="sRGB" filterUnits="userSpaceOnUse"><feFlood flood-opacity="0" result="BackgroundImageFix"/><feBlend in="SourceGraphic" in2="BackgroundImageFix" result="shape"/><feColorMatrix in="SourceAlpha" result="hardAlpha" values="0 0 0 0 0 0 0 0 0 0 0 0 0 0 0 0 0 0 127 0"/><feOffset dx=".75" dy=".1"/><feGaussianBlur stdDeviation=".375"/><feComposite in2="hardAlpha" k2="-1" k3="1" operator="arithmetic"/><feColorMatrix values="0 0 0 0 0.517647 0 0 0 0 0.490196 0 0 0 0 0.545098 0 0 0 1 0"/><feBlend in2="shape" result="effect1_innerShadow_2_2073"/></filter><filter id="f1165idp" width="4.352" height="2.364" x="20.218" y="25.832" color-interpolation-filters="sRGB" filterUnits="userSpaceOnUse"><feFlood flood-opacity="0" result="BackgroundImageFix"/><feBlend in="SourceGraphic" in2="BackgroundImageFix" result="shape"/><feColorMatrix in="SourceAlpha" result="hardAlpha" values="0 0 0 0 0 0 0 0 0 0 0 0 0 0 0 0 0 0 127 0"/><feOffset dx=".4" dy=".3"/><feGaussianBlur stdDeviation=".25"/><feComposite in2="hardAlpha" k2="-1" k3="1" operator="arithmetic"/><feColorMatrix values="0 0 0 0 0.254902 0 0 0 0 0.254902 0 0 0 0 0.443137 0 0 0 1 0"/><feBlend in2="shape" result="effect1_innerShadow_2_2073"/></filter><filter id="f1165idq" width="3.579" height="3.542" x="7.83" y="24.411" color-interpolation-filters="sRGB" filterUnits="userSpaceOnUse"><feFlood flood-opacity="0" result="BackgroundImageFix"/><feBlend in="SourceGraphic" in2="BackgroundImageFix" result="shape"/><feColorMatrix in="SourceAlpha" result="hardAlpha" values="0 0 0 0 0 0 0 0 0 0 0 0 0 0 0 0 0 0 127 0"/><feOffset dy="-.25"/><feGaussianBlur stdDeviation=".25"/><feComposite in2="hardAlpha" k2="-1" k3="1" operator="arithmetic"/><feColorMatrix values="0 0 0 0 0.247059 0 0 0 0 0.168627 0 0 0 0 0.486275 0 0 0 1 0"/><feBlend in2="shape" result="effect1_innerShadow_2_2073"/></filter><filter id="f1165idr" width="6.876" height="3.179" x="15.419" y="14.927" color-interpolation-filters="sRGB" filterUnits="userSpaceOnUse"><feFlood flood-opacity="0" result="BackgroundImageFix"/><feBlend in="SourceGraphic" in2="BackgroundImageFix" result="shape"/><feColorMatrix in="SourceAlpha" result="hardAlpha" values="0 0 0 0 0 0 0 0 0 0 0 0 0 0 0 0 0 0 127 0"/><feOffset dx=".2" dy="-.2"/><feGaussianBlur stdDeviation=".5"/><feComposite in2="hardAlpha" k2="-1" k3="1" operator="arithmetic"/><feColorMatrix values="0 0 0 0 0.478431 0 0 0 0 0.345098 0 0 0 0 0.298039 0 0 0 1 0"/><feBlend in2="shape" result="effect1_innerShadow_2_2073"/><feColorMatrix in="SourceAlpha" result="hardAlpha" values="0 0 0 0 0 0 0 0 0 0 0 0 0 0 0 0 0 0 127 0"/><feOffset dy="-.1"/><feGaussianBlur stdDeviation=".25"/><feComposite in2="hardAlpha" k2="-1" k3="1" operator="arithmetic"/><feColorMatrix values="0 0 0 0 0.482353 0 0 0 0 0.278431 0 0 0 0 0.388235 0 0 0 1 0"/><feBlend in2="effect1_innerShadow_2_2073" result="effect2_innerShadow_2_2073"/></filter><filter id="f1165ids" width="1.071" height="1.439" x="21.358" y="17.003" color-interpolation-filters="sRGB" filterUnits="userSpaceOnUse"><feFlood flood-opacity="0" result="BackgroundImageFix"/><feBlend in="SourceGraphic" in2="BackgroundImageFix" result="shape"/><feColorMatrix in="SourceAlpha" result="hardAlpha" values="0 0 0 0 0 0 0 0 0 0 0 0 0 0 0 0 0 0 127 0"/><feOffset dy="-.1"/><feGaussianBlur stdDeviation=".125"/><feComposite in2="hardAlpha" k2="-1" k3="1" operator="arithmetic"/><feColorMatrix values="0 0 0 0 0.478431 0 0 0 0 0.290196 0 0 0 0 0.396078 0 0 0 1 0"/><feBlend in2="shape" result="effect1_innerShadow_2_2073"/></filter><filter id="f1165idt" width="1.196" height="1.065" x="20.878" y="17.601" color-interpolation-filters="sRGB" filterUnits="userSpaceOnUse"><feFlood flood-opacity="0" result="BackgroundImageFix"/><feBlend in="SourceGraphic" in2="BackgroundImageFix" result="shape"/><feColorMatrix in="SourceAlpha" result="hardAlpha" values="0 0 0 0 0 0 0 0 0 0 0 0 0 0 0 0 0 0 127 0"/><feOffset dy="-.1"/><feGaussianBlur stdDeviation=".125"/><feComposite in2="hardAlpha" k2="-1" k3="1" operator="arithmetic"/><feColorMatrix values="0 0 0 0 0.478431 0 0 0 0 0.290196 0 0 0 0 0.396078 0 0 0 1 0"/><feBlend in2="shape" result="effect1_innerShadow_2_2073"/></filter><filter id="f1165idu" width="8.168" height="8.42" x="14.276" y="18.347" color-interpolation-filters="sRGB" filterUnits="userSpaceOnUse"><feFlood flood-opacity="0" result="BackgroundImageFix"/><feBlend in="SourceGraphic" in2="BackgroundImageFix" result="shape"/><feGaussianBlur result="effect1_foregroundBlur_2_2073" stdDeviation=".375"/></filter><filter id="f1165idv" width="4.443" height="5.249" x="15.569" y="5.392" color-interpolation-filters="sRGB" filterUnits="userSpaceOnUse"><feFlood flood-opacity="0" result="BackgroundImageFix"/><feBlend in="SourceGraphic" in2="BackgroundImageFix" result="shape"/><feColorMatrix in="SourceAlpha" result="hardAlpha" values="0 0 0 0 0 0 0 0 0 0 0 0 0 0 0 0 0 0 127 0"/><feOffset dx="-.2" dy="-.2"/><feGaussianBlur stdDeviation=".5"/><feComposite in2="hardAlpha" k2="-1" k3="1" operator="arithmetic"/><feColorMatrix values="0 0 0 0 0.466667 0 0 0 0 0.278431 0 0 0 0 0.372549 0 0 0 1 0"/><feBlend in2="shape" result="effect1_innerShadow_2_2073"/></filter><filter id="f1165idw" width="6.391" height="5.479" x="14.154" y="3.747" color-interpolation-filters="sRGB" filterUnits="userSpaceOnUse"><feFlood flood-opacity="0" result="BackgroundImageFix"/><feBlend in="SourceGraphic" in2="BackgroundImageFix" result="shape"/><feColorMatrix in="SourceAlpha" result="hardAlpha" values="0 0 0 0 0 0 0 0 0 0 0 0 0 0 0 0 0 0 127 0"/><feOffset dx="-.3" dy=".3"/><feGaussianBlur stdDeviation=".3"/><feComposite in2="hardAlpha" k2="-1" k3="1" operator="arithmetic"/><feColorMatrix values="0 0 0 0 0.262745 0 0 0 0 0.211765 0 0 0 0 0.227451 0 0 0 1 0"/><feBlend in2="shape" result="effect1_innerShadow_2_2073"/><feColorMatrix in="SourceAlpha" result="hardAlpha" values="0 0 0 0 0 0 0 0 0 0 0 0 0 0 0 0 0 0 127 0"/><feOffset dx=".2" dy="-.3"/><feGaussianBlur stdDeviation=".375"/><feComposite in2="hardAlpha" k2="-1" k3="1" operator="arithmetic"/><feColorMatrix values="0 0 0 0 0.168627 0 0 0 0 0.0862745 0 0 0 0 0.105882 0 0 0 1 0"/><feBlend in2="effect1_innerShadow_2_2073" result="effect2_innerShadow_2_2073"/></filter><filter id="f1165idx" width="1.117" height=".648" x="18.291" y="6.318" color-interpolation-filters="sRGB" filterUnits="userSpaceOnUse"><feFlood flood-opacity="0" result="BackgroundImageFix"/><feBlend in="SourceGraphic" in2="BackgroundImageFix" result="shape"/><feColorMatrix in="SourceAlpha" result="hardAlpha" values="0 0 0 0 0 0 0 0 0 0 0 0 0 0 0 0 0 0 127 0"/><feOffset dx="-.1" dy=".1"/><feGaussianBlur stdDeviation=".1"/><feComposite in2="hardAlpha" k2="-1" k3="1" operator="arithmetic"/><feColorMatrix values="0 0 0 0 0.219608 0 0 0 0 0.168627 0 0 0 0 0.180392 0 0 0 1 0"/><feBlend in2="shape" result="effect1_innerShadow_2_2073"/></filter><linearGradient id="f1165idy" x1="15.214" x2="15.214" y1="17.767" y2="18.299" gradientUnits="userSpaceOnUse"><stop stop-color="#897694"/><stop offset="1" stop-color="#897694" stop-opacity="0"/></linearGradient><linearGradient id="f1165idz" x1="20.089" x2="21.073" y1="27.033" y2="27.033" gradientUnits="userSpaceOnUse"><stop stop-color="#605F91"/><stop offset="1" stop-color="#605F91" stop-opacity="0"/></linearGradient><linearGradient id="f1165id10" x1="21.526" x2="21.526" y1="27.896" y2="27.525" gradientUnits="userSpaceOnUse"><stop stop-color="#3F2D7E"/><stop offset="1" stop-color="#3F2D7E" stop-opacity="0"/></linearGradient><linearGradient id="f1165id11" x1="11.064" x2="10.378" y1="24.986" y2="25.65" gradientUnits="userSpaceOnUse"><stop stop-color="#3F3E62"/><stop offset="1" stop-color="#3F3E62" stop-opacity="0"/></linearGradient><linearGradient id="f1165id12" x1="8.917" x2="9.132" y1="26.189" y2="26.361" gradientUnits="userSpaceOnUse"><stop offset=".098" stop-color="#60608E"/><stop offset="1" stop-color="#60608E" stop-opacity="0"/></linearGradient><linearGradient id="f1165id13" x1="-.003" x2=".233" y1="1.875" y2="1.869" gradientUnits="userSpaceOnUse"><stop stop-color="#865F5B"/><stop offset="1" stop-color="#865F5B" stop-opacity="0"/></linearGradient><linearGradient id="f1165id14" x1="15.235" x2="17.725" y1="14.236" y2="14.314" gradientUnits="userSpaceOnUse"><stop stop-color="#439FF0"/><stop offset="1" stop-color="#3A78C3"/></linearGradient><linearGradient id="f1165id15" x1="21.694" x2="15.213" y1="24.783" y2="18.846" gradientUnits="userSpaceOnUse"><stop offset=".552" stop-color="#A098A8"/><stop offset="1" stop-color="#A098A8" stop-opacity="0"/></linearGradient><linearGradient id="f1165id16" x1="17.149" x2="20.012" y1="8.332" y2="8.504" gradientUnits="userSpaceOnUse"><stop stop-color="#825756"/><stop offset="1" stop-color="#875D51"/></linearGradient><linearGradient id="f1165id17" x1="17.163" x2="16.882" y1="7.508" y2="7.586" gradientUnits="userSpaceOnUse"><stop stop-color="#8A655B"/><stop offset="1" stop-color="#825C51" stop-opacity="0"/></linearGradient><linearGradient id="f1165id18" x1="-.007" x2=".179" y1=".05" y2=".11" gradientUnits="userSpaceOnUse"><stop stop-color="#fff"/><stop offset="1" stop-color="#fff" stop-opacity="0"/></linearGradient></defs></g></svg>