<svg xmlns="http://www.w3.org/2000/svg" xmlns:xlink="http://www.w3.org/1999/xlink" width="32" height="32" viewBox="0 0 32 32"><g fill="none"><path fill="url(#f1464idd)" d="M7.397 2.893a3.07 3.07 0 0 0-4.33 0a3.084 3.084 0 0 0 0 4.34l8.218 8.213a.75.75 0 0 1 0 1.06l-8.208 8.217a3.07 3.07 0 0 0 0 4.33a3.07 3.07 0 0 0 4.33 0l8.211-8.215a.75.75 0 0 1 1.06 0l8.21 8.205a3.07 3.07 0 0 0 4.33 0a3.07 3.07 0 0 0 0-4.33l-8.208-8.208a.75.75 0 0 1 0-1.06l8.217-8.222a3.07 3.07 0 0 0 0-4.33c-1.2-1.19-3.15-1.19-4.34 0l-8.21 8.218a.75.75 0 0 1-1.061 0z"/><path fill="url(#f1464ide)" d="M7.397 2.893a3.07 3.07 0 0 0-4.33 0a3.084 3.084 0 0 0 0 4.34l8.218 8.213a.75.75 0 0 1 0 1.06l-8.208 8.217a3.07 3.07 0 0 0 0 4.33a3.07 3.07 0 0 0 4.33 0l8.211-8.215a.75.75 0 0 1 1.06 0l8.21 8.205a3.07 3.07 0 0 0 4.33 0a3.07 3.07 0 0 0 0-4.33l-8.208-8.208a.75.75 0 0 1 0-1.06l8.217-8.222a3.07 3.07 0 0 0 0-4.33c-1.2-1.19-3.15-1.19-4.34 0l-8.21 8.218a.75.75 0 0 1-1.061 0z"/><path fill="url(#f1464id0)" d="M7.397 2.893a3.07 3.07 0 0 0-4.33 0a3.084 3.084 0 0 0 0 4.34l8.218 8.213a.75.75 0 0 1 0 1.06l-8.208 8.217a3.07 3.07 0 0 0 0 4.33a3.07 3.07 0 0 0 4.33 0l8.211-8.215a.75.75 0 0 1 1.06 0l8.21 8.205a3.07 3.07 0 0 0 4.33 0a3.07 3.07 0 0 0 0-4.33l-8.208-8.208a.75.75 0 0 1 0-1.06l8.217-8.222a3.07 3.07 0 0 0 0-4.33c-1.2-1.19-3.15-1.19-4.34 0l-8.21 8.218a.75.75 0 0 1-1.061 0z"/><path fill="url(#f1464id1)" d="M7.397 2.893a3.07 3.07 0 0 0-4.33 0a3.084 3.084 0 0 0 0 4.34l8.218 8.213a.75.75 0 0 1 0 1.06l-8.208 8.217a3.07 3.07 0 0 0 0 4.33a3.07 3.07 0 0 0 4.33 0l8.211-8.215a.75.75 0 0 1 1.06 0l8.21 8.205a3.07 3.07 0 0 0 4.33 0a3.07 3.07 0 0 0 0-4.33l-8.208-8.208a.75.75 0 0 1 0-1.06l8.217-8.222a3.07 3.07 0 0 0 0-4.33c-1.2-1.19-3.15-1.19-4.34 0l-8.21 8.218a.75.75 0 0 1-1.061 0z"/><path fill="url(#f1464id2)" d="M7.397 2.893a3.07 3.07 0 0 0-4.33 0a3.084 3.084 0 0 0 0 4.34l8.218 8.213a.75.75 0 0 1 0 1.06l-8.208 8.217a3.07 3.07 0 0 0 0 4.33a3.07 3.07 0 0 0 4.33 0l8.211-8.215a.75.75 0 0 1 1.06 0l8.21 8.205a3.07 3.07 0 0 0 4.33 0a3.07 3.07 0 0 0 0-4.33l-8.208-8.208a.75.75 0 0 1 0-1.06l8.217-8.222a3.07 3.07 0 0 0 0-4.33c-1.2-1.19-3.15-1.19-4.34 0l-8.21 8.218a.75.75 0 0 1-1.061 0z"/><path fill="url(#f1464id3)" d="M7.397 2.893a3.07 3.07 0 0 0-4.33 0a3.084 3.084 0 0 0 0 4.34l8.218 8.213a.75.75 0 0 1 0 1.06l-8.208 8.217a3.07 3.07 0 0 0 0 4.33a3.07 3.07 0 0 0 4.33 0l8.211-8.215a.75.75 0 0 1 1.06 0l8.21 8.205a3.07 3.07 0 0 0 4.33 0a3.07 3.07 0 0 0 0-4.33l-8.208-8.208a.75.75 0 0 1 0-1.06l8.217-8.222a3.07 3.07 0 0 0 0-4.33c-1.2-1.19-3.15-1.19-4.34 0l-8.21 8.218a.75.75 0 0 1-1.061 0z"/><path fill="url(#f1464id4)" d="M7.397 2.893a3.07 3.07 0 0 0-4.33 0a3.084 3.084 0 0 0 0 4.34l8.218 8.213a.75.75 0 0 1 0 1.06l-8.208 8.217a3.07 3.07 0 0 0 0 4.33a3.07 3.07 0 0 0 4.33 0l8.211-8.215a.75.75 0 0 1 1.06 0l8.21 8.205a3.07 3.07 0 0 0 4.33 0a3.07 3.07 0 0 0 0-4.33l-8.208-8.208a.75.75 0 0 1 0-1.06l8.217-8.222a3.07 3.07 0 0 0 0-4.33c-1.2-1.19-3.15-1.19-4.34 0l-8.21 8.218a.75.75 0 0 1-1.061 0z"/><path fill="url(#f1464id5)" d="M7.397 2.893a3.07 3.07 0 0 0-4.33 0a3.084 3.084 0 0 0 0 4.34l8.218 8.213a.75.75 0 0 1 0 1.06l-8.208 8.217a3.07 3.07 0 0 0 0 4.33a3.07 3.07 0 0 0 4.33 0l8.211-8.215a.75.75 0 0 1 1.06 0l8.21 8.205a3.07 3.07 0 0 0 4.33 0a3.07 3.07 0 0 0 0-4.33l-8.208-8.208a.75.75 0 0 1 0-1.06l8.217-8.222a3.07 3.07 0 0 0 0-4.33c-1.2-1.19-3.15-1.19-4.34 0l-8.21 8.218a.75.75 0 0 1-1.061 0z"/><path fill="url(#f1464id6)" d="M7.397 2.893a3.07 3.07 0 0 0-4.33 0a3.084 3.084 0 0 0 0 4.34l8.218 8.213a.75.75 0 0 1 0 1.06l-8.208 8.217a3.07 3.07 0 0 0 0 4.33a3.07 3.07 0 0 0 4.33 0l8.211-8.215a.75.75 0 0 1 1.06 0l8.21 8.205a3.07 3.07 0 0 0 4.33 0a3.07 3.07 0 0 0 0-4.33l-8.208-8.208a.75.75 0 0 1 0-1.06l8.217-8.222a3.07 3.07 0 0 0 0-4.33c-1.2-1.19-3.15-1.19-4.34 0l-8.21 8.218a.75.75 0 0 1-1.061 0z"/><path fill="url(#f1464id7)" d="M7.397 2.893a3.07 3.07 0 0 0-4.33 0a3.084 3.084 0 0 0 0 4.34l8.218 8.213a.75.75 0 0 1 0 1.06l-8.208 8.217a3.07 3.07 0 0 0 0 4.33a3.07 3.07 0 0 0 4.33 0l8.211-8.215a.75.75 0 0 1 1.06 0l8.21 8.205a3.07 3.07 0 0 0 4.33 0a3.07 3.07 0 0 0 0-4.33l-8.208-8.208a.75.75 0 0 1 0-1.06l8.217-8.222a3.07 3.07 0 0 0 0-4.33c-1.2-1.19-3.15-1.19-4.34 0l-8.21 8.218a.75.75 0 0 1-1.061 0z"/><path fill="url(#f1464id8)" d="M7.397 2.893a3.07 3.07 0 0 0-4.33 0a3.084 3.084 0 0 0 0 4.34l8.218 8.213a.75.75 0 0 1 0 1.06l-8.208 8.217a3.07 3.07 0 0 0 0 4.33a3.07 3.07 0 0 0 4.33 0l8.211-8.215a.75.75 0 0 1 1.06 0l8.21 8.205a3.07 3.07 0 0 0 4.33 0a3.07 3.07 0 0 0 0-4.33l-8.208-8.208a.75.75 0 0 1 0-1.06l8.217-8.222a3.07 3.07 0 0 0 0-4.33c-1.2-1.19-3.15-1.19-4.34 0l-8.21 8.218a.75.75 0 0 1-1.061 0z"/><path fill="url(#f1464id9)" d="M7.397 2.893a3.07 3.07 0 0 0-4.33 0a3.084 3.084 0 0 0 0 4.34l8.218 8.213a.75.75 0 0 1 0 1.06l-8.208 8.217a3.07 3.07 0 0 0 0 4.33a3.07 3.07 0 0 0 4.33 0l8.211-8.215a.75.75 0 0 1 1.06 0l8.21 8.205a3.07 3.07 0 0 0 4.33 0a3.07 3.07 0 0 0 0-4.33l-8.208-8.208a.75.75 0 0 1 0-1.06l8.217-8.222a3.07 3.07 0 0 0 0-4.33c-1.2-1.19-3.15-1.19-4.34 0l-8.21 8.218a.75.75 0 0 1-1.061 0z"/><path fill="url(#f1464ida)" d="M7.397 2.893a3.07 3.07 0 0 0-4.33 0a3.084 3.084 0 0 0 0 4.34l8.218 8.213a.75.75 0 0 1 0 1.06l-8.208 8.217a3.07 3.07 0 0 0 0 4.33a3.07 3.07 0 0 0 4.33 0l8.211-8.215a.75.75 0 0 1 1.06 0l8.21 8.205a3.07 3.07 0 0 0 4.33 0a3.07 3.07 0 0 0 0-4.33l-8.208-8.208a.75.75 0 0 1 0-1.06l8.217-8.222a3.07 3.07 0 0 0 0-4.33c-1.2-1.19-3.15-1.19-4.34 0l-8.21 8.218a.75.75 0 0 1-1.061 0z"/><path fill="url(#f1464idb)" d="M7.397 2.893a3.07 3.07 0 0 0-4.33 0a3.084 3.084 0 0 0 0 4.34l8.218 8.213a.75.75 0 0 1 0 1.06l-8.208 8.217a3.07 3.07 0 0 0 0 4.33a3.07 3.07 0 0 0 4.33 0l8.211-8.215a.75.75 0 0 1 1.06 0l8.21 8.205a3.07 3.07 0 0 0 4.33 0a3.07 3.07 0 0 0 0-4.33l-8.208-8.208a.75.75 0 0 1 0-1.06l8.217-8.222a3.07 3.07 0 0 0 0-4.33c-1.2-1.19-3.15-1.19-4.34 0l-8.21 8.218a.75.75 0 0 1-1.061 0z"/><path fill="url(#f1464idc)" d="M7.397 2.893a3.07 3.07 0 0 0-4.33 0a3.084 3.084 0 0 0 0 4.34l8.218 8.213a.75.75 0 0 1 0 1.06l-8.208 8.217a3.07 3.07 0 0 0 0 4.33a3.07 3.07 0 0 0 4.33 0l8.211-8.215a.75.75 0 0 1 1.06 0l8.21 8.205a3.07 3.07 0 0 0 4.33 0a3.07 3.07 0 0 0 0-4.33l-8.208-8.208a.75.75 0 0 1 0-1.06l8.217-8.222a3.07 3.07 0 0 0 0-4.33c-1.2-1.19-3.15-1.19-4.34 0l-8.21 8.218a.75.75 0 0 1-1.061 0z"/><defs><radialGradient id="f1464id0" cx="0" cy="0" r="1" gradientTransform="matrix(1.62263 -1.62947 2.15859 2.14952 28.497 4.055)" gradientUnits="userSpaceOnUse"><stop offset=".177" stop-color="#A398D8"/><stop offset="1" stop-color="#8A7ACC" stop-opacity="0"/></radialGradient><radialGradient id="f1464id1" cx="0" cy="0" r="1" gradientTransform="matrix(0 4.29106 -7.95896 0 16.147 15.209)" gradientUnits="userSpaceOnUse"><stop offset=".271" stop-color="#7867BA"/><stop offset="1" stop-color="#7866BA" stop-opacity="0"/></radialGradient><radialGradient id="f1464id2" cx="0" cy="0" r="1" gradientTransform="rotate(90 -1.5 16)scale(3)" gradientUnits="userSpaceOnUse"><stop offset=".271" stop-color="#7867BA"/><stop offset="1" stop-color="#7866BA" stop-opacity="0"/></radialGradient><radialGradient id="f1464id3" cx="0" cy="0" r="1" gradientTransform="matrix(-1.5 2 -2 -1.5 18.5 14)" gradientUnits="userSpaceOnUse"><stop offset=".271" stop-color="#7867BA"/><stop offset="1" stop-color="#7866BA" stop-opacity="0"/></radialGradient><radialGradient id="f1464id4" cx="0" cy="0" r="1" gradientTransform="matrix(0 2.30285 -4.3151 0 5.107 28.064)" gradientUnits="userSpaceOnUse"><stop offset=".096" stop-color="#9447FE"/><stop offset=".846" stop-color="#7D6CBB" stop-opacity="0"/></radialGradient><radialGradient id="f1464id5" cx="0" cy="0" r="1" gradientTransform="matrix(0 2.55316 -4.78413 0 27.235 28.314)" gradientUnits="userSpaceOnUse"><stop offset=".096" stop-color="#9447FE"/><stop offset=".846" stop-color="#7D6CBB" stop-opacity="0"/></radialGradient><radialGradient id="f1464id6" cx="0" cy="0" r="1" gradientTransform="matrix(4.5 2.5 -3.53261 6.3587 1.5 3.5)" gradientUnits="userSpaceOnUse"><stop offset=".201" stop-color="#41366A"/><stop offset="1" stop-color="#7E5FCD" stop-opacity="0"/></radialGradient><radialGradient id="f1464id7" cx="0" cy="0" r="1" gradientTransform="matrix(1 4 -5.65218 1.41304 4.5 .5)" gradientUnits="userSpaceOnUse"><stop offset=".326" stop-color="#41366A"/><stop offset="1" stop-color="#7E5FCD" stop-opacity="0"/></radialGradient><radialGradient id="f1464id8" cx="0" cy="0" r="1" gradientTransform="matrix(1 -4 5.65218 1.41304 5 31.5)" gradientUnits="userSpaceOnUse"><stop offset=".326" stop-color="#41366A"/><stop offset="1" stop-color="#7E5FCD" stop-opacity="0"/></radialGradient><radialGradient id="f1464id9" cx="0" cy="0" r="1" gradientTransform="matrix(4.5 -2 2.82609 6.3587 .5 28.5)" gradientUnits="userSpaceOnUse"><stop offset=".326" stop-color="#41366A"/><stop offset="1" stop-color="#7E5FCD" stop-opacity="0"/></radialGradient><radialGradient id="f1464ida" cx="0" cy="0" r="1" gradientTransform="matrix(-1.50003 -3.5 4.94564 -2.1196 26.5 32)" gradientUnits="userSpaceOnUse"><stop offset=".326" stop-color="#41366A"/><stop offset="1" stop-color="#7E5FCD" stop-opacity="0"/></radialGradient><radialGradient id="f1464idb" cx="0" cy="0" r="1" gradientTransform="matrix(-2.50001 .99998 -1.98 -4.95011 31.5 28.5)" gradientUnits="userSpaceOnUse"><stop offset=".326" stop-color="#41366A"/><stop offset="1" stop-color="#7E5FCD" stop-opacity="0"/></radialGradient><radialGradient id="f1464idc" cx="0" cy="0" r="1" gradientTransform="matrix(-2 -2 3.96007 -3.96007 29.5 30)" gradientUnits="userSpaceOnUse"><stop offset=".083" stop-color="#41366A"/><stop offset="1" stop-color="#7E5FCD" stop-opacity="0"/></radialGradient><linearGradient id="f1464idd" x1="17.563" x2="24.817" y1="7.585" y2="14.839" gradientUnits="userSpaceOnUse"><stop offset=".206" stop-color="#4E4478"/><stop offset=".269" stop-color="#685B9F"/><stop offset=".341" stop-color="#796BB5"/><stop offset=".457" stop-color="#7968BB"/><stop offset=".636" stop-color="#7948D8"/><stop offset=".812" stop-color="#5B38B1"/></linearGradient><linearGradient id="f1464ide" x1="14.071" x2="8.328" y1="6.71" y2="12.453" gradientUnits="userSpaceOnUse"><stop offset=".231" stop-color="#9E94D5" stop-opacity="0"/><stop offset=".305" stop-color="#ABA1E4" stop-opacity=".588"/><stop offset=".405" stop-color="#9D93D5"/><stop offset=".471" stop-color="#9D93D3"/><stop offset=".682" stop-color="#7664B9"/><stop offset=".906" stop-color="#7F3DDC"/><stop offset=".922" stop-color="#7F3DDC"/><stop offset="1" stop-color="#635994" stop-opacity="0"/></linearGradient></defs></g></svg>