<svg xmlns="http://www.w3.org/2000/svg" xmlns:xlink="http://www.w3.org/1999/xlink" width="32" height="32" viewBox="0 0 32 32"><g fill="none"><rect width="28" height="28" x="2" y="2" fill="url(#f1498id0)" rx="4"/><rect width="28" height="28" x="2" y="2" fill="url(#f1498id1)" rx="4"/><rect width="28" height="28" x="2" y="2" fill="url(#f1498id2)" rx="4"/><rect width="28" height="28" x="2" y="2" fill="url(#f1498id3)" rx="4"/><rect width="28" height="28" x="2" y="2" fill="url(#f1498id1g)" rx="4"/><g filter="url(#f1498ids)"><path fill="#2D2934" d="M18 30h8c.729 0 1.412-.195 2-.535V17.25c0-.69-.56-1.25-1.25-1.25h-7.5c-.69 0-1.25.56-1.25 1.25z"/><path fill="url(#f1498id4)" d="M18 30h8c.729 0 1.412-.195 2-.535V17.25c0-.69-.56-1.25-1.25-1.25h-7.5c-.69 0-1.25.56-1.25 1.25z"/></g><path fill="url(#f1498id5)" d="M18 30h8c.729 0 1.412-.195 2-.535V17.25c0-.69-.56-1.25-1.25-1.25h-7.5c-.69 0-1.25.56-1.25 1.25z"/><g filter="url(#f1498idt)"><path fill="#2D2934" d="M6 30h7V7.25C13 6.56 12.44 6 11.75 6h-1.5C9.56 6 9 6.56 9 7.25V8H5.25C4.56 8 4 8.56 4 9.25v20.215c.588.34 1.271.535 2 .535"/><path fill="url(#f1498id6)" d="M6 30h7V7.25C13 6.56 12.44 6 11.75 6h-1.5C9.56 6 9 6.56 9 7.25V8H5.25C4.56 8 4 8.56 4 9.25v20.215c.588.34 1.271.535 2 .535"/></g><g filter="url(#f1498idu)"><path fill="url(#f1498id7)" d="M23 30h3a4 4 0 0 0 4-4v-7h-5.75c-.69 0-1.25.56-1.25 1.25z"/></g><g filter="url(#f1498idv)"><path fill="url(#f1498id8)" d="M23 30h3a4 4 0 0 0 4-4v-7h-5.75c-.69 0-1.25.56-1.25 1.25z"/></g><path fill="url(#f1498id9)" d="M23 30h3a4 4 0 0 0 4-4v-7h-5.75c-.69 0-1.25.56-1.25 1.25z"/><g filter="url(#f1498idw)"><path fill="url(#f1498ida)" d="M2 14v12a4 4 0 0 0 4 4h1V15.25C7 14.56 6.44 14 5.75 14z"/></g><path fill="url(#f1498idb)" d="M2 14v12a4 4 0 0 0 4 4h1V15.25C7 14.56 6.44 14 5.75 14z"/><g filter="url(#f1498idx)"><path fill="url(#f1498idc)" d="M9 30h12v-5.75c0-.69-.56-1.25-1.25-1.25H19V12.25c0-.69-.56-1.25-1.25-1.25h-7.5C9.56 11 9 11.56 9 12.25z"/></g><path fill="url(#f1498idd)" d="M9 30h12v-5.75c0-.69-.56-1.25-1.25-1.25H19V12.25c0-.69-.56-1.25-1.25-1.25h-7.5C9.56 11 9 11.56 9 12.25z"/><g filter="url(#f1498idy)"><path fill="url(#f1498ide)" fill-rule="evenodd" d="M30 25h-5a1 1 0 1 0 0 2h4.874A4 4 0 0 0 30 26z" clip-rule="evenodd"/></g><g filter="url(#f1498idz)"><path fill="url(#f1498idf)" d="M24 22a1 1 0 0 1 1-1h5v2h-5a1 1 0 0 1-1-1"/></g><g filter="url(#f1498id10)"><rect width="1.961" height="1.96" x="15.02" y="13.016" fill="url(#f1498idg)" rx=".3"/></g><g filter="url(#f1498id11)"><rect width="1.961" height="1.96" x="11.02" y="13.016" fill="url(#f1498idh)" rx=".3"/></g><g filter="url(#f1498id12)"><rect width="1.961" height="1.96" x="3.02" y="16.02" fill="url(#f1498idi)" rx=".3"/></g><g filter="url(#f1498id13)"><rect width="1.961" height="1.96" x="3.02" y="20.02" fill="url(#f1498idj)" rx=".3"/></g><g filter="url(#f1498id14)"><rect width="1.961" height="1.96" x="3.02" y="24.02" fill="url(#f1498idk)" rx=".3"/></g><g filter="url(#f1498id15)"><rect width="1.961" height="1.96" x="15.02" y="17.02" fill="url(#f1498idl)" rx=".3"/></g><g filter="url(#f1498id16)"><rect width="1.961" height="1.96" x="15.02" y="21.024" fill="url(#f1498idm)" rx=".3"/></g><g filter="url(#f1498id17)"><rect width="1.961" height="1.96" x="15.02" y="25.029" fill="url(#f1498idn)" rx=".3"/></g><g filter="url(#f1498id18)"><rect width="1.961" height="1.96" x="11.02" y="17.02" fill="url(#f1498ido)" rx=".3"/></g><g filter="url(#f1498id19)"><rect width="1.961" height="1.96" x="11.02" y="21.024" fill="url(#f1498idp)" rx=".3"/></g><g filter="url(#f1498id1a)"><rect width="1.961" height="1.96" x="11.02" y="25.029" fill="url(#f1498idq)" rx=".3"/></g><g filter="url(#f1498id1b)"><path fill="#D9CEDD" d="m27.075 11.85l.201-.403a.25.25 0 0 1 .448 0l.201.404a.5.5 0 0 0 .224.223l.404.202a.25.25 0 0 1 0 .448l-.404.201a.5.5 0 0 0-.224.224l-.201.404a.25.25 0 0 1-.448 0l-.201-.404a.5.5 0 0 0-.224-.223l-.404-.202a.25.25 0 0 1 0-.448l.404-.201a.5.5 0 0 0 .224-.224"/></g><path fill="url(#f1498id1h)" d="m27.075 11.85l.201-.403a.25.25 0 0 1 .448 0l.201.404a.5.5 0 0 0 .224.223l.404.202a.25.25 0 0 1 0 .448l-.404.201a.5.5 0 0 0-.224.224l-.201.404a.25.25 0 0 1-.448 0l-.201-.404a.5.5 0 0 0-.224-.223l-.404-.202a.25.25 0 0 1 0-.448l.404-.201a.5.5 0 0 0 .224-.224"/><path fill="url(#f1498id1i)" d="m27.075 11.85l.201-.403a.25.25 0 0 1 .448 0l.201.404a.5.5 0 0 0 .224.223l.404.202a.25.25 0 0 1 0 .448l-.404.201a.5.5 0 0 0-.224.224l-.201.404a.25.25 0 0 1-.448 0l-.201-.404a.5.5 0 0 0-.224-.223l-.404-.202a.25.25 0 0 1 0-.448l.404-.201a.5.5 0 0 0 .224-.224"/><g filter="url(#f1498id1c)"><path fill="#D9CEDD" d="m21.075 3.85l.201-.403a.25.25 0 0 1 .448 0l.201.404a.5.5 0 0 0 .224.224l.404.201a.25.25 0 0 1 0 .448l-.404.201a.5.5 0 0 0-.224.224l-.201.404a.25.25 0 0 1-.448 0l-.201-.404a.5.5 0 0 0-.224-.224l-.404-.201a.25.25 0 0 1 0-.448l.404-.201a.5.5 0 0 0 .224-.224"/></g><path fill="url(#f1498id1j)" d="m21.075 3.85l.201-.403a.25.25 0 0 1 .448 0l.201.404a.5.5 0 0 0 .224.224l.404.201a.25.25 0 0 1 0 .448l-.404.201a.5.5 0 0 0-.224.224l-.201.404a.25.25 0 0 1-.448 0l-.201-.404a.5.5 0 0 0-.224-.224l-.404-.201a.25.25 0 0 1 0-.448l.404-.201a.5.5 0 0 0 .224-.224"/><path fill="url(#f1498id1k)" d="m21.075 3.85l.201-.403a.25.25 0 0 1 .448 0l.201.404a.5.5 0 0 0 .224.224l.404.201a.25.25 0 0 1 0 .448l-.404.201a.5.5 0 0 0-.224.224l-.201.404a.25.25 0 0 1-.448 0l-.201-.404a.5.5 0 0 0-.224-.224l-.404-.201a.25.25 0 0 1 0-.448l.404-.201a.5.5 0 0 0 .224-.224"/><g filter="url(#f1498id1d)"><path fill="#D9CEDD" d="m15.908 6.684l.368-.737a.25.25 0 0 1 .448 0l.368.737a.5.5 0 0 0 .224.224l.737.368a.25.25 0 0 1 0 .448l-.737.368a.5.5 0 0 0-.224.224l-.368.737a.25.25 0 0 1-.448 0l-.368-.737a.5.5 0 0 0-.224-.224l-.737-.368a.25.25 0 0 1 0-.448l.737-.368a.5.5 0 0 0 .224-.224"/></g><path fill="url(#f1498id1l)" d="m15.908 6.684l.368-.737a.25.25 0 0 1 .448 0l.368.737a.5.5 0 0 0 .224.224l.737.368a.25.25 0 0 1 0 .448l-.737.368a.5.5 0 0 0-.224.224l-.368.737a.25.25 0 0 1-.448 0l-.368-.737a.5.5 0 0 0-.224-.224l-.737-.368a.25.25 0 0 1 0-.448l.737-.368a.5.5 0 0 0 .224-.224"/><path fill="url(#f1498id1m)" d="m15.908 6.684l.368-.737a.25.25 0 0 1 .448 0l.368.737a.5.5 0 0 0 .224.224l.737.368a.25.25 0 0 1 0 .448l-.737.368a.5.5 0 0 0-.224.224l-.368.737a.25.25 0 0 1-.448 0l-.368-.737a.5.5 0 0 0-.224-.224l-.737-.368a.25.25 0 0 1 0-.448l.737-.368a.5.5 0 0 0 .224-.224"/><g filter="url(#f1498id1e)"><path fill="#D9CEDD" d="m5.075 3.851l.201-.404a.25.25 0 0 1 .448 0l.201.404a.5.5 0 0 0 .224.224l.404.201a.25.25 0 0 1 0 .448l-.404.202a.5.5 0 0 0-.224.223l-.201.404a.25.25 0 0 1-.448 0l-.201-.404a.5.5 0 0 0-.224-.223l-.404-.202a.25.25 0 0 1 0-.448l.404-.201a.5.5 0 0 0 .224-.224"/></g><path fill="url(#f1498id1n)" d="m5.075 3.851l.201-.404a.25.25 0 0 1 .448 0l.201.404a.5.5 0 0 0 .224.224l.404.201a.25.25 0 0 1 0 .448l-.404.202a.5.5 0 0 0-.224.223l-.201.404a.25.25 0 0 1-.448 0l-.201-.404a.5.5 0 0 0-.224-.223l-.404-.202a.25.25 0 0 1 0-.448l.404-.201a.5.5 0 0 0 .224-.224"/><path fill="url(#f1498id1o)" d="m5.075 3.851l.201-.404a.25.25 0 0 1 .448 0l.201.404a.5.5 0 0 0 .224.224l.404.201a.25.25 0 0 1 0 .448l-.404.202a.5.5 0 0 0-.224.223l-.201.404a.25.25 0 0 1-.448 0l-.201-.404a.5.5 0 0 0-.224-.223l-.404-.202a.25.25 0 0 1 0-.448l.404-.201a.5.5 0 0 0 .224-.224"/><g filter="url(#f1498id1f)"><path fill="url(#f1498idr)" d="M22.012 9.336a3.49 3.49 0 0 0 3.492-3.492c0-.296-.032-.527-.102-.801c-.036-.145.122-.23.235-.145C26.473 5.536 27 6.461 27 7.594a3.492 3.492 0 0 1-6.566 1.658c-.068-.125.072-.253.203-.197c.422.18.887.28 1.375.28"/></g><path fill="url(#f1498id1p)" d="M22.012 9.336a3.49 3.49 0 0 0 3.492-3.492c0-.296-.032-.527-.102-.801c-.036-.145.122-.23.235-.145C26.473 5.536 27 6.461 27 7.594a3.492 3.492 0 0 1-6.566 1.658c-.068-.125.072-.253.203-.197c.422.18.887.28 1.375.28"/><defs><linearGradient id="f1498id0" x1="2.563" x2="30" y1="17.75" y2="17.75" gradientUnits="userSpaceOnUse"><stop stop-color="#503B75"/><stop offset="1" stop-color="#544380"/></linearGradient><linearGradient id="f1498id1" x1="2" x2="5.938" y1="12" y2="12" gradientUnits="userSpaceOnUse"><stop stop-color="#211438"/><stop offset="1" stop-color="#211438" stop-opacity="0"/></linearGradient><linearGradient id="f1498id2" x1="16" x2="16" y1="1.75" y2="3.437" gradientUnits="userSpaceOnUse"><stop stop-color="#44315D"/><stop offset="1" stop-color="#44315D" stop-opacity="0"/></linearGradient><linearGradient id="f1498id3" x1="30" x2="26.438" y1="12.813" y2="12.813" gradientUnits="userSpaceOnUse"><stop stop-color="#624D82"/><stop offset="1" stop-color="#624D82" stop-opacity="0"/></linearGradient><linearGradient id="f1498id4" x1="21.063" x2="21.051" y1="28.845" y2="19.662" gradientUnits="userSpaceOnUse"><stop stop-color="#210B39"/><stop offset=".517" stop-color="#180D25"/><stop offset="1" stop-color="#180D25" stop-opacity="0"/></linearGradient><linearGradient id="f1498id5" x1="23" x2="23" y1="16" y2="16.437" gradientUnits="userSpaceOnUse"><stop stop-color="#1F1B26"/><stop offset="1" stop-color="#1F1B26" stop-opacity="0"/></linearGradient><linearGradient id="f1498id6" x1="6.795" x2="6.642" y1="25.759" y2="12.278" gradientUnits="userSpaceOnUse"><stop stop-color="#210B39"/><stop offset=".517" stop-color="#180D25"/><stop offset="1" stop-color="#180D25" stop-opacity="0"/></linearGradient><linearGradient id="f1498id7" x1="27.083" x2="27.083" y1="19" y2="25.866" gradientUnits="userSpaceOnUse"><stop stop-color="#4791CD"/><stop offset="1" stop-color="#A1A0B4"/></linearGradient><linearGradient id="f1498id8" x1="27.083" x2="27.083" y1="19" y2="25.866" gradientUnits="userSpaceOnUse"><stop stop-color="#533D69"/><stop offset="1" stop-color="#43364F"/></linearGradient><linearGradient id="f1498id9" x1="26.5" x2="26.5" y1="19" y2="19.239" gradientUnits="userSpaceOnUse"><stop stop-color="#3E2C51"/><stop offset="1" stop-color="#3E2C51" stop-opacity="0"/></linearGradient><linearGradient id="f1498ida" x1="4.917" x2="4.917" y1="14" y2="23.987" gradientUnits="userSpaceOnUse"><stop stop-color="#533D69"/><stop offset="1" stop-color="#43364F"/></linearGradient><linearGradient id="f1498idb" x1="4.5" x2="4.5" y1="14" y2="14.348" gradientUnits="userSpaceOnUse"><stop stop-color="#3E2C51"/><stop offset="1" stop-color="#3E2C51" stop-opacity="0"/></linearGradient><linearGradient id="f1498idc" x1="16" x2="16" y1="11" y2="22.86" gradientUnits="userSpaceOnUse"><stop stop-color="#533D69"/><stop offset="1" stop-color="#43364F"/></linearGradient><linearGradient id="f1498idd" x1="15" x2="15" y1="11" y2="11.413" gradientUnits="userSpaceOnUse"><stop stop-color="#3E2C51"/><stop offset="1" stop-color="#3E2C51" stop-opacity="0"/></linearGradient><linearGradient id="f1498ide" x1="27" x2="27" y1="25.556" y2="27" gradientUnits="userSpaceOnUse"><stop stop-color="#FFD77A"/><stop offset="1" stop-color="#FFF670"/></linearGradient><linearGradient id="f1498idf" x1="27" x2="27" y1="21.556" y2="23" gradientUnits="userSpaceOnUse"><stop stop-color="#FFD77A"/><stop offset="1" stop-color="#FFF670"/></linearGradient><linearGradient id="f1498idg" x1="16.98" x2="15.02" y1="13.016" y2="14.976" gradientUnits="userSpaceOnUse"><stop stop-color="#282130"/><stop offset="1" stop-color="#383739"/></linearGradient><linearGradient id="f1498idh" x1="12.98" x2="11.375" y1="13.433" y2="14.976" gradientUnits="userSpaceOnUse"><stop stop-color="#F2BC6C"/><stop offset="1" stop-color="#FFFF7D"/></linearGradient><linearGradient id="f1498idi" x1="4.98" x2="3.02" y1="16.02" y2="17.98" gradientUnits="userSpaceOnUse"><stop stop-color="#282130"/><stop offset="1" stop-color="#383739"/></linearGradient><linearGradient id="f1498idj" x1="4.98" x2="3.375" y1="20.438" y2="21.98" gradientUnits="userSpaceOnUse"><stop stop-color="#F2BC6C"/><stop offset="1" stop-color="#FFFF7D"/></linearGradient><linearGradient id="f1498idk" x1="4.98" x2="3.375" y1="24.438" y2="25.98" gradientUnits="userSpaceOnUse"><stop stop-color="#F2BC6C"/><stop offset="1" stop-color="#FFFF7D"/></linearGradient><linearGradient id="f1498idl" x1="16.98" x2="15.375" y1="17.438" y2="18.98" gradientUnits="userSpaceOnUse"><stop stop-color="#F2BC6C"/><stop offset="1" stop-color="#FFFF7D"/></linearGradient><linearGradient id="f1498idm" x1="16.98" x2="15.375" y1="21.442" y2="22.984" gradientUnits="userSpaceOnUse"><stop stop-color="#F2BC6C"/><stop offset="1" stop-color="#FFFF7D"/></linearGradient><linearGradient id="f1498idn" x1="16.98" x2="15.02" y1="25.029" y2="26.989" gradientUnits="userSpaceOnUse"><stop stop-color="#282130"/><stop offset="1" stop-color="#383739"/></linearGradient><linearGradient id="f1498ido" x1="12.98" x2="11.375" y1="17.438" y2="18.98" gradientUnits="userSpaceOnUse"><stop stop-color="#F2BC6C"/><stop offset="1" stop-color="#FFFF7D"/></linearGradient><linearGradient id="f1498idp" x1="12.98" x2="11.02" y1="21.024" y2="22.984" gradientUnits="userSpaceOnUse"><stop stop-color="#282130"/><stop offset="1" stop-color="#383739"/></linearGradient><linearGradient id="f1498idq" x1="12.98" x2="11.375" y1="25.446" y2="26.989" gradientUnits="userSpaceOnUse"><stop stop-color="#F2BC6C"/><stop offset="1" stop-color="#FFFF7D"/></linearGradient><linearGradient id="f1498idr" x1="21.5" x2="26.794" y1="10.75" y2="5.72" gradientUnits="userSpaceOnUse"><stop stop-color="#E6A947"/><stop offset="1" stop-color="#EBC364"/></linearGradient><filter id="f1498ids" width="10.4" height="14.4" x="17.8" y="15.8" color-interpolation-filters="sRGB" filterUnits="userSpaceOnUse"><feFlood flood-opacity="0" result="BackgroundImageFix"/><feBlend in="SourceGraphic" in2="BackgroundImageFix" result="shape"/><feColorMatrix in="SourceAlpha" result="hardAlpha" values="0 0 0 0 0 0 0 0 0 0 0 0 0 0 0 0 0 0 127 0"/><feOffset dx="-.2" dy=".2"/><feGaussianBlur stdDeviation=".2"/><feComposite in2="hardAlpha" k2="-1" k3="1" operator="arithmetic"/><feColorMatrix values="0 0 0 0 0.27451 0 0 0 0 0.266667 0 0 0 0 0.282353 0 0 0 1 0"/><feBlend in2="shape" result="effect1_innerShadow_18_7696"/><feColorMatrix in="SourceAlpha" result="hardAlpha" values="0 0 0 0 0 0 0 0 0 0 0 0 0 0 0 0 0 0 127 0"/><feOffset dx=".2" dy="-.2"/><feGaussianBlur stdDeviation=".2"/><feComposite in2="hardAlpha" k2="-1" k3="1" operator="arithmetic"/><feColorMatrix values="0 0 0 0 0.0509804 0 0 0 0 0.027451 0 0 0 0 0.0823529 0 0 0 1 0"/><feBlend in2="effect1_innerShadow_18_7696" result="effect2_innerShadow_18_7696"/></filter><filter id="f1498idt" width="9.4" height="24.4" x="3.8" y="5.8" color-interpolation-filters="sRGB" filterUnits="userSpaceOnUse"><feFlood flood-opacity="0" result="BackgroundImageFix"/><feBlend in="SourceGraphic" in2="BackgroundImageFix" result="shape"/><feColorMatrix in="SourceAlpha" result="hardAlpha" values="0 0 0 0 0 0 0 0 0 0 0 0 0 0 0 0 0 0 127 0"/><feOffset dx="-.2" dy=".2"/><feGaussianBlur stdDeviation=".2"/><feComposite in2="hardAlpha" k2="-1" k3="1" operator="arithmetic"/><feColorMatrix values="0 0 0 0 0.27451 0 0 0 0 0.266667 0 0 0 0 0.282353 0 0 0 1 0"/><feBlend in2="shape" result="effect1_innerShadow_18_7696"/><feColorMatrix in="SourceAlpha" result="hardAlpha" values="0 0 0 0 0 0 0 0 0 0 0 0 0 0 0 0 0 0 127 0"/><feOffset dx=".2" dy="-.2"/><feGaussianBlur stdDeviation=".2"/><feComposite in2="hardAlpha" k2="-1" k3="1" operator="arithmetic"/><feColorMatrix values="0 0 0 0 0.0509804 0 0 0 0 0.027451 0 0 0 0 0.0823529 0 0 0 1 0"/><feBlend in2="effect1_innerShadow_18_7696" result="effect2_innerShadow_18_7696"/></filter><filter id="f1498idu" width="7.2" height="11" x="23" y="19" color-interpolation-filters="sRGB" filterUnits="userSpaceOnUse"><feFlood flood-opacity="0" result="BackgroundImageFix"/><feBlend in="SourceGraphic" in2="BackgroundImageFix" result="shape"/><feColorMatrix in="SourceAlpha" result="hardAlpha" values="0 0 0 0 0 0 0 0 0 0 0 0 0 0 0 0 0 0 127 0"/><feOffset dx=".2"/><feGaussianBlur stdDeviation=".2"/><feComposite in2="hardAlpha" k2="-1" k3="1" operator="arithmetic"/><feColorMatrix values="0 0 0 0 0.356863 0 0 0 0 0.501961 0 0 0 0 0.666667 0 0 0 1 0"/><feBlend in2="shape" result="effect1_innerShadow_18_7696"/></filter><filter id="f1498idv" width="7.4" height="11" x="22.8" y="19" color-interpolation-filters="sRGB" filterUnits="userSpaceOnUse"><feFlood flood-opacity="0" result="BackgroundImageFix"/><feBlend in="SourceGraphic" in2="BackgroundImageFix" result="shape"/><feColorMatrix in="SourceAlpha" result="hardAlpha" values="0 0 0 0 0 0 0 0 0 0 0 0 0 0 0 0 0 0 127 0"/><feOffset dx="-.2"/><feGaussianBlur stdDeviation=".2"/><feComposite in2="hardAlpha" k2="-1" k3="1" operator="arithmetic"/><feColorMatrix values="0 0 0 0 0.34902 0 0 0 0 0.329412 0 0 0 0 0.364706 0 0 0 1 0"/><feBlend in2="shape" result="effect1_innerShadow_18_7696"/><feColorMatrix in="SourceAlpha" result="hardAlpha" values="0 0 0 0 0 0 0 0 0 0 0 0 0 0 0 0 0 0 127 0"/><feOffset dx=".2"/><feGaussianBlur stdDeviation=".2"/><feComposite in2="hardAlpha" k2="-1" k3="1" operator="arithmetic"/><feColorMatrix values="0 0 0 0 0.215686 0 0 0 0 0.133333 0 0 0 0 0.290196 0 0 0 1 0"/><feBlend in2="effect1_innerShadow_18_7696" result="effect2_innerShadow_18_7696"/></filter><filter id="f1498idw" width="5.4" height="16" x="1.8" y="14" color-interpolation-filters="sRGB" filterUnits="userSpaceOnUse"><feFlood flood-opacity="0" result="BackgroundImageFix"/><feBlend in="SourceGraphic" in2="BackgroundImageFix" result="shape"/><feColorMatrix in="SourceAlpha" result="hardAlpha" values="0 0 0 0 0 0 0 0 0 0 0 0 0 0 0 0 0 0 127 0"/><feOffset dx="-.2"/><feGaussianBlur stdDeviation=".2"/><feComposite in2="hardAlpha" k2="-1" k3="1" operator="arithmetic"/><feColorMatrix values="0 0 0 0 0.34902 0 0 0 0 0.329412 0 0 0 0 0.364706 0 0 0 1 0"/><feBlend in2="shape" result="effect1_innerShadow_18_7696"/><feColorMatrix in="SourceAlpha" result="hardAlpha" values="0 0 0 0 0 0 0 0 0 0 0 0 0 0 0 0 0 0 127 0"/><feOffset dx=".2"/><feGaussianBlur stdDeviation=".2"/><feComposite in2="hardAlpha" k2="-1" k3="1" operator="arithmetic"/><feColorMatrix values="0 0 0 0 0.215686 0 0 0 0 0.133333 0 0 0 0 0.290196 0 0 0 1 0"/><feBlend in2="effect1_innerShadow_18_7696" result="effect2_innerShadow_18_7696"/></filter><filter id="f1498idx" width="12.4" height="19" x="8.8" y="11" color-interpolation-filters="sRGB" filterUnits="userSpaceOnUse"><feFlood flood-opacity="0" result="BackgroundImageFix"/><feBlend in="SourceGraphic" in2="BackgroundImageFix" result="shape"/><feColorMatrix in="SourceAlpha" result="hardAlpha" values="0 0 0 0 0 0 0 0 0 0 0 0 0 0 0 0 0 0 127 0"/><feOffset dx="-.2"/><feGaussianBlur stdDeviation=".2"/><feComposite in2="hardAlpha" k2="-1" k3="1" operator="arithmetic"/><feColorMatrix values="0 0 0 0 0.34902 0 0 0 0 0.329412 0 0 0 0 0.364706 0 0 0 1 0"/><feBlend in2="shape" result="effect1_innerShadow_18_7696"/><feColorMatrix in="SourceAlpha" result="hardAlpha" values="0 0 0 0 0 0 0 0 0 0 0 0 0 0 0 0 0 0 127 0"/><feOffset dx=".2"/><feGaussianBlur stdDeviation=".2"/><feComposite in2="hardAlpha" k2="-1" k3="1" operator="arithmetic"/><feColorMatrix values="0 0 0 0 0.215686 0 0 0 0 0.133333 0 0 0 0 0.290196 0 0 0 1 0"/><feBlend in2="effect1_innerShadow_18_7696" result="effect2_innerShadow_18_7696"/></filter><filter id="f1498idy" width="6.1" height="2.2" x="24" y="25" color-interpolation-filters="sRGB" filterUnits="userSpaceOnUse"><feFlood flood-opacity="0" result="BackgroundImageFix"/><feBlend in="SourceGraphic" in2="BackgroundImageFix" result="shape"/><feColorMatrix in="SourceAlpha" result="hardAlpha" values="0 0 0 0 0 0 0 0 0 0 0 0 0 0 0 0 0 0 127 0"/><feOffset dx=".1" dy=".2"/><feGaussianBlur stdDeviation=".15"/><feComposite in2="hardAlpha" k2="-1" k3="1" operator="arithmetic"/><feColorMatrix values="0 0 0 0 0.854902 0 0 0 0 0.580392 0 0 0 0 0.403922 0 0 0 1 0"/><feBlend in2="shape" result="effect1_innerShadow_18_7696"/></filter><filter id="f1498idz" width="6.1" height="2.2" x="24" y="21" color-interpolation-filters="sRGB" filterUnits="userSpaceOnUse"><feFlood flood-opacity="0" result="BackgroundImageFix"/><feBlend in="SourceGraphic" in2="BackgroundImageFix" result="shape"/><feColorMatrix in="SourceAlpha" result="hardAlpha" values="0 0 0 0 0 0 0 0 0 0 0 0 0 0 0 0 0 0 127 0"/><feOffset dx=".1" dy=".2"/><feGaussianBlur stdDeviation=".15"/><feComposite in2="hardAlpha" k2="-1" k3="1" operator="arithmetic"/><feColorMatrix values="0 0 0 0 0.854902 0 0 0 0 0.580392 0 0 0 0 0.403922 0 0 0 1 0"/><feBlend in2="shape" result="effect1_innerShadow_18_7696"/></filter><filter id="f1498id10" width="2.161" height="2.16" x="14.819" y="13.016" color-interpolation-filters="sRGB" filterUnits="userSpaceOnUse"><feFlood flood-opacity="0" result="BackgroundImageFix"/><feBlend in="SourceGraphic" in2="BackgroundImageFix" result="shape"/><feColorMatrix in="SourceAlpha" result="hardAlpha" values="0 0 0 0 0 0 0 0 0 0 0 0 0 0 0 0 0 0 127 0"/><feOffset dx="-.2" dy=".2"/><feGaussianBlur stdDeviation=".15"/><feComposite in2="hardAlpha" k2="-1" k3="1" operator="arithmetic"/><feColorMatrix values="0 0 0 0 0.0392157 0 0 0 0 0.0196078 0 0 0 0 0.0588235 0 0 0 1 0"/><feBlend in2="shape" result="effect1_innerShadow_18_7696"/></filter><filter id="f1498id11" width="2.161" height="2.16" x="10.819" y="13.016" color-interpolation-filters="sRGB" filterUnits="userSpaceOnUse"><feFlood flood-opacity="0" result="BackgroundImageFix"/><feBlend in="SourceGraphic" in2="BackgroundImageFix" result="shape"/><feColorMatrix in="SourceAlpha" result="hardAlpha" values="0 0 0 0 0 0 0 0 0 0 0 0 0 0 0 0 0 0 127 0"/><feOffset dx="-.2" dy=".2"/><feGaussianBlur stdDeviation=".15"/><feComposite in2="hardAlpha" k2="-1" k3="1" operator="arithmetic"/><feColorMatrix values="0 0 0 0 0.85098 0 0 0 0 0.572549 0 0 0 0 0.356863 0 0 0 1 0"/><feBlend in2="shape" result="effect1_innerShadow_18_7696"/></filter><filter id="f1498id12" width="2.161" height="2.16" x="2.82" y="16.02" color-interpolation-filters="sRGB" filterUnits="userSpaceOnUse"><feFlood flood-opacity="0" result="BackgroundImageFix"/><feBlend in="SourceGraphic" in2="BackgroundImageFix" result="shape"/><feColorMatrix in="SourceAlpha" result="hardAlpha" values="0 0 0 0 0 0 0 0 0 0 0 0 0 0 0 0 0 0 127 0"/><feOffset dx="-.2" dy=".2"/><feGaussianBlur stdDeviation=".15"/><feComposite in2="hardAlpha" k2="-1" k3="1" operator="arithmetic"/><feColorMatrix values="0 0 0 0 0.0392157 0 0 0 0 0.0196078 0 0 0 0 0.0588235 0 0 0 1 0"/><feBlend in2="shape" result="effect1_innerShadow_18_7696"/></filter><filter id="f1498id13" width="2.161" height="2.16" x="2.82" y="20.02" color-interpolation-filters="sRGB" filterUnits="userSpaceOnUse"><feFlood flood-opacity="0" result="BackgroundImageFix"/><feBlend in="SourceGraphic" in2="BackgroundImageFix" result="shape"/><feColorMatrix in="SourceAlpha" result="hardAlpha" values="0 0 0 0 0 0 0 0 0 0 0 0 0 0 0 0 0 0 127 0"/><feOffset dx="-.2" dy=".2"/><feGaussianBlur stdDeviation=".15"/><feComposite in2="hardAlpha" k2="-1" k3="1" operator="arithmetic"/><feColorMatrix values="0 0 0 0 0.85098 0 0 0 0 0.572549 0 0 0 0 0.356863 0 0 0 1 0"/><feBlend in2="shape" result="effect1_innerShadow_18_7696"/></filter><filter id="f1498id14" width="2.161" height="2.16" x="2.82" y="24.02" color-interpolation-filters="sRGB" filterUnits="userSpaceOnUse"><feFlood flood-opacity="0" result="BackgroundImageFix"/><feBlend in="SourceGraphic" in2="BackgroundImageFix" result="shape"/><feColorMatrix in="SourceAlpha" result="hardAlpha" values="0 0 0 0 0 0 0 0 0 0 0 0 0 0 0 0 0 0 127 0"/><feOffset dx="-.2" dy=".2"/><feGaussianBlur stdDeviation=".15"/><feComposite in2="hardAlpha" k2="-1" k3="1" operator="arithmetic"/><feColorMatrix values="0 0 0 0 0.85098 0 0 0 0 0.572549 0 0 0 0 0.356863 0 0 0 1 0"/><feBlend in2="shape" result="effect1_innerShadow_18_7696"/></filter><filter id="f1498id15" width="2.161" height="2.16" x="14.819" y="17.02" color-interpolation-filters="sRGB" filterUnits="userSpaceOnUse"><feFlood flood-opacity="0" result="BackgroundImageFix"/><feBlend in="SourceGraphic" in2="BackgroundImageFix" result="shape"/><feColorMatrix in="SourceAlpha" result="hardAlpha" values="0 0 0 0 0 0 0 0 0 0 0 0 0 0 0 0 0 0 127 0"/><feOffset dx="-.2" dy=".2"/><feGaussianBlur stdDeviation=".15"/><feComposite in2="hardAlpha" k2="-1" k3="1" operator="arithmetic"/><feColorMatrix values="0 0 0 0 0.85098 0 0 0 0 0.572549 0 0 0 0 0.356863 0 0 0 1 0"/><feBlend in2="shape" result="effect1_innerShadow_18_7696"/></filter><filter id="f1498id16" width="2.161" height="2.16" x="14.819" y="21.024" color-interpolation-filters="sRGB" filterUnits="userSpaceOnUse"><feFlood flood-opacity="0" result="BackgroundImageFix"/><feBlend in="SourceGraphic" in2="BackgroundImageFix" result="shape"/><feColorMatrix in="SourceAlpha" result="hardAlpha" values="0 0 0 0 0 0 0 0 0 0 0 0 0 0 0 0 0 0 127 0"/><feOffset dx="-.2" dy=".2"/><feGaussianBlur stdDeviation=".15"/><feComposite in2="hardAlpha" k2="-1" k3="1" operator="arithmetic"/><feColorMatrix values="0 0 0 0 0.85098 0 0 0 0 0.572549 0 0 0 0 0.356863 0 0 0 1 0"/><feBlend in2="shape" result="effect1_innerShadow_18_7696"/></filter><filter id="f1498id17" width="2.161" height="2.16" x="14.819" y="25.029" color-interpolation-filters="sRGB" filterUnits="userSpaceOnUse"><feFlood flood-opacity="0" result="BackgroundImageFix"/><feBlend in="SourceGraphic" in2="BackgroundImageFix" result="shape"/><feColorMatrix in="SourceAlpha" result="hardAlpha" values="0 0 0 0 0 0 0 0 0 0 0 0 0 0 0 0 0 0 127 0"/><feOffset dx="-.2" dy=".2"/><feGaussianBlur stdDeviation=".15"/><feComposite in2="hardAlpha" k2="-1" k3="1" operator="arithmetic"/><feColorMatrix values="0 0 0 0 0.0392157 0 0 0 0 0.0196078 0 0 0 0 0.0588235 0 0 0 1 0"/><feBlend in2="shape" result="effect1_innerShadow_18_7696"/></filter><filter id="f1498id18" width="2.161" height="2.16" x="10.819" y="17.02" color-interpolation-filters="sRGB" filterUnits="userSpaceOnUse"><feFlood flood-opacity="0" result="BackgroundImageFix"/><feBlend in="SourceGraphic" in2="BackgroundImageFix" result="shape"/><feColorMatrix in="SourceAlpha" result="hardAlpha" values="0 0 0 0 0 0 0 0 0 0 0 0 0 0 0 0 0 0 127 0"/><feOffset dx="-.2" dy=".2"/><feGaussianBlur stdDeviation=".15"/><feComposite in2="hardAlpha" k2="-1" k3="1" operator="arithmetic"/><feColorMatrix values="0 0 0 0 0.85098 0 0 0 0 0.572549 0 0 0 0 0.356863 0 0 0 1 0"/><feBlend in2="shape" result="effect1_innerShadow_18_7696"/></filter><filter id="f1498id19" width="2.161" height="2.16" x="10.819" y="21.024" color-interpolation-filters="sRGB" filterUnits="userSpaceOnUse"><feFlood flood-opacity="0" result="BackgroundImageFix"/><feBlend in="SourceGraphic" in2="BackgroundImageFix" result="shape"/><feColorMatrix in="SourceAlpha" result="hardAlpha" values="0 0 0 0 0 0 0 0 0 0 0 0 0 0 0 0 0 0 127 0"/><feOffset dx="-.2" dy=".2"/><feGaussianBlur stdDeviation=".15"/><feComposite in2="hardAlpha" k2="-1" k3="1" operator="arithmetic"/><feColorMatrix values="0 0 0 0 0.0392157 0 0 0 0 0.0196078 0 0 0 0 0.0588235 0 0 0 1 0"/><feBlend in2="shape" result="effect1_innerShadow_18_7696"/></filter><filter id="f1498id1a" width="2.161" height="2.16" x="10.819" y="25.029" color-interpolation-filters="sRGB" filterUnits="userSpaceOnUse"><feFlood flood-opacity="0" result="BackgroundImageFix"/><feBlend in="SourceGraphic" in2="BackgroundImageFix" result="shape"/><feColorMatrix in="SourceAlpha" result="hardAlpha" values="0 0 0 0 0 0 0 0 0 0 0 0 0 0 0 0 0 0 127 0"/><feOffset dx="-.2" dy=".2"/><feGaussianBlur stdDeviation=".15"/><feComposite in2="hardAlpha" k2="-1" k3="1" operator="arithmetic"/><feColorMatrix values="0 0 0 0 0.85098 0 0 0 0 0.572549 0 0 0 0 0.356863 0 0 0 1 0"/><feBlend in2="shape" result="effect1_innerShadow_18_7696"/></filter><filter id="f1498id1b" width="2.682" height="2.682" x="26.159" y="11.159" color-interpolation-filters="sRGB" filterUnits="userSpaceOnUse"><feFlood flood-opacity="0" result="BackgroundImageFix"/><feBlend in="SourceGraphic" in2="BackgroundImageFix" result="shape"/><feColorMatrix in="SourceAlpha" result="hardAlpha" values="0 0 0 0 0 0 0 0 0 0 0 0 0 0 0 0 0 0 127 0"/><feOffset dx="-.15" dy=".15"/><feGaussianBlur stdDeviation=".075"/><feComposite in2="hardAlpha" k2="-1" k3="1" operator="arithmetic"/><feColorMatrix values="0 0 0 0 1 0 0 0 0 0.988235 0 0 0 0 1 0 0 0 1 0"/><feBlend in2="shape" result="effect1_innerShadow_18_7696"/><feColorMatrix in="SourceAlpha" result="hardAlpha" values="0 0 0 0 0 0 0 0 0 0 0 0 0 0 0 0 0 0 127 0"/><feOffset dx=".15" dy="-.15"/><feGaussianBlur stdDeviation=".125"/><feComposite in2="hardAlpha" k2="-1" k3="1" operator="arithmetic"/><feColorMatrix values="0 0 0 0 0.682353 0 0 0 0 0.603922 0 0 0 0 0.733333 0 0 0 1 0"/><feBlend in2="effect1_innerShadow_18_7696" result="effect2_innerShadow_18_7696"/></filter><filter id="f1498id1c" width="2.682" height="2.682" x="20.159" y="3.159" color-interpolation-filters="sRGB" filterUnits="userSpaceOnUse"><feFlood flood-opacity="0" result="BackgroundImageFix"/><feBlend in="SourceGraphic" in2="BackgroundImageFix" result="shape"/><feColorMatrix in="SourceAlpha" result="hardAlpha" values="0 0 0 0 0 0 0 0 0 0 0 0 0 0 0 0 0 0 127 0"/><feOffset dx="-.15" dy=".15"/><feGaussianBlur stdDeviation=".075"/><feComposite in2="hardAlpha" k2="-1" k3="1" operator="arithmetic"/><feColorMatrix values="0 0 0 0 1 0 0 0 0 0.988235 0 0 0 0 1 0 0 0 1 0"/><feBlend in2="shape" result="effect1_innerShadow_18_7696"/><feColorMatrix in="SourceAlpha" result="hardAlpha" values="0 0 0 0 0 0 0 0 0 0 0 0 0 0 0 0 0 0 127 0"/><feOffset dx=".15" dy="-.15"/><feGaussianBlur stdDeviation=".125"/><feComposite in2="hardAlpha" k2="-1" k3="1" operator="arithmetic"/><feColorMatrix values="0 0 0 0 0.682353 0 0 0 0 0.603922 0 0 0 0 0.733333 0 0 0 1 0"/><feBlend in2="effect1_innerShadow_18_7696" result="effect2_innerShadow_18_7696"/></filter><filter id="f1498id1d" width="3.682" height="3.682" x="14.659" y="5.659" color-interpolation-filters="sRGB" filterUnits="userSpaceOnUse"><feFlood flood-opacity="0" result="BackgroundImageFix"/><feBlend in="SourceGraphic" in2="BackgroundImageFix" result="shape"/><feColorMatrix in="SourceAlpha" result="hardAlpha" values="0 0 0 0 0 0 0 0 0 0 0 0 0 0 0 0 0 0 127 0"/><feOffset dx="-.15" dy=".15"/><feGaussianBlur stdDeviation=".15"/><feComposite in2="hardAlpha" k2="-1" k3="1" operator="arithmetic"/><feColorMatrix values="0 0 0 0 1 0 0 0 0 0.988235 0 0 0 0 1 0 0 0 1 0"/><feBlend in2="shape" result="effect1_innerShadow_18_7696"/><feColorMatrix in="SourceAlpha" result="hardAlpha" values="0 0 0 0 0 0 0 0 0 0 0 0 0 0 0 0 0 0 127 0"/><feOffset dx=".15" dy="-.15"/><feGaussianBlur stdDeviation=".125"/><feComposite in2="hardAlpha" k2="-1" k3="1" operator="arithmetic"/><feColorMatrix values="0 0 0 0 0.682353 0 0 0 0 0.603922 0 0 0 0 0.733333 0 0 0 1 0"/><feBlend in2="effect1_innerShadow_18_7696" result="effect2_innerShadow_18_7696"/></filter><filter id="f1498id1e" width="2.682" height="2.682" x="4.159" y="3.159" color-interpolation-filters="sRGB" filterUnits="userSpaceOnUse"><feFlood flood-opacity="0" result="BackgroundImageFix"/><feBlend in="SourceGraphic" in2="BackgroundImageFix" result="shape"/><feColorMatrix in="SourceAlpha" result="hardAlpha" values="0 0 0 0 0 0 0 0 0 0 0 0 0 0 0 0 0 0 127 0"/><feOffset dx="-.15" dy=".15"/><feGaussianBlur stdDeviation=".075"/><feComposite in2="hardAlpha" k2="-1" k3="1" operator="arithmetic"/><feColorMatrix values="0 0 0 0 1 0 0 0 0 0.988235 0 0 0 0 1 0 0 0 1 0"/><feBlend in2="shape" result="effect1_innerShadow_18_7696"/><feColorMatrix in="SourceAlpha" result="hardAlpha" values="0 0 0 0 0 0 0 0 0 0 0 0 0 0 0 0 0 0 127 0"/><feOffset dx=".15" dy="-.15"/><feGaussianBlur stdDeviation=".125"/><feComposite in2="hardAlpha" k2="-1" k3="1" operator="arithmetic"/><feColorMatrix values="0 0 0 0 0.682353 0 0 0 0 0.603922 0 0 0 0 0.733333 0 0 0 1 0"/><feBlend in2="effect1_innerShadow_18_7696" result="effect2_innerShadow_18_7696"/></filter><filter id="f1498id1f" width="6.734" height="6.372" x="20.416" y="4.714" color-interpolation-filters="sRGB" filterUnits="userSpaceOnUse"><feFlood flood-opacity="0" result="BackgroundImageFix"/><feBlend in="SourceGraphic" in2="BackgroundImageFix" result="shape"/><feColorMatrix in="SourceAlpha" result="hardAlpha" values="0 0 0 0 0 0 0 0 0 0 0 0 0 0 0 0 0 0 127 0"/><feOffset dx=".15" dy="-.15"/><feGaussianBlur stdDeviation=".3"/><feComposite in2="hardAlpha" k2="-1" k3="1" operator="arithmetic"/><feColorMatrix values="0 0 0 0 0.466667 0 0 0 0 0.192157 0 0 0 0 0.301961 0 0 0 1 0"/><feBlend in2="shape" result="effect1_innerShadow_18_7696"/></filter><radialGradient id="f1498id1g" cx="0" cy="0" r="1" gradientTransform="matrix(-2.43748 2.31252 -2.70261 -2.84866 29.313 3.125)" gradientUnits="userSpaceOnUse"><stop stop-color="#634D82"/><stop offset="1" stop-color="#634D82" stop-opacity="0"/></radialGradient><radialGradient id="f1498id1h" cx="0" cy="0" r="1" gradientTransform="matrix(.58053 .54118 -.6915 .7418 26.585 11.546)" gradientUnits="userSpaceOnUse"><stop stop-color="#A097A2"/><stop offset="1" stop-color="#A097A2" stop-opacity="0"/></radialGradient><radialGradient id="f1498id1i" cx="0" cy="0" r="1" gradientTransform="matrix(-.46246 -.51165 .63412 -.57315 28.366 13.415)" gradientUnits="userSpaceOnUse"><stop stop-color="#A097A2"/><stop offset="1" stop-color="#A097A2" stop-opacity="0"/></radialGradient><radialGradient id="f1498id1j" cx="0" cy="0" r="1" gradientTransform="matrix(.58053 .54118 -.6915 .7418 20.585 3.546)" gradientUnits="userSpaceOnUse"><stop stop-color="#A097A2"/><stop offset="1" stop-color="#A097A2" stop-opacity="0"/></radialGradient><radialGradient id="f1498id1k" cx="0" cy="0" r="1" gradientTransform="matrix(-.46246 -.51165 .63412 -.57315 22.366 5.414)" gradientUnits="userSpaceOnUse"><stop stop-color="#A097A2"/><stop offset="1" stop-color="#A097A2" stop-opacity="0"/></radialGradient><radialGradient id="f1498id1l" cx="0" cy="0" r="1" gradientTransform="matrix(.77405 .72157 -.922 .98906 15.28 6.227)" gradientUnits="userSpaceOnUse"><stop stop-color="#A097A2"/><stop offset="1" stop-color="#A097A2" stop-opacity="0"/></radialGradient><radialGradient id="f1498id1m" cx="0" cy="0" r="1" gradientTransform="matrix(-.61662 -.6822 .8455 -.7642 17.654 8.72)" gradientUnits="userSpaceOnUse"><stop stop-color="#A097A2"/><stop offset="1" stop-color="#A097A2" stop-opacity="0"/></radialGradient><radialGradient id="f1498id1n" cx="0" cy="0" r="1" gradientTransform="matrix(.46094 .42969 -.54904 .58898 4.773 3.742)" gradientUnits="userSpaceOnUse"><stop stop-color="#A097A2"/><stop offset="1" stop-color="#A097A2" stop-opacity="0"/></radialGradient><radialGradient id="f1498id1o" cx="0" cy="0" r="1" gradientTransform="matrix(-.36719 -.40625 .50349 -.45508 6.188 5.227)" gradientUnits="userSpaceOnUse"><stop stop-color="#A097A2"/><stop offset="1" stop-color="#A097A2" stop-opacity="0"/></radialGradient><radialGradient id="f1498id1p" cx="0" cy="0" r="1" gradientTransform="matrix(4.55624 -1.71394 1.81369 4.82141 22.444 7.975)" gradientUnits="userSpaceOnUse"><stop offset=".768" stop-color="#FFFB8A" stop-opacity="0"/><stop offset="1" stop-color="#FFFB8A"/></radialGradient></defs></g></svg>