<svg xmlns="http://www.w3.org/2000/svg" xmlns:xlink="http://www.w3.org/1999/xlink" width="32" height="32" viewBox="0 0 32 32"><g fill="none"><path fill="#453559" d="M5.945 9.312c0-1.625-1.184-1.828-1.844-1.828c-.57 0-1.703.216-1.703 1.828s1.031 2.25 1.703 2.25s1.844-.625 1.844-2.25"/><path fill="url(#f1638id0)" d="M5.945 9.312c0-1.625-1.184-1.828-1.844-1.828c-.57 0-1.703.216-1.703 1.828s1.031 2.25 1.703 2.25s1.844-.625 1.844-2.25"/><path fill="url(#f1638idk)" d="M5.945 9.312c0-1.625-1.184-1.828-1.844-1.828c-.57 0-1.703.216-1.703 1.828s1.031 2.25 1.703 2.25s1.844-.625 1.844-2.25"/><path fill="#453559" d="M9.57 7.273c0-1.625-1.184-1.828-1.844-1.828c-.57 0-1.703.216-1.703 1.828s1.031 2.25 1.703 2.25s1.844-.625 1.844-2.25"/><path fill="url(#f1638id1)" d="M9.57 7.273c0-1.625-1.184-1.828-1.844-1.828c-.57 0-1.703.216-1.703 1.828s1.031 2.25 1.703 2.25s1.844-.625 1.844-2.25"/><path fill="url(#f1638idl)" d="M9.57 7.273c0-1.625-1.184-1.828-1.844-1.828c-.57 0-1.703.216-1.703 1.828s1.031 2.25 1.703 2.25s1.844-.625 1.844-2.25"/><path fill="#453559" d="M13.945 7.273c0-1.625-1.184-1.828-1.844-1.828c-.57 0-1.703.216-1.703 1.828s1.031 2.25 1.703 2.25s1.844-.625 1.844-2.25"/><path fill="url(#f1638id2)" d="M13.945 7.273c0-1.625-1.184-1.828-1.844-1.828c-.57 0-1.703.216-1.703 1.828s1.031 2.25 1.703 2.25s1.844-.625 1.844-2.25"/><path fill="url(#f1638idm)" d="M13.945 7.273c0-1.625-1.184-1.828-1.844-1.828c-.57 0-1.703.216-1.703 1.828s1.031 2.25 1.703 2.25s1.844-.625 1.844-2.25"/><path fill="#453559" d="M17.492 9.312c0-1.625-1.184-1.828-1.844-1.828c-.57 0-1.703.216-1.703 1.828s1.03 2.25 1.703 2.25c.672 0 1.843-.625 1.843-2.25"/><path fill="url(#f1638id3)" d="M17.492 9.312c0-1.625-1.184-1.828-1.844-1.828c-.57 0-1.703.216-1.703 1.828s1.03 2.25 1.703 2.25c.672 0 1.843-.625 1.843-2.25"/><path fill="url(#f1638idn)" d="M17.492 9.312c0-1.625-1.184-1.828-1.844-1.828c-.57 0-1.703.216-1.703 1.828s1.03 2.25 1.703 2.25c.672 0 1.843-.625 1.843-2.25"/><g filter="url(#f1638idw)"><path fill="#453559" d="M14.929 15.453c0-2.922-1.89-5.453-4.984-5.453S4.99 12.469 4.99 15.453c0 2.485 2.962 2.485 4.946 2.485h.008c2.203 0 4.984-.079 4.984-2.485"/><path fill="url(#f1638ido)" d="M14.929 15.453c0-2.922-1.89-5.453-4.984-5.453S4.99 12.469 4.99 15.453c0 2.485 2.962 2.485 4.946 2.485h.008c2.203 0 4.984-.079 4.984-2.485"/><path fill="url(#f1638id4)" d="M14.929 15.453c0-2.922-1.89-5.453-4.984-5.453S4.99 12.469 4.99 15.453c0 2.485 2.962 2.485 4.946 2.485h.008c2.203 0 4.984-.079 4.984-2.485"/><path fill="url(#f1638id5)" d="M14.929 15.453c0-2.922-1.89-5.453-4.984-5.453S4.99 12.469 4.99 15.453c0 2.485 2.962 2.485 4.946 2.485h.008c2.203 0 4.984-.079 4.984-2.485"/></g><path fill="#453559" d="M17.945 21.36c0-1.626-1.184-1.829-1.844-1.829c-.57 0-1.703.216-1.703 1.828s1.031 2.25 1.703 2.25s1.844-.625 1.844-2.25"/><path fill="url(#f1638id6)" d="M17.945 21.36c0-1.626-1.184-1.829-1.844-1.829c-.57 0-1.703.216-1.703 1.828s1.031 2.25 1.703 2.25s1.844-.625 1.844-2.25"/><path fill="url(#f1638idp)" d="M17.945 21.36c0-1.626-1.184-1.829-1.844-1.829c-.57 0-1.703.216-1.703 1.828s1.031 2.25 1.703 2.25s1.844-.625 1.844-2.25"/><path fill="#453559" d="M21.57 19.32c0-1.625-1.184-1.828-1.844-1.828c-.57 0-1.703.216-1.703 1.828s1.031 2.25 1.703 2.25s1.844-.625 1.844-2.25"/><path fill="url(#f1638id7)" d="M21.57 19.32c0-1.625-1.184-1.828-1.844-1.828c-.57 0-1.703.216-1.703 1.828s1.031 2.25 1.703 2.25s1.844-.625 1.844-2.25"/><path fill="url(#f1638idq)" d="M21.57 19.32c0-1.625-1.184-1.828-1.844-1.828c-.57 0-1.703.216-1.703 1.828s1.031 2.25 1.703 2.25s1.844-.625 1.844-2.25"/><path fill="#453559" d="M25.945 19.32c0-1.625-1.184-1.828-1.844-1.828c-.57 0-1.703.216-1.703 1.828s1.031 2.25 1.703 2.25s1.844-.625 1.844-2.25"/><path fill="url(#f1638id8)" d="M25.945 19.32c0-1.625-1.184-1.828-1.844-1.828c-.57 0-1.703.216-1.703 1.828s1.031 2.25 1.703 2.25s1.844-.625 1.844-2.25"/><path fill="url(#f1638idr)" d="M25.945 19.32c0-1.625-1.184-1.828-1.844-1.828c-.57 0-1.703.216-1.703 1.828s1.031 2.25 1.703 2.25s1.844-.625 1.844-2.25"/><path fill="#453559" d="M29.492 21.36c0-1.626-1.184-1.829-1.844-1.829c-.57 0-1.703.216-1.703 1.828s1.03 2.25 1.703 2.25c.672 0 1.843-.625 1.843-2.25"/><path fill="url(#f1638id9)" d="M29.492 21.36c0-1.626-1.184-1.829-1.844-1.829c-.57 0-1.703.216-1.703 1.828s1.03 2.25 1.703 2.25c.672 0 1.843-.625 1.843-2.25"/><path fill="url(#f1638ids)" d="M29.492 21.36c0-1.626-1.184-1.829-1.844-1.829c-.57 0-1.703.216-1.703 1.828s1.03 2.25 1.703 2.25c.672 0 1.843-.625 1.843-2.25"/><g filter="url(#f1638idx)"><path fill="#453559" d="M26.929 27.5c0-2.922-1.89-5.453-4.984-5.453S16.99 24.516 16.99 27.5c0 2.484 2.962 2.484 4.946 2.484h.008c2.203 0 4.984-.078 4.984-2.484"/><path fill="url(#f1638idt)" d="M26.929 27.5c0-2.922-1.89-5.453-4.984-5.453S16.99 24.516 16.99 27.5c0 2.484 2.962 2.484 4.946 2.484h.008c2.203 0 4.984-.078 4.984-2.484"/><path fill="url(#f1638ida)" d="M26.929 27.5c0-2.922-1.89-5.453-4.984-5.453S16.99 24.516 16.99 27.5c0 2.484 2.962 2.484 4.946 2.484h.008c2.203 0 4.984-.078 4.984-2.484"/><path fill="url(#f1638idb)" d="M26.929 27.5c0-2.922-1.89-5.453-4.984-5.453S16.99 24.516 16.99 27.5c0 2.484 2.962 2.484 4.946 2.484h.008c2.203 0 4.984-.078 4.984-2.484"/></g><g filter="url(#f1638idy)"><path fill="url(#f1638idu)" d="M24.235 27.23c-.265-3.102-1.95-4.584-2.666-4.63c3.759 0 4.58 2.992 4.74 4.702a.91.91 0 0 1-.481.87c-.683.378-1.526-.165-1.593-.942"/></g><g filter="url(#f1638idz)"><path fill="url(#f1638idv)" d="M12.061 15.19c-.265-3.101-1.95-4.584-2.666-4.63c3.759 0 4.58 2.992 4.74 4.702a.91.91 0 0 1-.481.871c-.682.378-1.526-.165-1.593-.942"/></g><g filter="url(#f1638id10)"><ellipse cx="16.515" cy="21.109" fill="url(#f1638idc)" rx="1.033" ry="1.226" transform="rotate(-30 16.515 21.11)"/></g><g filter="url(#f1638id11)"><ellipse cx="19.929" cy="19.07" fill="url(#f1638idd)" rx="1.033" ry="1.226" transform="rotate(-30 19.929 19.07)"/></g><g filter="url(#f1638id12)"><ellipse cx="16" cy="9.146" fill="url(#f1638ide)" rx="1.033" ry="1.226" transform="rotate(-30 16 9.146)"/></g><g filter="url(#f1638id13)"><ellipse cx="12.437" cy="6.939" fill="url(#f1638idf)" rx="1.033" ry="1.226" transform="rotate(-30 12.437 6.94)"/></g><g filter="url(#f1638id14)"><ellipse cx="8.078" cy="7.023" fill="url(#f1638idg)" rx="1.033" ry="1.226" transform="rotate(-30 8.078 7.023)"/></g><g filter="url(#f1638id15)"><ellipse cx="4.437" cy="8.981" fill="url(#f1638idh)" rx="1.033" ry="1.226" transform="rotate(-30 4.437 8.981)"/></g><g filter="url(#f1638id16)"><ellipse cx="24.437" cy="18.986" fill="url(#f1638idi)" rx="1.033" ry="1.226" transform="rotate(-30 24.437 18.986)"/></g><g filter="url(#f1638id17)"><ellipse cx="27.928" cy="21.193" fill="url(#f1638idj)" rx="1.033" ry="1.226" transform="rotate(-30 27.928 21.193)"/></g><defs><radialGradient id="f1638id0" cx="0" cy="0" r="1" gradientTransform="matrix(-1.60192 -1.9571 1.53562 -1.25693 4.825 10.15)" gradientUnits="userSpaceOnUse"><stop offset=".683" stop-color="#312C39" stop-opacity="0"/><stop offset="1" stop-color="#312C39"/></radialGradient><radialGradient id="f1638id1" cx="0" cy="0" r="1" gradientTransform="matrix(-1.60192 -1.9571 1.53562 -1.25693 8.45 8.112)" gradientUnits="userSpaceOnUse"><stop offset=".683" stop-color="#312C39" stop-opacity="0"/><stop offset="1" stop-color="#312C39"/></radialGradient><radialGradient id="f1638id2" cx="0" cy="0" r="1" gradientTransform="matrix(-1.60192 -1.9571 1.53562 -1.25693 12.825 8.112)" gradientUnits="userSpaceOnUse"><stop offset=".683" stop-color="#312C39" stop-opacity="0"/><stop offset="1" stop-color="#312C39"/></radialGradient><radialGradient id="f1638id3" cx="0" cy="0" r="1" gradientTransform="matrix(-1.60192 -1.9571 1.53562 -1.25693 16.372 10.15)" gradientUnits="userSpaceOnUse"><stop offset=".683" stop-color="#312C39" stop-opacity="0"/><stop offset="1" stop-color="#312C39"/></radialGradient><radialGradient id="f1638id4" cx="0" cy="0" r="1" gradientTransform="matrix(-4.43886 2.45787 -3.5941 -6.49087 14.127 13.587)" gradientUnits="userSpaceOnUse"><stop stop-color="#534763"/><stop offset="1" stop-color="#534763" stop-opacity="0"/></radialGradient><radialGradient id="f1638id5" cx="0" cy="0" r="1" gradientTransform="rotate(-140.741 8.398 5.876)scale(6.4487 5.98399)" gradientUnits="userSpaceOnUse"><stop offset=".683" stop-color="#312C39" stop-opacity="0"/><stop offset="1" stop-color="#312C39"/></radialGradient><radialGradient id="f1638id6" cx="0" cy="0" r="1" gradientTransform="matrix(.79078 -1.88745 1.74073 .7293 15.827 21.887)" gradientUnits="userSpaceOnUse"><stop offset=".683" stop-color="#312C39" stop-opacity="0"/><stop offset="1" stop-color="#312C39"/></radialGradient><radialGradient id="f1638id7" cx="0" cy="0" r="1" gradientTransform="matrix(.79078 -1.88745 1.74073 .7293 19.452 19.848)" gradientUnits="userSpaceOnUse"><stop offset=".683" stop-color="#312C39" stop-opacity="0"/><stop offset="1" stop-color="#312C39"/></radialGradient><radialGradient id="f1638id8" cx="0" cy="0" r="1" gradientTransform="matrix(.79078 -1.88745 1.74073 .7293 23.827 19.848)" gradientUnits="userSpaceOnUse"><stop offset=".683" stop-color="#312C39" stop-opacity="0"/><stop offset="1" stop-color="#312C39"/></radialGradient><radialGradient id="f1638id9" cx="0" cy="0" r="1" gradientTransform="matrix(.79078 -1.88745 1.74073 .7293 27.373 21.887)" gradientUnits="userSpaceOnUse"><stop offset=".683" stop-color="#312C39" stop-opacity="0"/><stop offset="1" stop-color="#312C39"/></radialGradient><radialGradient id="f1638ida" cx="0" cy="0" r="1" gradientTransform="matrix(-4.43886 2.45787 -3.5941 -6.49087 26.127 25.634)" gradientUnits="userSpaceOnUse"><stop stop-color="#534763"/><stop offset="1" stop-color="#534763" stop-opacity="0"/></radialGradient><radialGradient id="f1638idb" cx="0" cy="0" r="1" gradientTransform="rotate(-140.741 16.547 9.76)scale(6.4487 5.98399)" gradientUnits="userSpaceOnUse"><stop offset=".683" stop-color="#312C39" stop-opacity="0"/><stop offset="1" stop-color="#312C39"/></radialGradient><radialGradient id="f1638idc" cx="0" cy="0" r="1" gradientTransform="matrix(-1.56306 .13112 -.14489 -1.7272 17.08 21.156)" gradientUnits="userSpaceOnUse"><stop stop-color="#80768B"/><stop offset="1" stop-color="#5D5566" stop-opacity="0"/></radialGradient><radialGradient id="f1638idd" cx="0" cy="0" r="1" gradientTransform="matrix(-1.56306 .13112 -.14489 -1.7272 20.494 19.117)" gradientUnits="userSpaceOnUse"><stop stop-color="#80768B"/><stop offset="1" stop-color="#5D5566" stop-opacity="0"/></radialGradient><radialGradient id="f1638ide" cx="0" cy="0" r="1" gradientTransform="matrix(-1.56306 .13112 -.14489 -1.7272 16.565 9.193)" gradientUnits="userSpaceOnUse"><stop stop-color="#80768B"/><stop offset="1" stop-color="#5D5566" stop-opacity="0"/></radialGradient><radialGradient id="f1638idf" cx="0" cy="0" r="1" gradientTransform="matrix(-1.56306 .13112 -.14489 -1.7272 13.002 6.986)" gradientUnits="userSpaceOnUse"><stop stop-color="#80768B"/><stop offset="1" stop-color="#5D5566" stop-opacity="0"/></radialGradient><radialGradient id="f1638idg" cx="0" cy="0" r="1" gradientTransform="matrix(-1.56306 .13112 -.14489 -1.7272 8.644 7.07)" gradientUnits="userSpaceOnUse"><stop stop-color="#80768B"/><stop offset="1" stop-color="#5D5566" stop-opacity="0"/></radialGradient><radialGradient id="f1638idh" cx="0" cy="0" r="1" gradientTransform="matrix(-1.56306 .13112 -.14489 -1.7272 5.002 9.028)" gradientUnits="userSpaceOnUse"><stop stop-color="#80768B"/><stop offset="1" stop-color="#5D5566" stop-opacity="0"/></radialGradient><radialGradient id="f1638idi" cx="0" cy="0" r="1" gradientTransform="matrix(-1.56306 .13112 -.14489 -1.7272 25.002 19.033)" gradientUnits="userSpaceOnUse"><stop stop-color="#80768B"/><stop offset="1" stop-color="#5D5566" stop-opacity="0"/></radialGradient><radialGradient id="f1638idj" cx="0" cy="0" r="1" gradientTransform="matrix(-1.56306 .13112 -.14489 -1.7272 28.494 21.24)" gradientUnits="userSpaceOnUse"><stop stop-color="#80768B"/><stop offset="1" stop-color="#5D5566" stop-opacity="0"/></radialGradient><linearGradient id="f1638idk" x1="4.171" x2="4.171" y1="12.067" y2="9.523" gradientUnits="userSpaceOnUse"><stop stop-color="#4C276C"/><stop offset="1" stop-color="#4C276C" stop-opacity="0"/></linearGradient><linearGradient id="f1638idl" x1="7.796" x2="7.796" y1="10.028" y2="7.484" gradientUnits="userSpaceOnUse"><stop stop-color="#4C276C"/><stop offset="1" stop-color="#4C276C" stop-opacity="0"/></linearGradient><linearGradient id="f1638idm" x1="12.171" x2="12.171" y1="10.028" y2="7.484" gradientUnits="userSpaceOnUse"><stop stop-color="#4C276C"/><stop offset="1" stop-color="#4C276C" stop-opacity="0"/></linearGradient><linearGradient id="f1638idn" x1="15.718" x2="15.718" y1="12.067" y2="9.523" gradientUnits="userSpaceOnUse"><stop stop-color="#4C276C"/><stop offset="1" stop-color="#4C276C" stop-opacity="0"/></linearGradient><linearGradient id="f1638ido" x1="9.96" x2="9.96" y1="18.706" y2="13.969" gradientUnits="userSpaceOnUse"><stop stop-color="#4C276C"/><stop offset="1" stop-color="#4C276C" stop-opacity="0"/></linearGradient><linearGradient id="f1638idp" x1="16.171" x2="16.171" y1="24.114" y2="21.57" gradientUnits="userSpaceOnUse"><stop stop-color="#4C276C"/><stop offset="1" stop-color="#4C276C" stop-opacity="0"/></linearGradient><linearGradient id="f1638idq" x1="19.796" x2="19.796" y1="22.075" y2="19.531" gradientUnits="userSpaceOnUse"><stop stop-color="#4C276C"/><stop offset="1" stop-color="#4C276C" stop-opacity="0"/></linearGradient><linearGradient id="f1638idr" x1="24.171" x2="24.171" y1="22.075" y2="19.531" gradientUnits="userSpaceOnUse"><stop stop-color="#4C276C"/><stop offset="1" stop-color="#4C276C" stop-opacity="0"/></linearGradient><linearGradient id="f1638ids" x1="27.718" x2="27.718" y1="24.114" y2="21.57" gradientUnits="userSpaceOnUse"><stop stop-color="#4C276C"/><stop offset="1" stop-color="#4C276C" stop-opacity="0"/></linearGradient><linearGradient id="f1638idt" x1="21.96" x2="21.96" y1="30.753" y2="26.016" gradientUnits="userSpaceOnUse"><stop stop-color="#4C276C"/><stop offset="1" stop-color="#4C276C" stop-opacity="0"/></linearGradient><linearGradient id="f1638idu" x1="26.086" x2="23.476" y1="24.384" y2="25.829" gradientUnits="userSpaceOnUse"><stop stop-color="#777081"/><stop offset="1" stop-color="#6A6373" stop-opacity="0"/></linearGradient><linearGradient id="f1638idv" x1="13.912" x2="11.302" y1="12.345" y2="13.789" gradientUnits="userSpaceOnUse"><stop stop-color="#777081"/><stop offset="1" stop-color="#6A6373" stop-opacity="0"/></linearGradient><filter id="f1638idw" width="10.037" height="8.037" x="4.991" y="10" color-interpolation-filters="sRGB" filterUnits="userSpaceOnUse"><feFlood flood-opacity="0" result="BackgroundImageFix"/><feBlend in="SourceGraphic" in2="BackgroundImageFix" result="shape"/><feColorMatrix in="SourceAlpha" result="hardAlpha" values="0 0 0 0 0 0 0 0 0 0 0 0 0 0 0 0 0 0 127 0"/><feOffset dx=".1" dy=".1"/><feGaussianBlur stdDeviation=".5"/><feComposite in2="hardAlpha" k2="-1" k3="1" operator="arithmetic"/><feColorMatrix values="0 0 0 0 0.368627 0 0 0 0 0.364706 0 0 0 0 0.380392 0 0 0 1 0"/><feBlend in2="shape" result="effect1_innerShadow_28327_4554"/></filter><filter id="f1638idx" width="10.037" height="8.037" x="16.991" y="22.047" color-interpolation-filters="sRGB" filterUnits="userSpaceOnUse"><feFlood flood-opacity="0" result="BackgroundImageFix"/><feBlend in="SourceGraphic" in2="BackgroundImageFix" result="shape"/><feColorMatrix in="SourceAlpha" result="hardAlpha" values="0 0 0 0 0 0 0 0 0 0 0 0 0 0 0 0 0 0 127 0"/><feOffset dx=".1" dy=".1"/><feGaussianBlur stdDeviation=".5"/><feComposite in2="hardAlpha" k2="-1" k3="1" operator="arithmetic"/><feColorMatrix values="0 0 0 0 0.368627 0 0 0 0 0.364706 0 0 0 0 0.380392 0 0 0 1 0"/><feBlend in2="shape" result="effect1_innerShadow_28327_4554"/></filter><filter id="f1638idy" width="6.744" height="7.697" x="20.569" y="21.599" color-interpolation-filters="sRGB" filterUnits="userSpaceOnUse"><feFlood flood-opacity="0" result="BackgroundImageFix"/><feBlend in="SourceGraphic" in2="BackgroundImageFix" result="shape"/><feGaussianBlur result="effect1_foregroundBlur_28327_4554" stdDeviation=".5"/></filter><filter id="f1638idz" width="6.744" height="7.697" x="8.395" y="9.56" color-interpolation-filters="sRGB" filterUnits="userSpaceOnUse"><feFlood flood-opacity="0" result="BackgroundImageFix"/><feBlend in="SourceGraphic" in2="BackgroundImageFix" result="shape"/><feGaussianBlur result="effect1_foregroundBlur_28327_4554" stdDeviation=".5"/></filter><filter id="f1638id10" width="4.169" height="4.362" x="14.43" y="18.928" color-interpolation-filters="sRGB" filterUnits="userSpaceOnUse"><feFlood flood-opacity="0" result="BackgroundImageFix"/><feBlend in="SourceGraphic" in2="BackgroundImageFix" result="shape"/><feGaussianBlur result="effect1_foregroundBlur_28327_4554" stdDeviation=".5"/></filter><filter id="f1638id11" width="4.169" height="4.362" x="17.844" y="16.889" color-interpolation-filters="sRGB" filterUnits="userSpaceOnUse"><feFlood flood-opacity="0" result="BackgroundImageFix"/><feBlend in="SourceGraphic" in2="BackgroundImageFix" result="shape"/><feGaussianBlur result="effect1_foregroundBlur_28327_4554" stdDeviation=".5"/></filter><filter id="f1638id12" width="4.169" height="4.362" x="13.915" y="6.965" color-interpolation-filters="sRGB" filterUnits="userSpaceOnUse"><feFlood flood-opacity="0" result="BackgroundImageFix"/><feBlend in="SourceGraphic" in2="BackgroundImageFix" result="shape"/><feGaussianBlur result="effect1_foregroundBlur_28327_4554" stdDeviation=".5"/></filter><filter id="f1638id13" width="4.169" height="4.362" x="10.352" y="4.759" color-interpolation-filters="sRGB" filterUnits="userSpaceOnUse"><feFlood flood-opacity="0" result="BackgroundImageFix"/><feBlend in="SourceGraphic" in2="BackgroundImageFix" result="shape"/><feGaussianBlur result="effect1_foregroundBlur_28327_4554" stdDeviation=".5"/></filter><filter id="f1638id14" width="4.169" height="4.362" x="5.993" y="4.843" color-interpolation-filters="sRGB" filterUnits="userSpaceOnUse"><feFlood flood-opacity="0" result="BackgroundImageFix"/><feBlend in="SourceGraphic" in2="BackgroundImageFix" result="shape"/><feGaussianBlur result="effect1_foregroundBlur_28327_4554" stdDeviation=".5"/></filter><filter id="f1638id15" width="4.169" height="4.362" x="2.352" y="6.801" color-interpolation-filters="sRGB" filterUnits="userSpaceOnUse"><feFlood flood-opacity="0" result="BackgroundImageFix"/><feBlend in="SourceGraphic" in2="BackgroundImageFix" result="shape"/><feGaussianBlur result="effect1_foregroundBlur_28327_4554" stdDeviation=".5"/></filter><filter id="f1638id16" width="4.169" height="4.362" x="22.352" y="16.805" color-interpolation-filters="sRGB" filterUnits="userSpaceOnUse"><feFlood flood-opacity="0" result="BackgroundImageFix"/><feBlend in="SourceGraphic" in2="BackgroundImageFix" result="shape"/><feGaussianBlur result="effect1_foregroundBlur_28327_4554" stdDeviation=".5"/></filter><filter id="f1638id17" width="4.169" height="4.362" x="25.844" y="19.012" color-interpolation-filters="sRGB" filterUnits="userSpaceOnUse"><feFlood flood-opacity="0" result="BackgroundImageFix"/><feBlend in="SourceGraphic" in2="BackgroundImageFix" result="shape"/><feGaussianBlur result="effect1_foregroundBlur_28327_4554" stdDeviation=".5"/></filter></defs></g></svg>