<svg xmlns="http://www.w3.org/2000/svg" xmlns:xlink="http://www.w3.org/1999/xlink" width="32" height="32" viewBox="0 0 32 32"><g fill="none"><path fill="#559B40" d="M8.5 12.5c-4.952 5.282-6.13 11.512-6.412 14.18c-.089.846.25 1.658.851 2.259c.673.672 1.606 1.012 2.546.864C8.69 29.298 16.349 27.652 21 23c7-7 7-18 7-18l-1-1S15 5.567 8.5 12.5"/><path fill="url(#f1639id0)" d="M8.5 12.5c-4.952 5.282-6.13 11.512-6.412 14.18c-.089.846.25 1.658.851 2.259c.673.672 1.606 1.012 2.546.864C8.69 29.298 16.349 27.652 21 23c7-7 7-18 7-18l-1-1S15 5.567 8.5 12.5"/><path fill="url(#f1639id1)" d="M8.5 12.5c-4.952 5.282-6.13 11.512-6.412 14.18c-.089.846.25 1.658.851 2.259c.673.672 1.606 1.012 2.546.864C8.69 29.298 16.349 27.652 21 23c7-7 7-18 7-18l-1-1S15 5.567 8.5 12.5"/><path fill="url(#f1639id2)" d="M8.5 12.5c-4.952 5.282-6.13 11.512-6.412 14.18c-.089.846.25 1.658.851 2.259c.673.672 1.606 1.012 2.546.864C8.69 29.298 16.349 27.652 21 23c7-7 7-18 7-18l-1-1S15 5.567 8.5 12.5"/><path fill="url(#f1639id3)" d="M8.5 12.5c-4.952 5.282-6.13 11.512-6.412 14.18c-.089.846.25 1.658.851 2.259c.673.672 1.606 1.012 2.546.864C8.69 29.298 16.349 27.652 21 23c7-7 7-18 7-18l-1-1S15 5.567 8.5 12.5"/><path fill="#1B3E25" d="M9.5 14c-3.878 4.46-5.049 9.22-5.38 11.132c-.094.55.107 1.095.501 1.49c.756.755 1.987.74 2.724-.034L26 7l-1-1S14.5 8.25 9.5 14"/><path fill="url(#f1639id4)" d="M9.5 14c-3.878 4.46-5.049 9.22-5.38 11.132c-.094.55.107 1.095.501 1.49c.756.755 1.987.74 2.724-.034L26 7l-1-1S14.5 8.25 9.5 14"/><path fill="url(#f1639id5)" d="M9.5 14c-3.878 4.46-5.049 9.22-5.38 11.132c-.094.55.107 1.095.501 1.49c.756.755 1.987.74 2.724-.034L26 7l-1-1S14.5 8.25 9.5 14"/><path fill="url(#f1639id6)" d="M9.5 14c-3.878 4.46-5.049 9.22-5.38 11.132c-.094.55.107 1.095.501 1.49c.756.755 1.987.74 2.724-.034L26 7l-1-1S14.5 8.25 9.5 14"/><path fill="#63A860" fill-rule="evenodd" d="M19.65 8.31c-3.229 1.272-7.012 3.236-9.432 6.018c-3.796 4.366-4.942 9.028-5.264 10.89c-.064.37.069.757.362 1.05c.557.558 1.561.787 2.105.216c-.5.703-1.974 1.025-2.718.282c-.495-.496-.775-1.156-.65-1.883c.34-1.963 1.451-6.658 5.41-11.21c2.58-2.968 6.547-5.004 9.82-6.294a45 45 0 0 1 4.203-1.418a37 37 0 0 1 1.717-.442l.024-.005l.006-.002h.002l.106.488l.105.49h-.006l-.021.005a12 12 0 0 0-.42.099c-.292.071-.716.18-1.24.329a44 44 0 0 0-4.11 1.386" clip-rule="evenodd"/><path fill="url(#f1639idt)" fill-rule="evenodd" d="M19.65 8.31c-3.229 1.272-7.012 3.236-9.432 6.018c-3.796 4.366-4.942 9.028-5.264 10.89c-.064.37.069.757.362 1.05c.557.558 1.561.787 2.105.216c-.5.703-1.974 1.025-2.718.282c-.495-.496-.775-1.156-.65-1.883c.34-1.963 1.451-6.658 5.41-11.21c2.58-2.968 6.547-5.004 9.82-6.294a45 45 0 0 1 4.203-1.418a37 37 0 0 1 1.717-.442l.024-.005l.006-.002h.002l.106.488l.105.49h-.006l-.021.005a12 12 0 0 0-.42.099c-.292.071-.716.18-1.24.329a44 44 0 0 0-4.11 1.386" clip-rule="evenodd"/><path fill="url(#f1639id7)" fill-rule="evenodd" d="M19.65 8.31c-3.229 1.272-7.012 3.236-9.432 6.018c-3.796 4.366-4.942 9.028-5.264 10.89c-.064.37.069.757.362 1.05c.557.558 1.561.787 2.105.216c-.5.703-1.974 1.025-2.718.282c-.495-.496-.775-1.156-.65-1.883c.34-1.963 1.451-6.658 5.41-11.21c2.58-2.968 6.547-5.004 9.82-6.294a45 45 0 0 1 4.203-1.418a37 37 0 0 1 1.717-.442l.024-.005l.006-.002h.002l.106.488l.105.49h-.006l-.021.005a12 12 0 0 0-.42.099c-.292.071-.716.18-1.24.329a44 44 0 0 0-4.11 1.386" clip-rule="evenodd"/><path fill="url(#f1639id8)" fill-rule="evenodd" d="M19.65 8.31c-3.229 1.272-7.012 3.236-9.432 6.018c-3.796 4.366-4.942 9.028-5.264 10.89c-.064.37.069.757.362 1.05c.557.558 1.561.787 2.105.216c-.5.703-1.974 1.025-2.718.282c-.495-.496-.775-1.156-.65-1.883c.34-1.963 1.451-6.658 5.41-11.21c2.58-2.968 6.547-5.004 9.82-6.294a45 45 0 0 1 4.203-1.418a37 37 0 0 1 1.717-.442l.024-.005l.006-.002h.002l.106.488l.105.49h-.006l-.021.005a12 12 0 0 0-.42.099c-.292.071-.716.18-1.24.329a44 44 0 0 0-4.11 1.386" clip-rule="evenodd"/><path fill="url(#f1639id9)" d="M15 21a4 4 0 1 1-8 0a4 4 0 0 1 8 0"/><path fill="url(#f1639idu)" fill-opacity=".2" d="M15 21a4 4 0 1 1-8 0a4 4 0 0 1 8 0"/><path fill="url(#f1639ida)" d="M15 21a4 4 0 1 1-8 0a4 4 0 0 1 8 0"/><path fill="url(#f1639idb)" d="M5.485 29.803C8.692 29.298 16.35 27.652 21.001 23c7-7 7-18 7-18c-2.062 2.047-7.248 7.494-12.587 13.078A1963 1963 0 0 0 7.36 26.57c-.458.487-1.21.696-1.68.61c-1 .879-1.83 1.587-2.374 2.062c1.093.813 2.18.561 2.18.561"/><path fill="url(#f1639idc)" d="M5.485 29.803C8.692 29.298 16.35 27.652 21.001 23c7-7 7-18 7-18c-2.062 2.047-7.248 7.494-12.587 13.078A1963 1963 0 0 0 7.36 26.57c-.458.487-1.21.696-1.68.61c-1 .879-1.83 1.587-2.374 2.062c1.093.813 2.18.561 2.18.561"/><path fill="url(#f1639idd)" d="M5.485 29.803C8.692 29.298 16.35 27.652 21.001 23c7-7 7-18 7-18c-2.062 2.047-7.248 7.494-12.587 13.078A1963 1963 0 0 0 7.36 26.57c-.458.487-1.21.696-1.68.61c-1 .879-1.83 1.587-2.374 2.062c1.093.813 2.18.561 2.18.561"/><path fill="url(#f1639ide)" d="M5.485 29.803C8.692 29.298 16.35 27.652 21.001 23c7-7 7-18 7-18c-2.062 2.047-7.248 7.494-12.587 13.078A1963 1963 0 0 0 7.36 26.57c-.458.487-1.21.696-1.68.61c-1 .879-1.83 1.587-2.374 2.062c1.093.813 2.18.561 2.18.561"/><path fill="url(#f1639idf)" d="M5.485 29.803C8.692 29.298 16.35 27.652 21.001 23c7-7 7-18 7-18c-2.062 2.047-7.248 7.494-12.587 13.078A1963 1963 0 0 0 7.36 26.57c-.458.487-1.21.696-1.68.61c-1 .879-1.83 1.587-2.374 2.062c1.093.813 2.18.561 2.18.561"/><path fill="#8DD753" d="M30 5a3 3 0 0 1-.794 2.033l.339 1.692a6 6 0 0 1-.739 4.264l-.949 1.582a1 1 0 0 1-1.715 0l-.949-1.582a6 6 0 0 1-.738-4.264l.295-1.475l-1.476.295a6 6 0 0 1-4.263-.738l-1.582-.95a1 1 0 0 1 0-1.714l1.582-.95a6 6 0 0 1 4.263-.738l1.693.338A3 3 0 0 1 30 5"/><path fill="url(#f1639idg)" d="M30 5a3 3 0 0 1-.794 2.033l.339 1.692a6 6 0 0 1-.739 4.264l-.949 1.582a1 1 0 0 1-1.715 0l-.949-1.582a6 6 0 0 1-.738-4.264l.295-1.475l-1.476.295a6 6 0 0 1-4.263-.738l-1.582-.95a1 1 0 0 1 0-1.714l1.582-.95a6 6 0 0 1 4.263-.738l1.693.338A3 3 0 0 1 30 5"/><path fill="url(#f1639idh)" d="M30 5a3 3 0 0 1-.794 2.033l.339 1.692a6 6 0 0 1-.739 4.264l-.949 1.582a1 1 0 0 1-1.715 0l-.949-1.582a6 6 0 0 1-.738-4.264l.295-1.475l-1.476.295a6 6 0 0 1-4.263-.738l-1.582-.95a1 1 0 0 1 0-1.714l1.582-.95a6 6 0 0 1 4.263-.738l1.693.338A3 3 0 0 1 30 5"/><path fill="url(#f1639idi)" d="M30 5a3 3 0 0 1-.794 2.033l.339 1.692a6 6 0 0 1-.739 4.264l-.949 1.582a1 1 0 0 1-1.715 0l-.949-1.582a6 6 0 0 1-.738-4.264l.295-1.475l-1.476.295a6 6 0 0 1-4.263-.738l-1.582-.95a1 1 0 0 1 0-1.714l1.582-.95a6 6 0 0 1 4.263-.738l1.693.338A3 3 0 0 1 30 5"/><path fill="#73B530" d="m29.239 7.254l.31 1.473a5.96 5.96 0 0 1-.71 4.27l-.943 1.59a1.013 1.013 0 0 1-1.73.014l-.971-1.574a5.96 5.96 0 0 1-.781-4.257l.327-1.696c.156-.675 1.345-1.972 2.21-2.02c.662-.037 2.108 1.388 2.288 2.2"/><path fill="url(#f1639idj)" d="m29.239 7.254l.31 1.473a5.96 5.96 0 0 1-.71 4.27l-.943 1.59a1.013 1.013 0 0 1-1.73.014l-.971-1.574a5.96 5.96 0 0 1-.781-4.257l.327-1.696c.156-.675 1.345-1.972 2.21-2.02c.662-.037 2.108 1.388 2.288 2.2"/><path fill="url(#f1639idk)" d="m29.239 7.254l.31 1.473a5.96 5.96 0 0 1-.71 4.27l-.943 1.59a1.013 1.013 0 0 1-1.73.014l-.971-1.574a5.96 5.96 0 0 1-.781-4.257l.327-1.696c.156-.675 1.345-1.972 2.21-2.02c.662-.037 2.108 1.388 2.288 2.2"/><path fill="url(#f1639idl)" d="m29.239 7.254l.31 1.473a5.96 5.96 0 0 1-.71 4.27l-.943 1.59a1.013 1.013 0 0 1-1.73.014l-.971-1.574a5.96 5.96 0 0 1-.781-4.257l.327-1.696c.156-.675 1.345-1.972 2.21-2.02c.662-.037 2.108 1.388 2.288 2.2"/><path fill="url(#f1639idm)" d="m29.239 7.254l.31 1.473a5.96 5.96 0 0 1-.71 4.27l-.943 1.59a1.013 1.013 0 0 1-1.73.014l-.971-1.574a5.96 5.96 0 0 1-.781-4.257l.327-1.696c.156-.675 1.345-1.972 2.21-2.02c.662-.037 2.108 1.388 2.288 2.2"/><path fill="#72B325" d="m24.75 7.25l-1.476.295a6 6 0 0 1-4.263-.739l-1.582-.949a1 1 0 0 1 0-1.715l1.582-.95a6 6 0 0 1 4.263-.738l1.693.339c.674.16 1.96 1.35 2.002 2.207c.031.656-1.407 2.078-2.22 2.25"/><path fill="url(#f1639idn)" d="m24.75 7.25l-1.476.295a6 6 0 0 1-4.263-.739l-1.582-.949a1 1 0 0 1 0-1.715l1.582-.95a6 6 0 0 1 4.263-.738l1.693.339c.674.16 1.96 1.35 2.002 2.207c.031.656-1.407 2.078-2.22 2.25"/><path fill="url(#f1639ido)" d="m24.75 7.25l-1.476.295a6 6 0 0 1-4.263-.739l-1.582-.949a1 1 0 0 1 0-1.715l1.582-.95a6 6 0 0 1 4.263-.738l1.693.339c.674.16 1.96 1.35 2.002 2.207c.031.656-1.407 2.078-2.22 2.25"/><path fill="url(#f1639idp)" d="m24.75 7.25l-1.476.295a6 6 0 0 1-4.263-.739l-1.582-.949a1 1 0 0 1 0-1.715l1.582-.95a6 6 0 0 1 4.263-.738l1.693.339c.674.16 1.96 1.35 2.002 2.207c.031.656-1.407 2.078-2.22 2.25"/><path fill="url(#f1639idq)" d="m24.75 7.25l-1.476.295a6 6 0 0 1-4.263-.739l-1.582-.949a1 1 0 0 1 0-1.715l1.582-.95a6 6 0 0 1 4.263-.738l1.693.339c.674.16 1.96 1.35 2.002 2.207c.031.656-1.407 2.078-2.22 2.25"/><path fill="url(#f1639idr)" fill-rule="evenodd" d="M21.377 11.855a4 4 0 1 0-5.355 5.623z" clip-rule="evenodd"/><path fill="url(#f1639idv)" fill-opacity=".2" fill-rule="evenodd" d="M21.377 11.855a4 4 0 1 0-5.355 5.623z" clip-rule="evenodd"/><path fill="url(#f1639ids)" fill-rule="evenodd" d="M21.377 11.855a4 4 0 1 0-5.355 5.623z" clip-rule="evenodd"/><defs><radialGradient id="f1639id0" cx="0" cy="0" r="1" gradientTransform="rotate(140.243 5.727 12.99)scale(18.8614 12.1767)" gradientUnits="userSpaceOnUse"><stop offset=".798" stop-color="#6B9562" stop-opacity="0"/><stop offset="1" stop-color="#6B9562"/></radialGradient><radialGradient id="f1639id1" cx="0" cy="0" r="1" gradientTransform="rotate(116.131 -1.836 11.091)scale(11.0689 6.33986)" gradientUnits="userSpaceOnUse"><stop offset=".11" stop-color="#739242"/><stop offset="1" stop-color="#739242" stop-opacity="0"/></radialGradient><radialGradient id="f1639id2" cx="0" cy="0" r="1" gradientTransform="matrix(0 2 -3.98 0 19.688 6.563)" gradientUnits="userSpaceOnUse"><stop offset=".19" stop-color="#2D6A17"/><stop offset="1" stop-color="#427D33" stop-opacity="0"/></radialGradient><radialGradient id="f1639id3" cx="0" cy="0" r="1" gradientTransform="matrix(-4.1875 4.62499 -4.6409 -4.20192 2.75 27.688)" gradientUnits="userSpaceOnUse"><stop stop-color="#4E7D45"/><stop offset="1" stop-color="#4E7D45" stop-opacity="0"/></radialGradient><radialGradient id="f1639id4" cx="0" cy="0" r="1" gradientTransform="matrix(-4.0625 5.5 -5.07343 -3.74743 8.063 16.563)" gradientUnits="userSpaceOnUse"><stop offset=".113" stop-color="#1F5F29"/><stop offset="1" stop-color="#10481B" stop-opacity="0"/></radialGradient><radialGradient id="f1639id5" cx="0" cy="0" r="1" gradientTransform="matrix(2.3125 2.8125 -2.60843 2.14471 4 27.125)" gradientUnits="userSpaceOnUse"><stop offset=".271" stop-color="#255A2E"/><stop offset="1" stop-color="#255A2E" stop-opacity="0"/></radialGradient><radialGradient id="f1639id6" cx="0" cy="0" r="1" gradientTransform="rotate(125.311 9.84 10)scale(7.35272)" gradientUnits="userSpaceOnUse"><stop offset=".314" stop-color="#0E3615"/><stop offset="1" stop-color="#0E3615" stop-opacity="0"/></radialGradient><radialGradient id="f1639id7" cx="0" cy="0" r="1" gradientTransform="matrix(2.375 3.90235 -.8681 .52833 4.344 27.191)" gradientUnits="userSpaceOnUse"><stop offset=".556" stop-color="#76B86B"/><stop offset=".952" stop-color="#76B86B" stop-opacity="0"/></radialGradient><radialGradient id="f1639id8" cx="0" cy="0" r="1" gradientTransform="rotate(146.524 9.182 6.748)scale(4.64565 4.59069)" gradientUnits="userSpaceOnUse"><stop stop-color="#4A794A"/><stop offset="1" stop-color="#559752" stop-opacity="0"/></radialGradient><radialGradient id="f1639id9" cx="0" cy="0" r="1" gradientTransform="matrix(-4.71875 4.65624 -3.44485 -3.4911 11.438 19.875)" gradientUnits="userSpaceOnUse"><stop offset=".125" stop-color="#94C74E"/><stop offset=".485" stop-color="#77A80F"/><stop offset=".829" stop-color="#396607"/></radialGradient><radialGradient id="f1639ida" cx="0" cy="0" r="1" gradientTransform="matrix(-10 12.31246 -8.69762 -7.06408 9.063 18.063)" gradientUnits="userSpaceOnUse"><stop offset=".352" stop-color="#487A00" stop-opacity="0"/><stop offset=".526" stop-color="#487A00"/></radialGradient><radialGradient id="f1639idb" cx="0" cy="0" r="1" gradientTransform="matrix(-12.9298 14.05267 -9.90767 -9.116 16.742 15.75)" gradientUnits="userSpaceOnUse"><stop offset=".204" stop-color="#63A863"/><stop offset=".45" stop-color="#5FA95B"/><stop offset=".687" stop-color="#5FA05F"/></radialGradient><radialGradient id="f1639idc" cx="0" cy="0" r="1" gradientTransform="matrix(-15.81255 16.4863 -.69852 -.66998 16.031 17.42)" gradientUnits="userSpaceOnUse"><stop offset=".158" stop-color="#397E23"/><stop offset=".819" stop-color="#559439" stop-opacity="0"/></radialGradient><radialGradient id="f1639idd" cx="0" cy="0" r="1" gradientTransform="matrix(.4375 6.4375 -2.6836 .18238 26.125 10.25)" gradientUnits="userSpaceOnUse"><stop offset=".592" stop-color="#336B2B"/><stop offset="1" stop-color="#4F9244" stop-opacity="0"/></radialGradient><radialGradient id="f1639ide" cx="0" cy="0" r="1" gradientTransform="rotate(131.513 -3.947 15.024)scale(6.17652 6.19184)" gradientUnits="userSpaceOnUse"><stop stop-color="#528348"/><stop offset="1" stop-color="#4E7D45" stop-opacity="0"/></radialGradient><radialGradient id="f1639idf" cx="0" cy="0" r="1" gradientTransform="matrix(9.18752 19.68745 -34.21192 15.96564 8.312 9.688)" gradientUnits="userSpaceOnUse"><stop offset=".768" stop-color="#609765" stop-opacity="0"/><stop offset=".852" stop-color="#7B7C93"/></radialGradient><radialGradient id="f1639idg" cx="0" cy="0" r="1" gradientTransform="rotate(139.946 13.682 7.093)scale(4.61337)" gradientUnits="userSpaceOnUse"><stop offset=".123" stop-color="#97DE61"/><stop offset=".677" stop-color="#5CB808"/></radialGradient><radialGradient id="f1639idh" cx="0" cy="0" r="1" gradientTransform="matrix(-1.28124 1.0625 -1.9389 -2.33808 25.531 4.125)" gradientUnits="userSpaceOnUse"><stop offset=".453" stop-color="#87D34C"/><stop offset=".76" stop-color="#87D34C" stop-opacity="0"/></radialGradient><radialGradient id="f1639idi" cx="0" cy="0" r="1" gradientTransform="matrix(-.90624 1.09375 -2.27115 -1.8818 27 5.156)" gradientUnits="userSpaceOnUse"><stop stop-color="#97E061"/><stop offset="1" stop-color="#97E061" stop-opacity="0"/></radialGradient><radialGradient id="f1639idj" cx="0" cy="0" r="1" gradientTransform="matrix(.53126 6.53907 -3.22542 .26204 28.281 8.563)" gradientUnits="userSpaceOnUse"><stop stop-color="#9EEB66"/><stop offset=".294" stop-color="#8EDD4A"/><stop offset="1" stop-color="#7CC936" stop-opacity="0"/></radialGradient><radialGradient id="f1639idk" cx="0" cy="0" r="1" gradientTransform="matrix(.92969 5.875 -2.82098 .4464 26.063 14.25)" gradientUnits="userSpaceOnUse"><stop stop-color="#74A34E"/><stop offset="1" stop-color="#7AB445" stop-opacity="0"/></radialGradient><radialGradient id="f1639idl" cx="0" cy="0" r="1" gradientTransform="matrix(1.5 17.9961 -9.65583 .80483 28.656 10.066)" gradientUnits="userSpaceOnUse"><stop offset=".266" stop-color="#74B633" stop-opacity="0"/><stop offset=".431" stop-color="#569614"/></radialGradient><radialGradient id="f1639idm" cx="0" cy="0" r="1" gradientTransform="matrix(-1.57812 1.89063 -.87529 -.7306 26.328 5.578)" gradientUnits="userSpaceOnUse"><stop offset=".307" stop-color="#9AE465"/><stop offset=".823" stop-color="#9AE465" stop-opacity="0"/></radialGradient><radialGradient id="f1639idn" cx="0" cy="0" r="1" gradientTransform="matrix(-.5 3.9375 -7.13513 -.90605 25.063 4.438)" gradientUnits="userSpaceOnUse"><stop offset=".103" stop-color="#97DD61"/><stop offset="1" stop-color="#7AC430" stop-opacity="0"/></radialGradient><radialGradient id="f1639ido" cx="0" cy="0" r="1" gradientTransform="matrix(-.1875 2.75 -8.82558 -.60175 21.125 8.25)" gradientUnits="userSpaceOnUse"><stop stop-color="#73A34D"/><stop offset="1" stop-color="#73A34D" stop-opacity="0"/></radialGradient><radialGradient id="f1639idp" cx="0" cy="0" r="1" gradientTransform="matrix(0 2.66113 -3.13086 0 16.943 4.999)" gradientUnits="userSpaceOnUse"><stop stop-color="#7EA32E"/><stop offset="1" stop-color="#7EA32E" stop-opacity="0"/></radialGradient><radialGradient id="f1639idq" cx="0" cy="0" r="1" gradientTransform="matrix(-.375 .9375 -1.76575 -.70629 26.063 3.438)" gradientUnits="userSpaceOnUse"><stop stop-color="#62BD0A"/><stop offset="1" stop-color="#62BD0A" stop-opacity="0"/></radialGradient><radialGradient id="f1639idr" cx="0" cy="0" r="1" gradientTransform="matrix(-3.7792 4.78941 -3.09865 -2.44506 18.092 12.687)" gradientUnits="userSpaceOnUse"><stop offset=".125" stop-color="#94C74E"/><stop offset=".485" stop-color="#77A80F"/><stop offset=".829" stop-color="#396607"/></radialGradient><radialGradient id="f1639ids" cx="0" cy="0" r="1" gradientTransform="rotate(128.703 5.312 9.314)scale(14.7464 10.3871)" gradientUnits="userSpaceOnUse"><stop offset=".352" stop-color="#487A00" stop-opacity="0"/><stop offset=".526" stop-color="#487A00"/></radialGradient><linearGradient id="f1639idt" x1="4.688" x2="22.625" y1="26.688" y2="7.625" gradientUnits="userSpaceOnUse"><stop stop-color="#4BA335"/><stop offset=".263" stop-color="#61A75D"/><stop offset=".648" stop-color="#5EA556"/><stop offset="1" stop-color="#61A358"/></linearGradient><linearGradient id="f1639idu" x1="12.281" x2="10.688" y1="21.625" y2="20.063" gradientUnits="userSpaceOnUse"><stop offset=".25" stop-color="#518213"/><stop offset="1" stop-color="#538312" stop-opacity="0"/></linearGradient><linearGradient id="f1639idv" x1="18.87" x2="17.381" y1="14.323" y2="12.883" gradientUnits="userSpaceOnUse"><stop offset=".25" stop-color="#518213"/><stop offset="1" stop-color="#538312" stop-opacity="0"/></linearGradient></defs></g></svg>