<svg xmlns="http://www.w3.org/2000/svg" xmlns:xlink="http://www.w3.org/1999/xlink" width="32" height="32" viewBox="0 0 32 32"><g fill="none"><path fill="url(#f1979id0)" d="M0 0h1.946v3.44H0z" transform="scale(-1 1)rotate(-4.337 80.037 240.838)"/><path fill="url(#f1979id1)" d="M0 0h1.946v3.44H0z" transform="scale(-1 1)rotate(-4.337 80.037 240.838)"/><path fill="url(#f1979id2)" d="M20.53 5.812a1 1 0 0 1-.257-.457h-.18V6.48c.215.137.522.115.614-.09c.078-.175.02-.394-.176-.578"/><g filter="url(#f1979id16)"><path fill="url(#f1979idu)" d="M20.307 4.848c-.039-.8-.298-1.187-.42-1.3h-3.733l-.062 3.164c.866 2.121 3.511 2.212 3.906 1.445s.354-2.381.309-3.309"/><path fill="url(#f1979id3)" d="M20.307 4.848c-.039-.8-.298-1.187-.42-1.3h-3.733l-.062 3.164c.866 2.121 3.511 2.212 3.906 1.445s.354-2.381.309-3.309"/></g><g filter="url(#f1979id17)"><path fill="#FFBA23" d="M20.156 2.496a1.025 1.025 0 0 0-.984-.578c-.86.047-.977.343-1.754.183c-.822-.169-1.227-.12-1.578.04l-.007.003c-.347.157-1.064.483-1.064 1.95c0 1.351.482 2.065.715 2.32l-.046.016c-.231.084-.327.33-.243.562c.071.197.322.311.637.262c.36-.057.624-.106.831-.147a.25.25 0 0 0 .2-.245V5.75c0-.469.33-.749.477-.832c.015-.485.163-.707.406-.824c.4-.195.526-.099 1.484-.157c.965-.058 1.223-.832.926-1.441"/><path fill="url(#f1979id4)" d="M20.156 2.496a1.025 1.025 0 0 0-.984-.578c-.86.047-.977.343-1.754.183c-.822-.169-1.227-.12-1.578.04l-.007.003c-.347.157-1.064.483-1.064 1.95c0 1.351.482 2.065.715 2.32l-.046.016c-.231.084-.327.33-.243.562c.071.197.322.311.637.262c.36-.057.624-.106.831-.147a.25.25 0 0 0 .2-.245V5.75c0-.469.33-.749.477-.832c.015-.485.163-.707.406-.824c.4-.195.526-.099 1.484-.157c.965-.058 1.223-.832.926-1.441"/><path fill="url(#f1979id5)" d="M20.156 2.496a1.025 1.025 0 0 0-.984-.578c-.86.047-.977.343-1.754.183c-.822-.169-1.227-.12-1.578.04l-.007.003c-.347.157-1.064.483-1.064 1.95c0 1.351.482 2.065.715 2.32l-.046.016c-.231.084-.327.33-.243.562c.071.197.322.311.637.262c.36-.057.624-.106.831-.147a.25.25 0 0 0 .2-.245V5.75c0-.469.33-.749.477-.832c.015-.485.163-.707.406-.824c.4-.195.526-.099 1.484-.157c.965-.058 1.223-.832.926-1.441"/><path fill="url(#f1979id6)" d="M20.156 2.496a1.025 1.025 0 0 0-.984-.578c-.86.047-.977.343-1.754.183c-.822-.169-1.227-.12-1.578.04l-.007.003c-.347.157-1.064.483-1.064 1.95c0 1.351.482 2.065.715 2.32l-.046.016c-.231.084-.327.33-.243.562c.071.197.322.311.637.262c.36-.057.624-.106.831-.147a.25.25 0 0 0 .2-.245V5.75c0-.469.33-.749.477-.832c.015-.485.163-.707.406-.824c.4-.195.526-.099 1.484-.157c.965-.058 1.223-.832.926-1.441"/><path fill="url(#f1979id7)" d="M20.156 2.496a1.025 1.025 0 0 0-.984-.578c-.86.047-.977.343-1.754.183c-.822-.169-1.227-.12-1.578.04l-.007.003c-.347.157-1.064.483-1.064 1.95c0 1.351.482 2.065.715 2.32l-.046.016c-.231.084-.327.33-.243.562c.071.197.322.311.637.262c.36-.057.624-.106.831-.147a.25.25 0 0 0 .2-.245V5.75c0-.469.33-.749.477-.832c.015-.485.163-.707.406-.824c.4-.195.526-.099 1.484-.157c.965-.058 1.223-.832.926-1.441"/><path fill="url(#f1979id8)" d="M20.156 2.496a1.025 1.025 0 0 0-.984-.578c-.86.047-.977.343-1.754.183c-.822-.169-1.227-.12-1.578.04l-.007.003c-.347.157-1.064.483-1.064 1.95c0 1.351.482 2.065.715 2.32l-.046.016c-.231.084-.327.33-.243.562c.071.197.322.311.637.262c.36-.057.624-.106.831-.147a.25.25 0 0 0 .2-.245V5.75c0-.469.33-.749.477-.832c.015-.485.163-.707.406-.824c.4-.195.526-.099 1.484-.157c.965-.058 1.223-.832.926-1.441"/></g><path fill="url(#f1979id9)" d="m17.536 6.303l-.2-1.44a.727.727 0 0 0 .2 1.44"/><g filter="url(#f1979id18)"><path fill="url(#f1979idv)" d="m12.831 19.945l.891-3.734h1.781c.052.614.152 2.215.29 3.515s-.492 2.032-.766 2.313L10.58 26.35c.198.662.627 2.025.727 2.625c.077.462-.145.768-.35.953c-.094.083-.235.064-.319-.03l-2.687-2.995a.25.25 0 0 1 .018-.352l.986-.888c1.042-1.365 3.191-4.194 3.454-4.594c.18-.276.39-.917.421-1.125"/><path fill="url(#f1979ida)" d="m12.831 19.945l.891-3.734h1.781c.052.614.152 2.215.29 3.515s-.492 2.032-.766 2.313L10.58 26.35c.198.662.627 2.025.727 2.625c.077.462-.145.768-.35.953c-.094.083-.235.064-.319-.03l-2.687-2.995a.25.25 0 0 1 .018-.352l.986-.888c1.042-1.365 3.191-4.194 3.454-4.594c.18-.276.39-.917.421-1.125"/><path fill="url(#f1979idb)" d="m12.831 19.945l.891-3.734h1.781c.052.614.152 2.215.29 3.515s-.492 2.032-.766 2.313L10.58 26.35c.198.662.627 2.025.727 2.625c.077.462-.145.768-.35.953c-.094.083-.235.064-.319-.03l-2.687-2.995a.25.25 0 0 1 .018-.352l.986-.888c1.042-1.365 3.191-4.194 3.454-4.594c.18-.276.39-.917.421-1.125"/></g><g filter="url(#f1979id19)"><path fill="#8C8393" d="M19.183 18.562c-.383-1.05-.716-2.028-.773-2.383h-4.742c-.1 1.375.144 1.713.773 2.422c.693.782 2.172 2.43 2.54 2.895c.35.35.5.789.554.98l2.262 7.43a.25.25 0 0 0 .315.166l3.737-1.183c.195-.061.326-.265.244-.452c-.107-.245-.333-.5-.886-.656c-.663-.187-1.943-.284-2.516-.336c-.213-1.766-.66-5.431-.734-5.969c-.094-.672-.227-1.414-.774-2.914"/><path fill="url(#f1979idc)" d="M19.183 18.562c-.383-1.05-.716-2.028-.773-2.383h-4.742c-.1 1.375.144 1.713.773 2.422c.693.782 2.172 2.43 2.54 2.895c.35.35.5.789.554.98l2.262 7.43a.25.25 0 0 0 .315.166l3.737-1.183c.195-.061.326-.265.244-.452c-.107-.245-.333-.5-.886-.656c-.663-.187-1.943-.284-2.516-.336c-.213-1.766-.66-5.431-.734-5.969c-.094-.672-.227-1.414-.774-2.914"/><path fill="url(#f1979idd)" d="M19.183 18.562c-.383-1.05-.716-2.028-.773-2.383h-4.742c-.1 1.375.144 1.713.773 2.422c.693.782 2.172 2.43 2.54 2.895c.35.35.5.789.554.98l2.262 7.43a.25.25 0 0 0 .315.166l3.737-1.183c.195-.061.326-.265.244-.452c-.107-.245-.333-.5-.886-.656c-.663-.187-1.943-.284-2.516-.336c-.213-1.766-.66-5.431-.734-5.969c-.094-.672-.227-1.414-.774-2.914"/><path fill="url(#f1979idw)" d="M19.183 18.562c-.383-1.05-.716-2.028-.773-2.383h-4.742c-.1 1.375.144 1.713.773 2.422c.693.782 2.172 2.43 2.54 2.895c.35.35.5.789.554.98l2.262 7.43a.25.25 0 0 0 .315.166l3.737-1.183c.195-.061.326-.265.244-.452c-.107-.245-.333-.5-.886-.656c-.663-.187-1.943-.284-2.516-.336c-.213-1.766-.66-5.431-.734-5.969c-.094-.672-.227-1.414-.774-2.914"/><path fill="url(#f1979ide)" d="M19.183 18.562c-.383-1.05-.716-2.028-.773-2.383h-4.742c-.1 1.375.144 1.713.773 2.422c.693.782 2.172 2.43 2.54 2.895c.35.35.5.789.554.98l2.262 7.43a.25.25 0 0 0 .315.166l3.737-1.183c.195-.061.326-.265.244-.452c-.107-.245-.333-.5-.886-.656c-.663-.187-1.943-.284-2.516-.336c-.213-1.766-.66-5.431-.734-5.969c-.094-.672-.227-1.414-.774-2.914"/><path fill="url(#f1979idf)" d="M19.183 18.562c-.383-1.05-.716-2.028-.773-2.383h-4.742c-.1 1.375.144 1.713.773 2.422c.693.782 2.172 2.43 2.54 2.895c.35.35.5.789.554.98l2.262 7.43a.25.25 0 0 0 .315.166l3.737-1.183c.195-.061.326-.265.244-.452c-.107-.245-.333-.5-.886-.656c-.663-.187-1.943-.284-2.516-.336c-.213-1.766-.66-5.431-.734-5.969c-.094-.672-.227-1.414-.774-2.914"/></g><path fill="url(#f1979idg)" d="m19.406 28.62l.391 1.286a.25.25 0 0 0 .315.166l3.737-1.183c.195-.061.326-.265.244-.452c-.107-.245-.333-.5-.886-.656c-.591-.167-1.673-.262-2.306-.317l-.21-.019v-.002z"/><path fill="url(#f1979idh)" d="m19.406 28.62l.391 1.286a.25.25 0 0 0 .315.166l3.737-1.183c.195-.061.326-.265.244-.452c-.107-.245-.333-.5-.886-.656c-.591-.167-1.673-.262-2.306-.317l-.21-.019v-.002z"/><path fill="url(#f1979idi)" d="m19.406 28.62l.391 1.286a.25.25 0 0 0 .315.166l3.737-1.183c.195-.061.326-.265.244-.452c-.107-.245-.333-.5-.886-.656c-.591-.167-1.673-.262-2.306-.317l-.21-.019v-.002z"/><path fill="url(#f1979idx)" d="m19.406 28.62l.391 1.286a.25.25 0 0 0 .315.166l3.737-1.183c.195-.061.326-.265.244-.452c-.107-.245-.333-.5-.886-.656c-.591-.167-1.673-.262-2.306-.317l-.21-.019v-.002z"/><path fill="url(#f1979idy)" d="m19.406 28.62l.391 1.286a.25.25 0 0 0 .315.166l3.737-1.183c.195-.061.326-.265.244-.452c-.107-.245-.333-.5-.886-.656c-.591-.167-1.673-.262-2.306-.317l-.21-.019v-.002z"/><path fill="#45437A" d="m8.965 25.653l1.638.678l-.022.02l.107.355c.217.713.536 1.764.62 2.27c.077.462-.145.768-.35.953c-.094.083-.235.064-.319-.03l-2.688-2.995a.25.25 0 0 1 .02-.352l.985-.888z"/><path fill="url(#f1979idz)" d="m8.965 25.653l1.638.678l-.022.02l.107.355c.217.713.536 1.764.62 2.27c.077.462-.145.768-.35.953c-.094.083-.235.064-.319-.03l-2.688-2.995a.25.25 0 0 1 .02-.352l.985-.888z"/><path fill="url(#f1979id10)" d="m8.965 25.653l1.638.678l-.022.02l.107.355c.217.713.536 1.764.62 2.27c.077.462-.145.768-.35.953c-.094.083-.235.064-.319-.03l-2.688-2.995a.25.25 0 0 1 .02-.352l.985-.888z"/><path fill="url(#f1979idj)" d="m8.965 25.653l1.638.678l-.022.02l.107.355c.217.713.536 1.764.62 2.27c.077.462-.145.768-.35.953c-.094.083-.235.064-.319-.03l-2.688-2.995a.25.25 0 0 1 .02-.352l.985-.888z"/><g filter="url(#f1979id1a)"><path fill="#F5B02E" fill-rule="evenodd" d="M22.831 18.391a.85.85 0 0 0 1.13-.433l.19-.426a.755.755 0 0 0-.383-.993c-1.533-.704-4.023-2.149-4.983-5.93l-2.008.524c1.185 4.668 4.29 6.44 6.054 7.258" clip-rule="evenodd"/></g><path fill="url(#f1979id11)" d="M18.785 10.5c-.282-.713-.774-1.224-.985-1.39l.04 4.468l1.785-.836c-.278-.524-.489-1.352-.84-2.242"/><path fill="url(#f1979idk)" d="M16.476 8.597c-.89 0-1.137.215-1.433.407L14.019 11.6c-.3 1.4-.364 3.636-.36 4.578h4.766c.258-.656.678-2.675.516-4.578c-.164-1.93-1.207-2.902-2.465-3.004"/><path fill="url(#f1979idl)" d="M16.476 8.597c-.89 0-1.137.215-1.433.407L14.019 11.6c-.3 1.4-.364 3.636-.36 4.578h4.766c.258-.656.678-2.675.516-4.578c-.164-1.93-1.207-2.902-2.465-3.004"/><path fill="url(#f1979idm)" d="M16.476 8.597c-.89 0-1.137.215-1.433.407L14.019 11.6c-.3 1.4-.364 3.636-.36 4.578h4.766c.258-.656.678-2.675.516-4.578c-.164-1.93-1.207-2.902-2.465-3.004"/><path fill="url(#f1979idn)" d="M16.476 8.597c-.89 0-1.137.215-1.433.407L14.019 11.6c-.3 1.4-.364 3.636-.36 4.578h4.766c.258-.656.678-2.675.516-4.578c-.164-1.93-1.207-2.902-2.465-3.004"/><circle cx=".551" cy=".551" r=".551" fill="url(#f1979ido)" transform="matrix(-1 0 0 1 11.62 17.476)"/><g filter="url(#f1979id1b)"><path fill="#FFBF35" fill-rule="evenodd" d="M10.164 19.223a.614.614 0 0 0 .775-.407c1.215-3.921 3.166-6.29 4.542-7.545c.438-.4.516-1.082.128-1.53c-.346-.401-.944-.472-1.348-.13c-1.626 1.381-3.91 3.976-5.316 8.605a.59.59 0 0 0 .382.73z" clip-rule="evenodd"/></g><path fill="url(#f1979id12)" d="M16.612 11.203a1.355 1.355 0 1 0-1.729-2.088c-.951.692-1.79 1.592-2.27 2.135l2.039 1.914c.308-.32 1.382-1.393 1.96-1.96"/><path fill="url(#f1979idp)" d="M16.612 11.203a1.355 1.355 0 1 0-1.729-2.088c-.951.692-1.79 1.592-2.27 2.135l2.039 1.914c.308-.32 1.382-1.393 1.96-1.96"/><path fill="url(#f1979idq)" d="M16.612 11.203a1.355 1.355 0 1 0-1.729-2.088c-.951.692-1.79 1.592-2.27 2.135l2.039 1.914c.308-.32 1.382-1.393 1.96-1.96"/><path fill="url(#f1979idr)" d="m23.343 16.011l-.496.052a.435.435 0 0 0-.388.403a.38.38 0 0 0 .077.266c.264.33.524.366.721.408c.22.047.676-.191.59-.691a.53.53 0 0 0-.504-.438"/><path fill="#87014D" fill-rule="evenodd" d="M19.055 6.756a.125.125 0 0 0 .002.177c.238.233.582.293.692.304a.125.125 0 0 0 .025-.248c-.094-.01-.366-.062-.542-.235a.125.125 0 0 0-.177.002" clip-rule="evenodd"/><g filter="url(#f1979id1c)"><path fill="#AF5247" fill-rule="evenodd" d="M19.288 4.61a.8.8 0 0 1 .216-.016a.15.15 0 0 0 .038-.298a1 1 0 0 0-.313.02a1 1 0 0 0-.409.173a.15.15 0 0 0 .179.24c.085-.062.19-.1.289-.12" clip-rule="evenodd"/></g><path fill="#fff" d="M19.8 5.642h-.988c0-.391.221-.709.494-.709s.494.318.494.71"/><path fill="url(#f1979ids)" d="M19.195 5.642v-.004c0-.32.137-.58.307-.58s.306.26.306.58v.004z"/><path fill="url(#f1979idt)" d="m19.39 5.642l-.004-.072c0-.185.08-.336.176-.336c.097 0 .176.15.176.336l-.004.072z"/><ellipse cx=".064" cy=".088" fill="url(#f1979id13)" rx=".064" ry=".088" transform="scale(-1 1)rotate(24.61 -21.707 -42.447)"/><g filter="url(#f1979id1d)"><path fill="url(#f1979id14)" d="m18.8 21.18l1.344 6.5l-.36.312l-1.468-6.531l-3.016-3.875l.703-.485z"/></g><g filter="url(#f1979id1e)"><path fill="url(#f1979id15)" d="m12.972 21.127l-3.476 4.428l.514.199l3.484-3.708a3 3 0 0 0 .761-1.493l.19-1l-.751-.774l-.544 1.994a1 1 0 0 1-.178.354"/></g><defs><radialGradient id="f1979id0" cx="0" cy="0" r="1" gradientTransform="matrix(-.05152 -2.21336 1.59858 -.0372 1.708 2.01)" gradientUnits="userSpaceOnUse"><stop offset=".116" stop-color="#FFCD3E"/><stop offset="1" stop-color="#FBA433"/></radialGradient><radialGradient id="f1979id1" cx="0" cy="0" r="1" gradientTransform="matrix(-.53617 .66448 -.89991 -.72614 2.062 .438)" gradientUnits="userSpaceOnUse"><stop stop-color="#CD7F1A"/><stop offset="1" stop-color="#FDA533" stop-opacity="0"/></radialGradient><radialGradient id="f1979id2" cx="0" cy="0" r="1" gradientTransform="matrix(-.3125 .60583 -.77155 -.39799 20.699 5.961)" gradientUnits="userSpaceOnUse"><stop offset=".332" stop-color="#FFBF42"/><stop offset="1" stop-color="#EBA544"/></radialGradient><radialGradient id="f1979id3" cx="0" cy="0" r="1" gradientTransform="matrix(.84375 -.04687 .05715 1.0287 17.16 5.547)" gradientUnits="userSpaceOnUse"><stop offset=".156" stop-color="#FFAB1D"/><stop offset="1" stop-color="#FFAB1D" stop-opacity="0"/></radialGradient><radialGradient id="f1979id4" cx="0" cy="0" r="1" gradientTransform="matrix(-1.90805 -1.94145 2.83721 -2.78841 16.677 6.982)" gradientUnits="userSpaceOnUse"><stop stop-color="#FFA526"/><stop offset="1" stop-color="#FFA526" stop-opacity="0"/></radialGradient><radialGradient id="f1979id5" cx="0" cy="0" r="1" gradientTransform="matrix(2.125 .89062 -1.25031 2.9832 15.27 3.32)" gradientUnits="userSpaceOnUse"><stop stop-color="#FFD537"/><stop offset="1" stop-color="#FFD537" stop-opacity="0"/></radialGradient><radialGradient id="f1979id6" cx="0" cy="0" r="1" gradientTransform="matrix(.8125 -.23437 .10899 .37782 15.316 6.523)" gradientUnits="userSpaceOnUse"><stop stop-color="#FFD237"/><stop offset="1" stop-color="#FFD237" stop-opacity="0"/></radialGradient><radialGradient id="f1979id7" cx="0" cy="0" r="1" gradientTransform="matrix(1.79688 .32813 -.1515 .82965 16.902 1.96)" gradientUnits="userSpaceOnUse"><stop offset=".174" stop-color="#E4AF34"/><stop offset="1" stop-color="#FFBF27" stop-opacity="0"/></radialGradient><radialGradient id="f1979id8" cx="0" cy="0" r="1" gradientTransform="matrix(-.50781 .47657 -.68826 -.73338 19.816 1.874)" gradientUnits="userSpaceOnUse"><stop offset=".117" stop-color="#E0A531"/><stop offset="1" stop-color="#E0A531" stop-opacity="0"/></radialGradient><radialGradient id="f1979id9" cx="0" cy="0" r="1" gradientTransform="matrix(.45312 .9414 -1.52974 .7363 16.855 5.367)" gradientUnits="userSpaceOnUse"><stop offset=".04" stop-color="#FFD040"/><stop offset="1" stop-color="#FEAD30"/></radialGradient><radialGradient id="f1979ida" cx="0" cy="0" r="1" gradientTransform="matrix(-2.45369 2.93958 -5.96661 -4.98038 15.047 18.024)" gradientUnits="userSpaceOnUse"><stop offset=".434" stop-color="#887E8B"/><stop offset="1" stop-color="#887E8B" stop-opacity="0"/></radialGradient><radialGradient id="f1979idb" cx="0" cy="0" r="1" gradientTransform="rotate(143.616 4.553 12.044)scale(1.10629 6.64432)" gradientUnits="userSpaceOnUse"><stop offset=".043" stop-color="#695C75"/><stop offset="1" stop-color="#695C75" stop-opacity="0"/></radialGradient><radialGradient id="f1979idc" cx="0" cy="0" r="1" gradientTransform="rotate(-122.302 13.824 5.995)scale(6.08182 1.60193)" gradientUnits="userSpaceOnUse"><stop offset=".07" stop-color="#897998"/><stop offset="1" stop-color="#897998" stop-opacity="0"/></radialGradient><radialGradient id="f1979idd" cx="0" cy="0" r="1" gradientTransform="matrix(0 1.42188 -1.38588 0 15.332 16.18)" gradientUnits="userSpaceOnUse"><stop stop-color="#99919A"/><stop offset="1" stop-color="#8C8393" stop-opacity="0"/></radialGradient><radialGradient id="f1979ide" cx="0" cy="0" r="1" gradientTransform="matrix(-.14062 -.17969 .6458 -.50541 20.027 28.093)" gradientUnits="userSpaceOnUse"><stop stop-color="#A19DA6"/><stop offset="1" stop-color="#A19DA6" stop-opacity="0"/></radialGradient><radialGradient id="f1979idf" cx="0" cy="0" r="1" gradientTransform="matrix(-6.375 -1.81248 4.6745 -16.4415 19.707 19.226)" gradientUnits="userSpaceOnUse"><stop offset=".802" stop-color="#8C8388" stop-opacity="0"/><stop offset="1" stop-color="#8C8388"/></radialGradient><radialGradient id="f1979idg" cx="0" cy="0" r="1" gradientTransform="matrix(.09374 -1.53125 2.45635 .15037 21.16 29.445)" gradientUnits="userSpaceOnUse"><stop stop-color="#4A4B75"/><stop offset="1" stop-color="#47456F"/></radialGradient><radialGradient id="f1979idh" cx="0" cy="0" r="1" gradientTransform="matrix(-1.0625 -.21876 .15137 -.73521 24.27 28.508)" gradientUnits="userSpaceOnUse"><stop stop-color="#63617E"/><stop offset="1" stop-color="#63617E" stop-opacity="0"/></radialGradient><radialGradient id="f1979idi" cx="0" cy="0" r="1" gradientTransform="matrix(-.59376 -1.71875 .84778 -.29287 20.253 29.742)" gradientUnits="userSpaceOnUse"><stop offset=".08" stop-color="#515279"/><stop offset="1" stop-color="#515279" stop-opacity="0"/></radialGradient><radialGradient id="f1979idj" cx="0" cy="0" r="1" gradientTransform="rotate(-47.125 35.154 4.24)scale(1.99789 1.10527)" gradientUnits="userSpaceOnUse"><stop stop-color="#60618D"/><stop offset="1" stop-color="#46437B" stop-opacity="0"/></radialGradient><radialGradient id="f1979idk" cx="0" cy="0" r="1" gradientTransform="rotate(107.896 4.378 11.87)scale(6.30507 4.4383)" gradientUnits="userSpaceOnUse"><stop offset=".446" stop-color="#E9672B"/><stop offset="1" stop-color="#D34015"/></radialGradient><radialGradient id="f1979idl" cx="0" cy="0" r="1" gradientTransform="matrix(-3.0625 2.84375 -4.8238 -5.19485 18.675 9.726)" gradientUnits="userSpaceOnUse"><stop stop-color="#F08337"/><stop offset="1" stop-color="#F08337" stop-opacity="0"/></radialGradient><radialGradient id="f1979idm" cx="0" cy="0" r="1" gradientTransform="rotate(102.458 3.233 11.677)scale(2.75231 1.4881)" gradientUnits="userSpaceOnUse"><stop stop-color="#DD3E06"/><stop offset="1" stop-color="#DD3E06" stop-opacity="0"/></radialGradient><radialGradient id="f1979idn" cx="0" cy="0" r="1" gradientTransform="matrix(2.71802 .3081 -.16137 1.42362 15.3 8.597)" gradientUnits="userSpaceOnUse"><stop offset=".213" stop-color="#FC8C16"/><stop offset="1" stop-color="#FC8C16" stop-opacity="0"/></radialGradient><radialGradient id="f1979ido" cx="0" cy="0" r="1" gradientTransform="rotate(90 .008 .406)scale(.90625)" gradientUnits="userSpaceOnUse"><stop offset=".256" stop-color="#E99F2E"/><stop offset="1" stop-color="#CE853F"/></radialGradient><radialGradient id="f1979idp" cx="0" cy="0" r="1" gradientTransform="matrix(-1.72656 -.10938 .20535 -3.24138 17.12 10.523)" gradientUnits="userSpaceOnUse"><stop offset=".235" stop-color="#F27F2F"/><stop offset="1" stop-color="#F27F2F" stop-opacity="0"/></radialGradient><radialGradient id="f1979idq" cx="0" cy="0" r="1" gradientTransform="matrix(.40625 -3.15625 3.68021 .4737 15.144 11.758)" gradientUnits="userSpaceOnUse"><stop offset=".839" stop-color="#F07F0F" stop-opacity="0"/><stop offset=".958" stop-color="#EF7C07"/></radialGradient><radialGradient id="f1979idr" cx="0" cy="0" r="1" gradientTransform="matrix(-1.09375 .1806 -.14313 -.86685 23.675 16.398)" gradientUnits="userSpaceOnUse"><stop stop-color="#FFBF3F"/><stop offset=".839" stop-color="#EB9F1C"/></radialGradient><radialGradient id="f1979ids" cx="0" cy="0" r="1" gradientTransform="matrix(-.27344 0 0 -.53125 19.523 5.62)" gradientUnits="userSpaceOnUse"><stop offset=".895" stop-color="#916A62"/><stop offset="1" stop-color="#824D44"/></radialGradient><radialGradient id="f1979idt" cx="0" cy="0" r="1" gradientTransform="matrix(-.25 0 0 -.54102 19.691 5.642)" gradientUnits="userSpaceOnUse"><stop stop-color="#666361"/><stop offset=".813" stop-color="#565352"/></radialGradient><linearGradient id="f1979idu" x1="17.472" x2="20.335" y1="6.289" y2="6.461" gradientUnits="userSpaceOnUse"><stop stop-color="#FFC33E"/><stop offset="1" stop-color="#FFC247"/></linearGradient><linearGradient id="f1979idv" x1="14.027" x2="11.799" y1="22.883" y2="20.939" gradientUnits="userSpaceOnUse"><stop offset=".211" stop-color="#8B8290"/><stop offset="1" stop-color="#9F9C9F"/></linearGradient><linearGradient id="f1979idw" x1="16.253" x2="16.253" y1="16.07" y2="16.414" gradientUnits="userSpaceOnUse"><stop offset=".136" stop-color="#817076"/><stop offset="1" stop-color="#817076" stop-opacity="0"/></linearGradient><linearGradient id="f1979idx" x1="21.722" x2="21.636" y1="29.617" y2="29.305" gradientUnits="userSpaceOnUse"><stop stop-color="#282955"/><stop offset="1" stop-color="#282955" stop-opacity="0"/></linearGradient><linearGradient id="f1979idy" x1="19.753" x2="20.332" y1="29.992" y2="29.773" gradientUnits="userSpaceOnUse"><stop offset=".064" stop-color="#444571"/><stop offset="1" stop-color="#444571" stop-opacity="0"/></linearGradient><linearGradient id="f1979idz" x1="11.144" x2="10.55" y1="27.976" y2="28.148" gradientUnits="userSpaceOnUse"><stop stop-color="#5A577E"/><stop offset="1" stop-color="#5A577E" stop-opacity="0"/></linearGradient><linearGradient id="f1979id10" x1="9.019" x2="9.199" y1="28.051" y2="27.902" gradientUnits="userSpaceOnUse"><stop stop-color="#492D85"/><stop offset="0" stop-color="#443A80"/><stop offset="1" stop-color="#46437B" stop-opacity="0"/></linearGradient><linearGradient id="f1979id11" x1="19.3" x2="18.425" y1="12.836" y2="10.445" gradientUnits="userSpaceOnUse"><stop stop-color="#F3563A"/><stop offset=".787" stop-color="#EA6F3E"/></linearGradient><linearGradient id="f1979id12" x1="15.269" x2="14.16" y1="9.117" y2="12.57" gradientUnits="userSpaceOnUse"><stop offset=".118" stop-color="#F67E18"/><stop offset="1" stop-color="#EE462E"/></linearGradient><linearGradient id="f1979id13" x1="-.007" x2=".179" y1=".05" y2=".11" gradientUnits="userSpaceOnUse"><stop stop-color="#fff"/><stop offset="1" stop-color="#fff" stop-opacity="0"/></linearGradient><linearGradient id="f1979id14" x1="19.925" x2="15.3" y1="27.414" y2="17.273" gradientUnits="userSpaceOnUse"><stop stop-color="#94899E"/><stop offset="1" stop-color="#94899E" stop-opacity="0"/></linearGradient><linearGradient id="f1979id15" x1="9.781" x2="14.092" y1="25.323" y2="19.951" gradientUnits="userSpaceOnUse"><stop stop-color="#A39FA7"/><stop offset="1" stop-color="#A39FA7" stop-opacity="0"/></linearGradient><filter id="f1979id16" width="4.443" height="5.249" x="15.892" y="3.348" color-interpolation-filters="sRGB" filterUnits="userSpaceOnUse"><feFlood flood-opacity="0" result="BackgroundImageFix"/><feBlend in="SourceGraphic" in2="BackgroundImageFix" result="shape"/><feColorMatrix in="SourceAlpha" result="hardAlpha" values="0 0 0 0 0 0 0 0 0 0 0 0 0 0 0 0 0 0 127 0"/><feOffset dx="-.2" dy="-.2"/><feGaussianBlur stdDeviation=".5"/><feComposite in2="hardAlpha" k2="-1" k3="1" operator="arithmetic"/><feColorMatrix values="0 0 0 0 0.909804 0 0 0 0 0.52549 0 0 0 0 0.215686 0 0 0 1 0"/><feBlend in2="shape" result="effect1_innerShadow_2_451"/></filter><filter id="f1979id17" width="5.503" height="5.499" x="14.769" y="1.766" color-interpolation-filters="sRGB" filterUnits="userSpaceOnUse"><feFlood flood-opacity="0" result="BackgroundImageFix"/><feBlend in="SourceGraphic" in2="BackgroundImageFix" result="shape"/><feColorMatrix in="SourceAlpha" result="hardAlpha" values="0 0 0 0 0 0 0 0 0 0 0 0 0 0 0 0 0 0 127 0"/><feOffset dy="-.15"/><feGaussianBlur stdDeviation=".15"/><feComposite in2="hardAlpha" k2="-1" k3="1" operator="arithmetic"/><feColorMatrix values="0 0 0 0 1 0 0 0 0 0.607843 0 0 0 0 0.117647 0 0 0 1 0"/><feBlend in2="shape" result="effect1_innerShadow_2_451"/></filter><filter id="f1979id18" width="8.674" height="14.771" x="7.888" y="15.461" color-interpolation-filters="sRGB" filterUnits="userSpaceOnUse"><feFlood flood-opacity="0" result="BackgroundImageFix"/><feBlend in="SourceGraphic" in2="BackgroundImageFix" result="shape"/><feColorMatrix in="SourceAlpha" result="hardAlpha" values="0 0 0 0 0 0 0 0 0 0 0 0 0 0 0 0 0 0 127 0"/><feOffset dx=".75" dy="-.75"/><feGaussianBlur stdDeviation=".5"/><feComposite in2="hardAlpha" k2="-1" k3="1" operator="arithmetic"/><feColorMatrix values="0 0 0 0 0.439216 0 0 0 0 0.388235 0 0 0 0 0.486275 0 0 0 1 0"/><feBlend in2="shape" result="effect1_innerShadow_2_451"/><feColorMatrix in="SourceAlpha" result="hardAlpha" values="0 0 0 0 0 0 0 0 0 0 0 0 0 0 0 0 0 0 127 0"/><feOffset dy="-.5"/><feGaussianBlur stdDeviation=".375"/><feComposite in2="hardAlpha" k2="-1" k3="1" operator="arithmetic"/><feColorMatrix values="0 0 0 0 0.537255 0 0 0 0 0.423529 0 0 0 0 0.635294 0 0 0 1 0"/><feBlend in2="effect1_innerShadow_2_451" result="effect2_innerShadow_2_451"/><feColorMatrix in="SourceAlpha" result="hardAlpha" values="0 0 0 0 0 0 0 0 0 0 0 0 0 0 0 0 0 0 127 0"/><feOffset dx=".25" dy=".25"/><feGaussianBlur stdDeviation=".375"/><feComposite in2="hardAlpha" k2="-1" k3="1" operator="arithmetic"/><feColorMatrix values="0 0 0 0 0.529412 0 0 0 0 0.490196 0 0 0 0 0.537255 0 0 0 1 0"/><feBlend in2="effect2_innerShadow_2_451" result="effect3_innerShadow_2_451"/></filter><filter id="f1979id19" width="10.972" height="14.104" x="13.646" y="15.979" color-interpolation-filters="sRGB" filterUnits="userSpaceOnUse"><feFlood flood-opacity="0" result="BackgroundImageFix"/><feBlend in="SourceGraphic" in2="BackgroundImageFix" result="shape"/><feColorMatrix in="SourceAlpha" result="hardAlpha" values="0 0 0 0 0 0 0 0 0 0 0 0 0 0 0 0 0 0 127 0"/><feOffset dx=".5" dy="-.2"/><feGaussianBlur stdDeviation=".25"/><feComposite in2="hardAlpha" k2="-1" k3="1" operator="arithmetic"/><feColorMatrix values="0 0 0 0 0.619608 0 0 0 0 0.592157 0 0 0 0 0.611765 0 0 0 1 0"/><feBlend in2="shape" result="effect1_innerShadow_2_451"/></filter><filter id="f1979id1a" width="8.438" height="7.859" x="15.777" y="10.609" color-interpolation-filters="sRGB" filterUnits="userSpaceOnUse"><feFlood flood-opacity="0" result="BackgroundImageFix"/><feBlend in="SourceGraphic" in2="BackgroundImageFix" result="shape"/><feColorMatrix in="SourceAlpha" result="hardAlpha" values="0 0 0 0 0 0 0 0 0 0 0 0 0 0 0 0 0 0 127 0"/><feOffset dx="-1"/><feGaussianBlur stdDeviation=".5"/><feComposite in2="hardAlpha" k2="-1" k3="1" operator="arithmetic"/><feColorMatrix values="0 0 0 0 0.894118 0 0 0 0 0.505882 0 0 0 0 0.137255 0 0 0 1 0"/><feBlend in2="shape" result="effect1_innerShadow_2_451"/><feColorMatrix in="SourceAlpha" result="hardAlpha" values="0 0 0 0 0 0 0 0 0 0 0 0 0 0 0 0 0 0 127 0"/><feOffset dx="-.25"/><feGaussianBlur stdDeviation=".25"/><feComposite in2="hardAlpha" k2="-1" k3="1" operator="arithmetic"/><feColorMatrix values="0 0 0 0 0.752941 0 0 0 0 0.466667 0 0 0 0 0.254902 0 0 0 1 0"/><feBlend in2="effect1_innerShadow_2_451" result="effect2_innerShadow_2_451"/></filter><filter id="f1979id1b" width="7.59" height="10.511" x="8.519" y="9.142" color-interpolation-filters="sRGB" filterUnits="userSpaceOnUse"><feFlood flood-opacity="0" result="BackgroundImageFix"/><feBlend in="SourceGraphic" in2="BackgroundImageFix" result="shape"/><feColorMatrix in="SourceAlpha" result="hardAlpha" values="0 0 0 0 0 0 0 0 0 0 0 0 0 0 0 0 0 0 127 0"/><feOffset dx=".25" dy="-.25"/><feGaussianBlur stdDeviation=".4"/><feComposite in2="hardAlpha" k2="-1" k3="1" operator="arithmetic"/><feColorMatrix values="0 0 0 0 0.901961 0 0 0 0 0.623529 0 0 0 0 0.188235 0 0 0 1 0"/><feBlend in2="shape" result="effect1_innerShadow_2_451"/><feColorMatrix in="SourceAlpha" result="hardAlpha" values="0 0 0 0 0 0 0 0 0 0 0 0 0 0 0 0 0 0 127 0"/><feOffset dx="-.4" dy=".4"/><feGaussianBlur stdDeviation=".4"/><feComposite in2="hardAlpha" k2="-1" k3="1" operator="arithmetic"/><feColorMatrix values="0 0 0 0 1 0 0 0 0 0.835294 0 0 0 0 0.25098 0 0 0 1 0"/><feBlend in2="effect1_innerShadow_2_451" result="effect2_innerShadow_2_451"/></filter><filter id="f1979id1c" width="1.013" height=".568" x="18.66" y="4.292" color-interpolation-filters="sRGB" filterUnits="userSpaceOnUse"><feFlood flood-opacity="0" result="BackgroundImageFix"/><feBlend in="SourceGraphic" in2="BackgroundImageFix" result="shape"/><feColorMatrix in="SourceAlpha" result="hardAlpha" values="0 0 0 0 0 0 0 0 0 0 0 0 0 0 0 0 0 0 127 0"/><feOffset dx="-.1" dy=".1"/><feGaussianBlur stdDeviation=".1"/><feComposite in2="hardAlpha" k2="-1" k3="1" operator="arithmetic"/><feColorMatrix values="0 0 0 0 0.682353 0 0 0 0 0.219608 0 0 0 0 0.133333 0 0 0 1 0"/><feBlend in2="shape" result="effect1_innerShadow_2_451"/></filter><filter id="f1979id1d" width="6.844" height="12.891" x="14.3" y="16.101" color-interpolation-filters="sRGB" filterUnits="userSpaceOnUse"><feFlood flood-opacity="0" result="BackgroundImageFix"/><feBlend in="SourceGraphic" in2="BackgroundImageFix" result="shape"/><feGaussianBlur result="effect1_foregroundBlur_2_451" stdDeviation=".5"/></filter><filter id="f1979id1e" width="6.45" height="8.475" x="8.746" y="18.029" color-interpolation-filters="sRGB" filterUnits="userSpaceOnUse"><feFlood flood-opacity="0" result="BackgroundImageFix"/><feBlend in="SourceGraphic" in2="BackgroundImageFix" result="shape"/><feGaussianBlur result="effect1_foregroundBlur_2_451" stdDeviation=".375"/></filter></defs></g></svg>