<svg xmlns="http://www.w3.org/2000/svg" xmlns:xlink="http://www.w3.org/1999/xlink" width="32" height="32" viewBox="0 0 32 32"><g fill="none"><path fill="url(#f1739id0)" d="M26.019 30.046v-.384c0-5.305-4.474-9.616-10-9.616c-5.525.01-10 4.31-10 9.616v.384z"/><path fill="url(#f1739id1)" d="M26.019 30.046v-.384c0-5.305-4.474-9.616-10-9.616c-5.525.01-10 4.31-10 9.616v.384z"/><path fill="url(#f1739id1e)" d="M26.019 30.046v-.384c0-5.305-4.474-9.616-10-9.616c-5.525.01-10 4.31-10 9.616v.384z"/><path fill="#E9AA9D" d="M16.019 24.532c-1.382 0-2.5-1.194-2.5-2.671v-3.157c0-1.478 1.117-2.672 2.5-2.672s2.5 1.194 2.5 2.672v3.157c0 1.477-1.117 2.671-2.5 2.671"/><path fill="url(#f1739id1f)" d="M16.019 24.532c-1.382 0-2.5-1.194-2.5-2.671v-3.157c0-1.478 1.117-2.672 2.5-2.672s2.5 1.194 2.5 2.672v3.157c0 1.477-1.117 2.671-2.5 2.671"/><path fill="url(#f1739id2)" d="M16.019 24.532c-1.382 0-2.5-1.194-2.5-2.671v-3.157c0-1.478 1.117-2.672 2.5-2.672s2.5 1.194 2.5 2.672v3.157c0 1.477-1.117 2.671-2.5 2.671"/><path fill="url(#f1739id3)" d="M22.343 15.237c.439-.015.85-.163 1.184-.404v1.218c0 1.169-.697 2.21-1.755 2.642q.336-.714.453-1.544z"/><path fill="url(#f1739id4)" d="M9.621 15.237a2.15 2.15 0 0 1-1.184-.404v1.218c0 1.169.697 2.21 1.755 2.642a5.4 5.4 0 0 1-.453-1.544z"/><g filter="url(#f1739idy)"><path fill="url(#f1739id5)" d="M9.669 17.219a5.124 5.124 0 0 0 5.084 4.457h2.469a5.124 5.124 0 0 0 5.084-4.457c.154-2.465.31-4.92.424-7.383a1.897 1.897 0 0 0-1.804-1.874h-1.832A3.17 3.17 0 0 1 16.2 6.074a.87.87 0 0 0-.805-.547h-1.666c-2.415 0-4.372 1.979-4.372 4.421c0 2.435.152 4.83.312 7.271"/></g><path fill="url(#f1739id1g)" d="M9.669 17.219a5.124 5.124 0 0 0 5.084 4.457h2.469a5.124 5.124 0 0 0 5.084-4.457c.154-2.465.31-4.92.424-7.383a1.897 1.897 0 0 0-1.804-1.874h-1.832A3.17 3.17 0 0 1 16.2 6.074a.87.87 0 0 0-.805-.547h-1.666c-2.415 0-4.372 1.979-4.372 4.421c0 2.435.152 4.83.312 7.271"/><path fill="url(#f1739id6)" d="M9.669 17.219a5.124 5.124 0 0 0 5.084 4.457h2.469a5.124 5.124 0 0 0 5.084-4.457c.154-2.465.31-4.92.424-7.383a1.897 1.897 0 0 0-1.804-1.874h-1.832A3.17 3.17 0 0 1 16.2 6.074a.87.87 0 0 0-.805-.547h-1.666c-2.415 0-4.372 1.979-4.372 4.421c0 2.435.152 4.83.312 7.271"/><path fill="url(#f1739id7)" d="M9.669 17.219a5.124 5.124 0 0 0 5.084 4.457h2.469a5.124 5.124 0 0 0 5.084-4.457c.154-2.465.31-4.92.424-7.383a1.897 1.897 0 0 0-1.804-1.874h-1.832A3.17 3.17 0 0 1 16.2 6.074a.87.87 0 0 0-.805-.547h-1.666c-2.415 0-4.372 1.979-4.372 4.421c0 2.435.152 4.83.312 7.271"/><path fill="url(#f1739id8)" d="M9.669 17.219a5.124 5.124 0 0 0 5.084 4.457h2.469a5.124 5.124 0 0 0 5.084-4.457c.154-2.465.31-4.92.424-7.383a1.897 1.897 0 0 0-1.804-1.874h-1.832A3.17 3.17 0 0 1 16.2 6.074a.87.87 0 0 0-.805-.547h-1.666c-2.415 0-4.372 1.979-4.372 4.421c0 2.435.152 4.83.312 7.271"/><path fill="url(#f1739id9)" d="M9.669 17.219a5.124 5.124 0 0 0 5.084 4.457h2.469a5.124 5.124 0 0 0 5.084-4.457c.154-2.465.31-4.92.424-7.383a1.897 1.897 0 0 0-1.804-1.874h-1.832A3.17 3.17 0 0 1 16.2 6.074a.87.87 0 0 0-.805-.547h-1.666c-2.415 0-4.372 1.979-4.372 4.421c0 2.435.152 4.83.312 7.271"/><path fill="url(#f1739ida)" d="M9.669 17.219a5.124 5.124 0 0 0 5.084 4.457h2.469a5.124 5.124 0 0 0 5.084-4.457c.154-2.465.31-4.92.424-7.383a1.897 1.897 0 0 0-1.804-1.874h-1.832A3.17 3.17 0 0 1 16.2 6.074a.87.87 0 0 0-.805-.547h-1.666c-2.415 0-4.372 1.979-4.372 4.421c0 2.435.152 4.83.312 7.271"/><path fill="url(#f1739idb)" d="M9.669 17.219a5.124 5.124 0 0 0 5.084 4.457h2.469a5.124 5.124 0 0 0 5.084-4.457c.154-2.465.31-4.92.424-7.383a1.897 1.897 0 0 0-1.804-1.874h-1.832A3.17 3.17 0 0 1 16.2 6.074a.87.87 0 0 0-.805-.547h-1.666c-2.415 0-4.372 1.979-4.372 4.421c0 2.435.152 4.83.312 7.271"/><g filter="url(#f1739idz)"><path fill="#D69790" d="m15.457 12.916l-.773 2.405c-.132.495.185.99.634.99h.957c.449 0 .766-.503.634-.99l-.647-2.405c-.139-.533-.66-.533-.805 0"/></g><g filter="url(#f1739id10)"><path fill="#F6BFAB" d="m15.482 12.666l-.696 2.405c-.142.495.199.99.681.99h1.03c.482 0 .823-.502.68-.99l-.695-2.405c-.149-.533-.844-.533-1 0"/><path fill="url(#f1739id1h)" d="m15.482 12.666l-.696 2.405c-.142.495.199.99.681.99h1.03c.482 0 .823-.502.68-.99l-.695-2.405c-.149-.533-.844-.533-1 0"/><path fill="url(#f1739idc)" d="m15.482 12.666l-.696 2.405c-.142.495.199.99.681.99h1.03c.482 0 .823-.502.68-.99l-.695-2.405c-.149-.533-.844-.533-1 0"/><path fill="url(#f1739idd)" d="m15.482 12.666l-.696 2.405c-.142.495.199.99.681.99h1.03c.482 0 .823-.502.68-.99l-.695-2.405c-.149-.533-.844-.533-1 0"/><path fill="url(#f1739id1i)" d="m15.482 12.666l-.696 2.405c-.142.495.199.99.681.99h1.03c.482 0 .823-.502.68-.99l-.695-2.405c-.149-.533-.844-.533-1 0"/><path fill="url(#f1739id1j)" d="m15.482 12.666l-.696 2.405c-.142.495.199.99.681.99h1.03c.482 0 .823-.502.68-.99l-.695-2.405c-.149-.533-.844-.533-1 0"/><path fill="url(#f1739id1k)" d="m15.482 12.666l-.696 2.405c-.142.495.199.99.681.99h1.03c.482 0 .823-.502.68-.99l-.695-2.405c-.149-.533-.844-.533-1 0"/></g><g filter="url(#f1739id11)"><path fill="url(#f1739id1l)" d="M22.335 4.909a3.04 3.04 0 0 1 1.658 1.376a3.1 3.1 0 0 1-.139 3.305a2.04 2.04 0 0 0-.354 1.144v1.555a2.3 2.3 0 0 0-.872-.351l.102-2.102a1.897 1.897 0 0 0-1.804-1.874h-1.832A3.17 3.17 0 0 1 16.2 6.074a.87.87 0 0 0-.805-.547h-1.666c-2.415 0-4.372 1.979-4.372 4.421l.04 2.012c-.332.048-.68.16-.942.345v-1.57A2.04 2.04 0 0 0 8.1 9.59a3.13 3.13 0 0 1-.188-3.2c.382-.723 1-1.228 1.7-1.474a3.5 3.5 0 0 0 1.812-1.453a3.04 3.04 0 0 1 2.582-1.438c.423 0 .825.09 1.2.245a1.95 1.95 0 0 0 1.562 0c.368-.154.77-.245 1.193-.245c1.104 0 2.069.596 2.603 1.48a3.3 3.3 0 0 0 1.77 1.404"/><path fill="url(#f1739ide)" d="M22.335 4.909a3.04 3.04 0 0 1 1.658 1.376a3.1 3.1 0 0 1-.139 3.305a2.04 2.04 0 0 0-.354 1.144v1.555a2.3 2.3 0 0 0-.872-.351l.102-2.102a1.897 1.897 0 0 0-1.804-1.874h-1.832A3.17 3.17 0 0 1 16.2 6.074a.87.87 0 0 0-.805-.547h-1.666c-2.415 0-4.372 1.979-4.372 4.421l.04 2.012c-.332.048-.68.16-.942.345v-1.57A2.04 2.04 0 0 0 8.1 9.59a3.13 3.13 0 0 1-.188-3.2c.382-.723 1-1.228 1.7-1.474a3.5 3.5 0 0 0 1.812-1.453a3.04 3.04 0 0 1 2.582-1.438c.423 0 .825.09 1.2.245a1.95 1.95 0 0 0 1.562 0c.368-.154.77-.245 1.193-.245c1.104 0 2.069.596 2.603 1.48a3.3 3.3 0 0 0 1.77 1.404"/><path fill="url(#f1739idf)" d="M22.335 4.909a3.04 3.04 0 0 1 1.658 1.376a3.1 3.1 0 0 1-.139 3.305a2.04 2.04 0 0 0-.354 1.144v1.555a2.3 2.3 0 0 0-.872-.351l.102-2.102a1.897 1.897 0 0 0-1.804-1.874h-1.832A3.17 3.17 0 0 1 16.2 6.074a.87.87 0 0 0-.805-.547h-1.666c-2.415 0-4.372 1.979-4.372 4.421l.04 2.012c-.332.048-.68.16-.942.345v-1.57A2.04 2.04 0 0 0 8.1 9.59a3.13 3.13 0 0 1-.188-3.2c.382-.723 1-1.228 1.7-1.474a3.5 3.5 0 0 0 1.812-1.453a3.04 3.04 0 0 1 2.582-1.438c.423 0 .825.09 1.2.245a1.95 1.95 0 0 0 1.562 0c.368-.154.77-.245 1.193-.245c1.104 0 2.069.596 2.603 1.48a3.3 3.3 0 0 0 1.77 1.404"/><path fill="url(#f1739idg)" d="M22.335 4.909a3.04 3.04 0 0 1 1.658 1.376a3.1 3.1 0 0 1-.139 3.305a2.04 2.04 0 0 0-.354 1.144v1.555a2.3 2.3 0 0 0-.872-.351l.102-2.102a1.897 1.897 0 0 0-1.804-1.874h-1.832A3.17 3.17 0 0 1 16.2 6.074a.87.87 0 0 0-.805-.547h-1.666c-2.415 0-4.372 1.979-4.372 4.421l.04 2.012c-.332.048-.68.16-.942.345v-1.57A2.04 2.04 0 0 0 8.1 9.59a3.13 3.13 0 0 1-.188-3.2c.382-.723 1-1.228 1.7-1.474a3.5 3.5 0 0 0 1.812-1.453a3.04 3.04 0 0 1 2.582-1.438c.423 0 .825.09 1.2.245a1.95 1.95 0 0 0 1.562 0c.368-.154.77-.245 1.193-.245c1.104 0 2.069.596 2.603 1.48a3.3 3.3 0 0 0 1.77 1.404"/><path fill="url(#f1739idh)" d="M22.335 4.909a3.04 3.04 0 0 1 1.658 1.376a3.1 3.1 0 0 1-.139 3.305a2.04 2.04 0 0 0-.354 1.144v1.555a2.3 2.3 0 0 0-.872-.351l.102-2.102a1.897 1.897 0 0 0-1.804-1.874h-1.832A3.17 3.17 0 0 1 16.2 6.074a.87.87 0 0 0-.805-.547h-1.666c-2.415 0-4.372 1.979-4.372 4.421l.04 2.012c-.332.048-.68.16-.942.345v-1.57A2.04 2.04 0 0 0 8.1 9.59a3.13 3.13 0 0 1-.188-3.2c.382-.723 1-1.228 1.7-1.474a3.5 3.5 0 0 0 1.812-1.453a3.04 3.04 0 0 1 2.582-1.438c.423 0 .825.09 1.2.245a1.95 1.95 0 0 0 1.562 0c.368-.154.77-.245 1.193-.245c1.104 0 2.069.596 2.603 1.48a3.3 3.3 0 0 0 1.77 1.404"/></g><g filter="url(#f1739id12)"><path fill="#23181C" d="M16.286 6.253a3 3 0 0 1-.086-.179a.87.87 0 0 0-.805-.547h-1.666c-2.415 0-4.372 1.979-4.372 4.421v.36C8.912 9.97 8.352 9.255 8.352 8.1c0-1.403 1.023-2.112 1.676-2.564c.184-.128.339-.235.432-.331l.13-.137c.458-.486 1.273-1.35 2.696-1.728c.8-.212 1.613-.24 2.223-.205c.472.026.805.434.805.907v2.193z"/><path fill="url(#f1739idi)" d="M16.286 6.253a3 3 0 0 1-.086-.179a.87.87 0 0 0-.805-.547h-1.666c-2.415 0-4.372 1.979-4.372 4.421v.36C8.912 9.97 8.352 9.255 8.352 8.1c0-1.403 1.023-2.112 1.676-2.564c.184-.128.339-.235.432-.331l.13-.137c.458-.486 1.273-1.35 2.696-1.728c.8-.212 1.613-.24 2.223-.205c.472.026.805.434.805.907v2.193z"/><path fill="url(#f1739idj)" d="M16.286 6.253a3 3 0 0 1-.086-.179a.87.87 0 0 0-.805-.547h-1.666c-2.415 0-4.372 1.979-4.372 4.421v.36C8.912 9.97 8.352 9.255 8.352 8.1c0-1.403 1.023-2.112 1.676-2.564c.184-.128.339-.235.432-.331l.13-.137c.458-.486 1.273-1.35 2.696-1.728c.8-.212 1.613-.24 2.223-.205c.472.026.805.434.805.907v2.193z"/></g><g filter="url(#f1739id13)"><path fill="#1F151B" d="m22.803 10.528l-.038-.826c-.014-1-.84-1.824-1.84-1.866h-1.831a3.17 3.17 0 0 1-2.78-1.648s-.169-.393-.268-1.01c-.16-.99.756-1.718 1.746-1.557c1.384.225 3.104.671 4.33 1.47c2.282 1.49 1.882 4.173.68 5.437"/><path fill="url(#f1739idk)" d="m22.803 10.528l-.038-.826c-.014-1-.84-1.824-1.84-1.866h-1.831a3.17 3.17 0 0 1-2.78-1.648s-.169-.393-.268-1.01c-.16-.99.756-1.718 1.746-1.557c1.384.225 3.104.671 4.33 1.47c2.282 1.49 1.882 4.173.68 5.437"/><path fill="url(#f1739idl)" d="m22.803 10.528l-.038-.826c-.014-1-.84-1.824-1.84-1.866h-1.831a3.17 3.17 0 0 1-2.78-1.648s-.169-.393-.268-1.01c-.16-.99.756-1.718 1.746-1.557c1.384.225 3.104.671 4.33 1.47c2.282 1.49 1.882 4.173.68 5.437"/><path fill="url(#f1739idm)" d="m22.803 10.528l-.038-.826c-.014-1-.84-1.824-1.84-1.866h-1.831a3.17 3.17 0 0 1-2.78-1.648s-.169-.393-.268-1.01c-.16-.99.756-1.718 1.746-1.557c1.384.225 3.104.671 4.33 1.47c2.282 1.49 1.882 4.173.68 5.437"/></g><path fill="#fff" d="M19.11 11.422c.855 0 1.577.59 1.774 1.386a.36.36 0 0 1-.35.446h-2.92a.3.3 0 0 1-.297-.356a1.83 1.83 0 0 1 1.794-1.476"/><path fill="url(#f1739idn)" d="M18.84 11.778a1.168 1.168 0 0 1 1.125 1.476H17.71a1.172 1.172 0 0 1 1.13-1.476"/><path fill="#000" d="M18.171 12.946c0-.372.297-.669.669-.669a.666.666 0 0 1 .594.977h-1.183a.6.6 0 0 1-.08-.308"/><g filter="url(#f1739id14)"><path fill="#C7A7A3" d="M18.754 12.025c.083.111-.09.247-.288.395s-.345.252-.428.14s.01-.321.207-.469c.198-.148.426-.177.509-.066"/><path fill="url(#f1739ido)" d="M18.754 12.025c.083.111-.09.247-.288.395s-.345.252-.428.14s.01-.321.207-.469c.198-.148.426-.177.509-.066"/></g><g filter="url(#f1739id15)"><path fill="url(#f1739id1m)" d="M19.88 12.792a1.1 1.1 0 0 0-.303-.605l-.34.373l.154.298z"/></g><path fill="#fff" d="M12.854 11.422c-.855 0-1.577.59-1.773 1.386a.36.36 0 0 0 .35.446h2.92c.185 0 .334-.17.297-.356a1.83 1.83 0 0 0-1.794-1.476"/><path fill="url(#f1739idp)" d="M13.124 11.778A1.168 1.168 0 0 0 12 13.254h2.256q.041-.15.042-.308a1.176 1.176 0 0 0-1.173-1.168"/><path fill="#000" d="M13.793 12.946a.666.666 0 0 0-.669-.67a.666.666 0 0 0-.594.978h1.184a.66.66 0 0 0 .08-.308"/><g filter="url(#f1739id16)"><path fill="url(#f1739id1n)" d="M14.191 12.809c0-.378-.307-.63-.39-.705l-.377.365l.232.472z"/></g><g filter="url(#f1739id17)"><ellipse cx="12.772" cy="12.277" fill="#C7A7A3" fill-opacity=".9" rx=".51" ry=".258" transform="rotate(-27.914 12.772 12.277)"/><ellipse cx="12.772" cy="12.277" fill="url(#f1739idq)" rx=".51" ry=".258" transform="rotate(-27.914 12.772 12.277)"/></g><path fill="url(#f1739id1o)" d="M22.422 15.356q.132-2.089.242-4.176a2.106 2.106 0 0 1-.242 4.176"/><path fill="url(#f1739idr)" d="M22.422 15.356q.132-2.089.242-4.176a2.106 2.106 0 0 1-.242 4.176"/><path fill="url(#f1739ids)" d="M22.422 15.356q.132-2.089.242-4.176a2.106 2.106 0 0 1-.242 4.176"/><path fill="url(#f1739idt)" d="M22.422 15.356q.132-2.089.242-4.176a2.106 2.106 0 0 1-.242 4.176"/><path fill="url(#f1739id1p)" d="M9.382 11.168a2.12 2.12 0 0 0-1.822 2.086c0 1.124.881 2.042 1.99 2.102a102 102 0 0 1-.168-4.188"/><path fill="url(#f1739idu)" d="M9.382 11.168a2.12 2.12 0 0 0-1.822 2.086c0 1.124.881 2.042 1.99 2.102a102 102 0 0 1-.168-4.188"/><g filter="url(#f1739id18)"><path fill="url(#f1739idv)" d="M9.328 12.033a1.25 1.25 0 0 0 .109 2.459q-.07-1.23-.11-2.46"/></g><g filter="url(#f1739id19)"><path fill="url(#f1739id1q)" d="M22.532 14.513q.076-1.245.145-2.49a1.25 1.25 0 0 1-.145 2.49"/></g><path fill="#86004D" d="M14.87 17.905c.644-.443 1.599-.444 2.25 0a.35.35 0 1 0 .394-.578c-.888-.606-2.157-.606-3.04 0a.35.35 0 0 0 .396.577"/><path stroke="url(#f1739idw)" stroke-linecap="round" stroke-linejoin="round" stroke-width=".1" d="M14.87 17.905c.644-.443 1.599-.444 2.25 0a.35.35 0 1 0 .394-.578c-.888-.606-2.157-.606-3.04 0a.35.35 0 0 0 .396.577"/><path stroke="url(#f1739idx)" stroke-linecap="round" stroke-linejoin="round" stroke-width=".1" d="M14.87 17.905c.644-.443 1.599-.444 2.25 0a.35.35 0 1 0 .394-.578c-.888-.606-2.157-.606-3.04 0a.35.35 0 0 0 .396.577"/><g filter="url(#f1739id1a)"><path stroke="#181514" stroke-linecap="round" stroke-width=".65" d="M18.291 9.731c.304.327 1.078.856 2.19.781"/></g><g filter="url(#f1739id1b)"><path stroke="#1C1918" stroke-linecap="round" stroke-width=".65" d="M13.982 9.731c-.304.327-1.077.856-2.189.781"/></g><g filter="url(#f1739id1c)"><path stroke="#2D2C2D" stroke-linecap="round" stroke-width=".25" d="M18.291 9.669c.304.327 1.078.855 2.19.781"/></g><g filter="url(#f1739id1d)"><path stroke="#2D2C2D" stroke-linecap="round" stroke-width=".25" d="M13.982 9.669c-.304.327-1.077.855-2.189.781"/></g><defs><radialGradient id="f1739id0" cx="0" cy="0" r="1" gradientTransform="matrix(22.48095 13.37497 -13.6026 22.86355 6.019 19.17)" gradientUnits="userSpaceOnUse"><stop stop-color="#E24C1E"/><stop offset=".649" stop-color="#FA541C"/></radialGradient><radialGradient id="f1739id1" cx="0" cy="0" r="1" gradientTransform="rotate(162.31 10.589 15.05)scale(8.77045 16.0222)" gradientUnits="userSpaceOnUse"><stop offset=".249" stop-color="#FF7F46"/><stop offset="1" stop-color="#FF7F46" stop-opacity="0"/></radialGradient><radialGradient id="f1739id2" cx="0" cy="0" r="1" gradientTransform="rotate(79.261 -4.808 19.122)scale(3.68962 7.7183)" gradientUnits="userSpaceOnUse"><stop offset=".379" stop-color="#D0827D"/><stop offset=".847" stop-color="#D0827D" stop-opacity="0"/></radialGradient><radialGradient id="f1739id3" cx="0" cy="0" r="1" gradientTransform="matrix(.97976 2.64253 -3.13913 1.16388 22.202 14.833)" gradientUnits="userSpaceOnUse"><stop offset=".215" stop-color="#313131"/><stop offset="1" stop-color="#1A161E"/></radialGradient><radialGradient id="f1739id4" cx="0" cy="0" r="1" gradientTransform="matrix(1.93193 .60718 -1.87319 5.96014 8.057 15.474)" gradientUnits="userSpaceOnUse"><stop stop-color="#564943"/><stop offset=".746" stop-color="#1E191C"/></radialGradient><radialGradient id="f1739id5" cx="0" cy="0" r="1" gradientTransform="matrix(-6.84058 0 0 -12.1009 19.656 13.6)" gradientUnits="userSpaceOnUse"><stop stop-color="#FFDCC0"/><stop offset="1" stop-color="#D6A195"/></radialGradient><radialGradient id="f1739id6" cx="0" cy="0" r="1" gradientTransform="matrix(-1.30608 16.70673 -13.83519 -1.08159 18.052 5.863)" gradientUnits="userSpaceOnUse"><stop offset=".738" stop-color="#CD8C92" stop-opacity="0"/><stop offset=".988" stop-color="#CC7C80"/></radialGradient><radialGradient id="f1739id7" cx="0" cy="0" r="1" gradientTransform="matrix(0 -1.5026 1.85947 0 19.184 11.883)" gradientUnits="userSpaceOnUse"><stop offset=".325" stop-color="#F6B8A8"/><stop offset="1" stop-color="#F6B8A8" stop-opacity="0"/></radialGradient><radialGradient id="f1739id8" cx="0" cy="0" r="1" gradientTransform="matrix(.00514 -1.43185 1.55819 .0056 12.972 11.944)" gradientUnits="userSpaceOnUse"><stop offset=".378" stop-color="#D39991"/><stop offset="1" stop-color="#D39991" stop-opacity="0"/></radialGradient><radialGradient id="f1739id9" cx="0" cy="0" r="1" gradientTransform="rotate(176.388 10.002 7.77)scale(11.139 28.4546)" gradientUnits="userSpaceOnUse"><stop offset=".836" stop-color="#E6AD97" stop-opacity="0"/><stop offset="1" stop-color="#E6AD97"/></radialGradient><radialGradient id="f1739ida" cx="0" cy="0" r="1" gradientTransform="matrix(4.05424 -4.28891 1.57005 1.48414 8.828 7.941)" gradientUnits="userSpaceOnUse"><stop offset=".428" stop-color="#9F6D5C"/><stop offset="1" stop-color="#9F6D5C" stop-opacity="0"/></radialGradient><radialGradient id="f1739idb" cx="0" cy="0" r="1" gradientTransform="rotate(121.159 7.58 8.945)scale(4.40827 3.63939)" gradientUnits="userSpaceOnUse"><stop offset=".078" stop-color="#F6C3B0"/><stop offset="1" stop-color="#F6C3B0" stop-opacity="0"/></radialGradient><radialGradient id="f1739idc" cx="0" cy="0" r="1" gradientTransform="matrix(0 .3194 -1.00385 0 16.592 15.382)" gradientUnits="userSpaceOnUse"><stop stop-color="#FFDDC7"/><stop offset="1" stop-color="#FFDDC7" stop-opacity="0"/></radialGradient><radialGradient id="f1739idd" cx="0" cy="0" r="1" gradientTransform="matrix(-1.9904 .91258 -1.46659 -3.19874 16.744 14.636)" gradientUnits="userSpaceOnUse"><stop offset=".714" stop-color="#D3968C" stop-opacity="0"/><stop offset="1" stop-color="#D3968C"/></radialGradient><radialGradient id="f1739ide" cx="0" cy="0" r="1" gradientTransform="matrix(0 -4.58144 11.5859 0 9.14 9.817)" gradientUnits="userSpaceOnUse"><stop offset=".536" stop-color="#3E3433"/><stop offset="1" stop-color="#3E3433" stop-opacity="0"/></radialGradient><radialGradient id="f1739idf" cx="0" cy="0" r="1" gradientTransform="matrix(.14923 -3.28763 5.82504 .26441 22.342 11.53)" gradientUnits="userSpaceOnUse"><stop stop-color="#4F4D4D"/><stop offset="1" stop-color="#4F4D4D" stop-opacity="0"/></radialGradient><radialGradient id="f1739idg" cx="0" cy="0" r="1" gradientTransform="matrix(-3.0865 -2.03 1.49012 -2.26565 21.355 3.318)" gradientUnits="userSpaceOnUse"><stop stop-color="#5E5A5B"/><stop offset="1" stop-color="#5E5A5B" stop-opacity="0"/></radialGradient><radialGradient id="f1739idh" cx="0" cy="0" r="1" gradientTransform="matrix(1.18434 1.93001 -4.469 2.74236 14.797 1.235)" gradientUnits="userSpaceOnUse"><stop offset=".287" stop-color="#484646"/><stop offset="1" stop-color="#484646" stop-opacity="0"/></radialGradient><radialGradient id="f1739idi" cx="0" cy="0" r="1" gradientTransform="matrix(-2.88015 0 0 -1.06894 16.314 4.191)" gradientUnits="userSpaceOnUse"><stop stop-color="#423C3F"/><stop offset="1" stop-color="#423C3F" stop-opacity="0"/></radialGradient><radialGradient id="f1739idj" cx="0" cy="0" r="1" gradientTransform="matrix(4.21094 -6.66733 7.38671 4.66528 8.876 9.35)" gradientUnits="userSpaceOnUse"><stop offset=".093" stop-color="#0B0306"/><stop offset=".311" stop-color="#1C0C20"/><stop offset="1" stop-color="#1C0C20" stop-opacity="0"/></radialGradient><radialGradient id="f1739idk" cx="0" cy="0" r="1" gradientTransform="matrix(4.00186 0 0 1.56466 20.45 5.208)" gradientUnits="userSpaceOnUse"><stop stop-color="#4E494B"/><stop offset="1" stop-color="#4E494B" stop-opacity="0"/></radialGradient><radialGradient id="f1739idl" cx="0" cy="0" r="1" gradientTransform="matrix(3.50509 -3.33948 6.11374 6.41691 19.428 9.182)" gradientUnits="userSpaceOnUse"><stop offset=".857" stop-color="#545051" stop-opacity="0"/><stop offset="1" stop-color="#545051"/></radialGradient><radialGradient id="f1739idm" cx="0" cy="0" r="1" gradientTransform="matrix(4.25026 .49678 -.208 1.7795 18.269 7.25)" gradientUnits="userSpaceOnUse"><stop stop-color="#200E25"/><stop offset="1" stop-color="#200E25" stop-opacity="0"/></radialGradient><radialGradient id="f1739idn" cx="0" cy="0" r="1" gradientTransform="matrix(0 1.0616 -1.6886 0 18.837 12.402)" gradientUnits="userSpaceOnUse"><stop offset=".802" stop-color="#7D574A"/><stop offset="1" stop-color="#694B43"/><stop offset="1" stop-color="#804D49"/><stop offset="1" stop-color="#664842"/></radialGradient><radialGradient id="f1739ido" cx="0" cy="0" r="1" gradientTransform="matrix(-.30346 -.39106 .53838 -.4178 18.538 12.511)" gradientUnits="userSpaceOnUse"><stop offset=".766" stop-color="#FFE6E2" stop-opacity="0"/><stop offset=".966" stop-color="#FFE6E2"/></radialGradient><radialGradient id="f1739idp" cx="0" cy="0" r="1" gradientTransform="matrix(0 1.06166 -1.68868 0 13.127 12.402)" gradientUnits="userSpaceOnUse"><stop offset=".802" stop-color="#7D574A"/><stop offset="1" stop-color="#694B43"/><stop offset="1" stop-color="#804D49"/><stop offset="1" stop-color="#664842"/></radialGradient><radialGradient id="f1739idq" cx="0" cy="0" r="1" gradientTransform="rotate(-90.897 12.622 .067)scale(.64658 .77722)" gradientUnits="userSpaceOnUse"><stop offset=".766" stop-color="#FFE6E2" stop-opacity="0"/><stop offset=".966" stop-color="#FFE6E2"/></radialGradient><radialGradient id="f1739idr" cx="0" cy="0" r="1" gradientTransform="matrix(.82245 2.9353 -2.8005 .78468 22.024 12.42)" gradientUnits="userSpaceOnUse"><stop offset=".856" stop-color="#CE978E" stop-opacity="0"/><stop offset="1" stop-color="#CE978E"/></radialGradient><radialGradient id="f1739ids" cx="0" cy="0" r="1" gradientTransform="matrix(1.0308 -1.41461 1.18572 .86402 22.496 13.133)" gradientUnits="userSpaceOnUse"><stop offset=".664" stop-color="#F7B99C"/><stop offset="1" stop-color="#F7B99C" stop-opacity="0"/></radialGradient><radialGradient id="f1739idt" cx="0" cy="0" r="1" gradientTransform="matrix(.76808 -2.0287 2.71064 1.02626 22.645 13.359)" gradientUnits="userSpaceOnUse"><stop offset=".803" stop-color="#EBBB9D" stop-opacity="0"/><stop offset="1" stop-color="#EBBB9D"/></radialGradient><radialGradient id="f1739idu" cx="0" cy="0" r="1" gradientTransform="rotate(-173.034 5.179 6.34)scale(2.12651 2.28271)" gradientUnits="userSpaceOnUse"><stop offset=".775" stop-color="#E8AF99" stop-opacity="0"/><stop offset="1" stop-color="#E8AF99"/></radialGradient><radialGradient id="f1739idv" cx="0" cy="0" r="1" gradientTransform="matrix(-1.1992 .20585 -.25258 -1.47149 9.552 13.262)" gradientUnits="userSpaceOnUse"><stop stop-color="#C18472"/><stop offset="1" stop-color="#CA8B7A"/></radialGradient><radialGradient id="f1739idw" cx="0" cy="0" r="1" gradientTransform="matrix(.20312 -.4967 1.18464 .48446 16.984 17.916)" gradientUnits="userSpaceOnUse"><stop stop-color="#F6C2B6"/><stop offset="1" stop-color="#F6C2B6" stop-opacity="0"/></radialGradient><radialGradient id="f1739idx" cx="0" cy="0" r="1" gradientTransform="matrix(.28907 -.31331 .21445 .19785 14.414 17.916)" gradientUnits="userSpaceOnUse"><stop stop-color="#F6C2B6"/><stop offset="1" stop-color="#F6C2B6" stop-opacity="0"/></radialGradient><filter id="f1739idy" width="14.373" height="16.349" x="9.357" y="5.527" color-interpolation-filters="sRGB" filterUnits="userSpaceOnUse"><feFlood flood-opacity="0" result="BackgroundImageFix"/><feBlend in="SourceGraphic" in2="BackgroundImageFix" result="shape"/><feColorMatrix in="SourceAlpha" result="hardAlpha" values="0 0 0 0 0 0 0 0 0 0 0 0 0 0 0 0 0 0 127 0"/><feOffset dx="1"/><feGaussianBlur stdDeviation=".7"/><feComposite in2="hardAlpha" k2="-1" k3="1" operator="arithmetic"/><feColorMatrix values="0 0 0 0 0.913725 0 0 0 0 0.686275 0 0 0 0 0.592157 0 0 0 1 0"/><feBlend in2="shape" result="effect1_innerShadow_3987_21862"/><feColorMatrix in="SourceAlpha" result="hardAlpha" values="0 0 0 0 0 0 0 0 0 0 0 0 0 0 0 0 0 0 127 0"/><feOffset dy=".2"/><feGaussianBlur stdDeviation=".375"/><feComposite in2="hardAlpha" k2="-1" k3="1" operator="arithmetic"/><feColorMatrix values="0 0 0 0 0.780392 0 0 0 0 0.568627 0 0 0 0 0.486275 0 0 0 1 0"/><feBlend in2="effect1_innerShadow_3987_21862" result="effect2_innerShadow_3987_21862"/></filter><filter id="f1739idz" width="4.286" height="5.795" x="13.654" y="11.516" color-interpolation-filters="sRGB" filterUnits="userSpaceOnUse"><feFlood flood-opacity="0" result="BackgroundImageFix"/><feBlend in="SourceGraphic" in2="BackgroundImageFix" result="shape"/><feGaussianBlur result="effect1_foregroundBlur_3987_21862" stdDeviation=".5"/></filter><filter id="f1739id10" width="2.856" height="4.195" x="14.554" y="12.066" color-interpolation-filters="sRGB" filterUnits="userSpaceOnUse"><feFlood flood-opacity="0" result="BackgroundImageFix"/><feBlend in="SourceGraphic" in2="BackgroundImageFix" result="shape"/><feGaussianBlur result="effect1_foregroundBlur_3987_21862" stdDeviation=".1"/></filter><filter id="f1739id11" width="16.844" height="10.78" x="7.56" y="1.525" color-interpolation-filters="sRGB" filterUnits="userSpaceOnUse"><feFlood flood-opacity="0" result="BackgroundImageFix"/><feBlend in="SourceGraphic" in2="BackgroundImageFix" result="shape"/><feColorMatrix in="SourceAlpha" result="hardAlpha" values="0 0 0 0 0 0 0 0 0 0 0 0 0 0 0 0 0 0 127 0"/><feOffset dy="-.5"/><feGaussianBlur stdDeviation=".625"/><feComposite in2="hardAlpha" k2="-1" k3="1" operator="arithmetic"/><feColorMatrix values="0 0 0 0 0.137255 0 0 0 0 0.0901961 0 0 0 0 0.145098 0 0 0 1 0"/><feBlend in2="shape" result="effect1_innerShadow_3987_21862"/><feColorMatrix in="SourceAlpha" result="hardAlpha" values="0 0 0 0 0 0 0 0 0 0 0 0 0 0 0 0 0 0 127 0"/><feOffset dy="-.2"/><feGaussianBlur stdDeviation=".2"/><feComposite in2="hardAlpha" k2="-1" k3="1" operator="arithmetic"/><feColorMatrix values="0 0 0 0 0.0784314 0 0 0 0 0.0352941 0 0 0 0 0.0470588 0 0 0 1 0"/><feBlend in2="effect1_innerShadow_3987_21862" result="effect2_innerShadow_3987_21862"/></filter><filter id="f1739id12" width="8.961" height="8.186" x="7.852" y="2.622" color-interpolation-filters="sRGB" filterUnits="userSpaceOnUse"><feFlood flood-opacity="0" result="BackgroundImageFix"/><feBlend in="SourceGraphic" in2="BackgroundImageFix" result="shape"/><feColorMatrix in="SourceAlpha" result="hardAlpha" values="0 0 0 0 0 0 0 0 0 0 0 0 0 0 0 0 0 0 127 0"/><feOffset dx=".4" dy=".2"/><feGaussianBlur stdDeviation=".2"/><feComposite in2="hardAlpha" k2="-1" k3="1" operator="arithmetic"/><feColorMatrix values="0 0 0 0 0.286275 0 0 0 0 0.243137 0 0 0 0 0.227451 0 0 0 1 0"/><feBlend in2="shape" result="effect1_innerShadow_3987_21862"/><feGaussianBlur result="effect2_foregroundBlur_3987_21862" stdDeviation=".25"/></filter><filter id="f1739id13" width="8.743" height="7.929" x="15.528" y="3.099" color-interpolation-filters="sRGB" filterUnits="userSpaceOnUse"><feFlood flood-opacity="0" result="BackgroundImageFix"/><feBlend in="SourceGraphic" in2="BackgroundImageFix" result="shape"/><feGaussianBlur result="effect1_foregroundBlur_3987_21862" stdDeviation=".25"/></filter><filter id="f1739id14" width=".968" height=".849" x="17.907" y="11.858" color-interpolation-filters="sRGB" filterUnits="userSpaceOnUse"><feFlood flood-opacity="0" result="BackgroundImageFix"/><feBlend in="SourceGraphic" in2="BackgroundImageFix" result="shape"/><feGaussianBlur result="effect1_foregroundBlur_3987_21862" stdDeviation=".05"/></filter><filter id="f1739id15" width="1.043" height="1.072" x="19.037" y="11.987" color-interpolation-filters="sRGB" filterUnits="userSpaceOnUse"><feFlood flood-opacity="0" result="BackgroundImageFix"/><feBlend in="SourceGraphic" in2="BackgroundImageFix" result="shape"/><feGaussianBlur result="effect1_foregroundBlur_3987_21862" stdDeviation=".1"/></filter><filter id="f1739id16" width="1.167" height="1.238" x="13.224" y="11.904" color-interpolation-filters="sRGB" filterUnits="userSpaceOnUse"><feFlood flood-opacity="0" result="BackgroundImageFix"/><feBlend in="SourceGraphic" in2="BackgroundImageFix" result="shape"/><feGaussianBlur result="effect1_foregroundBlur_3987_21862" stdDeviation=".1"/></filter><filter id="f1739id17" width="1.133" height=".86" x="12.205" y="11.847" color-interpolation-filters="sRGB" filterUnits="userSpaceOnUse"><feFlood flood-opacity="0" result="BackgroundImageFix"/><feBlend in="SourceGraphic" in2="BackgroundImageFix" result="shape"/><feGaussianBlur result="effect1_foregroundBlur_3987_21862" stdDeviation=".05"/></filter><filter id="f1739id18" width="1.585" height="2.959" x="8.102" y="11.783" color-interpolation-filters="sRGB" filterUnits="userSpaceOnUse"><feFlood flood-opacity="0" result="BackgroundImageFix"/><feBlend in="SourceGraphic" in2="BackgroundImageFix" result="shape"/><feGaussianBlur result="effect1_foregroundBlur_3987_21862" stdDeviation=".125"/></filter><filter id="f1739id19" width="2.239" height="3.491" x="22.032" y="11.522" color-interpolation-filters="sRGB" filterUnits="userSpaceOnUse"><feFlood flood-opacity="0" result="BackgroundImageFix"/><feBlend in="SourceGraphic" in2="BackgroundImageFix" result="shape"/><feGaussianBlur result="effect1_foregroundBlur_3987_21862" stdDeviation=".25"/></filter><filter id="f1739id1a" width="2.939" height="1.538" x="17.966" y="9.306" color-interpolation-filters="sRGB" filterUnits="userSpaceOnUse"><feFlood flood-opacity="0" result="BackgroundImageFix"/><feBlend in="SourceGraphic" in2="BackgroundImageFix" result="shape"/><feColorMatrix in="SourceAlpha" result="hardAlpha" values="0 0 0 0 0 0 0 0 0 0 0 0 0 0 0 0 0 0 127 0"/><feOffset dx=".1" dy="-.1"/><feGaussianBlur stdDeviation=".1"/><feComposite in2="hardAlpha" k2="-1" k3="1" operator="arithmetic"/><feColorMatrix values="0 0 0 0 0.141176 0 0 0 0 0.0980392 0 0 0 0 0.109804 0 0 0 1 0"/><feBlend in2="shape" result="effect1_innerShadow_3987_21862"/></filter><filter id="f1739id1b" width="2.939" height="1.538" x="11.468" y="9.306" color-interpolation-filters="sRGB" filterUnits="userSpaceOnUse"><feFlood flood-opacity="0" result="BackgroundImageFix"/><feBlend in="SourceGraphic" in2="BackgroundImageFix" result="shape"/><feColorMatrix in="SourceAlpha" result="hardAlpha" values="0 0 0 0 0 0 0 0 0 0 0 0 0 0 0 0 0 0 127 0"/><feOffset dx=".1" dy="-.1"/><feGaussianBlur stdDeviation=".1"/><feComposite in2="hardAlpha" k2="-1" k3="1" operator="arithmetic"/><feColorMatrix values="0 0 0 0 0.141176 0 0 0 0 0.0980392 0 0 0 0 0.109804 0 0 0 1 0"/><feBlend in2="shape" result="effect1_innerShadow_3987_21862"/></filter><filter id="f1739id1c" width="2.939" height="1.538" x="17.916" y="9.294" color-interpolation-filters="sRGB" filterUnits="userSpaceOnUse"><feFlood flood-opacity="0" result="BackgroundImageFix"/><feBlend in="SourceGraphic" in2="BackgroundImageFix" result="shape"/><feGaussianBlur result="effect1_foregroundBlur_3987_21862" stdDeviation=".125"/></filter><filter id="f1739id1d" width="2.939" height="1.538" x="11.418" y="9.294" color-interpolation-filters="sRGB" filterUnits="userSpaceOnUse"><feFlood flood-opacity="0" result="BackgroundImageFix"/><feBlend in="SourceGraphic" in2="BackgroundImageFix" result="shape"/><feGaussianBlur result="effect1_foregroundBlur_3987_21862" stdDeviation=".125"/></filter><linearGradient id="f1739id1e" x1="16.594" x2="16.625" y1="30.702" y2="29.202" gradientUnits="userSpaceOnUse"><stop stop-color="#EE441B"/><stop offset="1" stop-color="#EE441B" stop-opacity="0"/></linearGradient><linearGradient id="f1739id1f" x1="18.813" x2="16.294" y1="23.095" y2="23.095" gradientUnits="userSpaceOnUse"><stop offset=".168" stop-color="#FFC4B4"/><stop offset="1" stop-color="#FFC4B4" stop-opacity="0"/></linearGradient><linearGradient id="f1739id1g" x1="22.73" x2="17.035" y1="15.806" y2="15.806" gradientUnits="userSpaceOnUse"><stop stop-color="#FFD6BA"/><stop offset="1" stop-color="#FFD6BA" stop-opacity="0"/></linearGradient><linearGradient id="f1739id1h" x1="17.21" x2="15.859" y1="14.282" y2="14.548" gradientUnits="userSpaceOnUse"><stop offset=".074" stop-color="#FFDFC7"/><stop offset="1" stop-color="#FFDFC7" stop-opacity="0"/></linearGradient><linearGradient id="f1739id1i" x1="15.982" x2="15.982" y1="12.266" y2="13.15" gradientUnits="userSpaceOnUse"><stop stop-color="#E8BBA8"/><stop offset="1" stop-color="#E8BBA8" stop-opacity="0"/></linearGradient><linearGradient id="f1739id1j" x1="14.563" x2="15.719" y1="15.376" y2="15.532" gradientUnits="userSpaceOnUse"><stop stop-color="#E5AF96"/><stop offset="1" stop-color="#E5AF96" stop-opacity="0"/></linearGradient><linearGradient id="f1739id1k" x1="15.982" x2="15.982" y1="15.975" y2="15.366" gradientUnits="userSpaceOnUse"><stop stop-color="#D89793"/><stop offset="1" stop-color="#D89793" stop-opacity="0"/></linearGradient><linearGradient id="f1739id1l" x1="24.948" x2="9.753" y1="6.192" y2="6.192" gradientUnits="userSpaceOnUse"><stop stop-color="#443D40"/><stop offset="1" stop-color="#272127"/></linearGradient><linearGradient id="f1739id1m" x1="19.855" x2="19.445" y1="12.473" y2="12.726" gradientUnits="userSpaceOnUse"><stop stop-color="#B4948D"/><stop offset="1" stop-color="#B4948D" stop-opacity="0"/></linearGradient><linearGradient id="f1739id1n" x1="14.1" x2="13.69" y1="12.473" y2="12.726" gradientUnits="userSpaceOnUse"><stop stop-color="#B4948D"/><stop offset="1" stop-color="#B4948D" stop-opacity="0"/></linearGradient><linearGradient id="f1739id1o" x1="24.404" x2="22.825" y1="12.508" y2="15.356" gradientUnits="userSpaceOnUse"><stop stop-color="#FFD6BD"/><stop offset="1" stop-color="#F0B8A6"/></linearGradient><linearGradient id="f1739id1p" x1="8.328" x2="10.236" y1="13.429" y2="13.262" gradientUnits="userSpaceOnUse"><stop stop-color="#D19787"/><stop offset="1" stop-color="#C9887D"/></linearGradient><linearGradient id="f1739id1q" x1="23.151" x2="23.151" y1="12.022" y2="14.513" gradientUnits="userSpaceOnUse"><stop stop-color="#F9BB9E"/><stop offset="1" stop-color="#F6BBA0"/></linearGradient></defs></g></svg>