<svg xmlns="http://www.w3.org/2000/svg" xmlns:xlink="http://www.w3.org/1999/xlink" width="32" height="32" viewBox="0 0 32 32"><g fill="none"><path fill="url(#f2188id0)" d="M3.68 8.84a13.9 13.9 0 0 0-1.922 7.075c0 7.72 6.28 14 14 14c5.8 0 10.787-3.544 12.91-8.581l-2.69-1.345c-1.621 4.056-5.588 6.926-10.22 6.926c-6.07 0-11-4.94-11-11c0-2.098.59-4.06 1.611-5.73z"/><path fill="url(#f2188id1)" d="M3.68 8.84a13.9 13.9 0 0 0-1.922 7.075c0 7.72 6.28 14 14 14c5.8 0 10.787-3.544 12.91-8.581l-2.69-1.345c-1.621 4.056-5.588 6.926-10.22 6.926c-6.07 0-11-4.94-11-11c0-2.098.59-4.06 1.611-5.73z"/><path fill="url(#f2188id2)" d="M3.68 8.84a13.9 13.9 0 0 0-1.922 7.075c0 7.72 6.28 14 14 14c5.8 0 10.787-3.544 12.91-8.581l-2.69-1.345c-1.621 4.056-5.588 6.926-10.22 6.926c-6.07 0-11-4.94-11-11c0-2.098.59-4.06 1.611-5.73z"/><path fill="url(#f2188id3)" d="M3.68 8.84a13.9 13.9 0 0 0-1.922 7.075c0 7.72 6.28 14 14 14c5.8 0 10.787-3.544 12.91-8.581l-2.69-1.345c-1.621 4.056-5.588 6.926-10.22 6.926c-6.07 0-11-4.94-11-11c0-2.098.59-4.06 1.611-5.73z"/><path fill="url(#f2188id4)" d="M3.68 8.84a13.9 13.9 0 0 0-1.922 7.075c0 7.72 6.28 14 14 14c5.8 0 10.787-3.544 12.91-8.581l-2.69-1.345c-1.621 4.056-5.588 6.926-10.22 6.926c-6.07 0-11-4.94-11-11c0-2.098.59-4.06 1.611-5.73z"/><path fill="url(#f2188id5)" d="M3.68 8.84a13.9 13.9 0 0 0-1.922 7.075c0 7.72 6.28 14 14 14c5.8 0 10.787-3.544 12.91-8.581l-2.69-1.345c-1.621 4.056-5.588 6.926-10.22 6.926c-6.07 0-11-4.94-11-11c0-2.098.59-4.06 1.611-5.73z"/><path fill="url(#f2188id6)" d="M3.68 8.84a13.9 13.9 0 0 0-1.922 7.075c0 7.72 6.28 14 14 14c5.8 0 10.787-3.544 12.91-8.581l-2.69-1.345c-1.621 4.056-5.588 6.926-10.22 6.926c-6.07 0-11-4.94-11-11c0-2.098.59-4.06 1.611-5.73z"/><path fill="url(#f2188id7)" d="M2.549 11.274c1.918-5.446 7.115-9.359 13.21-9.359c7.72 0 14 6.28 14 14a13.9 13.9 0 0 1-2.367 7.781l-2.709-1.354a10.95 10.95 0 0 0 2.075-6.427c0-6.06-4.93-11-11-11c-4.925 0-9.1 3.247-10.5 7.714z"/><path fill="url(#f2188id8)" d="M2.549 11.274c1.918-5.446 7.115-9.359 13.21-9.359c7.72 0 14 6.28 14 14a13.9 13.9 0 0 1-2.367 7.781l-2.709-1.354a10.95 10.95 0 0 0 2.075-6.427c0-6.06-4.93-11-11-11c-4.925 0-9.1 3.247-10.5 7.714z"/><path fill="url(#f2188id9)" d="M2.549 11.274c1.918-5.446 7.115-9.359 13.21-9.359c7.72 0 14 6.28 14 14a13.9 13.9 0 0 1-2.367 7.781l-2.709-1.354a10.95 10.95 0 0 0 2.075-6.427c0-6.06-4.93-11-11-11c-4.925 0-9.1 3.247-10.5 7.714z"/><path fill="url(#f2188ida)" d="M2.549 11.274c1.918-5.446 7.115-9.359 13.21-9.359c7.72 0 14 6.28 14 14a13.9 13.9 0 0 1-2.367 7.781l-2.709-1.354a10.95 10.95 0 0 0 2.075-6.427c0-6.06-4.93-11-11-11c-4.925 0-9.1 3.247-10.5 7.714z"/><path fill="url(#f2188idb)" d="M2.549 11.274c1.918-5.446 7.115-9.359 13.21-9.359c7.72 0 14 6.28 14 14a13.9 13.9 0 0 1-2.367 7.781l-2.709-1.354a10.95 10.95 0 0 0 2.075-6.427c0-6.06-4.93-11-11-11c-4.925 0-9.1 3.247-10.5 7.714z"/><path fill="url(#f2188idc)" d="M2.549 11.274c1.918-5.446 7.115-9.359 13.21-9.359c7.72 0 14 6.28 14 14a13.9 13.9 0 0 1-2.367 7.781l-2.709-1.354a10.95 10.95 0 0 0 2.075-6.427c0-6.06-4.93-11-11-11c-4.925 0-9.1 3.247-10.5 7.714z"/><path fill="#7362B5" d="M18.748 22.515c.21.35.58.57.99.57c.9 0 1.46-.98.96-1.73l-1.35-2.22c-.21-.32-.4-.59-.57-.82a6 6 0 0 0-.52-.63c-.17-.18-.35-.37-.55-.54q-.3-.255-.69-.48v-.04c.5-.12.94-.3 1.33-.53c.39-.24.73-.51 1.01-.84s.49-.7.64-1.12s.23-.88.23-1.38c0-.65-.12-1.2-.36-1.68c-.23-.48-.57-.88-.99-1.2s-.92-.56-1.49-.72s-1.19-.24-1.87-.24h-3.89c-.52.03-.84.23-.87.87v12.09c0 .67.54 1.2 1.2 1.2c.67 0 1.2-.54 1.2-1.2v-4.54h.97c.31 0 .58.03.82.11s.46.19.67.35s.41.36.61.61c.2.24.4.54.61.89zm-5.58-7.08v-4.6h2c.83 0 1.45.19 1.89.57q.66.57.66 1.59c0 .38-.06.72-.19 1.02c-.12.3-.3.56-.53.77q-.345.315-.81.48c-.31.11-.65.17-1.02.17z"/><path fill="url(#f2188id17)" d="M18.748 22.515c.21.35.58.57.99.57c.9 0 1.46-.98.96-1.73l-1.35-2.22c-.21-.32-.4-.59-.57-.82a6 6 0 0 0-.52-.63c-.17-.18-.35-.37-.55-.54q-.3-.255-.69-.48v-.04c.5-.12.94-.3 1.33-.53c.39-.24.73-.51 1.01-.84s.49-.7.64-1.12s.23-.88.23-1.38c0-.65-.12-1.2-.36-1.68c-.23-.48-.57-.88-.99-1.2s-.92-.56-1.49-.72s-1.19-.24-1.87-.24h-3.89c-.52.03-.84.23-.87.87v12.09c0 .67.54 1.2 1.2 1.2c.67 0 1.2-.54 1.2-1.2v-4.54h.97c.31 0 .58.03.82.11s.46.19.67.35s.41.36.61.61c.2.24.4.54.61.89zm-5.58-7.08v-4.6h2c.83 0 1.45.19 1.89.57q.66.57.66 1.59c0 .38-.06.72-.19 1.02c-.12.3-.3.56-.53.77q-.345.315-.81.48c-.31.11-.65.17-1.02.17z"/><path fill="url(#f2188id18)" d="M18.748 22.515c.21.35.58.57.99.57c.9 0 1.46-.98.96-1.73l-1.35-2.22c-.21-.32-.4-.59-.57-.82a6 6 0 0 0-.52-.63c-.17-.18-.35-.37-.55-.54q-.3-.255-.69-.48v-.04c.5-.12.94-.3 1.33-.53c.39-.24.73-.51 1.01-.84s.49-.7.64-1.12s.23-.88.23-1.38c0-.65-.12-1.2-.36-1.68c-.23-.48-.57-.88-.99-1.2s-.92-.56-1.49-.72s-1.19-.24-1.87-.24h-3.89c-.52.03-.84.23-.87.87v12.09c0 .67.54 1.2 1.2 1.2c.67 0 1.2-.54 1.2-1.2v-4.54h.97c.31 0 .58.03.82.11s.46.19.67.35s.41.36.61.61c.2.24.4.54.61.89zm-5.58-7.08v-4.6h2c.83 0 1.45.19 1.89.57q.66.57.66 1.59c0 .38-.06.72-.19 1.02c-.12.3-.3.56-.53.77q-.345.315-.81.48c-.31.11-.65.17-1.02.17z"/><path fill="url(#f2188id19)" d="M18.748 22.515c.21.35.58.57.99.57c.9 0 1.46-.98.96-1.73l-1.35-2.22c-.21-.32-.4-.59-.57-.82a6 6 0 0 0-.52-.63c-.17-.18-.35-.37-.55-.54q-.3-.255-.69-.48v-.04c.5-.12.94-.3 1.33-.53c.39-.24.73-.51 1.01-.84s.49-.7.64-1.12s.23-.88.23-1.38c0-.65-.12-1.2-.36-1.68c-.23-.48-.57-.88-.99-1.2s-.92-.56-1.49-.72s-1.19-.24-1.87-.24h-3.89c-.52.03-.84.23-.87.87v12.09c0 .67.54 1.2 1.2 1.2c.67 0 1.2-.54 1.2-1.2v-4.54h.97c.31 0 .58.03.82.11s.46.19.67.35s.41.36.61.61c.2.24.4.54.61.89zm-5.58-7.08v-4.6h2c.83 0 1.45.19 1.89.57q.66.57.66 1.59c0 .38-.06.72-.19 1.02c-.12.3-.3.56-.53.77q-.345.315-.81.48c-.31.11-.65.17-1.02.17z"/><path fill="url(#f2188id1a)" d="M18.748 22.515c.21.35.58.57.99.57c.9 0 1.46-.98.96-1.73l-1.35-2.22c-.21-.32-.4-.59-.57-.82a6 6 0 0 0-.52-.63c-.17-.18-.35-.37-.55-.54q-.3-.255-.69-.48v-.04c.5-.12.94-.3 1.33-.53c.39-.24.73-.51 1.01-.84s.49-.7.64-1.12s.23-.88.23-1.38c0-.65-.12-1.2-.36-1.68c-.23-.48-.57-.88-.99-1.2s-.92-.56-1.49-.72s-1.19-.24-1.87-.24h-3.89c-.52.03-.84.23-.87.87v12.09c0 .67.54 1.2 1.2 1.2c.67 0 1.2-.54 1.2-1.2v-4.54h.97c.31 0 .58.03.82.11s.46.19.67.35s.41.36.61.61c.2.24.4.54.61.89zm-5.58-7.08v-4.6h2c.83 0 1.45.19 1.89.57q.66.57.66 1.59c0 .38-.06.72-.19 1.02c-.12.3-.3.56-.53.77q-.345.315-.81.48c-.31.11-.65.17-1.02.17z"/><path fill="url(#f2188idd)" d="M18.748 22.515c.21.35.58.57.99.57c.9 0 1.46-.98.96-1.73l-1.35-2.22c-.21-.32-.4-.59-.57-.82a6 6 0 0 0-.52-.63c-.17-.18-.35-.37-.55-.54q-.3-.255-.69-.48v-.04c.5-.12.94-.3 1.33-.53c.39-.24.73-.51 1.01-.84s.49-.7.64-1.12s.23-.88.23-1.38c0-.65-.12-1.2-.36-1.68c-.23-.48-.57-.88-.99-1.2s-.92-.56-1.49-.72s-1.19-.24-1.87-.24h-3.89c-.52.03-.84.23-.87.87v12.09c0 .67.54 1.2 1.2 1.2c.67 0 1.2-.54 1.2-1.2v-4.54h.97c.31 0 .58.03.82.11s.46.19.67.35s.41.36.61.61c.2.24.4.54.61.89zm-5.58-7.08v-4.6h2c.83 0 1.45.19 1.89.57q.66.57.66 1.59c0 .38-.06.72-.19 1.02c-.12.3-.3.56-.53.77q-.345.315-.81.48c-.31.11-.65.17-1.02.17z"/><path fill="url(#f2188ide)" d="M18.748 22.515c.21.35.58.57.99.57c.9 0 1.46-.98.96-1.73l-1.35-2.22c-.21-.32-.4-.59-.57-.82a6 6 0 0 0-.52-.63c-.17-.18-.35-.37-.55-.54q-.3-.255-.69-.48v-.04c.5-.12.94-.3 1.33-.53c.39-.24.73-.51 1.01-.84s.49-.7.64-1.12s.23-.88.23-1.38c0-.65-.12-1.2-.36-1.68c-.23-.48-.57-.88-.99-1.2s-.92-.56-1.49-.72s-1.19-.24-1.87-.24h-3.89c-.52.03-.84.23-.87.87v12.09c0 .67.54 1.2 1.2 1.2c.67 0 1.2-.54 1.2-1.2v-4.54h.97c.31 0 .58.03.82.11s.46.19.67.35s.41.36.61.61c.2.24.4.54.61.89zm-5.58-7.08v-4.6h2c.83 0 1.45.19 1.89.57q.66.57.66 1.59c0 .38-.06.72-.19 1.02c-.12.3-.3.56-.53.77q-.345.315-.81.48c-.31.11-.65.17-1.02.17z"/><path fill="url(#f2188idf)" d="M18.748 22.515c.21.35.58.57.99.57c.9 0 1.46-.98.96-1.73l-1.35-2.22c-.21-.32-.4-.59-.57-.82a6 6 0 0 0-.52-.63c-.17-.18-.35-.37-.55-.54q-.3-.255-.69-.48v-.04c.5-.12.94-.3 1.33-.53c.39-.24.73-.51 1.01-.84s.49-.7.64-1.12s.23-.88.23-1.38c0-.65-.12-1.2-.36-1.68c-.23-.48-.57-.88-.99-1.2s-.92-.56-1.49-.72s-1.19-.24-1.87-.24h-3.89c-.52.03-.84.23-.87.87v12.09c0 .67.54 1.2 1.2 1.2c.67 0 1.2-.54 1.2-1.2v-4.54h.97c.31 0 .58.03.82.11s.46.19.67.35s.41.36.61.61c.2.24.4.54.61.89zm-5.58-7.08v-4.6h2c.83 0 1.45.19 1.89.57q.66.57.66 1.59c0 .38-.06.72-.19 1.02c-.12.3-.3.56-.53.77q-.345.315-.81.48c-.31.11-.65.17-1.02.17z"/><path fill="url(#f2188idg)" d="M18.748 22.515c.21.35.58.57.99.57c.9 0 1.46-.98.96-1.73l-1.35-2.22c-.21-.32-.4-.59-.57-.82a6 6 0 0 0-.52-.63c-.17-.18-.35-.37-.55-.54q-.3-.255-.69-.48v-.04c.5-.12.94-.3 1.33-.53c.39-.24.73-.51 1.01-.84s.49-.7.64-1.12s.23-.88.23-1.38c0-.65-.12-1.2-.36-1.68c-.23-.48-.57-.88-.99-1.2s-.92-.56-1.49-.72s-1.19-.24-1.87-.24h-3.89c-.52.03-.84.23-.87.87v12.09c0 .67.54 1.2 1.2 1.2c.67 0 1.2-.54 1.2-1.2v-4.54h.97c.31 0 .58.03.82.11s.46.19.67.35s.41.36.61.61c.2.24.4.54.61.89zm-5.58-7.08v-4.6h2c.83 0 1.45.19 1.89.57q.66.57.66 1.59c0 .38-.06.72-.19 1.02c-.12.3-.3.56-.53.77q-.345.315-.81.48c-.31.11-.65.17-1.02.17z"/><path fill="url(#f2188idh)" d="M18.748 22.515c.21.35.58.57.99.57c.9 0 1.46-.98.96-1.73l-1.35-2.22c-.21-.32-.4-.59-.57-.82a6 6 0 0 0-.52-.63c-.17-.18-.35-.37-.55-.54q-.3-.255-.69-.48v-.04c.5-.12.94-.3 1.33-.53c.39-.24.73-.51 1.01-.84s.49-.7.64-1.12s.23-.88.23-1.38c0-.65-.12-1.2-.36-1.68c-.23-.48-.57-.88-.99-1.2s-.92-.56-1.49-.72s-1.19-.24-1.87-.24h-3.89c-.52.03-.84.23-.87.87v12.09c0 .67.54 1.2 1.2 1.2c.67 0 1.2-.54 1.2-1.2v-4.54h.97c.31 0 .58.03.82.11s.46.19.67.35s.41.36.61.61c.2.24.4.54.61.89zm-5.58-7.08v-4.6h2c.83 0 1.45.19 1.89.57q.66.57.66 1.59c0 .38-.06.72-.19 1.02c-.12.3-.3.56-.53.77q-.345.315-.81.48c-.31.11-.65.17-1.02.17z"/><path fill="url(#f2188idi)" d="M18.748 22.515c.21.35.58.57.99.57c.9 0 1.46-.98.96-1.73l-1.35-2.22c-.21-.32-.4-.59-.57-.82a6 6 0 0 0-.52-.63c-.17-.18-.35-.37-.55-.54q-.3-.255-.69-.48v-.04c.5-.12.94-.3 1.33-.53c.39-.24.73-.51 1.01-.84s.49-.7.64-1.12s.23-.88.23-1.38c0-.65-.12-1.2-.36-1.68c-.23-.48-.57-.88-.99-1.2s-.92-.56-1.49-.72s-1.19-.24-1.87-.24h-3.89c-.52.03-.84.23-.87.87v12.09c0 .67.54 1.2 1.2 1.2c.67 0 1.2-.54 1.2-1.2v-4.54h.97c.31 0 .58.03.82.11s.46.19.67.35s.41.36.61.61c.2.24.4.54.61.89zm-5.58-7.08v-4.6h2c.83 0 1.45.19 1.89.57q.66.57.66 1.59c0 .38-.06.72-.19 1.02c-.12.3-.3.56-.53.77q-.345.315-.81.48c-.31.11-.65.17-1.02.17z"/><path fill="#8741E6" fill-rule="evenodd" d="M19.738 23.085c-.41 0-.78-.22-.99-.57l-1.91-3.22c-.21-.35-.41-.65-.61-.89c-.2-.25-.4-.45-.61-.61s-.43-.27-.67-.35s-.51-.11-.82-.11h-.968v-.705h3.858v.035q.39.225.69.48c.2.17.38.36.55.54s.35.39.52.63c.17.23.36.5.57.82l1.35 2.22c.5.75-.06 1.73-.96 1.73" clip-rule="evenodd"/><path fill="url(#f2188id1b)" fill-rule="evenodd" d="M19.738 23.085c-.41 0-.78-.22-.99-.57l-1.91-3.22c-.21-.35-.41-.65-.61-.89c-.2-.25-.4-.45-.61-.61s-.43-.27-.67-.35s-.51-.11-.82-.11h-.968v-.705h3.858v.035q.39.225.69.48c.2.17.38.36.55.54s.35.39.52.63c.17.23.36.5.57.82l1.35 2.22c.5.75-.06 1.73-.96 1.73" clip-rule="evenodd"/><path fill="#6F56BA" fill-rule="evenodd" d="M17.018 16.66v-.035c.5-.12.94-.3 1.33-.53c.39-.24.73-.51 1.01-.84s.49-.7.64-1.12s.23-.88.23-1.38c0-.65-.12-1.2-.36-1.68c-.23-.48-.57-.88-.99-1.2s-.92-.56-1.49-.72s-1.19-.24-1.87-.24h-.286v1.92c.798.01 1.398.2 1.826.57q.66.57.66 1.59c0 .38-.06.72-.19 1.02c-.12.3-.3.56-.53.77q-.345.315-.81.48q-.437.158-.956.17v1.225z" clip-rule="evenodd"/><path fill="url(#f2188idj)" fill-rule="evenodd" d="M17.018 16.66v-.035c.5-.12.94-.3 1.33-.53c.39-.24.73-.51 1.01-.84s.49-.7.64-1.12s.23-.88.23-1.38c0-.65-.12-1.2-.36-1.68c-.23-.48-.57-.88-.99-1.2s-.92-.56-1.49-.72s-1.19-.24-1.87-.24h-.286v1.92c.798.01 1.398.2 1.826.57q.66.57.66 1.59c0 .38-.06.72-.19 1.02c-.12.3-.3.56-.53.77q-.345.315-.81.48q-.437.158-.956.17v1.225z" clip-rule="evenodd"/><path fill="url(#f2188id1c)" fill-rule="evenodd" d="M17.018 16.66v-.035c.5-.12.94-.3 1.33-.53c.39-.24.73-.51 1.01-.84s.49-.7.64-1.12s.23-.88.23-1.38c0-.65-.12-1.2-.36-1.68c-.23-.48-.57-.88-.99-1.2s-.92-.56-1.49-.72s-1.19-.24-1.87-.24h-.286v1.92c.798.01 1.398.2 1.826.57q.66.57.66 1.59c0 .38-.06.72-.19 1.02c-.12.3-.3.56-.53.77q-.345.315-.81.48q-.437.158-.956.17v1.225z" clip-rule="evenodd"/><path fill="url(#f2188idk)" fill-rule="evenodd" d="M17.018 16.66v-.035c.5-.12.94-.3 1.33-.53c.39-.24.73-.51 1.01-.84s.49-.7.64-1.12s.23-.88.23-1.38c0-.65-.12-1.2-.36-1.68c-.23-.48-.57-.88-.99-1.2s-.92-.56-1.49-.72s-1.19-.24-1.87-.24h-.286v1.92c.798.01 1.398.2 1.826.57q.66.57.66 1.59c0 .38-.06.72-.19 1.02c-.12.3-.3.56-.53.77q-.345.315-.81.48q-.437.158-.956.17v1.225z" clip-rule="evenodd"/><path fill="url(#f2188idl)" fill-rule="evenodd" d="M17.018 16.66v-.035c.5-.12.94-.3 1.33-.53c.39-.24.73-.51 1.01-.84s.49-.7.64-1.12s.23-.88.23-1.38c0-.65-.12-1.2-.36-1.68c-.23-.48-.57-.88-.99-1.2s-.92-.56-1.49-.72s-1.19-.24-1.87-.24h-.286v1.92c.798.01 1.398.2 1.826.57q.66.57.66 1.59c0 .38-.06.72-.19 1.02c-.12.3-.3.56-.53.77q-.345.315-.81.48q-.437.158-.956.17v1.225z" clip-rule="evenodd"/><path fill="url(#f2188idm)" fill-rule="evenodd" d="M17.018 16.66v-.035c.5-.12.94-.3 1.33-.53c.39-.24.73-.51 1.01-.84s.49-.7.64-1.12s.23-.88.23-1.38c0-.65-.12-1.2-.36-1.68c-.23-.48-.57-.88-.99-1.2s-.92-.56-1.49-.72s-1.19-.24-1.87-.24h-.286v1.92c.798.01 1.398.2 1.826.57q.66.57.66 1.59c0 .38-.06.72-.19 1.02c-.12.3-.3.56-.53.77q-.345.315-.81.48q-.437.158-.956.17v1.225z" clip-rule="evenodd"/><path fill="url(#f2188idn)" fill-rule="evenodd" d="M17.018 16.66v-.035c.5-.12.94-.3 1.33-.53c.39-.24.73-.51 1.01-.84s.49-.7.64-1.12s.23-.88.23-1.38c0-.65-.12-1.2-.36-1.68c-.23-.48-.57-.88-.99-1.2s-.92-.56-1.49-.72s-1.19-.24-1.87-.24h-.286v1.92c.798.01 1.398.2 1.826.57q.66.57.66 1.59c0 .38-.06.72-.19 1.02c-.12.3-.3.56-.53.77q-.345.315-.81.48q-.437.158-.956.17v1.225z" clip-rule="evenodd"/><path fill="url(#f2188ido)" fill-rule="evenodd" d="M17.018 16.66v-.035c.5-.12.94-.3 1.33-.53c.39-.24.73-.51 1.01-.84s.49-.7.64-1.12s.23-.88.23-1.38c0-.65-.12-1.2-.36-1.68c-.23-.48-.57-.88-.99-1.2s-.92-.56-1.49-.72s-1.19-.24-1.87-.24h-.286v1.92c.798.01 1.398.2 1.826.57q.66.57.66 1.59c0 .38-.06.72-.19 1.02c-.12.3-.3.56-.53.77q-.345.315-.81.48q-.437.158-.956.17v1.225z" clip-rule="evenodd"/><path fill="url(#f2188id1d)" fill-rule="evenodd" d="M17.018 16.66v-.035c.5-.12.94-.3 1.33-.53c.39-.24.73-.51 1.01-.84s.49-.7.64-1.12s.23-.88.23-1.38c0-.65-.12-1.2-.36-1.68c-.23-.48-.57-.88-.99-1.2s-.92-.56-1.49-.72s-1.19-.24-1.87-.24h-.286v1.92c.798.01 1.398.2 1.826.57q.66.57.66 1.59c0 .38-.06.72-.19 1.02c-.12.3-.3.56-.53.77q-.345.315-.81.48q-.437.158-.956.17v1.225z" clip-rule="evenodd"/><path fill="url(#f2188idp)" fill-rule="evenodd" d="M16.06 16.653v-1.346a3 3 0 0 1-.892.128h-1.996v1.218z" clip-rule="evenodd"/><path fill="url(#f2188id1e)" fill-rule="evenodd" d="M16.06 16.653v-1.346a3 3 0 0 1-.892.128h-1.996v1.218z" clip-rule="evenodd"/><path fill="url(#f2188idq)" d="M18.748 22.515c.21.35.58.57.99.57c.9 0 1.46-.98.96-1.73l-1.35-2.22c-.21-.32-.4-.59-.57-.82a6 6 0 0 0-.52-.63c-.17-.18-.35-.37-.55-.54q-.3-.255-.69-.48v-.04c.5-.12.94-.3 1.33-.53c.39-.24.73-.51 1.01-.84s.49-.7.64-1.12s.23-.88.23-1.38c0-.65-.12-1.2-.36-1.68c-.23-.48-.57-.88-.99-1.2s-.92-.56-1.49-.72s-1.19-.24-1.87-.24h-3.89c-.52.03-.84.23-.87.87v12.09c0 .67.54 1.2 1.2 1.2c.67 0 1.2-.54 1.2-1.2v-4.54h.97c.31 0 .58.03.82.11s.46.19.67.35s.41.36.61.61c.2.24.4.54.61.89zm-5.58-7.08v-4.6h2c.83 0 1.45.19 1.89.57q.66.57.66 1.59c0 .38-.06.72-.19 1.02c-.12.3-.3.56-.53.77q-.345.315-.81.48c-.31.11-.65.17-1.02.17z"/><path fill="url(#f2188idr)" d="M18.748 22.515c.21.35.58.57.99.57c.9 0 1.46-.98.96-1.73l-1.35-2.22c-.21-.32-.4-.59-.57-.82a6 6 0 0 0-.52-.63c-.17-.18-.35-.37-.55-.54q-.3-.255-.69-.48v-.04c.5-.12.94-.3 1.33-.53c.39-.24.73-.51 1.01-.84s.49-.7.64-1.12s.23-.88.23-1.38c0-.65-.12-1.2-.36-1.68c-.23-.48-.57-.88-.99-1.2s-.92-.56-1.49-.72s-1.19-.24-1.87-.24h-3.89c-.52.03-.84.23-.87.87v12.09c0 .67.54 1.2 1.2 1.2c.67 0 1.2-.54 1.2-1.2v-4.54h.97c.31 0 .58.03.82.11s.46.19.67.35s.41.36.61.61c.2.24.4.54.61.89zm-5.58-7.08v-4.6h2c.83 0 1.45.19 1.89.57q.66.57.66 1.59c0 .38-.06.72-.19 1.02c-.12.3-.3.56-.53.77q-.345.315-.81.48c-.31.11-.65.17-1.02.17z"/><path fill="url(#f2188ids)" d="M18.748 22.515c.21.35.58.57.99.57c.9 0 1.46-.98.96-1.73l-1.35-2.22c-.21-.32-.4-.59-.57-.82a6 6 0 0 0-.52-.63c-.17-.18-.35-.37-.55-.54q-.3-.255-.69-.48v-.04c.5-.12.94-.3 1.33-.53c.39-.24.73-.51 1.01-.84s.49-.7.64-1.12s.23-.88.23-1.38c0-.65-.12-1.2-.36-1.68c-.23-.48-.57-.88-.99-1.2s-.92-.56-1.49-.72s-1.19-.24-1.87-.24h-3.89c-.52.03-.84.23-.87.87v12.09c0 .67.54 1.2 1.2 1.2c.67 0 1.2-.54 1.2-1.2v-4.54h.97c.31 0 .58.03.82.11s.46.19.67.35s.41.36.61.61c.2.24.4.54.61.89zm-5.58-7.08v-4.6h2c.83 0 1.45.19 1.89.57q.66.57.66 1.59c0 .38-.06.72-.19 1.02c-.12.3-.3.56-.53.77q-.345.315-.81.48c-.31.11-.65.17-1.02.17z"/><path fill="url(#f2188idt)" d="M18.748 22.515c.21.35.58.57.99.57c.9 0 1.46-.98.96-1.73l-1.35-2.22c-.21-.32-.4-.59-.57-.82a6 6 0 0 0-.52-.63c-.17-.18-.35-.37-.55-.54q-.3-.255-.69-.48v-.04c.5-.12.94-.3 1.33-.53c.39-.24.73-.51 1.01-.84s.49-.7.64-1.12s.23-.88.23-1.38c0-.65-.12-1.2-.36-1.68c-.23-.48-.57-.88-.99-1.2s-.92-.56-1.49-.72s-1.19-.24-1.87-.24h-3.89c-.52.03-.84.23-.87.87v12.09c0 .67.54 1.2 1.2 1.2c.67 0 1.2-.54 1.2-1.2v-4.54h.97c.31 0 .58.03.82.11s.46.19.67.35s.41.36.61.61c.2.24.4.54.61.89zm-5.58-7.08v-4.6h2c.83 0 1.45.19 1.89.57q.66.57.66 1.59c0 .38-.06.72-.19 1.02c-.12.3-.3.56-.53.77q-.345.315-.81.48c-.31.11-.65.17-1.02.17z"/><path fill="url(#f2188idu)" d="M18.748 22.515c.21.35.58.57.99.57c.9 0 1.46-.98.96-1.73l-1.35-2.22c-.21-.32-.4-.59-.57-.82a6 6 0 0 0-.52-.63c-.17-.18-.35-.37-.55-.54q-.3-.255-.69-.48v-.04c.5-.12.94-.3 1.33-.53c.39-.24.73-.51 1.01-.84s.49-.7.64-1.12s.23-.88.23-1.38c0-.65-.12-1.2-.36-1.68c-.23-.48-.57-.88-.99-1.2s-.92-.56-1.49-.72s-1.19-.24-1.87-.24h-3.89c-.52.03-.84.23-.87.87v12.09c0 .67.54 1.2 1.2 1.2c.67 0 1.2-.54 1.2-1.2v-4.54h.97c.31 0 .58.03.82.11s.46.19.67.35s.41.36.61.61c.2.24.4.54.61.89zm-5.58-7.08v-4.6h2c.83 0 1.45.19 1.89.57q.66.57.66 1.59c0 .38-.06.72-.19 1.02c-.12.3-.3.56-.53.77q-.345.315-.81.48c-.31.11-.65.17-1.02.17z"/><path fill="url(#f2188idv)" d="M18.748 22.515c.21.35.58.57.99.57c.9 0 1.46-.98.96-1.73l-1.35-2.22c-.21-.32-.4-.59-.57-.82a6 6 0 0 0-.52-.63c-.17-.18-.35-.37-.55-.54q-.3-.255-.69-.48v-.04c.5-.12.94-.3 1.33-.53c.39-.24.73-.51 1.01-.84s.49-.7.64-1.12s.23-.88.23-1.38c0-.65-.12-1.2-.36-1.68c-.23-.48-.57-.88-.99-1.2s-.92-.56-1.49-.72s-1.19-.24-1.87-.24h-3.89c-.52.03-.84.23-.87.87v12.09c0 .67.54 1.2 1.2 1.2c.67 0 1.2-.54 1.2-1.2v-4.54h.97c.31 0 .58.03.82.11s.46.19.67.35s.41.36.61.61c.2.24.4.54.61.89zm-5.58-7.08v-4.6h2c.83 0 1.45.19 1.89.57q.66.57.66 1.59c0 .38-.06.72-.19 1.02c-.12.3-.3.56-.53.77q-.345.315-.81.48c-.31.11-.65.17-1.02.17z"/><path fill="url(#f2188idw)" d="M18.748 22.515c.21.35.58.57.99.57c.9 0 1.46-.98.96-1.73l-1.35-2.22c-.21-.32-.4-.59-.57-.82a6 6 0 0 0-.52-.63c-.17-.18-.35-.37-.55-.54q-.3-.255-.69-.48v-.04c.5-.12.94-.3 1.33-.53c.39-.24.73-.51 1.01-.84s.49-.7.64-1.12s.23-.88.23-1.38c0-.65-.12-1.2-.36-1.68c-.23-.48-.57-.88-.99-1.2s-.92-.56-1.49-.72s-1.19-.24-1.87-.24h-3.89c-.52.03-.84.23-.87.87v12.09c0 .67.54 1.2 1.2 1.2c.67 0 1.2-.54 1.2-1.2v-4.54h.97c.31 0 .58.03.82.11s.46.19.67.35s.41.36.61.61c.2.24.4.54.61.89zm-5.58-7.08v-4.6h2c.83 0 1.45.19 1.89.57q.66.57.66 1.59c0 .38-.06.72-.19 1.02c-.12.3-.3.56-.53.77q-.345.315-.81.48c-.31.11-.65.17-1.02.17z"/><path fill="url(#f2188idx)" d="M18.748 22.515c.21.35.58.57.99.57c.9 0 1.46-.98.96-1.73l-1.35-2.22c-.21-.32-.4-.59-.57-.82a6 6 0 0 0-.52-.63c-.17-.18-.35-.37-.55-.54q-.3-.255-.69-.48v-.04c.5-.12.94-.3 1.33-.53c.39-.24.73-.51 1.01-.84s.49-.7.64-1.12s.23-.88.23-1.38c0-.65-.12-1.2-.36-1.68c-.23-.48-.57-.88-.99-1.2s-.92-.56-1.49-.72s-1.19-.24-1.87-.24h-3.89c-.52.03-.84.23-.87.87v12.09c0 .67.54 1.2 1.2 1.2c.67 0 1.2-.54 1.2-1.2v-4.54h.97c.31 0 .58.03.82.11s.46.19.67.35s.41.36.61.61c.2.24.4.54.61.89zm-5.58-7.08v-4.6h2c.83 0 1.45.19 1.89.57q.66.57.66 1.59c0 .38-.06.72-.19 1.02c-.12.3-.3.56-.53.77q-.345.315-.81.48c-.31.11-.65.17-1.02.17z"/><path fill="url(#f2188idy)" d="M18.748 22.515c.21.35.58.57.99.57c.9 0 1.46-.98.96-1.73l-1.35-2.22c-.21-.32-.4-.59-.57-.82a6 6 0 0 0-.52-.63c-.17-.18-.35-.37-.55-.54q-.3-.255-.69-.48v-.04c.5-.12.94-.3 1.33-.53c.39-.24.73-.51 1.01-.84s.49-.7.64-1.12s.23-.88.23-1.38c0-.65-.12-1.2-.36-1.68c-.23-.48-.57-.88-.99-1.2s-.92-.56-1.49-.72s-1.19-.24-1.87-.24h-3.89c-.52.03-.84.23-.87.87v12.09c0 .67.54 1.2 1.2 1.2c.67 0 1.2-.54 1.2-1.2v-4.54h.97c.31 0 .58.03.82.11s.46.19.67.35s.41.36.61.61c.2.24.4.54.61.89zm-5.58-7.08v-4.6h2c.83 0 1.45.19 1.89.57q.66.57.66 1.59c0 .38-.06.72-.19 1.02c-.12.3-.3.56-.53.77q-.345.315-.81.48c-.31.11-.65.17-1.02.17z"/><path fill="url(#f2188idz)" d="M18.748 22.515c.21.35.58.57.99.57c.9 0 1.46-.98.96-1.73l-1.35-2.22c-.21-.32-.4-.59-.57-.82a6 6 0 0 0-.52-.63c-.17-.18-.35-.37-.55-.54q-.3-.255-.69-.48v-.04c.5-.12.94-.3 1.33-.53c.39-.24.73-.51 1.01-.84s.49-.7.64-1.12s.23-.88.23-1.38c0-.65-.12-1.2-.36-1.68c-.23-.48-.57-.88-.99-1.2s-.92-.56-1.49-.72s-1.19-.24-1.87-.24h-3.89c-.52.03-.84.23-.87.87v12.09c0 .67.54 1.2 1.2 1.2c.67 0 1.2-.54 1.2-1.2v-4.54h.97c.31 0 .58.03.82.11s.46.19.67.35s.41.36.61.61c.2.24.4.54.61.89zm-5.58-7.08v-4.6h2c.83 0 1.45.19 1.89.57q.66.57.66 1.59c0 .38-.06.72-.19 1.02c-.12.3-.3.56-.53.77q-.345.315-.81.48c-.31.11-.65.17-1.02.17z"/><path fill="url(#f2188id10)" d="M18.748 22.515c.21.35.58.57.99.57c.9 0 1.46-.98.96-1.73l-1.35-2.22c-.21-.32-.4-.59-.57-.82a6 6 0 0 0-.52-.63c-.17-.18-.35-.37-.55-.54q-.3-.255-.69-.48v-.04c.5-.12.94-.3 1.33-.53c.39-.24.73-.51 1.01-.84s.49-.7.64-1.12s.23-.88.23-1.38c0-.65-.12-1.2-.36-1.68c-.23-.48-.57-.88-.99-1.2s-.92-.56-1.49-.72s-1.19-.24-1.87-.24h-3.89c-.52.03-.84.23-.87.87v12.09c0 .67.54 1.2 1.2 1.2c.67 0 1.2-.54 1.2-1.2v-4.54h.97c.31 0 .58.03.82.11s.46.19.67.35s.41.36.61.61c.2.24.4.54.61.89zm-5.58-7.08v-4.6h2c.83 0 1.45.19 1.89.57q.66.57.66 1.59c0 .38-.06.72-.19 1.02c-.12.3-.3.56-.53.77q-.345.315-.81.48c-.31.11-.65.17-1.02.17z"/><path fill="url(#f2188id11)" d="M18.748 22.515c.21.35.58.57.99.57c.9 0 1.46-.98.96-1.73l-1.35-2.22c-.21-.32-.4-.59-.57-.82a6 6 0 0 0-.52-.63c-.17-.18-.35-.37-.55-.54q-.3-.255-.69-.48v-.04c.5-.12.94-.3 1.33-.53c.39-.24.73-.51 1.01-.84s.49-.7.64-1.12s.23-.88.23-1.38c0-.65-.12-1.2-.36-1.68c-.23-.48-.57-.88-.99-1.2s-.92-.56-1.49-.72s-1.19-.24-1.87-.24h-3.89c-.52.03-.84.23-.87.87v12.09c0 .67.54 1.2 1.2 1.2c.67 0 1.2-.54 1.2-1.2v-4.54h.97c.31 0 .58.03.82.11s.46.19.67.35s.41.36.61.61c.2.24.4.54.61.89zm-5.58-7.08v-4.6h2c.83 0 1.45.19 1.89.57q.66.57.66 1.59c0 .38-.06.72-.19 1.02c-.12.3-.3.56-.53.77q-.345.315-.81.48c-.31.11-.65.17-1.02.17z"/><path fill="url(#f2188id12)" d="M18.748 22.515c.21.35.58.57.99.57c.9 0 1.46-.98.96-1.73l-1.35-2.22c-.21-.32-.4-.59-.57-.82a6 6 0 0 0-.52-.63c-.17-.18-.35-.37-.55-.54q-.3-.255-.69-.48v-.04c.5-.12.94-.3 1.33-.53c.39-.24.73-.51 1.01-.84s.49-.7.64-1.12s.23-.88.23-1.38c0-.65-.12-1.2-.36-1.68c-.23-.48-.57-.88-.99-1.2s-.92-.56-1.49-.72s-1.19-.24-1.87-.24h-3.89c-.52.03-.84.23-.87.87v12.09c0 .67.54 1.2 1.2 1.2c.67 0 1.2-.54 1.2-1.2v-4.54h.97c.31 0 .58.03.82.11s.46.19.67.35s.41.36.61.61c.2.24.4.54.61.89zm-5.58-7.08v-4.6h2c.83 0 1.45.19 1.89.57q.66.57.66 1.59c0 .38-.06.72-.19 1.02c-.12.3-.3.56-.53.77q-.345.315-.81.48c-.31.11-.65.17-1.02.17z"/><path fill="url(#f2188id13)" fill-opacity=".8" d="M18.748 22.515c.21.35.58.57.99.57c.9 0 1.46-.98.96-1.73l-1.35-2.22c-.21-.32-.4-.59-.57-.82a6 6 0 0 0-.52-.63c-.17-.18-.35-.37-.55-.54q-.3-.255-.69-.48v-.04c.5-.12.94-.3 1.33-.53c.39-.24.73-.51 1.01-.84s.49-.7.64-1.12s.23-.88.23-1.38c0-.65-.12-1.2-.36-1.68c-.23-.48-.57-.88-.99-1.2s-.92-.56-1.49-.72s-1.19-.24-1.87-.24h-3.89c-.52.03-.84.23-.87.87v12.09c0 .67.54 1.2 1.2 1.2c.67 0 1.2-.54 1.2-1.2v-4.54h.97c.31 0 .58.03.82.11s.46.19.67.35s.41.36.61.61c.2.24.4.54.61.89zm-5.58-7.08v-4.6h2c.83 0 1.45.19 1.89.57q.66.57.66 1.59c0 .38-.06.72-.19 1.02c-.12.3-.3.56-.53.77q-.345.315-.81.48c-.31.11-.65.17-1.02.17z"/><path fill="url(#f2188id14)" fill-opacity=".8" d="M18.748 22.515c.21.35.58.57.99.57c.9 0 1.46-.98.96-1.73l-1.35-2.22c-.21-.32-.4-.59-.57-.82a6 6 0 0 0-.52-.63c-.17-.18-.35-.37-.55-.54q-.3-.255-.69-.48v-.04c.5-.12.94-.3 1.33-.53c.39-.24.73-.51 1.01-.84s.49-.7.64-1.12s.23-.88.23-1.38c0-.65-.12-1.2-.36-1.68c-.23-.48-.57-.88-.99-1.2s-.92-.56-1.49-.72s-1.19-.24-1.87-.24h-3.89c-.52.03-.84.23-.87.87v12.09c0 .67.54 1.2 1.2 1.2c.67 0 1.2-.54 1.2-1.2v-4.54h.97c.31 0 .58.03.82.11s.46.19.67.35s.41.36.61.61c.2.24.4.54.61.89zm-5.58-7.08v-4.6h2c.83 0 1.45.19 1.89.57q.66.57.66 1.59c0 .38-.06.72-.19 1.02c-.12.3-.3.56-.53.77q-.345.315-.81.48c-.31.11-.65.17-1.02.17z"/><path fill="url(#f2188id15)" d="M18.748 22.515c.21.35.58.57.99.57c.9 0 1.46-.98.96-1.73l-1.35-2.22c-.21-.32-.4-.59-.57-.82a6 6 0 0 0-.52-.63c-.17-.18-.35-.37-.55-.54q-.3-.255-.69-.48v-.04c.5-.12.94-.3 1.33-.53c.39-.24.73-.51 1.01-.84s.49-.7.64-1.12s.23-.88.23-1.38c0-.65-.12-1.2-.36-1.68c-.23-.48-.57-.88-.99-1.2s-.92-.56-1.49-.72s-1.19-.24-1.87-.24h-3.89c-.52.03-.84.23-.87.87v12.09c0 .67.54 1.2 1.2 1.2c.67 0 1.2-.54 1.2-1.2v-4.54h.97c.31 0 .58.03.82.11s.46.19.67.35s.41.36.61.61c.2.24.4.54.61.89zm-5.58-7.08v-4.6h2c.83 0 1.45.19 1.89.57q.66.57.66 1.59c0 .38-.06.72-.19 1.02c-.12.3-.3.56-.53.77q-.345.315-.81.48c-.31.11-.65.17-1.02.17z"/><path fill="url(#f2188id16)" fill-rule="evenodd" d="M17.018 16.66v-.035c.5-.12.94-.3 1.33-.53c.39-.24.73-.51 1.01-.84s.49-.7.64-1.12s.23-.88.23-1.38c0-.65-.12-1.2-.36-1.68c-.23-.48-.57-.88-.99-1.2s-.92-.56-1.49-.72s-1.19-.24-1.87-.24h-.286v1.92c.798.01 1.398.2 1.826.57q.66.57.66 1.59c0 .38-.06.72-.19 1.02c-.12.3-.3.56-.53.77q-.345.315-.81.48q-.437.158-.956.17v1.225z" clip-rule="evenodd"/><defs><radialGradient id="f2188id0" cx="0" cy="0" r="1" gradientTransform="matrix(-.45486 15.82406 -15.87814 -.45641 16.213 15.084)" gradientUnits="userSpaceOnUse"><stop offset=".745" stop-color="#7861C9"/><stop offset=".859" stop-color="#7861C9"/><stop offset=".899" stop-color="#924CF9"/><stop offset=".983" stop-color="#50467F"/></radialGradient><radialGradient id="f2188id1" cx="0" cy="0" r="1" gradientTransform="rotate(94.236 -.093 15.577)scale(12.4951 12.5378)" gradientUnits="userSpaceOnUse"><stop offset=".858" stop-color="#8B80C5"/><stop offset=".916" stop-color="#8A7FC3" stop-opacity="0"/></radialGradient><radialGradient id="f2188id2" cx="0" cy="0" r="1" gradientTransform="rotate(90 -.078 15.837)scale(13.3025)" gradientUnits="userSpaceOnUse"><stop offset=".828" stop-color="#60519E"/><stop offset=".867" stop-color="#60519E" stop-opacity="0"/></radialGradient><radialGradient id="f2188id3" cx="0" cy="0" r="1" gradientTransform="matrix(0 2.41006 -3.07726 0 27.158 23.738)" gradientUnits="userSpaceOnUse"><stop stop-color="#7962CA"/><stop offset=".8" stop-color="#7962CA" stop-opacity="0"/></radialGradient><radialGradient id="f2188id4" cx="0" cy="0" r="1" gradientTransform="rotate(90 -.078 15.837)scale(15.9852)" gradientUnits="userSpaceOnUse"><stop offset=".855" stop-color="#60519E" stop-opacity="0"/><stop offset=".877" stop-color="#554697"/></radialGradient><radialGradient id="f2188id5" cx="0" cy="0" r="1" gradientTransform="rotate(98.493 1.863 15.785)scale(17.1822)" gradientUnits="userSpaceOnUse"><stop offset=".843" stop-color="#60519E" stop-opacity="0"/><stop offset=".919" stop-color="#554697"/></radialGradient><radialGradient id="f2188id6" cx="0" cy="0" r="1" gradientTransform="rotate(93.996 .305 16.344)scale(11.7926)" gradientUnits="userSpaceOnUse"><stop offset=".828" stop-color="#60519E"/><stop offset=".867" stop-color="#60519E" stop-opacity="0"/></radialGradient><radialGradient id="f2188id7" cx="0" cy="0" r="1" gradientTransform="rotate(-88.354 16.269 .498)scale(15.8306 15.8847)" gradientUnits="userSpaceOnUse"><stop offset=".745" stop-color="#7861C9"/><stop offset=".859" stop-color="#7861C9"/><stop offset=".899" stop-color="#9488D2"/><stop offset=".983" stop-color="#50467F"/></radialGradient><radialGradient id="f2188id8" cx="0" cy="0" r="1" gradientTransform="rotate(-92.107 15.223 -.37)scale(12.4348 12.4774)" gradientUnits="userSpaceOnUse"><stop offset=".825" stop-color="#924CF9"/><stop offset=".892" stop-color="#924CF9" stop-opacity="0"/></radialGradient><radialGradient id="f2188id9" cx="0" cy="0" r="1" gradientTransform="rotate(-90 15.837 .078)scale(13.3025)" gradientUnits="userSpaceOnUse"><stop offset=".828" stop-color="#60519E"/><stop offset=".867" stop-color="#60519E" stop-opacity="0"/></radialGradient><radialGradient id="f2188ida" cx="0" cy="0" r="1" gradientTransform="rotate(-89.673 15.839 .081)scale(15.9894)" gradientUnits="userSpaceOnUse"><stop offset=".855" stop-color="#60519E" stop-opacity="0"/><stop offset=".877" stop-color="#554697"/></radialGradient><radialGradient id="f2188idb" cx="0" cy="0" r="1" gradientTransform="matrix(-5.09564 15.95137 -17.22916 -5.50383 18.5 16.754)" gradientUnits="userSpaceOnUse"><stop offset=".843" stop-color="#60519E" stop-opacity="0"/><stop offset=".919" stop-color="#554697"/></radialGradient><radialGradient id="f2188idc" cx="0" cy="0" r="1" gradientTransform="matrix(-1.2657 10.94717 -9.97346 -1.15312 18.635 16.515)" gradientUnits="userSpaceOnUse"><stop offset=".828" stop-color="#60519E"/><stop offset=".867" stop-color="#60519E" stop-opacity="0"/></radialGradient><radialGradient id="f2188idd" cx="0" cy="0" r="1" gradientTransform="rotate(77.605 .134 13.852)scale(1.37545)" gradientUnits="userSpaceOnUse"><stop stop-color="#924CF9"/><stop offset=".707" stop-color="#924CF9" stop-opacity="0"/></radialGradient><radialGradient id="f2188ide" cx="0" cy="0" r="1" gradientTransform="matrix(.03482 1.22574 -1.48789 .04227 14.537 10.628)" gradientUnits="userSpaceOnUse"><stop stop-color="#924CF9"/><stop offset=".707" stop-color="#924CF9" stop-opacity="0"/></radialGradient><radialGradient id="f2188idf" cx="0" cy="0" r="1" gradientTransform="matrix(0 1.04537 -1.05507 0 15.231 10.83)" gradientUnits="userSpaceOnUse"><stop stop-color="#924CF9"/><stop offset=".707" stop-color="#924CF9" stop-opacity="0"/></radialGradient><radialGradient id="f2188idg" cx="0" cy="0" r="1" gradientTransform="rotate(97.322 2.736 12.223)scale(.84906 1.33912)" gradientUnits="userSpaceOnUse"><stop stop-color="#503E8A"/><stop offset=".707" stop-color="#503E8B" stop-opacity="0"/></radialGradient><radialGradient id="f2188idh" cx="0" cy="0" r="1" gradientTransform="matrix(0 .83972 -2.01534 0 14.299 11.046)" gradientUnits="userSpaceOnUse"><stop offset=".2" stop-color="#503E8A"/><stop offset=".707" stop-color="#503E8B" stop-opacity="0"/></radialGradient><radialGradient id="f2188idi" cx="0" cy="0" r="1" gradientTransform="rotate(49.752 -5.217 20.244)scale(2.21432)" gradientUnits="userSpaceOnUse"><stop offset=".076" stop-color="#503E8A"/><stop offset=".316" stop-color="#503E8B" stop-opacity="0"/></radialGradient><radialGradient id="f2188idj" cx="0" cy="0" r="1" gradientTransform="matrix(0 -3.99569 5.52618 0 15.232 12.788)" gradientUnits="userSpaceOnUse"><stop offset=".626" stop-color="#9A90D0" stop-opacity="0"/><stop offset=".77" stop-color="#9589CC"/><stop offset=".812" stop-color="#9589CC"/><stop offset=".975" stop-color="#9A90D1" stop-opacity="0"/></radialGradient><radialGradient id="f2188idk" cx="0" cy="0" r="1" gradientTransform="matrix(1.30097 .45365 -.4971 1.42557 15.232 10.869)" gradientUnits="userSpaceOnUse"><stop stop-color="#924CF9"/><stop offset=".707" stop-color="#924CF9" stop-opacity="0"/></radialGradient><radialGradient id="f2188idl" cx="0" cy="0" r="1" gradientTransform="matrix(.5326 .84908 -.9304 .58361 16.143 10.791)" gradientUnits="userSpaceOnUse"><stop stop-color="#924CF9"/><stop offset=".707" stop-color="#924CF9" stop-opacity="0"/></radialGradient><radialGradient id="f2188idm" cx="0" cy="0" r="1" gradientTransform="matrix(-.02178 1.09637 -1.20136 -.02387 16.776 11.094)" gradientUnits="userSpaceOnUse"><stop stop-color="#924CF9"/><stop offset=".707" stop-color="#924CF9" stop-opacity="0"/></radialGradient><radialGradient id="f2188idn" cx="0" cy="0" r="1" gradientTransform="rotate(90 1.28 14.387)scale(2.63703)" gradientUnits="userSpaceOnUse"><stop offset=".811" stop-color="#46377D"/><stop offset="1" stop-color="#46377C" stop-opacity="0"/></radialGradient><radialGradient id="f2188ido" cx="0" cy="0" r="1" gradientTransform="matrix(0 4.2867 -5.68158 0 15.422 12.788)" gradientUnits="userSpaceOnUse"><stop offset=".824" stop-color="#534683" stop-opacity="0"/><stop offset="1" stop-color="#534683"/></radialGradient><radialGradient id="f2188idp" cx="0" cy="0" r="1" gradientTransform="rotate(85.868 .044 14.371)scale(5.12495 8.86617)" gradientUnits="userSpaceOnUse"><stop offset=".388" stop-color="#413673"/><stop offset=".448" stop-color="#604D9C"/><stop offset=".523" stop-color="#7162A7"/><stop offset=".592" stop-color="#786BB1"/><stop offset=".699" stop-color="#6A5AA4"/></radialGradient><radialGradient id="f2188idq" cx="0" cy="0" r="1" gradientTransform="rotate(90 -1.646 14.811)scale(1.7775)" gradientUnits="userSpaceOnUse"><stop offset=".171" stop-color="#705EB2"/><stop offset="1" stop-color="#705EB2" stop-opacity="0"/></radialGradient><radialGradient id="f2188idr" cx="0" cy="0" r="1" gradientTransform="matrix(1.52283 .01916 -.01934 1.53697 13.694 17.178)" gradientUnits="userSpaceOnUse"><stop stop-color="#924CF9"/><stop offset=".707" stop-color="#924CF9" stop-opacity="0"/></radialGradient><radialGradient id="f2188ids" cx="0" cy="0" r="1" gradientTransform="matrix(1.65338 0 0 1.66873 14.309 17.19)" gradientUnits="userSpaceOnUse"><stop stop-color="#924CF9"/><stop offset=".707" stop-color="#924CF9" stop-opacity="0"/></radialGradient><radialGradient id="f2188idt" cx="0" cy="0" r="1" gradientTransform="rotate(26.764 -28.493 40.322)scale(1.73462 1.75073)" gradientUnits="userSpaceOnUse"><stop stop-color="#924CF9"/><stop offset=".707" stop-color="#924CF9" stop-opacity="0"/></radialGradient><radialGradient id="f2188idu" cx="0" cy="0" r="1" gradientTransform="rotate(57.825 -5.908 24.157)scale(1.02524 1.45126)" gradientUnits="userSpaceOnUse"><stop stop-color="#924CF9"/><stop offset=".707" stop-color="#924CF9" stop-opacity="0"/></radialGradient><radialGradient id="f2188idv" cx="0" cy="0" r="1" gradientTransform="rotate(108.286 3.584 14.684)scale(1.34121 1.89853)" gradientUnits="userSpaceOnUse"><stop stop-color="#924CF9"/><stop offset=".707" stop-color="#924CF9" stop-opacity="0"/></radialGradient><radialGradient id="f2188idw" cx="0" cy="0" r="1" gradientTransform="rotate(104.704 3.895 15.153)scale(1.2583 1.78117)" gradientUnits="userSpaceOnUse"><stop stop-color="#924CF9"/><stop offset=".707" stop-color="#924CF9" stop-opacity="0"/></radialGradient><radialGradient id="f2188idx" cx="0" cy="0" r="1" gradientTransform="matrix(.00946 1.08319 -1.33929 .0117 13.909 17.806)" gradientUnits="userSpaceOnUse"><stop offset=".158" stop-color="#46377C"/><stop offset=".707" stop-color="#46377C" stop-opacity="0"/></radialGradient><radialGradient id="f2188idy" cx="0" cy="0" r="1" gradientTransform="rotate(103.303 .298 14.732)scale(1.08734 1.38193)" gradientUnits="userSpaceOnUse"><stop offset=".242" stop-color="#46377C"/><stop offset=".707" stop-color="#46377C" stop-opacity="0"/></radialGradient><radialGradient id="f2188idz" cx="0" cy="0" r="1" gradientTransform="matrix(0 36.0589 -27.706 0 16.07 -1.73)" gradientUnits="userSpaceOnUse"><stop offset=".677" stop-color="#423473" stop-opacity="0"/><stop offset=".724" stop-color="#41366A"/></radialGradient><radialGradient id="f2188id10" cx="0" cy="0" r="1" gradientTransform="matrix(.81708 .79455 -.4419 .45443 13.166 15.76)" gradientUnits="userSpaceOnUse"><stop stop-color="#958BCC"/><stop offset=".632" stop-color="#958BCC" stop-opacity="0"/></radialGradient><radialGradient id="f2188id11" cx="0" cy="0" r="1" gradientTransform="matrix(0 -.67688 2.6652 0 14.188 15.897)" gradientUnits="userSpaceOnUse"><stop stop-color="#958BCC"/><stop offset=".632" stop-color="#958BCC" stop-opacity="0"/></radialGradient><radialGradient id="f2188id12" cx="0" cy="0" r="1" gradientTransform="matrix(0 -.6328 1.87861 0 15.738 15.928)" gradientUnits="userSpaceOnUse"><stop stop-color="#958BCC"/><stop offset=".632" stop-color="#958BCC" stop-opacity="0"/></radialGradient><radialGradient id="f2188id13" cx="0" cy="0" r="1" gradientTransform="matrix(0 .8456 -1.60901 0 12.21 22.481)" gradientUnits="userSpaceOnUse"><stop offset=".096" stop-color="#9447FE"/><stop offset=".846" stop-color="#9447FE" stop-opacity="0"/></radialGradient><radialGradient id="f2188id14" cx="0" cy="0" r="1" gradientTransform="rotate(97.105 -.02 20.05)scale(1.31052 1.43477)" gradientUnits="userSpaceOnUse"><stop offset=".096" stop-color="#9447FE"/><stop offset=".846" stop-color="#9447FE" stop-opacity="0"/></radialGradient><radialGradient id="f2188id15" cx="0" cy="0" r="1" gradientTransform="rotate(90 8.915 7.163)scale(36.0589)" gradientUnits="userSpaceOnUse"><stop offset=".683" stop-color="#423473" stop-opacity="0"/><stop offset=".715" stop-color="#41366A"/></radialGradient><radialGradient id="f2188id16" cx="0" cy="0" r="1" gradientTransform="matrix(0 5.08742 -6.05132 0 15.232 12.42)" gradientUnits="userSpaceOnUse"><stop offset=".819" stop-color="#534683" stop-opacity="0"/><stop offset=".962" stop-color="#534683"/></radialGradient><linearGradient id="f2188id17" x1="9.094" x2="23.351" y1="14.515" y2="14.515" gradientUnits="userSpaceOnUse"><stop offset=".112" stop-color="#47377D"/><stop offset=".186" stop-color="#6A58AD"/><stop offset=".248" stop-color="#8979C8"/><stop offset=".258" stop-color="#8979C8"/><stop offset=".291" stop-color="#6150A0"/><stop offset="1" stop-opacity="0"/></linearGradient><linearGradient id="f2188id18" x1="15.822" x2="15.822" y1="5.491" y2="23.085" gradientUnits="userSpaceOnUse"><stop offset=".188" stop-color="#6955A7"/><stop offset=".202" stop-color="#6C58AB"/><stop offset=".215" stop-color="#8675C6"/><stop offset=".231" stop-color="#968ACD"/><stop offset=".241" stop-color="#968ACD"/><stop offset=".261" stop-color="#7A69C1"/><stop offset=".276" stop-color="#7057BA"/><stop offset=".305" stop-color="#715ABD" stop-opacity="0"/></linearGradient><linearGradient id="f2188id19" x1="8.898" x2="23.715" y1="10.903" y2="10.903" gradientUnits="userSpaceOnUse"><stop offset=".12" stop-color="#45367B"/><stop offset=".175" stop-color="#43337C" stop-opacity="0"/></linearGradient><linearGradient id="f2188id1a" x1="20.439" x2="15.224" y1="14.415" y2="14.415" gradientUnits="userSpaceOnUse"><stop offset=".51" stop-color="#534683"/><stop offset="1" stop-color="#534683" stop-opacity="0"/></linearGradient><linearGradient id="f2188id1b" x1="21.151" x2="15.777" y1="17.753" y2="21.317" gradientUnits="userSpaceOnUse"><stop offset=".321" stop-color="#6759A1"/><stop offset=".418" stop-color="#9085C9"/><stop offset=".473" stop-color="#9085C9"/><stop offset=".602" stop-color="#6B47BE"/><stop offset=".701" stop-color="#5941A0"/><stop offset="1" stop-color="#7362B5" stop-opacity="0"/></linearGradient><linearGradient id="f2188id1c" x1="17.73" x2="15.983" y1="8.915" y2="19.296" gradientUnits="userSpaceOnUse"><stop offset=".234" stop-color="#524683" stop-opacity="0"/><stop offset=".676" stop-color="#524582"/></linearGradient><linearGradient id="f2188id1d" x1="17.73" x2="17.73" y1="11.534" y2="17.107" gradientUnits="userSpaceOnUse"><stop offset=".608" stop-color="#61539F" stop-opacity="0"/><stop offset=".797" stop-color="#8378C3"/><stop offset=".926" stop-color="#7660C4"/></linearGradient><linearGradient id="f2188id1e" x1="16.7" x2="16.7" y1="12.805" y2="16.824" gradientUnits="userSpaceOnUse"><stop offset=".608" stop-color="#61539F" stop-opacity="0"/><stop offset=".797" stop-color="#8378C3"/><stop offset=".926" stop-color="#7660C4"/></linearGradient></defs></g></svg>