<svg xmlns="http://www.w3.org/2000/svg" xmlns:xlink="http://www.w3.org/1999/xlink" width="32" height="32" viewBox="0 0 32 32"><g fill="none"><g clip-path="url(#f2219id1c)"><path fill="#8248DD" d="m17.998 26.047l-3.027-8.769c-.059.216-.94.29-1.373.3L0 19.93v11.553l14.752-2.527c2.322-.306 3.126-2.074 3.246-2.91"/><path fill="url(#f2219idu)" d="m17.998 26.047l-3.027-8.769c-.059.216-.94.29-1.373.3L0 19.93v11.553l14.752-2.527c2.322-.306 3.126-2.074 3.246-2.91"/><path fill="url(#f2219idv)" d="m17.998 26.047l-3.027-8.769c-.059.216-.94.29-1.373.3L0 19.93v11.553l14.752-2.527c2.322-.306 3.126-2.074 3.246-2.91"/><path fill="url(#f2219id0)" d="m17.998 26.047l-3.027-8.769c-.059.216-.94.29-1.373.3L0 19.93v11.553l14.752-2.527c2.322-.306 3.126-2.074 3.246-2.91"/><path fill="url(#f2219idw)" d="m17.998 26.047l-3.027-8.769c-.059.216-.94.29-1.373.3L0 19.93v11.553l14.752-2.527c2.322-.306 3.126-2.074 3.246-2.91"/><path fill="url(#f2219idx)" d="m17.998 26.047l-3.027-8.769c-.059.216-.94.29-1.373.3L0 19.93v11.553l14.752-2.527c2.322-.306 3.126-2.074 3.246-2.91"/><path fill="url(#f2219id1)" d="m17.998 26.047l-3.027-8.769c-.059.216-.94.29-1.373.3L0 19.93v11.553l14.752-2.527c2.322-.306 3.126-2.074 3.246-2.91"/><path fill="url(#f2219id2)" d="m17.998 26.047l-3.027-8.769c-.059.216-.94.29-1.373.3L0 19.93v11.553l14.752-2.527c2.322-.306 3.126-2.074 3.246-2.91"/><path fill="url(#f2219id3)" d="m17.998 26.047l-3.027-8.769c-.059.216-.94.29-1.373.3L0 19.93v11.553l14.752-2.527c2.322-.306 3.126-2.074 3.246-2.91"/><path fill="url(#f2219idy)" d="m17.998 26.047l-3.027-8.769c-.059.216-.94.29-1.373.3L0 19.93v11.553l14.752-2.527c2.322-.306 3.126-2.074 3.246-2.91"/><path fill="url(#f2219id4)" d="m17.998 26.047l-3.027-8.769c-.059.216-.94.29-1.373.3L0 19.93v11.553l14.752-2.527c2.322-.306 3.126-2.074 3.246-2.91"/><path fill="url(#f2219id5)" d="m17.998 26.047l-3.027-8.769c-.059.216-.94.29-1.373.3L0 19.93v11.553l14.752-2.527c2.322-.306 3.126-2.074 3.246-2.91"/><path fill="url(#f2219idz)" d="m17.998 26.047l-3.027-8.769c-.059.216-.94.29-1.373.3L0 19.93v11.553l14.752-2.527c2.322-.306 3.126-2.074 3.246-2.91"/><path fill="url(#f2219id6)" d="m17.998 26.047l-3.027-8.769c-.059.216-.94.29-1.373.3L0 19.93v11.553l14.752-2.527c2.322-.306 3.126-2.074 3.246-2.91"/><path fill="url(#f2219id7)" d="m17.998 26.047l-3.027-8.769c-.059.216-.94.29-1.373.3L0 19.93v11.553l14.752-2.527c2.322-.306 3.126-2.074 3.246-2.91"/><path fill="url(#f2219id10)" d="M17.537 26.225c.865-.173 1.417-.37 1.584-.447c-2.339-3.984-6.979-11.862-6.829-11.512c.188.437 1.016 2 1.383 2.718c.367.72.36 1.602.36 1.758s-.29.68-.36 1.008c-.07.078-.633.625-.797 1.828c-.131.963-.099 1.622-.066 1.832c.094 1.241.6 1.906 1.021 2.384c.734.834 1.871.87 2.136.828c.138-.022.486-.182 1.568-.397"/><path fill="#FFDB3B" d="M24.078 21.687c-1.05 2.271-3.92 3.744-5.223 4.196c-.56.18-2.16.195-4.087-1.184c-2.408-1.723-1.134-4.65-1.067-4.96s.31-.93.343-1.113c.034-.184-.1-.954-.285-1.44c-.147-.388-.63-1.311-.853-1.724l2.829-3.332l9.772-.255c.026 1.097.063 3.58 0 4.74v.011c-.078 1.442-.12 2.229-1.43 5.06"/><path fill="url(#f2219id11)" d="M24.078 21.687c-1.05 2.271-3.92 3.744-5.223 4.196c-.56.18-2.16.195-4.087-1.184c-2.408-1.723-1.134-4.65-1.067-4.96s.31-.93.343-1.113c.034-.184-.1-.954-.285-1.44c-.147-.388-.63-1.311-.853-1.724l2.829-3.332l9.772-.255c.026 1.097.063 3.58 0 4.74v.011c-.078 1.442-.12 2.229-1.43 5.06"/><path fill="url(#f2219id12)" d="m25.484 11.896l.06 2.666c-1.687-.202-2.602-1.26-2.602-2.743c-.012-.255-.046-.838-.09-1.767c-.035-.742-.143-2.258-.192-2.923c.252-.083.895-.174 1.454.123c1.352.608 1.252 1.987 1.37 4.644"/><path fill="url(#f2219id8)" d="m25.484 11.896l.06 2.666c-1.687-.202-2.602-1.26-2.602-2.743c-.012-.255-.046-.838-.09-1.767c-.035-.742-.143-2.258-.192-2.923c.252-.083.895-.174 1.454.123c1.352.608 1.252 1.987 1.37 4.644"/><path fill="url(#f2219id9)" d="m25.484 11.896l.06 2.666c-1.687-.202-2.602-1.26-2.602-2.743c-.012-.255-.046-.838-.09-1.767c-.035-.742-.143-2.258-.192-2.923c.252-.083.895-.174 1.454.123c1.352.608 1.252 1.987 1.37 4.644"/><path fill="url(#f2219id13)" d="m25.484 11.896l.06 2.666c-1.687-.202-2.602-1.26-2.602-2.743c-.012-.255-.046-.838-.09-1.767c-.035-.742-.143-2.258-.192-2.923c.252-.083.895-.174 1.454.123c1.352.608 1.252 1.987 1.37 4.644"/><path fill="url(#f2219ida)" d="m25.484 11.896l.06 2.666c-1.687-.202-2.602-1.26-2.602-2.743c-.012-.255-.046-.838-.09-1.767c-.035-.742-.143-2.258-.192-2.923c.252-.083.895-.174 1.454.123c1.352.608 1.252 1.987 1.37 4.644"/><path fill="url(#f2219id14)" d="M22.905 10.705c.037 1.253.216 2.174.301 2.477c-.965-.182-2.697-.41-2.587-2.714a96 96 0 0 0-.11-2.451c-.036-.629-.136-2.46-.255-3.389c.255-.036.693-.128 1.476.383c.784.51.83 1.339.92 1.977c.091.637.21 2.15.255 3.716"/><path fill="url(#f2219idb)" d="M22.905 10.705c.037 1.253.216 2.174.301 2.477c-.965-.182-2.697-.41-2.587-2.714a96 96 0 0 0-.11-2.451c-.036-.629-.136-2.46-.255-3.389c.255-.036.693-.128 1.476.383c.784.51.83 1.339.92 1.977c.091.637.21 2.15.255 3.716"/><path fill="url(#f2219idc)" d="M22.905 10.705c.037 1.253.216 2.174.301 2.477c-.965-.182-2.697-.41-2.587-2.714a96 96 0 0 0-.11-2.451c-.036-.629-.136-2.46-.255-3.389c.255-.036.693-.128 1.476.383c.784.51.83 1.339.92 1.977c.091.637.21 2.15.255 3.716"/><path fill="url(#f2219id15)" d="M22.905 10.705c.037 1.253.216 2.174.301 2.477c-.965-.182-2.697-.41-2.587-2.714a96 96 0 0 0-.11-2.451c-.036-.629-.136-2.46-.255-3.389c.255-.036.693-.128 1.476.383c.784.51.83 1.339.92 1.977c.091.637.21 2.15.255 3.716"/><path fill="url(#f2219idd)" d="M22.905 10.705c.037 1.253.216 2.174.301 2.477c-.965-.182-2.697-.41-2.587-2.714a96 96 0 0 0-.11-2.451c-.036-.629-.136-2.46-.255-3.389c.255-.036.693-.128 1.476.383c.784.51.83 1.339.92 1.977c.091.637.21 2.15.255 3.716"/><path fill="url(#f2219id16)" d="M20.617 10.028c.062 1.683.267 1.688.377 1.974c-1.07 1.51-3.642.886-4.793.385v-7.76c.107-.716.707-2.1 2.245-1.895c1.923.255 1.88 2.214 1.958 3.315s.165 2.864.212 3.98"/><path fill="url(#f2219ide)" d="M20.617 10.028c.062 1.683.267 1.688.377 1.974c-1.07 1.51-3.642.886-4.793.385v-7.76c.107-.716.707-2.1 2.245-1.895c1.923.255 1.88 2.214 1.958 3.315s.165 2.864.212 3.98"/><path fill="url(#f2219idf)" d="M20.617 10.028c.062 1.683.267 1.688.377 1.974c-1.07 1.51-3.642.886-4.793.385v-7.76c.107-.716.707-2.1 2.245-1.895c1.923.255 1.88 2.214 1.958 3.315s.165 2.864.212 3.98"/><path fill="url(#f2219id17)" d="M20.617 10.028c.062 1.683.267 1.688.377 1.974c-1.07 1.51-3.642.886-4.793.385v-7.76c.107-.716.707-2.1 2.245-1.895c1.923.255 1.88 2.214 1.958 3.315s.165 2.864.212 3.98"/><path fill="url(#f2219idg)" d="M20.617 10.028c.062 1.683.267 1.688.377 1.974c-1.07 1.51-3.642.886-4.793.385v-7.76c.107-.716.707-2.1 2.245-1.895c1.923.255 1.88 2.214 1.958 3.315s.165 2.864.212 3.98"/><path fill="url(#f2219id18)" d="M18.584 10.228c.216 1.956.585 2.715.743 2.85c-.198 1.232-.184 4.19-.743 4.61c-.966.726-2.705-1.725-3.446-2.076l-.417-3.03c-.203-1.63-.626-5.025-.698-5.575c-.09-.686.135-2.398 1.824-2.455s2.174 1.374 2.264 1.949l.003.02c.09.57.203 1.291.47 3.707"/><path fill="url(#f2219idh)" d="M18.584 10.228c.216 1.956.585 2.715.743 2.85c-.198 1.232-.184 4.19-.743 4.61c-.966.726-2.705-1.725-3.446-2.076l-.417-3.03c-.203-1.63-.626-5.025-.698-5.575c-.09-.686.135-2.398 1.824-2.455s2.174 1.374 2.264 1.949l.003.02c.09.57.203 1.291.47 3.707"/><path fill="url(#f2219idi)" d="M18.584 10.228c.216 1.956.585 2.715.743 2.85c-.198 1.232-.184 4.19-.743 4.61c-.966.726-2.705-1.725-3.446-2.076l-.417-3.03c-.203-1.63-.626-5.025-.698-5.575c-.09-.686.135-2.398 1.824-2.455s2.174 1.374 2.264 1.949l.003.02c.09.57.203 1.291.47 3.707"/><path fill="url(#f2219id19)" d="M18.584 10.228c.216 1.956.585 2.715.743 2.85c-.198 1.232-.184 4.19-.743 4.61c-.966.726-2.705-1.725-3.446-2.076l-.417-3.03c-.203-1.63-.626-5.025-.698-5.575c-.09-.686.135-2.398 1.824-2.455s2.174 1.374 2.264 1.949l.003.02c.09.57.203 1.291.47 3.707"/><path fill="#FFC640" d="M16.996 13.928c.817 1.407 1.592 2.091 1.877 2.257c.088.05 1.863 2.455-1.212 5.876c-1.669 1.469-4.85 3.505-4.279-1.24c.062-.517.56-1.798.658-2.18c.03-.317-.146-.993-.255-1.29c-.234-.764-.681-1.413-1.445-2.94c-.764-1.529.047-3.223 1.684-3.13c1.637.094 1.95.888 2.972 2.647"/><path fill="url(#f2219id1a)" d="M16.996 13.928c.817 1.407 1.592 2.091 1.877 2.257c.088.05 1.863 2.455-1.212 5.876c-1.669 1.469-4.85 3.505-4.279-1.24c.062-.517.56-1.798.658-2.18c.03-.317-.146-.993-.255-1.29c-.234-.764-.681-1.413-1.445-2.94c-.764-1.529.047-3.223 1.684-3.13c1.637.094 1.95.888 2.972 2.647"/><path fill="url(#f2219idj)" d="M16.996 13.928c.817 1.407 1.592 2.091 1.877 2.257c.088.05 1.863 2.455-1.212 5.876c-1.669 1.469-4.85 3.505-4.279-1.24c.062-.517.56-1.798.658-2.18c.03-.317-.146-.993-.255-1.29c-.234-.764-.681-1.413-1.445-2.94c-.764-1.529.047-3.223 1.684-3.13c1.637.094 1.95.888 2.972 2.647"/><path fill="url(#f2219idk)" d="M16.996 13.928c.817 1.407 1.592 2.091 1.877 2.257c.088.05 1.863 2.455-1.212 5.876c-1.669 1.469-4.85 3.505-4.279-1.24c.062-.517.56-1.798.658-2.18c.03-.317-.146-.993-.255-1.29c-.234-.764-.681-1.413-1.445-2.94c-.764-1.529.047-3.223 1.684-3.13c1.637.094 1.95.888 2.972 2.647"/><path fill="url(#f2219idl)" d="M16.996 13.928c.817 1.407 1.592 2.091 1.877 2.257c.088.05 1.863 2.455-1.212 5.876c-1.669 1.469-4.85 3.505-4.279-1.24c.062-.517.56-1.798.658-2.18c.03-.317-.146-.993-.255-1.29c-.234-.764-.681-1.413-1.445-2.94c-.764-1.529.047-3.223 1.684-3.13c1.637.094 1.95.888 2.972 2.647"/><path fill="url(#f2219idm)" d="M16.996 13.928c.817 1.407 1.592 2.091 1.877 2.257c.088.05 1.863 2.455-1.212 5.876c-1.669 1.469-4.85 3.505-4.279-1.24c.062-.517.56-1.798.658-2.18c.03-.317-.146-.993-.255-1.29c-.234-.764-.681-1.413-1.445-2.94c-.764-1.529.047-3.223 1.684-3.13c1.637.094 1.95.888 2.972 2.647"/><path fill="url(#f2219idn)" d="M16.996 13.928c.817 1.407 1.592 2.091 1.877 2.257c.088.05 1.863 2.455-1.212 5.876c-1.669 1.469-4.85 3.505-4.279-1.24c.062-.517.56-1.798.658-2.18c.03-.317-.146-.993-.255-1.29c-.234-.764-.681-1.413-1.445-2.94c-.764-1.529.047-3.223 1.684-3.13c1.637.094 1.95.888 2.972 2.647"/><path fill="url(#f2219id1b)" d="M16.996 13.928c.817 1.407 1.592 2.091 1.877 2.257c.088.05 1.863 2.455-1.212 5.876c-1.669 1.469-4.85 3.505-4.279-1.24c.062-.517.56-1.798.658-2.18c.03-.317-.146-.993-.255-1.29c-.234-.764-.681-1.413-1.445-2.94c-.764-1.529.047-3.223 1.684-3.13c1.637.094 1.95.888 2.972 2.647"/><path fill="url(#f2219ido)" d="M16.996 13.928c.817 1.407 1.592 2.091 1.877 2.257c.088.05 1.863 2.455-1.212 5.876c-1.669 1.469-4.85 3.505-4.279-1.24c.062-.517.56-1.798.658-2.18c.03-.317-.146-.993-.255-1.29c-.234-.764-.681-1.413-1.445-2.94c-.764-1.529.047-3.223 1.684-3.13c1.637.094 1.95.888 2.972 2.647"/><path fill="url(#f2219idp)" d="m15.87 12.126l9.637-.25c.026 1.096.063 3.58 0 4.739v.011c-.078 1.442-.12 2.229-1.43 5.06c-1.049 2.273-3.918 3.745-5.222 4.198c-.56.18-2.16.194-4.087-1.185c-1.46-1.044-1.566-2.532-1.409-3.61q.009-.13.024-.268c.034-.329.245-.941.423-1.457c.103-.298.194-.564.234-.724l.005-.022c.029-.197-.104-.953-.286-1.432c-.147-.388-.63-1.31-.853-1.724l.009-.01c-.17-.314-.361-.673-.574-1.099c-.764-1.528.046-3.165 1.684-3.071c.906.052 1.406.318 1.846.844"/><path fill="url(#f2219idq)" d="m15.87 12.126l9.637-.25c.026 1.096.063 3.58 0 4.739v.011c-.078 1.442-.12 2.229-1.43 5.06c-1.049 2.273-3.918 3.745-5.222 4.198c-.56.18-2.16.194-4.087-1.185c-1.46-1.044-1.566-2.532-1.409-3.61q.009-.13.024-.268c.034-.329.245-.941.423-1.457c.103-.298.194-.564.234-.724l.005-.022c.029-.197-.104-.953-.286-1.432c-.147-.388-.63-1.31-.853-1.724l.009-.01c-.17-.314-.361-.673-.574-1.099c-.764-1.528.046-3.165 1.684-3.071c.906.052 1.406.318 1.846.844"/><path fill="url(#f2219idr)" d="m15.87 12.126l9.637-.25c.026 1.096.063 3.58 0 4.739v.011c-.078 1.442-.12 2.229-1.43 5.06c-1.049 2.273-3.918 3.745-5.222 4.198c-.56.18-2.16.194-4.087-1.185c-1.46-1.044-1.566-2.532-1.409-3.61q.009-.13.024-.268c.034-.329.245-.941.423-1.457c.103-.298.194-.564.234-.724l.005-.022c.029-.197-.104-.953-.286-1.432c-.147-.388-.63-1.31-.853-1.724l.009-.01c-.17-.314-.361-.673-.574-1.099c-.764-1.528.046-3.165 1.684-3.071c.906.052 1.406.318 1.846.844"/><path fill="url(#f2219ids)" d="m15.87 12.126l9.637-.25c.026 1.096.063 3.58 0 4.739v.011c-.078 1.442-.12 2.229-1.43 5.06c-1.049 2.273-3.918 3.745-5.222 4.198c-.56.18-2.16.194-4.087-1.185c-1.46-1.044-1.566-2.532-1.409-3.61q.009-.13.024-.268c.034-.329.245-.941.423-1.457c.103-.298.194-.564.234-.724l.005-.022c.029-.197-.104-.953-.286-1.432c-.147-.388-.63-1.31-.853-1.724l.009-.01c-.17-.314-.361-.673-.574-1.099c-.764-1.528.046-3.165 1.684-3.071c.906.052 1.406.318 1.846.844"/><path fill="url(#f2219idt)" d="m15.87 12.126l9.637-.25c.026 1.096.063 3.58 0 4.739v.011c-.078 1.442-.12 2.229-1.43 5.06c-1.049 2.273-3.918 3.745-5.222 4.198c-.56.18-2.16.194-4.087-1.185c-1.46-1.044-1.566-2.532-1.409-3.61q.009-.13.024-.268c.034-.329.245-.941.423-1.457c.103-.298.194-.564.234-.724l.005-.022c.029-.197-.104-.953-.286-1.432c-.147-.388-.63-1.31-.853-1.724l.009-.01c-.17-.314-.361-.673-.574-1.099c-.764-1.528.046-3.165 1.684-3.071c.906.052 1.406.318 1.846.844"/></g><defs><radialGradient id="f2219id0" cx="0" cy="0" r="1" gradientTransform="matrix(-1.50001 10.00002 -24.1071 -3.61608 14.488 21)" gradientUnits="userSpaceOnUse"><stop offset=".294" stop-color="#8E4AE5"/><stop offset=".874" stop-color="#8E4AE5" stop-opacity="0"/></radialGradient><radialGradient id="f2219id1" cx="0" cy="0" r="1" gradientTransform="matrix(-.68767 6.50126 -6.0031 -.63498 17.668 20.942)" gradientUnits="userSpaceOnUse"><stop offset=".825" stop-color="#852DBD"/><stop offset="1" stop-color="#852DBD" stop-opacity="0"/></radialGradient><radialGradient id="f2219id2" cx="0" cy="0" r="1" gradientTransform="matrix(.53853 7.97018 -6.15248 .41571 17.088 21.648)" gradientUnits="userSpaceOnUse"><stop offset=".462" stop-color="#852AAB"/><stop offset="1" stop-color="#6F32FB" stop-opacity="0"/></radialGradient><radialGradient id="f2219id3" cx="0" cy="0" r="1" gradientTransform="matrix(16.01925 10.36522 -13.13305 20.29688 1.482 16.766)" gradientUnits="userSpaceOnUse"><stop offset=".974" stop-color="#806DD1" stop-opacity="0"/><stop offset="1" stop-color="#806DD1"/></radialGradient><radialGradient id="f2219id4" cx="0" cy="0" r="1" gradientTransform="matrix(-7.822 5.35543 -6.78547 -9.91068 16.821 26.128)" gradientUnits="userSpaceOnUse"><stop stop-color="#5C3BD1"/><stop offset="1" stop-color="#5C3BD1" stop-opacity="0"/></radialGradient><radialGradient id="f2219id5" cx="0" cy="0" r="1" gradientTransform="rotate(18.358 -64.362 4.587)scale(20.8924 11.2164)" gradientUnits="userSpaceOnUse"><stop offset=".914" stop-color="#A58FF2" stop-opacity="0"/><stop offset="1" stop-color="#A58FF2"/></radialGradient><radialGradient id="f2219id6" cx="0" cy="0" r="1" gradientTransform="matrix(.37564 6.01026 -5.0257 .3141 16.684 23.032)" gradientUnits="userSpaceOnUse"><stop offset=".02" stop-color="#7232F9" stop-opacity="0"/><stop offset=".645" stop-color="#7232F9" stop-opacity="0"/><stop offset=".705" stop-color="#7232F9"/><stop offset=".947" stop-color="#7232F9" stop-opacity="0"/></radialGradient><radialGradient id="f2219id7" cx="0" cy="0" r="1" gradientTransform="rotate(90.939 -.538 17.327)scale(8.59395 7.27784)" gradientUnits="userSpaceOnUse"><stop offset=".513" stop-color="#572685"/><stop offset="1" stop-color="#572685" stop-opacity="0"/></radialGradient><radialGradient id="f2219id8" cx="0" cy="0" r="1" gradientTransform="matrix(1.4421 -8.96427 5.94373 .95618 22.66 16.384)" gradientUnits="userSpaceOnUse"><stop offset=".92" stop-color="#F9CD40" stop-opacity="0"/><stop offset="1" stop-color="#F9CD40"/></radialGradient><radialGradient id="f2219id9" cx="0" cy="0" r="1" gradientTransform="matrix(.24459 3.88283 -.58052 .03657 22.92 11.08)" gradientUnits="userSpaceOnUse"><stop stop-color="#F39222"/><stop offset="1" stop-color="#F39222" stop-opacity="0"/></radialGradient><radialGradient id="f2219ida" cx="0" cy="0" r="1" gradientTransform="matrix(-.44235 .57699 -.4164 -.31924 24.298 8.339)" gradientUnits="userSpaceOnUse"><stop stop-color="#FFEC68"/><stop offset="1" stop-color="#FFEC68" stop-opacity="0"/></radialGradient><radialGradient id="f2219idb" cx="0" cy="0" r="1" gradientTransform="matrix(1.4758 -10.24131 6.11321 .88093 20.254 15.264)" gradientUnits="userSpaceOnUse"><stop offset=".92" stop-color="#F9CD40" stop-opacity="0"/><stop offset="1" stop-color="#F9CD40"/></radialGradient><radialGradient id="f2219idc" cx="0" cy="0" r="1" gradientTransform="matrix(.2503 4.43595 -.66999 .0378 20.52 9.204)" gradientUnits="userSpaceOnUse"><stop offset=".311" stop-color="#F29122"/><stop offset="1" stop-color="#F29122" stop-opacity="0"/></radialGradient><radialGradient id="f2219idd" cx="0" cy="0" r="1" gradientTransform="rotate(124.48 9.367 8.808)scale(.79966 .55774)" gradientUnits="userSpaceOnUse"><stop stop-color="#FFEC68"/><stop offset="1" stop-color="#FFEC68" stop-opacity="0"/></radialGradient><radialGradient id="f2219ide" cx="0" cy="0" r="1" gradientTransform="rotate(-122.448 14.717 -.748)scale(10.5643 4.46473)" gradientUnits="userSpaceOnUse"><stop offset=".837" stop-color="#BA9947" stop-opacity="0"/><stop offset="1" stop-color="#BA9947"/></radialGradient><radialGradient id="f2219idf" cx="0" cy="0" r="1" gradientTransform="matrix(.3279 5.3448 -1.09214 .067 17.979 9.337)" gradientUnits="userSpaceOnUse"><stop offset=".406" stop-color="#F29122"/><stop offset="1" stop-color="#F29122" stop-opacity="0"/></radialGradient><radialGradient id="f2219idg" cx="0" cy="0" r="1" gradientTransform="matrix(.26917 1.23816 -.92319 .2007 19.442 4.336)" gradientUnits="userSpaceOnUse"><stop stop-color="#FFEC68"/><stop offset="1" stop-color="#FFEC68" stop-opacity="0"/></radialGradient><radialGradient id="f2219idh" cx="0" cy="0" r="1" gradientTransform="matrix(-.45637 1.49075 -1.1158 -.34158 16.878 6.151)" gradientUnits="userSpaceOnUse"><stop stop-color="#FFEC68"/><stop offset="1" stop-color="#FFEC68" stop-opacity="0"/></radialGradient><radialGradient id="f2219idi" cx="0" cy="0" r="1" gradientTransform="rotate(43.773 -8.902 26.867)scale(2.82875 .8004)" gradientUnits="userSpaceOnUse"><stop stop-color="#B85227"/><stop offset="1" stop-color="#B85227" stop-opacity="0"/></radialGradient><radialGradient id="f2219idj" cx="0" cy="0" r="1" gradientTransform="matrix(-.55105 7.96632 -4.84722 -.3353 12.05 18.744)" gradientUnits="userSpaceOnUse"><stop offset=".644" stop-color="#F8A359"/><stop offset="1" stop-color="#F8A359" stop-opacity="0"/></radialGradient><radialGradient id="f2219idk" cx="0" cy="0" r="1" gradientTransform="matrix(-.43559 6.7733 -4.1213 -.26504 12.05 18.745)" gradientUnits="userSpaceOnUse"><stop offset=".644" stop-color="#E78D4E"/><stop offset="1" stop-color="#E78D4E" stop-opacity="0"/></radialGradient><radialGradient id="f2219idl" cx="0" cy="0" r="1" gradientTransform="matrix(-.73121 5.2724 -2.38869 -.33128 12.346 19.322)" gradientUnits="userSpaceOnUse"><stop offset=".644" stop-color="#C4764B"/><stop offset="1" stop-color="#C4764B" stop-opacity="0"/></radialGradient><radialGradient id="f2219idm" cx="0" cy="0" r="1" gradientTransform="matrix(2.2706 5.15695 -1.46238 .64389 16.156 13.934)" gradientUnits="userSpaceOnUse"><stop stop-color="#FFDC40"/><stop offset="1" stop-color="#FFE756" stop-opacity="0"/></radialGradient><radialGradient id="f2219idn" cx="0" cy="0" r="1" gradientTransform="rotate(46.273 -7.679 24.04)scale(3.67463 2.23588)" gradientUnits="userSpaceOnUse"><stop stop-color="#FFE756"/><stop offset="1" stop-color="#FFE756" stop-opacity="0"/></radialGradient><radialGradient id="f2219ido" cx="0" cy="0" r="1" gradientTransform="matrix(-5.33231 -3.55487 2.163 -3.24452 16.194 23.662)" gradientUnits="userSpaceOnUse"><stop stop-color="#F7956B"/><stop offset="1" stop-color="#FAA85A" stop-opacity="0"/></radialGradient><radialGradient id="f2219idp" cx="0" cy="0" r="1" gradientTransform="matrix(2.4826 1.59919 -1.46857 2.27982 13.889 23.916)" gradientUnits="userSpaceOnUse"><stop stop-color="#D37852"/><stop offset="1" stop-color="#D37852" stop-opacity="0"/></radialGradient><radialGradient id="f2219idq" cx="0" cy="0" r="1" gradientTransform="matrix(2.27111 1.71814 -1.57781 2.08561 12.783 22.297)" gradientUnits="userSpaceOnUse"><stop stop-color="#BC7936"/><stop offset="1" stop-color="#BC7936" stop-opacity="0"/></radialGradient><radialGradient id="f2219idr" cx="0" cy="0" r="1" gradientTransform="rotate(96.195 1.446 17.788)scale(4.53816 2.72633)" gradientUnits="userSpaceOnUse"><stop stop-color="#FFD436"/><stop offset="1" stop-color="#FFD436" stop-opacity="0"/></radialGradient><radialGradient id="f2219ids" cx="0" cy="0" r="1" gradientTransform="rotate(94.279 1.923 16.928)scale(2.03257 .86339)" gradientUnits="userSpaceOnUse"><stop stop-color="#FFEC68"/><stop offset="1" stop-color="#FFEC68" stop-opacity="0"/></radialGradient><radialGradient id="f2219idt" cx="0" cy="0" r="1" gradientTransform="rotate(100.784 2.727 17.412)scale(4.3393 3.98488)" gradientUnits="userSpaceOnUse"><stop stop-color="#FFE853"/><stop offset="1" stop-color="#FFE853" stop-opacity="0"/></radialGradient><linearGradient id="f2219idu" x1="8.488" x2="8.999" y1="27" y2="31.063" gradientUnits="userSpaceOnUse"><stop offset=".456" stop-color="#4D51FF"/><stop offset=".974" stop-color="#9D68FF"/><stop offset="1" stop-color="#4D51FF" stop-opacity="0"/></linearGradient><linearGradient id="f2219idv" x1="15.487" x2="12.362" y1="30.047" y2="22.991" gradientUnits="userSpaceOnUse"><stop stop-color="#5D3AD5"/><stop offset="1" stop-color="#5D3AD5" stop-opacity="0"/></linearGradient><linearGradient id="f2219idw" x1="-.562" x2="7.112" y1="27.45" y2="26.309" gradientUnits="userSpaceOnUse"><stop stop-color="#465EFF"/><stop offset="1" stop-color="#465EFF" stop-opacity="0"/></linearGradient><linearGradient id="f2219idx" x1="6.738" x2="8.55" y1="18.063" y2="30.25" gradientUnits="userSpaceOnUse"><stop offset=".052" stop-color="#A4A7FF" stop-opacity="0"/><stop offset=".313" stop-color="#A4A7FF" stop-opacity=".62"/><stop offset=".716" stop-color="#A4A7FF" stop-opacity="0"/></linearGradient><linearGradient id="f2219idy" x1="8.999" x2="8.999" y1="17.278" y2="31.483" gradientUnits="userSpaceOnUse"><stop offset=".25" stop-color="#603D8B"/><stop offset=".658" stop-color="#5736F5"/><stop offset="1" stop-color="#603D8B" stop-opacity="0"/></linearGradient><linearGradient id="f2219idz" x1="7.87" x2="8.713" y1="26.209" y2="30.964" gradientUnits="userSpaceOnUse"><stop offset=".67" stop-color="#9D6AFF" stop-opacity="0"/><stop offset=".804" stop-color="#9D6AFF"/></linearGradient><linearGradient id="f2219id10" x1="13.86" x2="15.971" y1="21.022" y2="26.633" gradientUnits="userSpaceOnUse"><stop stop-color="#A16D37"/><stop offset=".525" stop-color="#CC8034"/><stop offset=".844" stop-color="#E17A5D"/><stop offset=".932" stop-color="#E77B8A"/></linearGradient><linearGradient id="f2219id11" x1="23.777" x2="19.224" y1="13.549" y2="25.969" gradientUnits="userSpaceOnUse"><stop offset=".107" stop-color="#FFED5C"/><stop offset=".308" stop-color="#FFE54B"/><stop offset=".598" stop-color="#FFCD39"/><stop offset="1" stop-color="#F6916D"/></linearGradient><linearGradient id="f2219id12" x1="25.544" x2="21.624" y1="11.857" y2="11.857" gradientUnits="userSpaceOnUse"><stop stop-color="#FFDB54"/><stop offset=".109" stop-color="#FFE65A"/><stop offset=".333" stop-color="#FFE85C"/><stop offset=".521" stop-color="#FFD651"/><stop offset=".661" stop-color="#FFAF3A"/><stop offset=".712" stop-color="#F49321"/></linearGradient><linearGradient id="f2219id13" x1="24.863" x2="23.66" y1="12.797" y2="15.125" gradientUnits="userSpaceOnUse"><stop offset=".226" stop-color="#FFED5D" stop-opacity="0"/><stop offset=".572" stop-color="#FFED5D"/></linearGradient><linearGradient id="f2219id14" x1="23.206" x2="19.195" y1="10.091" y2="10.091" gradientUnits="userSpaceOnUse"><stop stop-color="#FFDB54"/><stop offset=".109" stop-color="#FFE65A"/><stop offset=".333" stop-color="#FFE85C"/><stop offset=".477" stop-color="#FFD651"/><stop offset=".661" stop-color="#FFAF3A"/><stop offset=".712" stop-color="#F49321"/></linearGradient><linearGradient id="f2219id15" x1="22.509" x2="21.05" y1="11.166" y2="13.695" gradientUnits="userSpaceOnUse"><stop offset=".226" stop-color="#FFED5D" stop-opacity="0"/><stop offset=".572" stop-color="#FFED5D"/></linearGradient><linearGradient id="f2219id16" x1="20.994" x2="14.48" y1="9.265" y2="9.265" gradientUnits="userSpaceOnUse"><stop stop-color="#FFDB54"/><stop offset=".109" stop-color="#FFE65A"/><stop offset=".333" stop-color="#FFE85C"/><stop offset=".477" stop-color="#FFD651"/><stop offset=".661" stop-color="#FFAF3A"/><stop offset=".712" stop-color="#F49321"/></linearGradient><linearGradient id="f2219id17" x1="19.862" x2="18.418" y1="10.546" y2="13.954" gradientUnits="userSpaceOnUse"><stop offset=".226" stop-color="#FFED5D" stop-opacity="0"/><stop offset=".572" stop-color="#FFED5D"/></linearGradient><linearGradient id="f2219id18" x1="18.474" x2="14.505" y1="9.65" y2="10.25" gradientUnits="userSpaceOnUse"><stop stop-color="#FFDC43"/><stop offset=".24" stop-color="#FFE55D"/><stop offset=".542" stop-color="#FEC448"/><stop offset=".776" stop-color="#D8A324"/><stop offset="1" stop-color="#B38B44"/></linearGradient><linearGradient id="f2219id19" x1="14.872" x2="19.099" y1="10.194" y2="13.445" gradientUnits="userSpaceOnUse"><stop offset=".789" stop-color="#FFE550" stop-opacity="0"/><stop offset="1" stop-color="#FFED5B"/></linearGradient><linearGradient id="f2219id1a" x1="13.182" x2="15.462" y1="11.278" y2="20.688" gradientUnits="userSpaceOnUse"><stop stop-color="#EEB929"/><stop offset="1" stop-color="#EEB929" stop-opacity="0"/></linearGradient><linearGradient id="f2219id1b" x1="19.462" x2="17.58" y1="18.976" y2="19.207" gradientUnits="userSpaceOnUse"><stop stop-color="#FFDB3B"/><stop offset="1" stop-color="#FFDB3B" stop-opacity="0"/></linearGradient><clipPath id="f2219id1c"><path fill="#fff" d="M0 0h32v32H0z"/></clipPath></defs></g></svg>