<svg xmlns="http://www.w3.org/2000/svg" xmlns:xlink="http://www.w3.org/1999/xlink" width="32" height="32" viewBox="0 0 32 32"><g fill="none"><path fill="url(#f2261id0)" d="M21 22.906h-4v6.5c0 .28.22.5.5.5h3c.28 0 .5-.22.5-.5z"/><path fill="url(#f2261id1)" d="M21 22.906h-4v6.5c0 .28.22.5.5.5h3c.28 0 .5-.22.5-.5z"/><path fill="url(#f2261id2)" d="M21 22.906h-4v6.5c0 .28.22.5.5.5h3c.28 0 .5-.22.5-.5z"/><path fill="url(#f2261id3)" d="M21 22.906h-4v6.5c0 .28.22.5.5.5h3c.28 0 .5-.22.5-.5z"/><path fill="url(#f2261id4)" d="M16 22.906h-4v6.5c0 .28.22.5.5.5h3c.28 0 .5-.22.5-.5z"/><path fill="url(#f2261id5)" d="M16 22.906h-4v6.5c0 .28.22.5.5.5h3c.28 0 .5-.22.5-.5z"/><path fill="url(#f2261id6)" d="M16 22.906h-4v6.5c0 .28.22.5.5.5h3c.28 0 .5-.22.5-.5z"/><path fill="url(#f2261id7)" d="M16 22.906h-4v6.5c0 .28.22.5.5.5h3c.28 0 .5-.22.5-.5z"/><path fill="url(#f2261id8)" d="M30 14.876c0-3.14-1.734-6.08-4.45-7.16a.5.5 0 0 0-.49.04s-.01 0-.01.01c-.27.2-.232.528.04.78c.992.92 2.048 2.406 2.19 4.178c.064.807-.046 1.807-.6 2.534c-.444.581-1.13.868-1.68.868c-.812 0-1.28-.558-1.75-1.048c-.66-.8-1.74-1.172-2.85-1.172H9.31c-.17 0-.357-.14-.357-.31v-9.81c0-1.04-.793-1.692-1.833-1.692H4c-1.1 0-2 .712-2 1.812s.9 2 2 2h.867c.305 0 .352.278.352.356l-.094 14.654c0 1.18.565 2.21 1.565 2.69c.39.19.6.62.5 1.05l-1.1 4.87c-.05.19.1.38.3.38H9.6c.23 0 .44-.16.49-.39l1.254-5.12c.06-.29.216-.49.506-.49h9.2c.29 0 .437.2.497.49l1.265 5.057c.05.23.25.39.49.39h3.21c.2 0 .491-.2.441-.39L25.3 22.856c-.08-.36.09-.74.42-.91c2.54-1.33 4.28-4 4.28-7.07"/><path fill="url(#f2261id9)" d="M30 14.876c0-3.14-1.734-6.08-4.45-7.16a.5.5 0 0 0-.49.04s-.01 0-.01.01c-.27.2-.232.528.04.78c.992.92 2.048 2.406 2.19 4.178c.064.807-.046 1.807-.6 2.534c-.444.581-1.13.868-1.68.868c-.812 0-1.28-.558-1.75-1.048c-.66-.8-1.74-1.172-2.85-1.172H9.31c-.17 0-.357-.14-.357-.31v-9.81c0-1.04-.793-1.692-1.833-1.692H4c-1.1 0-2 .712-2 1.812s.9 2 2 2h.867c.305 0 .352.278.352.356l-.094 14.654c0 1.18.565 2.21 1.565 2.69c.39.19.6.62.5 1.05l-1.1 4.87c-.05.19.1.38.3.38H9.6c.23 0 .44-.16.49-.39l1.254-5.12c.06-.29.216-.49.506-.49h9.2c.29 0 .437.2.497.49l1.265 5.057c.05.23.25.39.49.39h3.21c.2 0 .491-.2.441-.39L25.3 22.856c-.08-.36.09-.74.42-.91c2.54-1.33 4.28-4 4.28-7.07"/><path fill="url(#f2261ids)" d="M30 14.876c0-3.14-1.734-6.08-4.45-7.16a.5.5 0 0 0-.49.04s-.01 0-.01.01c-.27.2-.232.528.04.78c.992.92 2.048 2.406 2.19 4.178c.064.807-.046 1.807-.6 2.534c-.444.581-1.13.868-1.68.868c-.812 0-1.28-.558-1.75-1.048c-.66-.8-1.74-1.172-2.85-1.172H9.31c-.17 0-.357-.14-.357-.31v-9.81c0-1.04-.793-1.692-1.833-1.692H4c-1.1 0-2 .712-2 1.812s.9 2 2 2h.867c.305 0 .352.278.352.356l-.094 14.654c0 1.18.565 2.21 1.565 2.69c.39.19.6.62.5 1.05l-1.1 4.87c-.05.19.1.38.3.38H9.6c.23 0 .44-.16.49-.39l1.254-5.12c.06-.29.216-.49.506-.49h9.2c.29 0 .437.2.497.49l1.265 5.057c.05.23.25.39.49.39h3.21c.2 0 .491-.2.441-.39L25.3 22.856c-.08-.36.09-.74.42-.91c2.54-1.33 4.28-4 4.28-7.07"/><path fill="url(#f2261idt)" d="M30 14.876c0-3.14-1.734-6.08-4.45-7.16a.5.5 0 0 0-.49.04s-.01 0-.01.01c-.27.2-.232.528.04.78c.992.92 2.048 2.406 2.19 4.178c.064.807-.046 1.807-.6 2.534c-.444.581-1.13.868-1.68.868c-.812 0-1.28-.558-1.75-1.048c-.66-.8-1.74-1.172-2.85-1.172H9.31c-.17 0-.357-.14-.357-.31v-9.81c0-1.04-.793-1.692-1.833-1.692H4c-1.1 0-2 .712-2 1.812s.9 2 2 2h.867c.305 0 .352.278.352.356l-.094 14.654c0 1.18.565 2.21 1.565 2.69c.39.19.6.62.5 1.05l-1.1 4.87c-.05.19.1.38.3.38H9.6c.23 0 .44-.16.49-.39l1.254-5.12c.06-.29.216-.49.506-.49h9.2c.29 0 .437.2.497.49l1.265 5.057c.05.23.25.39.49.39h3.21c.2 0 .491-.2.441-.39L25.3 22.856c-.08-.36.09-.74.42-.91c2.54-1.33 4.28-4 4.28-7.07"/><path fill="url(#f2261idu)" d="M30 14.876c0-3.14-1.734-6.08-4.45-7.16a.5.5 0 0 0-.49.04s-.01 0-.01.01c-.27.2-.232.528.04.78c.992.92 2.048 2.406 2.19 4.178c.064.807-.046 1.807-.6 2.534c-.444.581-1.13.868-1.68.868c-.812 0-1.28-.558-1.75-1.048c-.66-.8-1.74-1.172-2.85-1.172H9.31c-.17 0-.357-.14-.357-.31v-9.81c0-1.04-.793-1.692-1.833-1.692H4c-1.1 0-2 .712-2 1.812s.9 2 2 2h.867c.305 0 .352.278.352.356l-.094 14.654c0 1.18.565 2.21 1.565 2.69c.39.19.6.62.5 1.05l-1.1 4.87c-.05.19.1.38.3.38H9.6c.23 0 .44-.16.49-.39l1.254-5.12c.06-.29.216-.49.506-.49h9.2c.29 0 .437.2.497.49l1.265 5.057c.05.23.25.39.49.39h3.21c.2 0 .491-.2.441-.39L25.3 22.856c-.08-.36.09-.74.42-.91c2.54-1.33 4.28-4 4.28-7.07"/><path fill="url(#f2261ida)" d="M30 14.876c0-3.14-1.734-6.08-4.45-7.16a.5.5 0 0 0-.49.04s-.01 0-.01.01c-.27.2-.232.528.04.78c.992.92 2.048 2.406 2.19 4.178c.064.807-.046 1.807-.6 2.534c-.444.581-1.13.868-1.68.868c-.812 0-1.28-.558-1.75-1.048c-.66-.8-1.74-1.172-2.85-1.172H9.31c-.17 0-.357-.14-.357-.31v-9.81c0-1.04-.793-1.692-1.833-1.692H4c-1.1 0-2 .712-2 1.812s.9 2 2 2h.867c.305 0 .352.278.352.356l-.094 14.654c0 1.18.565 2.21 1.565 2.69c.39.19.6.62.5 1.05l-1.1 4.87c-.05.19.1.38.3.38H9.6c.23 0 .44-.16.49-.39l1.254-5.12c.06-.29.216-.49.506-.49h9.2c.29 0 .437.2.497.49l1.265 5.057c.05.23.25.39.49.39h3.21c.2 0 .491-.2.441-.39L25.3 22.856c-.08-.36.09-.74.42-.91c2.54-1.33 4.28-4 4.28-7.07"/><path fill="url(#f2261idv)" d="M30 14.876c0-3.14-1.734-6.08-4.45-7.16a.5.5 0 0 0-.49.04s-.01 0-.01.01c-.27.2-.232.528.04.78c.992.92 2.048 2.406 2.19 4.178c.064.807-.046 1.807-.6 2.534c-.444.581-1.13.868-1.68.868c-.812 0-1.28-.558-1.75-1.048c-.66-.8-1.74-1.172-2.85-1.172H9.31c-.17 0-.357-.14-.357-.31v-9.81c0-1.04-.793-1.692-1.833-1.692H4c-1.1 0-2 .712-2 1.812s.9 2 2 2h.867c.305 0 .352.278.352.356l-.094 14.654c0 1.18.565 2.21 1.565 2.69c.39.19.6.62.5 1.05l-1.1 4.87c-.05.19.1.38.3.38H9.6c.23 0 .44-.16.49-.39l1.254-5.12c.06-.29.216-.49.506-.49h9.2c.29 0 .437.2.497.49l1.265 5.057c.05.23.25.39.49.39h3.21c.2 0 .491-.2.441-.39L25.3 22.856c-.08-.36.09-.74.42-.91c2.54-1.33 4.28-4 4.28-7.07"/><path fill="url(#f2261idw)" d="M30 14.876c0-3.14-1.734-6.08-4.45-7.16a.5.5 0 0 0-.49.04s-.01 0-.01.01c-.27.2-.232.528.04.78c.992.92 2.048 2.406 2.19 4.178c.064.807-.046 1.807-.6 2.534c-.444.581-1.13.868-1.68.868c-.812 0-1.28-.558-1.75-1.048c-.66-.8-1.74-1.172-2.85-1.172H9.31c-.17 0-.357-.14-.357-.31v-9.81c0-1.04-.793-1.692-1.833-1.692H4c-1.1 0-2 .712-2 1.812s.9 2 2 2h.867c.305 0 .352.278.352.356l-.094 14.654c0 1.18.565 2.21 1.565 2.69c.39.19.6.62.5 1.05l-1.1 4.87c-.05.19.1.38.3.38H9.6c.23 0 .44-.16.49-.39l1.254-5.12c.06-.29.216-.49.506-.49h9.2c.29 0 .437.2.497.49l1.265 5.057c.05.23.25.39.49.39h3.21c.2 0 .491-.2.441-.39L25.3 22.856c-.08-.36.09-.74.42-.91c2.54-1.33 4.28-4 4.28-7.07"/><path fill="url(#f2261idx)" d="M30 14.876c0-3.14-1.734-6.08-4.45-7.16a.5.5 0 0 0-.49.04s-.01 0-.01.01c-.27.2-.232.528.04.78c.992.92 2.048 2.406 2.19 4.178c.064.807-.046 1.807-.6 2.534c-.444.581-1.13.868-1.68.868c-.812 0-1.28-.558-1.75-1.048c-.66-.8-1.74-1.172-2.85-1.172H9.31c-.17 0-.357-.14-.357-.31v-9.81c0-1.04-.793-1.692-1.833-1.692H4c-1.1 0-2 .712-2 1.812s.9 2 2 2h.867c.305 0 .352.278.352.356l-.094 14.654c0 1.18.565 2.21 1.565 2.69c.39.19.6.62.5 1.05l-1.1 4.87c-.05.19.1.38.3.38H9.6c.23 0 .44-.16.49-.39l1.254-5.12c.06-.29.216-.49.506-.49h9.2c.29 0 .437.2.497.49l1.265 5.057c.05.23.25.39.49.39h3.21c.2 0 .491-.2.441-.39L25.3 22.856c-.08-.36.09-.74.42-.91c2.54-1.33 4.28-4 4.28-7.07"/><path fill="url(#f2261idy)" d="M30 14.876c0-3.14-1.734-6.08-4.45-7.16a.5.5 0 0 0-.49.04s-.01 0-.01.01c-.27.2-.232.528.04.78c.992.92 2.048 2.406 2.19 4.178c.064.807-.046 1.807-.6 2.534c-.444.581-1.13.868-1.68.868c-.812 0-1.28-.558-1.75-1.048c-.66-.8-1.74-1.172-2.85-1.172H9.31c-.17 0-.357-.14-.357-.31v-9.81c0-1.04-.793-1.692-1.833-1.692H4c-1.1 0-2 .712-2 1.812s.9 2 2 2h.867c.305 0 .352.278.352.356l-.094 14.654c0 1.18.565 2.21 1.565 2.69c.39.19.6.62.5 1.05l-1.1 4.87c-.05.19.1.38.3.38H9.6c.23 0 .44-.16.49-.39l1.254-5.12c.06-.29.216-.49.506-.49h9.2c.29 0 .437.2.497.49l1.265 5.057c.05.23.25.39.49.39h3.21c.2 0 .491-.2.441-.39L25.3 22.856c-.08-.36.09-.74.42-.91c2.54-1.33 4.28-4 4.28-7.07"/><path fill="url(#f2261idb)" d="m25.44 23.427l-.085-.18l-.53-2.282l-3.97 1.079l.516 1.985a.7.7 0 0 1 .172.364l1.266 5.057c.05.23.25.39.49.39h3.21c.2 0 .49-.2.44-.39z"/><path fill="url(#f2261idc)" d="m25.44 23.427l-.085-.18l-.53-2.282l-3.97 1.079l.516 1.985a.7.7 0 0 1 .172.364l1.266 5.057c.05.23.25.39.49.39h3.21c.2 0 .49-.2.44-.39z"/><path fill="url(#f2261idd)" d="M9.132 13.859c-.1-.056-.179-.153-.179-.263v-9.81c0-1.04-.793-1.692-1.833-1.692H4c-1.1 0-2 .712-2 1.812s.9 2 2 2h.867c.305 0 .352.278.352.356l-.08 12.541z"/><path fill="url(#f2261ide)" d="M9.132 13.859c-.1-.056-.179-.153-.179-.263v-9.81c0-1.04-.793-1.692-1.833-1.692H4c-1.1 0-2 .712-2 1.812s.9 2 2 2h.867c.305 0 .352.278.352.356l-.08 12.541z"/><path fill="url(#f2261idz)" d="M9.132 13.859c-.1-.056-.179-.153-.179-.263v-9.81c0-1.04-.793-1.692-1.833-1.692H4c-1.1 0-2 .712-2 1.812s.9 2 2 2h.867c.305 0 .352.278.352.356l-.08 12.541z"/><path fill="url(#f2261id10)" d="M8.621 2.759L5.16 6.057c-.05-.08-.138-.15-.292-.15H4c-1.1 0-2-.9-2-2s.9-1.813 2-1.813h3.12c.633 0 1.174.241 1.501.665"/><path fill="url(#f2261id11)" d="M8.621 2.759L5.16 6.057c-.05-.08-.138-.15-.292-.15H4c-1.1 0-2-.9-2-2s.9-1.813 2-1.813h3.12c.633 0 1.174.241 1.501.665"/><path fill="url(#f2261idf)" d="m11.392 24.234l.483-1.937H7.719l-.515 2.284l-.014.075l-1.107 4.903a.31.31 0 0 0 .307.347H9.6a.51.51 0 0 0 .44-.259l.92-3.68l.384-1.57a1 1 0 0 1 .048-.163"/><path fill="url(#f2261idg)" d="m11.392 24.234l.483-1.937H7.719l-.515 2.284l-.014.075l-1.107 4.903a.31.31 0 0 0 .307.347H9.6a.51.51 0 0 0 .44-.259l.92-3.68l.384-1.57a1 1 0 0 1 .048-.163"/><path fill="url(#f2261idh)" d="m11.392 24.234l.483-1.937H7.719l-.515 2.284l-.014.075l-1.107 4.903a.31.31 0 0 0 .307.347H9.6a.51.51 0 0 0 .44-.259l.92-3.68l.384-1.57a1 1 0 0 1 .048-.163"/><path fill="url(#f2261id12)" d="M6.5 3.938a.5.5 0 1 0 0-1a.5.5 0 0 0 0 1"/><path fill="url(#f2261id13)" d="M6.5 3.938a.5.5 0 1 0 0-1a.5.5 0 0 0 0 1"/><path fill="url(#f2261idi)" d="M6.5 3.938a.5.5 0 1 0 0-1a.5.5 0 0 0 0 1"/><g filter="url(#f2261id15)"><path fill="url(#f2261idj)" d="m25.844 8.375l.07.041c1.602.958 4.254 3.765 3.367 7.584c-.9 3.875-3.385 5.292-4.625 5.531l-.468-3.218c.78-.157 3.875-1.5 3.937-5.063c.049-2.767-1.411-4.344-2.211-4.834z"/></g><g filter="url(#f2261id16)"><path stroke="url(#f2261idk)" stroke-linecap="round" stroke-width=".3" d="m24.625 22.156l1.844 7.016"/></g><g filter="url(#f2261id17)"><path stroke="url(#f2261idl)" stroke-linecap="round" stroke-width=".15" d="M11.531 22.219L9.687 29.28"/></g><g filter="url(#f2261id18)"><circle cx="20.57" cy="17.508" r="2.805" fill="url(#f2261id14)"/></g><g filter="url(#f2261id19)"><path fill="url(#f2261idm)" d="M21.688 15h-4.563a1 1 0 0 0-1 1v1.344a1 1 0 0 0 1 1h.957a4 4 0 0 1 3.875 3.009l2.012 7.866h2.437l-3.218-12.813z"/></g><path fill="url(#f2261idn)" d="m21.718 25.078l-.018-.07z"/><path fill="url(#f2261ido)" d="m21.48 24.188l-.886-3.313H12.28l-.881 3.339c.082-.188.226-.308.45-.308h9.2c.214 0 .35.109.43.282"/><path fill="url(#f2261idp)" d="m11.24 24.821l-.068.257h.005z"/><g filter="url(#f2261id1a)"><path stroke="url(#f2261idq)" stroke-linecap="round" stroke-width=".2" d="M8.844 14.188c-.122.228-.574.91-1.406 1.812"/></g><g filter="url(#f2261id1b)"><path fill="url(#f2261idr)" d="M6 5.688h.625v15.844H6z"/></g><defs><linearGradient id="f2261id0" x1="17.938" x2="19.938" y1="23.688" y2="29.906" gradientUnits="userSpaceOnUse"><stop stop-color="#2C5D6E"/><stop offset="1" stop-color="#43808B"/></linearGradient><linearGradient id="f2261id1" x1="19.375" x2="19.375" y1="30.203" y2="29.313" gradientUnits="userSpaceOnUse"><stop offset=".085" stop-color="#5F6FAA"/><stop offset="1" stop-color="#5F6FAA" stop-opacity="0"/></linearGradient><linearGradient id="f2261id2" x1="21.125" x2="20.359" y1="27.906" y2="27.906" gradientUnits="userSpaceOnUse"><stop stop-color="#3B9376"/><stop offset="1" stop-color="#3B9376" stop-opacity="0"/></linearGradient><linearGradient id="f2261id3" x1="16.922" x2="17.266" y1="26.719" y2="26.719" gradientUnits="userSpaceOnUse"><stop stop-color="#13685F"/><stop offset="1" stop-color="#13685F" stop-opacity="0"/></linearGradient><linearGradient id="f2261id4" x1="15.594" x2="14.406" y1="23.656" y2="27.625" gradientUnits="userSpaceOnUse"><stop stop-color="#2C5D6E"/><stop offset="1" stop-color="#43808B"/></linearGradient><linearGradient id="f2261id5" x1="11.688" x2="12.469" y1="27.906" y2="27.906" gradientUnits="userSpaceOnUse"><stop stop-color="#3B9376"/><stop offset="1" stop-color="#3B9376" stop-opacity="0"/></linearGradient><linearGradient id="f2261id6" x1="16.109" x2="15.695" y1="26.719" y2="26.719" gradientUnits="userSpaceOnUse"><stop stop-color="#13685F"/><stop offset="1" stop-color="#13685F" stop-opacity="0"/></linearGradient><linearGradient id="f2261id7" x1="14.375" x2="14.375" y1="30.203" y2="29.313" gradientUnits="userSpaceOnUse"><stop offset=".085" stop-color="#5F6FAA"/><stop offset="1" stop-color="#5F6FAA" stop-opacity="0"/></linearGradient><linearGradient id="f2261id8" x1="12.313" x2="12.313" y1="22.656" y2="13.469" gradientUnits="userSpaceOnUse"><stop stop-color="#4FCBA2"/><stop offset="1" stop-color="#4AD482"/></linearGradient><linearGradient id="f2261id9" x1="4.75" x2="7.875" y1="16" y2="16" gradientUnits="userSpaceOnUse"><stop stop-color="#38BE83"/><stop offset="1" stop-color="#38BE83" stop-opacity="0"/></linearGradient><linearGradient id="f2261ida" x1="18.625" x2="18.625" y1="30.656" y2="29.219" gradientUnits="userSpaceOnUse"><stop stop-color="#76A3C8"/><stop offset="1" stop-color="#76A3C8" stop-opacity="0"/></linearGradient><linearGradient id="f2261idb" x1="21.906" x2="23.09" y1="27.5" y2="27.278" gradientUnits="userSpaceOnUse"><stop stop-color="#46B69C"/><stop offset="1" stop-color="#46B69C" stop-opacity="0"/></linearGradient><linearGradient id="f2261idc" x1="21.438" x2="22.719" y1="23.203" y2="25.687" gradientUnits="userSpaceOnUse"><stop stop-color="#4FCC9F"/><stop offset="1" stop-color="#50D09D" stop-opacity="0"/></linearGradient><linearGradient id="f2261idd" x1="8.906" x2="6.688" y1="11.469" y2="11.469" gradientUnits="userSpaceOnUse"><stop stop-color="#5DE0A6"/><stop offset="1" stop-color="#5DE0A6" stop-opacity="0"/></linearGradient><linearGradient id="f2261ide" x1="8.75" x2="8.078" y1="7.719" y2="7.719" gradientUnits="userSpaceOnUse"><stop stop-color="#58DC96"/><stop offset="1" stop-color="#58DC96" stop-opacity="0"/></linearGradient><linearGradient id="f2261idf" x1="10.938" x2="10.094" y1="27.266" y2="27.094" gradientUnits="userSpaceOnUse"><stop stop-color="#39BA88"/><stop offset="1" stop-color="#39BA88" stop-opacity="0"/></linearGradient><linearGradient id="f2261idg" x1="6.594" x2="7.125" y1="27.156" y2="27.266" gradientUnits="userSpaceOnUse"><stop stop-color="#39BA88"/><stop offset="1" stop-color="#39BA88" stop-opacity="0"/></linearGradient><linearGradient id="f2261idh" x1="7.938" x2="7.75" y1="22.531" y2="23.75" gradientUnits="userSpaceOnUse"><stop stop-color="#4FCCA0"/><stop offset="1" stop-color="#4FCCA0" stop-opacity="0"/></linearGradient><linearGradient id="f2261idi" x1="6.402" x2="6.058" y1="3.045" y2="2.826" gradientUnits="userSpaceOnUse"><stop stop-color="#5C5051" stop-opacity="0"/><stop offset="1" stop-color="#5C5051"/></linearGradient><linearGradient id="f2261idj" x1="29.906" x2="24.188" y1="14.125" y2="20.906" gradientUnits="userSpaceOnUse"><stop stop-color="#65E19F"/><stop offset="1" stop-color="#65E19F" stop-opacity="0"/></linearGradient><linearGradient id="f2261idk" x1="24.625" x2="26.547" y1="23.469" y2="31.469" gradientUnits="userSpaceOnUse"><stop stop-color="#67E5A7"/><stop offset="1" stop-color="#67E5A7" stop-opacity="0"/></linearGradient><linearGradient id="f2261idl" x1="12.938" x2="10.906" y1="20.813" y2="28.875" gradientUnits="userSpaceOnUse"><stop stop-color="#67E5A7"/><stop offset="1" stop-color="#67E5A7" stop-opacity="0"/></linearGradient><linearGradient id="f2261idm" x1="20.5" x2="26.878" y1="23.406" y2="21.886" gradientUnits="userSpaceOnUse"><stop stop-color="#54E494" stop-opacity="0"/><stop offset="1" stop-color="#54E494"/></linearGradient><linearGradient id="f2261idn" x1="17.434" x2="17.434" y1="23.984" y2="21.906" gradientUnits="userSpaceOnUse"><stop stop-color="#6295AD"/><stop offset="1" stop-color="#51B4AF" stop-opacity="0"/></linearGradient><linearGradient id="f2261ido" x1="17.434" x2="17.434" y1="23.984" y2="21.906" gradientUnits="userSpaceOnUse"><stop stop-color="#6295AD"/><stop offset="1" stop-color="#51B4AF" stop-opacity="0"/></linearGradient><linearGradient id="f2261idp" x1="17.434" x2="17.434" y1="23.984" y2="21.906" gradientUnits="userSpaceOnUse"><stop stop-color="#6295AD"/><stop offset="1" stop-color="#51B4AF" stop-opacity="0"/></linearGradient><linearGradient id="f2261idq" x1="8.749" x2="7.664" y1="14.188" y2="15.645" gradientUnits="userSpaceOnUse"><stop stop-color="#67E79F"/><stop offset="1" stop-color="#67E79F" stop-opacity="0"/></linearGradient><linearGradient id="f2261idr" x1="6.313" x2="6.313" y1="15.156" y2="31.031" gradientUnits="userSpaceOnUse"><stop stop-color="#3CB583"/><stop offset="1" stop-color="#3CB583" stop-opacity="0"/></linearGradient><radialGradient id="f2261ids" cx="0" cy="0" r="1" gradientTransform="matrix(4.375 .5 -.41841 3.6611 25.188 12.625)" gradientUnits="userSpaceOnUse"><stop stop-color="#39C584"/><stop offset="1" stop-color="#39C584" stop-opacity="0"/></radialGradient><radialGradient id="f2261idt" cx="0" cy="0" r="1" gradientTransform="matrix(2.40625 -1.09375 1.10112 2.42247 25.094 9.25)" gradientUnits="userSpaceOnUse"><stop stop-color="#39C780"/><stop offset="1" stop-color="#39C780" stop-opacity="0"/></radialGradient><radialGradient id="f2261idu" cx="0" cy="0" r="1" gradientTransform="rotate(152.241 13.464 8.848)scale(2.0129 5.75114)" gradientUnits="userSpaceOnUse"><stop stop-color="#6DDB9C"/><stop offset="1" stop-color="#6DDB9C" stop-opacity="0"/></radialGradient><radialGradient id="f2261idv" cx="0" cy="0" r="1" gradientTransform="matrix(1.15624 -3.34375 2.19517 .75907 5.813 24.688)" gradientUnits="userSpaceOnUse"><stop stop-color="#6295AD"/><stop offset="1" stop-color="#51B4AF" stop-opacity="0"/></radialGradient><radialGradient id="f2261idw" cx="0" cy="0" r="1" gradientTransform="rotate(-74.982 19.421 7.456)scale(1.32656 .39664)" gradientUnits="userSpaceOnUse"><stop stop-color="#8ACDA6"/><stop offset="1" stop-color="#8ACDA6" stop-opacity="0"/></radialGradient><radialGradient id="f2261idx" cx="0" cy="0" r="1" gradientTransform="matrix(1.15625 0 0 14.8125 4.938 15.438)" gradientUnits="userSpaceOnUse"><stop stop-color="#90DDAC"/><stop offset=".649" stop-color="#90DDAC" stop-opacity="0"/></radialGradient><radialGradient id="f2261idy" cx="0" cy="0" r="1" gradientTransform="rotate(-117.646 20.717 2.172)scale(2.96332 7.0161)" gradientUnits="userSpaceOnUse"><stop stop-color="#50BCA0"/><stop offset="1" stop-color="#50BCA0" stop-opacity="0"/></radialGradient><radialGradient id="f2261idz" cx="0" cy="0" r="1" gradientTransform="matrix(-1.12501 1.0625 -.77262 -.81808 8.75 2.5)" gradientUnits="userSpaceOnUse"><stop stop-color="#60E89B"/><stop offset="1" stop-color="#60E89B" stop-opacity="0"/></radialGradient><radialGradient id="f2261id10" cx="0" cy="0" r="1" gradientTransform="matrix(2.21875 -1.44766 1.30939 2.00683 3.75 6.057)" gradientUnits="userSpaceOnUse"><stop stop-color="#5DA9A6"/><stop offset="1" stop-color="#5DA9A6" stop-opacity="0"/></radialGradient><radialGradient id="f2261id11" cx="0" cy="0" r="1" gradientTransform="rotate(-176.306 4.38 1.994)scale(6.79143 4.58425)" gradientUnits="userSpaceOnUse"><stop offset=".93" stop-color="#AFE6C0" stop-opacity="0"/><stop offset="1" stop-color="#AFE6C0"/></radialGradient><radialGradient id="f2261id12" cx="0" cy="0" r="1" gradientTransform="matrix(-.40625 .5625 -.5015 -.3622 6.65 3.276)" gradientUnits="userSpaceOnUse"><stop offset=".006" stop-color="#433437"/><stop offset="1" stop-color="#3B2838"/></radialGradient><radialGradient id="f2261id13" cx="0" cy="0" r="1" gradientTransform="rotate(137.643 2.702 2.952)scale(.35946 .31624)" gradientUnits="userSpaceOnUse"><stop stop-color="#5C5051"/><stop offset="1" stop-color="#5C5051" stop-opacity="0"/></radialGradient><radialGradient id="f2261id14" cx="0" cy="0" r="1" gradientTransform="rotate(-54.932 28.807 -8.85)scale(5.76535)" gradientUnits="userSpaceOnUse"><stop offset=".611" stop-color="#54E494" stop-opacity="0"/><stop offset=".94" stop-color="#54E494"/></radialGradient><filter id="f2261id15" width="6.771" height="14.656" x="23.438" y="7.625" color-interpolation-filters="sRGB" filterUnits="userSpaceOnUse"><feFlood flood-opacity="0" result="BackgroundImageFix"/><feBlend in="SourceGraphic" in2="BackgroundImageFix" result="shape"/><feGaussianBlur result="effect1_foregroundBlur_28327_5735" stdDeviation=".375"/></filter><filter id="f2261id16" width="3.144" height="8.316" x="23.975" y="21.506" color-interpolation-filters="sRGB" filterUnits="userSpaceOnUse"><feFlood flood-opacity="0" result="BackgroundImageFix"/><feBlend in="SourceGraphic" in2="BackgroundImageFix" result="shape"/><feGaussianBlur result="effect1_foregroundBlur_28327_5735" stdDeviation=".25"/></filter><filter id="f2261id17" width="2.494" height="7.712" x="9.362" y="21.894" color-interpolation-filters="sRGB" filterUnits="userSpaceOnUse"><feFlood flood-opacity="0" result="BackgroundImageFix"/><feBlend in="SourceGraphic" in2="BackgroundImageFix" result="shape"/><feGaussianBlur result="effect1_foregroundBlur_28327_5735" stdDeviation=".125"/></filter><filter id="f2261id18" width="7.609" height="7.609" x="16.766" y="13.703" color-interpolation-filters="sRGB" filterUnits="userSpaceOnUse"><feFlood flood-opacity="0" result="BackgroundImageFix"/><feBlend in="SourceGraphic" in2="BackgroundImageFix" result="shape"/><feGaussianBlur result="effect1_foregroundBlur_28327_5735" stdDeviation=".5"/></filter><filter id="f2261id19" width="14.281" height="18.219" x="14.125" y="13" color-interpolation-filters="sRGB" filterUnits="userSpaceOnUse"><feFlood flood-opacity="0" result="BackgroundImageFix"/><feBlend in="SourceGraphic" in2="BackgroundImageFix" result="shape"/><feGaussianBlur result="effect1_foregroundBlur_28327_5735" stdDeviation="1"/></filter><filter id="f2261id1a" width="2.106" height="2.513" x="7.087" y="13.837" color-interpolation-filters="sRGB" filterUnits="userSpaceOnUse"><feFlood flood-opacity="0" result="BackgroundImageFix"/><feBlend in="SourceGraphic" in2="BackgroundImageFix" result="shape"/><feGaussianBlur result="effect1_foregroundBlur_28327_5735" stdDeviation=".125"/></filter><filter id="f2261id1b" width="3.625" height="18.844" x="4.5" y="4.188" color-interpolation-filters="sRGB" filterUnits="userSpaceOnUse"><feFlood flood-opacity="0" result="BackgroundImageFix"/><feBlend in="SourceGraphic" in2="BackgroundImageFix" result="shape"/><feGaussianBlur result="effect1_foregroundBlur_28327_5735" stdDeviation=".75"/></filter></defs></g></svg>