<svg xmlns="http://www.w3.org/2000/svg" xmlns:xlink="http://www.w3.org/1999/xlink" width="32" height="32" viewBox="0 0 32 32"><defs><path id="f2290id0" fill="#fff" d="M0 0h32v32H0z"/></defs><g fill="none"><g clip-path="url(#f2290idy)"><g clip-path="url(#f2290idz)"><g opacity=".6"><path fill="url(#f2290id1)" d="M13.999 29.998c9.334 0 13.999-6.268 13.999-14c0-7.73-4.665-13.998-14-13.998C4.665 2 0 8.268 0 15.999s4.664 13.999 13.999 13.999"/><path fill="url(#f2290id2)" d="M13.999 29.998c9.334 0 13.999-6.268 13.999-14c0-7.73-4.665-13.998-14-13.998C4.665 2 0 8.268 0 15.999s4.664 13.999 13.999 13.999"/><path fill="url(#f2290id3)" d="M13.999 29.998c9.334 0 13.999-6.268 13.999-14c0-7.73-4.665-13.998-14-13.998C4.665 2 0 8.268 0 15.999s4.664 13.999 13.999 13.999"/><path fill="url(#f2290id4)" fill-opacity=".6" d="M13.999 29.998c9.334 0 13.999-6.268 13.999-14c0-7.73-4.665-13.998-14-13.998C4.665 2 0 8.268 0 15.999s4.664 13.999 13.999 13.999"/><path fill="url(#f2290id5)" d="M13.999 29.998c9.334 0 13.999-6.268 13.999-14c0-7.73-4.665-13.998-14-13.998C4.665 2 0 8.268 0 15.999s4.664 13.999 13.999 13.999"/><path fill="url(#f2290id6)" d="M13.999 29.998c9.334 0 13.999-6.268 13.999-14c0-7.73-4.665-13.998-14-13.998C4.665 2 0 8.268 0 15.999s4.664 13.999 13.999 13.999"/><path fill="url(#f2290id7)" d="M13.999 29.998c9.334 0 13.999-6.268 13.999-14c0-7.73-4.665-13.998-14-13.998C4.665 2 0 8.268 0 15.999s4.664 13.999 13.999 13.999"/><path fill="url(#f2290id8)" d="M13.999 29.998c9.334 0 13.999-6.268 13.999-14c0-7.73-4.665-13.998-14-13.998C4.665 2 0 8.268 0 15.999s4.664 13.999 13.999 13.999"/></g><g opacity=".6"><path fill="url(#f2290id9)" d="M17.999 29.998c9.334 0 13.999-6.268 13.999-14c0-7.73-4.665-13.998-14-13.998C8.665 2 4 8.268 4 15.999s4.664 13.999 13.999 13.999"/><path fill="url(#f2290ida)" d="M17.999 29.998c9.334 0 13.999-6.268 13.999-14c0-7.73-4.665-13.998-14-13.998C8.665 2 4 8.268 4 15.999s4.664 13.999 13.999 13.999"/><path fill="url(#f2290idb)" d="M17.999 29.998c9.334 0 13.999-6.268 13.999-14c0-7.73-4.665-13.998-14-13.998C8.665 2 4 8.268 4 15.999s4.664 13.999 13.999 13.999"/><path fill="url(#f2290idc)" fill-opacity=".6" d="M17.999 29.998c9.334 0 13.999-6.268 13.999-14c0-7.73-4.665-13.998-14-13.998C8.665 2 4 8.268 4 15.999s4.664 13.999 13.999 13.999"/><path fill="url(#f2290idd)" d="M17.999 29.998c9.334 0 13.999-6.268 13.999-14c0-7.73-4.665-13.998-14-13.998C8.665 2 4 8.268 4 15.999s4.664 13.999 13.999 13.999"/><path fill="url(#f2290ide)" d="M17.999 29.998c9.334 0 13.999-6.268 13.999-14c0-7.73-4.665-13.998-14-13.998C8.665 2 4 8.268 4 15.999s4.664 13.999 13.999 13.999"/><path fill="url(#f2290idf)" d="M17.999 29.998c9.334 0 13.999-6.268 13.999-14c0-7.73-4.665-13.998-14-13.998C8.665 2 4 8.268 4 15.999s4.664 13.999 13.999 13.999"/><path fill="url(#f2290idg)" d="M17.999 29.998c9.334 0 13.999-6.268 13.999-14c0-7.73-4.665-13.998-14-13.998C8.665 2 4 8.268 4 15.999s4.664 13.999 13.999 13.999"/></g><path fill="url(#f2290ids)" fill-rule="evenodd" d="M5.07 7.988c-.594.562-.952 1.24-1.096 1.67a.5.5 0 1 1-.948-.316c.19-.57.631-1.392 1.355-2.08C5.113 6.567 6.148 6 7.5 6a.5.5 0 0 1 0 1c-1.049 0-1.847.433-2.432.988" clip-rule="evenodd" opacity=".6"/><path fill="url(#f2290idt)" fill-rule="evenodd" d="M26.93 7.988c.593.562.952 1.24 1.096 1.67a.5.5 0 1 0 .948-.316c-.19-.57-.631-1.392-1.355-2.08C26.887 6.567 25.852 6 24.5 6a.5.5 0 1 0 0 1c1.049 0 1.847.433 2.432.988" clip-rule="evenodd" opacity=".6"/><path fill="url(#f2290idh)" fill-rule="evenodd" d="M15.999 2.102C7.999 2.938 4 8.84 4 15.999S7.998 29.06 15.999 29.896c8-.836 11.999-6.74 11.999-13.897c0-7.158-3.998-13.061-12-13.897" clip-rule="evenodd"/><path fill="url(#f2290idi)" fill-rule="evenodd" d="M15.999 2.102C7.999 2.938 4 8.84 4 15.999S7.998 29.06 15.999 29.896c8-.836 11.999-6.74 11.999-13.897c0-7.158-3.998-13.061-12-13.897" clip-rule="evenodd"/><path fill="url(#f2290idj)" fill-rule="evenodd" d="M15.999 2.102C7.999 2.938 4 8.84 4 15.999S7.998 29.06 15.999 29.896c8-.836 11.999-6.74 11.999-13.897c0-7.158-3.998-13.061-12-13.897" clip-rule="evenodd"/><path fill="url(#f2290idk)" fill-opacity=".6" fill-rule="evenodd" d="M15.999 2.102C7.999 2.938 4 8.84 4 15.999S7.998 29.06 15.999 29.896c8-.836 11.999-6.74 11.999-13.897c0-7.158-3.998-13.061-12-13.897" clip-rule="evenodd"/><path fill="url(#f2290idl)" fill-rule="evenodd" d="M15.999 2.102C7.999 2.938 4 8.84 4 15.999S7.998 29.06 15.999 29.896c8-.836 11.999-6.74 11.999-13.897c0-7.158-3.998-13.061-12-13.897" clip-rule="evenodd"/><path fill="url(#f2290idm)" fill-rule="evenodd" d="M15.999 2.102C7.999 2.938 4 8.84 4 15.999S7.998 29.06 15.999 29.896c8-.836 11.999-6.74 11.999-13.897c0-7.158-3.998-13.061-12-13.897" clip-rule="evenodd"/><path fill="url(#f2290idn)" fill-rule="evenodd" d="M15.999 2.102C7.999 2.938 4 8.84 4 15.999S7.998 29.06 15.999 29.896c8-.836 11.999-6.74 11.999-13.897c0-7.158-3.998-13.061-12-13.897" clip-rule="evenodd"/><path fill="url(#f2290ido)" fill-rule="evenodd" d="M15.999 2.102C7.999 2.938 4 8.84 4 15.999S7.998 29.06 15.999 29.896c8-.836 11.999-6.74 11.999-13.897c0-7.158-3.998-13.061-12-13.897" clip-rule="evenodd"/><circle cx="9" cy="16" r="5" fill="url(#f2290idp)"/><circle cx="19.5" cy="16.5" r="4.5" fill="url(#f2290idq)"/><path fill="#fff" d="M6.5 19a4.5 4.5 0 1 0 0-9a4.5 4.5 0 0 0 0 9m19 0a4.5 4.5 0 1 0 0-9a4.5 4.5 0 0 0 0 9" opacity=".4"/><path fill="#fff" d="M8.5 19a4.5 4.5 0 1 0 0-9a4.5 4.5 0 0 0 0 9m15 0a4.5 4.5 0 1 0 0-9a4.5 4.5 0 0 0 0 9" opacity=".5"/><path fill="#fff" d="M10.5 19a4.5 4.5 0 1 0 0-9a4.5 4.5 0 0 0 0 9m11 0a4.5 4.5 0 1 0 0-9a4.5 4.5 0 0 0 0 9"/><path fill="url(#f2290idu)" d="M12 17a2 2 0 1 0 0-4a2 2 0 0 0 0 4"/><path fill="url(#f2290idv)" d="M20 17a2 2 0 1 0 0-4a2 2 0 0 0 0 4"/><path fill="url(#f2290idw)" fill-rule="evenodd" d="M8.07 7.988c-.594.562-.952 1.24-1.096 1.67a.5.5 0 1 1-.948-.316c.19-.57.631-1.392 1.355-2.08C8.113 6.567 9.148 6 10.5 6a.5.5 0 1 1 0 1c-1.049 0-1.847.433-2.432.988" clip-rule="evenodd"/><path fill="url(#f2290idx)" fill-rule="evenodd" d="M23.93 7.988c.593.562.952 1.24 1.096 1.67a.5.5 0 1 0 .948-.316c-.19-.57-.631-1.392-1.355-2.08C23.887 6.567 22.852 6 21.5 6a.5.5 0 1 0 0 1c1.049 0 1.847.433 2.432.988" clip-rule="evenodd"/><path fill="url(#f2290idr)" d="M13 24a3 3 0 1 1 6 0a3 3 0 0 1-6 0"/></g></g><defs><radialGradient id="f2290id1" cx="0" cy="0" r="1" gradientTransform="rotate(132.839 9.786 9.629)scale(37.5033)" gradientUnits="userSpaceOnUse"><stop stop-color="#FFF478"/><stop offset=".475" stop-color="#FFB02E"/><stop offset="1" stop-color="#F70A8D"/></radialGradient><radialGradient id="f2290id2" cx="0" cy="0" r="1" gradientTransform="rotate(131.878 9.74 9.746)scale(38.9487)" gradientUnits="userSpaceOnUse"><stop stop-color="#FFF478"/><stop offset=".475" stop-color="#FFB02E"/><stop offset="1" stop-color="#F70A8D"/></radialGradient><radialGradient id="f2290id3" cx="0" cy="0" r="1" gradientTransform="rotate(101.31 1.876 11.989)scale(17.8466 22.8581)" gradientUnits="userSpaceOnUse"><stop offset=".788" stop-color="#F59639" stop-opacity="0"/><stop offset=".973" stop-color="#FF7DCE"/></radialGradient><radialGradient id="f2290id4" cx="0" cy="0" r="1" gradientTransform="matrix(-29 29 -29 -29 16 14)" gradientUnits="userSpaceOnUse"><stop offset=".315" stop-opacity="0"/><stop offset="1"/></radialGradient><radialGradient id="f2290id5" cx="0" cy="0" r="1" gradientTransform="rotate(77.692 -3.555 17.192)scale(28.1469)" gradientUnits="userSpaceOnUse"><stop offset=".508" stop-color="#7D6133" stop-opacity="0"/><stop offset="1" stop-color="#715B32"/></radialGradient><radialGradient id="f2290id6" cx="0" cy="0" r="1" gradientTransform="matrix(7.5 10.99996 -7.97335 5.4364 14.5 16.5)" gradientUnits="userSpaceOnUse"><stop stop-color="#FFB849"/><stop offset="1" stop-color="#FFB847" stop-opacity="0"/></radialGradient><radialGradient id="f2290id7" cx="0" cy="0" r="1" gradientTransform="matrix(11.49998 2 -2 11.49998 18.5 18)" gradientUnits="userSpaceOnUse"><stop stop-color="#FFA64B"/><stop offset=".9" stop-color="#FFAE46" stop-opacity="0"/></radialGradient><radialGradient id="f2290id8" cx="0" cy="0" r="1" gradientTransform="rotate(43.971 -10.827 26.696)scale(59.0529)" gradientUnits="userSpaceOnUse"><stop offset=".185" stop-opacity="0"/><stop offset="1" stop-opacity=".4"/></radialGradient><radialGradient id="f2290id9" cx="0" cy="0" r="1" gradientTransform="rotate(132.839 11.786 10.502)scale(37.5033)" gradientUnits="userSpaceOnUse"><stop stop-color="#FFF478"/><stop offset=".475" stop-color="#FFB02E"/><stop offset="1" stop-color="#F70A8D"/></radialGradient><radialGradient id="f2290ida" cx="0" cy="0" r="1" gradientTransform="rotate(131.878 11.74 10.64)scale(38.9487)" gradientUnits="userSpaceOnUse"><stop stop-color="#FFF478"/><stop offset=".475" stop-color="#FFB02E"/><stop offset="1" stop-color="#F70A8D"/></radialGradient><radialGradient id="f2290idb" cx="0" cy="0" r="1" gradientTransform="rotate(101.31 3.876 13.628)scale(17.8466 22.8581)" gradientUnits="userSpaceOnUse"><stop offset=".788" stop-color="#F59639" stop-opacity="0"/><stop offset=".973" stop-color="#FF7DCE"/></radialGradient><radialGradient id="f2290idc" cx="0" cy="0" r="1" gradientTransform="matrix(-29 29 -29 -29 20 14)" gradientUnits="userSpaceOnUse"><stop offset=".315" stop-opacity="0"/><stop offset="1"/></radialGradient><radialGradient id="f2290idd" cx="0" cy="0" r="1" gradientTransform="rotate(77.692 -1.555 19.675)scale(28.1469)" gradientUnits="userSpaceOnUse"><stop offset=".508" stop-color="#7D6133" stop-opacity="0"/><stop offset="1" stop-color="#715B32"/></radialGradient><radialGradient id="f2290ide" cx="0" cy="0" r="1" gradientTransform="matrix(7.5 10.99996 -7.97335 5.4364 18.5 16.5)" gradientUnits="userSpaceOnUse"><stop stop-color="#FFB849"/><stop offset="1" stop-color="#FFB847" stop-opacity="0"/></radialGradient><radialGradient id="f2290idf" cx="0" cy="0" r="1" gradientTransform="matrix(11.49998 2 -2 11.49998 22.5 18)" gradientUnits="userSpaceOnUse"><stop stop-color="#FFA64B"/><stop offset=".9" stop-color="#FFAE46" stop-opacity="0"/></radialGradient><radialGradient id="f2290idg" cx="0" cy="0" r="1" gradientTransform="rotate(43.971 -8.827 31.65)scale(59.0529)" gradientUnits="userSpaceOnUse"><stop offset=".185" stop-opacity="0"/><stop offset="1" stop-opacity=".4"/></radialGradient><radialGradient id="f2290idh" cx="0" cy="0" r="1" gradientTransform="rotate(132.839 11.786 10.502)scale(37.5033)" gradientUnits="userSpaceOnUse"><stop stop-color="#FFF478"/><stop offset=".475" stop-color="#FFB02E"/><stop offset="1" stop-color="#F70A8D"/></radialGradient><radialGradient id="f2290idi" cx="0" cy="0" r="1" gradientTransform="rotate(131.878 11.74 10.64)scale(38.9487)" gradientUnits="userSpaceOnUse"><stop stop-color="#FFF478"/><stop offset=".475" stop-color="#FFB02E"/><stop offset="1" stop-color="#F70A8D"/></radialGradient><radialGradient id="f2290idj" cx="0" cy="0" r="1" gradientTransform="rotate(101.31 3.876 13.628)scale(17.8466 22.8581)" gradientUnits="userSpaceOnUse"><stop offset=".788" stop-color="#F59639" stop-opacity="0"/><stop offset=".973" stop-color="#FF7DCE"/></radialGradient><radialGradient id="f2290idk" cx="0" cy="0" r="1" gradientTransform="matrix(-29 29 -29 -29 20 14)" gradientUnits="userSpaceOnUse"><stop offset=".315" stop-opacity="0"/><stop offset="1"/></radialGradient><radialGradient id="f2290idl" cx="0" cy="0" r="1" gradientTransform="rotate(77.692 -1.555 19.675)scale(28.1469)" gradientUnits="userSpaceOnUse"><stop offset=".508" stop-color="#7D6133" stop-opacity="0"/><stop offset="1" stop-color="#715B32"/></radialGradient><radialGradient id="f2290idm" cx="0" cy="0" r="1" gradientTransform="matrix(7.5 10.99996 -7.97335 5.4364 18.5 16.5)" gradientUnits="userSpaceOnUse"><stop stop-color="#FFB849"/><stop offset="1" stop-color="#FFB847" stop-opacity="0"/></radialGradient><radialGradient id="f2290idn" cx="0" cy="0" r="1" gradientTransform="matrix(11.49998 2 -2 11.49998 22.5 18)" gradientUnits="userSpaceOnUse"><stop stop-color="#FFA64B"/><stop offset=".9" stop-color="#FFAE46" stop-opacity="0"/></radialGradient><radialGradient id="f2290ido" cx="0" cy="0" r="1" gradientTransform="rotate(43.971 -8.827 31.65)scale(59.0529)" gradientUnits="userSpaceOnUse"><stop offset=".185" stop-opacity="0"/><stop offset="1" stop-opacity=".4"/></radialGradient><radialGradient id="f2290idp" cx="0" cy="0" r="1" gradientTransform="rotate(135 3.936 8.725)scale(9.74236 5.04232)" gradientUnits="userSpaceOnUse"><stop stop-color="#392108"/><stop offset="1" stop-color="#C87928" stop-opacity="0"/></radialGradient><radialGradient id="f2290idq" cx="0" cy="0" r="1" gradientTransform="matrix(-5.75 5.75 -3.24597 -3.24597 23 13)" gradientUnits="userSpaceOnUse"><stop stop-color="#392108"/><stop offset="1" stop-color="#C87928" stop-opacity="0"/></radialGradient><radialGradient id="f2290idr" cx="0" cy="0" r="1" gradientTransform="rotate(-90 22.167 6.167)scale(7.33333)" gradientUnits="userSpaceOnUse"><stop stop-color="#F70A8D"/><stop offset="1" stop-color="#89029C"/></radialGradient><linearGradient id="f2290ids" x1="3.833" x2="3.833" y1="10.4" y2="8.6" gradientUnits="userSpaceOnUse"><stop offset=".03" stop-color="#524049"/><stop offset="1" stop-color="#4A2C42"/></linearGradient><linearGradient id="f2290idt" x1="28.166" x2="28.166" y1="10.4" y2="8.6" gradientUnits="userSpaceOnUse"><stop offset=".03" stop-color="#524049"/><stop offset="1" stop-color="#4A2C42"/></linearGradient><linearGradient id="f2290idu" x1="20.615" x2="19.927" y1="13" y2="17.03" gradientUnits="userSpaceOnUse"><stop stop-color="#553B3E"/><stop offset="1" stop-color="#3D2432"/></linearGradient><linearGradient id="f2290idv" x1="20.615" x2="19.927" y1="13" y2="17.03" gradientUnits="userSpaceOnUse"><stop stop-color="#553B3E"/><stop offset="1" stop-color="#3D2432"/></linearGradient><linearGradient id="f2290idw" x1="6.833" x2="6.833" y1="10.4" y2="8.6" gradientUnits="userSpaceOnUse"><stop offset=".03" stop-color="#524049"/><stop offset="1" stop-color="#4A2C42"/></linearGradient><linearGradient id="f2290idx" x1="25.166" x2="25.166" y1="10.4" y2="8.6" gradientUnits="userSpaceOnUse"><stop offset=".03" stop-color="#524049"/><stop offset="1" stop-color="#4A2C42"/></linearGradient><clipPath id="f2290idy"><use href="#f2290id0"/></clipPath><clipPath id="f2290idz"><use href="#f2290id0"/></clipPath></defs></g></svg>