<svg xmlns="http://www.w3.org/2000/svg" xmlns:xlink="http://www.w3.org/1999/xlink" width="32" height="32" viewBox="0 0 32 32"><g fill="none"><path fill="url(#f2452id0)" d="M8.329 30.02q.004-.082.004-.163a3.138 3.138 0 1 0-6.271.162z"/><path fill="url(#f2452id1)" d="M8.329 30.02q.004-.082.004-.163a3.138 3.138 0 1 0-6.271.162z"/><path fill="url(#f2452id2)" d="M8.329 30.02q.004-.082.004-.163a3.138 3.138 0 1 0-6.271.162z"/><path fill="#FFD2B6" d="M29.938 30.02q.005-.082.005-.163a3.138 3.138 0 1 0-6.272.162z"/><path fill="url(#f2452id3)" d="M29.938 30.02q.005-.082.005-.163a3.138 3.138 0 1 0-6.272.162z"/><path fill="url(#f2452id11)" d="M29.938 30.02q.005-.082.005-.163a3.138 3.138 0 1 0-6.272.162z"/><path fill="url(#f2452id12)" d="M16 15.52c-6.07 0-11 4.92-11 11v3.5h22v-3.5c0-6.08-4.93-11-11-11"/><path fill="url(#f2452id13)" d="M8.98 18.02a10.99 10.99 0 0 0-3.97 8.5l.02 3.5l4-.02z"/><path fill="url(#f2452id14)" d="M23 18.03v11.98h4v-3.5c0-3.41-1.56-6.46-4-8.48"/><path fill="url(#f2452id4)" d="M20.857 12.078a1.64 1.64 0 0 0 .904-.309v.931c0 .893-.532 1.689-1.34 2.019q.257-.546.345-1.18z"/><path fill="url(#f2452id5)" d="M11.134 12.078a1.64 1.64 0 0 1-.904-.309v.931c0 .893.532 1.689 1.34 2.019a4.1 4.1 0 0 1-.345-1.18z"/><g filter="url(#f2452id1p)"><path fill="url(#f2452id6)" d="M11.17 13.593a3.916 3.916 0 0 0 3.886 3.406h1.887a3.916 3.916 0 0 0 3.885-3.406c.119-1.884.237-3.76.325-5.643a1.45 1.45 0 0 0-1.38-1.432h-1.4a2.42 2.42 0 0 1-2.211-1.443a.66.66 0 0 0-.615-.418h-1.273c-1.846 0-3.342 1.513-3.342 3.379c0 1.86.117 3.691.239 5.557"/></g><path fill="url(#f2452id15)" d="M11.17 13.593a3.916 3.916 0 0 0 3.886 3.406h1.887a3.916 3.916 0 0 0 3.885-3.406c.119-1.884.237-3.76.325-5.643a1.45 1.45 0 0 0-1.38-1.432h-1.4a2.42 2.42 0 0 1-2.211-1.443a.66.66 0 0 0-.615-.418h-1.273c-1.846 0-3.342 1.513-3.342 3.379c0 1.86.117 3.691.239 5.557"/><path fill="url(#f2452id7)" d="M11.17 13.593a3.916 3.916 0 0 0 3.886 3.406h1.887a3.916 3.916 0 0 0 3.885-3.406c.119-1.884.237-3.76.325-5.643a1.45 1.45 0 0 0-1.38-1.432h-1.4a2.42 2.42 0 0 1-2.211-1.443a.66.66 0 0 0-.615-.418h-1.273c-1.846 0-3.342 1.513-3.342 3.379c0 1.86.117 3.691.239 5.557"/><path fill="url(#f2452id8)" d="M11.17 13.593a3.916 3.916 0 0 0 3.886 3.406h1.887a3.916 3.916 0 0 0 3.885-3.406c.119-1.884.237-3.76.325-5.643a1.45 1.45 0 0 0-1.38-1.432h-1.4a2.42 2.42 0 0 1-2.211-1.443a.66.66 0 0 0-.615-.418h-1.273c-1.846 0-3.342 1.513-3.342 3.379c0 1.86.117 3.691.239 5.557"/><path fill="url(#f2452id9)" d="M11.17 13.593a3.916 3.916 0 0 0 3.886 3.406h1.887a3.916 3.916 0 0 0 3.885-3.406c.119-1.884.237-3.76.325-5.643a1.45 1.45 0 0 0-1.38-1.432h-1.4a2.42 2.42 0 0 1-2.211-1.443a.66.66 0 0 0-.615-.418h-1.273c-1.846 0-3.342 1.513-3.342 3.379c0 1.86.117 3.691.239 5.557"/><path fill="url(#f2452ida)" d="M11.17 13.593a3.916 3.916 0 0 0 3.886 3.406h1.887a3.916 3.916 0 0 0 3.885-3.406c.119-1.884.237-3.76.325-5.643a1.45 1.45 0 0 0-1.38-1.432h-1.4a2.42 2.42 0 0 1-2.211-1.443a.66.66 0 0 0-.615-.418h-1.273c-1.846 0-3.342 1.513-3.342 3.379c0 1.86.117 3.691.239 5.557"/><path fill="url(#f2452idb)" d="M11.17 13.593a3.916 3.916 0 0 0 3.886 3.406h1.887a3.916 3.916 0 0 0 3.885-3.406c.119-1.884.237-3.76.325-5.643a1.45 1.45 0 0 0-1.38-1.432h-1.4a2.42 2.42 0 0 1-2.211-1.443a.66.66 0 0 0-.615-.418h-1.273c-1.846 0-3.342 1.513-3.342 3.379c0 1.86.117 3.691.239 5.557"/><path fill="url(#f2452idc)" d="M11.17 13.593a3.916 3.916 0 0 0 3.886 3.406h1.887a3.916 3.916 0 0 0 3.885-3.406c.119-1.884.237-3.76.325-5.643a1.45 1.45 0 0 0-1.38-1.432h-1.4a2.42 2.42 0 0 1-2.211-1.443a.66.66 0 0 0-.615-.418h-1.273c-1.846 0-3.342 1.513-3.342 3.379c0 1.86.117 3.691.239 5.557"/><g filter="url(#f2452id1q)"><path fill="#D69790" d="m15.594 10.304l-.59 1.838c-.102.378.14.756.484.756h.731c.343 0 .586-.384.485-.756l-.495-1.838c-.106-.408-.504-.408-.615 0"/></g><g filter="url(#f2452id1r)"><path fill="#F6BFAB" d="m15.613 10.113l-.531 1.838c-.109.378.151.757.52.757h.787c.368 0 .629-.384.52-.757l-.531-1.838c-.114-.407-.646-.407-.765 0"/><path fill="url(#f2452id16)" d="m15.613 10.113l-.531 1.838c-.109.378.151.757.52.757h.787c.368 0 .629-.384.52-.757l-.531-1.838c-.114-.407-.646-.407-.765 0"/><path fill="url(#f2452idd)" d="m15.613 10.113l-.531 1.838c-.109.378.151.757.52.757h.787c.368 0 .629-.384.52-.757l-.531-1.838c-.114-.407-.646-.407-.765 0"/><path fill="url(#f2452id17)" d="m15.613 10.113l-.531 1.838c-.109.378.151.757.52.757h.787c.368 0 .629-.384.52-.757l-.531-1.838c-.114-.407-.646-.407-.765 0"/><path fill="url(#f2452ide)" d="m15.613 10.113l-.531 1.838c-.109.378.151.757.52.757h.787c.368 0 .629-.384.52-.757l-.531-1.838c-.114-.407-.646-.407-.765 0"/><path fill="url(#f2452id18)" d="m15.613 10.113l-.531 1.838c-.109.378.151.757.52.757h.787c.368 0 .629-.384.52-.757l-.531-1.838c-.114-.407-.646-.407-.765 0"/></g><g filter="url(#f2452id1s)"><path stroke="url(#f2452id19)" stroke-width=".15" d="M14.645 13.33c.39.203.854.32 1.35.32c.501 0 .961-.117 1.351-.32a.23.23 0 0 1 .271.044a.214.214 0 0 1 .024.272m-2.996-.317l2.934.276m-2.934-.276h-.001a.23.23 0 0 0-.271.047a.21.21 0 0 0-.023.27m.295-.317l-.233.276m3.23.041l-.063-.041m.062.041l-.062-.041m.062.041c-.348.528-.955.88-1.646.88c-.69 0-1.297-.351-1.645-.88m3.229-.041a1.9 1.9 0 0 1-1.584.846a1.9 1.9 0 0 1-1.583-.846m-.062.042l.062-.042m-.062.042l.062-.042"/></g><path fill="url(#f2452idf)" d="M15.995 13.724c-.507 0-.984-.12-1.385-.328c-.137-.07-.284.084-.198.209c.335.508.919.846 1.583.846c.665 0 1.249-.338 1.584-.846c.086-.13-.061-.279-.198-.21a3 3 0 0 1-1.386.33"/><g filter="url(#f2452id1t)"><path fill="url(#f2452id1a)" d="M20.85 4.185a2.32 2.32 0 0 1 1.268 1.051a2.37 2.37 0 0 1-.106 2.526a1.56 1.56 0 0 0-.27.875v1.188a1.7 1.7 0 0 0-.668-.268l.078-1.607a1.45 1.45 0 0 0-1.379-1.432h-1.4a2.42 2.42 0 0 1-2.211-1.443a.66.66 0 0 0-.616-.418h-1.272c-1.846 0-3.342 1.512-3.342 3.379l.03 1.537a1.7 1.7 0 0 0-.72.264v-1.2a1.56 1.56 0 0 0-.27-.875a2.39 2.39 0 0 1-.143-2.445a2.34 2.34 0 0 1 1.3-1.127a2.68 2.68 0 0 0 1.384-1.11a2.325 2.325 0 0 1 2.89-.912a1.5 1.5 0 0 0 1.194 0c.28-.118.588-.188.912-.188c.843 0 1.58.456 1.989 1.132c.307.51.79.88 1.352 1.073"/><path fill="url(#f2452idg)" d="M20.85 4.185a2.32 2.32 0 0 1 1.268 1.051a2.37 2.37 0 0 1-.106 2.526a1.56 1.56 0 0 0-.27.875v1.188a1.7 1.7 0 0 0-.668-.268l.078-1.607a1.45 1.45 0 0 0-1.379-1.432h-1.4a2.42 2.42 0 0 1-2.211-1.443a.66.66 0 0 0-.616-.418h-1.272c-1.846 0-3.342 1.512-3.342 3.379l.03 1.537a1.7 1.7 0 0 0-.72.264v-1.2a1.56 1.56 0 0 0-.27-.875a2.39 2.39 0 0 1-.143-2.445a2.34 2.34 0 0 1 1.3-1.127a2.68 2.68 0 0 0 1.384-1.11a2.325 2.325 0 0 1 2.89-.912a1.5 1.5 0 0 0 1.194 0c.28-.118.588-.188.912-.188c.843 0 1.58.456 1.989 1.132c.307.51.79.88 1.352 1.073"/><path fill="url(#f2452idh)" d="M20.85 4.185a2.32 2.32 0 0 1 1.268 1.051a2.37 2.37 0 0 1-.106 2.526a1.56 1.56 0 0 0-.27.875v1.188a1.7 1.7 0 0 0-.668-.268l.078-1.607a1.45 1.45 0 0 0-1.379-1.432h-1.4a2.42 2.42 0 0 1-2.211-1.443a.66.66 0 0 0-.616-.418h-1.272c-1.846 0-3.342 1.512-3.342 3.379l.03 1.537a1.7 1.7 0 0 0-.72.264v-1.2a1.56 1.56 0 0 0-.27-.875a2.39 2.39 0 0 1-.143-2.445a2.34 2.34 0 0 1 1.3-1.127a2.68 2.68 0 0 0 1.384-1.11a2.325 2.325 0 0 1 2.89-.912a1.5 1.5 0 0 0 1.194 0c.28-.118.588-.188.912-.188c.843 0 1.58.456 1.989 1.132c.307.51.79.88 1.352 1.073"/><path fill="url(#f2452idi)" d="M20.85 4.185a2.32 2.32 0 0 1 1.268 1.051a2.37 2.37 0 0 1-.106 2.526a1.56 1.56 0 0 0-.27.875v1.188a1.7 1.7 0 0 0-.668-.268l.078-1.607a1.45 1.45 0 0 0-1.379-1.432h-1.4a2.42 2.42 0 0 1-2.211-1.443a.66.66 0 0 0-.616-.418h-1.272c-1.846 0-3.342 1.512-3.342 3.379l.03 1.537a1.7 1.7 0 0 0-.72.264v-1.2a1.56 1.56 0 0 0-.27-.875a2.39 2.39 0 0 1-.143-2.445a2.34 2.34 0 0 1 1.3-1.127a2.68 2.68 0 0 0 1.384-1.11a2.325 2.325 0 0 1 2.89-.912a1.5 1.5 0 0 0 1.194 0c.28-.118.588-.188.912-.188c.843 0 1.58.456 1.989 1.132c.307.51.79.88 1.352 1.073"/><path fill="url(#f2452idj)" d="M20.85 4.185a2.32 2.32 0 0 1 1.268 1.051a2.37 2.37 0 0 1-.106 2.526a1.56 1.56 0 0 0-.27.875v1.188a1.7 1.7 0 0 0-.668-.268l.078-1.607a1.45 1.45 0 0 0-1.379-1.432h-1.4a2.42 2.42 0 0 1-2.211-1.443a.66.66 0 0 0-.616-.418h-1.272c-1.846 0-3.342 1.512-3.342 3.379l.03 1.537a1.7 1.7 0 0 0-.72.264v-1.2a1.56 1.56 0 0 0-.27-.875a2.39 2.39 0 0 1-.143-2.445a2.34 2.34 0 0 1 1.3-1.127a2.68 2.68 0 0 0 1.384-1.11a2.325 2.325 0 0 1 2.89-.912a1.5 1.5 0 0 0 1.194 0c.28-.118.588-.188.912-.188c.843 0 1.58.456 1.989 1.132c.307.51.79.88 1.352 1.073"/></g><g filter="url(#f2452id1u)"><path fill="#202020" d="M19.728 7.848a1.85 1.85 0 0 0-.687-.411c-.305-.096-.686-.122-1.213-.057a.277.277 0 0 0 .068.55c.48-.059.776-.028.978.036c.198.062.333.163.49.3a.277.277 0 0 0 .364-.418"/></g><g filter="url(#f2452id1v)"><path fill="#202020" d="M12.585 7.739a2.77 2.77 0 0 1 1.739-.36a.277.277 0 0 1-.068.551a2.22 2.22 0 0 0-1.386.285a1 1 0 0 0-.092.06l-.003.002a.277.277 0 0 1-.34-.439z"/></g><g filter="url(#f2452id1w)"><path fill="#23181C" d="m16.228 5.212l-.066-.137a.66.66 0 0 0-.615-.418h-1.273c-1.846 0-3.342 1.512-3.342 3.379v.275c-.34-.259-.767-.804-.767-1.688c0-1.072.781-1.613 1.28-1.959c.14-.097.259-.18.33-.253l.1-.105c.35-.37.973-1.031 2.06-1.32a5.5 5.5 0 0 1 1.508-.165c.473.012.806.42.806.893v1.485z"/><path fill="url(#f2452idk)" d="m16.228 5.212l-.066-.137a.66.66 0 0 0-.615-.418h-1.273c-1.846 0-3.342 1.512-3.342 3.379v.275c-.34-.259-.767-.804-.767-1.688c0-1.072.781-1.613 1.28-1.959c.14-.097.259-.18.33-.253l.1-.105c.35-.37.973-1.031 2.06-1.32a5.5 5.5 0 0 1 1.508-.165c.473.012.806.42.806.893v1.485z"/><path fill="url(#f2452idl)" d="m16.228 5.212l-.066-.137a.66.66 0 0 0-.615-.418h-1.273c-1.846 0-3.342 1.512-3.342 3.379v.275c-.34-.259-.767-.804-.767-1.688c0-1.072.781-1.613 1.28-1.959c.14-.097.259-.18.33-.253l.1-.105c.35-.37.973-1.031 2.06-1.32a5.5 5.5 0 0 1 1.508-.165c.473.012.806.42.806.893v1.485z"/></g><g filter="url(#f2452id1x)"><path fill="#1F151B" d="m21.208 8.479l-.029-.631c-.01-.764-.641-1.394-1.405-1.426h-1.4c-.89 0-1.7-.486-2.124-1.26c0 0-.059-.135-.12-.368c-.257-.97.67-1.712 1.655-1.521c.974.189 2.082.517 2.902 1.052c1.745 1.137 1.44 3.188.521 4.154"/><path fill="url(#f2452idm)" d="m21.208 8.479l-.029-.631c-.01-.764-.641-1.394-1.405-1.426h-1.4c-.89 0-1.7-.486-2.124-1.26c0 0-.059-.135-.12-.368c-.257-.97.67-1.712 1.655-1.521c.974.189 2.082.517 2.902 1.052c1.745 1.137 1.44 3.188.521 4.154"/><path fill="url(#f2452idn)" d="m21.208 8.479l-.029-.631c-.01-.764-.641-1.394-1.405-1.426h-1.4c-.89 0-1.7-.486-2.124-1.26c0 0-.059-.135-.12-.368c-.257-.97.67-1.712 1.655-1.521c.974.189 2.082.517 2.902 1.052c1.745 1.137 1.44 3.188.521 4.154"/><path fill="url(#f2452ido)" d="m21.208 8.479l-.029-.631c-.01-.764-.641-1.394-1.405-1.426h-1.4c-.89 0-1.7-.486-2.124-1.26c0 0-.059-.135-.12-.368c-.257-.97.67-1.712 1.655-1.521c.974.189 2.082.517 2.902 1.052c1.745 1.137 1.44 3.188.521 4.154"/></g><path fill="#fff" d="M18.386 9.163c.654 0 1.205.45 1.355 1.058a.274.274 0 0 1-.267.341h-2.232a.23.23 0 0 1-.227-.272c.126-.64.69-1.127 1.371-1.127"/><path fill="url(#f2452idp)" d="M18.18 9.434a.893.893 0 0 1 .86 1.128h-1.724a.896.896 0 0 1 .864-1.128"/><path fill="#000" d="M17.668 10.327a.51.51 0 0 1 .512-.511a.51.51 0 0 1 .454.746h-.905a.46.46 0 0 1-.06-.235"/><g filter="url(#f2452id1y)"><path fill="#C7A7A3" d="M18.114 9.623c.063.085-.07.189-.22.302c-.152.113-.264.192-.327.107c-.064-.085.007-.245.158-.358s.325-.136.389-.051"/><path fill="url(#f2452idq)" d="M18.114 9.623c.063.085-.07.189-.22.302c-.152.113-.264.192-.327.107c-.064-.085.007-.245.158-.358s.325-.136.389-.051"/></g><g filter="url(#f2452id1z)"><path fill="url(#f2452id1b)" d="M18.975 10.21a.84.84 0 0 0-.232-.463l-.26.285l.118.228z"/></g><path fill="#fff" d="M13.605 9.163c-.654 0-1.205.45-1.355 1.058a.274.274 0 0 0 .267.341h2.232a.23.23 0 0 0 .227-.272a1.4 1.4 0 0 0-1.372-1.127"/><path fill="url(#f2452idr)" d="M13.811 9.434a.893.893 0 0 0-.86 1.128h1.724a1 1 0 0 0 .033-.235a.9.9 0 0 0-.897-.893"/><path fill="#000" d="M14.323 10.327a.51.51 0 0 0-.512-.511a.51.51 0 0 0-.454.746h.905a.5.5 0 0 0 .06-.235"/><g filter="url(#f2452id20)"><path fill="url(#f2452id1c)" d="M14.627 10.222c0-.288-.235-.48-.298-.539l-.289.28l.178.36z"/></g><g filter="url(#f2452id21)"><ellipse cx="13.542" cy="9.816" fill="#C7A7A3" fill-opacity=".9" rx=".39" ry=".197" transform="rotate(-27.914 13.542 9.816)"/><ellipse cx="13.542" cy="9.816" fill="url(#f2452ids)" rx=".39" ry=".197" transform="rotate(-27.914 13.542 9.816)"/></g><path fill="url(#f2452id1d)" d="M20.917 12.169q.1-1.597.185-3.192a1.61 1.61 0 0 1-.185 3.192"/><path fill="url(#f2452idt)" d="M20.917 12.169q.1-1.597.185-3.192a1.61 1.61 0 0 1-.185 3.192"/><path fill="url(#f2452idu)" d="M20.917 12.169q.1-1.597.185-3.192a1.61 1.61 0 0 1-.185 3.192"/><path fill="url(#f2452idv)" d="M20.917 12.169q.1-1.597.185-3.192a1.61 1.61 0 0 1-.185 3.192"/><path fill="url(#f2452id1e)" d="M10.951 8.969a1.62 1.62 0 0 0-1.392 1.593c0 .86.673 1.561 1.52 1.607a78 78 0 0 1-.128-3.2"/><path fill="url(#f2452idw)" d="M10.951 8.969a1.62 1.62 0 0 0-1.392 1.593c0 .86.673 1.561 1.52 1.607a78 78 0 0 1-.128-3.2"/><g filter="url(#f2452id22)"><path fill="url(#f2452idx)" d="M10.91 9.63a.956.956 0 0 0 .083 1.878a78 78 0 0 1-.083-1.879"/></g><g filter="url(#f2452id23)"><path fill="url(#f2452id1f)" d="M21.001 11.525q.059-.953.11-1.904a.955.955 0 0 1-.11 1.904"/></g><g filter="url(#f2452id24)"><path stroke="#353535" stroke-linecap="round" stroke-width=".25" d="M12.622 8.019c.257-.185.898-.51 1.655-.382"/></g><g filter="url(#f2452id25)"><path stroke="#353535" stroke-linecap="round" stroke-width=".25" d="M19.557 7.972c-.258-.184-.898-.508-1.656-.38"/></g><g filter="url(#f2452id26)"><path fill="url(#f2452id1g)" d="M26.03 16.02H5.97a.97.97 0 0 0-.97.97v13.03h22V16.99a.97.97 0 0 0-.97-.97"/><path fill="url(#f2452idy)" d="M26.03 16.02H5.97a.97.97 0 0 0-.97.97v13.03h22V16.99a.97.97 0 0 0-.97-.97"/><path fill="url(#f2452id1h)" d="M26.03 16.02H5.97a.97.97 0 0 0-.97.97v13.03h22V16.99a.97.97 0 0 0-.97-.97"/><path fill="url(#f2452id1i)" d="M26.03 16.02H5.97a.97.97 0 0 0-.97.97v13.03h22V16.99a.97.97 0 0 0-.97-.97"/><path fill="url(#f2452id1j)" d="M26.03 16.02H5.97a.97.97 0 0 0-.97.97v13.03h22V16.99a.97.97 0 0 0-.97-.97"/><path fill="url(#f2452idz)" d="M26.03 16.02H5.97a.97.97 0 0 0-.97.97v13.03h22V16.99a.97.97 0 0 0-.97-.97"/></g><path fill="url(#f2452id1k)" d="M14.444 21.89a.25.25 0 0 1 .25-.25h2.61a.25.25 0 0 1 .25.25v2.417a.25.25 0 0 1-.25.25h-2.61a.25.25 0 0 1-.25-.25z"/><path fill="url(#f2452id1l)" d="M14.444 21.89a.25.25 0 0 1 .25-.25h2.61a.25.25 0 0 1 .25.25v2.417a.25.25 0 0 1-.25.25h-2.61a.25.25 0 0 1-.25-.25z"/><path fill="url(#f2452id1m)" d="M14.444 21.89a.25.25 0 0 1 .25-.25h2.61a.25.25 0 0 1 .25.25v2.417a.25.25 0 0 1-.25.25h-2.61a.25.25 0 0 1-.25-.25z"/><path fill="url(#f2452id1n)" d="M14.444 21.89a.25.25 0 0 1 .25-.25h2.61a.25.25 0 0 1 .25.25v2.417a.25.25 0 0 1-.25.25h-2.61a.25.25 0 0 1-.25-.25z"/><path fill="url(#f2452id1o)" d="M14.444 21.89a.25.25 0 0 1 .25-.25h2.61a.25.25 0 0 1 .25.25v2.417a.25.25 0 0 1-.25.25h-2.61a.25.25 0 0 1-.25-.25z"/><path fill="url(#f2452id10)" fill-opacity=".6" d="M14.444 21.89a.25.25 0 0 1 .25-.25h2.61a.25.25 0 0 1 .25.25v2.417a.25.25 0 0 1-.25.25h-2.61a.25.25 0 0 1-.25-.25z"/><defs><radialGradient id="f2452id0" cx="0" cy="0" r="1" gradientTransform="rotate(-156.777 5.833 14.445)scale(2.6864 2.91777)" gradientUnits="userSpaceOnUse"><stop stop-color="#DFA49E"/><stop offset="1" stop-color="#F4C0A9"/></radialGradient><radialGradient id="f2452id1" cx="0" cy="0" r="1" gradientTransform="rotate(177.157 2.332 14.994)scale(3.35044 4.79049)" gradientUnits="userSpaceOnUse"><stop offset=".764" stop-color="#FFD1B6" stop-opacity="0"/><stop offset=".927" stop-color="#FFD1B6"/></radialGradient><radialGradient id="f2452id2" cx="0" cy="0" r="1" gradientTransform="rotate(142.141 -1.796 14.45)scale(2.29569 2.48045)" gradientUnits="userSpaceOnUse"><stop stop-color="#D5A58F"/><stop offset="1" stop-color="#D5A58F" stop-opacity="0"/></radialGradient><radialGradient id="f2452id3" cx="0" cy="0" r="1" gradientTransform="matrix(5.64062 -3.71875 1.03844 1.57511 27.091 30.119)" gradientUnits="userSpaceOnUse"><stop offset=".127" stop-color="#FFE6CB"/><stop offset="1" stop-color="#FFE6CB" stop-opacity="0"/></radialGradient><radialGradient id="f2452id4" cx="0" cy="0" r="1" gradientTransform="rotate(69.657 1.917 20.796)scale(2.15387 2.55864)" gradientUnits="userSpaceOnUse"><stop offset=".215" stop-color="#313131"/><stop offset="1" stop-color="#1A161E"/></radialGradient><radialGradient id="f2452id5" cx="0" cy="0" r="1" gradientTransform="matrix(1.47646 .46403 -1.43156 4.55498 9.939 12.26)" gradientUnits="userSpaceOnUse"><stop stop-color="#564943"/><stop offset=".746" stop-color="#1E191C"/></radialGradient><radialGradient id="f2452id6" cx="0" cy="0" r="1" gradientTransform="matrix(-5.22784 0 0 -9.248 18.803 10.828)" gradientUnits="userSpaceOnUse"><stop stop-color="#FFDCC0"/><stop offset="1" stop-color="#D6A195"/></radialGradient><radialGradient id="f2452id7" cx="0" cy="0" r="1" gradientTransform="matrix(-.99815 12.76794 -10.57334 -.82659 17.577 4.914)" gradientUnits="userSpaceOnUse"><stop offset=".719" stop-color="#F7BDB2" stop-opacity="0"/><stop offset=".946" stop-color="#CA868F"/></radialGradient><radialGradient id="f2452id8" cx="0" cy="0" r="1" gradientTransform="matrix(0 -1.14835 1.42108 0 18.443 9.515)" gradientUnits="userSpaceOnUse"><stop offset=".325" stop-color="#F6B8A8"/><stop offset="1" stop-color="#F6B8A8" stop-opacity="0"/></radialGradient><radialGradient id="f2452id9" cx="0" cy="0" r="1" gradientTransform="matrix(.00393 -1.09427 1.19083 .00428 13.695 9.561)" gradientUnits="userSpaceOnUse"><stop offset=".378" stop-color="#D39991"/><stop offset="1" stop-color="#D39991" stop-opacity="0"/></radialGradient><radialGradient id="f2452ida" cx="0" cy="0" r="1" gradientTransform="matrix(-8.49597 .5363 -1.37 -21.7029 19.428 11.816)" gradientUnits="userSpaceOnUse"><stop offset=".836" stop-color="#E6AD97" stop-opacity="0"/><stop offset="1" stop-color="#E6AD97"/></radialGradient><radialGradient id="f2452idb" cx="0" cy="0" r="1" gradientTransform="matrix(3.0984 -3.27776 1.1999 1.13424 10.528 6.503)" gradientUnits="userSpaceOnUse"><stop offset=".428" stop-color="#9F6D5C"/><stop offset="1" stop-color="#9F6D5C" stop-opacity="0"/></radialGradient><radialGradient id="f2452idc" cx="0" cy="0" r="1" gradientTransform="matrix(-1.74316 2.88295 -2.3801 -1.43912 18.423 5.849)" gradientUnits="userSpaceOnUse"><stop offset=".078" stop-color="#F6C3B0"/><stop offset="1" stop-color="#F6C3B0" stop-opacity="0"/></radialGradient><radialGradient id="f2452idd" cx="0" cy="0" r="1" gradientTransform="matrix(0 .2441 -.76718 0 16.462 12.188)" gradientUnits="userSpaceOnUse"><stop stop-color="#FFDDC7"/><stop offset="1" stop-color="#FFDDC7" stop-opacity="0"/></radialGradient><radialGradient id="f2452ide" cx="0" cy="0" r="1" gradientTransform="matrix(-1.52115 .69743 -1.12083 -2.4446 16.578 11.619)" gradientUnits="userSpaceOnUse"><stop offset=".714" stop-color="#D3968C" stop-opacity="0"/><stop offset="1" stop-color="#D3968C"/></radialGradient><radialGradient id="f2452idf" cx="0" cy="0" r="1" gradientTransform="matrix(0 -.72074 2.8997 0 15.995 14.367)" gradientUnits="userSpaceOnUse"><stop stop-color="#88014E"/><stop offset="1" stop-color="#86004D"/></radialGradient><radialGradient id="f2452idg" cx="0" cy="0" r="1" gradientTransform="matrix(0 -3.50132 8.85443 0 10.766 7.935)" gradientUnits="userSpaceOnUse"><stop offset=".536" stop-color="#3E3433"/><stop offset="1" stop-color="#3E3433" stop-opacity="0"/></radialGradient><radialGradient id="f2452idh" cx="0" cy="0" r="1" gradientTransform="rotate(-87.401 15.266 -6.29)scale(2.51513 4.45631)" gradientUnits="userSpaceOnUse"><stop stop-color="#4F4D4D"/><stop offset="1" stop-color="#4F4D4D" stop-opacity="0"/></radialGradient><radialGradient id="f2452idi" cx="0" cy="0" r="1" gradientTransform="matrix(-2.35883 -1.5514 1.1388 -1.7315 20.102 2.97)" gradientUnits="userSpaceOnUse"><stop stop-color="#5E5A5B"/><stop offset="1" stop-color="#5E5A5B" stop-opacity="0"/></radialGradient><radialGradient id="f2452idj" cx="0" cy="0" r="1" gradientTransform="matrix(.90512 1.475 -3.41539 2.09582 15.09 1.376)" gradientUnits="userSpaceOnUse"><stop offset=".287" stop-color="#484646"/><stop offset="1" stop-color="#484646" stop-opacity="0"/></radialGradient><radialGradient id="f2452idk" cx="0" cy="0" r="1" gradientTransform="matrix(-2.20112 0 0 -.81692 16.249 3.636)" gradientUnits="userSpaceOnUse"><stop stop-color="#423C3F"/><stop offset="1" stop-color="#423C3F" stop-opacity="0"/></radialGradient><radialGradient id="f2452idl" cx="0" cy="0" r="1" gradientTransform="matrix(3.21816 -5.09543 5.64521 3.5654 10.565 7.579)" gradientUnits="userSpaceOnUse"><stop offset=".093" stop-color="#0B0306"/><stop offset=".311" stop-color="#1C0C20"/><stop offset="1" stop-color="#1C0C20" stop-opacity="0"/></radialGradient><radialGradient id="f2452idm" cx="0" cy="0" r="1" gradientTransform="matrix(3.05838 0 0 1.19577 19.41 4.413)" gradientUnits="userSpaceOnUse"><stop stop-color="#4E494B"/><stop offset="1" stop-color="#4E494B" stop-opacity="0"/></radialGradient><radialGradient id="f2452idn" cx="0" cy="0" r="1" gradientTransform="matrix(2.67872 -2.55217 4.67237 4.90405 18.63 7.45)" gradientUnits="userSpaceOnUse"><stop offset=".857" stop-color="#545051" stop-opacity="0"/><stop offset="1" stop-color="#545051"/></radialGradient><radialGradient id="f2452ido" cx="0" cy="0" r="1" gradientTransform="matrix(3.2482 .37966 -.15896 1.35996 17.743 5.974)" gradientUnits="userSpaceOnUse"><stop stop-color="#200E25"/><stop offset="1" stop-color="#200E25" stop-opacity="0"/></radialGradient><radialGradient id="f2452idp" cx="0" cy="0" r="1" gradientTransform="matrix(0 .81132 -1.29049 0 18.177 9.911)" gradientUnits="userSpaceOnUse"><stop offset=".802" stop-color="#7D574A"/><stop offset="1" stop-color="#694B43"/><stop offset="1" stop-color="#804D49"/><stop offset="1" stop-color="#664842"/></radialGradient><radialGradient id="f2452idq" cx="0" cy="0" r="1" gradientTransform="rotate(-127.812 11.422 .602)scale(.37829 .52081)" gradientUnits="userSpaceOnUse"><stop offset=".766" stop-color="#FFE6E2" stop-opacity="0"/><stop offset=".966" stop-color="#FFE6E2"/></radialGradient><radialGradient id="f2452idr" cx="0" cy="0" r="1" gradientTransform="matrix(0 .81136 -1.29056 0 13.813 9.911)" gradientUnits="userSpaceOnUse"><stop offset=".802" stop-color="#7D574A"/><stop offset="1" stop-color="#694B43"/><stop offset="1" stop-color="#804D49"/><stop offset="1" stop-color="#664842"/></radialGradient><radialGradient id="f2452ids" cx="0" cy="0" r="1" gradientTransform="matrix(-.00774 -.49408 .59392 -.0093 13.527 10.13)" gradientUnits="userSpaceOnUse"><stop offset=".766" stop-color="#FFE6E2" stop-opacity="0"/><stop offset=".966" stop-color="#FFE6E2"/></radialGradient><radialGradient id="f2452idt" cx="0" cy="0" r="1" gradientTransform="matrix(.62855 2.24327 -2.14025 .59968 20.613 9.925)" gradientUnits="userSpaceOnUse"><stop offset=".856" stop-color="#CE978E" stop-opacity="0"/><stop offset="1" stop-color="#CE978E"/></radialGradient><radialGradient id="f2452idu" cx="0" cy="0" r="1" gradientTransform="matrix(.78778 -1.0811 .90618 .66032 20.974 10.47)" gradientUnits="userSpaceOnUse"><stop offset=".664" stop-color="#F7B99C"/><stop offset="1" stop-color="#F7B99C" stop-opacity="0"/></radialGradient><radialGradient id="f2452idv" cx="0" cy="0" r="1" gradientTransform="matrix(.587 -1.55042 2.07158 .7843 21.088 10.643)" gradientUnits="userSpaceOnUse"><stop offset=".803" stop-color="#EBBB9D" stop-opacity="0"/><stop offset="1" stop-color="#EBBB9D"/></radialGradient><radialGradient id="f2452idw" cx="0" cy="0" r="1" gradientTransform="rotate(-173.034 5.862 4.947)scale(1.62516 1.74453)" gradientUnits="userSpaceOnUse"><stop offset=".775" stop-color="#E8AF99" stop-opacity="0"/><stop offset="1" stop-color="#E8AF99"/></radialGradient><radialGradient id="f2452idx" cx="0" cy="0" r="1" gradientTransform="matrix(-.91648 .15731 -.19303 -1.12456 11.08 10.568)" gradientUnits="userSpaceOnUse"><stop stop-color="#C18472"/><stop offset="1" stop-color="#CA8B7A"/></radialGradient><radialGradient id="f2452idy" cx="0" cy="0" r="1" gradientTransform="matrix(0 -7.59705 13.2772 0 17.243 31.067)" gradientUnits="userSpaceOnUse"><stop offset=".027" stop-color="#78698C"/><stop offset="1" stop-color="#7A6B8E" stop-opacity="0"/></radialGradient><radialGradient id="f2452idz" cx="0" cy="0" r="1" gradientTransform="matrix(-.78125 .4375 -.4057 -.72446 26.696 16.66)" gradientUnits="userSpaceOnUse"><stop stop-color="#E5DFF1"/><stop offset=".724" stop-color="#E5DFF1" stop-opacity="0"/></radialGradient><radialGradient id="f2452id10" cx="0" cy="0" r="1" gradientTransform="matrix(-.0957 .08008 -.11939 -.14269 17.371 21.824)" gradientUnits="userSpaceOnUse"><stop stop-color="#806B97"/><stop offset="1" stop-color="#8D78A4" stop-opacity="0"/></radialGradient><linearGradient id="f2452id11" x1="26.607" x2="27.302" y1="28.838" y2="28.838" gradientUnits="userSpaceOnUse"><stop stop-color="#F5C7AD"/><stop offset="1" stop-color="#B38F78" stop-opacity="0"/><stop offset="1" stop-color="#F5C7AD" stop-opacity="0"/></linearGradient><linearGradient id="f2452id12" x1="16" x2="16" y1="6.703" y2="34.611" gradientUnits="userSpaceOnUse"><stop stop-color="#636363"/><stop offset="1" stop-color="#1C1C1C"/></linearGradient><linearGradient id="f2452id13" x1="10.918" x2="1.428" y1="24.003" y2="24.044" gradientUnits="userSpaceOnUse"><stop stop-color="#1C1C1C"/><stop offset="1" stop-color="#636363"/></linearGradient><linearGradient id="f2452id14" x1="22.998" x2="28.652" y1="24.02" y2="24.02" gradientUnits="userSpaceOnUse"><stop stop-color="#1C1C1C"/><stop offset="1" stop-color="#636363"/></linearGradient><linearGradient id="f2452id15" x1="21.153" x2="16.8" y1="12.513" y2="12.513" gradientUnits="userSpaceOnUse"><stop stop-color="#FFD6BA"/><stop offset="1" stop-color="#FFD6BA" stop-opacity="0"/></linearGradient><linearGradient id="f2452id16" x1="16.834" x2="15.995" y1="11.502" y2="11.537" gradientUnits="userSpaceOnUse"><stop offset=".36" stop-color="#FFDFC7"/><stop offset="1" stop-color="#FFDFC7" stop-opacity="0"/></linearGradient><linearGradient id="f2452id17" x1="15.995" x2="15.995" y1="12.642" y2="12.177" gradientUnits="userSpaceOnUse"><stop stop-color="#D89793"/><stop offset="1" stop-color="#D89793" stop-opacity="0"/></linearGradient><linearGradient id="f2452id18" x1="15.995" x2="15.995" y1="9.808" y2="10.483" gradientUnits="userSpaceOnUse"><stop stop-color="#E8BBA8"/><stop offset="1" stop-color="#E8BBA8" stop-opacity="0"/></linearGradient><linearGradient id="f2452id19" x1="14.794" x2="15.112" y1="14.213" y2="13.378" gradientUnits="userSpaceOnUse"><stop stop-color="#E1ACA6"/><stop offset="1" stop-color="#E1ACA6" stop-opacity="0"/></linearGradient><linearGradient id="f2452id1a" x1="22.847" x2="11.235" y1="5.165" y2="5.165" gradientUnits="userSpaceOnUse"><stop stop-color="#443D40"/><stop offset="1" stop-color="#272127"/></linearGradient><linearGradient id="f2452id1b" x1="18.956" x2="18.642" y1="9.965" y2="10.159" gradientUnits="userSpaceOnUse"><stop stop-color="#B4948D"/><stop offset="1" stop-color="#B4948D" stop-opacity="0"/></linearGradient><linearGradient id="f2452id1c" x1="14.557" x2="14.243" y1="9.965" y2="10.159" gradientUnits="userSpaceOnUse"><stop stop-color="#B4948D"/><stop offset="1" stop-color="#B4948D" stop-opacity="0"/></linearGradient><linearGradient id="f2452id1d" x1="22.432" x2="21.225" y1="9.992" y2="12.169" gradientUnits="userSpaceOnUse"><stop stop-color="#FFD6BD"/><stop offset="1" stop-color="#F0B8A6"/></linearGradient><linearGradient id="f2452id1e" x1="10.146" x2="11.604" y1="10.696" y2="10.569" gradientUnits="userSpaceOnUse"><stop stop-color="#D19787"/><stop offset="1" stop-color="#C9887D"/></linearGradient><linearGradient id="f2452id1f" x1="21.474" x2="21.474" y1="9.621" y2="11.525" gradientUnits="userSpaceOnUse"><stop stop-color="#F9BB9E"/><stop offset="1" stop-color="#F6BBA0"/></linearGradient><linearGradient id="f2452id1g" x1="7.493" x2="11.284" y1="19.754" y2="30.805" gradientUnits="userSpaceOnUse"><stop stop-color="#AB9CBE"/><stop offset="1" stop-color="#847498"/></linearGradient><linearGradient id="f2452id1h" x1="16" x2="16" y1="16.02" y2="17.379" gradientUnits="userSpaceOnUse"><stop stop-color="#BEB0B0"/><stop offset=".268" stop-color="#BEB7C7"/><stop offset=".863" stop-color="#BEB7C7" stop-opacity="0"/></linearGradient><linearGradient id="f2452id1i" x1="5" x2="6.055" y1="24.254" y2="24.254" gradientUnits="userSpaceOnUse"><stop stop-color="#9F93B2"/><stop offset="1" stop-color="#9F93B2" stop-opacity="0"/></linearGradient><linearGradient id="f2452id1j" x1="27" x2="25.524" y1="25.192" y2="25.192" gradientUnits="userSpaceOnUse"><stop offset=".174" stop-color="#BAB9C0"/><stop offset="1" stop-color="#A191B5" stop-opacity="0"/></linearGradient><linearGradient id="f2452id1k" x1="17.977" x2="13.911" y1="23.099" y2="23.099" gradientUnits="userSpaceOnUse"><stop offset=".096" stop-color="#56416B"/><stop offset=".13" stop-color="#614C77"/><stop offset=".165" stop-color="#51366C"/><stop offset="1" stop-color="#4F3568"/></linearGradient><linearGradient id="f2452id1l" x1="15.999" x2="15.999" y1="21.641" y2="23.196" gradientUnits="userSpaceOnUse"><stop stop-color="#60407F"/><stop offset="1" stop-color="#543870" stop-opacity="0"/></linearGradient><linearGradient id="f2452id1m" x1="15.999" x2="15.999" y1="21.641" y2="24.557" gradientUnits="userSpaceOnUse"><stop stop-color="#594170"/><stop offset=".037" stop-color="#6D5686"/><stop offset=".058" stop-color="#6F5783"/><stop offset=".097" stop-color="#5F447B" stop-opacity="0"/></linearGradient><linearGradient id="f2452id1n" x1="14.444" x2="15.02" y1="23.122" y2="23.122" gradientUnits="userSpaceOnUse"><stop offset=".086" stop-color="#3B2B50"/><stop offset=".663" stop-color="#52376C" stop-opacity="0"/></linearGradient><linearGradient id="f2452id1o" x1="15.999" x2="15.999" y1="24.842" y2="24.168" gradientUnits="userSpaceOnUse"><stop offset=".507" stop-color="#3D2555"/><stop offset=".736" stop-color="#4A3261" stop-opacity="0"/></linearGradient><filter id="f2452id1p" width="11.22" height="12.542" x="10.932" y="4.657" color-interpolation-filters="sRGB" filterUnits="userSpaceOnUse"><feFlood flood-opacity="0" result="BackgroundImageFix"/><feBlend in="SourceGraphic" in2="BackgroundImageFix" result="shape"/><feColorMatrix in="SourceAlpha" result="hardAlpha" values="0 0 0 0 0 0 0 0 0 0 0 0 0 0 0 0 0 0 127 0"/><feOffset dx="1"/><feGaussianBlur stdDeviation=".7"/><feComposite in2="hardAlpha" k2="-1" k3="1" operator="arithmetic"/><feColorMatrix values="0 0 0 0 0.913725 0 0 0 0 0.686275 0 0 0 0 0.592157 0 0 0 1 0"/><feBlend in2="shape" result="effect1_innerShadow_3_1253"/><feColorMatrix in="SourceAlpha" result="hardAlpha" values="0 0 0 0 0 0 0 0 0 0 0 0 0 0 0 0 0 0 127 0"/><feOffset dy=".2"/><feGaussianBlur stdDeviation=".375"/><feComposite in2="hardAlpha" k2="-1" k3="1" operator="arithmetic"/><feColorMatrix values="0 0 0 0 0.780392 0 0 0 0 0.568627 0 0 0 0 0.486275 0 0 0 1 0"/><feBlend in2="effect1_innerShadow_3_1253" result="effect2_innerShadow_3_1253"/></filter><filter id="f2452id1q" width="3.747" height="4.9" x="13.98" y="8.998" color-interpolation-filters="sRGB" filterUnits="userSpaceOnUse"><feFlood flood-opacity="0" result="BackgroundImageFix"/><feBlend in="SourceGraphic" in2="BackgroundImageFix" result="shape"/><feGaussianBlur result="effect1_foregroundBlur_3_1253" stdDeviation=".5"/></filter><filter id="f2452id1r" width="2.277" height="3.3" x="14.857" y="9.608" color-interpolation-filters="sRGB" filterUnits="userSpaceOnUse"><feFlood flood-opacity="0" result="BackgroundImageFix"/><feBlend in="SourceGraphic" in2="BackgroundImageFix" result="shape"/><feGaussianBlur result="effect1_foregroundBlur_3_1253" stdDeviation=".1"/></filter><filter id="f2452id1s" width="3.718" height="1.573" x="14.136" y="13.128" color-interpolation-filters="sRGB" filterUnits="userSpaceOnUse"><feFlood flood-opacity="0" result="BackgroundImageFix"/><feBlend in="SourceGraphic" in2="BackgroundImageFix" result="shape"/><feGaussianBlur result="effect1_foregroundBlur_3_1253" stdDeviation=".05"/></filter><filter id="f2452id1t" width="12.873" height="8.356" x="9.559" y="1.48" color-interpolation-filters="sRGB" filterUnits="userSpaceOnUse"><feFlood flood-opacity="0" result="BackgroundImageFix"/><feBlend in="SourceGraphic" in2="BackgroundImageFix" result="shape"/><feColorMatrix in="SourceAlpha" result="hardAlpha" values="0 0 0 0 0 0 0 0 0 0 0 0 0 0 0 0 0 0 127 0"/><feOffset dy="-.5"/><feGaussianBlur stdDeviation=".625"/><feComposite in2="hardAlpha" k2="-1" k3="1" operator="arithmetic"/><feColorMatrix values="0 0 0 0 0.137255 0 0 0 0 0.0901961 0 0 0 0 0.145098 0 0 0 1 0"/><feBlend in2="shape" result="effect1_innerShadow_3_1253"/><feColorMatrix in="SourceAlpha" result="hardAlpha" values="0 0 0 0 0 0 0 0 0 0 0 0 0 0 0 0 0 0 127 0"/><feOffset dy="-.2"/><feGaussianBlur stdDeviation=".2"/><feComposite in2="hardAlpha" k2="-1" k3="1" operator="arithmetic"/><feColorMatrix values="0 0 0 0 0.0784314 0 0 0 0 0.0352941 0 0 0 0 0.0470588 0 0 0 1 0"/><feBlend in2="effect1_innerShadow_3_1253" result="effect2_innerShadow_3_1253"/></filter><filter id="f2452id1u" width="2.339" height="1.19" x="17.584" y="7.144" color-interpolation-filters="sRGB" filterUnits="userSpaceOnUse"><feFlood flood-opacity="0" result="BackgroundImageFix"/><feBlend in="SourceGraphic" in2="BackgroundImageFix" result="shape"/><feColorMatrix in="SourceAlpha" result="hardAlpha" values="0 0 0 0 0 0 0 0 0 0 0 0 0 0 0 0 0 0 127 0"/><feOffset dx=".1" dy="-.2"/><feGaussianBlur stdDeviation=".125"/><feComposite in2="hardAlpha" k2="-1" k3="1" operator="arithmetic"/><feColorMatrix values="0 0 0 0 0.0588235 0 0 0 0 0.054902 0 0 0 0 0.0588235 0 0 0 1 0"/><feBlend in2="shape" result="effect1_innerShadow_3_1253"/></filter><filter id="f2452id1v" width="2.339" height="1.176" x="12.328" y="7.159" color-interpolation-filters="sRGB" filterUnits="userSpaceOnUse"><feFlood flood-opacity="0" result="BackgroundImageFix"/><feBlend in="SourceGraphic" in2="BackgroundImageFix" result="shape"/><feColorMatrix in="SourceAlpha" result="hardAlpha" values="0 0 0 0 0 0 0 0 0 0 0 0 0 0 0 0 0 0 127 0"/><feOffset dx=".1" dy="-.2"/><feGaussianBlur stdDeviation=".125"/><feComposite in2="hardAlpha" k2="-1" k3="1" operator="arithmetic"/><feColorMatrix values="0 0 0 0 0.0588235 0 0 0 0 0.054902 0 0 0 0 0.0588235 0 0 0 1 0"/><feBlend in2="shape" result="effect1_innerShadow_3_1253"/></filter><filter id="f2452id1w" width="6.734" height="5.992" x="9.915" y="2.569" color-interpolation-filters="sRGB" filterUnits="userSpaceOnUse"><feFlood flood-opacity="0" result="BackgroundImageFix"/><feBlend in="SourceGraphic" in2="BackgroundImageFix" result="shape"/><feColorMatrix in="SourceAlpha" result="hardAlpha" values="0 0 0 0 0 0 0 0 0 0 0 0 0 0 0 0 0 0 127 0"/><feOffset dx=".4" dy=".2"/><feGaussianBlur stdDeviation=".2"/><feComposite in2="hardAlpha" k2="-1" k3="1" operator="arithmetic"/><feColorMatrix values="0 0 0 0 0.286275 0 0 0 0 0.243137 0 0 0 0 0.227451 0 0 0 1 0"/><feBlend in2="shape" result="effect1_innerShadow_3_1253"/><feGaussianBlur result="effect2_foregroundBlur_3_1253" stdDeviation=".125"/></filter><filter id="f2452id1x" width="6.361" height="5.736" x="15.836" y="2.993" color-interpolation-filters="sRGB" filterUnits="userSpaceOnUse"><feFlood flood-opacity="0" result="BackgroundImageFix"/><feBlend in="SourceGraphic" in2="BackgroundImageFix" result="shape"/><feGaussianBlur result="effect1_foregroundBlur_3_1253" stdDeviation=".125"/></filter><filter id="f2452id1y" width=".787" height=".696" x="17.443" y="9.472" color-interpolation-filters="sRGB" filterUnits="userSpaceOnUse"><feFlood flood-opacity="0" result="BackgroundImageFix"/><feBlend in="SourceGraphic" in2="BackgroundImageFix" result="shape"/><feGaussianBlur result="effect1_foregroundBlur_3_1253" stdDeviation=".05"/></filter><filter id="f2452id1z" width=".891" height=".913" x="18.283" y="9.547" color-interpolation-filters="sRGB" filterUnits="userSpaceOnUse"><feFlood flood-opacity="0" result="BackgroundImageFix"/><feBlend in="SourceGraphic" in2="BackgroundImageFix" result="shape"/><feGaussianBlur result="effect1_foregroundBlur_3_1253" stdDeviation=".1"/></filter><filter id="f2452id20" width=".986" height="1.04" x="13.841" y="9.483" color-interpolation-filters="sRGB" filterUnits="userSpaceOnUse"><feFlood flood-opacity="0" result="BackgroundImageFix"/><feBlend in="SourceGraphic" in2="BackgroundImageFix" result="shape"/><feGaussianBlur result="effect1_foregroundBlur_3_1253" stdDeviation=".1"/></filter><filter id="f2452id21" width=".913" height=".705" x="13.086" y="9.463" color-interpolation-filters="sRGB" filterUnits="userSpaceOnUse"><feFlood flood-opacity="0" result="BackgroundImageFix"/><feBlend in="SourceGraphic" in2="BackgroundImageFix" result="shape"/><feGaussianBlur result="effect1_foregroundBlur_3_1253" stdDeviation=".05"/></filter><filter id="f2452id22" width="1.329" height="2.379" x="9.915" y="9.379" color-interpolation-filters="sRGB" filterUnits="userSpaceOnUse"><feFlood flood-opacity="0" result="BackgroundImageFix"/><feBlend in="SourceGraphic" in2="BackgroundImageFix" result="shape"/><feGaussianBlur result="effect1_foregroundBlur_3_1253" stdDeviation=".125"/></filter><filter id="f2452id23" width="1.947" height="2.903" x="20.501" y="9.121" color-interpolation-filters="sRGB" filterUnits="userSpaceOnUse"><feFlood flood-opacity="0" result="BackgroundImageFix"/><feBlend in="SourceGraphic" in2="BackgroundImageFix" result="shape"/><feGaussianBlur result="effect1_foregroundBlur_3_1253" stdDeviation=".25"/></filter><filter id="f2452id24" width="2.405" height="1.16" x="12.247" y="7.233" color-interpolation-filters="sRGB" filterUnits="userSpaceOnUse"><feFlood flood-opacity="0" result="BackgroundImageFix"/><feBlend in="SourceGraphic" in2="BackgroundImageFix" result="shape"/><feGaussianBlur result="effect1_foregroundBlur_3_1253" stdDeviation=".125"/></filter><filter id="f2452id25" width="2.405" height="1.16" x="17.526" y="7.187" color-interpolation-filters="sRGB" filterUnits="userSpaceOnUse"><feFlood flood-opacity="0" result="BackgroundImageFix"/><feBlend in="SourceGraphic" in2="BackgroundImageFix" result="shape"/><feGaussianBlur result="effect1_foregroundBlur_3_1253" stdDeviation=".125"/></filter><filter id="f2452id26" width="22" height="14.1" x="5" y="16.02" color-interpolation-filters="sRGB" filterUnits="userSpaceOnUse"><feFlood flood-opacity="0" result="BackgroundImageFix"/><feBlend in="SourceGraphic" in2="BackgroundImageFix" result="shape"/><feColorMatrix in="SourceAlpha" result="hardAlpha" values="0 0 0 0 0 0 0 0 0 0 0 0 0 0 0 0 0 0 127 0"/><feOffset dy=".1"/><feGaussianBlur stdDeviation=".25"/><feComposite in2="hardAlpha" k2="-1" k3="1" operator="arithmetic"/><feColorMatrix values="0 0 0 0 0.678431 0 0 0 0 0.670588 0 0 0 0 0.682353 0 0 0 1 0"/><feBlend in2="shape" result="effect1_innerShadow_3_1253"/></filter></defs></g></svg>