<svg xmlns="http://www.w3.org/2000/svg" xmlns:xlink="http://www.w3.org/1999/xlink" width="32" height="32" viewBox="0 0 32 32"><g fill="none"><path fill="url(#f2502idm)" d="M11.04 2.25H2.619c-.71 0-1.29.528-1.29 1.171c0 .644.58 1.172 1.29 1.172h8.42c.71 0 1.29-.528 1.29-1.172s-.58-1.171-1.29-1.171"/><path fill="url(#f2502id0)" d="M11.04 2.25H2.619c-.71 0-1.29.528-1.29 1.171c0 .644.58 1.172 1.29 1.172h8.42c.71 0 1.29-.528 1.29-1.172s-.58-1.171-1.29-1.171"/><path fill="url(#f2502id1)" d="M11.04 2.25H2.619c-.71 0-1.29.528-1.29 1.171c0 .644.58 1.172 1.29 1.172h8.42c.71 0 1.29-.528 1.29-1.172s-.58-1.171-1.29-1.171"/><path fill="url(#f2502id2)" d="M11.04 2.25H2.619c-.71 0-1.29.528-1.29 1.171c0 .644.58 1.172 1.29 1.172h8.42c.71 0 1.29-.528 1.29-1.172s-.58-1.171-1.29-1.171"/><path fill="url(#f2502id3)" d="M11.04 2.25H2.619c-.71 0-1.29.528-1.29 1.171c0 .644.58 1.172 1.29 1.172h8.42c.71 0 1.29-.528 1.29-1.172s-.58-1.171-1.29-1.171"/><path fill="url(#f2502idn)" d="M6.876 3.134c.71 0 1.285.575 1.285 1.285v6.652c0 .644-.572 1.179-1.28 1.179c-.71 0-1.29-.527-1.29-1.171v-6.66c0-.71.575-1.285 1.285-1.285"/><path fill="url(#f2502id4)" d="M6.876 3.134c.71 0 1.285.575 1.285 1.285v6.652c0 .644-.572 1.179-1.28 1.179c-.71 0-1.29-.527-1.29-1.171v-6.66c0-.71.575-1.285 1.285-1.285"/><path fill="url(#f2502id5)" d="M6.876 3.134c.71 0 1.285.575 1.285 1.285v6.652c0 .644-.572 1.179-1.28 1.179c-.71 0-1.29-.527-1.29-1.171v-6.66c0-.71.575-1.285 1.285-1.285"/><path fill="url(#f2502id6)" d="M6.876 3.134c.71 0 1.285.575 1.285 1.285v6.652c0 .644-.572 1.179-1.28 1.179c-.71 0-1.29-.527-1.29-1.171v-6.66c0-.71.575-1.285 1.285-1.285"/><path fill="url(#f2502ido)" d="M6.876 3.134c.71 0 1.285.575 1.285 1.285v6.652c0 .644-.572 1.179-1.28 1.179c-.71 0-1.29-.527-1.29-1.171v-6.66c0-.71.575-1.285 1.285-1.285"/><path fill="url(#f2502id7)" d="M6.876 3.134c.71 0 1.285.575 1.285 1.285v6.652c0 .644-.572 1.179-1.28 1.179c-.71 0-1.29-.527-1.29-1.171v-6.66c0-.71.575-1.285 1.285-1.285"/><path fill="url(#f2502id8)" fill-opacity=".8" d="M6.876 3.134c.71 0 1.285.575 1.285 1.285v6.652c0 .644-.572 1.179-1.28 1.179c-.71 0-1.29-.527-1.29-1.171v-6.66c0-.71.575-1.285 1.285-1.285"/><path fill="url(#f2502id9)" d="M6.876 3.134c.71 0 1.285.575 1.285 1.285v6.652c0 .644-.572 1.179-1.28 1.179c-.71 0-1.29-.527-1.29-1.171v-6.66c0-.71.575-1.285 1.285-1.285"/><path fill="#8472C6" d="M21.914 2.257c.619 0 1.126.527 1.126 1.17v7.645c0 .643-.485 1.178-1.104 1.178c-.618 0-1.125-.527-1.125-1.17V6.001l-2.221 2.31c-.239.24-.552.349-.857.333a1.08 1.08 0 0 1-.858-.333L14.893 6.25v4.822c0 .643-.507 1.17-1.126 1.17s-1.125-.527-1.125-1.17V3.436c0-.31.104-.613.328-.845c.327-.35.82-.427 1.23-.248c.134.054.253.14.357.248l3.16 3.287l3.161-3.287c.277-.28.68-.334 1.036-.334"/><path fill="url(#f2502idp)" d="M21.914 2.257c.619 0 1.126.527 1.126 1.17v7.645c0 .643-.485 1.178-1.104 1.178c-.618 0-1.125-.527-1.125-1.17V6.001l-2.221 2.31c-.239.24-.552.349-.857.333a1.08 1.08 0 0 1-.858-.333L14.893 6.25v4.822c0 .643-.507 1.17-1.126 1.17s-1.125-.527-1.125-1.17V3.436c0-.31.104-.613.328-.845c.327-.35.82-.427 1.23-.248c.134.054.253.14.357.248l3.16 3.287l3.161-3.287c.277-.28.68-.334 1.036-.334"/><path fill="url(#f2502idq)" d="M21.914 2.257c.619 0 1.126.527 1.126 1.17v7.645c0 .643-.485 1.178-1.104 1.178c-.618 0-1.125-.527-1.125-1.17V6.001l-2.221 2.31c-.239.24-.552.349-.857.333a1.08 1.08 0 0 1-.858-.333L14.893 6.25v4.822c0 .643-.507 1.17-1.126 1.17s-1.125-.527-1.125-1.17V3.436c0-.31.104-.613.328-.845c.327-.35.82-.427 1.23-.248c.134.054.253.14.357.248l3.16 3.287l3.161-3.287c.277-.28.68-.334 1.036-.334"/><path fill="url(#f2502idr)" d="M21.914 2.257c.619 0 1.126.527 1.126 1.17v7.645c0 .643-.485 1.178-1.104 1.178c-.618 0-1.125-.527-1.125-1.17V6.001l-2.221 2.31c-.239.24-.552.349-.857.333a1.08 1.08 0 0 1-.858-.333L14.893 6.25v4.822c0 .643-.507 1.17-1.126 1.17s-1.125-.527-1.125-1.17V3.436c0-.31.104-.613.328-.845c.327-.35.82-.427 1.23-.248c.134.054.253.14.357.248l3.16 3.287l3.161-3.287c.277-.28.68-.334 1.036-.334"/><path fill="url(#f2502ids)" d="M21.914 2.257c.619 0 1.126.527 1.126 1.17v7.645c0 .643-.485 1.178-1.104 1.178c-.618 0-1.125-.527-1.125-1.17V6.001l-2.221 2.31c-.239.24-.552.349-.857.333a1.08 1.08 0 0 1-.858-.333L14.893 6.25v4.822c0 .643-.507 1.17-1.126 1.17s-1.125-.527-1.125-1.17V3.436c0-.31.104-.613.328-.845c.327-.35.82-.427 1.23-.248c.134.054.253.14.357.248l3.16 3.287l3.161-3.287c.277-.28.68-.334 1.036-.334"/><path fill="url(#f2502idt)" d="M21.914 2.257c.619 0 1.126.527 1.126 1.17v7.645c0 .643-.485 1.178-1.104 1.178c-.618 0-1.125-.527-1.125-1.17V6.001l-2.221 2.31c-.239.24-.552.349-.857.333a1.08 1.08 0 0 1-.858-.333L14.893 6.25v4.822c0 .643-.507 1.17-1.126 1.17s-1.125-.527-1.125-1.17V3.436c0-.31.104-.613.328-.845c.327-.35.82-.427 1.23-.248c.134.054.253.14.357.248l3.16 3.287l3.161-3.287c.277-.28.68-.334 1.036-.334"/><path fill="url(#f2502idu)" d="M21.914 2.257c.619 0 1.126.527 1.126 1.17v7.645c0 .643-.485 1.178-1.104 1.178c-.618 0-1.125-.527-1.125-1.17V6.001l-2.221 2.31c-.239.24-.552.349-.857.333a1.08 1.08 0 0 1-.858-.333L14.893 6.25v4.822c0 .643-.507 1.17-1.126 1.17s-1.125-.527-1.125-1.17V3.436c0-.31.104-.613.328-.845c.327-.35.82-.427 1.23-.248c.134.054.253.14.357.248l3.16 3.287l3.161-3.287c.277-.28.68-.334 1.036-.334"/><path fill="url(#f2502idv)" d="M21.914 2.257c.619 0 1.126.527 1.126 1.17v7.645c0 .643-.485 1.178-1.104 1.178c-.618 0-1.125-.527-1.125-1.17V6.001l-2.221 2.31c-.239.24-.552.349-.857.333a1.08 1.08 0 0 1-.858-.333L14.893 6.25v4.822c0 .643-.507 1.17-1.126 1.17s-1.125-.527-1.125-1.17V3.436c0-.31.104-.613.328-.845c.327-.35.82-.427 1.23-.248c.134.054.253.14.357.248l3.16 3.287l3.161-3.287c.277-.28.68-.334 1.036-.334"/><path fill="url(#f2502ida)" d="M21.914 2.257c.619 0 1.126.527 1.126 1.17v7.645c0 .643-.485 1.178-1.104 1.178c-.618 0-1.125-.527-1.125-1.17V6.001l-2.221 2.31c-.239.24-.552.349-.857.333a1.08 1.08 0 0 1-.858-.333L14.893 6.25v4.822c0 .643-.507 1.17-1.126 1.17s-1.125-.527-1.125-1.17V3.436c0-.31.104-.613.328-.845c.327-.35.82-.427 1.23-.248c.134.054.253.14.357.248l3.16 3.287l3.161-3.287c.277-.28.68-.334 1.036-.334"/><path fill="url(#f2502idw)" d="M21.914 2.257c.619 0 1.126.527 1.126 1.17v7.645c0 .643-.485 1.178-1.104 1.178c-.618 0-1.125-.527-1.125-1.17V6.001l-2.221 2.31c-.239.24-.552.349-.857.333a1.08 1.08 0 0 1-.858-.333L14.893 6.25v4.822c0 .643-.507 1.17-1.126 1.17s-1.125-.527-1.125-1.17V3.436c0-.31.104-.613.328-.845c.327-.35.82-.427 1.23-.248c.134.054.253.14.357.248l3.16 3.287l3.161-3.287c.277-.28.68-.334 1.036-.334"/><path fill="url(#f2502idb)" d="M21.914 2.257c.619 0 1.126.527 1.126 1.17v7.645c0 .643-.485 1.178-1.104 1.178c-.618 0-1.125-.527-1.125-1.17V6.001l-2.221 2.31c-.239.24-.552.349-.857.333a1.08 1.08 0 0 1-.858-.333L14.893 6.25v4.822c0 .643-.507 1.17-1.126 1.17s-1.125-.527-1.125-1.17V3.436c0-.31.104-.613.328-.845c.327-.35.82-.427 1.23-.248c.134.054.253.14.357.248l3.16 3.287l3.161-3.287c.277-.28.68-.334 1.036-.334"/><path fill="url(#f2502idc)" fill-opacity=".8" d="M21.914 2.257c.619 0 1.126.527 1.126 1.17v7.645c0 .643-.485 1.178-1.104 1.178c-.618 0-1.125-.527-1.125-1.17V6.001l-2.221 2.31c-.239.24-.552.349-.857.333a1.08 1.08 0 0 1-.858-.333L14.893 6.25v4.822c0 .643-.507 1.17-1.126 1.17s-1.125-.527-1.125-1.17V3.436c0-.31.104-.613.328-.845c.327-.35.82-.427 1.23-.248c.134.054.253.14.357.248l3.16 3.287l3.161-3.287c.277-.28.68-.334 1.036-.334"/><path fill="url(#f2502idd)" fill-opacity=".8" d="M21.914 2.257c.619 0 1.126.527 1.126 1.17v7.645c0 .643-.485 1.178-1.104 1.178c-.618 0-1.125-.527-1.125-1.17V6.001l-2.221 2.31c-.239.24-.552.349-.857.333a1.08 1.08 0 0 1-.858-.333L14.893 6.25v4.822c0 .643-.507 1.17-1.126 1.17s-1.125-.527-1.125-1.17V3.436c0-.31.104-.613.328-.845c.327-.35.82-.427 1.23-.248c.134.054.253.14.357.248l3.16 3.287l3.161-3.287c.277-.28.68-.334 1.036-.334"/><path fill="url(#f2502ide)" fill-opacity=".8" d="M21.914 2.257c.619 0 1.126.527 1.126 1.17v7.645c0 .643-.485 1.178-1.104 1.178c-.618 0-1.125-.527-1.125-1.17V6.001l-2.221 2.31c-.239.24-.552.349-.857.333a1.08 1.08 0 0 1-.858-.333L14.893 6.25v4.822c0 .643-.507 1.17-1.126 1.17s-1.125-.527-1.125-1.17V3.436c0-.31.104-.613.328-.845c.327-.35.82-.427 1.23-.248c.134.054.253.14.357.248l3.16 3.287l3.161-3.287c.277-.28.68-.334 1.036-.334"/><path fill="url(#f2502idf)" fill-opacity=".8" d="M21.914 2.257c.619 0 1.126.527 1.126 1.17v7.645c0 .643-.485 1.178-1.104 1.178c-.618 0-1.125-.527-1.125-1.17V6.001l-2.221 2.31c-.239.24-.552.349-.857.333a1.08 1.08 0 0 1-.858-.333L14.893 6.25v4.822c0 .643-.507 1.17-1.126 1.17s-1.125-.527-1.125-1.17V3.436c0-.31.104-.613.328-.845c.327-.35.82-.427 1.23-.248c.134.054.253.14.357.248l3.16 3.287l3.161-3.287c.277-.28.68-.334 1.036-.334"/><path fill="url(#f2502idg)" d="M21.914 2.257c.619 0 1.126.527 1.126 1.17v7.645c0 .643-.485 1.178-1.104 1.178c-.618 0-1.125-.527-1.125-1.17V6.001l-2.221 2.31c-.239.24-.552.349-.857.333a1.08 1.08 0 0 1-.858-.333L14.893 6.25v4.822c0 .643-.507 1.17-1.126 1.17s-1.125-.527-1.125-1.17V3.436c0-.31.104-.613.328-.845c.327-.35.82-.427 1.23-.248c.134.054.253.14.357.248l3.16 3.287l3.161-3.287c.277-.28.68-.334 1.036-.334"/><path fill="url(#f2502idh)" d="M21.914 2.257c.619 0 1.126.527 1.126 1.17v7.645c0 .643-.485 1.178-1.104 1.178c-.618 0-1.125-.527-1.125-1.17V6.001l-2.221 2.31c-.239.24-.552.349-.857.333a1.08 1.08 0 0 1-.858-.333L14.893 6.25v4.822c0 .643-.507 1.17-1.126 1.17s-1.125-.527-1.125-1.17V3.436c0-.31.104-.613.328-.845c.327-.35.82-.427 1.23-.248c.134.054.253.14.357.248l3.16 3.287l3.161-3.287c.277-.28.68-.334 1.036-.334"/><path fill="url(#f2502idi)" d="M21.914 2.257c.619 0 1.126.527 1.126 1.17v7.645c0 .643-.485 1.178-1.104 1.178c-.618 0-1.125-.527-1.125-1.17V6.001l-2.221 2.31c-.239.24-.552.349-.857.333a1.08 1.08 0 0 1-.858-.333L14.893 6.25v4.822c0 .643-.507 1.17-1.126 1.17s-1.125-.527-1.125-1.17V3.436c0-.31.104-.613.328-.845c.327-.35.82-.427 1.23-.248c.134.054.253.14.357.248l3.16 3.287l3.161-3.287c.277-.28.68-.334 1.036-.334"/><path fill="url(#f2502idj)" d="M21.914 2.257c.619 0 1.126.527 1.126 1.17v7.645c0 .643-.485 1.178-1.104 1.178c-.618 0-1.125-.527-1.125-1.17V6.001l-2.221 2.31c-.239.24-.552.349-.857.333a1.08 1.08 0 0 1-.858-.333L14.893 6.25v4.822c0 .643-.507 1.17-1.126 1.17s-1.125-.527-1.125-1.17V3.436c0-.31.104-.613.328-.845c.327-.35.82-.427 1.23-.248c.134.054.253.14.357.248l3.16 3.287l3.161-3.287c.277-.28.68-.334 1.036-.334"/><path fill="url(#f2502idx)" d="m17.709 8.647l.024-.002c.305.016.618-.093.857-.333l2.22-2.31v5.077c0 .644.508 1.171 1.126 1.171c.62 0 1.104-.535 1.104-1.178V3.428c0-.644-.507-1.17-1.126-1.17c-.356 0-.759.053-1.036.333l-3.16 3.287l-.01-.01z"/><path fill="url(#f2502idy)" d="m17.709 8.647l.024-.002c.305.016.618-.093.857-.333l2.22-2.31v5.077c0 .644.508 1.171 1.126 1.171c.62 0 1.104-.535 1.104-1.178V3.428c0-.644-.507-1.17-1.126-1.17c-.356 0-.759.053-1.036.333l-3.16 3.287l-.01-.01z"/><path fill="url(#f2502idk)" d="m17.709 8.647l.024-.002c.305.016.618-.093.857-.333l2.22-2.31v5.077c0 .644.508 1.171 1.126 1.171c.62 0 1.104-.535 1.104-1.178V3.428c0-.644-.507-1.17-1.126-1.17c-.356 0-.759.053-1.036.333l-3.16 3.287l-.01-.01z"/><path fill="url(#f2502idz)" d="M14.895 6.252v-3.31l2.823 2.936l3.09-3.215v3.341L18.59 8.312c-.239.24-.552.349-.857.333a1.08 1.08 0 0 1-.858-.333z"/><path fill="url(#f2502id10)" d="M14.895 6.252v-3.31l2.823 2.936l3.09-3.215v3.341L18.59 8.312c-.239.24-.552.349-.857.333a1.08 1.08 0 0 1-.858-.333z"/><path fill="url(#f2502idl)" d="M14.895 6.252v-3.31l2.823 2.936l3.09-3.215v3.341L18.59 8.312c-.239.24-.552.349-.857.333a1.08 1.08 0 0 1-.858-.333z"/><defs><radialGradient id="f2502id0" cx="0" cy="0" r="1" gradientTransform="matrix(-.27762 5.2583 -8.2472 -.43542 7.107 3.421)" gradientUnits="userSpaceOnUse"><stop offset=".609" stop-color="#423473" stop-opacity="0"/><stop offset=".704" stop-color="#41366A"/></radialGradient><radialGradient id="f2502id1" cx="0" cy="0" r="1" gradientTransform="matrix(-.41485 .47522 -.47712 -.41651 11.505 2.946)" gradientUnits="userSpaceOnUse"><stop stop-color="#9C92D2"/><stop offset="1" stop-color="#9D93D3" stop-opacity="0"/></radialGradient><radialGradient id="f2502id2" cx="0" cy="0" r="1" gradientTransform="matrix(0 1.11022 -1.30249 0 8.482 4.294)" gradientUnits="userSpaceOnUse"><stop offset=".295" stop-color="#844EDF"/><stop offset="1" stop-color="#7C6ABE" stop-opacity="0"/><stop offset="1" stop-color="#844EDF" stop-opacity="0"/></radialGradient><radialGradient id="f2502id3" cx="0" cy="0" r="1" gradientTransform="matrix(0 .61593 -1.40783 0 9.04 4.716)" gradientUnits="userSpaceOnUse"><stop offset=".295" stop-color="#6537C4"/><stop offset="1" stop-color="#7C6ABE" stop-opacity="0"/><stop offset="1" stop-color="#844EDF" stop-opacity="0"/></radialGradient><radialGradient id="f2502id4" cx="0" cy="0" r="1" gradientTransform="matrix(0 1.46502 -2.67888 0 6.874 3.76)" gradientUnits="userSpaceOnUse"><stop offset=".239" stop-color="#7C6CBC"/><stop offset=".678" stop-color="#7C6CBC" stop-opacity="0"/></radialGradient><radialGradient id="f2502id5" cx="0" cy="0" r="1" gradientTransform="rotate(90 1.994 6.088)scale(.85655)" gradientUnits="userSpaceOnUse"><stop offset=".295" stop-color="#844EDF"/><stop offset="1" stop-color="#7C6ABE" stop-opacity="0"/><stop offset="1" stop-color="#844EDF" stop-opacity="0"/></radialGradient><radialGradient id="f2502id6" cx="0" cy="0" r="1" gradientTransform="rotate(75.473 .1 5.698)scale(.6949)" gradientUnits="userSpaceOnUse"><stop offset=".295" stop-color="#844EDF"/><stop offset="1" stop-color="#7C6ABE" stop-opacity="0"/><stop offset="1" stop-color="#844EDF" stop-opacity="0"/></radialGradient><radialGradient id="f2502id7" cx="0" cy="0" r="1" gradientTransform="matrix(1.37552 0 0 2.6814 6.972 4.375)" gradientUnits="userSpaceOnUse"><stop stop-color="#7A6BB7"/><stop offset=".688" stop-color="#7C6FBC" stop-opacity="0"/></radialGradient><radialGradient id="f2502id8" cx="0" cy="0" r="1" gradientTransform="matrix(0 .94206 -1.38697 0 6.876 11.604)" gradientUnits="userSpaceOnUse"><stop offset=".096" stop-color="#9447FE"/><stop offset=".846" stop-color="#9447FE" stop-opacity="0"/></radialGradient><radialGradient id="f2502id9" cx="0" cy="0" r="1" gradientTransform="matrix(0 23.1981 -11.5301 0 6.94 -3.728)" gradientUnits="userSpaceOnUse"><stop offset=".653" stop-color="#423473" stop-opacity="0"/><stop offset=".715" stop-color="#41366A"/></radialGradient><radialGradient id="f2502ida" cx="0" cy="0" r="1" gradientTransform="matrix(0 2.8662 -2.98026 0 20.83 3.834)" gradientUnits="userSpaceOnUse"><stop offset=".594" stop-color="#7B6BB7"/><stop offset=".796" stop-color="#7B6BB7" stop-opacity="0"/></radialGradient><radialGradient id="f2502idb" cx="0" cy="0" r="1" gradientTransform="matrix(0 -24.4222 19.205 0 18.103 17.933)" gradientUnits="userSpaceOnUse"><stop offset=".653" stop-color="#423473" stop-opacity="0"/><stop offset=".715" stop-color="#41366A"/></radialGradient><radialGradient id="f2502idc" cx="0" cy="0" r="1" gradientTransform="matrix(0 1.07922 -1.64229 0 13.782 11.52)" gradientUnits="userSpaceOnUse"><stop offset=".096" stop-color="#9447FE"/><stop offset=".846" stop-color="#9447FE" stop-opacity="0"/></radialGradient><radialGradient id="f2502idd" cx="0" cy="0" r="1" gradientTransform="matrix(0 1.16377 -1.53918 0 21.996 11.796)" gradientUnits="userSpaceOnUse"><stop offset=".096" stop-color="#9447FE"/><stop offset=".846" stop-color="#9447FE" stop-opacity="0"/></radialGradient><radialGradient id="f2502ide" cx="0" cy="0" r="1" gradientTransform="rotate(78.957 3.778 12.084)scale(.88482)" gradientUnits="userSpaceOnUse"><stop offset=".096" stop-color="#9447FE"/><stop offset=".846" stop-color="#9447FE" stop-opacity="0"/></radialGradient><radialGradient id="f2502idf" cx="0" cy="0" r="1" gradientTransform="rotate(137.01 9.232 7.012)scale(.71614)" gradientUnits="userSpaceOnUse"><stop offset=".096" stop-color="#9447FE"/><stop offset=".846" stop-color="#9447FE" stop-opacity="0"/></radialGradient><radialGradient id="f2502idg" cx="0" cy="0" r="1" gradientTransform="matrix(0 25.4473 -28.4453 0 18.12 -5.268)" gradientUnits="userSpaceOnUse"><stop offset=".677" stop-color="#423473" stop-opacity="0"/><stop offset=".724" stop-color="#41366A"/></radialGradient><radialGradient id="f2502idh" cx="0" cy="0" r="1" gradientTransform="matrix(-.7199 0 0 -3.06676 15.13 10.484)" gradientUnits="userSpaceOnUse"><stop stop-color="#473C84"/><stop offset=".743" stop-color="#473C84" stop-opacity="0"/></radialGradient><radialGradient id="f2502idi" cx="0" cy="0" r="1" gradientTransform="matrix(-.54442 -.3725 1.58681 -2.31921 15.171 11.428)" gradientUnits="userSpaceOnUse"><stop stop-color="#473C84"/><stop offset=".743" stop-color="#473C84" stop-opacity="0"/></radialGradient><radialGradient id="f2502idj" cx="0" cy="0" r="1" gradientTransform="matrix(.36834 -.47668 2.03063 1.56911 21.116 12.048)" gradientUnits="userSpaceOnUse"><stop stop-color="#473C84"/><stop offset=".743" stop-color="#473C84" stop-opacity="0"/></radialGradient><radialGradient id="f2502idk" cx="0" cy="0" r="1" gradientTransform="rotate(90 9.596 12.605)scale(.62727)" gradientUnits="userSpaceOnUse"><stop stop-color="#9C92D2"/><stop offset="1" stop-color="#9D93D3" stop-opacity="0"/></radialGradient><radialGradient id="f2502idl" cx="0" cy="0" r="1" gradientTransform="matrix(.08189 -1.33195 2.43668 .1498 17.77 8.887)" gradientUnits="userSpaceOnUse"><stop offset=".161" stop-color="#473C84"/><stop offset=".402" stop-color="#473C84" stop-opacity="0"/></radialGradient><linearGradient id="f2502idm" x1="6.829" x2="6.829" y1="2.25" y2="4.593" gradientUnits="userSpaceOnUse"><stop stop-color="#655898"/><stop offset=".214" stop-color="#8276BD"/><stop offset=".335" stop-color="#897EC1"/><stop offset=".523" stop-color="#7966C1"/><stop offset=".863" stop-color="#8842EC"/><stop offset="1" stop-color="#6035BE"/></linearGradient><linearGradient id="f2502idn" x1="10.298" x2="3.095" y1="7.996" y2="7.996" gradientUnits="userSpaceOnUse"><stop offset=".282" stop-color="#645599"/><stop offset=".397" stop-color="#8778C2"/><stop offset=".426" stop-color="#8778C2"/><stop offset=".552" stop-color="#6151A1"/><stop offset=".663" stop-color="#44357B"/></linearGradient><linearGradient id="f2502ido" x1="6.876" x2="6.876" y1="3.134" y2="4.046" gradientUnits="userSpaceOnUse"><stop stop-color="#8577C1"/><stop offset=".267" stop-color="#7E6DC1"/><stop offset=".448" stop-color="#7A66C3"/><stop offset=".647" stop-color="#7E5CCE"/><stop offset="1" stop-color="#7E5CCE" stop-opacity="0"/></linearGradient><linearGradient id="f2502idp" x1="10.667" x2="16.276" y1="6.117" y2="6.117" gradientUnits="userSpaceOnUse"><stop offset=".513" stop-color="#796AB5" stop-opacity="0"/><stop offset=".589" stop-color="#8779C2"/><stop offset=".632" stop-color="#8779C2"/><stop offset=".717" stop-color="#7E6EBC" stop-opacity="0"/></linearGradient><linearGradient id="f2502idq" x1="12.392" x2="16.276" y1="6.117" y2="6.117" gradientUnits="userSpaceOnUse"><stop offset=".532" stop-color="#8779C2" stop-opacity="0"/><stop offset=".632" stop-color="#483D85"/><stop offset=".681" stop-color="#7E6EBC" stop-opacity="0"/></linearGradient><linearGradient id="f2502idr" x1="16.988" x2="15.752" y1="4.673" y2="7.629" gradientUnits="userSpaceOnUse"><stop offset=".629" stop-color="#7B6BB9"/><stop offset=".804" stop-color="#7B6BB9" stop-opacity="0"/></linearGradient><linearGradient id="f2502ids" x1="17.036" x2="14.188" y1="2.25" y2="4.896" gradientUnits="userSpaceOnUse"><stop offset=".526" stop-color="#7264A9"/><stop offset=".596" stop-color="#A49AD8"/><stop offset=".686" stop-color="#A49AD8"/><stop offset=".863" stop-color="#A49AD8" stop-opacity="0"/></linearGradient><linearGradient id="f2502idt" x1="21.774" x2="15.729" y1="11.184" y2="5.139" gradientUnits="userSpaceOnUse"><stop offset=".629" stop-color="#7B6BB9"/><stop offset=".804" stop-color="#7B6BB9" stop-opacity="0"/></linearGradient><linearGradient id="f2502idu" x1="22.454" x2="19.964" y1="6.117" y2="6.117" gradientUnits="userSpaceOnUse"><stop offset=".046" stop-color="#8779C2" stop-opacity="0"/><stop offset=".642" stop-color="#483D85"/><stop offset=".745" stop-color="#7E6EBC" stop-opacity="0"/></linearGradient><linearGradient id="f2502idv" x1="20.859" x2="23.04" y1="6.117" y2="6.117" gradientUnits="userSpaceOnUse"><stop offset=".401" stop-color="#796AB5" stop-opacity="0"/><stop offset=".589" stop-color="#8779C2"/><stop offset=".632" stop-color="#8779C2"/><stop offset=".854" stop-color="#7E6EBC" stop-opacity="0"/></linearGradient><linearGradient id="f2502idw" x1="10.667" x2="16.276" y1="6.117" y2="6.117" gradientUnits="userSpaceOnUse"><stop offset=".387" stop-color="#473C84"/><stop offset=".6" stop-color="#7C6CBA" stop-opacity="0"/></linearGradient><linearGradient id="f2502idx" x1="22.454" x2="18.658" y1="6.117" y2="2.25" gradientUnits="userSpaceOnUse"><stop offset=".4" stop-color="#8779C2" stop-opacity="0"/><stop offset=".517" stop-color="#7D70B3"/><stop offset=".679" stop-color="#483D85"/><stop offset=".814" stop-color="#7E6EBC" stop-opacity="0"/></linearGradient><linearGradient id="f2502idy" x1="24.684" x2="20.706" y1="6.117" y2="6.117" gradientUnits="userSpaceOnUse"><stop offset=".387" stop-color="#473C84"/><stop offset=".6" stop-color="#7C6CBA" stop-opacity="0"/></linearGradient><linearGradient id="f2502idz" x1="16.917" x2="15.422" y1="6.256" y2="7.751" gradientUnits="userSpaceOnUse"><stop offset=".248" stop-color="#8779C2" stop-opacity="0"/><stop offset=".464" stop-color="#9447FE" stop-opacity=".485"/><stop offset=".702" stop-color="#483D85"/><stop offset=".86" stop-color="#7E6EBC" stop-opacity="0"/></linearGradient><linearGradient id="f2502id10" x1="17.965" x2="19.572" y1="6.745" y2="8.351" gradientUnits="userSpaceOnUse"><stop offset=".248" stop-color="#8779C2" stop-opacity="0"/><stop offset=".464" stop-color="#9447FE" stop-opacity=".485"/><stop offset=".702" stop-color="#483D85"/><stop offset=".86" stop-color="#7E6EBC" stop-opacity="0"/></linearGradient></defs></g></svg>