<svg xmlns="http://www.w3.org/2000/svg" xmlns:xlink="http://www.w3.org/1999/xlink" width="32" height="32" viewBox="0 0 32 32"><g fill="none"><path fill="#A99CB7" d="m12.016 29.063l.609-4.375h1.64l-.656 4.375z"/><path fill="url(#f2519idp)" d="m12.016 29.063l.609-4.375h1.64l-.656 4.375z"/><path fill="url(#f2519idq)" d="m12.016 29.063l.609-4.375h1.64l-.656 4.375z"/><path fill="url(#f2519id0)" d="m12.016 29.063l.609-4.375h1.64l-.656 4.375z"/><path fill="#A99CB7" d="m16 29.063l.61-4.375h1.64l-.656 4.375z"/><path fill="url(#f2519idr)" d="m16 29.063l.61-4.375h1.64l-.656 4.375z"/><path fill="url(#f2519ids)" d="m16 29.063l.61-4.375h1.64l-.656 4.375z"/><path fill="url(#f2519id1)" d="m16 29.063l.61-4.375h1.64l-.656 4.375z"/><path fill="url(#f2519idt)" d="M14.16 28.973H9.326c-.65 0-.934.33-1.01.744c-.025.136.09.249.228.249h6.475c.138 0 .254-.114.22-.248c-.134-.526-.691-.745-1.08-.745"/><path fill="url(#f2519idu)" d="M14.16 28.973H9.326c-.65 0-.934.33-1.01.744c-.025.136.09.249.228.249h6.475c.138 0 .254-.114.22-.248c-.134-.526-.691-.745-1.08-.745"/><path fill="url(#f2519idv)" d="M14.16 28.973H9.326c-.65 0-.934.33-1.01.744c-.025.136.09.249.228.249h6.475c.138 0 .254-.114.22-.248c-.134-.526-.691-.745-1.08-.745"/><path fill="url(#f2519idw)" d="M19.14 28.973h-4.833c-.65 0-.934.33-1.01.744c-.025.136.09.249.228.249H20c.138 0 .254-.114.22-.248c-.134-.526-.691-.745-1.08-.745"/><path fill="url(#f2519idx)" d="M19.14 28.973h-4.833c-.65 0-.934.33-1.01.744c-.025.136.09.249.228.249H20c.138 0 .254-.114.22-.248c-.134-.526-.691-.745-1.08-.745"/><path fill="url(#f2519idy)" d="M27.853 2h.594a1.703 1.703 0 0 1 0 3.406h-.594z"/><path fill="url(#f2519id2)" d="M27.853 2h.594a1.703 1.703 0 0 1 0 3.406h-.594z"/><path fill="url(#f2519idz)" d="M27.431 5.219h1.016a1.703 1.703 0 0 1 0 3.406H27.43z"/><path fill="url(#f2519id3)" d="M27.431 5.219h1.016a1.703 1.703 0 0 1 0 3.406H27.43z"/><path fill="url(#f2519id10)" d="M27.431 8.625h1.016a1.703 1.703 0 0 1 0 3.406H27.43z"/><path fill="url(#f2519id4)" d="M27.431 8.625h1.016a1.703 1.703 0 0 1 0 3.406H27.43z"/><path fill="url(#f2519id11)" d="M27.431 11.766h1.016a1.703 1.703 0 0 1 0 3.406H27.43z"/><path fill="url(#f2519id5)" d="M27.431 11.766h1.016a1.703 1.703 0 0 1 0 3.406H27.43z"/><path fill="url(#f2519id12)" d="M27.431 15.078h1.016a1.703 1.703 0 0 1 0 3.406H27.43z"/><path fill="url(#f2519id6)" d="M27.431 15.078h1.016a1.703 1.703 0 0 1 0 3.406H27.43z"/><path fill="url(#f2519id13)" d="M27.431 18.313h1.016a1.703 1.703 0 0 1 0 3.406H27.43z"/><path fill="url(#f2519id7)" d="M27.431 18.313h1.016a1.703 1.703 0 0 1 0 3.406H27.43z"/><path fill="url(#f2519id14)" d="M24.369 21.719h4.171a1.61 1.61 0 1 1 0 3.219h-4.17z"/><path fill="url(#f2519id8)" d="M24.369 21.719h4.171a1.61 1.61 0 1 1 0 3.219h-4.17z"/><path fill="url(#f2519id15)" d="M24.369 21.719h4.171a1.61 1.61 0 1 1 0 3.219h-4.17z"/><path fill="#68473C" d="M19.536 8a6 6 0 0 1 6-6h2.614v17.969a5 5 0 0 1-5 5h-3.614z"/><path fill="url(#f2519id9)" d="M19.536 8a6 6 0 0 1 6-6h2.614v17.969a5 5 0 0 1-5 5h-3.614z"/><path fill="url(#f2519id16)" d="M19.536 8a6 6 0 0 1 6-6h2.614v17.969a5 5 0 0 1-5 5h-3.614z"/><path fill="#C21B6B" d="M8.59 9.583c.084-.243.164-.534.227-.848l.252-.942q.109-.326.11-.689a2.189 2.189 0 1 0-3.751 1.532q.093.318.197.583c.453 1.156.484 2.64-.766 2.797c-2.108.263-2.583 1.713-2.593 2.578V18.5H5.53l1.914-5.583l.21.167z"/><path fill="url(#f2519ida)" d="M8.59 9.583c.084-.243.164-.534.227-.848l.252-.942q.109-.326.11-.689a2.189 2.189 0 1 0-3.751 1.532q.093.318.197.583c.453 1.156.484 2.64-.766 2.797c-2.108.263-2.583 1.713-2.593 2.578V18.5H5.53l1.914-5.583l.21.167z"/><path fill="url(#f2519idb)" d="M8.59 9.583c.084-.243.164-.534.227-.848l.252-.942q.109-.326.11-.689a2.189 2.189 0 1 0-3.751 1.532q.093.318.197.583c.453 1.156.484 2.64-.766 2.797c-2.108.263-2.583 1.713-2.593 2.578V18.5H5.53l1.914-5.583l.21.167z"/><path fill="url(#f2519idc)" d="M8.59 9.583c.084-.243.164-.534.227-.848l.252-.942q.109-.326.11-.689a2.189 2.189 0 1 0-3.751 1.532q.093.318.197.583c.453 1.156.484 2.64-.766 2.797c-2.108.263-2.583 1.713-2.593 2.578V18.5H5.53l1.914-5.583l.21.167z"/><path fill="url(#f2519idd)" d="M8.59 9.583c.084-.243.164-.534.227-.848l.252-.942q.109-.326.11-.689a2.189 2.189 0 1 0-3.751 1.532q.093.318.197.583c.453 1.156.484 2.64-.766 2.797c-2.108.263-2.583 1.713-2.593 2.578V18.5H5.53l1.914-5.583l.21.167z"/><path fill="url(#f2519ide)" d="M8.59 9.583c.084-.243.164-.534.227-.848l.252-.942q.109-.326.11-.689a2.189 2.189 0 1 0-3.751 1.532q.093.318.197.583c.453 1.156.484 2.64-.766 2.797c-2.108.263-2.583 1.713-2.593 2.578V18.5H5.53l1.914-5.583l.21.167z"/><path fill="#5B3A2A" d="M8.328 24.969c-2.042-.146-6.062-1.422-6.062-6.89c0-3.06 2.343-4.72 4.64-5.907c.69-.357.864-.562 1.016-.985c.857-2.381 3.969-6.124 9.312-6.124c6.97 0 10.907 7.718 10.907 12v.004h.009v4.402a3.5 3.5 0 0 1-3.5 3.5z"/><path fill="url(#f2519idf)" d="M8.328 24.969c-2.042-.146-6.062-1.422-6.062-6.89c0-3.06 2.343-4.72 4.64-5.907c.69-.357.864-.562 1.016-.985c.857-2.381 3.969-6.124 9.312-6.124c6.97 0 10.907 7.718 10.907 12v.004h.009v4.402a3.5 3.5 0 0 1-3.5 3.5z"/><path fill="url(#f2519idg)" d="M8.328 24.969c-2.042-.146-6.062-1.422-6.062-6.89c0-3.06 2.343-4.72 4.64-5.907c.69-.357.864-.562 1.016-.985c.857-2.381 3.969-6.124 9.312-6.124c6.97 0 10.907 7.718 10.907 12v.004h.009v4.402a3.5 3.5 0 0 1-3.5 3.5z"/><path fill="url(#f2519idh)" d="M8.328 24.969c-2.042-.146-6.062-1.422-6.062-6.89c0-3.06 2.343-4.72 4.64-5.907c.69-.357.864-.562 1.016-.985c.857-2.381 3.969-6.124 9.312-6.124c6.97 0 10.907 7.718 10.907 12v.004h.009v4.402a3.5 3.5 0 0 1-3.5 3.5z"/><g filter="url(#f2519id1c)"><ellipse cx="20.238" cy="13.89" fill="url(#f2519idi)" rx="5.419" ry="8.543" transform="rotate(-35 20.238 13.89)"/></g><path fill="url(#f2519idj)" d="M19.203 14.125c-1.986-1.703-4.015-2.062-4.937-2.062c-4.625 0-6.032 4.343-6.032 5.906c0 6.047 4.594 7 8.125 7h8.844c.438 0 1.39-.36 1.938-1.219c.302-.475.632-1.633-.563-2.828c-1.734-1.672-5.297-5.016-7.375-6.797"/><path fill="url(#f2519id17)" d="M19.203 14.125c-1.986-1.703-4.015-2.062-4.937-2.062c-4.625 0-6.032 4.343-6.032 5.906c0 6.047 4.594 7 8.125 7h8.844c.438 0 1.39-.36 1.938-1.219c.302-.475.632-1.633-.563-2.828c-1.734-1.672-5.297-5.016-7.375-6.797"/><path fill="#674430" d="M19.203 14.125c-1.986-1.703-4.015-2.062-4.937-2.062c-4.625 0-6.032 4.343-6.032 5.906c0 6.864 5.766 7 7.344 7c3.906 0 6.656-2.39 6.656-8.125a132 132 0 0 0-3.03-2.719"/><path fill="url(#f2519idk)" d="M19.203 14.125c-1.986-1.703-4.015-2.062-4.937-2.062c-4.625 0-6.032 4.343-6.032 5.906c0 6.864 5.766 7 7.344 7c3.906 0 6.656-2.39 6.656-8.125a132 132 0 0 0-3.03-2.719"/><path fill="url(#f2519idl)" d="M19.203 14.125c-1.986-1.703-4.015-2.062-4.937-2.062c-4.625 0-6.032 4.343-6.032 5.906c0 6.864 5.766 7 7.344 7c3.906 0 6.656-2.39 6.656-8.125a132 132 0 0 0-3.03-2.719"/><path fill="url(#f2519id18)" d="m3.115 7.145l1.62-1.192v2.813l-1.623-1.22a.25.25 0 0 1 .003-.401"/><rect width="1.049" height="4.422" x="4.531" y="5.578" fill="url(#f2519id19)" rx=".524"/><circle cx="6.766" cy="6.523" r=".5" fill="url(#f2519idm)"/><circle cx="6.766" cy="6.523" r=".5" fill="url(#f2519idn)"/><circle cx="6.766" cy="6.523" r=".5" fill="url(#f2519id1a)"/><g filter="url(#f2519id1d)"><path fill="url(#f2519id1b)" d="m4.392 6.523l-1.107.792h1.107z"/></g><g filter="url(#f2519id1e)"><ellipse cx="5.246" cy="7.404" fill="#EB5592" rx=".115" ry="1.056"/></g><g filter="url(#f2519id1f)"><path fill="url(#f2519ido)" d="m18.426 14.71l6.276 5.767c-1.515.528-5.349 1.266-8.567 0c-4.021-1.582-3.917-5.302-2.149-6.555c1.517-1.075 3.598 0 4.44.787"/></g><defs><radialGradient id="f2519id0" cx="0" cy="0" r="1" gradientTransform="matrix(.25543 3.60065 -1.6591 .1177 14.266 24.562)" gradientUnits="userSpaceOnUse"><stop offset=".122" stop-color="#735E82"/><stop offset="1" stop-color="#735E82" stop-opacity="0"/></radialGradient><radialGradient id="f2519id1" cx="0" cy="0" r="1" gradientTransform="matrix(.25543 3.60065 -1.6591 .1177 18.25 24.562)" gradientUnits="userSpaceOnUse"><stop offset=".122" stop-color="#735E82"/><stop offset="1" stop-color="#735E82" stop-opacity="0"/></radialGradient><radialGradient id="f2519id2" cx="0" cy="0" r="1" gradientTransform="rotate(148.655 14.707 5.855)scale(1.26237 1.49797)" gradientUnits="userSpaceOnUse"><stop stop-color="#F3C092"/><stop offset="1" stop-color="#F3C092" stop-opacity="0"/></radialGradient><radialGradient id="f2519id3" cx="0" cy="0" r="1" gradientTransform="rotate(152.771 14.394 6.887)scale(1.43519 1.55959)" gradientUnits="userSpaceOnUse"><stop stop-color="#F3C092"/><stop offset="1" stop-color="#F3C092" stop-opacity="0"/></radialGradient><radialGradient id="f2519id4" cx="0" cy="0" r="1" gradientTransform="rotate(152.771 13.981 8.59)scale(1.43519 1.55959)" gradientUnits="userSpaceOnUse"><stop stop-color="#F3C092"/><stop offset="1" stop-color="#F3C092" stop-opacity="0"/></radialGradient><radialGradient id="f2519id5" cx="0" cy="0" r="1" gradientTransform="rotate(152.771 13.6 10.16)scale(1.43519 1.55959)" gradientUnits="userSpaceOnUse"><stop stop-color="#F3C092"/><stop offset="1" stop-color="#F3C092" stop-opacity="0"/></radialGradient><radialGradient id="f2519id6" cx="0" cy="0" r="1" gradientTransform="rotate(152.771 13.2 11.816)scale(1.43519 1.55959)" gradientUnits="userSpaceOnUse"><stop stop-color="#F3C092"/><stop offset="1" stop-color="#F3C092" stop-opacity="0"/></radialGradient><radialGradient id="f2519id7" cx="0" cy="0" r="1" gradientTransform="rotate(152.771 12.808 13.433)scale(1.43519 1.55959)" gradientUnits="userSpaceOnUse"><stop stop-color="#F3C092"/><stop offset="1" stop-color="#F3C092" stop-opacity="0"/></radialGradient><radialGradient id="f2519id8" cx="0" cy="0" r="1" gradientTransform="matrix(-2.71365 .62051 -.36016 -1.57506 30.561 22.858)" gradientUnits="userSpaceOnUse"><stop stop-color="#F3C092"/><stop offset="1" stop-color="#F3C092" stop-opacity="0"/></radialGradient><radialGradient id="f2519id9" cx="0" cy="0" r="1" gradientTransform="rotate(-130.951 14.911 -1.938)scale(7.36342 8.27806)" gradientUnits="userSpaceOnUse"><stop offset=".7" stop-color="#4E3324" stop-opacity="0"/><stop offset="1" stop-color="#4E3324"/></radialGradient><radialGradient id="f2519ida" cx="0" cy="0" r="1" gradientTransform="rotate(108.36 2.101 5.255)scale(5.17613 2.6344)" gradientUnits="userSpaceOnUse"><stop stop-color="#E85897"/><stop offset="1" stop-color="#E85897" stop-opacity="0"/></radialGradient><radialGradient id="f2519idb" cx="0" cy="0" r="1" gradientTransform="matrix(1.19507 -3.85938 .99292 .30746 7.984 11.15)" gradientUnits="userSpaceOnUse"><stop stop-color="#9A0A37"/><stop offset=".731" stop-color="#9A0A37" stop-opacity="0"/></radialGradient><radialGradient id="f2519idc" cx="0" cy="0" r="1" gradientTransform="matrix(1.38995 0 0 2.90947 5.288 7.732)" gradientUnits="userSpaceOnUse"><stop stop-color="#9A0A37"/><stop offset=".737" stop-color="#9A0A37" stop-opacity="0"/></radialGradient><radialGradient id="f2519idd" cx="0" cy="0" r="1" gradientTransform="matrix(-.01123 1.61355 -1.59946 -.01113 6.8 6.512)" gradientUnits="userSpaceOnUse"><stop offset=".208" stop-color="#B19CDD"/><stop offset="1" stop-color="#B19CDD" stop-opacity="0"/></radialGradient><radialGradient id="f2519ide" cx="0" cy="0" r="1" gradientTransform="matrix(1.75476 1.5921 -1.85432 2.04377 2.852 12.403)" gradientUnits="userSpaceOnUse"><stop stop-color="#CA5677"/><stop offset="1" stop-color="#CA5677" stop-opacity="0"/></radialGradient><radialGradient id="f2519idf" cx="0" cy="0" r="1" gradientTransform="rotate(-118.56 11.573 9.123)scale(8.64576 13.9308)" gradientUnits="userSpaceOnUse"><stop stop-color="#612C4C"/><stop offset="1" stop-color="#5A2846" stop-opacity="0"/></radialGradient><radialGradient id="f2519idg" cx="0" cy="0" r="1" gradientTransform="matrix(-1.88318 5.86963 -4.49237 -1.4413 9.897 18.518)" gradientUnits="userSpaceOnUse"><stop stop-color="#412720"/><stop offset="1" stop-color="#4F332C" stop-opacity="0"/></radialGradient><radialGradient id="f2519idh" cx="0" cy="0" r="1" gradientTransform="matrix(-8.9592 6.79794 -9.19154 -12.1138 21.895 15.016)" gradientUnits="userSpaceOnUse"><stop stop-color="#7B5946"/><stop offset="1" stop-color="#7B5946" stop-opacity="0"/></radialGradient><radialGradient id="f2519idi" cx="0" cy="0" r="1" gradientTransform="rotate(170.277 12.1 7.563)scale(9.29475 12.3673)" gradientUnits="userSpaceOnUse"><stop stop-color="#8D6D5D"/><stop offset="1" stop-color="#8D6D5D" stop-opacity="0"/></radialGradient><radialGradient id="f2519idj" cx="0" cy="0" r="1" gradientTransform="matrix(-6.71873 -4.2338 6.53284 -10.36714 25.442 24.24)" gradientUnits="userSpaceOnUse"><stop offset=".098" stop-color="#694638"/><stop offset=".863" stop-color="#C6975D"/></radialGradient><radialGradient id="f2519idk" cx="0" cy="0" r="1" gradientTransform="matrix(-6.60037 -6.6794 5.43575 -5.37143 14.835 26.938)" gradientUnits="userSpaceOnUse"><stop offset=".368" stop-color="#612C4C"/><stop offset="1" stop-color="#5A2846" stop-opacity="0"/></radialGradient><radialGradient id="f2519idl" cx="0" cy="0" r="1" gradientTransform="matrix(-12.92524 -3.20634 2.69983 -10.88343 20.479 20.244)" gradientUnits="userSpaceOnUse"><stop offset=".833" stop-color="#665044" stop-opacity="0"/><stop offset="1" stop-color="#665044"/></radialGradient><radialGradient id="f2519idm" cx="0" cy="0" r="1" gradientTransform="matrix(-.40625 .5625 -.5015 -.3622 6.913 6.363)" gradientUnits="userSpaceOnUse"><stop offset=".006" stop-color="#433437"/><stop offset="1" stop-color="#3B2838"/></radialGradient><radialGradient id="f2519idn" cx="0" cy="0" r="1" gradientTransform="rotate(137.643 2.237 4.546)scale(.35946 .31624)" gradientUnits="userSpaceOnUse"><stop stop-color="#5C5051"/><stop offset="1" stop-color="#5C5051" stop-opacity="0"/></radialGradient><radialGradient id="f2519ido" cx="0" cy="0" r="1" gradientTransform="matrix(8.1408 3.68912 -2.60203 5.74192 16.756 16.23)" gradientUnits="userSpaceOnUse"><stop stop-color="#816558"/><stop offset="1" stop-color="#816558" stop-opacity="0"/></radialGradient><linearGradient id="f2519idp" x1="12.212" x2="13.141" y1="28.012" y2="28.111" gradientUnits="userSpaceOnUse"><stop stop-color="#8B8390"/><stop offset=".689" stop-color="#8B8390" stop-opacity="0"/></linearGradient><linearGradient id="f2519idq" x1="13.048" x2="13.141" y1="29.237" y2="28.111" gradientUnits="userSpaceOnUse"><stop stop-color="#8B8390"/><stop offset=".689" stop-color="#8B8390" stop-opacity="0"/></linearGradient><linearGradient id="f2519idr" x1="16.196" x2="17.125" y1="28.012" y2="28.111" gradientUnits="userSpaceOnUse"><stop stop-color="#8B8390"/><stop offset=".689" stop-color="#8B8390" stop-opacity="0"/></linearGradient><linearGradient id="f2519ids" x1="17.033" x2="17.125" y1="29.237" y2="28.111" gradientUnits="userSpaceOnUse"><stop stop-color="#8B8390"/><stop offset=".689" stop-color="#8B8390" stop-opacity="0"/></linearGradient><linearGradient id="f2519idt" x1="11.782" x2="11.782" y1="29.146" y2="29.966" gradientUnits="userSpaceOnUse"><stop stop-color="#8A858A"/><stop offset="1" stop-color="#B6ABC1"/></linearGradient><linearGradient id="f2519idu" x1="11.782" x2="11.782" y1="29.998" y2="29.797" gradientUnits="userSpaceOnUse"><stop stop-color="#9F79C0"/><stop offset="1" stop-color="#9F79C0" stop-opacity="0"/></linearGradient><linearGradient id="f2519idv" x1="13.247" x2="11.923" y1="29.966" y2="29.966" gradientUnits="userSpaceOnUse"><stop stop-color="#8A858A"/><stop offset="1" stop-color="#8A858A" stop-opacity="0"/></linearGradient><linearGradient id="f2519idw" x1="16.763" x2="16.763" y1="29.146" y2="29.966" gradientUnits="userSpaceOnUse"><stop stop-color="#8A858A"/><stop offset="1" stop-color="#B6ABC1"/></linearGradient><linearGradient id="f2519idx" x1="16.763" x2="16.763" y1="29.998" y2="29.797" gradientUnits="userSpaceOnUse"><stop stop-color="#9F79C0"/><stop offset="1" stop-color="#9F79C0" stop-opacity="0"/></linearGradient><linearGradient id="f2519idy" x1="29.001" x2="29.001" y1="2" y2="5.272" gradientUnits="userSpaceOnUse"><stop stop-color="#E9AF84"/><stop offset="1" stop-color="#E09F6C"/></linearGradient><linearGradient id="f2519idz" x1="28.79" x2="28.79" y1="5.219" y2="8.491" gradientUnits="userSpaceOnUse"><stop stop-color="#E9AF84"/><stop offset="1" stop-color="#E09F6C"/></linearGradient><linearGradient id="f2519id10" x1="28.79" x2="28.79" y1="8.625" y2="11.897" gradientUnits="userSpaceOnUse"><stop stop-color="#E9AF84"/><stop offset="1" stop-color="#E09F6C"/></linearGradient><linearGradient id="f2519id11" x1="28.79" x2="28.79" y1="11.766" y2="15.038" gradientUnits="userSpaceOnUse"><stop stop-color="#E9AF84"/><stop offset="1" stop-color="#E09F6C"/></linearGradient><linearGradient id="f2519id12" x1="28.79" x2="28.79" y1="15.078" y2="18.351" gradientUnits="userSpaceOnUse"><stop stop-color="#E9AF84"/><stop offset="1" stop-color="#E09F6C"/></linearGradient><linearGradient id="f2519id13" x1="28.79" x2="28.79" y1="18.313" y2="21.585" gradientUnits="userSpaceOnUse"><stop stop-color="#E9AF84"/><stop offset="1" stop-color="#E09F6C"/></linearGradient><linearGradient id="f2519id14" x1="27.259" x2="27.259" y1="21.719" y2="24.811" gradientUnits="userSpaceOnUse"><stop stop-color="#E9AF84"/><stop offset="1" stop-color="#E09F6C"/></linearGradient><linearGradient id="f2519id15" x1="28.092" x2="28.092" y1="26.049" y2="23.517" gradientUnits="userSpaceOnUse"><stop stop-color="#CD7E8E"/><stop offset="1" stop-color="#CD7E8E" stop-opacity="0"/></linearGradient><linearGradient id="f2519id16" x1="26.425" x2="26.425" y1="8.069" y2="16.448" gradientUnits="userSpaceOnUse"><stop stop-color="#4E3324" stop-opacity="0"/><stop offset="1" stop-color="#4E3324"/></linearGradient><linearGradient id="f2519id17" x1="18.06" x2="23.212" y1="26.036" y2="20.585" gradientUnits="userSpaceOnUse"><stop stop-color="#A35F50"/><stop offset="1" stop-color="#A35F50" stop-opacity="0"/></linearGradient><linearGradient id="f2519id18" x1="3.789" x2="3.789" y1="6.689" y2="8.766" gradientUnits="userSpaceOnUse"><stop stop-color="#F1C35B"/><stop offset="1" stop-color="#CE8B36"/></linearGradient><linearGradient id="f2519id19" x1="5.056" x2="5.056" y1="5.578" y2="10" gradientUnits="userSpaceOnUse"><stop stop-color="#E54F8E"/><stop offset="1" stop-color="#BC0C44"/></linearGradient><linearGradient id="f2519id1a" x1="6.667" x2="6.324" y1="6.131" y2="5.912" gradientUnits="userSpaceOnUse"><stop stop-color="#5C5051" stop-opacity="0"/><stop offset="1" stop-color="#5C5051"/></linearGradient><linearGradient id="f2519id1b" x1="3.481" x2="4.842" y1="7.144" y2="7.144" gradientUnits="userSpaceOnUse"><stop stop-color="#FFD765"/><stop offset="1" stop-color="#FFD765" stop-opacity="0"/></linearGradient><filter id="f2519id1c" width="18.223" height="20.318" x="11.127" y="3.731" color-interpolation-filters="sRGB" filterUnits="userSpaceOnUse"><feFlood flood-opacity="0" result="BackgroundImageFix"/><feBlend in="SourceGraphic" in2="BackgroundImageFix" result="shape"/><feGaussianBlur result="effect1_foregroundBlur_28327_4595" stdDeviation="1.25"/></filter><filter id="f2519id1d" width="1.607" height="1.292" x="3.035" y="6.273" color-interpolation-filters="sRGB" filterUnits="userSpaceOnUse"><feFlood flood-opacity="0" result="BackgroundImageFix"/><feBlend in="SourceGraphic" in2="BackgroundImageFix" result="shape"/><feGaussianBlur result="effect1_foregroundBlur_28327_4595" stdDeviation=".125"/></filter><filter id="f2519id1e" width=".73" height="2.611" x="4.881" y="6.098" color-interpolation-filters="sRGB" filterUnits="userSpaceOnUse"><feFlood flood-opacity="0" result="BackgroundImageFix"/><feBlend in="SourceGraphic" in2="BackgroundImageFix" result="shape"/><feGaussianBlur result="effect1_foregroundBlur_28327_4595" stdDeviation=".125"/></filter><filter id="f2519id1f" width="15.882" height="11.707" x="10.82" y="11.469" color-interpolation-filters="sRGB" filterUnits="userSpaceOnUse"><feFlood flood-opacity="0" result="BackgroundImageFix"/><feBlend in="SourceGraphic" in2="BackgroundImageFix" result="shape"/><feGaussianBlur result="effect1_foregroundBlur_28327_4595" stdDeviation="1"/></filter></defs></g></svg>