<svg xmlns="http://www.w3.org/2000/svg" xmlns:xlink="http://www.w3.org/1999/xlink" width="32" height="32" viewBox="0 0 32 32"><g fill="none"><path fill="url(#f2551id1e)" d="M14.438 9.88a3.25 3.25 0 0 1 4.596-.041l3.12 3.064a3.25 3.25 0 0 1 .043 4.596l-2.774 2.825a.4.4 0 0 1-.566.005l-.285-.28A1.944 1.944 0 0 0 16.1 23.03h-.007l.697.685c.296.29.3.765.01 1.06l-3.35 3.412a4.75 4.75 0 0 1-6.717.061L3.91 25.476a4.75 4.75 0 0 1-.062-6.717l3.35-3.412a.75.75 0 0 1 1.06-.01l.738.725l.002-.005a1.946 1.946 0 0 0 2.955-2.507l-.285-.28a.4.4 0 0 1-.005-.566z"/><path fill="url(#f2551id0)" d="M14.438 9.88a3.25 3.25 0 0 1 4.596-.041l3.12 3.064a3.25 3.25 0 0 1 .043 4.596l-2.774 2.825a.4.4 0 0 1-.566.005l-.285-.28A1.944 1.944 0 0 0 16.1 23.03h-.007l.697.685c.296.29.3.765.01 1.06l-3.35 3.412a4.75 4.75 0 0 1-6.717.061L3.91 25.476a4.75 4.75 0 0 1-.062-6.717l3.35-3.412a.75.75 0 0 1 1.06-.01l.738.725l.002-.005a1.946 1.946 0 0 0 2.955-2.507l-.285-.28a.4.4 0 0 1-.005-.566z"/><path fill="url(#f2551id1f)" d="M14.438 9.88a3.25 3.25 0 0 1 4.596-.041l3.12 3.064a3.25 3.25 0 0 1 .043 4.596l-2.774 2.825a.4.4 0 0 1-.566.005l-.285-.28A1.944 1.944 0 0 0 16.1 23.03h-.007l.697.685c.296.29.3.765.01 1.06l-3.35 3.412a4.75 4.75 0 0 1-6.717.061L3.91 25.476a4.75 4.75 0 0 1-.062-6.717l3.35-3.412a.75.75 0 0 1 1.06-.01l.738.725l.002-.005a1.946 1.946 0 0 0 2.955-2.507l-.285-.28a.4.4 0 0 1-.005-.566z"/><path fill="url(#f2551id1g)" d="M14.438 9.88a3.25 3.25 0 0 1 4.596-.041l3.12 3.064a3.25 3.25 0 0 1 .043 4.596l-2.774 2.825a.4.4 0 0 1-.566.005l-.285-.28A1.944 1.944 0 0 0 16.1 23.03h-.007l.697.685c.296.29.3.765.01 1.06l-3.35 3.412a4.75 4.75 0 0 1-6.717.061L3.91 25.476a4.75 4.75 0 0 1-.062-6.717l3.35-3.412a.75.75 0 0 1 1.06-.01l.738.725l.002-.005a1.946 1.946 0 0 0 2.955-2.507l-.285-.28a.4.4 0 0 1-.005-.566z"/><path fill="url(#f2551id1h)" d="M14.438 9.88a3.25 3.25 0 0 1 4.596-.041l3.12 3.064a3.25 3.25 0 0 1 .043 4.596l-2.774 2.825a.4.4 0 0 1-.566.005l-.285-.28A1.944 1.944 0 0 0 16.1 23.03h-.007l.697.685c.296.29.3.765.01 1.06l-3.35 3.412a4.75 4.75 0 0 1-6.717.061L3.91 25.476a4.75 4.75 0 0 1-.062-6.717l3.35-3.412a.75.75 0 0 1 1.06-.01l.738.725l.002-.005a1.946 1.946 0 0 0 2.955-2.507l-.285-.28a.4.4 0 0 1-.005-.566z"/><path fill="url(#f2551id1i)" fill-opacity=".8" d="M14.438 9.88a3.25 3.25 0 0 1 4.596-.041l3.12 3.064a3.25 3.25 0 0 1 .043 4.596l-2.774 2.825a.4.4 0 0 1-.566.005l-.285-.28A1.944 1.944 0 0 0 16.1 23.03h-.007l.697.685c.296.29.3.765.01 1.06l-3.35 3.412a4.75 4.75 0 0 1-6.717.061L3.91 25.476a4.75 4.75 0 0 1-.062-6.717l3.35-3.412a.75.75 0 0 1 1.06-.01l.738.725l.002-.005a1.946 1.946 0 0 0 2.955-2.507l-.285-.28a.4.4 0 0 1-.005-.566z"/><path fill="url(#f2551id1)" fill-opacity=".8" d="M14.438 9.88a3.25 3.25 0 0 1 4.596-.041l3.12 3.064a3.25 3.25 0 0 1 .043 4.596l-2.774 2.825a.4.4 0 0 1-.566.005l-.285-.28A1.944 1.944 0 0 0 16.1 23.03h-.007l.697.685c.296.29.3.765.01 1.06l-3.35 3.412a4.75 4.75 0 0 1-6.717.061L3.91 25.476a4.75 4.75 0 0 1-.062-6.717l3.35-3.412a.75.75 0 0 1 1.06-.01l.738.725l.002-.005a1.946 1.946 0 0 0 2.955-2.507l-.285-.28a.4.4 0 0 1-.005-.566z"/><path fill="url(#f2551id2)" fill-opacity=".8" d="M14.438 9.88a3.25 3.25 0 0 1 4.596-.041l3.12 3.064a3.25 3.25 0 0 1 .043 4.596l-2.774 2.825a.4.4 0 0 1-.566.005l-.285-.28A1.944 1.944 0 0 0 16.1 23.03h-.007l.697.685c.296.29.3.765.01 1.06l-3.35 3.412a4.75 4.75 0 0 1-6.717.061L3.91 25.476a4.75 4.75 0 0 1-.062-6.717l3.35-3.412a.75.75 0 0 1 1.06-.01l.738.725l.002-.005a1.946 1.946 0 0 0 2.955-2.507l-.285-.28a.4.4 0 0 1-.005-.566z"/><path fill="url(#f2551id3)" fill-opacity=".8" d="M14.438 9.88a3.25 3.25 0 0 1 4.596-.041l3.12 3.064a3.25 3.25 0 0 1 .043 4.596l-2.774 2.825a.4.4 0 0 1-.566.005l-.285-.28A1.944 1.944 0 0 0 16.1 23.03h-.007l.697.685c.296.29.3.765.01 1.06l-3.35 3.412a4.75 4.75 0 0 1-6.717.061L3.91 25.476a4.75 4.75 0 0 1-.062-6.717l3.35-3.412a.75.75 0 0 1 1.06-.01l.738.725l.002-.005a1.946 1.946 0 0 0 2.955-2.507l-.285-.28a.4.4 0 0 1-.005-.566z"/><path fill="url(#f2551id1j)" fill-opacity=".8" d="M14.438 9.88a3.25 3.25 0 0 1 4.596-.041l3.12 3.064a3.25 3.25 0 0 1 .043 4.596l-2.774 2.825a.4.4 0 0 1-.566.005l-.285-.28A1.944 1.944 0 0 0 16.1 23.03h-.007l.697.685c.296.29.3.765.01 1.06l-3.35 3.412a4.75 4.75 0 0 1-6.717.061L3.91 25.476a4.75 4.75 0 0 1-.062-6.717l3.35-3.412a.75.75 0 0 1 1.06-.01l.738.725l.002-.005a1.946 1.946 0 0 0 2.955-2.507l-.285-.28a.4.4 0 0 1-.005-.566z"/><path fill="url(#f2551id1k)" fill-opacity=".6" d="M14.438 9.88a3.25 3.25 0 0 1 4.596-.041l3.12 3.064a3.25 3.25 0 0 1 .043 4.596l-2.774 2.825a.4.4 0 0 1-.566.005l-.285-.28A1.944 1.944 0 0 0 16.1 23.03h-.007l.697.685c.296.29.3.765.01 1.06l-3.35 3.412a4.75 4.75 0 0 1-6.717.061L3.91 25.476a4.75 4.75 0 0 1-.062-6.717l3.35-3.412a.75.75 0 0 1 1.06-.01l.738.725l.002-.005a1.946 1.946 0 0 0 2.955-2.507l-.285-.28a.4.4 0 0 1-.005-.566z"/><path fill="url(#f2551id1l)" fill-opacity=".8" d="M14.438 9.88a3.25 3.25 0 0 1 4.596-.041l3.12 3.064a3.25 3.25 0 0 1 .043 4.596l-2.774 2.825a.4.4 0 0 1-.566.005l-.285-.28A1.944 1.944 0 0 0 16.1 23.03h-.007l.697.685c.296.29.3.765.01 1.06l-3.35 3.412a4.75 4.75 0 0 1-6.717.061L3.91 25.476a4.75 4.75 0 0 1-.062-6.717l3.35-3.412a.75.75 0 0 1 1.06-.01l.738.725l.002-.005a1.946 1.946 0 0 0 2.955-2.507l-.285-.28a.4.4 0 0 1-.005-.566z"/><path fill="url(#f2551id1m)" fill-opacity=".8" d="M14.438 9.88a3.25 3.25 0 0 1 4.596-.041l3.12 3.064a3.25 3.25 0 0 1 .043 4.596l-2.774 2.825a.4.4 0 0 1-.566.005l-.285-.28A1.944 1.944 0 0 0 16.1 23.03h-.007l.697.685c.296.29.3.765.01 1.06l-3.35 3.412a4.75 4.75 0 0 1-6.717.061L3.91 25.476a4.75 4.75 0 0 1-.062-6.717l3.35-3.412a.75.75 0 0 1 1.06-.01l.738.725l.002-.005a1.946 1.946 0 0 0 2.955-2.507l-.285-.28a.4.4 0 0 1-.005-.566z"/><path fill="url(#f2551id1n)" fill-opacity=".8" d="M14.438 9.88a3.25 3.25 0 0 1 4.596-.041l3.12 3.064a3.25 3.25 0 0 1 .043 4.596l-2.774 2.825a.4.4 0 0 1-.566.005l-.285-.28A1.944 1.944 0 0 0 16.1 23.03h-.007l.697.685c.296.29.3.765.01 1.06l-3.35 3.412a4.75 4.75 0 0 1-6.717.061L3.91 25.476a4.75 4.75 0 0 1-.062-6.717l3.35-3.412a.75.75 0 0 1 1.06-.01l.738.725l.002-.005a1.946 1.946 0 0 0 2.955-2.507l-.285-.28a.4.4 0 0 1-.005-.566z"/><path fill="url(#f2551id1o)" fill-opacity=".8" d="M14.438 9.88a3.25 3.25 0 0 1 4.596-.041l3.12 3.064a3.25 3.25 0 0 1 .043 4.596l-2.774 2.825a.4.4 0 0 1-.566.005l-.285-.28A1.944 1.944 0 0 0 16.1 23.03h-.007l.697.685c.296.29.3.765.01 1.06l-3.35 3.412a4.75 4.75 0 0 1-6.717.061L3.91 25.476a4.75 4.75 0 0 1-.062-6.717l3.35-3.412a.75.75 0 0 1 1.06-.01l.738.725l.002-.005a1.946 1.946 0 0 0 2.955-2.507l-.285-.28a.4.4 0 0 1-.005-.566z"/><path fill="url(#f2551id1p)" fill-opacity=".8" d="M14.438 9.88a3.25 3.25 0 0 1 4.596-.041l3.12 3.064a3.25 3.25 0 0 1 .043 4.596l-2.774 2.825a.4.4 0 0 1-.566.005l-.285-.28A1.944 1.944 0 0 0 16.1 23.03h-.007l.697.685c.296.29.3.765.01 1.06l-3.35 3.412a4.75 4.75 0 0 1-6.717.061L3.91 25.476a4.75 4.75 0 0 1-.062-6.717l3.35-3.412a.75.75 0 0 1 1.06-.01l.738.725l.002-.005a1.946 1.946 0 0 0 2.955-2.507l-.285-.28a.4.4 0 0 1-.005-.566z"/><path fill="url(#f2551id4)" d="M14.438 9.88a3.25 3.25 0 0 1 4.596-.041l3.12 3.064a3.25 3.25 0 0 1 .043 4.596l-2.774 2.825a.4.4 0 0 1-.566.005l-.285-.28A1.944 1.944 0 0 0 16.1 23.03h-.007l.697.685c.296.29.3.765.01 1.06l-3.35 3.412a4.75 4.75 0 0 1-6.717.061L3.91 25.476a4.75 4.75 0 0 1-.062-6.717l3.35-3.412a.75.75 0 0 1 1.06-.01l.738.725l.002-.005a1.946 1.946 0 0 0 2.955-2.507l-.285-.28a.4.4 0 0 1-.005-.566z"/><path fill="url(#f2551id5)" fill-opacity=".8" d="M14.438 9.88a3.25 3.25 0 0 1 4.596-.041l3.12 3.064a3.25 3.25 0 0 1 .043 4.596l-2.774 2.825a.4.4 0 0 1-.566.005l-.285-.28A1.944 1.944 0 0 0 16.1 23.03h-.007l.697.685c.296.29.3.765.01 1.06l-3.35 3.412a4.75 4.75 0 0 1-6.717.061L3.91 25.476a4.75 4.75 0 0 1-.062-6.717l3.35-3.412a.75.75 0 0 1 1.06-.01l.738.725l.002-.005a1.946 1.946 0 0 0 2.955-2.507l-.285-.28a.4.4 0 0 1-.005-.566z"/><path fill="url(#f2551id6)" fill-opacity=".8" d="M14.438 9.88a3.25 3.25 0 0 1 4.596-.041l3.12 3.064a3.25 3.25 0 0 1 .043 4.596l-2.774 2.825a.4.4 0 0 1-.566.005l-.285-.28A1.944 1.944 0 0 0 16.1 23.03h-.007l.697.685c.296.29.3.765.01 1.06l-3.35 3.412a4.75 4.75 0 0 1-6.717.061L3.91 25.476a4.75 4.75 0 0 1-.062-6.717l3.35-3.412a.75.75 0 0 1 1.06-.01l.738.725l.002-.005a1.946 1.946 0 0 0 2.955-2.507l-.285-.28a.4.4 0 0 1-.005-.566z"/><path fill="url(#f2551id7)" fill-opacity=".8" d="M14.438 9.88a3.25 3.25 0 0 1 4.596-.041l3.12 3.064a3.25 3.25 0 0 1 .043 4.596l-2.774 2.825a.4.4 0 0 1-.566.005l-.285-.28A1.944 1.944 0 0 0 16.1 23.03h-.007l.697.685c.296.29.3.765.01 1.06l-3.35 3.412a4.75 4.75 0 0 1-6.717.061L3.91 25.476a4.75 4.75 0 0 1-.062-6.717l3.35-3.412a.75.75 0 0 1 1.06-.01l.738.725l.002-.005a1.946 1.946 0 0 0 2.955-2.507l-.285-.28a.4.4 0 0 1-.005-.566z"/><path fill="url(#f2551id8)" fill-opacity=".8" d="M14.438 9.88a3.25 3.25 0 0 1 4.596-.041l3.12 3.064a3.25 3.25 0 0 1 .043 4.596l-2.774 2.825a.4.4 0 0 1-.566.005l-.285-.28A1.944 1.944 0 0 0 16.1 23.03h-.007l.697.685c.296.29.3.765.01 1.06l-3.35 3.412a4.75 4.75 0 0 1-6.717.061L3.91 25.476a4.75 4.75 0 0 1-.062-6.717l3.35-3.412a.75.75 0 0 1 1.06-.01l.738.725l.002-.005a1.946 1.946 0 0 0 2.955-2.507l-.285-.28a.4.4 0 0 1-.005-.566z"/><path fill="url(#f2551id9)" fill-opacity=".8" d="M14.438 9.88a3.25 3.25 0 0 1 4.596-.041l3.12 3.064a3.25 3.25 0 0 1 .043 4.596l-2.774 2.825a.4.4 0 0 1-.566.005l-.285-.28A1.944 1.944 0 0 0 16.1 23.03h-.007l.697.685c.296.29.3.765.01 1.06l-3.35 3.412a4.75 4.75 0 0 1-6.717.061L3.91 25.476a4.75 4.75 0 0 1-.062-6.717l3.35-3.412a.75.75 0 0 1 1.06-.01l.738.725l.002-.005a1.946 1.946 0 0 0 2.955-2.507l-.285-.28a.4.4 0 0 1-.005-.566z"/><path fill="url(#f2551ida)" fill-opacity=".3" d="M14.438 9.88a3.25 3.25 0 0 1 4.596-.041l3.12 3.064a3.25 3.25 0 0 1 .043 4.596l-2.774 2.825a.4.4 0 0 1-.566.005l-.285-.28A1.944 1.944 0 0 0 16.1 23.03h-.007l.697.685c.296.29.3.765.01 1.06l-3.35 3.412a4.75 4.75 0 0 1-6.717.061L3.91 25.476a4.75 4.75 0 0 1-.062-6.717l3.35-3.412a.75.75 0 0 1 1.06-.01l.738.725l.002-.005a1.946 1.946 0 0 0 2.955-2.507l-.285-.28a.4.4 0 0 1-.005-.566z"/><path fill="url(#f2551idb)" fill-opacity=".3" d="M14.438 9.88a3.25 3.25 0 0 1 4.596-.041l3.12 3.064a3.25 3.25 0 0 1 .043 4.596l-2.774 2.825a.4.4 0 0 1-.566.005l-.285-.28A1.944 1.944 0 0 0 16.1 23.03h-.007l.697.685c.296.29.3.765.01 1.06l-3.35 3.412a4.75 4.75 0 0 1-6.717.061L3.91 25.476a4.75 4.75 0 0 1-.062-6.717l3.35-3.412a.75.75 0 0 1 1.06-.01l.738.725l.002-.005a1.946 1.946 0 0 0 2.955-2.507l-.285-.28a.4.4 0 0 1-.005-.566z"/><path fill="url(#f2551idc)" fill-opacity=".8" d="M14.438 9.88a3.25 3.25 0 0 1 4.596-.041l3.12 3.064a3.25 3.25 0 0 1 .043 4.596l-2.774 2.825a.4.4 0 0 1-.566.005l-.285-.28A1.944 1.944 0 0 0 16.1 23.03h-.007l.697.685c.296.29.3.765.01 1.06l-3.35 3.412a4.75 4.75 0 0 1-6.717.061L3.91 25.476a4.75 4.75 0 0 1-.062-6.717l3.35-3.412a.75.75 0 0 1 1.06-.01l.738.725l.002-.005a1.946 1.946 0 0 0 2.955-2.507l-.285-.28a.4.4 0 0 1-.005-.566z"/><path fill="url(#f2551idd)" fill-opacity=".8" d="M14.438 9.88a3.25 3.25 0 0 1 4.596-.041l3.12 3.064a3.25 3.25 0 0 1 .043 4.596l-2.774 2.825a.4.4 0 0 1-.566.005l-.285-.28A1.944 1.944 0 0 0 16.1 23.03h-.007l.697.685c.296.29.3.765.01 1.06l-3.35 3.412a4.75 4.75 0 0 1-6.717.061L3.91 25.476a4.75 4.75 0 0 1-.062-6.717l3.35-3.412a.75.75 0 0 1 1.06-.01l.738.725l.002-.005a1.946 1.946 0 0 0 2.955-2.507l-.285-.28a.4.4 0 0 1-.005-.566z"/><path fill="url(#f2551ide)" fill-opacity=".8" d="M14.438 9.88a3.25 3.25 0 0 1 4.596-.041l3.12 3.064a3.25 3.25 0 0 1 .043 4.596l-2.774 2.825a.4.4 0 0 1-.566.005l-.285-.28A1.944 1.944 0 0 0 16.1 23.03h-.007l.697.685c.296.29.3.765.01 1.06l-3.35 3.412a4.75 4.75 0 0 1-6.717.061L3.91 25.476a4.75 4.75 0 0 1-.062-6.717l3.35-3.412a.75.75 0 0 1 1.06-.01l.738.725l.002-.005a1.946 1.946 0 0 0 2.955-2.507l-.285-.28a.4.4 0 0 1-.005-.566z"/><path fill="url(#f2551id1q)" d="m24.93 5.329l1.71 1.695l-7.878 8.729a.75.75 0 0 1-1.078.036l-1.455-1.407a.75.75 0 0 1 .014-1.092z"/><path fill="url(#f2551id1r)" d="m24.93 5.329l1.71 1.695l-7.878 8.729a.75.75 0 0 1-1.078.036l-1.455-1.407a.75.75 0 0 1 .014-1.092z"/><path fill="url(#f2551id1s)" fill-opacity=".8" d="m24.93 5.329l1.71 1.695l-7.878 8.729a.75.75 0 0 1-1.078.036l-1.455-1.407a.75.75 0 0 1 .014-1.092z"/><path fill="url(#f2551id1t)" fill-opacity=".8" d="m24.93 5.329l1.71 1.695l-7.878 8.729a.75.75 0 0 1-1.078.036l-1.455-1.407a.75.75 0 0 1 .014-1.092z"/><path fill="url(#f2551id1u)" fill-opacity=".8" d="m24.93 5.329l1.71 1.695l-7.878 8.729a.75.75 0 0 1-1.078.036l-1.455-1.407a.75.75 0 0 1 .014-1.092z"/><path fill="#825250" d="M25.774 2.997a1.25 1.25 0 0 1 1.92-.17l1.38 1.4a1.25 1.25 0 0 1-.174 1.904l-1.616 1.126a.75.75 0 0 1-.966-.091l-1.57-1.612a.75.75 0 0 1-.082-.949z"/><path fill="url(#f2551idf)" d="M25.774 2.997a1.25 1.25 0 0 1 1.92-.17l1.38 1.4a1.25 1.25 0 0 1-.174 1.904l-1.616 1.126a.75.75 0 0 1-.966-.091l-1.57-1.612a.75.75 0 0 1-.082-.949z"/><path fill="url(#f2551id1v)" d="M25.774 2.997a1.25 1.25 0 0 1 1.92-.17l1.38 1.4a1.25 1.25 0 0 1-.174 1.904l-1.616 1.126a.75.75 0 0 1-.966-.091l-1.57-1.612a.75.75 0 0 1-.082-.949z"/><path fill="url(#f2551id1w)" d="M25.774 2.997a1.25 1.25 0 0 1 1.92-.17l1.38 1.4a1.25 1.25 0 0 1-.174 1.904l-1.616 1.126a.75.75 0 0 1-.966-.091l-1.57-1.612a.75.75 0 0 1-.082-.949z"/><path fill="url(#f2551id1x)" d="M25.774 2.997a1.25 1.25 0 0 1 1.92-.17l1.38 1.4a1.25 1.25 0 0 1-.174 1.904l-1.616 1.126a.75.75 0 0 1-.966-.091l-1.57-1.612a.75.75 0 0 1-.082-.949z"/><circle cx="27.882" cy="7.583" r=".66" fill="url(#f2551idg)"/><circle cx="27.882" cy="7.583" r=".66" fill="url(#f2551idh)"/><circle cx="24.339" cy="3.977" r=".66" fill="url(#f2551idi)"/><circle cx="24.339" cy="3.977" r=".66" fill="url(#f2551idj)"/><circle cx="29.375" cy="6.442" r=".66" fill="url(#f2551idk)"/><circle cx="29.375" cy="6.442" r=".66" fill="url(#f2551idl)"/><circle cx="25.456" cy="2.512" r=".66" fill="url(#f2551idm)"/><circle cx="25.456" cy="2.512" r=".66" fill="url(#f2551idn)"/><path fill="url(#f2551id1y)" d="M8.19 20.788a.793.793 0 0 1 1.12 0l1.946 1.945a.793.793 0 1 1-1.122 1.121L8.19 21.909a.793.793 0 0 1 0-1.121"/><path fill="url(#f2551id1z)" d="M6.612 23.07a.5.5 0 0 1 .754-.05l1.765 1.786a.5.5 0 0 1-.061.756l-3.138 2.291a.4.4 0 0 1-.518-.04L4.3 26.7a.4.4 0 0 1-.036-.524z"/><path fill="url(#f2551id20)" d="M6.612 23.07a.5.5 0 0 1 .754-.05l1.765 1.786a.5.5 0 0 1-.061.756l-3.138 2.291a.4.4 0 0 1-.518-.04L4.3 26.7a.4.4 0 0 1-.036-.524z"/><path fill="url(#f2551id21)" d="M6.612 23.07a.5.5 0 0 1 .754-.05l1.765 1.786a.5.5 0 0 1-.061.756l-3.138 2.291a.4.4 0 0 1-.518-.04L4.3 26.7a.4.4 0 0 1-.036-.524z"/><path fill="url(#f2551id22)" d="M6.612 23.07a.5.5 0 0 1 .754-.05l1.765 1.786a.5.5 0 0 1-.061.756l-3.138 2.291a.4.4 0 0 1-.518-.04L4.3 26.7a.4.4 0 0 1-.036-.524z"/><path fill="url(#f2551id23)" d="M6.612 23.07a.5.5 0 0 1 .754-.05l1.765 1.786a.5.5 0 0 1-.061.756l-3.138 2.291a.4.4 0 0 1-.518-.04L4.3 26.7a.4.4 0 0 1-.036-.524z"/><path fill="url(#f2551id24)" fill-opacity=".8" d="M6.612 23.07a.5.5 0 0 1 .754-.05l1.765 1.786a.5.5 0 0 1-.061.756l-3.138 2.291a.4.4 0 0 1-.518-.04L4.3 26.7a.4.4 0 0 1-.036-.524z"/><path fill="url(#f2551id25)" fill-opacity=".8" d="M6.612 23.07a.5.5 0 0 1 .754-.05l1.765 1.786a.5.5 0 0 1-.061.756l-3.138 2.291a.4.4 0 0 1-.518-.04L4.3 26.7a.4.4 0 0 1-.036-.524z"/><path fill="url(#f2551id26)" fill-opacity=".4" d="M6.612 23.07a.5.5 0 0 1 .754-.05l1.765 1.786a.5.5 0 0 1-.061.756l-3.138 2.291a.4.4 0 0 1-.518-.04L4.3 26.7a.4.4 0 0 1-.036-.524z"/><path fill="url(#f2551id27)" fill-opacity=".5" d="M6.612 23.07a.5.5 0 0 1 .754-.05l1.765 1.786a.5.5 0 0 1-.061.756l-3.138 2.291a.4.4 0 0 1-.518-.04L4.3 26.7a.4.4 0 0 1-.036-.524z"/><path fill="#2C2630" d="M14.426 20.405c-.008-.036-.052-.046-.08-.025a.576.576 0 1 1-.342-1.04c.1 0 .23.041.318.092c.1.056.287.163.43.326c.194.22.317.531.297.982c-.008.188-.07.37-.146.534s-.174.33-.269.486l-.074.12c-.171.277-.317.512-.383.728c-.08.261-.096.517-.03.71c.007.018.031.022.045.007a.575.575 0 0 1 .995.396a.576.576 0 0 1-.576.576c-.558 0-.906-.425-1.03-.782c-.125-.36-.077-.758.022-1.083c.091-.296.284-.607.45-.873l.07-.113c.094-.153.176-.293.235-.422a.9.9 0 0 0 .092-.31a1.1 1.1 0 0 0-.024-.31"/><path fill="url(#f2551ido)" d="M14.426 20.405c-.008-.036-.052-.046-.08-.025a.576.576 0 1 1-.342-1.04c.1 0 .23.041.318.092c.1.056.287.163.43.326c.194.22.317.531.297.982c-.008.188-.07.37-.146.534s-.174.33-.269.486l-.074.12c-.171.277-.317.512-.383.728c-.08.261-.096.517-.03.71c.007.018.031.022.045.007a.575.575 0 0 1 .995.396a.576.576 0 0 1-.576.576c-.558 0-.906-.425-1.03-.782c-.125-.36-.077-.758.022-1.083c.091-.296.284-.607.45-.873l.07-.113c.094-.153.176-.293.235-.422a.9.9 0 0 0 .092-.31a1.1 1.1 0 0 0-.024-.31"/><path fill="url(#f2551idp)" d="M14.426 20.405c-.008-.036-.052-.046-.08-.025a.576.576 0 1 1-.342-1.04c.1 0 .23.041.318.092c.1.056.287.163.43.326c.194.22.317.531.297.982c-.008.188-.07.37-.146.534s-.174.33-.269.486l-.074.12c-.171.277-.317.512-.383.728c-.08.261-.096.517-.03.71c.007.018.031.022.045.007a.575.575 0 0 1 .995.396a.576.576 0 0 1-.576.576c-.558 0-.906-.425-1.03-.782c-.125-.36-.077-.758.022-1.083c.091-.296.284-.607.45-.873l.07-.113c.094-.153.176-.293.235-.422a.9.9 0 0 0 .092-.31a1.1 1.1 0 0 0-.024-.31"/><path fill="url(#f2551idq)" d="M14.426 20.405c-.008-.036-.052-.046-.08-.025a.576.576 0 1 1-.342-1.04c.1 0 .23.041.318.092c.1.056.287.163.43.326c.194.22.317.531.297.982c-.008.188-.07.37-.146.534s-.174.33-.269.486l-.074.12c-.171.277-.317.512-.383.728c-.08.261-.096.517-.03.71c.007.018.031.022.045.007a.575.575 0 0 1 .995.396a.576.576 0 0 1-.576.576c-.558 0-.906-.425-1.03-.782c-.125-.36-.077-.758.022-1.083c.091-.296.284-.607.45-.873l.07-.113c.094-.153.176-.293.235-.422a.9.9 0 0 0 .092-.31a1.1 1.1 0 0 0-.024-.31"/><path fill="url(#f2551idr)" d="M14.426 20.405c-.008-.036-.052-.046-.08-.025a.576.576 0 1 1-.342-1.04c.1 0 .23.041.318.092c.1.056.287.163.43.326c.194.22.317.531.297.982c-.008.188-.07.37-.146.534s-.174.33-.269.486l-.074.12c-.171.277-.317.512-.383.728c-.08.261-.096.517-.03.71c.007.018.031.022.045.007a.575.575 0 0 1 .995.396a.576.576 0 0 1-.576.576c-.558 0-.906-.425-1.03-.782c-.125-.36-.077-.758.022-1.083c.091-.296.284-.607.45-.873l.07-.113c.094-.153.176-.293.235-.422a.9.9 0 0 0 .092-.31a1.1 1.1 0 0 0-.024-.31"/><path fill="url(#f2551ids)" d="M14.426 20.405c-.008-.036-.052-.046-.08-.025a.576.576 0 1 1-.342-1.04c.1 0 .23.041.318.092c.1.056.287.163.43.326c.194.22.317.531.297.982c-.008.188-.07.37-.146.534s-.174.33-.269.486l-.074.12c-.171.277-.317.512-.383.728c-.08.261-.096.517-.03.71c.007.018.031.022.045.007a.575.575 0 0 1 .995.396a.576.576 0 0 1-.576.576c-.558 0-.906-.425-1.03-.782c-.125-.36-.077-.758.022-1.083c.091-.296.284-.607.45-.873l.07-.113c.094-.153.176-.293.235-.422a.9.9 0 0 0 .092-.31a1.1 1.1 0 0 0-.024-.31"/><path fill="url(#f2551idt)" d="M14.426 20.405c-.008-.036-.052-.046-.08-.025a.576.576 0 1 1-.342-1.04c.1 0 .23.041.318.092c.1.056.287.163.43.326c.194.22.317.531.297.982c-.008.188-.07.37-.146.534s-.174.33-.269.486l-.074.12c-.171.277-.317.512-.383.728c-.08.261-.096.517-.03.71c.007.018.031.022.045.007a.575.575 0 0 1 .995.396a.576.576 0 0 1-.576.576c-.558 0-.906-.425-1.03-.782c-.125-.36-.077-.758.022-1.083c.091-.296.284-.607.45-.873l.07-.113c.094-.153.176-.293.235-.422a.9.9 0 0 0 .092-.31a1.1 1.1 0 0 0-.024-.31"/><path fill="url(#f2551idu)" d="M14.426 20.405c-.008-.036-.052-.046-.08-.025a.576.576 0 1 1-.342-1.04c.1 0 .23.041.318.092c.1.056.287.163.43.326c.194.22.317.531.297.982c-.008.188-.07.37-.146.534s-.174.33-.269.486l-.074.12c-.171.277-.317.512-.383.728c-.08.261-.096.517-.03.71c.007.018.031.022.045.007a.575.575 0 0 1 .995.396a.576.576 0 0 1-.576.576c-.558 0-.906-.425-1.03-.782c-.125-.36-.077-.758.022-1.083c.091-.296.284-.607.45-.873l.07-.113c.094-.153.176-.293.235-.422a.9.9 0 0 0 .092-.31a1.1 1.1 0 0 0-.024-.31"/><path fill="url(#f2551idv)" d="M14.426 20.405c-.008-.036-.052-.046-.08-.025a.576.576 0 1 1-.342-1.04c.1 0 .23.041.318.092c.1.056.287.163.43.326c.194.22.317.531.297.982c-.008.188-.07.37-.146.534s-.174.33-.269.486l-.074.12c-.171.277-.317.512-.383.728c-.08.261-.096.517-.03.71c.007.018.031.022.045.007a.575.575 0 0 1 .995.396a.576.576 0 0 1-.576.576c-.558 0-.906-.425-1.03-.782c-.125-.36-.077-.758.022-1.083c.091-.296.284-.607.45-.873l.07-.113c.094-.153.176-.293.235-.422a.9.9 0 0 0 .092-.31a1.1 1.1 0 0 0-.024-.31"/><path fill="url(#f2551idw)" d="M14.426 20.405c-.008-.036-.052-.046-.08-.025a.576.576 0 1 1-.342-1.04c.1 0 .23.041.318.092c.1.056.287.163.43.326c.194.22.317.531.297.982c-.008.188-.07.37-.146.534s-.174.33-.269.486l-.074.12c-.171.277-.317.512-.383.728c-.08.261-.096.517-.03.71c.007.018.031.022.045.007a.575.575 0 0 1 .995.396a.576.576 0 0 1-.576.576c-.558 0-.906-.425-1.03-.782c-.125-.36-.077-.758.022-1.083c.091-.296.284-.607.45-.873l.07-.113c.094-.153.176-.293.235-.422a.9.9 0 0 0 .092-.31a1.1 1.1 0 0 0-.024-.31"/><path fill="url(#f2551idx)" d="M14.426 20.405c-.008-.036-.052-.046-.08-.025a.576.576 0 1 1-.342-1.04c.1 0 .23.041.318.092c.1.056.287.163.43.326c.194.22.317.531.297.982c-.008.188-.07.37-.146.534s-.174.33-.269.486l-.074.12c-.171.277-.317.512-.383.728c-.08.261-.096.517-.03.71c.007.018.031.022.045.007a.575.575 0 0 1 .995.396a.576.576 0 0 1-.576.576c-.558 0-.906-.425-1.03-.782c-.125-.36-.077-.758.022-1.083c.091-.296.284-.607.45-.873l.07-.113c.094-.153.176-.293.235-.422a.9.9 0 0 0 .092-.31a1.1 1.1 0 0 0-.024-.31"/><path fill="url(#f2551idy)" d="M14.426 20.405c-.008-.036-.052-.046-.08-.025a.576.576 0 1 1-.342-1.04c.1 0 .23.041.318.092c.1.056.287.163.43.326c.194.22.317.531.297.982c-.008.188-.07.37-.146.534s-.174.33-.269.486l-.074.12c-.171.277-.317.512-.383.728c-.08.261-.096.517-.03.71c.007.018.031.022.045.007a.575.575 0 0 1 .995.396a.576.576 0 0 1-.576.576c-.558 0-.906-.425-1.03-.782c-.125-.36-.077-.758.022-1.083c.091-.296.284-.607.45-.873l.07-.113c.094-.153.176-.293.235-.422a.9.9 0 0 0 .092-.31a1.1 1.1 0 0 0-.024-.31"/><path fill="#2C2630" d="M11.702 17.664c.036.008.047.051.025.08a.576.576 0 1 0 1.044.33a.7.7 0 0 0-.095-.317c-.058-.098-.166-.285-.33-.426c-.222-.192-.535-.311-.986-.286c-.188.01-.37.075-.532.151a5 5 0 0 0-.483.275l-.12.075c-.274.174-.508.323-.723.391c-.26.083-.517.102-.71.037c-.018-.006-.022-.03-.008-.044a.576.576 0 1 0-.977-.408c.007.558.436.9.794 1.021c.362.122.76.069 1.083-.034c.295-.094.604-.29.868-.459l.112-.071a4 4 0 0 1 .42-.24a.9.9 0 0 1 .309-.095q.189-.009.31.02"/><path fill="url(#f2551idz)" d="M11.702 17.664c.036.008.047.051.025.08a.576.576 0 1 0 1.044.33a.7.7 0 0 0-.095-.317c-.058-.098-.166-.285-.33-.426c-.222-.192-.535-.311-.986-.286c-.188.01-.37.075-.532.151a5 5 0 0 0-.483.275l-.12.075c-.274.174-.508.323-.723.391c-.26.083-.517.102-.71.037c-.018-.006-.022-.03-.008-.044a.576.576 0 1 0-.977-.408c.007.558.436.9.794 1.021c.362.122.76.069 1.083-.034c.295-.094.604-.29.868-.459l.112-.071a4 4 0 0 1 .42-.24a.9.9 0 0 1 .309-.095q.189-.009.31.02"/><path fill="url(#f2551id10)" d="M11.702 17.664c.036.008.047.051.025.08a.576.576 0 1 0 1.044.33a.7.7 0 0 0-.095-.317c-.058-.098-.166-.285-.33-.426c-.222-.192-.535-.311-.986-.286c-.188.01-.37.075-.532.151a5 5 0 0 0-.483.275l-.12.075c-.274.174-.508.323-.723.391c-.26.083-.517.102-.71.037c-.018-.006-.022-.03-.008-.044a.576.576 0 1 0-.977-.408c.007.558.436.9.794 1.021c.362.122.76.069 1.083-.034c.295-.094.604-.29.868-.459l.112-.071a4 4 0 0 1 .42-.24a.9.9 0 0 1 .309-.095q.189-.009.31.02"/><path fill="url(#f2551id11)" d="M11.702 17.664c.036.008.047.051.025.08a.576.576 0 1 0 1.044.33a.7.7 0 0 0-.095-.317c-.058-.098-.166-.285-.33-.426c-.222-.192-.535-.311-.986-.286c-.188.01-.37.075-.532.151a5 5 0 0 0-.483.275l-.12.075c-.274.174-.508.323-.723.391c-.26.083-.517.102-.71.037c-.018-.006-.022-.03-.008-.044a.576.576 0 1 0-.977-.408c.007.558.436.9.794 1.021c.362.122.76.069 1.083-.034c.295-.094.604-.29.868-.459l.112-.071a4 4 0 0 1 .42-.24a.9.9 0 0 1 .309-.095q.189-.009.31.02"/><path fill="url(#f2551id12)" d="M11.702 17.664c.036.008.047.051.025.08a.576.576 0 1 0 1.044.33a.7.7 0 0 0-.095-.317c-.058-.098-.166-.285-.33-.426c-.222-.192-.535-.311-.986-.286c-.188.01-.37.075-.532.151a5 5 0 0 0-.483.275l-.12.075c-.274.174-.508.323-.723.391c-.26.083-.517.102-.71.037c-.018-.006-.022-.03-.008-.044a.576.576 0 1 0-.977-.408c.007.558.436.9.794 1.021c.362.122.76.069 1.083-.034c.295-.094.604-.29.868-.459l.112-.071a4 4 0 0 1 .42-.24a.9.9 0 0 1 .309-.095q.189-.009.31.02"/><path fill="url(#f2551id13)" d="M11.702 17.664c.036.008.047.051.025.08a.576.576 0 1 0 1.044.33a.7.7 0 0 0-.095-.317c-.058-.098-.166-.285-.33-.426c-.222-.192-.535-.311-.986-.286c-.188.01-.37.075-.532.151a5 5 0 0 0-.483.275l-.12.075c-.274.174-.508.323-.723.391c-.26.083-.517.102-.71.037c-.018-.006-.022-.03-.008-.044a.576.576 0 1 0-.977-.408c.007.558.436.9.794 1.021c.362.122.76.069 1.083-.034c.295-.094.604-.29.868-.459l.112-.071a4 4 0 0 1 .42-.24a.9.9 0 0 1 .309-.095q.189-.009.31.02"/><path fill="url(#f2551id14)" d="M11.702 17.664c.036.008.047.051.025.08a.576.576 0 1 0 1.044.33a.7.7 0 0 0-.095-.317c-.058-.098-.166-.285-.33-.426c-.222-.192-.535-.311-.986-.286c-.188.01-.37.075-.532.151a5 5 0 0 0-.483.275l-.12.075c-.274.174-.508.323-.723.391c-.26.083-.517.102-.71.037c-.018-.006-.022-.03-.008-.044a.576.576 0 1 0-.977-.408c.007.558.436.9.794 1.021c.362.122.76.069 1.083-.034c.295-.094.604-.29.868-.459l.112-.071a4 4 0 0 1 .42-.24a.9.9 0 0 1 .309-.095q.189-.009.31.02"/><path fill="url(#f2551id15)" d="M11.702 17.664c.036.008.047.051.025.08a.576.576 0 1 0 1.044.33a.7.7 0 0 0-.095-.317c-.058-.098-.166-.285-.33-.426c-.222-.192-.535-.311-.986-.286c-.188.01-.37.075-.532.151a5 5 0 0 0-.483.275l-.12.075c-.274.174-.508.323-.723.391c-.26.083-.517.102-.71.037c-.018-.006-.022-.03-.008-.044a.576.576 0 1 0-.977-.408c.007.558.436.9.794 1.021c.362.122.76.069 1.083-.034c.295-.094.604-.29.868-.459l.112-.071a4 4 0 0 1 .42-.24a.9.9 0 0 1 .309-.095q.189-.009.31.02"/><path fill="url(#f2551id16)" d="M11.702 17.664c.036.008.047.051.025.08a.576.576 0 1 0 1.044.33a.7.7 0 0 0-.095-.317c-.058-.098-.166-.285-.33-.426c-.222-.192-.535-.311-.986-.286c-.188.01-.37.075-.532.151a5 5 0 0 0-.483.275l-.12.075c-.274.174-.508.323-.723.391c-.26.083-.517.102-.71.037c-.018-.006-.022-.03-.008-.044a.576.576 0 1 0-.977-.408c.007.558.436.9.794 1.021c.362.122.76.069 1.083-.034c.295-.094.604-.29.868-.459l.112-.071a4 4 0 0 1 .42-.24a.9.9 0 0 1 .309-.095q.189-.009.31.02"/><path fill="url(#f2551id17)" d="M11.702 17.664c.036.008.047.051.025.08a.576.576 0 1 0 1.044.33a.7.7 0 0 0-.095-.317c-.058-.098-.166-.285-.33-.426c-.222-.192-.535-.311-.986-.286c-.188.01-.37.075-.532.151a5 5 0 0 0-.483.275l-.12.075c-.274.174-.508.323-.723.391c-.26.083-.517.102-.71.037c-.018-.006-.022-.03-.008-.044a.576.576 0 1 0-.977-.408c.007.558.436.9.794 1.021c.362.122.76.069 1.083-.034c.295-.094.604-.29.868-.459l.112-.071a4 4 0 0 1 .42-.24a.9.9 0 0 1 .309-.095q.189-.009.31.02"/><path fill="url(#f2551id18)" d="M11.702 17.664c.036.008.047.051.025.08a.576.576 0 1 0 1.044.33a.7.7 0 0 0-.095-.317c-.058-.098-.166-.285-.33-.426c-.222-.192-.535-.311-.986-.286c-.188.01-.37.075-.532.151a5 5 0 0 0-.483.275l-.12.075c-.274.174-.508.323-.723.391c-.26.083-.517.102-.71.037c-.018-.006-.022-.03-.008-.044a.576.576 0 1 0-.977-.408c.007.558.436.9.794 1.021c.362.122.76.069 1.083-.034c.295-.094.604-.29.868-.459l.112-.071a4 4 0 0 1 .42-.24a.9.9 0 0 1 .309-.095q.189-.009.31.02"/><path fill="url(#f2551id19)" d="M11.702 17.664c.036.008.047.051.025.08a.576.576 0 1 0 1.044.33a.7.7 0 0 0-.095-.317c-.058-.098-.166-.285-.33-.426c-.222-.192-.535-.311-.986-.286c-.188.01-.37.075-.532.151a5 5 0 0 0-.483.275l-.12.075c-.274.174-.508.323-.723.391c-.26.083-.517.102-.71.037c-.018-.006-.022-.03-.008-.044a.576.576 0 1 0-.977-.408c.007.558.436.9.794 1.021c.362.122.76.069 1.083-.034c.295-.094.604-.29.868-.459l.112-.071a4 4 0 0 1 .42-.24a.9.9 0 0 1 .309-.095q.189-.009.31.02"/><path fill="url(#f2551id28)" fill-rule="evenodd" d="M3.977 6.866a.5.5 0 0 1 .707 0L23.44 25.622a.5.5 0 0 1-.707.707L3.977 7.573a.5.5 0 0 1 0-.707" clip-rule="evenodd"/><path fill="url(#f2551id29)" fill-rule="evenodd" d="m7.17 6.575l19.804 19.752a.5.5 0 1 1-.708.707L6.488 7.328c-.348-.347-.933-.26-1.308.059c-.263.223-.585.384-.917.282c-.712-.22-1.412-1.376-1.103-1.48c.155-.051.91-.18 1.62-.295a2.94 2.94 0 0 1 2.39.681" clip-rule="evenodd"/><path fill="url(#f2551id2a)" fill-rule="evenodd" d="m7.17 6.575l19.804 19.752a.5.5 0 1 1-.708.707L6.488 7.328c-.348-.347-.933-.26-1.308.059c-.263.223-.585.384-.917.282c-.712-.22-1.412-1.376-1.103-1.48c.155-.051.91-.18 1.62-.295a2.94 2.94 0 0 1 2.39.681" clip-rule="evenodd"/><path fill="url(#f2551id1a)" fill-rule="evenodd" d="m7.17 6.575l19.804 19.752a.5.5 0 1 1-.708.707L6.488 7.328c-.348-.347-.933-.26-1.308.059c-.263.223-.585.384-.917.282c-.712-.22-1.412-1.376-1.103-1.48c.155-.051.91-.18 1.62-.295a2.94 2.94 0 0 1 2.39.681" clip-rule="evenodd"/><path fill="url(#f2551id1b)" fill-rule="evenodd" d="m7.17 6.575l19.804 19.752a.5.5 0 1 1-.708.707L6.488 7.328c-.348-.347-.933-.26-1.308.059c-.263.223-.585.384-.917.282c-.712-.22-1.412-1.376-1.103-1.48c.155-.051.91-.18 1.62-.295a2.94 2.94 0 0 1 2.39.681" clip-rule="evenodd"/><path fill="url(#f2551id2b)" fill-rule="evenodd" d="m7.17 6.575l19.804 19.752a.5.5 0 1 1-.708.707L6.488 7.328c-.348-.347-.933-.26-1.308.059c-.263.223-.585.384-.917.282c-.712-.22-1.412-1.376-1.103-1.48c.155-.051.91-.18 1.62-.295a2.94 2.94 0 0 1 2.39.681" clip-rule="evenodd"/><path fill="url(#f2551id2c)" fill-rule="evenodd" d="m23.423 24.206l-1.768-1.767l.707-.707l1.768 1.767a.5.5 0 0 1-.707.707" clip-rule="evenodd"/><path fill="url(#f2551id2d)" fill-rule="evenodd" d="m25.391 26.16l-2.57-2.57l.707-.707l2.57 2.57z" clip-rule="evenodd"/><path fill="url(#f2551id2e)" d="M23.382 25.473c.18-.193-.06-.565-.271-.85a.296.296 0 0 1 .444-.39l1.316 1.297a.27.27 0 0 1 .002.383l-1.093 1.093a.267.267 0 0 1-.377 0l-1.29-1.29a.307.307 0 0 1 0-.435c.115-.115.3-.12.432-.023c.285.206.663.401.837.215"/><path fill="url(#f2551id2f)" d="M23.382 25.473c.18-.193-.06-.565-.271-.85a.296.296 0 0 1 .444-.39l1.316 1.297a.27.27 0 0 1 .002.383l-1.093 1.093a.267.267 0 0 1-.377 0l-1.29-1.29a.307.307 0 0 1 0-.435c.115-.115.3-.12.432-.023c.285.206.663.401.837.215"/><path fill="url(#f2551id2g)" d="M23.382 25.473c.18-.193-.06-.565-.271-.85a.296.296 0 0 1 .444-.39l1.316 1.297a.27.27 0 0 1 .002.383l-1.093 1.093a.267.267 0 0 1-.377 0l-1.29-1.29a.307.307 0 0 1 0-.435c.115-.115.3-.12.432-.023c.285.206.663.401.837.215"/><path fill="url(#f2551id2h)" d="M23.382 25.473c.18-.193-.06-.565-.271-.85a.296.296 0 0 1 .444-.39l1.316 1.297a.27.27 0 0 1 .002.383l-1.093 1.093a.267.267 0 0 1-.377 0l-1.29-1.29a.307.307 0 0 1 0-.435c.115-.115.3-.12.432-.023c.285.206.663.401.837.215"/><path fill="url(#f2551id1c)" d="M23.382 25.473c.18-.193-.06-.565-.271-.85a.296.296 0 0 1 .444-.39l1.316 1.297a.27.27 0 0 1 .002.383l-1.093 1.093a.267.267 0 0 1-.377 0l-1.29-1.29a.307.307 0 0 1 0-.435c.115-.115.3-.12.432-.023c.285.206.663.401.837.215"/><circle cx="23.916" cy="25.919" r=".382" fill="url(#f2551id1d)"/><defs><radialGradient id="f2551id0" cx="0" cy="0" r="1" gradientTransform="matrix(6.93227 -3.96357 3.71119 6.49086 17.687 21.089)" gradientUnits="userSpaceOnUse"><stop offset=".189" stop-color="#6B464F"/><stop offset=".264" stop-color="#83595B" stop-opacity="0"/></radialGradient><radialGradient id="f2551id1" cx="0" cy="0" r="1" gradientTransform="matrix(2.8603 3.01114 -20.0104 19.00803 22.255 17.651)" gradientUnits="userSpaceOnUse"><stop offset=".073" stop-color="#A0736C"/><stop offset=".192" stop-color="#A0736C" stop-opacity="0"/></radialGradient><radialGradient id="f2551id2" cx="0" cy="0" r="1" gradientTransform="matrix(-2.5902 -2.51526 31.97277 -32.92543 13.796 10.562)" gradientUnits="userSpaceOnUse"><stop offset=".073" stop-color="#83595B"/><stop offset=".132" stop-color="#83595B" stop-opacity="0"/></radialGradient><radialGradient id="f2551id3" cx="0" cy="0" r="1" gradientTransform="matrix(-1.23726 -2.60825 33.15483 -15.72747 15.234 9.14)" gradientUnits="userSpaceOnUse"><stop offset=".073" stop-color="#83595B"/><stop offset=".233" stop-color="#83595B" stop-opacity="0"/></radialGradient><radialGradient id="f2551id4" cx="0" cy="0" r="1" gradientTransform="matrix(3.08914 -8.14047 7.00114 2.65679 10.908 14.673)" gradientUnits="userSpaceOnUse"><stop offset=".189" stop-color="#6B464F"/><stop offset=".264" stop-color="#83595B" stop-opacity="0"/></radialGradient><radialGradient id="f2551id5" cx="0" cy="0" r="1" gradientTransform="rotate(-32.493 27.867 -8.875)scale(4.01756 6.4351)" gradientUnits="userSpaceOnUse"><stop offset=".445" stop-color="#BD8F85"/><stop offset=".589" stop-color="#BD8F85" stop-opacity=".08"/><stop offset=".724" stop-color="#8A5955" stop-opacity="0"/></radialGradient><radialGradient id="f2551id6" cx="0" cy="0" r="1" gradientTransform="matrix(2.3558 -.58967 .87202 3.48383 16.68 22.084)" gradientUnits="userSpaceOnUse"><stop offset=".326" stop-color="#BD8F85"/><stop offset=".597" stop-color="#BD8F85" stop-opacity=".08"/><stop offset=".724" stop-color="#8A5955" stop-opacity="0"/></radialGradient><radialGradient id="f2551id7" cx="0" cy="0" r="1" gradientTransform="matrix(1.5462 -.4541 .67154 2.28657 17.478 23.828)" gradientUnits="userSpaceOnUse"><stop offset=".367" stop-color="#BD8F85"/><stop offset="1" stop-color="#8A5955" stop-opacity="0"/></radialGradient><radialGradient id="f2551id8" cx="0" cy="0" r="1" gradientTransform="matrix(3.5448 2.0541 -5.7464 9.91666 5.385 25.609)" gradientUnits="userSpaceOnUse"><stop offset=".064" stop-color="#382022"/><stop offset=".243" stop-color="#382022" stop-opacity="0"/></radialGradient><radialGradient id="f2551id9" cx="0" cy="0" r="1" gradientTransform="matrix(2.06407 3.38371 -15.77533 9.62296 6.588 27.066)" gradientUnits="userSpaceOnUse"><stop offset=".059" stop-color="#5A393B"/><stop offset=".271" stop-color="#83595B" stop-opacity="0"/></radialGradient><radialGradient id="f2551ida" cx="0" cy="0" r="1" gradientTransform="rotate(35.949 -33.773 21.642)scale(2.84812 6.59951)" gradientUnits="userSpaceOnUse"><stop offset=".085" stop-color="#382022"/><stop offset=".275" stop-color="#382022" stop-opacity="0"/></radialGradient><radialGradient id="f2551idb" cx="0" cy="0" r="1" gradientTransform="matrix(1.15272 1.19542 -2.59707 2.50432 6.514 23.345)" gradientUnits="userSpaceOnUse"><stop offset=".085" stop-color="#533235" stop-opacity=".81"/><stop offset=".275" stop-color="#382022" stop-opacity="0"/></radialGradient><radialGradient id="f2551idc" cx="0" cy="0" r="1" gradientTransform="rotate(136.501 -.855 13.634)scale(2.89829 6.42657)" gradientUnits="userSpaceOnUse"><stop offset=".098" stop-color="#4A2C2F"/><stop offset=".337" stop-color="#5A393B" stop-opacity="0"/></radialGradient><radialGradient id="f2551idd" cx="0" cy="0" r="1" gradientTransform="rotate(135.275 -.367 13.447)scale(1.54872 5.40803)" gradientUnits="userSpaceOnUse"><stop offset=".167" stop-color="#82544F"/><stop offset=".513" stop-color="#82544F" stop-opacity="0"/></radialGradient><radialGradient id="f2551ide" cx="0" cy="0" r="1" gradientTransform="matrix(-2.73812 .79778 -.81266 -2.78921 8.545 25.31)" gradientUnits="userSpaceOnUse"><stop offset=".073" stop-color="#5A393B" stop-opacity=".68"/><stop offset=".38" stop-color="#5A393B" stop-opacity="0"/></radialGradient><radialGradient id="f2551idf" cx="0" cy="0" r="1" gradientTransform="matrix(-.93749 .92188 -1.9737 -2.00712 28.484 4.36)" gradientUnits="userSpaceOnUse"><stop stop-color="#B08378"/><stop offset="1" stop-color="#A37062" stop-opacity="0"/></radialGradient><radialGradient id="f2551idg" cx="0" cy="0" r="1" gradientTransform="matrix(0 -.92188 .85156 0 27.817 8.153)" gradientUnits="userSpaceOnUse"><stop stop-color="#3E2455"/><stop offset="1" stop-color="#3C2943"/></radialGradient><radialGradient id="f2551idh" cx="0" cy="0" r="1" gradientTransform="matrix(-.39844 .4414 -.4414 -.39844 28.157 7.52)" gradientUnits="userSpaceOnUse"><stop stop-color="#655D6E"/><stop offset="1" stop-color="#655D6E" stop-opacity="0"/></radialGradient><radialGradient id="f2551idi" cx="0" cy="0" r="1" gradientTransform="matrix(0 -.92188 .85156 0 24.273 4.547)" gradientUnits="userSpaceOnUse"><stop stop-color="#3E2455"/><stop offset="1" stop-color="#3C2943"/></radialGradient><radialGradient id="f2551idj" cx="0" cy="0" r="1" gradientTransform="matrix(-.39844 .4414 -.4414 -.39844 24.613 3.915)" gradientUnits="userSpaceOnUse"><stop stop-color="#655D6E"/><stop offset="1" stop-color="#655D6E" stop-opacity="0"/></radialGradient><radialGradient id="f2551idk" cx="0" cy="0" r="1" gradientTransform="matrix(0 -.92188 .85156 0 29.309 7.012)" gradientUnits="userSpaceOnUse"><stop stop-color="#3E2455"/><stop offset="1" stop-color="#3C2943"/></radialGradient><radialGradient id="f2551idl" cx="0" cy="0" r="1" gradientTransform="rotate(132.072 13.407 9.78)scale(.59463)" gradientUnits="userSpaceOnUse"><stop stop-color="#655D6E"/><stop offset="1" stop-color="#655D6E" stop-opacity="0"/></radialGradient><radialGradient id="f2551idm" cx="0" cy="0" r="1" gradientTransform="matrix(0 -.92188 .85156 0 25.39 3.083)" gradientUnits="userSpaceOnUse"><stop stop-color="#3E2455"/><stop offset="1" stop-color="#3C2943"/></radialGradient><radialGradient id="f2551idn" cx="0" cy="0" r="1" gradientTransform="matrix(-.39844 .4414 -.4414 -.39844 25.73 2.45)" gradientUnits="userSpaceOnUse"><stop stop-color="#655D6E"/><stop offset="1" stop-color="#655D6E" stop-opacity="0"/></radialGradient><radialGradient id="f2551ido" cx="0" cy="0" r="1" gradientTransform="matrix(.18276 .63813 -.63679 .18238 14.019 19.916)" gradientUnits="userSpaceOnUse"><stop offset=".613" stop-color="#332C3A"/><stop offset=".829" stop-color="#332C3A" stop-opacity="0"/></radialGradient><radialGradient id="f2551idp" cx="0" cy="0" r="1" gradientTransform="matrix(.14441 .06215 -.49368 1.14717 14.523 21.031)" gradientUnits="userSpaceOnUse"><stop offset=".356" stop-color="#332C3A"/><stop offset=".652" stop-color="#332C3A" stop-opacity="0"/></radialGradient><radialGradient id="f2551idq" cx="0" cy="0" r="1" gradientTransform="matrix(.53856 -.57188 1.25474 1.18165 14.153 23.755)" gradientUnits="userSpaceOnUse"><stop offset=".272" stop-color="#332C3A"/><stop offset=".349" stop-color="#332C3A" stop-opacity="0"/></radialGradient><radialGradient id="f2551idr" cx="0" cy="0" r="1" gradientTransform="matrix(-.2534 -.60558 .6043 -.25287 14.639 23.714)" gradientUnits="userSpaceOnUse"><stop offset=".613" stop-color="#332C3A"/><stop offset=".829" stop-color="#332C3A" stop-opacity="0"/></radialGradient><radialGradient id="f2551ids" cx="0" cy="0" r="1" gradientTransform="matrix(.63119 .36447 -1.36347 2.36123 14.243 21.82)" gradientUnits="userSpaceOnUse"><stop offset=".272" stop-color="#332C3A"/><stop offset=".397" stop-color="#332C3A" stop-opacity="0"/></radialGradient><radialGradient id="f2551idt" cx="0" cy="0" r="1" gradientTransform="matrix(.73736 -.02372 .06458 2.00787 13.805 23.052)" gradientUnits="userSpaceOnUse"><stop offset=".272" stop-color="#332C3A"/><stop offset=".349" stop-color="#332C3A" stop-opacity="0"/></radialGradient><radialGradient id="f2551idu" cx="0" cy="0" r="1" gradientTransform="matrix(.63292 .14631 -.4826 2.08768 13.898 22.543)" gradientUnits="userSpaceOnUse"><stop offset=".272" stop-color="#332C3A"/><stop offset=".349" stop-color="#332C3A" stop-opacity="0"/></radialGradient><radialGradient id="f2551idv" cx="0" cy="0" r="1" gradientTransform="rotate(-29.745 50.89 -14.627)scale(.27782 .75651)" gradientUnits="userSpaceOnUse"><stop offset=".272" stop-color="#332C3A"/><stop offset=".463" stop-color="#332C3A" stop-opacity="0"/></radialGradient><radialGradient id="f2551idw" cx="0" cy="0" r="1" gradientTransform="matrix(.50781 .09375 -.2713 1.46957 14.734 20.808)" gradientUnits="userSpaceOnUse"><stop offset=".37" stop-color="#332C3A"/><stop offset=".472" stop-color="#332C3A" stop-opacity="0"/></radialGradient><radialGradient id="f2551idx" cx="0" cy="0" r="1" gradientTransform="matrix(.51172 -.34375 .68694 1.0226 14.55 20.047)" gradientUnits="userSpaceOnUse"><stop offset=".301" stop-color="#332C3A"/><stop offset=".439" stop-color="#332C3A" stop-opacity="0"/></radialGradient><radialGradient id="f2551idy" cx="0" cy="0" r="1" gradientTransform="matrix(.38322 -.03915 .13727 1.34358 14.66 20.465)" gradientUnits="userSpaceOnUse"><stop offset=".356" stop-color="#332C3A"/><stop offset=".439" stop-color="#332C3A" stop-opacity="0"/></radialGradient><radialGradient id="f2551idz" cx="0" cy="0" r="1" gradientTransform="matrix(-.6401 -.17577 .1754 -.63875 12.195 18.064)" gradientUnits="userSpaceOnUse"><stop offset=".613" stop-color="#332C3A"/><stop offset=".829" stop-color="#332C3A" stop-opacity="0"/></radialGradient><radialGradient id="f2551id10" cx="0" cy="0" r="1" gradientTransform="matrix(-.06372 -.14373 1.1417 -.50617 11.074 17.574)" gradientUnits="userSpaceOnUse"><stop offset=".356" stop-color="#332C3A"/><stop offset=".652" stop-color="#332C3A" stop-opacity="0"/></radialGradient><radialGradient id="f2551id11" cx="0" cy="0" r="1" gradientTransform="rotate(-43.907 26.473 -1.377)scale(.78555 1.72356)" gradientUnits="userSpaceOnUse"><stop offset=".272" stop-color="#332C3A"/><stop offset=".349" stop-color="#332C3A" stop-opacity="0"/></radialGradient><radialGradient id="f2551id12" cx="0" cy="0" r="1" gradientTransform="matrix(.6083 .24677 -.24625 .60702 8.39 17.488)" gradientUnits="userSpaceOnUse"><stop offset=".613" stop-color="#332C3A"/><stop offset=".829" stop-color="#332C3A" stop-opacity="0"/></radialGradient><radialGradient id="f2551id13" cx="0" cy="0" r="1" gradientTransform="matrix(-.37134 -.62717 2.34622 -1.38916 10.29 17.863)" gradientUnits="userSpaceOnUse"><stop offset=".272" stop-color="#332C3A"/><stop offset=".397" stop-color="#332C3A" stop-opacity="0"/></radialGradient><radialGradient id="f2551id14" cx="0" cy="0" r="1" gradientTransform="matrix(.01566 -.73757 2.00846 .04264 9.062 18.314)" gradientUnits="userSpaceOnUse"><stop offset=".272" stop-color="#332C3A"/><stop offset=".349" stop-color="#332C3A" stop-opacity="0"/></radialGradient><radialGradient id="f2551id15" cx="0" cy="0" r="1" gradientTransform="rotate(-103.642 11.947 5.345)scale(.64961 2.14273)" gradientUnits="userSpaceOnUse"><stop offset=".272" stop-color="#332C3A"/><stop offset=".349" stop-color="#332C3A" stop-opacity="0"/></radialGradient><radialGradient id="f2551id16" cx="0" cy="0" r="1" gradientTransform="matrix(.1352 -.2427 .6609 .36814 8.791 18.16)" gradientUnits="userSpaceOnUse"><stop offset=".272" stop-color="#332C3A"/><stop offset=".463" stop-color="#332C3A" stop-opacity="0"/></radialGradient><radialGradient id="f2551id17" cx="0" cy="0" r="1" gradientTransform="matrix(-.0993 -.50676 1.46651 -.28735 11.295 17.36)" gradientUnits="userSpaceOnUse"><stop offset=".37" stop-color="#332C3A"/><stop offset=".472" stop-color="#332C3A" stop-opacity="0"/></radialGradient><radialGradient id="f2551id18" cx="0" cy="0" r="1" gradientTransform="matrix(.33814 -.51544 1.03004 .67573 12.059 17.535)" gradientUnits="userSpaceOnUse"><stop offset=".301" stop-color="#332C3A"/><stop offset=".439" stop-color="#332C3A" stop-opacity="0"/></radialGradient><radialGradient id="f2551id19" cx="0" cy="0" r="1" gradientTransform="matrix(.03496 -.38362 1.345 .12259 11.64 17.43)" gradientUnits="userSpaceOnUse"><stop offset=".356" stop-color="#332C3A"/><stop offset=".439" stop-color="#332C3A" stop-opacity="0"/></radialGradient><radialGradient id="f2551id1a" cx="0" cy="0" r="1" gradientTransform="rotate(93.929 -.546 6.552)scale(2.82271)" gradientUnits="userSpaceOnUse"><stop offset=".226" stop-color="#523045"/><stop offset=".393" stop-color="#513144" stop-opacity="0"/></radialGradient><radialGradient id="f2551id1b" cx="0" cy="0" r="1" gradientTransform="matrix(.9971 2.33812 -3.6143 1.54133 4.763 8.023)" gradientUnits="userSpaceOnUse"><stop offset=".226" stop-color="#563346"/><stop offset=".393" stop-color="#573346" stop-opacity="0"/></radialGradient><radialGradient id="f2551id1c" cx="0" cy="0" r="1" gradientTransform="matrix(.83269 .76074 -.49064 .53705 22.79 24.946)" gradientUnits="userSpaceOnUse"><stop offset=".303"/><stop offset=".851" stop-opacity="0"/></radialGradient><radialGradient id="f2551id1d" cx="0" cy="0" r="1" gradientTransform="rotate(90 -1.002 24.918)scale(.43408)" gradientUnits="userSpaceOnUse"><stop stop-color="#F9B744"/><stop offset="1" stop-color="#FFEC56"/></radialGradient><linearGradient id="f2551id1e" x1="21.718" x2="7.094" y1="12.422" y2="28.422" gradientUnits="userSpaceOnUse"><stop stop-color="#9A6460"/><stop offset="1" stop-color="#7B4E49"/></linearGradient><linearGradient id="f2551id1f" x1="21.718" x2="20.332" y1="12.422" y2="13.809" gradientUnits="userSpaceOnUse"><stop offset=".074" stop-color="#A97D73"/><stop offset=".391" stop-color="#98635F" stop-opacity="0"/></linearGradient><linearGradient id="f2551id1g" x1="23.216" x2="19.822" y1="13.894" y2="14.573" gradientUnits="userSpaceOnUse"><stop offset=".116" stop-color="#A97D73"/><stop offset=".253" stop-color="#98635F" stop-opacity="0"/></linearGradient><linearGradient id="f2551id1h" x1="23.216" x2="20.93" y1="16.084" y2="15.224" gradientUnits="userSpaceOnUse"><stop offset=".134" stop-color="#A97D73"/><stop offset=".408" stop-color="#98635F" stop-opacity="0"/></linearGradient><linearGradient id="f2551id1i" x1="16.525" x2="16.494" y1="8.491" y2="12.155" gradientUnits="userSpaceOnUse"><stop offset=".174" stop-color="#A97D73"/><stop offset=".408" stop-color="#98635F" stop-opacity="0"/></linearGradient><linearGradient id="f2551id1j" x1="2.869" x2="7.545" y1="28.258" y2="23.336" gradientUnits="userSpaceOnUse"><stop offset=".396" stop-color="#68454E"/><stop offset=".486" stop-color="#68454E" stop-opacity="0"/></linearGradient><linearGradient id="f2551id1k" x1="14.174" x2="10.133" y1="31.204" y2="27.268" gradientUnits="userSpaceOnUse"><stop offset=".47" stop-color="#A6786F"/><stop offset=".538" stop-color="#A6786F" stop-opacity="0"/></linearGradient><linearGradient id="f2551id1l" x1="8.828" x2="10.133" y1="31.067" y2="27.268" gradientUnits="userSpaceOnUse"><stop offset=".396" stop-color="#68454E"/><stop offset=".541" stop-color="#68454E" stop-opacity="0"/></linearGradient><linearGradient id="f2551id1m" x1="10.528" x2="10.133" y1="31.208" y2="27.268" gradientUnits="userSpaceOnUse"><stop offset=".396" stop-color="#68454E"/><stop offset=".55" stop-color="#68454E" stop-opacity="0"/></linearGradient><linearGradient id="f2551id1n" x1="2.755" x2="5.666" y1="17.307" y2="20.12" gradientUnits="userSpaceOnUse"><stop offset=".47" stop-color="#7D5251"/><stop offset=".538" stop-color="#7D5251" stop-opacity="0"/></linearGradient><linearGradient id="f2551id1o" x1="1.796" x2="4.443" y1="23.629" y2="22.816" gradientUnits="userSpaceOnUse"><stop offset=".333" stop-color="#68454E"/><stop offset=".55" stop-color="#68454E" stop-opacity="0"/></linearGradient><linearGradient id="f2551id1p" x1="2.114" x2="4.087" y1="20.612" y2="21.006" gradientUnits="userSpaceOnUse"><stop offset=".333" stop-color="#68454E"/><stop offset=".55" stop-color="#68454E" stop-opacity="0"/></linearGradient><linearGradient id="f2551id1q" x1="18.343" x2="23.687" y1="14.297" y2="8.672" gradientUnits="userSpaceOnUse"><stop stop-color="#433E4A"/><stop offset="1" stop-color="#554269"/></linearGradient><linearGradient id="f2551id1r" x1="25.711" x2="25.015" y1="6.454" y2="7.141" gradientUnits="userSpaceOnUse"><stop offset=".179" stop-color="#37234A"/><stop offset="1" stop-color="#504060" stop-opacity="0"/></linearGradient><linearGradient id="f2551id1s" x1="24.418" x2="22.685" y1="10.216" y2="8.64" gradientUnits="userSpaceOnUse"><stop offset=".226" stop-color="#37234A"/><stop offset=".451" stop-color="#504060" stop-opacity="0"/></linearGradient><linearGradient id="f2551id1t" x1="21.478" x2="23.555" y1="7.559" y2="9.75" gradientUnits="userSpaceOnUse"><stop offset=".271" stop-color="#37234A"/><stop offset=".461" stop-color="#504060" stop-opacity="0"/></linearGradient><linearGradient id="f2551id1u" x1="16.265" x2="19.431" y1="15.511" y2="12.01" gradientUnits="userSpaceOnUse"><stop offset=".247" stop-color="#37234A"/><stop offset=".38" stop-color="#504060" stop-opacity="0"/></linearGradient><linearGradient id="f2551id1v" x1="24.534" x2="27.093" y1="3.516" y2="4.924" gradientUnits="userSpaceOnUse"><stop offset=".133" stop-color="#562C26"/><stop offset="1" stop-color="#7D4E49" stop-opacity="0"/></linearGradient><linearGradient id="f2551id1w" x1="25.351" x2="27.091" y1="6.665" y2="4.921" gradientUnits="userSpaceOnUse"><stop offset=".133" stop-color="#562C26" stop-opacity=".71"/><stop offset=".625" stop-color="#7D4E49" stop-opacity="0"/></linearGradient><linearGradient id="f2551id1x" x1="28.853" x2="27.094" y1="7.24" y2="4.924" gradientUnits="userSpaceOnUse"><stop offset=".133" stop-color="#562C26" stop-opacity=".71"/><stop offset=".625" stop-color="#7D4E49" stop-opacity="0"/></linearGradient><linearGradient id="f2551id1y" x1="9.469" x2="10.094" y1="20.829" y2="24.086" gradientUnits="userSpaceOnUse"><stop stop-color="#DF935D"/><stop offset="1" stop-color="#F1BE92"/></linearGradient><linearGradient id="f2551id1z" x1="8.343" x2="5.062" y1="24.204" y2="27.422" gradientUnits="userSpaceOnUse"><stop offset=".527" stop-color="#685779"/><stop offset="1" stop-color="#43384E"/></linearGradient><linearGradient id="f2551id20" x1="8.39" x2="8.089" y1="23.985" y2="24.278" gradientUnits="userSpaceOnUse"><stop offset=".452" stop-color="#6F5F7B"/><stop offset="1" stop-color="#6F5F7B" stop-opacity="0"/></linearGradient><linearGradient id="f2551id21" x1="8.343" x2="5.062" y1="24.204" y2="27.422" gradientUnits="userSpaceOnUse"><stop offset=".527" stop-color="#685779"/><stop offset="1" stop-color="#43384E"/></linearGradient><linearGradient id="f2551id22" x1="8.39" x2="8.089" y1="23.985" y2="24.278" gradientUnits="userSpaceOnUse"><stop offset=".452" stop-color="#6F5F7B"/><stop offset="1" stop-color="#6F5F7B" stop-opacity="0"/></linearGradient><linearGradient id="f2551id23" x1="8.828" x2="8.136" y1="23.434" y2="24.113" gradientUnits="userSpaceOnUse"><stop offset=".652" stop-color="#37234A"/><stop offset=".856" stop-color="#504060" stop-opacity="0"/></linearGradient><linearGradient id="f2551id24" x1="8.9" x2="7.424" y1="26.41" y2="24.416" gradientUnits="userSpaceOnUse"><stop offset=".26" stop-color="#4E3262"/><stop offset=".337" stop-color="#504060" stop-opacity="0"/></linearGradient><linearGradient id="f2551id25" x1="5.519" x2="7.77" y1="23.287" y2="25.012" gradientUnits="userSpaceOnUse"><stop offset=".271" stop-color="#473752"/><stop offset=".343" stop-color="#504060" stop-opacity="0"/></linearGradient><linearGradient id="f2551id26" x1="7.221" x2="7.016" y1="22.68" y2="23.948" gradientUnits="userSpaceOnUse"><stop offset=".207" stop-color="#37234A" stop-opacity=".79"/><stop offset=".394" stop-color="#504060" stop-opacity="0"/></linearGradient><linearGradient id="f2551id27" x1="9.577" x2="8.086" y1="25.077" y2="24.742" gradientUnits="userSpaceOnUse"><stop offset=".16" stop-color="#37234A" stop-opacity=".79"/><stop offset=".394" stop-color="#504060" stop-opacity="0"/></linearGradient><linearGradient id="f2551id28" x1="13.523" x2="12.816" y1="15.704" y2="16.412" gradientUnits="userSpaceOnUse"><stop offset=".078" stop-color="#E3B09A"/><stop offset=".273" stop-color="#F0BFAA"/><stop offset="1" stop-color="#D6A098"/></linearGradient><linearGradient id="f2551id29" x1="18.197" x2="14.8" y1="14.592" y2="17.989" gradientUnits="userSpaceOnUse"><stop offset=".435" stop-color="#563B37"/><stop offset=".463" stop-color="#6D5B58"/><stop offset=".491" stop-color="#6D5B58"/><stop offset=".501" stop-color="#6D5B58"/><stop offset=".54" stop-color="#5B4141"/><stop offset=".566" stop-color="#4F3243"/><stop offset=".596" stop-color="#4F3243"/><stop offset=".635" stop-color="#523546"/><stop offset=".648" stop-color="#593452"/></linearGradient><linearGradient id="f2551id2a" x1="5.142" x2="7.617" y1="5.892" y2="6.86" gradientUnits="userSpaceOnUse"><stop stop-color="#594343"/><stop offset="1" stop-color="#594343" stop-opacity="0"/></linearGradient><linearGradient id="f2551id2b" x1="3.789" x2="5.688" y1="8.023" y2="6.706" gradientUnits="userSpaceOnUse"><stop offset=".194" stop-color="#4F3242"/><stop offset=".403" stop-color="#523A4A" stop-opacity="0"/></linearGradient><linearGradient id="f2551id2c" x1="23.423" x2="22.715" y1="22.792" y2="23.499" gradientUnits="userSpaceOnUse"><stop stop-color="#ECCB92"/><stop offset=".232" stop-color="#F8D49A"/><stop offset=".315" stop-color="#F8D49A"/><stop offset="1" stop-color="#C89779"/></linearGradient><linearGradient id="f2551id2d" x1="24.588" x2="23.881" y1="23.943" y2="24.651" gradientUnits="userSpaceOnUse"><stop stop-color="#484138"/><stop offset=".083" stop-color="#5E5E5E"/><stop offset=".249" stop-color="#575757"/><stop offset=".632" stop-color="#30243A"/><stop offset="1" stop-color="#48354F"/></linearGradient><linearGradient id="f2551id2e" x1="24.741" x2="22.932" y1="25.104" y2="26.901" gradientUnits="userSpaceOnUse"><stop offset=".106" stop-color="#413E44"/><stop offset=".201" stop-color="#39333F"/><stop offset=".735" stop-color="#38323F"/><stop offset="1" stop-color="#31243C"/></linearGradient><linearGradient id="f2551id2f" x1="24.434" x2="23.953" y1="26.604" y2="26.123" gradientUnits="userSpaceOnUse"><stop offset=".216" stop-color="#201728"/><stop offset=".799" stop-color="#3B3244" stop-opacity="0"/></linearGradient><linearGradient id="f2551id2g" x1="23.107" x2="23.953" y1="26.969" y2="26.123" gradientUnits="userSpaceOnUse"><stop offset=".216" stop-color="#201728"/><stop offset=".538" stop-color="#3B3244" stop-opacity="0"/></linearGradient><linearGradient id="f2551id2h" x1="22.295" x2="23.757" y1="24.279" y2="25.902" gradientUnits="userSpaceOnUse"><stop offset=".216" stop-color="#201728"/><stop offset=".538" stop-color="#3B3244" stop-opacity="0"/></linearGradient></defs></g></svg>