<svg xmlns="http://www.w3.org/2000/svg" xmlns:xlink="http://www.w3.org/1999/xlink" width="32" height="32" viewBox="0 0 32 32"><g fill="none"><path fill="url(#f3021id0)" d="M8.329 30.02q.004-.082.004-.163a3.138 3.138 0 1 0-6.271.162z"/><path fill="url(#f3021id1)" d="M29.938 30.02q.005-.082.005-.163a3.138 3.138 0 1 0-6.272.162z"/><path fill="url(#f3021idz)" d="M16 15.52c-6.07 0-11 4.92-11 11v3.5h22v-3.5c0-6.08-4.93-11-11-11"/><path fill="url(#f3021id10)" d="M8.98 18.02a10.99 10.99 0 0 0-3.97 8.5l.02 3.5l4-.02z"/><path fill="url(#f3021id11)" d="M23 18.03v11.98h4v-3.5c0-3.41-1.56-6.46-4-8.48"/><g filter="url(#f3021id1l)"><path fill="url(#f3021id12)" fill-rule="evenodd" d="M23.185 11.918c.213-.435.324-.92.324-1.427c0-.467-.096-.905-.268-1.305h.005a3 3 0 0 0-.281-.513l-.002-.003a3.24 3.24 0 0 1-.527-1.771v-.01a3.3 3.3 0 0 0-3.299-3.3a.54.54 0 0 1-.455-.232A3.3 3.3 0 0 0 16 1.98a3.3 3.3 0 0 0-2.682 1.377a.56.56 0 0 1-.455.233h-.085a3.3 3.3 0 0 0-3.214 3.3v.01a3.24 3.24 0 0 1-.527 1.77l-.002.004a3.3 3.3 0 0 0-.22 3.245c.07.142.07.314 0 .456A3.213 3.213 0 0 0 11.709 17h8.582a3.213 3.213 0 0 0 3.218-3.219c0-.506-.121-.981-.324-1.406a.51.51 0 0 1 0-.456m-12.26-2.672h-.012l1.198 2.355c.124 2.803 1.217 0 3.889 0s3.836 3.12 3.96.317l1.136-3.197c-.054-1.245-.956-1.332-1.136-1.332h-3.22a3.86 3.86 0 0 1-3.19-1.673a.264.264 0 0 0-.461.05l-.082.195a2.3 2.3 0 0 1-1.292 1.275c-.236.122-.79.49-.81 1.439l.01.306z" clip-rule="evenodd"/><path fill="url(#f3021id2)" fill-rule="evenodd" d="M23.185 11.918c.213-.435.324-.92.324-1.427c0-.467-.096-.905-.268-1.305h.005a3 3 0 0 0-.281-.513l-.002-.003a3.24 3.24 0 0 1-.527-1.771v-.01a3.3 3.3 0 0 0-3.299-3.3a.54.54 0 0 1-.455-.232A3.3 3.3 0 0 0 16 1.98a3.3 3.3 0 0 0-2.682 1.377a.56.56 0 0 1-.455.233h-.085a3.3 3.3 0 0 0-3.214 3.3v.01a3.24 3.24 0 0 1-.527 1.77l-.002.004a3.3 3.3 0 0 0-.22 3.245c.07.142.07.314 0 .456A3.213 3.213 0 0 0 11.709 17h8.582a3.213 3.213 0 0 0 3.218-3.219c0-.506-.121-.981-.324-1.406a.51.51 0 0 1 0-.456m-12.26-2.672h-.012l1.198 2.355c.124 2.803 1.217 0 3.889 0s3.836 3.12 3.96.317l1.136-3.197c-.054-1.245-.956-1.332-1.136-1.332h-3.22a3.86 3.86 0 0 1-3.19-1.673a.264.264 0 0 0-.461.05l-.082.195a2.3 2.3 0 0 1-1.292 1.275c-.236.122-.79.49-.81 1.439l.01.306z" clip-rule="evenodd"/><path fill="url(#f3021id3)" fill-rule="evenodd" d="M23.185 11.918c.213-.435.324-.92.324-1.427c0-.467-.096-.905-.268-1.305h.005a3 3 0 0 0-.281-.513l-.002-.003a3.24 3.24 0 0 1-.527-1.771v-.01a3.3 3.3 0 0 0-3.299-3.3a.54.54 0 0 1-.455-.232A3.3 3.3 0 0 0 16 1.98a3.3 3.3 0 0 0-2.682 1.377a.56.56 0 0 1-.455.233h-.085a3.3 3.3 0 0 0-3.214 3.3v.01a3.24 3.24 0 0 1-.527 1.77l-.002.004a3.3 3.3 0 0 0-.22 3.245c.07.142.07.314 0 .456A3.213 3.213 0 0 0 11.709 17h8.582a3.213 3.213 0 0 0 3.218-3.219c0-.506-.121-.981-.324-1.406a.51.51 0 0 1 0-.456m-12.26-2.672h-.012l1.198 2.355c.124 2.803 1.217 0 3.889 0s3.836 3.12 3.96.317l1.136-3.197c-.054-1.245-.956-1.332-1.136-1.332h-3.22a3.86 3.86 0 0 1-3.19-1.673a.264.264 0 0 0-.461.05l-.082.195a2.3 2.3 0 0 1-1.292 1.275c-.236.122-.79.49-.81 1.439l.01.306z" clip-rule="evenodd"/><path fill="url(#f3021id4)" fill-rule="evenodd" d="M23.185 11.918c.213-.435.324-.92.324-1.427c0-.467-.096-.905-.268-1.305h.005a3 3 0 0 0-.281-.513l-.002-.003a3.24 3.24 0 0 1-.527-1.771v-.01a3.3 3.3 0 0 0-3.299-3.3a.54.54 0 0 1-.455-.232A3.3 3.3 0 0 0 16 1.98a3.3 3.3 0 0 0-2.682 1.377a.56.56 0 0 1-.455.233h-.085a3.3 3.3 0 0 0-3.214 3.3v.01a3.24 3.24 0 0 1-.527 1.77l-.002.004a3.3 3.3 0 0 0-.22 3.245c.07.142.07.314 0 .456A3.213 3.213 0 0 0 11.709 17h8.582a3.213 3.213 0 0 0 3.218-3.219c0-.506-.121-.981-.324-1.406a.51.51 0 0 1 0-.456m-12.26-2.672h-.012l1.198 2.355c.124 2.803 1.217 0 3.889 0s3.836 3.12 3.96.317l1.136-3.197c-.054-1.245-.956-1.332-1.136-1.332h-3.22a3.86 3.86 0 0 1-3.19-1.673a.264.264 0 0 0-.461.05l-.082.195a2.3 2.3 0 0 1-1.292 1.275c-.236.122-.79.49-.81 1.439l.01.306z" clip-rule="evenodd"/><path fill="url(#f3021id5)" fill-rule="evenodd" d="M23.185 11.918c.213-.435.324-.92.324-1.427c0-.467-.096-.905-.268-1.305h.005a3 3 0 0 0-.281-.513l-.002-.003a3.24 3.24 0 0 1-.527-1.771v-.01a3.3 3.3 0 0 0-3.299-3.3a.54.54 0 0 1-.455-.232A3.3 3.3 0 0 0 16 1.98a3.3 3.3 0 0 0-2.682 1.377a.56.56 0 0 1-.455.233h-.085a3.3 3.3 0 0 0-3.214 3.3v.01a3.24 3.24 0 0 1-.527 1.77l-.002.004a3.3 3.3 0 0 0-.22 3.245c.07.142.07.314 0 .456A3.213 3.213 0 0 0 11.709 17h8.582a3.213 3.213 0 0 0 3.218-3.219c0-.506-.121-.981-.324-1.406a.51.51 0 0 1 0-.456m-12.26-2.672h-.012l1.198 2.355c.124 2.803 1.217 0 3.889 0s3.836 3.12 3.96.317l1.136-3.197c-.054-1.245-.956-1.332-1.136-1.332h-3.22a3.86 3.86 0 0 1-3.19-1.673a.264.264 0 0 0-.461.05l-.082.195a2.3 2.3 0 0 1-1.292 1.275c-.236.122-.79.49-.81 1.439l.01.306z" clip-rule="evenodd"/><path fill="url(#f3021id6)" fill-rule="evenodd" d="M23.185 11.918c.213-.435.324-.92.324-1.427c0-.467-.096-.905-.268-1.305h.005a3 3 0 0 0-.281-.513l-.002-.003a3.24 3.24 0 0 1-.527-1.771v-.01a3.3 3.3 0 0 0-3.299-3.3a.54.54 0 0 1-.455-.232A3.3 3.3 0 0 0 16 1.98a3.3 3.3 0 0 0-2.682 1.377a.56.56 0 0 1-.455.233h-.085a3.3 3.3 0 0 0-3.214 3.3v.01a3.24 3.24 0 0 1-.527 1.77l-.002.004a3.3 3.3 0 0 0-.22 3.245c.07.142.07.314 0 .456A3.213 3.213 0 0 0 11.709 17h8.582a3.213 3.213 0 0 0 3.218-3.219c0-.506-.121-.981-.324-1.406a.51.51 0 0 1 0-.456m-12.26-2.672h-.012l1.198 2.355c.124 2.803 1.217 0 3.889 0s3.836 3.12 3.96.317l1.136-3.197c-.054-1.245-.956-1.332-1.136-1.332h-3.22a3.86 3.86 0 0 1-3.19-1.673a.264.264 0 0 0-.461.05l-.082.195a2.3 2.3 0 0 1-1.292 1.275c-.236.122-.79.49-.81 1.439l.01.306z" clip-rule="evenodd"/><path fill="url(#f3021id7)" fill-rule="evenodd" d="M23.185 11.918c.213-.435.324-.92.324-1.427c0-.467-.096-.905-.268-1.305h.005a3 3 0 0 0-.281-.513l-.002-.003a3.24 3.24 0 0 1-.527-1.771v-.01a3.3 3.3 0 0 0-3.299-3.3a.54.54 0 0 1-.455-.232A3.3 3.3 0 0 0 16 1.98a3.3 3.3 0 0 0-2.682 1.377a.56.56 0 0 1-.455.233h-.085a3.3 3.3 0 0 0-3.214 3.3v.01a3.24 3.24 0 0 1-.527 1.77l-.002.004a3.3 3.3 0 0 0-.22 3.245c.07.142.07.314 0 .456A3.213 3.213 0 0 0 11.709 17h8.582a3.213 3.213 0 0 0 3.218-3.219c0-.506-.121-.981-.324-1.406a.51.51 0 0 1 0-.456m-12.26-2.672h-.012l1.198 2.355c.124 2.803 1.217 0 3.889 0s3.836 3.12 3.96.317l1.136-3.197c-.054-1.245-.956-1.332-1.136-1.332h-3.22a3.86 3.86 0 0 1-3.19-1.673a.264.264 0 0 0-.461.05l-.082.195a2.3 2.3 0 0 1-1.292 1.275c-.236.122-.79.49-.81 1.439l.01.306z" clip-rule="evenodd"/><path fill="url(#f3021id8)" fill-rule="evenodd" d="M23.185 11.918c.213-.435.324-.92.324-1.427c0-.467-.096-.905-.268-1.305h.005a3 3 0 0 0-.281-.513l-.002-.003a3.24 3.24 0 0 1-.527-1.771v-.01a3.3 3.3 0 0 0-3.299-3.3a.54.54 0 0 1-.455-.232A3.3 3.3 0 0 0 16 1.98a3.3 3.3 0 0 0-2.682 1.377a.56.56 0 0 1-.455.233h-.085a3.3 3.3 0 0 0-3.214 3.3v.01a3.24 3.24 0 0 1-.527 1.77l-.002.004a3.3 3.3 0 0 0-.22 3.245c.07.142.07.314 0 .456A3.213 3.213 0 0 0 11.709 17h8.582a3.213 3.213 0 0 0 3.218-3.219c0-.506-.121-.981-.324-1.406a.51.51 0 0 1 0-.456m-12.26-2.672h-.012l1.198 2.355c.124 2.803 1.217 0 3.889 0s3.836 3.12 3.96.317l1.136-3.197c-.054-1.245-.956-1.332-1.136-1.332h-3.22a3.86 3.86 0 0 1-3.19-1.673a.264.264 0 0 0-.461.05l-.082.195a2.3 2.3 0 0 1-1.292 1.275c-.236.122-.79.49-.81 1.439l.01.306z" clip-rule="evenodd"/><path fill="url(#f3021id9)" fill-rule="evenodd" d="M23.185 11.918c.213-.435.324-.92.324-1.427c0-.467-.096-.905-.268-1.305h.005a3 3 0 0 0-.281-.513l-.002-.003a3.24 3.24 0 0 1-.527-1.771v-.01a3.3 3.3 0 0 0-3.299-3.3a.54.54 0 0 1-.455-.232A3.3 3.3 0 0 0 16 1.98a3.3 3.3 0 0 0-2.682 1.377a.56.56 0 0 1-.455.233h-.085a3.3 3.3 0 0 0-3.214 3.3v.01a3.24 3.24 0 0 1-.527 1.77l-.002.004a3.3 3.3 0 0 0-.22 3.245c.07.142.07.314 0 .456A3.213 3.213 0 0 0 11.709 17h8.582a3.213 3.213 0 0 0 3.218-3.219c0-.506-.121-.981-.324-1.406a.51.51 0 0 1 0-.456m-12.26-2.672h-.012l1.198 2.355c.124 2.803 1.217 0 3.889 0s3.836 3.12 3.96.317l1.136-3.197c-.054-1.245-.956-1.332-1.136-1.332h-3.22a3.86 3.86 0 0 1-3.19-1.673a.264.264 0 0 0-.461.05l-.082.195a2.3 2.3 0 0 1-1.292 1.275c-.236.122-.79.49-.81 1.439l.01.306z" clip-rule="evenodd"/></g><g filter="url(#f3021id1m)"><path fill="url(#f3021id13)" d="M11.314 12.118a1.61 1.61 0 1 0 0-3.219a1.61 1.61 0 0 0 0 3.219"/></g><g filter="url(#f3021id1n)"><path fill="url(#f3021ida)" d="M20.827 12.118a1.61 1.61 0 1 0 0-3.219a1.61 1.61 0 0 0 0 3.219"/></g><g filter="url(#f3021id1o)"><path fill="#FFCA38" d="M20.827 11.583a1.074 1.074 0 1 0 0-2.148a1.074 1.074 0 0 0 0 2.148"/><path fill="url(#f3021idb)" d="M20.827 11.583a1.074 1.074 0 1 0 0-2.148a1.074 1.074 0 0 0 0 2.148"/></g><g filter="url(#f3021id1p)"><path fill="#E28527" d="M11.334 11.583a1.074 1.074 0 1 0 0-2.148a1.074 1.074 0 0 0 0 2.148"/><path fill="url(#f3021idc)" d="M11.334 11.583a1.074 1.074 0 1 0 0-2.148a1.074 1.074 0 0 0 0 2.148"/></g><g filter="url(#f3021id1q)"><path fill="url(#f3021idd)" d="M10.913 9.246h.012l-.01-.266l-.01-.306c.02-.949.574-1.316.81-1.438l.05-.02l.052-.021a2.3 2.3 0 0 0 1.19-1.235l.082-.194a.264.264 0 0 1 .461-.05a3.86 3.86 0 0 0 3.19 1.673h3.22c.18 0 1.082.087 1.135 1.332l-.118 3.073c-.124 2.803-2.312 4.684-4.984 4.684c-2.671 0-4.86-1.882-4.983-4.684z"/><path fill="url(#f3021ide)" d="M10.913 9.246h.012l-.01-.266l-.01-.306c.02-.949.574-1.316.81-1.438l.05-.02l.052-.021a2.3 2.3 0 0 0 1.19-1.235l.082-.194a.264.264 0 0 1 .461-.05a3.86 3.86 0 0 0 3.19 1.673h3.22c.18 0 1.082.087 1.135 1.332l-.118 3.073c-.124 2.803-2.312 4.684-4.984 4.684c-2.671 0-4.86-1.882-4.983-4.684z"/><path fill="url(#f3021idf)" d="M10.913 9.246h.012l-.01-.266l-.01-.306c.02-.949.574-1.316.81-1.438l.05-.02l.052-.021a2.3 2.3 0 0 0 1.19-1.235l.082-.194a.264.264 0 0 1 .461-.05a3.86 3.86 0 0 0 3.19 1.673h3.22c.18 0 1.082.087 1.135 1.332l-.118 3.073c-.124 2.803-2.312 4.684-4.984 4.684c-2.671 0-4.86-1.882-4.983-4.684z"/><path fill="url(#f3021idg)" d="M10.913 9.246h.012l-.01-.266l-.01-.306c.02-.949.574-1.316.81-1.438l.05-.02l.052-.021a2.3 2.3 0 0 0 1.19-1.235l.082-.194a.264.264 0 0 1 .461-.05a3.86 3.86 0 0 0 3.19 1.673h3.22c.18 0 1.082.087 1.135 1.332l-.118 3.073c-.124 2.803-2.312 4.684-4.984 4.684c-2.671 0-4.86-1.882-4.983-4.684z"/><path fill="url(#f3021idh)" d="M10.913 9.246h.012l-.01-.266l-.01-.306c.02-.949.574-1.316.81-1.438l.05-.02l.052-.021a2.3 2.3 0 0 0 1.19-1.235l.082-.194a.264.264 0 0 1 .461-.05a3.86 3.86 0 0 0 3.19 1.673h3.22c.18 0 1.082.087 1.135 1.332l-.118 3.073c-.124 2.803-2.312 4.684-4.984 4.684c-2.671 0-4.86-1.882-4.983-4.684z"/><path fill="url(#f3021idi)" d="M10.913 9.246h.012l-.01-.266l-.01-.306c.02-.949.574-1.316.81-1.438l.05-.02l.052-.021a2.3 2.3 0 0 0 1.19-1.235l.082-.194a.264.264 0 0 1 .461-.05a3.86 3.86 0 0 0 3.19 1.673h3.22c.18 0 1.082.087 1.135 1.332l-.118 3.073c-.124 2.803-2.312 4.684-4.984 4.684c-2.671 0-4.86-1.882-4.983-4.684z"/><path fill="url(#f3021idj)" d="M10.913 9.246h.012l-.01-.266l-.01-.306c.02-.949.574-1.316.81-1.438l.05-.02l.052-.021a2.3 2.3 0 0 0 1.19-1.235l.082-.194a.264.264 0 0 1 .461-.05a3.86 3.86 0 0 0 3.19 1.673h3.22c.18 0 1.082.087 1.135 1.332l-.118 3.073c-.124 2.803-2.312 4.684-4.984 4.684c-2.671 0-4.86-1.882-4.983-4.684z"/></g><path fill="url(#f3021idk)" d="M10.913 9.246h.012l-.01-.266l-.01-.306c.02-.949.574-1.316.81-1.438l.05-.02l.052-.021a2.3 2.3 0 0 0 1.19-1.235l.082-.194a.264.264 0 0 1 .461-.05a3.86 3.86 0 0 0 3.19 1.673h3.22c.18 0 1.082.087 1.135 1.332l-.118 3.073c-.124 2.803-2.312 4.684-4.984 4.684c-2.671 0-4.86-1.882-4.983-4.684z"/><g filter="url(#f3021id1r)"><path fill="#EB8B29" d="m15.607 10.286l-.683 1.7a.54.54 0 0 0 .52.7h.787a.54.54 0 0 0 .52-.7l-.531-1.7c-.114-.377-.493-.377-.613 0"/></g><g filter="url(#f3021id1s)"><path fill="url(#f3021id14)" d="m15.618 10.147l-.532 1.7a.54.54 0 0 0 .52.7h.787a.54.54 0 0 0 .52-.7l-.53-1.7c-.114-.376-.646-.376-.765 0"/><path fill="url(#f3021idl)" d="m15.618 10.147l-.532 1.7a.54.54 0 0 0 .52.7h.787a.54.54 0 0 0 .52-.7l-.53-1.7c-.114-.376-.646-.376-.765 0"/><path fill="url(#f3021id15)" d="m15.618 10.147l-.532 1.7a.54.54 0 0 0 .52.7h.787a.54.54 0 0 0 .52-.7l-.53-1.7c-.114-.376-.646-.376-.765 0"/><path fill="url(#f3021id16)" d="m15.618 10.147l-.532 1.7a.54.54 0 0 0 .52.7h.787a.54.54 0 0 0 .52-.7l-.53-1.7c-.114-.376-.646-.376-.765 0"/></g><path fill="url(#f3021id17)" d="m15.618 10.147l-.532 1.7a.54.54 0 0 0 .52.7h.787a.54.54 0 0 0 .52-.7l-.53-1.7c-.114-.376-.646-.376-.765 0"/><path fill="url(#f3021idm)" d="m15.618 10.147l-.532 1.7a.54.54 0 0 0 .52.7h.787a.54.54 0 0 0 .52-.7l-.53-1.7c-.114-.376-.646-.376-.765 0"/><path fill="#8A004F" stroke="url(#f3021id18)" stroke-width=".1" d="M14.602 13.031a.204.204 0 0 0-.248.043a.196.196 0 0 0-.02.248a1.982 1.982 0 0 0 3.333 0a.2.2 0 0 0-.022-.25a.205.205 0 0 0-.246-.041A3 3 0 0 1 16 13.37a3 3 0 0 1-1.398-.339Z"/><g filter="url(#f3021id1t)"><path fill="#635D5F" d="M17.142 9.94c.265-.467.669-.836 1.537-.836c.38 0 .747.105 1.073.369c.27.217.233.495.025.599l-.556.317c-.652-.21-1.373-.239-2.079-.45"/></g><g filter="url(#f3021id1u)"><path fill="#635D5F" d="M14.858 9.94c-.265-.467-.669-.836-1.537-.836c-.38 0-.747.105-1.073.369c-.269.217-.233.495-.025.599l.556.317c.652-.21 1.373-.239 2.08-.45"/></g><g filter="url(#f3021id1v)"><path fill="#BD4F26" d="m12.602 8.73l-.004.003a.268.268 0 0 1-.276-.46h.002l.003-.003l.01-.005a2 2 0 0 1 .148-.077a3 3 0 0 1 .41-.162c.34-.108.815-.2 1.328-.109a.268.268 0 1 1-.093.528a2.3 2.3 0 0 0-1.072.092a3 3 0 0 0-.434.182z"/></g><g filter="url(#f3021id1w)"><path fill="#BD4F26" fill-rule="evenodd" d="m19.732 8.273l-.138.23za.268.268 0 0 1-.275.46l-.005-.002a1 1 0 0 0-.113-.059a3 3 0 0 0-.342-.135a2.3 2.3 0 0 0-1.072-.092a.268.268 0 1 1-.093-.528c.513-.09.988.001 1.328.11a3.3 3.3 0 0 1 .559.238l.009.005z" clip-rule="evenodd"/></g><path fill="#fff" d="M18.391 9.163c.653 0 1.205.45 1.355 1.058a.274.274 0 0 1-.268.341h-2.23a.23.23 0 0 1-.228-.272c.126-.64.69-1.127 1.371-1.127"/><path fill="url(#f3021idn)" d="M18.184 9.435a.892.892 0 0 1 .86 1.127H17.32a.896.896 0 0 1 .864-1.128"/><path fill="#000" d="M17.673 10.327c0-.284.227-.511.511-.511a.51.51 0 0 1 .454.746h-.904a.46.46 0 0 1-.061-.235"/><g filter="url(#f3021id1x)"><path fill="#C7A7A3" d="M18.118 9.623c.063.085-.07.189-.22.302c-.151.113-.263.192-.327.107c-.063-.085.007-.245.159-.358c.15-.113.324-.136.388-.05"/><path fill="url(#f3021ido)" d="M18.118 9.623c.063.085-.07.189-.22.302c-.151.113-.263.192-.327.107c-.063-.085.007-.245.159-.358c.15-.113.324-.136.388-.05"/></g><g filter="url(#f3021id1y)"><path fill="url(#f3021id19)" d="M18.979 10.209a.84.84 0 0 0-.232-.462l-.26.285l.118.228z"/></g><path fill="#fff" d="M13.609 9.163c-.653 0-1.205.45-1.355 1.058a.275.275 0 0 0 .268.341h2.231a.23.23 0 0 0 .227-.272a1.4 1.4 0 0 0-1.371-1.127"/><path fill="url(#f3021idp)" d="M13.816 9.435a.892.892 0 0 0-.86 1.127h1.724a1 1 0 0 0 .032-.235a.9.9 0 0 0-.896-.892"/><path fill="#000" d="M14.327 10.327a.51.51 0 0 0-.511-.511a.51.51 0 0 0-.455.746h.905a.5.5 0 0 0 .061-.235"/><g filter="url(#f3021id1z)"><path fill="url(#f3021id1a)" d="M14.63 10.221c0-.288-.234-.48-.297-.538l-.288.279l.177.36z"/></g><g filter="url(#f3021id20)"><ellipse cx="13.546" cy="9.816" fill="#C7A7A3" fill-opacity=".9" rx=".389" ry=".197" transform="rotate(-27.914 13.546 9.816)"/><ellipse cx="13.546" cy="9.816" fill="url(#f3021idq)" rx=".389" ry=".197" transform="rotate(-27.914 13.546 9.816)"/></g><g filter="url(#f3021id21)"><path stroke="#C9725D" stroke-linecap="round" stroke-width=".2" d="M17.94 8.136c.322-.079 1.124-.04 1.66.344"/></g><g filter="url(#f3021id22)"><path stroke="#C9725D" stroke-linecap="round" stroke-width=".2" d="M14.149 8.136c-.323-.079-1.125-.04-1.661.344"/></g><g filter="url(#f3021id23)"><path fill="url(#f3021idr)" d="M11.106 4.495c.62-.554 1.517-.56 2.02-.47l.402 1.29c-.257-.038-.486.051-.679.236c-.456 1.26-2.023 1.955-2.749 2.145c-.15-1.492-.067-2.246 1.006-3.201"/><path fill="url(#f3021ids)" d="M11.106 4.495c.62-.554 1.517-.56 2.02-.47l.402 1.29c-.257-.038-.486.051-.679.236c-.456 1.26-2.023 1.955-2.749 2.145c-.15-1.492-.067-2.246 1.006-3.201"/></g><g filter="url(#f3021id24)"><path fill="url(#f3021idt)" d="M15.397 2.718c-1.133-.25-2.347.955-2.464 1.374c1.542 3.62 3.91 3.276 6.537 2.984c1.572-.175 1.743.542 1.877.888c-.436-4.056-3.37-4.676-5.95-5.246"/><path fill="url(#f3021idu)" d="M15.397 2.718c-1.133-.25-2.347.955-2.464 1.374c1.542 3.62 3.91 3.276 6.537 2.984c1.572-.175 1.743.542 1.877.888c-.436-4.056-3.37-4.676-5.95-5.246"/><path fill="url(#f3021idv)" d="M15.397 2.718c-1.133-.25-2.347.955-2.464 1.374c1.542 3.62 3.91 3.276 6.537 2.984c1.572-.175 1.743.542 1.877.888c-.436-4.056-3.37-4.676-5.95-5.246"/></g><g filter="url(#f3021id25)"><path stroke="url(#f3021id1b)" stroke-linecap="round" stroke-width=".1" d="M13.109 3.967c.023.243.234 1.156.544 1.71"/></g><g filter="url(#f3021id26)"><path fill="url(#f3021id1c)" d="M26.03 16.02H5.97a.97.97 0 0 0-.97.97v13.03h22V16.99a.97.97 0 0 0-.97-.97"/><path fill="url(#f3021idw)" d="M26.03 16.02H5.97a.97.97 0 0 0-.97.97v13.03h22V16.99a.97.97 0 0 0-.97-.97"/><path fill="url(#f3021id1d)" d="M26.03 16.02H5.97a.97.97 0 0 0-.97.97v13.03h22V16.99a.97.97 0 0 0-.97-.97"/><path fill="url(#f3021id1e)" d="M26.03 16.02H5.97a.97.97 0 0 0-.97.97v13.03h22V16.99a.97.97 0 0 0-.97-.97"/><path fill="url(#f3021id1f)" d="M26.03 16.02H5.97a.97.97 0 0 0-.97.97v13.03h22V16.99a.97.97 0 0 0-.97-.97"/><path fill="url(#f3021idx)" d="M26.03 16.02H5.97a.97.97 0 0 0-.97.97v13.03h22V16.99a.97.97 0 0 0-.97-.97"/></g><path fill="url(#f3021id1g)" d="M14.444 21.89a.25.25 0 0 1 .25-.25h2.61a.25.25 0 0 1 .25.25v2.417a.25.25 0 0 1-.25.25h-2.61a.25.25 0 0 1-.25-.25z"/><path fill="url(#f3021id1h)" d="M14.444 21.89a.25.25 0 0 1 .25-.25h2.61a.25.25 0 0 1 .25.25v2.417a.25.25 0 0 1-.25.25h-2.61a.25.25 0 0 1-.25-.25z"/><path fill="url(#f3021id1i)" d="M14.444 21.89a.25.25 0 0 1 .25-.25h2.61a.25.25 0 0 1 .25.25v2.417a.25.25 0 0 1-.25.25h-2.61a.25.25 0 0 1-.25-.25z"/><path fill="url(#f3021id1j)" d="M14.444 21.89a.25.25 0 0 1 .25-.25h2.61a.25.25 0 0 1 .25.25v2.417a.25.25 0 0 1-.25.25h-2.61a.25.25 0 0 1-.25-.25z"/><path fill="url(#f3021id1k)" d="M14.444 21.89a.25.25 0 0 1 .25-.25h2.61a.25.25 0 0 1 .25.25v2.417a.25.25 0 0 1-.25.25h-2.61a.25.25 0 0 1-.25-.25z"/><path fill="url(#f3021idy)" fill-opacity=".6" d="M14.444 21.89a.25.25 0 0 1 .25-.25h2.61a.25.25 0 0 1 .25.25v2.417a.25.25 0 0 1-.25.25h-2.61a.25.25 0 0 1-.25-.25z"/><defs><radialGradient id="f3021id0" cx="0" cy="0" r="1" gradientTransform="matrix(2.78125 -.09375 .1236 3.66674 2.774 28.754)" gradientUnits="userSpaceOnUse"><stop offset=".331" stop-color="#FDC64D"/><stop offset="1" stop-color="#EBA02A"/></radialGradient><radialGradient id="f3021id1" cx="0" cy="0" r="1" gradientTransform="rotate(151.68 11.043 17.873)scale(3.47887 3.35016)" gradientUnits="userSpaceOnUse"><stop stop-color="#FFEB48"/><stop offset="1" stop-color="#F8C743"/></radialGradient><radialGradient id="f3021id2" cx="0" cy="0" r="1" gradientTransform="matrix(0 4.45645 -2.68487 0 11.429 12.542)" gradientUnits="userSpaceOnUse"><stop stop-color="#C9641B"/><stop offset="1" stop-color="#D77117" stop-opacity="0"/></radialGradient><radialGradient id="f3021id3" cx="0" cy="0" r="1" gradientTransform="matrix(-.9375 5.4375 -5.66415 -.97658 14.952 12.693)" gradientUnits="userSpaceOnUse"><stop offset=".617" stop-color="#E26B25"/><stop offset="1" stop-color="#E26B25" stop-opacity="0"/></radialGradient><radialGradient id="f3021id4" cx="0" cy="0" r="1" gradientTransform="matrix(-1.24075 1.61016 -1.56338 -1.2047 11.09 10.83)" gradientUnits="userSpaceOnUse"><stop offset=".161" stop-color="#C9681C"/><stop offset="1" stop-color="#C9681C" stop-opacity="0"/></radialGradient><radialGradient id="f3021id5" cx="0" cy="0" r="1" gradientTransform="matrix(-.46758 2.51377 -2.61762 -.4869 11.68 8.393)" gradientUnits="userSpaceOnUse"><stop offset=".365" stop-color="#D76A18"/><stop offset="1" stop-color="#D76A18" stop-opacity="0"/></radialGradient><radialGradient id="f3021id6" cx="0" cy="0" r="1" gradientTransform="rotate(62.605 3.58 12.086)scale(2.38097 4.53569)" gradientUnits="userSpaceOnUse"><stop offset=".222" stop-color="#CBA140"/><stop offset=".921" stop-color="#CBA140" stop-opacity="0"/></radialGradient><radialGradient id="f3021id7" cx="0" cy="0" r="1" gradientTransform="rotate(132.51 9.701 7.11)scale(1.63713 2.28786)" gradientUnits="userSpaceOnUse"><stop stop-color="#FFDF3C"/><stop offset="1" stop-color="#FFDF3C" stop-opacity="0"/></radialGradient><radialGradient id="f3021id8" cx="0" cy="0" r="1" gradientTransform="matrix(-1.84366 .53637 -1.16706 -4.01156 23.51 9.657)" gradientUnits="userSpaceOnUse"><stop stop-color="#FFD537"/><stop offset="1" stop-color="#FFD336" stop-opacity="0"/><stop offset="1" stop-color="#FFD537" stop-opacity="0"/></radialGradient><radialGradient id="f3021id9" cx="0" cy="0" r="1" gradientTransform="matrix(-.00843 -1.37436 .45061 -.00276 13.295 5.84)" gradientUnits="userSpaceOnUse"><stop offset=".295" stop-color="#DB6009"/><stop offset="1" stop-color="#DB6009" stop-opacity="0"/></radialGradient><radialGradient id="f3021ida" cx="0" cy="0" r="1" gradientTransform="matrix(2.48905 -1.13139 1.38138 3.03902 20.04 10.948)" gradientUnits="userSpaceOnUse"><stop offset=".572" stop-color="#FFC531"/><stop offset=".905" stop-color="#FFE549"/></radialGradient><radialGradient id="f3021idb" cx="0" cy="0" r="1" gradientTransform="rotate(-20.298 40.314 -52.146)scale(1.30459)" gradientUnits="userSpaceOnUse"><stop offset=".71" stop-color="#FFBA25" stop-opacity="0"/><stop offset="1" stop-color="#FFBA25"/></radialGradient><radialGradient id="f3021idc" cx="0" cy="0" r="1" gradientTransform="matrix(-1.07411 0 0 -1.02745 11.334 10.509)" gradientUnits="userSpaceOnUse"><stop offset=".415" stop-color="#D67923" stop-opacity="0"/><stop offset="1" stop-color="#D67923"/></radialGradient><radialGradient id="f3021idd" cx="0" cy="0" r="1" gradientTransform="rotate(155.244 8.335 7.055)scale(7.16175 9.58588)" gradientUnits="userSpaceOnUse"><stop stop-color="#FFE644"/><stop offset="1" stop-color="#EB9235"/></radialGradient><radialGradient id="f3021ide" cx="0" cy="0" r="1" gradientTransform="matrix(-2.10973 1.11592 -.94678 -1.78996 17.9 10.668)" gradientUnits="userSpaceOnUse"><stop stop-color="#FFE842"/><stop offset="1" stop-color="#FFE842" stop-opacity="0"/></radialGradient><radialGradient id="f3021idf" cx="0" cy="0" r="1" gradientTransform="matrix(.8369 -4.04513 5.13253 1.06187 13.82 16.753)" gradientUnits="userSpaceOnUse"><stop stop-color="#E4883F"/><stop offset="1" stop-color="#E4883F" stop-opacity="0"/></radialGradient><radialGradient id="f3021idg" cx="0" cy="0" r="1" gradientTransform="matrix(0 7.44059 -11.8177 0 15.738 9.487)" gradientUnits="userSpaceOnUse"><stop offset=".565" stop-color="#E0942E" stop-opacity="0"/><stop offset=".952" stop-color="#CB7B39"/></radialGradient><radialGradient id="f3021idh" cx="0" cy="0" r="1" gradientTransform="matrix(-5.42256 1.49953 -2.58173 -9.33598 16.627 11.627)" gradientUnits="userSpaceOnUse"><stop offset=".877" stop-color="#D4993E" stop-opacity="0"/><stop offset="1" stop-color="#D4993E"/></radialGradient><radialGradient id="f3021idi" cx="0" cy="0" r="1" gradientTransform="matrix(0 -1.15077 1.41231 0 18.301 9.552)" gradientUnits="userSpaceOnUse"><stop stop-color="#FFBB31"/><stop offset="1" stop-color="#FFBB31" stop-opacity="0"/></radialGradient><radialGradient id="f3021idj" cx="0" cy="0" r="1" gradientTransform="matrix(0 -1.36 1.55865 0 14.082 9.64)" gradientUnits="userSpaceOnUse"><stop stop-color="#F09429"/><stop offset="1" stop-color="#F09429" stop-opacity="0"/></radialGradient><radialGradient id="f3021idk" cx="0" cy="0" r="1" gradientTransform="matrix(-1.34695 0 0 -4.43421 21.095 11.04)" gradientUnits="userSpaceOnUse"><stop stop-color="#FFDA39"/><stop offset="1" stop-color="#FFDA39" stop-opacity="0"/></radialGradient><radialGradient id="f3021idl" cx="0" cy="0" r="1" gradientTransform="matrix(-.69746 -2.44974 1.40177 -.3991 16.784 11.767)" gradientUnits="userSpaceOnUse"><stop offset=".017" stop-color="#FFE848"/><stop offset="1" stop-color="#FFE848" stop-opacity="0"/></radialGradient><radialGradient id="f3021idm" cx="0" cy="0" r="1" gradientTransform="rotate(144.462 6.316 8.314)scale(1.57489 2.10945)" gradientUnits="userSpaceOnUse"><stop offset=".797" stop-color="#E2802F" stop-opacity="0"/><stop offset="1" stop-color="#E2802F"/></radialGradient><radialGradient id="f3021idn" cx="0" cy="0" r="1" gradientTransform="matrix(0 .81132 -1.29049 0 18.182 9.912)" gradientUnits="userSpaceOnUse"><stop offset=".802" stop-color="#925C51"/><stop offset="1" stop-color="#694B43"/><stop offset="1" stop-color="#804D49"/><stop offset="1" stop-color="#85534D"/></radialGradient><radialGradient id="f3021ido" cx="0" cy="0" r="1" gradientTransform="rotate(-127.812 11.424 .601)scale(.37798 .52039)" gradientUnits="userSpaceOnUse"><stop offset=".766" stop-color="#FFE6E2" stop-opacity="0"/><stop offset=".966" stop-color="#FFE6E2"/></radialGradient><radialGradient id="f3021idp" cx="0" cy="0" r="1" gradientTransform="matrix(0 .81132 -1.2905 0 13.818 9.912)" gradientUnits="userSpaceOnUse"><stop offset=".802" stop-color="#925C51"/><stop offset="1" stop-color="#694B43"/><stop offset="1" stop-color="#804D49"/><stop offset="1" stop-color="#85534D"/></radialGradient><radialGradient id="f3021idq" cx="0" cy="0" r="1" gradientTransform="matrix(-.00773 -.49366 .5934 -.0093 13.531 10.13)" gradientUnits="userSpaceOnUse"><stop offset=".766" stop-color="#FFE6E2" stop-opacity="0"/><stop offset=".966" stop-color="#FFE6E2"/></radialGradient><radialGradient id="f3021idr" cx="0" cy="0" r="1" gradientTransform="rotate(129.554 5.805 4.907)scale(5.36951 2.34181)" gradientUnits="userSpaceOnUse"><stop offset=".396" stop-color="#EE971B" stop-opacity="0"/><stop offset=".911" stop-color="#D8772C"/></radialGradient><radialGradient id="f3021ids" cx="0" cy="0" r="1" gradientTransform="rotate(144.458 5.915 4.158)scale(3.81321 1.88454)" gradientUnits="userSpaceOnUse"><stop offset=".12" stop-color="#FFCA2D"/><stop offset="1" stop-color="#FFE134" stop-opacity="0"/><stop offset="1" stop-color="#FFCA2D" stop-opacity="0"/></radialGradient><radialGradient id="f3021idt" cx="0" cy="0" r="1" gradientTransform="matrix(-2.18534 4.55504 -6.4674 -3.10282 17.791 2.383)" gradientUnits="userSpaceOnUse"><stop offset=".627" stop-color="#F49523" stop-opacity="0"/><stop offset="1" stop-color="#F49523"/></radialGradient><radialGradient id="f3021idu" cx="0" cy="0" r="1" gradientTransform="rotate(105.909 7.882 8.804)scale(3.44004 7.20923)" gradientUnits="userSpaceOnUse"><stop offset=".132" stop-color="#FFE337"/><stop offset="1" stop-color="#FFE337" stop-opacity="0"/></radialGradient><radialGradient id="f3021idv" cx="0" cy="0" r="1" gradientTransform="matrix(-3.41682 -6.46744 5.78149 -3.05443 17.15 9.268)" gradientUnits="userSpaceOnUse"><stop offset=".898" stop-color="#CA9B37" stop-opacity="0"/><stop offset="1" stop-color="#CA9B37"/></radialGradient><radialGradient id="f3021idw" cx="0" cy="0" r="1" gradientTransform="matrix(0 -7.59705 13.2772 0 17.243 31.067)" gradientUnits="userSpaceOnUse"><stop offset=".027" stop-color="#78698C"/><stop offset="1" stop-color="#7A6B8E" stop-opacity="0"/></radialGradient><radialGradient id="f3021idx" cx="0" cy="0" r="1" gradientTransform="matrix(-.78125 .4375 -.4057 -.72446 26.696 16.66)" gradientUnits="userSpaceOnUse"><stop stop-color="#E5DFF1"/><stop offset=".724" stop-color="#E5DFF1" stop-opacity="0"/></radialGradient><radialGradient id="f3021idy" cx="0" cy="0" r="1" gradientTransform="matrix(-.0957 .08008 -.11939 -.14269 17.371 21.824)" gradientUnits="userSpaceOnUse"><stop stop-color="#806B97"/><stop offset="1" stop-color="#8D78A4" stop-opacity="0"/></radialGradient><linearGradient id="f3021idz" x1="16" x2="16" y1="6.703" y2="34.611" gradientUnits="userSpaceOnUse"><stop stop-color="#636363"/><stop offset="1" stop-color="#1C1C1C"/></linearGradient><linearGradient id="f3021id10" x1="10.918" x2="1.428" y1="24.003" y2="24.044" gradientUnits="userSpaceOnUse"><stop stop-color="#1C1C1C"/><stop offset="1" stop-color="#636363"/></linearGradient><linearGradient id="f3021id11" x1="22.998" x2="28.652" y1="24.02" y2="24.02" gradientUnits="userSpaceOnUse"><stop stop-color="#1C1C1C"/><stop offset="1" stop-color="#636363"/></linearGradient><linearGradient id="f3021id12" x1="20.693" x2="13.452" y1="3.556" y2="16.999" gradientUnits="userSpaceOnUse"><stop stop-color="#FFD93C"/><stop offset="1" stop-color="#E37923"/></linearGradient><linearGradient id="f3021id13" x1="9.705" x2="12.665" y1="10.596" y2="10.596" gradientUnits="userSpaceOnUse"><stop stop-color="#E79B27"/><stop offset="1" stop-color="#B96201"/></linearGradient><linearGradient id="f3021id14" x1="16" x2="16" y1="12.547" y2="9.865" gradientUnits="userSpaceOnUse"><stop stop-color="#FFC134"/><stop offset="1" stop-color="#F8C73F"/></linearGradient><linearGradient id="f3021id15" x1="14.954" x2="15.808" y1="11.784" y2="11.889" gradientUnits="userSpaceOnUse"><stop stop-color="#F8A322"/><stop offset="1" stop-color="#F8A322" stop-opacity="0"/></linearGradient><linearGradient id="f3021id16" x1="16" x2="16" y1="12.639" y2="12.028" gradientUnits="userSpaceOnUse"><stop stop-color="#E48538"/><stop offset="1" stop-color="#E48538" stop-opacity="0"/></linearGradient><linearGradient id="f3021id17" x1="16.078" x2="16.078" y1="12.612" y2="12.473" gradientUnits="userSpaceOnUse"><stop stop-color="#E2802F"/><stop offset="1" stop-color="#E2802F" stop-opacity="0"/></linearGradient><linearGradient id="f3021id18" x1="15.271" x2="15.724" y1="14.116" y2="13.244" gradientUnits="userSpaceOnUse"><stop stop-color="#FEAC35"/><stop offset="1" stop-color="#FEAC35" stop-opacity="0"/></linearGradient><linearGradient id="f3021id19" x1="18.96" x2="18.646" y1="9.965" y2="10.158" gradientUnits="userSpaceOnUse"><stop stop-color="#B4948D"/><stop offset="1" stop-color="#B4948D" stop-opacity="0"/></linearGradient><linearGradient id="f3021id1a" x1="14.561" x2="14.248" y1="9.965" y2="10.158" gradientUnits="userSpaceOnUse"><stop stop-color="#B4948D"/><stop offset="1" stop-color="#B4948D" stop-opacity="0"/></linearGradient><linearGradient id="f3021id1b" x1="13.109" x2="13.653" y1="4.31" y2="5.584" gradientUnits="userSpaceOnUse"><stop stop-color="#FAA719"/><stop offset="1" stop-color="#DB6008"/></linearGradient><linearGradient id="f3021id1c" x1="7.493" x2="11.284" y1="19.754" y2="30.805" gradientUnits="userSpaceOnUse"><stop stop-color="#AB9CBE"/><stop offset="1" stop-color="#847498"/></linearGradient><linearGradient id="f3021id1d" x1="16" x2="16" y1="16.02" y2="17.379" gradientUnits="userSpaceOnUse"><stop stop-color="#BEB0B0"/><stop offset=".268" stop-color="#BEB7C7"/><stop offset=".863" stop-color="#BEB7C7" stop-opacity="0"/></linearGradient><linearGradient id="f3021id1e" x1="5" x2="6.055" y1="24.254" y2="24.254" gradientUnits="userSpaceOnUse"><stop stop-color="#9F93B2"/><stop offset="1" stop-color="#9F93B2" stop-opacity="0"/></linearGradient><linearGradient id="f3021id1f" x1="27" x2="25.524" y1="25.192" y2="25.192" gradientUnits="userSpaceOnUse"><stop offset=".174" stop-color="#BAB9C0"/><stop offset="1" stop-color="#A191B5" stop-opacity="0"/></linearGradient><linearGradient id="f3021id1g" x1="17.977" x2="13.911" y1="23.099" y2="23.099" gradientUnits="userSpaceOnUse"><stop offset=".096" stop-color="#56416B"/><stop offset=".13" stop-color="#614C77"/><stop offset=".165" stop-color="#51366C"/><stop offset="1" stop-color="#4F3568"/></linearGradient><linearGradient id="f3021id1h" x1="15.999" x2="15.999" y1="21.641" y2="23.196" gradientUnits="userSpaceOnUse"><stop stop-color="#60407F"/><stop offset="1" stop-color="#543870" stop-opacity="0"/></linearGradient><linearGradient id="f3021id1i" x1="15.999" x2="15.999" y1="21.641" y2="24.557" gradientUnits="userSpaceOnUse"><stop stop-color="#594170"/><stop offset=".037" stop-color="#6D5686"/><stop offset=".058" stop-color="#6F5783"/><stop offset=".097" stop-color="#5F447B" stop-opacity="0"/></linearGradient><linearGradient id="f3021id1j" x1="14.444" x2="15.02" y1="23.122" y2="23.122" gradientUnits="userSpaceOnUse"><stop offset=".086" stop-color="#3B2B50"/><stop offset=".663" stop-color="#52376C" stop-opacity="0"/></linearGradient><linearGradient id="f3021id1k" x1="15.999" x2="15.999" y1="24.842" y2="24.168" gradientUnits="userSpaceOnUse"><stop offset=".507" stop-color="#3D2555"/><stop offset=".736" stop-color="#4A3261" stop-opacity="0"/></linearGradient><filter id="f3021id1l" width="15.268" height="15.268" x="8.491" y="1.73" color-interpolation-filters="sRGB" filterUnits="userSpaceOnUse"><feFlood flood-opacity="0" result="BackgroundImageFix"/><feBlend in="SourceGraphic" in2="BackgroundImageFix" result="shape"/><feColorMatrix in="SourceAlpha" result="hardAlpha" values="0 0 0 0 0 0 0 0 0 0 0 0 0 0 0 0 0 0 127 0"/><feOffset dx=".25" dy="-.25"/><feGaussianBlur stdDeviation=".375"/><feComposite in2="hardAlpha" k2="-1" k3="1" operator="arithmetic"/><feColorMatrix values="0 0 0 0 0.92549 0 0 0 0 0.537255 0 0 0 0 0.12549 0 0 0 1 0"/><feBlend in2="shape" result="effect1_innerShadow_3_727"/></filter><filter id="f3021id1m" width="3.318" height="3.218" x="9.705" y="8.899" color-interpolation-filters="sRGB" filterUnits="userSpaceOnUse"><feFlood flood-opacity="0" result="BackgroundImageFix"/><feBlend in="SourceGraphic" in2="BackgroundImageFix" result="shape"/><feColorMatrix in="SourceAlpha" result="hardAlpha" values="0 0 0 0 0 0 0 0 0 0 0 0 0 0 0 0 0 0 127 0"/><feOffset dx=".1"/><feGaussianBlur stdDeviation=".15"/><feComposite in2="hardAlpha" k2="-1" k3="1" operator="arithmetic"/><feColorMatrix values="0 0 0 0 0.768627 0 0 0 0 0.501961 0 0 0 0 0.160784 0 0 0 1 0"/><feBlend in2="shape" result="effect1_innerShadow_3_727"/></filter><filter id="f3021id1n" width="3.218" height="3.468" x="19.218" y="8.649" color-interpolation-filters="sRGB" filterUnits="userSpaceOnUse"><feFlood flood-opacity="0" result="BackgroundImageFix"/><feBlend in="SourceGraphic" in2="BackgroundImageFix" result="shape"/><feColorMatrix in="SourceAlpha" result="hardAlpha" values="0 0 0 0 0 0 0 0 0 0 0 0 0 0 0 0 0 0 127 0"/><feOffset dy="-.25"/><feGaussianBlur stdDeviation=".25"/><feComposite in2="hardAlpha" k2="-1" k3="1" operator="arithmetic"/><feColorMatrix values="0 0 0 0 0.937255 0 0 0 0 0.576471 0 0 0 0 0.341176 0 0 0 1 0"/><feBlend in2="shape" result="effect1_innerShadow_3_727"/></filter><filter id="f3021id1o" width="3.148" height="3.148" x="19.253" y="8.935" color-interpolation-filters="sRGB" filterUnits="userSpaceOnUse"><feFlood flood-opacity="0" result="BackgroundImageFix"/><feBlend in="SourceGraphic" in2="BackgroundImageFix" result="shape"/><feGaussianBlur result="effect1_foregroundBlur_3_727" stdDeviation=".25"/></filter><filter id="f3021id1p" width="2.648" height="2.648" x="10.009" y="9.185" color-interpolation-filters="sRGB" filterUnits="userSpaceOnUse"><feFlood flood-opacity="0" result="BackgroundImageFix"/><feBlend in="SourceGraphic" in2="BackgroundImageFix" result="shape"/><feGaussianBlur result="effect1_foregroundBlur_3_727" stdDeviation=".125"/></filter><filter id="f3021id1q" width="10.191" height="11.277" x="10.905" y="5.602" color-interpolation-filters="sRGB" filterUnits="userSpaceOnUse"><feFlood flood-opacity="0" result="BackgroundImageFix"/><feBlend in="SourceGraphic" in2="BackgroundImageFix" result="shape"/><feColorMatrix in="SourceAlpha" result="hardAlpha" values="0 0 0 0 0 0 0 0 0 0 0 0 0 0 0 0 0 0 127 0"/><feOffset dy=".4"/><feGaussianBlur stdDeviation=".3"/><feComposite in2="hardAlpha" k2="-1" k3="1" operator="arithmetic"/><feColorMatrix values="0 0 0 0 0.92549 0 0 0 0 0.529412 0 0 0 0 0.137255 0 0 0 1 0"/><feBlend in2="shape" result="effect1_innerShadow_3_727"/></filter><filter id="f3021id1r" width="2.877" height="3.682" x="14.399" y="9.503" color-interpolation-filters="sRGB" filterUnits="userSpaceOnUse"><feFlood flood-opacity="0" result="BackgroundImageFix"/><feBlend in="SourceGraphic" in2="BackgroundImageFix" result="shape"/><feGaussianBlur result="effect1_foregroundBlur_3_727" stdDeviation=".25"/></filter><filter id="f3021id1s" width="2.377" height="3.182" x="14.811" y="9.615" color-interpolation-filters="sRGB" filterUnits="userSpaceOnUse"><feFlood flood-opacity="0" result="BackgroundImageFix"/><feBlend in="SourceGraphic" in2="BackgroundImageFix" result="shape"/><feGaussianBlur result="effect1_foregroundBlur_3_727" stdDeviation=".125"/></filter><filter id="f3021id1t" width="3.001" height="1.285" x="16.942" y="9.104" color-interpolation-filters="sRGB" filterUnits="userSpaceOnUse"><feFlood flood-opacity="0" result="BackgroundImageFix"/><feBlend in="SourceGraphic" in2="BackgroundImageFix" result="shape"/><feColorMatrix in="SourceAlpha" result="hardAlpha" values="0 0 0 0 0 0 0 0 0 0 0 0 0 0 0 0 0 0 127 0"/><feOffset dx="-.2"/><feGaussianBlur stdDeviation=".2"/><feComposite in2="hardAlpha" k2="-1" k3="1" operator="arithmetic"/><feColorMatrix values="0 0 0 0 0.141176 0 0 0 0 0.0862745 0 0 0 0 0.176471 0 0 0 1 0"/><feBlend in2="shape" result="effect1_innerShadow_3_727"/></filter><filter id="f3021id1u" width="3.001" height="1.285" x="12.057" y="9.104" color-interpolation-filters="sRGB" filterUnits="userSpaceOnUse"><feFlood flood-opacity="0" result="BackgroundImageFix"/><feBlend in="SourceGraphic" in2="BackgroundImageFix" result="shape"/><feColorMatrix in="SourceAlpha" result="hardAlpha" values="0 0 0 0 0 0 0 0 0 0 0 0 0 0 0 0 0 0 127 0"/><feOffset dx=".2"/><feGaussianBlur stdDeviation=".125"/><feComposite in2="hardAlpha" k2="-1" k3="1" operator="arithmetic"/><feColorMatrix values="0 0 0 0 0.133333 0 0 0 0 0.0784314 0 0 0 0 0.168627 0 0 0 1 0"/><feBlend in2="shape" result="effect1_innerShadow_3_727"/></filter><filter id="f3021id1v" width="2.453" height="1.091" x="12.192" y="7.68" color-interpolation-filters="sRGB" filterUnits="userSpaceOnUse"><feFlood flood-opacity="0" result="BackgroundImageFix"/><feBlend in="SourceGraphic" in2="BackgroundImageFix" result="shape"/><feColorMatrix in="SourceAlpha" result="hardAlpha" values="0 0 0 0 0 0 0 0 0 0 0 0 0 0 0 0 0 0 127 0"/><feOffset dx=".2" dy="-.2"/><feGaussianBlur stdDeviation=".15"/><feComposite in2="hardAlpha" k2="-1" k3="1" operator="arithmetic"/><feColorMatrix values="0 0 0 0 0.658824 0 0 0 0 0.270588 0 0 0 0 0.141176 0 0 0 1 0"/><feBlend in2="shape" result="effect1_innerShadow_3_727"/></filter><filter id="f3021id1w" width="2.453" height="1.091" x="17.609" y="7.68" color-interpolation-filters="sRGB" filterUnits="userSpaceOnUse"><feFlood flood-opacity="0" result="BackgroundImageFix"/><feBlend in="SourceGraphic" in2="BackgroundImageFix" result="shape"/><feColorMatrix in="SourceAlpha" result="hardAlpha" values="0 0 0 0 0 0 0 0 0 0 0 0 0 0 0 0 0 0 127 0"/><feOffset dx=".2" dy="-.2"/><feGaussianBlur stdDeviation=".15"/><feComposite in2="hardAlpha" k2="-1" k3="1" operator="arithmetic"/><feColorMatrix values="0 0 0 0 0.658824 0 0 0 0 0.270588 0 0 0 0 0.141176 0 0 0 1 0"/><feBlend in2="shape" result="effect1_innerShadow_3_727"/></filter><filter id="f3021id1x" width=".786" height=".696" x="17.448" y="9.472" color-interpolation-filters="sRGB" filterUnits="userSpaceOnUse"><feFlood flood-opacity="0" result="BackgroundImageFix"/><feBlend in="SourceGraphic" in2="BackgroundImageFix" result="shape"/><feGaussianBlur result="effect1_foregroundBlur_3_727" stdDeviation=".05"/></filter><filter id="f3021id1y" width=".891" height=".913" x="18.288" y="9.547" color-interpolation-filters="sRGB" filterUnits="userSpaceOnUse"><feFlood flood-opacity="0" result="BackgroundImageFix"/><feBlend in="SourceGraphic" in2="BackgroundImageFix" result="shape"/><feGaussianBlur result="effect1_foregroundBlur_3_727" stdDeviation=".1"/></filter><filter id="f3021id1z" width=".986" height="1.04" x="13.845" y="9.483" color-interpolation-filters="sRGB" filterUnits="userSpaceOnUse"><feFlood flood-opacity="0" result="BackgroundImageFix"/><feBlend in="SourceGraphic" in2="BackgroundImageFix" result="shape"/><feGaussianBlur result="effect1_foregroundBlur_3_727" stdDeviation=".1"/></filter><filter id="f3021id20" width=".912" height=".704" x="13.09" y="9.463" color-interpolation-filters="sRGB" filterUnits="userSpaceOnUse"><feFlood flood-opacity="0" result="BackgroundImageFix"/><feBlend in="SourceGraphic" in2="BackgroundImageFix" result="shape"/><feGaussianBlur result="effect1_foregroundBlur_3_727" stdDeviation=".05"/></filter><filter id="f3021id21" width="2.661" height="1.378" x="17.439" y="7.602" color-interpolation-filters="sRGB" filterUnits="userSpaceOnUse"><feFlood flood-opacity="0" result="BackgroundImageFix"/><feBlend in="SourceGraphic" in2="BackgroundImageFix" result="shape"/><feGaussianBlur result="effect1_foregroundBlur_3_727" stdDeviation=".2"/></filter><filter id="f3021id22" width="2.661" height="1.378" x="11.988" y="7.602" color-interpolation-filters="sRGB" filterUnits="userSpaceOnUse"><feFlood flood-opacity="0" result="BackgroundImageFix"/><feBlend in="SourceGraphic" in2="BackgroundImageFix" result="shape"/><feGaussianBlur result="effect1_foregroundBlur_3_727" stdDeviation=".2"/></filter><filter id="f3021id23" width="4.985" height="5.214" x="9.292" y="3.232" color-interpolation-filters="sRGB" filterUnits="userSpaceOnUse"><feFlood flood-opacity="0" result="BackgroundImageFix"/><feBlend in="SourceGraphic" in2="BackgroundImageFix" result="shape"/><feGaussianBlur result="effect1_foregroundBlur_3_727" stdDeviation=".375"/></filter><filter id="f3021id24" width="8.914" height="5.78" x="12.683" y="2.434" color-interpolation-filters="sRGB" filterUnits="userSpaceOnUse"><feFlood flood-opacity="0" result="BackgroundImageFix"/><feBlend in="SourceGraphic" in2="BackgroundImageFix" result="shape"/><feGaussianBlur result="effect1_foregroundBlur_3_727" stdDeviation=".125"/></filter><filter id="f3021id25" width="1.145" height="2.31" x="12.809" y="3.667" color-interpolation-filters="sRGB" filterUnits="userSpaceOnUse"><feFlood flood-opacity="0" result="BackgroundImageFix"/><feBlend in="SourceGraphic" in2="BackgroundImageFix" result="shape"/><feGaussianBlur result="effect1_foregroundBlur_3_727" stdDeviation=".125"/></filter><filter id="f3021id26" width="22" height="14.1" x="5" y="16.02" color-interpolation-filters="sRGB" filterUnits="userSpaceOnUse"><feFlood flood-opacity="0" result="BackgroundImageFix"/><feBlend in="SourceGraphic" in2="BackgroundImageFix" result="shape"/><feColorMatrix in="SourceAlpha" result="hardAlpha" values="0 0 0 0 0 0 0 0 0 0 0 0 0 0 0 0 0 0 127 0"/><feOffset dy=".1"/><feGaussianBlur stdDeviation=".25"/><feComposite in2="hardAlpha" k2="-1" k3="1" operator="arithmetic"/><feColorMatrix values="0 0 0 0 0.678431 0 0 0 0 0.670588 0 0 0 0 0.682353 0 0 0 1 0"/><feBlend in2="shape" result="effect1_innerShadow_3_727"/></filter></defs></g></svg>