<svg xmlns="http://www.w3.org/2000/svg" xmlns:xlink="http://www.w3.org/1999/xlink" width="32" height="32" viewBox="0 0 32 32"><g fill="none"><g clip-path="url(#f3095idq)"><path fill="url(#f3095id0)" d="M15.999 29.998c9.334 0 13.999-6.268 13.999-14c0-7.73-4.665-13.998-14-13.998C6.665 2 2 8.268 2 15.999s4.664 13.999 13.999 13.999"/><path fill="url(#f3095id1)" d="M15.999 29.998c9.334 0 13.999-6.268 13.999-14c0-7.73-4.665-13.998-14-13.998C6.665 2 2 8.268 2 15.999s4.664 13.999 13.999 13.999"/><path fill="url(#f3095id2)" fill-opacity=".6" d="M15.999 29.998c9.334 0 13.999-6.268 13.999-14c0-7.73-4.665-13.998-14-13.998C6.665 2 2 8.268 2 15.999s4.664 13.999 13.999 13.999"/><path fill="url(#f3095id3)" d="M15.999 29.998c9.334 0 13.999-6.268 13.999-14c0-7.73-4.665-13.998-14-13.998C6.665 2 2 8.268 2 15.999s4.664 13.999 13.999 13.999"/><path fill="url(#f3095id4)" d="M15.999 29.998c9.334 0 13.999-6.268 13.999-14c0-7.73-4.665-13.998-14-13.998C6.665 2 2 8.268 2 15.999s4.664 13.999 13.999 13.999"/><path fill="url(#f3095id5)" d="M15.999 29.998c9.334 0 13.999-6.268 13.999-14c0-7.73-4.665-13.998-14-13.998C6.665 2 2 8.268 2 15.999s4.664 13.999 13.999 13.999"/><path fill="url(#f3095id6)" d="M15.999 29.998c9.334 0 13.999-6.268 13.999-14c0-7.73-4.665-13.998-14-13.998C6.665 2 2 8.268 2 15.999s4.664 13.999 13.999 13.999"/><path fill="url(#f3095id7)" d="M15.999 29.998c9.334 0 13.999-6.268 13.999-14c0-7.73-4.665-13.998-14-13.998C6.665 2 2 8.268 2 15.999s4.664 13.999 13.999 13.999"/><path fill="url(#f3095id8)" d="M15.999 29.998c9.334 0 13.999-6.268 13.999-14c0-7.73-4.665-13.998-14-13.998C6.665 2 2 8.268 2 15.999s4.664 13.999 13.999 13.999"/><path fill="url(#f3095id9)" d="M15.999 29.998c9.334 0 13.999-6.268 13.999-14c0-7.73-4.665-13.998-14-13.998C6.665 2 2 8.268 2 15.999s4.664 13.999 13.999 13.999"/><path fill="url(#f3095ida)" d="M15.999 29.998c9.334 0 13.999-6.268 13.999-14c0-7.73-4.665-13.998-14-13.998C6.665 2 2 8.268 2 15.999s4.664 13.999 13.999 13.999"/><path fill="url(#f3095idb)" d="M15.999 29.998c9.334 0 13.999-6.268 13.999-14c0-7.73-4.665-13.998-14-13.998C6.665 2 2 8.268 2 15.999s4.664 13.999 13.999 13.999"/><path fill="url(#f3095idc)" d="M15.999 29.998c9.334 0 13.999-6.268 13.999-14c0-7.73-4.665-13.998-14-13.998C6.665 2 2 8.268 2 15.999s4.664 13.999 13.999 13.999"/><path fill="url(#f3095idd)" d="M15.999 29.998c9.334 0 13.999-6.268 13.999-14c0-7.73-4.665-13.998-14-13.998C6.665 2 2 8.268 2 15.999s4.664 13.999 13.999 13.999"/><path fill="#402A32" fill-rule="evenodd" d="M14.384 22.4c-.774.904-1.909 2.1-3.884 2.1c-1.968 0-3.608-1.194-4.207-1.793a1 1 0 1 1 1.414-1.414c.4.4 1.561 1.207 2.793 1.207c1.025 0 1.64-.554 2.366-1.4l.194-.23c.293-.35.637-.758 1-1.076c.48-.42 1.111-.794 1.94-.794c1.282 0 2.138.63 2.764 1.09l.137.101c.643.468 1.176.809 2.099.809c1.665 0 2.52-.832 2.668-1.055a1 1 0 0 1 1.664 1.11C24.814 21.832 23.335 23 21 23c-1.577 0-2.544-.659-3.276-1.191l-.033-.024C16.975 21.264 16.613 21 16 21c-.171 0-.352.063-.623.3c-.237.207-.453.463-.735.797l-.258.304" clip-rule="evenodd"/><path fill="url(#f3095ide)" fill-rule="evenodd" d="M14.384 22.4c-.774.904-1.909 2.1-3.884 2.1c-1.968 0-3.608-1.194-4.207-1.793a1 1 0 1 1 1.414-1.414c.4.4 1.561 1.207 2.793 1.207c1.025 0 1.64-.554 2.366-1.4l.194-.23c.293-.35.637-.758 1-1.076c.48-.42 1.111-.794 1.94-.794c1.282 0 2.138.63 2.764 1.09l.137.101c.643.468 1.176.809 2.099.809c1.665 0 2.52-.832 2.668-1.055a1 1 0 0 1 1.664 1.11C24.814 21.832 23.335 23 21 23c-1.577 0-2.544-.659-3.276-1.191l-.033-.024C16.975 21.264 16.613 21 16 21c-.171 0-.352.063-.623.3c-.237.207-.453.463-.735.797l-.258.304" clip-rule="evenodd"/><path fill="url(#f3095idf)" fill-rule="evenodd" d="M14.384 22.4c-.774.904-1.909 2.1-3.884 2.1c-1.968 0-3.608-1.194-4.207-1.793a1 1 0 1 1 1.414-1.414c.4.4 1.561 1.207 2.793 1.207c1.025 0 1.64-.554 2.366-1.4l.194-.23c.293-.35.637-.758 1-1.076c.48-.42 1.111-.794 1.94-.794c1.282 0 2.138.63 2.764 1.09l.137.101c.643.468 1.176.809 2.099.809c1.665 0 2.52-.832 2.668-1.055a1 1 0 0 1 1.664 1.11C24.814 21.832 23.335 23 21 23c-1.577 0-2.544-.659-3.276-1.191l-.033-.024C16.975 21.264 16.613 21 16 21c-.171 0-.352.063-.623.3c-.237.207-.453.463-.735.797l-.258.304" clip-rule="evenodd"/><path fill="url(#f3095idg)" fill-rule="evenodd" d="M14.384 22.4c-.774.904-1.909 2.1-3.884 2.1c-1.968 0-3.608-1.194-4.207-1.793a1 1 0 1 1 1.414-1.414c.4.4 1.561 1.207 2.793 1.207c1.025 0 1.64-.554 2.366-1.4l.194-.23c.293-.35.637-.758 1-1.076c.48-.42 1.111-.794 1.94-.794c1.282 0 2.138.63 2.764 1.09l.137.101c.643.468 1.176.809 2.099.809c1.665 0 2.52-.832 2.668-1.055a1 1 0 0 1 1.664 1.11C24.814 21.832 23.335 23 21 23c-1.577 0-2.544-.659-3.276-1.191l-.033-.024C16.975 21.264 16.613 21 16 21c-.171 0-.352.063-.623.3c-.237.207-.453.463-.735.797l-.258.304" clip-rule="evenodd"/><path fill="url(#f3095idh)" fill-rule="evenodd" d="M14.384 22.4c-.774.904-1.909 2.1-3.884 2.1c-1.968 0-3.608-1.194-4.207-1.793a1 1 0 1 1 1.414-1.414c.4.4 1.561 1.207 2.793 1.207c1.025 0 1.64-.554 2.366-1.4l.194-.23c.293-.35.637-.758 1-1.076c.48-.42 1.111-.794 1.94-.794c1.282 0 2.138.63 2.764 1.09l.137.101c.643.468 1.176.809 2.099.809c1.665 0 2.52-.832 2.668-1.055a1 1 0 0 1 1.664 1.11C24.814 21.832 23.335 23 21 23c-1.577 0-2.544-.659-3.276-1.191l-.033-.024C16.975 21.264 16.613 21 16 21c-.171 0-.352.063-.623.3c-.237.207-.453.463-.735.797l-.258.304" clip-rule="evenodd"/><path fill="url(#f3095idi)" fill-rule="evenodd" d="M14.384 22.4c-.774.904-1.909 2.1-3.884 2.1c-1.968 0-3.608-1.194-4.207-1.793a1 1 0 1 1 1.414-1.414c.4.4 1.561 1.207 2.793 1.207c1.025 0 1.64-.554 2.366-1.4l.194-.23c.293-.35.637-.758 1-1.076c.48-.42 1.111-.794 1.94-.794c1.282 0 2.138.63 2.764 1.09l.137.101c.643.468 1.176.809 2.099.809c1.665 0 2.52-.832 2.668-1.055a1 1 0 0 1 1.664 1.11C24.814 21.832 23.335 23 21 23c-1.577 0-2.544-.659-3.276-1.191l-.033-.024C16.975 21.264 16.613 21 16 21c-.171 0-.352.063-.623.3c-.237.207-.453.463-.735.797l-.258.304" clip-rule="evenodd"/><path fill="url(#f3095idj)" fill-rule="evenodd" d="M14.384 22.4c-.774.904-1.909 2.1-3.884 2.1c-1.968 0-3.608-1.194-4.207-1.793a1 1 0 1 1 1.414-1.414c.4.4 1.561 1.207 2.793 1.207c1.025 0 1.64-.554 2.366-1.4l.194-.23c.293-.35.637-.758 1-1.076c.48-.42 1.111-.794 1.94-.794c1.282 0 2.138.63 2.764 1.09l.137.101c.643.468 1.176.809 2.099.809c1.665 0 2.52-.832 2.668-1.055a1 1 0 0 1 1.664 1.11C24.814 21.832 23.335 23 21 23c-1.577 0-2.544-.659-3.276-1.191l-.033-.024C16.975 21.264 16.613 21 16 21c-.171 0-.352.063-.623.3c-.237.207-.453.463-.735.797l-.258.304" clip-rule="evenodd"/><path fill="url(#f3095idk)" fill-rule="evenodd" d="M14.384 22.4c-.774.904-1.909 2.1-3.884 2.1c-1.968 0-3.608-1.194-4.207-1.793a1 1 0 1 1 1.414-1.414c.4.4 1.561 1.207 2.793 1.207c1.025 0 1.64-.554 2.366-1.4l.194-.23c.293-.35.637-.758 1-1.076c.48-.42 1.111-.794 1.94-.794c1.282 0 2.138.63 2.764 1.09l.137.101c.643.468 1.176.809 2.099.809c1.665 0 2.52-.832 2.668-1.055a1 1 0 0 1 1.664 1.11C24.814 21.832 23.335 23 21 23c-1.577 0-2.544-.659-3.276-1.191l-.033-.024C16.975 21.264 16.613 21 16 21c-.171 0-.352.063-.623.3c-.237.207-.453.463-.735.797l-.258.304" clip-rule="evenodd"/><path fill="url(#f3095ido)" fill-rule="evenodd" d="M11 17a3 3 0 0 0 2.94-3.602l-5.55 2.081A3 3 0 0 0 11 17" clip-rule="evenodd"/><path fill="url(#f3095idp)" fill-rule="evenodd" d="M21 17a3 3 0 0 0 2.635-4.435l-3.026-.84a3.9 3.9 0 0 0-1.405-.128A3 3 0 0 0 21 17" clip-rule="evenodd"/><path fill="url(#f3095idl)" d="M19.562 6.996c1.823-.228 2.918.448 3.57 1.156a4.3 4.3 0 0 1 .88 1.464l.007.02v.003a.5.5 0 0 0 .962-.276V9.36l-.002-.004l-.003-.012l-.013-.038l-.045-.13a5.3 5.3 0 0 0-1.05-1.703c-.848-.917-2.253-1.741-4.43-1.469a.5.5 0 0 0 .124.992"/><path fill="url(#f3095idm)" d="M19.562 6.996c1.823-.228 2.918.448 3.57 1.156a4.3 4.3 0 0 1 .88 1.464l.007.02v.003a.5.5 0 0 0 .962-.276V9.36l-.002-.004l-.003-.012l-.013-.038l-.045-.13a5.3 5.3 0 0 0-1.05-1.703c-.848-.917-2.253-1.741-4.43-1.469a.5.5 0 0 0 .124.992"/><path fill="url(#f3095idn)" d="M12.985 9.621a.5.5 0 1 0-.97-.242c-.36 1.442-1.164 2.149-2 2.482c-.865.344-1.805.301-2.394.154a.5.5 0 0 0-.242.97c.744.186 1.905.243 3.006-.195c1.13-.45 2.16-1.41 2.6-3.169"/><path fill="#fff" d="M25.238 13.11c.2.236.269.553.241.862c-.246 2.735-2.613 4.501-4.979 4.028c-2.3-.46-3.753-2.612-3.582-4.9c.03-.394.222-.764.553-.978c2.115-1.37 6.412-.613 7.767.987M7 15c.167 1.167 1.172 3 4 3c4.5 0 4-6 4-6z"/><path fill="#402A32" fill-rule="evenodd" d="M21 15a2 2 0 0 0 1.491-3.333a8.8 8.8 0 0 0-2.736-.233A2 2 0 0 0 21 15m-10 1a2 2 0 0 0 1.656-3.121l-3.641 1.366A2 2 0 0 0 11 16" clip-rule="evenodd"/></g><defs><radialGradient id="f3095id0" cx="0" cy="0" r="1" gradientTransform="rotate(131.878 10.74 10.193)scale(38.9487)" gradientUnits="userSpaceOnUse"><stop stop-color="#FFF478"/><stop offset=".475" stop-color="#FFB02E"/><stop offset="1" stop-color="#F70A8D"/></radialGradient><radialGradient id="f3095id1" cx="0" cy="0" r="1" gradientTransform="rotate(101.31 2.876 12.808)scale(17.8466 22.8581)" gradientUnits="userSpaceOnUse"><stop offset=".788" stop-color="#F59639" stop-opacity="0"/><stop offset=".973" stop-color="#FF7DCE"/></radialGradient><radialGradient id="f3095id2" cx="0" cy="0" r="1" gradientTransform="matrix(-29 29 -29 -29 18 14)" gradientUnits="userSpaceOnUse"><stop offset=".315" stop-opacity="0"/><stop offset="1"/></radialGradient><radialGradient id="f3095id3" cx="0" cy="0" r="1" gradientTransform="rotate(76.632 -3.024 18.285)scale(28.2658)" gradientUnits="userSpaceOnUse"><stop offset=".508" stop-color="#D1671A" stop-opacity="0"/><stop offset=".784" stop-color="#B2753D"/></radialGradient><radialGradient id="f3095id4" cx="0" cy="0" r="1" gradientTransform="matrix(7.5 10.99996 -7.97335 5.4364 16.5 16.5)" gradientUnits="userSpaceOnUse"><stop stop-color="#FFB849"/><stop offset="1" stop-color="#FFB847" stop-opacity="0"/></radialGradient><radialGradient id="f3095id5" cx="0" cy="0" r="1" gradientTransform="matrix(11.49998 2 -2 11.49998 20.5 18)" gradientUnits="userSpaceOnUse"><stop stop-color="#FFA64B"/><stop offset=".9" stop-color="#FFAE46" stop-opacity="0"/></radialGradient><radialGradient id="f3095id6" cx="0" cy="0" r="1" gradientTransform="rotate(43.971 -9.827 29.173)scale(59.0529)" gradientUnits="userSpaceOnUse"><stop offset=".185" stop-opacity="0"/><stop offset="1" stop-opacity=".4"/></radialGradient><radialGradient id="f3095id7" cx="0" cy="0" r="1" gradientTransform="rotate(-54.858 18.376 -1.718)scale(7.0017)" gradientUnits="userSpaceOnUse"><stop offset=".135" stop-color="#C68F11"/><stop offset="1" stop-color="#D59A13" stop-opacity="0"/></radialGradient><radialGradient id="f3095id8" cx="0" cy="0" r="1" gradientTransform="matrix(4.17314 1.29881 -.57676 1.85316 9.488 17.19)" gradientUnits="userSpaceOnUse"><stop offset=".313" stop-color="#D67B36"/><stop offset="1" stop-color="#F79A38" stop-opacity="0"/></radialGradient><radialGradient id="f3095id9" cx="0" cy="0" r="1" gradientTransform="rotate(57.216 -3.355 26.463)scale(5.31724)" gradientUnits="userSpaceOnUse"><stop offset=".45" stop-color="#D67B36"/><stop offset=".807" stop-color="#F79A38" stop-opacity="0"/></radialGradient><radialGradient id="f3095ida" cx="0" cy="0" r="1" gradientTransform="rotate(48.991 1.107 31.002)scale(1.36135 .81622)" gradientUnits="userSpaceOnUse"><stop stop-color="#E7982E"/><stop offset="1" stop-color="#E39632" stop-opacity="0"/></radialGradient><radialGradient id="f3095idb" cx="0" cy="0" r="1" gradientTransform="rotate(44.132 .8 33.007)scale(2.28952 1.1424)" gradientUnits="userSpaceOnUse"><stop stop-color="#E7982E"/><stop offset="1" stop-color="#E39632" stop-opacity="0"/></radialGradient><radialGradient id="f3095idc" cx="0" cy="0" r="1" gradientTransform="matrix(2.66234 1.66464 -.60787 .9722 21.517 7.778)" gradientUnits="userSpaceOnUse"><stop stop-color="#E2981B"/><stop offset="1" stop-color="#EAA239" stop-opacity="0"/></radialGradient><radialGradient id="f3095idd" cx="0" cy="0" r="1" gradientTransform="rotate(4.192 -92.114 277.02)scale(3.27224 1.68482)" gradientUnits="userSpaceOnUse"><stop stop-color="#E2981B"/><stop offset="1" stop-color="#FFDC64" stop-opacity="0"/></radialGradient><radialGradient id="f3095ide" cx="0" cy="0" r="1" gradientTransform="rotate(-114.874 16.248 2.157)scale(5.42052)" gradientUnits="userSpaceOnUse"><stop offset=".61" stop-color="#2F1F2A"/><stop offset=".732" stop-color="#51394C"/><stop offset=".795" stop-color="#51394C"/><stop offset=".911" stop-color="#442E3E"/></radialGradient><radialGradient id="f3095idf" cx="0" cy="0" r="1" gradientTransform="matrix(-1.47376 -6.05205 4.49872 -1.0955 16.585 24.388)" gradientUnits="userSpaceOnUse"><stop offset=".516" stop-color="#2F1F2A"/><stop offset=".732" stop-color="#51394C"/><stop offset=".791" stop-color="#51394C"/><stop offset=".894" stop-color="#533B4E" stop-opacity="0"/></radialGradient><radialGradient id="f3095idg" cx="0" cy="0" r="1" gradientTransform="rotate(-25.534 48.925 -14.281)scale(5.93402 4.41098)" gradientUnits="userSpaceOnUse"><stop offset=".516" stop-color="#2F1F2A"/><stop offset=".732" stop-color="#51394C"/><stop offset=".791" stop-color="#51394C"/><stop offset=".894" stop-color="#533B4E" stop-opacity="0"/></radialGradient><radialGradient id="f3095idh" cx="0" cy="0" r="1" gradientTransform="matrix(1.8277 -1.59924 .80682 .92208 13.27 24.082)" gradientUnits="userSpaceOnUse"><stop offset=".474" stop-color="#392734"/><stop offset=".957" stop-color="#392734" stop-opacity="0"/></radialGradient><radialGradient id="f3095idi" cx="0" cy="0" r="1" gradientTransform="matrix(.76549 -2.57089 5.5795 1.6613 19.014 24.093)" gradientUnits="userSpaceOnUse"><stop offset=".652" stop-color="#452F3F"/><stop offset=".756" stop-color="#452F3F" stop-opacity="0"/></radialGradient><radialGradient id="f3095idj" cx="0" cy="0" r="1" gradientTransform="matrix(-2.71931 -.29085 .14674 -1.3719 17.84 18.803)" gradientUnits="userSpaceOnUse"><stop offset=".356" stop-color="#392734"/><stop offset=".634" stop-color="#392734" stop-opacity="0"/></radialGradient><radialGradient id="f3095idk" cx="0" cy="0" r="1" gradientTransform="rotate(-108.898 13.997 4.19)scale(1.7061 4.24373)" gradientUnits="userSpaceOnUse"><stop offset=".356" stop-color="#392734"/><stop offset=".634" stop-color="#392734" stop-opacity="0"/></radialGradient><radialGradient id="f3095idl" cx="0" cy="0" r="1" gradientTransform="matrix(3.14437 -2.62587 3.50326 4.19501 21.323 10)" gradientUnits="userSpaceOnUse"><stop offset=".61" stop-color="#2F1F2A"/><stop offset=".732" stop-color="#51394C"/><stop offset=".795" stop-color="#51394C"/><stop offset=".851" stop-color="#50394C"/><stop offset=".911" stop-color="#442E3E"/></radialGradient><radialGradient id="f3095idm" cx="0" cy="0" r="1" gradientTransform="matrix(2.25003 -3.31268 2.99591 2.03487 21.653 9.036)" gradientUnits="userSpaceOnUse"><stop offset=".646" stop-color="#362530" stop-opacity="0"/><stop offset="1" stop-color="#342330"/></radialGradient><radialGradient id="f3095idn" cx="0" cy="0" r="1" gradientTransform="matrix(1.8361 3.03367 -3.86153 2.33715 9.32 9.852)" gradientUnits="userSpaceOnUse"><stop offset=".688" stop-color="#4A2F37"/><stop offset=".776" stop-color="#563E48"/><stop offset=".819" stop-color="#5C4156"/><stop offset=".898" stop-color="#4D3635"/></radialGradient><linearGradient id="f3095ido" x1="11.37" x2="10.381" y1="12.797" y2="16.844" gradientUnits="userSpaceOnUse"><stop stop-color="#553B3E"/><stop offset="1" stop-color="#3D2432"/></linearGradient><linearGradient id="f3095idp" x1="21.188" x2="19.201" y1="10.676" y2="16.446" gradientUnits="userSpaceOnUse"><stop stop-color="#553B3E"/><stop offset="1" stop-color="#3D2432"/></linearGradient><clipPath id="f3095idq"><path fill="#fff" d="M0 0h32v32H0z"/></clipPath></defs></g></svg>