<svg xmlns="http://www.w3.org/2000/svg" xmlns:xlink="http://www.w3.org/1999/xlink" width="24" height="24" viewBox="0 0 24 24"><path fill="currentColor" d="M1 2h8a4 4 0 0 1 3 1.354A4 4 0 0 1 15 2h8v19h-1c-2.944 0-5.14.245-6.586.486c-.723.12-1.26.24-1.609.328a11 11 0 0 0-.472.13l-.017.005h-.002l-.152.051h-2.324l-.152-.05l-.001-.001h-.001l-.017-.006l-.088-.026a11 11 0 0 0-.384-.103a21 21 0 0 0-1.61-.328C7.14 21.246 4.946 21 2 21H1zm2 2v15.01c2.563.047 4.535.274 5.914.504c.777.13 1.366.26 1.766.36q.188.047.32.084V6a2 2 0 0 0-2-2zm10 2v13.958q.132-.037.32-.084c.4-.1.989-.23 1.766-.36c1.379-.23 3.35-.457 5.914-.505V4h-6a2 2 0 0 0-2 2"/><path fill="currentColor" d="M17 9.5a1 1 0 0 0-1 1v1h-2v-1a3 3 0 1 1 6 0c0 .676-.172 1.246-.474 1.71a2.96 2.96 0 0 1-1.029.95a4 4 0 0 1-.494.238v.352h-2v-1c0-.424.245-.687.361-.79c.12-.105.24-.165.296-.192c.107-.05.233-.094.309-.12l.018-.007c.19-.066.36-.127.52-.218a.96.96 0 0 0 .343-.305c.072-.11.15-.294.15-.618a1 1 0 0 0-1-1m-1 5h2.004v2.004H16z"/></svg>