<svg xmlns="http://www.w3.org/2000/svg" xmlns:xlink="http://www.w3.org/1999/xlink" width="24" height="24" viewBox="0 0 24 24"><path fill="currentColor" d="M22.032 3.378L18.738 6.67l2.12.046l-.044 2l-5.418-.117l-.117-5.419l2-.043l.045 2.119l3.293-3.293zM1 2h8.58l1.487 6.69l-1.86 1.86a14.1 14.1 0 0 0 4.243 4.242l1.86-1.859L22 14.42V23h-1a19.9 19.9 0 0 1-10.85-3.196a20.1 20.1 0 0 1-5.954-5.954A19.9 19.9 0 0 1 1 3zm2.027 2a17.9 17.9 0 0 0 2.849 8.764a18.1 18.1 0 0 0 5.36 5.36A17.9 17.9 0 0 0 20 20.974v-4.948l-4.053-.901l-2.174 2.175l-.663-.377a16.07 16.07 0 0 1-6.032-6.032l-.377-.663l2.175-2.174L7.976 4z"/></svg>