<svg xmlns="http://www.w3.org/2000/svg" xmlns:xlink="http://www.w3.org/1999/xlink" width="24" height="24" viewBox="0 0 24 24"><path fill="currentColor" d="M9.5 10.5a2.5 2.5 0 1 1 5 0a2.5 2.5 0 0 1-5 0"/><path fill="currentColor" d="M3 10.5a9 9 0 1 1 10 8.945v1.01a9.94 9.94 0 0 0 4.626-1.682l.826-.563l1.127 1.652l-.826.564A11.94 11.94 0 0 1 13 22.464v.036h-.652a12 12 0 0 1-.696 0H11v-.036a11.94 11.94 0 0 1-5.753-2.038l-.826-.564l1.127-1.652l.826.563A9.94 9.94 0 0 0 11 20.456v-1.01c-4.5-.498-8-4.313-8-8.946m4.5 0a4.5 4.5 0 1 0 9 0a4.5 4.5 0 0 0-9 0"/></svg>