<svg xmlns="http://www.w3.org/2000/svg" xmlns:xlink="http://www.w3.org/1999/xlink" width="24" height="24" viewBox="0 0 24 24"><path fill="currentColor" d="m16.525 4.11l.979.98l2.086-2.085c-.37-.062-.785-.006-1.257.152c-.61.205-1.232.559-1.808.953m4.473.316l-2.08 2.078l.972.972c.394-.575.747-1.194.951-1.802c.158-.469.215-.88.157-1.248m-2.336 4.65l-1.159-1.159L15.93 9.49l1.338 1.338l.989-1.243zm-2.65 3.326l-1.497-1.499l-2.06 2.058c.996-.053 1.994.04 2.902.263zm1.31 1.566a9 9 0 0 1 1.01.614a8 8 0 0 1 .8.64l.05.046l.016.016l.005.005l.002.002h.001l.001.002l1.374 1.374l-1.904.317h-.003l-.011.003a2 2 0 0 0-.146.042a6 6 0 0 0-.725.286c-.678.31-1.742.897-3.192 1.985c-.15.112-.325.25-.523.404c-1.004.786-2.576 2.017-4.257 2.687c-1.029.41-2.196.656-3.381.423c-1.173-.23-2.247-.905-3.154-2.1c-1.194-.906-1.869-1.98-2.1-3.153c-.232-1.186.013-2.352.424-3.381c.67-1.68 1.9-3.254 2.686-4.257c.155-.198.293-.373.405-.523c1.088-1.45 1.674-2.515 1.985-3.192c.155-.338.24-.58.286-.725a2 2 0 0 0 .045-.16l.317-1.904l1.374 1.374l.002.001l.002.002l.005.006l.015.015a4 4 0 0 1 .2.221a9 9 0 0 1 1.091 1.622l4.356-3.443c.825-.66 2.026-1.523 3.32-1.956c1.328-.445 2.933-.48 4.23.825c1.292 1.3 1.255 2.9.81 4.225c-.435 1.291-1.297 2.489-1.956 3.313h-.002l-.002.005l-.957 1.202l-1.688 2.12zm-2.4-8.632l-1.757 1.387l1.35 1.352l1.574-1.572zM13.1 9.489l-1.515-1.517l-.816.646c.227.917.323 1.925.268 2.932zm-3.474 6.298L5.36 20.053c.495.476.99.706 1.463.798c.677.133 1.435.01 2.256-.318c1.382-.55 2.667-1.552 3.685-2.344q.34-.265.635-.49c1.242-.931 2.251-1.542 3.026-1.942a7 7 0 0 0-1.02-.44c-1.822-.61-4.228-.477-5.779.47m-5.68 2.852l4.266-4.266c.95-1.557 1.081-3.975.462-5.8a7 7 0 0 0-.432-1c-.4.776-1.011 1.784-1.943 3.027q-.223.297-.489.635c-.793 1.018-1.793 2.302-2.345 3.685c-.327.82-.45 1.58-.318 2.256c.093.472.323.968.799 1.463"/></svg>