<svg xmlns="http://www.w3.org/2000/svg" xmlns:xlink="http://www.w3.org/1999/xlink" width="24" height="24" viewBox="0 0 24 24"><path fill="currentColor" d="M4 5c0-.002-.003-.019.035-.081c.043-.07.13-.174.291-.301c.33-.26.87-.539 1.626-.79C7.454 3.326 9.592 3 12 3s4.546.327 6.048.827c.756.252 1.296.53 1.626.79c.162.128.248.232.29.302c.04.063.036.08.036.081c0 .003.003.02-.035.081c-.043.07-.13.174-.291.301c-.33.26-.87.539-1.626.79C16.546 6.674 14.408 7 12 7s-4.546-.327-6.048-.827c-.756-.252-1.296-.53-1.626-.79a1.2 1.2 0 0 1-.29-.302C3.997 5.021 4 5.003 4 5m16 2.527V12l-.003.015a.3.3 0 0 1-.032.066c-.043.07-.13.174-.291.301c-.33.26-.87.539-1.626.79c-1.502.501-3.64.828-6.048.828s-4.546-.327-6.048-.827c-.756-.252-1.296-.53-1.626-.79a1.2 1.2 0 0 1-.29-.302a.3.3 0 0 1-.033-.066L4 12V7.527a9.6 9.6 0 0 0 1.32.543C7.075 8.655 9.437 9 12 9s4.925-.345 6.68-.93A9.5 9.5 0 0 0 20 7.527m0 7V19l-.003.015a.3.3 0 0 1-.032.066c-.043.07-.13.174-.291.301c-.33.26-.87.539-1.626.79c-1.502.501-3.64.828-6.048.828s-4.546-.327-6.048-.827c-.756-.252-1.296-.53-1.626-.79a1.2 1.2 0 0 1-.29-.302a.3.3 0 0 1-.033-.066L4 19v-4.473a9.5 9.5 0 0 0 1.32.543c1.755.585 4.117.93 6.68.93s4.925-.345 6.68-.93a9.5 9.5 0 0 0 1.32-.543M2 19c0 .852.519 1.504 1.088 1.953c.581.458 1.36.826 2.232 1.117c1.755.585 4.117.93 6.68.93s4.925-.345 6.68-.93c.873-.29 1.651-.66 2.232-1.117C21.482 20.504 22 19.852 22 19V5c0-.852-.519-1.504-1.088-1.953c-.581-.458-1.36-.826-2.232-1.117C16.925 1.345 14.563 1 12 1s-4.925.345-6.68.93c-.873.29-1.651.66-2.232 1.117C2.518 3.496 2 4.148 2 5z"/></svg>