<svg xmlns="http://www.w3.org/2000/svg" xmlns:xlink="http://www.w3.org/1999/xlink" width="24" height="24" viewBox="0 0 24 24"><path fill="currentColor" d="M1 1h4.739l2.034 1.973A11.5 11.5 0 0 1 12 2.176c1.456 0 2.85.269 4.125.757L17.62 1H23v12h-.008c-.23 5.611-5.118 10-10.992 10S1.237 18.611 1.008 13H1zm2 5.6a10.8 10.8 0 0 1 2.888-2.67L4.928 3H3zm0 5.988C3 17.178 6.971 21 12 21s9-3.822 9-8.412c0-3.268-2.001-6.135-4.98-7.527A9.5 9.5 0 0 0 12 4.176c-1.449 0-2.813.32-4.02.885C5 6.453 3 9.32 3 12.588M21 6.6V3h-2.398l-.645.834A10.8 10.8 0 0 1 21 6.6M9 9v3H7V9zm8 0v3h-2V9zm-5 2.264l.895 1.789c.379.757.857.985 1.189 1.013c.216.018.447-.038.668-.189l.827-.562l1.124 1.654l-.826.562a3.1 3.1 0 0 1-1.167.487a11 11 0 0 1-.671 1.386c-.2.34-.443.697-.728.982c-.26.26-.708.614-1.31.614s-1.05-.355-1.31-.614a5 5 0 0 1-.728-.982a11 11 0 0 1-.672-1.386a3.1 3.1 0 0 1-1.166-.487l-.827-.562l1.125-1.654l.827.562c.221.151.452.207.668.189c.332-.028.81-.256 1.189-1.013zm-.678 4.413c.111.244.236.492.367.716q.173.292.312.462q.14-.17.312-.462a8 8 0 0 0 .367-.716a3.5 3.5 0 0 1-.68-.503a3.5 3.5 0 0 1-.678.503"/></svg>