<svg xmlns="http://www.w3.org/2000/svg" xmlns:xlink="http://www.w3.org/1999/xlink" width="24" height="24" viewBox="0 0 24 24"><path fill="currentColor" d="M15 3a6 6 0 0 0-4.199 10.286l.715.7l-1.4 1.428l-.714-.7a8 8 0 0 1-1.718-2.475l-.478.47l-.008.013a.3.3 0 0 0-.021.059a1 1 0 0 0 .001.353c.054.352.24.832.6 1.374a6.8 6.8 0 0 0 1.716 1.766c.571.405 1.092.625 1.478.696c.19.035.32.028.395.012a.3.3 0 0 0 .068-.022l.015-.01l.006-.006l2.128-2.09l.495.076q.45.07.921.07a6 6 0 0 0 0-12m-7.932 7.04a8 8 0 1 1 7.217 6.928l-1.424 1.4c-.636.632-1.512.704-2.248.57a5.2 5.2 0 0 1-1.554-.58L8 19.416c-.005.506-.036 1.175-.214 1.77c-.122.406-.334.858-.722 1.218c-.407.377-.933.581-1.538.597c-.629.016-1.16-.188-1.567-.542c-.384-.335-.6-.755-.726-1.103a4 4 0 0 1-.132-.458a4 4 0 0 1-.455-.132a2.65 2.65 0 0 1-1.1-.725c-.353-.404-.559-.934-.545-1.562c.013-.606.217-1.133.596-1.54c.36-.387.813-.599 1.219-.72c.595-.18 1.265-.212 1.77-.217l1.107-1.104a5 5 0 0 1-.492-1.46c-.108-.71-.014-1.538.592-2.144l.007-.006zm-.22 6.529L5.415 18H5c-.591 0-1.17 0-1.608.133c-.204.06-.294.129-.33.167c-.016.017-.058.063-.062.222c-.003.139.033.18.051.2a.7.7 0 0 0 .279.163a2 2 0 0 0 .656.115h.004l1.03-.017l-.02 1.03v.004l.001.036a2.3 2.3 0 0 0 .112.622c.057.157.119.24.16.276c.02.017.062.053.202.05c.164-.005.211-.048.23-.065c.037-.035.104-.125.165-.326c.13-.434.13-1.004.13-1.598v-.427l1.427-1.423a9 9 0 0 1-.578-.593"/></svg>