<svg xmlns="http://www.w3.org/2000/svg" xmlns:xlink="http://www.w3.org/1999/xlink" width="24" height="24" viewBox="0 0 24 24"><path fill="currentColor" d="M2 2h10v6.682c.456.687.775 1.473.917 2.318H14V7h8v10h-8v-4h-1.083A6 6 0 0 1 12 15.318V22H2v-6.682c-.632-.95-1-2.093-1-3.318s.368-2.367 1-3.318zm2 4.803A6 6 0 0 1 7 6c1.093 0 2.118.293 3 .803V4H4zm0 10.394V20h6v-2.803A6 6 0 0 1 7 18a6 6 0 0 1-3-.803M7 8a4 4 0 0 0-3.2 1.6A3.98 3.98 0 0 0 3 12c0 .902.297 1.731.8 2.4A4 4 0 0 0 7 16a4 4 0 0 0 3.2-1.6c.503-.669.8-1.498.8-2.4s-.297-1.731-.8-2.4A4 4 0 0 0 7 8m9 1v6h4V9z"/></svg>