<svg xmlns="http://www.w3.org/2000/svg" xmlns:xlink="http://www.w3.org/1999/xlink" width="24" height="24" viewBox="0 0 24 24"><path fill="currentColor" d="M3 1h12.414L21 6.586V11h-2V9h-6V3H5v18h6v2H3zm12 2.414V7h3.586zm4 9.336v1.376c.715.184 1.352.56 1.854 1.072l1.193-.689l1 1.732l-1.192.688a4 4 0 0 1 0 2.142l1.192.688l-1 1.732l-1.193-.689A4 4 0 0 1 19 21.874v1.376h-2v-1.376a4 4 0 0 1-1.854-1.072l-1.193.689l-1-1.732l1.192-.688a4 4 0 0 1 0-2.142l-1.192-.688l1-1.732l1.193.688A4 4 0 0 1 17 14.127V12.75zm-2.751 4.283a2 2 0 0 0-.25.967c0 .35.091.68.25.967l.036.063a2 2 0 0 0 3.43 0l.036-.063A2 2 0 0 0 20 18c0-.35-.09-.68-.249-.967l-.036-.063a2 2 0 0 0-3.43 0z"/></svg>