<svg xmlns="http://www.w3.org/2000/svg" xmlns:xlink="http://www.w3.org/1999/xlink" width="24" height="24" viewBox="0 0 24 24"><path fill="currentColor" d="m2.747 17.95l.02.041l.036.057q.263.4.567.774A10.98 10.98 0 0 0 12 23c6.075 0 11-4.925 11-11c0-2.479-.82-4.766-2.203-6.605a10.4 10.4 0 0 0-3.851-3.223A10.95 10.95 0 0 0 12 1C5.925 1 1 5.925 1 12c0 2.193.641 4.235 1.747 5.95m.674-8.678a9.004 9.004 0 0 1 11.609-5.75a.52.52 0 0 1-.396.361l-.007.002c-.988.269-1.959.52-2.93.705h-.006c-2.108.414-4.113 1.16-5.897 2.524A10 10 0 0 0 3.42 9.272m1.523 8.316a9 9 0 0 1-.447-.616c-.918-1.985-.878-3.615-.383-4.92c.514-1.357 1.564-2.473 2.806-3.285l.033-.02l.03-.024q.273-.21.555-.398c-.747 1.951-.572 4.203.709 6.132c1.527 2.299 4.242 3.396 6.836 3.051c-1.498 1.664-3.892 2.736-5.97 2.498c-1.55-.177-3.08-1.094-4.169-2.418M20.35 8.635a9.004 9.004 0 0 1-6.065 12.073c1.11-.661 2.087-1.528 2.814-2.51h.001c1.315-1.78 1.997-3.794 2.313-5.894c.142-.941.312-1.877.502-2.817q.106-.518.435-.852m-3.521-4.231a9 9 0 0 1 2.386 2.215q.084.117.165.236a2 2 0 0 0-.25.185l-.007.006l-.007.005a3.62 3.62 0 0 0-1.16 2.037v.001a59 59 0 0 0-.52 2.918c-.154 1.02-.4 1.985-.766 2.888c-2.267 1.32-5.297.653-6.757-1.545c-1.474-2.218-.898-5.05 1.297-6.603q.424-.108.863-.193c1.05-.2 2.08-.468 3.075-.738a2.5 2.5 0 0 0 1.68-1.412"/></svg>