<svg xmlns="http://www.w3.org/2000/svg" xmlns:xlink="http://www.w3.org/1999/xlink" width="24" height="24" viewBox="0 0 24 24"><path fill="currentColor" d="M5.897 3.087C7.188 1.24 9.213.012 11.997.013c2.786 0 4.81 1.228 6.102 3.074c1.261 1.804 1.789 4.138 1.789 6.385c0 .137-.004.331-.007.487l-.002.096l.914 2.286l.003.007c.273.712.55 1.47.755 2.132c.486 1.563.669 2.723.684 3.535c.007.401-.025.756-.104 1.046a1.7 1.7 0 0 1-.209.478a1.13 1.13 0 0 1-.8.51c-.436.052-.772-.156-.9-.242a3 3 0 0 1-.446-.382a6 6 0 0 1-.217-.239a7.3 7.3 0 0 1-.936 1.596c.196.103.383.216.55.34c.348.26.601.6.692 1.008c.087.39.003.753-.153 1.017a1.26 1.26 0 0 1-.523.475a2 2 0 0 1-.408.15a5.5 5.5 0 0 1-.828.135c-.592.059-1.34.08-2.097.078c-1.445-.002-3.035-.084-3.855-.168c-.82.084-2.41.166-3.855.168a22 22 0 0 1-2.097-.078a5.5 5.5 0 0 1-.828-.135a2 2 0 0 1-.408-.15a1.25 1.25 0 0 1-.522-.474l.002.004a1.4 1.4 0 0 1-.157-1.023c.09-.41.346-.75.695-1.008l.001-.001c.166-.123.352-.235.546-.337a7.3 7.3 0 0 1-.936-1.597a6 6 0 0 1-.218.239a3 3 0 0 1-.445.382c-.128.085-.464.295-.901.242h-.003a1.13 1.13 0 0 1-.796-.506a1.7 1.7 0 0 1-.21-.48a3.8 3.8 0 0 1-.106-1.048c.014-.813.196-1.972.681-3.534c.205-.661.482-1.42.756-2.134l.005-.013l.911-2.279l-.009-.583c0-2.247.528-4.581 1.79-6.385m-1.825 13.18l1.851-3.004v3.53c0 1.042.557 2.521 1.837 3.605l1.394 1.18l-1.319.407h.308c1.467-.002 3.062-.09 3.746-.167l.112-.013l.112.013c.684.077 2.28.165 3.746.167h.307l-1.32-.408l1.395-1.18c1.28-1.083 1.836-2.562 1.836-3.605v-3.53l1.852 3.006l.003.004l.01.017l.043.069l.01.016a18 18 0 0 0-.354-1.3a35 35 0 0 0-.71-2.004l-1.057-2.64v-.193l.007-.32c.003-.157.007-.332.007-.445c0-1.973-.47-3.867-1.428-5.239c-.929-1.328-2.35-2.22-4.462-2.22c-2.113 0-3.534.892-4.463 2.22C6.576 5.604 6.107 7.5 6.107 9.472c0 .2.009.557.012.694l.001.051l.004.203l-1.06 2.65a34 34 0 0 0-.71 2.003m-.282 1.195l-.003.004l-.01.017l-.043.069l-.017.026q.129-.575.355-1.31"/></svg>