<svg xmlns="http://www.w3.org/2000/svg" xmlns:xlink="http://www.w3.org/1999/xlink" width="24" height="24" viewBox="0 0 24 24"><path fill="currentColor" d="M17.585 5.09a8.6 8.6 0 0 1 1.539 2.19c.466.947.725 1.94.769 2.98a3.042 3.042 0 0 0-4.016 3.325l-.031-.005a3.042 3.042 0 0 0-2.523 5.227c-.658.208-1.352.358-2.061.436c-.442.048-.883.072-1.312.072q-.627 0-1.253-.072a10.7 10.7 0 0 1-1.861-.36l-2.84 1.438s-.27.131-.44.131c-.418 0-.702-.285-.702-.704c0-.247.068-.603.128-.84c.061-.238.394-1.653.394-1.653c-.728-.586-1.563-1.544-2.052-2.287A7.76 7.76 0 0 1 0 10.658a7.7 7.7 0 0 1 .787-3.39a8.7 8.7 0 0 1 1.551-2.19c1.61-1.665 3.878-2.73 6.359-3.006a11.3 11.3 0 0 1 2.565 0c2.47.275 4.712 1.353 6.323 3.017"/><path fill="currentColor" d="m21.427 15.112l.024.024a.35.35 0 0 1-.036.455a.323.323 0 0 1-.466 0a1.4 1.4 0 0 0-.13-.144a4.25 4.25 0 0 0-2.232-1.186q-.018-.001-.041-.005q-.023-.006-.042-.007c-.024 0-.06 0-.084-.011a1.4 1.4 0 0 1-.668-.372a1.4 1.4 0 0 1 0-1.963a1.386 1.386 0 0 1 1.957 0c.179.167.298.383.358.61l.035.144q0 .026.006.056q.005.036.006.076a4.24 4.24 0 0 0 1.17 2.19l.095.097q.01.009.024.018zm-1.051 4.418l.024-.024q.009-.01.018-.024l.018-.024l.095-.095a4.2 4.2 0 0 1 2.184-1.174l.074-.007q.032-.004.057-.005l.143-.036c.227-.06.441-.18.608-.36a1.4 1.4 0 0 0 0-1.963a1.386 1.386 0 0 0-2.326.67c-.012.025-.012.06-.012.084q0 .018-.006.043q-.005.024-.006.041a4.27 4.27 0 0 1-1.18 2.24l-.003.001a1.4 1.4 0 0 1-.141.13a.326.326 0 0 0 0 .467c.143.132.334.132.453.036m-4.366-1.078l.023.024q.01.009.024.018l.024.018l.096.096a4.25 4.25 0 0 1 1.169 2.191l.006.076q.005.031.006.056l.035.144c.06.227.18.443.358.61c.537.54 1.42.54 1.957 0a1.4 1.4 0 0 0 0-1.963a1.4 1.4 0 0 0-.668-.372c-.024-.012-.06-.012-.084-.012q-.018 0-.041-.006q-.023-.005-.042-.006a4.25 4.25 0 0 1-2.231-1.185a2 2 0 0 1-.131-.144a.323.323 0 0 0-.466 0a.325.325 0 0 0-.035.455m1.062-4.382l-.024.024q-.009.01-.018.024l-.018.024l-.096.096a4.2 4.2 0 0 1-2.183 1.173q-.038.001-.075.007l-.056.005l-.143.036c-.227.06-.441.18-.609.36a1.4 1.4 0 0 0 0 1.963a1.386 1.386 0 0 0 2.327-.67c.012-.024.012-.06.012-.084q0-.019.006-.042q.005-.023.006-.042a4.27 4.27 0 0 1 1.18-2.24l.003-.001c.047-.048.094-.095.14-.13a.326.326 0 0 0 0-.467a.32.32 0 0 0-.453-.036"/></svg>