<svg xmlns="http://www.w3.org/2000/svg" xmlns:xlink="http://www.w3.org/1999/xlink" width="24" height="24" viewBox="0 0 24 24"><path fill="currentColor" d="m19.443 17.523l-.075-.015l-.077-.01a3.9 3.9 0 0 1-2.165-1.196a.304.304 0 0 0-.428 0a.3.3 0 0 0-.021.4l.021.025q.021.019.042.035l.087.084a3.85 3.85 0 0 1 1.068 1.976q.005.061.014.122q.011.067.03.133c.055.203.164.395.325.555c.494.49 1.296.49 1.79 0a1.248 1.248 0 0 0-.611-2.109m4.187-3.203a1.273 1.273 0 0 0-1.79 0a1.25 1.25 0 0 0-.338.604q-.01.038-.016.075l-.01.076a3.86 3.86 0 0 1-1.078 2.027q-.062.061-.127.12a.3.3 0 0 0 0 .425c.11.11.284.116.404.021q.012-.009.023-.021l.036-.041q.04-.044.084-.087a3.9 3.9 0 0 1 1.993-1.06q.06-.003.123-.013q.068-.011.134-.03a1.25 1.25 0 0 0 .562-2.096m-5.358-3.548a1.25 1.25 0 0 0 0 1.774c.174.173.386.284.61.336l.075.016l.077.01a3.9 3.9 0 0 1 2.165 1.195a.3.3 0 0 0 .427 0a.3.3 0 0 0 .022-.401l-.022-.025l-.041-.035l-.088-.084a3.85 3.85 0 0 1-1.068-1.976a1.4 1.4 0 0 0-.043-.255a1.27 1.27 0 0 0-2.114-.556m-1.435 4.634l.01-.076a3.86 3.86 0 0 1 1.205-2.148a.3.3 0 0 0 0-.424a.306.306 0 0 0-.428 0q-.02.02-.035.041l-.085.087a3.9 3.9 0 0 1-1.992 1.06a1.4 1.4 0 0 0-.257.043a1.248 1.248 0 0 0-.56 2.097a1.275 1.275 0 0 0 1.79 0a1.26 1.26 0 0 0 .352-.68"/><path fill="currentColor" d="M11.465 3.615a7.865 7.865 0 0 1 7.572 5.738l1.926-.538a9.865 9.865 0 0 0-9.498-7.2c-5.446 0-9.862 4.415-9.862 9.862a9.8 9.8 0 0 0 1.54 5.293l-1.905 4.57h9.022l1.473-.005h.012a9.85 9.85 0 0 0 4.037-.99l-.876-1.797a7.8 7.8 0 0 1-3.205.787l-1.444.005H4.239l1.173-2.815l-.327-.454a7.862 7.862 0 0 1 6.38-12.456"/></svg>