<svg xmlns="http://www.w3.org/2000/svg" xmlns:xlink="http://www.w3.org/1999/xlink" width="24" height="24" viewBox="0 0 24 24"><path fill="currentColor" d="m21.323 2.534l-.447.895A14.3 14.3 0 0 1 19.65 5.45c.878 1.101 1.358 2.354 1.313 3.695c-.053 1.604-.852 3.156-2.257 4.561l-.055.055l-.059.043l-.005.004l-.04.032a4.7 4.7 0 0 0-.743.799c-.417.567-.807 1.364-.805 2.358c.004 1.686-.29 3.115-1.498 4.323c-2.398 2.399-6.307 2.368-8.674 0l-.068-.068c-.67-.669-1.34-1.338-1.637-2.376c-1.038-.298-1.707-.967-2.376-1.637l-.068-.068c-2.368-2.368-2.399-6.276 0-8.675C3.887 7.29 5.316 6.997 7.002 7c.994.002 1.79-.388 2.358-.804a4.7 4.7 0 0 0 .799-.744l.032-.04l.004-.005l.043-.06l.055-.054c1.385-1.386 2.89-2.229 4.458-2.329c1.241-.079 2.402.315 3.445 1.081c.338-.49.627-.984.891-1.51l.447-.895zm-4.38 3.073c-.705-.5-1.397-.69-2.065-.647c-.905.058-1.962.553-3.126 1.703l-.046.057a6.7 6.7 0 0 1-1.163 1.088C9.745 8.394 8.541 9.003 6.998 9c-1.44-.003-2.236.243-2.905.912c-1.611 1.611-1.593 4.253 0 5.846c.89.89 1.242 1.201 1.975 1.267a1 1 0 0 1 .907.907c.066.733.377 1.085 1.267 1.975c1.593 1.593 4.235 1.611 5.846 0c.67-.67.915-1.466.912-2.905c-.003-1.543.606-2.747 1.192-3.545a6.7 6.7 0 0 1 1.088-1.163l.057-.046c1.13-1.146 1.597-2.227 1.628-3.169c.023-.668-.171-1.354-.625-2.036q-.357.389-.763.794l-.707.707l-1.414-1.414l.707-.707q.422-.422.78-.816m1.651 8.197"/></svg>