<svg xmlns="http://www.w3.org/2000/svg" xmlns:xlink="http://www.w3.org/1999/xlink" width="24" height="24" viewBox="0 0 24 24"><path fill="currentColor" d="M9.017 2.403C9.847 1.515 10.887 1 12 1s2.153.515 2.983 1.403c1.603 1.716 3.345 4.17 4.796 6.781c1.448 2.605 2.649 5.44 3.113 7.924c.15.805.169 1.628-.108 2.432c-.28.814-.828 1.504-1.626 2.103c-.367.275-.92.457-1.443.592c-.57.147-1.276.28-2.067.39c-1.585.223-3.578.37-5.645.375h-.005c-2.068-.005-4.06-.152-5.646-.375a19 19 0 0 1-2.067-.39c-.522-.135-1.076-.317-1.443-.592c-.798-.6-1.345-1.29-1.626-2.103c-.277-.804-.258-1.627-.108-2.432c.464-2.483 1.665-5.32 3.113-7.924c1.451-2.61 3.193-5.065 4.796-6.78M12 3c-.462 0-.998.209-1.521.769c-1.47 1.572-3.12 3.885-4.51 6.387c-1.395 2.508-2.486 5.131-2.895 7.32c-.112.6-.094 1.045.033 1.412c.123.357.383.74.936 1.156q-.004-.003 0 0c.011.006.064.036.182.082q.205.08.56.173c.474.122 1.1.241 1.845.346l.37.05V13h10v7.694q.19-.023.37-.05a17 17 0 0 0 1.845-.345a5 5 0 0 0 .56-.173c.118-.046.17-.076.181-.082q.005-.003 0 0c.553-.416.814-.799.937-1.156c.127-.367.145-.812.033-1.413c-.41-2.188-1.5-4.81-2.895-7.32c-1.39-2.5-3.04-4.814-4.51-6.386C12.998 3.209 12.462 3 12 3m3 17.89V15H9v5.89c.946.067 1.961.107 3 .11a44 44 0 0 0 3-.11M10.998 5.128h2.004v2.004h-2.004zM8.296 9.187h2.003v2.004H8.296zm5.405 0h2.003v2.004h-2.003z"/></svg>