<svg xmlns="http://www.w3.org/2000/svg" xmlns:xlink="http://www.w3.org/1999/xlink" width="24" height="24" viewBox="0 0 24 24"><path fill="currentColor" d="M1 2h22v8.25h-2V4H3v12h8.5v2H1zm2 18h8.5v2H3z"/><path fill="currentColor" d="M19.5 12v1.376c.715.184 1.352.56 1.854 1.072l1.193-.689l1 1.732l-1.192.688a4 4 0 0 1 0 2.142l1.192.688l-1 1.732l-1.193-.689a4 4 0 0 1-1.854 1.072V22.5h-2v-1.376a4 4 0 0 1-1.854-1.072l-1.193.689l-1-1.732l1.192-.688a4 4 0 0 1 0-2.142l-1.192-.688l1-1.732l1.193.688a4 4 0 0 1 1.854-1.071V12zm-2.751 4.283a2 2 0 0 0-.25.967c0 .35.091.68.25.967l.036.063a2 2 0 0 0 3.43 0l.036-.063c.159-.287.249-.616.249-.967c0-.35-.09-.68-.249-.967l-.036-.063a2 2 0 0 0-3.43 0z"/></svg>