<svg xmlns="http://www.w3.org/2000/svg" xmlns:xlink="http://www.w3.org/1999/xlink" width="24" height="24" viewBox="0 0 24 24"><path fill="currentColor" d="M18 7c-.614 0-1.178.159-1.567.418C16.053 7.67 16 7.9 16 8s.053.329.433.582c.389.26.953.418 1.567.418s1.178-.159 1.567-.418C19.947 8.33 20 8.1 20 8s-.053-.329-.433-.582C19.178 7.158 18.614 7 18 7m0-2c.921 0 1.893.232 2.676.754C21.467 6.28 22 7.074 22 8s-.533 1.719-1.324 2.246c-.783.522-1.755.754-2.676.754s-1.893-.232-2.676-.754C14.533 9.72 14 8.926 14 8s.533-1.719 1.324-2.246C16.107 5.232 17.079 5 18 5M5.707 7.293A1 1 0 0 1 5.001 9H5a1 1 0 1 1 .709-1.707M6 10.829a3 3 0 1 0-2 0V12H2v2h2v1.586l-2.414 2.413L3 19.413l2-2l2.003 2l1.413-1.415L6 15.585V14h2v-2H6zM9.5 7h3v2h-3zm8.5 8c-.614 0-1.178.159-1.567.418c-.38.254-.433.484-.433.582c0 .099.053.328.433.582c.389.26.953.418 1.567.418s1.178-.159 1.567-.418c.38-.254.433-.483.433-.582s-.053-.328-.433-.582C19.178 15.158 18.614 15 18 15m0-2c.921 0 1.893.232 2.676.754C21.467 14.28 22 15.074 22 16s-.533 1.719-1.324 2.246c-.783.522-1.755.754-2.676.754s-1.893-.232-2.676-.754C14.533 17.72 14 16.926 14 16s.533-1.719 1.324-2.246C16.107 13.232 17.079 13 18 13m-8.5 2h3v2h-3z"/></svg>