<svg xmlns="http://www.w3.org/2000/svg" xmlns:xlink="http://www.w3.org/1999/xlink" width="24" height="24" viewBox="0 0 24 24"><path fill="currentColor" d="M6 11c-.614 0-1.178.159-1.567.418c-.38.254-.433.484-.433.582s.053.329.433.582c.389.26.953.418 1.567.418s1.178-.159 1.567-.418c.38-.254.433-.484.433-.582s-.053-.328-.433-.582C7.178 11.158 6.614 11 6 11m0-2c.921 0 1.893.232 2.676.754C9.467 10.28 10 11.074 10 12s-.533 1.719-1.324 2.246C7.893 14.768 6.921 15 6 15s-1.893-.232-2.676-.754C2.533 13.72 2 12.926 2 12s.533-1.719 1.324-2.246C4.107 9.232 5.079 9 6 9m12 2c-.614 0-1.178.159-1.567.418c-.38.254-.433.484-.433.582s.053.329.433.582c.389.26.953.418 1.567.418s1.178-.159 1.567-.418c.38-.254.433-.484.433-.582s-.053-.328-.433-.582C19.178 11.158 18.614 11 18 11m0-2c.921 0 1.893.232 2.676.754C21.467 10.28 22 11.074 22 12s-.533 1.719-1.324 2.246c-.783.522-1.755.754-2.676.754s-1.893-.232-2.676-.754C14.533 13.72 14 12.926 14 12s.533-1.719 1.324-2.246C16.107 9.232 17.079 9 18 9m-7.002 1.996h2.004V13h-2.004z"/></svg>