<svg xmlns="http://www.w3.org/2000/svg" xmlns:xlink="http://www.w3.org/1999/xlink" width="24" height="24" viewBox="0 0 24 24"><g fill="none"><path fill="url(#tokenBranded0xgas0)" d="M15.832 2.95c.15 0 .306.018.468.03c.9.063 3.144.232 3.475 1.313c.075.238.138.47.188.707c.812 3.437 1.312 6.812 2.018 11.03c0 .075.019.156.019.238c-.187 1.975-2.387 2.262-3.937 2.262l-4.656.031c-2.413-.05-3.375-.012-6.55 0c-1.55 0-4.137-.012-4.781-1.706a8.4 8.4 0 0 1-.063-1.6c.594-3.974 1.388-7.124 1.97-10.58c.024-.144.068-.294.143-.438a.45.45 0 0 1 .125-.162c1.162-1 3.168-1.113 4.612-1.125h.25c2.238.062 4.481-.05 6.719 0"/><path fill="#080210" d="m15.763 3.85l-1.438-.007l-5.83.013a4 4 0 0 0-.65.037c-.47.082-.87.382-1.332.5c-.35.094-.631.17-.712.67q-.226 1.474-.4 2.955a924 924 0 0 1-.9 7.15c0 .162-.025.337.03.5c.438.531.77.75 1.113.912c.2.094.382.15.563.175c.412.063.831.082 1.306.082c2.744.03 4.944.03 7.412.03c.888-.005 1.775.026 2.656-.055c.532-.044 1.725-.538 1.956-1.082c.126-.293.038-.625-.024-.925a73 73 0 0 1-.988-6.53L18.15 5.28a17 17 0 0 0-.081-.475c-.113-.625-1.638-.95-2.306-.956"/><path fill="url(#tokenBranded0xgas1)" d="M8.95 5.768a21 21 0 0 1 1.55-.006h2.732c.737 0 1.487-.044 2.224.019c.125.006.25.037.388.087q.356.142.694.331c.137.075.3.175.318.325q.076.518.088 1.044c0 .106-.819.15-.938.213l-.08-.907c-.101-.03-.22-.087-.313-.106c-.125-.019-.982-.1-1.094-.244c-.1-.125-.125-.312-.188-.462h-4.75c-.068.012-.118.306-.13.375a.08.08 0 0 1-.063.056l-1.381.388c-.082.268-.038.562-.063.83c-.306 0-.606-.08-.912-.093c0-.4.018-.756.075-1.081c.05-.288.862-.606 1.112-.687a2.3 2.3 0 0 1 .731-.082M14.825 6c-.031.125-.019.33.138.368a.39.39 0 0 0 .375-.094c.062-.056.05-.125.018-.187A.5.5 0 0 0 14.82 6zm-6.268.062c-.125.331.287.45.487.219c.263-.319-.4-.469-.487-.225z"/><path fill="url(#tokenBranded0xgas2)" d="M14.862 6.856c.271.126.564.198.863.212c.018.194.168.8-.075.931l-.407.294l-1.906 1.425a.2.2 0 0 1-.025-.081a2.6 2.6 0 0 1 .007-.438l.23-.193c.113-.113.176-.27.282-.4a4.5 4.5 0 0 0 .631-.6c.025.006.019.018 0 0c-.25-.063-.493-.188-.718-.182c-.325.525-.988.957-1.494 1.288l-.219.156c-.062.069-.131.019-.187-.031c-.507-.413-1.05-.775-1.525-1.225l-.025-.1c-.02-.088-.188-.056-.25-.056q-.3.065-.581.056q.075.142.262.312c.037.038.388.438.456.563q.19.366.425.712c.063.107.075.188 0 .294q-.018-.036-.075-.062c-.812-.525-1.625-1.263-2.325-1.844l.02-.731c.33-.107.655-.194.993-.281c.062-.02.112-.032.187.024c.125.113.25.22.388.313l1.106.837l1.112.832c.694-.52 2.119-1.7 2.85-2.025m-.481.531q-.03-.143.137-.144l.163.025c.044.013.338.063.312.125l-.006.013c-.037.031-.1.1-.143.1a1.3 1.3 0 0 1-.313 0c-.081 0-.131-.044-.15-.119"/><path fill="#080210" d="m14.519 7.243l.162.025l.3.1a.025.025 0 0 1 .013.031l-.006.007l-.125.093a1.7 1.7 0 0 1-.325.013q-.13-.01-.157-.125c-.018-.094.025-.144.138-.144"/><path fill="url(#tokenBranded0xgas3)" d="M17.219 7.174c.038.3.225 1.475.313 1.82c.218.03.568 0 .712.03l-.206-2.018"/><path fill="url(#tokenBranded0xgas4)" d="M16.937 7.724c-.075-.106-.78-.056-.812.088c-.05.287.106 1.619.312 1.625c.082.006.807 0 .813-.113c-.106-.35-.075-1.28-.313-1.6"/><path fill="url(#tokenBranded0xgas5)" d="M7.032 7.624c.094.144-.075 1.213-.119 1.525c.225-.018.45 0 .675.063c.225-1.056.331-1.25.331-1.494c-.237-.075-.587-.087-.887-.1z"/><path fill="#fff" d="M10 8.556c.45.368 1.075.593 1.469 1.043c.1.12-.125.338-.225.425c-.656.6-1.338 1.15-1.938 1.82a8 8 0 0 1-.462.487c-.019.012-.037 0-.031-.025l.125-.17a18 18 0 0 0 1.668-2.343c.075-.1.063-.187 0-.294q-.305-.467-.606-.937z"/><path fill="#B364B4" d="M8.813 12.306v.006c0 .006 0 .012.012.012h.02c-.126.125-.263.25-.213.4c.037.107.125.175.118.325a8 8 0 0 1-.225.594c-.175.137-.256.075-.38-.375c-.007-.05.03-.113.055-.156c.107-.219.225-.425.307-.625a.23.23 0 0 0 .012-.125c-.012 0-.056-.019-.075 0c.069-.525.113-1.05.181-1.575c.013-.144.032-.306.032-.45c.018.512.006 1.019-.032 1.531c-.012.15 0 .406 0 .606c0-.006-.018.013 0 0l.188-.175z"/><path fill="#4B4450" d="M12.482 10.412a1.3 1.3 0 0 0-.475-.312c.1.124.093.243-.02.343c-.062.056-.243.169-.418.356l-.094.107c.419-.275.488-.288.875.037c.563.469 1.144.9 1.681 1.4c.2.012.413-.037.62-.019q.131.012.187-.062a8 8 0 0 0-.788-.656c-.537-.375-1-.863-1.562-1.188z"/><path fill="#030109" d="m16.988 11.53l.093.563c0 .106 0 .206.019.313c.05.306.081.624.125.912l.05.175c.069.306.15.606.231.906a.3.3 0 0 1 0 .144a.5.5 0 0 1-.093.144q-.03-.02-.013-.075a.03.03 0 0 0 .001-.017a.03.03 0 0 0-.007-.015a4 4 0 0 1-.469-.425a3 3 0 0 0-.538-.518l-.143-.125c.169.018.3-.007.406-.094l.013-.019l-.007-.025a.6.6 0 0 0-.15-.144l-.156-.112a3 3 0 0 1-.481-.513q-.045-.063.031-.062c.012 0 .025.006.05.038q.393.33.775.674c.075.063.175.094.169.22a4 4 0 0 0 .012.355l.019.025a.03.03 0 0 0 .044 0l.006-.018a6 6 0 0 0-.031-1.025l-.069-.625a9 9 0 0 1-.006-.938c0-.031.006-.043.025-.05c.012 0 .025.007.025.019z"/><path fill="url(#tokenBranded0xgas6)" d="M16.975 9.956c-.194 1.318.063 2.568 0 3.874c0 .05-.669-.637-.769-.725c-.012-1.106-.162-2.537-.162-3.63l.938.48z"/><path fill="url(#tokenBranded0xgas7)" d="M11.988 10.437q.17-.142.019-.332a.15.15 0 0 0-.125.007a4 4 0 0 0-.537.375c-.676.556-1.37 1.156-1.25 1.075l-.275.206c.093.112.262.225.412.225c.594-.519 1.175-1.025 1.756-1.55z"/><path fill="url(#tokenBranded0xgas8)" d="M8.125 9.237c-.05.219-.2.387-.25.6c-.175.812-.112 1.719-.087 2.543a.41.41 0 0 1-.156.313a8 8 0 0 0-.407.375c-.1.094-.356.237-.687 1.031c-.006 0-.019 0-.031.013l-.038.043c.088-1.268.213-2.7.563-3.937c.037-.106.137-.194.25-.256c.493-.3.656-.519.862-1.031c.013.106.006.212-.012.312z"/><path fill="#500770" d="m17.731 11.45l.032.13c.062.8.168 1.6.243 2.4c.006.088 0 .163-.006.213c-.106.025-.375.063-.362.2l-.432-2.531l-.012-.163c.137.282.562-.025.537-.25"/><path fill="url(#tokenBranded0xgas9)" d="M17.35 9.45c.619 1.506.269 3.25.7 4.787c.088.037.706.219.956.281c-.187-1.331-.231-3.325-.831-4.569c-.088-.075-.625-.587-.825-.5"/><path fill="url(#tokenBranded0xgasa)" d="M6.563 9.518c-.062.469-.637 4.762-.693 4.787c-.275.12-.494.35-.794.375c-.113.013-.113.013-.163-.087v-.013c.207-1.412.382-2.85.7-4.25c.013-.062.063-.162.125-.312c.094-.081.632-.594.831-.5z"/><path fill="url(#tokenBranded0xgasb)" d="m13.832 8.606l-.12.175c-.05.08-.1.162-.162.225l-.23.2a2 2 0 0 0 0 .43c.5.838 1.58 2.4 2.249 3c-.038-.15-.044-.293-.05-.343c-.019-.4-.113-.812-.162-1.212l.012-.257v-.012c.013-.013.031-.006.037.006l.282 1.706c.025.169.056.294.081.375a.7.7 0 0 0 .113.25c.1.132.218.238.343.35l.163.138a.6.6 0 0 1-.15.168a.46.46 0 0 1-.319.107l-2.725.025h-.8l-2.487-.02c-.525 0-1.144 0-1.85-.018c-.213-.006-.356-.125-.469-.268l.188-.182c.156-.125.343-.287.387-.5c.031-.156.1-.293.2-.425c.006-.012.138-.268.156-.156a.3.3 0 0 1-.012.125c-.2.488-.55 1.188.325 1.25h.519q3.441-.02 4.887 0c.431.012.875.05 1.281-.1a.23.23 0 0 0 .169-.231c0-.263-.15-.644-.356-.844c-.27-.269-.532-.55-.794-.831c-.375-.406-.738-.813-1.163-1.156a4.7 4.7 0 0 1-.918-.938c.356-.431.937-.7 1.375-1.037"/><path fill="#761594" d="M15.332 12.568c.218.206.356.556.356.844q0 .166-.17.231c.032-.038.038-.069.013-.081a.61.61 0 0 1-.337-.494c-.019-.156.081-.35.137-.5"/><path fill="#7A4B90" d="M7.588 13.63c.044.063.056.082.038.07a.4.4 0 0 1 .05.274c-.07.281-.194.863-.475 1.031a1.8 1.8 0 0 1-.632-.437zm8.8.007c.33.25.856.668 1.08 1.018c-.212.213-.362.438-.737.438a.4.4 0 0 0-.03-.175a5 5 0 0 1-.463-1.112a.5.5 0 0 0 .15-.17"/><path fill="url(#tokenBranded0xgasc)" d="M16.938 10.393a3 3 0 0 0-.07-.206c-.024 0-.061-.013-.068.019v.018c.075.288.125.563.138.838l.05.469c.156.962.269 1.937.518 2.874c.013.05.013.1 0 .138c-.175.412-.75.575-1.15.581c-.443.006-.887.013-1.33.006c-2.35-.012-4.688-.018-7.038-.018c-.319 0-.55-.013-.787-.107a1.8 1.8 0 0 1-.632-.437c-.062-.025-.087-.056-.062-.125l.062-.313c-.024-.062-.075 0-.1.025c-.08.832-.88 1.37-1.437 1.925a.075.075 0 0 0 0 .107l.288.262q.148.096.325.125l.062-.131c.29-.27.483-.628.55-1.019q.02-.093.225-.075c3.431-.175 6.906-.019 10.337-.025l.813.013l.25-.013c.024.344.25 1.056.587 1.244c.012 0 .006.018-.013.037a1.9 1.9 0 0 0 .732-.393l-.37-.338c-.362-.475-.55-.656-.962-1.031a.7.7 0 0 1-.218-.45c-.225-1.319-.375-2.7-.7-4"/><path fill="#0C0116" d="M21.981 16.33q-.009-.018-.019 0c-.03.332-.18.594-.343.882c-.494.856-1.919 1.193-2.863 1.293l-11.974.038c-1.675.006-4.087-.188-4.775-1.956c0 .406-.019 1.28.05 1.68l.019.276c-.006.8.325 1.312.75 1.937c.881-.262 1.9 1 2.737.438a.35.35 0 0 1 .175-.063c.45-.025.925 0 1.388.019c3 .156 6.712-.013 9.668.019c.2.024.394.075.813.156c.724.025 2.143-.156 2.88-.469c.176-.075.288-.219.4-.356l.076-.088c.625-.75.887-1.987 1.012-3c.025-.256.038-.55 0-.806z"/><path fill="#E788EF" d="M6.47 4.606c-.05 0-.095 0-.126-.025c.163-.094.5-.281.65-.188c.025.013.025.057 0 .063a1.5 1.5 0 0 1-.525.15"/><path fill="#D55BE6" d="M16.938 4.45c-.044.012-.063-.088-.007-.094c.05 0 .1 0 .15.012q.372.093.72.257a2.6 2.6 0 0 1-.857-.175z"/><path fill="url(#tokenBranded0xgasd)" d="M17.763 5.512c.218.275.462 1.063.262 1.438q-.039.063-.144.062a6 6 0 0 0-.793 0l-.056-.912a.13.13 0 0 0-.063-.1a9 9 0 0 1-.456-.263c-.219-.131-.232-.312-.25-.525c0-.031-.007 0-.013-.019c0-.056-.018-.08-.044-.093c-.08-.025-.23-.013-.318-.02L14.6 5.076c-1.625.012-3.243.012-4.862-.007c-.637.013-1.269.013-1.906-.012c-.031 0-.113.019-.125.062v.025c-.094.407-.181.725-.65.844c-.081.025-.119.05-.131.138q-.085.412-.132.862c0 .037-.025.063-.062.056l-.763-.062c-.106 0-.075-.213-.068-.269c.018-.25.056-.5.093-.75c.157-.887 1.088-1.1 2.075-1.15h7.981c.594 0 1.344.25 1.713.7"/><path fill="url(#tokenBranded0xgase)" d="M6.688 7.087a4.6 4.6 0 0 0-.781-.05c-.182.625-.25 1.294-.288 1.937c.138.057.688.094.831.094c.088-.187.244-1.737.244-1.981z"/><path fill="#211427" d="M9.594 7.312c.019.019.037.044.037.069a.3.3 0 0 1-.012.162l-.025.025a.4.4 0 0 1-.2.063a.34.34 0 0 1-.2-.044a.6.6 0 0 1-.206-.187a.044.044 0 0 1 .008-.053a.04.04 0 0 1 .017-.01c.131-.038.462-.106.581-.025"/><path fill="url(#tokenBranded0xgasf)" d="M14.357 7.068c-.538-.131-1.07-.362-1.625-.319c-.513.038-1.032.007-1.538.013c-.575.006-1.187.362-1.506.375l2.319 1.75c.83-.544 1.575-1.2 2.35-1.819"/><path fill="#F2BFED" d="M13.875 12.312c.05.006.094.031.138.062c.018.019.006.056-.025.063l-4.063.012c-.018 0-.043-.08-.03-.1q.016-.029.062-.031z"/><path fill="#202025" d="M6.22 18.955h1.437v1.731H6.219z"/><path fill="#333237" d="M7.8 18.955h2.176v1.731H7.8z"/><path fill="#D9D9D9" d="M10.12 18.955h1.956v1.731h-1.957z"/><path fill="url(#tokenBranded0xgasg)" d="M10.12 18.955h1.956v1.731h-1.957z"/><path fill="url(#tokenBranded0xgash)" d="M13.706 18.955H12.25v1.731h1.456z"/><path fill="#353438" d="M13.926 18.955h2v1.731h-2z"/><path fill="#222224" d="M16.125 18.955h1.719l-.206 1.731h-1.513z"/><path fill="url(#tokenBranded0xgasi)" d="m18.044 18.955l1.83-.169l-.162 1.532l-1.744.368z"/><path fill="url(#tokenBranded0xgasj)" d="m20.007 18.68l1.162-.53l-.256 1.605l-1.038.513z"/><path fill="url(#tokenBranded0xgask)" d="m6.007 18.918l-1.438-.125l.17 1.718l1.268.175z"/><path fill="#D9D9D9" d="m4.382 18.718l-.937-.313l.212 1.713l.931.368z"/><path fill="url(#tokenBranded0xgasl)" d="m4.382 18.718l-.937-.313l.212 1.713l.931.368z"/><path fill="url(#tokenBranded0xgasm)" d="m3.263 18.38l-.562-.437l.1 1.85l.637.218l-.175-1.624z"/><path fill="url(#tokenBranded0xgasn)" d="m2.57 17.793l-.363-.5l.088 1.8l.275.468z"/><path fill="url(#tokenBranded0xgaso)" d="m21.394 18.012l.481-.8l-.387 1.687l-.42.706z"/><defs><linearGradient id="tokenBranded0xgas0" x1="6.394" x2="22.619" y1="3.445" y2="18.36" gradientUnits="userSpaceOnUse"><stop offset=".2" stop-color="#FEFFFF"/><stop offset="1" stop-color="#89888D"/></linearGradient><linearGradient id="tokenBranded0xgas1" x1="12" x2="12" y1="2.958" y2="21.064" gradientUnits="userSpaceOnUse"><stop stop-color="#A7A6AC"/><stop offset="1" stop-color="#6D7371"/></linearGradient><linearGradient id="tokenBranded0xgas2" x1="2.445" x2="22" y1="7.758" y2="7.687" gradientUnits="userSpaceOnUse"><stop offset=".17" stop-color="#80788B"/><stop offset=".32" stop-color="#EDF1EE"/><stop offset=".58" stop-color="#F9FFF9"/><stop offset=".78" stop-color="#626260"/></linearGradient><linearGradient id="tokenBranded0xgas3" x1="12" x2="12" y1="2.936" y2="21.064" gradientUnits="userSpaceOnUse"><stop stop-color="#48494F"/><stop offset="1" stop-color="#84619A"/></linearGradient><linearGradient id="tokenBranded0xgas4" x1="11.972" x2="11.972" y1="2.943" y2="21.111" gradientUnits="userSpaceOnUse"><stop stop-color="#26272A"/><stop offset="1" stop-color="#82529C"/></linearGradient><linearGradient id="tokenBranded0xgas5" x1="12.062" x2="12.062" y1="2.936" y2="21.064" gradientUnits="userSpaceOnUse"><stop stop-color="#26272A"/><stop offset="1" stop-color="#82529C"/></linearGradient><linearGradient id="tokenBranded0xgas6" x1="11.959" x2="11.959" y1="2.936" y2="21.079" gradientUnits="userSpaceOnUse"><stop stop-color="#D8A6E4"/><stop offset="1" stop-color="#59305D"/></linearGradient><linearGradient id="tokenBranded0xgas7" x1="20.434" x2=".695" y1="2.919" y2="19.583" gradientUnits="userSpaceOnUse"><stop offset=".41" stop-color="#FBF5FA"/><stop offset=".87" stop-color="#451066"/></linearGradient><linearGradient id="tokenBranded0xgas8" x1="4.899" x2="5.5" y1="2.568" y2="21.269" gradientUnits="userSpaceOnUse"><stop offset=".11" stop-color="#EDCFF5"/><stop offset=".41" stop-color="#29282B"/></linearGradient><linearGradient id="tokenBranded0xgas9" x1="12.037" x2="12.037" y1="2.95" y2="21.064" gradientUnits="userSpaceOnUse"><stop stop-color="#D8A6E4"/><stop offset="1" stop-color="#59305D"/></linearGradient><linearGradient id="tokenBranded0xgasa" x1="19.057" x2="18.454" y1="2.605" y2="21.275" gradientUnits="userSpaceOnUse"><stop offset=".11" stop-color="#EDCFF5"/><stop offset=".41" stop-color="#29282B"/></linearGradient><linearGradient id="tokenBranded0xgasb" x1="13.463" x2="22.637" y1="5.317" y2="12.466" gradientUnits="userSpaceOnUse"><stop offset=".08" stop-color="#fff"/><stop offset=".28" stop-color="#80748D"/><stop offset=".93" stop-color="#FAE7F9"/></linearGradient><linearGradient id="tokenBranded0xgasc" x1="11.993" x2="11.993" y1="2.926" y2="21.064" gradientUnits="userSpaceOnUse"><stop stop-color="#B594B5"/><stop offset=".75" stop-color="#F9FEFB"/><stop offset=".84" stop-color="#97729E"/></linearGradient><linearGradient id="tokenBranded0xgasd" x1="11.998" x2="11.998" y1="2.429" y2="21.056" gradientUnits="userSpaceOnUse"><stop stop-color="#A7A3A0"/><stop offset=".23" stop-color="#3A3B3D"/></linearGradient><linearGradient id="tokenBranded0xgase" x1="11.999" x2="14.756" y1="11.987" y2="22.894" gradientUnits="userSpaceOnUse"><stop stop-color="#26272A"/><stop offset="1" stop-color="#82529C"/></linearGradient><linearGradient id="tokenBranded0xgasf" x1="11.986" x2="11.986" y1="2.929" y2="21.116" gradientUnits="userSpaceOnUse"><stop stop-color="#020107"/><stop offset=".63" stop-color="#670680"/></linearGradient><linearGradient id="tokenBranded0xgasg" x1="19.125" x2="2" y1="11.967" y2="11.967" gradientUnits="userSpaceOnUse"><stop stop-color="#F2D9FD"/><stop offset=".26" stop-color="#6F5874"/></linearGradient><linearGradient id="tokenBranded0xgash" x1="4.832" x2="22" y1="11.967" y2="11.967" gradientUnits="userSpaceOnUse"><stop stop-color="#F2D9FD"/><stop offset=".26" stop-color="#6F5874"/></linearGradient><linearGradient id="tokenBranded0xgasi" x1="19.114" x2="2" y1="12" y2="12" gradientUnits="userSpaceOnUse"><stop offset=".09" stop-color="#F2D9FD"/><stop offset=".6" stop-color="#A27DAA"/></linearGradient><linearGradient id="tokenBranded0xgasj" x1="12.048" x2="12.048" y1="2.936" y2="21.064" gradientUnits="userSpaceOnUse"><stop stop-color="#FBEBFA"/><stop offset=".48" stop-color="#DC69EF"/></linearGradient><linearGradient id="tokenBranded0xgask" x1="4.956" x2="22" y1="12.03" y2="12.03" gradientUnits="userSpaceOnUse"><stop stop-color="#F2D9FD"/><stop offset=".81" stop-color="#A27DAA"/></linearGradient><linearGradient id="tokenBranded0xgasl" x1="12.055" x2="12.055" y1="2.882" y2="21.064" gradientUnits="userSpaceOnUse"><stop stop-color="#FBEBFA"/><stop offset=".48" stop-color="#DC69EF"/></linearGradient><linearGradient id="tokenBranded0xgasm" x1="12" x2="12" y1="2.882" y2="21.064" gradientUnits="userSpaceOnUse"><stop stop-color="#FBEBFA"/><stop offset=".71" stop-color="#DC69EF"/></linearGradient><linearGradient id="tokenBranded0xgasn" x1="12" x2="12" y1="2.936" y2="21.064" gradientUnits="userSpaceOnUse"><stop stop-color="#FBEBFA"/><stop offset="1" stop-color="#DC69EF"/></linearGradient><linearGradient id="tokenBranded0xgaso" x1="21.469" x2="21.469" y1="17.212" y2="19.605" gradientUnits="userSpaceOnUse"><stop stop-color="#FBEBFA"/><stop offset="1" stop-color="#DC69EF"/></linearGradient></defs></g></svg>