<svg xmlns="http://www.w3.org/2000/svg" xmlns:xlink="http://www.w3.org/1999/xlink" width="24" height="24" viewBox="0 0 24 24"><g fill="none"><path fill="#fff" d="m6.693 12.952l.522-3.946l-4.527-3.157L6.826 7.25l.976-1.503l3.568-2.224l7.865 4.351l.406 6.645l-3.499 4.896l-2.773.426l1.44-2.634v-2.544l-1.045-1.984l-1.061-.704l-1.627 1.69v1.782l-1.269 1.194l-1.616.198l-.714.41l-1.174-.373l-.485-1.77l.875-1.243z"/><path fill="#94A6C3" d="M13.924 5.811c-.864-.176-1.808-.128-1.808-.128s-.31 1.44-2.229 1.814c.016 0 2.538.869 4.037-1.686m.784 13.066a6.3 6.3 0 0 0 2.186-3.226c.01-.054.16-.134.256-.198c.16-.096.326-.181.358-.31q.096-.576.096-1.162c0-.15-.145-.293-.288-.442c-.118-.096-.23-.214-.23-.294a6.2 6.2 0 0 0-1.94-3.893l-.113.107a6.1 6.1 0 0 1 1.888 3.802c.016.128.15.262.277.395c.118.096.246.245.246.31q0 .56-.096 1.13c-.016.064-.16.128-.278.192c-.16.085-.309.165-.341.298a6.05 6.05 0 0 1-2.48 3.387c.214-.459.88-1.947 1.237-2.699l-.064-2.426l-2.069-2.01l-1.173.16l-1.28 2.095s.598.774-.245 1.67c-.832.885-1.483 1.082-1.483 1.082l-.602-.325a6 6 0 0 1 .81-.8c.475-.395.944-.427.944-.853c.016-.886-.928-.64-.928-.64l-.34.325l-.145 1.21l-.72.907l-.08-.021l-1.173-.262s.72-.373.832-.8c.112-.41-.23-1.77-.245-1.85c.016.016.34.293.49.752c.165-.52.4-1.015.699-1.472a82 82 0 0 1 1.418-.768l-.442 1.157l.325-.176l.784-1.93s.768-.379 1.333-.379c1.03-.016 2.544-1.28 1.861-3.535c.192.08 3.579 1.786 4.165 5.12c.443 2.575-1.008 4.98-3.45 6.372"/><path fill="#1B314F" d="M10.83 6.174c.374-.443.23-1.099.23-1.099L9.967 6.697c-.016 0 .394.016.864-.523m-3.663 8.852l.128-.65s-.533.949-.586 1.077c-.048.15.037.41.245.395c.213-.016.475-.331.475-.56c0-.294-.262-.262-.262-.262"/><path fill="#1B314F" d="M16.84 4.617s.817.032 1.66.133c-1.904-1.503-3.712-1.946-5.173-1.946c-2.027 0-3.392.832-3.472.88l.635-1.013s-2.54-.246-3.435 2.453q-.258-.69-.442-1.403s-1.318 1.157-.699 3.093Q4.039 6.121 2.149 5.47c-.107-.016-.144.032-.144.032s-.032.054.064.134c.181.144 3.6 2.682 4.352 3.173c-.166.586-.166.869 0 1.146c.224.373.24.57.213.853c-.037.278-.33 2.683-.395 2.976c-.064.293-.746 1.344-.714 1.653c.032.31.453 1.637.826 1.787c.278.096.96.309 1.419.309c.16 0 .31-.032.373-.096c.277-.25.357-.299.555-.299h.053c.075 0 .176.016.288.016c.267 0 .603-.047.848-.277c.357-.357.976-.853 1.173-1.077c.245-.315.373-.741.31-1.163c-.054-.394.16-.736.405-1.082l.88-1.147a4.49 4.49 0 0 1 1.824 3.59c0 2.559-2.214 4.618-4.95 4.618c-.426 0-.831-.054-1.237-.15c1.254.443 2.31.587 3.174.587c1.84 0 2.82-.667 2.82-.667s-.346.443-.895.95h.016c3.04-.427 4.527-2.944 4.527-2.944s-.117.816-.267 1.37c4.059-3.06 3.376-6.89 3.36-7.018c.032.048.437.534.65.8c.651-6.74-4.836-8.922-4.836-8.922zM10.603 15.39c-.064.08-.342.326-.534.507c-.197.181-.41.363-.57.523c-.07.069-.198.1-.395.1h-.485c.245-.33.96-1.082 1.205-1.247c.293-.192.437-.39.261-.736c-.181-.341-.656-.261-.656-.261s.278-.112.523-.112c-.31-.085-.699 0-.88.176c-.192.181-.16.821-.245 1.226c-.08.427-.358.64-.779 1.035c-.23.213-.39.277-.522.277a5 5 0 0 1-.832-.213c-.16-.213-.406-.917-.47-1.21c.054-.16.246-.507.342-.705c.197-.373.309-.586.34-.784c.065-.277.278-2 .358-2.72c.214.283.507.737.443 1.035c.47-.672.128-1.328-.032-1.589a1.8 1.8 0 0 1-.181-1.344c.16-.554.746-2.096.746-2.096s.197.347.48.283c.272-.07 2.507-3.44 2.507-3.44s.597 1.328-.038 2.294c-.65.96-1.285 1.146-1.285 1.146s.896.16 1.728-.443c.341.8.666 1.638.682 1.75c-.053.117-.698 1.685-.768 1.786c-.031.032-.255.096-.42.128c-.278.085-.438.133-.507.181c-.112.096-.635 1.542-.875 2.24c-.293.086-.587.25-.8.576c.112-.08.47-.133.73-.16c.23-.021.929.357 1.11 1.061v.032a1.06 1.06 0 0 1-.181.704m-1.53.198c.148-.214.132-.576.148-.694c.016-.106.048-.32.176-.357c.134-.032.443.016.443.245c0 .214-.23.267-.39.411l-.373.395zm6.5-3.13c.16-.833.176-1.553.128-2.145a5.96 5.96 0 0 1 1.14 2.95c.017.127.145.26.278.394c.112.096.246.23.246.31q.001.56-.102 1.13c-.016.048-.16.128-.277.192c-.16.085-.31.165-.341.299a6.1 6.1 0 0 1-2.15 3.157c1.515-1.59 2.25-4.208 1.078-6.288m-1.03 6.436a6.3 6.3 0 0 0 2.235-3.258c.016-.054.16-.134.261-.198c.16-.08.32-.181.357-.309q.098-.577.096-1.162c0-.15-.143-.294-.293-.443c-.08-.096-.213-.213-.213-.293a6.4 6.4 0 0 0-1.333-3.259c-.326-1.962-1.627-2.57-1.659-2.586c.032.053.875 1.28.293 2.72c-.602 1.455-2.154 1.226-2.282 1.242c-.128 0-.64.656-1.27 1.867a1.8 1.8 0 0 0-.815-.054q.36-1.06.816-2.08c.032-.026.277-.095.437-.144c.31-.08.459-.133.507-.197c.032-.048.197-.427.357-.816c.15 0 .523-.032.555-.053c.032-.032.341-.832.341-.928c0-.085-.635-1.67-.88-2.277q.175-.2.341-.475a6.703 6.703 0 1 1 2.15 12.703"/><path fill="#1B314F" d="M10.212 10.051c.31-.357.15-1.03-.426-1.147c.15-.34.362-1.029.362-1.029s-1.663 2.619-1.813 2.667c-.144.053-.288-.523-.288-.523c-.309 1.194.523 1.36.619.981a4.1 4.1 0 0 0 1.546-.949"/><path fill="#FFD923" d="m8.794 10.691l.853-1.456s.48.246.24.64a3.2 3.2 0 0 1-1.093.816"/><path fill="#D82122" d="M19.267 17.437c-.245.32-.523.666-.848.997c2.101-4.058.096-7.775.016-7.925c.15.15.293.315.427.46a5.2 5.2 0 0 1 .405 6.468m1.952-5.226a9.82 9.82 0 0 0-4.07-5.184a8.26 8.26 0 0 0-4.724-1.344h-.032c.085-.032.16-.053.245-.064a10 10 0 0 1 1.808-.378c1.728-.246 3.466.341 4.656 1.6l.037.037a7.73 7.73 0 0 1 2.08 5.333m-4.592-8.1c-2.426-.46-3.989-.23-5.114.197a5 5 0 0 0-.24-.608c-.346.41-.704.906-.933 1.215c-.619.427-.875.832-.875.832a3.4 3.4 0 0 1 2.667-2.373a6.7 6.7 0 0 1 1.173-.096a7.6 7.6 0 0 1 3.322.832M7.652 7.25C5.748 7.186 6.383 4.957 6.42 4.83c0 .015.128 1.754 1.238 2.42zM9.53 3.246c-1.466.88-1.173 2.992-1.173 2.992C6.954 4.094 9.412 3.294 9.53 3.246"/><path fill="#fff" d="M7.12 7.844c.095.08.191.229.08.442c-.065.112-.16.096-.31.032a39 39 0 0 1-2.427-1.493q1.326.456 2.624.987z"/></g></svg>