<svg xmlns="http://www.w3.org/2000/svg" xmlns:xlink="http://www.w3.org/1999/xlink" width="24" height="24" viewBox="0 0 24 24"><g fill="none"><path fill="url(#tokenBranded3ull0)" d="M22 3.765H2l10 16.47z"/><path fill="#fff" d="M11.195 8.606c-.394-.812-1.741-.812-3.312-1.223c-1.253-.324-1.047-1.765-.782-2.442c-1.259.324-1.57 1.083-1.57 1.765c0 2.441 2.84 2.718 3.235 3.118c.311.33.129.682 0 .823c-.312.97.817 1.67 1.47 1.942v1.764c0 .412.665 1.177 1.765 1.177s1.765-.765 1.765-1.177V12.59c0-.412 1.864-1.13 1.47-1.942c-.312-.658-.13-.823 0-.823c1.57-.4 3.235-2.235 3.235-3.118c0-.882-.294-1.47-1.47-1.765c.294.295.453 1.795-.488 2.442c-1.177.817-3.312.411-3.706 1.223c-.312.647-.13 1.9 0 2.441l1.353-.405c0 .817-.553 1.223-.941 1.223c-.395 0-.924.612-.924 1.018c0 .411 0 1.176-.294 1.176s-.294-.906-.294-1.176c0-.412-.294-1.018-.918-1.018c-.63 0-.812-.818-.812-1.223l1.218.411c.259-.547.312-1.794 0-2.447"/><defs><linearGradient id="tokenBranded3ull0" x1="20.8" x2="7.7" y1="3.765" y2="15.435" gradientUnits="userSpaceOnUse"><stop stop-color="#15493C"/><stop offset="1" stop-color="#069A35"/></linearGradient></defs></g></svg>