<svg xmlns="http://www.w3.org/2000/svg" xmlns:xlink="http://www.w3.org/1999/xlink" width="24" height="24" viewBox="0 0 24 24"><g fill="none"><path fill="url(#tokenBrandedAbt0)" fill-rule="evenodd" d="m12 2l8.888 5v10L12 22l-8.888-5V7zm8.055 5.156l-7.777-4.374v8.75zm.277.47L12.557 12l7.777 4.375zm-.277 9.218l-7.777-4.375v8.75zm-8.333 4.374l-7.777-4.374l7.777-4.375zm0-9.687L3.945 7.156l7.777-4.374zM3.668 7.625L11.444 12l-7.776 4.374z" clip-rule="evenodd"/><path fill="url(#tokenBrandedAbt1)" d="m12 6.615l4.685 7.905L12 17.156l-4.684-2.635zm0 1.083l-3.925 6.625L12 16.53l3.926-2.208z"/><defs><linearGradient id="tokenBrandedAbt0" x1="3.112" x2="20.888" y1="12" y2="12" gradientUnits="userSpaceOnUse"><stop stop-color="#06EFA0"/><stop offset="1" stop-color="#01FAFC"/></linearGradient><linearGradient id="tokenBrandedAbt1" x1="3.112" x2="20.888" y1="12" y2="12" gradientUnits="userSpaceOnUse"><stop stop-color="#06EFA0"/><stop offset="1" stop-color="#01FAFC"/></linearGradient></defs></g></svg>