<svg xmlns="http://www.w3.org/2000/svg" xmlns:xlink="http://www.w3.org/1999/xlink" width="24" height="24" viewBox="0 0 24 24"><g fill="none"><path fill="url(#tokenBrandedAimbot0)" d="M7.5 11.825L11.98 14l4.52-2l-4.52-2"/><path fill="url(#tokenBrandedAimbot1)" d="M7.5 11.825L11.98 14v-4z"/><path fill="url(#tokenBrandedAimbot2)" d="M19.535 7H4.465L2 9.835v4.33L4.465 17h15.07L22 14.165v-4.33zm.125 6.7s-.81 1.3-1.23 1.3H5.57c-.42 0-1.23-1.3-1.23-1.3s-.085-.865-.085-1.69s.085-1.69.085-1.69L5.57 9h12.86l1.23 1.32s.085.865.085 1.69s-.085 1.69-.085 1.69"/><defs><linearGradient id="tokenBrandedAimbot0" x1="1193.13" x2="1024.51" y1="421.562" y2="705.267" gradientUnits="userSpaceOnUse"><stop stop-color="#fff"/><stop offset="1" stop-color="#8F9196"/></linearGradient><linearGradient id="tokenBrandedAimbot1" x1="6619.99" x2="9128.3" y1="676.598" y2="8560.59" gradientUnits="userSpaceOnUse"><stop stop-color="#fff"/></linearGradient><linearGradient id="tokenBrandedAimbot2" x1="40169.3" x2="40169.3" y1="676.198" y2="41992.1" gradientUnits="userSpaceOnUse"><stop stop-color="#fff"/></linearGradient></defs></g></svg>