<svg xmlns="http://www.w3.org/2000/svg" xmlns:xlink="http://www.w3.org/1999/xlink" width="24" height="24" viewBox="0 0 24 24"><g fill="none"><path fill="#141414" d="M7.407 4.55A28 28 0 0 1 9.27 2.817l1.962.875l5.22 2.46l.21 2.669v.918l.174-.15l.426-.244l.211.113l.108 1.06c-.038.119-.119.378-.162.437c-.054.065-.346.973-.486 1.416h-.27l-.53 2.14l-.68 1.227v1.335l.972 1.648l1.518 1.091c-.54-.194-1.659-.578-1.761-.578c-.108 0-.325.524-.416.79l.918.577l-1.389-.394v-1.092l-.513.703l-.286 1.248v-.854l-.584-.497l-1.135.497l.54 1.789l-1.064-1.783h-.162l-1.06.102l-1.026-.502l-.61.675l-.59 1.081c.108-.4.303-1.21.281-1.254c-.016-.048-.54-.821-.794-1.2l-.39.595l-1.166 1.448l.87-1.783l-.422-.34l.422-.54l.53-1.525l.07-1.286l-.503-1.362l-.314-2.29l-.567-3.313v-2.4l.59-1.772z"/><path fill="#777" d="M10.103 15.294c-.162-.12-.486-.368-.497-.4l.61-.135l1.746.086v.39h1.61l-.054.27l-1.524.205v.551l-1.642-.4h-.99l.617-.216l.189-.108l1.75.221v-.524l-1.042-.102z"/><path fill="#383838" d="m16.842 6.928l-.324-1.442c-.352.162-1.07.502-1.157.583c-.108.097-.13 1.26-.065 1.546c.065.291.611.735.698.778s.302.41.335.54c.027.103.232.184.324.216l.189-.886z"/><path fill="#323031" d="m10.222 10.884l-.967.222l.54.405l-.124.503l.61-.32c.098-.156.298-.475.303-.502c0-.022-.237-.216-.362-.308"/><path fill="#2D2D2D" d="M7.445 9.75c.016-.06-.07-.471-.12-.67h-.237l-.06 1.507l.282 1.254l.297 2.29l.551 1.211l1.789 2.356l1.907.806c.244.005.757.016.843 0c.108-.022 2.14-.714 2.232-.779c.076-.048.357-.475.486-.686l.103-1.275l.676-1.173l.21-1.113l.308-1.232l-.448 1.35l-.2.903l-1.049 1.405l-.88.416l-1.216.044h-.995l-.453.162v.41l.605.109c.07 0 .032.135 0 .205l1.562.135l-1.206.54h-.508l-.94-.297l-.524-.162l-.686-.875l-.497-.411l-.368-.838l.238-1.243l.292-1.102l-.8-.34h-.681l-.13-1.022l-.291-.335l-.092-.465l-.244-.416z"/><path fill="#B4B4B4" d="m14.102 11.506l.173-.703l.675-.07c.514 0 1.535.005 1.502.065c-.032.059-.237.864-.335 1.264l-.945-.47l-.438.546v.837l.119 1.011q-.073.357-.243.68c-.044 0-.357.18-.508.266l-.919-.27l-1.33.08l-.237-.41l.908-.746h.405l.449.292l-.2-.903l-.465-.383l-.74.383v.66h-.59l.4-.19l-.335-.145l-.459.286l-.41-.486l.864-.508l.065-2.351l.405-.205z"/><path fill="#DADADA" d="M15.112 10.57c-.291.082-.88.233-.897.244l.433.038l.864.232l.038.789l.432-.61l.444-.18l.021-.54l-.465-.07l-.594-.086z"/><path fill="#535353" d="M9.568 5.599c.054-.07.19-.205.303-.238l5.015-.767l1.562.513l.297 1.313l-.297.2l-.4-.67l.054.67l.065 1.276h-.357v.362h-2.178l-1.8.513l-2.08-.513v-.935l.605-.497l-.783-1.227z"/><path fill="#A0A0A0" d="m8.547 3.535l.767-.784l2.784.33l.896 4.485l-1.242 1.33V4.88l-1.373 1.924l-.481-1.346l-.27-.637l-.492.335l-.448-.681h-.649z"/><path fill="#F8F9F4" d="M10.14 3.405a18 18 0 0 0-.82-.665l.989-.454L11.827 2l1.497.286l1.48.703l1.06 1.064l.416.66l.162.351l.049.654l-.211-.054l-.216.313l-.26-.918l-.292.918l-.416-1.016h-.616l.487 1.303l-.103.351l.843.627l-.405.627l.502.55l-.232.25l-1.092-.163l-.918-.21l-.52-.73l-1.269-.756V3.242l-1.567 1.07z"/><path fill="#949494" d="m6.79 9.97l.184.422v.584l-.113-.178v-.276l-.163-.313l-.221-.238H6.26l-.06.238l.162.962l.292.864c.043.195.135.595.135.632c0 .043.195.114.292.146l.292-.086v.265h-.4l-.324-.325l-.097-.47l-.292-.956l-.12-.508l-.086-.87l.146-.379l.595.487z"/><path fill="#B3B3B3" d="m9.087 10.241l-.378-.178l-.108.178l.27.249h.573l.389.124l-.124-.27z"/><path fill="#A8A8A8" d="m10.249 8.89l-.594.243l.875.4l.708.449l.162-.314l-.162-.27z"/><path fill="#F8F9F4" d="M11.865 12.71V9.642h.389l.19.649l.448.15l1.043.86l.594.838l-.48-.173l-.995.438l.243-.687h-.34l-.514.249v.535z"/><path fill="#F3F3F3" d="M12.854 13.58c-.298.163-.898.487-.925.52l.476.632l1.221.065l1.21-.698l-.767-.156l-.443-.552q.38-.09.74-.237c.082-.054-.459.021-.74.07l-.389-.205z"/><path fill="#D7D7D7" d="m10.12 15.218l.118-.465l.233.368l.237-.368l.303.27c.07-.064.205-.21.227-.27c.022-.054.308.222.443.368h-.627z"/><path fill="#F9F9F9" d="M12.405 15.677c-.08-.108-.254-.335-.27-.372h1.135v.243z"/><path fill="#F1F1F1" d="m16.799 10.128l-.195-.379l.622-.46l.21.163l-.216.184l-.421.486zm-.233 1.383l.362-.384l.076.486l-.367.228z"/><path fill="#919191" d="m17.215 11.16l.297-.503c0 .378-.2.892-.297 1.097c-.092.227-.27.73-.27.919c0 .184-.217.054-.32-.038l-.032-.513l.308.189l.152-.487c-.076.054-.238.162-.255.19c-.021.021-.145-.011-.205-.033v-.157l.351-.135l.141-.065z"/><path fill="#6B6B6B" d="m15.675 17.299l-.2-1.06l-.146 1.243l.2.514l.248.556l.649.146l-.757-1.4z"/><path fill="#505050" d="M8.012 17.174c0-.07.119-1.032.178-1.508l.065 1.514l-.065.95l-.967.73c.108-.162.335-.486.373-.53c.043-.053.416-1.064.416-1.156"/><path fill="#5A5859" d="m9.265 17.596l-.962-1.74l1.168 1.108c.518.302 1.567.907 1.62.945c.055.033.552.433.795.632v.908l-.643-.102c-.292-.125-.918-.39-1.027-.454a10 10 0 0 1-.95-1.297"/><path fill="#A5A5A5" d="M6.774 6.393L7.4 4.578L6.947 6.16l-.065.848h.27l-.157.395l.163.74l.243.973l-.243.616v1.189l.243.978l.157 1.027l.232 1.448l.232.74l1.173.978l.53.973l.697.395l.497-.125l.578.357h.378v.843l-.556-.178l-.72-.379l-.875-.648l-1.702-1.789l-.465-1.167c-.07-.508-.205-1.546-.232-1.627a47 47 0 0 1-.324-1.567v-.74l-.227-2.108V6.388z"/><path fill="#6E6C6D" d="m13.637 16.91l-.184-.709h.384l.465-.588l.238.718l-.411.314l-.486.264z"/><path fill="#FAFAFA" d="m11.968 17.034l-.07-.703l.983-.14l.324-.108l.222-.184l.34.292l-.227.216l-.243.443l-.184.086l-.291-.037z"/><path fill="#1C1C1C" d="m7.952 9.284l.325.6l.437.092l.308.12c.033.01.427.053.622.07l-.206-.53h.508c.055 0 .633.265.92.394l-.239-.475l-1.08-.622l-.833-.27l-.756.621z"/><path fill="#AFAFAF" d="m8.401 10.046l-.303-.583l.79.07l.41-.07l.395.113l-.665.179z"/><path fill="#3D3D3D" d="m13.783 9.263l-.405.519l.978-.098l.773.038l-.714-.362l-.627-.097z"/><path fill="#999" d="m14.929 10.106l-.93.113c.173.038.557.12.703.125c.189.005.438-.125.524-.125c.07 0 .248-.075.324-.119l-.27-.156c-.108.054-.324.162-.351.162"/></g></svg>