<svg xmlns="http://www.w3.org/2000/svg" xmlns:xlink="http://www.w3.org/1999/xlink" width="24" height="24" viewBox="0 0 24 24"><g fill="none" fill-rule="evenodd" clip-rule="evenodd"><path fill="#32C67F" d="M16.684 21.191a10.02 10.02 0 0 0 5.315-8.856c0-5.535-4.477-10.022-10-10.022S2 6.8 2 12.335c0 4.068 2.419 7.57 5.894 9.14l.25-.415l.123-.144a9.38 9.38 0 0 1-5.642-8.601c0-5.178 4.198-9.375 9.376-9.375s9.375 4.197 9.375 9.375a9.37 9.37 0 0 1-4.944 8.263l.227.482zm-.506-1.15c2.748-1.458 4.573-4.334 4.573-7.726c0-4.916-3.834-8.75-8.75-8.75S3.25 7.399 3.25 12.315c0 4.612 3.375 8.272 7.853 8.706l1.095-.043l1.234-.245l2.365-.829l.256-.128zm-5.66-.452l1.39.745l.306-.191l.448.114l1.325-.936l1.2-1.232v-3.65l-.161-1.012l.076-.86l-.076-1.194l-.086-1.7v-.25l.515-1.07l.429-.974l.18-1.203l-.266-.363l-.753.363l-1.182 1.308l-.372.535l-.629-.22h-1.23l-1.02.22l-.943-1.232l-.858-.764l-.572-.105l-.305.487l.2 1.08l.953 1.843l.23.23l-.325 1.156l-.067 2.13l.162.917l-.162.88v.85L8.85 16.79l-.133.974l.133.583z"/><path fill="#32C67F" d="m18.249 18.562l1.875-.937l1.204-2.231l.333-1.876v-.434l-1.387.586l-.978 3.198zM8.112 19.838l.16.876l.938.334l2.116.094l-1.087-.809z"/><path fill="#000" d="M13.35 7.787c-.47-.209-1.01-.247-1.497-.212a5.2 5.2 0 0 0-1.241.247c-.325-.484-.798-1.11-1.255-1.55c-.246-.235-.503-.431-.739-.51a.6.6 0 0 0-.368-.017a.52.52 0 0 0-.294.252c-.138.242-.151.552-.103.872c.048.324.163.68.309 1.032c.266.642.642 1.289.935 1.73c-.35.84-.37 1.623-.307 2.016c.061.38.035.653.015.872a3 3 0 0 0-.017.251c0 .126.03.275.057.403l.006.027c.027.127.05.238.056.329c.006.087-.02.29-.063.525c-.042.228-.096.46-.137.593c-.058.186-.031.384 0 .547l.033.154c.024.107.044.198.048.285a2 2 0 0 1-.025.282c-.018.13-.044.279-.07.43l-.015.082c-.022.123-.044.245-.06.351a2 2 0 0 0-.037.326v.853c-.25.12-.426.263-.538.424a.77.77 0 0 0-.137.552c.02.157.084.304.166.433c-.134.213-.252.513-.225.822a.92.92 0 0 0 .275.585l-.3.738c-.028.069.026.087.092.11a1 1 0 0 1 .102.042c.055.027.09.044.118-.024l.267-.658q.129.07.289.128c.54.19 1.198.253 1.793.257a9.4 9.4 0 0 0 1.47-.102l.037-.01a.85.85 0 0 0 .356.071c.245 0 .415-.094.515-.241q.017 0 .033-.003a13.3 13.3 0 0 0 2.244-.58c.309-.113.606-.242.862-.386l.508 1.13c.045.124.113.09.186.053q.016-.009.033-.016l.02-.01c.075-.033.127-.055.067-.167l-.525-1.17c.22-.156.403-.337.5-.547c.243-.077.548-.181.834-.294c.186-.074.368-.152.52-.23c.147-.076.288-.16.375-.252q.059-.063.325-.212c.17-.092.382-.196.61-.3c.222-.101.44-.228.644-.345a5 5 0 0 1 .584-.306l.113-.268c-.11.043-.263.097-.434.157c-.34.12-.756.267-1.065.409a10 10 0 0 0-.635.312c-.173.094-.333.193-.42.284a1.1 1.1 0 0 1-.27.175c-.138.07-.307.143-.487.214c-.238.094-.49.182-.706.252a1.08 1.08 0 0 0-.567-.617c.045-.178.06-.416-.093-.598c-.141-.167-.343-.223-.513-.237a1 1 0 0 0-.182 0a68 68 0 0 0-.051-1.21a17 17 0 0 1 1.28-.878c.554-.342 1.12-.641 1.537-.766c.9-.27 2.896-1.139 3.786-1.542l.026-.43c-.897.406-3.05 1.34-3.922 1.6c-.469.14-1.07.463-1.627.808c-.404.25-.793.515-1.105.744l-.01-.165c.026-.215.055-.536.064-.824a4 4 0 0 0-.007-.41a1 1 0 0 0-.027-.168a.4.4 0 0 0-.082-.166v.002l-.016-.035a1 1 0 0 1-.035-.114a2.7 2.7 0 0 1-.06-.705a.7.7 0 0 1 .034-.21c.073-.162.096-.382.093-.564a1.6 1.6 0 0 0-.025-.269a.7.7 0 0 0-.062-.189l.002-.062q.003-.068.01-.165l.009-.143a7 7 0 0 0-.001-1a4.4 4.4 0 0 0-.204-1.04c.133-.172.278-.444.417-.753c.164-.365.326-.8.453-1.223s.222-.842.247-1.174c.013-.165.01-.318-.021-.444c-.03-.123-.096-.25-.23-.303a.46.46 0 0 0-.306.004a1.3 1.3 0 0 0-.312.153c-.215.136-.457.34-.7.569c-.446.42-.908.94-1.228 1.327M9.157 6.484c.435.416.893 1.021 1.21 1.495a.2.2 0 0 0 0 .14c.037.1.148.151.248.113a4.7 4.7 0 0 1 1.264-.27c.519-.037 1.053.02 1.467.257c.093.054.21.021.263-.072a.2.2 0 0 0-.01-.208c.313-.377.753-.87 1.174-1.267c.238-.224.465-.413.656-.535q.145-.09.244-.121c.067-.021.101-.016.115-.01c.008.002.035.018.056.101q.03.123.013.352c-.023.302-.11.697-.235 1.111a10 10 0 0 1-.44 1.188c-.1.221-.196.409-.282.548a3 3 0 0 0-.181-.338c.154-.312.352-.74.501-1.123c.084-.215.153-.42.19-.584q.03-.124.031-.223c0-.06-.009-.133-.058-.185c-.058-.06-.135-.056-.192-.037a.6.6 0 0 0-.167.1a3 3 0 0 0-.378.39a12 12 0 0 0-.72.968a.195.195 0 0 0-.039.326c.68.554.903 1.375.961 2.103l.008.128l-1.417.38a.146.146 0 0 0 .074.28l.085-.022c.098.218.317.53.644.53c.285 0 .49-.16.603-.299l-.005.08q-.008.107-.01.182q-.004.061-.001.115q0 .026.007.06a.24.24 0 0 0 .041.093q-.001-.003 0 0q.005.01.02.073c.01.055.016.125.018.202c.002.16-.02.312-.059.396a1 1 0 0 0-.068.35a3 3 0 0 0 .07.82q.022.09.053.17a.5.5 0 0 0 .079.136l.003.011a1 1 0 0 1 .016.107c.009.095.01.222.006.362a10 10 0 0 1-.064.807l-.002.017l.001.018c.022.368.053.932.072 1.426c.01.247.017.475.02.651a6 6 0 0 1-.004.287v.004l-.044.051q-.068.079-.198.202c-.17.164-.403.375-.662.602c-.485.426-1.054.906-1.46 1.243a.65.65 0 0 0-.393-.114a.64.64 0 0 0-.49.225a21 21 0 0 1-1.69-.99a8 8 0 0 1-.82-.612a2.3 2.3 0 0 1-.26-.265a.7.7 0 0 1-.105-.167v-1.139c0-.047.012-.14.033-.27c.016-.104.037-.222.059-.344l.015-.084c.027-.151.054-.306.073-.442c.018-.13.032-.258.027-.348c-.006-.117-.035-.25-.061-.37l-.025-.117c-.03-.158-.04-.281-.01-.38a6 6 0 0 0 .148-.632c.042-.228.076-.473.067-.61a3 3 0 0 0-.061-.37l-.007-.033a2 2 0 0 1-.05-.333q0-.059.012-.166a4 4 0 0 0 .015-.765a.87.87 0 0 0 .62.274c.338 0 .625-.313.766-.527l.043.013a.146.146 0 0 0 .083-.279l-1.542-.467c.037-.32.122-.697.285-1.089a.14.14 0 0 0 .033-.078a4 4 0 0 1 .736-1.118a.17.17 0 0 0-.008-.24a.17.17 0 0 0-.162-.04a7 7 0 0 0-.576-.9a2.4 2.4 0 0 0-.375-.401c-.119-.095-.26-.169-.398-.132a.22.22 0 0 0-.154.162a.6.6 0 0 0-.005.235c.025.17.097.387.19.616c.178.435.442.936.642 1.286a4 4 0 0 0-.09.167c-.268-.42-.583-.98-.812-1.532a4.3 4.3 0 0 1-.29-.963c-.044-.294-.022-.526.068-.684c.043-.075.088-.106.13-.12a.3.3 0 0 1 .19.015c.174.059.392.217.632.447m4.802 4.888l.2-.053a.158.158 0 0 1-.07.298a.157.157 0 0 1-.13-.245m-4.503.088c0-.084.065-.152.147-.157l.103.031a.157.157 0 0 1-.094.283a.157.157 0 0 1-.156-.157m4.682-3.155q.268.222.456.48c.144-.297.315-.672.447-1.011c.082-.212.148-.406.182-.557a1 1 0 0 0 .026-.18l-.002-.035a.4.4 0 0 0-.103.066a3 3 0 0 0-.351.364c-.227.268-.472.607-.655.873m1.288 9.702l.001-.135a1 1 0 0 1 .15-.002c.125.01.223.05.282.12c.046.053.06.15.023.295a1.3 1.3 0 0 1-.163.36a.17.17 0 0 0 .045.236a.167.167 0 0 0 .233-.046q.043-.061.089-.15c.3.152.39.414.404.542q-.096.235-.479.486c-.265.173-.61.33-.989.469c-.7.257-1.49.442-2.052.542l.002-.051a.5.5 0 0 0-.048-.213c.408-.338.977-.818 1.463-1.245c.26-.229.499-.444.675-.614q.133-.129.219-.223q.041-.047.072-.09a.3.3 0 0 0 .058-.118a1 1 0 0 0 .014-.164M8.707 7.042c.042-.012.116.007.229.096c.106.084.223.214.342.368c.223.29.44.65.578.91a4.4 4.4 0 0 0-.412.547a11 11 0 0 1-.577-1.17a2.7 2.7 0 0 1-.179-.57a.4.4 0 0 1 0-.154c.006-.024.014-.026.019-.027m-.525 13.115a.97.97 0 0 1 .118-.511q.06.057.115.103c.072.06.178.048.237-.025a.17.17 0 0 0-.025-.239c-.178-.145-.358-.375-.387-.597a.43.43 0 0 1 .079-.313a.9.9 0 0 1 .274-.241c.032.1.094.197.167.289c.08.099.183.202.3.305c.233.207.534.426.857.64c.58.384 1.242.758 1.726 1.012q-.018.07-.026.125l-.003.024l.002.024a.6.6 0 0 0 .062.206a10 10 0 0 1-1.192.067c-.58-.005-1.197-.067-1.685-.239a1.4 1.4 0 0 1-.317-.154a.17.17 0 0 0-.117-.095l-.043-.045a.58.58 0 0 1-.142-.336m4.115.28a.28.28 0 0 1 .214.092a.3.3 0 0 1 .075.123l.001.004v.003l.001.003v.002a.4.4 0 0 1-.04.192c-.018.031-.06.08-.202.08c-.155 0-.236-.05-.28-.092a.24.24 0 0 1-.063-.109a.5.5 0 0 1 .072-.196c.035-.048.093-.096.222-.101m.25-8.858c.143-.017.27.048.403.155c.143.114.159.31.144.469c-.013.133-.05.266-.088.368c.116.096.255.226.34.377c.05.09.085.193.082.304a.55.55 0 0 1-.243.427a1 1 0 0 1-.23.423a.89.89 0 0 1-.694.278a.914.914 0 0 1-.908-.714a.6.6 0 0 1-.201-.14a.4.4 0 0 1-.12-.3a.6.6 0 0 1 .089-.29c.082-.142.208-.27.316-.36a1.1 1.1 0 0 1-.11-.348c-.022-.168.007-.363.176-.495a.52.52 0 0 1 .466-.098a.7.7 0 0 1 .24.121c.114-.098.222-.164.338-.177m.268 2.39a.8.8 0 0 0 .143-.22a.8.8 0 0 1-.236-.02a1.06 1.06 0 0 1-.507-.284a.87.87 0 0 1-.46.255a.7.7 0 0 1-.187.015c.076.2.277.463.697.471a.7.7 0 0 0 .55-.217m-.05-.429a.5.5 0 0 0 .269-.003a.1.1 0 0 1 .055-.027a.35.35 0 0 0 .146-.264a.4.4 0 0 0-.056-.202c-.08-.14-.224-.267-.349-.366l-.058-.047l.03-.068c.04-.092.087-.239.1-.38c.014-.146-.011-.249-.072-.297c-.12-.098-.196-.123-.26-.115c-.072.009-.159.059-.296.186l-.07.064l-.065-.068a.5.5 0 0 0-.22-.13a.33.33 0 0 0-.298.063c-.094.073-.12.185-.104.317a1 1 0 0 0 .127.348l.047.076l-.073.053a1.3 1.3 0 0 0-.33.354a.4.4 0 0 0-.064.195a.22.22 0 0 0 .066.161c.12.125.275.151.427.12a.67.67 0 0 0 .364-.205a.18.18 0 0 1 .126-.061a.17.17 0 0 1 .135.053a.86.86 0 0 0 .423.243m-.796-1.257c.052.08.06.168.018.195c-.042.028-.117-.015-.17-.096c-.051-.08-.06-.168-.018-.195c.042-.028.118.015.17.096m.42.17c-.041-.028-.033-.115.019-.196c.051-.08.127-.123.17-.096c.041.028.033.115-.019.196c-.052.08-.128.123-.17.096"/></g></svg>