<svg xmlns="http://www.w3.org/2000/svg" xmlns:xlink="http://www.w3.org/1999/xlink" width="24" height="24" viewBox="0 0 24 24"><g fill="none"><path fill="url(#tokenBrandedAqtis0)" fill-rule="evenodd" d="M12.147 3.176L22 20.824H2zm-.63 2.23l4.248 5.406l-3.624-6.488zm3.06 4.806l-3.36-4.277l-.329.57l3.682 3.707zm-3.983-3.2l-.076.135l1.588 1.382zm3.353 3.865L10.235 7.64l-.282.506l4 2.73zm-5.341-.4l-5.63 9.788h2.706zm-2.33 9.788h1.642l1.006-8.883zm3.118-7.994l.188 6.94l-1.058.742zm2.159 7.994h9.488l-.812-1.447zm8.388-1.97l-.823-1.483l-8.047 2.958zm-8.335.681l7.235-2.658l-.559-1zm6.406-4.147l-.335-.6l-5.148 3.6zm-7.87 3.994l.729-.505l-.895-5.706zm-.189-9.988l1.435 9.118l5.883-4.118z" clip-rule="evenodd"/><defs><linearGradient id="tokenBrandedAqtis0" x1="12" x2="12" y1="3.176" y2="20.823" gradientUnits="userSpaceOnUse"><stop stop-color="#BDDC78"/><stop offset="1" stop-color="#5AD9E6"/></linearGradient></defs></g></svg>