<svg xmlns="http://www.w3.org/2000/svg" xmlns:xlink="http://www.w3.org/1999/xlink" width="24" height="24" viewBox="0 0 24 24"><g fill="#222326"><path d="M12 3.571a8.43 8.43 0 1 0 0 16.859a8.43 8.43 0 0 0 0-16.86M2 12C2 6.477 6.477 2 12 2s10 4.477 10 10s-4.477 10-10 10S2 17.523 2 12"/><path d="M13.409 15.01a1.7 1.7 0 0 1-.114-.309a4 4 0 0 1-.08-.369a2.4 2.4 0 0 1-.806.577a2.6 2.6 0 0 1-.537.168q-.315.07-.638.068a3.2 3.2 0 0 1-1.027-.162a2.4 2.4 0 0 1-.798-.45a2.1 2.1 0 0 1-.524-.684a2 2 0 0 1-.188-.873q0-1.147.853-1.772c.573-.42 1.425-.655 2.557-.655h.819v-.405c0-.63-.478-1.135-1.107-1.135c-.38 0-.659.132-.833.298q-.261.241-.262.65H8.86q0-.462.2-.879c.14-.278.339-.57.598-.78a3 3 0 0 1 .96-.497q.57-.188 1.302-.188q.658 0 1.221.162q.571.16.988.476q.416.316.65.798q.236.477.236 1.109v3.113q0 .585.074.967q.073.382.214.658v.114zm-1.044-1.55a1.44 1.44 0 0 0 .558-.524v-1.205h-.729c-.555 0-1.283.06-1.537.641c-.16.356-.124.804.168 1.081c.437.403 1.08.26 1.54.006"/></g></svg>