<svg xmlns="http://www.w3.org/2000/svg" xmlns:xlink="http://www.w3.org/1999/xlink" width="24" height="24" viewBox="0 0 24 24"><g fill="none"><path fill="url(#tokenBrandedAta0)" d="M17.01 4.479A6.917 6.917 0 0 0 5.954 5.853l-3.055 5.423c-.157.268-.288.55-.4.825l.012.025c.306 1.293 1.187 4.31 4.955 4.766c.206.025.393.038.574.038a1.73 1.73 0 0 1-1.493-2.587l4.223-7.36c.144-.249.463-.561.675-.705c1.043-1.125 2.836-2.243 5.567-1.8"/><path fill="url(#tokenBrandedAta1)" d="M17.01 4.479c.381.4.756.856 1.05 1.374l3.061 5.423c2.118 3.76.188 8.384-3.436 9.915l-.868.243c2.592-2.768 1.986-5.785 1.262-7.047a2 2 0 0 0-.1-.206l-4.205-7.24a1.743 1.743 0 0 0-2.355-.638a5.57 5.57 0 0 1 5.591-1.824"/><path fill="url(#tokenBrandedAta2)" d="M16.848 21.415c2.593-2.767 2.024-5.635 1.306-6.903c.468 1.112-.419 2.174-1.674 2.174H7.62c-3.766-.462-4.772-3.161-5.085-4.454l-.025-.138c-1.818 4.436 1.431 9.59 6.429 9.59h5.922c.794 0 1.406-.144 1.981-.269z"/><defs><linearGradient id="tokenBrandedAta0" x1="14.639" x2="3.461" y1="3.054" y2="19.291" gradientUnits="userSpaceOnUse"><stop stop-color="#FCCA02"/><stop offset="1" stop-color="#AB1414"/></linearGradient><linearGradient id="tokenBrandedAta1" x1="6.582" x2="13.844" y1="2.322" y2="22.65" gradientUnits="userSpaceOnUse"><stop offset=".05" stop-color="#AA1215"/><stop offset=".93" stop-color="#FDCB02"/></linearGradient><linearGradient id="tokenBrandedAta2" x1="1.998" x2="18.348" y1="18.173" y2="18.173" gradientUnits="userSpaceOnUse"><stop offset=".16" stop-color="#FCCA02"/><stop offset="1" stop-color="#AB1414"/></linearGradient></defs></g></svg>