<svg xmlns="http://www.w3.org/2000/svg" xmlns:xlink="http://www.w3.org/1999/xlink" width="24" height="24" viewBox="0 0 24 24"><g fill="none"><path fill="url(#tokenBrandedAxs0)" d="M2.753 5.898c.682-.876 5.782 1.912 8.377 4.324a.29.29 0 0 1-.018.436l-.823.688a.295.295 0 0 1-.36.012L8.236 10.14l-2.023 2.153c-.2.206-.56.641-.806.465a1.12 1.12 0 0 1-.306-1.265c.318-.735 2.006-2.277 2.006-2.277c-.847-.676-2.589-1.311-2.894.842c-.2 1.4-.153 7.147 2.294 5.765C8.86 14.488 18.243 4.093 20.12 4.998c1.877.9 2.53 10.825 1.124 12.625c-.46.588-3.518.212-8.383-3.894a.295.295 0 0 1-.018-.43l.823-.806a.295.295 0 0 1 .412-.006c1.106.965 5.136 4.06 5.571 1.983c.289-1.389.318-7.548-1.088-7.095c-.765.247-2.118 1.341-3.13 2.206c-2.194 1.883-9.942 10.395-11.742 9.395c-1.8-.994-2.236-11.413-.941-13.078z"/><path fill="url(#tokenBrandedAxs1)" d="M2.753 5.898c.682-.876 5.782 1.912 8.377 4.324a.29.29 0 0 1-.018.436l-.823.688a.295.295 0 0 1-.36.012L8.236 10.14l-2.023 2.153c-.2.206-.56.641-.806.465a1.12 1.12 0 0 1-.306-1.265c.318-.735 2.006-2.277 2.006-2.277c-.847-.676-2.589-1.311-2.894.842c-.2 1.4-.153 7.147 2.294 5.765C8.86 14.488 18.243 4.093 20.12 4.998c1.877.9 2.53 10.825 1.124 12.625c-.46.588-3.518.212-8.383-3.894a.295.295 0 0 1-.018-.43l.823-.806a.295.295 0 0 1 .412-.006c1.106.965 5.136 4.06 5.571 1.983c.289-1.389.318-7.548-1.088-7.095c-.765.247-2.118 1.341-3.13 2.206c-2.194 1.883-9.942 10.395-11.742 9.395c-1.8-.994-2.236-11.413-.941-13.078z"/><defs><linearGradient id="tokenBrandedAxs0" x1="12" x2="12" y1="4.942" y2="19.058" gradientUnits="userSpaceOnUse"><stop stop-color="#00D2F7"/><stop offset="1" stop-color="#004CDC"/></linearGradient><linearGradient id="tokenBrandedAxs1" x1="22" x2="2" y1="12" y2="12" gradientUnits="userSpaceOnUse"><stop stop-color="#8476F4"/><stop offset=".48" stop-color="#0083EC" stop-opacity="0"/><stop offset="1" stop-color="#8763EF"/></linearGradient></defs></g></svg>