<svg xmlns="http://www.w3.org/2000/svg" xmlns:xlink="http://www.w3.org/1999/xlink" width="24" height="24" viewBox="0 0 24 24"><g fill="none"><path fill="#fff" d="M8.356 3.6h7.141l3.308 1.503L22 9.293L11.926 20.4L2 9.293l3.133-4.189zm.112.503L5.874 5.314l2.599 1.308h6.912l2.67-1.308l-2.667-1.21zm10.1 1.52l-2.826 1.385l1.178 4.176l4.362-2.003zm2.091 4.398l-3.723 1.71l-3.658 6.43zm-8.733 9.496l4.56-8.013l-1.234-4.378H8.6l-1.288 4.378zM6.882 11.18l1.23-4.176l-2.74-1.38L2.71 9.185zm-3.531-1.13l7.148 7.998l-3.637-6.317z"/><path fill="#FDC337" d="M14.201 9.742c-.077-.785-.9-1.042-1.755-1.112v-1h-.503v1.007h-.504V7.63h-.504v1l-1.511.014v1.001s.63-.014.616 0c.271 0 .364.146.391.285v2.535c-.004.136-.108.202-.238.202h-.77l-.002 1.008h1.514v1.007h.504v-1.007h.504v1.007h.503v-1.007c1.112-.07 2.068-.403 2.158-1.453c.07-.84-.326-1.215-.959-1.368c.382-.202.626-.542.556-1.119zm-.91 2.279c.007.764-1.4.646-1.852.646V11.39c.451 0 1.845-.223 1.852.632m-.432-1.951c0 .832-1.42.582-1.42.582V9.645c.368 0 1.42-.09 1.42.425"/></g></svg>