<svg xmlns="http://www.w3.org/2000/svg" xmlns:xlink="http://www.w3.org/1999/xlink" width="24" height="24" viewBox="0 0 24 24"><g fill="none"><path fill="url(#tokenBrandedBcdt0)" d="M4.632 6.19v8.315l4.21 2.453v4.863c0 .137.216.22.337.158L12 20.416l2.78 1.558a.183.183 0 0 0 .273-.159v-4.857l4.316-2.453V6.189L12 2zM7.69 7.625l-2.327-1.3L12 2.48l6.579 3.79l-2.3 1.32S13.432 5.99 12 5.17zm-2.532 6.632V6.81l2.105 1.18v4.947s3.042 1.59 4.474 2.384v4.668l-2.368 1.305v-4.61l-4.21-2.432zm13.684-7.542v7.536l-4.258 2.432v4.61l-2.347-1.3v-4.668c1.426-.8 4.5-2.384 4.5-2.384V7.916zM7.79 12.663V8.295l3.947 2.194v4.332zm8.42-4.426v4.42l-3.947 2.164v-4.332zM12 10.053L8.158 7.895l3.816-2.185l3.816 2.164z"/><defs><linearGradient id="tokenBrandedBcdt0" x1="12" x2="12" y1="2" y2="22" gradientUnits="userSpaceOnUse"><stop stop-color="#07B5F3"/><stop offset="1" stop-color="#44E6DC"/></linearGradient></defs></g></svg>