<svg xmlns="http://www.w3.org/2000/svg" xmlns:xlink="http://www.w3.org/1999/xlink" width="24" height="24" viewBox="0 0 24 24"><path fill="#58BE92" d="M17.16 6.54c-.77-1.973-2.719-2.152-4.994-1.703L11.363 2l-1.725.5l.792 2.736l-1.37.416l-.793-2.77l-1.708.5l.804 2.809l-1.096.337v-.006l-2.365.675l.522 1.831s1.264-.393 1.253-.36c.691-.202 1.034.141 1.202.472l.922 3.208l.185-.028l-.185.05l1.292 4.507c.034.224 0 .606-.478.747c.023.01-1.252.365-1.252.365l.247 2.146l2.23-.64l1.236-.343l.82 2.848l1.702-.494l-.797-2.815l1.37-.382l.804 2.81l1.725-.495l-.82-2.849c2.836-.994 4.651-2.303 4.129-5.084c-.427-2.236-1.736-2.921-3.483-2.837c.842-.803 1.207-1.865.646-3.315zm-.64 6.797c.601 2.135-3.112 2.933-4.27 3.275l-1.084-3.78c1.163-.338 4.713-1.714 5.354.505M14.194 8.22c.55 1.95-2.562 2.59-3.534 2.87l-.983-3.426c.972-.275 3.933-1.46 4.517.567z"/></svg>