<svg xmlns="http://www.w3.org/2000/svg" xmlns:xlink="http://www.w3.org/1999/xlink" width="24" height="24" viewBox="0 0 24 24"><g fill="none"><path fill="#30C7F4" d="m3.176 16.994l8.824 5v-10L3.176 7z"/><path fill="#075899" d="M20.824 17L12 22v-9.976l8.824-5.012z"/><path fill="#199BCC" d="M12.012 2L3.206 7.03l8.806 5l8.812-5z"/><path fill="#191D20" d="M6.706 3.276H8.47v4.765L12 6.053l5.294 2.988v5.97L12 18l-5.294-2.988zm8.823 6.754L12 8.03l-.988.558l.782.43l.97-.165l.983.53a.3.3 0 0 1 .053-.03c.13-.047.27 0 .312.106c.04.106-.024.235-.16.282c-.129.053-.27.006-.31-.1a.2.2 0 0 1 .005-.147l-.906-.488l-.976.159l-.9-.494l-.953.54l2.247 1.242a.3.3 0 0 1 .047-.018c.135-.035.27.024.3.135c.03.118-.059.236-.188.265c-.136.036-.271-.023-.3-.135a.2.2 0 0 1 .023-.147L9.765 9.294l-1.294.736v.793l2.488 1.43a.2.2 0 0 1 .165-.082c.117 0 .211.117.205.253c0 .135-.1.24-.217.235c-.118 0-.212-.118-.206-.247v-.024l-2.435-1.4v1.06l1.058.61a.21.21 0 0 1 .177-.093c.117 0 .212.106.212.247c0 .135-.1.247-.218.247s-.212-.112-.212-.247v-.006l-1.017-.588v.982l1.358.741l.636-.412l.659.383a.2.2 0 0 1 .17-.089c.118 0 .206.118.206.253c-.006.136-.106.247-.224.242c-.117 0-.206-.118-.206-.253v-.012l-.605-.353l-.63.412l-1.364-.753v.659l3.529 2l1.37-.777v-2.494c-.082 0-.158-.035-.194-.094c-.053-.106.012-.241.142-.312c.135-.07.288-.041.34.059c.06.106-.005.241-.14.312v2.447l1.011-.577v-.923l.612-.753v-.965c-.094.012-.182-.023-.223-.1c-.06-.1.006-.235.135-.306c.13-.064.282-.04.335.06c.053.093.006.217-.1.287v1.077l-.611.753v.794l.852-.482v-4zm-2.688-.154a.18.18 0 0 0 .012-.129c-.03-.106-.165-.17-.294-.135c-.136.035-.224.153-.194.264c.029.118.164.177.3.142a.3.3 0 0 0 .07-.03l1.483.806v1.67c-.112.071-.16.195-.106.289c.059.1.206.13.335.059c.13-.065.188-.2.135-.306c-.035-.07-.123-.106-.217-.094v-1.706l-1.524-.824z"/></g></svg>