<svg xmlns="http://www.w3.org/2000/svg" xmlns:xlink="http://www.w3.org/1999/xlink" width="24" height="24" viewBox="0 0 24 24"><path fill="red" fill-rule="evenodd" d="M21.7 6.607c.4.4.4 1.046 0 1.44l-3.233 3.233c-.4.4-.4 1.04 0 1.44l3.233 3.233c.4.4.4 1.04 0 1.44L17.393 21.7c-.4.4-1.046.4-1.44 0l-3.233-3.233c-.4-.4-1.04-.4-1.44 0L8.047 21.7c-.4.4-1.04.4-1.44 0L2.3 17.393c-.4-.4-.4-1.046 0-1.44l3.233-3.233c.4-.4.4-1.04 0-1.44L2.3 8.047c-.4-.4-.4-1.04 0-1.44L6.607 2.3c.4-.4 1.046-.4 1.44 0l3.233 3.233c.4.4 1.04.4 1.44 0L15.953 2.3c.4-.4 1.04-.4 1.44 0zm-12.627.9l-.026.346l.166.347l.154-.04l.12-.32l-.2-.32zm-1.24 1.66l-.246.44l-.067.066l-.187-.373zm1.64-1.82l.294.533l.066.313l-.28.294l-.88.133l-.066.187l.133.253l.407-.1l-.034-.153l.154-.1l.286.28l.34-.034l.067-.126l-.067-.127l-.12.067l-.093-.1l.307-.58l-.04-.154l.153-.293l-.633-.307zM8.393 9.28l.16-.033l.067.066l.533-.046V9.14l-.886-.067l-.1.234l.066.066l.134.014l.026-.114zm-.106.713l.1-.093l-.04-.3l-.16-.087h-.194l-.333.42l.067.067zm3.88 5.167l.06-.38l.22-.167l-.16-.146l-.214.093l.027.033l-.127-.066l-.04-.28l.094-.034l.06-.253l-.127-.067l-.153.107l-.067-.067l.033-.026l-.133-.134l.1-.093l-.033-.093l.34-.354l.166.087l.067-.067v-.126l-.1-.027l.067-.067l-.04-.22l-.154.034l-.146.16l-.094-.094l.007-.133l.147-.1l.186-.053l.067-.067l-.007-.02l.154.253l.026.034l.134-.134l.06-.833l-.254.2l.1.287h-.013l-.227.12l-.013-.067l-.133-.127v-.32l.18-.26h.193l.187-.133l.16.033v.254l-.094.02l.034.106l.153-.04l.1.16l-.3.7l.087-.033l.34-.287l.133.007l.353.207l.034.346l.22.014l.026-.087l.127.007l.067.06l.286-.1l-.04-.154l-1.14-.62l-.073-.373l.247-.513l-.067-.187l-.22-.02l-.187.12l-.293-.667l-.313.2l-.287-.28l.147.347l-.027.353l-.213.227l-.634.013l-.12.194l.194.253l.153.033l-.253.067l-.287-.28l-.187.067l-.12.193l-.186.067l-.06-.127l.213-.473l-.56.066l-.033-.093l-.134-.007l-.026.107l.126.06l.094.22l-.034.153l.067.134l.093.02l-.02.54l.527-.614l.467.087l-.067.067v.06l-.22-.02l-.307.313l.127.307l-.027.1l-.193.133l-.06.18l.253.06l.214-.227h.066l.12.187l-.013.22l-.26.133l.167.087l.213-.093l.093.22l-.153.22l-.027-.034l-.093.034l-.187-.067l-.34-.08l-.16.093l.067.134l.467.026l.153-.1l-.187.267l.04.407l.087.1l.1-.094l.013-.22l.074-.066l.166.093l.094-.093l-.04-.154l.093-.033l.1.027l.04.286l-.093.034l-.154.286l-.406.16l-.12.2l.34-.1l.233.28l.373-.073l.06-.133l.147-.034l-.007.134h.134l.133-.134zm-.02-4.92l-.22.1l-.04.167l-.16.1l.066.313l-.126.133l-.147-.033v.067l-.133.126l-.154.04l-.16-.093l-.066-.26l-.167-.147l.28-.233h.493l.067-.2l.133-.133l-.033-.034l.093-.16l.127-.066l-.067-.12l-.026.026L10.9 9.72l.067-.073l.126.006l.087-.166l-.133-.247l-.28.1l-.214.473l.027.034l.153.033l.067.187l-.087.28l-.306.266l-.067-.066l-.12.18l-.287-.02l-.34.413l.04.287l-.066.126l.133.44l-.187.134l-.2-.634l.067-.186l-.253.066l-.094.1l-1.02-1.066l.06-.134l.127.014l.093-.094l.227-.033l.027.033v.32l.46-.066l-.014.133l-.093.087l-.153.04l-.034.16l.254.246l.16.034l.526-.294l.18-.32l-.04-.153l.567-.2l-.193-.12l-.414.04l-.16-.607l.334-.286L9.993 9l1.267.04l-.133-.133l-.634-.04l-.093-.1l.56-.2l-.1-.407l.12-.193l.073.253l.134.127h.06l.153-.1l.187.066l-.127.194l.173.153l-.04.48l.327.373l.187.254l.16-.1l.16.093l-.254.067l.087.16zm4.113 1.18l.093-.153l.22-.04l.094-.094l-.594-.02l-.26-.573l-.113.767l-.133.133l-.134-.693l.187-.38l-.033-.227l-.447-.433l-.6.166l.007.447l-.12.187l-.2-.567l-.474-.213l-.346-.534l.093-.1L13.467 9l.093-.16l.333-.04l-.026.16l.133.133l.153-.04l-.066-.446l.333-.034l-.033-.226l-.087-.1l.007-.134l-.174-.086l-.093.166l-.12.06l-.4.234l-.153.406l-.314.2l.094.1l.066.254l-.026.026l-.167-.093l-.62.2l.127.187l.88-.074l.32.24l.073.38l.22.16l-.067.067l.26.307l.28.093l.187-.067l.027-.16l.033-.026l.513.226l.067.274l-.253.2l-.134-.134l.014-.133l-.134-.06l-.113.887l.253.246l.067-.066l.053.006l.4-.36l.26.06l.407-.16l.093.094h.067l.06-.194zm-7.267 2.467l.414.273l.053.007l.033-.04l.387.5l.093.033l.094-.033l-.36-.914l.066-.186l-.22-.16l-.22.226l.127.067l.127-.067l.026.034l-.253.133l-.027-.033l-.066.066l.006-.066l-.026.033l-.16-.033l-.094-.094l.027-.1l-.1-.026l-.087.033l-.126.44l.16.033L9 13.88zm.854-.067l.38-.187l.12-.253l-.194-.127l-.253.194l-.053.38zm3.546-3.533l-.153.033l-.093.093l-.127-.053l-.12.06l-.127.32l.127.067l.133-.134l.474.267l-.034-.6l.087-.033l.013-.134l-.106-.026l-.067.133zm-1.88 1.7l.134.26l-.134.066l-.28-.026zm5.1-1.994l-.153-.006l-.32-.234l-.033-.346l-.194-.254l.06-.38l-.406.1l.04.414h.186l.1.153l-.28.293l.034.34l.166.094l.094-.094l-.06-.12l.1-.093l.126.007l.474.326l.16-.1l.313.187l.307-.647zm-2.533 2.334l.227.106l.16.22l.26.06l.153-.1l.067.254l.066.006l.034-.04v-.126l-.1-.16l.033-.027l-.287-.093l-.06-.12l-.186-.007l-.32-.127l-.134-.186v-.38l-.246-.254l-.094.167l-.066-.067h-.054l-.033.167l-.133-.013l-.054.386l.22.1l.16-.1l-.033-.093l.093-.093l.267.5l-.26-.054l.16.28l.127-.066l.026-.147zM16.947 8.4l-.154-.087l-.5.387l.32.18l.314-.2zm-4.774 5.44l-.24-.053l.574-.294l.033-.153l.067-.067l-.04-.286l.193.186l.98.214l-.213.093l-.007.06l-.433.32l.093-.287l-.5.2l-.033-.033l-.214.093l.834 1l-.414-.086l-.133-.38l-.093-.027l-.1-.16l-.067.067l-.093-.027zm4.947-4.82l.213-.487l-.213-.1l-.067.067l-.033.48zm-.02.407l.067-.187l-.26-.053l-.467.166l.067.18l.32.127zm-3.373 5.066l.22-.28l-.507-.366v.246l.287.027l.026.04zm1.2-.866l-.447-.307l-.26.14l.067.187l.633.046zm-.44.966l.213-.413l-.26-.44h-.247l-.126.193l.353.347zm-1.134 1.7l-.126-.193l.246-.253l.06-.254l-.626.134l-.014.133l.214.38zm1.8-2.726l.107.853l.22-.033l.187-.38l-.267-.38zm1 1.853l.067-.187l-.067-.126l-.153.04l-.12-.06l.4-.734l-.067-.186l.247-.38l-.767-.44l.067.313l.16.153l.167.607l-1.094.627l-.413-.094l.107.54l.5-.073l-.034-.227l.247-.133l.293.407l.467-.034zm-1 .333l.007-.133l-.267-.067l-.246.134l-.594-.147l-.093.093l.067.254l.133.013l1-.153h-.007zm-.98.78l-.086-.386l-.187-.134l-.193.014l-.06.186l-.027-.033l-.187.2l-.146.033l-.067.134l.1.093l.753-.013zm.667-.226l.007-.307l-.214.093l-.286.354l.006.186l.16.034l.334-.36z" clip-rule="evenodd"/></svg>