<svg xmlns="http://www.w3.org/2000/svg" xmlns:xlink="http://www.w3.org/1999/xlink" width="24" height="24" viewBox="0 0 24 24"><path fill="#181B1E" fill-rule="evenodd" d="M5.126 7.369c1.15-.48 2.95-.87 5.586-.87c2.64 0 5.447.6 7.592 1.585c1.075.49 1.995 1.08 2.65 1.75C21.6 10.5 22 11.25 22 12.07c0 1.625-1.415 2.98-3.64 3.921c-2.241.95-5.377 1.51-8.963 1.51c-2.876 0-4.711-.525-5.832-1.2c-1.125-.68-1.55-1.51-1.565-2.11v-.07l.05-.05c.065-.07.145-.19.23-.365a5 5 0 0 0 .245-.616c.325-.945.62-2.3.78-3.245c.08-.476.125-.83.125-.976c0-.235.16-.5.43-.74c.378-.324.807-.58 1.27-.76zM4.04 8.409l.225.345l.25-.17l-.085-.48c-.16.1-.29.205-.39.3zm-.29.46c0-.065.034-.175.15-.32l.08.45l-.156.17l-.09-.065zm-1.346 5.727l-.06-.2l.28-.356c.02.036.05.076.07.12zm.24.46l-.075-.12l.33-.5l.11.125zm.435.485l-.22-.22l.38-.525c.075.07.155.135.245.205zm.56.42a4 4 0 0 1-.31-.215l.415-.55l.3.195zm.69.365a5 5 0 0 1-.41-.2l.416-.575q.18.104.39.2zm.93.34a7 7 0 0 1-.62-.21l.396-.58c.16.07.335.13.515.19l-.35.56zm.941.23c-.24-.05-.47-.1-.68-.16l.355-.57c.2.055.41.11.63.155zm1.115.165a14 14 0 0 1-.78-.105l.3-.565q.345.06.72.105l-.25.56zm1.2.09q-.45-.016-.87-.055l.25-.56c.25.025.52.045.8.05l-.174.565zm.34.01l.17-.56h.831l-.105.565h-.9zm2.221-.035c-.33.015-.66.03-.995.035l.1-.565l.895-.035zm1.336-.1c-.33.035-.67.06-1.01.08v-.565c.304-.015.61-.04.915-.065l.1.55zm1.245-.15c-.3.05-.61.085-.92.12l-.1-.55l.825-.1l.195.535zm.325-.05c.31-.045.605-.1.9-.15l-.3-.505l-.79.13l.19.53zm-.31-.85c.25-.03.49-.07.725-.11l-.29-.49l-.62.095l.185.51zm-.3-.825l.55-.08l-.315-.53l-.44.05l.2.56zm-.325-.88l.37-.04l-.35-.586l-.24.02zm-.56-.58l.225.615l-.44.03l-.11-.63c.115 0 .22-.01.325-.015m.22-.35l.175-.01l-.285-.476l-.065.005l.175.485zm-.515-.466l.18.49l-.265.01l-.09-.495h.175zm.64 1.75l.205.56q-.299.039-.605.06l-.1-.58zm.325.886l-.67.065l.1.54l.755-.09zm2.97.875c-.29.08-.6.15-.91.215l-.3-.5c.28-.05.55-.115.815-.18l.4.465zm1.11-.33c-.244.085-.5.165-.76.235l-.395-.46c.23-.06.45-.13.66-.2l.5.425zm.36-.125l-.49-.42c.2-.07.396-.15.58-.225l.576.385c-.21.09-.435.18-.665.26m1.611-.715l-.585.3l-.58-.39c.165-.08.32-.16.47-.25zm.81-.51c-.144.11-.3.21-.465.31l-.7-.34l.355-.255zm.686-.57c-.115.11-.235.225-.37.33l-.83-.295q.14-.128.26-.27zm.5-.6a4 4 0 0 1-.245.32l-.97-.24l.15-.24l1.06.16zm.33-.65a3 3 0 0 1-.15.344l-1.095-.17c.035-.08.06-.16.085-.25l1.16.07zm.135-.66q-.008.165-.045.33l-1.186-.07a3 3 0 0 0 .02-.23zm-.06-.691q.045.18.06.36l-1.22.025a2 2 0 0 0-.04-.265zm-.32-.745q.126.21.215.42l-1.19.125a3 3 0 0 0-.14-.315zm-.44-.585q.127.141.24.29l-1.1.225c-.05-.08-.11-.15-.17-.225zm-.686-.636q.225.179.42.365l-1.015.286c-.1-.1-.2-.195-.31-.29zm-.725-.51c.145.09.28.185.415.28l-.9.355c-.1-.075-.215-.15-.33-.225zm-1-.55q.345.171.66.35l-.805.405q-.264-.15-.55-.285zm-1.035-.45q.354.141.685.29l-.69.465a12 12 0 0 0-.59-.245l.6-.51zm-1.17-.4c.28.085.55.175.82.27l-.6.51a15 15 0 0 0-.7-.23zm-1.146-.31l.8.205l-.485.555a18 18 0 0 0-.7-.18zm-1.23-.25c.3.05.6.11.89.175l-.39.58a22 22 0 0 0-.79-.15l.29-.6zm-1.275-.17c.315.03.625.07.94.12l-.29.6a19 19 0 0 0-.835-.11zm-1.25-.085c.304.01.614.03.92.05l-.185.615a12 12 0 0 0-.836-.05zm-.326-.01l-.1.615c-.265 0-.525 0-.785.01l.035-.62c.27-.005.56-.01.85-.005m-2 .06l.825-.05l-.035.625q-.369.009-.76.04l-.025-.615zm-1.08.11c.245-.035.5-.06.76-.085l.025.61l-.716.07zm-.936.16c.2-.04.4-.08.615-.115l.07.595c-.2.025-.395.05-.59.09l-.09-.57zm-.9.22c.185-.05.375-.105.585-.15l.09.56c-.19.035-.38.08-.565.125zm-.745.25l.435-.15l.11.52a6 6 0 0 0-.435.145l-.11-.51zm-.68.325q.173-.099.375-.19l.11.5a5 5 0 0 0-.335.15l-.085-.475zm6.186-.175l-.1.65l-.69.01l.04-.65c.275-.01.52-.015.75-.01m.33 0l-.105.65c.24 0 .475.01.706.02l.19-.62c-.276-.025-.536-.04-.79-.05m1.12.08l-.184.615q.352.021.69.065l.275-.58q-.397-.061-.78-.1m1.12.15l-.274.575c.22.03.43.065.64.105l.37-.545zm1.076.21l-.365.54l.585.14l.45-.515a18 18 0 0 0-.67-.165m1.015.265l-.45.515q.276.084.53.175l.57-.49c-.21-.07-.43-.14-.65-.2m1.01.33l-.575.495l.44.19l.686-.47a12 12 0 0 0-.55-.215m.91.375l-.7.475c.12.065.246.13.36.2l.841-.425zm.851.45l-.865.43l.215.15l.955-.385c-.1-.065-.2-.135-.31-.2zm.625.425l-.975.39l.185.17l1.085-.304a5 5 0 0 0-.3-.25zm.565.526l-1.1.305l.105.125l1.16-.235a3 3 0 0 0-.165-.2zm.366.495l-1.16.235l.09.165l1.21-.125a2 2 0 0 0-.14-.275m.245.6l-1.196.12l.035.15l1.2-.03a2 2 0 0 0-.04-.24m.05.57l-1.18.03l-.01.11l1.17.065l.02-.2zm-.096.535l-1.16-.065l-.04.11l1.12.17c.03-.07.06-.14.08-.215m-.25.525l-1.1-.165l-.08.12l1.04.255q.076-.097.145-.21zm-.39.49l-1.02-.25l-.155.15l.925.336c.09-.075.175-.15.25-.236m-.56.476l-.91-.325l-.22.155l.795.39zm-.69.415l-.775-.38l-.3.155l.65.435q.215-.099.425-.21m-.79.36l-.635-.42q-.204.089-.43.17l.52.45q.284-.096.545-.2m-.91.32l-.516-.445l-.49.15l.4.465c.21-.05.41-.11.605-.17m-.96.26l-.4-.47c-.2.05-.416.1-.64.14l.29.49c.26-.05.51-.1.75-.16m-3.226.5l-.1-.54l-.76.035v.575l.86-.065zm-1.186-.49h-.72l-.11.615l.83-.035zm-1.16.615l.11-.62l-.695-.025l-.2.65h.785zm-1.125 0l.205-.67c-.225-.015-.45-.035-.66-.06l-.3.68zm-1.1-.085l.31-.69q-.328-.046-.626-.1l-.37.69c.22.04.45.07.69.1zm-1.02-.165l.37-.695a7 7 0 0 1-.556-.135l-.43.685l.615.15zm-.941-.24l.425-.68a7 7 0 0 1-.48-.16l-.45.66q.241.097.505.18m-.815-.305l.45-.65l-.385-.17l-.45.63q.181.099.385.19m-.675-.35l.445-.615l-.3-.165l-.44.59q.135.099.3.19zm-.56-.385l.43-.566a4 4 0 0 1-.276-.19l-.4.55l.25.206zm-.476-.45l.375-.51l-.15-.13l-.34.505l.115.14zm-.31-.43l.3-.45l-.1-.12l-.315.5l.07-.03l.05.1zm.925-4.227c0 .08.025.17.065.265q.097-.09.216-.18l-.05-.3c-.076.095-.116.28-.23.215m.51-.5l.066.39l.27-.15l-.08-.435a3 3 0 0 0-.255.19zm.55-.37l.09.48c.116-.05.23-.09.356-.135l-.105-.51q-.175.076-.34.165m.646-.285l.11.535l.44-.12l-.12-.555c-.15.04-.29.09-.43.14m.745-.23l.12.575l.53-.1l-.1-.6zm.87-.185l.1.61l.54-.07l-.07-.625c-.19.025-.38.05-.57.085m.89-.125l.076.63l.65-.055l-.03-.65zm1.02-.095l.026.65l.66-.035l.04-.65c-.235.005-.475.02-.725.035m.991.94l.65-.01l-.1.61h-.58zm-.95.04l.63-.03l-.035.6l-.57.025zm-.95.075c.2-.02.41-.04.63-.05l.025.59l-.585.05zm-.846.1l.525-.065l.065.595l-.49.065zm-.84.15l.52-.1l.1.595l-.5.09zm-.315.07l.12.585l-.435.11l-.12-.575zm-1.105.355c.11-.05.23-.09.36-.135l.12.565q-.189.059-.375.126l-.105-.55zm-.58.3l.275-.16l.1.536l-.29.14zm-.4.32l.105-.1l.05.27a2 2 0 0 1-.15-.17zm-.67 2.931a2 2 0 0 1-.1-.13l.29-.475l.124.125zm.39.39a4 4 0 0 1-.16-.145l.334-.51l.19.15zm.53.4c-.1-.07-.19-.13-.275-.2l.38-.51l.29.185l-.395.52zm.575.325l-.29-.16l.4-.53l.28.15zm.675.3c-.13-.05-.255-.1-.375-.16l.39-.544l.365.15zm.785.266l-.47-.15l.38-.55l.44.134zm.865.215c-.19-.035-.365-.08-.54-.125l.35-.565c.165.04.325.08.5.115zm.93.16l-.6-.095l.31-.575q.264.052.55.09zm.96.1c-.21-.02-.42-.035-.62-.06l.256-.58l.55.05l-.185.585zm.336.015l.18-.585l.585.02l-.11.585c-.22 0-.44-.01-.65-.02zm1.645.02l-.66.005l.11-.59l.55-.005zm1.03-.04q-.345.023-.705.03v-.59c.205 0 .41-.015.6-.025l.1.585zm2.741-.38l-.58.12l-.315-.525c.17-.025.33-.05.48-.085zm.785-.21a5 5 0 0 1-.425.12l-.41-.48c.11-.025.215-.05.32-.085l.515.45zm.76-.26l-.39.145l-.515-.445l.3-.11zm.616-.275l-.25.12l-.616-.41l.136-.07zm.54-.32a5 5 0 0 1-.19.12l-.75-.366l.09-.06l.85.3zm.455-.36a3 3 0 0 1-.135.12l-.885-.316l.045-.045zm.33-.366l-.07.09l-1.02-.25v-.005zm.21-.39l-.035.08l-.87-.135l.9.05zm.085-.41l-.005.08l-1.015-.06zm-.07-.45l.035.115l-1.16.03l-.005-.035l1.13-.115zm-.22-.455l.08.13l-1.135.115l-.02-.025zm-.245-.32l.015.02l.01.005l-1.085.225l-.03-.035l1.02-.29zm-.51-.475l.165.135l-1.04.295l-.065-.055zm-.505-.35c.065.035.13.08.19.12l-.95.38a.5.5 0 0 0-.11-.065l.87-.44zm-.34-.2l-.88.44l-.19-.1l.75-.505q.164.075.32.165m-1.076-.49l.4.16l-.75.515l-.3-.12zm-.84-.28l.48.15l-.65.56c-.115-.035-.23-.075-.35-.105l.52-.6zm-.89-.216c.185.035.365.08.54.12l-.52.6l-.44-.1zm-.935-.165c.2.025.4.055.59.09l-.42.62l-.475-.075l.3-.635zm-.98-.1l.64.055l-.3.635l-.536-.055zm-.996-.035q.338 0 .66.015l-.185.635q-.285-.017-.57-.025l.1-.62zM3.7 11.44l-.225.435l.06.09l.27-.43l-.1-.1zm.28-.19l-.12-.12l.226-.43l.16.13zm.07.505l-.295.47l.13.13l.32-.475zm.336-.15l-.16-.13l.28-.45l.185.12l-.3.46zm.08.47l-.33.5l.2.165l.37-.505zm.435-.11l-.25-.165l.325-.49l.3.15zm.085.44l-.38.52c.09.065.19.125.295.19l.4-.535zm.52-.1c-.115-.05-.22-.11-.325-.17l.395-.535l.35.145l-.42.565zm.095.42l-.41.55c.085.05.18.095.275.14l.405-.565zm.47-.15l-.265-.12l.445-.595l.265.095zm.115.4l-.415.575l.355.145l.405-.59l-.35-.13zm.54-.155l-.34-.12l.46-.645l.335.1zm.13.39l-.41.6l.43.13l.38-.615zm.585-.18l-.39-.105l.465-.68l.355.09l-.43.7zm.15.38l-.385.615q.224.06.47.105l.335-.63q-.21-.04-.42-.09m.586-.22l-.4-.08l.43-.695l.345.08l-.375.7zm.175.37l-.34.636c.17.03.345.05.525.075l.285-.64q-.236-.03-.47-.07m.61-.25l-.45-.06l.37-.69l.375.07l-.3.68zm.2.355l-.29.65l.51.04l.2-.65l-.425-.04zm.52-.29l-.385-.03l.295-.66l.29.045zm.235.35l-.2.65l.54.016l.12-.655c-.155 0-.31-.01-.46-.016zm.52-.325c-.145 0-.285 0-.42-.01l.19-.62l.335.04zm.27.335l-.12.65h.49v-.65zm.37-.335h-.31l.1-.565l.21.015zm.32.325v.65l.55-.024l-.11-.636zm.38-.34l-.375.01v-.53l.29.01zm1.65.22l.346.57l.41-.07l-.45-.535l-.3.035zm.046-.335l-.23.02l-.285-.47l.12-.015zm.64.245l.44.515l.255-.06l-.56-.48zm.54-.115l.54.466l.25-.086l-.625-.42zm-.21-.29l-.105.02l-.5-.425l.605.4zm.25-2.04l-.015-.01l.67-.455l.14.065l-.79.4zm-.395-.15l-.16-.06l.585-.5l.26.095zm-.455.2l.11.03l-.625.425h-.02l.535-.46zm-.075-.375l.59-.505l-.295-.085l-.47.54zm-.415.23l.11.03l-.535.46zm-.115-.37l.47-.54l-.4-.085l-.375.56zm-.505.23l.26.055l-.465.54l-.176-.03zm-.15-.365l.38-.555a5 5 0 0 0-.42-.065l-.27.57l.315.05zm-.46.265l.26.04l-.395.58l-.156-.02zm-.19-.36l.27-.57l-.476-.05l-.175.58zm-.48.285l.33.03l-.296.615l-.225-.02zm-.23-.35l.17-.576q-.263-.014-.526-.02l-.09.576c.15 0 .3.01.445.02m-.5.315l.4.01l-.19.63l-.31-.01zm-.276-.335l.095-.58h-.55l-.035.59zm-.51.345l.46-.01l-.1.63h-.395zm-.3-.32l.03-.596l-.535.026l.025.6l.475-.03zm-.465.36q.22-.015.44-.025l-.035.615l-.38.015l-.025-.6zm-.34-.3l-.025-.61l-.56.05l.07.61c.17-.02.34-.04.515-.05m-.48.38l.5-.05l.02.595l-.45.025zm-.356-.295l-.07-.61l-.475.06l.1.61zm-.39.39l.425-.06l.066.56l-.4.035zm-.375-.28l-.1-.61l-.485.09l.125.6zm-.39.4l.45-.07l.08.515l-.43.045l-.1-.485zm-.39-.26l-.12-.59l-.435.11l.12.57zm-.365.415l.435-.09c.05.25.03.4.05.585l-.41-.145zm-.385-.25l-.115-.55c-.14.04-.27.085-.385.125l.1.525zm-.115.365l.185-.045l.025.14zm-.96-.53l.27-.135l.065.35a5 5 0 0 1-.335-.215m11.272 2.89l-.075.036l-.4-.27zm-.04-2.745l.075.04l-.77.31zm-8.862.93c1.396.405 2.94.665 4.401.715c.79.025 1.54.06 2.3-.185c.14-.045.241-.09.3-.125a2 2 0 0 0-.214-.1c-1.07-.395-2.3-.59-3.436-.59c-1.16 0-2.55.2-3.35.285" clip-rule="evenodd"/></svg>