<svg xmlns="http://www.w3.org/2000/svg" xmlns:xlink="http://www.w3.org/1999/xlink" width="24" height="24" viewBox="0 0 24 24"><g fill="none"><path fill="url(#tokenBrandedBerry0)" d="M19.419 21.997c-2.82-.143-5.043-2.341-5.043-4.981c0-.173.111-.347.26-.45c.965-.554 1.597-1.523 1.597-2.666c0-1.731-1.486-3.15-3.342-3.15h-3.23c-.78 0-1.411.589-1.411 1.35V22H4.72A2.72 2.72 0 0 1 2 19.282V9.578c0-.917.46-1.764 1.201-2.258l7.28-4.87a2.79 2.79 0 0 1 3.039 0l7.28 4.87A2.72 2.72 0 0 1 22 9.578v9.669c0 1.472-1.128 2.677-2.581 2.75"/><defs><linearGradient id="tokenBrandedBerry0" x1="8.207" x2="15.209" y1="2.703" y2="22" gradientUnits="userSpaceOnUse"><stop stop-color="#28D0FA"/><stop offset="1" stop-color="#635BD7"/></linearGradient></defs></g></svg>