<svg xmlns="http://www.w3.org/2000/svg" xmlns:xlink="http://www.w3.org/1999/xlink" width="24" height="24" viewBox="0 0 24 24"><g fill="none"><path fill="url(#tokenBrandedBeta0)" fill-rule="evenodd" d="M19.071 19.071A10 10 0 1 1 4.93 4.929a10 10 0 0 1 14.14 14.142M14.223 7.847c-.064-.082.012-.2.112-.17c1.447.405 2.389 1.07 2.389 1.835c0 1.24-2.512 2.24-5.606 2.24c-2.018 0-3.789-.423-4.771-1.07c-.082-.047-.035-.17.059-.153a13 13 0 0 0 2.47.224c3.095 0 5.606-1 5.606-2.235c0-.236-.094-.46-.258-.671m1.106 3.906c-.076-.094.018-.23.136-.2c1.682.476 2.782 1.259 2.782 2.147c0 1.441-2.93 2.618-6.547 2.618c-2.359 0-4.43-.5-5.576-1.253c-.1-.06-.042-.2.076-.177c.865.17 1.847.265 2.882.265c3.618 0 6.547-1.17 6.547-2.618c0-.27-.105-.535-.3-.782" clip-rule="evenodd"/><defs><linearGradient id="tokenBrandedBeta0" x1="21.464" x2="3.786" y1="8.786" y2="18.786" gradientUnits="userSpaceOnUse"><stop stop-color="#CD9CBC"/><stop offset="1" stop-color="#AD8BD4"/></linearGradient></defs></g></svg>