<svg xmlns="http://www.w3.org/2000/svg" xmlns:xlink="http://www.w3.org/1999/xlink" width="24" height="24" viewBox="0 0 24 24"><g fill="none"><path fill="#021C37" d="M8.342 3.452c-.069-.566-.343-.72-.743-.903c-.543-.252-.995.057-1.35.291a3.3 3.3 0 0 0-.496.406c-.343.354-.423.846-.44 1.36c-.012.326.045.572.057.87c-.355.028-2.275.285-2.533.376l.452.703c.154.246 1.097 1.904 1.246 2.155c.006.006.234.412.434 1.818c.109.749.618 1.092-.674 1.56v5.053c.171 0 1.177-.343 1.435-.411c.497-.132 1-.274 1.532-.372v2.63l1.411-.332c.423-.086 1.143-.229 1.56-.229c.23.286 1.43 2.413 1.767 2.927c.017-.017 1.635-2.64 1.663-2.744c.766.052 1.51-.057 2.281.103c.383.08.84.269 1.2.337v-2.406c.55.063 1.807.509 2.458.675l.006-5.03c-.097-.126-.903-.258-1.069-.366c.131-.406.274-.726.372-1.172c.537-2.704.228-1.315.44-1.932c.44-.503 1.177-1.783 1.589-2.406c.057-.098.194-.269.228-.366a38 38 0 0 0-2.886-.48c-.24-.029-.286.011-.4-.166a7.5 7.5 0 0 0-1.967-1.932a7.17 7.17 0 0 0-6.31-.732c-.629.229-.794.332-1.263.715"/><path fill="#ECEEED" d="M8.284 3.663c.47-.383.686-.691 1.315-.926a7.17 7.17 0 0 1 6.322.738c.286.183.709.497.932.737c.097.097.171.172.285.269l.515.6c.08.103.154.2.229.32c.114.171.16.137.4.171c.788.098 2.172.31 2.886.475c-.034.097-.171.269-.229.366l-1.56 2.366l-.029.04l-.04.04a5.4 5.4 0 0 0-.262-1.132c-.183-.531-.343-.731-.43-.966c.035.172.138.39.19.583c.314 1.144.365 2.241.102 3.407c-.097.446-.24.766-.371 1.172c.165.108.971.24 1.069.36v5.03c-.658-.16-1.915-.663-2.464-.726v2.4c-.36-.056-.817-.194-1.2-.274a17.3 17.3 0 0 0-3.83-.394c.074.034 1.189.2 1.55.297c-.03.097-1.647 2.721-1.664 2.738c-.338-.514-1.544-2.64-1.766-2.932q-.79.06-1.56.234l-1.418.332v-2.63c-.526.098-1.03.24-1.527.372c-.257.069-1.269.406-1.434.412v-5.053l1.143-.326c-.04-.166-.114-.343-.172-.509c-.051-.171-.091-.343-.137-.526a6.8 6.8 0 0 1-.097-2.418c.057-.4.212-.926.229-1.068l-.063-.04c-.143.114-.383 1.046-.435 1.343l-.045.171l-.955-1.429c-.154-.251-.32-.486-.474-.731l-.458-.703c.263-.086 2.184-.343 2.538-.378c-.011-.297-.068-.543-.057-.869c.017-.514.103-1.006.44-1.36a3.4 3.4 0 0 1 .498-.4c.354-.24.806-.549 1.354-.297c.4.183.612.554.68 1.114M4.42 8.905c.315.474.195.286.23.846c.068.972.193 1.046.36 1.795l-1.013.314v5.716c.172-.017 2.23-.703 2.858-.812v2.653c.132-.006.664-.155.824-.2q1.183-.314 2.4-.452c.034.114.383.663.475.817l.486.812l.948 1.606c.08-.057.08-.097.149-.211c.606-1 1.229-2.07 1.852-3.047c.726-.052 2.692.509 3.43.686c0-.646-.023-1.88 0-2.424c.171.023.462.126.645.172l1.938.589c0-1.915.052-3.83 0-5.74l-1.029-.285c.195-.789.36-.795.457-1.783c.069-.658-.12-.435.155-.875l2.132-3.258c-.48-.08-.96-.183-1.44-.269l-1.83-.285c-.245-.035-.251 0-.325-.092c-.155-.2-.343-.503-.55-.703c-.16-.154-.062-.097-.308-.314l-.103-.103A7.48 7.48 0 0 0 12.023 2c-1.046 0-2.332.211-3.201.783c-.115.074-.235.172-.332.223a1.52 1.52 0 0 0-.926-.829c-.571-.171-.96.057-1.349.286c-.308.189-.726.537-.931.817a3.2 3.2 0 0 0-.326 1.4l.017.504c-.103.057-1.155.177-1.372.211c-.429.063-.909.132-1.32.223L4.42 8.911z"/><path fill="#BD0A30" d="M12.469 6.344c.205.589.005 1.04-.297 1.452l-.046.068c-.12.143-.35.366-.4.458a1.44 1.44 0 0 0-.172.783c.166-.023.337-.069.503-.006a.5.5 0 0 1 .292.314c.125.035.251.132.291.138c-.686-.092-.972.103-1.743.268a5.3 5.3 0 0 1-.943.115c-.235.011-.755-.109-.766.274c.068.04-.057-.046.028.011c.046.035.092.092.177.12c.206.069.532-.183.858-.314c.103.12.131.274.206.44c.966.057 1.611.686 2.189.212c.246-.2.194-.155.406-.406c.188-.217.548-.749.628-1.029l.04.029c.04-.195.086-.372.115-.578c.022-.24.011-.457.022-.686c.144.2.172.772.19 1.058c.022.057.022.125.04.194c.045.166.428.766.525.92l.131.172l.012.011c.246.258.074.12.389.326l.131.086l.68.594c.04.057 0 .012.04.052l.172.194c.206.252.377.766.629.783c.686.04.628-.114.64.366l.48.16l.057-.434c-.589-.229-.697-1.298-.949-1.904c-.308-.743-.794-.914-1.44-1.463l-.549-.514c-.6-.744-.8-.978-1.258-1.984c-.09-.217-.354-.812-.485-.96c-.16.074-.486.366-.635.497c-.114.097-.188.097-.188.183"/><path fill="#CA0231" d="M6.53 6.235c.01.172.074.635-.006.76c-.132-.182-.086-.57.005-.76m.537.83c-.086-.275.125-.63.274-.767l.383-.325l-.343.554c-.103.171-.2.36-.314.537m-.904.262c.075.017.07-.017.218-.063c.091-.034.137-.057.24-.034a.4.4 0 0 1-.115.172c-.04.16-.085.251-.12.44a5.7 5.7 0 0 0-.057 1.612c.035.04.057-.058.029.051c.023-.177.143-.537.206-.743c.028-.092.068-.143.091-.223l.074.114c.092.183.343.778.423.87l-.057-.733c.04-.182-.034-.388.08-.828c.034-.138.109-.24.04-.355c-.057-.091-.126-.171-.16-.303c.092.075.12.138.286.172c.154-.177.183-.263.417-.423c.092-.063.183-.126.28-.172s.212-.091.298-.148c0-.172-.058-.326-.11-.475c.138.115.258.275.332.492c.44.251.018.366-.017.531c.36-.097.446-.154.846-.074c.012-.211.075-.286.115-.457l-.2-.006c.017-.16.245-.497.383-.589c.262-.171.405-.24.788-.171l.006-.137c-.429-.349-1.263.377-1.658-.029c.086-.017.2-.046.258-.114a4.6 4.6 0 0 0-1.51-.858c-.268-.022-.72.4-.903.664a3.26 3.26 0 0 0-.503 1.817"/><path fill="#A60C30" d="M7.164 10.26c-.063-.23-.023-.332.137-.458c.069-.046.143-.091.206-.143c.114-.108.097-.114.16-.188a.54.54 0 0 1-.171.451c-.155.143-.16.086-.286.274zm.64-2.235l.012-.018l.766-.52c.337-.188.748-.194.971.063c-.971-.08-.823.595-1.749.475M8.56 6.75l.023.188c-.115.058-.178.063-.24.172c-.103.2-.183.457-.326.503c-.366.126-.389.011-.675.583c-.131.257-.183.503-.2.537c-.034.075 0 .023-.045.057l.057.732c-.08-.091-.332-.686-.423-.874l-.075-.109c-.022.08-.062.131-.091.229c-.063.2-.183.56-.206.737c.023-.103.006-.011-.028-.057l.04.348l.022.058c.115.028.458.085.47.366l-.298-.115c.069.114.297.292.4.377c.286.229.24.12.589.069c.137-.023.314.011.394 0c.132-.029.492-.572.486-.68c-.029-.446-.034-.75.303-1.19a1.35 1.35 0 0 1 1.029-.56c.166-.514.171-.868.011-1.394c.229.057.4.097.646.046c-.097-.057-.257-.08-.366-.12c-.125-.057-.24-.137-.343-.172c-.057.04-.08.069-.142.092c.045-.172.2-.292.348-.372c.173-.1.374-.14.572-.114l-.017-.103c-.383-.069-.526 0-.79.171a1.2 1.2 0 0 0-.382.59h.2c-.04.17-.103.25-.114.456c-.4-.074-.486-.017-.846.08c.034-.171.457-.285.017-.531"/><path fill="#9D1030" d="m7.301 14.98l-.028.275c.046.034.028.011.126.029v.6l-.824.143c-.011-.16 0-.343 0-.498c0-.131-.028-.137.08-.16c.15-.028.132.023.155-.126l.251-1.863l.057-.457c.086-.572-.045-.446.68-.475c.075.4.315 2.573.39 2.727l.205-.017v.594l-.823.115l.006-.612l.057-.012l.069-.034l-.023-.257zM4.73 12.558l1.435-.057c.297.491.337.229.337.789c0 .691.074.48-.206.937c.058.114.183.206.2.32v1.006c-.017.092-.142.252-.2.338c-.171.285-.022.188-.714.331c-.263.057-.589.154-.846.189v-.675l.217-.057V13.27H4.73zm5.282 1.612v.674c0 .338.028.315-.149.532c-.28.343-.04.246-1.069.337l-.291-.348c-.052-.069-.035-.018-.04-.126l.017-.497l.503-.04c0 .268-.012.194.068.383c.166.005.338.011.406-.103c.057-.092.04-.286.035-.423c-.086-.08-.366-.229-.48-.303c-.172-.115-.343-.2-.504-.326v-.983c.006-.126.155-.269.263-.418c.08-.114.069-.102.24-.102c.212 0 .503-.029.704-.006c.102.126.2.229.297.36c.068.086.068.457.028.595l-.503.01c0-.268.012-.194-.068-.376c-.229 0-.429-.035-.446.211c-.023.4-.029.303.594.697c.098.058.32.19.395.252m-.823-3.961c-.069.057-.092.171-.115.268a7 7 0 0 0-.131 1.012l-.057.703c-.012.229-.029.115-.143.246l-.172.229c-.194.257-.137.217-.143.6c0 .131-.028.651.029.726c.029.04.886.566.96.594c0 .206.012.235-.051.4c-.04 0-.235.029-.269 0c-.063-.074-.011-.217-.057-.343c-.149-.04-.537 0-.64.063l-.017.378l-.137.005c-.075-.383-.298-2.566-.4-2.703a4 4 0 0 0-.64 0c-.24.057-.058.497-.207.668c.04.115 0 .269-.022.423l-.04.132c.011.148-.155 1.257-.2 1.572c-.018.131-.012.103-.16.126v-.624c0-.297-.046-.257-.183-.457c.08-.143.182-.217.188-.406c0-.183-.034-.428.017-.6c-.097-.286.109-.097-.183-.497c-.354-.48-.154-.212-.377-.32l-.046.017l-.274.017c-1.303.04-1.069-.057-1.069.577c0 .286-.068.349.229.332v2.28q-.116 0-.217.058a4 4 0 0 0 0 .8c.085.006 1.503-.28 1.566-.343c.091-.08.171-.291.263-.389l.005.343c.132.017.835-.103.972-.148l.017-.663c-.017-.058-.023-.052-.045-.075l-.046-.022l-.017-.126a.4.4 0 0 1 .228-.018l.006.098c-.046.046-.057.028-.109.057c-.011.126-.045.646.035.714c.068.057.84-.057.926-.114l.017-.332c.068.058.211.24.274.315c.149.023.52-.04.698-.052c.114-.005.228.012.303-.074c.022-.023.04-.057.074-.108c.28-.344.263-.286.263-.68c0-.172.023-.607-.012-.732c-.04-.057 0-.012-.051-.052l-.429-.268c-.143-.092-.354-.206-.486-.32c-.017-.235-.057-.504.326-.4c.029.114 0 .24.04.354c.126.034.526.011.635-.023c.04-.114.022-.263.022-.389c0-.314-.034-.263-.262-.56c-.086-.114-.092-.131-.269-.143a1.25 1.25 0 0 1 .074-1.086c.103-.16.195-.28.32-.377c.115-.091.189-.269.229-.469l.006.017c0 .012.011.012.011.017l.017.058a.7.7 0 0 1-.023.314c.498-.063.84.046 1.286.154c.4.098.83.343 1.218-.011l.091-.091c.435-.4.743-1.012.886-1.59l-.04-.022c-.157.37-.369.715-.628 1.023c-.212.251-.16.205-.4.4c-.583.48-1.23-.143-2.195-.206c-.075-.166-.103-.32-.206-.44c-.326.131-.652.383-.858.314c-.085-.028-.131-.085-.177-.114c-.085-.063.04.023-.028-.017m8.957 5.299c.005.005.017 0 .022.01c0 .012.012.012.017.012l.03.018c.034.017.016 0 .056.028v.646l-.817-.16v-.634l.223.034l.371-2.944l.618.023l.377 3.16l.229.058v.697l-.823-.183v-.623c.028-.074-.006-.011.05-.04l.058-.022h.017l-.023-.286l-.36-.08l-.046.291zM15 14.477c0 .04.183.458.206.572l-.08.075c-.046-.092-.046-.058-.126-.103v-.55zm2.217-1.251l.652.08l-.274 2.058l-.372-.058v-2.08zm-1.966-.155l.155.058v.411a1.3 1.3 0 0 1-.103-.234c-.04-.109-.092-.166-.052-.234m1.143-.617l.96.029v.646l-.222-.012l.011 2.252l.218.035l.005.645l-.954-.16l-.012-.617l.217.017V13.1l-.211-.023zm-2.189-.04l.983.017l.012.538c-.04.103.011.022-.08.068l.348.915l.018-.87c-.018-.062-.075-.033-.138-.068v-.571l.83.005l.005.618l-.223-.006l.006 2.155l.217.023l.011.617l-.977-.126l-.006-.542c.012-.058.029-.03.109-.07l-.394-1.074l-.006 1.052l.126.028v.59l-.83-.07l-.005-.582l.223.011c.023-.343 0-1.275 0-1.709c-.006-.412.057-.354-.229-.36zm3.773.075l-.063.434l-.48-.16c-.012-.475.046-.326-.64-.366c-.252-.017-.423-.531-.63-.783l-.17-.194c-.04-.04 0 0-.04-.052l-.687-.594l-.125-.086c-.315-.206-.143-.069-.389-.326l-.012-.011l-.13-.172c-.098-.154-.481-.754-.527-.914c-.017-.075-.017-.137-.04-.2c0 .846-.12.663.275 1.309c.193.31.448.58.748.788c-.468.012-.714-.205-.914-.291c.034.108.217.331.268.383c.218.194.526.348.812.469c.154.063.303.16.446.205a1.6 1.6 0 0 0-.114-.297c-.046-.091-.098-.16-.132-.246c.2.16.286.217.44.446c.086.126.286.406.332.549c-.172-.017-.366-.017-.543-.017h-.452a6 6 0 0 0-1.051-.006c-.069.097-.035.326-.035.457c0 .263-.034.258.229.263v1.91c-.257-.018-.229.028-.223.268c.011.566-.086.44.526.497c.149.017.36.08.469-.017c.062.097.108.08.257.092l.628.085c.258.035.195.023.235-.028a2 2 0 0 0 .006-.692c-.052-.028-.126-.034-.206-.046v-1.995c.32-.097.177.184.223-.674c.114.217-.006.389.068.646c.115.057.183 0 .206.074v1.967c-.023.091-.149-.018-.206.063q-.045.362 0 .725c.303.069.71.115 1.03.172c.2.028.81.188.97.171c.035-.114.018-.326.024-.468c0-.4 0-.303-.126-.366l.017-.155c.212.023.229 0 .229.2c-.08.023-.046 0-.109.046c-.017.115-.04.715.034.766l.018.006c.068.046.331.091.428.114c.143.034.343.097.475.086c.028-.126.046-.715-.006-.812l-.097-.045l-.115-.03c-.034-.302-.342-3.114-.394-3.16c-.011-.011-.686-.103-.743.011z"/><path fill="#A40D30" d="M11.474 2.623c.171.074.371.109.554.194c.2.103.303.172.44.303c.309.298.4.555.4 1.098c.195.034.56.177.738.246c.594.234 1.806.628 2.412.56a6.7 6.7 0 0 0-1.75-1.732a3.77 3.77 0 0 0-2.572-.703c-.08 0-.165 0-.222.028z"/><path fill="url(#tokenBrandedBkn0)" d="M5.466 15.581v-.589c.131-.074.274-.217.389-.331c.097.057.125.108.125.251v.389c-.04.252-.251.24-.514.286zm.389-2.383c.108.097.125.114.12.297c0 .188.022.217-.058.354c-.085.137-.114.114-.217.206c-.086.086-.126.12-.228.188V13.22zm-1.126.074h.228l-.006 2.406l-.222.057l.005.675c.257-.034.583-.132.846-.189c.686-.143.543-.045.715-.331c.057-.086.183-.246.2-.338v-1.005c-.017-.115-.143-.206-.2-.32c.28-.458.205-.246.205-.938c0-.566-.04-.297-.337-.794l-1.429.062v.715z"/><path fill="#A40D30" d="M14.475 6.91c.034.171.491.869.6 1.017c.171.223.571.709.8.83c.16-.184.572-1.527 1.292-1.653c-.092-.297-.343-.714-.383-.857a9 9 0 0 0-1.2.286c-.2.057-.984.303-1.11.383z"/><path fill="#9D1030" d="M12.348 9.413a.5.5 0 0 0-.292-.314c-.171-.057-.343-.017-.503.006a1.44 1.44 0 0 1 .172-.783c.051-.092.28-.315.4-.458l.046-.068c.303-.412.503-.863.297-1.452c-.526.314-.566.84-1.178.514c-.314.223-.617.27-1.074.206c.005.155.011.297 0 .452c-.04.44-.126.228.08.503c.143.194.148.331.24.48c.097-.126.154-.36.451-.669c.046-.046.143-.154.206-.177c-.126.251-.263.829-.166 1.115l.035.062c.057-.085.091-.171.154-.274c.063-.091.143-.194.212-.246c-.172.389-.2.76-.218 1.2c.423-.04.686-.16 1.143-.097z"/><path fill="#BD0A30" d="M18.093 12.123a6.5 6.5 0 0 0 .686-3.538a1.68 1.68 0 0 0-.6-1.115c-.206-.154-.355-.206-.67-.2c0 .086.132.412.166.532a7.4 7.4 0 0 1 .258 3.258c-.035.211-.086.417-.115.617c-.022.189.178.4.275.446"/><path fill="url(#tokenBrandedBkn1)" d="m14.926 14.043l.395 1.075c-.08.04-.098.011-.115.069l.012.543l.977.125l-.011-.617l-.217-.023l-.006-2.155h.228l-.011-.611l-.835-.006v.572c.07.034.126 0 .143.068l-.017.875l-.348-.915c.091-.051.04.029.08-.074l-.012-.538l-.983-.017v.583c.286.006.223-.051.229.36c0 .435.022 1.367 0 1.71l-.223-.012l.005.583l.83.069v-.583l-.127-.029z"/><path fill="url(#tokenBrandedBkn2)" d="M11.177 12.969v-.572l-.91.017l.007.566h.217v2.024l-.206.023l-.023.274v.291l.915-.028v-.56c-.063-.023-.092-.012-.172-.012v-.697c.075-.057.292-.206.377-.24c.143.171.11.126.11.4c0 .068.016.497-.024.514c-.046.012-.097.012-.148.018v.571l.857-.011v-.566l-.166-.012c-.005-.177.04-.931-.045-1.051c-.058-.069-.115-.12-.16-.195c.263-.406.2-.091.205-.748l.172-.012v-.566l-.858.006v.56l.143.023l.023.005c0 .235.017.315-.137.43a2 2 0 0 1-.349.216v-.668z"/><path fill="#A40D30" d="m13.687 5.384l.663 1.303c.16-.034.383-.126.543-.183c.171-.063.388-.137.565-.183c.395-.114.783-.2 1.195-.303c-.103-.217-.337-.56-.457-.772c-.858.075-1.183-.131-1.887-.285c-.08.045-.074.085-.285.223c-.103.062-.235.154-.337.2"/><path fill="url(#tokenBrandedBkn3)" d="M12.943 14.867c-.034-.12-.006-1.052-.006-1.258c0-.172-.057-.486.057-.583c.046-.046.4-.126.446.091c.04.189.006.995.006 1.246c0 .515.097.664-.32.63c-.092 0-.166-.046-.183-.127m-.526-.412c0 .72-.069.583.189.914c.097.126.091.195.308.2c.743.018.652.103.846-.131c.08-.086.2-.189.212-.297v-2.264c0-.074-.292-.4-.355-.468l-.869-.006c-.268.446-.331.131-.331.863z"/><path fill="url(#tokenBrandedBkn4)" d="M18.258 14.547c-.005-.166.058-.83.115-.944l.103.984zm-.068.668l.36.075l.023.285c-.046.029-.097 0-.126.069v.623l.817.183v-.692l-.223-.057l-.377-3.167l-.617-.022l-.372 2.943l-.228-.034l.006.64l.823.16v-.646l-.115-.057c-.023-.074.012-.206.029-.303"/><path fill="url(#tokenBrandedBkn5)" d="M10.01 14.17a4 4 0 0 0-.4-.252c-.617-.4-.611-.292-.588-.697c.017-.246.217-.218.446-.212c.08.183.068.114.068.377l.503-.011c.04-.137.04-.509-.028-.595c-.098-.131-.195-.234-.298-.36c-.2-.023-.491 0-.703 0c-.171.006-.16 0-.24.114c-.114.143-.257.286-.263.412v.983c.16.126.332.212.503.326c.115.074.4.223.48.303c0 .137.029.332-.034.423c-.069.114-.24.114-.406.103c-.08-.189-.068-.114-.068-.383l-.503.04l-.017.497c0 .109-.012.057.04.126l.285.348c1.035-.09.8.006 1.075-.337c.246-.297.16-.828.149-1.2z"/><path fill="url(#tokenBrandedBkn6)" d="M7.375 14.346c.023-.2.057-.76.126-.903c.017.172.114.76.086.886zm.303.606l.023.257c-.04.029-.086.035-.126.046v.612l.817-.115v-.594l-.205.017c-.075-.149-.315-2.332-.389-2.727c-.726.029-.594-.102-.68.475l-.057.457l-.252 1.864c-.023.148-.006.097-.154.125c-.114.023-.086.029-.086.16c0 .16-.006.338.006.498l.823-.143v-.6c-.097-.018-.08 0-.126-.029l.029-.274z"/><path fill="#AEAAA9" d="M11.8 6.527c-.04-.074-.023-.04-.092-.086c-.12-.08-.205-.177-.308-.268c-.098-.092-.286-.269-.332-.446c.16.08.023.068.275.246l.16.125c.063.052.103.069.171.109c.36.217.343.16.617-.126c.029-.028.018-.006.035-.034c-.109-.114-.412-.286-.526-.606l.343.24c.103.063.24.132.371.189c.212-.103.223-.229.383-.298c-.045-.142-.16-.257-.217-.445c.109.051.092.085.172.154c.034.023.16.114.205.131l.206-.148c.229-.183.4-.252.629-.4a5.54 5.54 0 0 0-2.96.783c-.373.28.04.731.325.891c.229.126.383.172.543-.011"/><path fill="#A40D30" d="m16.092 8.928l.549.428c.063.052.092.109.229.092c.371-.035.537-.36.554-.743c.109.108.206.36.246.537c.074.309.023.463-.08.72l.171-.023a5.7 5.7 0 0 0-.148-1.417c-.058-.252-.252-1.03-.366-1.2c-.457.097-.76.782-.938 1.131c-.074.137-.171.32-.217.475"/><path fill="#ECEEED" d="M8.679 4.96c.04-.09.08-.142.137-.222l.08-.103c.068-.08.063-.017.057-.12c-.029-.034-.274-.2-.337-.246l.469.154c.165-.262.331-.331.497-.543c.028-.034.023-.01.04-.057c-.115-.068-.257-.131-.349-.194l.429.103l.057.023c.109-.092.229-.183.366-.257c.188-.115.343-.138.371-.23l-.24-.113l.372.085c.114 0 .451-.103.64-.125c.091-.012.623.022.634.011a2.8 2.8 0 0 0-1.177-.263a3 3 0 0 0-1.646.554c-.24.16-.286.24-.48.423l-.258.303a3 3 0 0 0-.285.435l.303.183c.108.063.211.154.32.2"/><path fill="#BD0A30" d="M5.29 10.27c-.023-.64.33-.65.685-.8l.029-1.32l.017-.297c0-.131-.046-.143-.109-.24c-.074-.114-.08-.086-.211-.131c-.103-.04-.166-.086-.252-.115c-.228.823-.371 2.058-.16 2.904"/><path fill="url(#tokenBrandedBkn7)" d="m16.4 13.077l.218.023v2.19l-.217-.018l.011.618l.955.16v-.646l-.23-.034v-2.252l.224.005v-.64l-.972-.029l.017.623z"/><path fill="#A40B2D" d="M11.085 14.323c.08-.04.206-.154.297-.165c.058.12.035.566.023.731c-.183.075-.143.029-.32.018zm0-.828v-.435c.114-.034.16-.04.235-.023l.085.023c.012.246-.097.349-.32.435m-.08.143c.103-.046.252-.143.349-.218c.154-.114.137-.194.137-.428c-.011 0-.017-.012-.023 0l-.143-.029v-.56l.858-.006v.572l-.172.006c-.005.657.057.342-.206.748c.04.074.109.126.16.195c.086.114.04.874.046 1.051l.172.012v.571h-.87v-.566l.132-.01l.017-.012h.023v-.51c0-.273.035-.228-.108-.4a2 2 0 0 0-.372.24l-.006.698c.08 0 .109-.011.172.012v.56l-.915.028v-.285l.023-.286l.2-.017v-2.018l-.211-.006v-.571l.903-.012v.572H11v.668zm1.258 1.526c0-.263.034-.212-.172-.275c-.017-.2 0-.474 0-.686c0-.325-.04-.285-.183-.48c.04-.086.155-.171.172-.257c.028-.114 0-.286.017-.417c.069 0 .114-.012.149-.04c.034-.12.045-.572-.012-.652c-.069-.074-.589-.04-.777-.04c-.063 0-.08 0-.137.012c-.258.045-.772-.075-1.115.017c-.023.131-.029.571 0 .703l.206.006l-.006 1.886c-.257 0-.229.011-.223.268c0 .149-.011.32.017.446c.172.035.829 0 1.018-.034c.068-.011.365.011.497.011c.623-.011.543.098.549-.468"/><path fill="#ECEEED" d="m6.221 3.218l-.023.165c.114-.028.172-.125.326-.171c0 0-.011 0-.011.011c0 .012-.023.023-.029.029l-.309.309V4c.103-.012.029.005.115-.052a.95.95 0 0 1 .371-.166c-.131.126-.434.27-.463.418l.086.48c.2-.115.309-.24.612-.297l-.143.085c-.115.08-.343.263-.395.378c-.011.068.017.114.046.188c.023.069.04.126.091.172c.035-.052.04-.046.075-.086l.074-.092c.086-.102.469-.423.583-.457c-.114-.286-.194-.286-.343-.783a2.3 2.3 0 0 1-.046-.994c-.188.057-.56.314-.617.423"/><path fill="#BD0A30" d="M7.198 11.306c-.114-.069-.137-.172-.268-.183c.017.103.514 1.04.571 1.092c.326-.11.423-.184.595-.052c.246.189.223.194.423.366l.131-1.058c-.337.018-.703-.017-.96-.234l-.092-.08c-.057.091-.045.143-.045.263a1 1 0 0 1-.355-.114m9.077-6.334c.115-.028.326-.171.366-.245c.04-.069.04-.172.034-.252c-.011-.183-.331-.371-.468-.48c-.292-.24-.818-.554-1.166-.72q-.436-.225-.91-.36c.058.057.195.131.31.211l.308.229c.297.211.583.469.817.731c.172.19.612.67.71.886M6.038 12.403c.229.114.023-.16.377.32c.286.4.086.206.183.497c.04.063.109.138.16.2l.172.19l.045-.132c.018-.155.058-.309.023-.423c-.194-.114-.183-.075-.303-.263c-.228-.355-.251-.91-1-1.79a1.75 1.75 0 0 1-.4-.702c.063.674.451 1.583.743 2.103m11.003-6.207c-.006.068.04.125.08.2l.286.64c.331.04.406-.017.715.126c.337.171.354.297.457.371c-.052-.434-.452-1.143-.515-1.383c-.388 0-.64 0-1.023.046m-.611-1.018c.068.115.154.246.228.383c.069.12.166.292.246.412c.114.011.354-.029.48-.046c.172-.017.354 0 .514-.017a6 6 0 0 0-.988-1.28c-.08.394-.217.342-.48.548m-3.733 11.255c.166 0 .223-.023.229.148a.9.9 0 0 1-.034.326h-.195zm-.257-.315c.051.235.028.618.023.875l-.029.835h.286c0-.092-.08-.515.006-.6c.114.022.2.457.171.61l.343.018c-.029-.103-.108-.246-.149-.394c-.102-.355-.068-.218.035-.4c.068-.12.028-.372.034-.526c0-.24-.051-.252-.154-.4zm-.326.83c0 .308.046.554-.114.56c-.149 0-.12-.098-.115-.218v-.32c0-.251-.04-.526.092-.554c.223-.035.131.4.131.531zm.08.874c.057-.143.143-.149.149-.343v-.509c0-.503.074-.554-.143-.857l-.389-.006c-.217.332-.154.274-.16.84l-.006.503c0 .24.063.2.138.372zm2.178-1.023c-.006-.246-.052-.297.2-.275c.023.092.017.189.023.298a.6.6 0 0 0 .228-.126c.018-.218 0-.258-.114-.4c-.057-.08-.051-.063-.171-.075c-.086-.005-.172-.017-.258-.011c-.2.212-.154.423-.137.76c.046.034.412.355.429.4c.006.023.057.28-.12.258c-.137-.018-.103-.172-.097-.303l-.235.102c0 .55.137.526.538.55c.148-.247.188-.212.154-.733c-.006-.114-.343-.388-.44-.451zm-4.098-.052c0-.12-.04-.291.125-.285c.132 0 .103.056.097.285c.103-.034.132-.097.235-.137c.011-.246 0-.309-.143-.463c-.572-.023-.56.183-.549.812c.092.051.406.268.429.36c.028.114 0 .251-.137.24c-.12-.012-.086-.149-.086-.286l-.229.143c-.028.303.006.286.126.492l.394-.03c.063-.085.16-.21.172-.336v-.48c-.149-.075-.28-.24-.434-.315m-.36 1.103l.017-.102l.022-.2c-.171.062-.24.068-.468.08c-.023-.47-.023-.515.326-.424v-.4c-.132.058-.143.058-.315.058l.012-.343c.177-.017.24-.029.411.011l-.051-.332l-.618.046c.046.429.023 1.36-.045 1.79l.674-.092c.034-.057.017-.012.034-.092m1.177-1.246c0-.114-.029-.177.103-.171c.114 0 .114.046.12.148c.011.315 0 .35-.229.32zm.326-.486l-.572.012c-.011.526.057 1.212-.034 1.726l.303-.011a1.7 1.7 0 0 1-.023-.612l.297-.017c.172-.177.154-.257.16-.543c.006-.549-.011-.286-.131-.555"/><path fill="#ADAAA9" d="M9.702 3.732c.046.046.463.2.629.326c.046.028.069.057.114.091c.195.132.08.097.212.172c.057-.018.354-.23.514-.31c-.068-.29-.44-.57-.674-.742c-.029.091-.183.114-.372.228a2.5 2.5 0 0 0-.36.258z"/><path fill="#AEAAA9" d="M10.627 3.24c.183.086.31.126.486.235c.172.108.275.194.389.36c.137-.035.263-.115.412-.126a.7.7 0 0 0-.235-.326l-.326-.246c.412.103.675.303.858.526c.131.154.24.172.251.44c.006.229-.057.406-.068.623c.171-.143.48-1.217-.492-1.6c-.011.011-.543-.023-.629-.012c-.194.023-.525.126-.646.126"/><path fill="#A40B2D" d="M12.417 14.455v-1.189c0-.732.063-.417.331-.863l.87.006c.056.068.348.394.348.468l.006 2.264c-.012.114-.132.211-.212.297c-.194.234-.108.149-.846.131c-.217-.005-.211-.074-.309-.194c-.257-.337-.188-.2-.188-.914zm-.075.686c.006.051.23.303.27.366c.142.171.074.131.49.148c.6.017.52.097.75-.194c.188-.24.205-.171.2-.434c-.006-.475.023-1.95-.006-2.172c-.011-.098-.206-.298-.269-.378c-.154-.2-.171-.148-.486-.148c-.543-.006-.514-.098-.76.228c-.246.315-.194.189-.194.732c0 .36-.023 1.692 0 1.852z"/><path fill="#ADAAA9" d="m9.084 4.423l.675.366c.074.046.154.115.217.137c.069-.057.114-.114.189-.182c.074-.07.131-.086.206-.183c-.046-.103-.252-.343-.32-.412l-.43-.326c-.016.046-.01.023-.04.057c-.165.212-.33.28-.497.543"/><path fill="#BD0A30" d="M13.292 16.49c.114-.034.097-.04.245-.029c.046.24-.028 1.298-.011 1.412l.286.023c-.058-.286-.058-1.126-.023-1.423c.171.005.126.011.251.057a.9.9 0 0 0-.057-.343a2.7 2.7 0 0 0-.652-.04z"/><path fill="#AEAAA9" d="m8.679 4.96l.034.03l.72.548c.126-.114.16-.229.258-.286a3 3 0 0 0-.515-.571l-.114-.08l-.109-.086c.006.103.012.04-.057.12l-.08.103c-.057.08-.097.131-.137.223"/><path fill="#A60C30" d="M10.937 4.95c-.086.028-.08 0-.189-.023c-.08-.018-.108 0-.148-.04a2.7 2.7 0 0 0-.583.657c.228 0 .411.057.594.114a1.3 1.3 0 0 0 .326-.709"/><path fill="#A40D30" d="M13.063 14.912c-.102-.223-.045-.651-.045-.937c0-.263-.046-.715.04-.915c.171-.011.308-.046.308.137v.778c.006 1.029.08.972-.303.937m-.12-.046c.018.08.092.12.183.126c.418.034.32-.114.32-.629c0-.251.035-1.057 0-1.246c-.051-.217-.4-.137-.457-.091c-.103.097-.051.417-.051.583c0 .206-.029 1.137 0 1.258z"/><path fill="#AEAAA9" d="M6.496 5.2c-.057-.04-.069-.096-.091-.165c-.029-.074-.058-.12-.046-.189c-.109.063-.303.412-.383.56c-.04.063-.137.252-.137.32c0 .138.085.252.108.378l.069-.109c.154-.36.274-.497.48-.794m-.211-.52l-.086-.48c-.126.07-.275.303-.372.452c-.171.274-.137.263-.091.617l.514-.548l.017-.012l.012-.011zm-1.27 1.778v.212c.052-.017.086-.143.104-.177l.245.057c-.017.114-.034.206-.023.331l.08-.114c.126-.223.258-.154.35-.16a.3.3 0 0 0-.087-.143l-.017-.011l-.051-.018c-.16-.034-.2-.017-.469-.108c-.303-.103-.423-.212-.617-.32c.086.228.343.343.486.451"/><path fill="#A40B2D" d="M5.827 13.277c.074.115.068.058.068.24c0 .115.012.184-.028.264a1.4 1.4 0 0 1-.315.297v-.783l.28-.018zm-.355-.057v1.023a1.2 1.2 0 0 0 .229-.188c.097-.092.131-.069.211-.206c.086-.137.063-.171.063-.354c0-.178-.011-.2-.114-.298z"/><path fill="#AEAAA9" d="m6.181 4l-.006-.44l-.291.412c-.149.205-.195.205-.212.508l.263-.228c.177-.206.2-.149.246-.252"/><path fill="#A40B2D" d="M5.546 15.49c0-.143-.028-.378.04-.475a1.2 1.2 0 0 1 .286-.234c.034.091.04.377.023.497c-.017.189-.16.189-.349.211m-.08.09c.263-.04.475-.028.515-.28v-.388c0-.143-.029-.194-.126-.251c-.114.114-.257.257-.383.331v.589z"/><path fill="#9B0F31" d="m18.259 14.546l.217.04l-.108-.983c-.057.114-.115.778-.115.943z"/><path fill="#A30D31" d="m7.375 14.346l.212-.017c.029-.126-.069-.714-.086-.886c-.068.143-.103.703-.126.903"/><path fill="#BD0A30" d="m8.672 11.306l.03-.36l-.355-.035c.023.172.2.366.325.395"/><path fill="#AEAAA9" d="m6.198 3.383l.023-.166a2.4 2.4 0 0 0-.44.423a.6.6 0 0 0-.07.235z"/><path fill="#CA0231" d="M10.593 4.887c.046.034.075.022.155.04c.108.022.103.051.188.022l.057-.4c-.103.046-.137.097-.211.155c-.097.074-.114.08-.189.183"/><path fill="#A70D31" d="m17.544 10.71l.131.481v-.011l.012-.023l.011-.034c.023-.098.086-.498.035-.572z"/><path fill="#A60C30" d="M6.17 7.327c.034.109.09.143.13.24c.132-.08.155-.223.212-.171a.44.44 0 0 0 .109-.166c-.103-.017-.149 0-.24.034c-.149.046-.143.08-.217.057z"/><defs><linearGradient id="tokenBrandedBkn0" x1="12.013" x2="12.013" y1="2" y2="22" gradientUnits="userSpaceOnUse"><stop offset=".55" stop-color="#D9D9D9"/></linearGradient><linearGradient id="tokenBrandedBkn1" x1="12" x2="12" y1="2" y2="22" gradientUnits="userSpaceOnUse"><stop offset=".55" stop-color="#D9D9D9"/></linearGradient><linearGradient id="tokenBrandedBkn2" x1="12" x2="12" y1="2" y2="22" gradientUnits="userSpaceOnUse"><stop offset=".55" stop-color="#D9D9D9"/></linearGradient><linearGradient id="tokenBrandedBkn3" x1="11.98" x2="11.98" y1="2" y2="21.995" gradientUnits="userSpaceOnUse"><stop offset=".55" stop-color="#D9D9D9"/></linearGradient><linearGradient id="tokenBrandedBkn4" x1="11.999" x2="11.999" y1="2" y2="22" gradientUnits="userSpaceOnUse"><stop offset=".55" stop-color="#D9D9D9"/></linearGradient><linearGradient id="tokenBrandedBkn5" x1="11.98" x2="11.98" y1="1.992" y2="22" gradientUnits="userSpaceOnUse"><stop offset=".55" stop-color="#D9D9D9"/></linearGradient><linearGradient id="tokenBrandedBkn6" x1="11.986" x2="11.986" y1="2" y2="22" gradientUnits="userSpaceOnUse"><stop offset=".55" stop-color="#D9D9D9"/></linearGradient><linearGradient id="tokenBrandedBkn7" x1="12.056" x2="12.056" y1="2" y2="22" gradientUnits="userSpaceOnUse"><stop offset=".55" stop-color="#D9D9D9"/></linearGradient></defs></g></svg>