<svg xmlns="http://www.w3.org/2000/svg" xmlns:xlink="http://www.w3.org/1999/xlink" width="24" height="24" viewBox="0 0 24 24"><g fill="none"><path fill="#1A8DCE" d="M8.477 3.667c.455-.006 1.188.222 1.777.355c2.078.556 4.356.362 6.167 1.378c.783.445 1.46 1.111 1.977 1.845c1.673 2.366 1.567 5.4 1.628 5.788c.5.256 1.589 1.034 1.961 1.973c.05.122-.055.216-.166.138a2.4 2.4 0 0 1-.667-.772c.183.345.433 1.206.122 2.133c-.039.134-.2.134-.222 0a1.9 1.9 0 0 1 .039-.86c-1.672 4.46-11.389 6.5-16.455 2.677c-.928-.7-1.661-1.55-1.95-2.678c0 .395.111.99-.133.99c-.178 0-.462-.495.088-1.929c-.155.306-.405.873-.6.767c-.2-.133.273-1.039 1.8-2.372c0-2.15 0-6.86 5.434-8.333c-.817.044-2.445.055-2.445-.239c0-.3 2-.289 3-.244c-.778-.05-1.222-.178-1.444-.306c-.306-.167-.223-.306.089-.311"/><path fill="#63A5C2" d="M8.193 3.773c.278.022.789.088 1.483.222c.428.089.778.183 1.111.272c.495.133.934.25 1.517.3c.955.089 1.844.206 2.155.289c3.117.794 4.334 3.266 4.95 4.533l.111.228a8.1 8.1 0 0 0-1.122-2.372A6.25 6.25 0 0 0 16.42 5.4c-1.127-.633-2.439-.8-3.766-.966q-1.214-.126-2.4-.411L9.81 3.91c-.484-.122-.99-.25-1.334-.244c-.166 0-.266.044-.278.106z"/><path fill="#F7F4DD" d="M20.387 16.878c-2.817 3.572-11.178 4.894-15.75 1.444a6.4 6.4 0 0 1-1.111-1.05a4 4 0 0 1-.239-1.8c.089-.788 1.144-1.7 1.667-1.933c-.334-4.5 3.633-8.927 7.055-4.36c5.055-5.312 6.922 3.021 6.922 4.538c1.917.41 1.805 1.955 1.456 3.16"/><path fill="#E0DDBA" d="M21.02 16.222c0-.166.012-.36.073-.577c-1.672 4.46-11.389 6.5-16.455 2.677c-.928-.7-1.661-1.55-1.95-2.677l.011.31c.022.334.044.679-.144.679c-.178 0-.462-.495.088-1.934l-.055.112c-.156.316-.372.755-.545.66c-.2-.133.273-1.038 1.8-2.372c0-2.01 0-6.272 4.456-8.01l.022.005c-3.783 1.956-4.011 5.989-3.65 8.533a3.13 3.13 0 0 0 0 3.367c.595.977 1.633 1.639 2.889 2.055c2.472.834 5.289.778 7.789.122c4.666-1.222 5.727-4.277 5.7-4.622c.1.256.222.94-.029 1.672"/><path fill="#171B1A" d="M8.27 8.228c-1.132 0-1.421.44-1.421.667c.289-.367.988-.428 1.405-.405a.14.14 0 0 0 .139-.123a.13.13 0 0 0-.122-.139m6.695.117c1.133 0 1.422.433 1.422.656c-.289-.361-.989-.423-1.405-.4a.134.134 0 0 1-.145-.123a.13.13 0 0 1 .128-.133"/><path fill="#E9E5A5" d="M7.938 14.572c1.378 0 2.495-1.129 2.495-2.522S9.316 9.528 7.938 9.528c-1.377 0-2.494 1.13-2.494 2.522c0 1.393 1.117 2.522 2.494 2.522"/><path fill="#E4E3E3" d="M9.987 12.178c0 1.278-.944 2.306-2.11 2.306c-1.167 0-2.117-1.033-2.117-2.306c0-1.266.944-2.3 2.11-2.3c1.167 0 2.117 1.034 2.117 2.3"/><path fill="#000" fill-rule="evenodd" d="M7.87 14.428c1.134 0 2.056-1 2.056-2.25c0-1.244-.922-2.244-2.055-2.244c-1.128 0-2.056 1-2.056 2.244c0 1.25.928 2.25 2.056 2.25m0 .056c1.167 0 2.117-1.033 2.117-2.306c0-1.266-.944-2.3-2.11-2.3c-1.167 0-2.117 1.034-2.117 2.3c0 1.278.944 2.306 2.11 2.306" clip-rule="evenodd"/><path fill="#9ACA5A" d="M7.849 14.178c.883 0 1.6-.796 1.6-1.777c0-.982-.717-1.778-1.6-1.778s-1.6.796-1.6 1.778c0 .981.716 1.777 1.6 1.777"/><path fill="#211E1F" d="M7.849 13.823c.638 0 1.155-.55 1.155-1.228s-.517-1.228-1.155-1.228c-.639 0-1.156.55-1.156 1.228s.517 1.227 1.156 1.227"/><path fill="#fff" d="M8.744 12.117c.27 0 .489-.216.489-.483a.486.486 0 0 0-.49-.484a.486.486 0 0 0-.488.484c0 .267.219.483.489.483M7.316 13.65a.178.178 0 1 0 0-.355a.178.178 0 0 0 0 .355"/><path fill="#fff" d="M7.87 13.595c-.5 0-.905-.322-.95-.734v.073c0 .5.5.777.95.66"/><path fill="#E9E5A5" d="M15.548 14.572c1.378 0 2.495-1.129 2.495-2.522s-1.117-2.522-2.495-2.522c-1.377 0-2.494 1.13-2.494 2.522c0 1.393 1.117 2.522 2.494 2.522"/><path fill="#E4E3E3" d="M17.598 12.14c0 1.271-.944 2.3-2.11 2.3c-1.167 0-2.117-1.028-2.117-2.3c0-1.279.944-2.306 2.11-2.306c1.167 0 2.117 1.033 2.117 2.305"/><path fill="#000" fill-rule="evenodd" d="M15.482 14.39c1.133 0 2.055-1.006 2.055-2.25c0-1.25-.922-2.25-2.055-2.25c-1.128 0-2.056 1-2.056 2.25c0 1.244.928 2.244 2.056 2.244zm0 .055c1.166 0 2.116-1.033 2.116-2.306c0-1.277-.944-2.305-2.11-2.305c-1.167 0-2.117 1.033-2.117 2.305s.944 2.3 2.11 2.3z" clip-rule="evenodd"/><path fill="#9ACA5A" d="M15.482 14.178c.896 0 1.622-.806 1.622-1.8s-.726-1.8-1.622-1.8s-1.622.806-1.622 1.8s.726 1.8 1.622 1.8"/><path fill="#211E1F" d="M15.57 13.74c.65 0 1.178-.55 1.178-1.229c0-.678-.527-1.227-1.178-1.227s-1.177.55-1.177 1.227c0 .679.527 1.228 1.177 1.228"/><path fill="#fff" d="M16.132 11.767a.44.44 0 0 0 .444-.439a.44.44 0 0 0-.444-.438a.44.44 0 0 0-.445.438c0 .243.2.44.445.44m-.717 1.972a.178.178 0 1 0 0-.356a.178.178 0 0 0 0 .355"/><path fill="#fff" d="M16.06 13.4c-.456.2-.962.067-1.173-.289l.028.072c.206.456.778.506 1.144.217"/><path fill="#61A6C1" d="M6.871 4.606c.8.039 3.111-.172 3.095-.256c-.006-.028-.095-.055-.206-.066c-1.022-.045-2.933-.05-2.933.244q.002.043.044.078"/><path fill="#FCB017" d="M13.37 15.361a3.3 3.3 0 0 0-1.488 1.028a.22.22 0 0 1-.322 0a3.7 3.7 0 0 0-1.572-1.028a3.2 3.2 0 0 0-1.223-.1c-.1.017-.2-.122-.138-.194c.61-.723 1.944-1.745 3.055-1.745c1.105 0 2.444 1.022 3.056 1.745c.055.072-.045.21-.14.194a3.2 3.2 0 0 0-1.227.1"/><path fill="#FCB017" d="M11.882 16.389a3.3 3.3 0 0 1 1.49-1.028a3.3 3.3 0 0 1 1.038-.116l-.172.238c-.856 1.162-2.2 2.995-2.556 2.995s-1.905-2.128-2.677-3.233c.266-.011.61.016.983.11a3.7 3.7 0 0 1 1.572 1.04a.23.23 0 0 0 .161.069a.22.22 0 0 0 .161-.07z"/><path fill="#F6981A" d="m9.02 15.267l.023-.028h.111c1.111 1.45 2.283 2.95 2.544 2.95c.267 0 1.445-1.5 2.55-2.944h.123l.022.022l-.156.216c-.855 1.162-2.2 2.995-2.555 2.995c-.35 0-1.883-2.095-2.661-3.211"/><path fill="#5E160F" d="M13.37 15.362a3.3 3.3 0 0 0-1.488 1.027a.22.22 0 0 1-.322 0a3.7 3.7 0 0 0-1.572-1.027a3.6 3.6 0 0 0-.628-.112c.655.84 2.016 2.478 2.317 2.478c.166 0 .522-.428.95-.956a11.5 11.5 0 0 1 1.41-1.522c-.2.011-.427.045-.666.111"/><path fill="#F19699" d="M12.47 16.967c-.205-.25-.444-.461-.682-.49c-.434-.05-.75.367-.867.617c.344.373.639.634.756.634c.15 0 .438-.328.794-.761"/><path fill="#751F12" d="M12.649 16.75c.422-.516.916-1.11 1.389-1.5c-.2.011-.428.045-.667.111a2.2 2.2 0 0 0-.5.206zm-2.572-1.36l-.09-.029a3.6 3.6 0 0 0-.627-.11a39 39 0 0 0 1.21 1.46a12 12 0 0 0-.494-1.322"/><path fill="#FCB74B" d="M10.32 13.722c.422.234 1.095.584 1.311.584c.228 0 .945-.373 1.361-.612c-.439-.222-.888-.372-1.31-.372c-.44 0-.912.161-1.362.395z"/><path fill="#D06F28" fill-rule="evenodd" d="M11.682 13.362c-.544 0-1.15.255-1.694.6a6.3 6.3 0 0 0-1.334 1.133c-.005.017-.01.044.017.078c.022.033.056.055.083.05a3.2 3.2 0 0 1 1.245.1a3.8 3.8 0 0 1 1.594 1.044c.067.072.195.072.256 0c.396-.482.92-.844 1.51-1.044a3.2 3.2 0 0 1 1.245-.1q.042 0 .084-.05c.027-.034.027-.061.016-.078a6 6 0 0 0-1.333-1.133a3.37 3.37 0 0 0-1.689-.6m0-.084c-.567 0-1.189.261-1.739.611a6 6 0 0 0-1.35 1.156c-.05.055-.028.128.006.178c.039.044.1.089.166.083a3.1 3.1 0 0 1 1.211.095a3.7 3.7 0 0 1 1.556 1.022c.1.11.283.11.383-.006c.385-.468.893-.82 1.467-1.017c.394-.11.805-.142 1.211-.094c.067.006.133-.039.167-.083c.033-.05.055-.123.005-.178a6.1 6.1 0 0 0-1.35-1.156c-.55-.35-1.166-.61-1.733-.61" clip-rule="evenodd"/></g></svg>