<svg xmlns="http://www.w3.org/2000/svg" xmlns:xlink="http://www.w3.org/1999/xlink" width="24" height="24" viewBox="0 0 24 24"><path fill="#275589" d="M12 5.273A1.637 1.637 0 1 0 12 2a1.637 1.637 0 0 0 0 3.273M12 22a1.636 1.636 0 1 0 0-3.272A1.636 1.636 0 0 0 12 22m.584-15.844h-1.168v2.337h1.168zm0 9.35h-1.168v2.338h1.168zM5.273 12A1.636 1.636 0 1 0 2 12a1.636 1.636 0 0 0 3.273 0m15.09-1.636a1.637 1.637 0 1 1 0 3.274a1.637 1.637 0 0 1 0-3.274m-14.207 2.22v-1.168h2.337v1.168zm9.35 0v-1.168h2.338v1.168zm-8.27-7.65A1.637 1.637 0 1 1 4.92 7.248a1.637 1.637 0 0 1 2.314-2.314m11.83 14.132a1.637 1.637 0 1 0-2.316-2.315a1.637 1.637 0 0 0 2.316 2.315M8.763 7.082L7.091 8.764l1.545 1.554l1.673-1.682zm6.574 6.573l-1.683 1.682l1.554 1.555l1.673-1.682zm1.422-6.413a1.64 1.64 0 0 0 2.314 0a1.637 1.637 0 1 0-2.314 0M7.242 19.06a1.637 1.637 0 1 1-2.315-2.315a1.637 1.637 0 0 1 2.315 2.315m2.913-5.215a2.607 2.607 0 0 0 4.256-.847a2.61 2.61 0 0 0-.566-2.843a2.61 2.61 0 0 0-3.69 3.69m6.772-5.081l-1.7-1.691l-1.555 1.554l1.701 1.7zm-6.573 6.581l-1.7-1.7L7.1 15.2l1.7 1.69z"/></svg>