<svg xmlns="http://www.w3.org/2000/svg" xmlns:xlink="http://www.w3.org/1999/xlink" width="24" height="24" viewBox="0 0 24 24"><g fill="#F7B718"><path d="M8.5 2a3.277 3.277 0 0 0-3.265 3.294v3.07c0 .942.695 3.107.695 3.107a5.26 5.26 0 0 1 1.658-1.918v-5.2H12c2.241 0 4.377 2.206 4.377 4.47c0 2.177-1.671 4.089-3.924 4.089c-1.035 0-2.118-.47-2.67-.736c-.706.412-1.342 1.589-1.342 2.177c1.036.582 2.741 1.176 4.012 1.176c3.482 0 6.312-2.74 6.312-6.258v-.906C18.765 4.847 15.94 2 12.453 2z"/><path d="M5.235 18.706C5.235 20.529 6.7 22 8.5 22h3.953c3.047 0 5.03-1.912 5.859-4.412c.53-1.594.517-3.217.106-4.823a6.04 6.04 0 0 1-2.041 2.176v.47c-.189 2.083-2.26 4.236-4.377 4.236H7.588v-4.012a4.73 4.73 0 0 1 4.865-4.812c.812 0 1.512.26 2.177.706c.294-.117 1.164-1.294 1.164-2.176a6.45 6.45 0 0 0-3.341-.988a7.247 7.247 0 0 0-7.218 7.27z"/></g></svg>