<svg xmlns="http://www.w3.org/2000/svg" xmlns:xlink="http://www.w3.org/1999/xlink" width="24" height="24" viewBox="0 0 24 24"><g fill="none"><path fill="#0EEBFF" d="m6.375 14.094l-.9-1.47L2 18.55L10.125 22l-1.25-1.875l-4.769-2.075zm11.25 0l.9-1.47L22 18.55L13.875 22l1.25-1.875l4.769-2.075z"/><path fill="url(#tokenBrandedBrn0)" d="M10.125 10.75L12 7.625l1.875 3.125l-.694 1.544l.694 1.581L12 17l-1.875-3.125l.694-1.581zm1.875 5l1.106-1.875l-.312-.85l-.17.225v-1.363l.4-1.137L12 8.875l-1.025 1.875l.4 1.137v1.363l-.169-.225l-.313.85z"/><path fill="url(#tokenBrandedBrn1)" d="M7.625 9.294L12 2l4.375 7.294l-.825 1.456L12 4.8l-3.55 5.95z"/><path fill="url(#tokenBrandedBrn2)" d="M2 5.125L12 22L22 5.125L14.075 2l1.05 1.875l4.756 1.744L12 19.087L4.119 5.625l4.756-1.75L9.925 2z"/><defs><linearGradient id="tokenBrandedBrn0" x1="12" x2="12" y1="2" y2="22" gradientUnits="userSpaceOnUse"><stop stop-color="#19F1FE"/><stop offset=".5" stop-color="#7F6EFB"/><stop offset="1" stop-color="#8450FD"/></linearGradient><linearGradient id="tokenBrandedBrn1" x1="12" x2="12" y1="2" y2="22" gradientUnits="userSpaceOnUse"><stop offset=".18" stop-color="#3636E5"/><stop offset="1" stop-color="#1CA4FD"/></linearGradient><linearGradient id="tokenBrandedBrn2" x1="12" x2="12" y1="2" y2="22" gradientUnits="userSpaceOnUse"><stop stop-color="#C63FFF"/><stop offset=".49" stop-color="#6D5FFE"/><stop offset="1" stop-color="#268EF5"/></linearGradient></defs></g></svg>