<svg xmlns="http://www.w3.org/2000/svg" xmlns:xlink="http://www.w3.org/1999/xlink" width="24" height="24" viewBox="0 0 24 24"><g fill="none"><path fill="#020929" d="M22 12a10 10 0 1 1-20 0a10 10 0 0 1 20 0"/><path fill="#549F4C" fill-rule="evenodd" d="M12 21.618a9.635 9.635 0 1 0 0-19.27a9.635 9.635 0 0 0 0 19.27m0 .129a9.765 9.765 0 1 0 0-19.53a9.765 9.765 0 0 0 0 19.53" clip-rule="evenodd"/><path fill="#549F4C" fill-rule="evenodd" d="M12 21.112a9.194 9.194 0 1 0 0-18.389a9.194 9.194 0 0 0 0 18.389m0 .13A9.327 9.327 0 1 0 5.407 5.318A9.324 9.324 0 0 0 12 21.235z" clip-rule="evenodd"/><path fill="#F0F3FA" d="M9.812 15.706a3.7 3.7 0 0 1-.388-1.224c-.135-1.323-.17-2.647-.23-3.976l-.017-.782c-.018-1.306-.053-2.636.018-3.942a.06.06 0 0 1 .058-.058c.565-.083 1.118-.13 1.671-.224q.025-.002.024.024c.023 2.694.082 5.382.258 8.076c.012.241.03.506.095.73c.176.646.582 1.1 1.2 1.34c.253.1.511.095.776.077a1.74 1.74 0 0 0 1.065-.53a.06.06 0 0 1 .082 0l1.394 1.295q.018.018 0 .03q-.406.416-.882.752a3.33 3.33 0 0 1-1.989.518a2.53 2.53 0 0 1-1.482-.365c-.188-.118-.435-.247-.617-.418a3.5 3.5 0 0 1-1.036-1.323"/><path fill="#F0F3FA" d="M14.7 14.677c.353-.842.23-1.765-.412-2.424a1.7 1.7 0 0 0-1.23-.5q-.853.045-1.705.123q-.045-1.014-.077-2.029c0-.012.006-.023.024-.023q.817-.087 1.635-.153a3.35 3.35 0 0 1 1.677.294a3.8 3.8 0 0 1 2.106 2.611c.129.783.176 1.53-.03 2.312a4.7 4.7 0 0 1-.694 1.4h-.006l-1.394-1.317a.064.064 0 0 1-.012-.083a1.4 1.4 0 0 0 .118-.211"/><path fill="#5FD117" d="M8.941 10.912q.037.44.047.87c0 .106 0 .294-.135.294a39 39 0 0 0-1.935.171c-.071 0-.106-.03-.106-.1a21 21 0 0 1-.047-1.777c0-.14.258-.146.364-.158l1.683-.17a.083.083 0 0 1 .088.076c.03.264.023.564.041.794"/></g></svg>