<svg xmlns="http://www.w3.org/2000/svg" xmlns:xlink="http://www.w3.org/1999/xlink" width="24" height="24" viewBox="0 0 24 24"><g fill="#272D63"><path d="m12.436 2l-.741 2.767l-3.873-1.038l-.594 2.213l1.66.445a.573.573 0 0 1 .405.702l-2.075 7.747a.573.573 0 0 1-.702.405l-1.107-.297l-1.146 2.065l3.873 1.038l-.741 2.767l1.66.445l2.372-8.854l1.937.52c2.175.582 5.623.043 6.295-2.466c.545-2.034-1.877-4.062-3.538-4.506l.742-2.767l-1.66-.445l-.741 2.767l-1.107-.296l.741-2.767zm.326 5.425l2.245.602a1.718 1.718 0 1 1-.89 3.32l-2.245-.602z"/><path d="M13.465 17.103a2.005 2.005 0 0 0 2.044-3.239c1.36-.001 1.786-.167 2.557-.467l.243-.094c.816.976 1.165 2.275.826 3.54c-.55 2.052-3.264 3.125-5.462 2.678l-.003.009l-1.106-.297L11.822 22l-1.66-.445l1.335-4.98z"/></g></svg>