<svg xmlns="http://www.w3.org/2000/svg" xmlns:xlink="http://www.w3.org/1999/xlink" width="24" height="24" viewBox="0 0 24 24"><path fill="#6C5A5A" d="m6.83 11.38l-1.75 3.7l.81 3.03l2.07.55l2.56 2.56l-.77.78l-6.11-1.64L2 14.25l6.57-6.57zl-1.75 3.7l5.44-5.45l-1.95-1.95zm2.8 2.1l5.44 5.44l3.04-.81l.55-2.07l2.56-2.56l.78.77l-1.64 6.11L14.25 22l-6.57-6.57zm4.74-2.96L8.93 5.08l-3.04.81l-.55 2.07l-2.56 2.56L2 9.75l1.64-6.11L9.75 2l6.57 6.57zm1.67-5.18l-2.56-2.56l.77-.78l6.11 1.64L22 9.75l-6.57 6.57l-1.95-1.95l5.44-5.45l-.81-3.03z"/></svg>