<svg xmlns="http://www.w3.org/2000/svg" xmlns:xlink="http://www.w3.org/1999/xlink" width="24" height="24" viewBox="0 0 24 24"><g fill="none"><path fill="url(#tokenBrandedBtse0)" d="M12.415 18c1.696 0 2.674-.859 2.674-2c0-1.058-.863-2-2.732-2h-3.69v4zm-.748-8c1.696 0 2.588-.86 2.588-2c0-1.057-.92-2-2.588-2h-3v4zM3.333 2h9.656c2.53 0 4.313.873 5.492 2.014c.805.78 1.294 1.81 1.294 3.145v.054c0 2.255-1.322 3.59-3.105 4.342c2.444.779 3.997 2.114 3.997 4.758v.055c0 3.34-2.818 5.632-7.62 5.632H3.333z"/><defs><linearGradient id="tokenBrandedBtse0" x1="4.726" x2="20.774" y1="1.286" y2="21.825" gradientUnits="userSpaceOnUse"><stop stop-color="#007CD0"/><stop offset="1" stop-color="#004EAE"/></linearGradient></defs></g></svg>