<svg xmlns="http://www.w3.org/2000/svg" xmlns:xlink="http://www.w3.org/1999/xlink" width="24" height="24" viewBox="0 0 24 24"><g fill="none"><path fill="url(#tokenBrandedC30)" d="M20.047 9.412c0-3.253-4.965-5.736-7.282-5.736C4.988 3.676 2 10.971 2 14.047s3.03 4.918 4.659 5.641C8.294 20.412 11.529 22 13.74 22c5.883 0 5.718-6.159 5.653-7.353c-.059-1.2.653-2.77.653-5.23z"/><path fill="#CED4CC" d="M12.765 2C19.277 2 22 8.159 22 11.565c0 6.43-4.8 8.223-7.223 7.788c-2.989-.53-3.624-.494-6.853-1.07c-2.67-.477-4.03-3.06-4.03-8.224C3.894 4.418 9.018 2 12.764 2"/><path fill="url(#tokenBrandedC31)" d="M4.088 8.217a10.16 10.16 0 0 1 8.677-4.453c2.317 0 7.282 2.395 7.282 5.653c0 1.383-.223 2.483-.412 3.395c-.147.705-.264 1.306-.235 1.835c.024.535.07 2.088-.423 3.623c-1.142.8-2.412 1.377-3.447 1.377c-1.342.006-2.712-.394-4.042-.577c-.952-.129-1.923-.494-3.564-.788c-2.67-.476-4.03-3.059-4.03-8.223c0-.66.07-1.271.194-1.842"/><path fill="#6D7B55" d="M14.94 8.97c0-2.764-3.105-3.84-4.652-4.029c-4.195 0-7.112 2.988-7.112 7c0 4 4.488 4.765 7.359 4.765c2.876 0 4.406-4.282 4.406-7.735"/><path fill="#525344" d="M13.176 9.141c0-2.076-2.33-2.882-3.494-3.023c-3.141 0-5.33 2.24-5.33 5.247c0 3 3.365 3.576 5.524 3.576c2.153 0 3.3-3.212 3.3-5.8"/><path fill="#31302D" d="M12 9.306c0-1.383-1.554-1.918-2.33-2.012a3.4 3.4 0 0 0-3.553 3.5c0 2 2.241 2.382 3.682 2.382c1.436 0 2.2-2.14 2.2-3.87"/><path fill="#FFFFFE" d="M14.94 10.318a3.32 3.32 0 0 0-2.647-1.26c-1.1 0-2.065.5-2.647 1.26a3.32 3.32 0 0 0-2.659-1.26c-1.776 0-3.223 1.319-3.223 2.942h1.153c0-1.041.929-1.959 2.076-1.959c1.141 0 2.07.918 2.07 1.959h1.16c0-1.041.923-1.959 2.07-1.959s2.07.918 2.07 1.959h1.165c0-1.041.93-1.959 2.071-1.959c1.147 0 2.07.918 2.07 1.959h1.154c0-1.623-1.448-2.941-3.23-2.941c-1.094 0-2.065.5-2.647 1.259z"/><path fill="url(#tokenBrandedC32)" d="M14.94 13.682a3.32 3.32 0 0 1-2.647 1.26a3.32 3.32 0 0 1-2.647-1.26a3.33 3.33 0 0 1-2.659 1.26c-1.776 0-3.223-1.319-3.223-2.942h1.153c0 1.041.929 1.959 2.076 1.959c1.141 0 2.07-.918 2.07-1.96h1.16c0 1.042.923 1.96 2.07 1.96s2.07-.918 2.07-1.96h1.165c0 1.042.93 1.96 2.071 1.96c1.147 0 2.07-.918 2.07-1.96h1.154c0 1.624-1.448 2.942-3.23 2.942a3.32 3.32 0 0 1-2.647-1.259z"/><defs><linearGradient id="tokenBrandedC30" x1="11.035" x2="9.276" y1="15.823" y2="20.823" gradientUnits="userSpaceOnUse"><stop stop-color="#A6BEA7"/><stop offset="1" stop-color="#CBD8C8"/></linearGradient><linearGradient id="tokenBrandedC31" x1="7.371" x2="19.771" y1="9.688" y2="16.506" gradientUnits="userSpaceOnUse"><stop stop-color="#89A682"/><stop offset="1" stop-color="#BFD2AD"/></linearGradient><linearGradient id="tokenBrandedC32" x1="9.94" x2="9.811" y1="12.965" y2="11.4" gradientUnits="userSpaceOnUse"><stop stop-color="#21AD4C"/><stop offset="1" stop-color="#3B493E"/></linearGradient></defs></g></svg>