<svg xmlns="http://www.w3.org/2000/svg" xmlns:xlink="http://www.w3.org/1999/xlink" width="24" height="24" viewBox="0 0 24 24"><g fill="none"><path fill="url(#tokenBrandedCah0)" d="M12 22c5.523 0 10-4.477 10-10S17.523 2 12 2S2 6.477 2 12s4.477 10 10 10"/><path fill="url(#tokenBrandedCah1)" d="M12 19.059A7.059 7.059 0 1 0 12 4.94a7.059 7.059 0 0 0 0 14.118"/><path fill="#F0F3FA" d="M21.966 11.164c-.23.354-.818 1.012-1.094 1.312h-.883l-.13-.076h-1.74l-.047-.118l-.283.194h-1.576l-.324.06c-.67.058-2.117.246-2.535.505l.117-.006c.606-.024 2.724-.106 3.648 1.412h-.212c.37.306 1.117 1.147 1.106 2.123h-.16c.154.253.46.936.46 1.647c0 .706-.2 1.118-.3 1.236l-.16-.147a6.7 6.7 0 0 1-1.064 1.47q-.354.196-.735.365a18 18 0 0 0-.153-1.282l.165-.153a1.4 1.4 0 0 1-.247-.541c-.083-.3-.548-1.165-.771-1.56v-.276l-.206.188c-.13-.329-.465-1.105-.794-1.582c-.13-.165-.141-.365-.13-.441c-.017.106-.058.312-.111.265a53 53 0 0 1-.706-.671c.018-.294-.1-1.012-.67-1.57l.005.235c.036 1.04.13 3.782-2.87 7.953a10 10 0 0 1-2.43-.965a13.3 13.3 0 0 0 4.477-7.141c0-.147.117-.306.182-.37c-.306-.03-1.153.205-2.1 1.352l-.118.147c-.082-.094-.24-.335-.223-.6a1.9 1.9 0 0 0-.377.853c-.176.118-.858.624-.982.924a4.4 4.4 0 0 1-.27-.671a4.6 4.6 0 0 0-.071.747l-1.147.765a1.7 1.7 0 0 1-.047-.618c-.118.177-.165.553-.17.718c-.39.153-1.23.547-1.513.906a2.1 2.1 0 0 1-.364-1.283c0-.647.082-1.705 1.44-3.24a4.87 4.87 0 0 1 2.307-1.454c0-.106.047-.282.07-.353l-.506.353l-1.017-.13l-.577.413l-.617-.077l-.53.47l-1.188.06l-.206.129l-1.006-.082c.424-1.053 1.883-3.153 4.353-3.153a5.78 5.78 0 0 1 4.947 2.73a7 7 0 0 0-.764-1.59l.158-.229h-.247a3.1 3.1 0 0 0-1.188-1.376V8.5l-.147.13A6.3 6.3 0 0 0 7.842 7.5v-.447l-.212.176a2.44 2.44 0 0 0-1.306-.47c0-.224-.082-.63-.117-.806l-.147.217a2.74 2.74 0 0 0-1.706-.617a5.05 5.05 0 0 1 3.153-1.2c1.053 0 1.953.376 2.276.57v-.235c.66.376 1.989 1.306 2.053 1.976h.194c.306.389.947 1.353 1.083 2.153c0 .047-.1.183-.147.247c.082.071.247.312.247.73c0 .417-.065.776-.1.9c.282-.335.959-1.041 1.406-1.177c.07.047.105.148.117.189c.27-.277 1.141-.824 2.489-.824v.182c.393-.094 1.523-.129 2.858.512v.236c.394.105 1.33.5 1.977 1.24z"/><defs><linearGradient id="tokenBrandedCah0" x1="12" x2="12" y1="2" y2="22" gradientUnits="userSpaceOnUse"><stop stop-color="#C16EE0"/><stop offset="1" stop-color="#5026A4"/></linearGradient><linearGradient id="tokenBrandedCah1" x1="12.001" x2="12.001" y1="4.941" y2="19.059" gradientUnits="userSpaceOnUse"><stop stop-color="#914AC4"/><stop offset="1" stop-color="#442281"/></linearGradient></defs></g></svg>