<svg xmlns="http://www.w3.org/2000/svg" xmlns:xlink="http://www.w3.org/1999/xlink" width="24" height="24" viewBox="0 0 24 24"><g fill="#1C430D"><path d="M21.344 17.313c.436 0 .584-.528.512-.82c-.476-.713-1.359-.903-2.092-.903c-.364 0-.692.051-.923.097c.364.513 2.062 1.626 2.503 1.626"/><path fill-rule="evenodd" d="m14.523 8.641l.102.851a.75.75 0 0 0 .318-.102a.41.41 0 0 0 .2-.395a.36.36 0 0 0-.077-.216c-.133-.158-.369-.158-.543-.138m.133 1.067a.9.9 0 0 0 .38-.129c.169-.107.307-.297.297-.6a.6.6 0 0 0-.128-.358c-.205-.231-.549-.236-.81-.18l-.088.02l.252 2l.184-.03l-.087-.718z" clip-rule="evenodd"/><path d="M12.995 8.41c.184.328.338.667.487 1.016l.313.748l-.205.082l-.272-.65l-.656.204c-.077.252-.15.487-.19.651l-.216-.056l.205-.718c.144-.44.293-.872.534-1.277m-.256 1.144l.492-.154l-.241-.523c-.077.18-.164.426-.247.677zm-1.4-.492l-.021-.103l.246-.036l.082.456l-.23.062a.5.5 0 0 0-.134-.149a.35.35 0 0 0-.21-.082c-.026 0-.077.02-.154.082a1.3 1.3 0 0 0-.462.954a.51.51 0 0 0 .534.513c.051 0 .138-.03.251-.103a1.5 1.5 0 0 0 .308-.256l.194.133a1.8 1.8 0 0 1-.358.303a.8.8 0 0 1-.395.138c-.462 0-.785-.338-.785-.728s.21-.846.544-1.113a.53.53 0 0 1 .323-.138c.102 0 .19.026.267.067m-2.713.692l-.052-.287l.226-.031l.051.272c.17-.02.349-.016.477 0l-.03.205a2 2 0 0 0-.41 0l.081.482c.308.04.723.138.723.482c0 .292-.246.502-.523.61l.087.482l-.225.031l-.082-.451l-.128.01c-.19 0-.38-.103-.513-.215l.154-.15c.087.078.225.16.359.16c.02 0 .05 0 .092-.01l-.139-.77a3 3 0 0 1-.333-.051c-.138-.036-.287-.108-.287-.256c0-.257.205-.436.472-.513m.036.205c-.154.051-.283.154-.283.308c0 .036.103.051.124.056q.1.024.23.041l-.066-.415zm.348.646l.118.672c.18-.077.339-.21.339-.4c0-.195-.293-.241-.462-.272zm8.482 1.651c.226.113.616.395 1.077.76a25.5 25.5 0 0 1 2.83 2.615c.18.195.324.38.432.538c.102.154.169.287.169.41c0 .41-.17.826-.641.826c-.205 0-.533-.113-.96-.359c-.414-.236-.937-.615-1.538-1.164l-.317.164c-.893.492-1.77 1.026-2.657 1.528a40 40 0 0 1-2.061 1.103c-.42.205-.939.502-1.416.502c-.323 0-.677-.205-.959-.343a22.3 22.3 0 0 1-5.436-3.815q3.33-.902 6.677-1.734a85 85 0 0 1 4.118-.949a6 6 0 0 1 .682-.082M6.385 15.108a24.7 24.7 0 0 0 5.143 3.564c.257.123.59.323.882.323c.446 0 .944-.298 1.334-.482a37 37 0 0 0 2.05-1.098c.893-.502 1.765-1.035 2.662-1.528a2.4 2.4 0 0 1 .39-.195l.051-.02l.041.036c.475.447.996.842 1.554 1.18c.261.176.56.29.872.332c.359 0 .451-.333.451-.636c0-.05-.04-.169-.138-.317a5 5 0 0 0-.41-.518a25.5 25.5 0 0 0-2.816-2.59c-.44-.349-.81-.615-1.02-.728a5 5 0 0 0-.59.087a85 85 0 0 0-4.103.949a381 381 0 0 0-6.359 1.64z"/><path d="M4.277 6.615c1.451-1.23 3.943-1.794 6.492-1.794c1.272 0 2.154.107 2.785.323c.64.22 1.025.543 1.323.959l.005.005c1.8 3.066 2.498 5.415 2.626 6.215l-.185.03c-.118-.768-.805-3.097-2.595-6.148a2.3 2.3 0 0 0-1.23-.887c-.61-.205-1.467-.313-2.729-.313c-2.533 0-4.974.564-6.374 1.749a6.15 6.15 0 0 0-1.63 2.528a9 9 0 0 0-.58 3.057c0 .938.215 1.625.625 2.076s1.026.688 1.857.688c1.487 0 2.85-.441 3.364-.61l.154-.052l.05.18l-.148.05c-.508.16-1.897.616-3.42.616c-.867 0-1.539-.246-1.99-.749c-.456-.497-.677-1.235-.677-2.2c0-.964.205-2.087.595-3.117a6.34 6.34 0 0 1 1.682-2.606"/><path d="M6.36 9.63c0-1.871.194-3.548.317-4.153c-4.405 1.333-4.584 5.708-4.584 7.333c0 1.631 1.425 2.4 2.682 2.4c1.01 0 2.42-.364 2.994-.548c-.487-.898-1.41-3.16-1.41-5.026z"/></g></svg>