<svg xmlns="http://www.w3.org/2000/svg" xmlns:xlink="http://www.w3.org/1999/xlink" width="24" height="24" viewBox="0 0 24 24"><g fill="none"><path fill="url(#tokenBrandedCarat0)" fill-rule="evenodd" d="M9.5 7c-4.495.94-6.825 5.39-7.5 7.5c.36-.75 2.7-2.5 3.82-3.28L5.5 12l1.445-.315l-.9.47c.54-.185 2.77-.075 3.82 0c-1.8 0-3.3.61-3.82.845c1.75-.28 3.27-.4 4.515-.455L9 16.25h.765l.41-1.25h.81l.2 1.25H12l-1.405-3.71c.975-.04 1.78-.04 2.405-.04l.685-.345l1.565.345l.105.005c.19.015.51.04.8-.115c.36-.185 1.05-.05 1.345.11H16s.25.125.25.32c0 .2-.665.9-1 1.23v-.49c0-.395.165-.655.25-.74h-1v2.945c0 .39-.165.49-.25.49h1.25l-.25-.49v-.98c.165.16.55.585.75.98c.2.39.085.49 0 .49l1.5.245h.935l.23-1.075l.935.225l.4 1.1l1 .25l-1.865-4.5l-1.635 4l-1.5-1.96l1.5-2.04l.68-1.05c-.15-.075-.315-.23.225-.23S21.025 13.4 22 14.5c-.72-4.125-5.68-6.72-8-7.5l.5 1.5s2.78 1.08 2.78 1.315c0 .115-.055.23-.11.35c-.06.115-.115.235-.115.35c0 .08.085.135.2.21c.15.1.345.23.475.495l-1.35-.94h-.45c-.15 0-.42-.34-.645-.625a5 5 0 0 0-.25-.31c-.18-.19-.825.235-1.125.465c-.45-.7-1.435-1.56-1.66-1.56c-.18 0-.96.78-1.26 1.095h-.675c-.115 0-.225.115-.335.235c-.115.115-.225.23-.34.23c-.11 0-.225-.115-.335-.23c-.115-.12-.225-.235-.34-.235c-.18 0-.525.31-.675.465h-.45l-.9.705l-.22-.47C6.54 9.485 8.1 8.815 9 8.5zM12 8.875l-1.01 1.17l.45.47l1.12-.935H12zm-3.26.94v.7l-.225-.235zm-.675.465l-1.565.94l1.57-.47v-.47zm-.67 1.41l2.92-1.645l-.45.705h1.125l-1.35.7l-.45-.23l-1.8.465zm5.615-1.875l1.575 1.4l-1.125-.465l-.45-.94zm1.8 0l-.675.23l.675.235l.225.235zm.675.7l.9.7l-.9-.23zm-3.15.235l-2.02.94l2.02-.705l.9.7h.225l-.225-.465h-.225zM4.3 16.775L3.5 17l1.6-4.5l1.4 4h-.8l-.2-1.075l-.8.225zm2.2-.275l2.25-.235l.25-.93c-.2.185-1.085.385-1.5.465v-2.1c0-.375.165-.62.25-.7H6.5c.25.25.25.35.25.55v2.25c0 .375-.165.62-.25.7m-1.6-1.75l.2-.675l.2.675zm14.235-.675l.23.675H18.9zM14 13.56c-.085-.165-.33-.56-.75-.56c-.25 0-.5.065-.5.315c0 .085.2.275.455.515c.44.415 1.045.98 1.045 1.445c0 .735-.69.98-1.25.98c-.315 0-.565-.1-.75-.17a.8.8 0 0 0-.25-.075v-.735l.18.135c.2.165.44.35.82.35c.42 0 .5-.24.5-.485c0-.16-.265-.4-.57-.685c-.425-.385-.93-.85-.93-1.275c0-.985 1.5-.985 2-.495zm-3.46.49l-.225.57h.45z" clip-rule="evenodd"/><defs><linearGradient id="tokenBrandedCarat0" x1="12" x2="11.875" y1="7" y2="16.525" gradientUnits="userSpaceOnUse"><stop stop-color="#665420"/><stop offset=".2" stop-color="#FBF0B8"/><stop offset=".46" stop-color="#98763B"/><stop offset=".71" stop-color="#FEF2C0"/><stop offset=".86" stop-color="#AEA16D"/><stop offset="1" stop-color="#F2E4B8"/></linearGradient></defs></g></svg>