<svg xmlns="http://www.w3.org/2000/svg" xmlns:xlink="http://www.w3.org/1999/xlink" width="24" height="24" viewBox="0 0 24 24"><g fill="none"><path fill="#90BCCF" d="M7.238 14.652c.185.316.812 1.36 1.063 1.502c.021 1.148.67 2.047 1.57 2.674c2.152 1.494 5.354 1.936 7.814 1.067c.558-.198 1.26-.58 1.605-.88c-.072.442-1.514 1.4-2.065 1.607c-1.354.509-2.875.536-4.285.291a8.4 8.4 0 0 1-2.565-.864c-.937-.503-1.706-1.242-2.404-2.04c-.622-1.169-.698-2.343-.733-3.357"/><path fill="#2D5163" d="M8.178 19.619c-.327-.494-.424-1.012-.42-1.59c.516.4 2.453 3.364 7.203 3.19c1.476-.053 3.053-.487 4.088-1.604l.186-.203c0 1-.742 1.46-.958 1.61c-.947.663-2.278.918-3.42.96c-2.214.118-5.33-.32-6.68-2.363"/><path fill="#374D5A" d="M9.303 16.758c.099.457.625 1.911.818 2.024c.723.42 1.46.755 2.267.978a9.8 9.8 0 0 0 3.82.306c1.358-.166 2.45-.658 3.44-1.543c.947-2.126.675-4.86-.417-6.89a8.3 8.3 0 0 0-.812-1.223c-1.205-.962-3.235-.865-4.354-.576c-1.554.402-3.742 1.806-4.487 3.397c-.33 1.055-.558 2.204-.275 3.527"/><path fill="#ECDE69" d="M9.725 18.506c-1.656-1.274-1.436-3.297-.464-4.95c-.977 3.134.476 4.938.464 4.95"/><path fill="#E2F0F0" d="M2.574 15.02a.92.92 0 0 0-.25.594a.36.36 0 0 1-.205-.248c-.04-.137-.032-.555.343-.753a.9.9 0 0 0 .112.408"/><path fill="#F3968D" d="M7.159 3.146c.355-.264-1.117-1.05-1.667-.824c0 .483.4 1.025.698 1.427l.107.147c.009.012.094-.07.219-.19c.172-.163.42-.4.643-.56m6.5-.794c-.302-.025-.784.496-.937.716c-.154.218.545.666.556.653l.082-.168c.178-.356.421-.845.299-1.201m7.848 11.571a.8.8 0 0 0-.348.118c-.506.286-.666.899-.793 1.428l-.004.378l.01.002l.01.002l.007-.008l.007-.008q.413-.567.818-1.14c-.162.064-.378.038-.562-.015l.038-.006c.098-.017.196-.033.29-.063c.119-.037.235-.08.32-.179c.122-.146.175-.323.207-.509m-17.39 1.534c-.296-.532-.827-.908-1.414-.568c.12.243.423.276.66.302h.004c-.312.158-.561.06-.793-.169a.93.93 0 0 0-.249.594c.192.139.538.094.754.066c-.055.212-.644.17-.78.12c-.01.128-.001.256.006.383l.004.055c.175.076.42-.033.604-.114l.083-.036c-.075.087-.308.342-.308.342s.5.907.823 1.298c.3-.097.516-.296.661-.575c.27-.52.225-1.199-.054-1.698m17.88-1.523c-.148-.068-.297-.059-.448-.03c.02.186.02.37-.065.555c.21-.09.508-.258.513-.525"/><path fill="#E2F0F0" d="M2.299 15.802c-.012.147.001.292.01.438c-.31-.054-.356-.398-.27-.654c.065.102.16.163.26.216"/><path fill="#E2F0F0" fill-rule="evenodd" d="M7.434 10.63a2.8 2.8 0 0 0-.7.156c.186-.48.475-1.366-.212-1.58a1.1 1.1 0 0 0-.359-.048c.85.262.647 1.06.348 1.714c-.137.087-.47.385-.625.564l.194-.112c.572-.334 1.369-.801 1.954-.356c.219.116.054.342-.014.28c-.352-.325-.725-.125-1.031.134c.198-.074.987-.339.956.13a.74.74 0 0 1-.129.339c-.216-.282-.521-.25-.787-.038l.014-.002c.148-.023.3-.047.449-.016c.29.063.223.464.015.588c-.068.04-.158.058-.248.078c-.131.028-.264.056-.332.15a3.8 3.8 0 0 1-.664.72c-1.05.848-1.104-1.4-1.081-1.959c.053-1.281.484-2.505 1.07-3.63l.024-.041q.079-.145.155-.291c.016-.03.029-.031.054-.011c.431.339.964.572 1.493.703h-.004c.366.092.772.175 1.151.175l-.281-.075c-.81-.213-1.634-.43-2.313-.978c-.485-.391-.7-.904-.68-1.525c.02-.596.214-1.136.528-1.635l.06-.095c.228-.364.342-.546.694-.803c.372-.389-1.331-1.047-1.625-.828c-.018-.377.494-.347.746-.327c.565.042 1.108.187 1.653.353c1.083-.16 2.708-.149 3.991.227c.06.02.125.015.18-.013l.067-.031c.338-.163 1.4-.67 1.508-.193c-.296.1-.74.436-.899.664c-.096.136.022.294.076.366l.015.02c.762 1.087 1.64 2.4.442 3.68c-.64.706-1.547.948-2.446 1.095a10 10 0 0 1-.748.094c.245.026.49.033.745.024l-.032.01h.01a6.93 6.93 0 0 0-2.993 2.341c-.01.014-.019.029-.041.022a1.4 1.4 0 0 0-.293-.037zm4.79-3.506c-.51-.132-.823-.467-1.01-.948c-.328.56-.854.77-1.434.949l.104-.07c.317-.21 1.172-.773 1.216-1.144a1.2 1.2 0 0 1-.233-.212c-.134-.165-.084-.306.123-.34q.263-.042.514.048c.123.044.206.165.122.29a.8.8 0 0 1-.244.211c0 .506.462.939.842 1.216m-.55-3.379c-.044.113-.088.225-.095.353c-.009.197.18.19.31.185l.068-.001l.224.005c.406.008.81.015 1.173.244c.218.138.291.321.227.573c-.089.345-.46.682-.806.729c-.627.087-1.104-.958-1.234-1.466c-.3-.171.011-.69.204-.83q-.03.107-.071.208m-1.504-.266a5 5 0 0 1-.154-.256c.215.137.416.412.531.622c.153.274-.004.454-.279.442c-.075-.003-.3.3-.515.59c-.163.22-.32.43-.4.491c-.626.476-1.573.131-1.844-.592c-.257-.686.76-.773 1.187-.784c.39-.008.776.04 1.162.087h.002l.055.007c.13.016.26.031.391.03c.154 0 .172-.027.116-.173a2.7 2.7 0 0 0-.252-.464m5.52 5.104c-.109.041-.333.011-.494-.097c-.054.01-.105-.005-.157-.019l-.057-.014c-1.13-.19-2.734-.218-3.75.459c.254.105.455.32.494.606c.088.657-.626 1.15-1.095 1.473l-.022.014c-.406.28-.934.623-1.432.683l-.06.008c-.254.037-.742.105-.765-.456a1 1 0 0 0-.071.105c-.05.08-.105.168-.164.198a1 1 0 0 1-.238.508c-.012.015-.014.03-.015.049a.47.47 0 0 1-.192.375l-.054.039l-.035.024c-.122.447-.346 1.781-.346 2.112c.03.053.075.14.128.247c.228.454.631 1.255.936 1.255c0-.895.3-1.765.732-2.536c.97-1.73 2.61-3.118 4.481-3.731c1.391-.457 3.053-.607 4.416.032l.003.001c.007.004.015.009.023-.003v-.003l-.001-.007q-.014-.016-.03-.03A6.4 6.4 0 0 0 16.5 8.828a.4.4 0 0 0-.146-.037c-.045-.005-.09-.01-.134-.03l-.014-.005c-.058-.027-.115-.054-.183-.035c-.1.027-.241-.074-.321-.132zm3.004 1.25c-.173-.781-.51-1.455-1.13-1.975c-.163-.136-.378-.276-.608-.427c-.816-.532-1.819-1.187-1.304-2.184c.684-1.328 2.725.227 3.238.874c1.112 1.4 1.572 3.47 1.097 5.218c-.054.23-.247.775-.304.856a9 9 0 0 0-.887-1.57a4 4 0 0 1-.102-.792M6.47 15.407c-.463-.422-1.294-.425-1.848-.353c-.068.008 1.23 1.912 1.331 2.061l.006.009c-.43-.18-.846-.806-1.072-1.192q-.13-.223-.253-.46c-.203-.38-.41-.768-.695-1.083c-.265-.29-.61-.379-.96-.247c-.323.122-.443.448-.276.747c.241-.121.476-.166.736-.053c.8.345 1.123 1.567.733 2.319a1.13 1.13 0 0 1-.661.575l.01.014l.016.025c.544.72 1.295 1.584 2.211 1.78c.406.179.99.1 1.372-.11c.475-.262.471-.76.467-1.214c-.001-.129-.002-.255.008-.37v-.006c.003-.033.007-.064-.01-.097a8.33 8.33 0 0 1-.678-4.814l-.13.138a6 6 0 0 1-.176.188l-.001-.001l-.028.026l-.087.08a1.5 1.5 0 0 1-.478.312c-.24.088-.432.034-.594-.166l-.064-.08c-.156-.42-.333-1.044-.337-1.602a7 7 0 0 0-.09 1.012q-.026.797.057 1.589l.003.065c0 .043 0 .086.018.127h-.002l.083.22c.244.011 1.067.129 1.389.561m13.79-1.98l-.179.038c.147.484.282 1.24.282 1.989q.069-.139.14-.296c.302-.657.672-1.461 1.492-1.226a.45.45 0 0 0-.172-.422c-.42-.334-1.053-.194-1.562-.083m-5.106-5.785c-.017.025-.035.083-.055.145c-.037.122-.083.265-.137.252c-.186-.044-.378-.068-.569-.092a5 5 0 0 1-.611-.103c.06-.117 1.467-.388 1.66-.295c.278.13.667.72.172.845c-.217.064-.395-.044-.439-.27a2 2 0 0 1-.022-.391zM7.258 19.566c.231-.169.39-.374.395-.675c.013.001.013.008.014.014v.005q.079.291.22.557c.019.033.02.045-.024.048q-.293.023-.588.05zm8.58-11.093c.174-.13.216-.302.168-.503l.006-.001h.006l.047.05a1 1 0 0 1 .101.121c.069.111.053.225-.014.333c-.058.095-.248.102-.313 0m.638.08c.035-.117-.014-.206-.1-.298c0 .032-.036.155-.062.247l-.03.105c.057.047.17.015.192-.055" clip-rule="evenodd"/><path fill="#FEFEFE" d="M8.676 5.446c-.219-.005-.429-.1-.62-.243a1.2 1.2 0 0 1-.372-.44l-.029-.08c-.06-.195.03-.291.198-.372c.029-.014.029.006.028.022v.009c.01.116.027.231.069.34c.134.35.38.559.752.584c.378.025.668-.135.858-.467c.09-.156.127-.328.14-.505c.004-.052.02-.064.07-.055q.082.014.166.022l.07.008h.006c.017.002.035.004.018.033c-.236.39-.498.756-.888 1.007a.85.85 0 0 1-.466.137m6.545 3.06c-.907-.154-1.92-.22-2.9.021l-.078.019c-.334.084-.731.182-1.012.369c.26.108.499.346.538.634c.136.973-1.932 2.16-2.783 2.262c-.313.039-.634-.18-.634-.483c-.013-.043-.046.007-.087.07c-.044.067-.098.148-.149.148l-.001-.095a.7.7 0 0 0 .136-.181c.026-.048.198-.465-.265-.562a6.9 6.9 0 0 1 3.045-2.295c1.293-.49 2.619-.506 3.953-.196c.062.015.111.097.158.175q.033.061.08.115m-1.791-3.51a.27.27 0 0 0-.024-.174l-.003.06c-.031.365-.281.587-.643.56c-.302-.023-.506-.193-.63-.467a1.3 1.3 0 0 1-.103-.481v-.01c0-.016 0-.032-.025-.032l-.108-.006l-.115-.008v.018c.088.248.188.488.323.713c.092.155.195.3.341.408a.42.42 0 0 0 .405.064a.93.93 0 0 0 .462-.362a.7.7 0 0 0 .12-.283"/><path fill="#F5F818" d="M8.045 4.29c.012.465.287.81.777.81c.435.003.675-.388.71-.78c.015-.107.013-.108-.095-.12l-.022-.002c-.037-.005-.071-.01-.072.047c-.008.323-.183.662-.546.65c-.36-.013-.503-.338-.5-.66c0-.034-.008-.044-.042-.037a2 2 0 0 1-.168.033c-.038.005-.044.025-.042.058m5.185.385c-.004-.031-.025-.04-.058-.048v.053q.002.04 0 .08a.37.37 0 0 1-.088.221c-.168.193-.476.15-.61-.083a.74.74 0 0 1-.086-.345c.003-.033.006-.066-.017-.081s-.054-.013-.086-.013h-.052c-.037-.004-.04.014-.039.044c.01.138.034.273.086.4c.111.272.386.423.652.356a.37.37 0 0 0 .264-.225a.74.74 0 0 0 .034-.36"/><path fill="#F3968D" d="M11.444 5.567a7 7 0 0 1-.203.233l-.229-.27a.85.85 0 0 1 .432.037"/><path fill="#596E78" d="M12.96 13.855a1.286 1.286 0 1 0 0-2.572a1.286 1.286 0 0 0 0 2.572"/><path fill="#748890" d="M12.96 13.158a.589.589 0 1 0 0-1.178a.589.589 0 0 0 0 1.178"/></g></svg>