<svg xmlns="http://www.w3.org/2000/svg" xmlns:xlink="http://www.w3.org/1999/xlink" width="24" height="24" viewBox="0 0 24 24"><g fill="none"><path fill="url(#tokenBrandedCatheon0)" d="M10.781 15.75c-1.087 0-1.169-1.037-1.075-1.562l-1.35-.45l-1.062 2.45l.643 1.793l3.232 3.494l1.268.375c.188.05.688.15 1.125.15c5.22 0 6.894-3.206 6.87-4.913c0-.106-.013-.206-.026-.3c-.518-3.374-3.031-3.537-3.668-3.537a3.2 3.2 0 0 0-1.613.387c-3.563 1.7-4.088 2.113-4.344 2.113"/><path fill="url(#tokenBrandedCatheon1)" d="M3.562 11.525c0-.55.144-1.375.219-1.719l.594-1.312l.95-1.438l6.869-1.575l.712 3.475a4.8 4.8 0 0 0-2.15-.706c-.812 0-.931.925-.944 1.263v8.6c0 2.3 1.844 3.462 2.813 3.78c-8.563-1.45-9.063-8.624-9.063-10.368"/><path fill="url(#tokenBrandedCatheon2)" d="M20.438 6.875c0 2.769-2.5 3.875-3.813 3.875c-1.1 0-3.293-1.013-5.112-2.031C9.688 7.7 8.263 7 7.607 7C5.419 7 4.6 8.731 3.769 9.844C5.507 2.838 11.357 2 13.813 2s6.625 1.413 6.625 4.875"/><defs><linearGradient id="tokenBrandedCatheon0" x1="20.421" x2="6.115" y1="10.83" y2="10.83" gradientUnits="userSpaceOnUse"><stop stop-color="#6CDBF5"/><stop offset=".27" stop-color="#377EF2"/><stop offset=".71" stop-color="#1E4DA1"/><stop offset=".91" stop-color="#04145E"/></linearGradient><linearGradient id="tokenBrandedCatheon1" x1="12.005" x2="12.005" y1="2" y2="22.053" gradientUnits="userSpaceOnUse"><stop offset=".11" stop-color="#330665"/><stop offset=".5" stop-color="#392388"/><stop offset=".71" stop-color="#424BD2"/><stop offset=".92" stop-color="#88BFFD"/></linearGradient><linearGradient id="tokenBrandedCatheon2" x1="20.438" x2="4.025" y1="6.938" y2="6.844" gradientUnits="userSpaceOnUse"><stop stop-color="#C767ED"/><stop offset=".15" stop-color="#82018F"/><stop offset=".71" stop-color="#FC5E8E"/><stop offset="1" stop-color="#F8AAD5"/></linearGradient></defs></g></svg>