<svg xmlns="http://www.w3.org/2000/svg" xmlns:xlink="http://www.w3.org/1999/xlink" width="24" height="24" viewBox="0 0 24 24"><g fill="none"><path fill="#F7CB44" d="M12 18.796c4.787 0 8.669-3.76 8.669-8.398S16.787 2 11.999 2c-4.787 0-8.668 3.76-8.668 8.398S7.212 18.796 12 18.796"/><path fill="#F3B03F" d="M12 17.712a7.043 7.043 0 1 0-.001-14.086a7.043 7.043 0 0 0 0 14.086"/><path fill="#FBE84E" d="M12.001 16.628a5.96 5.96 0 1 0 0-11.92a5.96 5.96 0 0 0 0 11.92"/><path fill="#000" fill-rule="evenodd" d="M8.506 3.318c-.062.142-.04.353.072.604c.186.418.261.905.276 1.098l.002.025l-.019.018c-.064.061-.096.16-.107.27a1 1 0 0 0 .007.238c2.347.078 5.152.892 6.293 1.3a.34.34 0 0 0 .138-.231a.6.6 0 0 0-.01-.261l-.011-.04l.036-.022a1.2 1.2 0 0 0 .21-.181c.103-.107.237-.263.393-.48c.293-.409.156-.719.062-.82c-1.168-.836-2.732-1.27-4.081-1.495c-1.321-.22-2.432-.24-2.752-.247h-.02c-.282-.005-.43.088-.489.224m-.098-.044c.084-.191.284-.294.59-.288h.019c.322.006 1.438.026 2.768.248c1.356.227 2.941.665 4.13 1.517l.004.002l.003.004c.13.135.279.506-.05.963c-.157.22-.295.38-.403.492a1.6 1.6 0 0 1-.198.177a.7.7 0 0 1 .003.27a.45.45 0 0 1-.211.32l-.022.012l-.023-.009c-1.128-.406-3.972-1.235-6.328-1.305h-.042l-.009-.042a1.1 1.1 0 0 1-.016-.313a.55.55 0 0 1 .122-.318a3.7 3.7 0 0 0-.265-1.037c-.116-.261-.153-.508-.072-.693" clip-rule="evenodd"/><path fill="#F2A83E" d="M8.999 3.073c-.615.023-.583.437-.49.641c1.938-.515 6.06.525 7.383 1.659c.129-.192.054-.412 0-.498c-2.008-1.7-6.126-1.83-6.893-1.802"/><path fill="#000" fill-rule="evenodd" d="M11.971 3.38c-1.372-.241-2.59-.266-2.97-.252c-.296.01-.417.113-.463.22a.43.43 0 0 0 .002.302c.984-.245 2.485-.11 3.903.222c.722.17 1.424.39 2.03.64c.576.238 1.067.503 1.404.777a.44.44 0 0 0-.026-.378c-.993-.837-2.509-1.29-3.88-1.531m.019-.107c1.378.242 2.922.701 3.937 1.56l.006.006l.005.007c.059.094.145.34-.001.557l-.034.05l-.046-.04c-.324-.277-.824-.552-1.425-.8a13.4 13.4 0 0 0-2.013-.635c-1.436-.337-2.94-.466-3.897-.212l-.044.012l-.019-.041a.55.55 0 0 1-.02-.433c.069-.158.239-.273.558-.285c.387-.014 1.612.012 2.993.254" clip-rule="evenodd"/><path fill="url(#tokenBrandedCaw0)" d="M8.8 3.672c-.286.035-.351.033-.228.294l.163.466c2.112-.009 3.59.327 4.06.49c1.174.044 2.574.31 3.128.455c-3.026-1.92-6.371-1.796-7.122-1.705"/><path fill="#4A4B4D" d="m15.932 5.427l.001-.003c-.472-.364-2.31-.49-3.165-.535l2.803 1.107c.173-.145.311-.458.36-.57"/><path fill="url(#tokenBrandedCaw1)" d="M8.731 4.425c.063.117.095.446.101.589c2.481-.182 5.266.81 6.339 1.331c.123-.021.323-.245.408-.355l-2.74-1.074c-1.392-.451-3.319-.515-4.108-.491"/><path fill="#F2A83E" d="M8.877 5.053c-.109.066-.136.197-.136.255c.514 0 1.88.076 3.229.382s2.703.801 3.21 1.01a.3.3 0 0 0 0-.327a16 16 0 0 0-3.038-1.02c-1.37-.3-2.75-.367-3.265-.3"/><path fill="#000" fill-rule="evenodd" d="M8.896 5.105a.2.2 0 0 0-.078.1a.3.3 0 0 0-.016.049c.557.006 1.876.088 3.18.383a23 23 0 0 1 3.173.994a.25.25 0 0 0-.01-.215a16 16 0 0 0-3.014-1.01c-1.356-.297-2.72-.364-3.235-.3M8.87 5c.523-.068 1.911 0 3.284.301c1.39.305 2.603.82 3.049 1.023l.012.006l.009.011c.046.062.104.22.003.388l-.024.04l-.043-.018a23 23 0 0 0-3.202-1.007a16.5 16.5 0 0 0-3.217-.381h-.053v-.054c0-.036.008-.09.031-.146a.33.33 0 0 1 .13-.155L8.86 5z" clip-rule="evenodd"/><path fill="#37383C" d="M11.592 5.986c-2.687-.63-4.794-.371-5.512-.163c.704 1.224 5.187 2.025 8.14 2.46c2.362.348 3.124.145 3.21 0c-.745-.856-2.479-1.508-5.838-2.297"/><path fill="#000" fill-rule="evenodd" d="M6.164 5.856c.185.268.566.521 1.091.757c.562.252 1.277.48 2.065.683c1.575.407 3.431.716 4.907.934c1.18.173 1.957.21 2.448.184a2.5 2.5 0 0 0 .534-.073a.6.6 0 0 0 .146-.06c-.367-.403-.968-.765-1.884-1.121c-.942-.367-2.213-.727-3.891-1.12c-2.597-.61-4.647-.385-5.416-.184m-.1-.085c.728-.211 2.845-.47 5.54.163c1.68.394 2.956.755 3.906 1.125s1.579.75 1.96 1.189l.026.03l-.02.033a.2.2 0 0 1-.086.076a.7.7 0 0 1-.152.059a2.6 2.6 0 0 1-.557.076c-.502.026-1.287-.01-2.47-.185c-1.476-.218-3.337-.527-4.918-.936c-.79-.204-1.512-.433-2.082-.689c-.566-.254-.993-.54-1.178-.862L6 5.79z" clip-rule="evenodd"/><path fill="#6C6D6D" d="M10.114 6.157c-1.132-.174-3.107-.26-3.953-.282c.142.246.671.555.918.679l-.65-.55zm6.036 1.578l-.029-.017zc.197.101 1.128.414 1.272.546c-.157.15-.949.359-2.857 0h2.513z"/><path fill="#6E6E70" d="M12.628 6.6c-.281-.114-1.184-.265-1.6-.326c.374.136.676 1.91.78 2.781c.739-.762.854-1.954.82-2.455"/><path fill="#000" fill-rule="evenodd" d="m11.008 6.325l.026-.105c.21.03.54.084.853.144s.614.126.76.186l.031.013l.003.034c.017.256-.003.685-.122 1.146c-.118.462-.335.96-.713 1.35l-.079.08l-.013-.111a16 16 0 0 0-.288-1.66a5 5 0 0 0-.224-.738a1.3 1.3 0 0 0-.123-.236q-.063-.088-.11-.103m.192.03l.007.01q.072.104.135.258c.084.203.16.468.229.753c.124.524.22 1.124.275 1.557c.314-.359.502-.8.61-1.217c.11-.43.132-.83.12-1.077a6 6 0 0 0-.709-.169a21 21 0 0 0-.667-.115" clip-rule="evenodd"/><path fill="#F2A83E" d="M11.823 6.016c-2.694-.625-4.677-.397-5.331-.205c.756 0 2.851.11 5.177.55c2.327.44 4.549 1.268 5.37 1.626c-.243-.333-1.85-1.19-5.217-1.971"/><path fill="#000" fill-rule="evenodd" d="M6.956 5.767c.975.034 2.768.171 4.724.541c2.076.393 4.068 1.093 5.061 1.495a3 3 0 0 0-.173-.108a8 8 0 0 0-.986-.475c-.85-.353-2.09-.761-3.771-1.151c-2.223-.516-3.957-.448-4.855-.303m-.479-.008c.665-.195 2.657-.422 5.358.204c1.686.391 2.932.801 3.788 1.156c.428.178.76.342 1 .483q.357.212.46.353l.117.161l-.183-.08c-.817-.357-3.036-1.182-5.357-1.621c-2.323-.44-4.414-.55-5.168-.55z" clip-rule="evenodd"/><path fill="url(#tokenBrandedCaw2)" d="M10.675 6.327a2.86 2.86 0 0 1 1.551.705c-.303 1.037-1.08 2.531-1.485 3.265c-.329.597-1.562.613-2.137.546c-1.763-.447-4.195.32-5.19.76l.623-.96l.877-.932l2.495-1.505l1.01-.653l.344-.906c.319-.142 1.147-.405 1.912-.32"/><path fill="#CB9239" d="M8.142 7.728c0-.517.264-.708.406-.758l-.188.627z"/><path fill="#C09B78" d="M10.754 10.257c.138-.149.642-1.199.877-1.705l-1.036 1.452c-2.113-.394-3.801.005-4.38.253c1.996-.565 3.858-.235 4.54 0"/><path fill="#AD845E" d="M11.471 6.86c-.18-.096-.739-.155-.995-.173c.278.147.544.546.53 1.186c-.013.64-.53 1.132-1.407 1.132c-.7 0-1.088-.648-1.194-.972c-.456.28-1.556.924-2.31 1.265s-1.367 1.021-1.58 1.319c.677-.347 1.898-.786 3.067-.973c.934-.149 2.318.01 2.894.107l.663-1c-.265-.564.173-.776.425-.812l.186-.533z"/><path fill="#C09B78" d="M7.027 10.069c1.339.011 2.622.387 3.097.574l-.25.118c-.563-.307-2.133-.59-2.847-.692m-.881.53c1.14-.248 2.216.024 2.612.191c-1.866-.365-3.751.152-4.46.457c.141-.113.71-.4 1.848-.648"/><path fill="#BF987A" d="M9.729 8.793c.57 0 1.032-.463 1.032-1.035s-.463-1.035-1.032-1.035c-.57 0-1.032.463-1.032 1.035s.462 1.035 1.032 1.035"/><path fill="#D1A44C" d="M10.567 7.758a.84.84 0 0 1-.839.841a.84.84 0 0 1-.838-.841a.84.84 0 0 1 .838-.841a.84.84 0 0 1 .839.841"/><path fill="#000" fill-rule="evenodd" d="M9.728 8.49a.732.732 0 1 0-.002-1.463a.732.732 0 0 0 .002 1.464m0 .11a.84.84 0 0 0 .839-.842a.84.84 0 0 0-.839-.841a.84.84 0 0 0-.838.841a.84.84 0 0 0 .838.841" clip-rule="evenodd"/><path fill="#C7C687" d="M10.316 7.742a.588.588 0 1 1-1.177.002a.588.588 0 0 1 1.177-.002"/><path fill="#000" fill-rule="evenodd" d="M9.729 8.223a.48.48 0 1 0-.002-.961a.48.48 0 0 0 .002.96m0 .108a.588.588 0 1 0-.003-1.177a.588.588 0 0 0 .003 1.177" clip-rule="evenodd"/><path fill="#181817" d="M9.73 8.17a.423.423 0 1 0-.002-.847a.423.423 0 0 0 .001.846"/><path fill="#fff" d="M10.059 7.956a26 26 0 0 1-.252-.596h-.095l.28.672zm-.162.144L9.6 7.387l-.099.04l.243.704zm-.212.031l-.238-.658l-.081.095l.189.532z"/><path fill="url(#tokenBrandedCaw3)" d="M11.176 9.614c-.632 1.437-2.124 1.41-2.792 1.216c.136.363.696.576.959.637c.135.08.122.316.099.424c.465.227 1.424.297 2.453-.721c.823-.815 1.348-3.254 1.508-4.372l-.79-.212c.085.269-.042 1.075-.324 1.698c-.225.498-.836 1.094-1.113 1.33"/><path fill="#000" fill-rule="evenodd" d="m12.533 6.508l.93.25l-.006.048c-.08.56-.253 1.453-.508 2.307a9 9 0 0 1-.445 1.21c-.168.363-.359.675-.572.885c-1.043 1.034-2.026.97-2.514.732l-.038-.018l.01-.042c.01-.05.018-.13.009-.205c-.01-.073-.035-.13-.077-.157a2.2 2.2 0 0 1-.532-.21c-.193-.107-.381-.26-.456-.459l-.038-.1l.103.03c.326.094.856.148 1.38.002c.522-.145 1.04-.488 1.348-1.19l.005-.01l.01-.009a6 6 0 0 0 .57-.561c.215-.24.42-.508.529-.75c.139-.306.24-.66.295-.968c.028-.155.044-.298.049-.418a.9.9 0 0 0-.022-.273zm.152.153q.012.096.007.218a3 3 0 0 1-.05.433c-.057.317-.16.678-.303.994c-.117.257-.33.535-.547.777a7 7 0 0 1-.572.564c-.324.728-.866 1.087-1.412 1.239a2.8 2.8 0 0 1-1.32.027c.078.118.208.22.354.301c.185.103.386.17.513.2l.008.002l.007.004c.09.052.124.153.135.241c.01.07.005.143-.003.199c.457.201 1.368.248 2.355-.729c.2-.197.383-.495.55-.854a9 9 0 0 0 .44-1.195c.246-.825.414-1.685.496-2.244z" clip-rule="evenodd"/><path fill="#3F2C1F" d="M11.938 7.84c.091.375.076 1.239-.715 1.698c0-.083.477-1.166.715-1.697"/><path fill="#000" fill-rule="evenodd" d="m11.966 7.689l.025.139c.094.386.08 1.28-.741 1.757l-.081.047v-.094c0-.013.004-.03.007-.041l.017-.052q.021-.06.058-.153c.049-.122.116-.282.19-.456c.15-.348.406-.882.525-1.147M11.32 9.41c.547-.39.633-1.003.595-1.385c-.113.252-.253.57-.374.853a21 21 0 0 0-.22.532" clip-rule="evenodd"/><path fill="#6D7170" d="M11.352 10.456c-1.013.903-1.924.975-1.995.985l.153.216c1.048-.14 1.664-.86 1.842-1.201m-.097.985c-.192.157-.923.38-1.264.472c0 .137.324.086.384.086c.348-.103.732-.415.88-.558"/><path fill="#6C6D6F" d="M12.318 10.375c.336-.67.657-2.686.777-3.624c.104.005.312.011.313 0c-.09 1.385-.754 2.971-1.09 3.624"/><path fill="#898A8C" d="M11.874 11.27c.931-.59 1.763-3.107 2.063-4.292l-.537-.156c-.172 2.224-1.09 3.892-1.527 4.448"/><path fill="#000" fill-rule="evenodd" d="m13.351 6.751l.65.19l-.013.05c-.15.595-.433 1.523-.797 2.377a8.4 8.4 0 0 1-.6 1.178c-.214.34-.446.616-.69.77l-.07-.08c.431-.548 1.344-2.206 1.515-4.418zm.097.141c-.155 1.842-.816 3.298-1.284 4.052q.172-.194.337-.456c.212-.334.411-.738.591-1.162c.35-.824.627-1.719.78-2.31z" clip-rule="evenodd"/><path fill="#6C6D6F" d="m13.355 8.49l.294-1.577h.294c-.109.59-.354 1.297-.464 1.577z"/><path fill="#000" fill-rule="evenodd" d="M10.508 11.069a4.4 4.4 0 0 1-1.162.425l-.02-.106c.263-.05.695-.183 1.132-.415c.437-.233.875-.563 1.155-1.008l.09.058c-.293.466-.748.808-1.195 1.046m1.348-.234c-.694 1.016-1.87 1.157-2.372 1.101l.012-.107c.48.053 1.608-.084 2.271-1.055z" clip-rule="evenodd"/><path fill="#6C6E6D" d="m14.677 7.12l-.686-.185c-.376 1.576-1.193 3.168-1.554 3.767c1.603-.911 2.161-2.768 2.24-3.582"/><path fill="#000" fill-rule="evenodd" d="m13.951 6.868l.783.211l-.005.046c-.04.414-.2 1.088-.553 1.774c-.354.687-.9 1.388-1.714 1.85l-.18.102l.108-.177c.36-.596 1.174-2.182 1.548-3.752zm.079.133c-.35 1.425-1.047 2.851-1.44 3.545c.692-.447 1.17-1.076 1.49-1.697a5.2 5.2 0 0 0 .537-1.69z" clip-rule="evenodd"/><path fill="url(#tokenBrandedCaw4)" d="M12.528 10.59c1.097-.871 1.698-2.677 1.862-3.47l-.385-.135c-.229 1.093-.918 2.647-1.477 3.604"/><path fill="#6E7377" d="M14.329 8.7c.204.462.13 1.5-1.8 1.944c.32-.185 1.126-.833 1.8-1.945"/><path fill="#000" fill-rule="evenodd" d="m14.331 8.557l.047.12c.108.247.14.641-.104 1.03c-.245.39-.76.766-1.733.99l-.039-.1c.31-.18 1.111-.822 1.78-1.926zm-1.515 1.957c.761-.223 1.168-.547 1.367-.864c.192-.305.196-.61.133-.828c-.524.835-1.117 1.4-1.5 1.692" clip-rule="evenodd"/><path fill="#A58659" d="M14.309 8.793c-.034.349-.236 1.117-.768 1.396c.382-.161 1.07-.665.768-1.396"/><path fill="#727274" d="M13.152 11.359c1.113-.443 1.145-1.225 1.023-1.56c-.54.55-1.323.797-1.647.852c-.843 1.002-1.756 1.334-2.108 1.375a10.8 10.8 0 0 0 2.732-.667"/><path fill="#000" fill-rule="evenodd" d="m14.197 9.7l.029.08c.066.18.088.474-.05.78c-.139.309-.437.624-1.004.85a10.8 10.8 0 0 1-2.746.67l-.011-.108c.336-.039 1.237-.364 2.072-1.356l.013-.015l.02-.004c.317-.053 1.088-.297 1.617-.836zm-1.64 1c-.528.624-1.084.99-1.516 1.187c.561-.097 1.34-.28 2.092-.578c.546-.218.82-.516.945-.793a1 1 0 0 0 .07-.616c-.535.507-1.263.74-1.591.8" clip-rule="evenodd"/><path fill="#4A484D" d="M13.392 10.406c-.44.614-1.4 1.015-1.824 1.139l-.523.268c2.163-.194 2.976-1.395 3.112-1.97c-.123.153-.562.439-.765.563"/><path fill="#4A4B4D" d="M14.858 11.647c.266-.655-.323-1.229-.65-1.433c.147.132-.218.697-1.313 1.228c-1.372.666-2.83.585-3.406.461c2.002 1.152 5.038.563 5.37-.256"/><path fill="#000" fill-rule="evenodd" d="m14.172 10.254l.065-.086c.169.105.404.305.564.565c.161.26.249.586.107.934a.8.8 0 0 1-.26.316a2 2 0 0 1-.466.262a5 5 0 0 1-1.376.323c-1.058.106-2.33-.035-3.343-.618l.038-.1c.567.122 2.012.203 3.371-.457c.543-.263.902-.534 1.106-.752a.9.9 0 0 0 .19-.274c.03-.074.015-.104.004-.113m.117.081a.4.4 0 0 1-.02.071a1 1 0 0 1-.212.31c-.216.23-.587.508-1.138.775c-1.172.569-2.405.598-3.11.517c.934.441 2.043.547 2.986.452a4.8 4.8 0 0 0 1.346-.315a2 2 0 0 0 .441-.247a.7.7 0 0 0 .227-.271c.124-.307.05-.596-.1-.837a1.7 1.7 0 0 0-.42-.455" clip-rule="evenodd"/><path fill="#6D6F6E" d="M14.338 11.985c-.803.254-2.784.627-4.285.09c.064.023 2.046 1.068 4.285-.09"/><path fill="#E8B03E" d="M14.282 10.294c-.362 1.153-2.585 1.615-3.652 1.702c2.343.127 3.456-.885 3.72-1.407c.181.136.415.54.509.726c.08-.533-.52-1.02-.577-1.02"/><path fill="url(#tokenBrandedCaw5)" d="M15.672 12.406a1.28 1.28 0 0 0-.74-.974c-1.161 1.65-4.164.974-5.521.43c-.418-.042-.773.29-.898.46c.466.28 1.837.861 3.59.954c1.754.092 3.11-.542 3.57-.87"/><path fill="#000" fill-rule="evenodd" d="m14.912 11.367l.039.015c.221.085.68.405.775 1.016l.005.033l-.027.02c-.469.334-1.837.972-3.603.879c-1.763-.093-3.141-.677-3.615-.96l-.05-.031l.034-.048c.067-.091.191-.222.354-.324a.94.94 0 0 1 .592-.16l.008.002l.007.003c.674.27 1.758.574 2.816.604c1.06.03 2.076-.212 2.64-1.015zm.038.132c-.6.82-1.65 1.056-2.706 1.025c-1.07-.03-2.163-.336-2.846-.609a.84.84 0 0 0-.517.143a1.3 1.3 0 0 0-.286.25c.504.284 1.83.825 3.511.914c1.706.09 3.032-.514 3.508-.84a1.23 1.23 0 0 0-.664-.883" clip-rule="evenodd"/><path fill="#E8B03E" d="M14.932 11.485c-.15.653-1.447.956-2.077 1.026c1.378.067 2.042-.468 2.202-.743l.407.377c-.115-.482-.47-.608-.532-.66"/><path fill="#6D6D70" d="M8.838 12.415c.077.038 2.334.678 3.775.653c-.438.183-1.806.31-3.775-.653"/><path fill="#6A6C6D" d="M13.158 13.077c.751-.3 2.264-.901 2.306-.901l.167.21c-.826.594-1.993.708-2.473.69"/><path fill="#CA8926" d="M12.683 16.721c-.247-1.144-.046-2.418.086-2.912c-.22-.372-.756-.453-.996-.448c-.206.29-.841.73-1.133.914v1.947l.395.723l1.253.19z"/><path fill="#000" fill-rule="evenodd" d="M11.8 13.415c-.113.148-.319.325-.529.486s-.43.31-.578.404v1.903l.376.688l1.2.181l.355-.373c-.237-1.13-.045-2.376.087-2.886a.85.85 0 0 0-.45-.323a1.5 1.5 0 0 0-.46-.08m.496-.023c.198.069.4.188.519.39l.012.02l-.006.021c-.13.49-.33 1.754-.086 2.887l.007.028l-.435.454L11 16.996l-.414-.76v-1.99l.025-.016c.145-.091.375-.247.595-.415c.221-.169.425-.347.523-.484l.016-.022h.027c.125-.004.326.016.524.084" clip-rule="evenodd"/><path fill="#66482A" d="M12.321 17.17c-.398-.993-.166-2.827 0-3.619l-.515-.172l-.55.551c-.22.675-.148 2.338-.085 3.084z"/><path fill="#000" fill-rule="evenodd" d="m11.791 13.317l.593.198l-.01.047a11.4 11.4 0 0 0-.21 1.726c-.03.68.012 1.376.207 1.861l.035.086l-1.285-.173l-.004-.043a19 19 0 0 1-.063-1.574c.002-.592.038-1.185.151-1.532l.004-.012zm.03.124l-.517.518c-.104.33-.14.9-.143 1.487c-.001.569.03 1.146.06 1.52l1.018.138c-.176-.5-.21-1.176-.183-1.821c.028-.658.121-1.293.203-1.696z" clip-rule="evenodd"/><path fill="#F2F04C" d="M11.704 14.487a.26.26 0 1 0-.001-.52a.26.26 0 0 0 0 .52m-.1 1.128a.26.26 0 1 0-.002-.52a.26.26 0 0 0 .002.52m.112 1.254a.26.26 0 1 0-.001-.521a.26.26 0 0 0 0 .52"/><path fill="#191919" d="M15.623 12.422c-.774.743-2.664.929-3.512.929c2.423 1.3 4.795 1.118 5.679.865c-.64-1.334-1.71-1.752-2.167-1.794"/><path fill="#000" fill-rule="evenodd" d="m15.604 12.366l.024.002c.474.044 1.562.473 2.21 1.825l.028.058l-.061.017c-.896.257-3.283.438-5.72-.87l.026-.102a9.4 9.4 0 0 0 1.773-.184c.674-.14 1.327-.369 1.702-.73zm.038.112c-.4.373-1.07.602-1.736.74a9.6 9.6 0 0 1-1.58.183c2.287 1.157 4.494 1.014 5.387.78c-.623-1.247-1.626-1.65-2.07-1.703" clip-rule="evenodd"/><path fill="#E8B03E" d="M15.75 12.717c-.858.456-2.125.612-2.65.634c1.564-.203 2.327-.666 2.516-.912c.808.101 1.508.792 1.753 1.165c-.353-.473-1.227-.788-1.62-.887"/><path fill="#69686C" d="M12.366 13.458c1.89.648 4.105.31 4.908.04c-.389-.495-1.447-.82-1.537-.82c-.802.516-2.554.693-3.371.78"/><path fill="#6C6B71" d="M13.997 14.028c1.627.288 3.13.12 3.68 0l.119.21c-1.771.3-3.271-.015-3.8-.21"/><path fill="#6B6D6F" d="M18.335 15.35c.024-.697-.34-.992-.524-1.052c-2.046.36-4.303-.29-5.175-.66c1.747 1.537 4.527 1.781 5.699 1.711"/><path fill="#000" fill-rule="evenodd" d="m12.6 13.679l.056-.091c.868.368 3.114 1.015 5.146.657l.013-.002l.013.004c.21.068.585.386.56 1.104l-.001.05l-.05.002c-.59.035-1.583-.008-2.648-.254s-2.206-.694-3.089-1.47m.333.133c.822.63 1.828 1.012 2.78 1.231c1.025.237 1.983.284 2.569.255c.005-.623-.315-.884-.476-.944c-1.841.32-3.846-.17-4.873-.542" clip-rule="evenodd"/><path fill="#E8B03E" d="M17.796 14.509c-1.855.252-3.256-.106-3.725-.316c1.604.36 3.152.24 3.725.135c.43.193.476.65.436.845c-.06-.264-.321-.56-.436-.665"/><path fill="#101012" d="M14.865 14.614c.754.408 2.478.5 3.246.495c0-.192-.17-.41-.255-.495c-.383.12-2.154.05-2.991 0"/><path fill="url(#tokenBrandedCaw6)" d="M18.641 16.815c.487-.626-.025-1.254-.342-1.49c-2.405.29-4.72-.935-5.575-1.584l-.07.712c1.995 1.742 4.795 2.298 5.987 2.362"/><path fill="#000" fill-rule="evenodd" d="m12.679 13.64l.076.058c.851.644 3.15 1.862 5.537 1.574l.02-.003l.018.013c.164.122.38.345.49.621a.91.91 0 0 1-.137.946l-.017.022l-.028-.002c-1.2-.064-4.012-.622-6.019-2.375l-.02-.018zm.089.201l-.057.59c1.964 1.702 4.707 2.258 5.904 2.328a.8.8 0 0 0 .106-.815a1.4 1.4 0 0 0-.438-.562c-2.348.275-4.6-.878-5.515-1.541" clip-rule="evenodd"/><path fill="#E8B03E" d="M18.204 15.631c-2.055.092-3.761-.7-4.357-1.107c2.758 1.088 4.357.84 4.49.84c.64.443.507 1.037.361 1.28c.046-.55-.31-.905-.494-1.013"/><path fill="#6D6C72" d="M14.713 14.995c1.732 1.031 3.623 1.037 3.852 1c-.134-.173-.273-.378-.368-.378c-1.416.076-2.92-.393-3.484-.622"/><path fill="#E8B03E" d="M18.756 17.598c.183-.26 0-.643-.114-.802c-3.06-.23-5.229-1.603-5.99-2.303l-.025.658c1.096 1.085 4.512 2.058 6.129 2.447"/><path fill="url(#tokenBrandedCaw7)" d="M8.443 12.385c.746.535 2.569.872 3.387.974c-1.918 1.207-4.529 1.063-5.594.84c.59-1.775 2.093-1.814 2.207-1.814"/><path fill="#000" fill-rule="evenodd" d="M6.185 14.182c.6-1.81 2.137-1.851 2.258-1.851h.017l.014.01c.364.26.997.477 1.648.64c.649.164 1.307.274 1.714.324l.15.019l-.128.08c-.969.61-2.11.878-3.14.965c-1.031.088-1.955-.004-2.493-.117l-.06-.012zm.122-.024c.535.105 1.419.187 2.402.103c.973-.082 2.04-.327 2.961-.868a16 16 0 0 1-1.574-.306c-.643-.162-1.286-.378-1.67-.647c-.193.004-1.55.095-2.12 1.718" clip-rule="evenodd"/><path fill="#7D7E81" d="M7.229 13.073c1.065.592 3.497.458 3.744.439c-.99-.153-2.624-.967-2.624-.967c-.441.03-.968.356-1.12.528"/><path fill="#E8B03E" d="M8.434 12.425c-.843-.038-1.565.639-1.876 1.182c.93-.832 1.63-1.062 1.77-1.062c1.423.633 2.547.764 2.93.75c-1.26-.226-2.42-.654-2.824-.87"/><path fill="url(#tokenBrandedCaw8)" d="M6.214 14.193c-.545.078-.606.77-.568 1.106c3.021.156 5.16-1.062 5.851-1.691c-1.828.924-4.284.775-5.283.585"/><path fill="#000" fill-rule="evenodd" d="M6.213 14.248c-.24.038-.377.209-.45.42c-.069.195-.08.418-.067.58c2.585.121 4.512-.768 5.42-1.408c-.824.335-1.736.485-2.568.532a10.3 10.3 0 0 1-2.335-.124m2.329.016c.963-.054 2.026-.247 2.931-.705l.06.089c-.701.638-2.854 1.862-5.89 1.705l-.045-.002l-.005-.046a1.6 1.6 0 0 1 .068-.673c.082-.236.246-.45.545-.492l.009-.002l.009.002c.495.094 1.355.178 2.318.124" clip-rule="evenodd"/><path fill="#E8B03E" d="M6.215 14.454c-.338.039-.454.471-.47.682c-.169-.52.165-.805.392-.886c2.246.266 3.4.03 4.178-.122c-1.374.638-3.306.483-4.1.325"/><path fill="url(#tokenBrandedCaw9)" d="M5.371 16.796c-.414-.703-.01-1.29.244-1.497c2.152.208 4.267-.618 5.056-1.057c-1.167 1.522-4.02 2.337-5.3 2.553"/><path fill="#000" fill-rule="evenodd" d="M5.62 15.245c2.138.207 4.242-.614 5.025-1.05l.069.08c-.592.773-1.608 1.361-2.63 1.783c-1.023.423-2.06.682-2.703.791l-.037.006l-.019-.032c-.215-.365-.22-.704-.134-.978a1.27 1.27 0 0 1 .39-.588l.017-.014zm.012.11a1.16 1.16 0 0 0-.338.522c-.075.24-.075.534.105.859c.64-.111 1.649-.367 2.645-.778c.921-.38 1.824-.893 2.413-1.543c-.926.454-2.857 1.124-4.825.94" clip-rule="evenodd"/><path fill="#E8B03E" d="M5.712 15.576c-.308.162-.325.862-.325.96c-.35-.339 0-.998.231-1.195c1.31.162 3.205-.28 3.983-.546c-.868.599-2.955.77-3.89.78"/><path fill="#E8B03E" d="M5.396 16.768c2.308-.203 4.426-1.676 5.196-2.387v.558c-.904 1.341-3.953 2.23-5.364 2.506c-.135-.258.056-.559.168-.677"/><path fill="#33751C" d="M5.438 18.144c-.903-.144-1.643.168-1.9.342c.588 1.108 1.99 1.625 2.618 1.745l1.13-.773z"/><path fill="#E8E95B" d="m5.564 18.936l-1.955-.486l1.955.72z"/><path fill="#000" fill-rule="evenodd" d="m3.59 18.5l.031-.103l1.996.496v.354zm.967.241l.952.351v-.114z" clip-rule="evenodd"/><path fill="#33751C" d="M5.062 19.854c-.66.475-1.28 1.397-1.507 1.8c1.464.59 2.881-.175 3.407-.63l-.466-.829z"/><path fill="#E8E95B" d="M4.093 21.419c.681-.366 2.062-1.098 2.134-1.098l.34.198z"/><path fill="#000" fill-rule="evenodd" d="m6.202 20.272l.025-.005h.015l.453.264l-2.584.94l-.043-.1c.34-.183.857-.457 1.296-.686c.22-.114.42-.218.572-.292a6 6 0 0 1 .244-.114zm-1.408.835l1.647-.599l-.221-.128h-.002l-.053.023q-.069.03-.182.087c-.15.074-.35.177-.57.291z" clip-rule="evenodd"/><path fill="#33751C" d="M6.855 21.743c.976-1.497 2.32-1.955 2.87-1.997l.77 1.601c-1.06.921-2.868.648-3.64.396"/><path fill="#E8E95B" d="m7.286 21.491l2.564-1.008l.34.288z"/><path fill="#000" fill-rule="evenodd" d="m9.86 20.421l.447.377l-3.008.746l-.033-.103zm-1.79.82l2.005-.497l-.235-.198z" clip-rule="evenodd"/><path fill="#33751C" d="M17.345 21.761c-.903-1.425-2.492-1.95-3.174-2.033l-.663 1.493c.99 1.051 2.97.798 3.837.54"/><path fill="#E8E95B" d="m16.665 21.527l-2.404-1.044l-.233.324z"/><path fill="#000" fill-rule="evenodd" d="m14.242 20.416l2.443 1.061l-.036.102l-2.711-.74zm.037.134l-.162.225l1.833.501z" clip-rule="evenodd"/><path fill="#33751C" d="M9.312 15.517c1.632.485 2.241 1.385 2.367 1.475L10.316 18c-.191-.15-.66-.62-1.004-1.296c-.345-.677-.144-1.074 0-1.187"/><path fill="#000" fill-rule="evenodd" d="m9.3 15.457l.027.008c.823.245 1.39.595 1.767.895c.188.15.329.289.43.394l.096.102l.027.03l.063.062l.06.044l-1.455 1.076l-.032-.025c-.197-.155-.671-.63-1.02-1.314c-.351-.692-.154-1.12.015-1.255zm.025.12c-.118.117-.283.478.035 1.103a4.3 4.3 0 0 0 .957 1.252l1.277-.945l-.025-.027l-.029-.03q-.039-.045-.093-.1a4 4 0 0 0-.42-.385c-.363-.29-.909-.628-1.702-.868" clip-rule="evenodd"/><path fill="#E8E95B" d="m11.105 17.55l-1.56-1.476l1.201 1.62z"/><path fill="#000" fill-rule="evenodd" d="m9.501 16.107l.08-.072l1.622 1.534l-.476.19zm.453.43l.81 1.091l.242-.097z" clip-rule="evenodd"/><path fill="#33751C" d="M14.979 15.589c-1.334.201-2.397 1.14-2.762 1.583l.969.828c.412-.18 1.309-.673 1.596-1.206s.25-1.026.197-1.205"/><path fill="#000" fill-rule="evenodd" d="m15.016 15.528l.014.045c.057.193.092.701-.202 1.247c-.15.278-.455.54-.768.754a5.6 5.6 0 0 1-.854.476l-.03.013l-1.035-.884l.034-.041c.37-.45 1.443-1.399 2.795-1.603zm-2.724 1.638l.902.77c.204-.09.512-.252.806-.451c.31-.212.597-.462.734-.717c.257-.478.246-.92.204-1.118c-1.255.207-2.262 1.07-2.646 1.516" clip-rule="evenodd"/><path fill="#E8E95B" d="m14.607 15.942l-1.578 1.601l.108.252z"/><path fill="#000" fill-rule="evenodd" d="m13.093 17.555l.058.136l.79-.996zm1.476-1.652l.08.072l-1.526 1.924l-.158-.368z" clip-rule="evenodd"/><path fill="#33751C" d="M20.627 18.432c-.66-.245-1.745-.27-2.206-.252l-.735 2.051c1.678-.144 2.66-1.26 2.941-1.8"/><path fill="#E8E95B" d="M18.404 18.954c.472-.114 1.492-.346 1.793-.36l-1.793.612z"/><path fill="#000" fill-rule="evenodd" d="M19.353 18.684c.35-.074.685-.137.841-.144l.02.105l-1.864.637v-.37l.041-.01c.237-.058.61-.144.962-.219m-.896.313v.134l1.12-.383a29 29 0 0 0-1.12.249" clip-rule="evenodd"/><path fill="#33751C" d="M20.592 21.67c-.305-.827-1.614-1.763-1.722-1.87l-1.076.287c-.227.198-.72.616-.878.702c1.147 1.494 3.55.882 3.676.882"/><path fill="#000" fill-rule="evenodd" d="m18.885 19.74l.022.021q.016.015.088.074l.045.035l.135.109c.143.116.327.27.518.446c.378.351.791.8.948 1.227l.027.073h-.077l-.011.001l-.085.015l-.042.007c-.08.014-.19.032-.321.049a6 6 0 0 1-.998.047c-.767-.034-1.674-.256-2.262-1.022l-.038-.05l.055-.03c.074-.04.232-.163.405-.304c.171-.14.351-.293.464-.392l.01-.008zm-1.066.397c-.114.099-.29.249-.457.385c-.139.114-.276.22-.367.282c.56.69 1.407.9 2.143.932c.376.017.721-.013.98-.047q.196-.025.317-.048l.04-.007l.04-.007c-.163-.383-.536-.79-.895-1.122c-.189-.174-.37-.326-.513-.442l-.133-.107l-.046-.037l-.073-.06z" clip-rule="evenodd"/><path fill="#E8E95B" d="M20.053 21.401c-.717-.36-2.163-1.094-2.206-1.152l-.287.288z"/><path fill="#000" fill-rule="evenodd" d="m17.888 20.214l-.035-.047l-.392.393l2.575.892l.041-.1a138 138 0 0 1-1.355-.688a39 39 0 0 1-.587-.309a7 7 0 0 1-.234-.133zm-.229.3l1.65.572c-.213-.108-.433-.22-.636-.326a38 38 0 0 1-.59-.31a8 8 0 0 1-.23-.13zM5.002 18.206l.156.535l-.103.03l-.156-.535zm-.52.005l.079.391l-.105.021l-.079-.391zm-.124.59l-.351.26l-.064-.087l.351-.261zm.038.606l.52-.431l.069.084l-.52.43zm.443.313l.664-.536l.067.085l-.664.535zm.509.181l.65-.496l.065.087l-.65.496zm.3.581l-.04.1a.3.3 0 0 1-.046-.027l-.069-.047l-.193-.144c-.146-.11-.312-.24-.42-.324l.065-.086a36 36 0 0 0 .611.466l.085.058zm-.688.428l.006.027H4.86c0 .01.004.02.004.02l.002.003l-.002-.001l-.004-.005l-.04-.034a3 3 0 0 0-.138-.108a13 13 0 0 0-.332-.235l.06-.09c.09.062.223.155.335.238a4 4 0 0 1 .19.152a.2.2 0 0 1 .026.033m1.29.523v-.783h.108v.783zm-.675.317l.17-.953l.105.019l-.169.953zm-1.519-.794l.352.223l-.058.091L4 21.048zm.985.882v-.757h.107v.757zm-.573 0v-.535h.108v.535zm5.081-1.264l-.638-.522l.068-.084l.637.522zm-.532.25l-.677-.51l.064-.086l.677.509zm-.68.246l-.467-.392l.068-.083l.469.392zm1.323.705l.182-.914l.105.021l-.182.914zM7.88 21.3l-.443-.222l.048-.097l.443.222zm1.118.64l.286-.927l.102.033l-.286.927zm-.56.001l.208-.705l.103.031l-.208.705zm-.585-.002l.195-.575l.102.036l-.195.574zm7.504-1.77l-.753.484l-.058-.091l.753-.485zm.576.296l-.718.437l-.056-.093l.718-.437zm.47.343l-.612.354l-.054-.094l.612-.354zm-1.882 1.01l-.094-.85l.107-.012l.094.85zm2.283-.657l-.4.248l-.056-.092l.4-.248zm-1.6.839l-.176-.874l.106-.021l.176.874zm.507 0l-.13-.698l.106-.02l.13.697zm.612-.084l-.07-.414l.105-.018l.07.413z" clip-rule="evenodd"/><path fill="#000" fill-rule="evenodd" d="m19.32 20.23l-.753.39l-.05-.096l.754-.39zm.343.318l-.635.366l-.053-.094l.635-.366zm-1.834.98v-.838h.108v.839zm2.194-.611l-.436.189l-.042-.1l.435-.189zm-1.652.777v-.827h.107v.827zm.459.059v-.697h.107v.697zm.518 0v-.508h.107v.508zm.144-3.127l.153-.378l.1.041l-.153.378zm-.59.146l.165-.52l.102.033l-.164.52zm1.047.442l-.294-.33l.08-.073l.294.331zm-.352.273l-.412-.45l.079-.073l.412.449zm-.52.328l-.495-.602l.083-.07l.495.603zm-4.862-3.555v-.425h.108v.426zm-.317.328l-.094-.59l.106-.018l.095.591zm-.34.42l-.2-.733l.104-.029l.2.733zm-.375.346l-.27-.756l.1-.037l.271.756zm-3.018-1.442l-.177.52l-.102-.035l.177-.52zm.343.134l-.13.708l-.106-.018l.13-.71zm.423.274l-.188.803l-.105-.024l.188-.803z" clip-rule="evenodd"/><path fill="#573A22" d="M8.543 19.522c-.844.672-1.409-.046-1.586-.49l.897-.541l.82-.901c.307.364.712 1.26-.131 1.932"/><path fill="url(#tokenBrandedCawa)" d="M6.391 20.576c-.639-.504-.543-.965-.415-1.133l2.736.225l-.223.673l-.99.545c-.665.402-1.015-.04-1.108-.31"/><path fill="#000" fill-rule="evenodd" d="m5.951 19.387l2.834.232l-.252.76l-1.007.554c-.344.207-.618.202-.82.098a.8.8 0 0 1-.36-.422c-.318-.255-.46-.503-.502-.715a.6.6 0 0 1 .09-.484zm.052.113a.52.52 0 0 0-.054.372c.037.184.163.415.476.661l.012.01l.005.015a.68.68 0 0 0 .313.377c.162.083.396.098.716-.096h.002l.972-.535l.195-.588z" clip-rule="evenodd"/><path fill="url(#tokenBrandedCawb)" d="M9.979 16.986c-.443-.744-1.03-.63-1.267-.481l.16.951l.106 2.169l.532-.278l.469-1.197l.415-.48c.06-.265-.252-.567-.415-.684"/><path fill="#000" fill-rule="evenodd" d="m8.771 16.533l.155.92l.102 2.085l.44-.23l.464-1.186l.412-.477c.018-.105-.032-.225-.117-.34a1.4 1.4 0 0 0-.28-.275l-.008-.007l-.006-.01c-.215-.36-.46-.507-.675-.55a.74.74 0 0 0-.487.07m1.248.415c-.226-.375-.493-.542-.74-.59a.84.84 0 0 0-.596.101l-.03.02l.165.983l.11 2.25l.625-.326l.473-1.207l.418-.484l.003-.013c.035-.157-.04-.315-.134-.442a1.5 1.5 0 0 0-.294-.291" clip-rule="evenodd"/><path fill="url(#tokenBrandedCawc)" d="M6.306 19.65c.275.532.89.394 1.164.259l-1.274-2.483c-.657-.089-.772.25-.747.43a5 5 0 0 1-.062.664c-.049.221-.122.762.356.86c.478.099.502.27.563.27"/><path fill="#000" fill-rule="evenodd" d="M5.603 17.58a.3.3 0 0 0-.101.269v.009a5 5 0 0 1-.062.674c-.024.108-.053.29-.02.453a.46.46 0 0 0 .1.215a.4.4 0 0 0 .234.127c.245.05.378.121.459.182q.05.04.076.067l.008.007l.015.014h.027l.015.029a.62.62 0 0 0 .538.35c.186.012.373-.037.505-.093L6.16 17.476c-.302-.036-.47.025-.558.105m-.072-.08c.124-.111.336-.174.672-.128l.028.004l1.312 2.557l-.049.025c-.143.07-.375.142-.609.126a.73.73 0 0 1-.615-.387l-.015-.008l-.032-.027l-.01-.01l-.064-.056c-.066-.05-.184-.115-.417-.163a.5.5 0 0 1-.294-.162a.56.56 0 0 1-.123-.264a1.3 1.3 0 0 1 .02-.499c.038-.17.056-.5.06-.65a.42.42 0 0 1 .136-.359" clip-rule="evenodd"/><path fill="#DE8F54" d="M5.654 17.947a.48.48 0 0 1 .316-.454c-.197 0-.48 0-.5.326s-.08.197-.089.854c-.01.657.344.685.658.783c.252.08.474.35.553.477c.498.163.72.007.769-.091c-.443.136-.697-.019-.769-.113c-.03-.11-.197-.352-.622-.443c-.425-.09-.44-.446-.396-.613c.023-.12.07-.436.08-.726"/><path fill="url(#tokenBrandedCawd)" d="M6.263 17.274c-.306.684.284 1.232.618 1.421l1.256.107l.863-.587c-.018-.079-.009-.338.17-.748a.603.603 0 0 0-.224-.78c-.145-.072-.56-.274-1.054-.513c-.617-.3-.958.139-1.011.299c-.043.128-.43.588-.618.801"/><path fill="#000" fill-rule="evenodd" d="M7.2 16.199a.6.6 0 0 0-.268.291a.8.8 0 0 1-.096.164a5 5 0 0 1-.168.221a11 11 0 0 1-.36.429a.87.87 0 0 0 .07.838c.142.232.359.408.519.5l1.226.105l.818-.558a1 1 0 0 1 .017-.233a2.3 2.3 0 0 1 .162-.511a.56.56 0 0 0 .012-.466a.57.57 0 0 0-.211-.245l-1.052-.512c-.294-.142-.516-.107-.669-.023m-.051-.096c.185-.1.443-.135.766.022l1.055.513l.004.002c.082.05.191.15.256.294a.67.67 0 0 1-.011.554a2.2 2.2 0 0 0-.155.487a.7.7 0 0 0-.012.227l.008.037l-.909.619l-1.287-.11l-.01-.005a1.66 1.66 0 0 1-.568-.544a.98.98 0 0 1-.072-.947l.003-.008l.006-.006c.093-.106.236-.274.361-.43q.096-.12.165-.217a.7.7 0 0 0 .08-.135a.7.7 0 0 1 .32-.353" clip-rule="evenodd"/><path fill="#ADAD33" d="M6.988 17.662c.124-.106.388-.321.457-.34c.09.058.268.183.268.221c0 .047.048.42 0 .53c-.047.11-.504 0-.543 0c-.032 0-.134-.274-.182-.411"/><path fill="#DE8F54" d="M6.72 16.964c-.28.35-.372.745-.382.898c-.247-.154-.103-.541 0-.716l.457-.48c.047-.172.222-.524.554-.567c.415-.054.703.214.926.278c.776.222.849.534.788.662c-.085-.222-.312-.342-.415-.374c-.17-.06-.609-.216-1-.352c-.49-.171-.576.213-.927.651m3.034-.053a.92.92 0 0 0-.65-.417c.452-.145.77.31.874.556c.335.289.38.526.362.609l-.235.064c.036-.078.086-.265 0-.384a7 7 0 0 0-.351-.428m-3.439 3.302c-.28-.342-.273-.599-.234-.684c-.349.265.01.766.234.983l.437.46c.4.136.642-.058.713-.172a.79.79 0 0 1-.713 0c-.028-.053-.155-.245-.437-.587"/><path fill="#ADAD33" d="M5.66 18.951c.917-.448 1.93-.116 2.321.107c-.167 0-.649.011-1.242.057c-.593.047-.966-.09-1.079-.164"/><path fill="#000" fill-rule="evenodd" d="M7.026 18.7c.423.055.781.196.983.31l.179.102h-.206c-.165 0-.646.011-1.238.058c-.601.046-.987-.091-1.112-.173l-.08-.053l.086-.041c.47-.23.964-.26 1.388-.204m-1.24.254c.164.066.486.144.95.107c.418-.032.782-.048 1.02-.054a3 3 0 0 0-.744-.2a2.35 2.35 0 0 0-1.226.147" clip-rule="evenodd"/><path fill="#ADAD33" d="M6.499 17.966c-.062-.449.295-.613.481-.639c-.323.557.039 1.18.26 1.421c-.221-.074-.68-.334-.741-.783"/><path fill="#000" fill-rule="evenodd" d="m7.082 17.259l-.056.096c-.152.261-.144.54-.069.785c.075.247.216.456.322.572l-.056.088a1.4 1.4 0 0 1-.449-.262a.92.92 0 0 1-.329-.565c-.033-.242.047-.412.164-.524a.7.7 0 0 1 .364-.175zm-.399.268c-.092.089-.16.224-.131.431a.82.82 0 0 0 .292.498c.072.063.149.114.22.154c-.08-.12-.159-.27-.21-.438a1.1 1.1 0 0 1 .025-.763a.6.6 0 0 0-.196.118" clip-rule="evenodd"/><path fill="#ADAD33" d="M8.627 17.202c-.315-.395-.902-.203-1.155-.058c.289-.058.684.058.732.358a.5.5 0 0 1-.135.454c-.026.26-.081.794-.096.84c-.016.047.115.02.183 0c.007-.394.189-.68.279-.773c.308-.27.257-.66.192-.821"/><path fill="#000" fill-rule="evenodd" d="M7.744 17.084q.106.015.204.055c.152.063.28.18.309.354a.57.57 0 0 1-.137.489a46 46 0 0 1-.076.707l-.011.078l.07-.012c.02-.389.198-.67.293-.77l.003-.002c.28-.245.24-.599.181-.753c-.143-.174-.345-.22-.55-.205a1.2 1.2 0 0 0-.286.059m.278-.167c.228-.018.474.035.647.25l.005.007l.003.008c.069.171.125.589-.205.88a1.18 1.18 0 0 0-.263.736v.04l-.039.01a1 1 0 0 1-.133.027a.2.2 0 0 1-.069-.004a.07.07 0 0 1-.04-.032a.07.07 0 0 1-.007-.06l.002-.007l.004-.022l.01-.074a47 47 0 0 0 .078-.725l.002-.022l.017-.015a.45.45 0 0 0 .116-.404c-.02-.125-.113-.216-.243-.271a.76.76 0 0 0-.425-.042l-.037-.1c.132-.076.35-.163.577-.18" clip-rule="evenodd"/><path fill="#906D47" d="M7.875 17.347c.1.224-.086.396-.192.454c-.093 0-.148-.303-.164-.454c-.257.177-.645.618-.144.966c.5.348.677.661.703.774l-.77-.329a1.84 1.84 0 0 1-.444-.783c-.135-.493.27-.715.395-.783c.125-.067.491-.125.616.155"/><path fill="#000" fill-rule="evenodd" d="M7.573 17.085a.41.41 0 0 1 .352.24a.35.35 0 0 1-.023.34a.54.54 0 0 1-.193.184l-.012.006h-.014c-.054 0-.089-.043-.109-.075a.6.6 0 0 1-.053-.134a2 2 0 0 1-.043-.2a.9.9 0 0 0-.265.34a.35.35 0 0 0-.012.238a.5.5 0 0 0 .204.245c.254.176.428.345.541.485a.9.9 0 0 1 .184.32l.024.104l-.877-.374l-.006-.006a1.9 1.9 0 0 1-.459-.808a.64.64 0 0 1 .11-.6a1 1 0 0 1 .312-.245a.64.64 0 0 1 .339-.06m-.01.108a.54.54 0 0 0-.278.047a.9.9 0 0 0-.279.218a.54.54 0 0 0-.09.503c.103.374.321.654.421.751l.638.272a1 1 0 0 0-.112-.162a2.5 2.5 0 0 0-.519-.464a.6.6 0 0 1-.245-.3a.46.46 0 0 1 .014-.311c.072-.19.243-.353.376-.445l.074-.051l.01.09c.007.074.025.184.051.275a.5.5 0 0 0 .055.125a.4.4 0 0 0 .132-.133a.25.25 0 0 0 .015-.239c-.052-.117-.153-.165-.264-.176" clip-rule="evenodd"/><path fill="#906D47" d="M8.212 17.482c-.069-.379-.414-.383-.577-.338c.086.068.298.106.211.522c-.069.332-.504.341-.693.302c-.1.155.549.642.867.867l.058-.821c.073-.02.204-.153.134-.532"/><path fill="#000" fill-rule="evenodd" d="M7.786 17.179a.4.4 0 0 1 .062.063c.066.087.096.218.051.435c-.04.194-.188.29-.34.332a1 1 0 0 1-.357.022a.3.3 0 0 0 .043.074c.048.067.126.146.22.23c.159.141.355.29.508.4l.054-.764l.037-.01c.031-.008.163-.098.096-.469c-.032-.17-.122-.25-.22-.287a.5.5 0 0 0-.154-.026m.192-.076c.132.05.25.16.287.37c.064.345-.032.522-.136.578l-.062.884l-.078-.055a7 7 0 0 1-.595-.464a1.7 1.7 0 0 1-.236-.247a.4.4 0 0 1-.06-.112a.14.14 0 0 1 .01-.118l.02-.031l.036.007a.85.85 0 0 0 .367-.011c.13-.036.234-.11.263-.25c.041-.198.009-.294-.031-.347a.3.3 0 0 0-.075-.066l-.032-.019l-.011-.007l-.043-.028l-.085-.067l.103-.028a.6.6 0 0 1 .358.011" clip-rule="evenodd"/><path fill="#F5FA4D" d="m6.949 19.129l.01.011c.82.974 1.133.565 1.697.269c.454-.238.398-1.05.314-1.426c.279.47.575 1.5-.47 1.863c-1.25.435-1.464-.579-1.542-.706z"/><path fill="#ADAD33" d="M9.806 17.756c-.052.026-1.812 1.067-2.17 2.693c.52-.457 1.682-1.637 2.17-2.693"/><path fill="#000" fill-rule="evenodd" d="m9.92 17.639l-.065.14c-.247.535-.663 1.098-1.08 1.584a12 12 0 0 1-1.103 1.127l-.123.108l.035-.16c.182-.829.72-1.505 1.215-1.975s.952-.74.983-.756zm-2.187 2.65c.256-.236.61-.59.96-.997c.37-.431.736-.92.982-1.39l-.148.101a6 6 0 0 0-.654.539c-.453.43-.933 1.027-1.14 1.748" clip-rule="evenodd"/><path fill="#573A22" d="M15.298 19.493c.843.672 1.408-.046 1.586-.49l-.898-.541l-.819-.901c-.308.364-.713 1.26.13 1.932"/><path fill="url(#tokenBrandedCawe)" d="M17.45 20.547c.638-.504.543-.965.415-1.133l-2.737.225l.224.673l.99.545c.665.402 1.015-.04 1.108-.31"/><path fill="#000" fill-rule="evenodd" d="m17.89 19.358l-2.835.232l.252.76l1.008.554c.344.207.617.202.82.098a.78.78 0 0 0 .36-.422c.317-.255.46-.503.502-.715a.6.6 0 0 0-.09-.484zm-.052.113a.52.52 0 0 1 .053.372c-.036.184-.163.415-.475.661l-.013.01l-.005.015a.68.68 0 0 1-.312.377c-.163.083-.397.098-.717-.096h-.002l-.971-.536l-.195-.587z" clip-rule="evenodd"/><path fill="url(#tokenBrandedCawf)" d="M13.86 16.957c.444-.744 1.03-.63 1.268-.481l-.16.95l-.106 2.17l-.533-.278l-.468-1.197l-.416-.48c-.06-.265.252-.567.416-.684"/><path fill="#000" fill-rule="evenodd" d="m15.069 16.504l-.155.92l-.102 2.085l-.44-.23l-.464-1.186l-.412-.477c-.018-.106.032-.225.117-.34c.087-.118.2-.219.28-.275l.008-.007l.006-.01c.215-.36.46-.507.675-.55a.74.74 0 0 1 .487.07m-1.249.415c.227-.376.494-.542.74-.59a.84.84 0 0 1 .596.101l.031.02l-.165.983l-.11 2.25l-.625-.326l-.473-1.207l-.418-.484l-.003-.014c-.035-.156.04-.314.133-.441c.092-.124.21-.23.294-.292" clip-rule="evenodd"/><path fill="url(#tokenBrandedCawg)" d="M17.534 19.622c-.275.53-.89.393-1.164.258l1.274-2.483c.657-.089.772.25.747.43c.004.147.022.487.061.664c.05.221.123.762-.355.86c-.478.099-.502.27-.563.27"/><path fill="#000" fill-rule="evenodd" d="M18.237 17.551c.092.082.11.192.1.268v.009c.004.147.022.492.063.675c.024.108.052.29.02.453a.46.46 0 0 1-.1.215a.4.4 0 0 1-.234.127c-.245.05-.378.121-.46.182q-.05.04-.075.066l-.008.008l-.015.014H17.5l-.016.029a.62.62 0 0 1-.538.35a1.15 1.15 0 0 1-.504-.093l1.235-2.407c.303-.036.47.025.559.104m.071-.08c-.124-.111-.335-.174-.672-.128l-.027.003l-1.313 2.558l.05.025c.142.07.374.142.608.126a.73.73 0 0 0 .616-.387l.015-.008l.032-.027l.01-.01q.023-.024.064-.056c.066-.05.184-.115.417-.163a.5.5 0 0 0 .293-.162a.56.56 0 0 0 .124-.264a1.3 1.3 0 0 0-.02-.499c-.038-.17-.056-.5-.06-.65a.42.42 0 0 0-.137-.359" clip-rule="evenodd"/><path fill="#DE8F54" d="M18.187 17.918a.48.48 0 0 0-.317-.454c.197 0 .481 0 .501.326s.079.197.088.854c.01.657-.343.684-.658.783c-.252.079-.473.35-.553.477c-.497.163-.72.007-.768-.091c.443.136.697-.019.768-.114c.03-.11.197-.351.622-.442c.425-.09.441-.447.396-.613a5 5 0 0 1-.08-.726"/><path fill="url(#tokenBrandedCawh)" d="M17.577 17.245c.306.684-.284 1.233-.618 1.421l-1.256.107l-.863-.587c.018-.079.009-.338-.17-.748a.603.603 0 0 1 .224-.78c.145-.072.56-.274 1.054-.513c.617-.3.958.139 1.011.299c.043.128.43.588.618.801"/><path fill="#000" fill-rule="evenodd" d="M16.64 16.17a.6.6 0 0 1 .268.291c.014.04.05.1.095.163c.046.066.105.143.168.222c.124.156.265.322.36.429a.87.87 0 0 1-.069.838a1.5 1.5 0 0 1-.52.5l-1.225.105l-.819-.558a1 1 0 0 0-.016-.233a2.3 2.3 0 0 0-.163-.511a.56.56 0 0 1-.011-.467a.57.57 0 0 1 .211-.244l1.052-.511c.294-.143.515-.108.669-.024m.05-.096c-.184-.1-.442-.135-.766.022l-1.054.513l-.004.002a.7.7 0 0 0-.256.294a.67.67 0 0 0 .01.554a2.2 2.2 0 0 1 .156.487a.7.7 0 0 1 .012.227l-.008.037l.908.619l1.287-.11l.01-.005c.173-.098.412-.288.569-.544a.98.98 0 0 0 .072-.947l-.004-.008l-.005-.006a13 13 0 0 1-.362-.43a5 5 0 0 1-.164-.217a.7.7 0 0 1-.08-.135a.7.7 0 0 0-.32-.353" clip-rule="evenodd"/><path fill="#ADAD33" d="M16.852 17.633c-.123-.106-.388-.322-.457-.34c-.09.058-.268.183-.268.221c0 .047-.047.42 0 .53s.504 0 .544 0c.031 0 .134-.274.181-.411"/><path fill="#DE8F54" d="M17.119 16.935a1.8 1.8 0 0 1 .383.898c.247-.154.103-.542 0-.716l-.458-.48c-.046-.172-.221-.525-.554-.567c-.415-.054-.702.213-.926.277c-.775.223-.848.535-.788.663c.085-.222.313-.342.415-.374l1.001-.353c.49-.17.575.214.927.652m-3.035-.053a.92.92 0 0 1 .65-.417c-.452-.145-.77.31-.874.556c-.335.288-.38.526-.362.609l.235.064c-.036-.078-.086-.265 0-.385s.27-.335.351-.427m3.439 3.302c.282-.343.274-.599.235-.684c.349.265-.01.765-.235.983l-.436.46c-.4.136-.642-.058-.713-.172a.79.79 0 0 0 .713 0c.028-.053.155-.245.436-.588"/><path fill="#ADAD33" d="M18.18 18.922c-.918-.448-1.93-.116-2.322.107c.167 0 .65.011 1.242.057c.594.047.967-.09 1.08-.164"/><path fill="#000" fill-rule="evenodd" d="M16.815 18.67a2.9 2.9 0 0 0-.983.311l-.18.102h.206c.165 0 .646.011 1.238.057c.602.047.988-.09 1.113-.172l.08-.053l-.086-.042a2.4 2.4 0 0 0-1.388-.203m1.24.255c-.164.066-.487.144-.95.107a21 21 0 0 0-1.02-.054c.194-.082.452-.162.744-.2a2.35 2.35 0 0 1 1.225.147" clip-rule="evenodd"/><path fill="#ADAD33" d="M17.34 17.936c.062-.448-.295-.612-.48-.638c.323.557-.04 1.18-.26 1.421c.22-.074.68-.334.74-.783"/><path fill="#000" fill-rule="evenodd" d="m16.757 17.23l.056.096c.152.261.144.54.07.785a1.6 1.6 0 0 1-.323.572l.057.088c.116-.04.293-.126.448-.262a.92.92 0 0 0 .33-.565c.033-.242-.047-.412-.165-.524a.7.7 0 0 0-.363-.175zm.4.268c.092.089.16.224.131.431a.82.82 0 0 1-.293.498a1.3 1.3 0 0 1-.22.154c.08-.12.16-.27.21-.438a1.1 1.1 0 0 0-.024-.763a.6.6 0 0 1 .195.118" clip-rule="evenodd"/><path fill="#ADAD33" d="M15.213 17.173c.316-.394.903-.203 1.156-.058c-.289-.058-.684.058-.732.358a.5.5 0 0 0 .135.454c.026.26.08.794.096.84c.016.047-.115.02-.183 0a1.22 1.22 0 0 0-.28-.773c-.307-.27-.256-.66-.192-.821"/><path fill="#000" fill-rule="evenodd" d="M16.096 17.055a.8.8 0 0 0-.204.055c-.151.063-.28.18-.308.354a.57.57 0 0 0 .136.489a44 44 0 0 0 .077.707l.01.077l-.07-.012c-.019-.388-.197-.67-.292-.768l-.004-.004c-.279-.245-.24-.598-.18-.753c.142-.173.345-.22.55-.204c.099.007.197.03.285.059m-.277-.168c-.229-.017-.475.036-.648.252l-.005.006l-.003.008c-.068.171-.125.589.206.88c.082.087.255.359.262.736l.001.04l.039.01c.035.01.088.023.132.027a.2.2 0 0 0 .07-.005a.1.1 0 0 0 .04-.03a.07.07 0 0 0 .006-.06l-.001-.008l-.004-.023l-.01-.073l-.027-.225c-.019-.172-.039-.37-.052-.5l-.002-.023l-.017-.014a.45.45 0 0 1-.116-.404c.02-.125.113-.217.243-.272a.76.76 0 0 1 .426-.041l.037-.1a1.5 1.5 0 0 0-.577-.18" clip-rule="evenodd"/><path fill="#906D47" d="M15.964 17.318c-.1.224.087.396.193.454c.092 0 .147-.303.163-.454c.257.177.646.618.145.966s-.678.66-.703.774l.77-.329a1.84 1.84 0 0 0 .443-.783c.135-.493-.27-.715-.395-.783c-.125-.067-.49-.125-.616.155"/><path fill="#000" fill-rule="evenodd" d="M16.267 17.056a.41.41 0 0 0-.352.24a.35.35 0 0 0 .022.34a.54.54 0 0 0 .194.184l.012.006h.014c.053 0 .088-.043.108-.076a.6.6 0 0 0 .053-.133c.02-.065.034-.137.043-.2a.9.9 0 0 1 .265.34c.03.079.038.159.012.238a.5.5 0 0 1-.204.245a2.6 2.6 0 0 0-.54.485a.9.9 0 0 0-.185.32l-.024.104l.877-.374l.007-.006a1.9 1.9 0 0 0 .458-.808a.64.64 0 0 0-.11-.6a1 1 0 0 0-.311-.245a.64.64 0 0 0-.34-.06m.01.108a.54.54 0 0 1 .278.047a.9.9 0 0 1 .278.218c.09.114.153.275.09.503a1.8 1.8 0 0 1-.42.751l-.639.272q.038-.069.113-.161c.106-.132.271-.294.518-.465a.6.6 0 0 0 .246-.3a.46.46 0 0 0-.014-.311c-.073-.191-.244-.353-.377-.445l-.074-.051l-.01.09a2 2 0 0 1-.05.274a.5.5 0 0 1-.055.126a.4.4 0 0 1-.132-.133a.25.25 0 0 1-.016-.239c.052-.117.154-.165.264-.176" clip-rule="evenodd"/><path fill="#906D47" d="M15.627 17.453c.069-.379.414-.383.577-.338c-.086.068-.298.106-.211.522c.069.332.504.34.693.302c.1.155-.549.642-.867.867l-.058-.821c-.073-.02-.204-.153-.134-.532"/><path fill="#000" fill-rule="evenodd" d="M16.053 17.15a.4.4 0 0 0-.062.063c-.066.087-.096.218-.05.435c.04.194.188.29.34.332a1 1 0 0 0 .356.022a.3.3 0 0 1-.042.074a1.6 1.6 0 0 1-.22.23c-.16.141-.356.29-.509.4l-.053-.764l-.038-.01c-.03-.008-.163-.098-.095-.47c.031-.17.121-.25.219-.286a.5.5 0 0 1 .154-.026m-.191-.076c-.133.05-.25.16-.288.37c-.063.345.032.522.136.578l.063.884l.078-.055a7 7 0 0 0 .594-.464c.096-.085.181-.171.236-.247a.4.4 0 0 0 .061-.112a.14.14 0 0 0-.01-.118l-.02-.031l-.036.007a.85.85 0 0 1-.367-.011c-.13-.036-.235-.11-.264-.25c-.04-.198-.008-.294.032-.347a.3.3 0 0 1 .075-.066l.031-.019l.055-.035l.085-.067l-.104-.028a.6.6 0 0 0-.357.011" clip-rule="evenodd"/><path fill="#F5FA4D" d="m16.892 19.1l-.01.011c-.82.973-1.134.565-1.698.269c-.453-.238-.398-1.05-.313-1.426c-.28.47-.576 1.499.47 1.863c1.25.435 1.464-.579 1.541-.706z"/><path fill="#ADAD33" d="M14.034 17.727c.052.026 1.812 1.067 2.17 2.693c-.52-.458-1.682-1.637-2.17-2.693"/><path fill="#000" fill-rule="evenodd" d="m13.92 17.61l.066.14c.247.535.663 1.098 1.08 1.583c.419.487.84.897 1.103 1.128l.123.108l-.035-.16c-.182-.83-.72-1.505-1.215-1.975a5.6 5.6 0 0 0-.984-.756zm2.188 2.65c-.257-.236-.61-.59-.96-.998c-.37-.43-.736-.919-.982-1.39l.148.102a6 6 0 0 1 .654.539c.453.43.933 1.027 1.14 1.748" clip-rule="evenodd"/><path fill="#573A22" d="M12.27 20.545c-.986.432-1.349-.408-1.407-.882l1.006-.292l1.023-.66c.204.432.366 1.403-.622 1.834"/><path fill="url(#tokenBrandedCawi)" d="M9.922 21.009c-.489-.652-.278-1.073-.112-1.202l2.587.923l-.388.593l-1.097.27c-.745.218-.97-.299-.99-.584"/><path fill="#000" fill-rule="evenodd" d="m9.8 19.746l2.68.956l-.438.668l-1.116.276c-.385.112-.648.037-.817-.116a.8.8 0 0 1-.24-.501c-.242-.328-.315-.604-.302-.82a.6.6 0 0 1 .21-.445zm.022.123a.52.52 0 0 0-.148.346c-.011.187.052.443.29.761l.01.013l.001.016c.01.133.068.319.206.444c.136.123.358.197.717.093h.002l1.076-.267l.339-.517z" clip-rule="evenodd"/><path fill="url(#tokenBrandedCawj)" d="M13.794 20.725c.488-.652.278-1.072.111-1.201l-2.587.922l.389.593l1.096.271c.745.217.971-.3.991-.585"/><path fill="#000" fill-rule="evenodd" d="m13.915 19.463l.023.018a.6.6 0 0 1 .21.444c.014.216-.06.492-.302.82a.8.8 0 0 1-.24.502c-.168.152-.431.228-.817.116l-1.116-.276l-.438-.669zM11.4 20.474l.339.518l1.078.266c.359.105.581.03.716-.092a.68.68 0 0 0 .206-.444l.001-.016l.01-.013c.239-.319.302-.575.29-.761a.52.52 0 0 0-.147-.347z" clip-rule="evenodd"/><path fill="url(#tokenBrandedCawk)" d="M14.308 18.465c-.237-.833-.833-.875-1.101-.792l-.09.96l-.452 2.124l.586-.131l.759-1.036l.524-.357c.126-.241-.098-.613-.226-.768"/><path fill="#000" fill-rule="evenodd" d="m13.257 17.716l-.086.929l-.435 2.04l.484-.108l.752-1.026l.52-.355c.045-.098.027-.226-.026-.36a1.4 1.4 0 0 0-.2-.337l-.006-.009l-.003-.01c-.116-.405-.315-.61-.511-.706a.74.74 0 0 0-.489-.058m1.1.723c-.123-.422-.338-.651-.564-.762a.84.84 0 0 0-.602-.056l-.034.011l-.092.993l-.47 2.203l.687-.154l.766-1.044l.528-.36l.006-.012c.074-.142.042-.315-.016-.461a1.5 1.5 0 0 0-.209-.358" clip-rule="evenodd"/><path fill="url(#tokenBrandedCawl)" d="M10.077 20.093c.129.584.76.61 1.059.55l-.596-2.729c-.612-.255-.81.043-.832.223a5 5 0 0 1-.23.626c-.104.201-.313.705.123.923c.437.219.417.391.476.407"/><path fill="#000" fill-rule="evenodd" d="M9.927 17.91a.3.3 0 0 0-.166.234v.004l-.002.004a5 5 0 0 1-.233.636a1.2 1.2 0 0 0-.135.434a.46.46 0 0 0 .04.232a.4.4 0 0 0 .194.184c.224.112.335.214.398.294q.04.052.056.084l.006.01l.011.016l.026.007l.007.032c.06.27.234.41.43.477c.177.06.37.061.512.04l-.577-2.644c-.284-.113-.46-.097-.567-.043m-.048-.096c.148-.075.368-.08.682.05l.026.01l.613 2.811l-.054.01a1.26 1.26 0 0 1-.62-.034a.73.73 0 0 1-.496-.533l-.013-.012l-.024-.034l-.006-.011q-.018-.03-.049-.072c-.05-.065-.148-.158-.36-.264a.52.52 0 0 1-.243-.232a.56.56 0 0 1-.051-.288c.011-.19.094-.375.147-.477c.08-.154.181-.468.224-.612a.42.42 0 0 1 .224-.312" clip-rule="evenodd"/><path fill="#DE8F54" d="M9.881 18.278a.48.48 0 0 1 .423-.357c-.19-.05-.465-.124-.568.186s-.126.17-.304.803c-.178.632.157.75.436.926c.223.141.367.46.412.603c.439.286.694.193.766.11c-.463.018-.669-.197-.714-.307c0-.114-.1-.39-.488-.588c-.387-.198-.311-.545-.225-.695c.053-.11.18-.403.262-.681"/><path fill="url(#tokenBrandedCawm)" d="M10.643 17.785c-.471.582-.04 1.264.233 1.533l1.187.427l.984-.346c.003-.08.078-.328.356-.678a.603.603 0 0 0-.016-.812c-.123-.106-.471-.409-.888-.767c-.52-.449-.961-.113-1.054.028c-.074.113-.565.457-.802.615"/><path fill="#000" fill-rule="evenodd" d="M11.825 16.988a.6.6 0 0 0-.335.212a.8.8 0 0 1-.133.133a5 5 0 0 1-.22.171c-.16.119-.338.242-.457.322a.87.87 0 0 0-.148.827c.078.261.243.487.374.618l1.157.417l.934-.328a1 1 0 0 1 .076-.221a2.3 2.3 0 0 1 .288-.452a.56.56 0 0 0 .13-.448a.57.57 0 0 0-.141-.29c-.124-.108-.471-.41-.886-.766c-.247-.214-.47-.237-.64-.195m-.026-.106c.205-.05.463-.016.736.219c.416.358.765.66.887.767l.004.003c.067.07.146.194.172.35a.66.66 0 0 1-.153.533a2.2 2.2 0 0 0-.274.43a.7.7 0 0 0-.07.217l-.002.038l-1.036.364l-1.216-.438l-.008-.008a1.66 1.66 0 0 1-.41-.672a.98.98 0 0 1 .173-.934l.005-.006l.007-.005c.117-.078.299-.204.46-.323c.08-.06.155-.117.214-.167c.06-.051.1-.09.112-.11a.7.7 0 0 1 .4-.258" clip-rule="evenodd"/><path fill="#ADAD33" d="M11.245 18.347c.147-.07.457-.21.53-.211c.07.079.211.246.201.283c-.012.046-.061.417-.136.512c-.073.095-.487-.13-.525-.14c-.03-.008-.06-.3-.07-.445"/><path fill="#DE8F54" d="M11.165 17.604a1.8 1.8 0 0 0-.6.768c-.2-.212.039-.55.183-.691l.565-.347c.089-.153.348-.449.68-.405c.415.056.625.388.825.508c.692.414.682.735.591.843c-.025-.237-.214-.41-.305-.468l-.877-.6c-.43-.29-.61.059-1.062.392m2.946.731a.92.92 0 0 0-.52-.57c.473-.024.664.497.7.762c.251.365.234.607.195.681l-.243.002c.054-.067.15-.234.098-.372a7 7 0 0 0-.23-.503m-4.168 2.304c-.184-.403-.111-.65-.052-.722c-.405.166-.185.743-.025 1.01l.304.557c.352.236.636.11.733.019a.79.79 0 0 1-.689-.184c-.014-.059-.087-.277-.271-.68m3.83-.284c.184-.403.111-.649.052-.721c.405.166.185.743.025 1.01l-.304.557c-.352.235-.636.11-.733.018a.79.79 0 0 0 .689-.183c.014-.06.087-.278.271-.68"/><path fill="#ADAD33" d="M9.631 19.25c1.001-.196 1.895.386 2.216.701a18 18 0 0 0-1.215-.264c-.585-.108-.911-.336-1-.437"/><path fill="#000" fill-rule="evenodd" d="M11.015 19.359c.395.163.705.391.87.554l.147.144l-.198-.053c-.16-.043-.628-.156-1.212-.264c-.593-.11-.93-.342-1.03-.454l-.064-.07l.093-.019c.514-.1.998-.002 1.394.162m-1.263-.074c.141.106.433.264.89.349c.413.076.768.155.999.21a3 3 0 0 0-.667-.385a2.35 2.35 0 0 0-1.222-.174" clip-rule="evenodd"/><path fill="#ADAD33" d="M10.694 18.514c.055-.45.442-.516.629-.492c-.456.454-.265 1.15-.113 1.44c-.195-.129-.571-.499-.516-.948"/><path fill="#000" fill-rule="evenodd" d="m11.44 17.981l-.08.079c-.213.213-.277.484-.268.741c.01.258.093.496.166.635l-.077.071a1.4 1.4 0 0 1-.367-.369a.92.92 0 0 1-.173-.63c.03-.243.15-.387.293-.465a.7.7 0 0 1 .395-.075zm-.455.157c-.112.062-.212.175-.237.382a.82.82 0 0 0 .155.557c.053.08.114.148.173.205a1.7 1.7 0 0 1-.091-.477a1.1 1.1 0 0 1 .22-.731a.6.6 0 0 0-.22.064" clip-rule="evenodd"/><path fill="#ADAD33" d="M12.947 18.325c-.204-.463-.82-.429-1.102-.354c.294.018.646.232.616.534a.5.5 0 0 1-.247.404a16 16 0 0 1-.309.788c-.026.041.107.049.177.047c.109-.379.357-.608.468-.675c.367-.182.418-.572.397-.744"/><path fill="#000" fill-rule="evenodd" d="M12.124 17.983a.8.8 0 0 1 .183.106c.13.1.225.245.207.421a.57.57 0 0 1-.257.438a44 44 0 0 1-.255.664l-.03.071l.07.007c.119-.37.364-.596.48-.667l.005-.003c.332-.165.384-.516.367-.68c-.093-.205-.277-.303-.479-.34a1.3 1.3 0 0 0-.291-.017m.311-.09c.225.042.45.157.561.41l.003.007l.001.008c.022.184-.03.602-.424.799c-.101.062-.338.28-.442.642l-.01.039h-.04a1 1 0 0 1-.136-.008a.2.2 0 0 1-.065-.023a.1.1 0 0 1-.032-.04a.07.07 0 0 1 .01-.06l.003-.006l.01-.021l.028-.07a46 46 0 0 0 .261-.68l.008-.02l.02-.01a.45.45 0 0 0 .216-.36c.013-.126-.053-.239-.166-.326a.76.76 0 0 0-.4-.15l-.01-.106c.147-.039.38-.067.604-.025" clip-rule="evenodd"/><path fill="#906D47" d="M12.183 18.271c.04.243-.185.36-.302.39c-.09-.024-.065-.331-.042-.482c-.294.105-.782.432-.387.897s.485.813.481.929l-.66-.517a1.84 1.84 0 0 1-.228-.87c-.004-.512.444-.622.582-.655s.507.005.556.308"/><path fill="#000" fill-rule="evenodd" d="M11.958 17.94a.41.41 0 0 1 .278.322a.35.35 0 0 1-.108.323a.54.54 0 0 1-.235.128l-.013.003l-.013-.003c-.052-.014-.075-.064-.085-.101a.6.6 0 0 1-.018-.143c-.002-.067.003-.14.01-.205a.9.9 0 0 0-.343.26a.35.35 0 0 0-.073.227c.005.083.042.18.135.29c.2.236.324.444.398.608a.9.9 0 0 1 .096.358l-.004.106l-.75-.587l-.006-.009a1.9 1.9 0 0 1-.236-.899a.64.64 0 0 1 .26-.55a1 1 0 0 1 .364-.158a.64.64 0 0 1 .343.03m-.038.102a.54.54 0 0 0-.28-.027a.9.9 0 0 0-.325.14a.53.53 0 0 0-.216.462a1.8 1.8 0 0 0 .215.835l.547.427a1 1 0 0 0-.068-.185a2.5 2.5 0 0 0-.382-.582a.6.6 0 0 1-.16-.354a.46.46 0 0 1 .093-.297c.118-.166.325-.278.477-.333l.085-.03l-.014.09a2 2 0 0 0-.02.278a.5.5 0 0 0 .02.135a.4.4 0 0 0 .162-.094a.25.25 0 0 0 .076-.227c-.02-.126-.106-.2-.21-.238" clip-rule="evenodd"/><path fill="#906D47" d="M12.474 18.489c.03-.384-.302-.477-.472-.476c.067.088.262.18.071.559c-.152.303-.574.2-.747.113c-.137.124.366.762.615 1.062l.267-.78c.076.001.236-.094.266-.478"/><path fill="#000" fill-rule="evenodd" d="M12.14 18.086a.3.3 0 0 1 .044.077c.041.1.037.236-.062.433c-.089.177-.256.232-.414.233a1 1 0 0 1-.35-.07q.001.03.021.083c.03.076.086.173.155.278c.117.178.269.372.388.518l.247-.724h.04c.03 0 .182-.053.212-.43c.013-.172-.054-.273-.139-.333a.5.5 0 0 0-.142-.065m.204-.024c.116.082.2.22.184.431c-.027.35-.165.497-.28.524l-.287.838l-.06-.073a7 7 0 0 1-.457-.602a1.7 1.7 0 0 1-.165-.299a.4.4 0 0 1-.03-.124a.14.14 0 0 1 .04-.112l.028-.024l.033.016c.08.04.221.085.357.084s.255-.046.318-.173c.091-.182.085-.282.06-.344a.3.3 0 0 0-.056-.083l-.026-.026l-.01-.01l-.034-.04l-.065-.085l.108-.001c.093 0 .23.024.342.103" clip-rule="evenodd"/><path fill="#F5FA4D" d="m10.83 19.754l.007.014c.544 1.152.951.838 1.572.697c.5-.113.654-.912.668-1.297c.15.526.172 1.597-.931 1.679c-1.32.098-1.267-.937-1.309-1.08z"/><path fill="#ADAD33" d="M13.944 19.164c-.057.012-2.025.564-2.786 2.043c.62-.308 2.044-1.148 2.786-2.043"/><path fill="#000" fill-rule="evenodd" d="m14.083 19.08l-.098.119c-.376.453-.922.89-1.45 1.252a12 12 0 0 1-1.354.805l-.147.073l.075-.146c.389-.754 1.082-1.268 1.68-1.595a5.6 5.6 0 0 1 1.144-.477zm-2.792 1.998c.309-.162.74-.413 1.183-.717c.469-.32.947-.698 1.305-1.09l-.169.06a6 6 0 0 0-.77.352c-.547.299-1.165.752-1.55 1.395" clip-rule="evenodd"/><path fill="#BA9670" d="M7.284 8.2c.67-.392 1.18-.565 1.35-.602c-.75.468-2.443 1.4-3.125 1.83c-.658.417-1.558 1.423-1.9 1.92c.55-1.174 1.288-1.769 1.588-1.92A503 503 0 0 1 7.284 8.2"/><path fill="#000" fill-rule="evenodd" d="M10.593 8.172c.12-.274.087-.595.018-.807l.102-.034c.075.228.113.578-.021.885c-.137.312-.447.567-1.043.61l-.008-.109c.564-.04.835-.276.952-.545" clip-rule="evenodd"/><path fill="#000" fill-rule="evenodd" d="m9.236 6.508l-.115.026a.75.75 0 0 0-.318.156c-.096.183-.28.587-.348.918l.208-.09l.042.098l-.387.17l.013-.096c.03-.213.117-.466.205-.68a.51.51 0 0 0-.316.314a.8.8 0 0 0-.045.367l.005.037l-.032.017c-.509.28-1.765.976-2.725 1.518c-.47.265-.899.733-1.24 1.204a7 7 0 0 0-.615 1.02c.369-.248 1.232-.752 2.636-1.244c1.683-.59 3.688-.258 4.514-.01c.084-.094.193-.27.316-.5c.134-.25.281-.559.43-.886c.288-.638.575-1.344.757-1.812c-1.06-.98-2.449-.653-2.985-.527m1.412 3.817c-.838-.243-2.781-.55-4.408.02c-1.056.37-1.802.746-2.26 1.012c1.113-.44 3.072-1.016 4.913-.514c.233.014.601.002.953-.08c.328-.078.63-.215.802-.438m.129.003c.098-.1.22-.297.352-.544c.135-.253.284-.564.432-.892a39 39 0 0 0 .774-1.852l.013-.034l-.027-.025c-1.108-1.053-2.575-.706-3.11-.579l-.113.026a.86.86 0 0 0-.372.186a1 1 0 0 0-.243.3a.62.62 0 0 0-.363.371a.9.9 0 0 0-.055.383c-.527.29-1.753.97-2.694 1.5c-.49.277-.93.759-1.274 1.235a6.8 6.8 0 0 0-.712 1.225l-.054.128l.126-.058c.874-.4 3.233-1.346 5.413-.75l.006.002h.005c.24.016.623.004.99-.082c.361-.085.721-.247.906-.54" clip-rule="evenodd"/><defs><linearGradient id="tokenBrandedCaw0" x1="3.415" x2="18.073" y1="7.208" y2="7.647" gradientUnits="userSpaceOnUse"><stop stop-color="#A2A1AA"/><stop offset="1" stop-color="#11110F"/></linearGradient><linearGradient id="tokenBrandedCaw1" x1="4.468" x2="19.55" y1="4.675" y2="5.54" gradientUnits="userSpaceOnUse"><stop stop-color="#6E6E6E"/><stop offset="1" stop-color="#6F7273"/></linearGradient><linearGradient id="tokenBrandedCaw2" x1="17.522" x2=".563" y1="5.444" y2="10.687" gradientUnits="userSpaceOnUse"><stop stop-color="#A4784C"/><stop offset="1" stop-color="#4B2B1C"/></linearGradient><linearGradient id="tokenBrandedCaw3" x1="16.855" x2="4.866" y1="9.023" y2="20.157" gradientUnits="userSpaceOnUse"><stop stop-color="#999998"/><stop offset="1" stop-color="#1B191A"/></linearGradient><linearGradient id="tokenBrandedCaw4" x1="12" x2="12" y1="2.004" y2="22" gradientUnits="userSpaceOnUse"><stop stop-color="#97989D"/><stop offset="1" stop-color="#1F1F21"/></linearGradient><linearGradient id="tokenBrandedCaw5" x1="19.406" x2="4.836" y1="9.27" y2="9.407" gradientUnits="userSpaceOnUse"><stop stop-color="#999B9D"/><stop offset="1" stop-color="#171718"/></linearGradient><linearGradient id="tokenBrandedCaw6" x1="19.961" x2="1.656" y1="18.456" y2="15.9" gradientUnits="userSpaceOnUse"><stop stop-color="#101010"/><stop offset="1" stop-color="#69686C"/></linearGradient><linearGradient id="tokenBrandedCaw7" x1="5.085" x2="19.299" y1="12" y2="12" gradientUnits="userSpaceOnUse"><stop stop-color="#6D6C70"/><stop offset="1" stop-color="#292A24"/></linearGradient><linearGradient id="tokenBrandedCaw8" x1="4.068" x2="18.551" y1="16.603" y2="16.016" gradientUnits="userSpaceOnUse"><stop stop-color="#72727C"/><stop offset="1" stop-color="#262720"/></linearGradient><linearGradient id="tokenBrandedCaw9" x1="18.623" x2="2.104" y1="6.783" y2="8.858" gradientUnits="userSpaceOnUse"><stop stop-color="#24251E"/><stop offset="1" stop-color="#939496"/></linearGradient><linearGradient id="tokenBrandedCawa" x1="10.3" x2="2.319" y1="3.469" y2="8.538" gradientUnits="userSpaceOnUse"><stop stop-color="#2D1007"/><stop offset="1" stop-color="#E73125"/></linearGradient><linearGradient id="tokenBrandedCawb" x1="18.239" x2="4.894" y1="8.297" y2="14.242" gradientUnits="userSpaceOnUse"><stop stop-color="#E73125"/><stop offset="1" stop-color="#420F08"/></linearGradient><linearGradient id="tokenBrandedCawc" x1="4.25" x2="15.479" y1="15.003" y2="9.237" gradientUnits="userSpaceOnUse"><stop stop-color="#E73125"/><stop offset="1" stop-color="#3A0D10"/></linearGradient><linearGradient id="tokenBrandedCawd" x1="10.233" x2="15.811" y1="2.991" y2="20.224" gradientUnits="userSpaceOnUse"><stop stop-color="#E73125"/><stop offset=".564" stop-color="#320C09"/></linearGradient><linearGradient id="tokenBrandedCawe" x1="13.701" x2="21.682" y1="3.469" y2="8.538" gradientUnits="userSpaceOnUse"><stop stop-color="#2D1007"/><stop offset="1" stop-color="#E73125"/></linearGradient><linearGradient id="tokenBrandedCawf" x1="5.761" x2="19.106" y1="8.297" y2="14.242" gradientUnits="userSpaceOnUse"><stop stop-color="#E73125"/><stop offset="1" stop-color="#420F08"/></linearGradient><linearGradient id="tokenBrandedCawg" x1="19.75" x2="8.521" y1="15.003" y2="9.237" gradientUnits="userSpaceOnUse"><stop stop-color="#E73125"/><stop offset="1" stop-color="#3A0D10"/></linearGradient><linearGradient id="tokenBrandedCawh" x1="13.767" x2="8.189" y1="2.991" y2="20.225" gradientUnits="userSpaceOnUse"><stop stop-color="#E73125"/><stop offset=".564" stop-color="#320C09"/></linearGradient><linearGradient id="tokenBrandedCawi" x1="10.633" x2="3.271" y1="6.167" y2="9.394" gradientUnits="userSpaceOnUse"><stop stop-color="#2D1007"/><stop offset="1" stop-color="#E73125"/></linearGradient><linearGradient id="tokenBrandedCawj" x1="13.367" x2="20.73" y1="6.167" y2="9.394" gradientUnits="userSpaceOnUse"><stop stop-color="#2D1007"/><stop offset="1" stop-color="#E73125"/></linearGradient><linearGradient id="tokenBrandedCawk" x1="18.917" x2="5.229" y1="10.229" y2="10.3" gradientUnits="userSpaceOnUse"><stop stop-color="#E73125"/><stop offset="1" stop-color="#420F08"/></linearGradient><linearGradient id="tokenBrandedCawl" x1="3.947" x2="18.303" y1="12.828" y2="9.091" gradientUnits="userSpaceOnUse"><stop stop-color="#E73125"/><stop offset="1" stop-color="#3A0D10"/></linearGradient><linearGradient id="tokenBrandedCawm" x1="12.089" x2="11.75" y1="2.91" y2="20.736" gradientUnits="userSpaceOnUse"><stop stop-color="#E73125"/><stop offset=".564" stop-color="#320C09"/></linearGradient></defs></g></svg>