<svg xmlns="http://www.w3.org/2000/svg" xmlns:xlink="http://www.w3.org/1999/xlink" width="24" height="24" viewBox="0 0 24 24"><g fill="#0052FF"><path d="M12 21.063a9.062 9.062 0 1 0 0-18.125a9.062 9.062 0 0 0 0 18.125M22 12a10 10 0 1 1-20 0a10 10 0 0 1 20 0"/><path fill-opacity=".6" d="M12 4.5v5.313l4.375 2.006z"/><path d="m12 4.5l-4.375 7.32l4.375-2z"/><path fill-opacity=".6" d="M12 15.263v3.612l4.375-6.219z"/><path d="M12 18.875v-3.613l-4.375-2.606z"/><path fill-opacity=".2" d="m12 14.431l4.375-2.612l-4.374-2z"/><path fill-opacity=".6" d="M7.625 11.819L12 14.43V9.813z"/></g></svg>