<svg xmlns="http://www.w3.org/2000/svg" xmlns:xlink="http://www.w3.org/1999/xlink" width="24" height="24" viewBox="0 0 24 24"><g fill="none"><path fill="url(#tokenBrandedCeek0)" d="M9.525 3.782h9.11L6.225 17.99l6.897-5.49H22l-7.525 7.693H4.74L2 11.717z"/><path fill="#fff" d="m10.265 5.34l1.49-1.394l.06.06l-1.55 1.455a.745.745 0 0 0-.052.845l1.895 1.95l-.078.079l-1.903-1.968c-.303-.216-.678-.09-.827 0L7.896 7.725l-.078-.052L9.3 6.236c.2-.209.083-.604 0-.775l-.68-.68l.086-.086l.594.644a.736.736 0 0 0 .965 0m4.074 7.865l.612-.597l.046.047l-.659.643a.57.57 0 0 0-.039.644l1.446 1.489l-.06.06l-1.452-1.502c-.231-.165-.517-.069-.63 0l-1.072 1.037l-.06-.04l1.131-1.097c.153-.16.064-.46 0-.591l-.519-.519l.066-.066l.453.492c.31.25.62.104.736 0"/><path fill="url(#tokenBrandedCeek1)" d="M12.075 13.957a2.1 2.1 0 0 1-.669.316c-.442 0-1.371 1.197-1.78 1.795l.657.145c-.157.276-.56.887-.91 1.118c-.35.23-.146.316 0 .33c.728-.366 1.195-.373 1.337-.33c-.079.46.877.717 1.365.787l.447-.113c-.278.246-.834.767-.834.883c0 .117.394.049.591 0c-.555.308-1.62.97-1.434 1.151s1.195-.474 1.676-.824c-.114.211.223.178.406.136l.316.867h.685c.241-.177 0-1.029-.182-1.268s-.156-.475-.112-.547a2 2 0 0 0 .112-.285c.107-.077.346-.31.48 0c.107.247.313.52.402.625l.6-.625c.147-.1.108-.248.07-.31c.062-.061.054-.124.042-.147c-.118 0-.207.23-.237.344c-.058.05-.21.176-.351.285c-.142.11-.209-.109-.224-.232c0-.113-.016-.358-.08-.434c-.079-.095 0-.256.08-.167a1 1 0 0 0 .224.167c.153.024.437-.03.35-.44c-.085-.41-.565-.265-.793-.142c-.112-.144-.074-.482-.04-.632l.483.155c.075.04.24.117.293.098c.054-.02-.022-.073-.067-.098c.011-.14-.095-.162-.15-.155c-.152-.08-.486-.248-.602-.283s-.247.313-.298.492l-.182.423l-.82.619c-.096-.199.092-.375.199-.439c.155-.129.445-.43.366-.603s.033-.343.099-.406c.15-.085.496-.27.678-.333s.163.048.13.111c.045-.077.148-.256.2-.358s.359-.172.505-.194l.564-.2c.108.014.31-.002.252-.176c-.057-.175-.224-.049-.3.036c-.13.043-.434.13-.612.14s-.595.267-.78.394c-.299.03-.249-.056-.187-.103c.294.073.69-.291.409-.528c-.226-.19-.563.107-.703.28c.03-.183.726-.826.852-1.01a.28.28 0 0 1 .33-.102c.089-.07.247-.233.175-.31s-.19.033-.24.097l-.264.037l-1.356 1.384c.12-.392.063-.587-.118-.752c-.18-.163-.082-.233.085-.352l.002-.001c.169-.12.363-.455.094-.683c-.269-.227-.631.209-.544.405c.07.156-.196.136-.337.107z"/><path fill="#fff" d="m6.159 17.805l.687-.669l.052.052l-.74.721a.64.64 0 0 0-.043.723l1.256 1.336l-.066.067l-1.264-1.35c-.26-.185-.58-.077-.708 0l-.753.738l-.066-.044l.82-.806c.17-.18.07-.517 0-.664L3.76 16.256l.073-.074l1.5 1.623a.63.63 0 0 0 .825 0"/><path fill="#fff" fill-opacity=".7" d="M7.77 7.592c-1.416.202-1.436 2.245-1.27 3.24l.479.906l1.873-.569l1.457 1.305c.104-.68.25-2.02 0-1.936s-.756-.512-.978-.82c.395-.204 1.144-.775.978-1.431c-.208-.821-.77-.947-2.54-.695"/><path fill="url(#tokenBrandedCeek2)" d="M7.74 9.423c0 .411.047.646.07.713c-.083.056-.23.21-.161.368c.07.158-.004.41-.05.516c-.063-.419-.207-1.268-.276-1.312a.35.35 0 0 1-.125-.17c-.004-.18-.103-.204-.152-.193v.418c.157.022.206.159.212.225l.117 1.184c-.105-.495-.394-.507-.525-.451c-.26.242-.025.585.125.726l-.331-.177l-.12-.473l-.512-.687c-.04-.13-.155-.353-.3-.217s.02.263.12.31l.505.695l.188.55c-.235 0-.394-.216-.444-.324c.088-.322-.181-.662-.456-.555s-.225.348-.163.555c.05.167.229.342.312.41l-.25.258c-.033-.024-.113-.125-.182-.345a.34.34 0 0 0-.356-.247c.12.174.36.588.356.855s-.214.467-.319.533l-.197-.597h-.26c-.018-.01-.053-.06-.049-.167c.005-.108.09-.113.133-.102c-.026.122-.043.326.102.167c.144-.16.06-.235 0-.253c.04-.106.077-.341-.102-.436c-.223-.119-.324.059-.473.247c-.12.15-.093.246-.064.275c.028.007.068.037 0 .102s-.359-.099-.495-.188c.168-.133.489-.421.423-.512c-.066-.09-.193.013-.248.076l-.452.436c.012.073.1.254.351.387a.7.7 0 0 1 .349.51l-.302.24c-.475-.25-.503.143-.457.37c-.205-.007-.512.127-.64.195v.185c.636-.155 1.13-.065 1.298 0c-.85.183-.375.547-.108.752l.008.006c.265.204.33.333.33.407c-.206.222.424.965.764 1.309c0 .28 1.59.605 2.386.732l3.406-3.906l.023-.54l.335.02c.281-.084.477-.409.54-.56l-.092-.162c.021 0 .069-.025.091-.14c.023-.115-.097-.175-.16-.191c0-.043-.007-.129-.033-.129c-.025 0-.036.103-.038.154a.8.8 0 0 0-.032.223c0 .126-.068.22-.16.404c-.075.147-.26.061-.343 0c-.021-.076-.105-.231-.27-.246s-.186-.112-.176-.158a.53.53 0 0 0 .213-.326c.023-.159-.132-.288-.213-.333l1.052-1.4c.095-.118.27-.362.214-.389c-.057-.026-.166.116-.214.191l-.071-.04c.082-.105.237-.323.203-.349c-.035-.026-.171.144-.236.231c.067-.114.185-.343.125-.343s-.174.207-.224.31c.033-.1.086-.304.032-.31c-.068-.007-.118.265-.168.408c-.04.113-.126.061-.164.021c-.01-.082-.046-.245-.103-.245c-.071 0-.06.115-.021.187c.03.058.053.2.06.264c.068.103.05.187.032.216c-.065.086-.26.311-.517.519c-.256.207-.463.07-.534-.025c-.077-.12-.271-.37-.431-.41c-.16-.041-.17-.156-.156-.209c.165-.113.276-.408.311-.542c.064-.065.027-.182 0-.233c.015-.2-.054-.601-.451-.613s-.49.37-.488.561c-.141.105-.013.288.07.366c.054.376-.185.435-.31.418a2 2 0 0 0 .12-.34c.034-.146-.066-.357-.12-.444c-.018-.38.006-1.16.24-1.236c.293-.096.5-.418.448-.488c-.041-.055-.224.11-.31.2c.029-.258.069-.773 0-.766s-.12.288-.138.427H8.37c-.043-.122-.143-.354-.198-.305s.023.317.07.444c-.063.14-.073.383-.07.488l-.24 1.019c-.111.097-.127.267-.121.34c-.023.049-.07.25-.07.661"/><path fill="#AF4E9D" fill-rule="evenodd" d="M4.874 15.864c1.09 0 1.975-.894 1.975-1.996a1.985 1.985 0 0 0-1.975-1.996c-1.09 0-1.974.893-1.974 1.996s.884 1.996 1.974 1.996m0-.294c.93 0 1.684-.762 1.684-1.702s-.754-1.703-1.684-1.703s-1.684.763-1.684 1.703s.754 1.702 1.684 1.702" clip-rule="evenodd"/><path fill="#C0489B" fill-rule="evenodd" d="M11.776 17.606a1.26 1.26 0 0 0 1.254-1.268c0-.7-.561-1.268-1.254-1.268s-1.254.568-1.254 1.268s.561 1.268 1.254 1.268m0-.186c.59 0 1.07-.484 1.07-1.082c0-.597-.48-1.081-1.07-1.081s-1.07.484-1.07 1.081c0 .598.48 1.082 1.07 1.082" clip-rule="evenodd"/><path fill="#0AA9E1" fill-rule="evenodd" d="M11.776 17.415a1.07 1.07 0 0 0 1.065-1.076a1.07 1.07 0 0 0-1.065-1.077a1.07 1.07 0 0 0-1.065 1.076a1.07 1.07 0 0 0 1.065 1.077m0-.158a.913.913 0 0 0 .909-.919a.913.913 0 0 0-.909-.918a.913.913 0 0 0-.908.918c0 .508.407.919.908.919" clip-rule="evenodd"/><path fill="#1280C4" fill-rule="evenodd" d="M7.37 17.818a2.23 2.23 0 0 0 2.22-2.243q0-.12-.013-.239l-2.968 2.346c.237.088.494.136.761.136m-.85-.17a2.24 2.24 0 0 1-1.369-2.073c0-1.24.994-2.244 2.22-2.244c.837 0 1.566.47 1.943 1.161l-.02-.028z" clip-rule="evenodd"/><path fill="#BAE7F8" fill-rule="evenodd" d="M8.427 15.453A1.07 1.07 0 0 0 7.37 14.5a1.07 1.07 0 0 0-1.063 1.075A1.07 1.07 0 0 0 7.37 16.65h.007z" clip-rule="evenodd"/><path fill="#55C7E4" d="M8.558 12.105c-.227-.053-.473-.53-.568-.763c.049.221.14.71.114.894c-.026.183-.54.514-.795.656c.238-.096.767-.258.981-.14c.215.119.468.613.568.845c-.073-.216-.206-.717-.154-.992c.052-.276.562-.558.811-.664c-.224.076-.73.216-.957.164"/><path fill="#fff" d="M8.76 12.275c-.275.067-.458-.133-.515-.241a.49.49 0 0 1-.227.543c.305-.054.463.135.504.236a.64.64 0 0 1 .238-.538"/><defs><linearGradient id="tokenBrandedCeek0" x1="21.637" x2="5.158" y1="8.792" y2="21.207" gradientUnits="userSpaceOnUse"><stop offset=".14" stop-color="#EBE013"/><stop offset=".278" stop-color="#F58B38"/><stop offset=".475" stop-color="#CB3294"/><stop offset=".587" stop-color="#6956A5"/><stop offset=".735" stop-color="#137DC1"/><stop offset=".842" stop-color="#4B9BD5"/><stop offset=".931" stop-color="#9A3191"/></linearGradient><linearGradient id="tokenBrandedCeek1" x1="18.407" x2="9.881" y1="7.073" y2="15.077" gradientUnits="userSpaceOnUse"><stop/><stop offset="1" stop-color="#2353A5"/></linearGradient><linearGradient id="tokenBrandedCeek2" x1="17.06" x2="13.671" y1="6.688" y2="17.002" gradientUnits="userSpaceOnUse"><stop/><stop offset="1" stop-color="#2163AE"/></linearGradient></defs></g></svg>