<svg xmlns="http://www.w3.org/2000/svg" xmlns:xlink="http://www.w3.org/1999/xlink" width="24" height="24" viewBox="0 0 24 24"><g fill="#F24139" fill-rule="evenodd" clip-rule="evenodd"><path d="M16.375 9.8a1.56 1.56 0 0 1-1.562 1.575A1.56 1.56 0 0 1 13.25 9.8a1.56 1.56 0 0 1 .963-1.449a1.562 1.562 0 0 1 2.162 1.45m-1.25-.3a.625.625 0 1 1-1.25 0a.625.625 0 0 1 1.25 0m.313.625a.312.312 0 1 0 0-.625a.312.312 0 0 0 0 .625"/><path d="M22 12.469c0 4.243-2.4 7.887-5.87 9.531c2.8-2.981 2.75-6.65 2.745-7.387v-.082a1.63 1.63 0 0 1-1.144.594c-1.957 0-3.857-1.587-5.875-3.737c-2.013-2.138-2.982-4.482-2.982-5.27c0-.405.225-.674.375-.862l.094-.112c.088-.119.156-.213.156-.332c0-.306-.35-.306-.73-.306c-1.382 0-3.126.682-4.545 1.388A9.82 9.82 0 0 1 12 2c5.525 0 10 4.688 10 10.469M3.4 17.813a10.4 10.4 0 0 0 2.48 2.937h2.326c2.593 0 5.043-1.706 5.043-4.437c0-2.725-2.45-4.925-5.043-4.925H2.049c-.18 1.92.143 3.855.938 5.612h9.638c-.857.419-3.063 1.25-5.044 1.25c-1.344 0-2.957-.219-4.182-.437M12 7.05c0-1.037 1.256-1.3 1.887-1.3c4.238 0 4.363 4.219 4.363 4.85c0 .094-.007.188-.026.306l2.044.519c.538.138.656.762.2 1.044L18.2 13.875l-.343-1.863c-.207.35-.5.613-.882.613c-.875 0-2.343-1.1-3.087-1.762C13.144 10.2 12 8.35 12 7.05"/></g></svg>