<svg xmlns="http://www.w3.org/2000/svg" xmlns:xlink="http://www.w3.org/1999/xlink" width="24" height="24" viewBox="0 0 24 24"><g fill="none"><path fill="url(#tokenBrandedCirus0)" d="M2.03 11.425c1.411 1.525 3.91 2.75 7.435 3.655l.325.082l.33.08l.338.082l.144.031l.287.07l.35.086l.344.088l.269.069l.262.075l.25.068l.256.075l.25.07l.231.074l.119.038l.231.074l.169.057l.162.056l.269.094l.05.018l.262.094l.25.094l.094.044l.188.075l.093.037l.175.081c1 .444 1.725.913 2.156 1.394c.63.7.618 1.45-.163 2.393a10 10 0 0 1-4.73 1.418a5.8 5.8 0 0 0-.693-1.2a9 9 0 0 0-.538-.662l-.1-.112l-.13-.144l-.145-.15l-.143-.15q-.371-.376-.762-.731l-.138-.125l-.187-.162l-.188-.163l-.187-.162l-.2-.169l-.1-.081l-.213-.169l-.212-.175l-.275-.212l-.281-.219l-.231-.181l-.244-.175l-.244-.188l-.312-.225l-.325-.23l-.263-.188l-.268-.188l-.275-.187l-.425-.294l-.294-.187l-.293-.2l-.3-.2l-.388-.25l-.393-.25l-.488-.312l-.33-.207l-.5-.312l-.288-.181A10 10 0 0 1 2.01 11.6z"/><path fill="url(#tokenBrandedCirus1)" d="m2.58 15.268l.175.106l.462.3l.3.194l.3.193l.287.194l.288.188l.275.187l.274.188l.27.187l.262.188l.256.174l.25.182l.25.175l.237.174l.231.175l.344.25l.325.257l.212.168l.206.163l.2.162l.188.157l.1.08l.187.157l.175.156l.175.15l.169.15l.081.075l.163.15l.156.144l.143.143l.188.188l.094.094l.13.143q.502.533.913 1.137a10 10 0 0 1-8.266-6.729"/><path fill="url(#tokenBrandedCirus2)" d="M4.467 5.464A3.16 3.16 0 0 0 4.99 7.42c.588.937 1.662 1.725 3.23 2.412l.12.05l.206.087q.59.237 1.274.463l.194.062l.25.082l.125.037l.25.075l.125.037l.268.075l.132.032l.137.037l.269.075l.144.031l.28.07l.282.068l.362.087l.313.075l.3.075l.3.075l.293.082l.288.075l.28.08l.276.082c3.893 1.187 5.96 2.724 6.348 4.643a10 10 0 0 1-1.774 2.536a3 3 0 0 0-.813-1.73a6.6 6.6 0 0 0-1.8-1.338l-.105-.062l-.182-.094l-.312-.15l-.162-.075l-.194-.087l-.106-.044l-.1-.044l-.213-.087l-.106-.044l-.219-.087c-.318-.125-.656-.238-1.006-.356l-.18-.057l-.25-.081l-.263-.081l-.263-.075l-.412-.119l-.281-.075l-.356-.094l-.37-.093l-.149-.038l-.306-.075l-.519-.125l-.287-.062l-.275-.07l-.275-.074l-.138-.031l-.262-.075l-.262-.069l-.257-.075l-.125-.037l-.25-.076l-.25-.074l-.23-.075l-.238-.082l-.231-.08l-.113-.038l-.218-.082q-.164-.06-.325-.124l-.207-.082a4 4 0 0 1-.406-.168l-.193-.082l-.1-.043l-.188-.088c-1.793-.85-2.905-1.83-3.374-2.962a9.95 9.95 0 0 1 2.025-3.742l.05-.063z"/><path fill="url(#tokenBrandedCirus3)" d="M11.97 2.003h.281c-.75 1-.581 2.28.587 3.755q.244.317.563.643l.1.113l.143.144l.188.187l.106.1l.156.15l.163.15c.18.156.362.319.562.481l.15.125l.187.156l.2.156l.2.163l.213.162l.212.163l.219.162l.344.25l.237.169l.363.25l.25.175l.124.087l.256.175l.132.088l.268.175l.27.18l.28.176l.281.187l.294.181l.294.188l.3.181l.312.188l.313.187l.312.194l.325.187l.331.2l.337.194l.175.1a10 10 0 0 1-.268 1.78c-.944-1.4-2.712-2.567-5.261-3.511l-.25-.094a26 26 0 0 0-1.044-.343l-.269-.088l-.28-.081l-.282-.081l-.144-.038l-.293-.081l-.144-.037l-.3-.076l-.456-.112l-.587-.137l-.269-.063l-.269-.069l-.262-.062l-.25-.075l-.125-.031l-.25-.075l-.125-.032l-.231-.075l-.125-.037l-.225-.069l-.112-.037l-.22-.075l-.105-.038l-.213-.075l-.106-.037l-.206-.075l-.094-.038l-.1-.043l-.187-.075l-.1-.038l-.188-.081l-.387-.181l-.125-.063l-.156-.081a4.73 4.73 0 0 1-1.844-1.5c-.556-.862-.35-1.918.75-3.236a10.06 10.06 0 0 1 5.074-1.362"/><path fill="url(#tokenBrandedCirus4)" d="M14.283 2.19A10.02 10.02 0 0 1 22 10.85l-.356-.212l-.438-.269l-.293-.181l-.288-.175l-.281-.175l-.269-.175l-.268-.169l-.27-.175l-.249-.168l-.256-.163l-.25-.169l-.238-.162l-.237-.162l-.231-.163l-.225-.156l-.219-.163l-.219-.156l-.206-.15l-.206-.156l-.2-.15l-.187-.15l-.188-.15l-.187-.144l-.175-.143l-.088-.075l-.168-.138l-.163-.143l-.156-.138l-.15-.137l-.15-.132l-.106-.106l-.106-.094l-.125-.13l-.07-.063l-.062-.069l-.125-.125l-.312-.35l-.075-.087l-.094-.125l-.1-.119c-.637-.837-.787-1.437-.58-1.85c.124-.243.374-.474.768-.687l.081-.044z"/><defs><linearGradient id="tokenBrandedCirus0" x1="2.004" x2="2.004" y1="11.425" y2="21.997" gradientUnits="userSpaceOnUse"><stop stop-color="#FF475A"/><stop offset="1" stop-color="#FF9A89"/></linearGradient><linearGradient id="tokenBrandedCirus1" x1="2.58" x2="2.58" y1="15.268" y2="21.997" gradientUnits="userSpaceOnUse"><stop stop-color="#FF9A89"/><stop offset="1" stop-color="#FF475A"/></linearGradient><linearGradient id="tokenBrandedCirus2" x1="2.392" x2="2.392" y1="5.464" y2="18.923" gradientUnits="userSpaceOnUse"><stop stop-color="#FF9A89"/><stop offset="1" stop-color="#FF475A"/></linearGradient><linearGradient id="tokenBrandedCirus3" x1="5.846" x2="5.846" y1="2.003" y2="14.306" gradientUnits="userSpaceOnUse"><stop stop-color="#FF475A"/><stop offset="1" stop-color="#FF9A89"/></linearGradient><linearGradient id="tokenBrandedCirus4" x1="13.346" x2="13.346" y1="2.196" y2="10.844" gradientUnits="userSpaceOnUse"><stop stop-color="#FF9A89"/><stop offset="1" stop-color="#FF475A"/></linearGradient></defs></g></svg>