<svg xmlns="http://www.w3.org/2000/svg" xmlns:xlink="http://www.w3.org/1999/xlink" width="24" height="24" viewBox="0 0 24 24"><g fill="none"><path fill="#0E1D51" d="M11.278 21.657a10.25 10.25 0 0 1-6.658-3.148A9.47 9.47 0 0 1 2 11.839a9.5 9.5 0 0 1 2.846-6.58c1.787-1.769 4.535-2.82 7.096-2.936a.36.36 0 0 1 .38.361v3.161a.35.35 0 0 1-.102.239a.4.4 0 0 1-.252.11c-1.18.064-2.645.387-3.6 1.057A5.83 5.83 0 0 0 5.872 12c0 3.265 2.903 5.832 6.128 5.806c3.084-.025 5.935-2.348 6.129-5.464a.34.34 0 0 1 .11-.238a.37.37 0 0 1 .257-.104h3.123a.39.39 0 0 1 .352.228a.4.4 0 0 1 .028.14a9.5 9.5 0 0 1-.935 3.742a9.7 9.7 0 0 1-2.374 3.083a10.2 10.2 0 0 1-3.445 1.955c-1.277.42-2.625.594-3.967.51"/><path fill="url(#tokenBrandedClh0)" d="M13.962 2.323a.35.35 0 0 0-.349.348v3.174a.35.35 0 0 0 .349.348h4.167v4.168a.35.35 0 0 0 .22.322a.3.3 0 0 0 .128.026h3.174a.354.354 0 0 0 .349-.348V2.323z"/><defs><linearGradient id="tokenBrandedClh0" x1="13.613" x2="22" y1="6.516" y2="6.516" gradientUnits="userSpaceOnUse"><stop stop-color="#7B7CF2"/><stop offset="1" stop-color="#2DCAED"/></linearGradient></defs></g></svg>