<svg xmlns="http://www.w3.org/2000/svg" xmlns:xlink="http://www.w3.org/1999/xlink" width="24" height="24" viewBox="0 0 24 24"><g fill="none"><path fill="url(#tokenBrandedCnc0)" d="m12.324 2.1l.125.243l7.646 14.43a4.03 4.03 0 0 0-.337-2.148L12.436 2.25l-.05-.082l-.062-.062z"/><path fill="url(#tokenBrandedCnc1)" d="m12.268 2.062l.162.369l7.203 15.804c.237-.462.4-.95.456-1.455L12.455 2.337L12.33 2.1z"/><path fill="url(#tokenBrandedCnc2)" d="m12.187 2.025l.175.5l5.984 17.328a5.5 5.5 0 0 0 1.3-1.624l-2.999-6.578l-4.216-9.22l-.163-.375s-.05-.012-.081-.031"/><path fill="url(#tokenBrandedCnc3)" d="m12.105 2.012l.131.594l4.023 18.547c.8-.35 1.5-.787 2.087-1.293L12.36 2.524l-.175-.5l-.075-.019v.006z"/><path fill="url(#tokenBrandedCnc4)" d="m12.036 2l1.7 19.859a10 10 0 0 0 2.53-.719l-4.03-18.528l-.125-.593h-.081l.006-.013z"/><path fill="url(#tokenBrandedCnc5)" d="M10.25 21.865c1.155.18 2.33.18 3.485 0L12.086 2.65l-.05-.65h-.093l-.063.65z"/><path fill="url(#tokenBrandedCnc6)" d="M7.72 21.134a10 10 0 0 0 2.53.718l.961-11.2l.675-8.002l.056-.65l-.08.006l-.126.594l-4.029 18.534z"/><path fill="url(#tokenBrandedCnc7)" d="M5.634 19.84a7.7 7.7 0 0 0 2.087 1.294L11.744 2.6l.125-.594l-.07.019l-.174.5z"/><path fill="url(#tokenBrandedCnc8)" d="M4.346 18.21c.325.619.763 1.17 1.293 1.624l2.999-8.695l2.986-8.614l.168-.5l-.075.037l-.162.369l-4.223 9.226l-2.986 6.56z"/><path fill="url(#tokenBrandedCnc9)" d="M3.897 16.749c.062.512.206.999.443 1.461l7.21-15.78l.162-.374l-.063.044l-.125.243l-5.26 9.952z"/><path fill="url(#tokenBrandedCnca)" d="M3.877 16.305c0 .15.007.294.02.444l7.627-14.406l.124-.243l-.062.062l-.037.063l-6.86 11.606l-.374.637v.025a4 4 0 0 0-.438 1.812"/><defs><linearGradient id="tokenBrandedCnc0" x1="22.758" x2="5.274" y1="24.239" y2="-26.282" gradientUnits="userSpaceOnUse"><stop stop-color="#3A3A3A"/><stop offset=".5" stop-color="#1682FE"/></linearGradient><linearGradient id="tokenBrandedCnc1" x1="21.278" x2="5.242" y1="23.707" y2="-39.005" gradientUnits="userSpaceOnUse"><stop stop-color="#3A3A3A"/><stop offset=".5" stop-color="#1682FE"/></linearGradient><linearGradient id="tokenBrandedCnc2" x1="25.552" x2="9.987" y1="29.757" y2="-45.978" gradientUnits="userSpaceOnUse"><stop stop-color="#3A3A3A"/><stop offset=".5" stop-color="#1682FE"/></linearGradient><linearGradient id="tokenBrandedCnc3" x1="26.985" x2="19.495" y1="33.347" y2="-26.269" gradientUnits="userSpaceOnUse"><stop stop-color="#3A3A3A"/><stop offset=".5" stop-color="#1682FE"/><stop offset="1" stop-color="#2DBDE1"/></linearGradient><linearGradient id="tokenBrandedCnc4" x1="27.813" x2="23.186" y1="29.713" y2="-29.341" gradientUnits="userSpaceOnUse"><stop stop-color="#3A3A3A"/><stop offset=".22" stop-color="#1682FE"/><stop offset=".5" stop-color="#57F7AE"/></linearGradient><linearGradient id="tokenBrandedCnc5" x1="30.806" x2="28.072" y1="30.367" y2="-18.67" gradientUnits="userSpaceOnUse"><stop stop-color="#3A3A3A"/><stop offset=".22" stop-color="#1682FE"/><stop offset=".5" stop-color="#57F7AE"/><stop offset="1" stop-color="#FED55A"/></linearGradient><linearGradient id="tokenBrandedCnc6" x1="17.391" x2="16.621" y1="32.787" y2="-11.985" gradientUnits="userSpaceOnUse"><stop offset=".22" stop-color="#1682FE"/><stop offset=".5" stop-color="#57F7AE"/><stop offset="1" stop-color="#FED55A"/></linearGradient><linearGradient id="tokenBrandedCnc7" x1="19.879" x2="18.461" y1="35.664" y2="7.873" gradientUnits="userSpaceOnUse"><stop offset=".4" stop-color="#1682FE"/><stop offset=".7" stop-color="#57F7AE"/><stop offset="1" stop-color="#FED55A"/></linearGradient><linearGradient id="tokenBrandedCnc8" x1="14.371" x2="13.796" y1="39.061" y2="13.126" gradientUnits="userSpaceOnUse"><stop offset=".4" stop-color="#1682FE"/><stop offset=".7" stop-color="#57F7AE"/><stop offset="1" stop-color="#FED55A"/></linearGradient><linearGradient id="tokenBrandedCnc9" x1="5.527" x2="10.307" y1="31.343" y2="-11.566" gradientUnits="userSpaceOnUse"><stop offset=".21" stop-color="#FCA75B"/><stop offset=".52" stop-color="#FF5A5A"/></linearGradient><linearGradient id="tokenBrandedCnca" x1="4.084" x2="10.643" y1="23.077" y2="-2.617" gradientUnits="userSpaceOnUse"><stop offset=".21" stop-color="#FCA75B"/><stop offset=".52" stop-color="#FF5A5A"/></linearGradient></defs></g></svg>