<svg xmlns="http://www.w3.org/2000/svg" xmlns:xlink="http://www.w3.org/1999/xlink" width="24" height="24" viewBox="0 0 24 24"><g fill="none"><path fill="#241D5E" d="M11.905 19.46c3.9 0 7.06-2.532 7.06-5.655s-3.16-5.655-7.06-5.655s-7.06 2.532-7.06 5.655s3.161 5.655 7.06 5.655"/><path fill="#F5C249" d="M21.65 11.66c-.165-1.7-.715-6.905-.725-7.1c-.01-.225-.335-.515-.335-.1c0 .295-.33 3.38-.33 5.79h-.58c-1.085-2.64-3.95-4.375-7.365-4.49h-.66c-3.415.11-6.26 1.85-7.34 4.49h-.6c0-2.41-.3-5.5-.3-5.785c0-.42-.325-.13-.33.095c-.01.195-.56 5.4-.725 7.1c-.235.315-.365.7-.36 1.09c0 .63.42 1.3.93 1.3c.135.36.31.885.53 1.2h.83c1.115 2.725 4.14 4.5 7.69 4.5s6.565-1.775 7.68-4.5h.865c.22-.315.415-.84.545-1.2c.515 0 .93-.665.93-1.3c0-.39-.12-.775-.355-1.09zm-9.665 7.615c-3.69 0-6.68-2.38-6.68-5.325c0-2.2 1.675-4.09 4.06-4.9l.435.895a.5.5 0 0 0 .185.225a.5.5 0 0 0 .28.08h3.45a.5.5 0 0 0 .28-.08a.5.5 0 0 0 .185-.225l.435-.89c2.38.815 4.045 2.7 4.045 4.9c0 2.94-2.99 5.32-6.675 5.32"/><path fill="#F0F3FA" d="M14.255 12.25c-.2 0-.39.085-.53.23a.82.82 0 0 0-.22.56v1.92c0 .21.08.41.22.56s.33.23.53.23s.39-.085.53-.23c.14-.15.22-.35.22-.56v-1.92a.82.82 0 0 0-.22-.56a.72.72 0 0 0-.53-.23m-4.5 0c-.2 0-.39.085-.53.23c-.14.15-.22.35-.22.56v1.92c0 .21.08.41.22.56s.33.23.53.23s.39-.085.53-.23c.14-.15.22-.35.22-.56v-1.92c0-.21-.08-.41-.22-.56a.72.72 0 0 0-.53-.23m2.25 5.5a1 1 0 0 1-1-1h.325c0 .35.3.64.675.64c.37 0 .675-.29.675-.64h.325a1 1 0 0 1-1 1"/></g></svg>