<svg xmlns="http://www.w3.org/2000/svg" xmlns:xlink="http://www.w3.org/1999/xlink" width="24" height="24" viewBox="0 0 24 24"><g fill="none"><path fill="#F5911A" d="M12 22c5.524 0 10.001-4.477 10.001-10s-4.477-10-10-10C6.477 2 2 6.477 2 12s4.477 10 10 10"/><path fill="#fff" d="M8.412 13.026c.856-1.025.486-2.416.194-2.984c.937.14 1.573.838 1.914 1.833c.34.996.188 2.344.155 2.787c.168-.25.6-.595 1.22-1.014s1.499-.612 1.667-.633c.168-.02.604.02.854.292c.195.21.142.562.087.725q.003.01-.005.014l.005-.014c-.008-.028-.095-.09-.4-.196c-.376-.13-.589.108-.649.243c-.102.233-.327.792-.405 1.168s-.39.88-.535 1.086l-.73.47h-.502c-.044.011-.273-.003-.844-.146c.244.47.762.438 1.168.536c-.09.622-.481.875-.665.924c-.286.065-.996.097-1.54-.292c-.545-.39-.357-.973-.195-1.216l-.551-.843c-.438-.487-1.1-1.716-.243-2.74"/><path fill="#fff" d="m11.158 13.594l.076-.536l.494.153zm3.14-.876c-.34-.184-.664-.15-.783-.11c.074-.273-.117-.455-.222-.511c.097.028.334.1.511.161c.221.077.476.273.493.46m-1.403-.026l-.647.23c-.236-.085-.781-.28-1.08-.375c.054-.38-.148-.935-.256-1.165l.332-.034c.411.08 1.303.303 1.582.561s.162.63.069.783m-2.06-1.927l.03.009zl-.365-.111a1.37 1.37 0 0 0-.656-.586c.013-.319.153-.682.65-.656c.366.092.666.2.77.242c-.11-.036-.363-.033-.49.267c-.153.361-.142.758.091.845m.246-.546c-.081.417.149.645.274.707c.376.157 1.191.475 1.446.49c.318.019.49.013.668-.395c.143-.326-.068-.598-.19-.694l-1.446-.497c-.217-.044-.67-.03-.752.389m2.955 1.592l-.675-.223c.113.008.375-.073.523-.465c.147-.392-.045-.6-.16-.656l.79.274c.115.114.31.423.178.739c-.132.315-.492.352-.656.33m.345-1.579l-.65-.203c.104.012.354-.056.522-.433s-.036-.607-.16-.675l.752.254c.136.094.37.373.217.745s-.518.363-.682.312m-2.675-1.477c-.112.387.17.645.325.726c.319.121 1.003.368 1.191.388c.236.026.459-.063.624-.439c.133-.3-.102-.567-.235-.662l-1.21-.408c-.185-.03-.582.008-.695.395"/><path fill="#fff" d="m10.826 9.067l.732.248c-.122-.041-.33-.23-.185-.655s.443-.483.573-.459l-.783-.242c-.178-.032-.555.014-.637.452s.166.62.3.656m3.068-.665l-.009-.003zc.122.036.378-.004.502-.443c.127-.452-.051-.641-.156-.68l.652.207c.195.082.537.349.343.758s-.539.417-.687.37zm-2.263-.757l.714.25c-.104-.06-.282-.28-.159-.678c.124-.398.41-.462.538-.445l-.7-.233c-.196-.024-.606.036-.684.462c-.077.427.162.607.291.644"/><path fill="#fff" d="M13.151 6.922c-.377-.07-.592.259-.652.432c-.099.303.124.564.247.656c.166.072.53.218.656.225c.16.009.498.018.657-.405c.127-.339-.1-.597-.23-.683c-.068-.046-.3-.154-.678-.225m.093-.357c-.317-.162-.306-.514-.26-.67c.173-.433.527-.462.683-.422l.66.237c.137.11.366.412.19.736c-.176.325-.47.362-.595.34a2 2 0 0 1-.678-.22"/></g></svg>