<svg xmlns="http://www.w3.org/2000/svg" xmlns:xlink="http://www.w3.org/1999/xlink" width="24" height="24" viewBox="0 0 24 24"><g fill="none"><path fill="url(#tokenBrandedCoti0)" d="M2.463 10.356c-.32 0-.463.144-.463.431v7.357c0 .319.144.425.463.425c3.53.037 7.843-3.106 11.412-5.569V4.5c-3.531 2.431-7.95 5.894-11.412 5.856"/><path fill="url(#tokenBrandedCoti1)" d="M21.538 13.681c.318 0 .462-.143.462-.431V5.894c0-.325-.144-.432-.462-.432c-3.563-.03-7.844 3.107-11.413 5.575V19.5c3.531-2.431 7.95-5.894 11.413-5.819"/><path fill="#194AAD" d="M13.875 12.925V8.481a130 130 0 0 0-3.75 2.563v4.5c1.312-.856 2.562-1.769 3.75-2.625z"/><defs><linearGradient id="tokenBrandedCoti0" x1="13.842" x2="12.407" y1="18.387" y2="5.573" gradientUnits="userSpaceOnUse"><stop offset=".1" stop-color="#194AAD"/><stop offset=".5" stop-color="#248FCB"/><stop offset=".8" stop-color="#2BBFDF"/></linearGradient><linearGradient id="tokenBrandedCoti1" x1="14.2" x2="12.297" y1="3.672" y2="20.655" gradientUnits="userSpaceOnUse"><stop offset=".1" stop-color="#194AAD"/><stop offset=".5" stop-color="#248FCB"/><stop offset=".8" stop-color="#2BBFDF"/></linearGradient></defs></g></svg>