<svg xmlns="http://www.w3.org/2000/svg" xmlns:xlink="http://www.w3.org/1999/xlink" width="24" height="24" viewBox="0 0 24 24"><g fill="none"><path fill="#444340" d="m3.129 5.494l7.214-3.469l.716.41l-5.931 2.876l7.137 3.729v1.375z"/><path fill="#FDFDFC" d="m20.628 5.274l-7.037-3.236l-.963.308l6.389 2.928l-6.752 3.766v.925z"/><path fill="#6D6D66" d="M3.131 6.515V5.49l9.134 4.918v1.119z"/><path fill="#7F7B6E" d="M12.265 9.943v1.584l8.727-5.056V5.368l-.326-.075z"/><path fill="#7F7B6E" d="m13.571 2.038l7.11 3.271l.309.059L13.692 2z"/><path fill="#827D70" d="M11.089 2.469L5.143 5.326l1.491.776L10.24 4.24v-.848l.85-.497z"/><path fill="#49463D" d="m11.09 2.888l-.873.505v4.59l.873.45z"/><path fill="#696963" d="m10.396 4.152l-1.278.664v2.58l1.278.677z"/><path fill="#21211E" d="M12.623 8.837V2.346l6.345 2.902l-1.554.839l-2.793-1.328V7.73z"/><path fill="#666660" d="M13.25 4.098v-.875L17 5.026V5.9z"/><path fill="#6F6D60" d="M13.25 8.496v-4.24l1.37.62v2.857z"/><path fill="#44423C" d="M11.38 12.319L2.936 7.592l-.932.537v.392l7.967 4.576z"/><path fill="#71716B" d="m2.459 15.86l-.455-7.372l8.12 4.516v8.86l-6.033-3.92v-.906l4.784 3.196v-6.669l-4.628-2.719l.155 3.247l-.796.478v1.592l-.287.209z"/><path fill="#716F62" d="m3.533 14.521l-.102-4.253l.794.494l.143 3.284z"/><path fill="#A09B8E" d="M10.125 21.86v-8.864l.35-.195l-.052 9.198z"/><path fill="#494943" d="m10.423 19.888l.054-7.108l.898-.475v8.071z"/><path fill="#777568" d="m10.423 22l-.001-2.117l.953.469v.995z"/><path fill="#393935" d="m8.875 14.251l-4.785 2.79l4.785 3.2v-1.467l-2.965-1.92l2.965-1.825z"/><path fill="#51504A" d="m8.873 15.023l-2.97 1.83l.492.322l2.48-1.488z"/><path fill="#777366" d="m7.137 17.652l-.753-.48l2.489-1.497v.84z"/><path fill="#393833" d="m6.707 12.256l-2.335 1.353l.02.485l-.79.472v1.598l4.885-2.882l-.662-.38l-3.308 1.92v-.647l2.738-1.596z"/><path fill="#56554D" d="M4.5 14.833v-.668l2.747-1.594l.581.33z"/><path fill="#6C6B65" d="M9.11 11.078V9.784l.837.465z"/><path fill="#1E1E1B" d="M9.926 11.542V10.25l-.819.832z"/><path fill="#757165" d="M9.917 11.538v-1.319l1.118.622v1.319z"/><path fill="#989FA4" d="m11.819 12.548l-.52.336l-.024.872l.516-.454l.7.475v-.807z"/><path fill="#33332E" d="M11.272 14.41v-.675l.517-.455l.676.455v-.775l.503.32v1.331l-.503-.337l-.676.439z"/><path fill="#707069" d="m11.258 15.116l.017-.725l.531.254l.662-.396l.517.352v.937l-1.18-.69z"/><path fill="#696862" d="M12.514 11.852v-.476l.859-.5v.687l-.54.483z"/><path fill="#33332D" d="M13.372 11.488v-.615l.536-.314l.613.36v.57l-1.313.793l-.375-.238z"/><path fill="#7A776B" d="M14.518 10.95v-.734l-.615.347z"/><path fill="#E7E7E6" d="M14.518 11.48v-.547l.545.231z"/><path fill="#494841" d="m20.247 8.108l-7.4 4.353v7.898l1.028-.704v-6.917l6.944-4.154z"/><path fill="#FFFFFE" d="m14.11 12.887l-.238-.204l6.915-4.12l-.447-.373l.835-.567l.822.461z"/><path fill="#494841" d="m21.068 7.541l-.823.568l.099.08l.837-.565z"/><path fill="#6B6A64" d="M12.846 21.39v-1.048l1.029-.692V22z"/><path fill="#9C978A" d="M13.875 22v-9.309l.625.405v8.37z"/><path fill="#575651" d="M2 8.139v.349l8.123 4.516l.38-.223L2.28 7.97z"/><path fill="#6F6D60" d="m14.498 13.096l-.414-.23L22 8.079l-.02.563z"/><path fill="#827D70" d="M19.774 17.865L14.5 21.46v-8.387l7.48-4.44l-.653 7.109l-.78.55l.494-6.216l-5.916 3.602v5.877l4.176-2.763l.473.306z"/><path fill="#fff" d="m17.844 16.836l-2.716 1.916v.806l4.112-2.722l-3.892-2.218v.74z"/><path fill="#393833" d="M15.312 15.89v-.516l2.53 1.428l-.427.286zm-.02-1.196v-.222l4.012 2.32l-.187.128z"/><path fill="#393833" d="m15.125 18.612l2.714-1.813l.159.088l-2.873 1.907z"/><path fill="#282723" d="M20.235 16.16c-1.545-.883-4.666-2.68-4.766-2.72l1.128-.699l3.755 1.923z"/><path fill="#fff" d="m19.489 13.577l-2.16-1.281l-.73.453l2.834 1.53z"/><path fill="#6C6B65" d="M19.436 14.24c.088-1.066.272-3.24.3-3.404l1.009-.585l-.396 4.413z"/><path fill="#949083" d="m21.099 9.924l-.354.275l-.531 5.95l.336.137z"/><path fill="#6C6B65" d="m19.433 14.74l-3.043-1.737l-.222.115l3.265 1.809zm.068-1.261l-2.11-1.228l-.076.047l2.177 1.278z"/></g></svg>