<svg xmlns="http://www.w3.org/2000/svg" xmlns:xlink="http://www.w3.org/1999/xlink" width="24" height="24" viewBox="0 0 24 24"><g fill="none"><path fill="url(#tokenBrandedCph0)" d="m8.47 6.65l1.311.365v4.877c.06.559.506 1.865 1.79 2.642l3.176 1.918v1.588L9.964 15.1a3.59 3.59 0 0 1-1.494-3.001V6.644zm-2.1-.6l1.093.311q-.028.258-.029.518v6.396c.059.559.518 1.865 1.824 2.641l1.147.683l-1.412.706l-1.37-.824a3.58 3.58 0 0 1-1.519-3V7.356c0-.318.065-.794.265-1.312zm8.377 13.15l-3.324-1.995l-1.412.724l3.165 1.918c.253.153.5.247.73.306l.847-.895V19.2z"/><path fill="url(#tokenBrandedCph1)" d="M3.174 8.668v6.03a4.51 4.51 0 0 0 2.154 3.843l4.683 2.883a3.8 3.8 0 0 0 5.813-3.266v-2.965l-1.47.782v2.336a2.253 2.253 0 0 1-3.449 1.948l-4.5-2.766a3.7 3.7 0 0 1-1.76-3.147V8.59A2.3 2.3 0 0 1 8.17 6.65l4.472 2.789a3.7 3.7 0 0 1 1.712 3.194v2.06l1.471-.806v-1.942c0-1.306-.588-2.518-1.706-3.207L8.87 5.514a3.73 3.73 0 0 0-5.696 3.154"/><path fill="url(#tokenBrandedCph2)" d="M7.21 4.043v.2c.6-.264 1.548-.03 1.948.124l5.907 3.53A4.08 4.08 0 0 1 17 10.627v6.62a5.17 5.17 0 0 1-.929 2.882l.059.118c1.765-.9 2.347-2.707 2.341-3.5v-6.332a3.75 3.75 0 0 0-1.718-3.1l-5.742-3.49a2.6 2.6 0 0 0-1.5-.388c-1.142 0-2.012.406-2.3.606"/><path fill="url(#tokenBrandedCph3)" d="M9.71 2.814v-.2a4.4 4.4 0 0 1 2.307-.606c.236-.03.871.011 1.5.388l2.513 1.53l-1.46.753l-2.906-1.742c-.4-.153-1.353-.388-1.953-.123m5.914 2.494l1.941 1.16a3.77 3.77 0 0 1 1.79 2.73v6.618c0 1.371-.49 2.495-.783 2.883l.059.118c1.77-.9 2.2-2.706 2.194-3.5V8.985a3.7 3.7 0 0 0-1.57-3.101l-2.16-1.312z"/><defs><linearGradient id="tokenBrandedCph0" x1="5.516" x2="17.644" y1="4.889" y2="18.536" gradientUnits="userSpaceOnUse"><stop stop-color="#262223"/><stop offset="1" stop-color="#6B6A6F"/></linearGradient><linearGradient id="tokenBrandedCph1" x1="5.516" x2="17.644" y1="4.889" y2="18.536" gradientUnits="userSpaceOnUse"><stop stop-color="#262223"/><stop offset="1" stop-color="#6B6A6F"/></linearGradient><linearGradient id="tokenBrandedCph2" x1="5.516" x2="17.644" y1="4.889" y2="18.536" gradientUnits="userSpaceOnUse"><stop stop-color="#262223"/><stop offset="1" stop-color="#6B6A6F"/></linearGradient><linearGradient id="tokenBrandedCph3" x1="5.516" x2="17.644" y1="4.889" y2="18.536" gradientUnits="userSpaceOnUse"><stop stop-color="#262223"/><stop offset="1" stop-color="#6B6A6F"/></linearGradient></defs></g></svg>