<svg xmlns="http://www.w3.org/2000/svg" xmlns:xlink="http://www.w3.org/1999/xlink" width="24" height="24" viewBox="0 0 24 24"><g fill="none"><path fill="#FF6001" d="M12.79 3.59c-.052.077-.052.153 0 .218a.23.23 0 0 1 .036.223l-.747 2.012c-.835-.047-3.211-.17-3.917.453a.13.13 0 0 0-.035.129c.253.87 1.106 1.647 1.805 2.264v.353q.008.08.042.141c.452.782.594 1.53.788 2.394c.082.382.04.682-.136.906l-.388-.271l-1.058-.694a3.04 3.04 0 0 0-.165-2.176a13.5 13.5 0 0 0-2.058-3.223c-.247-.306-.553-.84-.265-1.135c.353-.353.788-.312 1.247-.382q.06-.008.059-.077a1 1 0 0 0-.195-.67a.2.2 0 0 1-.04-.118l-.018-.711q2.558-.186 5.046.37z"/><path fill="#FD1001" d="m7.745 3.226l.017.705a.2.2 0 0 0 .041.118c.142.2.212.43.2.676q-.001.069-.064.077c-.459.07-.9.035-1.247.382c-.288.294.018.83.259 1.135a13.5 13.5 0 0 1 2.058 3.223c.33.764.388 1.488.165 2.176q-.88-.335-1.559-.318a1.92 1.92 0 0 0-1.352.306c-.588.377-1.035.024-1.382-.494c-.453-.676-1.035-1.253-1.5-1.911A10.5 10.5 0 0 0 2.14 7.842a3.6 3.6 0 0 1-.07-1.693c.035-.2.123-.412.27-.624c.135.341.253.676.365 1q.142.443.4.806c.27.394.511.8.829 1.152l.6.659a.59.59 0 0 0 .517.176c.4-.058.806-.147 1.212-.258c.253-.065.447-.041.7 0a.12.12 0 0 0 .117-.041l.153-.189a.1.1 0 0 0 0-.117a.1.1 0 0 0-.03-.03c-.529-.288-.588-.776-.823-1.182a6.5 6.5 0 0 1-.852-2.764c-.042-.494.117-.764.235-1.217a9.6 9.6 0 0 1 1.982-.294"/><path fill="#B90402" d="M5.769 3.52c-.118.447-.282.723-.241 1.211c.076 1 .364 1.917.853 2.764c.235.412.294.9.823 1.188l.03.03a.094.094 0 0 1 0 .117l-.16.189a.12.12 0 0 1-.117.04a1.5 1.5 0 0 0-.694 0a13 13 0 0 1-1.212.265a.56.56 0 0 1-.517-.182l-.6-.659c-.317-.353-.559-.764-.83-1.152a3.1 3.1 0 0 1-.399-.8a30 30 0 0 0-.365-1.006c.136-.364.336-.647.6-.84c.759-.554 1.706-.942 2.823-1.165z"/><path fill="#FFA501" d="M12.791 3.59c1.512.318 2.952.8 4.328 1.47a.54.54 0 0 0-.1.224c0 .012-.011.035-.035.059c-.017.03-.047.041-.082.035a.12.12 0 0 0-.118.059l-.494.747a.22.22 0 0 0-.035.159c.03.176-.017.311-.147.394a.14.14 0 0 1-.13.017a13.5 13.5 0 0 0-3.898-.705l.746-2.018a.23.23 0 0 0-.035-.223c-.053-.065-.053-.141 0-.212z"/><path fill="#F9E004" d="M17.12 5.06a10 10 0 0 1 3.452 2.641l-.47.218a.5.5 0 0 0-.107.082c-.217.2-.459.094-.623.253a.4.4 0 0 1-.13.076c-.24.083-.47.2-.676.353a.2.2 0 0 1-.135.03c-.053 0-.082.017-.1.076a.12.12 0 0 1-.082.082c-.312.095-.524.294-.8.46c-.324.187-.547.44-.93.74c-.511.394-1.123.57-1.646 1.012c-.3.247-.553.353-.888.476c-.182.077-.365.235-.588.277a.22.22 0 0 0-.118.07a.47.47 0 0 1-.217.118a.12.12 0 0 0-.095.082a.17.17 0 0 1-.129.112l-.682-.959c.94-.253 1.882-.63 2.811-1.117c.47-.178.907-.433 1.294-.753l.906-.706a.14.14 0 0 0 .04-.07a.14.14 0 0 0-.035-.147a.13.13 0 0 0-.07-.036a1.04 1.04 0 0 0-.612.083a.26.26 0 0 1-.13.023c-.434-.035-.858.118-1.328.065c-1.106-.118-2.317-.006-3.435 0c-.253 0-.476.076-.717.076c-.294 0-.67-.006-.882.236c-.042 0-.06-.006-.065-.024c-.7-.617-1.553-1.394-1.811-2.264a.13.13 0 0 1 .04-.13c.706-.623 3.082-.5 3.917-.452c1.335.088 2.623.235 3.9.705q.069.034.129-.011c.13-.083.176-.218.147-.394a.19.19 0 0 1 .035-.16l.494-.746a.12.12 0 0 1 .118-.059c.035 0 .059-.006.082-.035a.2.2 0 0 0 .035-.059a.54.54 0 0 1 .1-.23z"/><path fill="#BDF83C" d="m20.571 7.701l.56.747q-.23.337-.566.382q-.43.055-.694.277a2.7 2.7 0 0 1-.705.447q-.159.086-.53.323c-.258.177-.564.247-.8.43c-.14.117-.281.229-.41.352a.24.24 0 0 1-.118.06a.45.45 0 0 0-.306.152c-.4.441-.9.541-1.335.941c-.106.094-.283.07-.4.141c-.335.2-.6.365-.994.524a2.6 2.6 0 0 0-.453.235c-.276.182-.318.423-.223.74a.4.4 0 0 0 .07.118c.306.383.412.889.059 1.282c-.235.271-.53.342-.894.206a1.6 1.6 0 0 0-1.241.012q-.999.502-2.011.976c-.324.153-.67.412-1.035.565l-.424.223a.83.83 0 0 1-.658.065q-.194-.178-.606-.7q-.175-.22-.412-.041l-.9-1.106c.465 0 .97.253 1.435.118q.346-.113.7-.2c.347-.082.682-.488 1.106-.57c.188-.036.323-.077.388-.118c.8-.518 1.294-.859 2.017-1.059l.553.5q.045.043.118.041c.529-.005.811-.235 1.194-.588c.129-.117.176-.335.082-.47c-.118-.165-.2-.318-.294-.488c.059-.012.1-.047.123-.118a.12.12 0 0 1 .094-.076a.5.5 0 0 0 .212-.118a.3.3 0 0 1 .118-.07c.235-.042.411-.2.594-.277c.335-.13.588-.235.882-.476c.53-.441 1.14-.618 1.646-1.012c.389-.294.612-.553.936-.74c.276-.16.494-.365.8-.46a.12.12 0 0 0 .082-.082c.017-.059.047-.082.1-.076c.047.006.094 0 .135-.036q.316-.222.676-.347a.4.4 0 0 0 .13-.076c.164-.159.406-.059.623-.253a.5.5 0 0 1 .112-.082l.47-.218z"/><path fill="#FF6001" d="M7.615 11.4c-.758.37-1.023 1.312-1.176 2.112a.3.3 0 0 1-.07.129a.252.252 0 0 1-.383 0C4.97 12.5 3.97 11.718 3.005 10.306a.04.04 0 0 0-.03-.017a.04.04 0 0 0-.03.006a.08.08 0 0 1-.07.017a.06.06 0 0 1-.047-.04c-.012-.03-.023-.042-.041-.024c-.235-.541-.794-1.853-.647-2.412c.465.46.882.947 1.235 1.47c.47.653 1.053 1.236 1.506 1.906c.352.518.794.87 1.376.494q.644-.412 1.358-.306"/><path fill="#BDF83C" d="M16.255 9.389c.012-.247-.165-.33-.523-.253q-.302.07-.524.059c-.506-.006-1.023.094-1.494.076a39 39 0 0 0-2.023-.03c-.176 0-.43.09-.664-.005c-.118-.047-.2-.03-.312-.035q-.104 0-.147.053c-.03.04-.035.105-.012.182l-.558-.518c.211-.247.588-.247.882-.24c.24 0 .47-.077.717-.083c1.118 0 2.33-.118 3.435.006c.47.059.894-.1 1.329-.059a.3.3 0 0 0 .13-.03c.193-.088.4-.117.61-.082c.03 0 .054.018.071.036a.142.142 0 0 1-.006.211z"/><path fill="#79FE7F" d="M21.13 8.448q.51.707.747 1.582a.77.77 0 0 0-.406.247a.2.2 0 0 1-.118.076a.17.17 0 0 0-.13.106a.18.18 0 0 1-.099.094c-.282.106-.541.16-.8.318c-.44.27-.864.553-1.282.853a5 5 0 0 1-.623.376c-.218.106-.43.218-.647.335c-.118.065-.2.2-.37.218a.3.3 0 0 0-.124.047l-.412.247a.24.24 0 0 0-.094.1a.18.18 0 0 1-.159.112a.2.2 0 0 0-.117.047l-.212.188a.26.26 0 0 1-.13.059a.58.58 0 0 0-.352.217a.3.3 0 0 1-.118.083q-.15.069-.335.235c-.259.241-.73.341-.906.841a.3.3 0 0 0-.006.135q.08.494-.194.87c-.165.218-.494.342-.74.471a.17.17 0 0 1-.136.012a.9.9 0 0 1-.365-.253c-.33-.341-.923.041-1.258.27c-.141.1-.318.177-.53.242a2 2 0 0 0-.546.264a.24.24 0 0 1-.13.047a.42.42 0 0 0-.335.17a.16.16 0 0 1-.118.066a.56.56 0 0 0-.276.1a6 6 0 0 1-1.076.611a.45.45 0 0 1-.506-.106l-.765-.823c.23.059.447.041.66-.07l.423-.224c.364-.153.705-.412 1.035-.565a63 63 0 0 0 2.01-.976a1.6 1.6 0 0 1 1.236-.012q.553.202.906-.206c.347-.393.235-.9-.065-1.282a.4.4 0 0 1-.07-.117c-.095-.318-.06-.559.223-.741a2.4 2.4 0 0 1 .453-.236c.394-.158.658-.323.994-.523c.117-.07.293-.047.4-.135c.435-.406.935-.506 1.334-.947a.43.43 0 0 1 .306-.153a.24.24 0 0 0 .118-.059c.13-.123.27-.235.412-.353c.235-.182.54-.252.8-.429q.428-.3.905-.517c.047-.024.159-.112.33-.253c.176-.147.411-.236.693-.277q.336-.046.565-.382"/><path fill="#FFA501" d="M9.933 8.89c0 .017.024.023.059.029l.564.517l.747.824l.853 1l.682.958c.1.17.177.323.294.482c.106.141.06.353-.076.47c-.382.36-.665.589-1.2.595a.16.16 0 0 1-.117-.042l-.547-.494l-.565-.546c.176-.224.218-.524.135-.906c-.194-.87-.335-1.611-.788-2.394a.3.3 0 0 1-.035-.14z"/><path fill="#79FE7F" d="M16.255 9.389a4.6 4.6 0 0 1-1.288.747c-.006-.177-.206-.27-.594-.27c-.353 0-.858.058-1.529.176q-.66.124-1.305-.159a.2.2 0 0 0-.224.047a.22.22 0 0 0-.047.235l.035.094l-.746-.823c-.024-.077-.018-.141.011-.182c.024-.036.077-.053.147-.053c.118 0 .2-.012.312.035c.235.094.494 0 .665 0c.67 0 1.346.006 2.023.035c.47.018.988-.082 1.493-.07q.222.001.524-.059q.537-.123.53.247z"/><path fill="#28F9D2" d="M14.967 10.136c-.892.477-1.835.852-2.811 1.117l-.853-1l-.036-.088a.22.22 0 0 1 .048-.235a.2.2 0 0 1 .223-.047c.43.188.865.235 1.306.165c.67-.118 1.176-.177 1.529-.177c.388 0 .588.083.594.265"/><path fill="#4DFEAD" d="m21.877 10.03l.04.276a5 5 0 0 0-.605.588c-.147.171-.3.294-.47.37c-.241.119-.57.225-.777.413c-.317.276-.729.47-1.047.782a.18.18 0 0 1-.117.047c-.365.012-.535.217-.818.353a8 8 0 0 0-1.088.664a7 7 0 0 1-.846.483a7 7 0 0 0-1.5 1a.14.14 0 0 0-.053.123c.018.359-.041 1.058-.453 1.117a.25.25 0 0 0-.118.053l-.411.294a.14.14 0 0 1-.135.024c-.353-.13-.618-.177-.783-.141c-.482.1-1.146.358-1.987.788a5 5 0 0 1-.47.205a.16.16 0 0 0-.095.083a.15.15 0 0 1-.041.059c-.382.229-.777.44-1.176.635a.15.15 0 0 1-.136 0l-.182-.083c-.07.006-.118.036-.13.083l-2.04-2.088c.165-.118.3-.106.418.041c.276.347.47.576.605.706l.765.823a.45.45 0 0 0 .506.106a6.2 6.2 0 0 0 1.076-.612a.56.56 0 0 1 .276-.1c.047 0 .082-.023.118-.064a.42.42 0 0 1 .335-.177a.2.2 0 0 0 .13-.04c.176-.118.352-.207.546-.265c.212-.06.388-.142.53-.236c.335-.235.929-.617 1.258-.276c.13.13.247.212.365.253a.18.18 0 0 0 .135-.006c.247-.135.576-.259.741-.476a1.12 1.12 0 0 0 .188-.87a.3.3 0 0 1 .012-.136c.177-.5.647-.6.906-.841q.185-.166.335-.235a.3.3 0 0 0 .118-.083a.56.56 0 0 1 .352-.217a.26.26 0 0 0 .13-.06l.217-.187a.2.2 0 0 1 .112-.053a.18.18 0 0 0 .159-.106a.23.23 0 0 1 .088-.1l.412-.247a.3.3 0 0 1 .13-.047c.17-.018.258-.153.375-.218q.317-.177.642-.335q.324-.166.623-.376c.412-.294.841-.588 1.282-.853c.259-.159.518-.212.8-.318a.18.18 0 0 0 .1-.094c.03-.059.07-.094.13-.106a.2.2 0 0 0 .117-.076a.8.8 0 0 1 .406-.247"/><path fill="#FAB40C" d="M2.787 10.248c.017-.018.029-.006.04.023a.06.06 0 0 0 .048.041q.035.009.07-.018l.016-.006h.016q.008 0 .014.006q.009.005.013.012c.965 1.412 1.964 2.194 2.982 3.335a.4.4 0 0 0 .118.076a.25.25 0 0 0 .264-.076a.23.23 0 0 0 .065-.13c.159-.8.423-1.74 1.182-2.117q.678-.01 1.558.324l1.065.694q-.196.174-.435.288a3 3 0 0 0-.441.253c-.87.647-1.894.782-2.623 1.04c-.2.077-.418.218-.665.442a.18.18 0 0 1-.13.047l-.858-.035a15.5 15.5 0 0 1-2.3-4.2"/><path fill="#28F9D2" d="M21.918 10.306c.165.765.135 1.688-.6 2.165c-1.805 1.176-3.617 2.334-5.41 3.51c-.306.2-.9.512-.824.953c.118.694.294 1.506.147 2.194c-.064-.377-.452-.488-.729-.53a1.2 1.2 0 0 1-.453-.152l-.24-.165a.14.14 0 0 1-.06-.088l-.253-1.118c-.029-.117-.094-.158-.205-.117l-1.253.47a.2.2 0 0 0-.1.077a.16.16 0 0 1-.17.082c-.018 0-.042 0-.06.012a.1.1 0 0 0-.046.04c-.165.266-.547.36-.824.477q-.035.019-.047.07q0 .033-.018.06a.14.14 0 0 1-.082.04a5 5 0 0 0-1.276.448a.14.14 0 0 1-.059.011a.14.14 0 0 1-.07-.017a2.5 2.5 0 0 1-.677-.565l.177.083c.053.023.094.023.14 0c.4-.194.795-.412 1.177-.635a.15.15 0 0 0 .041-.06a.15.15 0 0 1 .088-.082q.247-.089.477-.206a8.6 8.6 0 0 1 1.988-.787c.164-.036.429.011.782.14a.14.14 0 0 0 .135-.017l.412-.3a.25.25 0 0 1 .117-.047c.412-.059.47-.764.453-1.117q0-.08.053-.124c.454-.4.958-.738 1.5-1.005q.502-.246.847-.483c.358-.247.7-.47 1.088-.664c.282-.136.453-.341.811-.353a.17.17 0 0 0 .118-.047c.323-.312.735-.506 1.053-.788c.206-.177.529-.294.776-.406c.17-.077.323-.2.47-.365c.177-.211.383-.411.606-.594"/><path fill="#E5E918" d="m10.238 12.412l.388.27l.565.547c-.718.195-1.217.536-2.017 1.053c-.065.041-.2.082-.388.118c-.424.082-.765.488-1.106.57c-.235.059-.47.118-.706.194c-.458.141-.964-.117-1.429-.117l-.459-.6l.859.035a.18.18 0 0 0 .13-.047c.24-.223.47-.365.664-.441c.73-.259 1.753-.388 2.623-1.041q.159-.122.441-.253c.159-.076.306-.176.435-.288"/><path fill="#09ADF3" d="M15.238 19.134c-.07.459-.24.847-.523 1.147a1.4 1.4 0 0 0-.453-.424a.3.3 0 0 0-.13-.035a1.1 1.1 0 0 1-.5-.141c-.011 0-.017-.018-.011-.03l.024-.052v-.012a.03.03 0 0 0-.01-.012l-.014-.006c-.106-.012-.182-.076-.206-.194a2.3 2.3 0 0 0-.141-.494q-.025-.07-.094-.059q-.421.062-.57.212q-.291.293-.447.294a.7.7 0 0 0-.536.247a.15.15 0 0 1-.117.059c-.494.012-.935-.294-1.412-.06a9.8 9.8 0 0 1-1.617-1.328c.018-.047.059-.077.13-.082c.187.229.411.411.676.564a.1.1 0 0 0 .064.018c.024 0 .047 0 .065-.012a5 5 0 0 1 1.276-.447a.14.14 0 0 0 .082-.041a.1.1 0 0 0 .018-.059c0-.035.024-.059.053-.07c.27-.118.647-.212.823-.477a.1.1 0 0 1 .042-.041a.1.1 0 0 1 .058-.012a.18.18 0 0 0 .177-.082c.018-.035.059-.059.094-.077l1.253-.47c.111-.041.176 0 .205.118l.247 1.117c.012.035.03.07.06.088l.246.165a1.2 1.2 0 0 0 .453.153c.277.04.665.153.73.529z"/><path fill="#0158FE" d="M14.714 20.28c-1.117 1.23-3.552.083-4.616-.705c.476-.235.917.07 1.411.059a.14.14 0 0 0 .118-.059a.71.71 0 0 1 .535-.247q.157-.002.447-.294c.1-.1.294-.176.57-.212c.047-.005.077.012.094.06q.106.238.142.493c.023.118.1.177.205.194l.012.006l.006.012v.023l-.018.041q-.008.02.012.03q.228.132.5.141a.3.3 0 0 1 .13.035q.275.168.452.424"/></g></svg>