<svg xmlns="http://www.w3.org/2000/svg" xmlns:xlink="http://www.w3.org/1999/xlink" width="24" height="24" viewBox="0 0 24 24"><g fill="none"><path fill="#fff" d="M4.758 8.336c.267 0 .494.166.587.406c0 0 2.558 6.51 3.204 6.51c.46 0 2.712-5.477 2.712-5.477a.63.63 0 0 1 .573-.387h.34c.253 0 .48.154.573.387c0 0 2.252 5.476 2.712 5.476c.646 0 3.211-6.509 3.211-6.509a.63.63 0 0 1 .58-.406h2.118c.46 0 .766.5.573.946c0 0-.892 4.424-5.45 11.986a.71.71 0 0 1-.58.393h-.293c-.24 0-.28 0-.56-.373a42 42 0 0 1-.452-.653l-.36-.533c-1.153-1.733-2.139-3.425-2.139-3.425a.1.1 0 1 0-.2 0s-1.499 2.559-2.951 4.61c-.28.374-.327.374-.566.374h-.294a.7.7 0 0 1-.573-.393c-4.55-7.562-5.45-11.993-5.45-11.993c-.193-.44.114-.94.573-.94z"/><path fill="url(#tokenBrandedCrwny0)" d="M12.633 2.34c.154 0 .294.073.38.2l.74 1.098a.53.53 0 0 1 .04.52l-1.68 2.798a.07.07 0 0 1-.066.047a.07.07 0 0 1-.067-.04l-1.665-2.798a.53.53 0 0 1 .033-.52l.733-1.1a.48.48 0 0 1 .386-.206zM2.44 3.058l1.159.853a.62.62 0 0 1 .18.752L2.666 6.817c-.06.12-.153.186-.313.186c-.12-.027-.213-.173-.22-.313c0 0-.06-.713-.106-1.58A16 16 0 0 1 2 4.166v-.36c0-.293.013-.493.013-.493c-.006-.113.034-.213.134-.266a.27.27 0 0 1 .293.013m19.101 0a.26.26 0 0 1 .293-.014c.094.054.154.16.147.267l.007.586v.267c0 .293 0 .633-.02.953c-.054.866-.114 1.579-.114 1.579c0 .133-.093.28-.22.306c-.126.027-.253-.067-.312-.187l-1.113-2.152a.625.625 0 0 1 .186-.752z"/><defs><linearGradient id="tokenBrandedCrwny0" x1="12.007" x2="12.007" y1="3.199" y2="5.031" gradientUnits="userSpaceOnUse"><stop stop-color="#EBD19C"/><stop offset="1" stop-color="#DFAF6E"/></linearGradient></defs></g></svg>