<svg xmlns="http://www.w3.org/2000/svg" xmlns:xlink="http://www.w3.org/1999/xlink" width="24" height="24" viewBox="0 0 24 24"><g fill="none"><path fill="#7899F8" d="M6.253 3.876h2.77l2-1.253H8.488zm.694 3.183l1.482-2.624H5.506L4.094 7.16zm-.141.547v2.912H3.817V7.606zm6.158 1.106l2 1.205h2.618l-2-1.205zm-.023 12.7h2.5l2.106-1.236H14.9zm-3.935-7.218l2 1.212H8.382l-2-1.212zm8.158-.594v2.912h2.983V13.6zm-1.635-3.17l1.483 2.629l2.852.1l-1.411-2.73zm-8.588.629l1.482 2.63H5.5l-1.412-2.73zm8.588 8.623l1.483-2.63l2.852-.1l-1.411 2.73z"/><path fill="#fff" d="M15.312 2.588h-2.894l1.559 2.653H16.9zm.917.471l1.283 2.33l2.235 1.158l-1.235-2.164l-2.283-1.33zm-3.694 5.118l1.453-2.506l2.97.14l-1.446 2.366h-2.983zm3.47.194l1.548-2.412l2.47 1.394l-1.494 2.459zM2 10.194l1.37-2.13v2.471L2 12.883zm1.665 1.024l-1.6 2.576l1.54 2.541l1.424-2.54zm.206 5.53l1.588-2.571L8.1 15.67l-1.624 2.453l-2.605-1.37zm2.564 1.834l-2.153-1.035l1.189 2.141L7.6 20.894zm2.077 2.783l-1.46-2.588h3.019l1.388 2.588zm2.294-13.918l-1.218 2.13l2.353-1.353l1.024-2.006l-2.165 1.23zM9.418 4.224l2.435-1.518l1.53 2.588l-2.56 1.541l-1.411-2.611zm-.37.453l-1.7 2.57L8.9 9.712l1.488-2.47zm-1.7 3.494v2.57l1.305 2.094v-2.57zm1.246 7.682l-1.582 2.335H10.1l1.412-2.335zm2.377 1.959l1.235-2.059l2.1-1.241l-1.335 2.206zm2.07-.6l-2.453 1.435l1.565 2.6l2.394-1.494l-1.5-2.541zm2.33-6.018l1.294 2.141v2.606l-1.294-2.117zm-.318 3.206l1.53 2.418l-1.677 2.564l-1.488-2.482zm5.388-6.694l-1.482 2.53l1.365 2.664L22 10.235zm.1 5.824l1.412-2.277v2.494l-1.412 2.089z"/></g></svg>