<svg xmlns="http://www.w3.org/2000/svg" xmlns:xlink="http://www.w3.org/1999/xlink" width="24" height="24" viewBox="0 0 24 24"><g fill="none"><path fill="#46B5E0" d="m2.321 8.982l.564 5.927l3.054 5.236L7.836 17.8l-2.442-7.63z"/><path fill="#0196DA" d="m21.655 8.982l-.558 5.927l-3.055 5.236l-1.92-2.363l2.466-7.612z"/><path fill="#87C9EB" d="M16.037 17.879H8.043l-1.885 2.357L12.103 22l5.758-1.764z"/><path fill="#E3F4FC" d="M5.376 9.933L2.303 8.824L6.4 4.34L11.915 2v3.333l-6.545 4.6z"/><path fill="#82CEF0" d="m18.624 9.933l3.073-1.109L17.6 4.34L12.085 2v3.333l6.545 4.6z"/><path fill="#B9E2FE" fill-rule="evenodd" d="m18.46 10.267l-6.448-4.63l-6.449 4.63l2.46 7.49H16l2.466-7.49zM7.09 13.909l4.922 3.612l4.921-3.612l-1.879-5.848H8.97z" clip-rule="evenodd"/></g></svg>