<svg xmlns="http://www.w3.org/2000/svg" xmlns:xlink="http://www.w3.org/1999/xlink" width="24" height="24" viewBox="0 0 24 24"><g fill="none"><path fill="url(#tokenBrandedDck0)" d="m18.35 7.751l-.02.005l-9.624 9.819a1.385 1.385 0 0 1-1.985.01L2.487 13.3c-1.035-1.04-.31-2.8 1.135-2.8h2.434c.425 0 .835.166 1.145.466l2.25 2.164l-1.15 1.25l-2.25-2.13H3.767l3.944 3.92l9.439-9.66a1.67 1.67 0 0 1 1.2-.51h1.83c1.625 0 2.435 2.02 1.275 3.195l-8.279 8.364a1.47 1.47 0 0 1-2.11-.02l-.564-.585l1.2-1.205l.43.45L20.278 8c.09-.09.025-.25-.1-.25h-1.835z"/><defs><linearGradient id="tokenBrandedDck0" x1="21.984" x2="2.002" y1="7.826" y2="7.826" gradientUnits="userSpaceOnUse"><stop stop-color="#097CB8"/><stop offset="1" stop-color="#8ADECF"/></linearGradient></defs></g></svg>