<svg xmlns="http://www.w3.org/2000/svg" xmlns:xlink="http://www.w3.org/1999/xlink" width="24" height="24" viewBox="0 0 24 24"><g fill="none"><path fill="#0B8BB1" d="M10.076 2.944c.26.747.968 1.326 1.828 1.326c.875 0 1.59-.6 1.84-1.364c.164-.505.63-1.027 1.14-.881c.753.216 1.471.515 2.143.886c.459.252.425.93.187 1.395a1.936 1.936 0 0 0 2.582 2.616c.469-.23 1.148-.253 1.394.207c.324.606.586 1.243.783 1.901c.152.508-.367.979-.87 1.148c-.757.254-1.347.964-1.347 1.831s.59 1.576 1.347 1.832c.504.168 1.022.639.87 1.147a10.3 10.3 0 0 1-.907 2.126c-.252.444-.905.42-1.362.19a1.938 1.938 0 0 0-2.625 2.545c.216.463.223 1.117-.23 1.354q-.902.476-1.898.77c-.493.146-.95-.335-1.123-.818c-.267-.739-.974-1.305-1.822-1.305c-.85 0-1.556.566-1.822 1.305c-.175.483-.632.964-1.125.819a10.4 10.4 0 0 1-2.172-.92c-.415-.235-.424-.822-.237-1.26a1.937 1.937 0 0 0-2.516-2.55c-.442.18-1.03.163-1.259-.255c-.355-.647-.64-1.33-.849-2.039c-.145-.492.336-.947.82-1.121c.74-.267 1.306-.972 1.306-1.82s-.566-1.553-1.306-1.819c-.484-.174-.965-.63-.82-1.123c.19-.64.44-1.262.75-1.854c.232-.442.862-.45 1.319-.251a1.938 1.938 0 0 0 2.514-2.623c-.218-.448-.238-1.077.194-1.327a10.4 10.4 0 0 1 2.114-.925c.508-.156.984.356 1.159.857m1.93 15.481a6.42 6.42 0 0 0 6.425-6.416a6.42 6.42 0 0 0-6.425-6.415a6.42 6.42 0 0 0-6.425 6.415a6.42 6.42 0 0 0 6.425 6.416"/><path fill="#888" d="M14.302 7.713a.38.38 0 0 0 .357.26a.38.38 0 0 0 .359-.267c.032-.1.123-.201.223-.173q.22.064.418.174c.09.05.083.181.037.272a.377.377 0 0 0 .504.512c.092-.045.224-.05.272.04q.094.177.153.372c.03.1-.072.191-.17.224a.38.38 0 0 0-.263.359c0 .169.115.308.263.358c.098.033.2.125.17.224a2 2 0 0 1-.177.416c-.05.087-.177.081-.266.037a.379.379 0 0 0-.513.498c.042.09.044.218-.045.264a2 2 0 0 1-.37.15c-.097.03-.185-.065-.22-.16a.38.38 0 0 0-.355-.254a.38.38 0 0 0-.356.255c-.034.094-.123.189-.22.16a2 2 0 0 1-.424-.18c-.081-.046-.082-.16-.046-.246a.379.379 0 0 0-.491-.499c-.086.035-.201.032-.246-.05a2 2 0 0 1-.166-.398c-.028-.097.066-.186.16-.22a.38.38 0 0 0 .255-.356a.38.38 0 0 0-.255-.355c-.094-.034-.188-.123-.16-.22q.056-.188.147-.362c.045-.087.168-.088.257-.05a.378.378 0 0 0 .49-.512c-.042-.088-.045-.21.039-.26q.196-.112.412-.18c.1-.032.193.068.227.167m.373 2.789a1.02 1.02 0 0 0 .974-.62a1.018 1.018 0 1 0-.973.62M7.887 9.037a.38.38 0 0 0 .356.26a.38.38 0 0 0 .36-.268c.032-.098.123-.2.222-.171q.22.063.419.173c.089.049.083.18.036.272a.378.378 0 0 0 .504.512c.092-.046.225-.05.272.04q.095.177.153.372c.03.1-.072.191-.17.225a.38.38 0 0 0-.262.357c0 .17.115.309.262.359c.098.033.2.125.17.224a2 2 0 0 1-.177.415c-.049.088-.176.082-.266.038a.378.378 0 0 0-.512.497c.042.091.043.219-.045.265a2 2 0 0 1-.37.15c-.097.03-.186-.065-.22-.16a.38.38 0 0 0-.356-.255a.38.38 0 0 0-.356.256c-.033.094-.123.188-.219.16a2 2 0 0 1-.424-.18c-.082-.046-.083-.161-.047-.247a.378.378 0 0 0-.49-.498c-.087.035-.201.031-.246-.05a2 2 0 0 1-.166-.399c-.028-.096.066-.185.16-.218a.38.38 0 0 0 .255-.357a.38.38 0 0 0-.255-.356c-.094-.033-.188-.122-.16-.219q.056-.19.146-.362c.045-.087.169-.088.258-.05a.378.378 0 0 0 .49-.512c-.042-.087-.046-.21.038-.26q.195-.113.413-.18c.1-.031.192.069.227.167m.373 2.789a1.019 1.019 0 1 0 .07-2.037a1.019 1.019 0 0 0-.07 2.037m1.561 1.793a.38.38 0 0 0 .356.26a.38.38 0 0 0 .36-.267c.032-.099.123-.2.222-.172q.222.063.419.173c.09.05.083.181.036.273a.379.379 0 0 0 .505.512c.092-.046.224-.05.272.04q.094.176.153.371c.029.1-.072.192-.17.226a.38.38 0 0 0-.263.357a.38.38 0 0 0 .263.358c.098.033.2.125.17.224a2 2 0 0 1-.177.416c-.05.087-.177.082-.267.037a.377.377 0 0 0-.512.498c.042.09.044.218-.045.264a2 2 0 0 1-.37.151c-.097.029-.186-.066-.22-.16a.38.38 0 0 0-.356-.255a.38.38 0 0 0-.355.255c-.034.095-.123.189-.22.16a2 2 0 0 1-.424-.18c-.081-.046-.082-.16-.046-.246a.377.377 0 0 0-.491-.498c-.087.035-.201.03-.246-.05a2 2 0 0 1-.166-.4c-.028-.095.066-.185.16-.218a.38.38 0 0 0 .255-.356a.38.38 0 0 0-.255-.356c-.094-.034-.188-.123-.16-.22q.056-.187.147-.362c.045-.086.168-.088.257-.049a.38.38 0 0 0 .524-.288a.4.4 0 0 0-.033-.224c-.043-.088-.047-.211.038-.26q.196-.113.412-.181c.1-.03.193.07.227.167m.373 2.79a1.02 1.02 0 0 0 .744-1.752a1.017 1.017 0 0 0-1.44.025a1.018 1.018 0 0 0 .696 1.726"/><path fill="#0B8BB1" d="m12.441 9.97l-1.883.407l-.044-.198l1.884-.408zm-3.168 3.409l-.254-.51l.182-.09l.255.508zm4.143-2.123l-1.883 2.445l-.162-.125l1.884-2.443z"/></g></svg>