<svg xmlns="http://www.w3.org/2000/svg" xmlns:xlink="http://www.w3.org/1999/xlink" width="24" height="24" viewBox="0 0 24 24"><path fill="#FF00AF" d="M14.504 19.454V4.546c3.21.958 5 3.937 5 7.454s-1.79 6.496-5 7.454M11.998 2v8.428l-1.27-1.269l-.163-3.168l1.325-3.985c-.83.01-1.654.123-2.455.338l-.64 1.926l-1.817-.91a10 10 0 0 0-1.974 1.497l3.364 1.685l.098 1.928l-1.928-.099L4.852 5.01a10 10 0 0 0-1.498 1.973l.912 1.816l-1.928.64A10 10 0 0 0 2 11.893l3.987-1.325l3.169.162l1.27 1.27l-1.27 1.27l-3.17.162L2 12.107c.009.85.13 1.67.337 2.455l1.929.64l-.912 1.815c.416.718.92 1.38 1.498 1.974l1.686-3.362l1.928-.1l-.098 1.928l-3.364 1.686a10 10 0 0 0 1.974 1.498l1.816-.911l.641 1.926c.785.208 1.606.33 2.454.338l-1.324-3.985l.162-3.168l1.27-1.27V22C17.522 22 22 17.522 22 12S17.521 2 11.998 2"/></svg>