<svg xmlns="http://www.w3.org/2000/svg" xmlns:xlink="http://www.w3.org/1999/xlink" width="24" height="24" viewBox="0 0 24 24"><g fill="none"><path fill="url(#tokenBrandedDfx0)" d="M12 2.006v10.038l-3.931-4c-1.269 1.087-1.656 3.143-1.713 4c0 3.406 3.4 5.781 5.644 5.537V22c-7.887-.375-9.956-6.794-10-9.956c0-7.025 6.056-10.2 10-10.038"/><path fill="url(#tokenBrandedDfx1)" d="M12 21.994V11.956l3.931 4c1.269-1.087 1.656-3.143 1.713-4c0-3.406-3.4-5.781-5.644-5.537V2c7.887.375 9.956 6.794 10 9.956c0 7.025-6.056 10.2-10 10.038"/><defs><linearGradient id="tokenBrandedDfx0" x1="12" x2="12" y1="1.999" y2="22" gradientUnits="userSpaceOnUse"><stop offset=".32" stop-color="#00E8F2"/><stop offset="1" stop-color="#3F28F7"/></linearGradient><linearGradient id="tokenBrandedDfx1" x1="17" x2="17" y1="22" y2="2" gradientUnits="userSpaceOnUse"><stop offset=".46" stop-color="#EA00D1"/><stop offset="1" stop-color="#6401F2"/></linearGradient></defs></g></svg>