<svg xmlns="http://www.w3.org/2000/svg" xmlns:xlink="http://www.w3.org/1999/xlink" width="24" height="24" viewBox="0 0 24 24"><g fill="none"><path fill="url(#tokenBrandedDia0)" d="M10.817 7.882V5.53h2.941l4.412 3.53l.882 3.53c0 7.058-7.059 9.411-9.706 9.411s-4.411-1.47-4.411-1.765l4.411-.588c1.96-1.275 5.942-4.47 6.177-7.059c0-2.647-3.04-4.216-4.706-4.706"/><path fill="url(#tokenBrandedDia1)" d="M10.817 17.294H7.876V2h2.647c4.08 0 8.824 3.53 8.53 11.176c-.589-5.294-5.981-7.647-8.236-7.647z"/><path fill="url(#tokenBrandedDia2)" d="M7.876 2L4.935 4.059v16.176h2.647c4.079 0 8.53-3.235 7.94-7.647c-1.176 4.118-5.392 4.706-7.646 4.706z"/><defs><linearGradient id="tokenBrandedDia0" x1="12" x2="12" y1="2" y2="22" gradientUnits="userSpaceOnUse"><stop stop-color="#5A3B90"/><stop offset=".292" stop-color="#614397"/><stop offset=".615" stop-color="#8071B3"/><stop offset=".857" stop-color="#AEBADE"/><stop offset="1" stop-color="#C2DCF1"/></linearGradient><linearGradient id="tokenBrandedDia1" x1="19.049" x2="4.935" y1="11.222" y2="11.222" gradientUnits="userSpaceOnUse"><stop stop-color="#6C5DF4"/><stop offset=".437" stop-color="#8093D6"/><stop offset="1" stop-color="#9DE2AE"/></linearGradient><linearGradient id="tokenBrandedDia2" x1="4.935" x2="19.64" y1="12" y2="12" gradientUnits="userSpaceOnUse"><stop stop-color="#5B51EF"/><stop offset=".19" stop-color="#8367D3"/><stop offset=".45" stop-color="#B483AA"/><stop offset=".715" stop-color="#E7A081"/></linearGradient></defs></g></svg>