<svg xmlns="http://www.w3.org/2000/svg" xmlns:xlink="http://www.w3.org/1999/xlink" width="24" height="24" viewBox="0 0 24 24"><path fill="#5081F4" d="m21.29 9.515l-.06-.054l-.29-.267l-.758-.679l-.643-.582l-.109-.103l-.418.073l-3.988.412l-2.284-3.151a.43.43 0 0 0-.243-.152L4.376 3.68l-1.03-.164l.557.733l.4.528H2l1.06.994l6.364 5.994l-1.824 8.72l.085-.132l3.388-5.358l5.86-2.879a1 1 0 0 0 .497-.43l1.103-1.503H22zm-17.43-4h1L6.97 8.43zm1.164-.976l6.903 1.122l-2.182 5.303l-4.727-6.425zM9.08 16.861L9.909 13l.564 1.612l-1.394 2.243zm1.982-2.673l-.728-2.182h5.152zm-.685-2.794l2.145-5.279l3.758 5.279zm6.618-.364L15.51 8.994l3.055-.285l-1.576 2.327zm2-1.454l.388-.806l.94.806h-1.334z"/></svg>