<svg xmlns="http://www.w3.org/2000/svg" xmlns:xlink="http://www.w3.org/1999/xlink" width="24" height="24" viewBox="0 0 24 24"><g fill="none"><path fill="#02828B" d="M5.7 10.438L4.144 3.563l4.143 6.875z"/><path fill="#00514F" d="m5.7 10.438l-3.7 10l6.287-10z"/><path fill="#001E1E" d="M4.125 3.581L2 20.437l3.75-10z"/><path fill="#02828B" d="m18.3 10.438l1.556-6.875l-4.144 6.875z"/><path fill="#00514F" d="m18.3 10.438l3.7 10l-6.288-10z"/><path fill="#001E1E" d="M19.875 3.581L22 20.437l-3.75-10z"/><path fill="#00504F" d="M12 9.063s-2.376.85-3.57 1.262L12 16.081z"/><path fill="#001E1E" d="M12 9.056s2.388.857 3.575 1.269l-3.568 5.756V9.063z"/><path fill="#01A0A6" d="m12 9.081l-3.57 1.263L12 4.594z"/><path fill="#028188" d="m12 9.081l3.575 1.25l-3.574-5.737z"/></g></svg>