<svg xmlns="http://www.w3.org/2000/svg" xmlns:xlink="http://www.w3.org/1999/xlink" width="24" height="24" viewBox="0 0 24 24"><path fill="#0245B2" d="M21.839 13.793a10 10 0 0 0-.014-3.664L18.25 9.5v4.987zm-.178.797l-3.266.627v.006l1.275 3.194a10 10 0 0 0 1.99-3.827m-2.56 4.45l-.028.028l-3.43-1.372l2.092-2.093zm-.64.592a10 10 0 0 1-3.769 2l.577-3.282zm-4.565 2.187l.635-3.57H9.55l.694 3.597a10.1 10.1 0 0 0 3.65-.027m-4.448-.148l-.635-3.314l-3.25 1.294a10 10 0 0 0 3.887 2.02zM4.38 18.477l1.297-3.248l-3.325-.583a10 10 0 0 0 2.028 3.83M2.17 13.85a10 10 0 0 1-.011-3.641l3.59-.7v4.982zm.166-4.437l3.336-.64l-1.29-3.254a10 10 0 0 0-2.046 3.894m2.61-4.504L8.42 6.3L6.333 8.392zm.616-.564a10 10 0 0 1 3.814-1.998L8.8 5.64zm4.604-2.178l-.631 3.615h4.988l-.697-3.616a10 10 0 0 0-3.66 0m4.456.18l.633 3.286l3.2-1.269a10 10 0 0 0-3.833-2.017m4.443 2.577l.038.038l-1.369 3.43L15.643 6.3zm.596.65a10 10 0 0 1 1.977 3.757l-3.256-.57zm-7.629 5.588l2.336-4.788H9.705zM6.375 9.665v4.667l4.827-2.337zm10.867-.714l-2.164-2.158l-2.2 4.358zm.383 5.38V9.666l-4.764 2.33zM8.43 17.703l-.003-.004l.004-.002zm-.003-.004l-3.48 1.383l1.391-3.471zm8.814-2.653l-.004-.002l.004-.004zm-4.358-2.2l4.354 2.198l-2.154 2.16zm-.85-.023l-2.33 4.803h4.666zm-5.201-3.87l4.357 2.2l-2.2-4.359zm0 6.086l.004.005l-.004.002zm.004.005l2.154 2.16l2.2-4.358z"/></svg>