<svg xmlns="http://www.w3.org/2000/svg" xmlns:xlink="http://www.w3.org/1999/xlink" width="24" height="24" viewBox="0 0 24 24"><g fill="none"><path fill="#19130C" d="M22 12a10 10 0 1 1-20 0a10 10 0 0 1 20 0"/><path fill="#FBC933" d="M11.147 7.488c-.335.03-.659.059-.982.106a.14.14 0 0 1-.118-.041a1.24 1.24 0 0 0-.806-.4q-.194-.019-.282.13a1.44 1.44 0 0 0-.165.905c.012.077-.035.153-.094.212c-.294.294-.53.553-.73.906c-.294.54-.588 1.112-.647 1.694a8 8 0 0 0-.035 1.235c0 .059.006.088-.047.136c-.647.529-1.553 1.84-1.059 2.705c.077.118.194.242.37.365c.366.259.766.459 1.19.6c.334.112.4.906.4 1.188a32 32 0 0 1-.19 3.689a.02.02 0 0 1-.023 0a9.8 9.8 0 0 1-3.353-2.53q-.51-.61-.705-.876c-.048-.07-.042-.189-.012-.277c.1-.335.194-.688.294-1.006c.512-1.588 1.023-3.176 1.447-4.794q.397-1.498.776-3.006c.083-.335.2-.711.295-1.07c.04-.177.052-.312.023-.412c-.13-.453-.83-.535-1.218-.477c-.229.03-.411.63-.464.83c-.236.906-.43 1.841-.647 2.735c-.277 1.182-.577 2.37-.789 3.565l-.458 2.453c-.012.053-.03.059-.053 0a9.63 9.63 0 0 1-.806-5.2a9.62 9.62 0 0 1 4.017-6.818a9.37 9.37 0 0 1 4.706-1.788c.442-.047.906-.088 1.283-.059c.447.041.811.059 1.223.118a9.8 9.8 0 0 1 8.277 8.77c.011.288.052.6.058.853c0 .33-.029.665-.058.988a9.8 9.8 0 0 1-1.353 4.112q-.018.027-.036 0c-.235-.435-.429-.588-.747-.859a.15.15 0 0 1-.059-.117c.03-1.118-.705-2.159-1.464-2.906a2.6 2.6 0 0 0-.447-.341c-.194-.124-.288-.665-.353-.883a4 4 0 0 0-.23-.635c-.494-1.03-.923-1.882-1.823-2.547c-.147-.106-.265-.559-.324-.735c-.14-.394-.858-.212-1.13-.077a.2.2 0 0 1-.158 0a5.6 5.6 0 0 0-2.5-.44z"/><path fill="#EE9A1D" d="M14.053 4.347a.03.03 0 0 0-.014.009a.03.03 0 0 0-.01.015a.04.04 0 0 0 .012.035l.13.118c.359.358.059.958-.4 1.011a1.1 1.1 0 0 1-.388-.017l-.93-.177c-.188-.03-.164-.347-.14-.465c.111-.523.217-1.04.317-1.564c.035-.165.106-.33.294-.294l.706.14c.323.071.523.09.682.318c.236.318.112.718-.259.871m-2.158-.094a1.07 1.07 0 0 1-.519 1.065c-.12.07-.255.116-.393.135l-.206.03a1.065 1.065 0 0 1-1.2-.918l-.041-.306a1.06 1.06 0 0 1 .917-1.2l.206-.024a1.065 1.065 0 0 1 1.194.912z"/><path fill="#FBC933" d="M10.03 4.088a.647.647 0 0 1 .67-.665c.5 0 .647.46.706.883a.6.6 0 0 1-.059.353c-.112.276-.294.435-.606.43c-.576-.024-.705-.53-.711-1m3.053-.57a.08.08 0 0 1 .063-.06a.1.1 0 0 1 .03 0l.506.095c.042.006.077.023.118.041a.3.3 0 0 1 .135.165a.15.15 0 0 1 0 .1l-.011.088a.23.23 0 0 1-.124.159a.35.35 0 0 1-.235.03l-.5-.095a.076.076 0 0 1-.06-.094z"/><path fill="#EE9A1D" d="M6.824 4.67a.235.235 0 0 1 .1-.317l.711-.365a1.02 1.02 0 0 1 .765-.059c.259.094.47.277.6.524l.135.27c.125.242.153.522.077.783a1 1 0 0 1-.494.588l-.712.37a.235.235 0 0 1-.324-.105zm9.747-.435c.723.447.67 1.206.206 1.824c-.53.706-1.442.53-1.924-.112c-.235-.312-.182-.847-.024-1.159c.353-.688 1.012-1.006 1.742-.559z"/><path fill="#FBC933" d="M7.341 4.618a.04.04 0 0 1 .004-.049l.014-.01l.364-.189a.61.61 0 0 1 .812.271l.177.353a.61.61 0 0 1-.26.812l-.364.182a.04.04 0 0 1-.059-.018zm5.577-.183a.07.07 0 0 1 .023-.041a.07.07 0 0 1 .053-.012l.547.118c.094.017.18.067.241.141c.059.07.083.159.065.241l-.006.041a.3.3 0 0 1-.153.2a.4.4 0 0 1-.282.036l-.547-.118a.07.07 0 0 1-.047-.023a.07.07 0 0 1-.006-.048zm2.258.906c.106-.518.594-1.165 1.183-.77c.282.188.353.464.223.829c-.094.259-.312.588-.594.653c-.459.117-.912-.224-.812-.712"/><path fill="#EE9A1D" d="m18.294 7.453l-.74.735a.07.07 0 0 1-.077.018a.1.1 0 0 1-.024-.018l-.418-.435a.07.07 0 0 1-.015-.077l.015-.023l1.277-1.277a.07.07 0 0 1 .05-.02a.07.07 0 0 1 .05.02l1.27 1.277a.07.07 0 0 1 0 .1l-.435.43a.07.07 0 0 1-.05.02a.07.07 0 0 1-.05-.02l-.759-.73a.07.07 0 0 0-.05-.02a.07.07 0 0 0-.05.02zm-12.77-.794a.1.1 0 0 1 .053-.018c.353-.018 1.082.065.929.618q-.487 1.744-.912 3.506c-.517 2.164-1.276 4.252-1.912 6.382a.02.02 0 0 1-.011.018q-.008 0-.014-.003a.02.02 0 0 1-.01-.01a36 36 0 0 1-.288-.5c-.118-.205-.118-.317-.065-.54c.212-1 .412-2.324.688-3.547c.342-1.506.706-3.012 1.036-4.524q.134-.617.347-1.206a.3.3 0 0 1 .159-.176"/><path fill="#B16C4F" d="M8.976 8.094a1.06 1.06 0 0 1 .13-.67c.105-.212.629.094.74.188a.04.04 0 0 1 .01.02a.04.04 0 0 1-.003.02l-.012.013l-.83.447c-.023.011-.035 0-.035-.018m8.365 10.618a1.56 1.56 0 0 0-.53-.93c-.24-.194-.47-.217-.729-.035c-.37.265-.753.57-1.118.788c-.312.194-.735.424-1.07.494a2.06 2.06 0 0 1-1.06-.176c-.529-.182-.67-.682-.628-1.224c.023-.358.123-.529.411-.764c.706-.588 1.665-1.212 1.783-2.218c.011-.106 0-.241-.042-.412a3.8 3.8 0 0 0-.829-1.63c-.27-.34-.4-.517-.677-.717c-.305-.217-.7-.282-.929-.594c-.117-.17-.212-.312-.376-.424a1.155 1.155 0 0 0-1.806.7a.5.5 0 0 0-.088.148q-.017.05.082.094a2.73 2.73 0 0 1-.9 1.382q-.443.38-1 .577c-.306-.224-.812-.46-1.182-.283q-.105.046-.06-.059q.293-.539.807-.929c.058-.047.088-.106.076-.177c.165-.152.318-.311.465-.464a.8.8 0 0 0 .159-.206a.6.6 0 0 0 .105-.17c.06-.13.077-.242.036-.342q-.15-.398-.212-.864a7 7 0 0 0-.1-.5a4.2 4.2 0 0 1 1.294-1.542c.765-.57 1.912-.617 2.824-.523c.515.069 1.02.199 1.505.388a.02.02 0 0 1-.005.018a1.8 1.8 0 0 0-.447.829a.06.06 0 0 0 .029.041q.015.004.03 0h.017a.12.12 0 0 0 .1-.082a1.28 1.28 0 0 1 1.2-.941c.176 0 .288.07.335.235l.13.447c.259.87.206 1.588.03 2.512a.126.126 0 0 0 .064.141l.024.012a.06.06 0 0 0 .068-.01l.014-.02c.059-.27.106-.53.117-.8c.018-.264.06-.553.048-.835c0-.176-.06-.394-.053-.594c0-.053.023-.059.058-.03c.427.361.78.8 1.041 1.295c.136.258.271.517.412.764c.241.447.383.918.483 1.383c.076.335-.018.67-.1 1.006c-.2.84-.77 1.553-1.265 2.235a6.5 6.5 0 0 1-1.824 1.694c-.059.035-.07.082-.047.141l.012.024a.06.06 0 0 0 .041.04q.015.004.028.002l.025-.013c.641-.412 1.153-.83 1.618-1.388c.182-.218.494-.635.93-1.265c.293-.418.511-.876.652-1.365c.053-.182.083-.417.136-.623c.005-.024.023-.03.04-.018c.124.06.236.136.348.236q.575.52 1.053 1.27c.34.541.54 1.082.47 1.724a.3.3 0 0 1-.047.117q-.345.558-.706 1.106c-.335.512-.788.93-1.276 1.324z"/><path fill="#EE9A1D" d="m16.63 8.023l-.453.453a.065.065 0 0 0 0 .094l.43.436c.029.03.07.03.094 0l.458-.453a.065.065 0 0 0 0-.088l-.435-.442a.064.064 0 0 0-.073-.015zm2.182.418l-.406-.4a.08.08 0 0 0-.058-.025a.08.08 0 0 0-.06.025l-.4.412a.08.08 0 0 0 0 .117l.407.4a.09.09 0 0 0 .117 0l.4-.411a.08.08 0 0 0 .025-.059a.08.08 0 0 0-.025-.059m1.247-.412l.447.441l.012.018a.05.05 0 0 1 0 .041l-.012.018l-.447.441a.05.05 0 0 1-.038.016a.05.05 0 0 1-.038-.016l-.459-.453a.05.05 0 0 1-.012-.059l.012-.017l.465-.43a.053.053 0 0 1 .07 0"/><path fill="#D8CFC8" d="M13.535 8.735c.212-.306.518-.506.912-.588c.059-.018.1-.006.13.018c.1.088.235.435.276.606c.165.676.059 1.294-.012 1.94c-.006.06-.041.089-.1.077c-.523-.088-1.07-.776-1.306-1.253c-.123-.264-.059-.564.1-.8"/><path fill="#EE9A1D" d="M18.306 9.594h.047a.1.1 0 0 0 .035-.03l.718-.729a.06.06 0 0 1 .053-.012c.123.041.412.389.512.494c.012.006.012.018.012.03c0 .006 0 .017-.012.023l-1.241 1.26c-.053.046-.1.046-.154 0L17.03 9.387a.07.07 0 0 1-.015-.073l.015-.021l.429-.441a.07.07 0 0 1 .053-.024a.07.07 0 0 1 .053.024q.364.377.741.74"/><path fill="#D8CFC8" d="M7.93 9.776c.046.206.082.377.1.5c.04.312.117.6.211.865q.062.149-.035.341q-.072-.616-.577-.782a.06.06 0 0 1-.047-.059q0-.012.006-.024zm9.411 8.936c-.388.294-.824.57-1.312.811q-.565.283-1.335.583q-.08.027-.088.117c0 .018 0 .03.017.042a.12.12 0 0 0 .088.041c0 .076-.04.135-.035.2c.024.33.47.347.694.235c.177-.082.442-.188.806-.312a.53.53 0 0 1 .583.136a9.9 9.9 0 0 1-2.824 1.047c-.3.059-.676.094-1.012.153c-.105.023-.276.005-.412.017c-.435.041-.882-.006-1.282-.012c-.088 0-.176-.017-.264-.023a9.1 9.1 0 0 1-2.795-.73q.02-.39.053-.782c.018-.253.024-.53.047-.794c.036-.341.024-.647.047-.97c.06-.753.106-1.648-.223-2.395c-.006-.023 0-.03.018-.03c.247-.005.511 0 .729-.029c.835-.117 1.453-.558 2.141-1.011a.07.07 0 0 0 .03-.077L11 14.906l-.018-.018c-.04-.053-.088-.059-.135-.018a4.6 4.6 0 0 1-2.077.942a2.58 2.58 0 0 1-1.853-.389v-.035q.017-.051.06-.023q.324.158.517.176c.423.018.841.018 1.265 0c.647-.03 1.017-.506 1.588-.723c.235-.089 0-.342-.141-.318c-.06.012-.106.053-.165.123c-.176.23-.459.412-.706.548c-.4.217-.87.188-1.3.194a3.3 3.3 0 0 1-.923-.147a.09.09 0 0 1-.03-.095c.03-.111.324-.223.424-.276c.106-.053.23-.17.359-.353a.54.54 0 0 0 .1-.435c-.024-.1-.089-.194-.13-.294a3 3 0 0 0 1-.571c.433-.359.747-.84.9-1.382c.3.064.565.117.788.14c.465.06.806-.205 1.112-.517a.08.08 0 0 0 .02-.068a.08.08 0 0 0-.044-.056a2 2 0 0 0-.917-.117c-.35.02-.684.153-.953.376a1.157 1.157 0 0 1 1.806-.706c.165.118.253.26.376.43c.236.312.624.377.93.594c.276.2.406.377.676.718c.402.469.685 1.027.824 1.63a1.1 1.1 0 0 1 .047.41c-.118 1-1.077 1.63-1.783 2.219c-.288.235-.388.406-.411.764c-.041.541.106 1.041.623 1.23c.33.117.724.247 1.065.176c.38-.112.74-.28 1.07-.5c.365-.218.748-.53 1.118-.788c.253-.182.488-.159.724.035c.276.236.459.541.53.93zM7.7 11a1 1 0 0 0-.07.253c-.007.076-.03.082-.06.012c-.058-.095-.047-.212.018-.342a.04.04 0 0 1 .01-.016a.04.04 0 0 1 .037-.01a.04.04 0 0 1 .018.009l.023.017a.07.07 0 0 1 .024.083z"/><path fill="#D8CFC8" d="m10.418 11.735l-.412-.088H10a.02.02 0 0 1-.004-.012q0-.006.004-.011v-.006l.341-.16h.012l.006.007l.076.253v.011l-.008.006zM8.1 11.647c-.018.053-.07.118-.159.212c-.147.153-.3.312-.47.47v-.788q0-.036.03-.018c.2.077.364.189.6.13z"/><path fill="#19130C" d="M9.642 13.965c0 .035.017.07.047.07c.023 0 .047-.03.053-.064c0-.036-.024-.065-.047-.065c-.03 0-.053.024-.06.059zm-.583.24a.02.02 0 0 1-.014.006a.02.02 0 0 1-.015-.005l-.006-.006a.2.2 0 0 1-.047-.059a.1.1 0 0 1 0-.03v-.017l.012-.012c.011-.011.023-.011.047 0c.017 0 .04.018.059.042l.011.005a.023.023 0 0 1 0 .03zm.912 0c.03 0 .059-.023.059-.052c0-.03-.035-.047-.065-.047a.06.06 0 0 0-.059.059c0 .023.03.04.06.04zm-1.218.148c.036.018.077.012.089-.018c.011-.023 0-.059-.036-.076s-.07-.012-.088.012q-.018.046.035.082m-.147.03l.012.035a.03.03 0 0 1 0 .04q-.027.034-.07.024a.05.05 0 0 1-.036-.04q0-.064.053-.1q.02-.018.03.011v.018zm1.006.04c0 .03.012.06.036.06s.047-.024.047-.06c0-.029-.018-.058-.042-.058c-.023 0-.04.023-.04.059m-.512.048c.018.03.048.047.071.035c.024-.012.03-.047.012-.076c-.018-.03-.047-.048-.07-.036c-.024.018-.03.047-.013.077"/><path fill="#D8CFC8" d="M6.63 15.259a.82.82 0 0 1-.383-.8h.012c.17.206.347.406.529.588c.135.141-.047.276-.159.212"/><path fill="#19130C" d="M8.811 14.588v-.03q0-.008.007-.016a.02.02 0 0 1 .017-.007l.011.006q.036.017.053.06v.017c0 .011 0 .017-.011.023l-.053.041a.024.024 0 0 1-.03-.005l-.006-.012v-.03l.012-.053zm.512.059c.03.018.065.012.082-.018c.012-.023 0-.058-.035-.076c-.035-.012-.07 0-.082.023c-.012.024 0 .06.035.077zm-1.17.112a.1.1 0 0 1-.03.035c-.012.012-.03.018-.047 0a.08.08 0 0 1-.03-.076q.002-.028.03-.03q.035 0 .064.018c.024.012.024.03.012.053m1.1-.035l.011.011v.024a.18.18 0 0 1-.118.047c-.006 0-.017 0-.023-.012a.04.04 0 0 1-.012-.024c0-.035.006-.058.03-.07a.05.05 0 0 1 .041-.012zm-.93.252c.041 0 .076-.023.076-.058c0-.03-.035-.053-.076-.053s-.077.03-.077.059s.036.052.077.052m.476-.029c-.006.041.018.082.06.088c.034.006.07-.023.076-.059c.005-.046-.018-.082-.06-.088c-.035-.011-.07.018-.076.059m-.33.124c.013.04.048.064.077.059c.036-.006.06-.048.047-.083c-.011-.041-.04-.07-.076-.059c-.035 0-.059.041-.047.083"/><path fill="#B16C4F" d="M16.759 20.565q-.264-.249-.589-.136c-.353.118-.623.23-.8.312c-.223.112-.67.094-.694-.235c0-.065.035-.124.035-.2a11.1 11.1 0 0 0 2.877-1.518c.141-.106.323-.276.541-.518c.53-.574.99-1.21 1.37-1.894a.08.08 0 0 1 .09 0q.466.318.652.865a.1.1 0 0 1-.006.082a9.9 9.9 0 0 1-3.476 3.242"/></g></svg>