<svg xmlns="http://www.w3.org/2000/svg" xmlns:xlink="http://www.w3.org/1999/xlink" width="24" height="24" viewBox="0 0 24 24"><g fill="none"><path fill="url(#tokenBrandedDoga0)" fill-rule="evenodd" d="M9.93 6.138H2V22h7.93a7.931 7.931 0 0 0 0-15.862m0 2.07H4.07V19.93h5.86a5.862 5.862 0 0 0 0-11.724" clip-rule="evenodd"/><path fill="url(#tokenBrandedDoga1)" d="m17.503 16.434l-2.593.738a6 6 0 0 1-.38.531l1.359 1.593a7.8 7.8 0 0 0 1.614-2.862"/><path fill="url(#tokenBrandedDoga2)" fill-rule="evenodd" d="M14.07 2H6.137v15.862h7.931A7.93 7.93 0 1 0 14.07 2m0 2.069H8.206v11.724h5.862a5.862 5.862 0 0 0 0-11.724" clip-rule="evenodd"/><path fill="url(#tokenBrandedDoga3)" d="M8.207 10.276L6.138 8.207h2.07z"/><defs><linearGradient id="tokenBrandedDoga0" x1="5.036" x2="18.607" y1="5.572" y2="18.25" gradientUnits="userSpaceOnUse"><stop stop-color="#422C81"/><stop offset="1" stop-color="#7B368A"/></linearGradient><linearGradient id="tokenBrandedDoga1" x1="5.035" x2="18.607" y1="5.571" y2="18.25" gradientUnits="userSpaceOnUse"><stop stop-color="#422C81"/><stop offset="1" stop-color="#7B368A"/></linearGradient><linearGradient id="tokenBrandedDoga2" x1="5.036" x2="18.607" y1="5.571" y2="18.25" gradientUnits="userSpaceOnUse"><stop stop-color="#422C81"/><stop offset="1" stop-color="#7B368A"/></linearGradient><linearGradient id="tokenBrandedDoga3" x1="5.036" x2="18.607" y1="5.572" y2="18.25" gradientUnits="userSpaceOnUse"><stop stop-color="#422C81"/><stop offset="1" stop-color="#7B368A"/></linearGradient></defs></g></svg>