<svg xmlns="http://www.w3.org/2000/svg" xmlns:xlink="http://www.w3.org/1999/xlink" width="24" height="24" viewBox="0 0 24 24"><g fill="none" opacity=".8"><path fill="#E1B051" d="m8.81 2.514l-.248-.176a.093.093 0 0 0-.147.088l.04.244l-.025.975q0 .04-.03.069l-.024.024a.16.16 0 0 0-.044.078a27 27 0 0 0-.21.927a.45.45 0 0 1-.116.214l-.21.225c-.264.283-.23.331.112.146a7 7 0 0 0 .79-.522c.088-.068.244-.088.454-.063q.06.006.097.049c.088.092.18.16.283.22c.034.014.054.048.059.087c.024.166 0 .341-.117.468a1.33 1.33 0 0 0-.332.888q0 .072-.058.107c-.25.146-.264.425-.469.62a2.3 2.3 0 0 1-.302.234l-.02-.654a.15.15 0 0 0-.16-.146c-.079 0-.157.049-.225.127q-.256.317-.654.473c-.204.049-.341.21-.424.488a.9.9 0 0 1-.18.282q.036-.664-.6-.6q-.14.014-.44.269a.16.16 0 0 0-.048.088a.79.79 0 0 1-.468.585c-.083.02-.122-.02-.118-.103c0-.014 0-.024.01-.039c.322-.61.327-1.336.888-1.824q.227-.211.512-.332c.97-.34 1.478-.98 1.527-1.931l.03-.956a3.8 3.8 0 0 1 .16-1.02a.176.176 0 0 1 .215-.117l.268.074q.051.013.073.063l.146.37z"/><path fill="#B87C29" d="m8.81 2.514l.18.21c.274.375.498.78.684 1.209q.085.21.434.463c.131.103 0 .157-.405.147a3 3 0 0 1-.712-.854a.8.8 0 0 1-.117-.366a.83.83 0 0 0-.264-.55a.063.063 0 0 0-.107.038l-.005.117a.6.6 0 0 1-.049-.253l-.029-.25a.093.093 0 0 1 .142-.087l.243.176z"/><path fill="#C89539" d="M16.493 2.714c-.103.01-.156.078-.147.195c0 .185.098.312.098.488c0 .112-.005.219-.015.331c-.019.259.205.498.274.742c.097.331.117.629.068.882a8 8 0 0 0-.108.78a.45.45 0 0 1-.16.318a.08.08 0 0 0-.02.098l.03.029a.53.53 0 0 1 .243.302a.06.06 0 0 0 .09.034a.06.06 0 0 0 .022-.029a.65.65 0 0 0 .074-.322a.3.3 0 0 1 .087.127c.098.268.215.532.342.78q.202.416.258.708q.125.631.161 1.253c.01.2.069.503.147.683c.21.527.356 1.059.439 1.605v1.093a.12.12 0 0 0 .029.097c.122.161.151.356.097.585q-.037.162.074.259q.05.043.048.107q-.016.3-.2.512a.95.95 0 0 0-.204.342c-.117.356-.357.688-.732.78a.23.23 0 0 0-.142.103c-.15.253-.195.478-.507.595a.09.09 0 0 1-.092-.015c-.088-.063-.186-.049-.293.034c.063-.244.146-.488.253-.717q.08-.175.22-.322q.25-.276.146-.712a.14.14 0 0 1 .025-.112c.166-.239.258-.488.448-.722a1.1 1.1 0 0 0 .244-.741a.04.04 0 0 0-.006-.023a.04.04 0 0 0-.018-.016h-.03l-.019.014c-.293.317-.688.508-.927.878a5 5 0 0 1-1.112 1.244a.26.26 0 0 0-.097.234c.029.23 0 .483.307.488c.049.005.068.03.068.073a.43.43 0 0 1-.083.259q-.219.313-.424.634a.063.063 0 0 0 .059.063l.078.005c-.088.049-.166.112-.274.122c-.292.03-.482-.015-.57-.122q.25-.313.448-.502a.52.52 0 0 0 .168-.508a.08.08 0 0 0-.075-.044a.8.8 0 0 0-.205.059a.068.068 0 0 1-.097-.078a.9.9 0 0 0 .02-.307a.1.1 0 0 1 .014-.078l.268-.454a.04.04 0 0 0 .006-.026l-.006-.013l-.01-.01a.034.034 0 0 0-.043 0q-.271.272-.586.332c-.044.01-.068-.01-.083-.049l-.01-.039l.005-.005a.76.76 0 0 0 .303-.195a.43.43 0 0 0 .097-.278c0-.297.43-.668.63-.868a.26.26 0 0 0 .073-.23a6 6 0 0 1-.083-.536q-.007-.095.073-.132a.1.1 0 0 1 .049-.01c.014 0 .03.01.044.02l.039.04q.052.043.083-.015l.175-.293a.1.1 0 0 0 .01-.059c-.049-.341.049-.624.283-.834a.55.55 0 0 0 .127-.332a.09.09 0 0 0-.049-.087l-.146-.098a.1.1 0 0 1-.05-.097a.8.8 0 0 1 .162-.39q.031-.039-.005-.069c-.112-.088-.195-.307-.098-.439a.3.3 0 0 0 .05-.127a.08.08 0 0 0-.02-.073q-.221-.203-.083-.444c.014-.034.014-.063-.01-.088l-.24-.248a.1.1 0 0 1-.024-.073a.26.26 0 0 0-.063-.196a.05.05 0 0 0-.039-.02a.05.05 0 0 0-.039.03a1.2 1.2 0 0 1-.132.244l-.029.01q-.036-.001-.03-.04l.05-.243q.016-.062-.05-.063l-.36-.015a.05.05 0 0 0-.05.048l.006.025l.132.195a.05.05 0 0 1 .005.044a.05.05 0 0 1-.034.03a.2.2 0 0 1-.127-.02l-.322-.161a.2.2 0 0 0-.108-.02l-.244.015c-.053 0-.087-.02-.097-.068l-.015-.04a.08.08 0 0 0-.088-.059c-.32.065-.65.077-.975.035a.14.14 0 0 0-.137.073a3.1 3.1 0 0 1-.814.995c-.107.083-.23.122-.351.166a.2.2 0 0 0-.098.064c-.2.224-.38.17-.653.165c-.293-.004-.576-.019-.859-.034a.44.44 0 0 0-.195-.078a.09.09 0 0 1-.073-.078a1.9 1.9 0 0 0-.254-.785a.09.09 0 0 0-.088-.049a.09.09 0 0 0-.078.059l-.17.449a.108.108 0 0 1-.176.039a.1.1 0 0 1-.03-.064l-.043-.283a.6.6 0 0 0-.034-.131l-.098-.269a.063.063 0 0 1 .03-.078a.1.1 0 0 1 .029-.005h.063q.049.002.068-.048c.059-.186.142-.366.234-.537a.39.39 0 0 0-.004-.39c-.02-.034-.05-.04-.079-.01a4 4 0 0 0-.575.605q-.074.108-.098-.024a.1.1 0 0 0-.024-.064q-.034-.03-.083-.01c-.298.147-.527.317-.683.522a.45.45 0 0 1-.273.18c-.039.006-.049-.009-.044-.048q.151-.39.38-.741c.05-.069.03-.137-.048-.205q-.036-.045-.078 0l-.366.341q-.001-.055.034-.097q.219-.207.341-.566q.111.007.132-.073c.034-.147.098-.25.17-.366q.163-.104.303-.234c.205-.195.22-.474.469-.62a.12.12 0 0 0 .058-.107c0-.342.112-.634.332-.888A.58.58 0 0 0 9.59 5.1a.11.11 0 0 0-.059-.088a1.1 1.1 0 0 1-.278-.22a.16.16 0 0 0-.097-.048c-.22-.025-.371 0-.459.063q-.41.308-.79.522q-.51.278-.112-.146l.21-.225a.5.5 0 0 0 .117-.214l.21-.927a.16.16 0 0 1 .043-.078l.025-.024a.1.1 0 0 0 .029-.069l.024-.975q-.007.154.044.258a.4.4 0 0 0 .166.21a.12.12 0 0 1 .059.107a.11.11 0 0 1-.074.098c-.214.088-.195.356-.063.502a.9.9 0 0 1 .22.464c.004.058.039.097.092.131c.273.147.537.18.805.108q.602 0 .405-.147a9.6 9.6 0 0 1 1.536.22q.221.047.45.049c.282 0 .54.078.828.102c.283.024.566.098.83-.039a1.1 1.1 0 0 0 .365-.317q.292 0 .459-.146c.097-.083.175-.18.244-.288a.2.2 0 0 1 .073-.059a.96.96 0 0 0 .502-.531c.064-.161.03-.342.035-.512q0-.057.039-.098c.229-.259.78-.2 1.024-.068"/><path fill="#85511C" d="M16.492 2.714c.195.107.342.302.425.585c.232.687.302 1.418.204 2.136l-.18 1.127a.65.65 0 0 1-.073.322a.06.06 0 0 1-.055.033a.06.06 0 0 1-.052-.038a.54.54 0 0 0-.25-.302a.08.08 0 0 1-.033-.098a.1.1 0 0 1 .024-.03a.45.45 0 0 0 .161-.316q.035-.409.107-.78a1.86 1.86 0 0 0-.068-.879c-.068-.243-.293-.487-.273-.746l.015-.327c0-.18-.098-.307-.098-.492c-.01-.117.044-.18.146-.195M9.707 4.548a1.07 1.07 0 0 1-.81-.108a.17.17 0 0 1-.097-.131a.9.9 0 0 0-.214-.464c-.127-.146-.147-.414.063-.502a.112.112 0 0 0 .059-.16a.1.1 0 0 0-.044-.045a.4.4 0 0 1-.166-.21l.005-.117a.064.064 0 0 1 .107-.039a.83.83 0 0 1 .263.551q.016.19.117.366c.19.342.43.624.713.859z"/><path fill="#B87C29" d="M14.469 4.835a.1.1 0 0 1 .063-.024q.182-.022.137.146a.13.13 0 0 1-.05.069a1.05 1.05 0 0 0-.438.843c-.02.269.17.405.166.664l-.015.044a.1.1 0 0 1-.063.029a.15.15 0 0 1-.147-.117a1.2 1.2 0 0 0-.185-.405a.13.13 0 0 0-.068-.049a.28.28 0 0 1-.195-.185a.2.2 0 0 0-.06-.093l-.282-.244a.22.22 0 0 1-.088-.195a.07.07 0 0 1 .068-.059c.015 0 .025 0 .035.01a.67.67 0 0 0 .41.108a.14.14 0 0 0 .092-.04z"/><path fill="#85511C" d="M16.112 5.865c-.214.44-.547.811-.96 1.073a.08.08 0 0 1-.103-.03l-.063-.107a.13.13 0 0 0-.127-.058l-.332.044a.073.073 0 0 1-.059-.122c.19-.18.41-.395.488-.649a.75.75 0 0 1 .273-.376a.054.054 0 0 0 .005-.084a.05.05 0 0 0-.029-.013l-.185-.01a.09.09 0 0 1-.083-.083q-.002-.079.068-.136c.078-.064.151-.127.215-.2a.24.24 0 0 1 .248-.083c.196.034.4.049.615.029a.16.16 0 0 1 .156.107a.66.66 0 0 1 .024.322c-.02.108-.073.234-.15.376"/><path fill="#B87C29" d="M9.376 6.874q.16-.496.473-1.102q.03-.06.088-.03c.063.025.088.074.083.142c-.028.29-.129.569-.293.81c-.17.263-.16.536-.239.829a.07.07 0 0 1-.063.049q-.066.009-.088-.034a.4.4 0 0 1-.049-.24q.03-.21.088-.424"/><path fill="#E1B051" d="m11.171 8.07l-.468.307c-.141.058-.258.063-.366.01c-.185-.098-.2-.347-.234-.532a.4.4 0 0 1 .015-.215q.06-.177.083-.36c.034-.308.317-.522.585-.664c.249-.122.488-.083.717.127c.317.293.185.712.102 1.073a.08.08 0 0 1-.068.063a.63.63 0 0 0-.36.19z"/><path fill="#B87C29" d="M8.313 7.416a1.2 1.2 0 0 0-.171.366q-.022.08-.132.073q-.147-.62-.756-.634q.397-.162.654-.478a.32.32 0 0 1 .224-.127a.15.15 0 0 1 .161.146zm8.009.395q.294-.021.36-.37a.04.04 0 0 1 .025-.03a.04.04 0 0 1 .034 0l.04.015a.12.12 0 0 1 .068.122a8 8 0 0 0-.078 1.22q0 .136-.108.048c-.063-.064-.112-.195-.136-.395a.14.14 0 0 0-.05-.098c-.17-.132-.35-.185-.39-.43q-.096-.571.24-1.004a.05.05 0 0 1 .029-.02c.01 0 .02 0 .03.01v.02l-.098.283q-.016.065.034.107q.117.09.088.215a.16.16 0 0 1-.064.097a.3.3 0 0 0-.097.103a.073.073 0 0 0 .034.098c.01.009.024.009.039.009"/><path fill="#0B0802" d="M7.254 7.22c.405.01.654.22.756.635q-.123.358-.341.57l-.395.108c-.293-.293-.332-.615-.132-.976q.014-.02-.01-.034c-.01-.01-.024-.005-.034.005a.9.9 0 0 1-.205.22q-.072-.006-.063-.05c.078-.273.22-.438.424-.482z"/><path fill="#EFE2AD" d="M6.65 7.987q.002.045-.025.053c-.083.083-.146.137-.19.147q-.147.057-.147.21a2.2 2.2 0 0 1-.058.448q-.1.401.268.488a.24.24 0 0 0 .273-.098q.183-.248.41-.473l.083-.02q.144-.002.005.186a.7.7 0 0 1-.117.127l-.351.283a.8.8 0 0 0-.186.205l-.146.234l-.42.151l.01-.034q.001-.031.04-.025q.02.001.043-.034a.03.03 0 0 0 .005-.024a2.7 2.7 0 0 1-.073-1.073l.092-.342c.035-.126.054-.263.054-.4a.6.6 0 0 0-.093-.322a.1.1 0 0 0-.092-.048q-.243.013-.317.21a1.1 1.1 0 0 1-.186.34q-.118.147-.2.367q-.145.371-.341.678a2 2 0 0 1-.146.15a.3.3 0 0 0-.069.216a.17.17 0 0 1-.034.092a.3.3 0 0 0-.058.195q-.002.06.048.03a.1.1 0 0 1 .078 0q.279.17.59.263a.08.08 0 0 1 .03.063l-.005.034a1.73 1.73 0 0 0-.146.874q.052.512.229.848c.02.04.049.064.098.083q.05.016.058-.034l.02-.107l.253.41c-.249.4-.039.75.122 1.117a.17.17 0 0 1-.02.165q-.22.306-.565.474c-.176.087-.342-.005-.459-.137l-.068-.049a.1.1 0 0 0-.098 0c-.097.049-.16.03-.195-.073q-.19-.601-.35-1.268a4.1 4.1 0 0 1 .16-2.39q.111-.314.17-.649c.05-.249.123-.512.23-.785a1 1 0 0 1 .078-.142a.16.16 0 0 0 .034-.088c0-.073.044-.136.117-.185a.79.79 0 0 0 .469-.585a.16.16 0 0 1 .048-.088q.3-.255.44-.268c.424-.05.624.156.6.6"/><path fill="#FCF9F5" d="M7.269 8.533c-.44-.059-.566-.317-.38-.785a.8.8 0 0 0 .209-.22q.014-.017.034-.005q.024.014.01.034c-.2.361-.156.683.132.976zm.053-.937a.05.05 0 0 1 .05.015a.05.05 0 0 1 .009.044a.15.15 0 0 1-.088.102c-.058.03-.083.01-.068-.048c.014-.064.049-.098.097-.113"/><path fill="#FAF2CD" d="M6.05 9.928a.2.2 0 0 0-.084.112a.5.5 0 0 0-.146.244c.01-.137-.078-.132-.249.01c-.224.175-.297.575-.293.843c-.032-.31.02-.624.152-.907a.08.08 0 0 0-.03-.063a2.5 2.5 0 0 1-.59-.259a.07.07 0 0 0-.078 0q-.05.024-.049-.034a.26.26 0 0 1 .059-.195a.13.13 0 0 0 .034-.098c0-.083.02-.156.073-.21c.073-.077.122-.126.137-.15c.136-.205.249-.43.346-.683c.054-.142.122-.259.2-.361a1.1 1.1 0 0 0 .185-.342q.076-.196.317-.21a.1.1 0 0 1 .098.05a.57.57 0 0 1 .088.321q-.002.206-.054.405l-.093.341c-.047.363-.023.73.074 1.083l-.005.01q-.022.035-.049.034c-.02-.005-.034 0-.034.025z"/><path fill="#5B4F40" d="M6.83 7.703c0 .025.014.04.063.044c-.19.469-.063.732.38.78l.391-.102a.15.15 0 0 0-.03.093a.7.7 0 0 1-.37.224l-.083.02c-.366-.015-.536-.4-.556-.722c.02 0 .03-.024.024-.054a1 1 0 0 0 .18-.283"/><path fill="#FCF9F5" d="M7.644 7.733c-.034.048-.034.107 0 .131s.093.005.122-.039c.034-.048.034-.107 0-.131s-.092-.005-.122.039"/><path fill="#E0C06E" d="M10.425 10.22q-.108-.02-.107.083c.01.224-.01.43-.059.6q-.036.148-.044.303c0 .224-.078.375.024.629l.01.517c0 .039.015.078.04.107q.256.322.507.6q.3.338.039.668c-.147.18-.264.342-.503.395a2.6 2.6 0 0 0-.922.376c-.195.132-.429.18-.653.254c-.156.053-.161.112-.005.175l.497.21c.464.205.913.22 1.405.127c.317-.059.454-.41.62-.644c.16-.244.473-.239.687-.43a4.3 4.3 0 0 1 .6-.428a.15.15 0 0 0 .069-.079c.068-.17.117-.346.282-.448c.396-.244.781-.43 1.142-.556c.341-.117.63-.312.96-.459a.08.08 0 0 1 .098.034a.095.095 0 0 1 0 .113c-.17.277-.312.59-.57.8l-.751.634c-.166.136-.157.41-.186.61c-.024.194-.141.36-.341.507c-.195.136-.39.268-.605.39c-.122.068-.132.146-.02.239q.039.032.098.034a.17.17 0 0 1 .107.039l.298.259a.063.063 0 0 1 0 .097a.1.1 0 0 1-.03.01c-.37.073-.76.146-.897.556a.11.11 0 0 0 .007.09a.11.11 0 0 0 .071.056c.068.02.137.01.195-.024c.273-.147.605-.269.908-.147a1.5 1.5 0 0 0 .555.108c.176 0 .342.063.488.185a.16.16 0 0 0 .113.03a.33.33 0 0 0 .194-.103q.126.16.566.122c.108-.01.186-.068.274-.122l.868-.527q.16-.13.293-.034q.042.03.092.015c.312-.122.356-.342.507-.595a.25.25 0 0 1 .147-.103c.37-.093.61-.424.731-.78a1 1 0 0 1 .195-.342a.8.8 0 0 0 .205-.512a.13.13 0 0 0-.048-.107c-.074-.069-.098-.152-.074-.259c.054-.23.025-.424-.097-.585a.16.16 0 0 1-.034-.098l.01-1.092c.087.322.195.634.317.927q.224.561.282.868q.171.952.035 1.912q-.095-.249-.21.117c-.078.254-.054.458-.195.697c-.108.195-.142.405-.161.62q-.053.474-.083.927c-.01.156-.098.273-.249.356a.15.15 0 0 0-.068.073c-.059.127-.078.234-.186.336c-.195.19-.634.596-.702.859c-.039.146-.161.224-.293.283a.84.84 0 0 0 .176-.37c.044-.21.073-.342.098-.391a3.5 3.5 0 0 1 .224-.449c.288-.478.185-1.02.117-1.541a.136.136 0 0 0-.127-.117a1.4 1.4 0 0 0-.673.097c-.37.166-.683.273-1.024.586c-.244.22-.39.536-.644.712c-.303.2-.717.41-1.24.62a67 67 0 0 1-1.648.619a2.7 2.7 0 0 0-.453.21c-.518.292-.771.853-1.371 1c-.18.043-.356.121-.522.243c-.224.152-.507.195-.77.244c-.293.054-.566.18-.879.249c-.273-.098-.56-.205-.863-.303a4.7 4.7 0 0 1-.839-.375q-.51-.291-.917-.561a6.5 6.5 0 0 1-1.049-.873c-.322-.332-.322-.751-.117-1.142c.151-.429.244-.814.259-1.16q.036-.624.088-1.225q.016-.181.156-.62a2.23 2.23 0 0 0 .048-1.121q-.014-.06.04-.073c.024-.01.048-.005.078 0c.121.136.282.229.458.146c.23-.117.42-.273.566-.478a.17.17 0 0 0 .02-.166c-.162-.366-.371-.717-.123-1.117a1 1 0 0 1-.034.23a.26.26 0 0 0 .03.214l.034.083q.052.257.302.39q.33.19.702.298q.309.096.61-.24q.221.008.756.167q.291.085.503-.137c.097-.039.322-.078.658-.117c.147-.02.44-.117.868-.293a.07.07 0 0 0 .035-.039a.07.07 0 0 0 0-.049v-.029a.05.05 0 0 0-.018-.022l-.026-.007h-.015c-.327.112-.668.17-1.034.18c-.137 0-.263.059-.39.098c-.23.078-.669-.132-.869-.239a.33.33 0 0 1 .152-.317a.2.2 0 0 0 .063-.078q.046-.108.17-.107q.149.034.479-.05c.136-.028.21-.092.214-.18a.12.12 0 0 0-.063-.107a.3.3 0 0 1-.112-.122c-.01-.02 0-.039.024-.049l.03-.005q.021-.006.029.01c.024.059.063.098.117.107q.05.015.107-.029q.168-.131.161-.4a.8.8 0 0 1 .346-.302q.054-.031.04-.083a1.1 1.1 0 0 0-.235-.512c-.126-.147-.331-.2-.487-.327c-.2-.161-.474-.132-.703-.058a.04.04 0 0 0-.03.024v.014c0 .02-.009.035-.033.035a.3.3 0 0 0-.147.058a1.9 1.9 0 0 0-.526-.395c-.342-.21-.78-.185-1.171-.176l.146-.234a.8.8 0 0 1 .18-.205l.352-.282a.7.7 0 0 0 .117-.127c.093-.127.088-.186-.005-.186a.7.7 0 0 0 .37-.224l.367-.341c.029-.03.053-.03.083 0q.108.102.048.204a4 4 0 0 0-.385.742c-.01.039 0 .053.044.049a.45.45 0 0 0 .273-.18c.156-.206.385-.376.683-.523c.03-.014.059-.01.078.01q.03.025.034.063q.016.133.098.025c.146-.2.341-.405.57-.605c.035-.03.059-.024.078.01a.37.37 0 0 1 0 .39a3.5 3.5 0 0 0-.229.536q-.019.051-.068.05h-.064A.06.06 0 0 0 9.186 9v.03l.098.267q.028.066.034.132l.044.283a.107.107 0 0 0 .11.093a.1.1 0 0 0 .05-.015a.1.1 0 0 0 .05-.054l.165-.448a.092.092 0 0 1 .166-.01c.146.249.23.512.254.78a.09.09 0 0 0 .073.083a.44.44 0 0 1 .195.078"/><path fill="#0B0802" d="M12.537 8.83a.4.4 0 0 1-.205.04a.13.13 0 0 0-.098.038c-.112.108-.2.244-.35.313a.84.84 0 0 1-.586.043c-.19-.273-.21-.536-.073-.795a.05.05 0 0 1 .04-.032a.05.05 0 0 1 .047.023a.23.23 0 0 0 .161.087q.102.001.064-.092c-.2-.449-.673.058-.756.244c-.098.224-.02.429.234.604l.02.04q.014.036-.015.073a.2.2 0 0 1-.049.024c-.195-.054-.483-.088-.59-.263a1 1 0 0 1-.132-.317a.1.1 0 0 1 .03-.098l.424-.39l.473-.303c.346-.097.634-.053.854.122c.16.127.326.298.487.517q.03.031.03.054l-.005.063z"/><path fill="#E1B051" d="M6.625 8.04c.015.322.195.707.556.722a4 4 0 0 0-.41.473a.24.24 0 0 1-.273.098q-.368-.087-.268-.488c.034-.146.049-.293.059-.449c0-.097.048-.17.146-.205a.8.8 0 0 0 .19-.146z"/><path fill="#FCF9F5" d="M11.293 9.265c-.034.043-.127.053-.278.039q-.38-.266-.234-.605c.083-.186.556-.693.756-.244c.025.063.005.097-.063.093a.22.22 0 0 1-.161-.088a.05.05 0 0 0-.047-.023a.05.05 0 0 0-.041.032q-.208.387.068.796"/><path fill="#FAF2CD" d="M16.332 11.625a3 3 0 0 0-.644-.048q-.323.007-.644-.015a2.8 2.8 0 0 0-1.268.21q-.783.33-1.448.687a.4.4 0 0 1-.147.05a.34.34 0 0 1-.175-.035c-.293-.127-.561-.146-.815-.068a.14.14 0 0 1-.122-.02a.54.54 0 0 1-.205-.249a.21.21 0 0 0-.205-.126a.45.45 0 0 1-.42-.18c-.102-.25-.024-.4-.024-.625c0-.098.02-.2.05-.303a2.1 2.1 0 0 0 .053-.6q-.001-.103.107-.083c.283.015.57.03.859.035c.273.004.453.058.658-.166a.2.2 0 0 1 .093-.064c.122-.048.244-.082.351-.165c.339-.27.616-.61.815-.995a.14.14 0 0 1 .141-.074q.504.061.97-.034a.08.08 0 0 1 .088.059l.01.039q.024.075.098.068l.249-.015c.039 0 .073 0 .107.02l.322.16q.06.029.127.02a.05.05 0 0 0 .034-.029a.05.05 0 0 0 0-.044l-.137-.195a.05.05 0 0 1 0-.05a.05.05 0 0 1 .043-.024l.362.016c.044 0 .059.024.049.063l-.049.244c0 .024.005.039.03.039c.01 0 .024 0 .029-.015q.078-.108.136-.239a.05.05 0 0 1 .034-.029a.05.05 0 0 1 .04.02a.26.26 0 0 1 .063.195c0 .029.005.048.024.073l.24.244c.024.029.024.058.009.092q-.138.242.083.44q.032.035.024.077a.3.3 0 0 1-.053.122c-.098.137-.015.356.097.444q.035.03.005.069a.77.77 0 0 0-.161.39a.1.1 0 0 0 .049.097l.146.098q.05.03.049.088a.55.55 0 0 1-.127.331"/><path fill="#5B4F40" d="M12.537 8.83a.2.2 0 0 1-.059.137c-.195.21-.42.463-.692.551c-.322.098-.532-.024-.815-.078a.2.2 0 0 0 .049-.024q.03-.038.014-.074l-.019-.039c.151.02.244 0 .278-.039q.308.088.585-.043c.156-.069.244-.205.361-.313a.13.13 0 0 1 .098-.039a.4.4 0 0 0 .205-.044zm-6.063.947c.39-.01.829-.035 1.17.175a.5.5 0 0 0-.121.078c-.054.147-.161.195-.308.147a2.44 2.44 0 0 0-1.087-.083q-.066.013-.161-.054a.2.2 0 0 1 .082-.107z"/><path fill="#0B0802" d="M7.645 9.952a1.9 1.9 0 0 1 .526.39l.04.088c-.05.234-.21.649-.44.761a.2.2 0 0 0-.097.098a.2.2 0 0 1-.083.097a6 6 0 0 0-.488.312c-.156.117-.39.166-.566.064a1.76 1.76 0 0 1-.639-.644l.005-.024c-.01-.064 0-.108.015-.132q.035-.044.093-.015q.086.05.165.02q.22-.077-.01-.122a.8.8 0 0 1-.321-.171a.8.8 0 0 1-.025-.39a.5.5 0 0 1 .147-.244q.095.067.16.054a2.44 2.44 0 0 1 1.088.087c.147.05.254-.004.308-.146q.014-.031.122-.083"/><path fill="#EFE2AD" d="M9.42 11.498c.014-.043-.015-.083-.098-.121q-.053-.031-.034-.084q.044-.16-.088-.282a4 4 0 0 1-.4-.44a.54.54 0 0 0-.39-.194q-.073-.014-.058.082c-.03.01-.074 0-.142-.029l-.039-.088a.3.3 0 0 1 .146-.048c.025 0 .04-.02.035-.04v-.014a.04.04 0 0 1 .029-.024c.23-.074.502-.098.702.058c.156.127.361.176.488.327c.117.146.195.312.234.512c.01.04 0 .063-.039.083c-.16.083-.278.18-.341.302z"/><path fill="#FCF9F5" d="M5.82 10.284a.8.8 0 0 0 .025.39l.058.42l-.005.024c-.326.254-.4.527-.214.81l-.02.107c0 .034-.024.049-.053.034a.18.18 0 0 1-.103-.083a2.3 2.3 0 0 1-.224-.848c-.01-.269.063-.669.288-.85c.17-.136.258-.14.248 0zm3.6 1.215q.007.269-.16.4q-.059.044-.108.029a.17.17 0 0 1-.117-.107c-.005-.015-.015-.015-.03-.01l-.029.005c-.029.01-.034.029-.024.048a.3.3 0 0 0 .112.122a.12.12 0 0 1 .063.108c0 .088-.078.146-.214.185c-.22.049-.38.068-.478.049a.41.41 0 0 1-.268-.215a.14.14 0 0 1-.02-.097q.035-.183.02-.352c-.015-.141.058-.258.146-.356a.14.14 0 0 0 .039-.097v-.751c-.01-.064.015-.098.063-.088c.152.02.293.078.39.2c.118.156.254.302.396.439q.131.123.087.283c-.01.039 0 .063.035.083c.083.039.112.078.097.122"/><path fill="#968C78" d="M8.21 10.43c.068.03.112.04.141.03v.755a.13.13 0 0 1-.039.093c-.087.098-.16.215-.146.356c.01.113 0 .23-.02.347a.16.16 0 0 0 .015.097q.104.184.273.215q-.125-.001-.17.107a.2.2 0 0 1-.064.078a.33.33 0 0 0-.15.317q-.516-.193-1.03-.39a1.24 1.24 0 0 0-.907 0c-.074.16-.064.302.039.424c.073.088.175.18.297.21c.166.04.468.088.586.21a.11.11 0 0 0 .087.039l.459-.005c-.195.224-.405.302-.61.239a3.7 3.7 0 0 1-.702-.293a.58.58 0 0 1-.303-.395a.3.3 0 0 0-.034-.083a.26.26 0 0 1-.03-.214a1 1 0 0 0 .035-.23l-.254-.41c-.185-.282-.112-.555.215-.81q.254.425.634.645c.18.097.415.049.576-.064q.24-.174.483-.312a.2.2 0 0 0 .087-.097a.17.17 0 0 1 .098-.098c.224-.112.39-.527.439-.76zm-2.366.244a.8.8 0 0 0 .322.17c.147.03.151.074.01.123a.19.19 0 0 1-.166-.02q-.057-.03-.092.015q-.03.036-.015.132z"/><path fill="#5B4F40" d="M7.273 11.172c.137.058.259.078.274.048c.014-.039-.088-.107-.225-.165c-.136-.054-.258-.073-.273-.04c-.01.035.088.103.224.162z"/><path fill="#968C78" d="M8.835 11.328q0 .043-.044.063c-.024.015-.044.005-.049-.024c0-.02 0-.04.01-.059q.074-.144.083.02"/><path fill="#E7CF90" d="M16.332 11.625q-.35.315-.283.835c0 .019 0 .039-.01.058l-.176.293c-.02.039-.048.049-.082.014l-.04-.039a.1.1 0 0 0-.048-.02c-.01 0-.03 0-.044.01q-.08.037-.073.132c.02.176.048.351.083.537a.26.26 0 0 1-.074.23c-.195.194-.624.57-.634.867c0 .117-.034.21-.092.278a.76.76 0 0 1-.303.195v.005l.005.04c.015.038.04.058.083.048a1.1 1.1 0 0 0 .585-.327a.03.03 0 0 1 .022-.008q.013 0 .022.008a.035.035 0 0 1 .01.044l-.268.454a.12.12 0 0 0-.02.078a.8.8 0 0 1-.014.307a.1.1 0 0 0 0 .03q.003.015.012.026a.07.07 0 0 0 .051.027l.034-.005a.8.8 0 0 1 .205-.058q.03-.001.054.02q.021.02.029.048a.54.54 0 0 1-.176.488q-.244.231-.448.497a.3.3 0 0 1-.196.098a.13.13 0 0 1-.102-.025a.77.77 0 0 0-.488-.185c-.195 0-.375-.034-.56-.107c-.303-.122-.635 0-.903.146a.26.26 0 0 1-.195.024a.12.12 0 0 1-.083-.146c.136-.41.527-.488.897-.556a.063.063 0 0 0 .046-.079a.1.1 0 0 0-.016-.028l-.293-.259a.16.16 0 0 0-.112-.039a.16.16 0 0 1-.098-.034c-.112-.093-.097-.17.02-.244q.32-.175.605-.385c.2-.146.317-.312.341-.507c.03-.2.02-.473.185-.615l.752-.63c.258-.209.4-.521.57-.8a.1.1 0 0 0 0-.111a.08.08 0 0 0-.097-.035c-.332.147-.62.342-.961.459a5.8 5.8 0 0 0-1.142.556c-.165.098-.214.278-.283.449a.15.15 0 0 1-.068.078a4 4 0 0 0-.6.43c-.214.194-.527.19-.687.428c-.166.235-.303.586-.62.644c-.47.106-.961.062-1.405-.127l-.497-.21c-.156-.063-.151-.121 0-.175c.229-.073.458-.122.658-.254c.281-.181.594-.309.922-.375c.24-.049.361-.22.502-.395c.176-.22.162-.44-.038-.668a11 11 0 0 1-.508-.6a.17.17 0 0 1-.039-.108l-.01-.517a.43.43 0 0 0 .42.176a.205.205 0 0 1 .205.127a.6.6 0 0 0 .205.248a.14.14 0 0 0 .121.02c.271-.08.562-.055.815.068a.34.34 0 0 0 .176.03a.4.4 0 0 0 .146-.044q.667-.361 1.444-.683c.4-.17.834-.243 1.268-.215q.325.02.649.01c.22 0 .434.01.644.049z"/><path fill="#968C78" d="m8.634 12.01l-.024-.034c-.02-.034-.01-.049.03-.058c.024-.005.048 0 .063.014l.013.015l.006.02q.001.043-.034.058a.04.04 0 0 1-.034 0z"/><path fill="#5B4F40" d="M7.6 12.206a.05.05 0 0 1-.028-.02a.05.05 0 0 1-.01-.029c0-.044.01-.078.049-.097q.05-.031.078.019q.02.036.024.073q-.001.074-.068.059z"/><path fill="#0B0802" d="M8.05 12.83c.2.103.638.312.868.234c.127-.039.253-.097.39-.097a3.4 3.4 0 0 0 1.049-.18a.04.04 0 0 1 .039.028l.01.025v.049a.07.07 0 0 1-.04.039q-.643.27-.868.292c-.341.05-.556.083-.658.122a7 7 0 0 0-.473-.214a2.6 2.6 0 0 0-.493-.147a9.2 9.2 0 0 1-1.761-.546c.292-.114.616-.114.907 0q.512.197 1.025.39z"/><path fill="#5B4F40" d="M6.112 12.435q.864.368 1.756.551c.195.039.361.083.498.146q.248.102.473.21c-.146.146-.312.195-.503.137a3.6 3.6 0 0 0-.756-.166l-.458.005a.12.12 0 0 1-.088-.04c-.117-.121-.42-.17-.585-.21a.6.6 0 0 1-.298-.209q-.147-.183-.039-.424"/><path fill="#B87C29" d="m16.454 16.21l-.869.527h-.078a.06.06 0 0 1-.052-.035a.06.06 0 0 1 .003-.063l.415-.604a.5.5 0 0 0 .083-.259q-.001-.067-.068-.068c-.312-.01-.278-.264-.303-.488q-.016-.152.093-.239c.439-.346.805-.76 1.112-1.239c.24-.376.634-.566.927-.883a.05.05 0 0 1 .049-.015q.01.006.017.017a.04.04 0 0 1 .007.023a1.1 1.1 0 0 1-.244.741c-.19.23-.283.488-.449.722a.14.14 0 0 0-.024.112c.068.293.02.527-.146.712a1.2 1.2 0 0 0-.22.322a4 4 0 0 0-.253.717"/><path fill="#E1B051" d="M5.825 15.074c-.088.024-.083.097.01.234c.044.049.092.107.146.151c.454.38.693.77 1.302 1.005c.04.02.074.049.088.088c.049.097.083.19.112.283c.078.219.22.419.44.595a.12.12 0 0 0 .097.024a.12.12 0 0 0 .083-.063a.1.1 0 0 1 .03-.04a.06.06 0 0 1 .043-.014q.024 0 .039.015c.283.253.39.878.483 1.268a.093.093 0 0 0 .112.063q.024-.002.04-.024c.258-.268.424-.585.487-.961q.01-.058.068-.049h.034q.008 0 .015.004a.02.02 0 0 1 .01.01v.01l-.015.162c0 .043.015.058.059.053q.042 0 .063-.044l.23-.502a.67.67 0 0 1 .306-.298c.293-.146.605-.283.859-.483q.33-.26.707-.443a.05.05 0 0 0-.01-.064q-.015-.006-.058.01a4 4 0 0 0 .444-.215c.244-.146.327-.083.258.19a2.7 2.7 0 0 1-.195.508a.6.6 0 0 1-.263.278c-.342.195-.566.507-.917.673a1.55 1.55 0 0 0-.825.912c-.116.37-.34.683-.55 1a2.15 2.15 0 0 1-.976.756q-.176.046-.322.142a.08.08 0 0 1-.098-.01a1.4 1.4 0 0 1-.112-.405a4.7 4.7 0 0 0-.39-1.41a1.4 1.4 0 0 0-.302-.439q-.735-.712-1.44-1.453c-.21-.22-.312-.473-.443-.732a2.06 2.06 0 0 1-.161-1.098a.1.1 0 0 1 .034-.024a.05.05 0 0 1 .039-.005q.024 0 .039.015z"/><path fill="#B87C29" d="m5.825 15.074l.449.331q.162.117.302.264c.313.317.878.458 1.332.57q.38.097 1 .083a20 20 0 0 0 2.756-.268l.013.018a.05.05 0 0 1-.018.06a3.8 3.8 0 0 0-.693.43c-.253.2-.566.336-.858.482a.7.7 0 0 0-.308.293c-.073.176-.15.341-.229.507a.07.07 0 0 1-.063.049c-.044 0-.059-.015-.059-.059l.015-.16q0-.006-.002-.01l-.005-.008l-.008-.005l-.01-.002h-.034q-.06-.008-.068.049a1.8 1.8 0 0 1-.488.96a.09.09 0 0 1-.087.025a.09.09 0 0 1-.064-.063c-.097-.39-.195-1.015-.483-1.268a.06.06 0 0 0-.039-.015c-.02 0-.034 0-.044.015a.1.1 0 0 0-.029.039a.118.118 0 0 1-.18.039a1.3 1.3 0 0 1-.44-.595a2 2 0 0 0-.112-.283a.16.16 0 0 0-.087-.088c-.61-.234-.85-.624-1.303-1.005a1.4 1.4 0 0 1-.146-.151c-.098-.132-.098-.21-.01-.234"/><path fill="#C89539" d="M19.014 15.425q.046.322.113.639c.068.302.048.57.063.878c.01.317.117.683.127 1.039c0 .239 0 .473-.015.707c-.014.439-.868 1.122-1.317 1.502c-.38.327-.741.473-1.073.44q-.278-.184-.775 0q-.146.051-.035-.06c.142-.146.244-.33.317-.55a.2.2 0 0 1 .064-.098c.117-.098.244-.17.39-.23c.127-.058.249-.136.288-.282c.068-.264.507-.668.702-.859c.108-.102.127-.21.186-.341a.15.15 0 0 1 .068-.068c.156-.083.244-.2.249-.356q.033-.465.083-.927c.02-.215.053-.43.165-.62c.137-.239.113-.444.195-.697c.074-.244.147-.283.205-.117"/><path fill="#E7CF90" d="M16.868 19.693a1.5 1.5 0 0 0-.385.23a.2.2 0 0 0-.064.097c-.062.205-.17.394-.317.551c-.073.073-.058.098.04.059q.49-.183.77 0a.4.4 0 0 1-.102.297a.53.53 0 0 1-.254.156a7.5 7.5 0 0 0-1.176.488c-.268.137-.55.156-.839.23c-.087.024-.19 0-.263.068a.13.13 0 0 1-.102.034a2.1 2.1 0 0 0-.63.02q-.284.058-.56.058c-1.259.014-2.581.058-3.85-.069a1.1 1.1 0 0 1-.487-.17l-.522-.337c.317-.068.595-.195.878-.249c.269-.048.551-.092.776-.243c.166-.122.341-.2.522-.244c.6-.147.853-.713 1.365-1c.147-.083.303-.156.459-.21a52 52 0 0 0 1.649-.62c.521-.21.936-.42 1.239-.619c.248-.17.404-.488.643-.717c.342-.307.654-.415 1.025-.58c.195-.083.414-.117.673-.098a.14.14 0 0 1 .127.117c.068.522.17 1.063-.117 1.541a4 4 0 0 0-.23.45a4 4 0 0 0-.092.39a.8.8 0 0 1-.176.37"/><path fill="#fff" d="M5.659 4.44v4.03h1.917v7.55H5.659v4.03h7.721a6.8 6.8 0 0 0 3.185-.966c1.737-1.05 3.24-3.103 3.24-6.586c0-3.658-1.435-5.838-3.171-6.99a6.54 6.54 0 0 0-3.249-1.068zm7.658 11.58h-1.42V8.47h1.464c.058.01.16.019.292.048c.264.059.605.176.937.39c.537.361 1.385 1.2 1.385 3.59c0 2.049-.78 2.77-1.322 3.103a3.05 3.05 0 0 1-1.336.42"/></g></svg>