<svg xmlns="http://www.w3.org/2000/svg" xmlns:xlink="http://www.w3.org/1999/xlink" width="24" height="24" viewBox="0 0 24 24"><g fill="none"><path fill="url(#tokenBrandedDogechain0)" d="M12 2.188C6.581 2.188 2.188 6.58 2.188 12S6.581 21.81 12 21.81c5.42 0 9.812-4.392 9.812-9.811c0-5.42-4.393-9.812-9.812-9.812"/><path fill="#000" fill-rule="evenodd" d="M12 21.624a9.624 9.624 0 1 0 0-19.248a9.624 9.624 0 0 0 0 19.248M22 12c0 5.523-4.477 10-10 10S2 17.523 2 12S6.477 2 12 2s10 4.477 10 10" clip-rule="evenodd"/><path fill="#000" d="m4.337 11.359l-.504.503l-.503-.503l.503-.504zm16.323-.116l-.504.503l-.503-.503l.503-.503zM3.03 13.042l1.99-.496l.354 1.421l-.284.071l.07.284l-.283.071l.07.285l-.852.212l-.071-.284l-.284.07l-.071-.283l-.284.07zm.426.498l.142.568l.284-.07l.071.284l.853-.213l-.071-.284l.284-.071l-.142-.569zm.533 2.588l.245-.159l-.16-.246l1.23-.798l.159.246l.246-.16l.797 1.23l-.245.159l.16.245l-1.23.798l-.159-.245l-.245.159zm.405.087l.479.737l1.228-.798l-.479-.737zm1.577 2.428l.185-.227l-.228-.185l.184-.227l-.227-.185l.553-.683l.228.185l.184-.228l.228.184l.184-.227l1.138.921l-.184.228l-.91-.737l-.185.227l-.228-.184l-.553.683l.228.184l-.185.228l.456.369l.368-.456l-.227-.184l.184-.228l.683.553l-.737.911zm2.193 1.459l.702-1.927l1.927.7l-.1.276l-1.377-.5l-.2.55l1.1.4l-.1.276l-1.1-.401l-.201.55l1.376.502l-.1.275zm3.334.841v-.293h-.293v-.292h-.293v-.88h.293v-.292h.293v-.293h1.172v.293h.293v.293h-.586v-.293h-.586v.293h-.293v.879h.293v.293h.586v-.293h.586v.293h-.293v.292zm2.572-.207l-.71-1.923l.549-.203l.305.824l.824-.305l-.305-.824l.55-.203l.711 1.923l-.55.203l-.304-.824l-.825.305l.305.824zm2.829-1.223l-.922-1.138l.228-.184l-.184-.228l.227-.184l-.184-.228l.683-.553l.184.227l.228-.184l.184.228l.228-.185l.922 1.139l-.456.368l-.368-.455l-.683.553l.368.456zm-.098-1.052l.683-.552l-.368-.456l-.228.184l-.185-.227l-.227.184l.184.228l-.227.184zm2.281-.967l-.246-.16l.32-.491l-1.23-.798l-.318.491l-.246-.16l.957-1.473l.246.16l-.32.49l1.23.798l.318-.49l.246.159zm1.353-2.444l-1.99-.495l.142-.569l.285.071l.07-.284l.285.07l.07-.284l.285.071l.07-.284l-.852-.213l.142-.568l1.99.496l-.142.569l-.569-.142l-.07.284l-.285-.07l-.07.284l-.285-.071l-.071.284l1.137.283z"/><path fill="url(#tokenBrandedDogechain1)" stroke="#000" d="m13.161 5.814l-.144.156a7 7 0 0 0-1.393-.143q-.496 0-.972.08c-.476-.141-.851-.277-1.307-.756l-.115-.122c-.234-.25-.54-.576-.852-.792c-.185-.128-.394-.234-.612-.254a.76.76 0 0 0-.64.253c-.328.35-.618 1.042-.788 1.93c-.168.885-.223 1.993-.06 3.218a5.8 5.8 0 0 0-.448 2.237c0 1.183.355 2.285.965 3.202a5.795 5.795 0 0 0 10.866-1.03c.353-.638.55-1.349.55-2.099c0-1.526-.816-2.884-2.088-3.807c-.367-.705-.383-1.199-.401-1.737l-.013-.308c-.005-.107-.008-.2-.01-.291l-.008-.2a2 2 0 0 0-.052-.423a.63.63 0 0 0-.218-.353a.7.7 0 0 0-.441-.127a.8.8 0 0 0-.32.086a2 2 0 0 0-.316.193c-.212.153-.44.353-.647.548c-.207.197-.397.393-.536.54Z"/><path fill="#fff" fill-rule="evenodd" d="M6.247 13.153c.16.565.408 1.093.726 1.57a5.592 5.592 0 0 0 10.498-1.005a4.1 4.1 0 0 0 .538-2.024a4.1 4.1 0 0 0-.54-2.027c-.214-.072-.399-.072-.545.009c-.225.125-.333.43-.334.868c0 .276-.285.495-.55.415c-.771-.233-1.519-.203-2.145.145a2.3 2.3 0 0 0-.433.313c-.599.548-1.957.903-2.588.39c-1.22-.99-2.527-1.355-3.477-.827c-.69.384-1.074 1.175-1.15 2.173" clip-rule="evenodd"/><path fill="#F7ECDF" fill-rule="evenodd" d="M11.673 16.699c-1.77.163-3.545-1.12-4.786-2.174a5.593 5.593 0 0 0 10.581-.79l-.116.262a.462.462 0 0 1-.687.192a1.4 1.4 0 0 1-.225.54a1.98 1.98 0 0 1-1.571.774c-.331 0-.642-.076-.91-.21c.064.212-.515 1.243-2.286 1.406" clip-rule="evenodd"/><path fill="#000" d="M7.613 7.986c-.32-1.047-.238-2.33 0-3.07a4.9 4.9 0 0 0 1.426 2.216c-.42.092-1.022.446-1.426.854m6.549 3.704c.316-.675 2.176-.796 2.47 0c.162.442-.495 1.45-.933 1.514c-.629.093-1.887-.769-1.537-1.514"/><path fill="#fff" d="M12.286 8.451c-.253.196-1.193.213-1.287-.074c-.094-.288.512-.906.954-.71c.368.163.66.53.333.784m2.94-.38c-.176.263-.647.234-.834 0c-.187-.233-.158-.677.33-.64c.408.03.622.464.504.64" opacity=".5"/><path fill="#000" d="M13.86 15.477c-.105-.094.027-.214.155-.155c.254.116.544.181.852.181c.791 0 1.465-.434 1.715-1.04c.023-.054.104-.049.104.01c0 .792-.738 1.434-1.648 1.434c-.461 0-.878-.165-1.178-.43"/><path fill="#000" fill-rule="evenodd" d="M18.817 8.08L7.25 9.45l.065.555l1.758-.208l.066.555l.555-.066l.066.556l.555-.066l.066.555l1.85-.219l-.065-.555l.555-.066l-.066-.555l.556-.066l-.066-.555l5.738-.678zm-4.562 1.103l4.072-.482l.066.555l-4.072.482zm3.583.14l-2.962.35l.066.555l.556-.066l.065.555l1.85-.219l-.065-.555l.555-.066z" clip-rule="evenodd"/><path fill="#fff" d="m17.216 8.832l.555-.065l.066.555l-.555.066z"/><path fill="#fff" d="m16.728 9.453l.555-.066l.066.555l-.555.066zm-4.694-.008l.555-.066l.066.555L12.1 10zm-.489.621L12.1 10l.066.555l-.555.066z"/><path stroke="#000" stroke-linecap="round" d="M17.098 12.087c.459.605-.044 1.701-.915 1.685a.7.7 0 0 0-.514.205c-.688.731-2.138.823-2.587-.188a.48.48 0 0 0-.217-.242l-.356-.178"/><path fill="#000" d="M14.7 14.599c1.121.45 1.781-.417 1.724-.742l-.779.09z"/><defs><linearGradient id="tokenBrandedDogechain0" x1="12" x2="12" y1="22" y2="2" gradientUnits="userSpaceOnUse"><stop stop-color="#7774F4"/><stop offset=".715" stop-color="#9157F9"/><stop offset="1" stop-color="#B133FF"/></linearGradient><linearGradient id="tokenBrandedDogechain1" x1="12.021" x2="12.021" y1="4.183" y2="17.957" gradientUnits="userSpaceOnUse"><stop stop-color="#FBF476"/><stop offset=".45" stop-color="#FFA725"/><stop offset="1" stop-color="#FFA725"/></linearGradient></defs></g></svg>