<svg xmlns="http://www.w3.org/2000/svg" xmlns:xlink="http://www.w3.org/1999/xlink" width="24" height="24" viewBox="0 0 24 24"><g fill="none"><path fill="#FF7E36" d="m19.517 11.708l-5.206 2.041c-.511.077-.806-.188-1.17-.47l-6.253-4.93a.777.777 0 0 1 .353-1.412L12.9 5.59a.8.8 0 0 1 .54.124l2.295 1.54a5 5 0 0 0-.941-.193c-2.453-.194-4.648.635-4.736 1.847C9.964 10.12 12 11.226 14.43 11.42c2.435.194 3.147-.53 3.241-1.724c0-.047-.935-1.97-.935-2.023l2.959 2.235c.53.353.43 1.582-.177 1.8"/><path fill="#050000" d="M9.576 2.014c.365-.136 1.447.776 2.106 1.223a5.2 5.2 0 0 1 2.347-.306a3.7 3.7 0 0 1 1.141.36c.347-.236 2.2-1.666 2.324-1.177c.076.364.088.735.023 1.1q-.163 1.005-.435 1.988c-.082.33-.3.647-.27.941q.05.67.217 1.324c.112.4.17.823.436 1.1c1.453 1.123 2.735 2.741 3 3.547a.68.68 0 0 1-.165.788a1.03 1.03 0 0 1-1.283-.023a7 7 0 0 1-.87-.848a9 9 0 0 0-.653-.605a.4.4 0 0 0-.235-.118a2.2 2.2 0 0 0-.547.118c-.53.135-1.071.235-1.612.294c.206.259.659.611.94.923c.207.2.342.47.377.765c0 .277-.311.67-1.147.559a6.7 6.7 0 0 1-1.17-.47c-3.394-2.007-3.541-3.942-3.93-7.213c-.13-.9-.541-2.023-.706-3.012c-.059-.411-.235-1.105.118-1.247"/><path fill="#F0F3FA" d="M16.012 5.567c-.177.017-.312.33-.507.47c-.294.212-.723.13-.705-.035c.023-.165.117-.176.37-.218c.253-.035.706-.235.56-.958c-.119-.63-.83-.489-.83-.489a.55.55 0 0 0-.441-.259c-.312-.023-.571.377-.571.377a.2.2 0 0 1-.294-.13a.47.47 0 0 0-.588-.217a.65.65 0 0 0-.442.682a.55.55 0 0 0 .577.388c.212-.011.347.1.323.2c-.029.153-.453.271-.853.036a.82.82 0 0 1-.329-.583l.018-.188s-.648 0-.8.547s.235.818.447.794c.147-.011.035-.217.217-.388a.194.194 0 0 1 .265 0a.17.17 0 0 1-.03.235a.1.1 0 0 1-.035.018c-.106.059-.182.335.118.506c.13.076-.07.47-.312.17c-.135-.176-.123-.258-.276-.235a.57.57 0 0 1-.353-.153c-.036-.017-.212.07-.142.27c.071.207.06.472.742.5c.141 0 .188.03.217.142c.03.118.365.63.871.353a.412.412 0 0 0-.03-.776a.206.206 0 0 1-.117-.318c.059-.059.118-.035.265.023c.43.177.63.706.353.942c-.118.094.117.247.312.276c.194.03.94-.047 1.023-.47q.036-.196.018-.4c0-.195.294-.218.294-.089c.011.13 0 .153.059.206c.164.147.606-.041.729-.33c.13-.293.1-.929-.118-.9zm-1.942.823c-.076 0-.176-.117-.123-.176a.7.7 0 0 0 .14-.47c-.017-.171-.117-.236-.117-.33a.164.164 0 0 1 .135-.16c.165-.058.295.324.277.648c-.006.253-.135.482-.312.482zm.177-1.906c.059-.159.153-.14.194-.135c.035 0 .147.041.141.141c0 0-.059.312.059.412a.62.62 0 0 0 .47.082a.15.15 0 0 1 .107.13a.15.15 0 0 1-.065.135a.68.68 0 0 1-.736-.088a.7.7 0 0 1-.176-.677z"/><path fill="#DE6F28" fill-rule="evenodd" d="M14.47 3.96a.67.67 0 0 1 .483.254a1.3 1.3 0 0 1 .341.017a.7.7 0 0 1 .335.165c.1.094.177.23.218.412c.076.382 0 .653-.159.835a.84.84 0 0 1-.5.259h-.006l-.147.023a.4.4 0 0 0-.082.024l-.024.018l-.011.04h.011q.028.027.118.036a.54.54 0 0 0 .388-.1c.07-.053.13-.123.2-.212l.041-.047c.041-.053.088-.106.136-.147A.35.35 0 0 1 16 5.45c.123-.012.206.07.247.153a1 1 0 0 1 .076.282c.018.206-.006.46-.082.624a.81.81 0 0 1-.665.459a.35.35 0 0 1-.247-.083a.25.25 0 0 1-.082-.14l-.012-.119h-.012a.1.1 0 0 0-.04.018l-.01.014l-.002.015c.011.142 0 .289-.018.424v.006c-.06.282-.33.423-.553.494c-.236.07-.489.082-.606.07a.7.7 0 0 1-.33-.14a.3.3 0 0 1-.105-.142a.18.18 0 0 1 .058-.2c.094-.076.118-.212.06-.364a.67.67 0 0 0-.371-.377a2 2 0 0 0-.136-.053l-.006.024a.09.09 0 0 0 .06.094h.011a.52.52 0 0 1 .335.323a.53.53 0 0 1-.294.677a.7.7 0 0 1-.406.088a.7.7 0 0 1-.323-.13a1 1 0 0 1-.206-.205a.6.6 0 0 1-.112-.224c0-.006-.023-.017-.088-.017c-.353-.012-.565-.089-.682-.218a.5.5 0 0 1-.118-.194l-.03-.088v-.006l-.023-.065a.34.34 0 0 1 .059-.335a.3.3 0 0 1 .1-.077a.2.2 0 0 1 .059-.017c.017 0 .058 0 .1.023l.005.006c.083.07.177.118.283.123l.117.006q.072.02.118.077a1 1 0 0 1 .059.088l.076.112c.048.059.077.059.083.059s.018 0 .03-.012a.1.1 0 0 0 .029-.059c-.171-.1-.247-.235-.253-.376c0-.13.058-.26.159-.318h.011v-.012a.05.05 0 0 0 .018-.059a.076.076 0 0 0-.1 0c-.059.06-.07.118-.082.189v.011a.4.4 0 0 1-.042.118a.2.2 0 0 1-.158.106c-.306.03-.742-.324-.571-.941a.82.82 0 0 1 .53-.56c.118-.042.244-.066.37-.07h.135l-.023.3a.7.7 0 0 0 .276.483a.77.77 0 0 0 .488.111a.4.4 0 0 0 .154-.047a.1.1 0 0 0 .029-.023l-.024-.024a.3.3 0 0 0-.17-.035a.665.665 0 0 1-.7-.47v-.024a.765.765 0 0 1 .517-.8a.59.59 0 0 1 .724.27l.006.012v.024l.011.023a.08.08 0 0 0 .1.036q.074-.105.165-.195c.112-.1.283-.223.488-.211zm-.482.56l-.012.023l-.023.012a.317.317 0 0 1-.47-.188a.35.35 0 0 0-.43-.148h-.006a.53.53 0 0 0-.365.548a.43.43 0 0 0 .447.294h.006a.63.63 0 0 1 .324.076c.076.059.147.147.117.265a.3.3 0 0 1-.14.176a.6.6 0 0 1-.242.077a1.06 1.06 0 0 1-.647-.141l-.006-.006a.94.94 0 0 1-.377-.665v-.012l.006-.059c-.053.012-.111.024-.176.053a.59.59 0 0 0-.383.4c-.129.46.177.647.312.647v-.047h.006a.52.52 0 0 1 .153-.317a.31.31 0 0 1 .424 0l.011.011a.29.29 0 0 1 .003.355a.3.3 0 0 1-.097.08h-.006l-.017.03a.2.2 0 0 0-.012.07c0 .054.03.13.147.2c.094.048.112.142.106.213a.34.34 0 0 1-.088.194a.27.27 0 0 1-.224.088c-.094 0-.176-.059-.247-.153a2 2 0 0 1-.088-.124v-.005l-.047-.06h-.06a.75.75 0 0 1-.37-.135a.1.1 0 0 0-.011.03v.07l.029.077v.006l.024.076a.3.3 0 0 0 .064.112c.059.059.189.135.518.147c.076 0 .153 0 .212.047a.3.3 0 0 1 .117.183v.005l.018.024l.041.07a.8.8 0 0 0 .153.16a.5.5 0 0 0 .218.082c.076.011.165 0 .27-.06l.006-.005h.012a.293.293 0 0 0 .165-.382a.28.28 0 0 0-.177-.177a.318.318 0 0 1-.182-.5L13 6.225a.24.24 0 0 1 .094-.058a.24.24 0 0 1 .106-.006c.059.006.118.035.188.059c.253.105.43.305.506.517c.076.2.07.435-.094.6h.006a.5.5 0 0 0 .223.094c.077.012.294 0 .5-.059c.212-.064.359-.176.394-.317c.018-.118.024-.247.018-.37v-.007c0-.17.13-.258.235-.282a.3.3 0 0 1 .177.018a.2.2 0 0 1 .117.17v.117l.018.013a.2.2 0 0 0 .082.017a.58.58 0 0 0 .46-.311c.052-.124.076-.336.058-.512a.6.6 0 0 0-.047-.2a.1.1 0 0 0-.018-.024a.14.14 0 0 0-.059.035a.6.6 0 0 0-.105.118l-.036.035c-.07.089-.153.189-.253.26a.82.82 0 0 1-.547.146a.5.5 0 0 1-.223-.07c-.065-.047-.124-.118-.118-.224a.4.4 0 0 1 .053-.141a.3.3 0 0 1 .118-.1q.146-.042.294-.07h.006a.6.6 0 0 0 .359-.189c.1-.106.176-.294.105-.635a.48.48 0 0 0-.37-.394a.9.9 0 0 0-.3-.006h-.024l-.082.018l-.041-.065a.44.44 0 0 0-.353-.206c-.1-.006-.212.059-.306.147a1 1 0 0 0-.153.176m.141-.065a.82.82 0 0 0 .177.753v-.006a.23.23 0 0 0-.23-.059a.28.28 0 0 0-.223.27v.006c0 .048.017.083.03.112l.029.06l.011.017a.4.4 0 0 1 .047.14a.53.53 0 0 1-.117.39a.18.18 0 0 0-.041.146a.25.25 0 0 0 .058.112a.25.25 0 0 0 .2.106c.142 0 .253-.094.318-.2a.8.8 0 0 0 .112-.4a1.3 1.3 0 0 0-.082-.512a.36.36 0 0 0-.089-.153h.006l.006.006v.006a.8.8 0 0 0 .859.106h.012v-.006a.26.26 0 0 0 .094-.346a.27.27 0 0 0-.16-.13l-.029-.012l-.029.006a.5.5 0 0 1-.37-.06l-.018-.04a.4.4 0 0 1-.012-.106q0-.075.012-.147v-.018a.24.24 0 0 0-.1-.206a.3.3 0 0 0-.16-.059c-.017 0-.075-.006-.134.018c-.077.03-.13.094-.17.194v.012zm.23.064a.59.59 0 0 0 .14.553a.56.56 0 0 0 .59.077l.01-.012V5.12l-.005-.011a.74.74 0 0 1-.512-.112h-.006l-.006-.006a.3.3 0 0 1-.1-.165l-.017-.164q-.001-.09.011-.177v-.006a.1.1 0 0 0-.035-.011h-.035l-.012.005a.2.2 0 0 0-.023.047m-.289 1.753q.055.002.118-.094a.53.53 0 0 0 .077-.282a1.1 1.1 0 0 0-.06-.412a.3.3 0 0 0-.07-.117h-.006a.05.05 0 0 0-.041.047l.006.017l.023.041l.012.024a.6.6 0 0 1 .07.235a.77.77 0 0 1-.14.53z" clip-rule="evenodd"/><path fill="#FF7E36" fill-rule="evenodd" d="m12.806 13.767l-6.26-4.9a.84.84 0 0 0-1.323.406l-1.706 6.206a.85.85 0 0 0 .283.94l5.823 4.901a.842.842 0 0 0 1.324-.406l2.141-6.212a.85.85 0 0 0-.282-.941zM9.612 16.06a2.85 2.85 0 0 0-.653-2.647a4 4 0 0 0-.612-.518l-.6-.435l-.63.235l-.811 3.306l1.064.736q.3.212.636.364a1.01 1.01 0 0 0 1.182-.218a1.73 1.73 0 0 0 .424-.823m-.794-.582c-.042.211-.13.412-.26.588a.54.54 0 0 1-.411.2a.8.8 0 0 1-.282-.059a3 3 0 0 1-.412-.253l-.194-.135l.588-2.441l.2.14q.195.132.37.289c.252.255.411.586.453.941c.024.247.006.494-.058.73z" clip-rule="evenodd"/><path fill="#FF7E36" d="m14.135 14.532l5.783-2.271a.4.4 0 0 1 .27-.006a.42.42 0 0 1 .283.53l-2.077 6.153a1.6 1.6 0 0 1-.865.911L12 21.98a.43.43 0 0 1-.54-.541l2.211-6.442a.9.9 0 0 1 .471-.47zm3.724 1.076l.235-.788l-1.853.67l-.623.706l-1.089 3.548l.836-.306l.529-1.736l1.388-.512l.236-.788l-1.389.506l.236-.753z"/></g></svg>