<svg xmlns="http://www.w3.org/2000/svg" xmlns:xlink="http://www.w3.org/1999/xlink" width="24" height="24" viewBox="0 0 24 24"><g fill="none"><path fill="#29344A" d="M2.835 15.312c-.017-.176.212-.435.33-.547l-.07-.93a1.8 1.8 0 0 1-.707-.57l.089-1.894l.27-1.047c-.094.147-.335.435-.541.435s-.218-.294-.2-.435v-.865c0-4.9 3.676-6.647 5.518-6.912c.211-.323.747-.364.988-.34c.294-.107 1.017-.407 1.494 0c.388.323-.07.811-.347 1.017c.117.159.647.482 1.776.482c1.412 0 2.635-1.159 3.765-1.159c.912 0 1.523.177 1.712.26l.082.588c2.541.747 2.765 3.458 2.565 4.717c.905 1.37.882 1.694.882 2.047c-.03.289-.127.567-.282.812c.2.341.311 1.123.347 1.47c.57.277 1.494.93 1.494 1.96c0 .823-.347 1.393-.524 1.576l.218.47c0 1.147-.383 2.094-.577 2.424l-.611.2c-.947 2.105-3.07 2.929-4.66 2.929c-1.264 0-2.393-.288-2.793-.43l-1.194.077c-.13.118-.441.353-.647.353c-.26 0-1.236-.141-1.624-.294c-.3-.124-.423-.353-.447-.459a3.8 3.8 0 0 1-1.206-.47c-.906.37-1.47-.071-1.547-.071a4.56 4.56 0 0 1-1.853-1.924c-.176-.37-.117-.823-.058-1.011l-.23-.347c-.365.017-.547-.06-.588-.106a4.5 4.5 0 0 1-.824-2.006"/><path fill="#4B5C7A" d="M14.764 8.747c.147.047.453.17.565.294l.97.16l.665-.189v-.459c.023-.07.082-.259-.73-.176a4.7 4.7 0 0 0-1.47.37m-9.306 6.6c-.111.583.524.883.853.965l-.406.412c-.4.058-1.2-.112-1.2-1.194c0-1.047.753-2.189 1.112-2.736c.1-.159.177-.264.177-.3c.029-.135.088-1.74.111-2.53l-.353-.5l.524-.34c-.33.235-.059.659.118.847l.676-.359c.2-.094.606-.294.653-.3c.047-.012.341-.341.482-.506l.17.659A2.72 2.72 0 0 0 6.4 11.877l-.294 2.635c-.17.035-.529.253-.647.835M6.311 9.1l-.035.024zm-1.459 3.047c0-.223.13-.294.195-.323l.029-.012c-.4-.141-.447.27-.418.494c-.047 0-.14-.059-.14-.265s.276-.411.41-.488c-.493-.07-.6.294-.587.488c0 .624.44.495.664.353c-.053 0-.158-.047-.153-.247m4.912-2.964c.018-.042.365-.224 1.57.1c1.2.317 2.107.235 2.777-.236c-.041.106-.041.389.306.67v.836c-.377.082-1.141.235-1.194.2l-.047-.041c-.17-.17-.747-.73-1.565-.665c-.388-.323-1.312-.947-1.847-.864m5.088.188c-.082-.141-.359-.159-.494-.147a.5.5 0 0 1 .6 0c-.117-.118-.318-.183-.4-.206c.047-.07.212-.17.47.041c.254.206.06.506-.07.63a.8.8 0 0 0-.106-.318m-3.206 3.576c-.34.206-1.011 1.024-1.305 1.412c.435-.706 1.34-2.141 1.488-2.335c.39-.48.911-.835 1.5-1.024l2.7-.717l.87.917h-1.464c-.142 0-.26.041-.4.083c-.189.064-.4.14-.724.117c-.565-.035-1.43.318-1.641.712c-.177.33-.47.506-.812.706zm5.894-1.64c.047.01.1.023.153.023l-.023.005c.33.077.988.024.988-.805a1.354 1.354 0 0 0-1.67-1.341c.252 0 .747.117 1.017.54a1.03 1.03 0 0 0-1.018-.293c.236 0 .76.135.924.705c.212.7-.2 1.118-.37 1.165M5.894 18.564c-.13-.118-.43-.224-.565-.265c0 .159.23.559.453.953l.076.135c.247.436 1.112.718 1.177.577c.076-.141-.218-.37-.494-.577a3.6 3.6 0 0 1-.647-.823m2.752 1.4c.1.159.295.382.506.382c.247 0 .312-.218.312-.323c-.218.07-.653.152-.823-.06z"/><path fill="#505E81" d="M14.553 13.135c-.154-.2-.06-.352 0-.4c.082.26.54.4 1.029.471s.306-.07.494.118c.153.14-.059.423-.188.54a.61.61 0 0 0 .423-.423l.883.424c-.142-.077-.224-.312-.242-.424c.177.312.953.424 1.165.424c.165 0 .177.117.159.176c.088-.006.259.041.218.271c-.042.235-.483.365-.695.4c.742.059.883-.212.86-.353c.376.35.667.78.852 1.259c-.058.076-.217.306-.412.6s-.288 1.294-.305 1.753c-.124.317-.965.97-1.371 1.258l.094-.823l.282-2.435l-2.364-1.53c-.235-.353-.73-1.111-.882-1.306"/><path fill="#CEDDF7" d="M2.976 6.73C2.506 7.74 2.4 9.318 2.4 9.983c.54-.412 1.782-1.247 2.417-1.247c.641 0 .841.335.86.505c.234-.252.846-.758 1.428-.758c.583 0 .783.17.812.253l.177-.312V8.07l-.177.194l-.2-2v2c-.87-.376-1.6.212-1.853.553a7.17 7.17 0 0 1 1.6-4.282l-.053-.189c-.953.665-1.658 3.2-1.888 4.389c-.059-.165-.33-.46-.941-.312c-.606.147-1.47.706-1.824.964c-.04-1.252.406-2.352.63-2.746c.941-1.806 3.076-3 4.023-3.365l.206.412c.018-.036.106-.118.3-.171c.2-.047.37.094.43.177l.511-.342a1.27 1.27 0 0 1-.723-.74H8.07c-.012.182.135.47.212.6a1.2 1.2 0 0 1-.365-.471l-.2.153a3 3 0 0 0-.159.317l-.094-.188A7.5 7.5 0 0 0 2.976 6.73"/><path fill="url(#tokenBrandedDrgn0)" fill-rule="evenodd" d="M4.653 9.153c.058-.082.217-.247.352-.212h.012c.177.047.353.095.447.624c.018.1.177.294.665.294c.612 0 1.1-.594 1.141-1.153l.706.235v.353c-.506.218-1.518 1.106-1.518 2.93c.012.723.518 2.117 2.47 1.906l.166.117l.111.618l-.27.13l-.541-.265c-.089.158-.153.588.305 1.035c-.076.03-.329.03-.723-.23c-.124.118-.253.494.223 1.024v.188l-.311-.247c-.147.141-.336.53.088 1.012c-.059.241.041.747.841.835c.112.1.43.3.865.33l.159.811c0 .118.088.347.459.312c.37-.035.5-.1.517-.13l.441.324c-.07.141-.106.477.27.706c.377.23.6.412.665.47h-1.335l.67.124c.024.135-.076.377-.67.3l-.223-.03c-.606-.07-.918-.105-1.024-.558l.483.047c-.612-.159-1.883-.53-2.06-.765l.165-.194l-1.117.394c-.359-.112-1.177-.488-1.594-1.105l-.253-.354c-.33-.47-.441-.623-.283-1.029c.048-.118.095-.212.136-.294c.135-.265.206-.412-.035-.753l-.1.647l-.648-1.135l.083.488l-.459.059a3.06 3.06 0 0 1-.665-1.612l.312-.406l.353.824a13.7 13.7 0 0 1-.43-3.535l-.176 1.294l-.47-.312a5.8 5.8 0 0 1-.089-1.647c.068-.586.3-1.141.67-1.6l.6-.159c-.152.406-.458 1.312-.458 1.712c.235-.653.794-2.059 1.076-2.412zm-.118 1.477c.076.023.176-.095.223-.265c.053-.17.024-.324-.058-.341c-.077-.024-.177.094-.23.264c-.047.165-.023.318.059.342zm.765 1.447c-.018.388-.295.694-.606.682c-.312-.018-.553-.347-.536-.741c.018-.388.295-.7.606-.683c.318.018.56.348.536.742m1.117 3.129c.27.694.077 1.412-.43 1.606c-.505.188-1.14-.224-1.411-.924c-.27-.694-.082-1.411.424-1.6c.511-.188 1.14.224 1.411.918zm3.33 5.1c.076-.218-.153-.494-.512-.612c-.353-.117-.706-.041-.783.177c-.076.223.147.5.506.623c.353.118.706.035.788-.188M6.5 18.847c.5.565.747 1.153.558 1.312c-.194.165-.753-.165-1.253-.73c-.494-.564-.747-1.152-.552-1.317c.194-.159.752.17 1.247.735m-2.383-4.435c.036.17 0 .323-.082.341c-.077.018-.177-.106-.212-.276c-.041-.177 0-.324.077-.341c.082-.018.176.105.217.276" clip-rule="evenodd"/><path fill="url(#tokenBrandedDrgn1)" d="M8.964 10.818c-.212 0-.535.141-.676.212l.212-.212l-.212-1.147c-.412.235-1.683.9-1.577 2.7c.089 1.435 1.489 1.688 2.177 1.635a.86.86 0 0 0 .959-.147c-.26-.135-.33-.518-.336-.688L9 13.094c.305.03.694-.082.847-.147c0-.076-.018-.259-.065-.382a1.8 1.8 0 0 1-.083-.465c-.235.106-.588.077-.735.053c.242-.035.476-.108.694-.218c-.047-.04-.147-.188-.147-.447c0-.252.124-.352.188-.376c-.158-.1-.529-.294-.735-.294"/><path fill="#E5EFF9" d="M10.323 11.236c-.14.058-.5.058-.659.046c-.011.107-.011.348.042.506a.88.88 0 0 0 .617-.547zm.294.905c-.158.06-.576.053-.764.041c-.006.106-.012.348.047.506a.98.98 0 0 0 .717-.547m-.94 1.148c.158-.036.505-.13.617-.224c0 .159-.1.523-.435.7a1.5 1.5 0 0 1-.183-.476"/><path fill="#EBEEF3" d="M14.33 12.506c-3.277.07-4.107 2.794-4.118 4.147a1.586 1.586 0 0 1 1.67-.935v-.447a2.8 2.8 0 0 1 0-.812c.059-.182.535-.3.77-.335c.395-.93 1.089-1.118 1.389-1.094v-.118z"/><path fill="url(#tokenBrandedDrgn2)" d="M15.5 11.647a5.7 5.7 0 0 1 4.646 3.906c.171 0 .306.053.353.077c.03-.389-.176-1.483-1.147-2.742c-.976-1.264-2.976-1.352-3.853-1.235zm-2.412.677c.717-.142 2.517-.23 3.964.559a7.6 7.6 0 0 1 2.753 2.705h.218c-.312-.882-1.388-2.77-3.235-3.329c-2.318-.688-3.589-.4-3.706.059z"/><path fill="#BCC7D0" d="M18.964 18.588c-.753.9-2.259 1.777-2.917 2.1c2.023-.34 2.929-1.44 3.129-1.947l-.212-.159z"/><path fill="url(#tokenBrandedDrgn3)" d="M15.276 21.076c-1.647 0-2.941-.535-3.382-.805c.235.411 1.241 1.247 3.382 1.247c3.112 0 4.453-1.747 4.735-2.618c-.059.088-.43.035-.611 0c-.253.677-2.053 2.176-4.118 2.176z"/><path fill="url(#tokenBrandedDrgn4)" d="M8.735 15.977c.012.235-.212.5-.324.6c.03.394.442.523.648.535a1 1 0 0 1-.436 0c-.03.206-.294.47-.423.576a.52.52 0 0 0 .294-.14c-.059.152-.224.229-.294.246c.14.318.517.377.688.365c.235.335.918.335 1.23.294c-.671-1.27-.283-2.759 0-3.341c-.389-.212-.707-.159-.812-.112c.07.288-.218.659-.371.806c.07.177.382.376.53.453c-.448-.059-.571-.212-.577-.282z"/><path fill="#F9FFFF" d="M8.488 14.877c-.03.17 0 .553.323.717c.095 0 .289-.1.277-.441c-.235-.03-.594-.259-.6-.276m-.177 1.529c-.323-.17-.352-.553-.323-.724c0 .018.365.253.6.283c.012.341-.177.435-.277.441m-.182 1.07c-.294-.223-.247-.605-.188-.764c0 .018.306.306.535.376c-.053.341-.253.4-.353.389z"/><path fill="url(#tokenBrandedDrgn5)" d="M18.87 9q-.522-.721-1.135-1.37l.177.988l-1.142-.282l.4.547l-.306.117c-.294.094-.882.436-.84 1.06c.035.623.646 1.058.952 1.2a1.53 1.53 0 0 1-.459-1.083c0-.677.442-1.177.989-1.177c.552 0 1.364.47 1.364 1.412c0 .753-.394 1.106-.594 1.182a5.5 5.5 0 0 1 1.67 1.224c-.011-1.312-.476-2.659-.705-3.165c.294.336.512.941.582 1.206l.212-.447c-.288-1.512-1.135-2.365-1.53-2.606h-.4c.295.306.63.924.765 1.194"/><path fill="url(#tokenBrandedDrgn6)" d="M9.576 10.8L9.4 9.777l.118-.341c1.523 0 2.547 1.135 2.864 1.705a1.94 1.94 0 0 0-.612-.964c.506.053.936.488 1.089.706c-.036-.236-.253-.471-.36-.547c.212.017.724.04 1.077 0c.353-.042.736-.442.883-.636c.1.047.34.141.529.141c.235 0 .459-.135.459-.411c0-.212-.077-.347-.118-.383l.765-.106c.412-.058.717.024.823.071l.065-.07l-.218-.583c.248 0 .436.077.495.112l.376.47c-.647-.023-.888.224-1.13.647c-.188.336-.076.912 0 1.153c-1.088 0-1.576.165-2.164.353c-.588.183-.5.171-1.153.236c-.647.076-.818.564-1.006.811a3.5 3.5 0 0 1-.93.877c-.37.235-.84 1.212-1.035 1.664l-.117-.894c.6-.57.359-.823.318-.864c-.036-.036-.195.011-.265.04v-.117c.647-.323.623-.764.53-.953c-.195.136-.583.136-.754.118l-.035-.118c.606-.217.682-.629.647-.806h-.67l-.295-.294z"/><path fill="#BCC8D4" d="M17.617 6.789c0-.336-.059-1.089-.294-1.4c0 .088.194.97.294 1.4"/><path fill="#C0C5CB" d="m17.794 5.112l-.341.206c.117.224.353.882.294 1.765c.059.088.306.258.74.217c0-1.117-.464-1.923-.693-2.188"/><path fill="#D3D9F3" d="m17.329 5.236l-.165-.77l.341-.336c.042-.036.106.1.13.176l.053.4l.147-.4c1.147.736 1.247 2.477 1.153 3.253l-.353-.182a3.38 3.38 0 0 0-.8-2.418zM17.247 4c-.077.065-.118.283-.118.312l.265-.318s-.077-.07-.147 0z"/><path fill="#D9D8DD" d="m16.323 16.235l-1.259-.117c0 .235.306.788.894.788s.624-.135.641-.276s-.088-.171-.188-.2c-.082-.03-.094-.136-.088-.183z"/><path fill="#E2E3E5" d="M12.323 15.553c-.2-.018-.117.082-.117.106c0 .065.211.253.412.276c.194.024.329-.229.264-.276c-.059-.047-.353-.088-.559-.106"/><path fill="#CED8F1" fill-rule="evenodd" d="M11.747 16.018c1 0 1.841.412 2.135.617a1.3 1.3 0 0 0-.382-.423l.094-.082v-.336c.165.03.347-.164.347-.223s-.041-.37-.059-.518c0 .377-.153.541-.223.577l-1.5-.424l.076-.63c.2-.07.606-.205.659-.205c.253-.93.906-1.106 1.2-1.077a.41.41 0 0 0 .259.353c-.177-.376 0-.582.117-.635c.112.335 1.006.459 1.441.482c0 .194-.194.365-.288.424c.177.088.5-.094.641-.2l.283.153c-.006.235.106.364.164.4c-.058-.389.089-.577.177-.624c.188.518.988.483 1.118.477h.011c.118.353-.235.547-.43.6h.39c.628.059.805.764.81 1.117a.42.42 0 0 0-.34.177c-.06.47-.188 1.447-.241 1.606a.7.7 0 0 0-.024.376l.153.13c-.918 1.923-3.165 2.4-4.176 2.4c-3.283 0-3.795-2.648-3.795-2.942s.136-1.57 1.383-1.57m2.741-.047c-.347-.283.288-.665.453-.765l.03-.018c-.1.112-.318.37-.383.506c-.059.136.118.159.218.153h2.47c.059 0 .247.259.335.383c-.317.282-1.117.852-1.794.852c-.682 0-.93-.688-.964-1.029c-.136 0-.294-.059-.365-.082m-2.982.917c.053-.1.194-.306.353-.306s.288.271.329.406c-.059-.07-.2-.211-.33-.211a.8.8 0 0 0-.352.117zm-.26 1.283c.071-.118.319-.341.765-.341c.554 0 1.353.5 1.765.994c-.464-.277-1.458-.836-1.764-.836s-.636.118-.765.183m2.365-1.024c-.147-.053-.352.1-.435.182a.8.8 0 0 1 .377 0c.117.036.206.218.235.3c.006-.14-.024-.435-.177-.482" clip-rule="evenodd"/><path fill="#96A4C1" d="M13.876 13.4c-.265.235-.818.753-.894.982c-.07.224-.412.254-.57.242l-.16.482l1.318.341l.306-.459a35 35 0 0 0-.93-.159c-.188-.023-.194-.07 0-.158c.195-.083.242-.118.306-.294c.06-.177.453-.806.624-.977m3.712 1.324c.023 0 .04-.012.064-.018a5 5 0 0 0-.623.135h-.012c-.07.018-.2.077-.365.153c-.347.165-.853.4-1.364.482c-.6.1-.53.295-.424.377c.9.02 1.791.17 2.647.447h-.153c-.106.235-.53.724-1.353.765s-1.1-.647-1.14-.994c-.119.27.046.63.146.77l-.57.26a.98.98 0 0 0-1.17-.09c.205-.028.646 0 .775.383c.142.383-.658.53-1.076.565c.806.376 1.03 1.023.906 1.106c-.094.059-.353-.177-.465-.294c-.023.482-.5.235-.806.076l-.164-.082c-.236-.094-1.177-.353-1.236.217c-.035.289.389.706.847 1.06c.53.293 1.218.487 2.106.487c1.012 0 3.259-.476 4.177-2.4L18.182 18a.7.7 0 0 1 .023-.376c.059-.16.183-1.136.241-1.6a.43.43 0 0 1 .342-.189c-.006-.347-.177-1.058-.812-1.111z"/><path fill="#B6BFC6" d="M19.605 16.035c.141-.047.46-.135.618-.135c.165 0 .706.318.953.477l-.135 1.34l-.365.6c-.2-.058-.912-.305-.93-.435a76 76 0 0 1-.14-1.847m.83 1.794c.094.012.2-.17.235-.405s-.006-.441-.1-.46c-.088-.01-.194.171-.235.413c-.036.235.011.44.1.453"/><path fill="#FFFFFD" d="m20.146 16.5l.965-.035l.059-.106h-1.018l-.541-.353c-.247.353-.412 1.718-.47 2.353a2.3 2.3 0 0 1 .47.23c.1.07.853-.03 1.218-.095l.23-.823c-.072.082-.254.294-.407.411c-.147.13-.488-.047-.647-.152z"/><path fill="#B5BEC5" d="M20.44 12.906c-.011.041 0 .47 0 .688c.16-.053.542-.13.754-.023c-.112-.165-.424-.53-.753-.665m1.03 1.982a1.06 1.06 0 0 0-.806-.706l-.165-.488c.118-.059.389-.059.506-.053c.53.106.53.877.47 1.247zm-.506.924c-.017-.47-.223-1.176-.323-1.47c.294 0 .735.352.735.723c0 .3-.27.623-.412.747"/><path fill="#FBFFFF" d="M7.347 3.465C3.577 5.135 2.864 7.918 2.982 9.1c.041-.059 1.588-1.311 2.476-.653a9.14 9.14 0 0 1 2.03-4.329c-.088-.147-.012-.347.041-.43a1 1 0 0 0-.182-.223m.164 4.606c-.6-.177-1.235.206-1.47.423c.112-1.705 1.03-3.247 1.47-3.805l.247 1.2c-.182.423-.24 1.635-.247 2.182"/><path fill="#F7F3F2" d="M8.976 3.236c-.177.094-.53-.312-.683-.53c1.136-.588 1.424-.247 1.236-.14c-.177.105-.336.546-.553.664z"/><path fill="url(#tokenBrandedDrgn7)" d="m8.853 10.689l-1.077-6.56c0-.058.03-.187.147-.187c.118 0 .177.07.195.105l1.147 6.683z"/><path fill="#BDCBD8" d="m9.5 14.783l-.089-.53l.395-.088l.088.665zm.73 4.682l-.177-.77l.105-.03l.36.694c-.083.117-.23.117-.289.106"/><path fill="#FFFFFD" d="M9.294 9.118c.235-1.488-.153-2.27-.377-2.477c.765-.47 2.789-.305 3.706-.176l-.482-2.412c.659 0 2.476-1.164 3.253-1.164c.623 0 1.064.211 1.212.317l.911 4.97c-.03-.035-.353-.093-1.47-.093c-1.536 0-2.247 1.029-3.424 1.029c-1.176 0-1.44-.082-2.2-.376a.894.894 0 0 0-1.13.376z"/><path fill="#96352F" d="M12.964 4.118L13.176 4c.694-.376 1.4-.753 2.265-.753c.588 0 1.011.183 1.23.324l-.065-.365c-.148-.106-.589-.317-1.212-.317c-.4 0-1.088.317-1.747.617c-.612.277-1.194.541-1.506.541l.076.395l.071-.024q.35-.126.676-.306zm-.594 1.07l-.094-.446h.024c.188 0 .441-.036.694-.177a5 5 0 0 0 .347-.188c.647-.359 1.418-.794 2.347-.794c.382 0 .723.03 1 .07l.088.477a5.7 5.7 0 0 0-1.088-.094c-.794 0-1.447.358-2.094.717l-.377.212a2 2 0 0 1-.847.224m.142.712l-.089-.44c.17-.013.37-.06.57-.171a5 5 0 0 0 .348-.189c.647-.358 1.418-.788 2.347-.788q.571-.006 1.135.094l.088.483a5.7 5.7 0 0 0-1.229-.13c-.788 0-1.441.359-2.088.724l-.377.206a2 2 0 0 1-.706.211m.105.542l-.088-.46c.267.033.538-.01.783-.123l.317-.159a4.7 4.7 0 0 1 2.194-.635q.58.008 1.147.124l.088.505a5.7 5.7 0 0 0-1.247-.176c-.729-.018-1.34.276-1.953.576l-.352.171a1.95 1.95 0 0 1-.883.177zm-3.311 1.07a3 3 0 0 0-.13-.453c.33-.2.836-.412 1.37-.412c.442 0 .8.095 1.119.189h.017c.33.1.63.182 1.012.182c.159 0 .394-.059.682-.159c.277-.106.577-.235.894-.376l.03-.012c.323-.141.653-.294.964-.4c.278-.112.572-.177.87-.194c.336 0 .683.059.99.141l.087.488a4 4 0 0 0-1.076-.176c-.177 0-.418.059-.712.164s-.612.242-.935.389l-.035.011c-.312.136-.624.277-.918.383c-.294.112-.588.194-.841.194c-.453 0-.812-.106-1.136-.2h-.005a3.5 3.5 0 0 0-1.006-.177c-.494 0-.977.236-1.241.412zm.059.712c0-.177-.006-.347-.024-.494c.265-.13.606-.236.976-.236c.406 0 .824.13 1.212.242l.047.017c.418.124.812.236 1.2.236c.165 0 .377-.06.647-.177c.212-.088.435-.2.682-.318l.195-.1c.623-.305 1.353-.647 2.058-.647c.342 0 .648.036.912.095l.094.488a3.8 3.8 0 0 0-1-.136c-.588 0-1.223.289-1.858.6l-.183.095c-.247.117-.494.247-.717.34c-.283.118-.571.212-.83.212c-.47 0-.923-.135-1.335-.258h-.012c-.417-.13-.776-.236-1.117-.236a1.9 1.9 0 0 0-.942.277zm8.076-.453a7 7 0 0 0-1.294-.1c-.865 0-1.494.318-2.041.612l-.077.04c-.523.283-.953.513-1.494.513a2.8 2.8 0 0 1-1.259-.253c-.27-.112-.559-.23-1.03-.23c-.37 0-.664.106-.893.247q-.016.24-.06.512a.893.893 0 0 1 1.13-.376a4.6 4.6 0 0 0 2.2.376c.553 0 1-.223 1.47-.465a4.1 4.1 0 0 1 1.948-.564c1.13 0 1.447.058 1.476.094l-.076-.412z"/><path fill="#FFFFFD" d="m9.794 3.983l.082.111l.141.036l-.094.1l.006.13l-.135-.042l-.136.041v-.13l-.088-.1l.141-.035zm-.618.059l.077.117l.14.03l-.087.105v.13l-.13-.047l-.141.047l.006-.13l-.088-.105l.14-.036l.083-.106zm.441.458l-.082-.106l-.077.106l-.14.036l.088.1v.135l.129-.047l.141.047l-.006-.135l.088-.1zm-.3.365l.077.112l.14.03l-.087.105l.006.13l-.136-.048l-.14.048l.01-.13l-.093-.106l.141-.03zm.5.488l-.082-.111l-.082.111l-.136.036l.089.1l-.006.129l.135-.041l.135.041v-.13l.088-.1zm.524 0l.082.106l.141.035l-.094.106l.006.13l-.135-.047l-.135.047V5.6l-.089-.106l.141-.035zm.706.106l-.077-.106l-.082.106l-.141.035l.088.106v.13l.135-.047l.135.047l-.005-.13l.088-.106zm.482-.117l.082.105l.142.036l-.095.1l.012.135l-.141-.047l-.135.047l.006-.135l-.089-.1l.142-.036l.076-.111zm.4.529l-.082-.106l-.083.106l-.14.035l.093.106l-.006.13l.136-.048l.135.048v-.13l.088-.106zm-2.012-1.1l.083.106l.14.035l-.093.106l.006.13l-.136-.048l-.135.047v-.129l-.088-.106l.14-.035zm.688.218l-.082-.112l-.082.112l-.141.035l.094.1l-.006.13l.135-.042l.136.041v-.13l.088-.1zm.542-.112l.082.112l.141.035l-.088.1v.13l-.135-.042l-.136.041l.006-.13l-.088-.1l.141-.034zm.647.1l-.083-.112l-.082.112l-.141.03l.094.105l-.006.13l.135-.048l.136.048v-.13l.088-.106zm-1.706-.588l.082.117l.142.03l-.089.1v.135l-.13-.047l-.14.047l.005-.135l-.088-.1l.142-.036l.082-.106zm.688.223l-.082-.112l-.077.112l-.14.035l.087.1v.13l.13-.047l.141.047l-.006-.13l.088-.1zm.547-.112l.082.112l.142.035l-.094.1l.006.13l-.136-.047l-.135.047v-.13l-.088-.1l.14-.035zm-.882-.347l-.083-.106l-.076.106l-.141.036l.088.105v.13l.13-.047l.14.047l-.005-.13l.088-.105zm.53 0l.076.112l.14.035l-.093.1l.006.13l-.136-.041l-.135.04l.006-.129l-.088-.1l.135-.035l.082-.112zm.705.112l-.082-.112l-.083.112l-.14.035l.093.1l-.005.13l.135-.041l.135.04l-.006-.129l.088-.1zm-2.282 1.47l.082.118l.141.03l-.094.106l.012.129l-.141-.047l-.136.047l.006-.13l-.088-.105l.141-.036l.077-.105zm.688.224L10 5.847l-.083.112l-.14.035l.093.1l-.006.13l.136-.041l.135.04v-.129l.088-.1zm.547-.112l.077.112l.14.035l-.088.1l.006.13l-.135-.041l-.141.04l.012-.129l-.095-.1l.142-.035zm.647.1l-.088-.111l-.077.111l-.14.03l.087.106l-.005.13l.135-.048l.141.047l-.006-.13l.088-.105l-.14-.03z"/><defs><linearGradient id="tokenBrandedDrgn0" x1="8.297" x2="13.587" y1="3.751" y2="22.384" gradientUnits="userSpaceOnUse"><stop stop-color="#D5E1F9"/><stop offset="1" stop-color="#8493B4"/></linearGradient><linearGradient id="tokenBrandedDrgn1" x1="12.001" x2="12.001" y1="2" y2="21.99" gradientUnits="userSpaceOnUse"><stop stop-color="#CFD7EC"/><stop offset="1" stop-color="#CCD6EF"/></linearGradient><linearGradient id="tokenBrandedDrgn2" x1="12.369" x2="24.559" y1="5.619" y2="13.622" gradientUnits="userSpaceOnUse"><stop offset=".25" stop-color="#FFFCFF"/><stop offset=".66" stop-color="#BFC2C7"/></linearGradient><linearGradient id="tokenBrandedDrgn3" x1="19.492" x2="7.575" y1="5.371" y2="6.724" gradientUnits="userSpaceOnUse"><stop stop-color="#B8C5CB"/><stop offset="1" stop-color="#FAFEFF"/></linearGradient><linearGradient id="tokenBrandedDrgn4" x1="12" x2="8.503" y1="2.007" y2="20.507" gradientUnits="userSpaceOnUse"><stop stop-color="#C9D5ED"/><stop offset=".24" stop-color="#A2AFCF"/><stop offset=".4" stop-color="#CFDBF3"/><stop offset=".53" stop-color="#A1AECE"/><stop offset=".63" stop-color="#9FACCC"/><stop offset=".71" stop-color="#CEDAF0"/><stop offset=".78" stop-color="#D0DEF8"/><stop offset=".86" stop-color="#A9B7D4"/><stop offset="1" stop-color="#B8BFDC"/></linearGradient><linearGradient id="tokenBrandedDrgn5" x1="12.005" x2="15.401" y1="2" y2="19.58" gradientUnits="userSpaceOnUse"><stop stop-color="#D1D9EE"/><stop offset="1" stop-color="#8893B3"/></linearGradient><linearGradient id="tokenBrandedDrgn6" x1="18.771" x2="6.522" y1="5.219" y2="12.09" gradientUnits="userSpaceOnUse"><stop stop-color="#929FC1"/><stop offset=".6" stop-color="#94A1C4"/><stop offset=".91" stop-color="#D0DCF2"/><stop offset="1" stop-color="#98A5C7"/></linearGradient><linearGradient id="tokenBrandedDrgn7" x1="12.039" x2="12.5" y1="2" y2="21.897" gradientUnits="userSpaceOnUse"><stop stop-color="#AEC0CC"/><stop offset=".76" stop-color="#FAF8F9"/><stop offset="1" stop-color="#BBC5CE"/></linearGradient></defs></g></svg>