<svg xmlns="http://www.w3.org/2000/svg" xmlns:xlink="http://www.w3.org/1999/xlink" width="24" height="24" viewBox="0 0 24 24"><g fill="none"><path fill="url(#tokenBrandedDsm0)" d="M6.676 2.4c.468-.313.95-.4 1.375-.4c2.612 0 5.53 1.381 7.787 3.287c2.243 1.894 3.93 4.4 3.93 6.725c0 2.35-1.812 4.387-3.98 5.8c-2.188 1.424-4.863 2.312-6.819 2.312a4.1 4.1 0 0 1-2.48-.756a4.63 4.63 0 0 1-1.438-1.856c-.663-1.438-.813-3.2-.813-4.556c0-4.688.481-7.4 1.188-8.956a3.7 3.7 0 0 1 1.25-1.6m-.563 1.906c-.644 1.4-1.231 3.981-1.231 8.65c0 1.325.25 2.956.844 4.25c.259.65.673 1.227 1.206 1.68c.512.376 1.175.613 2.037.613c1.775 0 4.313-.937 6.406-2.306c2.113-1.375 3.75-3.213 3.75-5.187c0-2-1.594-4.313-3.775-6.156c-2.162-1.831-4.925-3.225-7.287-3.225a1.67 1.67 0 0 0-.962.275c-.44.38-.777.863-.982 1.406z"/><path fill="url(#tokenBrandedDsm1)" d="M7.969 3.65c.469-.313.95-.4 1.375-.4c2.618 0 5.53 1.381 7.787 3.287c2.243 1.894 3.93 4.4 3.93 6.725c0 2.35-1.812 4.387-3.98 5.8c-2.188 1.424-4.856 2.312-6.818 2.312a4.1 4.1 0 0 1-2.482-.756a4.63 4.63 0 0 1-1.437-1.857c-.663-1.437-.813-3.2-.813-4.556c0-4.687.482-7.4 1.188-8.955a3.7 3.7 0 0 1 1.25-1.6m-.563 1.906c-.643 1.4-1.23 3.981-1.23 8.65c0 1.324.25 2.956.843 4.25c.26.65.673 1.226 1.206 1.68c.519.375 1.175.613 2.037.613c1.782 0 4.313-.938 6.412-2.306c2.107-1.375 3.738-3.213 3.738-5.188c0-2-1.588-4.312-3.769-6.155c-2.168-1.832-4.918-3.225-7.293-3.225a1.67 1.67 0 0 0-.962.275a3.5 3.5 0 0 0-.982 1.406"/><path fill="url(#tokenBrandedDsm2)" d="M5.382 4.275c.469-.313.95-.4 1.375-.4c2.612 0 5.53 1.38 7.787 3.287c2.243 1.894 3.93 4.4 3.93 6.725c0 2.35-1.812 4.387-3.98 5.8c-2.188 1.424-4.862 2.311-6.819 2.311a4.1 4.1 0 0 1-2.48-.756a4.63 4.63 0 0 1-1.444-1.856c-.657-1.437-.813-3.2-.813-4.556c0-4.687.488-7.4 1.194-8.955a3.7 3.7 0 0 1 1.25-1.6M4.819 6.18c-.643 1.4-1.23 3.98-1.23 8.65c0 1.324.25 2.955.843 4.249c.26.65.673 1.227 1.206 1.681c.513.375 1.175.613 2.037.613c1.775 0 4.313-.938 6.406-2.307c2.106-1.374 3.75-3.212 3.75-5.187c0-2-1.594-4.312-3.775-6.156c-2.168-1.83-4.924-3.224-7.3-3.224c-.312 0-.643.062-.955.275c-.443.38-.782.866-.988 1.412z"/><defs><linearGradient id="tokenBrandedDsm0" x1="2.938" x2="21.062" y1="12" y2="12" gradientUnits="userSpaceOnUse"><stop stop-color="#FE723F"/><stop offset="1" stop-color="#FCA553"/></linearGradient><linearGradient id="tokenBrandedDsm1" x1="2.938" x2="21.062" y1="12" y2="12" gradientUnits="userSpaceOnUse"><stop stop-color="#FE723F"/><stop offset="1" stop-color="#FCA553"/></linearGradient><linearGradient id="tokenBrandedDsm2" x1="2.938" x2="21.062" y1="12" y2="12" gradientUnits="userSpaceOnUse"><stop stop-color="#FE723F"/><stop offset="1" stop-color="#FCA553"/></linearGradient></defs></g></svg>