<svg xmlns="http://www.w3.org/2000/svg" xmlns:xlink="http://www.w3.org/1999/xlink" width="24" height="24" viewBox="0 0 24 24"><g fill="none"><path fill="url(#tokenBrandedDvf0)" d="M5.588 12.206c-.847-.106-1.17-.341-1.223-.441c-.077.935.259 2.8 2.194 2.8c1.93 0 2.482-1.565 2.518-2.353H9.2c.177.306.159.7.124.853a2.63 2.63 0 0 1 1.894 2.464h.882c0-1.588-.588-2.5-.882-2.74l.088-.165c.47.251.843.653 1.059 1.14l.159.06c1.223.547 2.14.158 2.453-.106a2.3 2.3 0 0 1-.324-.983h.241c.012.07.118.353.459.941c.3.524.853.63 1.394.736c.218.04.436.082.63.147c.54.194.564.73.511.97h.583v-.47c0-.53-.306-.983-.588-1.394c-.242-.353-.471-.677-.471-1c0-.571.318-.994.47-1.136c-.135-.04-.247-.2-.382-.394c-.2-.288-.453-.659-.959-.823a1.9 1.9 0 0 0-.764-.094c-.26.005-.624.017-1.336-.06c-.659-.076-1.059-.411-1.488-.764c-.53-.453-1.1-.923-2.235-.923c-1.63 0-2.177 1.37-2.253 2.058a1.38 1.38 0 0 0-.741-.582c.006.73-.165 1.624-.883 1.924c-.588.247-1.076-.165-1.253-.4c-.229.247-.094.588 0 .735M10 15.529a2.93 2.93 0 0 0-.106-1.623l.112-.059c.635.482.73 1.341.694 1.682zm5.147-1.547c.112.153.47.495 1 .636c-.075.34-.237.653-.47.911h-.83c.212-.235.536-.894.165-1.405z"/><path fill="url(#tokenBrandedDvf1)" fill-rule="evenodd" d="M12 22a10 10 0 1 0 0-20a10 10 0 0 0 0 20m0-.588a9.411 9.411 0 1 0 0-18.823a9.411 9.411 0 0 0 0 18.823" clip-rule="evenodd"/><defs><linearGradient id="tokenBrandedDvf0" x1="2.964" x2="23.05" y1="20.333" y2="16.032" gradientUnits="userSpaceOnUse"><stop stop-color="#FCDEA0"/><stop offset=".5" stop-color="#ED5F5E"/><stop offset=".88" stop-color="#67C9CB"/></linearGradient><linearGradient id="tokenBrandedDvf1" x1="18.629" x2="4" y1="5.724" y2="17.341" gradientUnits="userSpaceOnUse"><stop stop-color="#6FC3CE"/><stop offset="1" stop-color="#F96962"/></linearGradient></defs></g></svg>