<svg xmlns="http://www.w3.org/2000/svg" xmlns:xlink="http://www.w3.org/1999/xlink" width="24" height="24" viewBox="0 0 24 24"><g fill="none"><path fill="#2E3092" d="M10.101 6.447H7.558l3.904 5.687l-3.904 5.975h2.427l2.72-4.165l2.86 4.165h2.544z"/><path fill="#EE008E" d="M17.554 6.447h-2.321l-1.566 2.577l1.183 1.866z"/><path fill="url(#tokenBrandedDxgm0)" fill-rule="evenodd" d="M9.801 2.86c.889-.267 1.833-.35 2.805-.35c2.488 0 4.759.883 6.48 2.438a.223.223 0 0 0 .295-.334a10.07 10.07 0 0 0-9.707-2.176a.222.222 0 0 0 .127.422m10.152 2.893a.25.25 0 0 0 .244-.25a.25.25 0 0 0-.244-.25a.25.25 0 0 0-.25.25c0 .139.11.25.25.25m0 .25c.272 0 .5-.222.5-.5s-.228-.5-.5-.5c-.278 0-.5.222-.5.5s.222.5.5.5M4.043 7.24a.21.21 0 0 1 .088.294a9.55 9.55 0 0 0-1.077 4.543c0 2.177.666 4.187 1.888 5.803a.222.222 0 0 1-.35.261a10.02 10.02 0 0 1-2.032-6.064a10 10 0 0 1 1.188-4.748a.22.22 0 0 1 .295-.089m17.292 9.285c.1.056.134.195.078.3a9.86 9.86 0 0 1-5.664 4.665a.21.21 0 0 1-.225-.075a.2.2 0 0 1-.036-.075a.22.22 0 0 1 .139-.272a9.44 9.44 0 0 0 5.414-4.46a.21.21 0 0 1 .294-.083M7.991 3.548a.166.166 0 1 0-.156-.289q-.4.217-.777.467a.167.167 0 1 0 .178.278c.244-.167.5-.317.755-.456m-1.466.966a.166.166 0 1 0-.206-.255q-.35.282-.677.605a.167.167 0 0 0 .228.234c.21-.206.433-.4.655-.584m-1.26 1.222a.167.167 0 0 0-.25-.21q-.387.447-.717.938a.167.167 0 1 0 .278.183q.317-.475.688-.91m.888 13.49a.17.17 0 0 0-.218.024a.166.166 0 0 0-.004.22q.429.38.9.71a.157.157 0 0 0 .227-.038a.167.167 0 0 0-.039-.223a10 10 0 0 1-.866-.7zm1.744 1.237a.167.167 0 0 0-.265.12a.17.17 0 0 0 .103.17c.317.171.64.332.967.466a.167.167 0 0 0 .127-.3a9 9 0 0 1-.932-.456m1.91.806a.166.166 0 0 0-.095.316q.517.15 1.039.25a.16.16 0 0 0 .14-.01a.17.17 0 0 0 .083-.114a.167.167 0 0 0-.162-.198a9 9 0 0 1-1.005-.244m2.032.377a.167.167 0 1 0-.022.322c.178.017.355.023.533.028a.17.17 0 0 0 .138-.031a.166.166 0 0 0 .05-.197a.17.17 0 0 0-.177-.1c-.172 0-.35-.01-.522-.022" clip-rule="evenodd"/><defs><linearGradient id="tokenBrandedDxgm0" x1="7.28" x2="17.803" y1="3.254" y2="21.191" gradientUnits="userSpaceOnUse"><stop stop-color="#2B3E9B"/><stop offset="1" stop-color="#D4078F"/></linearGradient></defs></g></svg>