<svg xmlns="http://www.w3.org/2000/svg" xmlns:xlink="http://www.w3.org/1999/xlink" width="24" height="24" viewBox="0 0 24 24"><g fill="none"><path fill="url(#tokenBrandedDxl0)" fill-rule="evenodd" d="M12 3.176a8.823 8.823 0 1 0 0 17.647a8.823 8.823 0 0 0 0-17.647M12 2a10 10 0 1 0 0 20a10 10 0 0 0 0-20M7.453 17.882a1.5 1.5 0 0 1-1.294-.817a1.38 1.38 0 0 1-.012-1.16l1.87-3.823v-.006l1.53-3.129c.1-.2.1-.212.1-.394V5.529H9.06a.597.597 0 0 1-.588-.588c0-.294.229-.588.57-.588h1.782v1.765H12v.588h-1.177v.588H12v.588h-1.177v1.012c0 .1-.017.118-.052.194l-.03.07l-1.235 2.5l-2.182 4.46a.3.3 0 0 0-.03.159a.47.47 0 0 0 .453.429h8.524c.329 0 .423-.259.435-.459a.4.4 0 0 0-.03-.176l-3.452-6.995c-.053-.117-.053-.117-.048-.276V4.353h1.765c.3 0 .588.294.588.588c0 .283-.276.588-.588.588h-.588v3.1c0 .124.03.177.088.295l.059.117q1.65 3.342 3.294 6.688c.206.418.276 1.018-.094 1.512a1.41 1.41 0 0 1-1.159.618c-.282 0-5.682.023-8.047.023zm4.188-2.453a.338.338 0 1 1 .677 0a.338.338 0 0 1-.677 0m1-.07a.1.1 0 0 1-.028-.073a.102.102 0 0 1 .175-.068a.1.1 0 0 1-.141.14zm-1.47 0a.1.1 0 0 1-.02-.112a.1.1 0 0 1 .095-.06a.1.1 0 0 1 .072.03a.1.1 0 0 1-.141.141zm1.917-.265a.276.276 0 0 1 .036-.441a.34.34 0 0 1 .376-.012c.218.13.17.43-.047.518a.34.34 0 0 1-.259 0a.3.3 0 0 1-.106-.065m-2.67-.012c-.13-.13-.089-.323.059-.417a.33.33 0 0 1 .364 0c.147.106.177.294.047.43a.325.325 0 0 1-.47-.013m1.47-.4a.1.1 0 1 1 .2 0a.1.1 0 0 1-.2 0m1-.053a.1.1 0 0 1-.042-.116a.1.1 0 0 1 .178-.025a.1.1 0 0 1-.004.137a.1.1 0 0 1-.138.004zm-1.941 0a.1.1 0 0 1 .003-.139a.1.1 0 0 1 .044-.025a.1.1 0 0 1 .053-.003a.1.1 0 0 1 .077.12a.1.1 0 0 1-.074.081a.1.1 0 0 1-.104-.034m.941-.23a.1.1 0 0 1 .074-.097a.1.1 0 0 1 .094.023a.1.1 0 0 1 .028.103a.1.1 0 0 1-.18.025a.1.1 0 0 1-.016-.053m.794.03a.1.1 0 0 1-.004-.145a.1.1 0 0 1 .074-.03a.1.1 0 1 1-.07.175m-1.53 0a.1.1 0 0 1-.026-.111a.1.1 0 0 1 .056-.056a.1.1 0 0 1 .112.026a.1.1 0 0 1 .025.07a.1.1 0 0 1-.097.097a.1.1 0 0 1-.07-.026m2.536-.035a.1.1 0 0 1-.012-.13a.1.1 0 1 1 .012.13m-3.576 0a.1.1 0 0 1-.032-.071a.1.1 0 0 1 .029-.073a.1.1 0 0 1 .071-.031a.1.1 0 0 1 .073.028a.1.1 0 0 1 .003.144a.1.1 0 0 1-.144.003m2.37-.165a.1.1 0 0 1 .03-.167a.1.1 0 0 1 .112.026a.1.1 0 0 1-.072.167a.1.1 0 0 1-.07-.026m-1.129 0a.1.1 0 0 1 .036-.165a.1.1 0 0 1 .11.03a.1.1 0 0 1 .01.113a.1.1 0 0 1-.103.05a.1.1 0 0 1-.053-.027m.035-.635a.603.603 0 1 1 1.206 0a.603.603 0 0 1-1.206 0m2.177-.006a.338.338 0 1 1 .676 0a.338.338 0 0 1-.676 0m-3.824 0a.335.335 0 1 1 .572.24a.338.338 0 0 1-.578-.24zm3.512 0a.1.1 0 0 1 .037-.073a.1.1 0 0 1 .121-.004a.1.1 0 0 1 .043.075a.1.1 0 0 1-.007.043a.1.1 0 0 1-.044.053q-.032.018-.068.012a.1.1 0 0 1-.082-.1zm-.283 0a.1.1 0 1 1 .2 0a.1.1 0 0 1-.2 0m-.282 0a.1.1 0 1 1 .2 0a.1.1 0 0 1-.2 0m-1.6 0a.1.1 0 1 1 .194.041a.1.1 0 0 1-.112.065a.1.1 0 0 1-.082-.1zm-.282 0a.1.1 0 1 1 .2 0a.1.1 0 0 1-.2 0m-.282 0a.1.1 0 1 1 .2 0a.1.1 0 0 1-.2 0m1.958-.488a.1.1 0 0 1-.026-.112a.1.1 0 0 1 .135-.053a.1.1 0 1 1-.109.165m-1.129 0a.1.1 0 1 1 .133-.15a.1.1 0 0 1-.133.15m2.335-.176a.1.1 0 0 1-.005-.134a.1.1 0 1 1 .112.158a.1.1 0 0 1-.107-.024m-3.553 0a.1.1 0 0 1 .07-.165a.1.1 0 1 1-.07.165m2.547-.024a.1.1 0 0 1-.03-.098a.1.1 0 0 1 .072-.073a.1.1 0 1 1-.042.171m-1.53 0a.1.1 0 1 1 .135-.148a.1.1 0 0 1-.134.148m.736-.118a.1.1 0 1 1 0 .006zm1-.082a.1.1 0 0 1 .106-.165a.1.1 0 0 1 .054.13a.1.1 0 0 1-.03.04a.1.1 0 0 1-.136-.005zm-1.941 0a.1.1 0 0 1-.028-.1a.1.1 0 0 1 .075-.07a.1.1 0 0 1 .096.024a.1.1 0 0 1-.137.146zm.941-.2a.1.1 0 1 1 .2 0a.1.1 0 0 1-.2 0m-1.476-.006a.335.335 0 1 1 .47-.018v.006a.34.34 0 0 1-.47.012m2.688-.012a.33.33 0 1 1 .365.077a.34.34 0 0 1-.365-.077m-1.212-.264a.1.1 0 0 1 .074-.098a.1.1 0 0 1 .123.07a.1.1 0 0 1-.083.125a.1.1 0 0 1-.097-.044a.1.1 0 0 1-.017-.053m-.247-.56a.34.34 0 0 1 .48-.355a.34.34 0 0 1 .197.356a.34.34 0 0 1-.677 0m1 .224a.1.1 0 0 1-.023-.095a.1.1 0 0 1 .07-.07a.1.1 0 0 1 .13.118a.1.1 0 0 1-.073.081a.1.1 0 0 1-.104-.034m-1.47-.005a.1.1 0 0 1-.028-.1a.1.1 0 0 1 .075-.071a.1.1 0 0 1 .118.05a.1.1 0 0 1-.03.126a.1.1 0 0 1-.13-.005zM12 15.059a.103.103 0 0 0 .103-.103a.103.103 0 1 0-.103.103" clip-rule="evenodd"/><defs><linearGradient id="tokenBrandedDxl0" x1="4.588" x2="19.388" y1="4.112" y2="19.912" gradientUnits="userSpaceOnUse"><stop stop-color="#4D2FE5"/><stop offset=".53" stop-color="#D51FD5"/><stop offset="1" stop-color="#FB767C"/></linearGradient></defs></g></svg>