<svg xmlns="http://www.w3.org/2000/svg" xmlns:xlink="http://www.w3.org/1999/xlink" width="24" height="24" viewBox="0 0 24 24"><g fill="none"><path fill="url(#tokenBrandedElon0)" d="M4.8 7.038c-.617.584-1.676.438-2.125.297l.465.379h-.378c.097.108.34.362.535.491c.19.136 1.157.12 1.622.098c-.227.324-.676 1.01-.676 1.221c0 .206.086.546.135.692c.022.298.054 1.011 0 1.492c-.06.476-.676 1.351-.973 1.724c.443-.291.74-.54.838-.621c-.081.124-.27.519-.373 1.103c-.108.578-.649 1.194-.908 1.432l.443-.087l-.195.32l.195.15c.076-.01.249.033.335.298c.108.324 1.643 1.73 2.324 2.368c.682.632 2.903 1.832 4.109 2.173c.973.27 1.562.843 1.735 1.092c.032-.141.113-.4.162-.336c.043.065.119.325.146.454l.157-.21h.13c.216-.498 1.134-.827 1.567-.925a37 37 0 0 0 3.027-1.535c1.432-.81 2.827-2.394 3.346-3.08l.27-.433l.6-.287c-.297-.416-.886-1.351-.87-1.762c.016-.41-.108-1.313-.168-1.719l.665.292c.006-.119-.47-.692-.713-.968l.324-.086l-.508-.157l-.362-.649l.87.282l-.276-.384l.433-.281l-.568-.108l.514-.541l-.914.2l.303-.562c.119-.146.378-.46.416-.557s-.108-.13-.184-.13l.135-.302h-.67l.303-.314h-.595V6.535l-.119-.405l.411-.622l-.476.195c.146-1.233-1.162-1.054-1.837-.811c-.006-1.362-1.444-1.784-2.162-1.827l.13.092a2.19 2.19 0 0 1 1.432 2.075l-.379-.394c-.135-.61-.767-1.806-2.248-1.676c-1.481.12-2.865-.216-3.373-.389c.07.216.816.524 1.183.649c-1.837.356-2.486-.676-2.583-1.238c-.373.324-.47 1.378-.476 1.87c-.449.054-.79-.443-.903-.703c-.351.254-.492.876-.519 1.157c-.286-.108-.405-.767-.432-1.08c-.222.145-.416 1-.487 1.404C5.162 4.114 4.8 6 4.8 7.038"/><path fill="#F0F3FA" d="m16.2 7.184l.935-1.514c.345-.113.686-.162.994-.08c.935.253.54 2.4.222 3.442c-.422-.48-1.297-1.35-2.152-1.848m-7.146-.357c-1.087.205-2.541 1.557-3.136 2.205c-.324-1.043-.735-3.189.238-3.443c.973-.248 2.34.72 2.898 1.238m11.275 8.114c.065.205.162.578.195.95l-.081.13c-.52.693-1.914 2.282-3.352 3.087a35 35 0 0 1-3.027 1.535c-.432.098-1.351.427-1.562.925h-.13l-.156.21a2.4 2.4 0 0 0-.146-.454c-.049-.065-.125.195-.162.335a3.3 3.3 0 0 0-1.73-1.091c-1.211-.34-3.427-1.541-4.108-2.173l-.125-.108c-.6-.563-1.654-1.536-2.054-2.027c-.065-.638-.016-1.46.487-1.709c.649-.324 1.432-.086 1.74.076c.67.476 2.184 1.384 2.87 1.195a6.2 6.2 0 0 0 1.747-.881a3.3 3.3 0 0 1 1.335-.314c.567 0 1.21.21 1.46.313l1.583.882c.486.075 1.773-.065 3.022-1.195a1.47 1.47 0 0 1 1.26-.308c.588.135.864.476.934.621m-6.519-3.492c-.578.378-.432.913-.292 1.13c.654.486 1.368-.184 1.74-.536q.084-.08.174-.151c.367-.287.567-.319.79-.351l.085-.017c-.594-.183-1.924-.46-2.497-.075m-3.73 1.362c.146-.216.298-.649-.28-1.027c-.574-.384-2.022.043-2.579.513c.07.017.151.017.238.022c.26.01.595.022.908.26l.054.043c.297.232.93.724 1.665.189z"/><path fill="#5F534A" d="M19.443 7.535a5 5 0 0 1-1.027-.054a2.44 2.44 0 0 0-1.46.227c.109.481.774 1.114 1.092 1.373c-.216.016-.648.07-.594.173c.065.103.303.205.41.249c-.14.048-.2.119-.21.151c.2.297.903.724 1.232.897c-.054.173-.416.12-.589.076c.125.46.762.703 1.065.757c-.027.432-.01 1.87 0 2.54c.254-.33.508-1.146.605-1.513c.12.648.335 1.13.536 1.443a.9.9 0 0 1-.06-.308c.016-.41-.108-1.314-.162-1.719l.66.292c.005-.119-.471-.692-.714-.968l.324-.086l-.508-.157l-.362-.649l.87.282l-.27-.384l.432-.281l-.573-.108l.514-.541l-.914.2l.303-.562c.119-.146.379-.46.416-.557c.044-.097-.108-.13-.183-.13l.135-.302h-.67l.302-.314h-.595v-.027z"/><path fill="#5E5149" d="M8.595 7.049c-.778.448-2.33.794-2.362-1.406c.195.325.757.957 1.47.935a2.6 2.6 0 0 1-1.135-1.762l.049.022c.065-.41.26-1.265.486-1.416c.022.319.14.973.427 1.08c.027-.275.162-.897.52-1.145c.107.254.453.751.902.697c0-.486.108-1.551.475-1.87c.092.562.741 1.594 2.584 1.243c-.367-.13-1.113-.432-1.189-.654c.514.178 1.892.508 3.378.384c1.482-.125 2.108 1.07 2.244 1.675l.384.406a2.195 2.195 0 0 0-1.433-2.081l-.13-.092c.72.043 2.157.465 2.162 1.827l.07-.022c-.07.362-.194.757-.4 1.033c-.394.54-.729 1.162-.848 1.405l-.146-.08l-.108-.65l-.238.287l-.275-.416l-.109.416l-.686-.649c-.195.054-.795.135-1.697 0a1.1 1.1 0 0 0 .621.362c-.621.125-2.06.292-2.832 0c.054.109.216.336.416.352c-.378.038-1.216.021-1.546-.352c.006.109.054.341.19.379a.33.33 0 0 1-.298 0c.005.065.038.205.108.254c-.06.005-.232-.022-.454-.162l-.054.005c-.119.022-.373.06-.551-.005z"/><path fill="#72572F" d="M4.778 7.06c-.481.432-1.205.443-1.719.362a2 2 0 0 1-.378-.087l.356.292l.109.087h-.39q.252.269.54.497c.19.13 1.158.113 1.623.092c-.228.324-.676 1.016-.676 1.221s.086.546.135.692c.022.298.054 1.011 0 1.492c-.027.222-.178.54-.362.843a9 9 0 0 1-.611.881c.443-.292.74-.54.838-.621l-.038.06l.103-.109c.054.314.183.979.232 1.162c.049.184.173.12.233.065c.027-.319.086-1.08.091-1.622c.006-.378.12-.983.227-1.47c.092-.297.206-.578.352-.81c-.308-.752-.74-2.811-.081-5.103C4.929 5.47 4.8 6.41 4.8 7.038l-.017.016h-.005z"/><path fill="#070201" d="m3.811 16.146l.114-.303l.08-.167l-.216-.14c.103-.109.282-.303.217-.271c-.07.027-.217.01-.281 0c.124-.152.335-.422.2-.314a.5.5 0 0 1-.363.092c.368-.308.509-1.405.53-1.908q-.146.379-.216.779c-.108.578-.654 1.194-.919 1.432l.449-.087l-.195.325l.195.146c.075-.011.248.032.335.297c.01.027.032.07.07.119m16.633-2.59l-.092-.037c.064.4.26 1.281.508 1.573c-.076.021-.254.032-.325-.081c.017.097.087.292.217.324a.27.27 0 0 1-.292.065l.119.178a.24.24 0 0 1-.179 0c-.07-.027.06.163.135.265h.017l.162-.254l.6-.28c-.292-.412-.876-1.33-.87-1.752"/><path fill="#010101" fill-rule="evenodd" d="M11.81 17.422c-.491-.465-1.22-1.47-.2-1.73h1.2c.422.108.947.605-.28 1.73c.302.216 1.26.394 1.702.46c.13 0 .384.053.346.27c-.037.216-.302.216-.432.194l-.681-.108c-.243.07-.843.216-1.308.216a4.7 4.7 0 0 1-1.243-.216l-.757.108c-.076-.027-.227-.119-.227-.27c0-.162.151-.195.227-.195c.502-.021 1.313-.313 1.66-.46zm-.41.724c.29-.065.571-.17.832-.314c.2.114.649.341.827.314c-.756.162-1.421.065-1.66 0" clip-rule="evenodd"/><path fill="#FDFEFE" d="M12.038 16.054c0 .151-.13.27-.281.27a.28.28 0 0 1-.281-.27a.28.28 0 0 1 .562-.005z"/><path fill="#E6E6E6" d="M12.703 19.319c0 .135-.216.249-.47.249c-.26 0-.47-.109-.47-.249s.21-.249.47-.249s.47.108.47.249"/><path fill="#000" d="M9.432 7.168a1.2 1.2 0 0 1-.237-.12h-.011c-.995-.826-1.525-1.567-1.768-2.178a2.4 2.4 0 0 1-.184-.773c.07.195.163.362.298.411l.01-.092c.028.108.065.233.12.362c.232.579.756 1.325 1.81 2.173c.054.044.06.125.017.179a.13.13 0 0 1-.055.038m6.082-.67l-.033-.05l-.108.417l-.686-.649c-.152.043-.563.103-1.168.054a3.8 3.8 0 0 1-1.384-.567a4.8 4.8 0 0 1-1.4-1.416a.124.124 0 0 1 .043-.173a.13.13 0 0 1 .179.043a4.7 4.7 0 0 0 1.319 1.335a3.3 3.3 0 0 0 1.989.578a5 5 0 0 0-.784-.308a.124.124 0 0 1-.086-.157a.13.13 0 0 1 .162-.086c.265.076.68.232 1.07.454c.222.13.449.286.627.465l.135-.292c.027-.065.108-.097.168-.065c.065.027.097.103.07.162zm.659.767l-.07-.038l-.076-.46l.195-.486c.35-.854.162-1.551-.211-2.086a3.35 3.35 0 0 0-1.206-1.011c1.054.194 1.53 1.135 1.638 1.654l.195.2a2.2 2.2 0 0 1-.038.913q.05-.111.086-.227c.022-.119.011-.378-.032-.67l.173.184a2.33 2.33 0 0 0-.46-1.379a.13.13 0 0 1 .163.044c.184.254.297.643.362.994c.065.352.081.692.054.865q-.057.18-.135.352q-.305.584-.638 1.15M11.53 3.487c.151-.011.308-.033.48-.065a7 7 0 0 1-.377-.146c.675.027 1.702.183 2.583.556c.881.379 1.654.984 1.746 1.946a.13.13 0 0 1-.26.022c-.075-.816-.74-1.373-1.588-1.73c-.844-.362-1.838-.513-2.487-.54a.13.13 0 0 1-.097-.043m-2.827.54q.12.042.248.027v-.103c.146.363.357.795.611 1.19c.357.556.784 1.01 1.244 1.135c.07.021.108.092.091.162a.13.13 0 0 1-.063.077a.13.13 0 0 1-.099.01c-.557-.157-1.027-.687-1.394-1.244a7.6 7.6 0 0 1-.638-1.254m-.411-.292q.121.14.281.233c.027.264.081.54.162.816a2.65 2.65 0 0 0 1.351 1.675c.06.028.087.103.054.163a.13.13 0 0 1-.172.06a2.9 2.9 0 0 1-1.476-1.823a4.6 4.6 0 0 1-.2-1.124M6.232 5.66c.038 2.184 1.59 1.838 2.357 1.39l.081.021l.13-.092l-.254-.07a2.2 2.2 0 0 1-.422-.162a2.74 2.74 0 0 1-1.146-1.21a4 4 0 0 1-.324-.882l-.038.184l-.048-.022a2.6 2.6 0 0 0 1.135 1.762c-.098 0-.195-.005-.281-.027l.037.044l-.102-.054a2.1 2.1 0 0 1-1.114-.882zm.67.887c.325.243.725.454 1.136.438l.173.08a1.35 1.35 0 0 1-.94.158c-.32-.087-.644-.368-.822-1.081c.135.14.286.28.454.405m10.276 1.308l.017-.01a2 2 0 0 1 .475-.13c.427-.07 1.07-.076 2 .086a.126.126 0 1 0 .081-.238h-.308v-.027a5 5 0 0 1-1.027-.054a2.44 2.44 0 0 0-1.46.227c.05.216.217.47.406.703a1.9 1.9 0 0 0 1.492.335c.54-.087 1.06-.34 1.433-.595l.124-.275h-.26c-.73.275-1.389.21-1.632.14a.13.13 0 0 0-.162.087a.14.14 0 0 0 .092.162c.189.054.562.097 1.021.038a2.8 2.8 0 0 1-.66.189a1.6 1.6 0 0 1-1.632-.638m3.027.81c-1.124.482-2.108.19-2.448 0a.13.13 0 0 0-.152.012c.14.146.287.27.395.362c.46.146 1.162.232 1.957-.011l.086-.162c.044-.054.108-.124.162-.206zm-.464.763l-2.227-.254q-.084.04-.055.081c.055.103.298.205.406.249c-.14.048-.2.119-.21.151c.2.297.902.724 1.232.897a.13.13 0 0 1-.033.054c.173.103.351.2.53.281l-.016.265a1.1 1.1 0 0 1-.66-.232a1.3 1.3 0 0 1-.27-.265l-.14-.027c.124.46.762.703 1.064.757c-.027.432-.01 1.87 0 2.54c.254-.33.508-1.146.606-1.513c.082.46.237.903.46 1.313a.1.1 0 0 0 .031-.021a.7.7 0 0 1-.016-.157v-.195l-.378-1.497l-.254.043q.017.156-.038.416a5 5 0 0 1-.27.87l.13-2.188c.162.059.318.108.459.13c.07.01.14-.039.151-.109v-.049l-.2-.053l-.037-.07a4.7 4.7 0 0 1-1.168-.541a10 10 0 0 1-.881-.595q.68.24 1.351.498q.244.095.292.135a.13.13 0 0 0 .13.005l-.049-.081l.108.032a.124.124 0 0 0-.043-.167a2.3 2.3 0 0 0-.34-.162q-.628-.255-1.27-.465l1.653.189a.133.133 0 0 0 .146-.114a.13.13 0 0 0-.113-.14zM2.827 7.789c.162.043.351.081.551.108c.4.054.865.065 1.298-.054a.135.135 0 0 0 .092-.162a.13.13 0 0 0-.163-.086c-.383.108-.81.108-1.189.054a4 4 0 0 1-.465-.092l.19.162h-.379z"/><path fill="#000" d="M4.806 6.795q-.01.759.08 1.513l.028-.005l-.022.038c.076.675.195 1.28.298 1.68a.8.8 0 0 0-.13.195a.7.7 0 0 1-.179-.34a1.5 1.5 0 0 1-.043-.487a.13.13 0 0 0-.119-.13a.13.13 0 0 0-.14.114c-.011.14-.006.357.054.568c.048.194.146.405.335.524a3 3 0 0 0-.065.232l-.519-.405l.016.34l.444.341a20 20 0 0 0-.217 1.616l-.037-.26l-.768.53a9 9 0 0 1-.416.573c.443-.291.74-.54.838-.621l-.06.108l.206-.14l.15 1.091l.26-.01q.066-1.428.298-2.838l.005-.011a.12.12 0 0 0 .022-.124a5 5 0 0 1 .178-.573c.043-.087.081-.13.103-.141l.075-.054l-.021-.087a13.5 13.5 0 0 1-.357-2.162c-.07-.897-.054-1.86.157-2.648a.12.12 0 0 0-.011-.092a3.5 3.5 0 0 0-.443 1.665"/><path fill="#020206" d="M10.043 14.14c-.054.39-.703.628-1.46.53c-.751-.092-1.335-.357-1.27-.875c.054-.39.568-.644 1.46-.53c.756.092 1.432.335 1.27.876m4.275.038c.055.39.703.627 1.46.535c.757-.097 1.34-.356 1.27-.875c-.054-.39-.567-.649-1.46-.535c-.756.097-1.426.34-1.27.875"/><path fill="#F0F3FA" d="M8.292 13.568a.16.16 0 0 1-.162.162a.16.16 0 0 1-.122-.044a.16.16 0 0 1-.051-.118a.167.167 0 0 1 .335 0m7.243 0a.16.16 0 0 1-.162.162a.16.16 0 0 1-.122-.044a.16.16 0 0 1-.051-.118a.167.167 0 0 1 .335 0"/><path fill="#000" d="m9.492 2l.032.168c.044.259.217.632.595.902c.324.227.81.379 1.513.314l-.367-.162a2.5 2.5 0 0 1-.454-.298a.3.3 0 0 1-.081-.124l-.054-.184l.183.065c.498.178 1.865.503 3.33.378c.773-.059 1.33.217 1.708.595c.311.314.531.706.638 1.135l.184.19a2.08 2.08 0 0 0-1.357-1.73l-.01-.006l-.417-.292l.335.022c.373.022.93.14 1.395.432c.443.27.81.703.86 1.352c.334-.108.778-.184 1.15-.108c.217.043.406.14.541.319c.108.146.162.34.162.594l.617-.26l-.557.844l.108.378v.94h.724l-.302.314h.594l-.146.325l.038.016a.2.2 0 0 1 .092.081a.16.16 0 0 1 0 .14a4 4 0 0 1-.427.574l-.195.378l1.017-.216l-.606.627l.627.13l-.546.35l.379.541l-.909-.297l.222.4l.784.243l-.492.135q.29.341.551.703l.06.108c.01.027.032.065.027.108c0 .054-.054.092-.108.092a.1.1 0 0 1-.044-.016l-.486-.216c.065.448.157 1.194.14 1.567c0 .081.028.206.082.352s.135.313.227.475c.178.335.4.67.54.876l.07.092l-.68.319l-.255.41c-.524.703-1.93 2.298-3.378 3.114a35 35 0 0 1-3.038 1.54h-.016a5 5 0 0 0-.843.309c-.309.162-.563.351-.654.567l-.027.055h-.146l-.249.34l-.054-.2q-.03-.135-.07-.27l-.044.151l-.054.21l-.124-.178a3.23 3.23 0 0 0-1.676-1.054a13 13 0 0 1-2.27-.983c-.669-.335-1.3-.74-1.881-1.211l-.119-.108c-.346-.325-.832-.773-1.265-1.19a16 16 0 0 1-.848-.918a.7.7 0 0 1-.12-.195c-.075-.227-.205-.232-.226-.227l-.044.005l-.292-.232l.125-.205l-.562.108l.248-.227a3.7 3.7 0 0 0 .498-.573c.178-.249.335-.54.378-.811c.054-.297.135-.557.21-.751c-.14.108-.318.232-.524.367l-.13-.135a8.5 8.5 0 0 0 .822-1.287c.07-.15.114-.286.13-.394c.054-.46.022-1.157 0-1.46a3 3 0 0 1-.135-.708a.4.4 0 0 1 .027-.13l.054-.145l.184-.34c.103-.174.216-.358.319-.504q-.59.017-1.179-.027a2 2 0 0 1-.173-.037a.5.5 0 0 1-.135-.055a4 4 0 0 1-.557-.508l-.145-.162h.335l-.26-.21l.092-.163c.216.07.578.14.962.12a1.65 1.65 0 0 0 1.027-.368c.011-.52.103-1.244.379-1.763c.14-.27.34-.486.605-.594c.243-.092.53-.081.865.06c.032-.2.092-.455.162-.693c.038-.14.092-.28.14-.394c.055-.108.12-.216.2-.27l.136-.092l.016.167c.01.152.043.39.108.595q.049.17.146.319c.027-.13.065-.287.124-.444c.081-.227.217-.464.417-.605l.097-.07l.049.108c.054.119.156.292.302.432c.12.12.26.2.411.211c.01-.248.038-.594.103-.924c.038-.19.086-.373.146-.53a1 1 0 0 1 .26-.394zm11.232 9.919l-.124-.162a8 8 0 0 0-.449-.54l-.097-.114l.157-.043l-.238-.07l-.492-.893l.822.265l-.163-.232l.32-.206l-.509-.102l.416-.433l-.81.179l.405-.757l.006-.011q.206-.25.394-.514a.3.3 0 0 0-.086-.016h-.146l.13-.302h-.747l.303-.309h-.47V6.551l-.119-.432l.26-.4l-.336.14l.017-.162c.037-.297-.017-.486-.108-.621a.66.66 0 0 0-.422-.238a2.4 2.4 0 0 0-1.173.14l-.13.054v-.14c-.005-.638-.346-1.06-.773-1.324a2.7 2.7 0 0 0-.724-.309a2.34 2.34 0 0 1 1.086 1.979v.232l-.567-.589l-.006-.022a2.26 2.26 0 0 0-.594-1.07a1.88 1.88 0 0 0-1.552-.54c-1.167.102-2.27-.081-2.951-.249l.097.049c.238.119.514.221.692.286l.335.114l-.35.07c-.942.178-1.59.005-2.023-.297a1.65 1.65 0 0 1-.627-.827a2.8 2.8 0 0 0-.232.68a5.5 5.5 0 0 0-.097.974v.086l-.087.011c-.27.032-.492-.097-.66-.26a2 2 0 0 1-.286-.378a1.3 1.3 0 0 0-.26.443a2.5 2.5 0 0 0-.129.563l-.01.124l-.12-.043a.5.5 0 0 1-.238-.206a1.4 1.4 0 0 1-.135-.319a3 3 0 0 1-.092-.389v.01a2 2 0 0 0-.14.368a7 7 0 0 0-.179.795l-.021.13l-.119-.06c-.346-.173-.61-.183-.816-.108c-.211.081-.379.26-.508.503c-.26.492-.352 1.205-.352 1.719v.038l-.032.027c-.324.319-.773.432-1.184.448c-.222.011-.438 0-.627-.032l.357.292h-.427c.108.108.254.238.367.324a.3.3 0 0 0 .076.022l.151.032q.665.049 1.33.022l.2-.016L5 8.357q-.324.47-.595.973a1 1 0 0 0-.064.194c0 .19.086.52.13.665v.017c.026.302.059 1.026 0 1.513c-.017.13-.066.286-.141.443a4.7 4.7 0 0 1-.498.854c.173-.13.292-.232.346-.275l.146.118c-.07.109-.254.498-.356 1.07c-.074.32-.214.62-.411.882c-.108.146-.216.27-.308.378l.351-.06l-.26.428l.098.075c.13.006.308.098.394.363q.135.201.292.383c.168.19.39.416.633.649q.68.66 1.378 1.297c.324.308 1.043.762 1.838 1.184a12.7 12.7 0 0 0 2.232.968c.632.17 1.205.508 1.66.978l.027-.076a.4.4 0 0 1 .06-.108a.13.13 0 0 1 .08-.054a.14.14 0 0 1 .12.054l.048.103q.03.09.054.184l.07-.081h.12c.134-.26.426-.46.718-.606c.314-.162.649-.27.876-.324c.416-.173 1.589-.719 3.01-1.519c1.412-.795 2.795-2.368 3.314-3.06l.281-.448l.524-.249a8 8 0 0 1-.491-.8q-.136-.243-.238-.503c-.054-.15-.098-.302-.092-.427c.016-.4-.108-1.297-.162-1.697l-.033-.173z"/><defs><linearGradient id="tokenBrandedElon0" x1="12" x2="12" y1="2" y2="22" gradientUnits="userSpaceOnUse"><stop offset=".46" stop-color="#FBB86A"/><stop offset="1" stop-color="#FBE9B6"/></linearGradient></defs></g></svg>