<svg xmlns="http://www.w3.org/2000/svg" xmlns:xlink="http://www.w3.org/1999/xlink" width="24" height="24" viewBox="0 0 24 24"><g fill="none"><path fill="#8D6521" d="M22 12a10 10 0 1 1-20 0a10 10 0 0 1 20 0m-10 9.413a9.413 9.413 0 1 0 0-18.826a9.413 9.413 0 0 0 0 18.826"/><path fill="#D8B343" d="M20.937 12a8.937 8.937 0 1 1-17.874 0a8.937 8.937 0 0 1 17.874 0"/><path fill="#FFEC62" d="M21.562 12a9.563 9.563 0 1 1-19.125 0a9.563 9.563 0 0 1 19.125 0M12 20.937a8.938 8.938 0 1 0 0-17.876a8.938 8.938 0 0 0 0 17.876"/><path fill="#FCDB5F" d="m7.18 19.531l9.163-15.343a8.6 8.6 0 0 1 1.775 1.3L9.168 20.48a9.2 9.2 0 0 1-1.987-.95M20.013 8.025l-2.225 3.787l-1.306-.762l2.625-4.469c.35.45.65.938.906 1.444"/><path fill="#BB8B25" d="M20.938 12.306a9.3 9.3 0 0 1-.257 1.838c-.75.619-1.65 1.618-2.437 2.5c-.407.456-.782.88-1.1 1.206c1.131-2.125 2.768-4.3 3.794-5.544"/><path fill="#ECCE46" d="M10.212 3.237C9.306 4.313 8.406 6.05 8.287 8.544L6.4 12.319c-.613-1.188-1.231-4.125.3-7.519a8.9 8.9 0 0 1 3.512-1.563"/><path fill="#FADA5E" d="M12.812 3.094a9 9 0 0 1 2.094.45l-1.981 4.575l-.906-1.581l.793-3.438z"/><path fill="#8D6521" fill-rule="evenodd" d="M12 19.2a7.2 7.2 0 1 0 0-14.402A7.2 7.2 0 0 0 12 19.2m0 .188a7.387 7.387 0 1 0 0-14.775a7.387 7.387 0 0 0 0 14.775" clip-rule="evenodd"/><path fill="#8D6521" fill-rule="evenodd" d="M12 18.088a6.087 6.087 0 1 0 0-12.175a6.087 6.087 0 0 0 0 12.174m0 .187a6.274 6.274 0 1 0 0-12.549a6.274 6.274 0 0 0 0 12.549" clip-rule="evenodd"/><path fill="#B88829" d="M17.631 12a5.632 5.632 0 1 1-11.256 0a5.631 5.631 0 0 1 11.25 0z"/><path fill="#8D6521" fill-rule="evenodd" d="M12 17.444a5.444 5.444 0 1 0 0-10.888a5.444 5.444 0 0 0 0 10.888m0 .187a5.633 5.633 0 0 0 4.102-9.676A5.63 5.63 0 0 0 12 6.375a5.631 5.631 0 0 0 0 11.25z" clip-rule="evenodd"/><path fill="#FCDB5F" d="m14.625 20.55l1.094-2.163a7.4 7.4 0 0 0 2.062-1.793l-1.706 3.362a9 9 0 0 1-1.456.594z"/><path fill="url(#tokenBrandedElu0)" d="m9.825 13.838l2.225 3.493c.412-.437 1.275-1.368 1.45-1.569c.175-.206.244-.4.25-.475c1.25-2.5.731-4.75-.788-9.593l-.912-1.788l-.975 1.669c-.825 2.5-1.175 6.55-1.25 8.263"/><path fill="#341902" d="m12.056 3.706l.994 1.95v.007c1.512 4.825 2.056 7.124.793 9.656c-.018.1-.093.3-.268.5a126 126 0 0 1-1.457 1.575l-.08.087l-2.313-3.619v-.024c.08-1.72.43-5.782 1.256-8.294v-.006zm-.9 1.907c-.813 2.468-1.163 6.475-1.238 8.2l2.144 3.362a91 91 0 0 0 1.369-1.475c.162-.188.225-.375.231-.425v-.013l.006-.012c1.232-2.456.725-4.681-.793-9.525L12.043 4.1z"/><path fill="#FFFFE6" d="m11.85 6.15l.35-1.637l.612 1.312l-.456 2.312z"/><path fill="#FFF894" d="m11.85 6.15l.35-1.637l.612 1.312z"/><path fill="#E7C233" d="m11.494 9.775l.862-1.669l-.493-1.937l-.625-.344L10.6 8.95z"/><path fill="url(#tokenBrandedElu1)" d="m11.462 10.213l-.83-1l-.488 2.987s.15.275.406.206c.25-.069.412-.219.456-.287z"/><path fill="url(#tokenBrandedElu2)" d="m11.593 10.144l.794-1.907l1.125 1.57l-.906 1.924z"/><path fill="url(#tokenBrandedElu3)" d="m13.769 9.925l-1.044 2.162a.18.18 0 0 0 .087.25c.438.107 1.15.5 1.45.675c.163-1.243-.262-2.575-.494-3.087"/><path fill="url(#tokenBrandedElu4)" d="m12.456 11.95l-.913-1.312l-.487 1.562l.862 1.169c.125-.2.4-.644.538-.844c.131-.206.056-.469 0-.575"/><path fill="url(#tokenBrandedElu5)" d="m12.575 12.644l-.713 1.075c-.05.325.482 1.225.763 1.606l.706.012l-.756.088c-.15.312-.394.875-.494 1.062a.65.65 0 0 0 0 .538c.4-.431 1.244-1.35 1.4-1.562c.275-.37.675-2.082.563-2.182c-.125-.1-.463-.375-.832-.637c-.362-.275-.575-.113-.637 0"/><path fill="url(#tokenBrandedElu6)" d="M10.231 12.825c-.3.25-.294.769-.25 1l1.85 2.912l.606-1.48l-1.562-2.77c-.094.013-.35.094-.644.338"/><path fill="url(#tokenBrandedElu7)" d="m12.475 8.169l1.281 1.556c0-1.269-.55-2.787-.893-3.762z"/><path fill="#FFDA55" d="m11.8 6.012l-.525-.25l.825-1.487z"/><path fill="url(#tokenBrandedElu8)" d="m14.606 11.694l.337 1.843l.875-.412a.5.5 0 0 0 .188-.15c.95-.831 1.112-1.869 1.306-4.156l-.075-.9l-.694.531a16.8 16.8 0 0 0-1.937 3.25z"/><path fill="#341902" d="m17.312 7.737l.094 1.082v.012c-.187 2.269-.356 3.344-1.331 4.206a.6.6 0 0 1-.213.175l-.875.407l-.112.056l-.363-1.994l.013-.025a17 17 0 0 1 1.944-3.269l.006-.006l.844-.644zm-.706.782a16.7 16.7 0 0 0-1.9 3.187l.313 1.694l.756-.356a.4.4 0 0 0 .15-.119l.006-.013l.013-.012c.912-.8 1.08-1.794 1.275-4.081l-.063-.725z"/><path fill="#FFFFE6" d="m16.769 8.819l.425-.625l.03.656l-.587.887z"/><path fill="#FFF894" d="m16.768 8.819l.425-.625l.032.656z"/><path fill="#E7C233" d="m16 10.281l.644-.556l.125-.894l-.2-.25l-.8 1.2z"/><path fill="url(#tokenBrandedElu9)" d="m15.912 10.456l-.175-.562l-.718 1.168s.018.138.137.157a.38.38 0 0 0 .238-.044z"/><path fill="url(#tokenBrandedElua)" d="m15.981 10.45l.656-.663l.206.85l-.712.65z"/><path fill="url(#tokenBrandedElub)" d="m16.93 10.731l-.812.725c-.05.044-.025.1 0 .125c.163.12.394.4.488.525c.28-.493.33-1.125.325-1.375"/><path fill="url(#tokenBrandedEluc)" d="m16.03 11.356l-.156-.706l-.475.569l.163.637l.375-.262c.088-.063.1-.188.094-.238"/><path fill="url(#tokenBrandedElud)" d="m15.962 11.662l-.481.332c-.075.125-.006.593.043.8l.294.125l-.331-.088l-.388.356a.3.3 0 0 0-.093.225c.243-.112.75-.35.856-.412c.257-.225.463-.502.606-.813l-.237-.412c-.107-.175-.225-.15-.269-.113"/><path fill="url(#tokenBrandedElue)" d="M14.95 11.338c-.169.056-.25.275-.275.375l.275 1.537l.512-.512l-.187-1.432a.7.7 0 0 0-.325.032"/><path fill="url(#tokenBrandedEluf)" d="m16.687 9.775l.27.869c.218-.531.25-1.263.268-1.725l-.544.856z"/><path fill="#FFDA55" d="m16.769 8.75l-.175-.187l.6-.482l-.425.675z"/><path fill="url(#tokenBrandedElug)" d="m15.83 14.125l-.087 2.637l1.294-.38a.76.76 0 0 0 .294-.182c1.506-.956 2.031-2.362 2.944-5.5l.162-1.281l-1.081.593c-1.294 1.1-2.888 3.2-3.525 4.12z"/><path fill="#341902" d="m20.55 9.25l-.181 1.463v.006c-.913 3.13-1.444 4.575-2.982 5.556a.8.8 0 0 1-.325.188c-.162.062-.93.287-1.287.393l-.125.031l.087-2.787l.013-.025c.637-.912 2.244-3.025 3.544-4.131l.006-.006zm-1.144.844c-1.269 1.081-2.837 3.143-3.481 4.062l-.081 2.481c.393-.112 1.018-.3 1.162-.35a.6.6 0 0 0 .25-.143l.013-.013l.012-.006c1.469-.937 1.988-2.306 2.906-5.45l.132-1.081z"/><path fill="#FFFFE6" d="m19.55 10.581l.75-.781l-.15.919l-1.038 1.118z"/><path fill="#FFF894" d="m19.55 10.581l.75-.781l-.15.919z"/><path fill="#E7C233" d="m18.1 12.45l1.025-.631l.425-1.225l-.2-.388l-1.413 1.5z"/><path fill="url(#tokenBrandedEluh)" d="m17.931 12.681l-.075-.812l-1.294 1.469s-.019.193.138.243a.5.5 0 0 0 .33-.006z"/><path fill="url(#tokenBrandedElui)" d="m18.025 12.687l1.068-.787l.032 1.225l-1.138.756z"/><path fill="url(#tokenBrandedEluj)" d="m19.212 13.275l-1.288.837a.125.125 0 0 0-.05.169c.188.207.42.644.507.844c.416-.544.7-1.178.831-1.85"/><path fill="url(#tokenBrandedEluk)" d="m17.831 12.937l-.8.7l.031.913l.569-.281c.137-.07.188-.238.2-.313z"/><path fill="url(#tokenBrandedElul)" d="m17.65 14.375l-.738.356c-.138.156-.188.825-.175 1.125l.356.238l-.419-.2l-.618.418a.44.44 0 0 0-.188.294c.356-.106 1.106-.331 1.263-.4c.41-.263.765-.605 1.043-1.006l-.193-.625c-.094-.262-.257-.25-.332-.206z"/><path fill="url(#tokenBrandedElum)" d="M16.387 13.706c-.232.038-.413.325-.475.463l-.069 2.2l.825-.613l.169-2.025a.9.9 0 0 0-.45-.025"/><path fill="url(#tokenBrandedElun)" d="m19.162 11.894l.113 1.262c.437-.687.687-1.7.856-2.344z"/><path fill="#FFDA55" d="m19.569 10.494l-.175-.313l.937-.543z"/><path fill="url(#tokenBrandedEluo)" d="m8.15 14.125l.08 2.637l-1.287-.38a.7.7 0 0 1-.294-.182c-1.506-.956-2.03-2.362-2.943-5.5l-.163-1.281l1.081.593c1.294 1.1 2.888 3.2 3.525 4.12z"/><path fill="#341902" d="m3.431 9.25l.182 1.463v.006c.912 3.13 1.437 4.575 2.98 5.556c.05.05.163.138.326.188c.162.062.925.287 1.287.393l.125.031l-.087-2.787l-.019-.025c-.631-.912-2.237-3.025-3.537-4.131l-.007-.006zm1.144.844c1.269 1.081 2.838 3.143 3.481 4.062l.082 2.481c-.394-.112-1.02-.3-1.163-.35a.6.6 0 0 1-.25-.143l-.012-.013l-.013-.006c-1.469-.937-1.987-2.306-2.906-5.45l-.131-1.081z"/><path fill="#FFFFE6" d="m4.431 10.581l-.75-.781l.15.919l1.038 1.118z"/><path fill="#FFF894" d="m4.431 10.581l-.75-.781l.15.919z"/><path fill="#E7C233" d="m5.875 12.45l-1.02-.631l-.424-1.225l.2-.388l1.412 1.5l-.162.744z"/><path fill="url(#tokenBrandedElup)" d="m6.05 12.681l.075-.812l1.293 1.469s.013.193-.137.243a.5.5 0 0 1-.331-.006z"/><path fill="url(#tokenBrandedEluq)" d="M5.956 12.687L4.887 11.9l-.03 1.225l1.137.756z"/><path fill="url(#tokenBrandedElur)" d="m4.769 13.275l1.287.837c.088.057.063.138.044.17q-.303.39-.5.843a4.44 4.44 0 0 1-.831-1.85"/><path fill="url(#tokenBrandedElus)" d="m6.15 12.937l.8.7l-.032.913l-.568-.281c-.144-.07-.188-.238-.2-.313z"/><path fill="url(#tokenBrandedElut)" d="m6.331 14.375l.738.356c.137.156.187.825.168 1.125l-.35.238l.413-.2l.625.418a.48.48 0 0 1 .187.294c-.356-.106-1.106-.331-1.262-.4A3.7 3.7 0 0 1 5.806 15.2L6 14.575c.094-.262.256-.25.331-.206z"/><path fill="url(#tokenBrandedEluu)" d="M7.593 13.706c.232.038.413.325.475.463l.07 2.2l-.826-.613l-.169-2.025c.05-.025.213-.062.45-.025"/><path fill="url(#tokenBrandedEluv)" d="m4.819 11.894l-.113 1.262c-.437-.687-.687-1.7-.856-2.344z"/><path fill="#FFDA55" d="m4.412 10.494l.175-.313l-.937-.543z"/><path fill="url(#tokenBrandedEluw)" d="m9.394 11.694l-.338 1.843l-.875-.412a.5.5 0 0 1-.187-.15c-.944-.831-1.113-1.869-1.306-4.156l.075-.9l.7.531A16.8 16.8 0 0 1 9.4 11.7z"/><path fill="#341902" d="M6.687 7.737L6.593 8.82v.012c.188 2.269.356 3.344 1.332 4.206a.6.6 0 0 0 .218.175c.106.057.625.294.875.407l.113.056l.362-1.994l-.012-.025a17 17 0 0 0-1.95-3.269l-.006-.006zm.706.782a16.7 16.7 0 0 1 1.9 3.187L8.987 13.4l-.762-.356a.4.4 0 0 1-.15-.119v-.013l-.02-.012c-.912-.8-1.08-1.794-1.274-4.081l.062-.725z"/><path fill="#FFFFE6" d="m7.231 8.819l-.425-.625l-.03.656l.587.887l-.125-.918z"/><path fill="#FFF894" d="m7.231 8.819l-.425-.625l-.03.656z"/><path fill="#E7C233" d="m8 10.281l-.644-.556l-.125-.894l.2-.25l.8 1.2z"/><path fill="url(#tokenBrandedElux)" d="m8.087 10.456l.181-.562l.713 1.168s-.019.138-.138.157a.38.38 0 0 1-.237-.044z"/><path fill="url(#tokenBrandedEluy)" d="m8.019 10.45l-.657-.663l-.206.85l.713.65z"/><path fill="url(#tokenBrandedEluz)" d="m7.075 10.731l.806.725c.05.044.025.1.007.125c-.17.12-.4.4-.494.525a2.9 2.9 0 0 1-.319-1.375"/><path fill="url(#tokenBrandedElu10)" d="m7.968 11.356l.157-.706l.475.569l-.163.637l-.375-.262c-.087-.063-.1-.188-.094-.238"/><path fill="url(#tokenBrandedElu11)" d="m8.038 11.662l.48.332c.076.125.013.593-.043.8l-.294.125l.331-.088c.125.106.313.294.388.356a.33.33 0 0 1 .094.225q-.433-.195-.857-.412a2.4 2.4 0 0 1-.606-.813l.238-.412c.106-.175.225-.15.268-.113"/><path fill="url(#tokenBrandedElu12)" d="M9.05 11.338c.169.056.25.275.275.374L9.05 13.25l-.506-.512l.187-1.432a.7.7 0 0 1 .319.032"/><path fill="url(#tokenBrandedElu13)" d="m7.313 9.775l-.27.869c-.212-.531-.243-1.263-.268-1.725l.544.856z"/><path fill="#FFDA55" d="m7.231 8.75l.175-.187l-.6-.482l.425.675z"/><path fill="url(#tokenBrandedElu14)" d="M10.769 18.881a2.73 2.73 0 0 0 1.281 2.225c.388-.337 1.4-1.481 1.4-2.106c0-.406-1-1.012-1.4-1.125a3.36 3.36 0 0 0-1.281 1z"/><path fill="#341902" d="m12.05 17.769l.025.012c.486.174.927.456 1.287.825c.1.125.188.256.188.394c0 .175-.075.381-.182.587a6.8 6.8 0 0 1-1.256 1.594l-.05.044l-.062-.038a2.81 2.81 0 0 1-1.325-2.312v-.025l.018-.019c.132-.2.363-.425.607-.619c.25-.187.512-.356.718-.43zm0 .2c-.175.062-.407.212-.632.393c-.225.176-.437.376-.556.55c0 1.05.75 1.8 1.175 2.082A7 7 0 0 0 13.2 19.5c.1-.187.156-.369.156-.5c0-.062-.044-.156-.138-.269a3.35 3.35 0 0 0-1.162-.762z"/><path fill="url(#tokenBrandedElu15)" d="M12.031 18.019c-.5.256-.937.719-1.094.912c0 .732.52 1.406.775 1.656l.488-.506l-.856-.944c.325-.3.9-.712 1.143-.875z"/><path fill="url(#tokenBrandedElu16)" d="m12.238 19.081l-.488.357l-.312-.288l.412-.338z"/><path fill="url(#tokenBrandedElu17)" d="m12.506 18.312l-.562.5c.381.232.837.67 1.018.863c.663-.7-.03-1.206-.456-1.369z"/><path fill="url(#tokenBrandedElu18)" d="m12.337 19.25l-.437.287l.437.507l-.537.606l.25.238c.364-.32.652-.718.844-1.163z"/><defs><linearGradient id="tokenBrandedElu0" x1="11.998" x2="11.998" y1="2" y2="22" gradientUnits="userSpaceOnUse"><stop stop-color="#FEE481"/><stop offset=".4" stop-color="#FFFFBD"/><stop offset=".68" stop-color="#FFF88A"/><stop offset="1" stop-color="#F1E675"/></linearGradient><linearGradient id="tokenBrandedElu1" x1="11.953" x2="10.208" y1="2.039" y2="22.627" gradientUnits="userSpaceOnUse"><stop stop-color="#C18B00"/><stop offset="1" stop-color="#936200"/></linearGradient><linearGradient id="tokenBrandedElu2" x1="12.032" x2="12.032" y1="2" y2="22" gradientUnits="userSpaceOnUse"><stop stop-color="#FFF5D0"/><stop offset=".45" stop-color="#FFE373"/><stop offset="1" stop-color="#FFE78A"/></linearGradient><linearGradient id="tokenBrandedElu3" x1="8.218" x2="11.672" y1="8.883" y2="23.829" gradientUnits="userSpaceOnUse"><stop stop-color="#DAA400"/><stop offset="1" stop-color="#BC8600"/></linearGradient><linearGradient id="tokenBrandedElu4" x1="14.814" x2="11.938" y1="7.4" y2="18.067" gradientUnits="userSpaceOnUse"><stop stop-color="#D49B00"/><stop offset="1" stop-color="#FBC928"/></linearGradient><linearGradient id="tokenBrandedElu5" x1="12.012" x2="12.012" y1="2.005" y2="22" gradientUnits="userSpaceOnUse"><stop stop-color="#9D6900"/><stop offset="1" stop-color="#7F4F00"/></linearGradient><linearGradient id="tokenBrandedElu6" x1="12.013" x2="12.013" y1="2" y2="22" gradientUnits="userSpaceOnUse"><stop stop-color="#905E00"/><stop offset="1" stop-color="#BC9021"/></linearGradient><linearGradient id="tokenBrandedElu7" x1="7.464" x2="8.836" y1="3.329" y2="20.979" gradientUnits="userSpaceOnUse"><stop stop-color="#FFDB5B"/><stop offset="1" stop-color="#FFDF6A"/></linearGradient><linearGradient id="tokenBrandedElu8" x1="21.723" x2="17.305" y1="2.044" y2="24.509" gradientUnits="userSpaceOnUse"><stop offset=".4" stop-color="#FFFFBD"/><stop offset=".68" stop-color="#FFF88A"/></linearGradient><linearGradient id="tokenBrandedElu9" x1="19.622" x2="9.649" y1="2.47" y2="24.658" gradientUnits="userSpaceOnUse"><stop stop-color="#C18B00"/><stop offset="1" stop-color="#936200"/></linearGradient><linearGradient id="tokenBrandedElua" x1="18.811" x2="13.783" y1="2.417" y2="23.957" gradientUnits="userSpaceOnUse"><stop stop-color="#FFF5D0"/><stop offset=".45" stop-color="#FFE373"/><stop offset="1" stop-color="#FFE78A"/></linearGradient><linearGradient id="tokenBrandedElub" x1="11.891" x2="12.225" y1="7" y2="21.649" gradientUnits="userSpaceOnUse"><stop stop-color="#DAA400"/><stop offset="1" stop-color="#BC8600"/></linearGradient><linearGradient id="tokenBrandedEluc" x1="18.992" x2="11.953" y1="8.425" y2="20.082" gradientUnits="userSpaceOnUse"><stop stop-color="#D49B00"/><stop offset="1" stop-color="#FBC928"/></linearGradient><linearGradient id="tokenBrandedElud" x1="17.641" x2="10.114" y1="2.375" y2="24.722" gradientUnits="userSpaceOnUse"><stop stop-color="#9D6900"/><stop offset="1" stop-color="#7F4F00"/></linearGradient><linearGradient id="tokenBrandedElue" x1="20.73" x2="17.326" y1="2.653" y2="23.376" gradientUnits="userSpaceOnUse"><stop stop-color="#905E00"/><stop offset="1" stop-color="#BC9021"/></linearGradient><linearGradient id="tokenBrandedEluf" x1="19.931" x2="19.042" y1="3.159" y2="20.376" gradientUnits="userSpaceOnUse"><stop stop-color="#FFDB5B"/><stop offset="1" stop-color="#FFDF6A"/></linearGradient><linearGradient id="tokenBrandedElug" x1="22.186" x2="12.341" y1="2.085" y2="26.217" gradientUnits="userSpaceOnUse"><stop stop-color="#FEE481"/><stop offset=".4" stop-color="#FFFFBD"/><stop offset=".68" stop-color="#FFF88A"/></linearGradient><linearGradient id="tokenBrandedEluh" x1="22.182" x2="5.536" y1="2.575" y2="23.698" gradientUnits="userSpaceOnUse"><stop stop-color="#C18B00"/><stop offset="1" stop-color="#936200"/></linearGradient><linearGradient id="tokenBrandedElui" x1="22.989" x2="14.229" y1="2.568" y2="26.509" gradientUnits="userSpaceOnUse"><stop stop-color="#FFF5D0"/><stop offset=".45" stop-color="#FFE373"/><stop offset="1" stop-color="#FFE78A"/></linearGradient><linearGradient id="tokenBrandedEluj" x1="12.202" x2="10.86" y1="6.257" y2="21.628" gradientUnits="userSpaceOnUse"><stop stop-color="#DAA400"/><stop offset="1" stop-color="#BC8600"/></linearGradient><linearGradient id="tokenBrandedEluk" x1="21.218" x2="9.832" y1="8.899" y2="21.568" gradientUnits="userSpaceOnUse"><stop stop-color="#D49B00"/><stop offset="1" stop-color="#FBC928"/></linearGradient><linearGradient id="tokenBrandedElul" x1="19.615" x2="5.52" y1="2.603" y2="24.294" gradientUnits="userSpaceOnUse"><stop stop-color="#9D6900"/><stop offset="1" stop-color="#7F4F00"/></linearGradient><linearGradient id="tokenBrandedElum" x1="25.27" x2="19.815" y1="3.116" y2="26.213" gradientUnits="userSpaceOnUse"><stop stop-color="#905E00"/><stop offset="1" stop-color="#BC9021"/></linearGradient><linearGradient id="tokenBrandedElun" x1="19.806" x2="17.204" y1="3.067" y2="21.666" gradientUnits="userSpaceOnUse"><stop stop-color="#FFDB5B"/><stop offset="1" stop-color="#FFDF6A"/></linearGradient><linearGradient id="tokenBrandedEluo" x1="1.813" x2="11.649" y1="2.085" y2="26.226" gradientUnits="userSpaceOnUse"><stop stop-color="#FEE481"/><stop offset=".4" stop-color="#FFFFBD"/><stop offset=".68" stop-color="#FFF88A"/></linearGradient><linearGradient id="tokenBrandedElup" x1="1.817" x2="18.462" y1="2.575" y2="23.703" gradientUnits="userSpaceOnUse"><stop stop-color="#C18B00"/><stop offset="1" stop-color="#936200"/></linearGradient><linearGradient id="tokenBrandedEluq" x1="1.011" x2="9.77" y1="2.568" y2="26.509" gradientUnits="userSpaceOnUse"><stop stop-color="#FFF5D0"/><stop offset=".45" stop-color="#FFE373"/><stop offset="1" stop-color="#FFE78A"/></linearGradient><linearGradient id="tokenBrandedElur" x1="11.818" x2="13.158" y1="6.257" y2="21.628" gradientUnits="userSpaceOnUse"><stop stop-color="#DAA400"/><stop offset="1" stop-color="#BC8600"/></linearGradient><linearGradient id="tokenBrandedElus" x1="2.781" x2="14.018" y1="8.899" y2="21.503" gradientUnits="userSpaceOnUse"><stop stop-color="#D49B00"/><stop offset="1" stop-color="#FBC928"/></linearGradient><linearGradient id="tokenBrandedElut" x1="4.385" x2="18.479" y1="2.603" y2="24.294" gradientUnits="userSpaceOnUse"><stop stop-color="#9D6900"/><stop offset="1" stop-color="#7F4F00"/></linearGradient><linearGradient id="tokenBrandedEluu" x1="-1.271" x2="4.193" y1="3.099" y2="26.215" gradientUnits="userSpaceOnUse"><stop stop-color="#905E00"/><stop offset="1" stop-color="#BC9021"/></linearGradient><linearGradient id="tokenBrandedEluv" x1="4.193" x2="6.796" y1="3.067" y2="21.666" gradientUnits="userSpaceOnUse"><stop stop-color="#FFDB5B"/><stop offset="1" stop-color="#FFDF6A"/></linearGradient><linearGradient id="tokenBrandedEluw" x1="2.277" x2="6.718" y1="2.044" y2="24.518" gradientUnits="userSpaceOnUse"><stop offset=".4" stop-color="#FFFFBD"/><stop offset=".68" stop-color="#FFF88A"/></linearGradient><linearGradient id="tokenBrandedElux" x1="4.377" x2="14.351" y1="2.47" y2="24.658" gradientUnits="userSpaceOnUse"><stop stop-color="#C18B00"/><stop offset="1" stop-color="#936200"/></linearGradient><linearGradient id="tokenBrandedEluy" x1="5.188" x2="10.217" y1="2.417" y2="23.957" gradientUnits="userSpaceOnUse"><stop stop-color="#FFF5D0"/><stop offset=".45" stop-color="#FFE373"/><stop offset="1" stop-color="#FFE78A"/></linearGradient><linearGradient id="tokenBrandedEluz" x1="12.028" x2="11.752" y1="7" y2="21.645" gradientUnits="userSpaceOnUse"><stop stop-color="#DAA400"/><stop offset="1" stop-color="#BC8600"/></linearGradient><linearGradient id="tokenBrandedElu10" x1="5.007" x2="12.047" y1="8.425" y2="20.082" gradientUnits="userSpaceOnUse"><stop stop-color="#D49B00"/><stop offset="1" stop-color="#FBC928"/></linearGradient><linearGradient id="tokenBrandedElu11" x1="6.359" x2="13.886" y1="2.375" y2="24.723" gradientUnits="userSpaceOnUse"><stop stop-color="#9D6900"/><stop offset="1" stop-color="#7F4F00"/></linearGradient><linearGradient id="tokenBrandedElu12" x1="3.12" x2="6.503" y1="2.64" y2="23.385" gradientUnits="userSpaceOnUse"><stop stop-color="#905E00"/><stop offset="1" stop-color="#BC9021"/></linearGradient><linearGradient id="tokenBrandedElu13" x1="4.299" x2="5.188" y1="3.159" y2="20.376" gradientUnits="userSpaceOnUse"><stop stop-color="#FFDB5B"/><stop offset="1" stop-color="#FFDF6A"/></linearGradient><linearGradient id="tokenBrandedElu14" x1="12.023" x2="12.023" y1="1.961" y2="22" gradientUnits="userSpaceOnUse"><stop stop-color="#F2DE68"/><stop offset="1" stop-color="#FFFFD2"/></linearGradient><linearGradient id="tokenBrandedElu15" x1="12" x2="12" y1="2" y2="22" gradientUnits="userSpaceOnUse"><stop stop-color="#A66F00"/><stop offset=".46" stop-color="#581F00"/><stop offset="1" stop-color="#D19900"/></linearGradient><linearGradient id="tokenBrandedElu16" x1="22" x2="1.375" y1="11.8" y2="11.8" gradientUnits="userSpaceOnUse"><stop stop-color="#C68200"/><stop offset="1" stop-color="#EDB400"/></linearGradient><linearGradient id="tokenBrandedElu17" x1="5.191" x2="13.885" y1="5.014" y2="13.638" gradientUnits="userSpaceOnUse"><stop offset=".51" stop-color="#865300"/><stop offset="1" stop-color="#CA9000"/></linearGradient><linearGradient id="tokenBrandedElu18" x1="12.344" x2="12.344" y1="19.25" y2="20.887" gradientUnits="userSpaceOnUse"><stop stop-color="#F7C116"/><stop offset="1" stop-color="#FFD53C"/></linearGradient></defs></g></svg>