<svg xmlns="http://www.w3.org/2000/svg" xmlns:xlink="http://www.w3.org/1999/xlink" width="24" height="24" viewBox="0 0 24 24"><g fill="none"><path fill="url(#tokenBrandedEmagic0)" d="m9.62 4.778l1.172-1.8A8.97 8.97 0 0 0 4.83 6.389l.928 1.278a7.5 7.5 0 0 1 3.861-2.889m4.36-.072a7.55 7.55 0 0 1 4.151 3.039l.795-1.456a8.96 8.96 0 0 0-5.984-3.322zM4.72 9.873q.252-.874.694-1.65l-.955-1.317a9.06 9.06 0 0 0-1.49 4.167l1.75-1.206zm-1.73 3.178l1.722 1.006a7.6 7.6 0 0 0 2.345 3.667l-.956 1.166a9.07 9.07 0 0 1-3.111-5.833zm10.2 7.895a8.9 8.9 0 0 0 4.068-1.678l-1.028-1.11a7.4 7.4 0 0 1-1.878.96l-1.161 1.834zm-3.738-1.833a7.4 7.4 0 0 1-1.923-1.017l-.955 1.167a8.9 8.9 0 0 0 4.156 1.7l-1.278-1.856zm9.656-9.301a8 8 0 0 0-.611-1.478l.828-1.517a9.06 9.06 0 0 1 1.522 4.034zm-.022 4.373a7.57 7.57 0 0 1-2.372 3.594l1.022 1.106a9.07 9.07 0 0 0 3.111-5.778z"/><path fill="url(#tokenBrandedEmagic1)" fill-rule="evenodd" d="m9.97 5.934l.289-.095l1.056-1.533v5.25h1.205V4.584l.7 1.166l.35.095a6.33 6.33 0 0 1 4.378 4.3l.1.334l2.529 1.533l-2.612 1.756l-.1.289a6.33 6.33 0 0 1-4.078 3.978l-.311.1l-1.578 2.467l-1.69-2.512l-.288-.1a6.34 6.34 0 0 1-4.017-4.144l-.1-.317l-2.367-1.534l2.328-1.405l.094-.345A6.34 6.34 0 0 1 9.97 5.934m2.189-3.69l1.645 2.723a7.24 7.24 0 0 1 5.006 4.917l3.044 1.845a.304.304 0 0 1 .011.51l-3.15 2.112a7.24 7.24 0 0 1-4.667 4.55l-1.889 2.962a.3.3 0 0 1-.5.006l-2.028-3.017a7.24 7.24 0 0 1-4.59-4.74l-2.905-1.878a.306.306 0 0 1 .005-.51L4.997 10a7.25 7.25 0 0 1 4.695-4.928l1.961-2.845a.3.3 0 0 1 .5.017z" clip-rule="evenodd"/><path fill="#FAFBF2" d="M6.219 2c1.528.767 4.478 3.278 4.645 7.39c.01.2.01.41.005.616a6 6 0 0 1 1.05-.15l.278.017c.267.033.511.1.622.133a4.4 4.4 0 0 1-.05-.639c-.01-1.755.834-4.806 4.295-7.034l.55-.333l.106.639c.128.972.216 2.578-.256 4.195C17.06 8.228 16.386 9 15.853 9.612c-.444.505-.789.9-.789 1.456l.9.605l-.3.906c.317.4.833 1.344.85 2.444v.028q.004.432-.1.85l-.444-.605c.128.274.159.583.089.878a.8.8 0 0 1-.095.183l-.3-.911a3 3 0 0 1-.144.61a3 3 0 0 1-.156.39c-.083.15-.183.283-.3.361a4 4 0 0 0-.011-.317a1.4 1.4 0 0 0-.139-.589l-.3 1.056l-.75-1.511h.15l-.3-.15h-.15q.071.116.139.233l.01.028l.129.239l.022.044q.147.294.278.595l.022.072h-.6l.45.15l-.3.756l-.445-.3v.3l-.716-.973l.644-.617v-.639l1.09-.277l-.073.305l.022.05l.167-.083l.056.122l.16-.555l.595.605l.661-.06l.034-.023a3.7 3.7 0 0 0-.712-2.311l.167-.378l-.111-.661l-.789-.528l-.9-.495l-.94-.31c-.043-.018-.121.221-.221.521c-.145.428-.323.973-.484.973c-.155 0-.35-.445-.527-.85c-.15-.345-.29-.656-.378-.634l-.767.195s-.722.366-1.056.705a2 2 0 0 1-.228.19l-.283.188c.011.022 0 .106 0 .128c.056.278-.128.528-.128.722v.234l.045.2a2.4 2.4 0 0 0-.556 1.305l-.033.195l.489-.65l.222 1.11l.422-.638l.25.889l1 .344l1.05.734l-.872.972l.15-.455l-.6.455l-.3-.755l.45-.15h-.6l.3-.756l-.3.15l-.444 1.056l-.306-1.056c-.125.204-.19.439-.189.678a1 1 0 0 0 .039.228c.056.15.017.133-.056.022a4 4 0 0 1-.338-.723l-.017-.044a5 5 0 0 1-.189-.611q-.095.124-.167.261l-.055.111c-.045.1-.084.2-.095.294a.4.4 0 0 0 .017.234a1.95 1.95 0 0 1-.189-.806q.002-.124.044-.25l-.3.606a4 4 0 0 1-.044-.778v-.017c.017-.777.194-1.778.789-2.378a3.5 3.5 0 0 0-.056-.65c-.044-.222-.122-.405-.244-.405l.556-.35c.155-.106.294-.2.344-.256c.056-.055-.239-.472-.645-1.056c-.766-1.1-1.955-2.794-2.055-3.778c-.111-1.166-.222-2.783-.067-3.667q.017-.115.05-.222c.045-.15.1-.272.167-.344z"/><path fill="url(#tokenBrandedEmagic2)" d="m12.82 13.634l-.15 1.512c-.15 0-.272-.15-.75-.15c-.484 0-.6.15-.75.15l-.15-1.512l-.3.15a2.39 2.39 0 0 0-1.945-2.416a7.7 7.7 0 0 1 2.995-1.362l.15 1.967l.15-1.967c1.078 0 2.444.912 3 1.362c-1.684.244-2 1.71-1.95 2.416z"/><path fill="#52216D" d="M9.82 17.713c.45 0 1.5-.15 2.1-.756c.58.453 1.286.717 2.022.756c-.483-.011-1.456-.145-2.023-.6a2.95 2.95 0 0 1-2.1.6"/><path fill="#EC6B9B" d="M11.92 17.113c-.6.6-1.65.6-2.1.6c.96.122 1.8-.05 2.1-.3c.6.483 1.644.3 2.094.3a3.7 3.7 0 0 1-2.094-.6"/><path fill="#992F60" d="m10.57 13.935l.15-.15c0-1.934-1.3-2.417-1.945-2.417c1.317.122 1.745 1.76 1.794 2.572zm2.694 0l-.15-.15c0-1.934 1.3-2.417 1.95-2.417c-1.316.122-1.75 1.76-1.8 2.572z"/><path fill="#531F69" d="m8.62 12.429l-.445-.611c.072.105.122.76 0 1.06c-.128.306-.672 1.1-.6 1.668L9.82 15.75l.15-.455h-.15l.383-.773a.3.3 0 0 0-.267-.433H9.52c-.723 0-.9-.706-.9-1.056v-.61z"/><path fill="#EC6B9B" d="M7.424 15.901c0-.483.1-1.31.15-1.666c0 .244.295.305.445.455h.9l.15.611l.9-.305l-.75 1.961l-.3-1.056c-.117.123-.25.456-.3.606a3.2 3.2 0 0 1-.15-1.056v.45l-.3-.455c-.158.281-.26.59-.3.91c-.24-.244-.195-.805-.145-1.055z"/><path fill="#A42D5E" d="M8.62 13.184c-.356.117-.65.45-.745.6h.444v.15c.245.278 1.1.217 1.5.156c-.36 0-.944-.611-1.2-.906"/><path fill="#531F69" d="m15.22 12.279l.444-.611c-.1.344-.1.71 0 1.055c.122.306.667 1.106.6 1.667l-2.25 1.211l-.15-.455h.15l-.384-.773a.3.3 0 0 1 .123-.402a.3.3 0 0 1 .15-.036h.41c.723 0 .9-.7.9-1.056v-.6z"/><path fill="#EC6B9B" d="M16.415 15.751c0-.483-.1-1.31-.15-1.666c0 .244-.3.305-.45.455h-.9l-.15.611l-.9-.305l.75 1.961l.3-1.056c.122.123.25.45.3.606c.122-.244.15-.806.15-1.056v.445l.3-.445c.238.478.3.8.3.9c.238-.239.2-.805.15-1.055z"/><path fill="#A42D5E" d="M15.33 13.029c.361.122.65.455.75.611h-.45v.144c-.239.273-1.1.217-1.5.15c.361 0 .944-.6 1.2-.905"/><path fill="url(#tokenBrandedEmagic3)" d="M9.52 13.634c-.723-.122-.801-1.155-.751-1.666c.3.11.961.333 1.2.46c.239.117.4.956.45 1.356z"/><path fill="url(#tokenBrandedEmagic4)" d="M14.314 13.634c.722-.122.8-1.155.75-1.666c-.3.11-.956.333-1.2.46c-.24.117-.395.956-.445 1.356z"/><path fill="#52216D" d="m9.97 15.601l.9-1.817l-.15 1.212a1.97 1.97 0 0 1 .9 1.51l-.9.757v-.456l-.445.306l-.156-.306l.15-.3h-.6l.45-.756zm3.894 0l-.894-1.817l.15 1.212a1.97 1.97 0 0 0-.9 1.51l.9.757v-.456l.444.306l.15-.306l-.15-.3h.6l-.444-.756z"/><path fill="url(#tokenBrandedEmagic5)" d="M10.275 16.501h-.611l.45.912l.45-.3l.15.3l1.2-.756v-.756l-.9-.605l.75 1.21l-1.05.757v-.456l-.445.306l-.155-.306l.15-.3z"/><path fill="url(#tokenBrandedEmagic6)" d="M13.565 16.501h.6l-.444.912l-.456-.3l-.145.3l-1.2-.756v-.756l.9-.605l-.75 1.21l1.05.757v-.456l.445.306l.15-.306l-.15-.3z"/><path fill="url(#tokenBrandedEmagic7)" d="M11.92 14.996c-.362 0-.65.1-.75.15l.75.455l.75-.455c-.1-.05-.39-.15-.75-.15"/><path fill="#28113A" d="M9.97 6.228a6.9 6.9 0 0 0-3.445-3.622a9.95 9.95 0 0 1 3.145 5.59c.122.921-.05 1.944-.15 2.416l1.05-.606c.05-.4.166-1.778-.6-3.778"/><path fill="#50226D" d="M9.22 7.14a10.3 10.3 0 0 0-2.846-4.384c-.6 5.139 1.945 6.8 2.245 7.1c.245.245.3.806.3 1.056l.3-.15c.239-1.934.1-3.223 0-3.623m5.527-.156c.6-2.056 2.15-3.778 2.85-4.378c.595 5.133-1.95 6.8-2.25 7.1c-.238.245-.3.806-.3 1.056l-.3-.15c-.238-1.934-.1-3.223 0-3.628"/><path fill="#261138" d="m14.315 10.612l-1.345-.756s-.05-1.45.744-3.322c.9-2.112 2.75-3.578 3.6-3.928a22.5 22.5 0 0 0-2.85 3.928c-.833 1.572-.444 3.372-.15 4.078"/><path fill="#EB6A9C" d="M8.17 6.984C8.052 6.5 7.024 4.26 6.524 3.206c-.361 1.333-.056 2.872.15 3.478l.444.755l-.144-.455l.15-.906l.444.456l-.444-.15v.6l.6.755l-.3.156c.478.239 1 1.306 1.194 1.811v-.455l.3.305l-.75-1.36a2.7 2.7 0 0 0 0-1.212m7.628-.15c.117-.484 1.15-2.723 1.65-3.778c.356 1.333.05 2.872-.15 3.478l-.45.755l.15-.455l-.15-.906l-.45.456l.444-.156v.611l-.594.75l.3.15c-.483.245-1 1.312-1.2 1.817v-.455l-.3.305l.75-1.361a2.8 2.8 0 0 1 0-1.211"/><defs><linearGradient id="tokenBrandedEmagic0" x1="12" x2="12" y1="2" y2="22" gradientUnits="userSpaceOnUse"><stop stop-color="#F9D193"/><stop offset=".25" stop-color="#F9A566"/><stop offset=".52" stop-color="#DD527C"/><stop offset=".8" stop-color="#6E7EE8"/><stop offset="1" stop-color="#2DEAEE"/></linearGradient><linearGradient id="tokenBrandedEmagic1" x1="11.998" x2="11.998" y1="2" y2="22.002" gradientUnits="userSpaceOnUse"><stop stop-color="#F8CD86"/><stop offset=".4" stop-color="#FC776B"/><stop offset=".7" stop-color="#7F65D4"/><stop offset="1" stop-color="#34F7F1"/></linearGradient><linearGradient id="tokenBrandedEmagic2" x1="11.991" x2="11.991" y1="2" y2="22" gradientUnits="userSpaceOnUse"><stop stop-color="#4B2576"/><stop offset="1" stop-color="#2A1643"/></linearGradient><linearGradient id="tokenBrandedEmagic3" x1="18.389" x2="8.587" y1="8.728" y2="21.15" gradientUnits="userSpaceOnUse"><stop stop-color="#64EDE7"/><stop offset=".46" stop-color="#FAFBF2"/><stop offset="1" stop-color="#71ECE0"/></linearGradient><linearGradient id="tokenBrandedEmagic4" x1="5.554" x2="15.415" y1="8.728" y2="21.189" gradientUnits="userSpaceOnUse"><stop stop-color="#64EDE7"/><stop offset=".46" stop-color="#FAFBF2"/><stop offset="1" stop-color="#71ECE0"/></linearGradient><linearGradient id="tokenBrandedEmagic5" x1="12.024" x2="12.024" y1="2" y2="22" gradientUnits="userSpaceOnUse"><stop stop-color="#EFC9C4"/><stop offset="1" stop-color="#F096AE"/></linearGradient><linearGradient id="tokenBrandedEmagic6" x1="12" x2="12" y1="2" y2="22" gradientUnits="userSpaceOnUse"><stop stop-color="#EFC9C4"/><stop offset="1" stop-color="#F096AE"/></linearGradient><linearGradient id="tokenBrandedEmagic7" x1="11.999" x2="11.999" y1="2" y2="22" gradientUnits="userSpaceOnUse"><stop stop-color="#FCE3CF"/><stop offset="1" stop-color="#F0BBBE"/></linearGradient></defs></g></svg>