<svg xmlns="http://www.w3.org/2000/svg" xmlns:xlink="http://www.w3.org/1999/xlink" width="24" height="24" viewBox="0 0 24 24"><g fill="none"><path fill="url(#tokenBrandedEmp0)" d="M8.25 14.499H2.315a10 10 0 0 1-.313-2.5C2.001 6.474 6.432 2 11.901 2h10.098l-3.093 2.918l-.082-.037z"/><path fill="url(#tokenBrandedEmp1)" d="M21.998 11.999A10 10 0 0 1 5 19.135l3.875-4.012A4.42 4.42 0 0 0 12 16.373a4.375 4.375 0 0 0 3.468-7.043l.281-.25l3.725-3.724a9.96 9.96 0 0 1 2.524 6.643"/><path fill="url(#tokenBrandedEmp2)" d="M21.998 11.999A10 10 0 0 1 2.5 15.123h6.375l.318.282c.95.843 2.744 2.424 5.512 2.424c3.544 0 6.668-3.537 6.668-7.08c0-1.512-.312-2.781-.7-3.725A9.96 9.96 0 0 1 21.998 12"/><defs><linearGradient id="tokenBrandedEmp0" x1="6.126" x2="18.76" y1="19.33" y2="13.91" gradientUnits="userSpaceOnUse"><stop stop-color="#0031A5"/><stop offset=".48" stop-color="#009EEF"/><stop offset="1" stop-color="#009DEE"/></linearGradient><linearGradient id="tokenBrandedEmp1" x1="12.044" x2="12.044" y1="2" y2="22.005" gradientUnits="userSpaceOnUse"><stop stop-color="#00BAFF"/><stop offset=".67" stop-color="#05207D"/></linearGradient><linearGradient id="tokenBrandedEmp2" x1="22.21" x2="2.257" y1="14.705" y2="15.555" gradientUnits="userSpaceOnUse"><stop stop-color="#03DDFE"/><stop offset=".41" stop-color="#0058C1"/><stop offset=".69" stop-color="#00136C"/></linearGradient></defs></g></svg>