<svg xmlns="http://www.w3.org/2000/svg" xmlns:xlink="http://www.w3.org/1999/xlink" width="24" height="24" viewBox="0 0 24 24"><g fill="none"><path fill="#FFA534" d="M6.794 11v4.001l-1.732 1v-6zm13.858-4v10l-1.733 1v-8l-1.732 1v8l-5.196 3V12l1.732-1v8l1.732-1v-8zM8.527 6L6.794 7l1.733 1zm3.463-2l-1.732 1l1.733 1z"/><path fill="#fff" d="m20.652 7l-1.733 1l-6.928-4l-1.733 1l1.733 1l5.196 3l-1.731 1h-.001L8.527 6L6.794 7l6.929 4l-1.732 1L3.33 7l8.66-5zM10.258 17v2l-5.196-3l1.732-.999zm3.465 2l1.732-1l-1.732-1z"/><path fill="#FF6C2D" d="M3.33 7v10l8.66 5V12zm6.928 12l-5.196-3v-6l5.196 3zm8.662-1l-1.733-1v-6l1.732-1zm0-10l-1.733 1l-5.196-3V4z"/><path fill="#FF6C2D" d="M8.527 6v2l5.196 3v6l1.732 1v-8z"/></g></svg>