<svg xmlns="http://www.w3.org/2000/svg" xmlns:xlink="http://www.w3.org/1999/xlink" width="24" height="24" viewBox="0 0 24 24"><g fill="none"><path fill="url(#tokenBrandedEthw0)" d="M12 9.453L5.684 12L12 2z"/><path fill="url(#tokenBrandedEthw1)" d="M12 9.453L18.316 12L12 2z"/><path fill="url(#tokenBrandedEthw2)" d="m12 15.158l-6.316-3.326L12 9.369z"/><path fill="#FBFCF7" d="m12.006 15.158l6.31-3.326l-6.31-2.463z"/><path fill="#B0B4E9" d="M15.331 7.732L15 13.589l-3.074-4l-3.053 4.143l-.358-5.669l.153-.005l.326 5.242l2.927-3.963l2.947 3.832l.31-5.448l.158.01z"/><path fill="url(#tokenBrandedEthw3)" d="M8.61 8.321a.784.784 0 0 0 .795-.774a.784.784 0 0 0-.795-.773a.784.784 0 0 0-.794.773c0 .428.355.774.794.774"/><path fill="#DADCF4" d="M8.79 6.953c.062-.042.2.02.262.058c.016.058.042.179-.031.21c-.09.037-.08-.063-.169-.095c-.09-.036-.152-.115-.068-.173z"/><path fill="url(#tokenBrandedEthw4)" d="M12.005 10.169a.784.784 0 0 0 .795-.774a.784.784 0 0 0-.795-.774a.784.784 0 0 0-.795.774c0 .427.356.774.795.774"/><path fill="#DADCF4" d="M12.18 8.806c.068-.048.204.015.262.052c.021.063.042.184-.026.21c-.09.038-.079-.057-.168-.094c-.095-.032-.158-.11-.069-.168"/><path fill="url(#tokenBrandedEthw5)" d="M15.279 8.321a.784.784 0 0 0 .794-.774a.784.784 0 0 0-.794-.773a.784.784 0 0 0-.795.773c0 .428.356.774.795.774"/><path fill="#DADCF4" d="M15.453 6.953c.068-.042.205.02.263.058c.02.058.042.179-.026.21c-.09.037-.08-.063-.174-.095c-.09-.036-.148-.115-.063-.173"/><path fill="url(#tokenBrandedEthw6)" d="M14.942 14.284a.784.784 0 0 0 .795-.773a.784.784 0 0 0-.795-.774a.784.784 0 0 0-.794.774c0 .427.356.773.794.773"/><path fill="#DADCF4" d="M15.116 12.916c.068-.042.205.021.263.058c.02.058.042.179-.026.21c-.09.037-.08-.063-.174-.094c-.09-.037-.148-.116-.063-.174"/><path fill="url(#tokenBrandedEthw7)" d="M8.905 14.284a.784.784 0 0 0 .795-.773a.784.784 0 0 0-.795-.774a.784.784 0 0 0-.795.774c0 .427.356.773.795.773"/><path fill="#DADCF4" d="M9.08 12.916c.068-.042.21.021.262.058c.021.058.048.179-.026.21c-.09.037-.079-.063-.168-.094c-.09-.037-.153-.116-.069-.174"/><path fill="url(#tokenBrandedEthw8)" d="m12.058 16.632l-6.316-3.58L12.058 22z"/><path fill="#C8CCF7" d="m12 16.632l6.316-3.58L12 22z"/><defs><linearGradient id="tokenBrandedEthw0" x1="5.905" x2="16.168" y1="18.569" y2="6.263" gradientUnits="userSpaceOnUse"><stop stop-color="#A795F2"/><stop offset="1" stop-color="#B7D0E1"/></linearGradient><linearGradient id="tokenBrandedEthw1" x1="5.684" x2="14.484" y1="5.947" y2="20.705" gradientUnits="userSpaceOnUse"><stop stop-color="#E1F0F3"/><stop offset="1" stop-color="#B3DBF5"/></linearGradient><linearGradient id="tokenBrandedEthw2" x1="18.147" x2="6.821" y1="5.364" y2="7.788" gradientUnits="userSpaceOnUse"><stop stop-color="#DEE1F9"/><stop offset="1" stop-color="#D6CDFB"/></linearGradient><linearGradient id="tokenBrandedEthw3" x1="17.605" x2="5.352" y1="6.014" y2="13.29" gradientUnits="userSpaceOnUse"><stop stop-color="#C0C7F2"/><stop offset="1" stop-color="#7890D6"/></linearGradient><linearGradient id="tokenBrandedEthw4" x1="17.563" x2="5.338" y1="6.082" y2="13.305" gradientUnits="userSpaceOnUse"><stop stop-color="#C0C7F2"/><stop offset="1" stop-color="#7890D6"/></linearGradient><linearGradient id="tokenBrandedEthw5" x1="17.563" x2="5.31" y1="6.014" y2="13.29" gradientUnits="userSpaceOnUse"><stop stop-color="#C0C7F2"/><stop offset="1" stop-color="#7890D6"/></linearGradient><linearGradient id="tokenBrandedEthw6" x1="17.563" x2="5.338" y1="6.014" y2="13.237" gradientUnits="userSpaceOnUse"><stop stop-color="#C0C7F2"/><stop offset="1" stop-color="#7890D6"/></linearGradient><linearGradient id="tokenBrandedEthw7" x1="17.605" x2="5.38" y1="6.014" y2="13.237" gradientUnits="userSpaceOnUse"><stop stop-color="#C0C7F2"/><stop offset="1" stop-color="#7890D6"/></linearGradient><linearGradient id="tokenBrandedEthw8" x1="7.031" x2="20.89" y1="3.176" y2="16.899" gradientUnits="userSpaceOnUse"><stop stop-color="#6E89D3"/><stop offset="1" stop-color="#677FF0"/></linearGradient></defs></g></svg>