<svg xmlns="http://www.w3.org/2000/svg" xmlns:xlink="http://www.w3.org/1999/xlink" width="24" height="24" viewBox="0 0 24 24"><g fill="none"><path fill="#fff" d="M14.039 8.738v6.805a.4.4 0 0 1-.211.372c-.582.343-1.481.716-2.102 1.097v-6.89c0-.181-.028-.286-.2-.372c0 0-.808-.572-1.314-.859c-.057-.038-.134-.058-.22-.095v6.174c0 .2-.038.306-.2.401c-.506.277-1.354.572-1.85.86l-.262.132v-6.221c0-.239-.062-.353-.254-.458c-.553-.306-.939-.64-1.511-.974c.639-.372 1.25-.735 1.88-1.078c.057-.029.172.01.248.057l1.816.926c.124.076.22.095.353 0c.496-.296.809-.573 1.305-.878c.181-.115.305-.096.477 0zm-.01.01l.132-.133c.536-.307 1.17-.621 1.715-.917a.4.4 0 0 1 .334 0c.553.296 1.182.61 1.717.935c.076.038.158.162.158.239v6.203c0 .058-.015.162-.062.19c-.621.373-1.582.726-2.25 1.108v-6.28c0-.161-.034-.267-.187-.352c-.582-.325-.965-.668-1.547-1.003z"/><path fill="#E3953B" d="M11.186 4.104a.826.826 0 1 0 0-1.652a.826.826 0 0 0 0 1.652"/><path fill="#E5C148" d="M15.933 4.633a.667.667 0 1 0 0-1.333a.667.667 0 0 0 0 1.333m3.415 2.742a.51.51 0 1 0 0-1.019a.51.51 0 0 0 0 1.02"/><path fill="#27608C" d="M20.822 12.315a1.178 1.178 0 1 0 0-2.357a1.178 1.178 0 0 0 0 2.357"/><path fill="#DC6E32" d="M4.147 10.07a1.23 1.23 0 1 0 0-2.46a1.23 1.23 0 0 0 0 2.46"/><path fill="#3F8EB9" d="M20.227 16.717a1.057 1.057 0 1 0 0-2.114a1.057 1.057 0 0 0 0 2.114"/><path fill="#DC6E32" d="M6.91 6.08a1.057 1.057 0 1 0 0-2.113a1.057 1.057 0 0 0 0 2.113"/><path fill="#3F8EB9" d="M17.496 19.993a.79.79 0 1 0 0-1.582a.79.79 0 0 0 0 1.582m-4.064 1.555a.74.74 0 1 0 0-1.481a.74.74 0 0 0 0 1.48m-4.338-.803a.578.578 0 1 0 0-1.156a.578.578 0 0 0 0 1.156"/><path fill="#CC3D27" d="M5.182 18.763a1.271 1.271 0 1 0 0-2.542a1.271 1.271 0 0 0 0 2.542"/><path fill="#CB362A" d="M3.362 14.69a1.362 1.362 0 1 0 0-2.725a1.362 1.362 0 0 0 0 2.725"/></g></svg>