<svg xmlns="http://www.w3.org/2000/svg" xmlns:xlink="http://www.w3.org/1999/xlink" width="24" height="24" viewBox="0 0 24 24"><g fill="none"><path fill="url(#tokenBrandedEuno0)" d="M4.295 7.156h13.088a1.3 1.3 0 0 0 .942-.406l2.097-2.175l.22-.226C21.48 3.484 20.887 2 19.706 2H4.295c-.355 0-.691.142-.943.4a1.43 1.43 0 0 0-.387.975v2.413c0 .362.142.71.387.968c.252.258.588.407.943.407z"/><path fill="url(#tokenBrandedEuno1)" d="M19.706 9.738H4.295c-.353.001-.691.14-.943.387a1.3 1.3 0 0 0-.387.917v9.654a1.3 1.3 0 0 0 .387.923c.252.245.588.381.943.381h8.092c.355 0 .69-.136.943-.387l2.323-2.285c.839-.82.252-1.846-.936-1.846H8.128v-3.24h9.248c.355 0 .69-.141.942-.387l2.104-1.671l.22-.213c.839-.826.245-2.233-.936-2.233"/><defs><linearGradient id="tokenBrandedEuno0" x1="21.035" x2="3.128" y1="20.625" y2="22.547" gradientUnits="userSpaceOnUse"><stop stop-color="#7599F2"/><stop offset="1" stop-color="#562CDD"/></linearGradient><linearGradient id="tokenBrandedEuno1" x1="21.035" x2="5.592" y1="6.808" y2="13.23" gradientUnits="userSpaceOnUse"><stop stop-color="#7599F2"/><stop offset="1" stop-color="#562CDD"/></linearGradient></defs></g></svg>