<svg xmlns="http://www.w3.org/2000/svg" xmlns:xlink="http://www.w3.org/1999/xlink" width="24" height="24" viewBox="0 0 24 24"><path fill="#A25CF8" d="M21.193 6.476q-.33-.802-.78-1.543c-.258-.417-.558-.816-.885-1.089a.12.12 0 0 0-.123-.017l-1.182.513a.12.12 0 0 0-.07.141a.1.1 0 0 0 .026.05c.234.275.785.929.97 1.227c.23.371.46.829.665 1.322c1.475 3.547.851 11.774-4.21 11.56c-1.168-.05-2.144-.636-2.925-1.559c-.789-.932-1.352-2.182-1.654-3.454c-.305-1.28-.325-2.5-.108-3.356c.11-.426.264-.713.425-.883a.68.68 0 0 1 .528-.23c.515 0 .834.194 1.059.492c.25.33.423.848.478 1.528c.108 1.336-.347 3.275-.992 4.46a.12.12 0 0 0 .008.132l.794 1.074a.12.12 0 0 0 .201-.013c.783-1.467 1.614-4.152 1.483-5.78c-.068-.848-.296-1.694-.787-2.343c-.516-.683-1.277-1.088-2.244-1.088c-.644 0-1.19.26-1.604.697c-.397.42-.649.977-.799 1.565c-.299 1.173-.242 2.664.101 4.11c.346 1.452 1.001 2.941 1.98 4.098c.985 1.165 2.324 2.017 3.995 2.087c6.311.267 7.531-9.178 5.65-13.701M4.117 17.785C2.763 15.845 2.18 13.59 2 11.775a.12.12 0 0 1 .074-.122l1.253-.511a.12.12 0 0 1 .15.048q.015.024.018.053c.18 1.72.723 4.072 1.843 5.675c.568.812 1.251 1.387 2.068 1.63c.792.237 1.907.08 3.236-.525a.12.12 0 0 1 .147.035l.906 1.141a.12.12 0 0 1-.044.184c-1.469.798-3.465.97-4.67.61c-1.232-.368-2.167-1.21-2.865-2.208"/></svg>