<svg xmlns="http://www.w3.org/2000/svg" xmlns:xlink="http://www.w3.org/1999/xlink" width="24" height="24" viewBox="0 0 24 24"><g fill="none"><path fill="#B0D1FA" fill-rule="evenodd" d="M12 22a10 10 0 1 0 0-20a10 10 0 0 0 0 20m0-1.177a8.824 8.824 0 1 0 0-17.648a8.824 8.824 0 0 0 0 17.649" clip-rule="evenodd"/><path fill="#146AE5" d="M11.459 16.706V15.27H8.647a1.116 1.116 0 0 1-1.118-1.129c0-.618.506-1.259 1.118-1.259h2.177v-1.276H8.647a2.535 2.535 0 0 0-2.53 2.553a2.537 2.537 0 0 0 2.53 2.547z"/><path fill="#194989" d="M6.648 12.588c.412.247 1.059.47 1.782.33c.641-.13.07-.647-.688-1.141a2.53 2.53 0 0 0-1.094.811"/><path fill="#146AE5" d="M11.459 7.882v1.436H8.647a1.117 1.117 0 0 0-1.118 1.129c0 .618.506.965 1.118.965h2.176v1.47H8.647a2.45 2.45 0 0 1-2.53-2.453a2.537 2.537 0 0 1 2.53-2.547zm2.053 8.824l4.37-5.883H16.33L12 16.706z"/><path fill="#1D4988" d="m14.023 13.953l.735 1.07l.688-.923l-.829-.947l-.588.8z"/><path fill="#146AE5" d="M16.37 16.706L12 10.823h1.552l4.33 5.883z"/></g></svg>