<svg xmlns="http://www.w3.org/2000/svg" xmlns:xlink="http://www.w3.org/1999/xlink" width="24" height="24" viewBox="0 0 24 24"><g fill="none"><path fill="url(#tokenBrandedFcon0)" d="M14.779 4.434L11.999 2L9.222 4.434v7.324l1.495 1.4l.756-.81l-1.14-1.068V4.934L12 3.478l1.667 1.456v6.346L8.11 16.5v-6.163l-.945.944a.56.56 0 0 0-.166.395v7.39l7.78-7.307zm2.056 6.852a.56.56 0 0 1 .166.389v7.374l-4.379-4.023l.756-.822l2.512 2.311v-6.18l.945.945zM12 15.559l-.556.517v5.413L12 22l.556-.511v-5.413L12 15.565zm-2.78 2.668l1.112-1.017v3.479l-.89-.817a.67.67 0 0 1-.222-.495zm5.557-.045l-1.111-1.089v3.668l.9-.823a.68.68 0 0 0 .211-.5z"/><defs><linearGradient id="tokenBrandedFcon0" x1="10.933" x2="11.022" y1="2" y2="21.678" gradientUnits="userSpaceOnUse"><stop stop-color="#6167FB"/><stop offset=".54" stop-color="#26BAF8"/><stop offset=".8" stop-color="#46F7B0"/></linearGradient></defs></g></svg>