<svg xmlns="http://www.w3.org/2000/svg" xmlns:xlink="http://www.w3.org/1999/xlink" width="24" height="24" viewBox="0 0 24 24"><path fill="#F9D549" d="M8.299 2.154a.81.81 0 0 1 .723-.116s1.742.484 2.155 2.174a1.95 1.95 0 0 0 1.335 1.497c.355.142.736.207 1.103.245V5.2a1.606 1.606 0 0 1 1.613-1.6c.89 0 1.613.716 1.613 1.6v1.6a.8.8 0 0 1-.806.8c-1.342.238-1.613 1.67-1.613 2.4c0 2.051 1.561 4.793 3.935 4.793a.9.9 0 0 1 .342.033c.413.129.478.432.542.748c.045.2.09.406.226.58c.258.33.555.607.839.885c.71.67 1.374 1.31 1.374 2.56a2.28 2.28 0 0 1-1.33 2.053c-.709.316-1.464.348-2.16.348c-2.452 0-4.168-1.465-5.097-2.258l-.336-.278c-1.613-1.29-3.039-2.819-4.47-4.348a54 54 0 0 0-3.53-3.549c-2.174-1.935-2.432-4.69-2.432-4.69a.794.794 0 0 1 .542-.839l2.064-.684a3.24 3.24 0 0 1 .974-1.387c.71-.606 2.388-1.82 2.388-1.82zm1.303 2.433c-.103-.452-.451-.69-.735-.846l-.104.071c-.458.342-1.374 1.013-1.806 1.375a2.1 2.1 0 0 0-.471.664L7.744 7.42c.684.813-.664 1.794-1.264.994L5.292 6.929l-1.2.4c.142.664.49 1.935 1.742 3.039a53 53 0 0 1 3.504 3.535c1.42 1.516 2.838 3.032 4.432 4.316q.194.147.387.323c.845.697 1.91 1.587 3.362 1.806c-2.342-1.69-5.904-5.51-7.13-7.948c.207.238.917.664 1.181.477c.284-.206.335-.58.161-.87c-.193-.298-.535-.64-.883-.995c-.614-.606-1.265-1.264-1.265-1.812c0-.549.355-.8.806-.8c.194 0 .381.148.581.322c.277.213.594.471 1.032.471c.342 0 .807-.206.807-.793c0-.465-.258-1.02-.749-1.155a3.7 3.7 0 0 1-2.45-2.658zm8.594 12.555a2.5 2.5 0 0 1-.394-.71c-.496.058-.96.22-.96.774c0 1.62 1.832 2.497 3.025 2.904c.155-.084.2-.174.2-.51c0-.774-.568-1.258-1.129-1.742c-.27-.226-.535-.452-.742-.716m-.245-8.697c.742.303.535 1.27.135 1.768c-.335.413-1.025.742-1.554.529a.806.806 0 0 1-.271-1.31a.85.85 0 0 1 .58-.232a.817.817 0 0 1 1.11-.755m1.07 2.58a.82.82 0 0 0-1.148 0a.83.83 0 0 0-.225.575a.807.807 0 0 0-.755 1.11a.81.81 0 0 0 .755.49c.516 0 .987-.265 1.245-.587c.335-.42.568-1.162.129-1.588"/></svg>