<svg xmlns="http://www.w3.org/2000/svg" xmlns:xlink="http://www.w3.org/1999/xlink" width="24" height="24" viewBox="0 0 24 24"><g fill="none"><path fill="url(#tokenBrandedFlm0)" d="m8.193 6.98l-.119.13l-3.535 3.942c-.614.614-1.02.201-1.013-.337V7.844a2.76 2.76 0 0 1 .715-1.782a2.22 2.22 0 0 1 1.624-.73h2.328l-.679.77l-.787.877z"/><path fill="url(#tokenBrandedFlm1)" d="M20.474 8.79a6.56 6.56 0 0 1-1.72 4.256l-8.315 8.314a2.5 2.5 0 0 1-1.674.64a3.4 3.4 0 0 1-.5-.047l-.489-.15q-.783-.273-1.523-.652l-.104-.058a.35.35 0 0 1-.14-.29a.37.37 0 0 1 .07-.222l9.325-9.338a.8.8 0 0 0 .117-.162q.086-.168.14-.349q.025-.114.034-.233a.6.6 0 0 0 .011-.15c0-.414-.163-.81-.456-1.102c-.292-.293-.688-.58-1.101-.58h-3.407l2.29-2.168a.7.7 0 0 0 .174-.174a.598.598 0 0 0-.5-.919h-4.87s.475-.511.661-.697c.419-.454.93-1.035 1.489-1.442A6.52 6.52 0 0 1 13.869 2c.828 0 1.647.154 2.419.453l.314.128a6.7 6.7 0 0 1 1.546.988l.094.082h.011a6.62 6.62 0 0 1 2.22 4.942z"/><path fill="#E35CC7" d="M13.597 5.333H7.92L4.968 8.025a.38.38 0 0 0-.078.412a.39.39 0 0 0 .358.23h6.376l2.463-2.43a.5.5 0 0 0 .105-.32a.58.58 0 0 0-.174-.413a.6.6 0 0 0-.42-.171m-2.452 1.672a.4.4 0 0 1-.269-.106a.38.38 0 0 1-.116-.26a.37.37 0 0 1 .175-.31a.37.37 0 0 1 .198-.057a.38.38 0 0 1 .348.22a.36.36 0 0 1-.074.401a.38.38 0 0 1-.262.112"/><path fill="#8961D0" d="M7.836 5.406L4.992 7.968a.407.407 0 0 0 .29.698h1.244l3.53-3.26zm3.452 1.698a.372.372 0 1 0 0-.743a.372.372 0 0 0 0 .743"/><path fill="url(#tokenBrandedFlm2)" d="M11.288 7.104a.372.372 0 1 0 0-.744a.372.372 0 0 0 0 .744"/><path fill="#480061" d="M11.649 6.732a.37.37 0 0 0-.361-.372a.4.4 0 0 0-.326.186a.38.38 0 0 1 .394-.066a.36.36 0 0 1 .223.333v.012a.3.3 0 0 1-.047.174a.36.36 0 0 0 .117-.267"/><path fill="url(#tokenBrandedFlm3)" d="M13.598 5.333H7.91L4.969 8.025c-.227.228-.058.634.269.641h6.383l2.467-2.429a.5.5 0 0 0 .105-.32a.58.58 0 0 0-.175-.413a.6.6 0 0 0-.42-.171M11.13 7.005a.38.38 0 0 1-.345-.226a.4.4 0 0 1-.03-.141a.37.37 0 0 1 .176-.31a.37.37 0 0 1 .199-.056a.38.38 0 0 1 .257.111c.067.069.106.16.106.256a.37.37 0 0 1-.109.252a.4.4 0 0 1-.254.114"/><path fill="url(#tokenBrandedFlm4)" d="M7.906 5.333L4.99 7.979c-.286.26-.233.687.204.687H6.68l3.513-3.333z"/><path fill="url(#tokenBrandedFlm5)" d="m12.526 8.666l1.533-2.407l-2.439 2.407z"/><defs><linearGradient id="tokenBrandedFlm0" x1="3.526" x2="20.474" y1="11.958" y2="11.958" gradientUnits="userSpaceOnUse"><stop stop-color="#4750D9"/><stop offset=".41" stop-color="#5C45DC"/><stop offset="1" stop-color="#8131E1"/></linearGradient><linearGradient id="tokenBrandedFlm1" x1="3.526" x2="20.474" y1="11.999" y2="11.999" gradientUnits="userSpaceOnUse"><stop stop-color="#E96161"/><stop offset=".2" stop-color="#E65B76"/><stop offset=".61" stop-color="#DF4AAC"/><stop offset="1" stop-color="#D739E6"/></linearGradient><linearGradient id="tokenBrandedFlm2" x1="3.496" x2="20.262" y1="12" y2="12" gradientUnits="userSpaceOnUse"><stop stop-color="#B100D3"/><stop offset=".23" stop-color="#9C00C0"/><stop offset=".69" stop-color="#67008E"/><stop offset="1" stop-color="#40006A"/></linearGradient><linearGradient id="tokenBrandedFlm3" x1="3.518" x2="20.474" y1="12" y2="12" gradientUnits="userSpaceOnUse"><stop stop-color="#D0D7D3"/><stop offset=".52" stop-color="#D9C5E8"/><stop offset="1" stop-color="#E3B1FF"/></linearGradient><linearGradient id="tokenBrandedFlm4" x1="3.702" x2="20.47" y1="12" y2="12" gradientUnits="userSpaceOnUse"><stop stop-color="#B277EC"/><stop offset=".77" stop-color="#9336E7"/><stop offset="1" stop-color="#8921E6"/></linearGradient><linearGradient id="tokenBrandedFlm5" x1="11.772" x2="14.184" y1="7.587" y2="7.587" gradientUnits="userSpaceOnUse"><stop stop-opacity=".5"/><stop offset=".1" stop-color="#201322" stop-opacity=".59"/><stop offset=".25" stop-color="#4A2C4E" stop-opacity=".72"/><stop offset=".4" stop-color="#6D4173" stop-opacity=".82"/><stop offset=".55" stop-color="#885190" stop-opacity=".9"/><stop offset=".85" stop-color="#A664B0"/></linearGradient></defs></g></svg>