<svg xmlns="http://www.w3.org/2000/svg" xmlns:xlink="http://www.w3.org/1999/xlink" width="24" height="24" viewBox="0 0 24 24"><g fill="none"><path fill="url(#tokenBrandedFls0)" d="M5.723 16.374c3.674.93 4.468 2.711 4.4 3.486l-4.4 2.137H4.85a2.83 2.83 0 0 1-2.843-2.812c0-1.555 1.274-2.811 2.843-2.811zm3.462.206l-7.117-3.512c-.5-2.961 1.856-3.611 3.555-3.561c.444.006.875.156 1.269.356c1.768.9 4.873 2.468 6.735 3.387c2.1 1.03 2.25 2.649 2.062 3.33l-4.674 2.293a4.12 4.12 0 0 0-1.83-2.293"/><path fill="url(#tokenBrandedFls1)" d="M15.033 12.531L2.006 6.064c0-3.249 2.4-4.061 3.693-4.061c1.037 0 1.805.256 2.061.387c2.98 1.45 9.373 4.561 11.078 5.411C20.97 8.863 22 9.532 22 11.301c0 1.624-.687 2.455-1.331 2.786c-.993.506-2.643 1.324-3.468 1.662a4.09 4.09 0 0 0-2.168-3.218"/><defs><linearGradient id="tokenBrandedFls0" x1="22" x2="2" y1="12" y2="12" gradientUnits="userSpaceOnUse"><stop stop-color="#5B8AFF"/><stop offset=".99" stop-color="#3F58FF"/></linearGradient><linearGradient id="tokenBrandedFls1" x1="22" x2="2" y1="12" y2="12" gradientUnits="userSpaceOnUse"><stop stop-color="#5B8AFF"/><stop offset=".99" stop-color="#3F58FF"/></linearGradient></defs></g></svg>