<svg xmlns="http://www.w3.org/2000/svg" xmlns:xlink="http://www.w3.org/1999/xlink" width="24" height="24" viewBox="0 0 24 24"><g fill="none"><path fill="url(#tokenBrandedFoam0)" d="M9.499 15.114v-1.29l1.598.893l-1.18.634z"/><path fill="#493636" d="M14.499 15.114v-1.29l-1.594.893l1.184.634z"/><path fill="url(#tokenBrandedFoam1)" d="M17.005 11.443L14.5 12.778l2.506 1.37l2.494-1.37z"/><path fill="#83615B" d="m9.884 8.586l-.387-.209v.417z"/><path fill="#6F5655" d="M19.498 10.998V6.04l-2.5 1.29v5.08z"/><path fill="url(#tokenBrandedFoam2)" d="M14.499 8.366V3.335l-2.5 1.373v5.068z"/><path fill="#654A48" d="m14.073 8.575l.426-.21v.43z"/><path fill="#684B49" d="m14.084 15.324l.415-.225v.46z"/><path fill="#7A5D59" d="m9.923 15.324l-.424-.225v.46z"/><path fill="#7D6563" d="M7.005 4.706L4.5 6.04l2.506 1.37L9.5 6.041z"/><path fill="url(#tokenBrandedFoam3)" d="M9.499 8.383v-5.05l2.5 1.367v5.094z"/><path fill="url(#tokenBrandedFoam4)" d="M14.499 11.014V6.037l2.5 1.35v5.022z"/><path fill="url(#tokenBrandedFoam5)" d="M14.499 17.814v-5.04l2.5 1.339v5.124z"/><path fill="#7D6563" d="M12.005 2L9.5 3.335l2.506 1.37l2.494-1.37zm5 2.706L14.5 6.04l2.506 1.37L19.5 6.04z"/><path fill="url(#tokenBrandedFoam6)" d="m7.005 11.443l-2.506 1.335l2.506 1.37l2.494-1.37z"/><path fill="url(#tokenBrandedFoam7)" d="M12.005 14.206L9.5 15.541l2.506 1.37l2.494-1.37z"/><path fill="url(#tokenBrandedFoam8)" d="M4.499 17.817v-5.04l2.5 1.347v5.113z"/><path fill="#7D6563" d="M12.005 7.453L9.5 8.788l2.506 1.37l2.494-1.37z"/><path fill="url(#tokenBrandedFoam9)" d="M9.499 20.582v-5.057l2.5 1.369V22z"/><path fill="#6E5453" d="M19.502 17.814v-5.043l-2.5 1.342v5.124z"/><path fill="#725857" d="M14.499 13.832V8.785l-2.5 1.366v5.097z"/><path fill="#705554" d="M14.499 20.582v-5.057l-2.5 1.369V22z"/><path fill="url(#tokenBrandedFoama)" d="M9.499 17.817v-5.041l-2.5 1.348v5.113z"/><path fill="url(#tokenBrandedFoamb)" d="M9.499 11.074V6.04l-2.5 1.343v5.108z"/><path fill="url(#tokenBrandedFoamc)" d="M4.5 11.074V6.04L7 7.384v5.108z"/><path fill="url(#tokenBrandedFoamd)" d="M9.499 13.834V8.788l2.5 1.363v5.097z"/><defs><linearGradient id="tokenBrandedFoam0" x1="4.593" x2="19.713" y1="12" y2="13.812" gradientUnits="userSpaceOnUse"><stop stop-color="#6C5E5D"/><stop offset="1" stop-color="#684440"/></linearGradient><linearGradient id="tokenBrandedFoam1" x1="12" x2="12" y1="2" y2="22.005" gradientUnits="userSpaceOnUse"><stop offset=".491" stop-color="#533534"/><stop offset="1" stop-color="#3C3133"/></linearGradient><linearGradient id="tokenBrandedFoam2" x1="4.499" x2="15.162" y1="13.052" y2="4.423" gradientUnits="userSpaceOnUse"><stop stop-color="#543D3D"/><stop offset=".77" stop-color="#4C3939"/></linearGradient><linearGradient id="tokenBrandedFoam3" x1="19.502" x2="5.318" y1="12.03" y2="8.009" gradientUnits="userSpaceOnUse"><stop stop-color="#966761"/><stop offset=".768" stop-color="#6A5D5C"/></linearGradient><linearGradient id="tokenBrandedFoam4" x1="19.502" x2="5.315" y1="12.003" y2="7.987" gradientUnits="userSpaceOnUse"><stop stop-color="#966761"/><stop offset=".768" stop-color="#6A5D5C"/></linearGradient><linearGradient id="tokenBrandedFoam5" x1="19.502" x2="5.3" y1="11.947" y2="7.949" gradientUnits="userSpaceOnUse"><stop stop-color="#966761"/><stop offset=".768" stop-color="#6A5D5C"/></linearGradient><linearGradient id="tokenBrandedFoam6" x1="12" x2="12" y1="2" y2="22.005" gradientUnits="userSpaceOnUse"><stop offset=".491" stop-color="#533534"/><stop offset="1" stop-color="#3C3133"/></linearGradient><linearGradient id="tokenBrandedFoam7" x1="12" x2="12" y1="2" y2="22" gradientUnits="userSpaceOnUse"><stop offset=".491" stop-color="#533534"/><stop offset="1" stop-color="#3C3133"/></linearGradient><linearGradient id="tokenBrandedFoam8" x1="19.501" x2="14.203" y1="5.937" y2="20.782" gradientUnits="userSpaceOnUse"><stop stop-color="#C79890"/><stop offset=".563" stop-color="#C89B94"/></linearGradient><linearGradient id="tokenBrandedFoam9" x1="19.502" x2="14.235" y1="6.137" y2="20.943" gradientUnits="userSpaceOnUse"><stop stop-color="#DB9E94"/><stop offset=".453" stop-color="#CF9991"/></linearGradient><linearGradient id="tokenBrandedFoama" x1="4.499" x2="15.19" y1="13.023" y2="4.402" gradientUnits="userSpaceOnUse"><stop stop-color="#543D3D"/><stop offset=".77" stop-color="#4C3939"/></linearGradient><linearGradient id="tokenBrandedFoamb" x1="4.499" x2="15.195" y1="13.017" y2="4.398" gradientUnits="userSpaceOnUse"><stop stop-color="#543D3D"/><stop offset=".77" stop-color="#4C3939"/></linearGradient><linearGradient id="tokenBrandedFoamc" x1="19.501" x2="14.113" y1="6.602" y2="21.124" gradientUnits="userSpaceOnUse"><stop stop-color="#DBA096"/><stop offset=".518" stop-color="#BC938D"/></linearGradient><linearGradient id="tokenBrandedFoamd" x1="11.999" x2="9.485" y1="10.169" y2="13.879" gradientUnits="userSpaceOnUse"><stop stop-color="#FABDAE"/><stop offset=".516" stop-color="#DAA095"/></linearGradient></defs></g></svg>