<svg xmlns="http://www.w3.org/2000/svg" xmlns:xlink="http://www.w3.org/1999/xlink" width="24" height="24" viewBox="0 0 24 24"><g fill="none"><path fill="#2A313E" d="M9.72 2.503L4.36 4.95a.806.806 0 0 0-.019 1.462L9.614 8.95a5.6 5.6 0 0 0 4.872-.012l5.179-2.53a.801.801 0 0 0-.02-1.456l-5.259-2.436a5.6 5.6 0 0 0-4.666-.012M2.005 15.958V8.6c0-.894.937-1.487 1.762-1.112l5.428 2.486a3.72 3.72 0 0 1 2.18 3.38v7.396c0 .9-.943 1.493-1.767 1.112l-5.435-2.537a3.73 3.73 0 0 1-2.168-3.373zm19.99-7.334c0-.899-.937-1.492-1.762-1.118L14.805 10a3.72 3.72 0 0 0-2.18 3.373v7.396c0 .9.943 1.5 1.767 1.112l5.435-2.53a3.72 3.72 0 0 0 2.168-3.373z"/><path fill="#A9E3B0" d="m15.274 7.456l-7.022-3.33l.5-.25l6.997 3.33zm-3.086.169l-.25-.419c.78-.025 1.674-.025 2.374-.406c.306-.175.5-.325.612-.468c.225-.3.031-.562-.268-.687a3.2 3.2 0 0 0-1.237-.163c-.4.013-.794.069-1.05.156c-.83.288-1.674.594-2.561.544c-.481-.038-1.174-.213-1.437-.669c-.156-.28-.025-.543.188-.762c.8-.8 1.992-.874 3.048-.874l.044.33c-.413 0-1.375-.018-1.924.288c-.25.144-.856.481-.669.869c.169.337.712.437 1.05.437a5 5 0 0 0 1.543-.35a7.2 7.2 0 0 1 1.649-.337c.656-.05 1.324 0 1.83.225c.425.187.781.612.5 1.08c-.625.981-2.436 1.187-3.442 1.206M8.515 18.657c-.25.156-.5.212-.862.212c-1.08 0-2.236-.974-2.799-2.336a5.7 5.7 0 0 1-.387-1.718l-.587-.25l.3-.593l.262.112c.006-.3.031-.606.063-.906l-.625-.268l.3-.588l.43.188l.013-.088c.206-1.037.656-1.674 1.624-1.674c.769 0 1.6.563 2.243 1.412a3.2 3.2 0 0 1-.344.812c-.387-.812-.974-1.374-1.649-1.374c-.724 0-1.08.443-1.255 1.18l2.58 1.106l-.3.594l-2.399-1.031c-.037.294-.062.6-.062.906l2.217.956l-.3.587l-1.867-.806c.05.375.137.75.28 1.087c.438 1.08 1.312 1.868 2.168 1.868c.256 0 .456-.05.606-.138c.094.156.219.413.35.75m9.107-3.636l1.612-4.485l-.712.244l-1.268 3.604l-1.387-2.374l-.687.4l1.817 3.005v.312l-1.249.619v.624l1.25-.624v.8l-1.25.624v.624l1.25-.624v1.1l.624-.338v-1.068l1.25-.625v-.625l-1.25.619v-.794l1.25-.624v-.625l-1.25.625z"/></g></svg>