<svg xmlns="http://www.w3.org/2000/svg" xmlns:xlink="http://www.w3.org/1999/xlink" width="24" height="24" viewBox="0 0 24 24"><g fill="none"><path fill="url(#tokenBrandedFps0)" d="M11.832 9.225a1.34 1.34 0 0 1-.6-.406a172 172 0 0 1-2.016-2.422c-.639-.783-1.4-1.56-2.466-1.616a3.27 3.27 0 0 0-3.461 2.833c-.39 2.355-.778 4.71-1.15 7.066q-.11.597-.139 1.205a3.32 3.32 0 0 0 3.355 3.322a3.35 3.35 0 0 0 3.183-2.972h-.01l-.012-.005a2.322 2.322 0 0 1-.778-4.455c1.095-.467 2.3.044 2.833 1.122c.165.419.25.866.25 1.316l.017.011h2.166c.023 0 .034-.01.045-.022a.07.07 0 0 0 .022-.044c.056-1.261.872-2.533 2.167-2.572a2.25 2.25 0 0 1 2.05 1.3c.655 1.444-.223 3.144-1.784 3.316c-.039 0-.056.028-.056.067c.284 1.85 1.834 3.177 3.684 2.927a3.344 3.344 0 0 0 2.821-3.866a734 734 0 0 0-1.266-7.805a3.267 3.267 0 0 0-3.527-2.722c-1.028.083-1.884.956-2.511 1.728l-.472.583q-.69.876-1.422 1.717c-.24.266-.545.466-.917.4z"/><path fill="url(#tokenBrandedFps1)" d="M8.555 15.163a1.277 1.277 0 0 0 1.255-1.289a1.277 1.277 0 0 0-1.255-1.288a1.27 1.27 0 0 0-1.256 1.288a1.273 1.273 0 0 0 1.256 1.29"/><path fill="url(#tokenBrandedFps2)" d="M16.554 13.869a1.28 1.28 0 0 1-1.255 1.289a1.28 1.28 0 0 1-1.256-1.29a1.277 1.277 0 0 1 1.256-1.282a1.28 1.28 0 0 1 1.255 1.283"/><defs><linearGradient id="tokenBrandedFps0" x1="2.767" x2="21.581" y1="11.514" y2="11.575" gradientUnits="userSpaceOnUse"><stop stop-color="#AA32F2"/><stop offset="1" stop-color="#8760FB"/></linearGradient><linearGradient id="tokenBrandedFps1" x1="-34.103" x2="115.753" y1="-1.238" y2="-.546" gradientUnits="userSpaceOnUse"><stop stop-color="#AA32F2"/><stop offset="1" stop-color="#8760FB"/></linearGradient><linearGradient id="tokenBrandedFps2" x1="2.766" x2="21.581" y1="11.514" y2="11.575" gradientUnits="userSpaceOnUse"><stop stop-color="#AA32F2"/><stop offset="1" stop-color="#8760FB"/></linearGradient></defs></g></svg>