<svg xmlns="http://www.w3.org/2000/svg" xmlns:xlink="http://www.w3.org/1999/xlink" width="24" height="24" viewBox="0 0 24 24"><g fill="none"><path fill="url(#tokenBrandedFree0)" d="M12 22c5.523 0 10-4.477 10-10S17.523 2 12 2S2 6.477 2 12s4.477 10 10 10"/><path fill="#BD6514" d="M12 21.54a9.539 9.539 0 1 0 0-19.078a9.539 9.539 0 0 0 0 19.077m0-.24A9.3 9.3 0 1 0 11.998 2.7a9.3 9.3 0 0 0 0 18.601"/><path fill="url(#tokenBrandedFree1)" d="M12 21.3a9.3 9.3 0 1 0 0-18.6a9.3 9.3 0 0 0 0 18.6"/><path fill="url(#tokenBrandedFree2)" d="M12 18.667a6.667 6.667 0 1 0 0-13.334a6.667 6.667 0 0 0 0 13.333"/><path fill="url(#tokenBrandedFree3)" d="M11.973 18.267c3.455 0 6.255-2.789 6.255-6.228c0-3.44-2.8-6.228-6.255-6.228s-6.256 2.788-6.256 6.228s2.801 6.228 6.256 6.228"/><path fill="#A9D8EC" d="M15.888 11.31c-.066-.016-.078.051-.078.084c.112.056-.033.173-.072.245c-.033.055.084.1.15.11c-.033.056-.066.162.072.168c.14 0 .112.11.084.155c-.006-.017-.045-.055-.106-.028c-.078.028.056.122.111.184c.05.06 0 .044-.055.094c-.056.056.017.072.055.1c.034.028 0 .1.056.172c.055.078.117-.055.161-.2c.039-.144-.072-.11-.122-.144c-.056-.045.055-.1.078-.156c.027-.055-.106-.272-.178-.305c-.072-.034-.122-.145-.084-.222c.04-.078.006-.24-.072-.256m.684 1.896a.14.14 0 0 0-.14.094c.05.094.184.305.367.378c.223.094-.01.194 0 .322c.006.105.134.061.195.028c-.011-.04 0-.112.1-.112c.133.006.072.095.094.19c.012.072.067.06.095.05a4 4 0 0 0-.034-.517c-.016-.072-.177-.211-.255-.272c-.056-.017-.183-.028-.239.06c-.056.095-.072.04-.072 0c0-.072-.017-.221-.111-.221"/><path fill="#C4C4C4" d="M14.932 11.389c-.077-.022-.033-.111 0-.145l.09-.072c.027 0 .083.006.1.072c.021.084-.09.167-.19.14z"/><path fill="#A9D8EC" d="M15.75 10.911a.3.3 0 0 1 .056-.222c.106-.111.106.1.09.222c-.04.04-.129.095-.145 0m-.05 2.356c-.105.044-.088.289-.066.4a.223.223 0 0 1 .317.017c0-.04-.011-.123-.056-.167c-.039-.034 0-.2.028-.278a.34.34 0 0 0-.222.028m-1.738-.378a.27.27 0 0 1-.167-.239c.09-.094.39.3.483.333c.095.034.067-.022 0-.1c-.066-.072-.038-.338-.094-.41c-.055-.073-.111-.178-.055-.19c.05 0 .272.24.377.367c0 .222.028.678.1.667c.095-.011.172.139.15.144c-.022 0-.166.09-.11.195c.05.105.277.11.377.11c.106-.005.106.095.194.112c.078.022.056.067.034.083c-.6-.005-.883-.305-.95-.455c-.056-.178-.206-.556-.34-.622zm2.344-2.778c-.005-.055-.089-.255-.128-.35c.117-.066.367-.222.395-.305c.044-.111-.072-.345-.128-.423c-.05-.066-.05-.344-.039-.472c.078.09.262.29.334.345c.089.077-.167.133-.095.178c.072.038.1.277.122.472v.01c.028.195-.044.195-.233.279c-.183.083-.222.333-.228.266m-6.744 4.973c.067-.095 0-.267-.04-.345c-.032-.078.156-.217.257-.278c0-.066.027-.194.094-.139c.083.067.15 1.095 0 1.1c-.156 0-.389-.227-.311-.338m5.2.372c0 .289-.111.583-.172.694c.105.056.555-.139.889-.205c.255-.056.238.227.194.377c-.011.045.011.134.172.145c.206.022 1.05-.945 1.028-1.133c-.028-.267.072-.767.022-1.134c-.027.19-.128.556-.278.511c-.183-.055-.11-.333-.06-.372c.044-.028-.095-.167-.184-.167c-.067 0-.2.24-.261.367a1 1 0 0 0-.189-.111c-.083-.033-.372.35-.5.544c-.222.04-.667.195-.667.484zm-2.317-2.806v-.411c.034-.05.134.1.178.183l-.111.211c-.017.04-.05.028-.061.017z"/><path fill="#A9D8EC" d="M15.344 13.528c-.422-.028-.45-.345-.417-.5c.361-.056.6-.467.639-.5c.039-.039.161.1.172.139c.011.033-.055.066-.122.144c-.078.078.033.167.044.261c.012.073-.205.334-.316.456"/><path fill="url(#tokenBrandedFree4)" fill-rule="evenodd" d="M6.138 12.7a3.4 3.4 0 0 1-.122-1.261c.028-.422.05-.8.239-1.033c.128-.156.183-.312.233-.44c.033-.088.056-.166.1-.194a.2.2 0 0 0 .039-.055c.111-.04.272-.134.356-.19c.11-.016.333-.05.35-.038c.027.016-.017.21-.123.311c-.105.1.284.344.411.333c.067-.01.084-.077.1-.139c.017-.055.028-.11.073-.11c.033 0 .055.021.094.055c.072.05.183.128.45.144c.406.028.489-.472.483-.522c-.005-.044-.26-.022-.427-.011l-.128.011c-.072 0-.028-.255 0-.378c0-.016-.017-.05-.1-.044c-.061.005-.106.133-.145.244c-.027.09-.055.167-.083.178c-.055.011-.022-.322 0-.494c-.028 0-.083-.011-.078-.1c.006-.106-.033-.3-.11-.273c-.045.023-.012.25.021.428c.017.106.028.195.023.222c-.011.073-.056.073-.123 0c-.027-.033-.027-.122-.027-.222c.005-.139.01-.289-.067-.31c-.139-.045-.461.244-.561.488c-.072.167-.239.261-.345.3l.056-.178c.044-.166.094-.344.156-.422c.05-.056.122-.111.188-.161c.112-.078.223-.156.256-.272c.011-.056.083-.184.206-.345l.616-.389c.045-.016.134 0 .222.017c.14.022.295.056.362-.011c.044-.045.127-.156.233-.295c.178-.233.4-.533.511-.588c.167-.09-.222.055-.289.133c-.055.078-.555.694-.822.628c-.211-.056.155-.4.367-.567l.083-.083l.15-.078q.51-.242.811-.4c.333-.167.5-.25.539-.206c.017.023.033.084.055.156c.04.144.09.311.167.278h.022c.14-.061.5-.206.745-.234c.1-.016.305-.116.527-.233c.317-.167.684-.35.873-.333a.9.9 0 0 1 .5.21c.339.023 1.089.09 1.36.19c.334.127.9.339 1.079.566l.344.361c.289.29.628.634.622.723c-.01.116-.522-.412-.777-.695c-.123-.055-.361-.128-.35 0v.15c-.017.15-.028.3.133.3c.222 0 .544.217.678.49c.127.271-.15.832-.256.866c-.055.016.017.166.089.316c.067.14.128.278.072.278c-.055 0-.094-.078-.144-.166c-.056-.095-.122-.206-.223-.245a.6.6 0 0 1-.2-.155c-.072-.078-.122-.134-.15-.028c-.027.11-.094.11-.138.11c-.034 0-.056 0-.045.04c.011.055.111.072.211.083c.078.017.156.028.15.061q0 .027-.027.061c-.045.078-.117.2.06.395c.24.25.278.783-.622 1.11c-.716.256-.383.506-.127.6c.055.09.139.306.033.44c-.1.133-.278.244-.35.283a1.7 1.7 0 0 0-.333-.478c-.095-.055-.15.261-.167.422a5 5 0 0 1-.045-.433c-.022-.233-.038-.416-.16-.322c-.145.111-.25.067-.25-.089c0-.155-.145-.678-.356-.5a36 36 0 0 0-.806.711c-.005.222-.077.667-.283.74c-.211.071-.372-.89-.422-1.373c-.156-.045-.478-.156-.534-.267c-.038-.072-.172-.11-.339-.072a.7.7 0 0 0-.21-.033c-.25 0-.323-.09-.323-.19c0-.083-.1-.033-.15 0c-.139.012-.405-.033-.405-.294c-.04-.094-.09-.039-.111 0c-.017.106-.028.334.077.411c.111.078.14.145.134.167c.06.045.194.1.222.028c.028-.089.167-.256.183-.184l.011.073c.011.072.023.16.078.166c.033 0 .139 0 .239-.016a1 1 0 0 0-.194.21c-.3.423-1.19 1.023-1.29.9h-.005c.222.034-.617-1.755-.678-1.544c.028.334.19 1.111.584 1.478l.055.045c-.01.027.017.139.045.216c.194-.055.589-.139.622 0c.033.14-.378.856-.589 1.2c.044.372.111 1.14 0 1.223a2 2 0 0 0-.333.35c.072.133.2.416.11.488c-.044.04-.044.156-.038.29c.005.194.017.41-.128.444c-.194.044-.267.022-.278 0l-1.11-1.4c0-.134 0-.445-.112-.611a2.5 2.5 0 0 1-.367-.784v-.039c0-.166 0-.416-.144-.5a.7.7 0 0 1-.15-.139c-.094-.105-.172-.194-.25-.033c-.089.195-.228.133-.289.078m2.678-3.683c-.083.066-.283.072-.378.066c-.033-.105.083-.222.2-.333c.039-.039.083-.078.111-.117c.111-.122.15-.094.161-.055c-.005.055 0 .189.09.205c.066.011.077-.06.083-.139c.01-.044.016-.094.033-.116c.05-.067.211-.011.244.044c.017.028-.016.05-.055.072c-.04.023-.084.045-.09.084c-.01.039.04.078.095.116c.056.045.111.084.111.134c.017.094-.16.127-.333.133c-.078 0-.122-.039-.161-.072c-.033-.039-.061-.067-.111-.022m1.3.544c-.356-.05-.189-.255-.056-.35c-.055-.022-.15-.122-.16-.333c0-.256.388-.306.483-.317h.016c.072-.011.111.145 0 .167c-.116.022-.322.133-.1.283c.178.122.056.195-.022.222c.094.128.189.384-.167.334z" clip-rule="evenodd"/><path fill="#F3B635" fill-rule="evenodd" d="M11.499 11.045a.77.77 0 0 0-1.095 0l-.372.36a.767.767 0 0 0 0 1.084c.3.3.784.306 1.09.006l.371-.367c.3-.3.3-.783 0-1.083zm-.245.266a.355.355 0 0 0-.5 0l-.41.406a.35.35 0 0 0 0 .5a.36.36 0 0 0 .5 0l.405-.411a.35.35 0 0 0 0-.5zm2.523-2.56a.77.77 0 0 0-1.084 0l-.372.366a.76.76 0 0 0 0 1.083c.295.3.778.3 1.083 0l.373-.367a.76.76 0 0 0 0-1.083m-.24.266a.355.355 0 0 0-.5 0l-.41.405a.35.35 0 0 0 0 .5a.357.357 0 0 0 .5 0l.41-.405a.35.35 0 0 0 0-.5" clip-rule="evenodd"/><path fill="#F3B635" d="M12.81 9.711a.22.22 0 0 0-.306 0l-.466.478v.611l.778-.777a.216.216 0 0 0-.006-.312m-1.039 1.361v-.616l-.705.722a.216.216 0 0 0 0 .306a.225.225 0 0 0 .31-.006zm-2.828 1.945H9.96v.3h-.683v.25h.683v.306h-.61v.672h-.406zm3.567 0h1.017v.3h-.684v.25h.684v.322h-.684v.317h.684v.339H12.51zm1.528 0h1.017v.3h-.684v.25h.684v.322h-.684v.317h.684v.339h-1.017z"/><path fill="#F3B635" fill-rule="evenodd" d="M11.377 13.017h-.905v1.527h.46v-.56h.168l.483.56h.416v-.105l-.483-.528a.456.456 0 0 0-.139-.889zm-.194.294h-.25v.361h.25a.18.18 0 1 0 0-.36" clip-rule="evenodd"/><path fill="#855521" d="m11.877 3.106l.223.672l.71-.056v.056l-.577.417l.222.622v.055l-.578-.416l-.578.416v-.055l.223-.622l-.578-.417v-.056h.711z"/><path fill="#FEE475" d="m11.877 3.05l.223.678h.71l-.577.417l.222.677l-.578-.422l-.578.422l.223-.677l-.578-.417h.711z"/><path fill="#DA8C21" d="m11.877 19.111l.223.678h.71l-.577.422l.222.673l-.578-.417l-.578.417l.223-.673l-.578-.422h.711l.222-.672z"/><path fill="#FEED8B" d="m9.538 3.306l.389.594l.689-.183l-.445.556l.389.594l-.667-.256l-.455.556l.039-.711L8.81 4.2l.689-.183z"/><path fill="#FEEE91" d="m7.377 4.25l.54.467l.61-.361l-.277.65l.533.466l-.711-.06l-.278.655l-.161-.695l-.711-.066l.611-.361z"/><path fill="#FEE981" d="m5.567 5.6l.639.322l.5-.5l-.112.7l.64.323l-.706.11l-.111.706l-.328-.633l-.706.111l.506-.505z"/><path fill="#855521" d="m4.188 7.456l.694.166l.334-.627l.044.027l.056.706l.644.144l.045.028l-.667.267l.056.711l-.045-.028l-.417-.516l-.66.266l-.045-.028l.378-.6z"/><path fill="#FFD650" d="m4.145 7.428l.694.167l.378-.6l.05.705l.695.172l-.667.267l.056.711l-.462-.544l-.66.266l.377-.605z"/><path fill="#FFCC3D" d="m4.105 8.9l.273.655l.71-.055l-.544.461l.273.661l-.612-.378l-.544.462l.167-.69l-.606-.372l.717-.055z"/><path fill="#855521" d="m3.649 10.99l.416.577l.667-.272l.011.05l-.417.578l.406.522l.017.05l-.678-.222l-.422.577l-.017-.05l.017-.66l-.678-.217l-.017-.05l.678-.223z"/><path fill="#FFEFB6" d="m3.632 10.944l.417.573l.677-.223l-.416.578l.422.572l-.678-.222l-.422.578v-.711l-.678-.217l.678-.222z"/><path fill="#FFDB6B" d="m3.65 13.122l.555.456l.6-.389l-.261.667l.555.45l-.722-.04l-.255.662l-.184-.689l-.711-.044l.6-.384z"/><path fill="#F0AC24" d="m4.277 15.25l.65.3l.489-.517l-.089.706l.645.3l-.7.133l-.09.706l-.344-.622l-.7.133l.49-.517l-.345-.622z"/><path fill="#855521" d="m6.388 16.65l.122.7l.717.055l-.011.045l-.628.333l.128.644l-.006.056l-.516-.494l-.628.333l.005-.055l.306-.584l-.511-.5l.005-.05l.706.106z"/><path fill="#D98C21" d="m6.393 16.6l.123.7l.71.1l-.633.333l.123.7l-.512-.5l-.633.334l.317-.64l-.517-.494l.711.1z"/><path fill="#FBC134" d="m7.816 17.84l.295.65l.711-.079l-.528.478l.29.645l-.617-.35l-.528.477l.144-.694l-.622-.356l.711-.077z"/><path fill="#855521" d="m9.483 18.778l.45.55l.65-.306l.017.05l-.39.595l.429.5l.022.055l-.69-.189l-.388.6l-.022-.055l-.017-.656l-.689-.183l-.022-.056l.667-.25l-.017-.66z"/><path fill="#EEAA2A" d="m9.466 18.722l.445.556l.666-.256l-.389.595l.45.555l-.688-.183l-.39.594l-.038-.71l-.689-.184l.667-.256z"/><path fill="#FFD247" d="m13.556 3.267l.466.538l.656-.277l-.373.61l.467.54l-.694-.167l-.367.611l-.061-.711l-.694-.167l.655-.272z"/><path fill="#FFD764" d="m15.833 3.9l.294.65l.711-.078l-.528.478l.295.645l-.622-.35l-.528.477l.144-.694l-.622-.356l.711-.077z"/><path fill="#FFF0BA" d="m17.76 5.25l.117.706l.706.105l-.634.328l.117.7l-.505-.5l-.64.328l.323-.639l-.506-.5l.706.111z"/><path fill="#FFC737" d="m19.277 7.011l-.095.706l.645.305l-.7.134l-.09.705l-.344-.628l-.7.134l.49-.517l-.345-.622l.644.3l.489-.517z"/><path fill="#E49B21" d="m19.077 9.028l.561.444l.595-.4l-.245.667l.556.439l-.711-.028l-.245.667l-.194-.684l-.711-.022l.588-.4z"/><path fill="#E09725" d="m19.683 11.006l.428.572l.678-.222l-.417.578l.428.566l-.683-.211l-.412.583l-.005-.71l-.683-.217l.677-.223z"/><path fill="#FFC837" d="m19.744 13.072l.233.678l.711-.011l-.572.428l.227.666l-.583-.405l-.572.422l.217-.678l-.584-.41l.711-.006z"/><path fill="#855521" d="m19.094 15.089l.084.711l.705.089l-.01.056l-.65.288l.094.656l-.012.056l-.483-.528l-.65.294l.011-.055l.34-.561l-.479-.528l.012-.05l.694.144z"/><path fill="#E7A026" d="m19.112 15.039l.072.706l.7.144l-.65.294l.083.706l-.483-.522l-.65.294l.35-.622l-.478-.522l.7.139l.35-.612z"/><path fill="#D98C21" d="m16.916 16.972l.628.345l.517-.49l-.128.695l.628.345l-.712.088l-.127.7l-.311-.644l-.706.094l.517-.488z"/><path fill="#DC992B" d="m15.406 18.072l.516.5l.628-.339l-.311.64l.516.494l-.71-.1l-.312.639l-.122-.7l-.711-.095l.633-.333z"/><path fill="#DB9529" d="m13.721 18.834l.39.594l.688-.183l-.444.555l.388.595l-.666-.256l-.445.556l.034-.712l-.667-.255l.683-.183z"/><defs><linearGradient id="tokenBrandedFree0" x1="8.222" x2="16.822" y1="2.461" y2="21.083" gradientUnits="userSpaceOnUse"><stop stop-color="#FDE357"/><stop offset=".44" stop-color="#DC8F21"/><stop offset="1" stop-color="#FBF1BF"/></linearGradient><linearGradient id="tokenBrandedFree1" x1="8.489" x2="16.489" y1="3.133" y2="20.445" gradientUnits="userSpaceOnUse"><stop stop-color="#FDE357"/><stop offset=".44" stop-color="#DC8F21"/><stop offset="1" stop-color="#FBF1BF"/></linearGradient><linearGradient id="tokenBrandedFree2" x1="9.484" x2="15.606" y1="5.728" y2="17.494" gradientUnits="userSpaceOnUse"><stop stop-color="#FEFACF"/><stop offset="1" stop-color="#7F5015"/></linearGradient><linearGradient id="tokenBrandedFree3" x1="11.973" x2="11.834" y1="5.811" y2="20.978" gradientUnits="userSpaceOnUse"><stop stop-color="#006EA6"/><stop offset=".3" stop-color="#024385"/><stop offset=".47" stop-color="#0B4C8B"/><stop offset=".74" stop-color="#7BC2DF"/><stop offset=".84" stop-color="#CAE8F4"/></linearGradient><linearGradient id="tokenBrandedFree4" x1="11.305" x2="11.305" y1="6.017" y2="16.155" gradientUnits="userSpaceOnUse"><stop stop-color="#E4F3FA"/><stop offset=".52" stop-color="#A9D8EC"/><stop offset=".86" stop-color="#85C3E1"/></linearGradient></defs></g></svg>