<svg xmlns="http://www.w3.org/2000/svg" xmlns:xlink="http://www.w3.org/1999/xlink" width="24" height="24" viewBox="0 0 24 24"><g fill="none"><path fill="#231F20" d="M9.468 6.216c.93-.094 2.024.294 2.53.294s1.6-.388 2.53-.294c1.746-1.77 3.064-4.93 5.035-4.07c.647.276 1.412 1.235 1.236 2.652c-.189 1.418-.93 3.218-.93 3.218c-.041.118-.053.33-.053.489c.135.682.118 2.147-1.024 2.512c-.029.253-.194.764-.47 1.282c0 .841.13 2.27.153 2.6c.076 1.118-.018 2.754-1.295 3.954c-.511.482-1.14.782-1.694 1.2c-.34.259-.63.588-.959.876A3.86 3.86 0 0 1 11.997 22a3.86 3.86 0 0 1-2.529-1.07c-.33-.289-.618-.618-.959-.883c-.553-.412-1.176-.712-1.688-1.194c-1.283-1.2-1.377-2.83-1.294-3.954c.017-.33.147-1.759.147-2.6a4.3 4.3 0 0 1-.471-1.282c-1.141-.365-1.159-1.824-1.024-2.512c0-.16-.011-.371-.059-.489c0 0-.735-1.8-.917-3.218c-.183-1.412.588-2.376 1.23-2.653c1.97-.859 3.288 2.3 5.035 4.071"/><path fill="#7C6261" d="M4.608 6.97c-.282-.789-.553-1.707-.6-2.418c-.047-.753.235-1.189.547-1.424c.488-.365.918-.235 1.306.212c.576.653 1.182 1.935 1.412 3.247c.118.7.047 1.218-.106 1.594c-.247.618-1.141 1.383-1.706.73c-.418-.5-.635-1.336-.853-1.942m14.672 0c.282-.789.547-1.707.594-2.418c.053-.753-.235-1.189-.541-1.424c-.488-.365-.918-.235-1.306.212a7.24 7.24 0 0 0-1.412 3.247a2.93 2.93 0 0 0 .106 1.594c.247.618 1.135 1.383 1.7.73c.424-.5.647-1.336.859-1.942"/><path fill="#E3BA6A" fill-rule="evenodd" d="M6.762 9.881c-.589.518-.765.724-.794.93c0 .141.129.43.258.706c.089.206.183.412.218.547c.053.141.106.882-.082 2.688c.13-.017.47-.017.812.089c.958.3 1.34-.147 1.94-1.047l.09-.142c.623-.941 1.14-1.735 2.794-1.735c1.664 0 2.153.753 2.747 1.665l.141.211c.594.9.977 1.354 1.941 1.048c.261-.08.535-.11.806-.088c-.188-1.807-.135-2.548-.082-2.69c.035-.14.13-.34.218-.546c.13-.277.258-.565.258-.706c-.029-.206-.206-.412-.8-.93a13 13 0 0 1-1.47-1.588q-.104-.134-.212-.265c-.259-.323-.724-.917-1.03-.97c-.2-.03-.764.058-1.335.14c-.47.071-.941.142-1.182.142c-.242 0-.712-.07-1.183-.141c-.565-.088-1.135-.177-1.335-.141c-.306.053-.771.647-1.03.97l-.118.153c-.023.03-.058.065-.088.112c-.259.318-.823 1.018-1.476 1.588zm2.412-.07c-.589.13-1.112.553-1.353.806c.553-.194 1.323-.312 1.759-.042c.335.206.54.765.611 1.383c.2-.341.353-.982.271-1.459c-.118-.665-.73-.824-1.294-.688zm7.03.806a3.05 3.05 0 0 0-1.353-.806c-.565-.13-1.177.023-1.295.688c-.082.476.077 1.118.271 1.46c.07-.619.283-1.178.618-1.383c.43-.271 1.2-.153 1.765.04zm-6.471 1.77c-.324-1.53-1.789-1.606-2.283-.382c.082.341.394 1.012 1.012.977c.48-.04.93-.248 1.27-.589zm6.812-.382c-.494-1.224-1.959-1.153-2.283.382c.171.183.66.56 1.271.589c.618.041.93-.63 1.012-.97" clip-rule="evenodd"/><path fill="#fff" d="M8.191 12.152c.14 0 .253-.118.253-.264a.26.26 0 0 0-.253-.265a.26.26 0 0 0-.253.264c0 .147.113.265.253.265m6.854 0c.14 0 .253-.118.253-.264a.26.26 0 0 0-.253-.265a.26.26 0 0 0-.253.264a.26.26 0 0 0 .253.265"/><path fill="#67686C" fill-rule="evenodd" d="M6.708 15.518c-.311-.118-.4.164-.4.458c.006.754.418 1.33.977 1.718c1.006.706 2.235.777 3.218 0a5.04 5.04 0 0 0 1.494-2.188a5.04 5.04 0 0 0 1.494 2.188c.983.777 2.212.706 3.218 0a2.09 2.09 0 0 0 .977-1.717c0-.295-.088-.577-.4-.46c-.553.212-1.189.3-1.718 0a3.4 3.4 0 0 1-1.265-1.411c-.647-1.242-1.47-1.471-2.306-1.471c-.841 0-1.659.23-2.306 1.47a3.4 3.4 0 0 1-1.265 1.413c-.53.3-1.165.211-1.718 0m4.718-2.607a.86.86 0 0 0-.717.412c-.265.424-.318.541-.318.689c0 .188.177.53.57.53a.53.53 0 0 0 .465-.313l-.229-.217c-.018-.018-.035-.077.03-.148c.088-.088.2-.205.323-.135a.9.9 0 0 1 .212.206c.153.224-.094.588-.312.677c-.07.035-.2.135-.112.253c.118.147.518.47.66.47c.14 0 .546-.323.658-.47c.088-.118-.041-.218-.118-.253c-.211-.089-.459-.453-.306-.677a.8.8 0 0 1 .212-.206c.124-.07.236.047.324.136c.064.07.047.129.03.147l-.23.217a.52.52 0 0 0 .465.312a.57.57 0 0 0 .57-.53c0-.146-.059-.264-.318-.694a.89.89 0 0 0-.717-.412h-1.142z" clip-rule="evenodd"/><path fill="#FA8077" d="M10.797 18.311a2 2 0 0 1-.688.336c.094.33.406.982.8 1.017c.488.047.865-.04 1.088-.158c.224.117.6.206 1.088.158c.394-.035.706-.688.8-1.017a2 2 0 0 1-.688-.336c-.412-.294-1.059-.176-1.2.589c-.141-.765-.782-.883-1.2-.589"/><path fill="#67686C" d="M9.467 18.823c-.606.1-1.117 0-1.3-.059c.289.195.977.689 1.436 1.142c.576.559 1.359 1.253 2.394 1.253s1.824-.694 2.394-1.253q.673-.628 1.436-1.142c-.177.06-.694.16-1.294.06c-.118.723-.789 2.029-2.536 1.446c-1.747.583-2.412-.723-2.53-1.447"/></g></svg>