<svg xmlns="http://www.w3.org/2000/svg" xmlns:xlink="http://www.w3.org/1999/xlink" width="24" height="24" viewBox="0 0 24 24"><g fill="none"><path fill="url(#tokenBrandedFrm0)" d="m3.47 16.712l.883.512l.882-.518v-3.824L18.4 5.56l-1.765-1.19l-11.4 6.135v-2.47l9.635-4.848L13.106 2L3.47 6.882z"/><path fill="url(#tokenBrandedFrm1)" d="M17 7.776L7 13.424V16.1l10-5.941z"/><path fill="#CCA362" d="m8.177 19.665l-1.765-1.188L17 11.94v2.383l-8.823 5.353z"/><path fill="#CCA362" d="m19.647 6.588l.883.565v9.541L11.588 22l-1.764-1.188l8.94-5.306v-8.33l.883-.594z"/><defs><linearGradient id="tokenBrandedFrm0" x1="2.597" x2="19.627" y1="16.505" y2="7.01" gradientUnits="userSpaceOnUse"><stop offset=".05" stop-color="#C5C3C5"/><stop offset=".3" stop-color="#F2F2F2"/><stop offset=".9" stop-color="#BEBBBE"/></linearGradient><linearGradient id="tokenBrandedFrm1" x1=".922" x2="27.288" y1="19.088" y2="10.78" gradientUnits="userSpaceOnUse"><stop offset=".2" stop-color="#CAA467"/><stop offset=".62" stop-color="#ECC77C"/><stop offset=".92" stop-color="#CCA362"/></linearGradient></defs></g></svg>