<svg xmlns="http://www.w3.org/2000/svg" xmlns:xlink="http://www.w3.org/1999/xlink" width="24" height="24" viewBox="0 0 24 24"><g fill="none"><path fill="url(#tokenBrandedGel0)" d="M17.398 7.817c0 .274-.258.468-.538.44a9 9 0 0 0-1.898 0c-1.28.131-2.344.56-3.322.926l-.177.063c-1.041.389-2.002.715-3.14.743a6.6 6.6 0 0 1-1.48-.137a1.21 1.21 0 0 1-.921-.943A5.792 5.792 0 1 1 17.398 7.81z"/><path fill="url(#tokenBrandedGel1)" d="M6.385 10.693a.565.565 0 0 0-.603.269a.6.6 0 0 0-.071.223a.5.5 0 0 0 .057.262l5.443 10.424a.243.243 0 0 0 .429 0l6.564-11.504a.74.74 0 0 0 .086-.378a.66.66 0 0 0-.537-.634a9.3 9.3 0 0 0-2.694-.143c-1.155.12-2.115.474-3.11.846l-.155.057a10.3 10.3 0 0 1-3.447.8c-.63.018-1.23-.05-1.962-.228z"/><path fill="url(#tokenBrandedGel2)" d="M11.428 10.39c0-.126.074-.229.189-.275l.16-.057c1.055-.417 2.157-.7 3.282-.846a9.3 9.3 0 0 1 2.693.143a.67.67 0 0 1 .538.686a.7.7 0 0 1-.086.326L11.64 21.87a.24.24 0 0 1-.212.126z"/><defs><linearGradient id="tokenBrandedGel0" x1="14.859" x2="14.859" y1="9.171" y2="21.997" gradientUnits="userSpaceOnUse"><stop stop-color="#FFC4A4"/><stop offset="1" stop-color="#FE858C"/></linearGradient><linearGradient id="tokenBrandedGel1" x1="14.859" x2="14.859" y1="9.171" y2="21.997" gradientUnits="userSpaceOnUse"><stop stop-color="#FFC4A4"/><stop offset="1" stop-color="#FE858C"/></linearGradient><linearGradient id="tokenBrandedGel2" x1="14.859" x2="14.859" y1="9.171" y2="21.997" gradientUnits="userSpaceOnUse"><stop stop-color="#FFC4A4"/><stop offset="1" stop-color="#FE858C"/></linearGradient></defs></g></svg>