<svg xmlns="http://www.w3.org/2000/svg" xmlns:xlink="http://www.w3.org/1999/xlink" width="24" height="24" viewBox="0 0 24 24"><g fill="none"><path fill="#DFF8DA" d="m12 2.994l8.006 4.5v9.012l-8 4.5l-8.011-4.5V7.494L12 3z"/><path fill="#3B896A" d="M5.878 12.828L3.49 10.094l4.24-.8z"/><path fill="#4ED9AB" d="M7.555 18.445V12.15l4.65-8.283l3.945 7.722z"/><path fill="#3B896A" d="m17.327 18.572l-5.21-2.922l4.21-3.211z"/><path fill="#4CDAC7" d="m16.494 11.272l-1.606-3.139l4.756 1.017z"/><path fill="#4ED9AB" d="m6.834 11.678l-2.39-2.734l4.24-.8z"/><path fill="#4EDBC8" fill-rule="evenodd" d="m20.889 7l-8.89-5l-8.888 5v10L12 22l8.889-5zm-1.111.606L12 3.206l-7.778 4.4v8.783l7.778 4.4l7.778-4.4z" clip-rule="evenodd"/></g></svg>