<svg xmlns="http://www.w3.org/2000/svg" xmlns:xlink="http://www.w3.org/1999/xlink" width="24" height="24" viewBox="0 0 24 24"><g fill="none"><path fill="url(#tokenBrandedGods0)" d="M3.435 7.15a43 43 0 0 1 2.682-1.135L5.36 8.72l1.988 4.74l.588 2.065l-3-1.253l-2.2-5.27l.706-1.853z"/><path fill="url(#tokenBrandedGods1)" d="m2.47 14.274l1.206-2.495l1.37 2.495l7.095 2.488l-3.312 1.805l-5.294-2.04z"/><path fill="url(#tokenBrandedGods2)" d="m17.2 12.062l-1.112-2.824l-.376-.212l-3.171 7.783l-3.712 1.706l-2.67-.824l.894 2.588l2.035.994l5.23-2.47z"/><path fill="url(#tokenBrandedGods3)" d="m14.835 21.32l-2.882-1.235l2.506-1.423l2.93-6.383l1.205 2.8l-2.035 5.436z"/><path fill="url(#tokenBrandedGods4)" d="m18.83 9.456l-2.977-1.094q1.395 3.368 2.717 6.764c.042.189-.6 1.912-.923 2.753l2.841-1.047l.824-1.94z"/><path fill="url(#tokenBrandedGods5)" d="m7.977 14.674l3.311-7.642l4.565 1.642l-3.406 8.064l-4.47-2.058z"/><path fill="url(#tokenBrandedGods6)" d="m15 5.209l-2.859 1.423l6.665 2.653l1.447 2.806l1.082-2.541l-.682-2.118l-5.647-2.223z"/><path fill="url(#tokenBrandedGods7)" d="m16.917 3.45l.924 2.541l-.147.212l-2.624-1.041l-3.547 1.517l-3.547 8l-1.23-3.064L9.37 4.92l5.394-2.3z"/><path fill="url(#tokenBrandedGods8)" d="m5.306 8.626l2.012-5.152l2.223-1l2.506 1.294l-2.506 1.04l-2.912 6.789l-1.323-2.965z"/><path fill="#4AB7E5" d="m14.647 11.044l-.188-.094l-3.765-1.688l-.094.235l3.953 1.765z"/><path fill="#2E6CA9" d="m7.176 20.085l1.883.853l.07-.282l-1.794-.782l-.759-1.854l-.164-.164l-.118.164l.876 2.065z"/><path fill="#0B3463" d="m17.082 12.75l.071.359l.094-.212l.9 2.23l-2.012 4.911l.212.188l2.082-5.1l-.94-2.376z"/><path fill="#3286C1" d="m8.141 14.203l-.14-.17h-.048l-.924-2.16h-.235l.941 2.271a.236.236 0 0 0 .4.065z"/><path fill="#0B427B" d="m11.382 6.609l-.188-.17L8 14.031l.165.218l3.217-7.647z"/><path fill="#328ABA" d="M15.023 4.78v.282l-3.641 1.547l-.188-.17z"/><path fill="#07366B" d="M4 12.256h-.394l.118.259l.047-.094l.017-.018a.05.05 0 0 1 .048 0q.01.006.017.018l.912 2.206l6.17 2.564l-.094.047l.236.141v-.329l-6.194-2.612z"/><path fill="#327ABB" d="m3.035 14.32l-.164.142l.705 1.823l5.112 2.094l2.388-1l-.235-.14l-2.153.9l-4.923-2.042l-.736-1.777z"/><path fill="#1D4D76" d="m3.606 12.256l.117.259l-.705 1.735l.017.07l-.164.142l-.048-.142z"/><path fill="#348AC9" d="m5.047 14.15l2.365.976l.212-.07l-.024-.024l-.212-.217l-2.176-.853l-2.036-4.983h-.305l2.176 5.177z"/><path fill="#0B3061" d="M6.294 6.038L3.747 7.103l.118.194l1.982-.859l-.964 2.235l2.505 6.142l.283.288v-.353L5.094 8.69L6.3 6.038z"/><path fill="#093062" d="m9.323 4.874l-.164-.212l-2.53 6.1l.165.235l2.53-6.117z"/><path fill="#0C2F57" d="m7.617 3.597l.077.088l1.823-.759l1.824.765l-.03.07l.047.213l.053-.024c.07-.03.118-.1.118-.176v-.118c0-.053-.035-.1-.088-.124l-1.853-.83a.2.2 0 0 0-.147.001l-1.789.747a.094.094 0 0 0-.035.147"/><path fill="#2C73AA" d="m9.323 4.874l2.118-.936a.15.15 0 0 0 .082-.13l-.212-.046l-2.153.9z"/><path fill="#1F5275" d="m3.482 11.303l-.211.1l-1.23 2.847h.188l1.253-2.941z"/><path fill="#0E1D3D" d="m2 14.326l.041-.076h.188l-.017.076v.03l.912 2.223c0 .012.011.018.023.024l2.8 1.194l.03.03l1.117 2.929l.03.023l1.923.818h.035l2.706-1.124a.05.05 0 0 1 .041 0l2.941 1.242h.036l1.812-.765l.023-.03l1.235-2.764l.03-.024l2.87-1.147l.024-.023l.823-1.812h.283l-.871 2.023c0 .012-.012.018-.023.024l-2.989 1.194a.05.05 0 0 0-.03.03l-1.187 2.67l-.024.023l-2.047.883H14.7l-2.918-1.312h-.041L9.035 21.81H9l-2.088-.86a.05.05 0 0 1-.03-.029l-1.094-2.953a.05.05 0 0 0-.03-.023l-2.752-1.1a.05.05 0 0 1-.024-.03L2 14.363z"/><path fill="#348296" d="m20.817 12.444l1.088 2.706h-.282l-1.018-2.706z"/><path fill="#225973" d="m20.77 12.327l.048.117h-.212l-.07-.165l1.229-2.8l-.9-2.235c.188.053.994 2.165.994 2.165H22z"/><path fill="#377585" d="M21.177 7.226L22 9.403h-.141l-.9-2.035l-2.624-1.142l.095-.14l2.74 1.134z"/><path fill="#255A73" d="m18.335 6.226l.094-.14l-1.04-2.965l-.142.188z"/><path fill="#336C80" d="m15 2.191l2.388.93l-.14.188l-2.413-1.047z"/><path fill="#0E3762" d="m9.635 4.944l.118.188l4.988-2.058l1.77.758l.76 1.894l.235.118v-.306l-.777-1.853l-1.894-.882a.24.24 0 0 0-.194 0z"/><path fill="#4396D9" d="m17.506 5.826l-.236-.1l-2.247-.947v.283l2.436.976z"/><path fill="#0F3467" d="m13.012 6.532l-.235-.164l2.435-1.065l5.059 2.112l.83 1.994l-.871 2.058l-.171-.211l.782-1.847l-.735-1.783l-4.894-2.058l-2.2.97z"/><path fill="#3C94CC" d="m13.012 6.532l-.235-.164l.047.353L19 9.338l.87 2.136h.354l-.165-.218h-.07l-.848-2.159l-6.13-2.559z"/><path fill="#0A3260" d="m16.394 8.815l-.259-.353l2.718 1.135l2.106 5.076l-.806 1.924l-.188-.165l.735-1.806l-2.035-4.911z"/><path fill="#3B9ED4" d="m16.394 8.815l-.258-.353l-.071.188l2.67 6.382h.236z"/><path fill="#2B709C" d="m20.153 16.597l-.189-.165l-2.076.806v.306z"/><path fill="#3581BD" d="m14.27 21.08l2.077-.854l-.212-.188l-1.77.759l-2.06-.947v.33z"/><path fill="#0C396A" d="m14.529 18.897l-2.224.953l.26.117l2.152-.952z"/><path fill="#0C4D7D" d="m15.665 9.456l.14.259l.024-.071h.094l.9 2.253l-2.764 6.694l.188.212l2.811-6.882l-.97-2.471h-.424z"/><path fill="#266096" d="m9.065 20.944l5.176-2.141l-.188-.212l-4.918 2.059z"/><path fill="#092D54" d="m6.588 18.02l-.176-.164h.453l1.964.829l3.641-1.494l.189.118l-3.853 1.635l-2.224-.924z"/><path fill="#3584C7" d="m6.605 10.809l.024-.047l.165.235h-.377L5.376 8.55h.306z"/><path fill="#0D628F" d="m15.164 9.338l-3.823-1.64l-.047.117l-.147-.33h.376l3.93 1.706v.07l-.806 1.783l-.189-.094z"/><path fill="#0B799C" d="m10.082 10.097l.165.212l.041-.094l3.788 1.659l-.705 1.588l.211.147l.665-1.588l.094-.242l-3.788-1.682z"/><path fill="#3CA3D6" d="m13.582 13.609l-.212-.147l-3.764-1.636l-.089.189l3.994 1.735z"/><path fill="#0D668A" d="m12.518 16.144l-.26-.118l.754-1.658l-3.783-1.642l-.047.1l-.188-.235h.377l3.929 1.683z"/><path fill="#3790CC" d="m12.517 16.144l-.188-.141l-3.806-1.659l-.094.212l4.018 1.758z"/><path fill="#2E647A" d="m12.447 3.262l-3.03-1.259l-2.217.97h.447l1.77-.705l3.03 1.235z"/><path fill="#0F2D54" d="m2.565 9.026l-.13.048l.836 2.329l.211-.1z"/><path fill="url(#tokenBrandedGods9)" fill-rule="evenodd" d="M9.37 2.08a.2.2 0 0 1 .148 0l2.7 1.188a.18.18 0 0 0 .147 0l2.47-1l2.36 1a.2.2 0 0 1 .105.105l.982 2.66a.2.2 0 0 0 .1.105l2.412 1.065a.2.2 0 0 1 .094.1l.87 2.106a.16.16 0 0 1 0 .147l-1.176 2.635a.2.2 0 0 0-.005.147l1.04 2.706a.23.23 0 0 1 0 .153l-.764 1.73a.2.2 0 0 1-.106.1l-2.782 1.105a.2.2 0 0 0-.106.1l-1.177 2.665a.2.2 0 0 1-.094.094l-1.747.747a.2.2 0 0 1-.153 0l-2.806-1.218a.2.2 0 0 0-.147 0l-2.594 1.077a.2.2 0 0 1-.147 0l-1.864-.765a.2.2 0 0 1-.1-.118l-1.06-2.829a.2.2 0 0 0-.1-.112l-2.693-1.117a.2.2 0 0 1-.106-.112l-.865-2.147a.2.2 0 0 1 0-.147l1.17-2.76a.2.2 0 0 0 0-.146L2.419 9.05a.2.2 0 0 1 0-.153l.9-2.07a.2.2 0 0 1 .106-.107l2.447-.964a.2.2 0 0 0 .1-.094L7.16 3.068a.2.2 0 0 1 .1-.095l2.106-.894zm8.512 15.176c0 .129.13.211.242.164l1.953-.835a.22.22 0 0 0 .105-.1l.718-1.765a.2.2 0 0 0 0-.14l-2.047-4.913a.2.2 0 0 0-.1-.1l-2.53-1.058a.094.094 0 0 0-.117.117l2.623 6.406h.236l-.894 2.159l-.189.07zm-4.94-10.96a.19.19 0 0 0-.118.177v.077c0 .076.04.147.117.176l6.047 2.612l.83 1.994c.03.07.1.118.176.118h.059a.19.19 0 0 0 .176-.118l.806-1.788a.2.2 0 0 0 0-.147L20.3 7.532a.2.2 0 0 0-.106-.1L15.282 5.38a.2.2 0 0 0-.147 0zM9.434 2.72a.2.2 0 0 1 .148 0l1.823.8c.07.03.118.1.118.177v.07a.19.19 0 0 1-.118.177l-2.018.87a.2.2 0 0 0-.1.1L6.84 10.885a.19.19 0 0 1-.176.118h-.118a.19.19 0 0 1-.176-.118l-.906-2.118a.147.147 0 0 1 .135-.211h.083L7.694 3.69a.14.14 0 0 1 .041-.235l1.706-.73zm2 3.83a.2.2 0 0 0-.1.106l-3.147 7.47a.19.19 0 0 1-.176.118h-.106a.19.19 0 0 1-.176-.118l-.877-2.1a.11.11 0 0 1 .1-.153a.1.1 0 0 0 .1-.064L9.74 5.132a.09.09 0 0 0-.011-.094a.09.09 0 0 1 0-.117a.1.1 0 0 1 .035-.024l4.894-2.077a.2.2 0 0 1 .153 0l1.835.86a.2.2 0 0 1 .1.111l.677 1.947a.164.164 0 0 1-.224.206l-2.106-.877a.2.2 0 0 0-.147 0zm4.494 2.906c.077 0 .148.047.177.117l.87 2.253a.2.2 0 0 1 0 .141l-2.729 6.765a.2.2 0 0 1-.106.1l-5 2.07a.2.2 0 0 1-.153 0l-1.753-.788a.2.2 0 0 1-.094-.1l-.788-1.894a.188.188 0 0 1 .177-.259h.294c.023 0 .047 0 .07.012l1.87.812a.2.2 0 0 0 .148 0l3.553-1.488l.188.117l.282-.658l2.842-6.877a.2.2 0 0 0 0-.117l-.047-.2h.2zM12.54 19.985a.188.188 0 0 0 .047.312l1.648.73c.046.017.1.017.146 0l1.865-.766a.2.2 0 0 0 .1-.105l2.047-4.96a.2.2 0 0 0 0-.146l-.917-2.294h-.4l.07.235a.2.2 0 0 1 0 .135l-2.435 5.888l-.188-.117l-2.224.953l.259.117zm-.094-3.888a.19.19 0 0 1-.247.094l-3.588-1.588a.19.19 0 0 1-.094-.242l.74-1.705a.1.1 0 0 1 .053-.057a.1.1 0 0 1 .077-.002l3.724 1.6c.1.04.141.153.1.253zm1.135-2.524a.2.2 0 0 1-.105.104a.2.2 0 0 1-.147-.004l-3.636-1.588a.19.19 0 0 1-.094-.241l.677-1.606a.19.19 0 0 1 .247-.1l3.647 1.565a.184.184 0 0 1 .1.24l-.024.066l-.659 1.558zm1.042-2.488a.19.19 0 0 1-.18.112a.2.2 0 0 1-.073-.018l-3.606-1.6a.2.2 0 0 1-.101-.103a.2.2 0 0 1 0-.144l.69-1.67a.19.19 0 0 1 .246-.1l3.67 1.582a.18.18 0 0 1 .095.247zm-11.77 3.306a.2.2 0 0 1 0-.135l.723-1.883a.18.18 0 0 1 .176-.117h.094c.077 0 .147.047.177.117l.823 2.012a.2.2 0 0 0 .1.106l6.006 2.506c.07.03.118.1.118.176v.083a.2.2 0 0 1-.118.176l-2.2.912a.2.2 0 0 1-.141 0L3.67 16.297a.2.2 0 0 1-.1-.106zm2.234-5.694l2.56 6.07l-.048.189a.187.187 0 0 1-.253.135l-2.23-.912a.2.2 0 0 1-.1-.1L2.995 9.256a.19.19 0 0 1 .112-.247l.07-.03l.689-1.682a.16.16 0 0 1 .059-.253l1.911-.8c.16-.065.312.1.242.253l-.983 2.2z" clip-rule="evenodd"/><defs><linearGradient id="tokenBrandedGods0" x1="9.059" x2="11.816" y1="4.34" y2="21.413" gradientUnits="userSpaceOnUse"><stop stop-color="#1155F2"/><stop offset="1" stop-color="#8FE7FB"/></linearGradient><linearGradient id="tokenBrandedGods1" x1="3.752" x2="21.867" y1="6.889" y2="13.697" gradientUnits="userSpaceOnUse"><stop stop-color="#114CF9"/><stop offset=".72" stop-color="#9AE5FA"/><stop offset="1" stop-color="#52C9FA"/></linearGradient><linearGradient id="tokenBrandedGods2" x1="19.73" x2="7.998" y1="4.365" y2="21.729" gradientUnits="userSpaceOnUse"><stop stop-color="#5BDDFB"/><stop offset=".23" stop-color="#D2FAFB"/><stop offset="1" stop-color="#1659F1"/></linearGradient><linearGradient id="tokenBrandedGods3" x1="18.793" x2="13.482" y1="5.931" y2="22.021" gradientUnits="userSpaceOnUse"><stop stop-color="#4ED3F9"/><stop offset=".23" stop-color="#82E0FA"/><stop offset="1" stop-color="#1563F1"/></linearGradient><linearGradient id="tokenBrandedGods4" x1="8.228" x2="10.524" y1="4.203" y2="20.757" gradientUnits="userSpaceOnUse"><stop stop-color="#5EDEFB"/><stop offset="1" stop-color="#136DE8"/></linearGradient><linearGradient id="tokenBrandedGods5" x1="15.757" x2="9.977" y1="4.839" y2="20.643" gradientUnits="userSpaceOnUse"><stop stop-color="#73E2FC"/><stop offset=".25" stop-color="#D5F7FA"/><stop offset=".49" stop-color="#EAFBFC"/><stop offset=".72" stop-color="#CCF6FB"/><stop offset="1" stop-color="#83E9FB"/></linearGradient><linearGradient id="tokenBrandedGods6" x1="20.669" x2="4.362" y1="14.615" y2="8.941" gradientUnits="userSpaceOnUse"><stop stop-color="#1566F0"/><stop offset="1" stop-color="#87DCFB"/></linearGradient><linearGradient id="tokenBrandedGods7" x1="19.826" x2="4.514" y1="5.699" y2="20.609" gradientUnits="userSpaceOnUse"><stop stop-color="#1E68F3"/><stop offset=".33" stop-color="#5AC9FD"/><stop offset=".7" stop-color="#BAF5FC"/><stop offset="1" stop-color="#50CFFB"/></linearGradient><linearGradient id="tokenBrandedGods8" x1="12" x2="8.657" y1="2.016" y2="20.474" gradientUnits="userSpaceOnUse"><stop stop-color="#2972F7"/><stop offset=".63" stop-color="#93E0FD"/><stop offset="1" stop-color="#8ADAFC"/></linearGradient><linearGradient id="tokenBrandedGods9" x1="12.613" x2="15.854" y1="7.25" y2="20.909" gradientUnits="userSpaceOnUse"><stop stop-color="#255E8B"/><stop offset=".3" stop-color="#2492AE"/><stop offset="1" stop-color="#153A5A"/></linearGradient></defs></g></svg>