<svg xmlns="http://www.w3.org/2000/svg" xmlns:xlink="http://www.w3.org/1999/xlink" width="24" height="24" viewBox="0 0 24 24"><g fill="none"><path fill="url(#tokenBrandedGofx0)" d="M15.493 2.094c.775.125 1.32.275 1.644.469c.313.187.656.562 1.019 1.125c-.194.162-.363.25-.506.275c-.394.069-.77-.081-1.12-.238a.78.78 0 0 0-1.012.363a.65.65 0 0 0 .157.762c.206.175.525.22.775.294q.226.178.2.488c-.02.212-.12.412-.3.612l.287.769q-.517.114-1.25.069c-.819-.05-1.412-.85-2.125-1.213A6 6 0 0 0 12 5.75c-3.75 0-6.25 2.925-6.25 6.25c0 3.288 2.812 6.25 6.3 6.25c2.762 0 4.53-1.344 5.575-3.125h-1.938c-.969 0-1.825-.5-2.093-1.406l-.326-1.169a.4.4 0 0 1-.018-.119a.437.437 0 0 1 .437-.43h7.125c.587 0 1.1.437 1.169 1.006l.018.243c.02 1.025-.53 2.45-1.056 3.438A10.06 10.06 0 0 1 12.05 22A10.05 10.05 0 0 1 2 12c0-5.2 4.044-9.393 9.187-9.825c.688-.1 1.375-.18 2.063-.175c.612 0 1.356.038 2.243.094m2.944 1.944q.421.328.544.544q.112.208.225.706l.012.062l1.9 1.675a.6.6 0 0 1 .207.35l.006.038l.018.125a.125.125 0 0 1-.068.125l-.02.006l-.099.038l-.094-.013c-1.925-.25-3.1-.469-3.525-.644q-.563-.234-.243-1.068c.112-.275 0-.513-.1-.763c-.1-.237-.332-.406-.507-.581c-.206-.038-.387 0-.587-.075a.2.2 0 0 1-.075-.056c-.125-.125-.038-.332.113-.4c.25-.125.58.062.787.193c.406.082.706.1.9.07c.187-.032.394-.145.606-.332"/><defs><linearGradient id="tokenBrandedGofx0" x1="4.05" x2="18.181" y1="6.644" y2="20.988" gradientUnits="userSpaceOnUse"><stop stop-color="#5250FF"/><stop offset="1" stop-color="#E959FF"/></linearGradient></defs></g></svg>