<svg xmlns="http://www.w3.org/2000/svg" xmlns:xlink="http://www.w3.org/1999/xlink" width="24" height="24" viewBox="0 0 24 24"><g fill="none"><path fill="#0F0" d="M16.47 12.682c.048.058.03.152-.034.2a2.705 2.705 0 0 0-.906 3.146c.13.283.37.524.676.718s.659.335.988.424c.248.064.5.105.765.135l.177.023c1.717.194 3.582.794 3.864 2.736v.023c0 .07-.053.135-.123.141a.147.147 0 0 1-.171-.118c-.259-1.805-2.018-2.311-3.594-2.494l-.194-.023c-.265-.03-.53-.07-.8-.141a3.9 3.9 0 0 1-1.07-.465a2.05 2.05 0 0 1-.783-.84a3 3 0 0 1 1-3.495a.146.146 0 0 1 .2.03zm.266-3.665a.15.15 0 0 1 .176.106a8.4 8.4 0 0 1 .03 3.182a.147.147 0 0 1-.283.012a1 1 0 0 0-.059-.118a1.41 1.41 0 0 0-1.206-.74c-.623-.036-1.435.264-2.17.587l-.63.294l-.34.165l-.371.159c-.1.035-.2.065-.282.07c-.13 0-.271-.058-.4-.129a3 3 0 0 1-.412-.294a8 8 0 0 1-.6-.588a.86.86 0 0 1-.67.117a1.53 1.53 0 0 1-.707-.429a2.1 2.1 0 0 1-.47-.718a1.06 1.06 0 0 1-.03-.764a.145.145 0 0 1 .195-.083c.07.03.111.118.076.188c-.059.148-.047.342.035.56c.083.211.224.435.4.611c.177.177.377.3.57.347a.54.54 0 0 0 .519-.135a.15.15 0 0 1 .165-.024a.2.2 0 0 1 .046.035c.153.177.412.442.665.66c.13.105.253.2.365.264c.117.065.2.094.24.088a.6.6 0 0 0 .189-.053c.1-.035.212-.082.353-.147l.33-.159l.646-.294c.73-.329 1.6-.658 2.306-.623a1.7 1.7 0 0 1 1.318.688a8 8 0 0 0-.106-2.664a.14.14 0 0 1 .019-.112a.15.15 0 0 1 .093-.065z"/><path fill="#fff" d="M14.36 13.152c.07.041.088.135.046.2a4.54 4.54 0 0 0-.505 3.588a3.33 3.33 0 0 0 2.735 2.418a.15.15 0 0 1 .121.112a.15.15 0 0 1-.018.113a.15.15 0 0 1-.15.069a3.62 3.62 0 0 1-2.97-2.624a4.82 4.82 0 0 1 .54-3.823a.15.15 0 0 1 .2-.053"/><path fill="#98FCBF" d="M9.87 12.646a.146.146 0 0 1 .2.047c.636 1 .865 1.906.76 2.688a2.84 2.84 0 0 1-.895 1.788a4.5 4.5 0 0 1-1.794.912c-.488.159-1.017.253-1.529.33c-.906.135-1.912.058-2.67.64c-.324.236-.565.577-.694 1.071a.15.15 0 0 1-.18.11a.15.15 0 0 1-.109-.18c.147-.56.43-.953.8-1.235c.806-.612 1.853-.548 2.806-.695c.512-.076 1.024-.164 1.488-.317a4.2 4.2 0 0 0 1.683-.853a2.56 2.56 0 0 0 .8-1.612c.094-.694-.1-1.53-.712-2.488a.147.147 0 0 1 .047-.2z"/><path fill="#fff" d="M15.188 9.67c-.235.059-.43.188-.547.3a.14.14 0 0 1-.206 0a.147.147 0 0 1 0-.206c.147-.141.388-.312.688-.377a1.15 1.15 0 0 1 1.012.253c.059.047.07.142.018.206a.147.147 0 0 1-.206.018a.87.87 0 0 0-.759-.194m-4.835-.418a.155.155 0 0 1 .212.012l1.506 1.594a.14.14 0 0 1 0 .206a.155.155 0 0 1-.212 0l-1.506-1.606a.147.147 0 0 1 0-.206"/><path fill="#FFFC00" d="M14.742 4.611c-.918 0-1.771.059-2.283.2c-.317.088-.564.265-.664.53c-.1.253-.1.623.188 1.14a1.57 1.57 0 0 0 1.37.83h.006c.489 0 .924-.147 1.3-.306l.23-.094q.151-.072.294-.118c.147-.064.3-.117.44-.117c.148 0 .313.047.471.106l.447.188l.06.023c.352.16.693.306 1 .318a.8.8 0 0 0 .429-.118c.117-.088.188-.2.194-.311c.035-.688-.436-1.353-1.077-1.747c-.676-.412-1.57-.524-2.405-.524m-2.36-.076c.548-.153 1.442-.212 2.36-.212c.852 0 1.811.106 2.564.565c.694.43 1.253 1.182 1.212 2.005c-.012.236-.147.412-.324.53a.95.95 0 0 1-.606.176a3.3 3.3 0 0 1-1.111-.335l-.053-.023a5 5 0 0 0-.43-.183a1.1 1.1 0 0 0-.37-.088c-.083 0-.188.03-.341.088l-.27.118l-.236.1c-.388.159-.865.323-1.412.33c-.364.017-1.176-.154-1.64-.983c-.313-.57-.348-1.035-.207-1.394c.153-.377.488-.588.859-.694z"/><path fill="#FFFC00" d="M11.277 5.558c.053.06.04.153-.018.206c-.176.153-.518.653-.312 1.377c.018.058 0 .105-.035.147L8.877 9.264l.1.018c.147.035.306.094.441.194l1.9-1.594a.147.147 0 0 1 .206.017c.53.647 1.341.765 2.13.577c.405-.094.705-.236.982-.359l.04-.018c.277-.135.548-.253.854-.253c.088 0 .182.03.27.071s.188.094.282.159c.195.123.395.288.56.435a.35.35 0 0 0 .217.094c.076 0 .176-.03.282-.094c.047-.023.13-.094.236-.188q.349-.326.658-.688l.03-.03c.058-.059.147-.07.211-.017a.154.154 0 0 1 .012.205l-.035.036q-.33.364-.682.706c-.1.094-.206.182-.283.235a.9.9 0 0 1-.43.123a.6.6 0 0 1-.41-.164a5 5 0 0 0-.766-.547a.4.4 0 0 0-.152-.047a1.75 1.75 0 0 0-.771.247c-.276.123-.606.282-1.041.382c-.8.182-1.694.1-2.323-.57L9.512 9.781a.147.147 0 0 1-.2-.012a.8.8 0 0 0-.4-.2a1.2 1.2 0 0 0-.365-.024a.147.147 0 0 1-.16-.172a.15.15 0 0 1 .043-.08l2.212-2.16a1.62 1.62 0 0 1 .423-1.588c.059-.058.159-.047.212.012"/><path fill="#fff" d="M10.16 6.188a.143.143 0 0 1-.024.206c-.94.752-1.176 1.529-1.217 1.952a.147.147 0 0 1-.165.13a.147.147 0 0 1-.13-.159c.048-.494.324-1.347 1.33-2.147a.147.147 0 0 1 .206.018"/><path fill="#0F0" d="M8.483 4.952c1.117-.929 2.758-1.394 4.8-1.1a.147.147 0 1 1-.042.289c-1.976-.283-3.529.164-4.564 1.035A4.32 4.32 0 0 0 7.17 8.787c.035.753.224 1.589.665 2.394q.387.64.917 1.165c.3.33.618.67.853 1.047c.541.841.612 1.977-.059 2.794c-.611.741-1.523.977-2.458 1.106l-.806.094l-.612.07c-.47.06-.918.136-1.33.277a3.24 3.24 0 0 0-2.05 2.376a.147.147 0 0 1-.29-.052a3.53 3.53 0 0 1 2.247-2.6c.435-.147.911-.23 1.382-.294l.635-.065l.783-.094c.929-.13 1.735-.353 2.27-1c.576-.706.53-1.694.041-2.459a8 8 0 0 0-.823-1.012l-.07-.07a6.3 6.3 0 0 1-.883-1.141a5.8 5.8 0 0 1-.706-2.524a4.61 4.61 0 0 1 1.606-3.847"/><path fill="#98FCBF" d="M10.765 4.752a.15.15 0 0 1-.083.195c-2.6 1.105-2.988 3.158-2.912 4.117a.148.148 0 0 1-.24.12a.15.15 0 0 1-.054-.097c-.082-1.058.353-3.24 3.089-4.411c.076-.03.164 0 .194.076z"/><path fill="#0F0" d="M12.647 5.464a.52.52 0 0 1 .194-.247l.135-.082c.024-.012.041-.041.03-.06l-.036-.105a.054.054 0 0 1 .041-.065l.236-.064c.023-.012.059 0 .059.029l.04.118c.012.017.036.035.06.03l.176.005a.66.66 0 0 1 .3.106h.012q.103.077.159.194c.011.023 0 .059-.036.059l-.282.082a.065.065 0 0 1-.07-.03a.24.24 0 0 0-.124-.088a.49.49 0 0 0-.412.076a.2.2 0 0 0-.082.09a.15.15 0 0 0 0 .105c.005.03.023.059.047.077a.2.2 0 0 0 .088.035c.03.012.07.017.112.017h.123l.188-.011q.115-.009.23 0l.023.006q.115.015.212.058a.45.45 0 0 1 .277.283a.4.4 0 0 1 0 .282a.53.53 0 0 1-.194.241a.6.6 0 0 1-.177.094c-.018.012-.035.042-.024.065l.042.13a.047.047 0 0 1-.036.064l-.235.065c-.03.012-.059 0-.07-.03l-.048-.14c-.005-.03-.029-.042-.058-.042q-.098.009-.194 0a.67.67 0 0 1-.353-.13h-.006a.6.6 0 0 1-.153-.205c-.018-.03 0-.059.035-.065l.283-.076c.029-.006.058.006.07.03a.3.3 0 0 0 .082.081q.073.046.16.053c.13.009.26-.024.37-.094a.26.26 0 0 0 .094-.106a.15.15 0 0 0 0-.117a.15.15 0 0 0-.07-.083a.3.3 0 0 0-.13-.035h-.418q-.127.009-.253-.006a.8.8 0 0 1-.182-.047a.4.4 0 0 1-.241-.259a.4.4 0 0 1 0-.294zm4.017-.006h.006a.5.5 0 0 1 .218.012a.2.2 0 0 1 .059.047l.023.024c.012.017.03.035.053.035h.012l.223-.041c.03 0 .053-.03.041-.06a.4.4 0 0 0-.117-.152a.4.4 0 0 0-.083-.059a.7.7 0 0 0-.294-.07a.06.06 0 0 1-.058-.03v-.012l-.018-.076v-.012a.06.06 0 0 0-.065-.03l-.176.036c-.03 0-.053.03-.047.059l.017.07v.018a.06.06 0 0 1-.035.041l-.018.012a.7.7 0 0 0-.152.088a.44.44 0 0 0-.124.141a.33.33 0 0 0-.024.236a.33.33 0 0 0 .177.23a.6.6 0 0 0 .176.058q.088.016.177.018l.182.011q.08.002.159.012a.2.2 0 0 1 .076.024a.2.2 0 0 1 .047.029q.027.024.036.059c.011.035 0 .07-.012.1l-.018.023a.2.2 0 0 1-.07.053a.4.4 0 0 1-.141.047a.5.5 0 0 1-.165 0a.3.3 0 0 1-.13-.047a.2.2 0 0 1-.058-.064a.07.07 0 0 0-.053-.036h-.012l-.223.036c-.03.006-.053.035-.042.058c.03.084.083.158.153.212l.012.006l.076.041a.6.6 0 0 0 .236.06h.064a.06.06 0 0 1 .06.028v.012l.023.106v.006a.06.06 0 0 0 .065.03l.176-.03c.035-.006.053-.035.047-.059l-.024-.094v-.018a.06.06 0 0 1 .042-.047c.006 0 .017 0 .029-.011a1 1 0 0 0 .118-.06a.44.44 0 0 0 .17-.176a.35.35 0 0 0-.053-.382a.4.4 0 0 0-.17-.118a.6.6 0 0 0-.159-.047h-.047c-.041-.011-.088-.011-.13-.011l-.152-.006l-.1-.006h-.006a.5.5 0 0 1-.089-.024a.2.2 0 0 1-.07-.04a.1.1 0 0 1-.035-.06a.12.12 0 0 1 .011-.088v-.006a.2.2 0 0 1 .077-.059a.4.4 0 0 1 .13-.047"/><path fill="#fff" d="M11.694 15.47c.082 0 .153.058.153.14c.012.4-.094 1-.518 1.607c-.429.605-1.176 1.205-2.435 1.623c-.37.117-.812.194-1.253.259c-.794.111-1.682-.012-2.4.382c-.288.159-.47.359-.552.647a.15.15 0 0 1-.176.09a.147.147 0 0 1-.107-.166c.1-.383.353-.647.688-.824c.76-.412 1.677-.306 2.506-.417a7 7 0 0 0 1.2-.247c1.212-.4 1.9-.971 2.288-1.518c.389-.547.47-1.082.465-1.424a.15.15 0 0 1 .141-.152"/><path fill="#98FCBF" d="M14.507 12.464c-.542.153-1.147.382-1.53.564c-.57.265-.553.595-.53.671c.189.535.536 1.882.407 2.959c-.07.553-.353 1.094-.677 1.5a4.6 4.6 0 0 1-.923.882a.15.15 0 0 1-.165 0a.146.146 0 0 1 0-.241a4.3 4.3 0 0 0 .859-.824c.294-.382.553-.87.611-1.353a7.3 7.3 0 0 0-.388-2.829c-.088-.253.012-.717.683-1.03a11 11 0 0 1 1.57-.582c.277-.076.547-.14.765-.164c.1-.012.2-.018.288-.012a.4.4 0 0 1 .241.094a.33.33 0 0 1 .077.259a1 1 0 0 1-.083.265c-.076.176-.2.4-.335.617l-.153.26l-.247.41c-.123.219-.223.4-.259.53c-.082.277-.117.788-.035 1.353c.082.553.282 1.135.641 1.553a.148.148 0 0 1-.123.242a.15.15 0 0 1-.1-.048a3.4 3.4 0 0 1-.706-1.706c-.088-.588-.06-1.153.041-1.47c.047-.17.159-.383.282-.594l.26-.43l.146-.247a4.4 4.4 0 0 0 .318-.588a.7.7 0 0 0 .059-.2a1 1 0 0 0-.283 0a5 5 0 0 0-.706.159zm1.005 5.229c.053-.059.141-.077.206-.024c.259.2.87.571 1.547.742q.526.108 1.065.123c.353.024.712.053 1.041.118c.824.182 1.27.511 1.27 1.43a.147.147 0 1 1-.294 0c0-.783-.353-.99-1.04-1.142c-.307-.065-.648-.088-1-.118h-.042c-.359-.023-.74-.047-1.07-.129a4.8 4.8 0 0 1-1.665-.794a.147.147 0 0 1-.023-.206zM9.49 10.082a1 1 0 0 1 .235.235a.145.145 0 0 1-.04.2a.15.15 0 0 1-.165.004a.2.2 0 0 1-.042-.04a.6.6 0 0 0-.153-.158a.2.2 0 0 0-.058-.03c-.006.006-.012.024-.006.06c0 .058.03.134.07.217c.094.165.241.306.4.33c.018 0 .047 0 .1-.066a1.4 1.4 0 0 0 .118-.2l.035-.07c.059-.118.153-.206.282-.218a.43.43 0 0 1 .295.1c.07.06.14.136.2.2l.059.07l.093.1l.7.766c.03.035.13.082.236.011l.011-.006a19 19 0 0 1 2.895-1.176c.247-.07.576-.135.894-.106c.323.03.647.165.858.5a.14.14 0 0 1-.047.2a.147.147 0 0 1-.2-.047c-.147-.235-.376-.335-.64-.365a2.2 2.2 0 0 0-.789.1c-.882.241-2.153.806-2.823 1.147a.494.494 0 0 1-.606-.047l-.706-.77a3 3 0 0 1-.159-.183c-.059-.064-.106-.117-.159-.159c-.059-.046-.082-.046-.082-.046l-.012.005l-.07.118c-.042.077-.095.176-.153.253c-.077.094-.2.206-.377.176c-.282-.047-.494-.27-.612-.482a.9.9 0 0 1-.105-.33c-.006-.1.005-.235.111-.311c.153-.118.318-.047.412.018"/></g></svg>