<svg xmlns="http://www.w3.org/2000/svg" xmlns:xlink="http://www.w3.org/1999/xlink" width="24" height="24" viewBox="0 0 24 24"><g fill="none"><path fill="#F89828" fill-rule="evenodd" d="M14.883 22c3.142 0 5.685-2.497 5.685-5.577a5.63 5.63 0 0 0-5.685-5.572a5.63 5.63 0 0 0-5.68 5.572a5.625 5.625 0 0 0 3.522 5.168a5.6 5.6 0 0 0 2.158.409m.708-9.166l-.64-.171l-.268.937l-1.6-.44l-.269.937l.64.177a.316.316 0 0 1 .229.4l-.72 2.509a.33.33 0 0 1-.406.228l-.32-.091l-.589.851l1.6.44l-.274.943l.64.172l.269-.937l.32.085l-.269.943l.64.171l.269-.937l.64.178a1.555 1.555 0 0 0 1.857-1.075c.183-.628-.103-1.211-.629-1.554a1.298 1.298 0 0 0-.114-2.469l-.314-.091l.268-.937l-.64-.177l-.268.937l-.32-.086zm.417 2.143l-.954-.263l-.274.943l.96.263a.496.496 0 0 0 .57-.715a.5.5 0 0 0-.296-.228zm-.377 1.926l-1.12-.309l-.36 1.257l1.12.303a.65.65 0 0 0 .809-.448a.65.65 0 0 0-.449-.809z" clip-rule="evenodd"/><path fill="url(#tokenBrandedHbtc0)" d="M10.186 10.851c.286-1.063.543-3.805 1.177-5.4a25 25 0 0 0 2.526 3.892a7.23 7.23 0 0 0-3.703 1.508"/><path fill="url(#tokenBrandedHbtc1)" d="M5.311 10.32C6.786 8.354 8.877 5.829 9.654 2c.537 1.446 1.046 5.68-1.263 11.063c-2.017 4.685.177 7.611 1.8 8.937c-6.737-.217-8.588-6.726-4.874-11.68z"/><path fill="url(#tokenBrandedHbtc2)" d="M5.157 16.423c-.126 1.274-.04 2.703.503 4.063c1.108.891 2.628 1.451 4.525 1.514c-1.622-1.326-3.817-4.246-1.8-8.937c2.263-5.28 1.823-9.457 1.292-10.972c.046 3.132-1.143 5.555-2.32 7.96c-.983 2.006-1.96 4-2.2 6.372m6.726-6.566c-.1-1.414-.298-2.82-.595-4.206A22.4 22.4 0 0 0 10.5 9.2c-.114.68-.212 1.269-.315 1.651c.39-.331.99-.703 1.698-.994"/><defs><linearGradient id="tokenBrandedHbtc0" x1="9.277" x2="11.905" y1="2.974" y2="19.287" gradientUnits="userSpaceOnUse"><stop stop-color="#96CAFF"/><stop offset="1" stop-color="#82B0F9"/></linearGradient><linearGradient id="tokenBrandedHbtc1" x1="19.873" x2="18.667" y1="3.063" y2="22.415" gradientUnits="userSpaceOnUse"><stop stop-color="#7EB5FE"/><stop offset="1" stop-color="#246FFE"/></linearGradient><linearGradient id="tokenBrandedHbtc2" x1="9.734" x2="8.957" y1="2.886" y2="21.914" gradientUnits="userSpaceOnUse"><stop stop-color="#81B0FA"/><stop offset="1" stop-color="#0E33E8"/></linearGradient></defs></g></svg>