<svg xmlns="http://www.w3.org/2000/svg" xmlns:xlink="http://www.w3.org/1999/xlink" width="24" height="24" viewBox="0 0 24 24"><path fill="#62C6BA" fill-rule="evenodd" d="M11.533 2.123a.95.95 0 0 1 .934 0l7.976 4.555a.85.85 0 0 1 .444.739v9.165c0 .3-.166.583-.444.738l-7.977 4.555a.93.93 0 0 1-.933 0L3.557 17.32a.85.85 0 0 1-.444-.738V7.417c0-.3.166-.583.444-.739zm.028.55a.89.89 0 0 1 .878 0l7.476 4.3c.261.15.417.41.417.7v8.659a.8.8 0 0 1-.417.7l-4.127 2.371l-.167-5.099l.834-2.183l.016-.044l.056-.261c.116-.478.255-1.028.244-1.555c0-.35-.083-1.389-.122-1.833l-.006-.117l-.05-.111a3 3 0 0 0-.46-.739a1.58 1.58 0 0 0-1.395-.583a1.46 1.46 0 0 0-1.177-.556a2 2 0 0 0-.356.028a1.54 1.54 0 0 0-1.01-.588a1.6 1.6 0 0 0-.923.1a1.65 1.65 0 0 0-.733-.273h-.078c-.51 0-.916.14-1.205.44c-.205.21-.322.482-.394.76a3.1 3.1 0 0 0-.978.294c-.55.295-.7.878-.75 1.195c-.05.329-.054.664-.01.994l.282 2.3L9.5 14.203l-.466 5.671l-4.95-2.843a.81.81 0 0 1-.416-.7V7.667c0-.29.156-.556.417-.7l7.47-4.3zM9.395 20.081l.344.194l.1-1.133l1.539-3.094l3.633 3.15h.01l.023.633l.372-.222l-.183-5.371l.855-2.222l.006-.022l.066-.278c.111-.478.24-.978.233-1.46a45 45 0 0 0-.122-1.812l-.005-.055l-.022-.056a2.7 2.7 0 0 0-.406-.644c-.178-.206-.478-.467-.872-.467c-.155 0-.3.023-.416.061a1.07 1.07 0 0 0-.99-.61a1.5 1.5 0 0 0-.538.1a1.1 1.1 0 0 0-.889-.662a1.14 1.14 0 0 0-.905.195a1.2 1.2 0 0 0-.728-.356h-.039c-.872 0-1.166.456-1.277 1.167c-.322.022-.75.089-1.111.278c-.383.205-.511.627-.561.933a3.2 3.2 0 0 0-.011.888l.278 2.211l2.11 2.666l-.489 5.988zm1.9-4.077l-1.44 2.894l.418-4.8l1.038 1.878zM9.3 11.238l.834 2.555l-1.972-2.488zm-.066-.083l-1.1.067l-.167-1.333l.012-.045L8 9.833zM8.417 8.1L7.94 9.666l-.056-.489C7.83 8.8 7.83 8.023 8.201 7.75l.222.344zm.095-.033l-.234-.361a2.56 2.56 0 0 1 1.111-.223l.478.872zm1.883-.967l-.872.322l.11-.716a.24.24 0 0 1 .04-.095zm.066-.789c-.4 0-.622.111-.733.234l.744.5l.023.022l.61-.222c-.094-.39-.46-.517-.644-.534m.756.611h-.006L11.14 9.55l.017.044l.894-1.372l-.833-1.294zm.85-.45c-.49-.077-.717.178-.795.373l1.455.305a.75.75 0 0 0-.666-.678zm1.35 1.833l-.54-1.027c.112-.1.345-.239.684-.239c.478 0 .71.361.716.744l-.86.528zm1.055-.538l-.045.027l-.01.023l.35.544l1.038-.061c-.167-.311-.483-.717-.839-.717c-.267 0-.422.084-.5.167zm1.155 1.327c.094-.244.178-.483.239-.677l.022.055c.033.4.095 1.2.111 1.616l-.372-1zm.339 1.156l.039.105c-.017.267-.111.761-.195 1.155l-.055.012l-2-.584zm-2.272 2.477l2.094-1.1l-.066.289l-.873 2.26l-1.155-1.444zm1.128 1.56l.033.04l.155 4.649l-1.621-4.044zM12.7 7.234l-1.361-.283l.766 1.189zm-1.378 2.272l.784-1.205l.388.539zm-.166.295l.127.11l.567.59a7 7 0 0 0-.816-.373l.122-.333zm-.1-.5l.039-1.55l-.4.461l.36 1.083zm-.584-.75a1.52 1.52 0 0 1-.794.5l.372.688zm-.538 1.166a.75.75 0 0 1-.295-.56zm.183.1l.528-1.472l.405 1.217v.078c-.044.083-.222.266-.578.266l-.077-.005zm-.083.084l.027.055l.017-.028l.789 1.034l-2.65-1.14zm1.038-.145l-.127.339a3 3 0 0 0-.317-.111a.8.8 0 0 0 .444-.222zm1.045 1.017l.027.033l.006-.022c.45.311.826.72 1.1 1.194l-2.067-.883zm.055-.1l.122-.633a.94.94 0 0 0 .761.388c.257.007.508-.075.711-.233l-.194.694l-1.4-.222zm.05-.717l-.133.667l-.556-.583a.6.6 0 0 0 .2.033a.96.96 0 0 0 .49-.117m-.044-.078a.85.85 0 0 1-.445.111a.63.63 0 0 1-.372-.133l-.017-.01l-.083-.09zm.088-.077l-1.05-.14l1.256-.705q-.087.426-.205.845m.056.11a.84.84 0 0 0 .733.428c.395 0 .633-.177.734-.288l-.017-.067l-1.444-.089l-.006.022zm1.416-.016l-1.383-.083l.023-.056q.113-.42.194-.85zm-1.577-1.672l.566-.866c-.055.4-.133.888-.205 1.322l-.011.038zm-.8 7.654L10.317 14l1.983-.034l-.944 1.911zm-1.094-1.966l1.972-.033l-2.805-2.533l.827 2.55zm4.5.305l-1.123-1.41l-.267 2.038zm-1.223-1.355l-1.122 1.067l.867.888zm-.272 2.066l-.894-.916l-.961 1.955l3.51 3.05l-1.622-4.044l-.039.016zm2.283-3.277l-1.905 1l-.261-.589zm-1.983 1.056l-.256-.584l-.788 1.589l1.044-1zm-.022-1.722l-.25.905a3.8 3.8 0 0 0-1.006-1.11l1.256.2zm-1.511-.278a8.2 8.2 0 0 0-1.666-.722a.6.6 0 0 1-.167-.033l.833 1.083l.017.01h.016l.967-.332zm3.9-.533l-.356-.956c-.106.256-.223.5-.334.684c-.189.3-.422.494-.677.533c-.234.039-.472-.061-.695-.311l-.205.75zM12.23 13.75l-2.794-2.522l1.555-.094l1.239 2.61zm-2.878-2.6l1.511-.094l-2.666-1.144zm4.022.828l.267-.983l1.927.566zm-1.005 1.85l.877-1.761l-2.144-.911zM9.906 9.805L8.14 9.733l.888-.611v.006c.134.005.317 0 .517-.05a.81.81 0 0 0 .36.727m3.433-1.45l-.523-.994q-.098.713-.222 1.422zm-.695.5l.733-.422l.334 1.322zm.811-.466l.8-.489c-.111.6-.294 1.51-.417 1.96l-.005-.005l-.372-1.46zm.9-.5c-.106.533-.267 1.35-.389 1.844l.722-1.322l-.333-.528zm-.378 2.01l1.572-.85c.09-.238.167-.471.228-.666l-1.01.067l-.79 1.444zm-3.405-2.771l.545-.2l-.017.65l-.527-.445zm.184.872l.305-.344l-.21-.178c-.006.2-.05.383-.095.522m-.3-.833v.01a.8.8 0 0 1 .167.123l.138.139a1.9 1.9 0 0 1-.166.733l-.611.206l-.478-.861l.95-.345zm.089 1.11c-.167.317-.434.506-.711.623c-.25.1-.5.139-.695.144l.828-.572h.017l.555-.189zm4.015 2.067c-.205.033-.427-.056-.644-.311l1.583-.855c-.1.25-.216.5-.333.677c-.178.289-.389.456-.611.489zm-4.704-1.9l-1.36-.289l-.473 1.556z" clip-rule="evenodd"/></svg>