<svg xmlns="http://www.w3.org/2000/svg" xmlns:xlink="http://www.w3.org/1999/xlink" width="24" height="24" viewBox="0 0 24 24"><g fill="none"><path fill="#fff" d="M9.223 11.722v-.278h-.556v1.667h.556v-.833h.833v.833h.555v-.833h1.111v-.556h-1.11v-.278h-.556v.278z"/><path fill="#EEB519" d="m13.11 16.133l.29 2.634l-1.206 1.205l-.389-.389l1.017-1.016l-.267-2.367zm-3.994-1.139l-1.389 1.111l-.344-.433l1.389-1.11zm9.461-1.894l1.578-1.311l.355.422l-1.755 1.467l-2.622-.29l.066-.555z"/><path fill="#fff" d="m4.673 10.6l3.189.289l-.056.555l-2.922-.266l-1.022 1.016l-.39-.388zm4.077-.906L7.362 8.306l.388-.39l1.39 1.39zm3.078-5.688l.345.433l-1.267 1.017l.261 2.344l-.556.067l-.294-2.656z"/><path fill="#fff" fill-rule="evenodd" d="M12.556 4.222a.555.555 0 1 0 0-1.11a.555.555 0 0 0 0 1.11m0 .556a1.111 1.111 0 1 0 0-2.223a1.111 1.111 0 0 0 0 2.223m.555 8.333a1.112 1.112 0 1 0 0-2.224a1.112 1.112 0 0 0 0 2.224m0 .556a1.667 1.667 0 1 0 0-3.334a1.667 1.667 0 0 0 0 3.334" clip-rule="evenodd"/><path fill="#EEB519" fill-rule="evenodd" d="M13.111 12.222a.223.223 0 0 0 .157-.38a.223.223 0 1 0-.157.38m0 .556a.777.777 0 1 0 0-1.555a.777.777 0 0 0 0 1.555m3.89-4.667A.556.556 0 1 0 17 7.001a.556.556 0 0 0 0 1.11m0 .556a1.111 1.111 0 1 0 0-2.223a1.111 1.111 0 0 0 0 2.223M20.888 12a.556.556 0 1 0 0-1.112a.556.556 0 0 0 0 1.112m0 .556a1.112 1.112 0 1 0 0-2.224a1.112 1.112 0 0 0 0 2.223" clip-rule="evenodd"/><path fill="#EEB519" d="M15.889 12a3.89 3.89 0 0 0-2.595-3.667l.19-.522a4.444 4.444 0 1 1-5.673 5.667l.522-.184A3.89 3.89 0 0 0 15.89 12"/><path fill="#fff" d="M12 8.111a3.89 3.89 0 0 0-3.856 4.406l-.55.077a4.444 4.444 0 0 1 5-5l-.078.556a3 3 0 0 0-.517-.039"/><path fill="#EEB519" fill-rule="evenodd" d="M17 17a.555.555 0 1 0 0-1.11a.555.555 0 0 0 0 1.11m0 .555a1.11 1.11 0 1 0 0-2.22a1.11 1.11 0 0 0 0 2.22M7 17a.555.555 0 1 0 0-1.11A.555.555 0 0 0 7 17m0 .555a1.11 1.11 0 1 0 0-2.22a1.11 1.11 0 0 0 0 2.22m4.444 3.334a.556.556 0 1 0 0-1.111a.556.556 0 0 0 0 1.11m0 .555a1.11 1.11 0 1 0 0-2.221a1.11 1.11 0 0 0 0 2.221" clip-rule="evenodd"/><path fill="#fff" fill-rule="evenodd" d="M3.111 13.111a.555.555 0 1 0 0-1.11a.555.555 0 0 0 0 1.11m0 .556a1.111 1.111 0 1 0 0-2.222a1.111 1.111 0 0 0 0 2.222M7 8.11A.555.555 0 1 0 7 7a.555.555 0 0 0 0 1.11m0 .556a1.111 1.111 0 1 0 0-2.223a1.111 1.111 0 0 0 0 2.223" clip-rule="evenodd"/><path fill="#EEB519" d="M7.278 7.556a.278.278 0 1 1-.556 0a.278.278 0 0 1 .556 0"/><path fill="#fff" d="M17.277 16.444a.278.278 0 1 1-.556 0a.278.278 0 0 1 .556 0"/><path fill="#EEB519" d="m15.138 9.028l1.112-1.111l.388.389l-1.11 1.11zm.09 5.533l1.388 1.111l-.344.433l-1.39-1.11z"/></g></svg>