<svg xmlns="http://www.w3.org/2000/svg" xmlns:xlink="http://www.w3.org/1999/xlink" width="24" height="24" viewBox="0 0 24 24"><g fill="none"><path fill="#FF5D01" d="M12.665 5.112q-.457.14-.925.019c-1.6-.419-1.225-2.069-.594-3.106A.05.05 0 0 1 11.19 2h.019l.019.025c.194.306.456.55.775.725c.643.356 1.462.937 1.662 1.687q.076.283.106-.006l.044-.35a.05.05 0 0 1 .013-.031a.04.04 0 0 1 .037-.006c.6.087 1.325.48 1.418 1.15c.157 1.062-.987 1.674-1.868 1.706a.03.03 0 0 1-.025-.013a.03.03 0 0 1 0-.025q.082-.307.025-.625c-.006-.031-.019-.044-.037-.05c-.026-.012-.038 0-.044.019c-.207.581-.582.887-1.125.931c-.531.044-1.031-.206-1.088-.8a.063.063 0 0 0-.088-.044a.06.06 0 0 0-.024.032q-.19.468.119.824c.018.025.018.05-.013.063c-.531.225-1.625.425-1.787-.431c-.163-.838.712-1.5 1.425-1.506c.65-.013 1.456.468 1.962-.082q.12-.13-.05-.08"/><path fill="#528ECB" d="M9.37 7.443a1.56 1.56 0 0 0 1.42.738c.275 0 .618-.057.874.025c.557.175 1 .168 1.4-.288a.12.12 0 0 1 .075-.044c.282-.037.588-.043.825-.13c.425-.157 1-.626 1.169-1.1c.037-.113.087-.176.137-.176l1.125.438a.15.15 0 0 0 .169-.038a.2.2 0 0 0 .031-.062c.363-1.094 1.325-2.512 2.356-.85c.663 1.062-.737 1.68-1.493 1.862a.14.14 0 0 0-.094.075a.15.15 0 0 0-.006.125q.111.32.306.6c.625.937 1.256 1.669 1.65 2.837q.318.964.45 1.994c.012.062-.013.081-.063.05l-.812-.444a.13.13 0 0 1-.063-.069c-.675-1.756-2.437-2.15-4.087-2.074c-.95.037-2.062.212-2.718.993l-.01.005l-.01.002l-.01-.005l-.008-.008c-.769-1-2.593-1.037-3.687-.981c-1.325.075-2.581.731-3.106 2.03a.23.23 0 0 1-.1.113l-.781.438a.05.05 0 0 1-.027.007a.05.05 0 0 1-.048-.057c.137-.994.387-2.025.844-2.925c.437-.85 1.206-1.656 1.562-2.475a.16.16 0 0 0-.094-.218c-.537-.163-1.668-.594-1.675-1.325c-.006-.456.488-1.038.856-1.225c.832-.438 1.5.894 1.67 1.512a.17.17 0 0 0 .087.106a.16.16 0 0 0 .143 0a8 8 0 0 1 1.35-.493c.044-.006.063.006.056.05c-.043.406.063.737.338.987m-2.768-.25q.076.04.163.038a.05.05 0 0 0 .037-.025l.007-.019v-.025c-.138-.437-.357-1.737-1.044-.675a.1.1 0 0 0-.019.081q.027.124.138.2c.225.163.468.306.718.425m10.824.013q.359-.188.688-.431c.331-.25-.063-.607-.282-.688a.21.21 0 0 0-.23.063a.2.2 0 0 0-.038.075l-.294.918a.06.06 0 0 0 .031.075a.18.18 0 0 0 .125-.012M8.084 8.499c.356-.187.706-.306 1.093-.13c.169.068.344.268.563.312c.125.012.143-.02.062-.113c-.356-.456-1.012-.806-1.544-.362a.9.9 0 0 0-.212.25v.018l.006.02a.025.025 0 0 0 .032 0zm6.418.113c.406-.363.862-.431 1.312-.169q.224.12.081-.087a.8.8 0 0 0-.456-.332c-.45-.13-.906.207-1.187.557c-.05.062-.038.087.037.093h.031a.24.24 0 0 0 .188-.062zm-5.519 1.73c.138-.037.257-.105.37-.193a.042.042 0 0 1 .062 0c.412.288 1.075.188 1.143-.419a.04.04 0 0 0-.019-.044a.04.04 0 0 0-.044 0c-.25.194-.5.25-.768.163a8 8 0 0 1-.262-.625c-.163-.456-.313-.656-.807-.625c-.843.063-.974.794-.768 1.482c.144.493.75.493 1.137.312h.013v-.019l-.004-.014l-.009-.01a.1.1 0 0 0-.044-.007m5.294-.487a.78.78 0 0 1-.731-.15c-.075-.062-.107-.037-.094.057c.08.587.73.65 1.137.387a.06.06 0 0 1 .069 0l.306.175l-.037.006l-.01.011l-.003.014v.013l.013.012q.392.205.83.082c.488-.144.5-.95.376-1.35c-.188-.6-1.288-.75-1.519-.094c-.062.181-.1.331-.187.5z"/><path fill="#3D6A99" d="M15.27 6.468c-.05 0-.1.063-.137.175a2.16 2.16 0 0 1-1.169 1.1c-.237.088-.543.094-.825.131a.12.12 0 0 0-.074.044c-.394.456-.844.463-1.394.288c-.262-.082-.606-.025-.875-.025a1.56 1.56 0 0 1-1.425-.738c.662.406 1.438.313 2.062-.081a.14.14 0 0 1 .12-.013c.43.15.85.125 1.25-.062c.343-.169.468-.038.786-.081a2.9 2.9 0 0 0 1.5-.688c.063-.062.125-.075.182-.05"/><path fill="#E4E8EC" d="M9.727 9.843c-.462-.188-.237-.8-.643-.95c-.375-.137-.763.044-.856.456c-.113.531.08 1.119.75.988h.056l.006.012v.019a.03.03 0 0 1-.013.025c-.387.175-.993.175-1.137-.312c-.206-.694-.075-1.425.769-1.482c.5-.037.643.163.812.625c.063.2.156.406.256.619m5.237.475c.544.144.813-.137.838-.638c.025-.443-.106-.793-.6-.824c-.731-.044-.406.75-.925.993c.05-.125.1-.231.156-.337c.082-.169.125-.319.181-.5c.232-.663 1.331-.5 1.519.094c.125.4.113 1.206-.375 1.35a1.06 1.06 0 0 1-.844-.094v-.025l.013-.013a.05.05 0 0 1 .037 0z"/><path fill="#E4E8EC" d="M8.94 9.53c.126 0 .22-.1.22-.218c0-.125-.1-.219-.213-.219a.219.219 0 0 0 0 .437zm6.125-.006a.213.213 0 0 0 0-.425a.213.213 0 0 0-.206.213a.21.21 0 0 0 .206.212"/><path fill="#528ECB" d="M11.552 11.812a.5.5 0 0 1-.375.043a7.8 7.8 0 0 0-1.9-.275a5.8 5.8 0 0 0-2.58.563c-.488.237-.707.675-.863 1.187a.8.8 0 0 1-.357.469c-.4.231-.962.45-1.362.775c-.562.456-.844.937-1.294 1.706q-.037.054-.075.062c-.025 0-.062 0-.1-.025c.2-1.437 1.332-2.462 2.6-3a.25.25 0 0 0 .15-.174c.506-1.438 1.938-1.95 3.306-1.969c.988-.012 2 .063 2.85.638m9.786 4.368l-.025.106l-.012.025a.04.04 0 0 1-.037.009a.04.04 0 0 1-.017-.01a4.7 4.7 0 0 0-1.178-1.655c-.418-.362-.912-.55-1.38-.794c-.25-.131-.407-.28-.457-.437c-.15-.525-.287-.95-.774-1.206a5.5 5.5 0 0 0-3.406-.594q-.377.057-1.363.263c-.125.024-.187 0-.206-.094a3.1 3.1 0 0 1 1.206-.488c1.637-.293 3.775-.225 4.712 1.375c.05.082.125.25.219.513q.02.042.062.062c.1.063.25.131.457.231c.956.457 2.056 1.525 2.2 2.688z"/><path fill="#487DB3" d="m21.338 16.18l.031.65c-.368.369-.687.562-.968.6c-.525.062-.788-.032-1.206-.175c-.244-.088-.457-.081-.638.087a7.95 7.95 0 0 1-3.106 1.875q-.993.32-1.424.375a13.2 13.2 0 0 1-3.931.025c-.375-.056-.757-.169-1.131-.269a8.2 8.2 0 0 1-3.531-1.987c-.394-.375-.782.012-1.2.069q-.498.076-.875-.063q-.299-.103-.719-.562l.006-.482c.038.013.075.026.1.02q.037-.009.075-.063c.45-.769.725-1.25 1.294-1.706c.4-.325.962-.544 1.362-.775a.78.78 0 0 0 .357-.475c.156-.506.375-.944.862-1.175a5.8 5.8 0 0 1 2.581-.569a7.3 7.3 0 0 1 1.894.275a.5.5 0 0 0 .38-.043a.96.96 0 0 1 .332.543a.12.12 0 0 0 .106.1c.063.006.113-.025.125-.106q.096-.34.369-.556q.018.131.206.094a27 27 0 0 1 1.362-.263a5.5 5.5 0 0 1 3.406.594c.488.256.625.68.775 1.2c.05.162.2.312.457.437c.468.25.962.438 1.374.8c.512.46.917 1.024 1.188 1.656q.011.01.025.01t.025-.01l.012-.025zm-12.58-1.731q.152.345.5.625q.77.617 1.5-.032c.025-.018.031-.05.031-.087c.031 0 .063-.025.082-.062c.393-.632.162-1.363-.5-1.663q-.789-.347-1.419.094a.94.94 0 0 0-.381.462q-.113.327.187.663m4.487.55c.507.443 1 .487 1.457.13q.355-.28.562-.693a1 1 0 0 0 .162-.268c.094-.275.032-.52-.187-.725c-.656-.588-1.869-.45-2.219.437q-.243.591.225 1.125z"/><path fill="#020A16" d="M15.264 14.436c-.844-.28-1.512-.094-2.019.563q-.468-.525-.225-1.125c.35-.881 1.563-1.019 2.213-.431q.336.31.193.725a.8.8 0 0 1-.162.268"/><path fill="#E4E8EC" d="M10.79 14.955a.13.13 0 0 1-.025.087c-.493.438-1 .438-1.512.032a1.6 1.6 0 0 1-.5-.625a1.72 1.72 0 0 1 2.037.5zm4.475-.519a2 2 0 0 1-.563.694q-.695.532-1.456-.125q.752-.992 2.019-.569"/><path fill="#3D6A99" d="M2.641 16.805q.42.46.719.562q.376.14.875.063c.418-.063.806-.45 1.2-.07a8.2 8.2 0 0 0 3.53 1.988c.375.1.75.213 1.132.269q1.968.282 3.937-.019q.418-.063 1.418-.381a7.96 7.96 0 0 0 3.106-1.875c.181-.168.394-.175.638-.087c.418.143.687.237 1.206.175c.281-.032.6-.232.968-.6c.063.812-.187 1.462-.737 1.962c-.656.587-1.412.438-2.162.169a.14.14 0 0 0-.157.05c-.987 1.225-2.687 1.662-4.18 1.793a25.4 25.4 0 0 1-4.475-.006c-1.331-.137-3.1-.656-3.937-1.775a.17.17 0 0 0-.187-.062c-.782.269-1.513.431-2.181-.188a2.25 2.25 0 0 1-.713-1.968"/><path fill="#E4E8EC" d="M7.397 20.554c.543.163 1.043.338 1.612.438a.04.04 0 0 1 .031.025a.04.04 0 0 1-.006.044c-.213.268-.681 1.012-1.106.918c-.319-.075-.863-.244-.769-.687q.078-.362.175-.719a.06.06 0 0 1 .063-.019m9.23 1.244c-.213.1-.412.162-.587.2a.13.13 0 0 1-.082-.013a2.44 2.44 0 0 1-.912-.962q0-.014.009-.024a.04.04 0 0 1 .022-.013a7.6 7.6 0 0 0 1.6-.438a.07.07 0 0 1 .056.025l.013.031c.118.388.412.957-.113 1.188z"/></g></svg>