<svg xmlns="http://www.w3.org/2000/svg" xmlns:xlink="http://www.w3.org/1999/xlink" width="24" height="24" viewBox="0 0 24 24"><g fill="none"><path fill="url(#tokenBrandedHmnd0)" d="M22 20.662L12.011 3.25L2 20.75c1.037-.482 2.706-1.075 4.206-1.075c.863 0 1.712.168 2.362.3c.388.075.738.15.932.15c1.712 0 3.106-1.07 3.8-1.594c.224-.169.374-.281.437-.281c.437 0 .637.325.831.637c.2.313.394.619.8.619c.163 0 .275-.125.4-.263c.156-.175.331-.368.638-.368c.7 0 1.168.8 1.356 1.243c.05-.218.268-.612.712-.612c.332 0 .532.306.7.562c.125.175.225.332.338.332c.1 0 .156-.038.237-.081c.138-.088.331-.2.919-.2c.512 0 .969.25 1.325.543z"/><path fill="url(#tokenBrandedHmnd1)" d="M22 20.675L12.02 3.25l-10 17.475c1.037-.525 2.687-1.22 4.187-1.22c.862 0 1.712.239 2.362.42c.388.112.738.2.931.2c1.713 0 3.107-1.063 3.8-1.588c.225-.175.375-.287.438-.287c.437 0 .637.319.837.637c.194.313.388.613.8.613c.156 0 .269-.125.394-.263c.156-.169.331-.362.637-.362c.7 0 1.17.812 1.357 1.25c.05-.213.268-.625.712-.625c.331 0 .531.312.7.562c.125.181.225.338.337.338c.1 0 .157-.038.238-.081c.137-.082.331-.188.919-.188c.512 0 .975.25 1.331.544"/><defs><linearGradient id="tokenBrandedHmnd0" x1="12" x2="12" y1="3.25" y2="20.75" gradientUnits="userSpaceOnUse"><stop stop-color="#B4386C"/><stop offset="1" stop-color="#F87056"/></linearGradient><linearGradient id="tokenBrandedHmnd1" x1="14.05" x2="20.281" y1="16.312" y2="19.744" gradientUnits="userSpaceOnUse"><stop stop-color="#FDC570" stop-opacity="0"/><stop offset="1" stop-color="#FEC574"/></linearGradient></defs></g></svg>