<svg xmlns="http://www.w3.org/2000/svg" xmlns:xlink="http://www.w3.org/1999/xlink" width="24" height="24" viewBox="0 0 24 24"><g fill="none"><path fill="#fff" d="M15.029 3.059a11 11 0 0 0-3.03-.66a11 11 0 0 0-3.028.648l1.264 2.752L12 6.834L13.764 5.8l1.265-2.746zM11.889 2l.11.006l.118-.006v.018c1.901.152 3.733.779 5.329 1.823l-.294.282a10.4 10.4 0 0 0-1.753-.923L14.07 6.076L12.047 7.27l-.024.04L12 7.3l-.024.01l-.023-.04l-2.024-1.194L8.6 3.2c-.629.259-1.2.564-1.705.888L6.6 3.81a11 11 0 0 1 5.287-1.793zM3.765 6.893v9.363c.006.277.059.724.212 1.177c.147.447.388.935.788 1.258l.823.647l4 2.617a.266.266 0 0 0 .411-.223v-1.67c.394.247 1.035.517 1.876.564q.124.003.247 0A3.9 3.9 0 0 0 14 20.062v1.67c0 .212.236.335.412.224l4-2.624l.823-.64c.375-.338.649-.774.788-1.26c.147-.452.206-.9.212-1.176V7l-.4.518v8.734c0 .235-.06.646-.189 1.058c-.135.412-.352.818-.664 1.076l-.806.63l-3.823 2.47v-6.428c.765 0 1.818-.2 2.588-.93c.853-.811 1.376-2.217 1.041-4.552l-.018-.123l-.117-.041a8.8 8.8 0 0 0-2.117-.324c-.9-.023-1.924.077-2.859.465l-.117.047v4.317l-.753.423l-.747-.423V9.599l-.118-.047a7 7 0 0 0-2.858-.465c-.894.03-1.67.188-2.117.324l-.124.04l-.018.118c-.335 2.341.189 3.747 1.041 4.558c.716.623 1.64.954 2.588.93v6.434l-3.823-2.47l-.805-.63a2.3 2.3 0 0 1-.665-1.082a4 4 0 0 1-.188-1.059V7.41zm10.233 12.68a3.33 3.33 0 0 1-2 .66a3.3 3.3 0 0 1-1.999-.66v-4.928l-.206.006a3.35 3.35 0 0 1-2.458-.824c-.718-.67-1.235-1.9-.941-4.081a8.8 8.8 0 0 1 1.894-.27c.823-.024 1.705.064 2.535.382v4.281l1.176.67l1.176-.67V9.858a6.5 6.5 0 0 1 2.535-.383c.782.03 1.47.153 1.894.27c.294 2.183-.224 3.412-.941 4.088a3.35 3.35 0 0 1-2.459.824L14 14.645zM7.142 11.34l-.053-.106a2.5 2.5 0 0 1 1.729-.859c.8 0 1.37.453 1.553.682l-.088.136a2.57 2.57 0 0 0-1.47-.553c-.636 0-1.377.47-1.671.705zm.03.611l-.06-.117c.26-.283.988-1.018 1.847-1.018s1.547.694 1.741.918l-.094.135a3.6 3.6 0 0 0-1.082-.535v.088c-.018.03-.03.023-.047.012c-.03-.018-.07-.041-.177-.041c-.176 0-.135.252.036.252c.076 0 .135-.047.176-.082c.041-.047.065-.065.065.059c0 .23-.212.635-.688.635c-.471 0-.63-.33-.63-.612c0-.117.024-.211.047-.282a4 4 0 0 0-1.135.588m6.292-.717l.053.111c.294-.235 1.03-.705 1.67-.705c.642 0 1.241.364 1.47.553l.083-.136a2.1 2.1 0 0 0-1.552-.682c-.806 0-1.483.57-1.724.859m.024.606l.059.111c.344-.252.725-.45 1.129-.588a.9.9 0 0 0-.041.282c0 .283.152.612.629.612a.68.68 0 0 0 .688-.635c0-.124-.023-.106-.07-.059c-.042.035-.1.082-.177.082c-.17 0-.212-.252-.03-.252c.1 0 .148.023.171.04c.024.012.03.018.047-.011a.11.11 0 0 0 0-.088c.488.135.918.406 1.088.535l.094-.135c-.2-.224-.882-.918-1.74-.918c-.86 0-1.588.735-1.847 1.024M11.7 15.71c-.03-.118-.335-.383-.482-.5c-.047.076-.124.27-.06.44c.077.218.571.212.542.06m1.47-.5c-.153.117-.459.376-.482.5c-.03.152.464.158.541-.06a.57.57 0 0 0-.059-.44m-1.059 2.252a.58.58 0 0 0-.352-.123c-.13 0-.224.029-.306.053a.5.5 0 0 1-.288.017a4 4 0 0 0-.388-.07c.023.064.14.235.411.235h1.859c.264 0 .388-.17.411-.235a3 3 0 0 0-.394.07c-.111.03-.194.006-.288-.017c-.082-.024-.176-.053-.306-.053a.65.65 0 0 0-.353.117zm-.646.435c.058.053.264.153.576.153c.317 0 .617-.1.73-.153c-.03.118-.207.353-.695.353s-.611-.235-.611-.353"/><path fill="url(#tokenBrandedHmx0)" d="M4.137 3.076C5.46 3.382 8.124 4.535 8.183 6.7c-.118.277-.47.912-.976 1.235c-.894.253-2.835.265-3.423-1.729c.047 0 .158.018.211.094c.06.094.47.47.941.653c.06.03.136 0 .17-.065a.16.16 0 0 0-.087-.217a1.88 1.88 0 0 1-1.235-1.923l.658.235c.413.472.912.862 1.47 1.147a.176.176 0 0 0 .263-.134a.19.19 0 0 0-.11-.196c-.852-.411-2.187-1.411-1.929-2.723m15.732 0c-1.323.306-3.982 1.459-4.04 3.623c.111.277.47.912.976 1.235c.894.253 2.835.265 3.423-1.729c-.047 0-.159.018-.212.094c-.059.094-.47.47-.94.653a.135.135 0 0 1-.177-.065a.167.167 0 0 1 .094-.217a1.88 1.88 0 0 0 1.235-1.923l-.665.235a4.9 4.9 0 0 1-1.47 1.147a.176.176 0 0 1-.262-.134a.19.19 0 0 1 .11-.196c.852-.411 2.193-1.411 1.928-2.723"/><defs><linearGradient id="tokenBrandedHmx0" x1="12.005" x2="12.005" y1="3.076" y2="8.052" gradientUnits="userSpaceOnUse"><stop stop-color="#DFB579"/><stop offset=".24" stop-color="#E2A761"/><stop offset=".91" stop-color="#976C3F"/></linearGradient></defs></g></svg>