<svg xmlns="http://www.w3.org/2000/svg" xmlns:xlink="http://www.w3.org/1999/xlink" width="24" height="24" viewBox="0 0 24 24"><g fill="none"><path fill="#010201" d="M22 6.738a2.2 2.2 0 0 1-.313.72a.07.07 0 0 0 0 .073c.16.253.386.773.24 1.08c-.114.233-.334.42-.534.587c-.08.066-.133.16-.1.253c.187.586-.02.987-.38 1.42v.02a.04.04 0 0 0 0 .027l.02.013q.452.181.554.693c.08.427 0 .674-.087 1.04c-.1.414-.307.62-.6.887a.1.1 0 0 0-.027.073a.1.1 0 0 0 .027.08c.353.4.033.92-.14 1.327a.1.1 0 0 0 0 .053c.107.6-.187.967-.36 1.48c-.133.42-.173.96-.233 1.434c0 .033 0 .066.02.106q.23.388.24.847a.5.5 0 0 0 .133.333c.273.294.493.534.653.74l.887 1.18v.467h-.073a.55.55 0 0 0-.12-.453c-.507-.594-.934-1.234-1.467-1.8c-.273-.287-.147-.734-.333-1.094a.1.1 0 0 0-.094-.053c-.44.02-.9.213-1.286.427a3.5 3.5 0 0 1-1.667.566a.07.07 0 0 0-.04.067q.018.384-.02.767l-.08.76a4.7 4.7 0 0 1-.2.813h-.173c.266-.78.373-1.573.333-2.387c-.013-.266-.187-.44-.467-.466a1.97 1.97 0 0 0-1.253.34c-.347.2-.693.406-1.033.626c-.02.014-.02.027-.014.053l.054.1l.02.014h.033l.8-.187c.053-.013.087.007.087.067v.02l-.007.04a.06.06 0 0 1-.033.027l-.8.2a.04.04 0 0 0-.034.033c-.04.293.407.413.66.44c.047 0 .067.033.067.08v.02q-.01.048-.06.047c-.233 0-.447-.067-.64-.187h-.02l-.08.387c0 .013 0 .02.013.026l1.227.707h-.393c-.3-.22-.614-.407-.92-.567a.04.04 0 0 0-.047 0c-.373.294-.933.367-1.333.16a7 7 0 0 1-.267-.146c-.02-.007-.033 0-.047.006a2.7 2.7 0 0 1-.646.507q0 .006.004.011l.009.009l.067.02h-.467q.318-.18.627-.38a.83.83 0 0 0 .386-.8h-.013c-.173.133-.367.2-.587.213a.054.054 0 0 1-.053-.04l-.007-.02a.09.09 0 0 1 .037-.089q.015-.009.03-.01a.9.9 0 0 0 .607-.307l.006-.02v-.027a.04.04 0 0 0-.012-.018a.04.04 0 0 0-.021-.009l-.9-.133a.05.05 0 0 1-.04-.047v-.046c.013-.054.04-.074.093-.067l.84.127c.034 0 .047-.014.054-.04a.46.46 0 0 0-.227-.46c-.58-.387-1.1-.6-1.88-.847c-.18-.06-.5-.14-.573.12c-.287.933-.147 1.933-.24 2.9H9.24c0-.087.013-.173.02-.253q.065-.704.013-1.407a.05.05 0 0 0-.033-.013l-.333.006c-.934.1-1.954.034-2.894-.1A7.4 7.4 0 0 1 2.4 18.451a2 2 0 0 1-.32-.347q-.02-.018-.04-.006a.1.1 0 0 0-.04.033v-.4l.02-.04q.012-.02.013 0c.074.26.274.48.48.646c1.547 1.254 3.76 1.567 5.667 1.554c.32 0 .7-.04 1.053-.053a.07.07 0 0 0 .062-.045a.1.1 0 0 0 .005-.029q.02-.54.16-1c.067-.22.16-.346.4-.346c.16 0 .327.033.48.086c.4.134.78.287 1.153.467c.26.107.78.38.934.68v.013q.007.005.016.005a.03.03 0 0 0 .017-.005h.013c.294-.24.567-.273.98-.233c.16.02.294.073.4.173a.09.09 0 0 0 .107.013c.387-.24.78-.48 1.187-.706c.466-.267 1.513-.54 1.753.153l.027.034l.033.006a3 3 0 0 0 .72-.126c.34-.1.747-.347 1.1-.534a3.2 3.2 0 0 1 1-.32q.03-.002.06-.033a.1.1 0 0 0 .027-.053c.053-.3.093-.607.133-.92c.04-.374.133-.654.253-.96q.02-.052-.02-.014a2.1 2.1 0 0 1-.813.56a5.3 5.3 0 0 1-1.993.367c-.914.02-1.954.027-3.114.013c-.533 0-1.22-.133-1.786-.333c-.487-.173-1.14-.333-1.48-.453c-.48-.16-1.514-.454-1.734-.967c-.193-.447.267-.693.607-.774a4.22 4.22 0 0 1 2.72.247c.293.1.587.173.893.22c.067-.013.114 0 .134.02q.091.102-.047.094c-.433-.027-.927-.2-1.333-.367a4.1 4.1 0 0 0-2.154-.16c-.266.04-.6.133-.74.4c-.193.367.42.707.7.827c.78.333 1.634.566 2.467.82a7.6 7.6 0 0 0 2.14.346q.868.012 3.187-.046a4.05 4.05 0 0 0 1.946-.574c.147-.08.307-.266.447-.4c.2-.193.24-.566.173-.826a.03.03 0 0 0-.013-.014a.03.03 0 0 0-.027 0c-.28.22-.6.374-.933.454c-.987.246-1.867.453-2.973.526c.033-.066.113-.1.233-.113a14 14 0 0 0 2.447-.44c.753-.187 1.413-.447 1.58-1.32a.52.52 0 0 0-.154-.48a.05.05 0 0 0-.046-.013c-.414.053-.774.333-1.127.546c-.62.393-1.38.66-2.113.607l.04-.093c.02-.007.04-.007.046 0c1 .02 1.7-.4 2.567-.967c.153-.1.347-.16.58-.193c.007 0 .013 0 .02-.014l.013-.02a.36.36 0 0 1 .094-.213c.233-.22.446-.4.526-.76c.04-.194.134-.42.127-.62q0-.082-.04-.013a1.4 1.4 0 0 1-.347.393c-.1.08-.253.146-.46.207c-1.173.333-2.4.486-3.666.446l-.12-.08a.04.04 0 0 1-.02-.047c0-.02.013-.026.033-.033c1.287.087 2.56-.093 3.8-.44c.173-.053.3-.106.387-.173c.353-.28.486-.713.02-.987c-1.574-.906-3.22-1.167-4.867-.306c-.333.166-.847.526-.933.9l-.154.52q-.008.03.014.04l.14.093c.033.006 0 .027-.114.06a.66.66 0 0 0-.486.067l-.247.133a6.23 6.23 0 0 1-3.473.327a4.87 4.87 0 0 1-2.334-1.147c-.206-.18-.52-.147-.766-.113a.55.55 0 0 1-.247 0c-.207-.08-.44-.32-.207-.534q.172-.168.314-.166c.7.006 1.353-.207 1.993-.487c.16-.067.333-.213.453-.287c1.334-.813 3.114-.62 4.494-.086q.22.08.2-.16l-.007-.06a.35.35 0 0 0-.247-.32a5.7 5.7 0 0 0-1.12-.314a7.6 7.6 0 0 0-2.733.167c-.567.147-.9.533-1.4.793a4.4 4.4 0 0 1-1.347.44c-.02 0-.033-.006-.04-.027c-.02-.046-.013-.066.034-.08a4.15 4.15 0 0 0 1.813-.78c.047-.046.047-.053-.02-.033c-.267.087-.48.2-.76.247c-.407.067-.813.127-1.227.173c-.36.034-.92.16-1.14.434c-.233.273-.366.44-.613.6c-.24.153-.573.26-.8.4c-.32.186-.573.453-.78.8a.46.46 0 0 1-.32.22c-.2.04-.387-.12-.533.113a8.5 8.5 0 0 0-1.234 2.667c-.12.526-.14 1.193-.2 1.786v.034H2.02l-.02-.08v-1.534a8.3 8.3 0 0 1 1.287-2.98l-.007-.013h-.02c-.267-.027-.467-.114-.707-.273c-.28-.194-.453-.314-.553-.634v-.253c.067-.307.24-.473.427-.7a.08.08 0 0 0 0-.107c-.68-.826-.134-1.72.453-2.36a.44.44 0 0 1 .367-.16c.02 0 .026-.006.033-.026c.013-.04 0-.067-.027-.08c-.193-.107-.293-.22-.32-.447c-.073-.5.107-1.267.714-1.28a.04.04 0 0 0 .04-.027a.04.04 0 0 0 0-.04c-.167-.26-.334-.426-.234-.766q.15-.48.56-.72c.22-.134.494-.22.734-.374c.16-.106.286-.293.413-.44a3.33 3.33 0 0 1 3.1-.886c.273.08.573-.12.827-.234q.181-.078.393-.146c.487-.147 1.033-.334 1.487-.427a5.4 5.4 0 0 1 1.766-.053c.267.033.374.16.574.26a.07.07 0 0 0 .053 0a5.45 5.45 0 0 1 3.107-.054c.16-.053.28-.166.48-.16c.3.007.6.067.873.187c.307.133.467.353.687.633c.106.147.24.18.426.2c.587.047 1.08.4 1.48.854c.24.273.147.666.46.92c.38.32.987.706 1.127 1.22z"/><path fill="#F4F43F" d="M13.24 2.83a1.9 1.9 0 0 0-.466.327c-.154.134-.534.574-.42.76c.213.354.426.774-.034 1.027c-.273.153-.76.4-.806.733q-.03.182.12.274c.26.153.64.36.36.72c-.12.153-.354.406-.694.773c-.233.253-.673.667-.533 1.127c.027.066.1.18.213.333q.138.17.227.36q-.912.24-1.733.56c-.167-.267-.38-.373-.68-.52c-.334-.16-.6-.4-.774-.72c-.12-.207-.16-.6-.28-.766c-.113-.154-.4-.507-.413-.694c-.007-.12.013-.267.073-.447c.087-.266.24-.753.194-1.026c-.067-.407-.14-.707-.02-1.047c.046-.127.146-.267.3-.447l.626-.733c.107-.047.22-.067.32-.12c.48-.267.954-.36 1.447-.513a5.5 5.5 0 0 1 2.04-.28q.542 0 .933.32"/><path fill="#009521" d="M16.794 2.618c.026.213.106.44-.034.626c-.106.147-.313.3-.206.507c.133.28.46.867.18 1.127a4 4 0 0 1-.554.42c-.166.106-.24.333-.22.533c.054.44.047.767-.213 1.133c-.293.387-.647.52-1.02.754c-.313.2-.513.466-.587.8l-.233.04a.7.7 0 0 0-.22.066a4.8 4.8 0 0 1-1.02.36c-.227.054-.427.147-.647.18c-.286.047-.553.08-.813.1a2 2 0 0 0-.227-.36c-.113-.153-.186-.266-.206-.333c-.147-.453.293-.867.533-1.127c.333-.366.567-.62.687-.773c.28-.36-.1-.567-.36-.72q-.15-.09-.12-.28c.046-.333.533-.573.806-.727c.467-.253.247-.666.034-1.026c-.107-.187.266-.634.413-.76q.252-.222.473-.334c.147 0 .3-.026.454-.066l.44-.1a4.7 4.7 0 0 1 2.186.12a.17.17 0 0 0 .114-.007z"/><path fill="#2F61FE" d="M20.627 5.264a3 3 0 0 0-.574.387c-.353.3-.38.613-.28 1.067q.05.249.04.36c-.04.4-.373.526-.553.833c-.167.3.027.633-.153.933c-.027.054-.1.12-.207.2c-.133.1-.247.22-.333.367a3.6 3.6 0 0 0-1.32-.38l-.574-.033a6.5 6.5 0 0 0-1.18.033a1.44 1.44 0 0 1-.633-.093a1.3 1.3 0 0 1-.287-.18a2.3 2.3 0 0 0-.433-.24q.108-.5.587-.8c.373-.234.733-.367 1.02-.76c.267-.36.267-.687.213-1.12c-.02-.214.053-.434.22-.534a5 5 0 0 0 .553-.426c.28-.254-.04-.847-.18-1.127c-.106-.2.1-.36.207-.507c.14-.186.067-.413.034-.626q.548-.02 1.066.22c.22.113.447.513.633.666c.147.134.487.134.68.174c.354.066.827.433 1.06.7c.087.106.14.24.18.393c.047.173.12.333.214.493"/><path fill="#FE7D22" d="M8.5 3.424c-.2.247-.413.493-.626.733c-.154.174-.254.32-.3.447c-.12.34-.054.64.02 1.047c.046.273-.107.76-.194 1.026c-.06.18-.08.334-.066.447c.013.187.293.533.406.693c.12.16.16.56.28.767q.271.48.774.72c.3.147.513.253.68.52c-.314.133-.54.213-.687.227l-1.3.166a2.5 2.5 0 0 0-.753.214c-.394.193-.574.626-.96.853c.066-.613.013-.9-.514-1.22c-.333-.2-.766-.467-.826-.907c-.047-.36.286-.586.286-.913c0-.22-.153-.393-.266-.567c-.22-.333.066-.633 0-.966c-.067-.32-.38-.6-.714-.52q-.182-.219-.113-.447c.227-.82 1.047-.7 1.493-1.273c.287-.36.56-.62.98-.8c.6-.24 1.254-.44 1.9-.307c.174.033.334.04.5.067z"/><path fill="#9D3296" d="M20.627 5.264q.262.23.533.44c.28.22.754.62.667 1.007c-.053.2-.153.42-.307.633c-.066.107-.026.227.04.333c.1.174.174.36.214.567c.08.393-.287.613-.54.847c-.2.18-.1.466-.067.7c.047.366-.173.706-.4.966a.07.07 0 0 1-.073.02q-.24-.105-.467-.24c-.287-.166-.553-.426-.826-.646a2.7 2.7 0 0 0-.834-.48q.132-.219.334-.367c.106-.08.18-.147.206-.2c.18-.3-.013-.633.154-.933c.18-.307.513-.44.553-.834c.006-.073 0-.193-.04-.353c-.1-.467-.073-.773.28-1.067c.207-.18.4-.306.573-.4z"/><path fill="#F01" d="m5.773 11.284l-.4.2c-.517.22-.95.598-1.24 1.08c-.053.073-.14.107-.267.08c-.306-.053-.586.007-.893-.073a1.7 1.7 0 0 1-.553-.347c-.527-.427-.1-.84.186-1.2a.186.186 0 0 0 .007-.227c-.093-.133-.2-.266-.253-.413c-.214-.627.146-1.167.54-1.64c.1-.12.2-.193.32-.213c.18-.04.44-.234.193-.407c-.14-.107-.293-.2-.313-.393a1.3 1.3 0 0 1 .2-.874c.1-.14.386-.2.546-.233c.02 0 .034-.013.047-.027a.1.1 0 0 0 .027-.1a.1.1 0 0 0-.027-.046a.6.6 0 0 1-.153-.267c.333-.067.646.207.713.527c.067.333-.22.633 0 .966c.113.174.267.347.267.567c0 .333-.334.553-.287.913c.06.44.493.707.827.907c.526.32.586.607.513 1.22"/><path fill="#649947" d="M14.373 8.838c.527.446 1.054.36 1.754.3c.3-.027.626.053.913.066c.173 0 .347 0 .513.034q.429.088.787.226c.073.027.067.04 0 .04c-1.2-.066-2.36.167-3.467.634c-.02.006-.026 0-.033-.02c-.08-.567-.667-.447-1-.76a11 11 0 0 0-.453-.427v-.007h.013c.406-.106.586-.42.973-.086m-2.306.433a7.6 7.6 0 0 0 1.173-.287l.026.007l.4.367c.034.026.034.04-.013.033a8.7 8.7 0 0 0-1.58-.1c-.093 0-.093 0 0-.02z"/><path fill="#649947" d="m15.013 12.604l-.573.267a.6.6 0 0 0-.18.133c-.093.094-.207.2-.287.307a1.9 1.9 0 0 0-.353 1.406l.02.227q.012.1-.107.08c-.306-.047-.6-.12-.893-.22l-.747-.253a4.2 4.2 0 0 0-1.973 0c-.333.086-.8.333-.6.78c.213.513 1.247.8 1.727.966c.333.114.993.28 1.48.454c.566.2 1.246.333 1.786.333c1.16.014 2.2 0 3.114-.013a5.3 5.3 0 0 0 2-.367c.326-.133.6-.32.806-.56q.04-.038.02.013a3.6 3.6 0 0 0-.253.96c-.04.314-.08.62-.133.92c0 .02-.014.04-.027.054a.1.1 0 0 1-.06.033q-.52.07-1 .32c-.353.187-.76.434-1.1.534a3 3 0 0 1-.753.12a.06.06 0 0 1-.027-.034c-.24-.693-1.293-.42-1.753-.153c-.4.226-.8.466-1.187.706a.09.09 0 0 1-.1-.013a.7.7 0 0 0-.4-.173c-.42-.04-.693-.007-.987.226l-.013.007h-.013a.03.03 0 0 1-.02-.013c-.154-.3-.674-.573-.934-.687a12 12 0 0 0-1.153-.46a1.6 1.6 0 0 0-.487-.087c-.233 0-.326.134-.393.347q-.14.46-.16 1q0 .032-.02.053a.07.07 0 0 1-.047.02c-.353.014-.733.047-1.06.054c-1.9.013-4.113-.3-5.666-1.554c-.2-.166-.4-.386-.467-.646q-.01-.021-.02 0l-.02.046v-.4l.02.08h.007l.006-.02v-.013c.06-.6.08-1.267.2-1.793a8.5 8.5 0 0 1 1.227-2.66c.153-.234.333-.067.54-.113a.46.46 0 0 0 .32-.22c.2-.347.467-.614.773-.8c.234-.14.567-.247.8-.4c.254-.16.387-.327.62-.6c.22-.267.78-.4 1.134-.434c.42-.047.826-.107 1.233-.173c.28-.04.493-.16.76-.247c.067-.02.067-.013.02.033c-.54.44-1.133.62-1.813.78c-.047.007-.054.034-.034.08q.01.028.04.027l.134-.02c.422-.08.831-.222 1.213-.42c.5-.266.833-.647 1.4-.8a7.6 7.6 0 0 1 2.733-.16q.36.042 1.12.313q.23.08.247.32v.067c.02.153-.047.207-.2.153c-1.373-.533-3.147-.726-4.487.087c-.12.067-.293.22-.453.287c-.64.28-1.293.493-1.993.486q-.142-.001-.314.167c-.233.213 0 .454.207.534a.7.7 0 0 0 .247 0c.246-.034.56-.067.766.113a4.86 4.86 0 0 0 2.334 1.146c1.2.18 2.346.147 3.473-.333l.247-.133a.66.66 0 0 1 .486-.067"/><path fill="#649947" d="m14.8 10.604l.007.02a.04.04 0 0 0 .014.024a.04.04 0 0 0 .026.01h.013a7.9 7.9 0 0 1 4.72-.38a.25.25 0 0 1 .147.093c.266.32.6.36.907.566q.19.119-.02.047c-.42-.16-.887-.4-1.307-.513a4.52 4.52 0 0 0-3.267.36c-.333.173-.567.38-.833.64c-.02.013-.027.013-.034-.014c-.053-.2-.02-.38-.253-.486a7.7 7.7 0 0 0-3.14-.713c-.1 0-.24.02-.433.053c-.687.14-1.4.507-2.02.867a3 3 0 0 0-.78.66c-.014.013-.027.013-.047.006a.97.97 0 0 0-.587-.127c-.18.034-.6.127-.64-.186c0-.02 0-.034.014-.047q.168-.189.306-.187a4.7 4.7 0 0 0 2.307-.673c1.367-.953 3.267-.72 4.72-.133q.03.01.058 0a.08.08 0 0 0 .042-.04c.047-.087.087-.154.18-.194a7.95 7.95 0 0 1 3.64-.633a.64.64 0 0 1 .367.113c.153.107.32.2.486.28a.35.35 0 0 1 .114.094c.013.013.013.02-.014.013a7.97 7.97 0 0 0-4.653.413q-.042.02-.033.067z"/><path fill="#fff" d="M11.147 13.05a4.77 4.77 0 0 1-2.5-1.1a.05.05 0 0 1 .014-.04c.5-.6 1.28-.94 2.04-1.252a3.2 3.2 0 0 1 1.426-.267a8 8 0 0 1 2.047.42c.207.066.72.227.8.38c.153.253-.04.933-.154 1.193a6.3 6.3 0 0 1-1.666.627c-.627.12-1.347.1-2 .04zm5.573-.146a.13.13 0 0 0-.086-.013c-.2-.094-.4-.22-.607-.273a2.4 2.4 0 0 0-.9-.067l-.133-.094q-.03-.01-.02-.04c.053-.173.107-.346.147-.52c.093-.373.613-.733.933-.9c1.653-.866 3.3-.6 4.867.307c.466.267.34.707-.014.987c-.086.067-.213.12-.387.173c-1.24.347-2.513.527-3.8.44"/><path fill="#010201" d="M12.867 12.19c-.2.527-.7.754-1.227.774c-.92.034-1.533-.306-1.347-1.367c.114-.653.494-1.02 1.134-1.086c.34-.034.646.027.913.193a1.27 1.27 0 0 1 .52 1.487zm5.593-1.473c.94.474.88 1.84-.206 2.094c-.627.14-1.507.06-1.574-.793c-.053-.6.214-1.187.8-1.38q.5-.17.98.08"/><path fill="#fff" d="M11.247 11.177a.19.19 0 0 0 .147-.147a.2.2 0 0 0 0-.073a.18.18 0 0 0-.082-.113a.18.18 0 0 0-.138-.02a.186.186 0 0 0-.147.213c.02.1.12.16.22.134zm6.287.04a.172.172 0 0 0 .122-.293a.17.17 0 0 0-.122-.047a.167.167 0 0 0-.167.167c0 .1.073.173.167.173m-5.574.44c.154.014.28-.086.294-.22c0-.133-.114-.253-.267-.26c-.153-.006-.287.094-.293.227s.106.247.266.253m6.267 0c.133.007.26-.086.267-.206c.006-.12-.1-.234-.24-.24c-.14-.014-.267.08-.267.2c-.013.126.093.233.24.246m-6.987.207c.087 0 .154-.067.154-.14c0-.08-.067-.14-.154-.147c-.086 0-.153.067-.153.14c0 .08.067.147.153.147m6.334-.02a.14.14 0 0 0 .133-.133a.134.134 0 0 0-.14-.127c-.08 0-.14.067-.133.133c0 .067.06.134.133.134z"/><path fill="#649947" d="m17.413 14.81l-.013-.006l-.01-.008l-.003-.012l-.02-.4q0-.26-.04-.4a2.4 2.4 0 0 0-.494-.92a11.8 11.8 0 0 0 3.667-.447q.302-.088.453-.206a1.4 1.4 0 0 0 .347-.4q.04-.06.04.02c0 .2-.087.426-.133.62c-.074.353-.287.533-.52.76a.36.36 0 0 0-.094.213c0 .007 0 .02-.013.027l-.02.007c-.233.033-.427.093-.58.2c-.867.56-1.567.98-2.567.953"/><path fill="#010201" d="M7.173 12.524h-.006v-.033c.013-.04.04-.067.093-.087a.3.3 0 0 1 .16 0l.24.067c.06.013.113.046.147.08q.051.06.033.12v.02l-.007.006H7.82z"/><path fill="#F01" d="M15.134 12.55c.306-.033.6-.012.893.067c.2.054.4.18.607.267q-.028.008-.027.047h-.014l-.02-.013q-.002-.03-.033-.02q-.05-.002-.1.086a.3.3 0 0 0 .134.1h.006l-.04.02l-.009.007l-.01.002a.03.03 0 0 1-.02-.009a1.4 1.4 0 0 0-.267-.127l-.02.007a.05.05 0 0 1-.04 0a1.6 1.6 0 0 0-.534-.04l-.013.02l-.02.047a.1.1 0 0 1-.034.033c-.173.114-.02.294-.153.387c-.066.047-.173.027-.267.047l-.012.007l-.008.013l-.013.013a3 3 0 0 1-.393.053q-.019-.002-.047.027a.05.05 0 0 1-.04.013c-.08-.006-.12.02-.126.094a.2.2 0 0 1-.027.08a.15.15 0 0 1-.06.053a.13.13 0 0 1-.147-.02c-.033-.034-.093-.04-.173-.034c-.067 0-.107.047-.133.114c-.014.033-.04.093-.1.187a.1.1 0 0 0-.007.046c0 .06-.04.1-.047.133c-.027.067-.06.147-.066.22l-.02.04q-.02.008-.02-.013c0-.02 0-.027-.014-.027a.032.032 0 0 1-.033-.033v-.04h-.033v.04l.006.267l-.02.006q-.098-.798.354-1.406c.08-.107.2-.213.286-.307a.6.6 0 0 1 .18-.133l.574-.267q.16-.04.113-.053z"/><path fill="#D01F13" d="M16.633 12.89q.046-.007.087.014q-.032.002-.033.034c0 .02 0 .033.02.046l.126.08c.24.287.4.594.494.914q.04.15.04.4q.01.213.033.426l.014.014q-.009-.01-.047 0c0-.274.04-.647-.067-.9a6 6 0 0 0-.133-.24a.1.1 0 0 1-.054.033H17.1v.013a.02.02 0 0 0 0 .02l.02.04v.027l.014.06c0 .02-.014.033-.04.027q-.058-.009-.067-.067a.05.05 0 0 0-.02-.047a.3.3 0 0 1-.1-.107H16.9v.02q.02 0 0 .02a.03.03 0 0 1-.02 0l-.007.007c0 .047-.02.074-.073.08h-.173a.13.13 0 0 0-.08.02l-.374.26c-.093.06-.133.16-.233.22l-.193.114c-.114.086-.267.166-.414.133h-.053c-.173.04-.333.02-.52.08c-.193.066-.42.033-.62.033c-.14 0-.213.067-.2.214c0 .013-.013.026-.026.04a.7.7 0 0 0-.14.186a.53.53 0 0 1-.134-.393q-.01-.15 0-.3v-.007h.027v.04c0 .027.013.034.033.034q.012-.002.013.026c0 .02 0 .02.02.014a.05.05 0 0 0 .02-.04l.067-.22c.007-.034.047-.074.047-.134l.006-.046a1 1 0 0 0 .1-.187c.027-.067.067-.107.134-.113c.08-.007.14 0 .18.033a.13.13 0 0 0 .14.02a.15.15 0 0 0 .066-.053a.16.16 0 0 0 .02-.08q.012-.102.134-.094c.013 0 .026 0 .033-.013c.02-.02.04-.027.047-.027q.206-.018.406-.066q.009-.02.027-.02c.087-.02.187 0 .26-.047c.133-.093-.02-.273.153-.387a.1.1 0 0 0 .034-.033l.02-.047a.05.05 0 0 1 .046-.027c.174-.013.334 0 .5.054l.04-.007h.027c.073.02.16.067.267.12h.033a.1.1 0 0 1 .04-.013v-.007a.3.3 0 0 1-.14-.1q.05-.088.1-.086c.02 0 .027 0 .034.02l.02.02h.006v-.007q.002-.04.033-.04"/><path fill="#FDCAC3" d="M15 13.004h.24c.034 0 .067.014.087.034q.038.038.047.086l.026.154a.15.15 0 0 1-.02.106a.14.14 0 0 1-.093.06l-.42.054a.13.13 0 0 1-.073-.014a.147.147 0 0 1-.047-.213l.147-.207a.14.14 0 0 1 .113-.06z"/><path fill="#9A1105" d="m17.367 14.818l-.04.093a1.98 1.98 0 0 1-.653 1.067v.013l.005.008l.008.005c.014.007.027.014.047.007c-.113.013-.194.047-.227.113l-.22.087l-.213.087c-.573.166-1.12.086-1.66-.234c-.02-.04-.047-.066-.08-.066c.12 0 .107-.04-.053-.114a.3.3 0 0 1-.094-.066a1.4 1.4 0 0 1-.413-.714a.7.7 0 0 1 .14-.186l.015-.018l.005-.022c-.007-.147.067-.207.2-.214c.207 0 .433.027.627-.033c.193-.067.346-.04.52-.087h.053c.146.04.3-.04.413-.126l.2-.114c.094-.06.134-.16.227-.22l.373-.266a.13.13 0 0 1 .08-.02h.174c.053 0 .073-.027.066-.067c0-.013.007-.013.014-.013h.026v-.02c-.013 0-.013-.014-.013-.02h.013q.039.064.1.106l.027.047q0 .058.06.067c.02 0 .033 0 .04-.027c0-.02 0-.04-.013-.06v-.027c0-.013 0-.026-.02-.04a.02.02 0 0 1-.01-.016a.02.02 0 0 1 .01-.017h.013l.053-.033q.07.119.133.24c.107.253.067.626.067.9"/><path fill="#A35B36" d="M16.734 16.01h-.047l-.007-.012v-.027q.499-.43.647-1.06c.733.053 1.493-.214 2.113-.6c.354-.227.714-.5 1.134-.553c.013 0 .026 0 .04.013a.52.52 0 0 1 .153.48c-.167.873-.827 1.133-1.58 1.32c-.801.219-1.62.366-2.447.44z"/><path fill="#A35B36" d="M13.534 15.024c.08.014.113-.02.106-.08a6 6 0 0 1-.02-.226h.02a.52.52 0 0 0 .134.386q.081.391.413.714q.041.041.094.066c.16.067.173.107.053.114c-1.04-.134-2.02-.254-3.027-.574a3.5 3.5 0 0 1-.727-.313c-.02-.013-.033 0-.033.02v.027q.002.018.012.035q.011.016.028.025q.28.168.6.266c1.04.334 2.114.534 3.227.58a2.03 2.03 0 0 0 1.88.147l.213-.087c1.005-.083 2-.26 2.973-.526a2.5 2.5 0 0 0 .96-.454h.007l.007.014c.066.266.033.633-.174.826c-.14.134-.3.32-.446.4q-.929.541-1.947.574c-1.547.04-2.6.053-3.187.046a7.6 7.6 0 0 1-2.14-.347c-.833-.253-1.686-.486-2.466-.82c-.28-.12-.894-.466-.7-.826c.133-.267.466-.36.733-.4a4.1 4.1 0 0 1 2.167.16c.4.16.893.333 1.333.367c.087 0 .1-.027.04-.094q-.032-.04-.133-.02"/><path fill="#010201" d="M14.334 16.004q.06-.002.08.067a12.4 12.4 0 0 1-3.234-.587a3 3 0 0 1-.62-.293a.1.1 0 0 1-.006-.033v-.027c0-.027 0-.033.026-.02c.207.127.454.227.734.313c1 .32 1.98.447 3.02.574zm-5.887.854a.05.05 0 0 1 .007-.067l.02-.007l.013-.006c.047-.02.08-.014.107.026c.18.274.506.46.793.627a.066.066 0 0 1 .02.086l-.013.02a.07.07 0 0 1-.034.034h-.046c-.3-.16-.707-.4-.867-.713"/><path fill="#0645FF" d="M9.24 21.67H2v-3.54a.1.1 0 0 1 .04-.033q.02-.01.04.007c.1.14.207.253.32.347a7.4 7.4 0 0 0 3.613 1.453c.934.133 1.954.2 2.894.1c.1-.007.206-.013.333-.007q.02 0 .033.014q.014.013.014.033a8.5 8.5 0 0 1-.047 1.627m12.687 0H16.62c.093-.266.16-.54.2-.813l.08-.76q.043-.395.027-.793a.07.07 0 0 1 .033-.04a3.05 3.05 0 0 1 2.953-.987a.09.09 0 0 1 .094.047c.186.353.06.8.333 1.093c.533.567.96 1.207 1.467 1.8c.106.114.14.267.12.454"/><path fill="#ACD7FB" d="M11.26 21.67H9.394c.086-.966-.054-1.96.233-2.9c.08-.26.393-.18.573-.12c.78.247 1.3.46 1.88.848a.46.46 0 0 1 .227.46q-.002.04-.053.04l-.84-.127c-.054-.007-.08.013-.094.066v.02a.053.053 0 0 0 .02.067h.02l.9.14q.012.002.02.009a.04.04 0 0 1 .014.018q.005.012.003.024l-.01.023q-.24.268-.6.306a.08.08 0 0 0-.067.033a.1.1 0 0 0-.007.067v.02a.054.054 0 0 0 .06.04a1.02 1.02 0 0 0 .6-.213c.02.353-.113.62-.386.8c-.2.133-.413.26-.627.38m5.187 0H15.3l-1.226-.706l-.014-.026l.08-.38q0-.02.02-.007c.2.126.407.187.64.187q.053.001.054-.047v-.02q.01-.07-.067-.08c-.247-.027-.693-.147-.653-.44c0-.02.013-.034.033-.034l.8-.2c.013 0 .027-.013.033-.026a.1.1 0 0 0 .007-.033v-.034c0-.053-.033-.073-.087-.067l-.8.2a.05.05 0 0 1-.053-.02l-.053-.1c-.007-.026 0-.04.013-.053q.512-.328 1.033-.626c.37-.252.815-.37 1.26-.334c.267.02.447.187.46.467c.04.8-.066 1.6-.333 2.38"/><path fill="#fff" d="M16.107 19.51c.133 0 .24-.112.24-.246a.245.245 0 0 0-.24-.246a.245.245 0 0 0-.24.246a.25.25 0 0 0 .24.247m-5.967.12c.133 0 .24-.113.24-.246a.245.245 0 0 0-.24-.247a.24.24 0 0 0-.24.247c0 .133.107.247.24.247m.973.04a.246.246 0 0 0 .247-.246a.25.25 0 0 0-.246-.247a.245.245 0 0 0-.24.247c0 .134.106.254.24.254zm4.267.248a.24.24 0 0 0 .24-.24a.245.245 0 0 0-.24-.247a.24.24 0 0 0-.24.247c0 .133.107.24.24.24"/><path fill="#ACD7FB" d="M13.507 19.604c.274.067.44.333.467.613c0 .02 0 .034-.02.047c-.42.32-.953.267-1.44.133a.1.1 0 0 1-.053-.033a.1.1 0 0 1-.014-.06c0-.147-.013-.413.12-.52c.267-.2.64-.253.94-.18"/><path fill="#fff" d="M13.714 20.244a.245.245 0 0 0 .086-.333c-.067-.114-.22-.134-.333-.067c-.114.08-.154.227-.08.333c.066.114.213.14.333.067zm-.887.093c.133 0 .233-.113.233-.246c0-.134-.107-.247-.233-.247a.245.245 0 0 0-.24.247c0 .133.107.24.24.24zm-2.074.167a.24.24 0 0 0 .24-.247a.245.245 0 0 0-.24-.246a.25.25 0 0 0-.246.246a.25.25 0 0 0 .246.247m5.234.087a.25.25 0 0 0 .246-.247a.25.25 0 0 0-.246-.247a.24.24 0 0 0-.24.247c0 .133.107.247.24.247m-.953.073c.04.133.173.207.293.167c.127-.034.193-.174.153-.307s-.173-.213-.293-.173a.247.247 0 0 0-.153.313"/><path fill="#ACD7FB" d="M13.227 20.67c-.147.067-.214.167-.2.287c.02.214.24.194.38.154a.07.07 0 0 0 .04-.034q.161-.328-.167-.406c.247-.014.447-.067.6-.174c.093-.06.133-.033.1.08l-.053.22a.4.4 0 0 1-.207.267a1.135 1.135 0 0 1-1.307-.093q-.038-.03-.026-.08c.033-.1.053-.2.046-.314c0-.02.007-.033.034-.026c.233.067.486.113.76.12"/><path fill="#fff" d="M9.894 21.09a.246.246 0 0 0 .246-.246a.25.25 0 0 0-.246-.253a.246.246 0 0 0-.24.253c0 .133.106.247.24.247m3.333-.42a.07.07 0 0 0 .053 0c.22.054.274.187.167.408a.07.07 0 0 1-.04.033c-.133.04-.36.06-.38-.154c-.013-.12.053-.22.2-.286m-1.987.667a.24.24 0 0 0 .24-.246a.245.245 0 0 0-.24-.247a.245.245 0 0 0-.24.247c0 .133.107.246.24.246m4.7.234c.133.027.267-.054.287-.187a.246.246 0 0 0-.288-.288a.24.24 0 0 0-.192.188c-.027.133.067.254.2.287z"/><path fill="#0645FF" d="M14.907 21.67h-3.174a.2.2 0 0 1-.073-.02l-.007-.012v-.015l.007-.012a2.8 2.8 0 0 0 .633-.487q.02-.02.04 0l.267.134c.4.213.967.133 1.334-.147a.04.04 0 0 1 .053 0c.306.153.62.34.92.56"/></g></svg>