<svg xmlns="http://www.w3.org/2000/svg" xmlns:xlink="http://www.w3.org/1999/xlink" width="24" height="24" viewBox="0 0 24 24"><g fill="none"><path fill="url(#tokenBrandedHtm0)" d="M4.653 7.033C3.387 5.587 3.887 3.3 4.3 2.333c-.647.24-2.3 1.507-2.3 4.7c0 3.614 4.067 5.24 5.84 7.227s2.3 7.407 4.067 7.407c1.773 0 2.586-5.92 4.253-7.407c1.413-1.267 5.84-3.8 5.84-7.227c0-2.746-1.533-4.28-2.3-4.7c1.273 1.88.353 3.614-.707 4.7c-3.54 3.974-6.373 2.534-7.08 5.96c-.353-3.433-5.666-4.153-7.26-5.96"/><defs><linearGradient id="tokenBrandedHtm0" x1="12" x2="12" y1="2.333" y2="21.667" gradientUnits="userSpaceOnUse"><stop stop-color="#64EAB7"/><stop offset="1" stop-color="#33CBF0"/></linearGradient></defs></g></svg>