<svg xmlns="http://www.w3.org/2000/svg" xmlns:xlink="http://www.w3.org/1999/xlink" width="24" height="24" viewBox="0 0 24 24"><g fill="none"><path fill="#FED72E" d="M17.778 3.81c-1.043.488-1.893 1.131-2.548 1.943a6.73 6.73 0 0 0-6.603.356a6.7 6.7 0 0 0-2.485-1.998a9.625 9.625 0 0 1 11.642-.294z"/><path fill="#373636" d="M21.356 8.508a10.9 10.9 0 0 1-2.242 3.541l-.012-.006l-.007-.006c-.712-1.025-2.117-1.48-3.235-.85c-2.473 1.393-1.237 5.084 1.599 4.716c.18-.025.368-.131.562-.163h.012l.013.013v.025a6.8 6.8 0 0 1-2.374 2.261c.319-1.05-.08-1.911-.749-2.592c-.294-.3-.787-.637-1.03-1.05c-.544-.924-.507-2.354-.532-3.335a2.2 2.2 0 0 0-.287-1.055c-.225-.394-.612-.456-.905-.088q-.302.377-.294.875c0 .936.437 3.429-.706 4.21c-1.524 1.043-1.861 2.473-.537 3.872c-2.998-.606-5.21-2.936-5.534-6.046a.2.2 0 0 0-.062-.119A13 13 0 0 1 2.63 9.332a7.4 7.4 0 0 1-.625-2.998c.02-.712.281-1.649.3-2.51c.025-1 3.348.1 3.835.28c1 .481 1.836 1.15 2.486 2.005l.131.188c.031.043.069.056.113.03a7.27 7.27 0 0 1 5.97-.187c.044.025.082.013.107-.025l.281-.362c.656-.812 1.499-1.455 2.548-1.936a13.5 13.5 0 0 1 2.661-.593c.462-.063 1-.094 1.006.543c.018.762.262 1.586.28 2.217a6.8 6.8 0 0 1-.368 2.524M16.16 6.865q2.016 1.404 2.71 3.885l.075.406c.013.05.032.062.063.012c1.418-1.742 1.786-4.328 1.799-6.54a.2.2 0 0 0-.069-.155a.2.2 0 0 0-.162-.044a8.94 8.94 0 0 0-4.554 2.224q-.054.047-.006.106a.4.4 0 0 0 .144.106M5.273 10.656c.468-1.561 1.35-2.81 2.636-3.76a.4.4 0 0 0 .187-.125c.025-.043.025-.08-.012-.112a9.04 9.04 0 0 0-4.41-2.13a.175.175 0 0 0-.212.175C3.43 6.846 3.78 9.4 5.11 11.156q.006.009.017.011a.04.04 0 0 0 .02.001a.04.04 0 0 0 .025-.025zm5.459 2.898a2.52 2.52 0 0 0-1.535-2.322a2.47 2.47 0 0 0-2.706.542a2.53 2.53 0 0 0 1.755 4.291c.662 0 1.293-.268 1.755-.737a2.53 2.53 0 0 0 .73-1.774"/><path fill="#FED72E" d="M18.87 10.75c.988-1.505 1.293-3.548 1.268-5.297a.19.19 0 0 0-.143-.18a.2.2 0 0 0-.081 0a9.3 9.3 0 0 0-3.76 1.592a.4.4 0 0 1-.138-.106q-.048-.058.006-.106a8.95 8.95 0 0 1 4.554-2.224a.2.2 0 0 1 .23.2c-.012 2.21-.38 4.797-1.792 6.54q-.057.063-.068-.013zM7.91 6.896a8.9 8.9 0 0 0-3.473-1.393c-.156-.025-.237.038-.237.2c-.019 1.618.243 3.535 1.074 4.953l-.1.487a.038.038 0 0 1-.062.013c-1.33-1.749-1.68-4.31-1.65-6.452a.2.2 0 0 1 .063-.138a.18.18 0 0 1 .15-.037a9.07 9.07 0 0 1 4.41 2.124c.037.037.037.074.012.118a.4.4 0 0 1-.187.125"/><path fill="#fff" d="M18.87 10.75a6.83 6.83 0 0 0-2.71-3.885a9.3 9.3 0 0 1 3.754-1.593a.188.188 0 0 1 .225.188c.025 1.748-.281 3.785-1.268 5.29M7.91 6.896a7.02 7.02 0 0 0-2.637 3.76C4.443 9.238 4.18 7.321 4.2 5.703c0-.162.081-.225.238-.2c1.224.206 2.385.675 3.472 1.393"/><path fill="#FED72E" d="M21.356 8.508c1.037 2.76.762 5.509-.487 8.107c-.456.687-.862 1.25-1.224 1.668a11.1 11.1 0 0 1-4.953 3.31a7.4 7.4 0 0 1-4.447.125c-2.942-.806-5.609-2.76-6.996-5.522a9.93 9.93 0 0 1-.955-5.602c.006-.406.125-.83.337-1.262a13 13 0 0 0 2.411 3.38c.031.03.05.074.056.124c.325 3.104 2.53 5.434 5.534 6.04c.362.28.75.493 1.15.624c.568 1.2 1.954 1.143 2.51-.043c.007-.019.031-.032.063-.044c.012 0 .012-.012.006-.019a.05.05 0 0 1-.006-.043c.624-.263 1.061-.694 1.311-1.312a6.8 6.8 0 0 0 2.386-2.286l-.012-.013h-.013c-.193.032-.38.138-.562.163c-2.835.368-4.072-3.323-1.599-4.716c1.118-.624 2.524-.175 3.236.85q.006.009.018.012h.013l.012-.012a10.9 10.9 0 0 0 2.218-3.53zm-5.783 6.04q-.074.213.012.362c.125.2.312.237.587.112c1.125.525 2.405.006 2.78-1.2c.687-2.179-2.324-3.622-3.56-1.573c-.431.706-.369 1.468.187 2.298z"/><path fill="#fff" d="M15.674 18.039a2.34 2.34 0 0 1-1.318 1.312c-.9.23-1.55.393-2.574.15a3.9 3.9 0 0 1-1.149-.625c-1.324-1.4-.987-2.83.537-3.873c1.15-.78.712-3.266.706-4.216c0-.324.094-.612.294-.868c.293-.368.687-.306.905.088q.27.486.288 1.055c.024.98-.013 2.411.53 3.336c.25.412.737.75 1.025 1.049c.674.687 1.074 1.543.75 2.592zm-1.55-1.037c.27-.312.213-.525-.187-.637c-.387-.119-1.711-.256-2.098.15a.337.337 0 0 0 0 .462c.287.313.643.512 1.061.606c.394.094.725-.019 1-.325z"/><path fill="#FED72E" d="M10.733 13.554c0 .662-.263 1.3-.731 1.774a2.466 2.466 0 0 1-3.51 0a2.53 2.53 0 0 1 1.755-4.29c.662 0 1.293.268 1.755.736a2.53 2.53 0 0 1 .73 1.78m-3.71 1.318c.093.281.274.406.53.363c.887.25 1.605.1 2.143-.457a2.02 2.02 0 0 0 .343-2.348c-1.087-1.936-3.947-.968-3.666 1.262c.062.456.275.85.65 1.18"/><path fill="#373636" d="M16.172 15.022c.188-.487-.193-.824-.6-.475c-.55-.83-.611-1.592-.187-2.298c1.25-2.055 4.254-.606 3.567 1.574a1.972 1.972 0 0 1-2.78 1.2m2.024-2.704a.65.65 0 0 0-.175-.438a.6.6 0 0 0-.655-.132a.612.612 0 0 0-.194.994a.594.594 0 0 0 1.024-.424M7.553 15.235c.55-.45-.25-1.125-.531-.363c-.358-.3-.59-.723-.65-1.187c-.28-2.223 2.58-3.197 3.667-1.255c.418.75.25 1.73-.344 2.348q-.804.832-2.142.457m1.874-2.786a.64.64 0 0 0-.175-.437a.599.599 0 0 0-1.025.437a.61.61 0 0 0 .37.555a.6.6 0 0 0 .83-.555"/><path fill="#FFFEE0" d="M17.597 12.924c.33 0 .6-.275.6-.606a.61.61 0 0 0-.369-.564a.6.6 0 0 0-.231-.049a.607.607 0 0 0-.6.613c0 .33.269.606.6.606m-8.77.13c.332 0 .6-.274.6-.605a.604.604 0 0 0-.6-.612a.61.61 0 0 0-.555.38a.6.6 0 0 0-.044.232c0 .33.269.606.6.606m7.346 1.968c-.269.125-.469.088-.587-.112c-.056-.1-.063-.219-.013-.363c.406-.35.787-.012.6.475m-9.15-.15c.093.281.274.406.53.363c.55-.45-.25-1.125-.53-.363"/><path fill="#373636" d="m14.124 16.996l-.225.256q-.41.466-1 .325a2.06 2.06 0 0 1-1.061-.606a.337.337 0 0 1 0-.462c.387-.406 1.711-.269 2.105-.15c.393.112.45.325.18.637"/><path fill="#FA7F5B" d="m14.355 19.35l.006.044c.013.007.007.013 0 .02c-.037.012-.062.024-.062.043c-.562 1.186-1.943 1.243-2.517.043c1.024.25 1.674.082 2.573-.15"/></g></svg>