<svg xmlns="http://www.w3.org/2000/svg" xmlns:xlink="http://www.w3.org/1999/xlink" width="24" height="24" viewBox="0 0 24 24"><g fill="none"><path fill="#F9AED9" d="M9.194 16.447L5.51 4.6c3.77-2.177 6.347-2.224 7.812-2.088c1.465.135 3.594 1.376 5.724 2.882c1.705 1.212 2.335 4.059 2.44 5.33c.148.588.136 2.482-1.111 5.323c-1.553 3.553-2.794 3.106-3.059 3.282c-.212.147-5.506-1.858-8.118-2.882z"/><path fill="#F471B7" d="M8.623 7.67c-.5-1.335-1.947-2.411-2.611-2.782c-.236.059-.741.183-.883.253c-.164.082-1.464 2.394-2.117 3.994c-.53 1.283-.612 2.006-.589 2.206z"/><path fill="#EE509D" d="M14.917 17.841c-3.118-.259-5.082-3.6-5.676-5.241c.67-1.67 1.358-4.959-1.236-4.741c-2.606.223-4.812 2.23-5.588 3.206l.688 3.959l1.53 3.364c1.13.841 3.53 2.559 4.076 2.724c.688.206 1.853.347 5.153.164c2.635-.147 4.788-2.217 5.535-3.235c-.194.041-1.37.059-4.482-.2"/><path fill="#F151AB" d="M4.5 7.753c-.123.959-1.129 1.665-1.611 1.9C3.395 8.571 4.419 6.388 4.5 6.3c.1-.118.16.253 0 1.453"/><path fill="#EE297B" d="M5.929 8.812c.835-1.765 2.33-1.97 2.97-1.86c.295 2.242.883 6.76.883 6.883c0 .135-.324 1.806-.488 2.624l-3.865-1.277c-.177-1.388-.335-4.612.5-6.37"/><path fill="#F053A0" d="M15.088 15.777c1.9-1.412 4.906-2.965 6.177-3.571c.07.394.206 1.241.188 1.506c-.023.33-.682 2.276-1.953 4.082c-1.265 1.806-3.518 1.647-3.8 1.765c-.223.088-2.412-.824-3.47-1.294c.158-.242.964-1.083 2.858-2.488"/><path fill="#D69FA2" d="M9.788 14.67c-.2.136-.576.542-.74.724c-.066.176-.2.565-.2.682v1.183c0 .182.787 1.258.893 1.423c.112.165.941.177 1.294-.364c.283-.43.383-.942.4-1.148l-.282-.094c-.059-.059-.153-.176-.118-.217l.4-.318c-.47-.682-1.453-2.012-1.647-1.87"/><path fill="#51516D" d="M8.136 20.382c-1.9-.817-3.436-2.682-3.965-3.517l.747-1.336c.13-.153.43-.506.63-.706c.252-.253.717-.564 1.605-.394c.706.141 1.247 1.26 1.424 1.8l.24.165c.048.406.148 1.3.224 1.682c.095.471.248.642.33.836c.059.158.153.206.188.211c.018.183.059.318.27.394c.177.06.471-.129.589-.235l.33-.4l.293-.57l.153-.236l.153-.459l.083-.435l1.03.53l.493.294l.524.4l.147.306l.053.282v.353l-.1.447l-.13.488c-.058.141-.17.453-.194.588a.9.9 0 0 0 0 .336c-1.653.03-2.747.206-5.117-.818z"/><path fill="#F2EDF4" d="M8.935 17.865c.048.03.106.211.13.306c.059.264.176.846.235 1.07c.041.224.177.618.236.788l.27-.206l.518-.429c.03-.03.076.153 0 .206l-.689.588c0 .012 0 .059-.029.136c-.03.088.024.176.03.34a.3.3 0 0 1-.1.253l-.2-.064a1.2 1.2 0 0 1-.053-.224q.075-.26.129-.53l-.041-.105l-.153-.341l-.153-.524a31 31 0 0 0-.235-1.076c-.006-.053.04-.218.105-.188"/><path fill="#FEF3EF" d="M8.871 17.059a3 3 0 0 1-.023-.818l.294.788s.535 1.047.853 1.218c.253.141.823.059 1.07 0c-.13.253-.417.776-.482.847s-.236.224-.306.294a.57.57 0 0 1-.477.118c-.217-.059-.235-.288-.211-.394l-.047.023a3 3 0 0 1-.195-.212c-.04-.058-.188-.488-.205-.511a7 7 0 0 1-.271-1.353m.877-2.37c-.012-.06-.177-.46-.253-.648a6.5 6.5 0 0 1 .935-3.023l2.035-.848l1.453-.864l2.412 1.918l.135 1.094v1.588l-.094.2l.212.147l-.212.123l-.294.236l-.118.411l-.488.442l-.335.353l-.347.47l-.247.177l-.336.147c-.105.04-.412.13-.752.176c-.342.059-.942.088-1.2.1h-.589l-.311-.247l-.5-.447l-.383-.412l-.388-.54a6 6 0 0 1-.335-.554"/><path fill="#C78BAB" d="M15.43 13.753c-.177-.212-.289-.542-.324-.683c.118 0 .412.077.718.377c.37.382.04.559 0 .6c-.047.041-.177-.035-.394-.294"/><path fill="#B36491" d="m6.158 13.294l-.047-.23l.447.065c.212.03.377.018.647 0c.212-.011.46-.147.553-.211l-.064 1.347c-.012.058.023.34.04.47l-.158-.123l-.294-.936l.035.8l-.276-.07a3 3 0 0 0-.336-.041l-.211-.377l-.336-.7zm3.606 1.435l-.259-.54l-.017.729zm1.306 2.141l1.2.73l.63-.459q-.12.345-.295.665l-.2.194c.042.023.189.059.471 0s.506-.153.577-.194l.823-.577c-.059.118-.23.394-.353.495c-.118.093-.441.27-.588.352a2.26 2.26 0 0 0 1.017-.352c.337-.217.633-.49.877-.806a3 3 0 0 0 .335-.636l-.258.941l.547-1.14c.1-.212.582-1.336.811-1.871l.077-.277h-.312l-.059.177l.165.147q-.241.168-.47.353c-.018.017-.1.294-.136.435l-.706.635c-.076.147-.282.477-.435.6l-.059.059c-.159.13-.288.235-.73.33c-.4.088-.9.17-1.1.2h-1.252l-.336-.224l-.247.223z"/><path fill="#FBBDC8" d="M5.794 13.841c.07.2.224.482.294.6l.188-.035l-.076-.594l-.065-.583v-.188c.041.03.26.094.747.112c.489.018.789-.177.877-.277c-.018.512-.041 1.612 0 1.877c.047.33.247.73.259.759c.011.023.158.159.235.223v-.106l.012-.117c.058.14.205.464.317.635c.118.177.553.476.759.606l-.082-.27l-.124-.471V15.7l.047-1.2l.036-.13l.147.96l.153.405l-.036-.935l.036-.565l.058-.54l.277-1.095c.053-.212.353-1.041.5-1.43c.2-.035.723-.117 1.223-.164a2.12 2.12 0 0 0 1.236-.641c.076-.089.353-.424.47-.583l.36-.564c.14-.236.423-.7.434-.736c.012-.035.142-.188.206-.264c-.17.382-.54 1.252-.676 1.67c-.165.524-.235 1.618-.235 1.765c-.006.13.023.341.04.435l.118-.43c.018.165.065.53.112.707s.206.382.282.458l.036-.194c.294 0 .63-.159.759-.235l-.212.206c.323-.024.706-.353.853-.512c-.03.177-.177.435-.236.541a3.1 3.1 0 0 0 .753-.705c.387-.443.647-.981.753-1.56q0 1.021-.182 2.024v1.57h.306l-.488 1.195c-.306.676-.924 2.041-.97 2.123c-.06.106-.219.247-.336.347c-.094.077-.353.236-.47.312a1.27 1.27 0 0 0 .646-.259a.6.6 0 0 1-.123.2c-.071.07-.383.342-.53.465c.13-.041.453-.153.724-.259c.335-.13.706-.494.941-.611c.224-.118.53-.56.741-.818c.165-.206.294-.618.341-.794c.012.135.041.47.041.759c.006.282-.111.958-.17 1.258c.094-.306.306-.97.382-1.176a4 4 0 0 0 .153-.741l.083-.647l.188-.783l.159-.523c.058.517.458 1.541 1.564 1.541c1.753 0 1.788-.835 1.788-1.23c0-.311-.205-.664-.311-.8a7 7 0 0 1-.47-.94a11 11 0 0 1-.4-1.236l-.524-1.706c-.083-.165-.294-.517-.465-.63c-.218-.14-.341-.129-.506-.152a1.8 1.8 0 0 0-.541.047a.23.23 0 0 1-.118 0c-.47-1.082-1.73-2.041-2.3-2.388l-1.017-.47c-.471-.171-1.636-.519-2.518-.519c-1.1 0-1.93.342-2.253.506q-.626.368-1.194.824a2 2 0 0 0-.394.282c-.012 0-.3.165-.412.259c-.1.094-.365.312-.482.435a13 13 0 0 0-.606.724a16 16 0 0 0-.518.906a6 6 0 0 0-.182.576l-.459.453a18 18 0 0 0-.612.624c-.059.07-.117.294-.147.353a1.4 1.4 0 0 0-.094.353q.002.174.135.411q.207.303.494.53c.06.282.206.882.271 1.082"/><path fill="url(#tokenBrandedImgnai0)" d="M12.16 12.077c-.136.047-.148-.071-.165-.089a1.65 1.65 0 0 0-1.106-.282c-.135.059-.23.282-.453.282c-.224 0-.065-.047-.059-.206c.012-.158.447-.5.606-.558c.165-.06 1.012.047 1.106.111c.094.06.253.336.3.53s-.094.165-.23.211"/><path fill="#9D7691" d="M6.193 12.865c-.459 0-.676-.095-.73-.142c.142.147.642.441 1.49.441c.852 0 1.429-.77 1.61-1.152l.119-.312l.188-.341l.83-1.494l.129-.265l.317-.947l.106-.57l-.035-.754l-.03.03c-.94.494-1.464 1.629-1.611 2.13c-.224.576-.753 1.852-1.06 2.364c-.37.635-.746 1.012-1.323 1.012M18.8 11c0-.577-.33-1.153-.5-1.365c.059.141.17.659.17 1.6a13 13 0 0 1-.393 2.7c.011.094.058.377.188.712c.165.418.43.63.882.818c.365.147 1.018.058 1.294 0c-1.982.129-1.64-3.742-1.64-4.471z"/><path fill="#FCF3EC" d="M13.04 8.777a1.18 1.18 0 0 0-.717-.195a2 2 0 0 1 .376-.411c.206-.153.483-.33.53-.294c.029.029.306.14.447.194zm.248-.171l-.083.153c.147-.059.259-.288.294-.4a1 1 0 0 0-.212.247m.264 0a.6.6 0 0 1 .153-.159c.059-.03.082-.023.082 0c0 .024-.158.118-.235.153zm1.153-.165l-.047.353c.035.006.118.03.135.018c.024-.018.106-.2.147-.294zm.165 1.1l.23.188c.105-.223.335-.723.358-.882l-.253-.194c-.082.265-.27.812-.335.888m1.212.541a2 2 0 0 1-.906-.282l.358-.888l.33.206l-.153.682l.253-.682l.276.106zm.258-.588l.195.083l-.195.382v-.47z"/><path fill="#411812" d="M10.753 12.117c0 .494.247.76.506.806a.73.73 0 0 0 .794-.717c0-.165-.03-.436-.253-.53a3.4 3.4 0 0 0-.8-.141c-.082.082-.247.318-.247.576z"/><path fill="#FFFBFA" d="M10.982 11.553c0 .153.206.265.306.306c.218 0 .17-.118.312-.27c.147-.154-.618-.236-.618-.036"/><path fill="#72393F" d="M11.011 11.865c-.07.058-.117.305-.117.347a.4.4 0 0 0 0 .176c.023.07.194.17.453.277c.258.105.235 0 .353-.106c.106-.106.135-.171.1-.33s-.089-.188-.124-.235c-.035-.059-.247-.13-.312-.082c-.059.04.094.152.188.294c.095.147-.011.14-.035.159c-.023.017-.1.1-.153.105c-.047.012-.082-.058-.117-.117c-.042-.059-.095-.094-.112-.141s.023-.348 0-.412c-.024-.059-.053.006-.118.064z"/><path fill="#FFE6E3" d="M11.512 11.912c0 .123.1.13.153.117c.04-.005.117-.04.117-.117c0-.094-.094-.159-.13-.159c-.034 0-.14 0-.14.159"/><path fill="url(#tokenBrandedImgnai1)" d="M10.83 12.5c.035.235.293.364.423.4c.265 0 .512-.13.512-.312c0-.176-.1-.247-.236-.27c-.13-.024-.311.129-.335.023c-.018-.106-.147-.206-.235-.206s-.17.07-.13.365"/><path fill="#411812" d="M14.429 13.482c-.253.436-.2.771-.03.924c.506.294.865-.141.948-.283c.082-.14.194-.388.076-.57a2.5 2.5 0 0 0-.524-.459a.95.95 0 0 0-.47.388"/><path fill="#FFFBFA" d="M14.882 13.094c-.082.135.012.323.065.4c.164.094.194-.035.37-.1c.183-.07-.34-.465-.435-.294z"/><path fill="#72393F" d="M14.74 13.382c-.082.024-.235.212-.252.247a.5.5 0 0 0-.094.16c-.018.064.058.223.2.429c.135.2.176.1.311.058c.13-.047.189-.088.242-.235c.058-.159.023-.206.029-.264c0-.06-.123-.218-.194-.206c-.065.011-.012.176-.012.34s-.076.118-.1.118c-.03.006-.13.047-.17.03c-.036-.012-.03-.094-.03-.159s-.018-.118-.006-.165c.006-.053.188-.288.2-.353c.012-.064-.041-.017-.118 0z"/><path fill="#FFE6E3" d="M15.088 13.635c-.059.106.012.16.059.171c.03.012.112.012.147-.053c.047-.082.006-.177-.018-.194c-.023-.018-.111-.059-.188.076"/><path fill="url(#tokenBrandedImgnai2)" d="M14.294 13.853c-.1.217.035.441.112.53c.194.111.441.105.53-.054c.094-.152.058-.253-.03-.329s-.306-.024-.265-.123c.041-.1-.011-.248-.076-.283c-.059-.035-.159-.018-.277.259z"/><path fill="#000" fill-rule="evenodd" d="m11.864 15.047l.018-.024v-.006l.03-.047l.005-.03v-.017a.04.04 0 0 0-.023-.017c-.012-.006-.03 0-.041 0l-.118.047l-.035.011l-.077.042a.1.1 0 0 0-.023.023a.06.06 0 0 0-.018.035l.018.036l.03.023l.028.03l.03.058l.006.006l.088.136a.3.3 0 0 0 .147.1a.27.27 0 0 0 .176-.018q.016.034.06.059c.04.035.117.059.247.07a.38.38 0 0 0 .2.236c.117.053.294.03.511-.13l-.035-.053c-.212.16-.353.171-.453.13a.32.32 0 0 1-.176-.218v-.023h-.024c-.135-.006-.206-.036-.235-.06c-.041-.023-.036-.04-.036-.046l.012-.036h-.035a.4.4 0 0 1-.194-.059a.2.2 0 0 1-.077-.1a.27.27 0 0 1 0-.152v-.006zm.16.353a.4.4 0 0 1-.107-.047a.26.26 0 0 1-.1-.13a.33.33 0 0 1-.006-.2v-.011c.012 0 .012-.012.018-.018l.006-.006l.012-.018h-.018l-.07.036l-.036.011l-.076.047l.017.012l.042.047l.035.059v.006l.088.123q.046.06.118.083a.1.1 0 0 0 .076 0z" clip-rule="evenodd"/><path fill="#B18697" d="m13.06 10.094l.634-.535l.312-.777l.277-.564l-.312.43l-.459.8l-.341.487l-.118.16zm3.54.436l-.159.406l-.117.335l.117 1.106l.16-1.012l.029-.906z"/><path fill="#000" d="M14.848 6.13c-2.4-.53-4.253.335-4.877.829l-.035-.047c.635-.506 2.506-1.377 4.924-.841z"/><path fill="#000" fill-rule="evenodd" d="M12.135 5.559A4.7 4.7 0 0 0 8.94 6.794c.129-.035.276-.059.458-.041c.224.03.495.117.824.33l.012.005v.018c.006.176.03.6.03.929a4.3 4.3 0 0 1-.213 1q-.14.497-.376.959c-.177.294-.724 1.294-.982 1.753c-.168.485-.49.903-.918 1.188c-.012.212-.03.512-.035.8a6 6 0 0 0 0 .747c.017.177.058.424.14.659c.071.206.177.406.348.53h-.006c-.047-.118-.106-.265-.153-.412a2 2 0 0 1-.1-.395a4.4 4.4 0 0 1 0-.706l.059-.305a9 9 0 0 0 0 1q.075.329.188.647v-.588l.059-.289v.76c.035.146.135.493.318.734c.094.118.235.247.388.353c.112.089.223.16.306.212a4 4 0 0 1-.112-.317a1.7 1.7 0 0 1-.082-.483l.082-1.918l.035-.229c0 .224.053.806.106 1.159c.035.265.088.53.165.723c-.036-.453-.06-1.311.1-2.076c.188-.935.482-1.765.764-2.453h.006l.124-.294a13.2 13.2 0 0 1 1.73-2.741c.47-.66 1.352-1.118 1.776-1.33a4 4 0 0 0 .188-.106l-1.188.812c-.236.141-.483.377-.735.665a13.2 13.2 0 0 0-1.812 2.947a6.3 6.3 0 0 0 1.394-.93l.206-.182l.317-.27A5.6 5.6 0 0 1 10.7 10.97l.018.018c.135.012.353.024.576.012h.006l-.023-.253l.365.217q.194-.026.352-.088c.242-.088.524-.294.783-.541s.5-.541.665-.824l.088-.152c.3-.53.617-1.083.982-1.53l.047.041a6.46 6.46 0 0 0-1.147 4.06l.118-.46l.076-.217a3.4 3.4 0 0 0 0 .853c.041.23.136.47.3.664l.012-.664l.053.253v.258c.17-.011.518-.1.823-.335l.118-.106l.177-.153l-.1.124l-.16.176l-.252.224c.362-.117.67-.36.87-.683l-.047.16a1.5 1.5 0 0 1-.176.5a3.7 3.7 0 0 0 1.382-2.16v-.017q.115-.491.118-.994a4.04 4.04 0 0 0-1-2.806l.023-.024a8.06 8.06 0 0 0-3.611-.964m-2.494 8q.222-1.088.635-2.118c0 .182.076.541.117.706c-.023-.283.118-.841.83-.841a1.71 1.71 0 0 1 1.53.9c-.077-.348-.195-.53-.236-.57l.335.323a1.83 1.83 0 0 0-1.106-.953c.095-.018.189-.042.265-.07c.253-.101.541-.307.806-.554c.307-.29.565-.628.765-1c.188-.323.376-.659.588-.97a6.43 6.43 0 0 0-.794 3.711l.059.006l.076-.33q0 .15.035.318c.053.26.16.53.371.753l.053.047v-.235c.118-.012.323-.059.547-.165l-.118.1h.089c.176-.011.553-.111.823-.453l-.059.16a.7.7 0 0 1-.2.305l-.111.118c.547-.2 1.323-.994 1.664-2.136c-.023.618-.13 1.412-.176 1.765l-.012 1.389a.6.6 0 0 1-.324-.295c-.094-.223-.523-.982-1.647-.364c.265-.024.871-.03 1.124.14c.323.207.53.912 0 1.324c.07 0 .247-.035.4-.164c.153-.13.453-.171.588-.177c-.123-.094-.37-.294-.376-.376c0-.071.135-.083.235-.077v.206h.288l-.059.177q-.608 1.398-1.235 2.788l.118-.441l.57-1.9c.136-.118.294-.224.483-.318l-.024-.059c-.194.1-.353.206-.494.33h-.012v.011a3 3 0 0 0-.412.447c-.117.16-.229.33-.352.518v.006c-.13.188-.265.394-.424.612c-.123.17-.33.3-.588.4a4 4 0 0 1-.883.223c-.629.094-1.3.1-1.735.07a5.9 5.9 0 0 1-2.106-2.687c.012-.2.041-.406.083-.606zm6.058 1.494c.1-.136.2-.253.318-.365l-.106.347v-.006l-.418.388l-.135.13c.118-.177.224-.341.341-.494m-.164.411l.347-.323l-.33 1.082a2.9 2.9 0 0 1-2.053 1.8c.1-.047.206-.106.306-.176c.218-.153.46-.477.565-.747l-.088.088a3.35 3.35 0 0 1-1.206.747a1.3 1.3 0 0 1-.624.07c.136-.105.347-.37.46-.823l.017-.082l-.665.47l-.018-.011l-.264-.153l-.865-.577l.241-.135q.133.107.283.206l.005.006h.006a8.5 8.5 0 0 0 1.76-.071c.317-.047.628-.118.893-.224c.26-.105.477-.24.612-.423c.118-.153.212-.306.306-.447c.012 0 .076-.059.165-.141zM11.84 17.43l.376.182l.341.2a.7.7 0 0 1-.194.177l-.059.035l.065.024c.118.035.312.053.577-.012l-.006.012c.064.041.176.111.276.188c.106.082.206.165.259.241c.135.194.176.418.176.689c0 .129-.047.352-.1.588a7 7 0 0 1-.164.588l-.06.165c-.07.176-.134.335-.117.676h.059c-.018-.33.041-.482.112-.647l.059-.176a6 6 0 0 0 .17-.589c.059-.235.1-.47.1-.605c0-.277-.041-.512-.182-.724a1.3 1.3 0 0 0-.353-.306h.047c.53-.053 1.647-.435 2.217-1.524l-.158.589h.006l-.042.076c-.088.16-.294.324-.47.447q-.17.11-.353.194h-.006l-.118.07c.177.007.465-.058.606-.123a.7.7 0 0 0 .159-.094c-.07.088-.159.177-.253.26c-.153.134-.412.305-.506.37h.118a4.6 4.6 0 0 0 1.559-.76a3.47 3.47 0 0 0 1.24-1.628l.036.876l.03-.382v-.694l-.06-.006a3.34 3.34 0 0 1-1.282 1.788a4.7 4.7 0 0 1-1.37.706l.27-.224q.223-.184.377-.43l.059-.117c-.059.059-.27.212-.406.283a1.4 1.4 0 0 1-.294.1l.223-.142c.188-.117.394-.294.494-.464c.083-.13.33-.683.612-1.312l.8-1.812q.288-.948.535-1.906c.1-.376.277-1.07.324-1.859a4.3 4.3 0 0 0-.67-2.77l-.189-.141a4.87 4.87 0 0 1 .8 2.906a9.4 9.4 0 0 1-.323 1.846l-.036.136a31 31 0 0 1-.423 1.53h-.247v-1.536c.059-.412.188-1.376.182-2.018c.077-.311.118-.647.118-1.017c0-1.43-.6-2.412-.953-2.789l.176.106c.253.17.66.483 1.06.883c.4.394.787.882 1 1.382l.017.024l.023-.006c.141-.041.37-.083.6-.07c.236.005.46.058.6.205c.294.306.483.806.541 1.024c.124.44.4 1.435.53 1.87c.176.541.441 1.135.63 1.424c.188.288.387.611.387.94c0 .165-.011.454-.217.707s-.618.47-1.435.47c-.647 0-1.053-.259-1.295-.588a1.7 1.7 0 0 1-.317-.976l-.06-.012c-.058.13-.2.518-.317 1.023c-.064.294-.1.577-.135.841l-.012.06c-.035.288-.07.546-.14.764c-.119.359-.2.665-.236.77l-.136.512v.012h-.005v-.012l.2-.588l.235-.676c.07-.224.106-.488.147-.771l.006-.065c.035-.264.07-.547.135-.835a6 6 0 0 1 .265-.882c.023.258.117.588.323.87c.253.341.677.612 1.342.612c.823 0 1.258-.218 1.482-.488c.218-.27.235-.588.235-.753c0-.341-.217-.682-.406-.97a6.5 6.5 0 0 1-.611-1.412a62 62 0 0 1-.53-1.865a2.7 2.7 0 0 0-.565-1.047c-.158-.159-.4-.218-.64-.224a2.1 2.1 0 0 0-.589.06a4.8 4.8 0 0 0-1.012-1.377a7.3 7.3 0 0 0-1.07-.883c-.589-.376-2.194-1.13-3.9-1.13a4.7 4.7 0 0 0-3.306 1.33c-.124.036-.247.13-.37.253a4.4 4.4 0 0 0-1.6 1.5a5.3 5.3 0 0 0-.695 1.477l-.006.006a3 3 0 0 1-.253.27c-.253.2-.53.47-.747.724a1.6 1.6 0 0 0-.206.394c-.047.141-.076.276-.094.353v.011c.018.265.23.671.653.977h-.006c.094.73.37 1.359.53 1.647l-.118.047c-.23.118-.441.312-.718.635c-.453.518-.882 1.353-1.04 1.7l.058.024c.153-.353.577-1.177 1.024-1.682c.282-.324.482-.512.705-.624l.118-.053l.012.018l.059-.036h-.006l.165-.04a3 3 0 0 1 .452-.03c.542 0 .871.259.977.394c.023.118.059.247.1.377c.088.24.23.482.453.617l.082.047l-.035-.082l-.041-.1v-.036c.053.171.14.377.264.542c.1.13.248.259.4.37c.148.112.295.206.389.26l.082.04l-.041-.082a5 5 0 0 1-.141-.394a1.6 1.6 0 0 1-.083-.47l.06-1.348l.046.377c.047.353.236.917.353 1.117l-.047-.235l-.012-.018v-.006a9 9 0 0 1-.035-.835l.012.012l.23-.182a6.2 6.2 0 0 0 1.511 1.864a.94.94 0 0 0-.335.288c-.136.183-.018.383.058.46a.55.55 0 0 1-.029-.295l.883.353zm1.317.688c.153-.058.43-.188.612-.317c.177-.124.341-.283.441-.47c-.348.312-.76.546-1.206.687zm-.835-.511l.27.159c.083-.124.177-.295.236-.524zm-4.618-2.93a7 7 0 0 1-.03-.94c.013-.272.024-.56.042-.766a1.8 1.8 0 0 1-.435.177l.023.447l.318 1.018zm-.159-.117l-.235-.724l.035.588l-.058.006c.1.035.188.082.258.124zm-.258-.13l-.065-1.276a2.6 2.6 0 0 1-1.065-.06l.006.1l.394.883l.177.259h.011c.212 0 .395.035.542.094m-.624-.094l-.159-.235l-.311-.7l.094.964q.165-.027.376-.029m-.435.041a27 27 0 0 0-.136-1.3a2.2 2.2 0 0 1-.529-.253a4.9 4.9 0 0 0 .53 1.588zm3.5.33l-.212.17c0-.188.012-.382.024-.588c.047.118.105.259.188.412zM6.875 13.13a2.5 2.5 0 0 1-.724-.1c.024-.023-.023-.03-.04-.012c-.795-.253-1.166-.87-1.195-1.205a3 3 0 0 1 .094-.342c.047-.14.118-.276.194-.376q.335-.393.736-.718c.058-.047.147-.147.264-.276v-.006h.012v-.012c.118-.13.247-.294.388-.459c.294-.353.612-.759.818-1.017l.565-.836a5 5 0 0 1 .506-.647l.035-.017v-.012a1 1 0 0 1 .312-.218l.011.006l.006-.012h.006c.147-.04.318-.076.53-.059c.211.024.464.112.782.312c.012.177.03.594.03.912c0 .2-.089.588-.207.982c-.117.389-.264.765-.376.947c-.177.295-.73 1.295-.982 1.76a2.3 2.3 0 0 1-.895 1.164h-.029v.012c-.235.14-.518.23-.841.23m1.453-5.912c-.573.35-1.06.824-1.424 1.389a5.4 5.4 0 0 0-.647 1.34l.3-.364q.414-.5.818-1.012l.565-.835c.117-.176.247-.359.388-.518" clip-rule="evenodd"/><path fill="#F4BEC6" d="M11.853 13.376a4.8 4.8 0 0 1-1.482-.811c-.588.458-.259 1.264.2 1.429s1.282-.588 1.282-.618"/><path fill="#F4BFC7" d="M14.582 14.57c-.176-.058-.53.095-.618.142c-.294.43.16.788.5.994c.342.206.677-.035.765-.206c.07-.141.03-.412 0-.53c-.159-.117-.506-.352-.647-.4"/><path fill="#FADCD1" d="M13.094 13.77c-.07.154.13.412.182.495c.653-.042.412-.236.306-.412c-.106-.165-.423-.235-.488-.082"/><path fill="#000" d="M12.74 11.365a2.8 2.8 0 0 0-.776-.448c.088.012.306.047.441.118c.142.065.283.247.336.33m.712-.906l-.553-.177l.018-.053l.553.177l-.018.058zm2.97 1.894l-.487-.477l.04-.047l.49.482zm-7.576 4.04c-.011.136.106.59.683 1.342zm2.271 1.83l-.87.088h.84l.036-.088z"/><path fill="#262837" d="M8.03 15.906c-.071-.165-.548-1.036-.777-1.453a2.1 2.1 0 0 1 1.047.9c.153.259.359.794.482 1.117l-.005-.088h.058c.024.37.1 1.177.253 1.765l.012.041q.115.437.347.824c.03.04.059.064.077.076l.023.012l.047-.03v.06a.4.4 0 0 0 .059.229c.059.07.147.135.294.13c.159-.007.318-.119.465-.254c.141-.141.264-.306.33-.412c.105-.164.264-.44.393-.747c.136-.3.247-.623.26-.876h.058a2.8 2.8 0 0 1-.259.9a6 6 0 0 1-.4.753q-.175.28-.423.5l.011.006c-.27.27-.664.576-.823.7l-.03.017l-.017-.03c-.23-.517-.406-1.417-.47-1.846c-.13-.482-.207-1.1-.242-1.53l-.035.06l-.118-.248l-.082.041l.323 1.571l.024.13l.03.152l.105.53c.088.388.218.847.388 1.165v.011c0 .082-.017.265-.088.412a.4.4 0 0 0-.03.2c0 .059.018.106.03.141l.183.047a.32.32 0 0 0 .076-.294a.8.8 0 0 1 0-.4v-.012h.012c.117-.094.464-.37.859-.74a4.5 4.5 0 0 0 .841-1.276l.01-.008l.013-.002q.006 0 .012.003c.012.006.018.023.012.04c-.13.295-.46.919-.847 1.283a10 10 0 0 1-.86.736a.8.8 0 0 0 0 .353a.38.38 0 0 1-.1.37l-.01.012l-.248-.059v-.018a.6.6 0 0 1-.041-.17a.5.5 0 0 1 .035-.235c.059-.13.083-.295.088-.371a5 5 0 0 1-.394-1.177a12 12 0 0 1-.135-.688l-.024-.123l-.323-1.565c-.03.006-.059.006-.07-.012a6 6 0 0 1-.224-.3c-.177.588-.47 1.183-.783 1.706q-.452.755-1.023 1.424l-.047-.042c.253-.282.647-.8 1.018-1.411a7.4 7.4 0 0 0 .794-1.741a2 2 0 0 1-.142-.26m3.847 4.87c.058-.176.305-.982.417-1.37l-.176.953l.853-.994c-.306.435-.93 1.323-.977 1.411c-.041.094-.059.365-.059.494l-.14-.04c0-.077.011-.277.082-.454m-2.324-.788c-.159-.382-.294-.953-.382-1.394c.088.223.164.365.223.447a.3.3 0 0 0 .136.118a.44.44 0 0 0 .076.235c.065.088.176.159.353.153a.5.5 0 0 0 .194-.053c-.218.2-.47.388-.6.494M7.606 16.57a1.55 1.55 0 0 1-1.141 1.071c.147.188.488.541.694.441c.2-.1.376-1.023.447-1.512"/><path fill="#8F8F8F" fill-rule="evenodd" d="M12 22a10 10 0 1 0 0-20a10 10 0 0 0 0 20m0-1.177a8.824 8.824 0 1 0 0-17.648a8.824 8.824 0 0 0 0 17.649" clip-rule="evenodd"/><path fill="#000" d="M21.118 12A9.118 9.118 0 1 1 2.88 12a9.118 9.118 0 0 1 18.237 0M12 20.824a8.824 8.824 0 1 0 0-17.649a8.824 8.824 0 0 0 0 17.649"/><defs><linearGradient id="tokenBrandedImgnai0" x1="3.936" x2="19.575" y1="17.477" y2="17.837" gradientUnits="userSpaceOnUse"><stop stop-color="#FADDD9"/><stop offset="1" stop-color="#C487A8"/></linearGradient><linearGradient id="tokenBrandedImgnai1" x1="12.053" x2="12.053" y1="2" y2="22" gradientUnits="userSpaceOnUse"><stop stop-color="#CB8D76"/><stop offset="1" stop-color="#EADAB8"/></linearGradient><linearGradient id="tokenBrandedImgnai2" x1="17.265" x2="9.403" y1="5.523" y2="21.904" gradientUnits="userSpaceOnUse"><stop stop-color="#CB8D76"/><stop offset="1" stop-color="#EADAB8"/></linearGradient></defs></g></svg>