<svg xmlns="http://www.w3.org/2000/svg" xmlns:xlink="http://www.w3.org/1999/xlink" width="24" height="24" viewBox="0 0 24 24"><mask id="tokenBrandedIotex0" width="20" height="19" x="2" y="3" maskUnits="userSpaceOnUse" style="mask-type:luminance"><path fill="#fff" d="M2 3h20v18.919H2z"/></mask><g fill="none"><g mask="url(#tokenBrandedIotex0)"><mask id="tokenBrandedIotex1" width="5" height="5" x="14" y="3" maskUnits="userSpaceOnUse" style="mask-type:alpha"><path fill="#fff" d="M14.102 3v4.553L18.05 5.28z"/></mask><g mask="url(#tokenBrandedIotex1)"><path fill="url(#tokenBrandedIotexp)" d="M1.696 1.939h21.52v21.21H1.696z"/></g><mask id="tokenBrandedIotex2" width="4" height="5" x="18" y="5" maskUnits="userSpaceOnUse" style="mask-type:alpha"><path fill="#fff" d="M18.05 5.28v4.552L22 7.553z" opacity=".9"/></mask><g mask="url(#tokenBrandedIotex2)"><path fill="url(#tokenBrandedIotexq)" d="M1.696 1.939h21.52v21.21H1.696z"/></g><mask id="tokenBrandedIotex3" width="5" height="6" x="14" y="7" maskUnits="userSpaceOnUse" style="mask-type:alpha"><path fill="#fff" d="M14.102 7.553v4.552l3.949-2.273z" opacity=".8"/></mask><g mask="url(#tokenBrandedIotex3)"><path fill="url(#tokenBrandedIotexr)" d="M1.696 1.939h21.52v21.21H1.696z"/></g><mask id="tokenBrandedIotex4" width="4" height="6" x="18" y="9" maskUnits="userSpaceOnUse" style="mask-type:alpha"><path fill="#fff" d="M18.05 9.832v4.553l3.95-2.28z" opacity=".8"/></mask><g mask="url(#tokenBrandedIotex4)"><path fill="url(#tokenBrandedIotexs)" d="M1.696 1.939h21.52v21.21H1.696z"/></g><mask id="tokenBrandedIotex5" width="5" height="5" x="14" y="12" maskUnits="userSpaceOnUse" style="mask-type:alpha"><path fill="#fff" d="M14.102 12.106v4.553l3.949-2.273z" opacity=".8"/></mask><g mask="url(#tokenBrandedIotex5)"><path fill="url(#tokenBrandedIotext)" d="M1.696 1.939h21.52v21.21H1.696z"/></g><mask id="tokenBrandedIotex6" width="4" height="5" x="18" y="14" maskUnits="userSpaceOnUse" style="mask-type:alpha"><path fill="#fff" d="M18.05 14.385v4.553l3.95-2.28z"/></mask><g mask="url(#tokenBrandedIotex6)"><path fill="url(#tokenBrandedIotexu)" d="M1.696 1.94h21.52v21.21H1.696z"/></g><mask id="tokenBrandedIotex7" width="5" height="5" x="3" y="7" maskUnits="userSpaceOnUse" style="mask-type:alpha"><path fill="#fff" d="M3.894 7.4v4.552l3.949-2.28z" opacity=".4"/></mask><g mask="url(#tokenBrandedIotex7)"><path fill="url(#tokenBrandedIotexv)" d="M1.696 1.939h21.52v21.21H1.696z"/></g><mask id="tokenBrandedIotex8" width="5" height="5" x="8" y="9" maskUnits="userSpaceOnUse" style="mask-type:alpha"><path fill="#fff" d="M8.877 9.092v4.553l3.943-2.274z" opacity=".2"/></mask><g mask="url(#tokenBrandedIotex8)"><path fill="url(#tokenBrandedIotexw)" d="M1.696 1.939h21.52v21.21H1.696z"/></g><mask id="tokenBrandedIotex9" width="5" height="6" x="5" y="11" maskUnits="userSpaceOnUse" style="mask-type:alpha"><path fill="#fff" d="M5.949 11.972v4.552l3.949-2.28z" opacity=".3"/></mask><g mask="url(#tokenBrandedIotex9)"><path fill="url(#tokenBrandedIotexx)" d="M1.696 1.939h21.52v21.21H1.696z"/></g><mask id="tokenBrandedIotexa" width="5" height="5" x="8" y="15" maskUnits="userSpaceOnUse" style="mask-type:alpha"><path fill="#fff" d="M8.552 15.407v4.553l3.942-2.28z" opacity=".9"/></mask><g mask="url(#tokenBrandedIotexa)"><path fill="url(#tokenBrandedIotexy)" d="M1.696 1.939h21.52v21.21H1.696z"/></g><mask id="tokenBrandedIotexb" width="5" height="5" x="14" y="17" maskUnits="userSpaceOnUse" style="mask-type:alpha"><path fill="#fff" d="M14.07 17.367v4.552l3.942-2.28z" opacity=".7"/></mask><g mask="url(#tokenBrandedIotexb)"><path fill="url(#tokenBrandedIotexz)" d="M1.696 1.939h21.52v21.21H1.696z"/></g><mask id="tokenBrandedIotexc" width="5" height="6" x="9" y="6" maskUnits="userSpaceOnUse" style="mask-type:alpha"><path fill="#fff" d="M9.534 6.844v4.553l3.942-2.273z" opacity=".9"/></mask><g mask="url(#tokenBrandedIotexc)"><path fill="url(#tokenBrandedIotex10)" d="M1.696 1.939h21.52v21.21H1.696z"/></g><mask id="tokenBrandedIotexd" width="5" height="5" x="10" y="3" maskUnits="userSpaceOnUse" style="mask-type:alpha"><path fill="#fff" d="M14.102 3v4.553l-3.95-2.273z" opacity=".8"/></mask><g mask="url(#tokenBrandedIotexd)"><path fill="url(#tokenBrandedIotex11)" d="M1.696 1.939h21.52v21.21H1.696z"/></g><mask id="tokenBrandedIotexe" width="5" height="6" x="5" y="4" maskUnits="userSpaceOnUse" style="mask-type:alpha"><path fill="#fff" d="M9.535 4.935v4.551l-3.95-2.278z" opacity=".6"/></mask><g mask="url(#tokenBrandedIotexe)"><path fill="url(#tokenBrandedIotex12)" d="M1.696 1.939h21.52v21.21H1.696z"/></g><mask id="tokenBrandedIotexf" width="5" height="5" x="9" y="7" maskUnits="userSpaceOnUse" style="mask-type:alpha"><path fill="#fff" d="M13.483 7.189v4.552l-3.95-2.28z" opacity=".6"/></mask><g mask="url(#tokenBrandedIotexf)"><path fill="url(#tokenBrandedIotex13)" d="M1.696 1.939h21.52v21.21H1.696z"/></g><mask id="tokenBrandedIotexg" width="5" height="5" x="4" y="9" maskUnits="userSpaceOnUse" style="mask-type:alpha"><path fill="#fff" d="M8.858 9.092v4.553l-3.95-2.274z" opacity=".95"/></mask><g mask="url(#tokenBrandedIotexg)"><path fill="url(#tokenBrandedIotex14)" d="M1.696 1.939h21.52v21.21H1.696z"/></g><mask id="tokenBrandedIotexh" width="5" height="5" x="10" y="12" maskUnits="userSpaceOnUse" style="mask-type:alpha"><path fill="#fff" d="M14.101 12.106v4.553l-3.942-2.273z" opacity=".6"/></mask><g mask="url(#tokenBrandedIotexh)"><path fill="url(#tokenBrandedIotex15)" d="M1.696 1.939h21.52v21.21H1.696z"/></g><mask id="tokenBrandedIotexi" width="4" height="5" x="2" y="13" maskUnits="userSpaceOnUse" style="mask-type:alpha"><path fill="#fff" d="M5.949 13.166v4.553L2 15.439z" opacity=".55"/></mask><g mask="url(#tokenBrandedIotexi)"><path fill="url(#tokenBrandedIotex16)" d="M1.696 1.939h21.52v21.21H1.696z"/></g><mask id="tokenBrandedIotexj" width="4" height="6" x="18" y="7" maskUnits="userSpaceOnUse" style="mask-type:alpha"><path fill="#fff" d="M22 7.553v4.552l-3.95-2.273z"/></mask><g mask="url(#tokenBrandedIotexj)"><path fill="url(#tokenBrandedIotex17)" d="M1.696 1.939h21.52v21.21H1.696z"/></g><mask id="tokenBrandedIotexk" width="5" height="6" x="14" y="9" maskUnits="userSpaceOnUse" style="mask-type:alpha"><path fill="#fff" d="M18.05 9.832v4.553l-3.949-2.28z" opacity=".95"/></mask><g mask="url(#tokenBrandedIotexk)"><path fill="url(#tokenBrandedIotex18)" d="M1.696 1.939h21.52v21.21H1.696z"/></g><mask id="tokenBrandedIotexl" width="4" height="5" x="18" y="12" maskUnits="userSpaceOnUse" style="mask-type:alpha"><path fill="#fff" d="M22 12.106v4.553l-3.95-2.273z" opacity=".9"/></mask><g mask="url(#tokenBrandedIotexl)"><path fill="url(#tokenBrandedIotex19)" d="M1.696 1.939h21.52v21.21H1.696z"/></g><mask id="tokenBrandedIotexm" width="5" height="5" x="14" y="14" maskUnits="userSpaceOnUse" style="mask-type:alpha"><path fill="#fff" d="M18.05 14.385v4.553l-3.949-2.28z" opacity=".7"/></mask><g mask="url(#tokenBrandedIotexm)"><path fill="url(#tokenBrandedIotex1a)" d="M1.696 1.94h21.52v21.21H1.696z"/></g><mask id="tokenBrandedIotexn" width="5" height="5" x="9" y="16" maskUnits="userSpaceOnUse" style="mask-type:alpha"><path fill="#fff" d="M13.228 16.282v4.553l-3.95-2.274z" opacity=".4"/></mask><g mask="url(#tokenBrandedIotexn)"><path fill="url(#tokenBrandedIotex1b)" d="M1.696 1.939h21.52v21.21H1.696z"/></g><mask id="tokenBrandedIotexo" width="5" height="5" x="14" y="5" maskUnits="userSpaceOnUse" style="mask-type:alpha"><path fill="#fff" d="M18.05 5.28v4.553l-3.949-2.28z"/></mask><g mask="url(#tokenBrandedIotexo)"><path fill="url(#tokenBrandedIotex1c)" d="M1.696 1.939h21.52v21.21H1.696z"/></g></g><defs><linearGradient id="tokenBrandedIotexp" x1="4.503" x2="29.781" y1="14.079" y2="18.393" gradientUnits="userSpaceOnUse"><stop offset=".07" stop-color="#77FE9E"/><stop offset=".369" stop-color="#72A7FF"/><stop offset="1" stop-color="#EC02D5"/></linearGradient><linearGradient id="tokenBrandedIotexq" x1="4.503" x2="29.781" y1="14.079" y2="18.393" gradientUnits="userSpaceOnUse"><stop offset=".07" stop-color="#77FE9E"/><stop offset=".369" stop-color="#72A7FF"/><stop offset="1" stop-color="#EC02D5"/></linearGradient><linearGradient id="tokenBrandedIotexr" x1="4.503" x2="29.781" y1="14.079" y2="18.393" gradientUnits="userSpaceOnUse"><stop offset=".07" stop-color="#77FE9E"/><stop offset=".369" stop-color="#72A7FF"/><stop offset="1" stop-color="#EC02D5"/></linearGradient><linearGradient id="tokenBrandedIotexs" x1="4.503" x2="29.781" y1="14.079" y2="18.393" gradientUnits="userSpaceOnUse"><stop offset=".07" stop-color="#77FE9E"/><stop offset=".369" stop-color="#72A7FF"/><stop offset="1" stop-color="#EC02D5"/></linearGradient><linearGradient id="tokenBrandedIotext" x1="4.503" x2="29.781" y1="14.079" y2="18.393" gradientUnits="userSpaceOnUse"><stop offset=".07" stop-color="#77FE9E"/><stop offset=".369" stop-color="#72A7FF"/><stop offset="1" stop-color="#EC02D5"/></linearGradient><linearGradient id="tokenBrandedIotexu" x1="4.503" x2="29.781" y1="14.079" y2="18.393" gradientUnits="userSpaceOnUse"><stop offset=".07" stop-color="#77FE9E"/><stop offset=".369" stop-color="#72A7FF"/><stop offset="1" stop-color="#EC02D5"/></linearGradient><linearGradient id="tokenBrandedIotexv" x1="4.503" x2="29.781" y1="14.079" y2="18.393" gradientUnits="userSpaceOnUse"><stop offset=".07" stop-color="#77FE9E"/><stop offset=".369" stop-color="#72A7FF"/><stop offset="1" stop-color="#EC02D5"/></linearGradient><linearGradient id="tokenBrandedIotexw" x1="4.503" x2="29.781" y1="14.079" y2="18.393" gradientUnits="userSpaceOnUse"><stop offset=".07" stop-color="#77FE9E"/><stop offset=".369" stop-color="#72A7FF"/><stop offset="1" stop-color="#EC02D5"/></linearGradient><linearGradient id="tokenBrandedIotexx" x1="4.503" x2="29.781" y1="14.079" y2="18.393" gradientUnits="userSpaceOnUse"><stop offset=".07" stop-color="#77FE9E"/><stop offset=".369" stop-color="#72A7FF"/><stop offset="1" stop-color="#EC02D5"/></linearGradient><linearGradient id="tokenBrandedIotexy" x1="4.503" x2="29.781" y1="14.079" y2="18.393" gradientUnits="userSpaceOnUse"><stop offset=".07" stop-color="#77FE9E"/><stop offset=".369" stop-color="#72A7FF"/><stop offset="1" stop-color="#EC02D5"/></linearGradient><linearGradient id="tokenBrandedIotexz" x1="4.503" x2="29.781" y1="14.079" y2="18.393" gradientUnits="userSpaceOnUse"><stop offset=".07" stop-color="#77FE9E"/><stop offset=".369" stop-color="#72A7FF"/><stop offset="1" stop-color="#EC02D5"/></linearGradient><linearGradient id="tokenBrandedIotex10" x1="4.503" x2="29.781" y1="14.079" y2="18.393" gradientUnits="userSpaceOnUse"><stop offset=".07" stop-color="#77FE9E"/><stop offset=".369" stop-color="#72A7FF"/><stop offset="1" stop-color="#EC02D5"/></linearGradient><linearGradient id="tokenBrandedIotex11" x1="4.503" x2="29.781" y1="14.079" y2="18.393" gradientUnits="userSpaceOnUse"><stop offset=".07" stop-color="#77FE9E"/><stop offset=".369" stop-color="#72A7FF"/><stop offset="1" stop-color="#EC02D5"/></linearGradient><linearGradient id="tokenBrandedIotex12" x1="4.503" x2="29.781" y1="14.079" y2="18.393" gradientUnits="userSpaceOnUse"><stop offset=".07" stop-color="#77FE9E"/><stop offset=".369" stop-color="#72A7FF"/><stop offset="1" stop-color="#EC02D5"/></linearGradient><linearGradient id="tokenBrandedIotex13" x1="4.503" x2="29.781" y1="14.079" y2="18.393" gradientUnits="userSpaceOnUse"><stop offset=".07" stop-color="#77FE9E"/><stop offset=".369" stop-color="#72A7FF"/><stop offset="1" stop-color="#EC02D5"/></linearGradient><linearGradient id="tokenBrandedIotex14" x1="4.503" x2="29.781" y1="14.079" y2="18.393" gradientUnits="userSpaceOnUse"><stop offset=".07" stop-color="#77FE9E"/><stop offset=".369" stop-color="#72A7FF"/><stop offset="1" stop-color="#EC02D5"/></linearGradient><linearGradient id="tokenBrandedIotex15" x1="4.503" x2="29.781" y1="14.079" y2="18.393" gradientUnits="userSpaceOnUse"><stop offset=".07" stop-color="#77FE9E"/><stop offset=".369" stop-color="#72A7FF"/><stop offset="1" stop-color="#EC02D5"/></linearGradient><linearGradient id="tokenBrandedIotex16" x1="4.503" x2="29.781" y1="14.079" y2="18.393" gradientUnits="userSpaceOnUse"><stop offset=".07" stop-color="#77FE9E"/><stop offset=".369" stop-color="#72A7FF"/><stop offset="1" stop-color="#EC02D5"/></linearGradient><linearGradient id="tokenBrandedIotex17" x1="4.503" x2="29.781" y1="14.079" y2="18.393" gradientUnits="userSpaceOnUse"><stop offset=".07" stop-color="#77FE9E"/><stop offset=".369" stop-color="#72A7FF"/><stop offset="1" stop-color="#EC02D5"/></linearGradient><linearGradient id="tokenBrandedIotex18" x1="4.503" x2="29.781" y1="14.079" y2="18.393" gradientUnits="userSpaceOnUse"><stop offset=".07" stop-color="#77FE9E"/><stop offset=".369" stop-color="#72A7FF"/><stop offset="1" stop-color="#EC02D5"/></linearGradient><linearGradient id="tokenBrandedIotex19" x1="4.503" x2="29.781" y1="14.079" y2="18.393" gradientUnits="userSpaceOnUse"><stop offset=".07" stop-color="#77FE9E"/><stop offset=".369" stop-color="#72A7FF"/><stop offset="1" stop-color="#EC02D5"/></linearGradient><linearGradient id="tokenBrandedIotex1a" x1="4.503" x2="29.781" y1="14.079" y2="18.393" gradientUnits="userSpaceOnUse"><stop offset=".07" stop-color="#77FE9E"/><stop offset=".369" stop-color="#72A7FF"/><stop offset="1" stop-color="#EC02D5"/></linearGradient><linearGradient id="tokenBrandedIotex1b" x1="4.503" x2="29.781" y1="14.079" y2="18.393" gradientUnits="userSpaceOnUse"><stop offset=".07" stop-color="#77FE9E"/><stop offset=".369" stop-color="#72A7FF"/><stop offset="1" stop-color="#EC02D5"/></linearGradient><linearGradient id="tokenBrandedIotex1c" x1="4.503" x2="29.781" y1="14.079" y2="18.393" gradientUnits="userSpaceOnUse"><stop offset=".07" stop-color="#77FE9E"/><stop offset=".369" stop-color="#72A7FF"/><stop offset="1" stop-color="#EC02D5"/></linearGradient></defs></g></svg>