<svg xmlns="http://www.w3.org/2000/svg" xmlns:xlink="http://www.w3.org/1999/xlink" width="24" height="24" viewBox="0 0 24 24"><g fill="none"><path fill="url(#tokenBrandedIpad0)" d="m2 12l1.579-1.579L5.158 12l-1.58 1.579z"/><path fill="url(#tokenBrandedIpad1)" d="m4.105 14.105l1.58-1.579l3.683 3.685L7.79 17.79z"/><path fill="url(#tokenBrandedIpad2)" d="m8.316 14.105l1.579-1.579l1.579 1.58l-1.58 1.578z"/><path fill="url(#tokenBrandedIpad3)" d="m10.421 12l1.58-1.579L13.578 12L12 13.579z"/><path fill="url(#tokenBrandedIpad4)" d="m12.527 9.895l1.579-1.58l1.579 1.58l-1.58 1.579z"/><path fill="#F3BA2F" d="m14.632 7.79l1.579-1.58l3.684 3.685l-1.579 1.579z"/><path fill="url(#tokenBrandedIpad5)" d="m12.527 14.105l1.579-1.579l1.579 1.58l-1.58 1.578z"/><path fill="url(#tokenBrandedIpad6)" d="m14.632 16.21l3.684-3.684l1.58 1.58l-3.685 3.684z"/><path fill="#F3BA2F" d="m18.842 12l1.579-1.579L22 12l-1.579 1.579z"/><path fill="url(#tokenBrandedIpad7)" d="M4.105 9.895L7.79 6.21l1.58 1.578l-3.685 3.685z"/><path fill="url(#tokenBrandedIpad8)" d="m8.316 9.895l1.579-1.58l1.579 1.58l-1.58 1.579z"/><defs><linearGradient id="tokenBrandedIpad0" x1="9.105" x2="10.694" y1="10.684" y2="9.1" gradientUnits="userSpaceOnUse"><stop stop-color="#4086FF"/><stop offset="1" stop-color="#48D5FF"/></linearGradient><linearGradient id="tokenBrandedIpad1" x1="9" x2="12.023" y1="13.737" y2="8.516" gradientUnits="userSpaceOnUse"><stop stop-color="#4086FF"/><stop offset="1" stop-color="#48D5FF"/></linearGradient><linearGradient id="tokenBrandedIpad2" x1="9.105" x2="10.694" y1="10.684" y2="9.1" gradientUnits="userSpaceOnUse"><stop stop-color="#4086FF"/><stop offset="1" stop-color="#48D5FF"/></linearGradient><linearGradient id="tokenBrandedIpad3" x1="7" x2="12.021" y1="14.895" y2="6.223" gradientUnits="userSpaceOnUse"><stop stop-color="#E8BB41"/><stop offset="1" stop-color="#F6DA5B"/></linearGradient><linearGradient id="tokenBrandedIpad4" x1="7" x2="12.021" y1="14.895" y2="6.223" gradientUnits="userSpaceOnUse"><stop stop-color="#E8BB41"/><stop offset="1" stop-color="#F6DA5B"/></linearGradient><linearGradient id="tokenBrandedIpad5" x1="7" x2="12.021" y1="14.895" y2="6.223" gradientUnits="userSpaceOnUse"><stop stop-color="#E8BB41"/><stop offset="1" stop-color="#F6DA5B"/></linearGradient><linearGradient id="tokenBrandedIpad6" x1="5" x2="12.029" y1="16.053" y2="3.912" gradientUnits="userSpaceOnUse"><stop stop-color="#E8BB41"/><stop offset="1" stop-color="#F6DA5B"/></linearGradient><linearGradient id="tokenBrandedIpad7" x1="5" x2="12.12" y1="16.053" y2="3.86" gradientUnits="userSpaceOnUse"><stop stop-color="#4086FF"/><stop offset="1" stop-color="#48D5FF"/></linearGradient><linearGradient id="tokenBrandedIpad8" x1="9.105" x2="10.694" y1="10.684" y2="9.1" gradientUnits="userSpaceOnUse"><stop stop-color="#4086FF"/><stop offset="1" stop-color="#48D5FF"/></linearGradient></defs></g></svg>