<svg xmlns="http://www.w3.org/2000/svg" xmlns:xlink="http://www.w3.org/1999/xlink" width="24" height="24" viewBox="0 0 24 24"><g fill="none"><path fill="#388CE0" d="M9.873 2.119a10.3 10.3 0 0 0-6.22 4.331A9.6 9.6 0 0 0 2.21 9.9a12 12 0 0 0-.15 3.42a9.96 9.96 0 0 0 3.538 6.456c1.044.881 2.219 1.538 2.219 1.232c0-.044-.125-.194-.275-.35c-1.025-1-1.563-2.77-1.35-4.407c.287-2.188 1.168-3.644 2.887-4.775c.325-.22.625-.394.657-.394c.125 0 .05-.25-.263-.863a5.9 5.9 0 0 1-.813-3a6.5 6.5 0 0 1 1.7-4.375c.3-.294.338-.356.338-.594c0-.237-.012-.25-.162-.25c-.1 0-.394.056-.663.119"/><path fill="#094B89" d="M15.973 2.756c0 .05.094.22.207.375c.529.75.827 1.64.856 2.557c.056 1.15-.25 2.15-.813 2.656c-.418.375-.775.388-1.293.056c-.363-.237-.407-.412-.163-.725a3.72 3.72 0 0 0 .669-2.218c0-.882-.169-1.376-.625-1.8a1.64 1.64 0 0 0-1.656-.438c-.676.156-1.313.894-1.657 1.925c-.175.531-.325 1.444-.325 1.975c.006 1 .3 2.175.731 2.894c.325.506.726.96 1.188 1.344c.125.1.244.2.244.219c0 .025-.125.087-.282.15c-1.15.431-2.312 1.731-2.825 3.162c-.31.8-.449 1.656-.406 2.513c.044 1.05.231 1.544.819 2.188c.462.512 1.337.75 2.388.644c1.212-.125 2.143-.563 2.937-1.4c.35-.375.419-.42.488-.338c.062.075.05.131-.075.35c-.794 1.369-2.27 2.538-3.638 2.881c-.3.075-.425.138-.425.2c0 .22 1.862-.08 2.994-.487a10.31 10.31 0 0 0 6.219-6.363c.394-1.2.463-1.675.469-3.17c0-1.162-.013-1.437-.131-2.024a10.22 10.22 0 0 0-5.182-6.957q-.713-.403-.713-.169"/></g></svg>