<svg xmlns="http://www.w3.org/2000/svg" xmlns:xlink="http://www.w3.org/1999/xlink" width="24" height="24" viewBox="0 0 24 24"><path fill="#F6931E" fill-rule="evenodd" d="M8.574 2.603a10 10 0 0 1 1.762-.465v.512h.848v-.617q.832-.067 1.663.003v.614h.848v-.507a10 10 0 0 1 1.774.475l-.21.436l.764.368l.228-.476c.534.251 1.042.55 1.52.887l-.322.37l.64.556l.354-.407q.689.582 1.265 1.278l-.391.251l.457.714l.448-.288q.504.726.875 1.536l-.418.139l.267.804l.471-.156q.302.841.451 1.747h-.458v.86l.56-.013q.067.87-.016 1.738l-.004-.02h-.56v.86l.45-.01a10 10 0 0 1-.478 1.73l-.381-.193l-.388.768l.435.208a10 10 0 0 1-.891 1.51l-.293-.297l-.612.603l.377.367q-.572.671-1.253 1.233l-.2-.362l-.753.414l.269.464a10 10 0 0 1-1.455.833l-.098-.374l-.832.218l.138.483a10 10 0 0 1-1.785.47v-.45h-.812v.55q-.846.068-1.693-.004v-.537h-.812v.434a10 10 0 0 1-1.715-.45l.142-.495l-.832-.22l-.102.39a10 10 0 0 1-1.601-.928l.252-.276l-.557-.508l-.295.323a10 10 0 0 1-1.248-1.236l.327-.238l-.498-.686l-.35.254a10 10 0 0 1-.899-1.537l.393-.116l-.242-.812l-.48.143a10 10 0 0 1-.463-1.706l.488-.024l-.041-.847l-.56.028a10 10 0 0 1-.008-1.75l.512.049l.079-.844l-.485-.046q.151-.895.453-1.728l.433.194l.345-.774l-.456-.204a10 10 0 0 1 .867-1.515l.408.32l.523-.666l-.419-.329q.567-.684 1.245-1.259l.308.388l.663-.527l-.302-.38a10 10 0 0 1 1.583-.921l.224.49l.771-.353zM12 20.235a8.235 8.235 0 1 0 0-16.47a8.235 8.235 0 0 0 0 16.47M19.647 12a7.646 7.646 0 1 1-15.294 0a7.647 7.647 0 1 1 15.294 0M12 7.883a1.176 1.176 0 1 0 0-2.353a1.176 1.176 0 0 0 0 2.353m-2.941 2.94l4.118-2.27v3.535l4.117-2.081v.785l-4.117 2.088v2.604c0 1.99-1.188 3.222-2.622 3.222c-1.296 0-2.534-.674-2.534-2.305c0-1.49 1.67-2.715 3.39-3.521v-2.518L9.06 11.557zm2.353 4.332v-1.39c-.96.567-1.613 1.5-1.726 2.098c-.112.6-.02 1.554.768 1.418c.79-.136.958-1.417.958-2.126" clip-rule="evenodd"/></svg>