<svg xmlns="http://www.w3.org/2000/svg" xmlns:xlink="http://www.w3.org/1999/xlink" width="24" height="24" viewBox="0 0 24 24"><g fill="none"><path fill="url(#tokenBrandedJewel0)" d="M6.706 7.294h10v9.412h-10z"/><path fill="#B5F759" d="m7.882 13.765l-3.53 1.47V8.47l3.53 2.06z"/><path fill="#2AB059" d="m16.412 10.235l3.529-1.47v6.764l-3.53-2.059z"/><path fill="#26A379" d="m16.412 13.765l3.535 1.453l-4.782 4.788l-1.041-3.953z"/><path fill="#E5FF9E" d="M7.882 10.235L4.347 8.782l4.782-4.788l1.041 3.953z"/><path fill="#60E840" d="M9.977 16.412L8.44 19.918l-4.676-4.889l3.976-.953zm4.035-8.636l1.53-3.5l4.693 4.489l-3.988 1.353z"/><path fill="#B5F759" d="m10.235 7.588l-1.47-3.53h6.764l-2.059 3.53z"/><path fill="#2AB059" d="m13.765 16.118l1.47 3.53H8.47l2.06-3.53z"/><path fill="#F0F3FA" fill-rule="evenodd" d="m14.353 7.294l2.353 2.353l3.27-1.36l.283.648l-3.553 1.594v2.941l3.541 1.536l-.282.647l-3.259-1.3l-2.353 2.353l1.47 3.529h-.882l-1.47-3.53H10.53l-1.471 3.53h-.882l1.47-3.53l-2.353-2.352l-3.1 1.311l-.282-.647l3.382-1.547v-2.94l-3.388-1.6l.282-.647l3.106 1.365l2.353-2.353l-1.294-3.247l.641-.283l1.536 3.53h2.94l1.648-3.5l.647.282zM8.177 9.94l2.647 6.176h-.588l-2.06-2.058zm5 6.176L9.647 8.47l.588-.294l3.53 7.647zm.588-7.94l2.059 1.764v4.118l-1.16 1.176l-3.252-7.059z" clip-rule="evenodd"/><path fill="url(#tokenBrandedJewel1)" fill-rule="evenodd" d="M16.118 2L22 7.882v8.236L16.118 22H7.882L2 16.118V7.882L7.882 2zM14.94 4.353l1.177 1.176l-.294 2.76l2.647-.407l1.176 1.177v5.882l-1.176 1.177l-2.648-.294l.295 2.647l-1.177 1.176H9.06l-1.177-1.176l.294-2.648l-3.235.295l-.588-.647V9.058L5.53 7.881l2.647.294l-.294-2.647L9.06 4.353z" clip-rule="evenodd"/><path fill="url(#tokenBrandedJewel2)" fill-rule="evenodd" d="m15.823 2.588l5.589 5.588v7.647l-5.589 5.589H8.176l-5.588-5.589V8.176l5.588-5.588zm-.294 1.176l1.177 1.177l-.294 2.647l2.647-.294l1.176 1.176v7.06l-1.176 1.176l-2.647-.294l.294 2.646l-1.177 1.177H8.47l-1.176-1.177l.294-2.646l-2.647.294l-1.176-1.177V8.47L4.94 7.294l2.647.294l-.294-2.647L8.47 3.764z" clip-rule="evenodd"/><path fill="#FFD464" fill-rule="evenodd" d="m15.63 3.53l1.323 1.323l-.277 2.47l2.47-.276l1.325 1.323v7.26l-1.324 1.323l-2.47-.277l.276 2.47l-1.324 1.324H8.37l-1.323-1.323l.276-2.47l-2.47.276l-1.324-1.324V8.37l1.324-1.323l2.47.276l-.276-2.47L8.37 3.529zM7.587 7.587L4.94 7.293L3.765 8.47v7.06l1.176 1.176l2.647-.294l-.294 2.646l1.176 1.177h7.06l1.176-1.177l-.294-2.646l2.647.294l1.176-1.177V8.47L19.06 7.294l-2.647.294l.294-2.647l-1.177-1.177H8.47L7.294 4.941zm8.135-4.765H8.276L2.823 8.276v7.447l5.453 5.453h7.447l5.453-5.453V8.276zm5.689 5.353l-5.589-5.588H8.176L2.588 8.176v7.647l5.588 5.589h7.647l5.589-5.589z" clip-rule="evenodd"/><defs><linearGradient id="tokenBrandedJewel0" x1="7.294" x2="19.995" y1="3.875" y2="20.013" gradientUnits="userSpaceOnUse"><stop stop-color="#DCFA9C"/><stop offset=".45" stop-color="#81F045"/><stop offset=".95" stop-color="#3FB66B"/></linearGradient><linearGradient id="tokenBrandedJewel1" x1="4.941" x2="19.353" y1="4.353" y2="19.353" gradientUnits="userSpaceOnUse"><stop stop-color="#F3DF6D"/><stop offset="1" stop-color="#C4732D"/></linearGradient><linearGradient id="tokenBrandedJewel2" x1="4.5" x2="18.875" y1="5.125" y2="19.5" gradientUnits="userSpaceOnUse"><stop stop-color="#FCFA95"/><stop offset="1" stop-color="#F09A4F"/></linearGradient></defs></g></svg>