<svg xmlns="http://www.w3.org/2000/svg" xmlns:xlink="http://www.w3.org/1999/xlink" width="24" height="24" viewBox="0 0 24 24"><g fill="none"><path fill="url(#tokenBrandedJuld0)" fill-rule="evenodd" d="M15.934 6.861c-.067-.789-.245-2.377-.39-2.394c-.144-.022-.982 1.639-1.388 2.472l-.039.089c-.272.033-.839.211-.972.694c-.128.478.339.74.589.811c.55.312 1.433 1.278.572 2.64c.056-.295-.089-.906-1.133-1.017c.016.238-.011.805-.256 1.155l-.128.172c-.372.511-1.055 1.45-1 2.195c.078.833.895 1.238 1.467.572a.46.46 0 0 1-.122.355l-.078.095c-.167.239-.506.7-1.605.644a.8.8 0 0 0-.073.317c.006.139.117.578.378.967c.261.383.456 1.01.433 1.277c.85 0 2.778-.205 3.728-1.017a3.51 3.51 0 0 1-.628-3.438c-.489-.111-1.477-.578-1.505-1.544c.016-.045.066-.123.133-.134c.061-.011.095.083.106.134c.005.35.289 1.11 1.36 1.36c1.078.25 1.75.278 1.945.267c.589.078 1.844.372 2.155.978c.311.6.9.4 1.156.228l-.572-.5c-.04-.056-.067-.156.089-.111c.155.044.622.272.833.383c.517-.4 1.4-1.411.822-2.267l-2.76-2.305A1.31 1.31 0 0 1 17.872 8.7c-.29.15-.967.095-1.4-1.333c-.062-.067-.306-.2-.762-.222a3.8 3.8 0 0 0-1.083.105c.178-.583.589-1.75.767-1.766c.178-.011.222.11.25.222l.022.06c.039.079-.067.034-.122 0c-.011-.049-.056-.143-.095-.132q-.281.623-.489 1.277c.32-.06.648-.077.973-.05m4.955 5.528c-.095.083-.267.328-.194.61c.088.368.383.406.655.151c-.233.016-.65-.111-.461-.761" clip-rule="evenodd"/><path fill="url(#tokenBrandedJuld1)" d="M3.001 18.983c-.444.022-.844-.367-.989-.567c-.1.661.434 1.1.711 1.233c.267.04.878.1 1.211.067c.417-.055.512-.372.5-.5c0-.128-.1-.31-.26-.328c-.162-.016-.6.073-1.167.095z"/><path fill="url(#tokenBrandedJuld2)" d="M4.446 18.466c.145-.333.606-.45.811-.466c-.639 1.1.111 1.65.572 1.783c-.216.278-.455.528-.91.683c-.456.15-1.312-.183-1.584-.222c-.222-.028-.505.167-.622.272c.139-.505.472-.633.622-.633c.122.033.445.078.739 0c.361-.095.455-.444.5-.578a3.3 3.3 0 0 0-.128-.839"/><path fill="url(#tokenBrandedJuld3)" d="M5.462 18.044c.078.067.728.206 1.039.267c-.483.25-.733.933-.794 1.25c-.856-.356-.523-1.161-.245-1.517"/><path fill="url(#tokenBrandedJuld4)" d="m13.99 6.834l.633-1.345C10.18 4.24 9.58 7.745 9.83 9.65c.223.683.695 2.15.767 2.539c.078.389-.211 1.25-.361 1.627c1.589-1.683 1.355-3.205 1.372-3.471c.022-.267-.072-1.162-.117-1.323a2.4 2.4 0 0 1 0-.622c.09-.8.767-1.522.945-1.56c.15-.034.116.066.083.121c-.289.261-.839.99-.739 1.8c.122 1.022 1.861 1.334 2.156 1.434c.239.083.433.355.5.477a1.67 1.67 0 0 0-.873-2.055c-.177-.011-.544-.189-.605-.806c-.056-.61.667-.905 1.033-.972z"/><path fill="url(#tokenBrandedJuld5)" d="m16.167 6.94l-.11-1.012a2.42 2.42 0 0 1 1.616.433l-1.017.778c-.139-.111-.383-.183-.483-.2z"/><path fill="#924BC5" d="M19.923 5.667a1.7 1.7 0 0 1 0-.761L21.25 3.81c.116 0 .11.073.088.112z"/><path fill="url(#tokenBrandedJuld6)" d="m18.906 5.65l.85-.65c-.06.294-.06.596 0 .89l-.767.932c-.167-.333-.122-.922-.083-1.166z"/><path fill="#CD4BDF" d="M18.04 8c-.212-.266-.184-1.116-.145-1.51l.81-.656c-.042.4.015.805.168 1.177z"/><path fill="url(#tokenBrandedJuld7)" d="M15.685 9.083c.5.045 1.233.467 1.533.673c.45.35.422 1.094-.095.894c-.522-.2-1.4-1.561-1.438-1.567"/><path fill="#4848BA" d="M17.723 9.694c-.25-.083-.778.112-1 .223c.167.277.461.422.556.472c.089.039.444-.017.616-.05z"/><path fill="#ECE2FF" d="M17.012 9.928c0 .083.1.244.455.222c-.427.156-.483-.083-.455-.222"/><path fill="url(#tokenBrandedJuld8)" d="M13.89 12.389c.266.639 1 .972 1.4 1.06a3.58 3.58 0 0 0 .31 3.012c-1.777-.75-1.905-2.889-1.71-4.078z"/><path fill="#CC51E8" d="M17.59 8.611c-.7-.389-.9-.96-.911-1.194l1.016-.817c-.06.34-.094 1.122.25 1.545l-.355.46z"/><path fill="url(#tokenBrandedJuld9)" d="m18.028 8.411l.489-.6c.105.24.089 1.117.089 1.372c0 .2.139.428.205.517a1.166 1.166 0 0 1-.777-1.289z"/><path fill="url(#tokenBrandedJulda)" d="M10.14 11.222c-.766-1.816-.666-3.11-.516-3.527a3.34 3.34 0 0 0-2.073 3.033c-.016.36.023 1.266.312 2c.288.733.077 1.5-.067 1.794c-.272.361-.983.833-1.667-.15a2.13 2.13 0 0 1 0-1.644c-.444.389-1.305 1.372-1.166 2.166c.178 1 .355 1.933 2.066 2.028c1.367.078 1.945-1.084 2.056-1.672v-1.695c-.09-.666-.011-2.066 1.055-2.333"/><path fill="url(#tokenBrandedJuldb)" d="M9.334 12.539a1.26 1.26 0 0 1 .912-1.1c.455 1.733-.395 2.627-.445 2.794c-.044.139.045.172.089.172l.383-.338c.056.766.695 1.144 1.011 1.238c-.255.611.34 1.445.65 2.14c.245.555-.105 1.049-.31 1.221a1.66 1.66 0 0 0-.5-1.394c-.029-.056-.234-.289-.85-.739a2.55 2.55 0 0 1-.934-1.5c-.022-.544-.056-1.8 0-2.5z"/><path fill="url(#tokenBrandedJuldc)" d="M10.434 13.889c1.528-1.456 1.5-3.761 1.289-4.728a2.05 2.05 0 0 0 1.3.961c.039.356-.24 1.167-.522 1.478c-.234.256-.578.922-.723 1.222c-.55 1.489.378 1.95.912 2c-1.534.85-2.145-.261-2.256-.928z"/><path fill="url(#tokenBrandedJuldd)" d="M8.768 16.31c.206-.227.39-.738.461-.96c.111.533.545.994.745 1.155c-.011 0-.056.111-.09.511c-.05.5.373.778.334 1.5c-.039.711-.383 1.184-.9 1.317c-.416.111-.939-.044-1.144-.133c1.439.005.878-1.745.733-2.256a4.5 4.5 0 0 1-.139-1.133"/><path fill="#4C6EB5" d="M11.229 17.689c-.045-.195-.761-.778-1.111-1.04c-.234.617.26 1.223.266 1.834c0 .489-.305 1.022-.46 1.222c1.11-.528 1.36-1.777 1.305-2.016"/><path fill="url(#tokenBrandedJulde)" d="M8.601 16.794v-.305a2.37 2.37 0 0 1-3.233-.078c-1.2.278-1.195 1.4-1.045 1.922c.89-1 1.29-.178 2.545-.167c1.005.006 1.577-.91 1.733-1.372"/><path fill="#497DB7" d="m8.917 18l-.283-.945a2 2 0 0 1-1.889 1.29c-.677.221-.844.988-.844 1.344a1.75 1.75 0 0 1 1.322-.556c.239.017.844 0 1.311-.222c.467-.206.45-.695.389-.911z"/><path fill="url(#tokenBrandedJuldf)" d="M8.462 19.522c.305-.039.46-.539.5-.784c-.24.362-.745.512-.972.54h-.956c-.344 0-.855.294-1.028.522a9 9 0 0 1-.627.666c-.028.111.077.328.127.422a1.37 1.37 0 0 1 1.167-.877h1.789a1.22 1.22 0 0 1-.806-.44c.14 0 .495-.005.806-.05"/><path fill="url(#tokenBrandedJuldg)" d="M4.118 17.766c-.717.073-1.078-.522-1.166-.822c-.195 1.511.76 1.8 1.26 1.75c-.1-.128-.105-.666-.094-.928"/><path fill="url(#tokenBrandedJuldh)" d="M5.89 3.112a1.667 1.667 0 0 0 1.667 1.666v4.778C8.023 8.345 9.184 7.728 9.779 7.5V4.778h2.489c.922 0 1.805.172 2.61.489c.193-.417.467-.79.806-1.1c.322.117.45 1.167.478 1.683a2.6 2.6 0 0 1 1.722.44l1.089-.823a8.08 8.08 0 0 0-5.705-2.355zM19.79 6.4l-1.028 1.29c.055.094.094.999.089 1.332a1.1 1.1 0 0 0 .2.617l2.394 2.05v-.278a8.38 8.38 0 0 0-1.656-5.01m1.072 8.71l-.117.029c-1.1.228-1.372-.29-1.5-.545l-.056-.094c-.077-.111-.366-.25-.572-.328a6.98 6.98 0 0 1-6.35 3.939h-.16c-.223.683-.473.839-.623.828c.078-.39.067-.54 0-.656c-.444 1.444-2.166 1.983-2.594 2.028l-.044.022h4.422c3.444 0 6.388-2.161 7.594-5.222M7.556 14.53c.344-.445.439-.978.366-1.25l-.366-1.19v2.445z"/><defs><linearGradient id="tokenBrandedJuld0" x1="24.5" x2="3.616" y1="14.091" y2="19.982" gradientUnits="userSpaceOnUse"><stop offset=".32" stop-color="#C051E1"/><stop offset="1" stop-color="#4B47C0"/></linearGradient><linearGradient id="tokenBrandedJuld1" x1="25.05" x2="1.995" y1="16.309" y2="15.867" gradientUnits="userSpaceOnUse"><stop stop-color="#497DB7"/><stop offset="1" stop-color="#67D1A5"/></linearGradient><linearGradient id="tokenBrandedJuld2" x1="12.019" x2="12.019" y1="3.112" y2="20.889" gradientUnits="userSpaceOnUse"><stop offset=".14" stop-color="#4E97AE"/><stop offset="1" stop-color="#67D1A5"/></linearGradient><linearGradient id="tokenBrandedJuld3" x1="26.139" x2="2.557" y1="8.06" y2="14.22" gradientUnits="userSpaceOnUse"><stop stop-color="#497DB7"/><stop offset="1" stop-color="#67D1A5"/></linearGradient><linearGradient id="tokenBrandedJuld4" x1="19.546" x2="2.222" y1="9.209" y2="11.514" gradientUnits="userSpaceOnUse"><stop stop-color="#4375B1"/><stop offset="1" stop-color="#6AE3A3"/></linearGradient><linearGradient id="tokenBrandedJuld5" x1="19.32" x2="2" y1="3.138" y2="3.138" gradientUnits="userSpaceOnUse"><stop stop-color="#589CB6"/><stop offset="1" stop-color="#6BC7B2"/></linearGradient><linearGradient id="tokenBrandedJuld6" x1="27.643" x2="15.604" y1="8.315" y2="32.071" gradientUnits="userSpaceOnUse"><stop stop-color="#924BC5"/><stop offset="1" stop-color="#CD4BDF"/></linearGradient><linearGradient id="tokenBrandedJuld7" x1="2.001" x2="22.671" y1="3.111" y2="25.696" gradientUnits="userSpaceOnUse"><stop stop-color="#6051BE"/><stop offset="1" stop-color="#A754D8"/></linearGradient><linearGradient id="tokenBrandedJuld8" x1="24.999" x2="11.026" y1="13.284" y2="20.544" gradientUnits="userSpaceOnUse"><stop stop-color="#AF53DB"/><stop offset="1" stop-color="#4E46BD"/></linearGradient><linearGradient id="tokenBrandedJuld9" x1="22" x2="1.947" y1="12" y2="12" gradientUnits="userSpaceOnUse"><stop stop-color="#4C80B8"/><stop offset="1" stop-color="#6DCBB2"/></linearGradient><linearGradient id="tokenBrandedJulda" x1="22.001" x2="5.884" y1="17.511" y2="18.831" gradientUnits="userSpaceOnUse"><stop stop-color="#4375B1"/><stop offset="1" stop-color="#67D1A5"/></linearGradient><linearGradient id="tokenBrandedJuldb" x1="2.02" x2="3.165" y1="3.112" y2="21.442" gradientUnits="userSpaceOnUse"><stop offset=".14" stop-color="#67D1A5"/><stop offset="1" stop-color="#446CB8"/></linearGradient><linearGradient id="tokenBrandedJuldc" x1="22.015" x2="4.283" y1="14.231" y2="26.202" gradientUnits="userSpaceOnUse"><stop stop-color="#4775B3"/><stop offset=".88" stop-color="#6DDFA4"/></linearGradient><linearGradient id="tokenBrandedJuldd" x1="5.149" x2="8.481" y1="7.895" y2="23.739" gradientUnits="userSpaceOnUse"><stop stop-color="#67DAA4"/><stop offset="1" stop-color="#4B8AAE"/></linearGradient><linearGradient id="tokenBrandedJulde" x1="3.673" x2="20.902" y1="12" y2="12.664" gradientUnits="userSpaceOnUse"><stop offset=".15" stop-color="#60D4AB"/><stop offset="1" stop-color="#4883AF"/></linearGradient><linearGradient id="tokenBrandedJuldf" x1="21.969" x2="5.88" y1="5.133" y2="11.082" gradientUnits="userSpaceOnUse"><stop stop-color="#66BAAB"/><stop offset="1" stop-color="#68DDA4"/></linearGradient><linearGradient id="tokenBrandedJuldg" x1="39.27" x2="2.436" y1="15.153" y2="20.648" gradientUnits="userSpaceOnUse"><stop stop-color="#4B8DAE"/><stop offset="1" stop-color="#66D0A5"/></linearGradient><linearGradient id="tokenBrandedJuldh" x1="21.817" x2="7.451" y1="13.978" y2="13.978" gradientUnits="userSpaceOnUse"><stop stop-color="#4D45C2"/><stop offset="1" stop-color="#4B46C2"/></linearGradient></defs></g></svg>