<svg xmlns="http://www.w3.org/2000/svg" xmlns:xlink="http://www.w3.org/1999/xlink" width="24" height="24" viewBox="0 0 24 24"><g fill="none"><path fill="#7E4778" d="m10.611 9.656l-2.778-6.7l4.445 2.255z"/><path fill="#9B1B2E" d="M10.611 9.656v-3.89l1.667-.555z"/><path fill="#D3302D" d="M10.611 5.767L7.833 2.955l4.445 2.256z"/><path fill="#9B2026" d="M22 8.545h-4.722l2.222 3.889z"/><path fill="#BD282E" d="m17.278 8.545l-4.167 1.666l6.39 2.223z"/><path fill="#DD2A2D" d="M15.008 4.656L13.11 10.21l4.167-1.666z"/><path fill="#BC2328" d="m19.778 3.822l-2.5 4.723H22z"/><path fill="#EE4642" d="m15.008 4.656l2.27 3.889l2.5-4.723z"/><path fill="#D5302D" d="m13.39 20.49l-3.056-8.612l7.5 2.778z"/><path fill="#9D1C21" d="M13.389 20.49v-5.834h4.444z"/><path fill="#BD2C33" d="m13.39 14.656l-3.056-2.778l7.5 2.778z"/><path fill="#797CB3" d="M5.333 3.545L2 7.71l3.333 7.778l5.834 5.556z"/><path fill="#9A1C31" d="M8.111 11.878L5.333 15.49l5.834 5.556z"/><path fill="#7F4778" d="M5.333 9.934L2 7.71l3.333 7.778l2.778-3.61z"/></g></svg>