<svg xmlns="http://www.w3.org/2000/svg" xmlns:xlink="http://www.w3.org/1999/xlink" width="24" height="24" viewBox="0 0 24 24"><g fill="none"><path fill="#E6403B" d="M6.375 5.75a1.875 1.875 0 1 0 0-3.75a1.875 1.875 0 0 0 0 3.75"/><path fill="#FCB82B" d="M6.375 11.375a1.875 1.875 0 1 0 0-3.75a1.875 1.875 0 0 0 0 3.75"/><path fill="#40D27E" d="M6.375 17a1.875 1.875 0 1 0 0-3.75a1.875 1.875 0 0 0 0 3.75"/><path fill="#2BA5F8" d="M6.375 22a1.875 1.875 0 1 0 0-3.75a1.875 1.875 0 0 0 0 3.75"/><path fill="#414141" d="M15.75 7.625h3.75L13.25 14.5L19.5 22h-3.75L9.5 14.5z"/></g></svg>