<svg xmlns="http://www.w3.org/2000/svg" xmlns:xlink="http://www.w3.org/1999/xlink" width="24" height="24" viewBox="0 0 24 24"><g fill="none"><path fill="url(#tokenBrandedKap0)" d="M7.265 9.059L3.176 22l6.589-3.588l.358.2l-1.194-4l-.588 1.806l-.67-.294l.888-2.736zm9.376 0L20.823 22l-6.747-3.588l-.364.2l1.223-4l.6 1.806l.688-.294l-.911-2.736l1.335-4.33z"/><path fill="url(#tokenBrandedKap1)" d="m12 2l-2.942 9.106L12 20.824l2.941-9.718zm-2.065 9.124l2.064-6.412l2.065 6.412l-2.065 6.794z"/><defs><linearGradient id="tokenBrandedKap0" x1="12" x2="12" y1="2" y2="22" gradientUnits="userSpaceOnUse"><stop stop-color="#DBA646"/><stop offset="1" stop-color="#D38B3E"/></linearGradient><linearGradient id="tokenBrandedKap1" x1="12" x2="12" y1="2" y2="20.824" gradientUnits="userSpaceOnUse"><stop stop-color="#DCAC4A"/><stop offset="1" stop-color="#CC7229"/></linearGradient></defs></g></svg>