<svg xmlns="http://www.w3.org/2000/svg" xmlns:xlink="http://www.w3.org/1999/xlink" width="24" height="24" viewBox="0 0 24 24"><g fill="none"><path fill="#9C2131" d="m2.01 7.668l3.463 7.68L11.225 21L5.524 3.472z"/><path fill="#576B98" d="m2.01 7.668l6.035 3.564l-2.521-7.76z"/><path fill="#D71B2A" d="m7.65 3l1.995 6.144l1.246.442l1.468-4.608z"/><path fill="#C41A24" d="m21.99 8.793l-2.764 3.815l-6.34-2.28l1.803-5.49l4.902-1.235z"/><path fill="#C71C26" d="m17.919 14.414l-4.507 6.144l-2.906-8.804z"/><path fill="#A71927" d="m10.203 5.58l.688 4.005l1.469-4.607z"/><path fill="#61395F" d="m9.615 9.154l1.276.442l-.689-4.006L7.65 3z"/><path fill="#614268" d="m8.036 11.232l-2.573 4.116L2 7.668z"/><path fill="#DA1728" d="m14.68 4.847l2.298 3.514l-4.091 1.977z"/><path fill="#E42735" d="m19.58 3.612l-2.602 4.749l-2.299-3.514z"/><path fill="#A61D1E" d="M19.225 12.608L16.987 8.35L22 8.793z"/><path fill="#D71B2A" d="m13.575 15.157l-.162 5.401l-2.907-8.804z"/><path fill="#A51C1C" d="m13.413 20.558l.162-5.401l4.344-.743z"/><path fill="#721919" d="m11.246 21l-5.782-5.652l4.152.773z"/></g></svg>