<svg xmlns="http://www.w3.org/2000/svg" xmlns:xlink="http://www.w3.org/1999/xlink" width="24" height="24" viewBox="0 0 24 24"><g fill="none"><path fill="#242A34" d="M16.433 19.788c.184.378.778.256.945-.083c.305 0 .266-.044.466-.155c.4-.234.717.144.778-1.034c.017-.4-.111-.333 0-.494a.9.9 0 0 0 .15-.445c.083-.622.25-1.333.511-1.905a1.4 1.4 0 0 1 .111-.189a.6.6 0 0 0 .106-.189c.061-.211.1-.872.11-1.11c0-.168 0-.329-.082-.462c-.095-.156.083-.817-.167-.944c-.067-.04-.061-.012-.106-.056c.212-.139 1.1-1.85 1.25-2.178c.19-.422.873-2.01.94-2.488l-1.023.438c-.033-.41-.217-1.366-.211-1.622h.894l-.155-.11c-.222-.134-1.011-.595-1.106-.695h.522a5.7 5.7 0 0 0-1.533-.978c-.278-.117-.578.017-.739-.083c-.094-.061-.15-.134-.277-.123c-.834.073-1.695.245-2.528.367c.139-.239.05-.155-.095-.25c.234-.205.567-.566.584-.878c-.084-.044-.356.056-.54-.188c.223-.062.345-.245.39-.5c.055-.29.022-.556-.184-.667c-.189.278-.005.267-.444.467c-1.55.71.139-.39-1.056-1.123c-.816-.51-.55.911-1.51.75c-.223-.039-1.423.3-1.778.428c-.522.195-.311.228-.64.15a5 5 0 0 0-.766-.111c-1.166-.072-.45 1.028-.083 1.478c.078.1.278.244.294.366c.04.434-.155.167-.072.5c-.105.045-.272.156-.283.278c-.006.05.067.367.078.45l-1.228.322c-.072-.227-.111-.527-.233-.705c-.206-.045-.478.028-.634.105c-.01.173.04.3.056.456c-.245.017-1.072.222-1.317.305c-.278.09-.289.245-.455.34c-.24.138-.306.138-.361.427c-.478.15-.878.3-1.317.489c-.35.144-.944.444-1.139.655c-.01.162.3.823.39.967c.477-.222 1.26-.622 1.777-.744c.389.927.422 1.055.144 1.916c-.066.2-.116.456-.166.667c-.1.444-.228 1.022.083 1.333c.25.256.233.356.4.444c.217.123.444.123.705.134c.167.822.467 1.222.956 1.855c.278.306.328.206.578.04c.15.188.305.521.438.738c.067.111.04.15.023.295c-.14 1.388-.334 2.777-.456 4.166c.19-.033.472-.139.667-.2a26 26 0 0 0 4.2-1.706l.555-.3c.289-.15.667-.172.983-.294c.412-.161.206-.322.35-.483c.345-.24 2.011-1.517 2.256-1.522c.016.755-.222.755-.095 1.205c-.033.044-.105.145-.15.167a2.5 2.5 0 0 0-.577.339c-.261.205-.295.527-.245.933c-.155.028-1 .317-1.239.389c-1.277.4-2.555.722-3.86 1.055c-.878.223-1.773.411-2.667.606c-.333.066-2.644.51-2.722.544c.122.178.878.522 1.11.6c.318.106.368.056.7 0l.712-.128c.944-.166 1.889-.394 2.8-.61c1.35-.323 2.666-.717 3.983-1.128c.422-.134.883-.3 1.3-.406c.078.095.11.211.178.3c.222.278.589.378.705-.011l.056-.167z"/><path fill="#FC3B3B" d="M15.072 6.411c-.183.372-.078.217-.061.395c.017.166-.122.277-.167.389c.222-.056.272-.09.506-.04c.26.056.178.073.455.023c1.078-.178 1.317-.417 2.233.128c.295.177.25.122.284.294c.111.539.1 1.039.111 1.589c0 .278-.028.26.083.489c.322.666.411 1.15-.022 1.722c.056.078.1.128.156.233c.055.111.083.2.144.25l.611-1.078c.095-.177.506-.994.533-1.15l-.372.156c-.016-1.239.056-1.739-.26-2.91c-.056-.223-.073-.179-.234-.279l-.656-.405c-.216-.134-.166-.095-.444-.084c-.528.028-2.456.184-2.9.278"/><path fill="#EFD9C2" d="M14.16 8.072a6 6 0 0 1-1.688 1.117c-.283.122-.422.15-.683.1c-.056-.011-.017-.017-.072 0c-.067.189-.228 1.222-.2 1.4c.083.389.044.66.633.594c.433-.05.778 0 1.167.128c.655.217 1.155-.539.988-.767c-.1-.139-.188-.183-.377-.272c.133 0 .283 0 .416.034c.156.033.228.088.345.122c.039-.573-.04-.523-.14-.895c.179.011.306.106.434.167a2.7 2.7 0 0 0-.194-.633c-.111-.24-.228-.411-.284-.54l-.11-.133c.205-.016.3-.022.51 0c-.033-.077-.26-.277-.333-.344c-.122-.122-.25-.233-.411-.078"/><path fill="#393955" d="M8.045 9.322c-.034.178-.111.39-.156.578c-.044.2-.083.422-.1.633c-.078.878.222 2.422-.122 3.422c-.05.14-.189.423-.267.411c-.083-.1.028-.31-.066-.422c-.156.183-.056.34-.278.556c-.178.166-.278.072-.445-.1l-.055-.067c.039.272.217.5.367.694c.072.095.1.09.183.167c.072-.033.1-.1.222-.205c.095-.084.178-.09.272-.167a1.6 1.6 0 0 0 .234-.2c.072-.072.139-.183.222-.228a1.4 1.4 0 0 1-.128.278c-.056.089-.128.167-.155.255c.177-.044.388-.194.488-.277c.111-.095.134-.056.156-.228c.061-.628-.111-.139.205-.928a2 2 0 0 0 .134-.633c-.078.078-.156.433-.661.878c0-.256.072-.595.094-.861c.045-.65.067-1.184.067-1.834c0-.177-.04-.805-.011-.916c.333 1.105.25 1.555.244 2.627l.056-.1a5.6 5.6 0 0 0 .266-1.36c0-.084.017-.49.034-.54c-.034-.077-.034-.022-.05-.122l-.056-.372c.011 0 .017.011.017.011l.01.011c.184.172.268.6.334.795c.111-.54.09-1.206.122-1.761c0 .077.017.055.034.072l.005-.039c.084.306.156.578.195.911c.094.783-.056 1.022.455 1.733c.134.19.234.284.373.445c.066.083.077.105.155.139c-.144-.3-.389-.511-.567-1.084c-.072-.239-.06-.494-.055-.75c0-.133-.017-.7.017-.766c-.017-.111-.184-.795-.223-.845c-.01.056.011.017-.027.056c-.056-.2-.456-.539-.462-.695c0-.177.24-.677.473-.666l-.023-.072c-.144-.028-.244.033-.35.094a.63.63 0 0 0-.255.222a2.5 2.5 0 0 0-.345.622c.117.134.206.112.3.545c.056.222.078.578.067.811c-.078-.128-.128-.456-.255-.544l-.028.333c-.072-.145-.167-.633-.25-.722c-.1.194-.156.61-.234.86l-.116-.483l-.006-.088c-.022-.1 0-.056-.055-.084"/><path fill="#FC3B3B" d="m8.845 18.189l.116.466l.878-.083l-.55.205c-.15.056-.389.145-.539.172zm.916-.523c.017-.166.1-.444.017-.566c-.128-.19-.483-.573-.145-.806c.106-.072.278-.172.25-.356c-.466-.127-1.444-.26-1.46-.933c-.056.09-.073.056-.162.111l.484.806c.055.1.06.111.044.25l-.094.855c-.04.373-.256 2.14-.245 2.34c.445-.106 2.411-.929 2.817-1.134c.277-.133.605-.317.86-.428c-.022-.317.023-.955-.16-1.183c-.178.072-.39.205-.567.294c-.111.05-.211.078-.261.178c-.206.389-.289.555-.761.378c-.128-.045-.184.016-.311.066c-.1.045-.2.095-.306.128"/><path fill="#B77D48" d="M14.845 8.167c.355.027.844.51 1.088.777c.078.084.223.256.267.367c-.145-.094-.306-.194-.539-.178c.078.073.3.128.517.423c.089.122.294.438.3.638l-.206-.172a.8.8 0 0 0-.294-.122c.033.072.239.317.36.572c.073.161.229.522.117.7c.062.056.284.111.39.128c.122.022.344.05.444-.045c-.117 0-.278.028-.384-.016c.09-.05.261-.095.373-.15c.16-.078.189-.123.155-.334a1.9 1.9 0 0 0-.278-.738c.65.51.462.983.623 1.389c.077 0 .088.016.139-.034c-.028-.056-.078-.444-.112-.567a1.76 1.76 0 0 0-.722-1.016c-.066-.045-.172-.083-.222-.139c.15 0 .239.022.361.072a3.2 3.2 0 0 0-.411-.555c-.211-.223-.511-.361-.567-.411c.211-.012.317.044.495.077c-.078-.205-.445-.455-.656-.555c-.089-.034-.205-.067-.277-.111c.483-.006 1.033.26 1.305.605c.083.111.189.228.244.372c-.1-.016-.189-.105-.35-.127c.095.133.412.46.6.71c.034.05.195.212.162.262c.05.061.044.028.1.078c.333.288.388.722.5.777c.188-.077.01-.616-.04-.76a2 2 0 0 0-.333-.623c-.139-.172-.233-.405-.372-.583c-.744-.945-1.044-.684-1.46-.933l-.318-.167c-.2-.095-.477-.25-.722-.167c-.155.056-.555.222-.66.306c.144.072.277.194.383.244z"/><path fill="#C19F84" d="M11.517 10.689c-.106.166-.04 1.255.1 1.422c.066-.039.466.133.539.172c.166.095.344.222.427.334c.034.038.145.16.145.233c0 .122-.133.139-.25.11c-.167-.044-.195-.088-.589-.177c.089.278.489.833.528.972c.277-.022.344-.166.422-.4c.061-.205.1-.45.028-.66c-.106-.29-.484-.545-.767-.629l-.078-.022l-.016-.01l-.028-.018l-.017-.01c.333-.04.65.083.867.31l.01.006l.04.039l.078.111c.105.139.16.333.405.311c.117-.01.183-.055.267-.111c.15-.106.072-.078.2-.167c-.022.084-.056.14-.095.211c-.16.3-.316.267-.527.35c-.05.467-.128.667-.4.895l.183.183c.233.09.7-.017.928-.111c.205-.083.216-.089.355-.361c.1-.189.122-.289-.022-.444l-.044-.05c-.012.155 0 .277-.073.388c-.277.434-.877.49-.939.3c.012-.077.062-.144.09-.222c.06-.216.06-.439.144-.494c.089-.056.11-.045.2-.122c.166-.15.183-.206.3-.334c.044-.055.372-.205.472-.172c.044.111.011.25-.033.361c.266-.083.11-.289.188-.605c-.133 0-.255.072-.355.122c.039-.25.172-.245.211-.422l-.294.15c.027.022.066.01-.073.122c-.055.039-.077.072-.127.11c-.85.612-.59.045-1.384-.471c-.1-.067-.183-.111-.3-.178c-.094-.05-.255-.111-.305-.167l-.222.011c.205-.133.71-.122.972-.088c.322.044.555.122.822.238c.478.2.939-.266 1.111-.644c.089-.189 0-.289.478-.15c-.006-.389-.034-.522-.1-.872c.144 0 .239.072.344.11a5 5 0 0 0-.344-.843a2.8 2.8 0 0 0-.406-.606c-.05-.056-.016-.033-.078-.072c.056.128.178.3.284.539c.066.155.178.455.194.627c-.128-.055-.255-.15-.433-.166c.1.377.178.327.139.9c-.111-.034-.189-.09-.345-.123a1.7 1.7 0 0 0-.416-.033c.183.089.277.133.377.272c.167.223-.333.984-.994.767a2.6 2.6 0 0 0-1.161-.128c-.589.067-.556-.205-.633-.594"/><path fill="#E1AB69" d="M11.445 6.139c-.006.028.016.039-.095.056a.6.6 0 0 1-.139.016c-.1.006-.2 0-.289-.022c-.166-.039-.439-.355-.5-.511a2.8 2.8 0 0 1 .7.039c.1.05.256.317.323.422m-1.667-.55l-.067.017c.056.172.056.183.117.328c-.072-.006-.1-.034-.15-.056c-.017.15.011.239.028.378c-.084-.028-.084-.045-.128-.1c-.055.189 0 .394.028.583c.016.206.194.228.394.556c.034.05.095.138.145.166c.11 0 .233.056.355.067c-.094-.089-.389-.206-.472-.445c.144.056.205.128.406.156c-.017-.056-.078-.083-.19-.228c-.072-.094-.1-.166-.16-.283c.038-.039-.028-.022.05-.011c.094.033.222.155.333.222c-.056-.222-.139-.317-.167-.606l.04.04l.027.038l.05.072c.055.084.278.284.394.334l-.033-.217c.178.106.389.222.65.222c.028-.089 0-.155.083-.216c.034.11.045.266.111.389c.04.072.045.038.067.11c.172-.077.317-.138.556-.1c0-.01.277-.483.294-.494l.006.206c.133.01.45-.134.594-.24c.067-.055.089-.1.15-.144l.039.034c.005-.15-.1-.317-.156-.439c-.066.022-.183.111-.244.089c-.09.055-.15.072-.278.116c-.017-.016-.011.012-.017-.033c-.05-.078 0-.483.123-.578l.166-.11c-.055-.112-.022-.084-.316-.017c-.645.139-1.317.194-1.978.216c-.278 0-.605-.033-.85-.022m3.161-2.65c-.039.017-.133.156-.167.195c-.044.072-.094.155-.166.21l.139-.277a9.6 9.6 0 0 0-1.584.189c-.11.033-.144.078-.255.111c-.172.039-.406.128-.556.155c.028.034-.033 0 .045.04l.183.088l-.344-.039l-.845.011v.023c.222.005.4.027.611.094c.223.072.322.15.49.222l-.029.017l-.044.011l-.25.067c.044.11.161.166.183.322l.011.011c0 .011.023.017.023.017c.033.016.016.016.072.016c.46.056 2.833-.238 3.266-.4l-.033-.055c-.056-.089-.022 0-.044-.083l-.04-.29l-.216.006l-.011-.022c-.089-.055-.067-.117-.111-.205l-.161.055c-.106.045 0 .045-.123.083c.011-.072.011-.094.061-.144l.112-.194l.133-.206c.094-.139.206-.25.3-.361c.056-.056.094-.122.211-.122l.122.022c-.066-.078-.183-.15-.289-.133c-.11.016-.494.366-.583.472c-.089.1-.044.078-.111.094"/><path fill="#393955" d="M15.483 13.639c.05.044.006-.017.023.05c.039.155-.184.494-.261.594a1.1 1.1 0 0 1-.556.339c-.583.167-1.044.005-1.6-.089l.156-.039l-.311.028c.155.122.855.317 1.11.389c.4.111.812.155 1.234.222c-.267.111-.833.056-1.139.011c-.416-.055-.828-.194-1.033-.222c.033.2.1.267.111.533c.189.128 1.233.4 1.528.456c.738.139 1.055.033 1.705-.156l-.039-.35c-.111.023-.233.072-.35.1c-.339.083-.839.15-1.166.04c.105-.045.327-.079.405-.134c-.044-.017 0-.017.067-.056a1.36 1.36 0 0 0 .522-.644c-.172-.09-.078-.067-.167-.111c-.155-.078-.288-.111-.072-.534c.056-.1.2-.75-.194-.805c-.067.272.077.189.027.378"/><path fill="#E1AB69" d="m13.328 6.367l.039.183l.117-.128c.155-.183.166-.289.26-.444c.04.267-.027.428-.055.667c.172-.078.189-.167.233-.223l.056-.055c-.022.355-.022.389-.194.472c-.045.022-.023.022-.078.022c.055.061.044.078.033.167c.061-.078.1-.167.167-.222c-.034.189-.134.266-.19.4c.295.022.34-.017.568-.111c-.145.222-.25.26-.44.405l.39-.055c.3-.206.477-.267.583-.54c-.095-.144-.106-.044.022-.366c.05-.133.122-.222.167-.35c-.034-.094-.078-.028-.056-.167c.022-.077.056-.11.05-.183l.011-.344h-.089c.028-.111.05-.19.045-.306l-.045.061l-.044.05c-.011-.31-.122-.35-.206-.544c-.255.072-.533.21-.81.294l-.74.222c-.083.017-.055-.005-.094.045c.078.067.156 0 .261-.039c.067-.028.222-.089.289-.094c-.072.172-.139.377-.228.55c-.083.166-.055.1-.022.3c.017.11.028.238.033.355c-.01-.033-.01-.011-.033-.022"/><path fill="#C6D0DB" d="M5.54 21.455c.021-.05 0-.011.055-.011l.077.016l.54.062c.866-.023 3.805-.723 4.6-.934a76 76 0 0 0 3.665-1.066l.928-.278c.161-.017.206.061.306.111c-.011-.128-.011-.411-.067-.5l-1.2.394c-2.25.723-5.294 1.445-7.633 1.912c-.433.088-.889.16-1.316.255c.022.039.01.028.044.039"/><path fill="#FC3B3B" d="M10.167 4.667c-.028.078-.056.083-.1.167a.7.7 0 0 0-.067.222c-.022.222.095.278.133.427c.89.045 1.912-.05 2.728-.277c-.139-.222-.056-.15-.111-.222c-.128.005-.078-.012-.117.072c-.044.083 0 .066-.127.072c.022-.194.166-.383.177-.578l.123-.055l.088.694c.156-.011 1.1-.3 1.29-.372c.022-.133-.017-.372-.106-.45c-.111-.1-.272-.095-.417-.122c-.111 0-.655.116-.828.144c-.272.045-.572.089-.844.117c-.317.028-.622.033-.933.06c-.295.029-.59.079-.89.1"/><path fill="#FDFDFD" d="M5.54 21.455c.066.1.366.244.522.294c.272.084.422.023.694-.027a55 55 0 0 0 6.51-1.578a53 53 0 0 1 1.234-.378c.211-.061.417-.133.622-.2q.228-.07.456-.144c.166-.05.11-.04.133-.073c-.1-.044-.145-.122-.306-.105l-.922.278c-1.11.35-2.572.777-3.666 1.066c-.8.206-3.739.911-4.606.934l-.538-.056l-.084-.022c-.05 0-.027-.04-.05.01"/><path fill="#565676" d="m10.439 12.578l.11.139l-.443-.1c-.012.033.188.31.227.366l.14.183c.055.078.1.112.132.2c.112.011.323.084.45.112c.15.039.35.06.49.1l-.167.016c-.078.056-.278.034-.378.034c.067.094.461.383.544.438l.478.261c.25.112.178.045.189.028a21 21 0 0 1-1.344-2.038a10 10 0 0 1-1.034-2.34c-.033.067-.016.634-.016.767c-.006.256-.017.511.055.75c.184.572.422.784.567 1.084"/><path fill="#E1AB69" d="M16.455 11.167c.112-.167-.044-.534-.116-.695c-.122-.255-.328-.5-.361-.572c.216.05.339.144.5.294c-.006-.2-.212-.516-.3-.638c-.223-.295-.44-.35-.517-.423c.233-.016.389.084.539.178c-.05-.111-.189-.278-.267-.367c-.11-.127-.155-.2-.3-.316c-.189-.145-.56-.445-.789-.467c.106.133.323.317.417.556c-.167-.011-.261-.04-.444-.034c.033.078.222.3.277.395c.3.444.462.978.5 1.527c-.06-.022-.094-.055-.144-.077c.083.122.722.627 1.005.644zm1.223 2.555c.144-.355.038-1.245-.278-1.683a1.2 1.2 0 0 0-.345-.334q-.336-.023-.666.045c-.056.039-.061.094-.056.183c.017.472.6 1.767 1.028 1.895c.128.038.206 0 .294-.078l.023-.023z"/><path fill="#C19F84" d="M10.544 7.811c.056.067.123.111.19.167c.51.36 1.055.716 1.738.583a4.1 4.1 0 0 0 1.806-.933h-.3c-.117.083-.334.222-.545.25c.039-.134.117-.245.167-.406c.022-.089.022-.16.055-.244c.023-.072.056-.128.084-.2l-.056.044c-.244.19 0-.116-.339.367l-.089.111c-.344.333-.06.422-.589.389c-.483-.022-.405.017-.666.111c-.072.028-.106.022-.161.044c-.084.023-.022.034-.111.056c-.1-.094-.017-.083-.162-.128c-.11-.039-.11-.039-.166-.11c-.089-.118-.2-.223-.195-.379c-.05.034.006.034-.094.011l-.106-.033l.011.1c-.105-.022-.055-.017-.122-.111c-.055-.072-.055-.05-.055-.167c-.15-.044-.034-.055-.15-.127c-.167-.1-.039-.028-.15-.128c-.056-.056-.095-.072-.15-.133a.4.4 0 0 0-.161-.123c.105.111.183.206.26.322c.084.112.15.19.212.328c.139.3.333.4.511.567c-.244-.033-.461-.15-.667-.222z"/><path fill="#B77D48" d="M17.983 14.26h-.122c.15-.066.278-.071.444-.155a1.74 1.74 0 0 0 .867-.96c-.056.033-.289.372-.461.238c-.083-.066-.128-.444-.167-.589c-.2-.628-.322-.694-.466-1.072c-.161.039-.44.022-.611.017c.027.055.06.055.11.11c.3.317.356.65.39 1.079c.027.327.088.838-.1 1.122c-.073.11-.162.183-.184.233c.1 0 .223.011.3-.022"/><path fill="#565676" d="M7.4 14.366c.078.012.223-.272.267-.41c.344-1 .044-2.545.122-3.423c.017-.21.056-.433.1-.633c.045-.194.122-.4.156-.578a.33.33 0 0 0-.19.128c-.082.089-.032.011-.166.178a1.98 1.98 0 0 0-.394 1.589c.094 1.01.422 1.577.433 2.272l-.028-.05l-.055-.067c.066.667-.19.794-.245 1z"/><path fill="#E1AB69" d="m18.084 18.166l-.567.206c-.167.039-.533.055-.611.144c-.106.122-.1.445-.122.628c-.034.25.15.367.4.339c.133-.061.05-.078.25-.061c.1 0 .127-.056.2-.1c.216-.14.333-.078.51-.15c.223-.084.217-.817.156-1.056l-.216.056zM5.412 8.078c.278-.084.072-.372.25-.5c.011-.022-.022-.017.022-.022c.033.155.117.422.206.522c.405-.111.127-.472.266-.695l.017-.022v.056c.028.139.122.255.156.372c.083-.056.094-.083.194-.139a.7.7 0 0 1 .233-.089l-.094-.278c.067.067.111.184.189.25l.5-.083c0-.056-.145-.717-.378-.711a.9.9 0 0 0-.406.139c-.216.133-.56.028-.86.239c-.145.1-.073.128-.312.244c-.16.084-.233.117-.166.34c.055.166.094.26.183.377"/><path fill="#FDFDFD" d="M15.217 5.756c-.017.089 0 .016.01.044c.445-.072 1.834-.172 2.295-.178c.561-.01 1.539-.016 2.095.178c.094.033.066.045.1.011c-.112-.122-.645-.389-.817-.472c-.239-.111-.244-.111-.533-.1a30 30 0 0 0-3.056.222z"/><path fill="#C6D0DB" d="M15.216 5.756c-.05.044-.05.083-.055.166c.144.078.06.111.039.261c.35-.022.744-.083 1.105-.122l1.14-.094c.582-.04 1.805-.011 2.277-.1c.127-.022-.106-.067-.256-.111c-.066-.072-1.372-.211-1.61-.206c-.468.006-2.19.178-2.629.25c-.016-.028-.027.045-.01-.044"/><path fill="#EFD9C2" d="m13.328 6.367l-.039-.034c-.055.045-.083.09-.15.145c-.144.111-.46.25-.594.239V6.51c-.017.011-.3.484-.306.5c.19.022.234.061.29.222c.121.178-.028.473-.2.562c-.184.094-.206.044-.156.083c.166.005.444 0 .61-.022c.245-.028.25-.167.362-.295c.172-.194.128-.11.289-.355c.072-.111.15-.39.278-.345c.055 0 .027 0 .072-.022c.166-.078.172-.111.194-.467c-.044.034-.005-.005-.055.05c-.045.056-.056.145-.24.223c.034-.24.1-.4.056-.667c-.089.155-.1.261-.255.444l-.117.128z"/><path fill="#E1AB69" d="M17.917 11.372c.333-.05.033-.883-.09-1.128c-.094-.194-.166-.25-.205-.322l.145.067c.01-.017.022-.011-.012-.067l-.15-.194c-.189-.25-.5-.578-.6-.711c.167.022.25.11.35.127c-.055-.144-.16-.266-.244-.372a1.8 1.8 0 0 0-1.306-.61c.073.05.19.082.278.121c.211.095.578.345.656.556c-.178-.039-.278-.095-.495-.083c.056.05.356.188.567.41c.111.117.339.412.411.556a.9.9 0 0 0-.361-.072c.05.056.155.094.222.139c.372.26.567.544.722 1.016c.034.117.084.511.111.567"/><path fill="#393955" d="M9.156 13.383c.094.14.178.178.283.278c.323.278.723.361 1.195.422c0-.005-.878-.744-1.045-1.117c.161.062.317.15.49.217l.527.184c-.033-.084-.078-.123-.139-.2l-.133-.184a1.7 1.7 0 0 1-.222-.367c-.056-.038-.134-.072-.2-.105c-.073-.033-.117-.072-.184-.1c-.028.428-.178.289-.428.744l-.1.2c-.033.04 0 .017-.044.028"/><path fill="#B57A46" d="M5.628 8.856c.028-.056.056-.056.206-.062c.389-.005.316.19.278.373l-.328-.017c.194.122 1.066.117 1.439-.15a.54.54 0 0 0 .244-.344c-.167.133-.544.433-.778.427c-.339-.589.484-.544.745-.805c0-.206-.111-.278-.3-.3c-.223-.022-.295-.045-.328-.272c-.128.033-.189.055-.25.138c-.072.1-.011.195.072.24c.233.116.472-.095.639.144c-.55-.056-.483.083-.889.21c-.189.062-.666.195-.816.279z"/><path fill="#AAA097" d="M6.695 11.878a.66.66 0 0 0 .022-.3c-.022-.111-.061-.128-.144-.178c-.1-.056-.417-.139-.467-.195c-.445-.016-.661-.205-.911-.288c-.072.11-.189.422-.15.566c.078.095.6.222.755.267c.334.094.54.122.895.128"/><path fill="#EFD9C2" d="M14.205 13.178c-.016-.084-.05-.112.022-.19c.056-.055.1-.044.14-.105c.044-.11.077-.25.033-.361c-.1-.033-.428.111-.473.167c-.116.133-.127.189-.3.339c-.088.077-.11.066-.2.122c-.083.055-.083.278-.144.489c-.028.083-.078.15-.089.222c.056.194.661.139.939-.289c.072-.122.061-.239.072-.389z"/><path fill="#CE3636" d="M10.334 10.428c.066.26.805 1.577.955 1.766c-.033-.139-.144-.366-.205-.51a20 20 0 0 1-.55-1.54c-.112-.377-.156-.81-.184-1.21c-.055-1.04.234-.834-.233-1.084c.005.222-.022.489-.022.722c0 .44.044.883.122 1.311c.017.078.128.528.111.545z"/><path fill="#C19F84" d="M10.805 8.311c.067.089.162.145.234.233c.127.167.522.64.633.684c.039-.045.011-.017.056-.045l-.012.111c.056-.022.023-.016.073 0c.26.045.4.017.683-.1a6 6 0 0 0 1.422-.888c.067-.056.222-.167.267-.234c-.284.106-.817.428-1.233.6c-.156.061-.317.084-.478.145c-.445.16-.256.26-.817-.09a5.5 5.5 0 0 0-.828-.416"/><path fill="#EFD9C2" d="m10.472 6.933l.422.4c.017.04 0 .023.011.045c.012.039.006.028.028.055c0 .011.056.067.073.078l.11.033c.095.023.04.023.09-.01c.244 0 .033.266.36.405c.24.111.345.105.567-.033c-.039-.028.011-.017-.072-.017h-.089c-.194 0-.316-.083-.372-.289c-.122-.306-.111-.3.089-.5c-.022-.067-.028-.033-.067-.111c-.067-.117-.078-.272-.11-.383c-.084.055-.056.127-.084.222a1.3 1.3 0 0 1-.65-.222l.033.21a1.3 1.3 0 0 1-.394-.333l-.05-.072l-.028-.039l-.039-.039c.028.29.111.384.167.6z"/><path fill="#B77D48" d="m17.678 13.722l-.023.028c-.088.078-.166.117-.294.078c-.428-.128-1.011-1.423-1.028-1.89c-.005-.094 0-.15.056-.188q.33-.068.666-.045c-.055-.055-.227-.055-.316-.083c-.4-.094-.722-.355-.806-.361c-.022.66.186 1.309.59 1.833c.166.256.321.5.499.717c.1.128.189.25.345.217c.105-.023.288-.145.31-.3z"/><path fill="#E1AB69" d="M6.806 7.706c.033.227.1.25.328.272c.189.022.3.094.3.3c-.261.26-1.084.222-.74.805c.223 0 .606-.294.773-.427c.067-.056.083-.09.15-.14c.056-.038.117-.077.144-.15c.05-.116.034-.41 0-.538c-.055-.234-.172-.206-.41-.19c-.19.012-.356.045-.545.068"/><path fill="#EFD9C2" d="M10.645 8.267c.038.055.266 1.316.555 1.889a.1.1 0 0 0 .022.055l.056.061c.01-.167.094-.422.15-.566c.033-.09.072-.162.11-.245c.04-.089.1-.155.134-.233c-.11-.045-.5-.522-.633-.684c-.072-.088-.167-.144-.233-.233l-.14-.083z"/><path fill="#CE3636" d="M10.306 15.972c-.006.078-.034.128-.056.2c.033.028-.017.216-.028.36v.218l-.005.183l-.006.011l.078.067c.422.316.456.2.656-.273c.05-.11.127-.21.166-.3c-.278.056-.589.3-.639.312c-.205-.2 0-.8.123-.973c.205-.294.416-.372.872-.266c.072-.278.094-.211.166-.361a4.4 4.4 0 0 0-.666-.072c.094.066.222.077.31.183c-.3-.05-.494 0-.66.16a1.1 1.1 0 0 0-.245.39l-.022.078z"/><path fill="#AAA097" d="M19.105 14.26c-.166.156-.788.373-1.055.445c-.25.078-1.111.111-1.033.417c.527 0 .966-.022 1.477-.139c.19-.039.428-.128.59-.206c.11-.06.15-.083.166-.227a.8.8 0 0 0-.017-.334z"/><path fill="#565676" d="m13.244 14.5l-.155.033c.555.094 1.016.25 1.6.089c.244-.067.45-.206.555-.339c.078-.1.3-.439.261-.594c-.016-.067.028 0-.022-.05c-.05.189-.733.472-.989.566c-.277.111-.938.306-1.25.29z"/><path fill="#E1AB69" d="M18.078 11.722c.144.378.266.444.46 1.072c.045.14.09.522.168.59c.177.133.41-.207.466-.24a1.74 1.74 0 0 1-.866.961c-.167.084-.295.09-.445.156h.122c.34-.02.674-.096.99-.222c.194-.09.233-.111.25-.356c.01-.183 0-.389-.029-.572c-.216.017-.305.244-.433-.078c-.167-.41-.072-.716-.405-1.344c-.128-.006-.167.027-.278.033"/><path fill="#CE3636" d="M13.128 17.955c-.011-.028 0 0 .066-.044a.94.94 0 0 0 .356-.628c.017-.172 0-.356-.028-.528l-.089-.422c-.055-.083-.216-.128-.216-.389c-.023 0-.19.1-.245.128c.134.2.211.25.3.511c.078.217.111.467.056.7c-.122.483-.484.389-.778.061c-.056-.056-.056-.078-.1-.106c-.039.473-.044.762.356.762c.088 0 .255 0 .322-.045"/><path fill="#B77D48" d="M17.184 19.483c-.25.028-.434-.089-.4-.334c.022-.188.016-.51.122-.633c.078-.089.444-.105.61-.144l.567-.2c-.32.07-.65.092-.977.066c-.378-.044-.484-.133-.762-.25c-.083.123-.01.184 0 .317l.028-.039c.034-.055.017-.072.05-.122c.234.339.223.661.19 1.111c-.017.211-.05.478.172.5c.188.028.333-.122.4-.272"/><path fill="#EFD9C2" d="M14.111 12.128c-.422.166-.8-.045-1.089-.223a1.85 1.85 0 0 0-1.094-.36c.05.055.21.116.305.166c.111.067.2.111.3.178c.795.516.534 1.083 1.383.472l.128-.111c.14-.111.1-.1.073-.122z"/><path fill="#B77D48" d="M15.239 12.51c.166-.043.089.145.028.223c-.05.056-.056.05-.134.083c-.15.084-.21.29-.266.35c-.112.106-.117-.005-.228.2l-.04-.027a.73.73 0 0 1-.082.4c.189-.017.222-.223.41-.35c.123-.084.084-.184.156-.245c.084-.055.156-.066.234-.144c.16-.156.194-.256.3-.478c.088-.183.144-.411.01-.583c-.072.027-.1.083-.188.127c-.317.15-.245-.022-.456.184c-.055.055-.127.072-.172.144c.133.083.339.067.428.111z"/><path fill="#FC3B3B" d="M10.333 10.428c.011-.017-.1-.467-.11-.545a7.4 7.4 0 0 1-.129-1.31c0-.234.028-.5.023-.723l-.267-.111c-.143.483-.137.998.017 1.478c.055.222.355 1.083.46 1.21z"/><path fill="#222A35" d="m18.71 9.206l.223-2.2l-1.195-.345c.073.1.634.445.778.556c.078.06.056.255.061.366c.045.528.067 1.111.133 1.623"/><path fill="#FC3B3B" d="M16.467 14.639c.044-.084.027-.24.088-.367c.09-.183.178-.178.223-.228c-.145-.167-.35-.583-.511-.711c-.011 0-.195.184-.2.194l-.095.695c0 .178.067.155.128.261c.294-.039.278.089.367.156"/><path fill="#C6D0DB" d="M8.7 7.172c-.277.067-.4.073-.605-.15l-.084-.077c.017.133.106.65.162.733c.016 0 1.377-.378 1.433-.422l.078-.073c-.067-.083-.14-.138-.2-.222c-.017-.016-.69.195-.778.211z"/><path fill="#938376" d="M16.995 16.377c-.073-.555.172-.438.733-.4c.35.03.703-.007 1.039-.11l.044-.023c-.189-.017-.4 0-.605-.022a3.7 3.7 0 0 1-1-.206c-.156-.055-.284-.15-.395-.194c-.039.133-.055.422-.055.572c-.017.417.033.372.239.383"/><path fill="#CE3636" d="m8.917 14.316l.005-.033c.067.122.461.278.656.35c.244.089.51.178.778.233l-.056-.044h-.006l-.055-.033l-.306-.167c-.25-.167-.322-.278-.477-.489c-.156-.211-.211-.15-.323-.311c-.038-.061-.088-.122-.11-.2c-.173.044-.223.105-.24.3a.7.7 0 0 0 .134.394"/><path fill="#FDFDFD" d="m8.011 6.945l.084.077c.205.223.333.217.61.15c.079-.016.695-.15.773-.222c-.072-.105-.139-.255-.211-.355c-.194.027-.45.11-.644.166c-.09.022-.595.128-.612.184"/><path fill="#938376" d="M17.017 15.122c-.078-.3.777-.339 1.038-.411a4.1 4.1 0 0 0 1.05-.445c-.155.017-.389.111-.566.15c-.378.095-.822.19-1.217.184c-.4 0-.389-.078-.55-.117c-.01.128-.033.361-.016.489l.05.117z"/><path fill="#EFD9C2" d="M11.889 12.778c.394.094.422.138.589.183c.116.028.25.011.25-.111c0-.072-.111-.195-.145-.233a1.6 1.6 0 0 0-.428-.334c-.072-.039-.472-.21-.538-.172c0 .1.21.594.272.667"/><path fill="#AAA097" d="M5.567 13.21c.24.023.411-.171.517-.277c.133-.122.2-.3.289-.483c-.211.055-.378.16-.628.216c-.222.045-.494.011-.683.134c.028.044.072.066.122.105c.228.167.089.278.383.306M16.89 17.6c-.078.044-.072.038-.117.11a.5.5 0 0 0-.083.156c.428.117.978.128 1.405-.033c.184-.072.245-.078.284-.283c-.25.027-.484.055-.733.066c-.462.034-.5-.016-.75-.016z"/><path fill="#CE3636" d="M12.417 15.905c.027-.066 0-.016.039-.066c.088-.112.177-.234.166-.423a.46.46 0 0 0-.1-.233c-.055-.072-.15-.072-.233-.133a.6.6 0 0 0-.372 1.005c.027-.183-.017-.378.072-.522c.055-.083.2-.217.355-.233c-.044.089-.466.583.073.605"/><path fill="#938376" d="M16.766 17.26c0-.133.19-.177.334-.166c.205.011.733.278 1.294.006l.017-.006l.044-.033c-.416.06-.633.022-1-.106c-.366-.122-.5-.261-.572-.283c-.089-.028-.133-.028-.21-.061c-.04.289-.279.555.093.65"/><path fill="#C19F84" d="m11.278 10.272l-.056-.06l-.027-.056c-.284-.573-.511-1.834-.55-1.89c-.03.894.16 1.782.555 2.584z"/><path fill="#FFC639" d="m15.833 18.594l.089.878c.05.105.078.333.239.194c.11-.1.022-.317.055-.472c.04-.145-.055-.778-.11-.917c-.212-.083-.262.134-.273.317"/><path fill="#565676" d="M8.845 10.756c.194.388.167.96.189 1.4c.1-.178.21-1.034.233-1.295c.072-.778-.028-1.017-.011-1.472c-.017-.017-.033.005-.033-.072c-.034.555-.011 1.222-.117 1.76c-.072-.194-.156-.622-.333-.794l-.017-.01l-.011-.012l.055.372c.012.1.012.045.045.123"/><path fill="#AAA097" d="M16.994 16.377a4.3 4.3 0 0 0 1.772-.51c-.334.102-.684.14-1.033.11c-.567-.039-.811-.15-.739.4"/><path fill="#B77D48" d="M6.39 13.333c.133.034.277.128.439.083c.072-.016.288-.133.316-.194c.056-.15.04-.833.006-1.011c-.04.061-.095.255-.14.339a2.2 2.2 0 0 1-.277.422z"/><path fill="#FC3B3B" d="M13.128 17.955c.139.011.433-.089.533-.155c.167-.106.189-.273.183-.517a1.75 1.75 0 0 0-.41-.95l.088.422c.028.167.045.356.028.528a.98.98 0 0 1-.356.628c-.06.044-.077.016-.066.044"/><path fill="#E5A128" d="M7.311 6.411c.062-.005.162-.016.223.017c.077.044.144.389.166.483c.028.1.184.656.15.695c.056.205.078.333.111.539c.062.083.073.388.128.555l.083-.028c.045-.305-.338-1.833-.477-2.333l-.034-.1l-.027-.044c-.373.027-.334.1-.323.222z"/><path fill="#AAA097" d="m6.817 9.839l.006-.24c-.334-.121-.9-.055-1.15-.31c-.011-.017 0-.011-.028 0a.6.6 0 0 0-.056.367c.222.122.945.194 1.222.183z"/><path fill="#EFD9C2" d="M10.145 7.461c.027.056.327.322.4.35c.205.078.422.195.666.222c-.172-.16-.372-.26-.51-.56c-.062-.14-.129-.223-.212-.334a2.6 2.6 0 0 0-.26-.317c-.006-.039 0-.022-.04-.055l-.055-.05c-.078-.011-.012-.028-.05.01c.055.123.088.19.16.279c.112.15.167.183.19.233c-.2-.028-.261-.1-.406-.156c.083.24.378.356.472.445c-.122-.006-.244-.067-.355-.067"/><path fill="#393955" d="M12.212 14.355c-.012.017.055.084-.19-.027l-.477-.262a4 4 0 0 1-.545-.444c.106.005.3.028.378-.028c-.144 0-.317.028-.489.017c-.155-.011-.305-.056-.444-.067c.11.183.527.489.733.59c.544.266.572.194 1.072.277z"/><path fill="#B77D48" d="M13.673 3.845c0 .072.005.022-.028.039c.022.083-.011-.006.044.077l.034.062l.572-.173a4.2 4.2 0 0 0-.267-1.183l-.078-.144l-.027-.017l-.117-.022c.16.277.305.944.322 1.277c-.089-.105-.089-.227-.211-.283l-.05.183l-.1-.122c-.017.067-.056.267-.095.306"/><path fill="#C19F84" d="m13.59 2.623l.01.022l.006.039v.01l.166-.06c-.01.044-.066.11-.1.166c-.038.073-.06.111-.088.2l.277-.072c-.105.2-.233.333-.316.578l.139-.028l-.011.367c.038-.04.077-.24.094-.306l.1.122l.055-.183c.112.056.112.178.206.289c-.017-.344-.167-1-.328-1.278c-.116-.005-.15.056-.21.117z"/><path fill="#CE3636" d="M9.15 15.316c0-.055-.005-.016.04 0c.094.045.121.067.266.095c.111.027.311.055.417.017v.205c.055-.055.01-.111.038-.256c.017-.083.056-.139.078-.194a3 3 0 0 1-.655-.167c-.35-.127-.378-.205-.522-.277c.022.25.2.5.338.577m4.517-11.071c.139.027.305.022.411.122c.089.078.128.317.106.45c.144-.045.416-.111.494-.206c-.017-.166-.111-.139-.167-.277c-.144-.362-.122-.356-.533-.223c-.078.023-.256.073-.317.134z"/><path fill="#938376" d="M6.373 12.444c-.09.19-.156.367-.29.495c-.105.1-.277.294-.516.277c.117.05.406.073.533 0c.084-.05.395-.35.462-.438c.094-.117.31-.417.305-.573c-.078.023-.4.19-.494.245z"/><path fill="#AAA097" d="M6.745 10.822c-.011-.094-.111-.194-.195-.233c-.144-.067-.266-.034-.416-.034c-.111 0-.611-.038-.74-.077l-.016-.006c0-.011-.01-.005-.016-.011c-.056.044-.095.222.077.278c.111.027.29.044.406.055c.267.023.639.056.9.028"/><path fill="#CE3636" d="M10.134 5.484c-.04-.145-.156-.2-.134-.428a.6.6 0 0 1 .067-.222c.045-.084.072-.09.1-.167c-.122.005-.389.005-.478.05c-.1.1-.122.389-.11.55c.11-.045.066-.133.25-.206c-.034.134-.19.306-.25.384c.127.044.416.044.555.039"/><path fill="#565676" d="M9.611 9.133a2.35 2.35 0 0 1-.016-1.31c-.234 0-.478.5-.473.671c0 .156.406.495.461.69c.04-.034.017.005.028-.056z"/><path fill="#C19F84" d="M8.973 4.045v-.056a.7.7 0 0 0 .1.195c-.011-.112-.011-.167.055-.24c-.033-.055-.022-.027-.072-.077c.211-.039.578-.045.756.055c-.078.073-.112.045-.167.14l.489.144c-.028-.106-.1-.078-.206-.19c.178-.027.29-.055.49-.027l.044-.011l-.056-.033l-.039-.017l-.089-.028c-.272-.1-.383-.083-.655-.11l.089-.056l-.323-.09v-.022c-.1 0-.355.012-.433.067c-.1.061-.044.278.017.356"/><path fill="#F7F2EC" d="M13.278 10.6c.033.055 0 .017.05.061c.066.072.11.089.166.206c-.316-.078-.51-.145-.867-.134a2.1 2.1 0 0 0-.833.167c.145-.006.328-.05.495-.061c.639-.045.905.1 1.45.277a.8.8 0 0 0-.273-.455c.184-.1.467-.017.667.022c-.311-.289-.728-.11-.861-.083z"/><path fill="#938376" d="M5.362 10.461c.005 0 .016 0 .016.011l.017.006c.122.039.633.078.739.078c.15 0 .278-.034.417.033c.083.039.183.139.194.233c.156-.017.167-.066.183-.222a.9.9 0 0 0-.033-.378c-.155 0-.5.15-.689.195c-.305.06-.539.044-.844.044"/><path fill="#EFD9C2" d="M13.739 7.022c-.022.078-.056.134-.084.206c-.033.083-.033.155-.055.244c-.05.167-.128.278-.167.406c.212-.028.428-.167.545-.25l.25-.178l-.383.05c.188-.144.294-.178.438-.411c-.222.1-.272.139-.566.111c.055-.128.155-.205.189-.4c-.067.056-.106.15-.167.222"/><path fill="#FFC639" d="M7.85 7.606c.034-.04-.122-.595-.15-.695c-.022-.089-.088-.444-.166-.483c-.061-.033-.156-.022-.222-.017L7.55 7.44c.245.017.2.006.3.167"/><path fill="#FC3B3B" d="m10.306 15.972l.044-.083l.023-.073a1.1 1.1 0 0 1 .244-.394c.166-.167.36-.211.661-.167c-.089-.1-.222-.11-.306-.178c-.35.006-.46.023-.65.228a.5.5 0 0 0-.122.334c0 .133.09.194.106.333"/><path fill="#AAA097" d="m18.455 17.06l-.044.034l-.017.006c-.561.277-1.089.005-1.289-.006c-.15-.011-.339.033-.339.167c.128.116.8.083 1 .072c.167-.011.35-.028.517-.05c.178-.028.283-.056.278-.256l-.111.034z"/><path fill="#938376" d="m4.895 12.372l.039.161c.083-.022.167-.078.278-.105c.26-.073.433-.045.922-.212c-.1-.072-.378-.133-.517-.183c-.16-.066-.344-.166-.483-.216c.044.072.255.255.333.377c-.144.045-.294.067-.439.134c-.122.055-.066.06-.133.044m.778-3.083c.25.25.81.189 1.15.31l-.006.24c.183-.028.161-.078.2-.245c.033-.122.078-.244.089-.366c-.222.039-.194.089-.672.133c-.35.033-.456 0-.761-.072"/><path fill="#E1AB69" d="M15.239 12.511c-.111.089-.295.128-.461.122c0 .167.016.206-.09.3l-.21.178c.06.061.11.111.122.222l.039.034c.11-.206.122-.095.222-.2c.061-.056.122-.267.278-.35c.066-.034.077-.028.127-.09c.062-.072.145-.26-.027-.222z"/><path fill="#232933" d="M10.956 5.822s.033.017.027.067c-.005.039-.022.044-.055.056c-.039-.056-.056-.117.028-.123m-.034.367c-.083-.111-.255-.25-.316-.422h.26c-.116.3.095.455.323.405c.094-.022.094-.06.139-.133l.116.1c-.066-.111-.222-.372-.322-.422a2.8 2.8 0 0 0-.7-.04c.061.156.334.473.5.512"/><path fill="#FC3B3B" d="M14.006 16.689c.066-.028.5-.317.544-.384c-.389-.06-.733-.233-.972-.289l.428.667z"/><path fill="#B97E48" d="M8.972 4.045c.011.055.028.083.05.127l.028.067c.011.033.011.022 0 .039c.039.089.361.456.439.556c.15-.178-.078-.25.35-.323c.155-.027.494-.05.617-.089c-.056 0-.04 0-.073-.016c0 0-.022-.006-.022-.017l-.011-.011c-.072.028-.267-.033-.433-.044c-.15-.006-.112-.006-.128-.045c-.072.056-.234.039-.345.045c.006.127.04.15.067.25a.37.37 0 0 1-.167-.134l-.122-.2c0 .1.017.156.039.245c-.167-.195-.167-.25-.144-.384l-.045.073a.5.5 0 0 1-.094-.2v.06z"/><path fill="#E5A128" d="M2.845 9.033c.011-.044.005-.044.044-.066c.056-.04.023-.028.084-.017c0-.094.083-.133.15-.167c.039-.033.144-.094.2-.077c.1.027.183.294.166.433c.056.028.067.089.09.144l.2-.089l-.3-.738c-.184.055-.6.338-.69.438c.011.067.011.09.056.14"/><path fill="#CE3636" d="M14.744 3.906c.084 0 .09.01.145.072l.039.05c.027-.028.039-.044.072-.067c-.044-.066-.044-.016-.044-.088c.505-.067.633-.373.533-.89c-.04-.027 0-.01-.022.023c.044.622-.6.4-.723.9"/><path fill="#A3968C" d="M5.379 10.222c.36.008.72-.04 1.066-.144c-.45-.106-.439-.05-.922-.24c-.044.095-.178.09-.144.379z"/><path fill="#AAA097" d="M4.895 12.372c.067.017.011.017.133-.044c.145-.067.295-.09.445-.134c-.084-.122-.295-.305-.334-.378l-.166-.138a1.6 1.6 0 0 0-.078.694"/><path fill="#FC3B3B" d="M14.744 3.906c.123-.5.767-.278.723-.9c-.084.06.01.055-.223.222c-.21.15-.655.211-.644.794l.144-.11z"/><path fill="#E5A128" d="M15.833 18.594c.011-.183.061-.4.272-.317c-.033-.239-.2-.4-.4-.194c-.15.15-.166.322-.139.583z"/><path fill="#C19F84" d="M9.117 4.111c-.028.134-.028.19.145.384c-.023-.09-.04-.145-.04-.245l.117.2c.05.067.084.095.167.134c-.022-.1-.055-.123-.061-.25c.111-.006.272.005.344-.045l.078-.044c-.117-.056-.4-.106-.467-.14A.6.6 0 0 1 9.528 4c-.094-.06-.3-.028-.389.011l-.022.106z"/><path fill="#B77D48" d="M9.606 6.739c-.028-.189-.083-.389-.028-.583c.045.055.045.072.128.1c-.017-.14-.045-.228-.028-.378c.05.022.078.05.15.056c-.066-.145-.066-.156-.11-.328l.055-.017l-.234-.039c-.01.234.223.084-.133.422c.017.145.083.017.011.178c-.039.09-.028.139 0 .228c.039.117.1.294.189.361"/><path fill="#AAA097" d="M18.155 15.31c.094.1.789.084.955.056c.084-.055.106-.233.112-.372c-.162.056-.312.139-.506.195a5 5 0 0 1-.561.122"/><path fill="#565676" d="M15.3 15.41c.1-.01.433-.166.528-.21c.128-.067.405-.206.416-.345c-.1-.088-.05-.044-.183-.072a.7.7 0 0 1-.172-.072c-.101.265-.284.49-.522.644c-.062.04-.112.04-.067.056"/><path fill="#E5A128" d="M15.922 19.472c-.011.116-.083.044-.256.138c.04.156.295.573.473.373c.1-.111.15-.667.083-.79c-.039.156.055.373-.061.473c-.161.133-.189-.089-.239-.194"/><path fill="#FC3B3B" d="M12.29 15.05c.082.055.171.06.232.133a.5.5 0 0 1 .095.233c.016.19-.073.311-.161.423c-.04.055-.011 0-.04.066c.323-.039.445-.166.395-.516c-.039-.278-.222-.384-.522-.34"/><path fill="#938376" d="M19.11 15.372c-.166.022-.86.039-.955-.056l-.544.067c.21.211 1.333.167 1.5-.011"/><path fill="#CE3636" d="m15.073 4.54l.033-.106c.066.083.222.055.305.01c.212-.11.15-.205.212-.144l.039-.055c-.012-.006-.017-.011-.023-.006l-.033-.005c-.15-.017-.167 0-.317-.112c-.144-.11-.166-.183-.316-.022c.072.184.116.19.1.44"/><path fill="#FC3B3B" d="M8.923 14.316c-.017.217.466.367.666.445c.284.11.506.278.833.122l-.066-.017a6 6 0 0 1-.778-.233c-.194-.067-.589-.222-.655-.35z"/><path fill="#222A35" d="M12.128 4.578c.028.078.056.056.04.172l-.079.567c.167-.078.123-.261.162-.406l.016-.044l.006-.017c.055.172.072.278.155.29c.067-.05.1-.5.111-.612c-.16.022-.094-.017-.15.328c-.055-.078-.077-.211-.122-.29z"/><path fill="#B77D48" d="M15.377 11.472c.056.056.028-.01.012.045c-.034.088-.2.155-.29.177c-.11.028-.3.161-.305.161c-.028.017-.022-.005-.039.04c.161.055.478.044.6-.05c.122-.095.206-.256.222-.467zm-.705-6.716c.083.194.194.233.205.544l.045-.05l.044-.055a.9.9 0 0 1-.044.3h.089L15 5.839c.044-.05.055-.111.078-.172c.022-.072.05-.139.055-.217l-.122-.055c0-.123.055-.134.089-.24c-.162-.227-.034-.121-.117-.277a.5.5 0 0 0-.178-.194z"/><path fill="#E1AB69" d="m5.628 8.856l.05.266l.106.028l.322.017c.044-.184.117-.378-.272-.373c-.15 0-.178 0-.206.062"/><path fill="#FC3B3B" d="m8.24 8.1l.088.594c.084-.022.04-.016.111-.21c.117-.35.323-.54.35-.6c-.083.022-.5.166-.55.216"/><path fill="#AAA097" d="M18.066 16.478c.128.1.384.127.562.127c.094-.089.166-.294.2-.46c-.128.055-.223.133-.378.194z"/><path fill="#222A35" d="M10.85 5.033c.067-.116.195-.25.25-.377c-.122.016-.116 0-.178.094l-.055.083l-.067.073l.022-.156l-.15.017c.017.089.006-.017.023.055c.022.111-.084.423-.045.545l.09-.011l.027-.2c.133.122.044.255.3.294z"/><path fill="#938376" d="M6.695 11.878c.166-.006.2-.011.216-.184a1.2 1.2 0 0 0-.044-.366c-.244-.056-.5-.084-.761-.123c.05.056.367.14.467.195c.083.05.122.072.144.178a.7.7 0 0 1-.022.3"/><path fill="#F7F2EC" d="M16.61 12.217a1.21 1.21 0 0 0 .657 1.266c-.028-.044-.145-.155-.223-.278c-.372-.588-.288-.666-.433-.989"/><path fill="#FFC639" d="M2.845 9.033c0 .161.111.411.233.484c.09-.017.406-.184.5-.234c-.016-.055-.033-.11-.083-.144c-.061.067-.2.205-.339.194c-.122-.105-.128-.216-.183-.383c-.056-.011-.028-.022-.084.017c-.038.022-.033.022-.044.066"/><path fill="#B77D48" d="M5.89 8.078c.094.189.227.25.444.11c0-.121-.112-.355-.15-.555l-.023-.105l.011-.111V7.36l-.016.022c-.14.223.139.584-.267.695"/><path fill="#FC3B3B" d="M10.211 16.944v-.011l.006-.183l.005-.217c.011-.144.061-.333.028-.361l-.333.366c-.056.184.255.39.294.406"/><path fill="#C19F84" d="M13.045 3.367c-.05.055-.05.072-.061.144c.116-.039.016-.039.122-.083a.38.38 0 0 1 .261-.111l.011.261l.011.022c.028-.094.072-.194.117-.278c.055-.1.122-.166.166-.255l-.2.022l.056-.183c-.228.155-.278.26-.428.439c-.072.094-.027.066-.055.022M11.6 7.6c.056.206.178.294.373.294l.088-.005c.084 0 .034-.011.073.017l.039-.028c-.056-.04-.028.01.155-.083c.172-.09.322-.39.2-.556c.011.122-.011.1-.133.289c-.111.167-.322.333-.545.255c-.127-.044-.155-.105-.222-.166z"/><path fill="#262B35" d="M11.978 5.228q.034.059.094.089l-.088-.661c-.017-.084-.05-.056-.15-.034c.044.062.044.04.005.145l-.055.161c-.04.106-.084.2-.112.306c.25-.012.017-.112.24-.15z"/><path fill="#938376" d="M18.628 16.61c-.178-.005-.434-.033-.561-.133l-.473.15c.111.04.395.067.528.078c.189.022.433.045.506-.1z"/><path fill="#222A35" d="M11.239 5c.022-.055.022-.033.039-.055c.01.183.01.1-.006.133h-.056c0-.028 0-.044.023-.078m-.05-.3c.027.078.044.034.005.14l-.166.477c.244-.022.022-.122.244-.15l.028.078c.022.066.072.133.122.15l-.089-.711z"/><path fill="#565676" d="M9.156 13.383c.05-.011.011.011.044-.028l.1-.2c.25-.455.4-.316.428-.744a.5.5 0 0 0-.139-.111c.028.15.04.2-.044.322c-.056.083-.106.139-.167.239c-.05.089-.083.166-.128.267c-.039.072-.133.188-.094.255"/><path fill="#938376" d="M16.689 17.866a.5.5 0 0 1 .083-.16c.045-.067.039-.056.122-.106l-.222-.067c-.133-.056-.206-.206-.256.222a.7.7 0 0 0 .278.111z"/><path fill="#444954" d="M4 9.094c.078-.016.24-.088.334-.127c.167-.067.205-.045.267-.2c-.123-.011-.245-.067-.373-.056c-.044.122-.183.267-.227.383m-.944-.16c.006.1.083.238.122.316c.1-.017.178-.1.24-.156c-.017-.116-.056-.238-.123-.305a.6.6 0 0 0-.233.144z"/><path fill="#F7F2EC" d="m9.056 4.278l-.006-.039l-.028-.067c-.022-.044-.038-.072-.05-.127c-.06-.073-.11-.295-.016-.356c.078-.055.333-.072.433-.067l.845-.01c-.39-.023-.756-.095-1.156-.04c-.206.028-.317.084-.244.306c.055.172.138.272.222.4"/><path fill="#222A35" d="m11.772 4.628l-.333.039l-.028.144c.072-.055 0-.033.1-.06l-.067.638c.29-.25.056-.683.278-.661c.04 0-.01.017.028 0l.017-.111z"/><path fill="#444954" d="M4.39 8.517c.066.055.222.083.333.077c.039-.077.117-.155.117-.266c-.206-.067-.44-.04-.445.189z"/><path fill="#B97E48" d="M5.412 8.078c.072.122.222.216.333.066c0-.066-.045-.166-.061-.255a1 1 0 0 1-.022-.306c-.178.123.033.411-.25.5z"/><path fill="#FFC639" d="M8.095 8.706c-.056-.178-.073-.478-.134-.556c.034.394-.083.367-.216.522l.033.095c.106.022.228-.028.317-.061"/><path fill="#F7F2EC" d="M10.922 6.189a1 1 0 0 0 .289.022c.039 0 .1 0 .139-.01c.111-.023.089-.034.094-.056l-.11-.112c-.05.078-.05.112-.145.14c-.228.05-.44-.112-.322-.406h-.262c.056.166.234.31.317.422"/><path fill="#FC3B3B" d="M9.872 15.633v-.205c-.11.044-.305.01-.416-.017c-.145-.028-.167-.056-.267-.095c-.044-.016-.039-.055-.039 0c.039.111.533.29.722.317m5.2-11.094l-.017.045c.156.072.223.066.367-.012c.078-.038.189-.15.2-.272c-.056-.055 0 .034-.211.145c-.089.044-.239.072-.306-.011z"/><path fill="#444954" d="M4.906 8.656c.1.01.178.055.261-.006a.6.6 0 0 0 .145-.217c-.09-.027-.212-.072-.273-.01a2 2 0 0 0-.133.233"/><path fill="#CF3636" d="M14.728 4.384c.055-.028.028.016.111 0c.05-.012.078-.05.111-.073c-.044-.116-.061-.233-.183-.277c-.078.044-.156.205-.083.305z"/><path fill="#B77D48" d="M10.134 4.206c.022.039.022 0-.012.044l-.044.045c.072.027.211.077.272.083c-.022-.161-.139-.206-.183-.322l.25-.067c-.194-.028-.311 0-.489.028c.111.111.178.083.206.189"/><path fill="#E1AB69" d="M14.794 11.855c.006 0 .195-.133.306-.166c.089-.017.256-.084.289-.167c.017-.056.039.006-.011-.056c-.111.034-.317.056-.39.117c-.038.039-.055.083-.1.14c-.038.05-.077.077-.094.132"/><path fill="#F7F2EC" d="M12.939 2.94c.067-.018.022.005.111-.095c.089-.106.472-.456.583-.472c.111-.017.223.055.29.133l.027.017c-.072-.134-.144-.2-.222-.223c-.256-.089-.545.373-.789.64"/><path fill="#F9F7F5" d="M12.634 6.1c.005.045 0 .017.016.033c.128-.044.19-.055.278-.116l.111-.078c-.21 0-.239-.017-.322-.167z"/><path fill="#444954" d="m3.873 8.911l.011-.005s.133-.15.128-.245A.7.7 0 0 0 3.75 8.6c.01.072.083.25.122.311"/><path fill="#FC3B3B" d="M14.728 4.384c.033.066.061.127.161.138c.067-.077.072-.094.067-.21c-.04.022-.067.055-.111.066c-.09.022-.067-.022-.111 0z"/><path fill="#B77D48" d="m13.11 3.428l.157-.056c.044.09.022.15.11.206l-.01-.261a.38.38 0 0 0-.262.111z"/><path fill="#D3DCE6" d="M13.233 5.411c.067.078.045.056.09.14c.027-.056.082-.14.082-.206a.5.5 0 0 0-.172.066"/><path fill="#FDFDFD" d="M12.889 5.695c.039-.056.044-.056 0-.123c-.028.006-.055-.01-.055.056c0 .078.022.055.055.067"/><path fill="#F9F7F5" d="M10.928 5.945c.034-.012.05-.017.056-.056c0-.056-.022-.061-.028-.067c-.078 0-.067.073-.028.128z"/><path fill="#F43A3A" d="M11.217 5.078h.055c.017-.033.017.05.006-.133c-.017.022-.017 0-.04.055c-.016.034-.016.056-.021.078"/></g></svg>