<svg xmlns="http://www.w3.org/2000/svg" xmlns:xlink="http://www.w3.org/1999/xlink" width="24" height="24" viewBox="0 0 24 24"><g fill="none"><path fill="#000" d="M11.824 2h.364c3.065.124 5.559 1.324 7.477 3.588A9.8 9.8 0 0 1 22 11.8v.423a9.82 9.82 0 0 1-2.859 6.765A9.85 9.85 0 0 1 12.211 22h-.44a10.06 10.06 0 0 1-9.106-6.412A11.1 11.1 0 0 1 2 12.235v-.464a10.02 10.02 0 0 1 3.324-7.195A10 10 0 0 1 11.829 2z"/><path fill="#304631" d="M5.905 4.312a9.79 9.79 0 0 1 10.9-.847a9.6 9.6 0 0 1 4.294 4.87c.377.941.606 1.93.683 2.977a9.74 9.74 0 0 1-1.53 5.982a.1.1 0 0 1-.111 0a32 32 0 0 0-2.318-1.553a.08.08 0 0 1-.041-.065l-.088-1.74a.16.16 0 0 1 .035-.1c.194-.2.218-.436.082-.707a.13.13 0 0 1-.006-.105q.213-.636-.176-.953a.14.14 0 0 1-.053-.112c.006-.236-.106-.424-.118-.659c-.076-1.07-.164-2.118-.217-3.206c-.024-.5-.065-1-.13-1.488c-.04-.283-.406-.653-.582-.87a.35.35 0 0 1-.076-.236c.011-.324-.077-.806-.524-.777c-.5.03-.93-.135-1.412-.176a10 10 0 0 1-1.847-.318a2.5 2.5 0 0 0-1.194.024c-.588.147-1.177.2-1.765.341a12 12 0 0 0-2.453.853c-.211.1-.253.506-.33.712c-.123.341-.564.364-.74.694a1.1 1.1 0 0 0-.112.376c-.024.236-.065.483-.188.706a15 15 0 0 0-.824 1.859q-.281.765-.53 1.541a3.6 3.6 0 0 1-.258.618c-.141.264-.335.582-.412.876c-.059.271-.147.489.118.694q.309.237.588.506a.06.06 0 0 1-.006.053a.1.1 0 0 1-.023.018l-1.689 1.07a.094.094 0 0 1-.117-.005a3 3 0 0 1-.188-.506c-1-3.865.235-7.883 3.358-10.353z"/><path fill="#5548C8" d="M11.989 7.141a10 10 0 0 0-.46-2.606q-.036-.124.095-.14l.518-.077a.194.194 0 0 1 .211.123q.126.345.136.635c.029.736-.03 1.436.1 2.218c.005.035-.006.053-.042.053l-.511.018c-.036 0-.06-.018-.06-.053c-.01-.053.018-.118.013-.177z"/><path fill="#EEBD2F" d="M13.524 6.241c-.265.283-.482.665-.47 1.041q.01.088-.077.077l-.153-.012q-.069 0-.076-.07a13 13 0 0 1-.077-1.871a3 3 0 0 0-.147-.97c-.012-.048 0-.065.053-.06l.67.171a.12.12 0 0 1 .083.077c.165.488.176 1.023.223 1.529c0 .035-.006.065-.029.088m-2.688-1.317a1.5 1.5 0 0 0-.159-.26c-.03-.035-.018-.058.024-.07l.564-.117a.08.08 0 0 1 .1.058c.194.624.335 1.294.418 2.03q.039.394.006.788a.04.04 0 0 1-.024.012L11.4 7.4a.03.03 0 0 1-.035-.018v-.011a7 7 0 0 0-.53-2.447"/><path fill="#5548C8" d="M14.236 4.741q.23.583.064 1.194a.08.08 0 0 1-.059.06l-.47.1a.05.05 0 0 1-.054-.028l-.005-.02a9.5 9.5 0 0 0-.188-1.4c-.006-.03 0-.041.035-.041l.624.094a.06.06 0 0 1 .047.041zm-4.683.083v-.006h.006l.765-.194a.14.14 0 0 1 .13.029c.117.106.2.235.258.376c.282.695.447 1.495.482 2.4c0 .018-.005.024-.023.03l-.747.1a.03.03 0 0 1-.018-.012a.03.03 0 0 1-.011-.018a5.6 5.6 0 0 0-.842-2.705"/><path fill="#EEBD2F" d="m14.923 7.324l.135-.136c.036-.04.03-.07-.03-.088l-.24-.059a.04.04 0 0 1-.03-.023a.04.04 0 0 1 .006-.035c.094-.112.236-.318.16-.465a.9.9 0 0 0-.419-.453q-.06-.027-.04-.088c.118-.406.101-.84-.048-1.236a.04.04 0 0 1 .016-.027a.04.04 0 0 1 .031-.008l.706.118c.03.011.047.029.047.064q-.017.644.07 1.43q.063.522-.193 1.07c-.041.094-.118.13-.218.094c-.224-.07-.565-.105-.6-.4c0-.04.012-.058.059-.058q.301.018.488.294a.07.07 0 0 0 .049.026a.07.07 0 0 0 .051-.02m-5.565.317c-.117-.84-.158-1.794-.64-2.517c-.03-.047-.018-.071.029-.089l.529-.158a.1.1 0 0 1 .1.029q.21.213.324.47c.282.636.459 1.342.517 2.124c0 .053-.017.082-.07.088l-.694.118a.08.08 0 0 1-.095-.065"/><path fill="#5548C8" d="M15.783 6c.111.467.174.944.188 1.423a.09.09 0 0 1-.094.06h-.56c-.046 0-.064-.024-.046-.071c.159-.412.23-.747.2-1.012a14 14 0 0 1-.088-1.441c0-.047.017-.059.058-.059l.636.023q.07.002.035.065l-.065.13a.1.1 0 0 1-.094.058c-.412-.005-.23.595-.176.824zm-6.96 1.694a17 17 0 0 0-.746-1.6a1.9 1.9 0 0 0-.453-.588a.04.04 0 0 1 0-.03l.017-.011l.665-.3c.159-.07.277-.024.353.13c.353.74.412 1.376.53 2.352c.005.047-.012.07-.06.076l-.2.036a.1.1 0 0 1-.111-.065z"/><path fill="#EEBD2F" d="M7.071 6.253q.09-.246.17-.535a.106.106 0 0 1 .1-.083a.49.49 0 0 1 .436.27a14 14 0 0 1 .882 1.86a.05.05 0 0 1-.023.023l-.03.012a.1.1 0 0 1-.117-.047a23 23 0 0 0-.571-.882c-.13-.2-.394-.547-.665-.406a.253.253 0 0 0-.117.317c.058.16.17.306.323.436q.521.43.865.853a.2.2 0 0 1 .047.164l-.006.089c-.012.07-.041.082-.088.023a2 2 0 0 0-.341-.335l-.86-.636a1 1 0 0 0-.764-.17c-.035.006-.059-.012-.053-.047c.053-.518.635-.459.812-.906"/><path fill="#FFE364" d="M16.224 7.188c-.012-.294 0-.747.211-.982a.18.18 0 0 1 .206-.041c.024.011.041.03.06.053l.21.294a.06.06 0 0 1-.012.082a.1.1 0 0 1-.028.012c-.424.012-.453.37-.636.647c-.011.024-.023.018-.023-.006l.006-.035z"/><path fill="#EEBD2F" d="M13.794 7.041c.006-.035-.012-.059-.047-.059c-.03 0-.059 0-.088.012a.08.08 0 0 0-.06.077c-.023.27.024.54.13.823v.059q-.01.07-.07.07c-.024 0-.042 0-.06-.017q-.659-.591-.164-1.394q.246-.406.765-.424c.335-.012.67.294.482.635a.09.09 0 0 1-.07.048a.72.72 0 0 1-.477-.089q-.046-.024-.03-.076c.048-.135 0-.23-.117-.277a.12.12 0 0 0-.141.042a.12.12 0 0 0-.03.094c.006.04.03.058.071.07c.082.018.106.07.07.147a.09.09 0 0 0 .042.112a.18.18 0 0 1 .106.182a.08.08 0 0 1-.071.083a.5.5 0 0 0-.218.094q-.061.051-.053-.03l.03-.176z"/><path fill="#5548C8" d="M17.03 7.318v.035a.06.06 0 0 1-.03.03a1.35 1.35 0 0 0-.612.517q-.006 0-.01-.003l-.007-.009l-.106-.235v-.041c.117-.236.223-.47.34-.694c.054-.089.154-.142.307-.147q.06-.002.059.058a1.4 1.4 0 0 0 .058.489"/><path fill="#FFE364" d="M14.182 7.482c-.106.006-.218.012-.318.077c-.035.023-.058.012-.058-.03a.1.1 0 0 1 .035-.094a.8.8 0 0 1 .259-.13c.059-.017.094 0 .117.054l.018.035q.008.015.008.03a.06.06 0 0 1-.06.058"/><path fill="#5548C8" d="M8.224 8.482a.47.47 0 0 1 .13.424q-.018.063-.071.03a5.6 5.6 0 0 0-2.253-.848a.05.05 0 0 1-.018-.035v-.024c.1-.17.17-.352.206-.558a.094.094 0 0 1 .077-.083a.87.87 0 0 1 .676.118c.435.294.894.6 1.253.976"/><path fill="#EEBD2F" d="m17.047 8.3l-.235.153a.07.07 0 0 1-.095-.012l-.27-.312a.07.07 0 0 1 0-.094l.47-.453a.07.07 0 0 1 .074-.013a.07.07 0 0 1 .044.06l.047.606a.07.07 0 0 1-.035.065M12.029 8c-1.065.094-2.394.694-2.588 1.865c-.088.517-.03.988.165 1.406c.011.03.006.058-.018.076l-.506.424q-.07.07-.159 0a.8.8 0 0 1-.323-.547c-.13-1.042-.094-2.106-.059-3.148q.001-.052.03-.088a.14.14 0 0 1 .088-.04a23 23 0 0 0 1.564-.19c.56-.087 1.153-.176 1.73-.146c.341.017.706.017 1.117.012q.026-.002.042.023l.158.324q.007.017-.011.017A7 7 0 0 0 12.023 8z"/><path fill="#FFE364" d="M14.312 7.824a.9.9 0 0 0-.382-.06c-.059.013-.065-.005-.018-.04a.44.44 0 0 1 .33-.089c.088.012.13.06.117.153a.04.04 0 0 1-.014.03a.04.04 0 0 1-.033.005m1.806.205l-1.3-.094a.04.04 0 0 1-.03-.029v-.177a.035.035 0 0 1 .024-.035l1.16-.047a.04.04 0 0 1 .029.018l.147.317a.035.035 0 0 1-.012.041h-.018zm-2.023.177c.135 0 .247-.059.24-.135c0-.077-.11-.136-.246-.13c-.136 0-.236.06-.236.136s.106.135.242.129"/><path fill="#38953C" d="M16.236 11.776a2.2 2.2 0 0 1-.9-.311q-.241-.15.04-.106c.136.017.29.07.418.065c.4-.012.765-.012 1.106.011c.37.024.506.335.442.659c-.089.453-.283.859-.765.941l-.706.141a5.2 5.2 0 0 1-2.059-.023c-.782-.147-1.53-.288-2.294-.524a9 9 0 0 0-1.341-.306a.506.506 0 0 0-.518.748c.2.37 1.1.747 1.382.823q.399.105.736.23c.788.276 1.576.364 2.459.446c.87.083 1.764-.047 2.647-.058a.16.16 0 0 1 .152.129a.2.2 0 0 1 0 .07c-.088.383-.423.889-.858.96c-.035.005-.059 0-.07-.036c-.1-.2-.295-.553-.536-.582c-.412-.053-.906.165-.906.63c0 .046-.023.076-.076.076c-.824.011-1.565-.006-2.383-.153c-.647-.118-1.276-.153-1.917-.353c-.453-.135-1.042-.318-1.312-.706a1.5 1.5 0 0 1-.212-.588a7.2 7.2 0 0 1-.118-1.765a.7.7 0 0 1 .1-.276c.018-.036.047-.047.083-.024l.159.082a.09.09 0 0 0 .105-.011l.63-.483A.2.2 0 0 0 9.8 11.3c-.106-.653-.176-1.247.224-1.824a2.8 2.8 0 0 1 2.188-1.247c.712-.058 1.53-.017 1.794.777c.12.34.162.7.124 1.059l-.013.01l-.015.005a.04.04 0 0 1-.031-.01a1.86 1.86 0 0 0-1.218-.558c-.217-.012-.588.04-1.106.164a.16.16 0 0 0-.111.083a.1.1 0 0 0-.012.059a.065.065 0 0 0 .059.058h.023c.374-.117.762-.18 1.153-.188c.47.053.847.235 1.135.57c.118.136.095.16-.058.089a3.52 3.52 0 0 0-2.76-.012a.6.6 0 0 0-.234.177a.176.176 0 0 0 .082.276c.218.06.312-.176.565-.059c.47.224.911.36 1.335.412q.6.06 1.094-.33q.116-.087.047.036a.44.44 0 0 1-.206.194a2.83 2.83 0 0 1-1.588.277c-.024 0-.041 0-.053.011a.06.06 0 0 0-.03.041v.03q-.017.087.071.094a2.74 2.74 0 0 0 1.618-.27l.012.029c.011.012.006.018 0 .03a4.4 4.4 0 0 1-.877.676a.05.05 0 0 0 0 .053l.018.023c.03.041.064.053.112.03q.633-.371 1.17-.847q.043-.034.094-.024c.118.03.236.047.33.112c.452.294.9.576 1.44.647a.1.1 0 0 0 .113-.082v-.024a.06.06 0 0 0-.012-.047a.06.06 0 0 0-.041-.024"/><path fill="#38953C" d="M14.83 9.2q-.207.07-.394.188q-.069.046-.06-.041a.94.94 0 0 0-.146-.618a.2.2 0 0 1 .018-.247a.2.2 0 0 1 .07-.047A3.5 3.5 0 0 1 15.43 8.2c.306-.024.576-.018.794.235q.29.344.43.653c.011.03.017.059.005.083c-.035.117-.117.188-.24.229q-.354.104-.671.165c-.324.058-.606.223-.906.306q-.299.088-.13-.177a1 1 0 0 1 .37-.323a.09.09 0 0 0 .048-.112a.09.09 0 0 0-.059-.059a.4.4 0 0 0-.235 0z"/><path fill="#EEBD2F" d="M5.965 8.265c.782.1 1.664.394 2.312.853a.16.16 0 0 1 .064.13l.018.546q0 .078-.07.059a22 22 0 0 0-1.736-.482a4 4 0 0 0-1.088-.089l-.018-.011a.04.04 0 0 1 0-.036l.412-.911a.11.11 0 0 1 .106-.06"/><path fill="#5548C8" d="M16.924 8.565a.3.3 0 0 1 .082-.041c.059-.012.088.005.094.07v.13q.001.077-.059.04a.3.3 0 0 1-.135-.111q-.036-.053.018-.088M4.97 10.54l.364-1.035a.12.12 0 0 1 .106-.077a6 6 0 0 1 1.512.2l1.306.377a.13.13 0 0 1 .1.117l.023.577c0 .059-.029.088-.088.07a10 10 0 0 0-2.082-.282a5.4 5.4 0 0 0-1.2.094c-.041.012-.059-.006-.041-.04"/><path fill="#38953C" d="M15.088 9.982q.636-.3 1.37-.3c.253 0 .371.142.371.418c0 .059-.024.065-.065.03l-.117-.1a.26.26 0 0 0-.13-.06a1.92 1.92 0 0 0-1.176.118q-.255.117-.53.136c-.04 0-.059-.012-.047-.047q.002-.046.047-.065z"/><path fill="#fff" d="M15.677 10.412c.059-.047.082-.13.041-.177c-.035-.053-.118-.058-.176-.011c-.06.047-.083.123-.047.176c.04.047.117.053.176.006z"/><path fill="#fff" d="M16.112 10.712c.259-.07.4-.235.412-.47a.04.04 0 0 1 .017-.036a.04.04 0 0 1 .036 0l.03.012q.059.016.058.088c0 .306-.235.441-.488.53c-.47.176-1.118.035-1.56-.16a.07.07 0 0 1-.041-.047a.07.07 0 0 1 .012-.059a.25.25 0 0 1 .177-.105c.176-.024.341-.07.476-.142c.03-.017.06-.005.07.024c.16.347.43.47.8.365m-3.247.111c.3.048.518-.088.635-.405l.017-.022l.024-.014a.07.07 0 0 1 .053 0l.353.147a.06.06 0 0 1 .036.06l-.012.023c-.206.253-.488.3-.789.365a.7.7 0 0 1-.264 0a6.4 6.4 0 0 1-1.27-.395a.47.47 0 0 0-.518.065a.03.03 0 0 1-.042 0a.03.03 0 0 1-.005-.018a.03.03 0 0 1 .005-.017a.3.3 0 0 1 .189-.153q.471-.13.953-.218l.017.024a.74.74 0 0 0 .618.558"/><path fill="#fff" d="M12.588 10.447a.109.109 0 1 0 0-.217a.109.109 0 0 0 0 .217m3.776-.106q.008.008.012.018a.06.06 0 0 1 0 .041l-.012.018l-.1.106a.2.2 0 0 1-.047.04a.2.2 0 0 1-.059.018h-.053a.1.1 0 0 1-.04-.023l-.03-.03a.1.1 0 0 1-.03-.088a.2.2 0 0 1 .06-.112l.1-.105a.053.053 0 0 1 .07 0zm-3.376.118c-.06.1-.047.218.03.265c.076.047.182 0 .24-.095c.06-.1.047-.217-.029-.258c-.07-.047-.182-.006-.241.088m2.794.147a.09.09 0 0 0 .088-.088a.1.1 0 0 0-.026-.063a.089.089 0 0 0-.15.063a.09.09 0 0 0 .088.088m-3.124-.076a.077.077 0 0 1 .102-.027q.016.01.028.027a.12.12 0 0 1 .011.1a.07.07 0 0 1-.082.041a.1.1 0 0 1-.03-.012c-.04-.035-.058-.077-.029-.124z"/><path fill="#38953C" d="M14.795 10.924c.611.211 1.53.317 1.976-.312c0-.006 0-.012.012-.012a.03.03 0 0 1 .035.012q.256.369-.159.517q-.284.099-.576.1c-.441 0-.882-.058-1.312-.17c-.023 0-.041-.024-.041-.053v-.035l.004-.023l.014-.018a.05.05 0 0 1 .047-.006"/><path fill="#EEBD2F" d="M4.459 11.947c.177-.265.282-.694.359-1.017a.22.22 0 0 1 .188-.177c1.082-.218 2.3-.053 3.347.2c.012 0 .024.012.024.03l.14.74v.018a.02.02 0 0 1-.017 0a14.3 14.3 0 0 0-2.57-.076c-.412.03-.883.153-1.389.376c-.129.059-.153.024-.082-.094"/><path fill="#000" d="M10.506 10.824a1 1 0 0 0 .411.088c.06 0 .083.03.06.088v.024a.106.106 0 0 1-.113.076a1 1 0 0 1-.376-.106c-.047-.023-.059-.059-.059-.1l.006-.03a.05.05 0 0 1 .024-.035a.05.05 0 0 1 .047 0z"/><path fill="#5548C8" d="M4.341 12.277c.447-.183 1.03-.412 1.512-.441a13.4 13.4 0 0 1 2.524.058a.124.124 0 0 1 .105.13l-.017.44c0 .083-.041.118-.124.118c-.435-.011-.853 0-1.264.03q-.616.046-1.171.117a4 4 0 0 0-1.765.648a.117.117 0 0 1-.153-.04a.1.1 0 0 1-.017-.054c.011-.348.106-.665.3-.947a.15.15 0 0 1 .07-.06"/><path fill="#000" d="M9.146 12.5c.118-.294.294-.494.518-.588h.035l.018.03c.03.04.023.07-.018.1a1.1 1.1 0 0 0-.417.529l-.024.03a.04.04 0 0 1-.03 0l-.04-.013a.06.06 0 0 1-.042-.035a.07.07 0 0 1 0-.059z"/><path fill="#EA4734" d="m10.259 12.959l-.006.023c0 .06.018.095.076.112c.671.212 1.383.418 2.118.624c.435.117.87.159 1.318.247a6 6 0 0 0 1.647.035c.294-.059.594-.112.917-.147c.424-.041.747-.235 1.118-.37c.065-.024.106 0 .118.058a.18.18 0 0 1-.03.147a.7.7 0 0 1-.259.224c-.352.164-.705.34-1.1.394a10.3 10.3 0 0 1-3.094-.041c-.694-.094-1.294-.324-1.94-.518a4.1 4.1 0 0 1-1.136-.541q-.316-.212-.218-.53c.041-.117.124-.176.259-.176c.588 0 1.218.23 1.824.394q1.501.417 2.623.524c.506.04.906.035 1.2-.036q.495-.113.953-.182q.267-.044.541-.212c.153-.1.177-.27.241-.43q.006-.014.017-.026a.07.07 0 0 1 .06-.02q.015.003.03.011c.217.118.082.5-.06.624c-.311.277-.605.43-.882.47l-1.206.2a5.7 5.7 0 0 1-1.694-.058c-.347-.065-.688-.077-1.018-.165a45 45 0 0 1-2.376-.682a.05.05 0 0 0-.03.015a.05.05 0 0 0-.011.032"/><path fill="#EEBD2F" d="M4.282 13.47a3.7 3.7 0 0 1 1.583-.564a19 19 0 0 1 2.547-.17q.035-.002.035.04l-.023.671a.04.04 0 0 1-.048.041a4 4 0 0 0-1.423.236q-.494.201-1.059.411q-.302.107-.576.27c-.03.024-.06.019-.083 0l-.953-.846q-.053-.046 0-.088"/><path fill="#5548C8" d="M5.736 14.377q.726-.305 1.47-.56a4.5 4.5 0 0 1 1.177-.17c.035 0 .047.018.047.047l-.047.782q-.002.043-.047.042c-.783.023-1.553.129-2.318.317a2 2 0 0 0-.47.183c-.06.03-.089.017-.1-.042l-.095-.323c-.011-.053 0-.088.047-.118c.106-.059.218-.106.336-.159"/><path fill="#EEBD2F" d="M5.218 14.73q.114.351.123 1.011c0 .059-.017.059-.053.024a15 15 0 0 1-.953-1.253a.07.07 0 0 1 .024-.1l.312-.212q.046-.027.082 0c.241.147.394.33.465.53"/><path fill="#5548C8" d="m4.353 14.924l-.482.429a.076.076 0 0 1-.106-.006l-.259-.282a.076.076 0 0 1 .012-.112l.594-.382a.08.08 0 0 1 .059-.012a.07.07 0 0 1 .047.035l.147.236a.076.076 0 0 1-.018.094z"/><path fill="#EEBD2F" d="M5.66 15.118a9.1 9.1 0 0 1 2.664-.412c.018 0 .024 0 .024.018l-.024.723q.001.029-.023.03a15 15 0 0 0-2.665.211c-.106.024-.153-.023-.147-.13l.012-.217a.23.23 0 0 1 .158-.217zm-1.73.382l.53-.459a.04.04 0 0 1 .046-.006l.012.012l.27.353a.04.04 0 0 1 .013.027a.04.04 0 0 1-.012.026l-.506.5a.04.04 0 0 1-.031.013a.04.04 0 0 1-.028-.019l-.294-.4a.035.035 0 0 1 0-.047m-.67-.418l-.43.289a.07.07 0 0 0-.018.1a.07.07 0 0 0 .1.017l.43-.288a.07.07 0 0 0 .017-.1a.07.07 0 0 0-.1-.018"/><path fill="#5548C8" d="M17.553 15.624c-.2 0-.36-.03-.553.017c-.024 0-.042-.006-.053-.03v-.029l.017-.017l.589-.353a.03.03 0 0 1 .029 0l.006.017v.012q-.02.173.018.341l-.011.021l-.019.015h-.023zm-14.577.023l.412-.312a.13.13 0 0 1 .176.024l.265.312a.13.13 0 0 1-.012.176l-.435.453a.13.13 0 0 1-.212-.03l-.235-.458a.13.13 0 0 1 .041-.165m2.288.365l-.517.453l-.012.009a.04.04 0 0 1-.041-.01l-.306-.34a.035.035 0 0 1 0-.053l.488-.495l.013-.009a.04.04 0 0 1 .04.01l.341.382v.012a.04.04 0 0 1 0 .03z"/><path fill="#FFE364" d="m15.989 16.059l-.542-.265q-.052-.028-.04-.082q.026-.124.14-.106l.089.012c.253.011.388.152.394.411a.03.03 0 0 1-.041.03"/><path fill="#5548C8" d="M8.371 16.265a.03.03 0 0 1-.023.03l-2.018.117a6 6 0 0 1-.565-.006c-.153-.012-.235-.041-.235-.07l-.03-.424q-.001-.028.06-.047l.17-.053a3 3 0 0 1 .565-.065l2.011-.117a.03.03 0 0 1 .03.029z"/><path fill="#FFE364" d="M15.2 15.635c.053-.011.07.006.053.06a1.4 1.4 0 0 1-.318.5c-.023.029-.047.023-.059-.013q-.143-.414.324-.547"/><path fill="#38953C" d="m12.859 16.588l-.036.018a.06.06 0 0 0-.029.041a.06.06 0 0 0 .018.047c.2.224.665.5.965.294a3 3 0 0 0 .294-.247a.12.12 0 0 0 .047-.094a.4.4 0 0 1 .14-.27a.124.124 0 0 1 .148 0a.12.12 0 0 1 .053.135l-.083.27a.1.1 0 0 1-.058.065c-.36.176-.647.27-.86.294q-.456.045-1.01.035a2.12 2.12 0 0 1-2.06-1.37a.094.094 0 0 1 .07-.094a.84.84 0 0 1 .383-.012c.465.088.918.177 1.394.188q.671.019 1.306.065c.124.012.241.035.365.076a.177.177 0 0 1 .118.206c-.042.165-.024.36-.148.483c-.417.394-.647.053-1-.13z"/><path fill="#EEBD2F" d="m17.618 15.841l.059.512q.001.045-.041.035a4 4 0 0 0-1-.035q-.241.025-.188-.206s0-.035.017-.088q.046-.247.294-.247l.806-.018c.035 0 .047.018.053.047m-14.206.63l.53-.524a.06.06 0 0 1 .068-.014l.02.014l.294.341a.06.06 0 0 1 .012.065l-.018.018l-.559.453a.06.06 0 0 1-.076 0l-.27-.277a.06.06 0 0 1-.018-.035q0-.024.017-.041"/><path fill="#FFE364" d="m15.03 16.647l-.077-.2a.07.07 0 0 1 .024-.076a1 1 0 0 0 .317-.36c.018-.034.041-.052.082-.046a.3.3 0 0 1 .148.076c.029.036.04.07.023.118a.9.9 0 0 1-.447.518q-.053.027-.07-.024zm.635-.335a.3.3 0 0 0 .047-.124c0-.047.023-.059.059-.047a.61.61 0 0 1 .429.565c0 .035-.006.041-.035.018a1 1 0 0 0-.488-.236c-.048 0-.06-.03-.06-.07a.3.3 0 0 1 .048-.106"/><path fill="#EEBD2F" d="M5.376 16.212a2.3 2.3 0 0 0 .059.83q.028.114-.059.034l-.494-.44q-.045-.047 0-.083l.423-.377a.04.04 0 0 1 .023-.01a.04.04 0 0 1 .024.005q.012.006.018.017z"/><path fill="#5548C8" d="m4.506 16.488l.488.46a.06.06 0 0 1 .018.046a.07.07 0 0 1-.018.047l-.453.412a.06.06 0 0 1-.068.015l-.02-.015l-.547-.459a.06.06 0 0 1-.024-.047a.06.06 0 0 1 .024-.053l.517-.406a.06.06 0 0 1 .083 0"/><path fill="#EEBD2F" d="m5.618 17.118l-.088-.47c0-.048.012-.066.059-.066l2.735-.076q.029-.001.03.023l.1.948q0 .026-.024.017a33 33 0 0 0-2.059-.176a3 3 0 0 1-.688-.118a.09.09 0 0 1-.065-.076z"/><path fill="#5548C8" d="m17.705 16.959l-1.147-.13a.04.04 0 0 1-.02-.012a.04.04 0 0 1-.009-.023l-.018-.241v-.015l.006-.014a.03.03 0 0 1 .03-.012l1.117.03a.04.04 0 0 1 .02.01a.03.03 0 0 1 .01.019l.047.352v.012a.035.035 0 0 1-.035.023"/><path fill="#FFE364" d="M15.188 17.294a1.3 1.3 0 0 0-.118-.376c-.011-.03 0-.053.03-.06a.84.84 0 0 0 .335-.205a.11.11 0 0 1 .088-.035c.06 0 .106.03.148.07q.045.055.011.118c-.114.205-.27.384-.459.523a.035.035 0 0 1-.035-.029zm.618-.312l.059-.205q.01-.064.064-.03q.265.177.388.441a.05.05 0 0 1-.005.046a.05.05 0 0 1-.042.019a.7.7 0 0 1-.44-.188a.1.1 0 0 1-.025-.038a.1.1 0 0 1 0-.045m3.23-.24l.381.24a.04.04 0 0 1 .018.047l-.012.018l-.164.17l-.014.01a.04.04 0 0 1-.032 0l-.013-.01l-.383-.317a.04.04 0 0 1-.017-.035a.04.04 0 0 1 .023-.03l.17-.1a.04.04 0 0 1 .041 0z"/><path fill="#EEBD2F" d="M10.571 20.941c.244.252.554.429.894.512l.012.018l.006.023c0 .006 0 .012-.012.012c-.84 0-1.6-.088-2.264-.265a22 22 0 0 1-1.318-.412a5.3 5.3 0 0 1-1.212-.576A10.45 10.45 0 0 1 3.536 17a.04.04 0 0 1 0-.035c.018-.053.053-.06.094-.018c.825.792 1.743 1.48 2.735 2.047c.195.118.353.359.565.406c.17.035.33.041.488.123c1.006.524 1.994.824 3.124 1.077c.047.012.059.035.047.082l-.041.118a.12.12 0 0 0 .023.135z"/><path fill="#5548C8" d="m18.66 16.982l.4.341a.04.04 0 0 1 .011.024a.03.03 0 0 1-.012.03l-.317.252a.035.035 0 0 1-.047-.011l-.242-.377a.04.04 0 0 1 0-.041l.16-.212a.035.035 0 0 1 .046-.006"/><path fill="#FFE364" d="m17.777 17.541l-1.077-.135a.04.04 0 0 1-.03-.023l-.064-.33q0-.008.003-.014l.007-.011a.03.03 0 0 1 .025-.01l1.083.135a.04.04 0 0 1 .029.024l.059.323a.04.04 0 0 1-.012.03a.04.04 0 0 1-.023.011"/><path fill="#EEBD2F" d="m5.147 18.035l-.476-.376a.08.08 0 0 1-.03-.058a.08.08 0 0 1 .024-.06l.459-.4c.023-.017.047-.023.07-.006a.6.6 0 0 1 .271.265q.17.37-.165.635q-.072.061-.153 0"/><path fill="#5548C8" d="m20.083 17.53l-.471.488a.047.047 0 0 1-.065 0l-.417-.395a.05.05 0 0 1-.017-.027a.05.05 0 0 1 .005-.031l.012-.012l.459-.43a.05.05 0 0 1 .058 0l.43.336a.05.05 0 0 1 .016.035l-.005.02l-.011.015z"/><path fill="#FFE364" d="M15.453 17.9q-.087.028-.111-.059l-.071-.235a.1.1 0 0 1 .03-.1l.352-.335a.05.05 0 0 1 .03-.012l.018.002l.017.01a1 1 0 0 0 .118.123c.258.247-.177.535-.383.606"/><path fill="#EEBD2F" d="M10.8 18.93a11.5 11.5 0 0 1-1.553-.583a6.1 6.1 0 0 0 1.823-.206q.072.019.03.083a1.2 1.2 0 0 0-.224.652q.001.078-.076.06z"/><path fill="#5548C8" d="M8.465 17.659c.03 0 .053.018.058.053l.077.364q.007.062-.047.06c-.9.017-1.794-.071-2.67-.265a.22.22 0 0 1-.189-.194l-.041-.206q-.019-.124.094-.089c.235.06.47.095.688.106c.624.03 1.294.083 2.03.17"/><path fill="#FFE364" d="M15.976 17.73a.36.36 0 0 0 .118-.277a.05.05 0 0 1 .018-.041a.05.05 0 0 1 .04-.006l.136.03c.041.005.059.035.059.076q-.001.202.059.388c.017.059 0 .082-.059.059l-.341-.13c-.059-.023-.065-.058-.03-.1m2.336.123l.011-.4a.036.036 0 0 1 .036-.034q.01 0 .017.005l.012.011l.17.283a.036.036 0 0 1-.011.047l-.182.117a.036.036 0 0 1-.048-.012z"/><path fill="#5548C8" d="m16.789 17.6l1.011.118q.021.005.033.021q.01.017.009.037l.017.306a.05.05 0 0 1-.03.055l-.023.004l-.923-.04a.05.05 0 0 1-.047-.036l-.106-.4l.003-.024a.05.05 0 0 1 .056-.035z"/><path fill="#EEBD2F" d="m18.964 17.706l.441.388a.05.05 0 0 1 .018.035a.05.05 0 0 1-.024.042l-.382.282a.05.05 0 0 1-.059 0l-.406-.424a.05.05 0 0 1-.006-.058l.012-.018l.347-.247a.05.05 0 0 1 .059 0"/><path fill="#FFE364" d="M12.177 20.153a1.16 1.16 0 0 1-.824-.377a1.193 1.193 0 0 1 .447-1.923a1.16 1.16 0 0 1 1.27.294a1.195 1.195 0 0 1-.44 1.93a1.1 1.1 0 0 1-.453.076"/><path fill="#EEBD2F" d="M13.665 19.13c-.047.011-.07-.006-.07-.06q0-.37-.177-.723c-.023-.035-.011-.059.03-.059a6.2 6.2 0 0 0 1.653-.47c.023 0 .04 0 .047.023l.235.747c0 .018 0 .03-.018.036q-.831.324-1.706.506z"/><path fill="#000" d="m12.847 18.935l-.588.294q-.02.008-.012.024l.011.023q.017.036.06.018l.57-.312q.043.046.059.088a.16.16 0 0 1-.036.089q-.295.427-.588.859a.105.105 0 0 1-.135-.03l-.635-.859c-.042-.059-.036-.106.017-.153c.024-.023.018-.047-.006-.07c-.053-.035-.059-.082-.023-.13q.325-.465.67-.917a.06.06 0 0 1 .077.023c.206.294.4.606.588.918q.052.09-.03.135"/><path fill="#FFE364" d="m15.524 18.453l-.118-.323a.05.05 0 0 1 0-.042l.018-.017l.023-.006a.44.44 0 0 0 .3-.124a.1.1 0 0 1 .147.006l.024.053c.035.235-.065.394-.306.488q-.061.027-.088-.035"/><path fill="#5548C8" d="m5.605 18.047l.118.294a.035.035 0 0 1-.018.041a.04.04 0 0 1-.023.01a.04.04 0 0 1-.024-.01l-.247-.188a.04.04 0 0 1-.017-.03a.04.04 0 0 1 .011-.029l.136-.106l.017-.004q.01 0 .018.004a.04.04 0 0 1 .03.018"/><path fill="#FFE364" d="m16.124 18.077l.27.058c.041.006.06.036.07.077l.007.082c.006.035-.012.047-.047.047a.46.46 0 0 1-.271-.076c-.059-.047-.076-.106-.041-.183h.012z"/><path fill="#5548C8" d="m18.482 18.706l-.153-.582a.04.04 0 0 1 .02-.035a.04.04 0 0 1 .02-.004q.01.001.019.01l.411.434a.035.035 0 0 1 0 .042l-.005.011l-.265.147a.03.03 0 0 1-.03 0l-.011-.011z"/><path fill="#fff" d="M11.94 18.624c-.04.017-.052.006-.023-.036l.177-.276q.034-.061.053.011q.046.204-.2.3z"/><path fill="#38953C" d="m12.377 18.347l.159.224c.035.047.023.058-.036.047q-.203-.054-.159-.265c0-.03.018-.035.036-.006"/><path fill="#EEBD2F" d="m14.3 20.912l-.129-.165a.06.06 0 0 1-.012-.065a.07.07 0 0 1 .053-.047l1.27-.27q.302-.062.577-.194c.036-.012.06-.006.089.011c.394.336.858.153 1.217-.153c.136-.117.177-.247.106-.388c-.018-.041-.012-.07.03-.088a15 15 0 0 0 1.8-1.118c.206-.147.223-.13.058.06a10.3 10.3 0 0 1-2.67 2.117c-.541.306-1.053.53-1.67.647q-.585.106-1.177.17q-.175.02-.024-.076c.183-.118.36-.17.489-.353a.07.07 0 0 0 0-.082z"/><path fill="#FFE364" d="m15.724 18.976l-.117-.235c-.012-.041 0-.059.035-.076a.7.7 0 0 0 .247-.142q.325-.29.253.142q-.046.248-.33.347h-.052a.07.07 0 0 1-.036-.036m.582-.094c-.029-.011-.035-.035-.023-.059a.6.6 0 0 0 .047-.247q.002-.054.047-.064a.12.12 0 0 1 .094.023a.1.1 0 0 1 .06.088c.01.1.034.2.058.289c.024.07 0 .094-.065.059zm-6.635-.076l-.1.418c-.006.04-.035.058-.076.058a.2.2 0 0 1-.088-.029a.11.11 0 0 1-.059-.094a2 2 0 0 0-.089-.547c-.023-.059 0-.077.06-.047l.317.158q.053.028.035.083"/><path fill="#304631" d="M11.93 18.824a.25.25 0 0 1 .165-.053c.035.005.058.023.058.058v.13c0 .047-.023.059-.059.035l-.164-.094q-.062-.046 0-.082z"/><path fill="#5548C8" d="m10.124 18.882l-.223-.059a.05.05 0 0 0-.036.003a.05.05 0 0 0-.023.027l-.118.447c0 .023.012.047.035.059l.224.059a.06.06 0 0 0 .059-.036l.117-.447l.002-.019l-.006-.018a.05.05 0 0 0-.03-.022z"/><path fill="#304631" d="M12.529 18.882a.26.26 0 0 1-.118.071c-.041.012-.059 0-.059-.047v-.059c0-.047.018-.059.059-.059l.094.018a.05.05 0 0 1 .034.02a.05.05 0 0 1 .007.039z"/><path fill="#EEBD2F" d="m14.859 18.988l.488-.17q.015-.004.028.003a.04.04 0 0 1 .019.02l.188.47a.04.04 0 0 1-.012.042l-.011.012l-.53.147a.04.04 0 0 1-.053-.024l-.14-.453a.04.04 0 0 1 .023-.047m3.064-.07c.13 0 .26-.03.377-.077c.058-.023.07-.012.023.036a2 2 0 0 1-.294.211q-.06.045-.112-.017a.2.2 0 0 1-.04-.095q-.021-.059.046-.058"/><path fill="#5548C8" d="M17.794 19.165q.02.027-.006.035l-.44.23c-.018.011-.03 0-.036-.018l-.112-.488c-.011-.047.006-.06.047-.047a.9.9 0 0 0 .324.047q.063 0 .1.053z"/><path fill="#FFE364" d="m10.641 19.588l-.4-.106a.05.05 0 0 1-.035-.058l.112-.412a.05.05 0 0 1 .041-.041h.023l.336.117q.017.005.028.02t.007.033l-.047.412a.05.05 0 0 1-.041.041h-.024z"/><path fill="#304631" d="M11.8 19.018c.035.017.07.035.106.064c.035.036.03.047-.024.042a.3.3 0 0 1-.176-.112q-.027-.035.018-.035c.017 0 .035.011.046.023a.03.03 0 0 0 .03.018"/><path fill="#FFE364" d="m15.953 19.547l-.13-.294c-.023-.047-.005-.077.042-.088l.106-.03a.2.2 0 0 0 .118-.088c.04-.059.094-.059.152-.006a.11.11 0 0 1 .03.118a1.1 1.1 0 0 1-.253.4c-.024.03-.047.023-.059-.012z"/><path fill="#5548C8" d="m14.624 19.07l-.353.089a.06.06 0 0 0-.044.052q0 .013.003.024l.1.383a.06.06 0 0 0 .07.047l.353-.088l.022-.011a.06.06 0 0 0 .02-.066l-.095-.388a.06.06 0 0 0-.052-.044z"/><path fill="#FFE364" d="m16.43 19.312l.023-.118a.06.06 0 0 1 .053-.053c.03 0 .059 0 .088.012c.035.018.059.041.059.076c.006.042-.006.06-.041.071l-.153.035q-.037.01-.03-.023m-2.606.417l-.124-.364a.06.06 0 0 1 0-.041a.06.06 0 0 1 .035-.03l.26-.088a.06.06 0 0 1 .035.001a.06.06 0 0 1 .029.022l.012.024l.088.412v.023a.06.06 0 0 1-.047.047l-.224.036a.06.06 0 0 1-.059-.042z"/><path fill="#fff" d="m12.1 19.577l-.135-.2c-.024-.041-.018-.06.029-.036q.179.07.17.218q-.001.114-.064.018"/><path fill="#EEBD2F" d="m9.782 19.577l-.1.588a.06.06 0 0 1-.023.035a.06.06 0 0 1-.042 0l-.494-.153A.06.06 0 0 1 9.082 20v-.023l.218-.536a.06.06 0 0 1 .059-.035l.382.106a.06.06 0 0 1 .03.022a.06.06 0 0 1 .011.037z"/><path fill="#5548C8" d="M10.907 19.424q.015-.054.04 0l.089.223c.018.035 0 .047-.035.035l-.095-.04a.04.04 0 0 1-.023-.03a.3.3 0 0 1 .024-.188"/><path fill="#38953C" d="M12.488 19.4c.042-.012.047 0 .03.035a.5.5 0 0 1-.118.153q-.06.046-.059-.023c.006-.089.06-.142.147-.165"/><path fill="#FFE364" d="M8.06 19.653c-.089-.041-.189-.082-.26-.147c-.04-.035-.035-.053.018-.041l.294.053c.036 0 .047.023.036.058l-.018.053c-.018.036-.035.041-.07.024"/><path fill="#5548C8" d="M8.317 19.753a.06.06 0 0 1-.041-.059q-.001-.081.059-.135a.12.12 0 0 1 .088-.036q.309.02.618-.058q.072-.025.047.047l-.16.412a.06.06 0 0 1-.02.034a.06.06 0 0 1-.038.013h-.023z"/><path fill="#FFE364" d="M16.154 19.665c.164-.124.335-.188.494-.177c.117 0 .117.024.017.077l-.476.235c-.03.018-.047.012-.059-.024v-.029c-.012-.03 0-.059.024-.082"/><path fill="#5548C8" d="m15.7 20.088l-.236-.453a.05.05 0 0 1-.005-.047l.011-.017l.018-.012l.206-.065a.05.05 0 0 1 .059.03l.211.459q.007.015.004.03a.05.05 0 0 1-.015.028l-.018.006l-.176.07a.054.054 0 0 1-.059-.03m-2.206-.235a.04.04 0 0 1-.035-.018a.04.04 0 0 1 0-.035l.082-.206c.024-.059.047-.059.059 0l.047.153c.006.035 0 .059-.035.077a.3.3 0 0 1-.118.029m-3.135-.118l-.036.583a.04.04 0 0 1-.017.03a.04.04 0 0 1-.03.005l-.406-.082a.04.04 0 0 1-.03-.053l.113-.6a.04.04 0 0 1 .022-.03a.04.04 0 0 1 .036 0l.318.1a.04.04 0 0 1 .03.047"/><path fill="#EEBD2F" d="m14.923 20.294l-.176-.506a.04.04 0 0 1 .006-.035l.018-.006l.47-.118a.035.035 0 0 1 .041.018l.247.482l.003.015q0 .008-.004.014a.04.04 0 0 1-.022.018l-.541.136h-.03a.04.04 0 0 1-.012-.024z"/><path fill="#FFE364" d="m10.988 19.983l-.288.44a.094.094 0 0 1-.176-.052l-.006-.53a.094.094 0 0 1 .117-.088l.3.088A.1.1 0 0 1 11 19.9c0 .012.006.03 0 .041c0 .018 0 .03-.012.042"/><path fill="#5548C8" d="m14.289 20.376l-.118-.417a.07.07 0 0 1 .006-.059a.08.08 0 0 1 .053-.035l.277-.06a.08.08 0 0 1 .088.048l.153.412a.08.08 0 0 1-.007.063a.08.08 0 0 1-.052.037l-.318.059a.076.076 0 0 1-.082-.048"/><path fill="#FFE364" d="M13.624 20.012c-.018-.018-.018-.03.012-.03l.294-.04c.035-.007.059.011.07.046q.033.12.071.236q.186.571-.176.094a3 3 0 0 0-.271-.306m-.165.594a2.3 2.3 0 0 1-1.43.353a1.4 1.4 0 0 1-.911-.359a.06.06 0 0 0-.053 0a.1.1 0 0 0-.018.023l-.023.036c-.018.03-.018.059.018.088q.396.354.917.382c.047 0 .065.024.065.065v.535q-.002.078-.082.077H11.7a.05.05 0 0 1-.047-.036v-.023l.03-.241a.19.19 0 0 0-.141-.212a2 2 0 0 1-.794-.412a.09.09 0 0 1-.024-.117l.306-.541c.023-.048.059-.06.1-.018q1.183.97 2.341-.047c.012-.012.024-.006.035 0l.47.694q.02.027 0 .047a2.1 2.1 0 0 1-.81.418a.12.12 0 0 0-.077.07a.45.45 0 0 0-.036.247q.01.106-.094.141a.1.1 0 0 1-.047.012q-.087-.002-.094-.082l-.088-.53c0-.035.006-.058.041-.07l.718-.306q.069-.036.058-.106l-.005-.047c-.006-.059-.036-.065-.083-.041"/><path fill="#FFE364" d="M12.2 21.177a.035.035 0 0 1 .035-.036l.282-.03q.014 0 .023.009q.01.008.013.021l.088.612v.014l-.006.013l-.01.01l-.014.004l-.376.006a.04.04 0 0 1-.035-.018z"/><path fill="#EEBD2F" d="M13.453 21.618c.147-.112.282-.018.44-.036q.027.001.018.03c0 .012-.011.018-.023.018c-.136.035-.27.058-.412.058c-.076 0-.088-.023-.023-.07m-1.983.088h.006l.005.008v.05s-.023.012-.058.012l-.159.006a5 5 0 0 1-.517-.035h-.042a8 8 0 0 1-.67-.106q-.053-.018-.053-.03l.006-.04v-.006a.02.02 0 0 1 .011-.012h.012l1.453.147z"/></g></svg>