<svg xmlns="http://www.w3.org/2000/svg" xmlns:xlink="http://www.w3.org/1999/xlink" width="24" height="24" viewBox="0 0 24 24"><g fill="none"><path fill="url(#tokenBrandedKiba0)" d="M12 2a10 10 0 1 1 0 20a10 10 0 0 1 0-20"/><path fill="#181B1E" d="M12 3.177a8.824 8.824 0 1 1 0 17.647a8.824 8.824 0 0 1 0-17.647"/><path fill="#EE2225" d="m12 18.253l3.124-2.506v-.623H9.182l-.306.311L12 18.247z"/><path fill="#EC2022" d="M17.294 13.876s.33.853.33 1.671c0 .618-.542 1.147-1.742 1.159c-.388 0-.847-.053-1.382-.177l-.623-1.029l1.429-1.412l1.988-.206z"/><path fill="#981C1E" d="M16.612 13.876s.388.753.388 1.471c0 .73-1.118 1.312-3.647.882l-.73-.917L14.3 14.07z"/><path fill="#DB2027" d="M10.753 7s1.012-.776 2.753-.647c0 0 .694-.6 2.165-.6c1.47 0 3.917 1.124 4.564 1.541c0 0-3.47-1.012-4.535-.335c-1.07.676-.735 1.918-.735 1.918L12.1 8.582L10.747 7z"/><path fill="#EA1C27" d="M17.177 8.253s1.076 1.624 1.076 2.453c0 .835-.353 1.206-1.265 1.288s-1.276-.447-1.235-.647l.63-2.688l.794-.412z"/><path fill="#981C1E" d="M16.547 8.876s1.076 1.353 1.076 2.048c0 .694-.347 1-1.259 1.07c-.912.065-1.282-.37-1.235-.541c.041-.177.63-2.235.63-2.235z"/><path fill="url(#tokenBrandedKiba1)" d="M4.724 13.765S3.5 10.77 6.612 9.453L7 9.306l-.094-.43l-.294.118s-3.988.388-3.988 3.241c0 2.194 1.529 3.294 1.529 3.294s-1.73-2.335-.13-4.117c0 0-.288.94.706 2.353z"/><path fill="url(#tokenBrandedKiba2)" d="M17.065 7.694s4.311 1.53 4.311 3.73c0 1.87-1.14 1.753-1.14 1.753s1.064-.895.087-2.306c0 0-.088 1.717-2.44 1.717c0 0 1.705-.4 1.705-1.24c0-.848-.947-2.219-2.541-3.448l-.67.006l.058-.282z"/><path fill="url(#tokenBrandedKiba3)" d="M7.2 10.124s-2.076.73-2.076 2.8c0 2.064.594 3.976 3.935 6.135c0 0-2.73-2.165-2.688-4.718c0 0 1.476 5.577 8.57 6.483c0 0-4.782-1.512-6.341-4.618l-.23-5.082z"/><path fill="#F0F3FA" d="M11.929 16.376c-3.012 0-5.236-1.876-5.236-1.876l.365-.623l-.683.011L7.058 12h-.412l.753-.765A9 9 0 0 1 6.375 7.63V7c1.46.059 3.295 1.324 3.295 1.324l1.323.317L10.475 7l2.73 1.559v-.935l1.03.629c1.223-.882 3.07-.935 3.07-.935c0 1.558-1.024 4.059-1.024 4.059l.847.623h-.505l1 1.877l-1-.2l.376.9c-.565.764-2.059 1.8-5.07 1.8M8.086 8.471s.277.764.341.788l-.823.023l.494 1.2l-.235.265l-.806-2.5l.517.112zm7.394.011l-.223.724h.794l-.559 1.2l.341.335l.789-2.5l-1.142.235zm-4.323 4.147L9.11 11.371c-.059.694.647 1.87 1.2 1.87c.535 0 .847-.612.847-.612m3.412-1.258l-2.047 1.258s.311.618.847.618c.553 0 1.258-1.182 1.2-1.882zm-2.73 3.747c-.759 0-1.364-.277-1.364-.624c0-.165.029-.353.205-.459c.295-.165.865-.165 1.16-.165c.293 0 .858 0 1.158.165c.176.088.206.294.206.46c0 .346-.606.623-1.365.623"/><path fill="#181B1E" d="m6.065 6.994l.011-.317l.318.011c.794.036 1.67.394 2.318.718q.561.285 1.088.63l.73.176l-.589-1.883l2.953 1.689V7.07l1.33.806a5.8 5.8 0 0 1 1.94-.73q.55-.109 1.106-.141h.024l.012.312s-.118 0-.312.023c-.582.06-1.841.253-2.765.912l-1.023-.63v.936L10.476 7l.518 1.647l-1.324-.323S8.082 7.235 6.688 7.029A3 3 0 0 0 6.376 7v.63c.012.77.33 2.317 1.024 3.605L6.653 12h.412l-.689 1.882l.683-.005l-.36.623l-.205.235l-.2-.164l.218-.377l-.583.012l.689-1.894h-.712l1.117-1.13c-.647-1.294-.94-2.764-.958-3.547q-.004-.3 0-.6zm10.559 6.683l.376.9c-.565.764-2.059 1.8-5.07 1.8S6.693 14.5 6.693 14.5l-.2.235v.006h.012l.023.024q.183.154.383.288c.264.176.647.423 1.135.665c.959.482 2.312.97 3.882.97c3.083 0 4.683-1.064 5.324-1.93l.106-.14l-.218-.524l1.07.218l-1.07-2h.935l-1.411-1.047q.236-.614.429-1.241c.253-.824.53-1.877.53-2.706v-.324l-.33.012l.012.312c0 .1 0 .206-.012.311c-.118 1.56-1.012 3.748-1.012 3.748l.847.623h-.506l1 1.877zm-1.13-3.265l.341.335l.788-2.5l-1.14.235l-.224.73h.794zm.6-1.512l.07-.235l-.44.094l-.042.141zm-7.665.365a1.2 1.2 0 0 1-.153-.306c-.094-.224-.188-.482-.188-.482l-1.03-.23l.807 2.5l.235-.259l-.494-1.2zm-.806-.294l-.1-.3l.33.07l.088.224l-.318.012zm4.9 3.664q.072.14.177.26c.147.164.376.352.67.352c.46 0 1.024-.812 1.171-1.488a1.2 1.2 0 0 0 .03-.383zm1.612-.623l-1.165.717c.118.124.26.206.4.206c.03 0 .106-.017.23-.117c.231-.231.415-.505.541-.806zm-1.282 2.306h-.006a1.3 1.3 0 0 0-.459-.112a5.7 5.7 0 0 0-1.094 0c-.212.024-.37.059-.459.106c-.012.011-.023.017-.03.041a.5.5 0 0 0-.017.147s.018.065.218.159c.194.088.494.153.835.153c.347 0 .641-.059.835-.153c.2-.094.218-.165.218-.165v.006a.5.5 0 0 0-.018-.153l-.011-.024h-.012zm-3.741-2.941c-.006.117 0 .247.029.382c.147.676.712 1.494 1.17 1.494c.295 0 .53-.194.671-.359l.094-.123c.06-.077.083-.136.083-.136zm.435.635q.078.197.2.394c.106.176.23.318.341.412c.118.1.194.117.224.117c.14 0 .276-.082.394-.206zM13 14.042c-.294-.165-.859-.165-1.159-.165c-.294 0-.859 0-1.159.164c-.176.1-.206.294-.206.46c0 .346.606.623 1.365.623s1.365-.277 1.365-.624c0-.165-.03-.37-.206-.459"/><path fill="#2B2A29" d="m10.753 11.377l.582.623s.076-.282.018-.353c-.06-.059-.6-.27-.6-.27m2.5 0l-.589.623s-.076-.282-.017-.353c.064-.059.6-.27.6-.27zm-2.342 2.476v-.006a1 1 0 0 1 .095-.076q.283-.211.611-.341c.13-.048.26-.077.383-.077a1.76 1.76 0 0 1 1.088.494c.023.024.076.035.118.024c.04-.018.058-.047.035-.07A1.88 1.88 0 0 0 12 13.252c-.165 0-.33.035-.471.088c-.28.098-.538.25-.759.447h-.006c-.029.03-.017.06.024.077s.094.011.117-.012zm2.942 1.306c.029.035.029.1-.006.135h-.006a1 1 0 0 1-.077.07c-.053.042-.123.1-.211.16a1.37 1.37 0 0 1-1.318.1a.45.45 0 0 1-.235-.4c0-.06.04-.1.088-.1c.053 0 .094.047.094.1c0 .094.041.176.135.235a1.2 1.2 0 0 0 1.141-.1q.14-.091.26-.206m.135 0a.09.09 0 0 0-.13 0z"/><path fill="#2B2A29" d="M10.147 15.159a.1.1 0 0 0 .006.135c.265.253.635.453 1 .453c.535 0 .847-.176.847-.53c0-.046-.041-.093-.088-.093c-.053 0-.094.047-.094.1c0 .2-.177.335-.665.335c-.282 0-.677-.212-.876-.412m-.13.012a.09.09 0 0 1 .13-.006h-.13z"/><path fill="#E72528" d="M15.088 13.253s-.647.63-1.212.835l.942 1.036s.429-.836.27-1.877zm-6.176 0s.647.63 1.211.835l-.94 1.036s-.43-.836-.271-1.877z"/><defs><linearGradient id="tokenBrandedKiba0" x1="6.065" x2="18.565" y1="3.565" y2="20.123" gradientUnits="userSpaceOnUse"><stop stop-color="#0206BC"/><stop offset=".95" stop-color="#3DAF49"/></linearGradient><linearGradient id="tokenBrandedKiba1" x1="13.425" x2="12.062" y1="4.812" y2="14.115" gradientUnits="userSpaceOnUse"><stop stop-color="#E4282E"/><stop offset="1" stop-color="#F89F1C"/></linearGradient><linearGradient id="tokenBrandedKiba2" x1="6.988" x2="18.7" y1="2" y2="24.463" gradientUnits="userSpaceOnUse"><stop offset=".4" stop-color="#E4282E"/><stop offset="1" stop-color="#F89F1C"/></linearGradient><linearGradient id="tokenBrandedKiba3" x1="12.186" x2="3.55" y1="12.522" y2="9.283" gradientUnits="userSpaceOnUse"><stop stop-color="#E4282E"/><stop offset="1" stop-color="#FDBE0E"/></linearGradient></defs></g></svg>