<svg xmlns="http://www.w3.org/2000/svg" xmlns:xlink="http://www.w3.org/1999/xlink" width="24" height="24" viewBox="0 0 24 24"><g fill="none"><path fill="#fff" d="M2.865 17.405c-.782-1.34-.712-2.694-.435-4.088c.135-.665.159-1.394.27-2.106c.03-.2.03-.394-.011-.588a23 23 0 0 1-.436-2.883c-.03-.3-.076-.6-.135-.911c-.177-.883-.106-1.741-.094-2.624c.012-.559.517-1.07 1.03-1.235c.94-.294 2.97.87 3.805 1.33a.27.27 0 0 0 .247.005a11.58 11.58 0 0 1 9.23-.241c.235.094.353.03.547-.094a11 11 0 0 1 2.53-1.165q.615-.219.94-.217c.7 0 1.47.435 1.63 1.17c.07.347-.1.777-.07 1.188c.017.283.023.483.017.589c-.094 1.276-.282 2.54-.424 3.811q-.053.557-.159 1.095c-.106.558.118 1.1.147 1.647c.012.27 0 .517.071.776c.27 1.012.524 2.206.176 3.224a5.7 5.7 0 0 1-2.405 3.07a15 15 0 0 1-5.177 2.07c-.73.142-1.859.23-2.759.16c-.5-.042-.988-.048-1.47-.142a15.4 15.4 0 0 1-3.912-1.176c-.294-.141-.77-.424-1.441-.853a5.3 5.3 0 0 1-1.712-1.812"/><path fill="#B97332" d="M21.383 3.335q-.025.114-.271.088a.14.14 0 0 0-.106.035c-.282.241-.453.247-.759.306q-.185.043-.388.147c-.359.188-.694.27-1.053.4c-.765.277-1.441 1.018-1.9 1.712L15.7 5.388c-.1-.053-.112-.118-.041-.206c.253-.294.57-.436.882-.67c1.436-.807 2.33-1.3 3.606-1.53c.43-.077.836.04 1.236.353"/><path fill="#F1A64D" d="M16.536 4.511c-.306.235-.624.383-.877.67c-.07.089-.059.16.041.207l1.206.635q.107.196.224.241l.882.977l-.188-.053c-.036-.006-.053-.03-.047-.06c0-.023 0-.04-.018-.058a.3.3 0 0 0-.176-.106l-.394-.07a.15.15 0 0 1-.07-.036a.3.3 0 0 0-.19-.064a.2.2 0 0 1-.1-.03q-.22-.123-.311.106c-.153.406-.17.865-.047 1.388a.2.2 0 0 1-.012.118a.44.44 0 0 0-.059.212a.12.12 0 0 1-.07.1l-.341.188c-.036.018-.06.012-.083-.024a.8.8 0 0 0-.165-.176c-.152-.118-.429-.124-.629-.235a.2.2 0 0 1-.076-.071l-.365-.57c-.059-.089-.118-.089-.165.011l-.03.07a.14.14 0 0 0 .042.183c.13.106.2.253.223.424c0 .04-.011.058-.052.053a.15.15 0 0 0-.16.047a.12.12 0 0 1-.087.04l-.712-.005a.29.29 0 0 0-.294.306c.029.488-.1.93-.142 1.43a2.1 2.1 0 0 1-.258.764c-.289.459-.483.847-.9 1.224a.246.246 0 0 1-.353-.018q-.141-.166-.336-.265a.14.14 0 0 1-.07-.076c-.06-.147-.2-.26-.23-.383a.2.2 0 0 1 .042-.182a.15.15 0 0 0 .04-.118a.15.15 0 0 0-.07-.106c-.176-.117-.306-.276-.312-.511c0-.236.048-.412.153-.53q.107-.035.083-.159a1 1 0 0 0-.124-.317c.177.1.159.264.17.447c0 .076-.035.13-.117.159a.1.1 0 0 0-.041.032a.1.1 0 0 0-.018.05a.44.44 0 0 0 .106.335a.1.1 0 0 1 .03.06a.8.8 0 0 0 .347.51a.1.1 0 0 0 .117-.005a.26.26 0 0 0 .094-.147a.26.26 0 0 1 .153-.182a.22.22 0 0 1 .23.035c.035.03.1.03.194.012c.253-.06.706-.242.806-.5c.165-.424.23-.83.194-1.23c0-.059.006-.164.035-.312a1.2 1.2 0 0 0 0-.311c-.059-.424.294-.465.424-.73c.176-.364-.047-.806-.153-1.117c-.041-.118-.124-.212-.177-.365a4.5 4.5 0 0 0-.464-.853c-.13-.194-.277-.165-.442-.235a2 2 0 0 0-.9-.165q-.227.018-.535.23a.2.2 0 0 0-.076.088a1.3 1.3 0 0 1-.694.664a.2.2 0 0 0-.095.083a.17.17 0 0 1-.123.082a.15.15 0 0 0-.088.047a1 1 0 0 1-.771.312a.2.2 0 0 0-.112.023c-.43.212-1.106.471-.982.96c.106.411.37.682.806.805q.01 0 .012.018v.012q-.018.01 0 .011h.14a.18.18 0 0 0 .118-.04a.5.5 0 0 1 .324-.107c.035 0 .065 0 .1-.012l.294-.1a.12.12 0 0 1 .106.018q.043.027.041.07q-.001.063.041.089c.13.1.236.218.318.365c-.33-.194-.559-.294-.882-.06a.11.11 0 0 1-.106.013a.9.9 0 0 0-.418-.06a.17.17 0 0 0-.106.06l-.482.53a.15.15 0 0 0-.041.081c-.06.447-.271.836-.395 1.348a.12.12 0 0 0 .012.076l.118.206q.03.055.03.117c0 .348.146.63.44.86c.065.029.1.1.095.205c-.718-.023-1.395.194-2.118.318a.18.18 0 0 0-.153.176c0 .03 0 .06.018.088a.48.48 0 0 0 .27.253a.2.2 0 0 0 .118 0a.5.5 0 0 1 .176-.035q.069 0 .06.07q-.09.317-.03.589a3 3 0 0 0-.553-.206c-.3-.047-.941-.059-1.194.141a.2.2 0 0 1-.106.041q-.396.029-.588.294l-.053.06c-.218.158-.489.258-.66.452c-.152.177-.317.436-.34.683c0 .059-.03.1-.065.13a.4.4 0 0 0-.088.081q-.052.073-.006.136c.023.041.012.07-.024.094c-.117.059-.147.165-.1.294l.018.088q0 .009 0 0l-.018-.03h-.059c-.035.007-.053.024-.04.042v.018a.03.03 0 0 1-.018.017l-.012.006a.25.25 0 0 1-.165-.059c-.13-.305-.076-.647-.118-.935a2.3 2.3 0 0 1 .03-.73l.059-.094c.059-.088.059-.464.117-.635c.06-.194.036-.394.13-.594c.017-.035.041-.059.076-.059q.071-.024.036-.094a.1.1 0 0 1 .047-.135c.153-.07.235-.041.264.082c0 .03.018.035.042.024a.06.06 0 0 0 .029-.036c.07-.164.247-.423.094-.588a.12.12 0 0 1-.03-.106l.295-1.594a.3.3 0 0 1 .13-.041c.046 0 .082.006.117.041c.059.059.117.1.2.13c.035.011.07 0 .094-.03c.094-.135.141-.223.153-.27q.13-.742.518-1.147c.176-.177.34-.442.511-.795c.318-.658 1.077-1.217 1.57-1.823a.3.3 0 0 0 .054-.094a.07.07 0 0 0-.012-.06a.07.07 0 0 0-.059-.028l-.47.017A3.1 3.1 0 0 0 5.7 5.635c-.164-.06-.23-.236-.376-.318a20 20 0 0 0-1.353-.741a2 2 0 0 1-.577-.488c-.082-.324-.117-.677-.547-.624c.865-.682 3.236.735 3.989 1.27a.17.17 0 0 0 .176.012a11.05 11.05 0 0 1 9.53-.235z"/><path fill="#F8CD81" d="M21.383 3.335c.235.24.323.588.276 1.017a72 72 0 0 0-.229 2.436l-.024-.23q-.006-.07-.076-.041l-.188.1c-.035.024-.065.012-.094-.018q-.089-.114-.283-.017a6.3 6.3 0 0 0 .294-1.97c0-.272.047-.519.06-.79a.105.105 0 0 0-.106-.107a.1.1 0 0 0-.054.014a.5.5 0 0 1-.27.076a.53.53 0 0 0-.441.212a.2.2 0 0 1-.088.065a2 2 0 0 0-.66.5a.15.15 0 0 1-.093.047a.65.65 0 0 0-.412.212a.16.16 0 0 1-.106.058l-.294.012a.19.19 0 0 0-.177.135a.19.19 0 0 0 .077.206a.6.6 0 0 1 .147.17a.11.11 0 0 0 .088.066c.059.011.082 0 .088-.03a2 2 0 0 1-.876.624l-.812.182c-.076-.03-.153-.112-.223-.235c.458-.706 1.135-1.441 1.9-1.718c.352-.13.694-.212 1.058-.4q.197-.104.383-.147c.305-.059.476-.059.758-.306a.14.14 0 0 1 .106-.035c.165.017.26-.012.271-.088"/><path fill="#966232" d="M2.847 3.464c.43-.053.465.3.547.624q-.449.23-.464.647c-.006.44-.006.847.064 1.3c.118.705.177 1.4.359 2.082c.141.512.235 1.035.43 1.53a.05.05 0 0 0 .052.023l.018-.006c.294-.235.506-.523.618-.859l.082.106a.065.065 0 0 0 .1.012l.035-.035q.053-.063.077.017q.009.045-.018.118l-.059-.059c-.035-.023-.064-.023-.094.018c-.153.23-.247.394-.27.5q-.106.504-.353.93l-.294 1.593a.12.12 0 0 0 .035.106c.153.165-.024.424-.094.588a.06.06 0 0 1-.03.035c-.023.012-.035 0-.04-.023c-.024-.117-.118-.153-.266-.082a.1.1 0 0 0-.058.094c0 .018 0 .03.011.041q.036.071-.035.088a.1.1 0 0 0-.076.06c-.094.205-.071.41-.136.6c-.053.176-.058.546-.111.634l-.06.095a2.2 2.2 0 0 0-.023.729c.036.294-.017.63.112.941q.148.52-.082.53a5.6 5.6 0 0 1-.106-2.96c.076-.335.147-.682.212-1.023a.17.17 0 0 0-.012-.1c-.147-.282.14-1.135.206-1.47a.2.2 0 0 0-.012-.118c-.294-.7-.4-1.624-.459-2.394q-.076-1.066-.265-2.118a8 8 0 0 1-.117-.918c-.036-.74-.1-1.44.576-1.882z"/><path fill="#FCE0BD" d="M20.765 6.588c-.06.329-.106.664-.16 1.006a4.7 4.7 0 0 1-.558 1.658a.134.134 0 0 1-.159.012a1.12 1.12 0 0 1-.541-.694l.453-1.488l.088-.336a.3.3 0 0 1 .053-.1q.107-.151.118-.4c.006-.411.076-.905.206-1.505c.006-.042-.006-.06-.047-.071c-.289-.076-.918.294-1.118.518a1.5 1.5 0 0 1-.282.27c0 .036-.036.041-.089.03a.12.12 0 0 1-.088-.065a.5.5 0 0 0-.153-.177a.188.188 0 0 1 0-.294a.2.2 0 0 1 .106-.04l.294-.018A.14.14 0 0 0 19 4.84a.62.62 0 0 1 .406-.212q.052-.002.094-.047a2 2 0 0 1 .659-.5a.23.23 0 0 0 .088-.065a.53.53 0 0 1 .441-.212a.5.5 0 0 0 .27-.076a.106.106 0 0 1 .16.094c-.012.27-.06.518-.06.788a6.3 6.3 0 0 1-.293 1.97zm-17.371-2.5c.194.235.388.394.576.488c.46.235.912.476 1.353.741c.147.088.212.259.377.318a3.1 3.1 0 0 1 1.082.676c-.93.312-1.43.33-1.964-.488a2.4 2.4 0 0 0-.589-.7a1 1 0 0 0-.47-.224a.12.12 0 0 0-.112.036l-.224.235a.14.14 0 0 0-.04.118a3.1 3.1 0 0 1-.036 1.158a.2.2 0 0 0 .023.13l.295.47l.04.024l.354.112q.054.016.047.076c0 .07.006.118.023.16c.018.5.136.958.341 1.387a1.8 1.8 0 0 1-.64.865a.05.05 0 0 1-.048-.024c-.194-.494-.288-1.017-.43-1.529c-.187-.682-.24-1.382-.352-2.082a6.7 6.7 0 0 1-.07-1.3q.01-.417.47-.647z"/><path fill="#D89C8A" d="M19.8 7.082c-.012-.294-.03-1.618-.623-1.459a.6.6 0 0 0-.236.159c-.276.27-.605.37-1 .3c.344-.124.647-.34.877-.624q.148-.112.288-.27c.194-.224.824-.589 1.118-.518q.051.01.04.07a8.3 8.3 0 0 0-.205 1.506c0 .165-.047.3-.118.4a.3.3 0 0 0-.053.1z"/><path fill="#EEBFB5" d="M4.818 5.823A3.14 3.14 0 0 0 4.13 7.41a.34.34 0 0 1-.024-.153c0-.041-.012-.065-.053-.076L3.7 7.07a.1.1 0 0 1-.035-.03l-.294-.464a.17.17 0 0 1-.024-.13c.089-.382.095-.77.036-1.158a.14.14 0 0 1 .04-.118l.224-.235a.12.12 0 0 1 .118-.036q.256.055.459.224c.276.235.47.465.588.7z"/><path fill="#D9913B" d="m10.959 9.682l-.236-.489a.4.4 0 0 0-.064-.1l-.294-.305a1.2 1.2 0 0 0-.312-.365a.1.1 0 0 1-.041-.088a.08.08 0 0 0-.042-.071a.12.12 0 0 0-.105-.018l-.294.1a.3.3 0 0 1-.095.012a.5.5 0 0 0-.329.106a.2.2 0 0 1-.118.041h-.147v-.023c.006-.012 0-.012-.006-.018a1.08 1.08 0 0 1-.806-.806c-.123-.488.553-.747.983-.959a.2.2 0 0 1 .112-.023a.99.99 0 0 0 .77-.312a.15.15 0 0 1 .088-.047c.06 0 .095-.035.124-.082a.2.2 0 0 1 .094-.083a1.3 1.3 0 0 0 .694-.664a.2.2 0 0 1 .077-.089c.206-.14.388-.217.535-.23q.405-.027.9.166c.165.07.312.04.441.235c.224.323.377.612.459.853c.059.153.147.247.182.359c.106.317.324.759.153 1.123c-.13.265-.476.306-.43.73a1.2 1.2 0 0 1 0 .311q-.033.222-.023.312c.03.4-.035.806-.2 1.23c-.1.258-.553.447-.806.5c-.094.017-.158.017-.194-.018a.23.23 0 0 0-.229-.03a.26.26 0 0 0-.153.183a.26.26 0 0 1-.088.147a.1.1 0 0 1-.124 0a.8.8 0 0 1-.347-.512a.1.1 0 0 0-.03-.053a.45.45 0 0 1-.111-.335a.09.09 0 0 1 .059-.082c.088-.03.13-.083.117-.16c-.005-.182.012-.346-.164-.446"/><path fill="#AF6548" d="m19.8 7.082l-.453 1.488c-.064.03-.117.035-.147.006c-.294-.247-.553-.63-.817-.912l-.37-.423l-.883-.977l.817-.176c.389.064.718-.036 1-.306a.6.6 0 0 1 .236-.159c.588-.159.606 1.159.617 1.459"/><path fill="#9A553A" d="M4.818 5.823c.535.818 1.041.8 1.97.488l.465-.018a.07.07 0 0 1 .07.06v.029a.3.3 0 0 1-.052.094c-.494.606-1.253 1.165-1.57 1.823c-.171.353-.342.624-.513.795a.44.44 0 0 1-.44-.071a.2.2 0 0 0 .017-.118c-.012-.053-.041-.059-.077-.017l-.035.035a.06.06 0 0 1-.053.022a.06.06 0 0 1-.047-.034l-.082-.106a3.4 3.4 0 0 1-.341-1.388c.07-.582.3-1.118.688-1.594"/><path fill="#F8B95F" d="M21.43 6.788c-.076.882-.165 1.764-.265 2.658c-.053.471-.2.983-.264 1.495a1.76 1.76 0 0 1-.824.452a.1.1 0 0 0-.07.059c-.207.441-.518.46-.96.341c-.235-.058-.482-.029-.747.1l-.023.006a.04.04 0 0 1-.024-.017c-.006-.012-.017-.012-.023-.006l-.43.282a.14.14 0 0 1-.088.024l-.117-.012q-.02 0-.012.018a.3.3 0 0 1 .03.117a4 4 0 0 0-.795-.176c-.741-.094-1.312-.159-1.976.159c-.412.205-.43.547-.395.994c.048.553.336.917.86 1.076c.77.241 1.293-.059 1.811-.64a.85.85 0 0 1-.217.446a.2.2 0 0 0-.06.094c-.064.247-.529.489-.782.541a15 15 0 0 0-1.047.253c-.17.148-.247.224-.412.43a.42.42 0 0 1-.264.165q.386-.425-.118-.86a5.2 5.2 0 0 0-1.318-.629c-.87-.33-2.529.036-3.235.66c-.247.205-.4.564-.588.846a.18.18 0 0 1-.1.07c-.159.054-.206.16-.159.324q.009.028-.018.03h-.04c-.007 0-.012 0-.012.011l-.006.053c-.024-.017-.036-.006-.042.024c0 .03-.011.03-.035.018c-.023-.024-.03-.06-.012-.1c.165-.424 0-.653-.382-.836a20 20 0 0 0-.706-.317a.06.06 0 0 1-.012-.06l.018-.035c.012-.011.012-.017.012-.029c0-.024.006-.041.03-.047a.35.35 0 0 0 .176-.112c.023-.023.017-.047-.006-.064a.45.45 0 0 1-.147-.183a.4.4 0 0 0 .035-.135c.047.135.1.218.153.235q.563.158 1.276-.117c.683-.277.724-.906.695-1.5c-.018-.377-.224-.577-.606-.6q.123-.08.017-.295a.06.06 0 0 1-.004-.068a.06.06 0 0 1 .063-.026h.088q.069 0 .077-.07a1 1 0 0 1 .041-.206c.03-.088.082-.124.153-.1c.035.011.047.041.03.076a.55.55 0 0 0-.03.388c.012.042.035.071.082.077a.44.44 0 0 0 .277-.012c.53-.212.588-.312.835-.823a.17.17 0 0 0 .012-.112l-.059-.241l.024-.265q.001-.054.029-.118a.44.44 0 0 0 .035-.288c-.006-.035.006-.047.041-.047h.1q-.16.178-.152.524c0 .235.135.388.317.511a.153.153 0 0 1 .03.224a.2.2 0 0 0-.042.182c.03.118.165.236.224.383a.13.13 0 0 0 .07.076c.118.059.236.147.336.265a.247.247 0 0 0 .353.018c.412-.377.612-.765.9-1.224c.117-.182.241-.547.258-.765c.042-.5.177-.941.142-1.43a.294.294 0 0 1 .294-.305l.706.006a.12.12 0 0 0 .094-.041q.061-.072.159-.047q.06.008.059-.053a.64.64 0 0 0-.236-.424c-.059-.047-.07-.112-.035-.176l.03-.077c.046-.1.105-.1.164-.012l.365.571a.2.2 0 0 0 .076.076c.2.106.477.112.63.23a.8.8 0 0 1 .164.176q.037.053.083.024l.34-.188a.12.12 0 0 0 .066-.1a.8.8 0 0 1 .058-.212a.18.18 0 0 0 .018-.118a2.3 2.3 0 0 1 .047-1.388q.09-.23.312-.106c.035.018.065.03.1.03c.07 0 .13.023.188.064a.2.2 0 0 0 .07.035l.4.071a.3.3 0 0 1 .171.106a.1.1 0 0 1 .018.059c0 .03.012.053.047.059l.188.053l.37.423c.265.282.518.665.819.912c.029.03.082.023.146-.006q.091.413.542.694a.14.14 0 0 0 .159-.015a.14.14 0 0 0 .035-.044c.27-.506.435-.994.53-1.612l.152-1.011q.195-.098.283.017c.029.03.058.042.1.018l.182-.1q.069-.028.076.041z"/><path fill="#F8CD81" d="m10.371 8.788l.288.305c.024.03.047.06.06.1l.24.489a.9.9 0 0 1 .118.317q.037.123-.076.165h-.1c-.036 0-.047.012-.042.047c.018.106.006.2-.035.294a.3.3 0 0 0-.03.118l-.017.259a3 3 0 0 1 0-.5q.01-.222-.077-.294a1.4 1.4 0 0 1-.523-.765a.16.16 0 0 0-.065-.094a.8.8 0 0 1-.217-.218a.15.15 0 0 0-.165-.059q-.446.123-.894.236a.16.16 0 0 0-.047.064a.2.2 0 0 1-.041.083q-.444.51-.524 1.188c-.035.312.094.559.206.847c.07.194.041.382.118.588c-.3-.23-.448-.512-.448-.859a.24.24 0 0 0-.029-.117l-.118-.206a.12.12 0 0 1-.011-.077c.117-.511.34-.9.394-1.353c0-.03.017-.058.041-.082l.482-.53a.17.17 0 0 1 .106-.052a.9.9 0 0 1 .412.058a.14.14 0 0 0 .118-.017c.317-.23.547-.13.876.065"/><path fill="#fff" d="M13.665 11.758a.5.5 0 0 1-.176-.37l.1-1.224q.024-.386.147-.659c.105-.259.294-.694.6-.682c.282.012.558 0 .84-.047c.036 0 .065 0 .1.023l.26.171a.2.2 0 0 1 .07.076c.13.253.212.53.236.812c0 .018.011.03.017.041l.03.036v.011c.011.336.064.8-.06 1.118l-.076.235a.15.15 0 0 1-.059.095l-.888.553a.14.14 0 0 1-.07.017H14.7c-.03 0-.047 0-.064.024c-.271.235-.753.235-.906-.142a.2.2 0 0 0-.06-.088z"/><path fill="#D9913B" d="M4.747 9.023q.195.16.442.07a2.2 2.2 0 0 0-.518 1.148a1 1 0 0 1-.153.27c-.024.036-.059.041-.094.03a.6.6 0 0 1-.206-.13a.14.14 0 0 0-.112-.041a.34.34 0 0 0-.135.041q.247-.425.353-.93c.023-.105.118-.27.27-.5c.03-.04.06-.04.089-.011l.064.059z"/><path fill="#FDF1ED" d="m10.777 10.882l.059.241c0 .041 0 .076-.018.118c-.253.505-.3.606-.835.817a.47.47 0 0 1-.276.012a.11.11 0 0 1-.083-.077a.55.55 0 0 1 .03-.388q.024-.052-.03-.076c-.07-.024-.118.011-.153.1a1 1 0 0 0-.041.206q-.008.07-.076.07h-.095l-.022.005a.06.06 0 0 0-.032.032l-.004.022V12q.113.214-.012.294l-.553-.129q.001-.16-.094-.206c-.07-.206-.036-.394-.112-.588c-.112-.294-.235-.53-.2-.847q.078-.678.518-1.188a.2.2 0 0 0 .04-.083a.16.16 0 0 1 .048-.07q.45-.112.9-.236a.15.15 0 0 1 .159.065q.087.13.217.218c.03.023.06.059.065.094c.088.318.259.57.524.765q.086.072.076.294c-.018.17-.012.335 0 .5"/><path fill="#E2D0BC" d="M14.247 11.2c.03.382.194.676.365.664c.17-.018.277-.335.247-.718c-.035-.376-.2-.67-.365-.659c-.176.018-.282.336-.247.712"/><path fill="#382B2B" d="M9.389 11c-.083.117-.118.24-.077.276c.041.03.147-.041.235-.159c.083-.118.118-.235.077-.27s-.147.035-.235.158z"/><path fill="#F8CD81" d="M20.9 10.94c.118.271.188.471.2.595c.053.611.141 1.247.277 1.906c-.33.1-.706.094-1.118-.024a.2.2 0 0 1-.094-.059A.2.2 0 0 0 20 13.3a1.65 1.65 0 0 1-.735-.1c-.465-.17-.63-.235-1.053-.1a.136.136 0 0 1-.165-.088a.14.14 0 0 1 0-.07c.012-.077 0-.13-.059-.16c.265-.31-.152-.452-.376-.47a.3.3 0 0 0-.03-.123c-.005-.012 0-.018.006-.018l.118.012c.035 0 .065 0 .094-.024l.43-.282c.005-.006.017 0 .023.006c0 .012.012.018.024.018l.023-.006c.26-.13.512-.16.747-.1c.441.117.753.1.959-.342a.1.1 0 0 1 .07-.058c.336-.089.607-.236.824-.453"/><path fill="#382B2B" d="M9.083 11.664c-.03.07-.018.147.03.165c.046.023.105-.018.135-.088c.029-.077.017-.148-.03-.171c-.047-.018-.106.023-.135.094"/><path fill="#241F1D" d="M17.612 12.311c.224.018.641.159.377.47c-.212.024-.43 0-.648-.093c-.04-.018-.058 0-.047.04c.071.4.095.665-.176.99c-.523.587-1.041.881-1.812.646a1.14 1.14 0 0 1-.859-1.082c-.035-.447-.017-.789.395-.994c.664-.318 1.235-.253 1.976-.165c.27.035.53.1.794.188m-8.976-.147l.553.13c.382.023.588.223.605.6c.03.588-.011 1.223-.694 1.494c-.47.188-.9.235-1.276.117c-.053-.012-.106-.094-.153-.23l-.482-.4l-.218-.252a1.3 1.3 0 0 1 .03-.588c.011-.047 0-.07-.054-.07a.5.5 0 0 0-.176.034a.16.16 0 0 1-.118 0a.47.47 0 0 1-.27-.253a.19.19 0 0 1 .059-.235a.2.2 0 0 1 .076-.03c.724-.123 1.4-.34 2.118-.317"/><path fill="#fff" d="M16.27 12.788c.165-.018.283-.153.265-.3s-.17-.247-.335-.23c-.165.024-.282.159-.265.306c.018.147.165.247.336.224m-7.694-.2c.106-.347.412-.236.589-.07a.16.16 0 0 1 .008.22a.16.16 0 0 1-.067.044a.49.49 0 0 1-.506-.1a.09.09 0 0 1-.024-.094"/><path fill="#FCE4A4" d="M17.988 12.782c.06.03.071.082.06.159a.135.135 0 0 0 .165.159c.423-.136.587-.071 1.052.1q.354.13.735.094c.059 0 .13.023.165.064a.2.2 0 0 0 .088.06c.418.117.794.123 1.118.023c.238.91.207 1.87-.089 2.764a.06.06 0 0 1-.035.018h-.03q-.017 0-.017-.018c.024-.488-.388-1.035-.706-1.376a5 5 0 0 1-.411-.583a1 1 0 0 0-.2-.217c-.189-.165-.36-.482-.648-.206c-.335.312-.74.635-.976 1.035q-.15.248-.265.365c-.165.17-.394.153-.576.294l-.183.141c-.17.124-.364.124-.552.236a.3.3 0 0 1-.1.04a1.41 1.41 0 0 0-1.024.636q-.134.205-.365.118a.66.66 0 0 0-.412-.018q-.05.017-.076-.03a.34.34 0 0 1-.035-.14a.14.14 0 0 0-.06-.1c-.234-.206-.552-.383-.858-.253q-.414.165-.618.447a5.4 5.4 0 0 0-2.17.035q.071-.204-.324-.124c-.017.047-.059.06-.117.042c-.165.035-.471.052-.589.152a.4.4 0 0 1-.094.06a2.7 2.7 0 0 0-.73.476a.32.32 0 0 1-.329.059c-.047-.177-.135-.295-.27-.336c.047-.035.059-.082.041-.13q-.018-.043-.088-.07c-.253-.106-.477-.259-.73-.323c-.235-.06-.47-.083-.682-.188c-.176-.095-.294-.16-.335-.206a9 9 0 0 0-1.194-.983a.2.2 0 0 1-.077-.082a1.7 1.7 0 0 0-.276-.383a2.5 2.5 0 0 1-.236-.294a1.8 1.8 0 0 0-.253-.288c-.029-.023-.058-.03-.094-.012l-.164.106c0-.047.023-.1.058-.153l.053-.059a.8.8 0 0 1 .647.389a2 2 0 0 0 .395.459l.164.14c.147.148.2.236.412.33c.235.112.43.277.576.5q.032.045.083.065c.147.059.223.141.37.176l1.147.236c.212.047.318.194.306.44q-.001.089.077.095l.665.094q.045.001.047-.041c0-.018 0-.035.011-.053a.12.12 0 0 1 .053-.053q.15-.089.283-.212a.2.2 0 0 1 .1-.047c.447-.047 1.117.1 1.44-.017c.148-.06.295-.089.454-.1c.4-.042.723-.148 1.13-.106a.2.2 0 0 0 .11-.024a.27.27 0 0 1 .207-.03a.12.12 0 0 0 .106-.029a1.3 1.3 0 0 1 .982-.335q.237.02.288-.165c.012-.059 0-.059-.04-.023a.37.37 0 0 1-.266.117c-.011 0 0-.017.06-.058a.42.42 0 0 0 .258-.16q.189-.248.435-.44c.336-.095.683-.177 1.024-.242c.259-.058.718-.294.782-.54a.2.2 0 0 1 .06-.095a.8.8 0 0 0 .217-.447c.27-.324.247-.588.176-.988q-.018-.07.053-.041a1.3 1.3 0 0 0 .647.094z"/><path fill="#F8CD81" d="m6.977 13.623l.212.253l-.53.847c-.058.088-.035.141.06.165a1 1 0 0 0 .47 0a.05.05 0 0 0 .041-.024a.1.1 0 0 0 .024-.047c.029-.135.105-.2.247-.194c.035 0 .058-.012.076-.047a.6.6 0 0 0 .059-.165c.03.065.076.13.147.177c.023.023.03.047.006.07a.37.37 0 0 1-.177.112c-.023.006-.029.023-.029.047c0 .012 0 .018-.012.03a.07.07 0 0 0-.023.064a.07.07 0 0 0 .04.047q.345.144.683.3c.383.183.547.412.383.835q-.025.064.011.1c.024.012.036.012.036-.017c.005-.03.017-.041.04-.024c.33.224.507.03.824-.006c.27-.029.483-.105.747-.082q.564.044 1.118.159q.298.053.765-.106q.168-.053.364-.07c.206-.012.406-.083.606-.083c.23 0 .371-.13.565-.206a.2.2 0 0 1 .118-.012a.8.8 0 0 0 .435-.04c.094 0 .177-.042.265-.124c.04-.042.059-.03.04.023q-.05.184-.287.165a1.3 1.3 0 0 0-.983.335a.12.12 0 0 1-.106.03a.27.27 0 0 0-.205.03a.18.18 0 0 1-.118.023c-.4-.041-.724.064-1.124.106a1.7 1.7 0 0 0-.453.1c-.329.117-1-.03-1.44.017a.2.2 0 0 0-.1.047a1.4 1.4 0 0 1-.283.212a.12.12 0 0 0-.059.059a.1.1 0 0 0-.006.047c0 .03-.017.047-.047.041l-.665-.094c-.058-.006-.082-.041-.076-.094c.012-.247-.094-.394-.306-.436l-1.147-.247c-.147-.029-.224-.117-.37-.17a.2.2 0 0 1-.083-.065a1.4 1.4 0 0 0-.582-.5c-.206-.094-.26-.182-.412-.33a3 3 0 0 0-.159-.14a2 2 0 0 1-.394-.46a.8.8 0 0 0-.647-.388c.13-.176.323-.276.588-.294a.17.17 0 0 0 .106-.04c.253-.2.894-.19 1.194-.142q.13.019.553.206"/><path fill="#E7CFDD" d="m7.188 13.876l.483.4a.4.4 0 0 1-.035.135a.5.5 0 0 1-.06.165a.08.08 0 0 1-.076.047c-.14-.006-.217.059-.247.194c0 .018-.012.035-.023.047a.1.1 0 0 1-.047.03a1 1 0 0 1-.46-.006c-.1-.024-.117-.077-.064-.165z"/><path fill="#CCB099" d="M4.488 13.952a.25.25 0 0 0-.058.153q-.098.06-.036.06a.46.46 0 0 0-.223.152a.12.12 0 0 1-.088.041c-.065 0-.112.03-.13.088a.14.14 0 0 1-.07.077c-.036.018-.06.035-.071.059a2 2 0 0 1-.218.34a.17.17 0 0 0-.04.107c0 .182-.177.247-.177.47c0 .036-.006.071-.03.095c-.076.094-.094.194-.035.294c.106.205.159.394.147.564c0 .036 0 .07.024.095c.064.088.094.235.123.3q.095.184.218.352c.13.2.159.5.506.536a.17.17 0 0 1 .1.04l.33.248c.028.023.07.035.117.03c.106-.018.17.035.188.146a.15.15 0 0 0 .076.106a.43.43 0 0 1 .2.194a.11.11 0 0 0 .083.065a.7.7 0 0 1 .353.23a.16.16 0 0 0 .094.058l2.176.365c-.059.065-.064.141-.023.218c.135.264.335.488.588.659c.647.435 1.63.27 2.3-.036c.165-.076.294-.059.465-.1c.294-.064.564.024.823-.03a2.6 2.6 0 0 1 1.647.218h-.576a.12.12 0 0 0-.088.042l-.036.04a.14.14 0 0 1-.094.042a.84.84 0 0 0-.47.177a.1.1 0 0 1-.047.023l-.589.13h-.035c-.153-.036-.265.017-.318.164a.05.05 0 0 0 .006.047a.05.05 0 0 0 .047.018c.03 0 .047.006.06.03a.04.04 0 0 1 0 .04a.04.04 0 0 1-.03.018a.5.5 0 0 0-.247.065c-1.765-.059-3.536-.412-5.136-1.183c-.988-.47-1.847-.958-2.476-1.664a4 4 0 0 1-1-1.7q.238 0 .088-.53q.069.06.165.06q.007 0 .013-.004l.01-.009a.03.03 0 0 0 0-.03c0-.017.012-.034.047-.04h.06l.011.03h.006a.3.3 0 0 0-.018-.09c-.047-.128-.012-.234.1-.293c.036-.024.047-.059.024-.094q-.043-.064.012-.136a.3.3 0 0 1 .082-.082a.18.18 0 0 0 .065-.13c.023-.246.188-.5.34-.682c.171-.194.442-.294.665-.453"/><path fill="#F3EADD" d="M8.512 16.958a.2.2 0 0 0-.047.077l-.059.159q-.378.222-.394.558c0 .1.035.118.124.06a.6.6 0 0 0 .123-.154c.035-.04.082-.059.159-.059c.035 0 .059-.023.059-.058a.1.1 0 0 0 0-.047c-.012-.047.006-.06.053-.047c.047.017.082.011.117-.018c.06-.024.1-.07.136-.135c.13.04.235.023.33-.06a.24.24 0 0 1-.136.148c-.024.011-.024.017 0 .03c.082.035.141.088.164.176c.012.023 0 .035-.023.04l-.153.042q.037-.046.03-.082c-.006-.065-.042-.088-.106-.06c-.212.095-.73.483-.689.754l-.011-.047q-.008-.09-.042 0l-.029.094a.09.09 0 0 1-.088.059c-.247-.018-.47-.03-.724-.083a3.4 3.4 0 0 0-1.13-.058c-.2.023-.382-.136-.623-.071a.1.1 0 0 1-.094-.024a.37.37 0 0 0-.176-.1a.2.2 0 0 1-.106-.058a2 2 0 0 0-.753-.518c-.112-.041-.177-.124-.294-.188c-.26-.142-.189-.447-.4-.647a1 1 0 0 1-.16-.183a.16.16 0 0 1-.029-.1c.071-.917.5-1.453.853-2.2q-.06.01.036-.059l.159-.1q.05-.024.094.012q.143.134.253.294c.07.1.147.194.235.294c.112.106.2.236.276.377a.2.2 0 0 0 .077.082q.636.443 1.194.983q.07.072.335.206c.212.105.447.129.683.188c.253.064.476.217.729.323q.07.027.088.07c.024.048.006.095-.04.13"/><path fill="#D9913B" d="M14.336 15.647c-.047.029-.065.052-.06.058a.77.77 0 0 1-.434.041a.2.2 0 0 0-.118.012c-.188.077-.33.2-.565.206c-.2 0-.394.07-.6.083a1.7 1.7 0 0 0-.365.07q-.465.159-.764.106a9 9 0 0 0-1.118-.159c-.265-.023-.476.053-.747.082c-.318.036-.5.23-.824 0l.006-.047c0-.005 0-.011.012-.011h.035q.034-.001.024-.03c-.047-.164 0-.27.159-.323a.18.18 0 0 0 .094-.07c.194-.283.347-.642.588-.848c.718-.623 2.37-.988 3.241-.659c.694.26 1.13.47 1.318.63c.335.294.377.576.118.858"/><path fill="#E2D0BC" d="M4.394 14.158c-.352.747-.782 1.283-.852 2.2c0 .036.005.07.029.1c.041.07.1.13.159.189c.212.194.14.5.4.64c.117.06.182.148.294.189c.294.118.541.288.753.518a.16.16 0 0 0 .1.058c.07.018.13.047.182.1a.1.1 0 0 0 .094.024c.236-.065.424.094.624.07a3.3 3.3 0 0 1 1.13.06c.258.058.47.064.723.082a.08.08 0 0 0 .088-.059l.03-.1c.023-.053.035-.047.04.006l.012.047c.03.03.065.017.106-.03a.8.8 0 0 1 .224-.211a.24.24 0 0 0 .082-.088a.58.58 0 0 1 .353-.283l.153-.041c.024-.006.035-.018.024-.041a.27.27 0 0 0-.165-.177c-.024-.012-.024-.017 0-.03a.24.24 0 0 0 .135-.146c.218-.2.465-.353.73-.47l.094-.06c.117-.105.423-.123.588-.164c.059.029.1.011.118-.036q.395-.079.323.124q-.151.132-.294.159a.294.294 0 0 0-.241.27c-.047.483-.094.706.247 1.095c.012.135.047.27.106.394q.025.054 0 .1l-.37.706a.14.14 0 0 1-.06.058c-.194.094-.33.147-.559.27c-.264.142-.617.083-.911.09c-.265-.13-.447-.354-.565-.666a.1.1 0 0 0-.047-.058a.1.1 0 0 0-.07 0c-.048.023-.095.076-.148.17l-2.176-.364a.17.17 0 0 1-.106-.06a.63.63 0 0 0-.353-.229a.12.12 0 0 1-.076-.064a.44.44 0 0 0-.2-.195a.15.15 0 0 1-.077-.105q-.026-.175-.194-.148a.2.2 0 0 1-.118-.029l-.323-.247a.2.2 0 0 0-.1-.041c-.353-.035-.377-.335-.506-.53a4 4 0 0 1-.218-.353c-.03-.07-.059-.217-.117-.305a.14.14 0 0 1-.03-.095c.012-.176-.041-.358-.147-.564c-.059-.1-.041-.2.035-.294a.13.13 0 0 0 .036-.095c0-.223.17-.288.176-.47q0-.061.035-.106a2 2 0 0 0 .218-.341q.018-.034.07-.059a.13.13 0 0 0 .071-.076c.018-.06.06-.083.13-.089a.12.12 0 0 0 .088-.04a.44.44 0 0 1 .223-.16"/><path fill="#382B2B" d="M13.13 16.588c.406.13.752.529.747.982a.12.12 0 0 1-.053.1a.77.77 0 0 0-.26.406a.05.05 0 0 0-.028.03l-.342.17a.14.14 0 0 0-.076.094l-.047.218a.12.12 0 0 1-.035.058l-.618.447a.12.12 0 0 0-.059.1c-.041.365.323.418.606.4H13a.1.1 0 0 1 .02.02a.1.1 0 0 1 .01.028q.008.035.053.035c.235-.035.435-.012.623.059q.572.246 1.153.14l.182-.01c.43.052.57-.366.8-.613q.168-.115.248-.1c-.171.365-.4.96-.818 1.012c-.341.047-.812.041-1.424-.018a2.6 2.6 0 0 0-1.647-.217c-.259.053-.53-.035-.823.03c-.171.035-.295.023-.465.1c-.67.305-1.647.47-2.294.035a1.8 1.8 0 0 1-.594-.66c-.042-.076-.036-.152.03-.217q.077-.14.146-.165a.09.09 0 0 1 .1.022a.1.1 0 0 1 .018.031c.117.312.3.53.559.665c.411.188.77.259 1.076.2l1.535-.265a.14.14 0 0 0 .077-.04l.218-.254a.22.22 0 0 0 .005-.288a1.8 1.8 0 0 0-.67-.488c-.253-.112-.353-.236-.441-.483c-.342-.388-.294-.611-.253-1.1a.295.295 0 0 1 .24-.27q.15-.02.3-.153a5.4 5.4 0 0 1 2.165-.035z"/><path fill="#846859" d="M8.512 16.958c.136.042.23.16.27.336a.32.32 0 0 1-.134.135h-.036a.06.06 0 0 1-.047-.059v-.1a.11.11 0 0 0-.059-.1c-.047-.024-.058-.065-.04-.135a.2.2 0 0 1 .046-.077"/><path fill="#CCB099" d="M8.465 17.035c-.017.07-.006.117.042.135a.11.11 0 0 1 .058.1v.094q.002.054.047.065h.036c-.036.03-.07.035-.118.018c-.047-.012-.059 0-.053.047a.1.1 0 0 1 0 .047c0 .035-.023.058-.059.058q-.115-.002-.159.06a.25.25 0 0 1-.047-.142c0-.035.012-.041.047-.03q.025.011.042.048c0 .012.011.023.017.03l.03.017q.034.002.053-.024l.035-.082l-.035-.282l.058-.16z"/><path fill="#846859" d="M15.448 17.058a.06.06 0 0 1 .076.024l.024.041q.004.015 0 .03l-.006.011l-.012.012a1.6 1.6 0 0 0-.53.347c-.07.065-.1.053-.076-.041q.044-.254.53-.43zm-7.048.136l.036.282l-.036.082q-.017.026-.052.024a.1.1 0 0 1-.03-.018a.06.06 0 0 1-.017-.03q-.017-.036-.042-.046c-.035-.012-.047 0-.047.029c0 .041.012.088.047.141a.6.6 0 0 1-.123.16c-.088.058-.13.034-.124-.06c.012-.235.141-.412.388-.564m.565.476a.58.58 0 0 0-.353.282a.24.24 0 0 1-.082.089a.8.8 0 0 0-.224.211c-.04.047-.076.06-.105.03c-.042-.27.476-.659.688-.753c.059-.03.1-.006.106.059c0 .03-.006.053-.03.082"/><path fill="#CCB099" d="m14.918 18.117l-.005.002h-.005l-.005-.003l-.003-.005a.12.12 0 0 1 0-.082a.3.3 0 0 1 .047-.094l.1-.094c.041-.024.083-.053.136-.071l.111-.053c.047-.017.095-.035.141-.041a.5.5 0 0 1 .136-.012a.3.3 0 0 1 .106.024a.12.12 0 0 1 .059.059v.011l-.012.012l-.806.353z"/><path fill="#E2D0BC" d="M13.565 18.076c-.024.2.077.294.294.276a.12.12 0 0 1 .118.047c.017.03.03.07.023.112a.12.12 0 0 0 .024.094c.117.147.27.265.447.341a.2.2 0 0 1 .082.06c.112.105.236.17.383.182q.054.007.1.04c.323.207.523.012.806.024c-.224.247-.365.665-.8.612c-.06-.082-.16-.118-.289-.094a.12.12 0 0 1-.105-.03l-.271-.223q-.029-.027-.03-.088a.14.14 0 0 0-.029-.094a5 5 0 0 1-.259-.33c-.182-.253-.465-.37-.53-.764l.012-.136q-.002-.019.024-.03"/><path fill="#846859" d="M13.536 18.105v.136l-.036.006q-.015 0-.023.017c-.17.365-.483.565-.253 1.018a.16.16 0 0 0 .088.076a.2.2 0 0 1 .112.1a.12.12 0 0 0 .082.07c.094.036.153.119.224.16c.429.23.706.165 1.129.188c-.388.07-.765.023-1.153-.135a1.2 1.2 0 0 0-.623-.065q-.044 0-.053-.035A.06.06 0 0 0 13 19.6c-.006-.006-.017-.012-.035-.006c-.283.017-.647-.036-.606-.4c0-.041.024-.077.059-.1l.618-.453a.1.1 0 0 0 .035-.053l.053-.218a.14.14 0 0 1 .07-.094zm-2.86.047c.089.247.189.371.442.483q.414.177.67.488a.22.22 0 0 1 0 .288l-.223.253a.13.13 0 0 1-.07.041q-.776.123-1.542.265a1.8 1.8 0 0 1-1.07-.2c.294 0 .647.053.917-.088c.224-.118.353-.177.547-.265a.14.14 0 0 0 .065-.059l.37-.706a.1.1 0 0 0 0-.105a1.2 1.2 0 0 1-.105-.395"/><path fill="#CCB099" d="M13.53 18.24c.064.395.347.512.53.765c.082.118.164.224.258.33q.029.043.03.094q.001.061.029.088l.27.224q.045.036.106.03c.13-.024.224.01.288.093l-.182.012c-.423-.024-.7.041-1.13-.188c-.07-.036-.129-.124-.223-.16a.13.13 0 0 1-.082-.07a.18.18 0 0 0-.112-.1a.15.15 0 0 1-.088-.076c-.23-.453.082-.653.253-1.018c0-.012.012-.017.023-.017h.03z"/><path fill="#382B2B" d="m8.224 18.494l.188-.106q.107-.055.053.058c-.053.106-.123.171-.223.183c-.07.012-.106-.018-.106-.082c0-.03.012-.042.041-.048h.047z"/><path fill="#846859" d="M8.477 18.764q-.053-.035 0-.07a.6.6 0 0 1 .2-.095q.175-.044.13.124q-.046.212-.33.035z"/><path fill="#E2D0BC" d="m16.089 19.153l.012.117c0 .035.023.059.058.076c.6.277.977.224 1.63.16c.053 0 .059.011.023.052c-.123.136-.235.23-.329.27a13.35 13.35 0 0 1-6.059 1.154a.5.5 0 0 1 .253-.059l.017-.011a.04.04 0 0 0 .019-.053c-.018-.024-.036-.036-.066-.03a.05.05 0 0 1-.046-.018a.05.05 0 0 1-.006-.047q.087-.219.317-.165h.041l.583-.129a.1.1 0 0 0 .047-.023a.84.84 0 0 1 .47-.177a.14.14 0 0 0 .095-.041l.035-.041a.12.12 0 0 1 .088-.036l.577-.006c.611.06 1.082.06 1.423.018c.412-.053.647-.647.818-1.012"/></g></svg>