<svg xmlns="http://www.w3.org/2000/svg" xmlns:xlink="http://www.w3.org/1999/xlink" width="24" height="24" viewBox="0 0 24 24"><g fill="#E47D32"><path d="M12 3.26c-4.698 0-8.745 4.047-8.745 8.744s4.047 8.744 8.744 8.744s8.745-4.047 8.745-8.744s-4.048-8.745-8.745-8.745m0 18.737a9.93 9.93 0 0 1-7.065-2.93A9.96 9.96 0 0 1 2.793 8.113a9.96 9.96 0 0 1 5.315-5.315a9.93 9.93 0 0 1 7.782 0a9.96 9.96 0 0 1 5.316 5.315a9.93 9.93 0 0 1 0 7.783a9.96 9.96 0 0 1-5.316 5.315a9.9 9.9 0 0 1-3.89.787"/><path d="M13.423 11.741a.688.688 0 0 1-.344-1.287l5.934-3.397a.691.691 0 1 1 .687 1.199l-5.934 3.392a.7.7 0 0 1-.343.093"/><path d="M13.243 11.741c-.344 0-.625-.312-.618-.687l.012-3.985c0-.38.275-.687.618-.687c.344 0 .625.312.619.687l-.013 3.985c0 .375-.275.687-.618.687"/><path d="M16.759 13.628a.7.7 0 0 1-.325-.082l-3.448-1.686c-.337-.169-.462-.55-.281-.856a.723.723 0 0 1 .937-.25l3.448 1.687c.33.168.456.55.274.855a.71.71 0 0 1-.605.325zm-4.748 8.138c-.343 0-.618-.312-.618-.7l-.019-7.738c0-.381.275-.7.613-.7c.343 0 .618.313.618.7l.019 7.732c0 .381-.275.7-.613.7z"/><path d="M8.545 16.064a.7.7 0 0 1-.6-.35a.71.71 0 0 1 .25-.956l3.448-2.036a.687.687 0 0 1 .937.25a.707.707 0 0 1-.25.962l-3.435 2.03a.7.7 0 0 1-.35.093z"/><path d="M15.31 16.176a.7.7 0 0 1-.376-.112l-3.316-2.15a.706.706 0 0 1-.213-.961a.684.684 0 0 1 .956-.212l3.31 2.148a.704.704 0 0 1 .22.962a.69.69 0 0 1-.582.325m-4.104-4.778a.69.69 0 0 0-.25-.937L4.629 6.844a.688.688 0 1 0-.688 1.193l6.328 3.604a.687.687 0 0 0 .937-.25z"/><path d="M10.756 11.741c.344 0 .625-.312.618-.687l-.012-3.985c0-.38-.275-.687-.619-.687s-.624.312-.618.687l.013 3.985c0 .375.274.687.618.687"/><path d="M7.24 13.603a.7.7 0 0 0 .325-.075l3.447-1.762c.338-.168.463-.562.282-.874a.717.717 0 0 0-.937-.269l-3.448 1.755c-.331.175-.456.563-.275.881a.7.7 0 0 0 .606.343"/></g></svg>