<svg xmlns="http://www.w3.org/2000/svg" xmlns:xlink="http://www.w3.org/1999/xlink" width="24" height="24" viewBox="0 0 24 24"><g fill="none"><path fill="#181B1E" d="M7.232 6.21c-.919-.61-1.286-1.296-2.735-1.296c-.638 1.194-.454 3.286-.14 4.437l.616 1.99c.151.389.194.28.032.67c-.07.173-.184.308-.27.54c-1.405 3.444-1.27 5.373 2.081 7.562c3.773 2.46 6.692 2.53 10.362.12c1.19-.779 2.92-2.238 2.93-4.12c0-.4-.081-1.15-.152-1.562c-.162-.908-.497-1.697-.945-2.48c-.281-.498.319-1.698.551-2.687c.254-1.065.486-1.962.432-3.081c-.038-.811-.313-1.044-.405-1.406a3.35 3.35 0 0 0-1.903.622l-.297.216a13 13 0 0 0-.616.465c.043-.324.216-1.519.357-1.73c.14-.21.162-.086-.098-.486c-.205-.297-.108-.238-.389-.168c0 .54.07.422-.195.687c-.162.146-.545.335-.81.4C14.584 4.21 15.13 3.4 15.13 3.4c-.487-.324 0-.21-.698-.049c-.194.811-.054.211-.194.67c-.011.017-.379.703-.427.779c-.72-.19-1.184-1.281-1.514-1.897c.243-.362.124 0-.027-.633c-.14-.032-.097.011-.27 0h-.124c-.152.011-.076-.167-.146 0c-.27.633.562.638-1.049 2.13c-.124.119-.265.2-.405.303c-.709-.514-.606-.914-.709-1.352c-.475 0-.756-.302-.68.217l.043.14c.054.243.048-.038.048.184c0 .297-.546.978-.73 1.108c-.367-.081-.718-.308-.773-.622c-.097-.54.579-.367-.345-.589a5 5 0 0 0-.406.4c.162.325.508.281.508 2.022"/><path fill="#F07E17" d="M14.525 13.822c.189.032.15.07.118-.12a2.7 2.7 0 0 1 1.363-.74c.919-.243 1.06.14 1.06.962c-.747.47-1.812 1.017-3.11.865c-.02-.448.282-.81.569-.967m-4.325.919c-.594.254-1.838-.141-2.324-.346c-1.584-.692-.551-1.47-.335-1.47c1.589-.011 2.784 1.334 2.665 1.816zm-5.962 1.421l.681-.102a4.55 4.55 0 0 1 3.514 1.675c.021-.021.054-.07.06-.06c.059.12.907-.54 1.08-.81c2.07-3.135 4.827-1.568 5.406 1.08c1.762-1.134 1.946-1.783 4.767-1.837c-.07-1.308-.281-2.508-.827-3.524c-.497-.94-.448-.692-.124-1.773c.567-1.87 1.227-3.649.589-5.503c-.708.01-1.19.324-1.61.6c-1.109.735-.866.757-1.195 1.01c-.055.974-.076.871-.044 1.125c.103.876-.102.627-2.178.346a23.3 23.3 0 0 0-5.784.054c-.286.038-.848.19-1.048-.065l-.07-1.47c-.325-.135-.406-.308-.612-.508l-.15-.14c-.568-.47-1.196-.979-1.985-1.038c-.416 1.156-.346 1.648-.183 2.989c.264 2.21 1.145 3.21.832 3.94c-.681 1.579-.919 1.838-1.119 4.011"/><path fill="#FFFFFE" d="M12.72 19.114c-.196.108-.33.178-.45.183c-.286.006-.443-.238-.908-.205c-.54.054-1.119.173-1.524-.098c.243-.302.184-.172.67-.13c.74.055 1.34-.129 1.492-.983c-.951-.481-1.043-.508-.919-1.757c.449-.108.633-.07 1.211-.07c.59 0 .681-.108 1.016.168c.454.908-.2 1.389-.767 1.702c.124.476.378.779.865.908c1.08.281.93-.378 1.297.233c-.935.286-1.287-.092-1.984.048m-7.817-3.05c.243 1.158.432 2.087 1.367 2.8l2.406 1.839c.432.432 2.573 1.06 3.508 1.01c2.065-.119 4.681-1.41 6.097-2.778c.498-.486 1.665-1.913 1.444-2.822c-2.828.05-2.547.287-4.309 1.417c-.578-2.66-4.33-4.07-6.4-.935c-.167.27-.567 1.048-.627.93c-.719-.903-1.821-1.406-3.486-1.46"/><path fill="#FDEB22" d="M11.081 6.308c-.248-.065-.248.033-.48-.4c.183-.357.102-.162.426-.47c.254-.249.406-.557.87-.838c.368.108.54.378.779.638c.238.265.48.421.61.665c-.172.216-.432.448-.67.702c-.232.238-.362.465-.708.584c-.303-.162-.73-.54-.832-.88zm-2.416-.897A2.05 2.05 0 0 1 7.6 4.95c-.303-.232-.032-.102-.384-.27l.476 2.897c.768.07 3.27-.189 4.308-.167l4.335.28c.054-.67.081-1 .173-1.62c.07-.482.233-1.152.243-1.552c-1.237.622-2.93 1.881-4.4-.865c-.054-.113-.097-.243-.167-.346c-.254-.416.054-.178-.324-.286c-.633 1.48-1.595 2.589-3.195 2.389"/><path fill="#D03E16" d="m16.562 7.308l-.054.195c.216.167.032-.011.184.178c.232.308 1.405 3.21 1.405 3.21c.135.2.054.109.249.282c.054-.503.108-.422.292-.914c.497-1.286.821-3.297.53-4.621c-.368.065-1.098.486-1.39.68l-.308.2c-.443.325-.454.53-.908.79M4.865 5.67c-.325.73-.011 3.12.313 4.06c.102.384.301.736.579 1.021c.178-.61.524-1.092.756-1.551c.692-1.351 1.2-1.222.081-2.46a4 4 0 0 0-.302-.297c-.379-.34-1.065-.794-1.427-.773"/><path fill="#F7A74B" d="M7.67 7.914c-.037.73.162.367 1.692.286c1.946-.097 2.768-.151 4.757.01c.719.06 1.557.282 2.216.303l.011-.491c-.73-.449-7.886-.633-8.676-.108"/><path fill="#FEE9D7" d="m8.686 20.703l-2.162-1.99a4.02 4.02 0 0 1-1.61-2.648l-.682.097c-.08.53.357 1.33.579 1.638c.68.94 2.821 2.724 3.875 2.903"/><path fill="#FFFFFE" d="M14.93 11.243c-.325.092-.92.352-.73.752c.162.324 1.065.28 1.487.259c1.308-.092.378-1.335-.757-1.01m-5.649.827c.184-.843-1.292-1.173-1.919-.578c-.913.865 1.173.93 1.92.578"/><path fill="#F7AF67" d="M4.703 15.914c.486-.233.162-.6.627-2.282l.07-.243l.103-.297c.216-.552.616-1.179.719-1.568c-.449.038-.303-.08-.72.768a6.4 6.4 0 0 0-.432 1.092l-.28 1.21c-.028.19-.071.45-.12.687c-.108.503-.13.41.033.633"/><path fill="#FCC009" d="M8.34 5.222c.882.086.871.15 1.623-.2c-.044-.352-.141-.39-.298-.611c-.216-.33-.108-.362-.41-.487c-.022.017-.044.017-.044.049l-.87 1.243zm5.552-.114c.757.124.725.033 1.444 0c-.136-.27-.228-.319-.39-.605c-.27-.492-.13-.433-.465-.595c-.14.33-.524.833-.589 1.2"/><path fill="#181B1E" d="M7.135 4.703a.54.54 0 1 0 0-1.081a.54.54 0 0 0 0 1.08m2.162-.54a.54.54 0 1 0 0-1.08a.54.54 0 0 0 0 1.08m7.568.541a.54.54 0 1 0 0-1.081a.54.54 0 0 0 0 1.08m-2.162-.54a.54.54 0 1 0 0-1.08a.54.54 0 0 0 0 1.08M12 3.081a.54.54 0 1 0 0-1.08a.54.54 0 0 0 0 1.08"/><path fill="#F7AF67" d="M6.524 11c.368-.2.103-.119.546-.751c.114-.163.108-.146.206-.298c.243-.362.81-.892.54-.978c-.27-.092-.713.638-.854.865l-.162.254c-.395.627-.508.551-.27.908z"/><path fill="#F4971C" d="M11.595 2.61c.189.282.016.163.405.271c.151-.103.524-.292.222-.6c-.335-.351-.568-.06-.627.324z"/><path fill="#E5232D" d="M12.719 19.114c-.103-.33-.14-.341-.416-.503c-.195.108-.184.054-.417.443l-.037.081l.864-.022z"/><path fill="#F4971C" d="M7.2 3.919c-.406.01-.427.443-.092.486a.26.26 0 0 0 .276-.194c.043-.233-.054-.19-.184-.292"/><path fill="#F7A74B" d="M16.638 4.043c.097.39-.033.298.454.287c-.01-.135.038-.249-.07-.335c-.303-.282-.379.048-.384.048"/><path fill="#F49717" d="M14.46 3.405c-.054.4.07.584.324.325c.265-.265.081-.373-.324-.325m-5.411.206c.021.01.054.01.06.038c.01.032.053.032.07.032c.135.027.156.022.286.027l-.103-.405c-.432.054-.254-.103-.313.308"/><path fill="#FBBE00" d="M11.098 6.13c.08-.325-.022-.681-.314-.211c.162.2.027.108.313.216z"/><path fill="#F9BD01" d="M13.103 5.908c-.14-.19-.01-.13-.324-.167v.308c.335.06.135.102.324-.14"/><path fill="#F0F3FA" d="M9.027 14.432a.27.27 0 1 0 0-.54a.27.27 0 0 0 0 .54m5.946 0a.27.27 0 1 0 0-.54a.27.27 0 0 0 0 .54"/><path fill="#F9BD01" d="M11.081 6.227v.097l.827.811l.795-.81l-.022-.093h-1.6zm1.46-.265c-.476-.61-.665-.508-.811-.432l-.054.032l.07-.146c.022-.054.027-.06.14-.194c.2.113.206.13.217.162c.01.032.027.07.151.189c.13.114.162.162.206.162c.037.006.086-.038.237-.108c-.065-.238-.14-.303-.27-.416a3 3 0 0 1-.216-.206c-.12-.113-.168-.162-.335-.264l-.72.778l.012.054l.01.027c0 .01 0 .027.011.038l.011.043l.016.081l.027.081c.011.016.016.027.033.12z"/></g></svg>