<svg xmlns="http://www.w3.org/2000/svg" xmlns:xlink="http://www.w3.org/1999/xlink" width="24" height="24" viewBox="0 0 24 24"><g fill="none"><path fill="url(#tokenBrandedKint0)" d="M12 7.625a4.362 4.362 0 1 1 0 8.725a4.362 4.362 0 0 1 0-8.725"/><path fill="#051332" d="m9.706 9.281l-.131.35c.775 0 .675.106 1.112-.35c.47-.5.37-.262 1.138-.287c1.175-.019.475-.769 2.112-.769c-1.237.325-.943.656-1.768 1.094a5.4 5.4 0 0 1-2.25.675l.443.437c1.882.057 1.625.657 2.832.469c.687-.1 1.687-.044 2.368.106l.6.306l-2-.1c.456.7-.025-.025-.062 2.138c.187.144.294.231.518.375c.3.212.32.181.438.469c.15.268.106.443.194.725a4.356 4.356 0 0 0-3.238-7.294H11.8c-.181.181-.438.281-.944.813c-.425.456-.837.6-1.15.843m5.188 5.994c-.37-.375-.876-.181-2.313-.494c-.437-.1-.894-.3-1.125-.331c-.625-.081-.256.169-1.081-.063c.231.538.325.15.356.932c-.268-.1-.287-.144-.5-.3l-1.206-1.025c-.206-.27-.231-.4-.544-.57c-.275-.155-.412-.143-.687-.299a4.364 4.364 0 0 0 7.1 2.15"/><path fill="#051332" d="M11.712 12.181c-.213.431-.525.519-1.125.563c-.912.068-.756.2-1.381.337l-.013.244c.394.075.756.3.982.669c1.25.412.425.112.98.087c.25-.012.77.281 1.126.325l1.218.213c.688.087.77-.157 1.307.218l.018-.643c-1.562-1.05-.387-2.313-1.3-2.375c-.7-.044-1.312.325-1.812.356z"/><path fill="#051332" d="M7.756 13.013c1.75.087.481.124 1.675-.3c.363-.132.631-.026 1.044-.076c.4-.062.512-.268.8-.45c.669-.656 1.406-.212 1.962-.512c-.412-.263-.525-.044-.98-.25c-.332-.163-.288-.269-.688-.425c-.738-.294-1.338.156-1.675-.563c-.463-.218-.788-.287-1.2-.018c-.438.28-.37.312-.938.512a4.26 4.26 0 0 0 0 2.082m.069-2.282c.525-.125.287-.156.687-.5c.67-.581.525.056.263-.725c.587.3.437.538.819-.212l.1-1a4.33 4.33 0 0 0-1.87 2.437"/><path fill="#181B1E" fill-rule="evenodd" d="M21.362 2.688c-.28-.957-4.687-.907-9.862.093c-5.162 1-9.137 2.582-8.862 3.532c.281.956 4.687.906 9.862-.094s9.137-2.581 8.862-3.531m-8.25 2.906c4.044-.875 7.638-2.206 7.638-2.625c0-.825-4.2-.625-8.487.131c-4.457.788-9 2.294-9 3.006c0 .77 5.193.494 9.856-.512zm8.25 12.093c-.28-.956-4.687-.906-9.862.094c-5.162 1-9.137 2.581-8.862 3.531c.281.956 4.687.906 9.862-.093c5.175-1 9.137-2.582 8.862-3.532m-8.25 2.906c4.044-.874 7.638-2.206 7.638-2.624c0-.825-4.2-.625-8.487.13c-4.457.788-9 2.295-9 3.007c0 .769 5.193.494 9.856-.513z" clip-rule="evenodd"/><defs><linearGradient id="tokenBrandedKint0" x1="12" x2="12" y1="2" y2="22" gradientUnits="userSpaceOnUse"><stop stop-color="#733D14"/><stop offset=".28" stop-color="#D77925"/><stop offset=".58" stop-color="#A74121"/><stop offset=".75" stop-color="#D47825"/><stop offset="1" stop-color="#8B4C18"/></linearGradient></defs></g></svg>