<svg xmlns="http://www.w3.org/2000/svg" xmlns:xlink="http://www.w3.org/1999/xlink" width="24" height="24" viewBox="0 0 24 24"><g fill="none"><path fill="url(#tokenBrandedKlay0)" d="M12.358 2a9.6 9.6 0 0 1 6.056 2.331L7.27 15.494z"/><path fill="url(#tokenBrandedKlay1)" d="M12.358 2a9.6 9.6 0 0 1 6.056 2.331L7.27 15.494z"/><path fill="url(#tokenBrandedKlay2)" d="m13.27 12.025l6.425-6.45a10.106 10.106 0 0 1 0 12.85z"/><path fill="url(#tokenBrandedKlay3)" d="m13.27 12.025l6.425-6.45a10.106 10.106 0 0 1 0 12.85z"/><path fill="url(#tokenBrandedKlay4)" d="m2.02 11.375l7.824-7.856l-5.575 14.85a10.07 10.07 0 0 1-2.25-6.994"/><path fill="url(#tokenBrandedKlay5)" d="m2.02 11.375l7.824-7.856l-5.575 14.85a10.07 10.07 0 0 1-2.25-6.994"/><path fill="url(#tokenBrandedKlay6)" d="m5.607 19.669l6.431-6.394l6.425 6.394A10 10 0 0 1 12.038 22a10 10 0 0 1-6.431-2.331"/><path fill="url(#tokenBrandedKlay7)" d="m5.607 19.669l6.431-6.394l6.425 6.394A10 10 0 0 1 12.038 22a10 10 0 0 1-6.431-2.331"/><defs><linearGradient id="tokenBrandedKlay0" x1="10.492" x2="10.492" y1="2" y2="31.643" gradientUnits="userSpaceOnUse"><stop stop-color="#FF8300"/><stop offset=".51" stop-color="#E91A00"/><stop offset="1" stop-color="#7C0000"/></linearGradient><linearGradient id="tokenBrandedKlay1" x1="26.195" x2="1.367" y1="38.591" y2="10.197" gradientUnits="userSpaceOnUse"><stop stop-color="#9D0097" stop-opacity=".85"/><stop offset="1" stop-color="#9D0097" stop-opacity="0"/></linearGradient><linearGradient id="tokenBrandedKlay2" x1="-.906" x2="-.906" y1="-3.564" y2="27.564" gradientUnits="userSpaceOnUse"><stop stop-color="#FF8300"/><stop offset=".51" stop-color="#E91A00"/><stop offset="1" stop-color="#7C0000"/></linearGradient><linearGradient id="tokenBrandedKlay3" x1="19.139" x2="-5.804" y1="34.86" y2=".188" gradientUnits="userSpaceOnUse"><stop stop-color="#9D0097" stop-opacity=".85"/><stop offset="1" stop-color="#9D0097" stop-opacity="0"/></linearGradient><linearGradient id="tokenBrandedKlay4" x1="27.497" x2="27.497" y1="-.045" y2="26.89" gradientUnits="userSpaceOnUse"><stop stop-color="#FF8300"/><stop offset=".51" stop-color="#E91A00"/><stop offset="1" stop-color="#7C0000"/></linearGradient><linearGradient id="tokenBrandedKlay5" x1="49.806" x2="30.409" y1="33.204" y2="-1.476" gradientUnits="userSpaceOnUse"><stop stop-color="#9D0097" stop-opacity=".85"/><stop offset="1" stop-color="#9D0097" stop-opacity="0"/></linearGradient><linearGradient id="tokenBrandedKlay6" x1="11.946" x2="11.946" y1="-23.845" y2="22" gradientUnits="userSpaceOnUse"><stop offset=".51" stop-color="#E91A00"/><stop offset="1" stop-color="#7C0000"/></linearGradient><linearGradient id="tokenBrandedKlay7" x1="20.75" x2="3.875" y1="26.688" y2="10.75" gradientUnits="userSpaceOnUse"><stop stop-color="#9D0097" stop-opacity=".85"/><stop offset="1" stop-color="#9D0097" stop-opacity="0"/></linearGradient></defs></g></svg>