<svg xmlns="http://www.w3.org/2000/svg" xmlns:xlink="http://www.w3.org/1999/xlink" width="24" height="24" viewBox="0 0 24 24"><g fill="none"><path fill="#3E0176" d="m14.724 4.894l.488-1.012l.335-.529l.388-.488l.318-.312l.553-.341c.859-.406 1.718-.012 2.259.688c.5.647.87 1.376 1.117 2.206c.57 1.917.765 3.823.76 5.776c0 .235.258.647.364.882a6.82 6.82 0 0 1 .57 4.282l-.511 1.453l-.177.336l-.447.664c-1.706 2.165-4.658 3.188-7.352 3.441c-3.306.306-7.541-.541-9.823-3.1c-1.977-2.217-2-5.305-.53-7.776a.3.3 0 0 0 .047-.182C3.07 8.892 3.346 6.91 3.907 5q.203-.662.53-1.27l.458-.736c.223-.294.5-.535.823-.735c1.165-.724 2.23.206 2.847 1.118c.318.47.57 1.035.824 1.564c.006.024.023.03.041.024a7.4 7.4 0 0 1 5.217.017c.024.012.042 0 .053-.017a.2.2 0 0 0 .024-.07"/><path fill="#646484" d="m16.253 2.553l.553-.341a.97.97 0 0 0-.553.341"/><path fill="#C1C1CF" d="M8.16 3.87a2.9 2.9 0 0 0-1.012-.835a1.25 1.25 0 0 0-1.188.024l-.153.076c-.212.106-.4.318-.547.5q-.046.052-.03-.011l.03-.112c.353-.518 1-1.118 1.647-.859c.411.176.547.376.823.624q.184.159.43.594m10.746-.152v.017c-.006.012-.017.012-.023 0c-.324-.376-.571-.63-1.083-.753c-.447-.105-.723.018-1.106.224a.6.6 0 0 0-.164.112a10 10 0 0 0-.589.553l.4-.542l.483-.435c.864-.647 1.688.088 2.082.824"/><path fill="#646484" d="m15.941 2.865l-.394.488c.089-.194.224-.353.388-.488zm.4.464l.483-.435a.88.88 0 0 0-.483.435"/><path fill="#646484" d="M8.16 3.87c.135.154.247.33.335.542c.159.394.318.735.47 1.117q.061.157.307.147c.306.2.623.036.923-.053a6.86 6.86 0 0 1 4.041.124c.206.07.4.065.565-.059c.182.03.276-.059.347-.217l.423-1q.142-.345.37-.6c.2-.2.395-.389.59-.553a.8.8 0 0 1 .164-.118c.382-.2.659-.323 1.106-.218c.511.124.758.377 1.082.76q.009.01.018-.007v-.017q.042-.002.058.04c.1.23.247.46.336.654q.194.447.323.917c.541 1.841.677 3.706.706 5.588c0 .347.1.447.259.736a6.37 6.37 0 0 1 .759 3.705a.06.06 0 0 1-.03.047l-.041.03l-.059-.17l-.165-.4a1 1 0 0 0-.476-.53c-.676-.412-1.512-.27-2.2.035c-.323.147-.53.247-.612.312c-.729.53-1.6.835-2.5.547l-.482-.247l-.194-.153a1.3 1.3 0 0 0-.612-.406c-.017 0-.023.012-.029.024l.006.023c-.27-.394-1-.488-1.459-.5c-.488-.012-.982.006-1.47.053c-.318.03-.765.135-.965.412q-.018-.054-.141.035a.8.8 0 0 0-.365.218a2.17 2.17 0 0 1-2.276.5c-.494-.153-.912-.483-1.294-.694c-.76-.412-1.853-.73-2.63-.153a.8.8 0 0 0-.376.417l-.194.424l-.088.259c-.047-.283-.094-.589-.077-.865a6.87 6.87 0 0 1 1.059-3.365a.3.3 0 0 0 .035-.164c.012-1.606.136-3.224.488-4.794q.168-.637.365-1.265l.012-.023c.035-.177.094-.353.176-.518q.24-.485.512-.935l-.03.112c-.011.04 0 .047.024.011c.184-.248.426-.446.706-.576a1.25 1.25 0 0 1 1.188-.024c.359.171.7.447 1.012.836m-3.723-.14l.458-.736q-.3.32-.458.735"/><path fill="#646484" d="m14.724 4.894l.488-1.012a4 4 0 0 0-.488 1.012"/><path fill="#3E0176" d="M6.83 7.088c-.211.212-.417.5-.64.747c-.254.282-.436.624-.66.93c-.082.117-.147.27-.217.364c-.106.141-.347.118-.435-.018a.44.44 0 0 1-.042-.247q.052-1.642.518-3.223c.023-.088.1-.165.1-.259c0-.13.076-.23.118-.317c.14-.347.34-.606.6-.794c.494-.353 1.029.1 1.2.576l.07.141c.047.088.047.188.088.283c.1.235.136.547.194.8c.036.129.006.223-.076.282c-.282.2-.512.43-.818.735m9.641-.665c-.1-.082-.176-.182-.153-.323q.12-.616.353-1.2c.212-.47.659-.912 1.235-.588c.36.194.63.817.747 1.194q.53 1.693.56 3.464c0 .306-.336.43-.5.16a11 11 0 0 0-2.236-2.707z"/><path fill="#C33979" d="M7.095 5.676c-.224-.264-.47-.629-.841-.294c-.23.212-.26.406-.436.589c.077-.336.353-1.118.683-1.277a.16.16 0 0 1 .2.053c.2.282.33.588.394.93m11.164.365c-.188-.318-.553-.982-.959-.682a1.6 1.6 0 0 0-.33.376c.065-.323.218-.782.477-1a.11.11 0 0 1 .141 0c.36.27.57.883.67 1.306"/><path fill="#C1C1CF" d="M14.8 5.694c-.164.118-.353.118-.564.053a6.8 6.8 0 0 0-4.041-.118c-.3.083-.618.247-.924.047a6.9 6.9 0 0 1 5.53.018"/><path fill="#FC517B" d="M7.095 5.676L7.17 6a.06.06 0 0 1-.017.059l-.588.57c-.118.112-.224.23-.33.353l-.765.912c-.011.012-.017.006-.017-.006a9.4 9.4 0 0 1 .365-1.917c.176-.183.205-.377.435-.589c.376-.335.617.03.84.294m11.164.365q.282.918.335 1.87q.009.083-.035.012a11.3 11.3 0 0 0-1.665-1.852a.06.06 0 0 1 0-.036l.077-.294c.117-.176.223-.3.33-.382c.405-.294.764.364.958.682"/><path fill="#fff" d="M7.43 10.235c-.441-.412-.253-1.006.312-1.194c.57-.194 1.253.023 1.47.594c.177.447-.047 1.094-.588 1.177c-.465.064-.859-.26-1.194-.577m9.323-.141c-.324.547-1.459 1.194-1.9.306c-.412-.841.482-1.541 1.294-1.377c.53.1.906.565.606 1.07"/><path fill="#3E0176" d="M8.824 12.958c.182.289.235.606.212.942c0 .029-.024.04-.06.029l-.017-.012a7 7 0 0 0-.423-.441c-.747-.718-1.559-.53-2.318.059c-.03.018-.059.03-.088.018l-.015-.006l-.013-.01a.04.04 0 0 1-.007-.032c.188-1.352 2.011-1.705 2.735-.547zm9.023.13a.76.76 0 0 1 .124.394l-.006.023l-.018.018a.05.05 0 0 1-.059 0c-.718-.47-1.612-.682-2.259.059q-.24.27-.458.559h-.018a.05.05 0 0 1-.041 0a.05.05 0 0 1-.023-.03c-.089-.623.093-1.112.552-1.453a1.516 1.516 0 0 1 2.206.43"/><path fill="#fff" d="M9.548 14.688a.63.63 0 0 0 .364-.218q.123-.088.147-.035c-.247.353.277 1.094.542 1.323q.103.115.235.177c.017 0 .03.017.035.029s.012.03.006.041c-.118.67-.63.983-1.282.906a1.4 1.4 0 0 1-.618-.223c-.141-.095-.253-.13-.323-.106a2 2 0 0 1-.212-.377a.06.06 0 0 0-.053-.035h-.01l-.009.002a.02.02 0 0 0-.01.016q-.072.528.176.976c.253 1.03.917 1.641 2 1.823q.088.493.582.871a12.7 12.7 0 0 1-5.14-1.37a7.26 7.26 0 0 1-2.683-2.294a4.4 4.4 0 0 1-.518-1.012l.194-.424l.377-.417c.776-.577 1.87-.26 2.63.153c.382.211.8.54 1.293.694c.841.264 1.641.123 2.277-.5m11.022-.347l.477.523l.165.4c-.547 1.43-1.782 2.547-3.159 3.247a13 13 0 0 1-5.064 1.359c-.06.011-.083-.006-.077-.059c.253-.17.412-.412.488-.712a1.5 1.5 0 0 1 .389-.206c.805-.282 1.311-.735 1.552-1.57a1.4 1.4 0 0 0 .289-1.118l-.008-.008l-.01-.003H15.6a.1.1 0 0 0-.053.029c-.635.765-2.088 1.176-2.494-.1a.15.15 0 0 1 .006-.106a.15.15 0 0 1 .077-.07c.3-.142.517-.353.647-.647c.106-.212.294-.624.164-.824v-.03c0-.011.006-.023.024-.023a.1.1 0 0 1 .059.018c.117.164.359.294.553.388l.194.153a.8.8 0 0 0 .482.247c.9.294 1.77-.018 2.5-.547a6 6 0 0 1 .612-.312c.688-.306 1.529-.441 2.2-.03m-7.717.123l-.04.077a.08.08 0 0 1-.048.04l-.353.118c-.235.03-.465.036-.694 0l-.5-.123a.1.1 0 0 1-.041-.024a.08.08 0 0 1-.006-.088a.1.1 0 0 1 .03-.035l.176-.088c.412-.095 1.094-.136 1.476.117z"/><path fill="#C1C1CF" d="m2.972 14.758l.376-.417a.8.8 0 0 0-.376.417"/><path fill="#646484" d="m11.371 14.34l-.17.089a.1.1 0 0 0-.03.035a.08.08 0 0 0 .006.088l.041.024l.5.13c-.153.029-.512 0-.588-.16c-.065-.123.13-.223.241-.205"/><path fill="#C1C1CF" d="M20.57 14.34a.97.97 0 0 1 .477.524l-.476-.53zm-6.546.1c.218.083.406.207.559.389a1.6 1.6 0 0 1-.56-.388"/><path fill="#646484" d="M12.853 14.464q.043.177-.223.23h-.224l.359-.118a.08.08 0 0 0 .047-.035z"/><path fill="#C1C1CF" d="M9.548 14.688a.63.63 0 0 0 .365-.218a.8.8 0 0 0-.365.218"/><path fill="#C5B2D6" d="M2.777 15.176c.142.394.318.735.518 1.023a7.26 7.26 0 0 0 2.682 2.288a12.7 12.7 0 0 0 5.141 1.371q.346.211.788.247q.574.044 1.006-.294c-.006.053.018.07.077.059l.082-.012a13 13 0 0 0 4.982-1.347c1.382-.706 2.612-1.817 3.159-3.247l.059.17a.9.9 0 0 1 .011.448q-.086.354-.182.682l-.488 1.023l-.2.318l-.324.43q-.485.556-1.059 1q-.362.185-.664.44q-.519.335-.977.53a13.6 13.6 0 0 1-8.987.606c-2.694-.718-5.188-2.347-5.706-5.206c-.018-.088.012-.176-.006-.264l.088-.26z"/><path fill="#C5B2D6" d="M13.783 15.294q-.196.442-.647.647a.15.15 0 0 0-.077.076a.15.15 0 0 0 0 .106c.4 1.27 1.853.859 2.488.1a1.75 1.75 0 0 1-.988 1.03c-.247.023-.47.105-.7.1c-.235 0-.47-.036-.717-.095c-.43-.153-.824-.576-.824-1.059q0-.034.035-.04a2.12 2.12 0 0 0 1.43-.86zm-3.182.464q.149.06.288.147c.232.142.494.23.764.26a.07.07 0 0 1 .03.046v.036c-.112.482-.377.823-.812 1.005a1.3 1.3 0 0 0-.306.06a2 2 0 0 1-.623.034a.7.7 0 0 0-.265-.04a1.53 1.53 0 0 1-1.03-.724q.117-.036.33.106q.265.178.618.223c.653.077 1.17-.235 1.282-.906l-.006-.041a.07.07 0 0 0-.035-.03a.7.7 0 0 1-.236-.176"/><path fill="#646484" d="M21.876 16.046q-.088.775-.511 1.453zm-.776.518c-.076.37-.235.718-.488 1.023z"/><path fill="#C5B2D6" d="M8.542 17.164a1.9 1.9 0 0 0 1.365.847q.015.008.023.024c.11.273.304.506.553.664l.006.03l.041.264c-1.076-.188-1.741-.8-1.988-1.823z"/><path fill="#646484" d="M10.871 17.252c-.311.147-.588.106-.905.106q.36.018.6-.053c.129-.03.229-.053.305-.053m3.688 0a.9.9 0 0 1-.4.112c-.276 0-.682.082-1.017-.106q.372.087.718.094c.229.006.453-.076.7-.1"/><path fill="#C5B2D6" d="M15.342 17.323c-.236.835-.748 1.288-1.548 1.57a1.5 1.5 0 0 0-.394.206l.053-.311a.07.07 0 0 1 .036-.053c.282-.165.494-.4.63-.695a.06.06 0 0 1 .046-.035a1.88 1.88 0 0 0 1.177-.682"/><path fill="#F42F42" d="M12 18.54c.006 0 .018 0 .03-.011q.09-.57.159-1.141l.635.44c.012.007.012.018.012.024c-.012.365.041.883-.06 1.177c-.193.506-.834.588-1.264.352c-.523-.294-.394-1.017-.394-1.529a.06.06 0 0 1 .035-.053q.366-.17.66-.447l.008.007l.003.01l.135 1.142q-.001.037.042.03"/><path fill="#646484" d="M21.188 17.835q-.158.372-.447.664zm-.776.07q-.104.254-.324.43zm-1.389 1.435a2 2 0 0 1-.658.436c.2-.17.417-.318.659-.436"/></g></svg>