<svg xmlns="http://www.w3.org/2000/svg" xmlns:xlink="http://www.w3.org/1999/xlink" width="24" height="24" viewBox="0 0 24 24"><g fill="none"><path fill="url(#tokenBrandedKmd0)" d="M12 3.875A8.125 8.125 0 0 0 3.875 12A8.125 8.125 0 0 0 12 20.125A8.125 8.125 0 0 0 20.125 12c0-.963-.167-1.885-.473-2.74a.938.938 0 0 1 1.765-.632A10 10 0 0 1 22 12c0 5.523-4.477 10-10 10S2 17.523 2 12S6.477 2 12 2c1.066 0 2.094.167 3.06.477a.938.938 0 0 1-.574 1.785A8.1 8.1 0 0 0 12 3.875"/><path fill="url(#tokenBrandedKmd1)" d="M20.125 5.75a1.875 1.875 0 0 1-1.875 1.875c-.538 0-1.127.045-1.507.425l-.583.584c-.657.656-.675 1.695-.488 2.603a3.75 3.75 0 1 1-2.981-2.923c.887.165 1.892.129 2.531-.51l.765-.765c.327-.327.388-.826.388-1.29a1.875 1.875 0 0 1 3.75 0"/><defs><linearGradient id="tokenBrandedKmd0" x1="18.145" x2="7.383" y1="4.572" y2="20.018" gradientUnits="userSpaceOnUse"><stop stop-color="#00ECD2"/><stop offset="1" stop-color="#1B456E"/></linearGradient><linearGradient id="tokenBrandedKmd1" x1="17.836" x2="11.446" y1="5.402" y2="14.573" gradientUnits="userSpaceOnUse"><stop stop-color="#00ECD2"/><stop offset="1" stop-color="#1B456E"/></linearGradient></defs></g></svg>