<svg xmlns="http://www.w3.org/2000/svg" xmlns:xlink="http://www.w3.org/1999/xlink" width="24" height="24" viewBox="0 0 24 24"><g fill="none"><path fill="#F231AF" d="m9.885 13.44l1.126 3.183a.824.824 0 0 0 1.029.48c.417-.131.646-.554.508-.96l-.891-2.486l4.983 2.269c.429.194.943.034 1.149-.366a.78.78 0 0 0-.39-1.074l-5.113-2.332l2.543-4.114c.228-.389.074-.88-.366-1.086c-.44-.205-1-.068-1.234.32l-2.435 3.943l-.754-2.126a.823.823 0 0 0-1.023-.48c-.417.132-.652.555-.514.96l.548 1.543v.029c-.023.743-.274 1.429-1.017 1.429c-1.332 0-1.332-2.263-1.332-2.915c0-.646.486-5.046 6.098-5.046c5.617 0 7.48 4.8 7.48 7.51c0 2.708-2.086 7.308-7.852 7.308c-.148 0-1.223 1.714.275 1.714c5.04 0 9.297-4.103 9.297-9.171c0-1.2-.354-4.486-3.314-6.944a8.65 8.65 0 0 0-5.812-2.171c-2.24 0-4.069.829-5.269 1.754c-2.514 1.943-2.663 4.892-2.663 5.446c0 1.32.76 4.229 3.04 4.229a2.29 2.29 0 0 0 1.903-.846"/><path fill="url(#tokenBrandedKmon0)" d="M12.589 19.429v1.714h-.011C3.858 21.143 2 11.27 2 11.27l1.486-.412c0 2.195 3.12 8.572 8.817 8.572z"/><defs><linearGradient id="tokenBrandedKmon0" x1="13.766" x2="1.417" y1="20.001" y2="19.092" gradientUnits="userSpaceOnUse"><stop offset=".15" stop-color="#F231AF"/><stop offset="1" stop-color="#fff" stop-opacity="0"/></linearGradient></defs></g></svg>