<svg xmlns="http://www.w3.org/2000/svg" xmlns:xlink="http://www.w3.org/1999/xlink" width="24" height="24" viewBox="0 0 24 24"><g fill="none"><path fill="#FFC800" fill-rule="evenodd" d="M12 22a10 10 0 1 0 0-20a10 10 0 0 0 0 20m0-1.177a8.824 8.824 0 1 0 0-17.648a8.824 8.824 0 0 0 0 17.649" clip-rule="evenodd"/><path fill="#2C2E35" d="M8.471 7.759v9.512l1.765-.942V8.741zm2.941 5.87l1.33 1.012l-1.33.882z"/><path fill="#FFC700" d="m12.748 10.835l1.459 1.059l-1.189.765l1.494 1.182l2.783-1.63l-7.3-5.382l-1.524.9l2.941 2.136v1.794z"/></g></svg>