<svg xmlns="http://www.w3.org/2000/svg" xmlns:xlink="http://www.w3.org/1999/xlink" width="24" height="24" viewBox="0 0 24 24"><path fill="#7133F5" d="M11.998 4C6.476 4 2 8.75 2 14.607v4.546c0 .836.639 1.514 1.427 1.514c.789 0 1.432-.678 1.432-1.514v-4.546c0-.838.637-1.516 1.427-1.516c.789 0 1.428.678 1.428 1.516v4.546c0 .836.638 1.514 1.427 1.514c.79 0 1.43-.678 1.43-1.514v-4.546c0-.838.638-1.516 1.427-1.516c.79 0 1.432.678 1.432 1.516v4.546c0 .836.638 1.514 1.427 1.514c.788 0 1.427-.678 1.427-1.514v-4.546c0-.838.639-1.516 1.432-1.516c.788 0 1.427.678 1.427 1.516v4.546c0 .836.639 1.514 1.43 1.514c.788 0 1.427-.678 1.427-1.514v-4.546C22 8.75 17.522 4 11.998 4"/></svg>