<svg xmlns="http://www.w3.org/2000/svg" xmlns:xlink="http://www.w3.org/1999/xlink" width="24" height="24" viewBox="0 0 24 24"><g fill="none"><path fill="#94A3B2" d="M18.67 19.07c-1.059 2.03-9.17.688-12.752-.03c-1.776.618-.865 1.753 1.13 2.283c2.858.764 9.91 1.194 12.446-.46c1.176-.752.282-1.575-.824-1.793"/><path fill="#131314" d="M5.918 19.04c.847 1.071.982 1.606 2.694 2.06c2.976.811 3.435-.454 3.852-.677c.612.647 1.118 1.353 3.094.841c1.06-.282.236-.412 1.67-.441c.883-.018 1.071-.077 1.624-.412c.147-.694.177-.782-.176-1.341c-.018-.03-.059-.088-.077-.059c-.017.03-.058-.047-.076-.059l-.224-.206c-.623-.858.294-1.135 1.265-3.534c.282-.724.465-1.53.788-2.165c.388-.765.583-1.224.406-2.465c-.282-1.94-.018-3.4-1.264-4.635c-.924-.917-.389-.976-.836-2.123C17.2.142 16.052 3.1 14.164 3.54c-1.847.43-1.33.53-2.588.683c-.776.088-.688.276-1.235.394c-.941.194-.588-.218-2.953.323c-.535 2.312.4 3.006.67 3.759c.389 1.118-.505 1.724.965 3.9l-1.158 1.505c-.46.383.135.189-.624.265c-.253-.94-1.547-1.105-2.176-.988c-1.8.353-2.724 2.918-.888 4.023c1.647 1 1.217-.382 1.74 1.636"/><path fill="#F9AE5F" d="M9.176 12.012c.195-.16 2.294-3.9 2.353-4.059l-.03-.476c1.024.029.983-2 3.471-.371c.024.018.07 0 .083.03c.017.029.076.029.094.029c.847.076 1.217-.335 2.411.235c.965.459 1.277.724 2.57.741c-.587-2.24-1.129-1.764-1.5-2.564c-.387-.841-.358-3.253-1.64-3.118c-.383.041-1.218.659-1.518.865c-1.176.841-1.247.353-2.382.882c-.759.353-.353.235-1.306.353c-.688.088-.73.253-1.223.382c-.43.118-1.024.06-1.53.089c-1.505.076-1.194.311-1.282.43c-.623.781.565 2.564.759 3.075c.388.989-.353 2.106.67 3.477"/><path fill="#FEFEFE" d="M11.53 7.935c-.253.66-.923.66-1.353 1.941c-.63 1.841-.988.677-1.017 2.118c.464.959 1.653 1.947 2.8 2.406c1.37.547 3.035.364 4.376-.06c2.764-.87 4.27-2.705 3.794-6.199c-1.294-.017-1.606-.282-2.57-.74c-1.207-.571-1.565-.177-2.412-.236c-.018 0-.077.017-.095-.03c-.011-.029-.058-.011-.088-.029l-1.011-.394c.017.07-.236 1.97-2.236.97c-.217.195-.147-.282-.188.253"/><path fill="#F9AE5F" d="M9.119 20.852c.77-.753.7-.253 1.082-1.635l-.635-.076c-.018-.042-.06-.042-.077-.071c.506-.4.565-.118 1.147-.294c.953-2.476-.941-2.212-1.43-2.976c1.683-.165 2.277 1.458 1.83 2.976c.294.412.388.176.824.6c.488.47.058.382.664.723c.018-.823-.253-2.017.106-2.664c.165.206.077-.018.165.335c.04.194.04.224.059.412c.029.506-.165 1.517.117 1.976c-.03-1.265 1-.93 2.335-1.517l-.07-1.03c.223-.194-.27-.282.447-.076c.223-.824.03-.835-.135-1.618c-3.065.294-4.988-.194-6.012-2.9c-.435.248-.612.6-.982 1c-.224.236-.882.794-.97.96c-.742 1.146.164 1.01-1.442 2.193c-.164 2.118 1.218 3.223 2.977 3.682"/><path fill="#020202" d="M11.53 7.935c.041-.529-.03-.076.194-.235c.771.97.471.512 1.441 1.059c-.64 1.635-1.47.853-2.1.841c.048 1.13.553 1.206 1.206 1.812c-.206.882.018 1.647 1.06 1.576c.923-.076 1.293-.694 1.623-1.33c.447-.87.982-.588 1.488-1.458c.4-.676.564-1.812-.106-2.4c-.906.294-.612 1.518-2.394 1l-.465-.206c.106-.412.73-.5.477-1.87l1.011.4c-.323-.265-.176-.165-.311-.412c.464-.647.7-.412 1.117-.735c-.717-.353-1.07.206-1.506.54c-1.847-.658-1.858.354-3.094.677c-.564.147-.535 0-.788.624l1.118-.312z"/><path fill="#FEFEFE" d="M15.47 15.9c.165.782.33.753.107 1.588l.011 1.847c1.46-.383 3.441-3.182 3.859-5.141c-1.159.635-1.13 1.194-3.976 1.706"/><path fill="#F9AE5F" d="M4.471 16.153c.718.04.147 0 .594.364c1.565 1.33 3.441-2.811.418-2.753c-2.118.06-2.723 3.024-.353 3.594c.818.194.43.06.588-.059c-.74-.47-1.053-.176-1.247-1.146"/><path fill="#BC262D" d="M10.453 14.076c1.059 1.87 5 2.03 7.682.588c1.088-.588 2.518-2.046 2.247-3.582c.282 1.059-2.87 4.435-7.158 4c-1.353-.153-1.818-.641-2.765-1.006z"/><path fill="#FEFEFE" d="m12.958 20.14l.089.606c.67.265 2.2.471 2.858-.058c.46-.971-.747-1.077-1.329-1.471c.106-.088-.03-.223.688-.118l.03-.47c-1.06.13-1 .47-2.442.323z"/><path fill="#F58B8C" d="M13.777 9.965c-.506.105-.418.135-.641.635c-.177.394-.236.47-.4.782c-1.012 1.812 2.023 2.206 2.394-1.694c-1.888-.253-.506 1.794-1.859 2.4c-.018-.176.412-1.547.506-2.117z"/><path fill="#FDFDFD" d="M8.807 20.793c.635.118 1.947.324 2.588.03c1.206-.559.43-1.706-1.43-1.588c-.388 1.382-.388.806-1.158 1.558m7.676-.352c.747.058 1.47.011 2.058-.224c.089-.665.147-.665-.358-1.047c-.765-.588-.294-.306-.642-.841c-.39.503-.881.92-1.44 1.223l.382.883z"/><path fill="#0B0906" d="M17.53 2.736c-1-.224-1.806.776-2.071 1.323c.43.353.53.118 1.488.735c.953.618.894.824 1.459.853c-.03-1.088-.506-2.117-.882-2.911zM7.952 5.459c-.029.041-.264-.059-.164.794l.97 2.294c.389-.376.43-1.03.624-1.53c.253-.646.553-.982.806-1.352c-.524-.4-1.683-.459-2.236-.206"/><path fill="#FAD995" d="M16.053 3.894c.682.447 1.323.724 1.858 1.106c0-.706-.411-1.517-.623-2.029a1.67 1.67 0 0 0-1.235.923M8.7 7.818l.788-2.047l-1.352-.135c-.02.764.176 1.518.564 2.176z"/><path fill="#FDFDFD" d="M10.694 6.253c.265.694 1 .588 1.118-.1c-.282-.206-.982-.412-1.118.1"/><path fill="#FBFDFB" d="M13.689 5.783c.623.058.935-.089.964-.677c-.564-.294-1.058-.106-.964.676"/></g></svg>