<svg xmlns="http://www.w3.org/2000/svg" xmlns:xlink="http://www.w3.org/1999/xlink" width="24" height="24" viewBox="0 0 24 24"><g fill="none"><path fill="url(#tokenBrandedLand0)" d="M5.514 8.352v7.404l6.485 3.773V22l-8.648-5.135v-9.73z"/><path fill="url(#tokenBrandedLand1)" d="M7.676 9.568v4.864L12 16.864V12z"/><path fill="url(#tokenBrandedLand2)" d="M7.676 4.583L12.054 2l8.594 5.135L12 12L7.676 9.568z"/><path fill="url(#tokenBrandedLand3)" d="M5.514 5.859L3.35 7.135l2.163 1.217z"/><path fill="url(#tokenBrandedLand4)" d="M12.005 19.527V22l8.644-5.135v-9.73L12 12l.002 4.863l6.484-3.782v2.702z"/><defs><linearGradient id="tokenBrandedLand0" x1="3.94" x2="9.389" y1="7.99" y2="21.314" gradientUnits="userSpaceOnUse"><stop stop-color="#5C93F7"/><stop offset="1" stop-color="#1159DF"/></linearGradient><linearGradient id="tokenBrandedLand1" x1="3.941" x2="9.389" y1="7.989" y2="21.313" gradientUnits="userSpaceOnUse"><stop stop-color="#5C93F7"/><stop offset="1" stop-color="#1159DF"/></linearGradient><linearGradient id="tokenBrandedLand2" x1="12.005" x2="12.005" y1="2" y2="11.989" gradientUnits="userSpaceOnUse"><stop stop-color="#6695FE"/><stop offset="1" stop-color="#0B57E0"/></linearGradient><linearGradient id="tokenBrandedLand3" x1="12.005" x2="12.005" y1="2" y2="11.989" gradientUnits="userSpaceOnUse"><stop stop-color="#6695FE"/><stop offset="1" stop-color="#0B57E0"/></linearGradient><linearGradient id="tokenBrandedLand4" x1="19.676" x2="14.671" y1="7.46" y2="22.005" gradientUnits="userSpaceOnUse"><stop stop-color="#084BCE"/><stop offset="1" stop-color="#09166A"/></linearGradient></defs></g></svg>