<svg xmlns="http://www.w3.org/2000/svg" xmlns:xlink="http://www.w3.org/1999/xlink" width="24" height="24" viewBox="0 0 24 24"><g fill="none"><path fill="#95001A" d="m17.223 14.092l-5.024-2.468l-.2.122l-.152-.146l-5.072 2.492l-.2.32l.122.281l4.852 2.383h.9l4.851-2.383l.123-.281z"/><path fill="#40004D" d="m6.575 14.412l5.424 2.664v.222l-3.515 1.727h-.45l-1.46-.726l-.2-.296v-3.272z"/><path fill="#520033" d="m17.423 14.412l-5.422 2.664v.222l3.515 1.727h.45l1.46-.726l.2-.296v-3.272z"/><path fill="#FFA80A" d="m17.425 9.113l-.2.123v4.856l.198.32l.202.319l3.279 1.61h.45L22 16.02z"/><path fill="#FF3417" d="m6.575 9.113l.2.123v4.856l-.2.32l-.2.319l-3.279 1.61h-.45L2 16.02z"/><path fill="#6D0044" d="M6.575 18.299L2.646 16.34l3.929-1.929z"/><path fill="#6D0074" d="m11.999 21l3.965-1.975l-3.965-1.948l-3.966 1.948z"/><path fill="#6D0044" d="m17.425 18.299l3.929-1.958l-3.93-1.929z"/><path fill="#FFA80A" d="M12 3h-1.375l-4.05 6.113l.2.123l5.224-2.567v-.22l.2-.139l.001-3.137z"/><path fill="#D7001F" d="M11.999 6.448L6.575 9.113v5.299l5.424-2.666l.2-.122V6.767z"/><path fill="#FFE50A" d="M12 3h1.375l4.05 6.113l-.2.123l-5.026-2.47l-.2-.318z"/><path fill="#EF8109" d="M17.423 14.412L12 11.746V6.448l5.424 2.665z"/></g></svg>