<svg xmlns="http://www.w3.org/2000/svg" xmlns:xlink="http://www.w3.org/1999/xlink" width="24" height="24" viewBox="0 0 24 24"><g fill="none"><path fill="#2AB643" d="M3.913 6.344L7.663 2l5.675 1.194l1.743 5.043l5.175 1.094L22 14.738l-3.656 4.343l-5.407-1.031L9.482 22l-5.568-1.062L2 15.4l3.562-4.113l-1.65-4.937z"/><path fill="#068210" d="M9.638 7.713L7.956 2.806l4.8.944l1.519 4.762l-3.169 3.494l-4.78-.812zm6.906 6.15L14.856 8.95l4.807.95l1.512 4.762l-3.169 3.494l-4.775-.812zm-8.819 3.043L6.044 12l4.8.95l1.519 4.762l-3.17 3.488l-4.78-.813z"/><path fill="#fff" d="M7.982 12.706L5.85 6.27l3.093-2.044l1.831 5.237L12.3 7.625l.582 1.531l-1.6 1.938l1.018 2.762l5.226-3.269l.837 2.25l-8.5 5.288l-1.375-3.75l-1.469 1.731l-.562-1.606z"/></g></svg>