<svg xmlns="http://www.w3.org/2000/svg" xmlns:xlink="http://www.w3.org/1999/xlink" width="24" height="24" viewBox="0 0 24 24"><g fill="none"><path fill="#C4C4C4" d="M7.112 8.134a.955.955 0 0 1 1.53 0l4.923 6.612c.43.576.082 1.375-.588 1.497a.64.64 0 0 1-.344-.048l-2.692-1.038a5.74 5.74 0 0 0-4.127 0L3.12 16.195a.65.65 0 0 1-.344.048a.947.947 0 0 1-.588-1.497z"/><path fill="url(#tokenBrandedLcs0)" d="M7.112 8.134a.955.955 0 0 1 1.53 0l4.923 6.612c.43.576.082 1.375-.588 1.497a.64.64 0 0 1-.344-.048l-2.692-1.038a5.74 5.74 0 0 0-4.127 0L3.12 16.195a.65.65 0 0 1-.344.048a.947.947 0 0 1-.588-1.497z"/><path fill="url(#tokenBrandedLcs1)" fill-rule="evenodd" d="m13.342 14.447l.223.299c.43.576.081 1.375-.589 1.496a.64.64 0 0 1-.343-.047L9.94 15.157a5.74 5.74 0 0 0-3.67-.154l-.032-.015c1.933-.73 6.014-1.864 6.957-.711q.077.095.147.17" clip-rule="evenodd"/><path fill="url(#tokenBrandedLcs2)" d="M15.358 15.867a.955.955 0 0 0 1.53 0l4.923-6.613c.43-.576.081-1.375-.588-1.496a.64.64 0 0 0-.343.048l-2.693 1.037a5.74 5.74 0 0 1-4.128 0l-2.692-1.037a.64.64 0 0 0-.344-.048a.947.947 0 0 0-.588 1.496z"/><path fill="url(#tokenBrandedLcs3)" fill-rule="evenodd" d="m21.588 9.554l.223-.3c.43-.576.082-1.375-.588-1.496a.64.64 0 0 0-.343.048l-2.693 1.037a5.74 5.74 0 0 1-3.67.154l-.032.015c1.933.73 6.013 1.864 6.957.711q.078-.095.146-.17" clip-rule="evenodd"/><defs><linearGradient id="tokenBrandedLcs0" x1="12" x2="12" y1="7.75" y2="16.251" gradientUnits="userSpaceOnUse"><stop offset=".146" stop-color="#283DA8"/><stop offset=".615" stop-color="#4196F9"/></linearGradient><linearGradient id="tokenBrandedLcs1" x1="11.999" x2="11.999" y1="7.749" y2="16.251" gradientUnits="userSpaceOnUse"><stop stop-color="#283EAA"/><stop offset=".776" stop-color="#4171F9"/></linearGradient><linearGradient id="tokenBrandedLcs2" x1="12" x2="12" y1="16.25" y2="7.749" gradientUnits="userSpaceOnUse"><stop stop-color="#DB9D16"/><stop offset="1" stop-color="#E2DA20"/></linearGradient><linearGradient id="tokenBrandedLcs3" x1="18.242" x2="18.242" y1="10.216" y2="7.75" gradientUnits="userSpaceOnUse"><stop stop-color="#E0A500"/><stop offset=".743" stop-color="#ECCD3C"/></linearGradient></defs></g></svg>