<svg xmlns="http://www.w3.org/2000/svg" xmlns:xlink="http://www.w3.org/1999/xlink" width="24" height="24" viewBox="0 0 24 24"><g fill="none"><path fill="url(#tokenBrandedLdo0)" d="m11.997 14.365l-5.673-3.332l-.161.244a7.02 7.02 0 0 0 .941 8.684a6.89 6.89 0 0 0 9.786 0a6.996 6.996 0 0 0 .941-8.684l-.16-.244z"/><path fill="url(#tokenBrandedLdo1)" d="m17.643 11.044l-5.629 3.31l-5.668-3.31l5.668-2.989z"/><path fill="url(#tokenBrandedLdo2)" d="m12.002 2l4.893 7.721l-4.893 2.873z"/><path fill="url(#tokenBrandedLdo3)" d="M12.003 2v10.594L7.11 9.716z"/><defs><linearGradient id="tokenBrandedLdo0" x1="11.997" x2="11.997" y1="2" y2="22.007" gradientUnits="userSpaceOnUse"><stop stop-color="#498BE9"/><stop offset="1" stop-color="#56F2FF"/></linearGradient><linearGradient id="tokenBrandedLdo1" x1="11.997" x2="11.997" y1="2.017" y2="22" gradientUnits="userSpaceOnUse"><stop stop-color="#4A8CEA"/><stop offset=".7" stop-color="#5ABEF4"/></linearGradient><linearGradient id="tokenBrandedLdo2" x1="13.472" x2="10.749" y1="13.118" y2="22.81" gradientUnits="userSpaceOnUse"><stop stop-color="#FB8174"/><stop offset=".56" stop-color="#568FDD"/></linearGradient><linearGradient id="tokenBrandedLdo3" x1="8.145" x2="9.031" y1="7.297" y2="11.576" gradientUnits="userSpaceOnUse"><stop stop-color="#FFE235"/><stop offset=".61" stop-color="#5DCBA2"/></linearGradient></defs></g></svg>