<svg xmlns="http://www.w3.org/2000/svg" xmlns:xlink="http://www.w3.org/1999/xlink" width="24" height="24" viewBox="0 0 24 24"><g fill="none"><path fill="#F6B630" fill-rule="evenodd" d="m13.241 2.21l-.037.353c0 .058-.02.063-.047.01l-.252-.494a.1.1 0 0 0-.032-.042a.1.1 0 0 0-.053-.016L12.31 2q-.03 0-.037.032q-.076.769-.084 1.542l.015.01q.277.071.569.048l.026-.011a.04.04 0 0 0 .01-.026l.038-.41q.002-.098.052-.011l.242.447a.12.12 0 0 0 .09.063l.51.053c.006 0 .016 0 .021-.01a.04.04 0 0 0 .016-.022l.016-.12q.064-.655.105-1.38c0-.016 0-.031-.01-.042a.05.05 0 0 0-.037-.02l-.48-.048q-.117-.01-.126.116zm-2.547 1.237l-.074.042q-.077.042-.084-.052L10.378 2.4c-.016-.09-.058-.126-.142-.121c-.19.01-.374.042-.553.084q-.03.006-.02.037c.041.263.084.547.115.847c.021.169.058.327.121.464c.158.378.642.194.88.026a.09.09 0 0 1 .115 0l.031.02h.037l.543-.13q.032-.009.026-.048l-.21-1.432a.07.07 0 0 0-.022-.042a.06.06 0 0 0-.042-.02a2.2 2.2 0 0 0-.684.147a.02.02 0 0 0-.005.026l.184 1.063c.01.058-.006.105-.053.126zm-1.805.348l.284-.137a.06.06 0 0 1 .068.01q.015.01.016.027l.158.39v.052a.07.07 0 0 1-.037.037l-.968.452a.06.06 0 0 1-.053 0a.07.07 0 0 1-.031-.037l-.537-1.347a.07.07 0 0 1 .01-.074l.021-.015l.558-.253a.06.06 0 0 1 .053 0c.01.005.026.021.031.037l.337.826l.016.021a.06.06 0 0 0 .047.021c.006 0 .016 0 .021-.01zm6.505.173l-.142-.052a.06.06 0 0 0-.042 0a.06.06 0 0 0-.032.026l-.079.142a.06.06 0 0 1-.031.032a.06.06 0 0 1-.043 0l-.636-.237a.1.1 0 0 1-.027-.016a.07.07 0 0 1-.01-.084l.747-1.263a.06.06 0 0 1 .032-.027h.042l1 .385c.01 0 .02.015.026.026c.01.016.01.032.01.047l-.168 1.49c0 .01 0 .02-.01.031l-.016.021a.06.06 0 0 1-.053 0l-.51-.21a.06.06 0 0 1-.032-.026a.1.1 0 0 1-.005-.042l.021-.169c0-.016 0-.031-.01-.047a.06.06 0 0 0-.032-.027m.2-.8l-.074.469c0 .02-.015.031-.037.031a.3.3 0 0 1-.115-.042q-.034-.022-.01-.052l.21-.416q.04-.086.026.01" clip-rule="evenodd"/><path fill="#F6B630" d="M3.053 13.053a.526.526 0 1 0 0-1.053a.526.526 0 0 0 0 1.053m17.894 0a.526.526 0 1 0 0-1.053a.526.526 0 0 0 0 1.053"/><path fill="#090403" d="m8.816 6.095l.205.147l.847.99a.07.07 0 0 0 .069.02l.626-.157a7.7 7.7 0 0 1 3.484.173l.016-.01A6.9 6.9 0 0 1 16.337 5.4q.284-.134.394-.174q.16-.063.406-.094c.252-.043.484.084.552.336c.134.41.203.838.206 1.269l-.016.442c0 .2-.01.347-.016.437a8.2 8.2 0 0 1-.348 1.842l-.294.763a.1.1 0 0 0 .01.095c.21.326.369.684.485 1.073a.4.4 0 0 0 .173.232c-.058.053-.073.142-.037.247l.053.174a6.2 6.2 0 0 1 .126 1.758a2.4 2.4 0 0 1-.194.768a.1.1 0 0 0-.006.053l.021.1c-.052-.016-.084 0-.105.032a5.2 5.2 0 0 1-1.42 1.605a9.4 9.4 0 0 1-3.885 1.684c-.537.105-1.053 0-1.59-.147a9.5 9.5 0 0 1-3.273-1.58a5.3 5.3 0 0 1-1.19-1.278a2.66 2.66 0 0 1-.473-1.432q-.04-1.027.315-2.174c.116-.399.288-.78.51-1.131a.05.05 0 0 0 .006-.058a7.4 7.4 0 0 1-.658-2.926c0-.163-.01-.337-.02-.527c.015-.436.078-.873.2-1.315c.168-.632.915-.274 1.278-.11q.183.076.421.225c.269.174.553.337.853.5z"/><path fill="#EEAD4F" d="M10.136 7.495c.174.158.348.316.495.494c.38.48.696 1.007.937 1.569c.19.416.268.774.395 1.274c0 .01.01.015.02.015q.025 0 .032-.031q.079-.678.474-1.49a5.6 5.6 0 0 1 .974-1.49l.326-.347l.337.116c.016.01.032 0 .042-.01a6.26 6.26 0 0 1 2.479-2.032q.268-.125.537-.163c.131-.021.21.037.247.163c.08.274.126.553.148.837a7.44 7.44 0 0 1-.706 3.884q.267.385.437.821c.363.906.516 1.884.421 2.858c-.005.058-.047.2-.126.41q.023-.435-.042-.61c-.2-.526-.842-.526-1.305-.368a3.9 3.9 0 0 0-1.695 1.142a.03.03 0 0 1-.032-.016l-.005-.016c-.016-.279-.132-.526-.295-.752a3.9 3.9 0 0 0-1.395-1.18a1.78 1.78 0 0 0-1.768.022a4 4 0 0 0-1.358 1.163a1.35 1.35 0 0 0-.274.742q0 .088-.057.026c-.58-.636-1.427-1.231-2.295-1.216c-.248 0-.453.1-.61.285a.33.33 0 0 0-.074.147a1.7 1.7 0 0 1-.127.384a2.8 2.8 0 0 1-.084-.726a5.76 5.76 0 0 1 .884-3.116v-.016a7.5 7.5 0 0 1-.716-3.71c.011-.279.064-.6.148-.963c.037-.142.116-.21.247-.195c.137.01.295.053.421.116a6.26 6.26 0 0 1 2.61 2.079c.011.01.027.016.043.01l.316-.105z"/><path fill="#DB7425" d="M16.931 9.358a4 4 0 0 1-.22.474l-.014.005q-.008 0-.014-.002a.03.03 0 0 1-.02-.02a4.4 4.4 0 0 0-1.137-1.552a2.05 2.05 0 0 0-.89-.537a.04.04 0 0 1-.011-.029q0-.015.011-.029a6.7 6.7 0 0 1 2.169-1.842c.105-.052.221-.1.337-.126a.05.05 0 0 1 .052.032c.106.305.158.615.169.936a7 7 0 0 1-.432 2.69M9.311 7.72c-.238.084-.438.168-.632.332a4.56 4.56 0 0 0-1.416 1.789h-.01a.07.07 0 0 1-.032-.032a3.4 3.4 0 0 1-.2-.426a7 7 0 0 1-.442-2.42a3.5 3.5 0 0 1 .184-1.227a.105.105 0 0 1 .116-.027c.952.411 1.805 1.143 2.442 1.964q.023.03-.016.047z"/><path fill="#FFD83E" d="M14.063 7.258A6.9 6.9 0 0 1 16.336 5.4c-.21-.126-.4-.242-.579-.337a7.8 7.8 0 0 0-6.3-.537c-.315.116-.736.358-.894.674a.5.5 0 0 0-.053.332c.032.158.137.342.305.563l.206.147c.294.19.563.348.9.516c.21.105.42.21.642.337a7.7 7.7 0 0 1 3.484.173zm3.826-.516a7.9 7.9 0 0 1 1.674 2.942c.052.19.1.41.131.674q.002.048-.037.063c-.01 0-.031 0-.052-.01a12 12 0 0 0-2.095-.948a8.2 8.2 0 0 0 .379-2.72m-11.795.053l.021.526a7.3 7.3 0 0 0 .669 2.926a.05.05 0 0 1-.006.058c-.215.327-.389.7-.526 1.132a6.5 6.5 0 0 0-.316 2.174a2.63 2.63 0 0 0 .48 1.431c.336.49.736.921 1.21 1.274a9.7 9.7 0 0 0 3.316 1.579c.552.152 1.068.252 1.615.158a9.6 9.6 0 0 0 3.937-1.69a5.25 5.25 0 0 0 1.448-1.605c.02-.037.052-.047.105-.032l1.684-.305c.016-.005.026 0 .021.026l-.073.253c-.79 2.316-2.748 4.053-5.095 4.81c-3.09 1-6.469 0-8.558-2.405a7.8 7.8 0 0 1 .068-10.31"/><path fill="#DB7425" d="m13.79 7.49l-.327.347c-.405.42-.69.905-.974 1.49c-.238.467-.398.97-.473 1.489c0 .02-.016.026-.032.031c-.01 0-.021 0-.021-.015c-.126-.5-.205-.858-.395-1.274a7 7 0 0 0-.937-1.569a5 5 0 0 0-.494-.494a7 7 0 0 1 3.652-.006"/><path fill="#FF6F04" d="M17.51 9.463a11.7 11.7 0 0 1 2.095.948c.021.01.042.015.053.01q.038-.015.037-.063c.031.1.068.19.09.295a7.7 7.7 0 0 1 .046 2.305q-.007.045-.047.026c-.7-.342-1.29-.868-1.895-1.358a.4.4 0 0 1-.179-.231a4 4 0 0 0-.5-1.121l.006-.053z"/><path fill="#090403" d="M8.926 11.674a2.2 2.2 0 0 0-.932.158a.02.02 0 0 1-.01-.01c0-.022 0-.038.02-.054c.843-.705 2.438-.468 2.927.564q.054.11-.042.031a3.26 3.26 0 0 0-1.963-.69m6.905.116a3.11 3.11 0 0 0-2.815.61a.02.02 0 0 1-.016-.005l-.004-.013q0-.008.004-.014c.473-1.015 2-1.32 2.873-.657q.228.173-.042.079"/><path fill="#fff" d="M17.605 14.374a4.9 4.9 0 0 1-1.632 1.868a9.3 9.3 0 0 1-3.432 1.495a2.6 2.6 0 0 1-1.179-.016a9.4 9.4 0 0 1-3.615-1.647a4.7 4.7 0 0 1-1.232-1.39a2.4 2.4 0 0 1-.242-.558c.053-.126.1-.252.126-.384a.3.3 0 0 1 .074-.147a.8.8 0 0 1 .61-.285c.869-.015 1.711.58 2.295 1.211c.037.047.058.037.063-.021c0-.263.106-.526.269-.742a4 4 0 0 1 1.358-1.158a1.77 1.77 0 0 1 1.768-.026c.552.277 1.03.68 1.395 1.179c.174.22.279.488.3.768q.005.008.013.013a.03.03 0 0 0 .018.003l.016-.01c.45-.52 1.03-.913 1.68-1.137c.457-.153 1.105-.159 1.304.373c.048.116.058.316.043.61"/><path fill="#090403" d="M12.873 12.763a2.26 2.26 0 0 0-1.8 0c-.016 0-.021 0-.021-.016v-.015l.005-.021a1.62 1.62 0 0 1 1.847.02l-.01.027c-.005.005-.01.01-.021 0z"/><path fill="#090403" d="M11.947 14.39c0-.027-.005-.037-.032-.043a.82.82 0 0 1-.636-.431a1.8 1.8 0 0 1-.227-.921a.08.08 0 0 1 .048-.074a1.94 1.94 0 0 1 1.715-.026c.053.026.085.074.08.131c0 .374-.095.706-.285.985q-.18.276-.568.331c-.021 0-.037.016-.037.042c-.005.19.226.216.368.232q.577.062 1.232-.074c.216-.042.463-.142.616-.3a.1.1 0 0 0 .026-.068a.46.46 0 0 0-.084-.284l.016-.006l.01-.005l.012.002a.02.02 0 0 1 .01.008q.204.335.173.685c-.027.331-.305.505-.574.647a1.95 1.95 0 0 0-.784.895c-.116.252-.232.552-.442.731c-.295.253-.663.322-1.021.132c-.385-.21-.516-.595-.695-.958a1.86 1.86 0 0 0-.695-.779c-.368-.2-.668-.384-.605-.874q.04-.309.19-.484q.03-.037.02.01c-.02.064-.052.111-.073.18c-.026.11.026.21.168.29q.237.133.474.178c.424.09.859.113 1.29.069c.136-.011.294-.058.315-.222z"/><path fill="#fff" d="M11.978 13.037c.274 0 .495-.037.495-.08c0-.046-.221-.078-.495-.078s-.495.037-.495.079c0 .047.221.084.495.079"/><path fill="#FC2D52" d="m12 15.51l.053-.236c.005-.08.052-.174.147-.295a.24.24 0 0 1 .2-.105a.36.36 0 0 1 .326.126a.6.6 0 0 1 .127.295c.064.32.027.653-.105.952c-.221.516-.764 1.043-1.28.427a1.55 1.55 0 0 1-.389-1c0-.163.005-.306.026-.421c.016-.137.095-.253.221-.364a.1.1 0 0 1 .043-.015q.379-.056.5.315c.042.121.005.227.1.332q.023.03.031-.01"/><path fill="#F6B630" d="m14.12 21.363l.09-.052a.1.1 0 0 0 .042-.043a.1.1 0 0 0 0-.057l-.316-1.074c0-.021.005-.042.031-.053q.365-.15.753-.19c.016 0 .032 0 .042.011q.016.013.021.032l.369 1.437q.014.031-.027.047l-.631.195a.05.05 0 0 1-.037 0a.1.1 0 0 1-.021-.021c-.016-.021-.037-.026-.058-.026a.1.1 0 0 0-.047.02c-.227.174-.695.406-.942.158c-.127-.126-.211-.352-.248-.526a20 20 0 0 0-.21-.884l.01-.005q.266-.085.542-.132c.121-.026.227-.042.263.121l.264 1c.015.053.052.074.11.042m-4.052-1.168l-.7-.2a.084.084 0 0 0-.106.052l-.42 1.39a.08.08 0 0 0 .057.095l.705.2c.042.015.09-.01.106-.053l.42-1.384a.08.08 0 0 0-.004-.066a.08.08 0 0 0-.053-.04zm1.252 1.695l.021-.422c0-.063.021-.068.053-.01l.3.453a.15.15 0 0 0 .126.068l.547.021q.08.001.08-.068l.052-1.49c0-.01 0-.026-.01-.031a.05.05 0 0 0-.037-.016l-.585-.032a.1.1 0 0 0-.078.032a.1.1 0 0 0-.037.068l-.016.395c0 .058-.021.063-.053.016l-.316-.5a.13.13 0 0 0-.105-.053h-.579l-.026.01a15 15 0 0 0-.047 1.548a.06.06 0 0 0 .015.042q.314.045.632.037q.063-.006.063-.068"/></g></svg>