<svg xmlns="http://www.w3.org/2000/svg" xmlns:xlink="http://www.w3.org/1999/xlink" width="24" height="24" viewBox="0 0 24 24"><g fill="none"><path fill="#08883E" d="m10.718 7.374l.513-1.784l.512 1.784l-.512 1.293z"/><path fill="#E47A04" d="M22 8.667h-2.108l-1.995 3.184l-1.994-3.184h-2.108l3.046 4.872l-3.046 4.871h2.108l1.994-3.184l1.995 3.184H22l-3.046-4.871z"/><path fill="#08883E" d="M9.18 7.128c.358.031 1.158.385 1.538 1.539c-.236-.149-1.303-.246-1.539-1.539m4.102 0c-.359.031-1.159.385-1.539 1.539c.236-.149 1.303-.246 1.539-1.539"/><path fill="#E47A04" d="M4.051 8.667H2v9.743h6.667v-2.05H4.05zm5.41 3.266l-.24-.743a.8.8 0 0 1 .087-.693c.24-.39.543-.887.723-1.194a.26.26 0 0 1 .307-.108c.385.123.77.185.893.2c.118-.015.507-.077.887-.205c.118-.036.256.01.307.113l.472.769l-1.61.308l1.974.384a.8.8 0 0 1-.02.426l-1.005 3.097l-1.298.257l1.144.215l-.851 2.625l-1.513-4.661l1.923-.37z"/><path fill="#B3B3B3" d="m9.18 18.154l2.05-.257l2.052.257l-2.051.256z"/></g></svg>