<svg xmlns="http://www.w3.org/2000/svg" xmlns:xlink="http://www.w3.org/1999/xlink" width="24" height="24" viewBox="0 0 24 24"><g fill="none"><path fill="#21DAD5" d="M16.81 4.466c.012.116 0 .277-.044.488l-.7 3.334l-3.528-1.05l-.406-.122a.4.4 0 0 0-.227-.017l-.39.117a.1.1 0 0 0-.056.039l-.021.044a.1.1 0 0 0-.072-.017c-.15.034-.306.073-.456.117q-1.501.457-2.994.889L7.16 4.593c-.006-.022 0-.06.022-.127l.278-.056l4.317-.728a1.5 1.5 0 0 1 .511.017z"/><path fill="#81E9F4" d="M7.188 4.466a.3.3 0 0 0-.028.127l.756 3.7c-.011.028-.028.05-.045.056L4.588 4.954v-.033l.022-.011l.095-.022zm9.623 0l2.611.444l-3.278 3.439l-.078-.056l.7-3.333c.045-.217.056-.378.045-.494"/><path fill="#018278" d="M19.427 4.91c-.022.056-.016.111.023.144a.66.66 0 0 0-.128.3q-.344 1.947-.706 3.89c-.016.1-.033.2-.06.294c-.034.044-.062.056-.095.044q-1.006-.483-2.017-.955l-.008.007l-.003.01v2.688c.005.028 0 .056-.034.067l-2.977.578a.44.44 0 0 1-.228-.172q-.068-.1.016-.167l.111-.089l.956-1.1l.861-.955c.111-.128.211-.267.334-.39l.255-.288c.133-.161.278-.317.417-.467l3.283-3.445zm-14.84.044l3.279 3.39a1 1 0 0 0 .1.144c.639.706 1.25 1.428 1.889 2.128c.277.305.544.6.8.917c.06.077.139.116.133.227c0 .045-.028.084-.072.123l-.133.11l-3-.622l-.04-.055l.023-2.667v-.017a.03.03 0 0 0-.04-.01l-2 .966a.1.1 0 0 1-.055 0c-.033 0-.044-.022-.05-.05a5 5 0 0 0-.05-.356q-.31-1.702-.611-3.405a3.3 3.3 0 0 0-.206-.734z"/><path fill="#00413B" d="m19.444 5.054l.79 3.645l-.045.056a.07.07 0 0 1-.045.022a.4.4 0 0 0-.166.06q-.55.319-1.4.779l-.023-.078a2 2 0 0 0 .056-.294c.028-.167.044-.278.055-.306l.656-3.584a.6.6 0 0 1 .128-.3zm-14.89-.01q.149.366.206.733q.07.492.172.978l.44 2.427l.055.356c0 .028.011.044.044.056q-.056-.002-.038.022a.2.2 0 0 1-.084-.028a13 13 0 0 0-1.544-.806q.001-.023-.073-.055c.14-.484.256-.978.356-1.478q.208-1.066.467-2.206"/><path fill="#81E9F4" d="M12.538 7.238c.056.355.09.7.145 1.044c.05.3.072.59.11.89l.3 2.2q.051.348.018.455a672 672 0 0 0-1.084 3.861c-.033.106-.055.1-.072-.005c0-.028-.011-.056-.017-.078l-1-3.567q-.084-.273-.067-.422q.264-2.161.573-4.317l.027-.044a.1.1 0 0 1 .045-.04l.394-.11a.4.4 0 0 1 .228.01l.406.123z"/><path fill="#00BAB9" d="m12.538 7.238l3.528 1.055l.078.056c-.144.15-.278.306-.416.467l-.256.289c-.122.122-.222.26-.333.389a62 62 0 0 0-1.823 2.055l-.11.09q-.077.066-.012.166a.44.44 0 0 0 .228.166l1.728 1.706l-1.35 2.272a6 6 0 0 1-.812-.005a15 15 0 0 0-.766-.056a10 10 0 0 0-1.14.045c-.232.016-.471.033-.71.039c-.084.005-.15-.017-.19-.056L8.773 13.6q.033-.022.066.011c.006.017.023.017.04.012a.4.4 0 0 0 .1-.062c.25-.233.488-.505.744-.75q.502-.457.994-.928c.045-.038.073-.077.073-.122c0-.11-.073-.15-.134-.227c-.255-.317-.528-.612-.8-.917c-.639-.7-1.25-1.422-1.889-2.128c-.028-.028-.056-.078-.094-.145c.016 0 .033-.022.044-.055q1.5-.432 3-.889c.145-.044.3-.083.45-.117c.022-.005.05 0 .072.017l-.072.578a224 224 0 0 0-.494 3.739q-.016.149.06.422q.523 1.82 1.023 3.645q.025.165.072 0l.106-.361l.978-3.49q.033-.107-.017-.455l-.3-2.195c-.039-.305-.061-.594-.111-.889c-.056-.35-.089-.694-.145-1.05z"/><path fill="#022825" d="M7.543 11.321c.017.017 0 .028-.039.023L5.432 9.616q-.018-.024.039-.022l.056-.006q1.016-.48 2.027-.967a.03.03 0 0 1 .011.028l-.022 2.667zm11.012-1.783l.022.078c-.139.072-.255.194-.35.277L16.533 11.3a.2.2 0 0 0-.056.078c-.022-.011-.039-.022-.044-.045v-2.69l.003-.01l.008-.006h.016q1.01.473 2 .955c.028.017.056 0 .095-.044"/><path fill="#018278" d="m20.233 8.699l.022.039a.06.06 0 0 0-.055.039a524 524 0 0 0-2.423 3.222l-.088.04a.27.27 0 0 0-.134-.134l-1.078-.528a.2.2 0 0 1 .056-.078l1.689-1.406c.1-.083.217-.205.355-.277q.704-.38 1.395-.778a.4.4 0 0 1 .167-.061a.07.07 0 0 0 .05-.022z"/><path fill="#21DAD5" d="M3.732 8.721c.056.028.072.045.072.056l2.434 3.228c-.011 0-.017 0-.022.01a1 1 0 0 1-.19.2q-.748.576-1.455 1.168c-.016.01-.022.027-.033.044c-.028 0-.067 0-.095.011c-.422.233-.85.467-1.283.69l-.85-1.007l-.289-.36a.11.11 0 0 1-.011-.112l1.722-3.922zm16.523.017l1.74 3.928q.014.042-.012.083l-.294.356l-.85 1.005h-.028c-.534-.277-.961-.5-1.267-.678c-.033-.016-.055-.016-.083-.005a.16.16 0 0 0-.056-.072l-1.05-.834a7 7 0 0 1-.583-.522q1.235-1.635 2.483-3.261"/><path fill="#018278" d="M3.804 8.777c.584.267 1.1.533 1.545.81a.2.2 0 0 0 .083.029l2.073 1.728v.044l-.034.028a24 24 0 0 0-1.233.583z"/><path fill="#035653" d="m7.544 11.321l.044.056a.3.3 0 0 0 .028.111q.74 1.317 1.122 2.034c.011.022 0 .033-.017.033l-2.46-1.545a.07.07 0 0 1 .044-.039l.055-.016q.565-.3 1.145-.567a.06.06 0 0 0 0-.044c.039 0 .055 0 .039-.023m8.889.011c0 .023.022.034.05.045l1.072.528a.26.26 0 0 1 .134.133l-2.44 1.534v-.028c0-.017.006-.028.017-.045l1.134-2.1q.041-.024.033-.067"/><path fill="#11AFAA" d="m7.588 11.371l2.995.628c-.284.278-.572.545-.861.811c-.256.245-.5.517-.745.75a.4.4 0 0 1-.1.062c-.017.005-.033 0-.039-.012q-.033-.034-.066-.01c-.028-.012-.04-.023-.05-.045c.022 0 .022-.011.016-.034c-.255-.477-.633-1.155-1.122-2.027a.4.4 0 0 1-.028-.123m8.812.028l-1.134 2.1a.1.1 0 0 0-.01.045v.027l-.106.106l-1.723-1.7z"/><path fill="#55E7E6" d="M17.778 12c.183.183.366.36.577.527l1.056.833a.16.16 0 0 1 .055.067L18.179 15.1c-.1.128-.167.278-.262.39l-2.389 2.8q-.124.149-.3.255a1.1 1.1 0 0 0-.377-.722a1 1 0 0 1-.156-.19a1 1 0 0 0-.155-.194c0-.055-.017-.083-.04-.094l-.06-.022a1.6 1.6 0 0 0-.145-.367a12 12 0 0 1-.5-1.006l1.356-2.277l.1-.1l2.439-1.534l.083-.039zm-11.54.005c.006.01.017.01.022.005l2.462 1.545c.01.022.027.033.05.044l1.41 2.312l-.06.194a.5.5 0 0 1-.095.178a.5.5 0 0 0-.11.222a.7.7 0 0 1-.118.256a.6.6 0 0 0-.083.183a.48.48 0 0 1-.178.256a.1.1 0 0 1-.05.027a.1.1 0 0 0-.027.011a.027.027 0 0 0 0 .04a.1.1 0 0 1 .027.066q-.04.084.034.111q-.333.24-.473.472c-.11.167-.16.3-.305.4l-.128.106a8 8 0 0 1-.417-.456a508 508 0 0 0-2.144-2.505c-.028-.04-.05-.09-.084-.123l-.016-.044l-1.417-1.878l.033-.044a51 51 0 0 1 1.456-1.167a.9.9 0 0 0 .189-.2c.005-.011.011-.011.022-.011"/><path fill="#00413B" d="M21.688 13.105c.017.128.056.25.056.378c0 .166.067.305.055.46c0 .112.012.229.045.34c.022.066 0 .133.017.194c.027.167.05.322.055.45c.011.122.056.29.034.445c-.034-.017-.056-.023-.067-.006l-1.017-1.206a.1.1 0 0 1-.017-.027l-.01-.023l.85-1zM2.31 13.12l.85 1l-1.056 1.245c-.01-.005-.028 0-.05.033q-.03-.186 0-.372l.04-.244c.055-.545.132-1.1.216-1.667z"/><path fill="#11AFAA" d="m20.833 14.11l.016.023l.017.028l1.017 1.205q-.015.04-.123.039l-1.777-.022c-.523 0-1.178-.045-1.762-.04l-.133-.005c-.017 0-.022.006-.028.023q-.006.25.011.494l.034.372c.05.728.11 1.461.178 2.19v.155l-.006.155l-.445.111q-2.144.517-4.283 1.056l-.078-.006l1.756-1.344c.111-.072.216-.156.3-.256l2.389-2.8c.1-.11.161-.26.261-.389l1.283-1.672a.09.09 0 0 1 .084.005q.627.351 1.267.678h.027zm-16.296-.683l1.417 1.878l-.155.039q-1.8.048-3.6.072c-.078 0-.112-.017-.09-.056l1.056-1.233q.645-.335 1.278-.689c.028-.017.067-.01.094-.01"/><path fill="#022825" d="m10.222 13.594l.738 1v.716l-.003.01a.02.02 0 0 1-.019.01l-.01-.003l-.668-.433l-.011-.005a.02.02 0 0 1-.005-.012l-.061-1.267a.02.02 0 0 1 .022-.022l.01.006zm3.505 1.305l-.667.423h-.016l-.008-.007l-.003-.01v-.722l.739-.99l.01-.005h.018l.008.01l.003.012l-.073 1.278v.006z"/><path fill="#018278" d="m5.955 15.305l.016.044a.6.6 0 0 0-.038.2v.156q-.116 1.507-.217 3.017a.5.5 0 0 1-.128-.05a40 40 0 0 0-1.2-.64a.8.8 0 0 1-.206-.221l-.355-.528l2.056-1.811a.06.06 0 0 0 .016-.078c-.022-.045-.055-.056-.1-.056zm12.267.039l-.089.01q-.027.01-.028.034c0 .045.006.084.04.111c.166.128.305.29.466.422c.333.278.661.562.989.862l.555.5a7 7 0 0 1-.355.544a.6.6 0 0 1-.195.19a38 38 0 0 1-1.327.71v-.155a.4.4 0 0 0 0-.156a71 71 0 0 1-.212-3.056q-.001-.023.023-.022z"/><path fill="#035653" d="M5.799 15.344q.066-.017.1.05a.06.06 0 0 1-.017.078l-2.056 1.81l-.472-.494q-.63-.628-1.25-1.266q-.059-.066-.05-.123q.032-.04.056-.033c-.023.033.01.05.088.05q1.8-.024 3.6-.072"/><path fill="#11AFAA" d="M5.971 15.35c.034.033.056.083.084.122c.722.833 1.433 1.666 2.144 2.505q.202.24.411.456l1.89 1.455l-4.784-1.166l.005-.24q.1-1.466.212-2.933q-.002-.107.038-.2"/><path fill="#035653" d="M18.222 15.344c.583-.006 1.239.033 1.755.039l1.778.022c.078 0 .117-.011.128-.039c.011-.017.033-.011.067.006a.2.2 0 0 1-.073.16a135 135 0 0 0-1.722 1.75l-.556-.5a44 44 0 0 0-.989-.86c-.166-.134-.3-.295-.466-.423a.12.12 0 0 1-.04-.11q.002-.025.029-.034l.083-.011z"/><path fill="#21DAD5" d="M13.8 15.944q.19.459.5 1.011q.082.15.138.367h-.133c-.55-.067-.889-.111-1.033-.111c-.278-.023-.578-.045-.895-.09a2.6 2.6 0 0 0-.622-.01c-.29.033-.634.066-1.045.1a35 35 0 0 0-1.222.133a.08.08 0 0 0-.028-.067a.027.027 0 0 1 0-.039a.1.1 0 0 1 .028-.01l.05-.029a.48.48 0 0 0 .178-.255a.6.6 0 0 1 .083-.183a.65.65 0 0 0 .111-.256a.5.5 0 0 1 .111-.222a.5.5 0 0 0 .1-.178l.056-.194a.25.25 0 0 0 .194.06c.24 0 .478-.022.717-.038a9 9 0 0 1 1.134-.045q.089-.001.772.056q.415.033.805 0"/><path fill="#022825" d="m14.439 17.322l.055.022q.043.018.045.094c-.823.111-1.634.2-2.428.284a1 1 0 0 1-.245 0l-2.344-.267c-.056-.017-.061-.056-.034-.111c.6-.072 1.006-.111 1.223-.134c.41-.033.755-.066 1.044-.1q.249-.031.622.012c.317.044.612.066.895.083l1.033.117z"/><path fill="#81E9F4" d="M14.538 17.444a.8.8 0 0 1 .156.189a1 1 0 0 0 .155.189q.335.306.378.722l-1.755 1.344c-.434.128-.878.273-1.322.423a.43.43 0 0 1-.278 0q-.707-.24-1.373-.423L8.61 18.433l.134-.106c.144-.1.2-.228.305-.4c.095-.155.256-.31.473-.472l2.344.267a1 1 0 0 0 .245 0q1.193-.127 2.427-.278"/></g></svg>