<svg xmlns="http://www.w3.org/2000/svg" xmlns:xlink="http://www.w3.org/1999/xlink" width="24" height="24" viewBox="0 0 24 24"><g fill="none"><path fill="#00934B" d="m4.242 8.248l.059.024l1.135.506a6.9 6.9 0 0 1 3.312-3.312l-.265-.594l-.376-.877c-.43-.853-1.2-.564-1.471-.423a9.65 9.65 0 0 0-2.994 2.917l-.006.048c-.488 1.129.365 1.6.606 1.711"/><path fill="#22D511" d="m5.448 8.766l.964.43l.842.364l.664.3a4.25 4.25 0 0 1 1.935-1.93l-.3-.67l-.37-.835l-.424-.97a6.96 6.96 0 0 0-3.311 3.31"/><path fill="#BEF000" d="m7.907 9.86l2.682 1.176a.47.47 0 0 0 .423-.453l-.564-1.276l-.606-1.388a4.32 4.32 0 0 0-1.935 1.94"/><path fill="#00934B" d="M21.771 9.942c-.447-1.117-1.364-.864-1.617-.764l-.07.029l-.565.218l-.606.235a6.97 6.97 0 0 1 0 4.7l.606.235l.782.3c.906.382 1.288-.265 1.423-.606a9.5 9.5 0 0 0 .047-4.353z"/><path fill="#22D511" d="m18.924 9.666l-.982.376l-1.536.6a4.27 4.27 0 0 1 0 2.735l.665.265l.865.335l.976.383c.535-1.47.57-3.118.012-4.694"/><path fill="#BEF000" d="M16.413 10.648L15 11.195l-1.312.518a.46.46 0 0 0-.076.482a.7.7 0 0 0 .076.13l1.312.506l1.412.546a4.3 4.3 0 0 0 0-2.735z"/><path fill="#00934B" d="m4.471 14.601l.612-.241a6.92 6.92 0 0 1 0-4.694l-.612-.241l-.794-.312c-.917-.37-1.282.312-1.411.647a9.6 9.6 0 0 0-.047 4.276v.012c.447 1.147 1.382.882 1.635.794z"/><path fill="#22D511" d="m5.083 14.354l.977-.377l.853-.335l.676-.265a4.2 4.2 0 0 1 0-2.735l-.676-.264l-.853-.324l-.977-.376a6.88 6.88 0 0 0 0 4.682z"/><path fill="#BEF000" d="m7.6 13.377l1.412-.546l1.3-.506a.46.46 0 0 0-.011-.624l-2.712-1.059c-.294.889-.29 1.85.012 2.735"/><path fill="#00934B" d="m5.46 15.254l-.595.264l-.623.277s-1.089.588-.589 1.712v.011A9.56 9.56 0 0 0 6.69 20.49c.311.147 1.094.4 1.488-.553l.33-.764l.264-.589a7.04 7.04 0 0 1-3.312-3.33"/><path fill="#22D511" d="m9.577 16.766l.289-.66a4.25 4.25 0 0 1-1.936-1.935l-.664.295l-.841.364l-.965.424a6.94 6.94 0 0 0 3.323 3.312l.424-.965l.37-.841z"/><path fill="#BEF000" d="m9.865 16.095l.606-1.394l.565-1.277a.466.466 0 0 0-.447-.435l-1.277.565l-1.394.606a4.27 4.27 0 0 0 1.941 1.935z"/><path fill="#00934B" d="m18.554 8.778l.6-.265l.665-.294l-.06.012c.242-.118 1.083-.577.613-1.683a9.5 9.5 0 0 0-3.13-3.035c-.87-.447-1.412.576-1.412.576l-.335.765l-.264.6a6.9 6.9 0 0 1 3.323 3.324"/><path fill="#22D511" d="m14.436 7.248l-.283.67a4.3 4.3 0 0 1 1.941 1.942l1.506-.653l.953-.43a6.96 6.96 0 0 0-3.323-3.323l-.424.97z"/><path fill="#BEF000" d="m14.153 7.919l-.611 1.388l-.565 1.3a.45.45 0 0 0 .294.394c.041.024.1.035.159.035l1.282-.564l1.394-.612a4.44 4.44 0 0 0-1.953-1.941"/><path fill="#00934B" d="m14.589 19.53l-.242-.606a6.9 6.9 0 0 1-4.688 0l-.24.606l-.395 1.012s-.194.794.953 1.235a9.6 9.6 0 0 0 4.147-.012c.2-.058 1.153-.358.812-1.358z"/><path fill="#22D511" d="m14.353 18.924l-.376-.976l-.33-.865l-.264-.664a4.27 4.27 0 0 1-2.736 0l-.264.664l-.336.865l-.376.976a6.9 6.9 0 0 0 4.688 0z"/><path fill="#BEF000" d="m13.372 16.413l-1.06-2.706a.48.48 0 0 0-.493-.088a.4.4 0 0 0-.124.082l-.506 1.3l-.553 1.412a4.23 4.23 0 0 0 2.736 0"/><path fill="#00934B" d="m9.406 4.478l.235.611a7 7 0 0 1 4.694-.011l.241-.612l.242-.618c.094-.253.352-1.2-.795-1.635L14 2.201a9.9 9.9 0 0 0-4.218.06c-.323.1-1.082.47-.676 1.446l.294.77z"/><path fill="#22D511" d="m9.648 5.09l.376.976l.336.853l.264.676a4.2 4.2 0 0 1 2.736 0l.264-.676l.33-.853l.382-.977a6.9 6.9 0 0 0-4.688 0"/><path fill="#BEF000" d="m10.625 7.595l1.07 2.735a.465.465 0 0 0 .606-.023l.506-1.312l.553-1.411a4.37 4.37 0 0 0-2.735.011"/><path fill="#00934B" d="m19.766 15.772l-.071-.024l-.541-.235l-.6-.27a6.96 6.96 0 0 1-3.323 3.323l.6 1.358c.435 1.06 1.335.647 1.564.506a9.6 9.6 0 0 0 2.941-2.9l.024-.047c.494-1.123-.353-1.594-.6-1.712z"/><path fill="#22D511" d="m18.553 15.242l-.965-.423l-.852-.371l-.653-.288a4.22 4.22 0 0 1-1.93 1.923l.283.653l.37.853l.424.965a6.9 6.9 0 0 0 3.323-3.312"/><path fill="#BEF000" d="m16.082 14.178l-1.388-.612l-1.264-.553a.35.35 0 0 0-.153.035a.45.45 0 0 0-.253.253a.3.3 0 0 0-.036.147l.553 1.265l.612 1.394a4.3 4.3 0 0 0 1.93-1.935z"/></g></svg>