<svg xmlns="http://www.w3.org/2000/svg" xmlns:xlink="http://www.w3.org/1999/xlink" width="24" height="24" viewBox="0 0 24 24"><path fill="#E5D345" d="M12.028 4.711q-.024-.1-.056 0a10.5 10.5 0 0 1-1.077 2.528a.02.02 0 0 1-.017 0l-.495-.378s-.01-.005-.01-.017v-.016a9.65 9.65 0 0 0 1.294-4.806Q11.665 2 11.689 2h.622c.011 0 .022.006.022.022a9.6 9.6 0 0 0 1.295 4.806c.005.01 0 .022-.006.033l-.505.383c-.011.006-.023 0-.028-.005a10.5 10.5 0 0 1-1.061-2.528m-7.334 7.311a10.37 10.37 0 0 1 4.978 3.067v.005l-.51.39h-.029A9.7 9.7 0 0 0 2 12.316v-.64c0-.005 0-.01.017-.01a9.68 9.68 0 0 0 7.122-3.15c0-.006.011-.011.022 0l.506.389A10.4 10.4 0 0 1 4.7 11.978q-.084.017 0 .044zm14.606-.044q.084.017 0 .044a10.37 10.37 0 0 0-4.972 3.067q.249.225.544.389a9.68 9.68 0 0 1 7.111-3.145c.011 0 .017-.01.017-.022v-.633c0-.006 0-.011-.011-.011a9.67 9.67 0 0 1-7.122-3.15c-.011-.011-.017-.011-.028 0l-.506.389l-.005.005v.011a10.37 10.37 0 0 0 4.972 3.056m-1.722-5.684a.6.6 0 0 1 .144-.033c.028-.005.04.006.028.033a11 11 0 0 1-1.339 2.695a.06.06 0 0 0-.011.039c0 .016.011.028.022.033l.506.378a.04.04 0 0 0 .044 0l.011-.006c.811-1.21 1.534-2.616 1.667-4.039a.03.03 0 0 0-.011-.027a.03.03 0 0 0-.028-.011a6 6 0 0 0-1.717.422c-1.81.722-3.438 1.933-4.866 3.31l-.013.01L12 9.1c-.011 0-.022 0-.028-.011A15.3 15.3 0 0 0 7.05 5.756a6 6 0 0 0-1.683-.39a.03.03 0 0 0-.011.028c.038.473.133.917.288 1.362c.347.954.815 1.86 1.395 2.694a.03.03 0 0 0 .022 0l.522-.389A.044.044 0 0 0 7.594 9A11 11 0 0 1 6.25 6.267l.017-.017h.016c1.945.644 3.722 1.917 5.184 3.356v.01a.03.03 0 0 1 0 .017v.011l-1.823 1.823a.04.04 0 0 1-.03.014a.04.04 0 0 1-.03-.014l-.734-.8a.05.05 0 0 0-.061-.006l-.506.372l-.011.012l-.005.016a.04.04 0 0 0 .01.028l.795.883a.05.05 0 0 1 0 .061l-.794.878c-.022.022-.017.045.005.061l.506.373q.032.024.055 0l.75-.817c.017-.017.028-.017.045 0l1.822 1.822q.025.032 0 .056c-1.456 1.433-3.228 2.7-5.178 3.35a.03.03 0 0 1-.018.005a.03.03 0 0 1-.018-.008a.03.03 0 0 1-.008-.018q0-.01.005-.018c.322-.972.779-1.894 1.356-2.74a.04.04 0 0 0-.022-.033l-.517-.388a.03.03 0 0 0-.022 0q-.006 0-.013.003l-.01.008a11.7 11.7 0 0 0-1.388 2.722a5.3 5.3 0 0 0-.272 1.322q-.002.04.038.039a6.3 6.3 0 0 0 1.812-.461A15.6 15.6 0 0 0 12 14.9c.011 0 .022 0 .028.011c1.5 1.461 3.3 2.778 5.233 3.445a5.3 5.3 0 0 0 1.389.277c-.122-1.427-.861-2.883-1.667-4.06c-.01-.023-.033-.029-.055-.012l-.511.389a.05.05 0 0 0-.017.028l.006.033c.574.84 1.027 1.756 1.344 2.722a.03.03 0 0 1-.033.017c-1.94-.622-3.706-1.911-5.178-3.339c-.017-.022-.022-.039 0-.055l1.811-1.817a.05.05 0 0 1 .033-.011l.018.002l.016.009l.744.811l.017.011l.022-.006l.517-.388a.03.03 0 0 0 .018-.027a.03.03 0 0 0-.013-.029l-.8-.878q-.025-.032 0-.055l.8-.89a.03.03 0 0 0 .011-.027q0-.008-.002-.015l-.009-.013l-.528-.389l-.01-.004h-.01l-.01.003l-.008.007l-.75.833l-.011.003l-.012-.003a.02.02 0 0 1-.016 0L12.533 9.65a.03.03 0 0 1-.008-.022q0-.012.008-.022c1.44-1.412 3.156-2.65 5.045-3.312m-7.428 5.684l1.828-1.828a.04.04 0 0 1 .05 0l1.822 1.828c.017.01.017.033 0 .05l-1.822 1.822l-.013.009l-.015.003l-.015-.003l-.013-.009l-1.822-1.822a.04.04 0 0 1 0-.056zm2.939 4.794a10.2 10.2 0 0 0-1.061 2.517q-.024.099-.056 0c-.244-.883-.6-1.73-1.06-2.522c-.007-.011-.018-.017-.023-.006l-.511.378l-.006.017v.016A9.7 9.7 0 0 1 11.678 22h.639c.01 0 .016 0 .016-.017a9.63 9.63 0 0 1 1.295-4.833l-.011-.011l-.5-.372h-.021z"/></svg>