<svg xmlns="http://www.w3.org/2000/svg" xmlns:xlink="http://www.w3.org/1999/xlink" width="24" height="24" viewBox="0 0 24 24"><g fill="none"><path fill="url(#tokenBrandedLon0)" fill-rule="evenodd" d="M12.06 2q-.54 0-1.074.06C5.935 2.591 2 6.84 2 12.001C2 17.523 6.502 22 12.06 22h.022a10.06 10.06 0 0 0 4.6-1.117c.406-.21.23-.82-.227-.807h-.018c-4.023.101-7.775-1.634-9.246-4.768c-.755-1.604-1.032-2.908-.393-4.973c.21-.846.71-1.632 1.292-2.24q.066-.08.143-.151a1 1 0 0 1 .105-.095l.044-.042c.013-.01.022-.02.036-.03a.5.5 0 0 1 .085-.068c.992-.803 2.22-1.338 3.5-1.334c3 0 5.622 2.45 5.622 5.328c0 .988-.454 2.027-1.004 2.852c2.4-.823 4.1-3.115 4.099-5.7a5.78 5.78 0 0 0-1.484-3.857a10 10 0 0 0-1.258-1.084l-.004-.003a10.05 10.05 0 0 0-5.898-1.91z" clip-rule="evenodd"/><path fill="url(#tokenBrandedLon1)" fill-rule="evenodd" d="M20.669 8.88a5.955 5.955 0 0 1-3.923 5.608a5.916 5.916 0 0 1-7.151-2.645c-.25-.437-.446-1.18-.58-1.811a.696.696 0 0 0-1.255-.25c-.521.753-.518 1.884-.428 2.75q0 .012.003.025q.048.472.169.93q.147.604.404 1.169c1.25 2.795 4.07 4.574 7.762 4.275c.365-.03.711-.141 1.07-.215c3.046-.64 5.241-3.391 5.26-6.631c0-2.6-.967-5.156-2.753-7.056a5.93 5.93 0 0 1 1.422 3.851" clip-rule="evenodd"/><defs><linearGradient id="tokenBrandedLon0" x1="2.006" x2="22.005" y1="22.082" y2="22.082" gradientUnits="userSpaceOnUse"><stop stop-color="#2D2D4B"/><stop offset="1" stop-color="#1D1D3A"/></linearGradient><linearGradient id="tokenBrandedLon1" x1="7.299" x2="22" y1="18.905" y2="18.905" gradientUnits="userSpaceOnUse"><stop stop-color="#858EB7"/><stop offset="1" stop-color="#705E94"/></linearGradient></defs></g></svg>