<svg xmlns="http://www.w3.org/2000/svg" xmlns:xlink="http://www.w3.org/1999/xlink" width="24" height="24" viewBox="0 0 24 24"><g fill="none" fill-rule="evenodd" clip-rule="evenodd"><path fill="#04CD58" d="m22 10.056l-6-5.834H8l-6 5.834l10 9.722zm-2.778.277s-6.644-10-14.444 0c7.778 10 14.444 0 14.444 0"/><path fill="#F0F3FA" d="M15.334 10.333a3.333 3.333 0 1 0-6.667 0a3.333 3.333 0 0 0 6.667 0m-1.667 0A1.667 1.667 0 0 0 12 8.667c-.928 0-1.666.739-1.666 1.666c0 .928.739 1.667 1.666 1.667c.928 0 1.667-.739 1.667-1.667"/></g></svg>