<svg xmlns="http://www.w3.org/2000/svg" xmlns:xlink="http://www.w3.org/1999/xlink" width="24" height="24" viewBox="0 0 24 24"><g fill="none"><path fill="url(#tokenBrandedLpool0)" d="M15.916 17.44L6.89 8.3l1-1.78l8.765 9.005z"/><path fill="url(#tokenBrandedLpool1)" d="M7.5 6.5c.135 0 .265.005.4.015L7.115 8.52a3.5 3.5 0 1 0 3.875 3.75l.06-.15V12a5.475 5.475 0 1 1 4.86 5.44l.745-1.91l-.05-.03a3.5 3.5 0 1 0-3.6-3.67l-.005.02V12a5.5 5.5 0 1 1-5.5-5.5"/><defs><linearGradient id="tokenBrandedLpool0" x1="5.001" x2="11.396" y1="8.313" y2="21.25" gradientUnits="userSpaceOnUse"><stop offset=".18" stop-color="#FAA31C"/><stop offset=".49" stop-color="#312D2E"/><stop offset=".89" stop-color="#FE4C38"/></linearGradient><linearGradient id="tokenBrandedLpool1" x1="3.03" x2="21.13" y1="13.865" y2="11.97" gradientUnits="userSpaceOnUse"><stop offset=".12" stop-color="#F9C213"/><stop offset=".79" stop-color="#FF443B"/></linearGradient></defs></g></svg>