<svg xmlns="http://www.w3.org/2000/svg" xmlns:xlink="http://www.w3.org/1999/xlink" width="24" height="24" viewBox="0 0 24 24"><path fill="#4DD9F6" fill-rule="evenodd" d="M13.629 2s0 4.829 2.4 7.749c2.4 2.925 2.828 4.828 2.828 6.171c0 1.349-1.103 6.08-6.377 6.08s-7.337-4.874-7.337-8.029c0-3.154 2.446-9.28 8.486-11.971m-1.046 2.223s.44 3.891 2.588 6.28c2.155 2.383 2.543 4.091 2.543 5.24c0 1.154-.188 3.588-4 5.143c0 0 .857-1.297.857-3.114c0-.92-.571-2-1.228-3.246c-.88-1.675-1.915-3.64-1.915-5.886c0-3.057 1.155-4.417 1.155-4.417M6.286 13.85c0-4.657 5.143-9.074 5.143-9.074s-1.143 1.966-1.143 4.446c0 2.011 1.074 4.097 1.971 5.828c.629 1.223 1.172 2.269 1.172 2.989c0 .96-.115 2.852-2.046 2.852c-1.926 0-5.097-2.39-5.097-7.04" clip-rule="evenodd"/></svg>