<svg xmlns="http://www.w3.org/2000/svg" xmlns:xlink="http://www.w3.org/1999/xlink" width="24" height="24" viewBox="0 0 24 24"><g fill="none"><path fill="url(#tokenBrandedLto0)" d="M14.017 3.278L12.11 5.222l.389.4a.55.55 0 0 0 .778 0l1.905-1.944l-.389-.4a.56.56 0 0 0-.389-.167a.55.55 0 0 0-.388.167m-4.817 0l-.389.394l1.906 1.95a.55.55 0 0 0 .789 0l.383-.394l-1.906-1.945a.56.56 0 0 0-.389-.172a.54.54 0 0 0-.388.167zm6.611 2.55l-3.6 3.683l.728.745a1.04 1.04 0 0 0 1.483 0l3.595-3.684l-.723-.744a1.04 1.04 0 0 0-1.149-.235a1 1 0 0 0-.34.235zm-9.1 0l-.728.744l3.595 3.683a1.04 1.04 0 0 0 1.483 0l.728-.744l-3.595-3.683a1.05 1.05 0 0 0-.744-.317a1.02 1.02 0 0 0-.739.317m4.894.228l-.383.388L12 7l.778-.556l-.39-.388A.56.56 0 0 0 12 5.889a.56.56 0 0 0-.389.167zm6.723 3.355l-5.978 6.122l1.211 1.24a1.723 1.723 0 0 0 2.461 0L22 10.65l-1.211-1.239a1.73 1.73 0 0 0-1.228-.522a1.7 1.7 0 0 0-1.233.522m-15.117 0L2 10.65l5.978 6.117a1.72 1.72 0 0 0 2.46 0l1.212-1.24l-5.978-6.11a1.73 1.73 0 0 0-1.233-.528a1.7 1.7 0 0 0-1.228.522m8.044 1.239l-.722.744L12 12.556l1.472-1.156l-.728-.75a1.04 1.04 0 0 0-.744-.317c-.278 0-.55.117-.745.317m-.488 6.872L9.56 18.761L12 20.889l2.444-2.128l-1.21-1.239A1.73 1.73 0 0 0 12 17c-.456 0-.911.189-1.233.522"/><defs><linearGradient id="tokenBrandedLto0" x1="2" x2="22" y1="11.47" y2="11.582" gradientUnits="userSpaceOnUse"><stop stop-color="#7CB7FF"/><stop offset="1" stop-color="#BA6DF6"/></linearGradient></defs></g></svg>