<svg xmlns="http://www.w3.org/2000/svg" xmlns:xlink="http://www.w3.org/1999/xlink" width="24" height="24" viewBox="0 0 24 24"><g fill="none"><path fill="url(#tokenBrandedLyra0)" d="m16.316 9.754l-3.482 3.495h-8.82c-.638 0-.957-.732-.526-1.17l9.858-9.92a.55.55 0 0 1 .882.15l2.456 5.47a1.76 1.76 0 0 1-.368 1.975"/><path fill="url(#tokenBrandedLyra1)" d="M2 13.874c.2.268.92.625 2.163.625h13.69a1.98 1.98 0 0 1 1.825 1.187l2.27 5.364a.688.688 0 0 1-.638.95H7.026a2.25 2.25 0 0 1-2.063-1.338z"/><defs><linearGradient id="tokenBrandedLyra0" x1="12" x2="12" y1="1.994" y2="22" gradientUnits="userSpaceOnUse"><stop stop-color="#5ADCD3"/><stop offset="1" stop-color="#37C4B1"/></linearGradient><linearGradient id="tokenBrandedLyra1" x1="19.597" x2="4.519" y1="15.361" y2="20.875" gradientUnits="userSpaceOnUse"><stop stop-color="#47D1C1"/><stop offset="1" stop-color="#21BFA1"/></linearGradient></defs></g></svg>