<svg xmlns="http://www.w3.org/2000/svg" xmlns:xlink="http://www.w3.org/1999/xlink" width="24" height="24" viewBox="0 0 24 24"><path fill="#77D563" d="M10.195 3.235C7.212 3.83 7.218 4.907 7.223 6.18v.156l1.044-.2c-.083-.556.212-1.589 2.056-1.944c1.81-.356 2.344.522 2.405 1.11l1-.188c.022-.867-.661-2.45-3.533-1.878m-4.61 11.61L3.307 17.14L2.24 11.418zm-1.972 3.971L3.463 18l2.627-2.64l4.577 4.694l-4.122.789a2.51 2.51 0 0 1-2.932-2.028m13.598-.005l-5.694 1.078l-1.028-1.056L13.9 15.41l3.31 3.389zm2.744-.522l-1.894.36l-3.655-3.743l3.471-3.483l4.122 4.3a2.53 2.53 0 0 1-2.044 2.555zm.75-9.699l1.094 5.888l-3.41-3.566zm-.317-1.71l.156.849l-2.655 2.666l-3.35-3.51l1.81-1.822l1.112-.211a2.51 2.51 0 0 1 2.927 2.027m-13.776.038l8.482-1.61l-5.082 5.093l-3.394-3.483zm-2.566.494l1.722-.333l3.738 3.833l-3.41 3.422l-4.083-4.177A2.54 2.54 0 0 1 4.046 7.41m9.982-.016l3.355 3.505l-3.477 3.488l-3.389-3.472zm-2.86 7.382a1.112 1.112 0 1 1-2.224 0a1.112 1.112 0 0 1 2.223 0"/></svg>