<svg xmlns="http://www.w3.org/2000/svg" xmlns:xlink="http://www.w3.org/1999/xlink" width="24" height="24" viewBox="0 0 24 24"><g fill="#762FED"><path d="M11.85 2.017v1.277l-5 2.923V11.8l-.961.733V5.394zM12.083 2v1.289l6.028 3.489v-1.39z"/><path d="M17.944 6.944L11.966 3.5L7.222 6.278l1.144.489l3.55-2.128l3.778 2.217l-4.86 2.95l4.666 2.688l1.122-.544l-3.783-2.078l5.105-2.922z"/><path d="m14.55 9.189l-1.223.678l3.667 2.016v5.69l1.117.594v-6.89L14.55 9.184zm3.505 9.211l-1.167-.622l-4.9 2.916l-3.96-2.305l5-2.861L6.971 12l-.961.733l4.84 2.767l-4.784 2.972L11.994 22z"/><path d="m5.889 18.305l4.5-2.794l-1.078-.59l-3.422 2.017zm7.233-2.989v-1.294l-4.872-2.7V6.966l-1.167-.5v5.322zm-3.455 2.456l-1.167.622l3.367 1.961v-1.389zm2.433 1.205v1.372l4.667-2.777v-5.434l-1.145.556v4.278l-3.527 2zm-1.339-9.405l4.484-2.722l-1.028-.645l-3.456 2.022z"/></g></svg>