<svg xmlns="http://www.w3.org/2000/svg" xmlns:xlink="http://www.w3.org/1999/xlink" width="24" height="24" viewBox="0 0 24 24"><g fill="none"><path fill="url(#tokenBrandedMcontent0)" fill-rule="evenodd" d="m11.958 22l-8.379-5.005V7.01L11.958 2l8.463 5.01V17zm1.363-18.137L8.226 6.968L11.9 9.137l5.074-3.053zm-7.637 9.595v-5.09l1.937-1.1l3.632 2.195l-1.884 1.106v4.915zm0 3.747V14.08l3.685 2.216V19.4zm7.369-4.558v7.51l1.052-.762v-5.947l1.58-.948v6.132l1.052-.764v-6.015l1.579-.958v6.31l1.053-.79V8.827zM7.095 5.784l.779-.52l.7.583l-.784.516zm6.558 3.037l-.78.516l.696.579l.778-.516zM9.095 4.59l.779-.515l.695.579l-.78.52l-.694-.578zm6.553 3.037l-.78.516l.695.584l.78-.515l-.695-.58zm-4.564-4.215l.78-.516l.694.579l-.779.52zm6.553 3.036l-.779.516l.695.58l.779-.511l-.695-.58zm-12.495.49l.784-.516l.695.579l-.784.521l-.695-.579zM4.105 8.442l1.053.521v.926l-1.053-.526zm0 2.348l1.053.515v.927l-1.053-.527zm1.053 2.863l-1.053-.521v.92l1.053.527zm-1.053 1.826l1.053.516v.926l-1.053-.526zm6.843-3.274l-1.053-.526v.926l1.053.527zm0 2.342l-1.053-.52v.92l1.053.527zm-1.053 1.827l1.053.52v.927l-1.053-.526v-.927zm1.053 2.863l-1.053-.521v.92l1.053.527zm.752-9.263l-.779.52l.695.58l.779-.516l-.695-.579z" clip-rule="evenodd"/><defs><linearGradient id="tokenBrandedMcontent0" x1="12" x2="12" y1="2" y2="22" gradientUnits="userSpaceOnUse"><stop offset=".16" stop-color="#C09124"/><stop offset="1" stop-color="#FDDC03"/></linearGradient></defs></g></svg>