<svg xmlns="http://www.w3.org/2000/svg" xmlns:xlink="http://www.w3.org/1999/xlink" width="24" height="24" viewBox="0 0 24 24"><g fill="none"><path fill="#CE3A6C" fill-rule="evenodd" d="M12 20.788a9.09 9.09 0 1 0 0-18.181a9.09 9.09 0 0 0 0 18.18M12 20a8.303 8.303 0 1 0 0-16.606A8.303 8.303 0 0 0 12 20" clip-rule="evenodd"/><path fill="#FFF6FF" fill-rule="evenodd" d="M12 20.327a8.634 8.634 0 0 0 8.865-8.633A8.637 8.637 0 0 0 12 3.061a8.636 8.636 0 1 0 0 17.272zm0 .212a8.843 8.843 0 1 0 0-17.686a8.843 8.843 0 0 0 0 17.686" clip-rule="evenodd"/><path fill="#602E9D" d="M7.619 17.055c-.655.787-1.97 2.37-1.982 2.406c-.067-.085-.4-.067-.576.12a.42.42 0 0 0-.073.425l-.272.06l-.485 1.819l.14.115l1.775-.703l-.103-.376c.109-.006.357-.06.436-.194c.079-.133.06-.333.037-.412l2.206-2.594z"/><path fill="#441C56" d="m6.667 20.249l-1.03-.94l.212-.242l1.03.94zm.26-.352l-1.03-.94l.218-.242l1.03.946zm.358-.351l-1.03-.94l.212-.242l1.03.945zm.26-.285l-1.03-.94l.218-.242l1.03.945zm.213-.352l-1.025-.94l.213-.242l1.03.946zm.284-.345l-1.03-.946l.218-.242l1.03.945zm.382-.352L7.4 17.267l.218-.237l1.03.94zm-2.89 1.546c-.23-.122-.425-.103-.492-.08c.037-.236.425-.266.57-.211c.146.054.667.66.818.794c.122.109.08.157.037.17c-.218-.17-.703-.546-.934-.667z"/><path fill="#AE8FEC" d="m6.328 20.8l-1.006-.86c.181.036.587.15.812.345c.224.2.224.424.194.515m-2 1.115l.097-.303l.157.079l1.152-.333l-1.249.557z"/><path fill="#F781FC" d="m5.716 21.121l-.8-.685c0 .013 0 .043.018.085c.018.06.042.121.066.346c.025.224-.03.072-.048.133c-.024.06 0 .079-.09.103c-.092.03-.104.127-.159.224c-.048.08.019.134.061.146c.079-.085.26-.279.327-.333c.08-.067.158-.019.182-.019s.11-.036.194-.06c.067-.025.085.03.091.06z"/><path fill="#382671" d="m8.436 15.182l-.345-.303l.479-.376l2.12 1.618l-.09.715l-.521-.242l-.425.315l-1.339-.897z"/><path fill="#D83F7F" d="m8.642 15.958l.043-.594l.376.303zm.619-.073l-.522.279l.485.37zm.163.14l.067.624l.442-.28z"/><path fill="url(#tokenBrandedMcrt0)" d="M12.243 18.97c1.636 0 3.145-.54 4.357-1.455c-.03-.079-.03-.2-.036-.327c0-.133-.006-.26-.043-.34c-.036-.09.037-.096.11-.103c.12-.012.242-.024-.013-.32c.037-.122-.042-.158-.17-.146l-.218.194a2 2 0 0 0-.036-.158c-.042-.151-.09-.127-.315-.012c-.376.188-1.273.642-3.503.927c-2.836.358-4.97-1.727-5.673-2.812c.133.315.594 1.049 1.485 2a6.219 6.219 0 1 1 9.485-1.69a.7.7 0 0 0 .242.078c.182.024.328-.212.437-.54c-.037.304 0 .589.06.607c.085.03.485-1.073.51-1.267c.017-.121.017.503-.08 1.14a7.273 7.273 0 1 0-6.6 4.224m6.109-4.697c.012-.097.036-.2.06-.291c.092-.32.153-.65.182-.982c-.03.345-.109.873-.242 1.273"/><path fill="url(#tokenBrandedMcrt1)" d="M7.436 13.946a.75.75 0 0 1-.873-.213c.176 1.212 1.437 1.225 2.049 1.08a4.2 4.2 0 0 0 1.788 1.49c-.2 1.63.86 1.855 1.412 1.758c-.49-.867-.17-1.467.055-1.661l-3.613-2.806c-.09.048-.381.182-.818.351"/><path fill="#D83F7F" d="m8.243 13.818l-.067.679l.679-.224l-.618-.46zm2.563 2.23l-.06.68l.678-.219z"/><path fill="url(#tokenBrandedMcrt2)" d="M10.673 12.255h-.564l.14.575h-.576l.11.467h-.528v.115h-.152v.279l.824 1.273l4.528-5.091l6.406-7.721L20.69 2c-1.6.933-2.873.976-3.309.885l-6.212 8.218l-.703.558z"/><path fill="#AFDDEA" d="M10.11 12.255h.563l-.206-.594l.703-.558l1.782-2.351c.485.23 1.097.594.94.775c-.195.218-.868.061-1.177-.048l-.787.909h.763c.085-.012.273.006.273.182c0 .23-.685.406-1.503.375l.842 1.346l-2.376 2.673l-.824-1.273v-.279h.152v-.115h.527l-.11-.467h.577z"/><path fill="#F3FFFD" d="M16.588 3.94c.351-.08.848-.134 1.212.012c.485.193.697.484.685 1.06l2.376-2.86L20.69 2c-1.6.933-2.873.976-3.31.885z"/><path fill="#3D89C7" d="m12.66 13.964l.092.563l-.582-.048l.09.576l-.472-.03l.085.52l-.11.019l.025.157l-.273.043l-1.376-.612l4.413-5.4l6.315-7.6l.181.145c-.654 1.758-.496 3.03-.333 3.455l-7.018 7.52l-.424.8l-.618-.114z"/><path fill="#184BB9" d="M18.315 5.23c.594-.472 1.303-.963 1.449-.8c.2.225.485.594.478 1.825l.473-.503c-.163-.425-.321-1.697.327-3.455l-.175-.145z"/><path fill="#5AA3D6" d="m14.085 10.649l5.818-7.043c-2.121 3.127-6.424 9.449-6.606 9.69c-.188.243-.43.425-.533.486h-.394v.563h-.503v.413h-.485v.485l-.637-.213l.546-.684l1.473-.94l-.23-.224l.763-.485l-.273-.267l.582-.4l-.182-.236l.667-1.152z"/><path fill="url(#tokenBrandedMcrt3)" d="M10.582 13.418c-.151.437-.872.897-1.212 1.073l.6.667l.612.339c0-.66 1.249-1.697 1.879-2.133l-.152-.17l.728-.564l-.303-.103l.624-.472l-.206-.104l1.273-2.157l-1.807 1.685l-.17-.26l-.32.836l-.2-.364l-.394.94l-.218-.322l-.582 1.11h-.158z"/><path fill="#1ED096" d="m10.818 13.418l-.4.546l.667-.546h.206l2.242-2.57l-.945.916l-.146-.134l-.254.588h-.206l-.394.6l-.236-.121l-.376.721z"/><defs><linearGradient id="tokenBrandedMcrt0" x1="3.42" x2="20.446" y1="7.758" y2="14.05" gradientUnits="userSpaceOnUse"><stop offset=".55" stop-color="#F3FEFF"/><stop offset="1" stop-color="#2DD2EE"/></linearGradient><linearGradient id="tokenBrandedMcrt1" x1="11.138" x2="14.325" y1="11.052" y2="8.073" gradientUnits="userSpaceOnUse"><stop stop-color="#21826F"/><stop offset="1" stop-color="#062F6F"/></linearGradient><linearGradient id="tokenBrandedMcrt2" x1="12" x2="14.545" y1="8.162" y2="10.084" gradientUnits="userSpaceOnUse"><stop offset=".07" stop-color="#B1E2EF"/><stop offset=".18" stop-color="#CFECF2"/><stop offset=".82" stop-color="#CDEAEE"/><stop offset="1" stop-color="#ADE0F3"/></linearGradient><linearGradient id="tokenBrandedMcrt3" x1="8.49" x2="11.746" y1="13.031" y2="16.174" gradientUnits="userSpaceOnUse"><stop stop-color="#108550"/><stop offset="1" stop-color="#0E4E4D"/></linearGradient></defs></g></svg>