<svg xmlns="http://www.w3.org/2000/svg" xmlns:xlink="http://www.w3.org/1999/xlink" width="24" height="24" viewBox="0 0 24 24"><g fill="none"><path fill="#FF86C0" d="m22 8.489l-3.202-3.244l3.2-3.244z"/><path fill="#D93389" d="m21.998 15.243l-.002.002l-3.2-3.246l3.2-3.244l.002.001z"/><path fill="#92278F" d="m21.998 22l-3.203-3.245l3.201-3.244z"/><path fill="#B41D8E" d="m18.666 18.622l-.001-6.487v-.002l3.204 3.244z"/><path fill="#EF59A1" d="m18.666 11.867l-.001-6.487l3.204 3.244z"/><path fill="#92278F" d="m18.666 18.622l-3.203-3.246l3.201-3.241v6.484z"/><path fill="#371466" d="m18.666 11.867l-3.2-3.244l3.2-3.244z"/><path fill="#702C91" d="m18.555 12l.003.003l-3.203 3.244l-3.202-3.244l.001-.003z"/><path fill="#562988" d="m12.154 12l3.201-3.25L18.558 12z"/><path fill="#371466" d="M11.999 18.622v-6.489l3.202 3.244z"/><path fill="#272262" d="m11.999 18.622l-3.201-3.245l3.201-3.244z"/><path fill="#1D3D88" d="m11.889 12l.001.003l-3.202 3.244l-3.201-3.244l.001-.003z"/><path fill="#252F77" d="m5.488 12l3.178-3.25L11.889 12z"/><path fill="#084F9D" d="M5.334 18.622v-6.487l3.202 3.242z"/><path fill="#272262" d="M5.334 11.865V5.38l3.202 3.244z"/><path fill="#1B87C7" d="m5.334 18.622l-3.202-3.245l3.2-3.244l.002.002z"/><path fill="#0CB699" d="m5.334 11.865l-.001.002l-3.201-3.244l3.202-3.244z"/><path fill="#0058A2" d="M2 22v-6.49l3.202 3.244z"/><path fill="#3BC3F3" d="M2 15.245v-6.49L5.202 12z"/><path fill="#0FE9C4" d="M2 8.489V2.001l3.202 3.244z"/></g></svg>