<svg xmlns="http://www.w3.org/2000/svg" xmlns:xlink="http://www.w3.org/1999/xlink" width="24" height="24" viewBox="0 0 24 24"><g fill="none"><path fill="#181B1E" d="M12.003 2a10 10 0 1 1-.006 20a10 10 0 0 1 .006-20"/><path fill="silver" d="M9.945 12.085c1.086.18 2.187.248 3.287.2a23 23 0 0 1-3.41-.017c-.765.782.029 1.387.135 2.04c.323-.03.517-.1.746.041c2.159-.04 3.782.165 5.722-.658l.035-.37l-.376-.148c.27-.382.218.047.235-.47c.012-.206.024-.282-.217-.394c-.188-1.764-1.453-1.582-2.8-1.453c-.852.088-2.834.506-2.681-.647h-.188s-2.023.647-.494 1.882z"/><path fill="#F6F6F6" d="M7.299 20.23c.411.218 2.023.964 2.587.923l.224-.047c-.277-1.047-.06-1.411-.041-1.823c0-.247-.06-.259-.089-.588l-.917-.317l.012-4.217l.905.135c-.1-.652.077-1.428-.164-2.017c-.782-.117-1.888-.282-2.517-.646z"/><path fill="silver" d="M10.086 18.701H9.98c.035.317.082.335.082.576c-.005.424-.229.782.048 1.823l-.224.053c.023.018.065 0 .088.041c.118.27 2.823.236 3.476.142c1.282-.183 1.793-.483 2.852-.836c.588-.552.247-.893.917-1.181c.041-.036-.87-.9-.905-.906c-.495.035-.789.223-1.412.335c-.523.088-1 .159-1.546.2c-1.282.112-2.047-.153-3.27-.241zm2.693-3.558c.13.306.236 2.082 0 2.358c-.57.682-.764-.006-2.234.265c-.23-.335-.489-2.046-.294-2.57c.094-.235.623-.259 1.176-.259c.57 0 1.176.042 1.352.206m-2.787-.658l.023 1.764c-.023.312-.106.67-.088 1.023c.047.647.177.324-.006 1.035l.406.088c1.223.041 2.182.188 3.458.07c.658-.058 2.487-.223 2.717-.681l.03-.559c-.524-.024-.348.159-.983.176c-.365-.552-.441-1.764-.282-2.628c.312-.177.805-.306 1.235-.477c.082-.405.094-.194-.118-.311l-1.629.44c-.206.765-.094.23-.323.683c-.118.217-.124.541-.2.765c-.188-1.841.176-.518.123-1.388c-1.67.14-2.775.017-4.363 0"/><path fill="#9A9A9A" d="M10.61 10.221c-.053.47.011.353-.265.635c1.176.177 1.94.206 2.97.1c.511-.059 1.24-.012 1.658.2c.282.141.023.07.353-.082c-.03.364-.018.394-.112.652c.03-.011.059-.07.082-.04c.024.023.189-.148.536-.248c-.024.03-.053.03-.06.065c-.011.041-.046.053-.058.07l-.135.271c.411-.035.264-.047.388.053c-.294.118-.482-.053-.165.312l.206.076l.041.012c.012 0 .035.012.041.023c.236.106.224.177.224.389c0 .17.017.088-.241.47l.376.153l-.035.37l1.47-.811v-2.07c-.594.27-.876.623-1.764.806c.67-.347 1.752-.959 1.764-1.682a.9.9 0 0 0-.153-.483c-.147-.223-.235-.182-.382-.405c-.177-.259-.06-.17-.318-.418l-.106.106c-.352.376-.558.565-1.029.823c-.47.253-.964.406-1.558.524c-1.13.217-2.517.34-3.728.13"/><path fill="#C1C1C1" d="M7.299 20.23v-8.592a2.2 2.2 0 0 1-.565-.311c-.2-.153-.382-.312-.611-.4v8.409c.011.353.064.518 1.176.894"/><path fill="#F0F0F0" d="M7.687 9.95c-.188.442-.377.977-.277 1.412c.118.176.847.394 1.076.453c.47.117.941.253 1.441.27l.318-1.635c.406-.74-.059.383.164-.229c-.94-.117-1.605-.44-2.358-.63c-.158.171-.2.219-.364.36"/><path fill="#EBEBEB" d="M8.357 9.321c.54.47 2.605.706 3.546.718c1.047.023 2.999-.159 3.657-.718v-.153c-.176.071-1.776.47-2.081.424l-.006-.053l-.641.159c-.524.023-1.306.011-1.788-.13c-.864-.258-.588-.517-1-1.217c.16-.453-.382-.2-.329-.63l-.747.142c-.27.03-.411.165-.564.341c-.365.441-.447.635-.053 1.117z"/><path fill="#C6C6C6" d="M11.985 8.134c-.194-.189-.34-.295-.352-.589c-.012-.37.123-.37.335-.623l.7.041c.294.13.864 1.282-.683 1.176zm-1.2-1.394c-.27-1.212 1.16-1.241 1.43-.7c.37.73-.882 1.117-1.43.706zm-.135-1.1c-.058.259-.058.041-.252.4l.023.5l.347.794s1.63 2.258 2.64.952c.589-.752-1.01-2.164-1.223-2.705a4 4 0 0 0-.511-.053c-.33 0-.477.03-1.024.112"/><path fill="#C1C1C1" d="M8.357 9.321c-.4-.482-.318-.676.059-1.105c.159-.177.294-.312.564-.341l.618.088c-.059.435-.077.141-.241.594c.405.694.823.764 1.705 1.023c.47.141 1.247.159 1.782.13l.635-.16c-1.094-.04-2.152.089-2.387-.91l-.142-.154a3 3 0 0 0-.217-.188c-.459-.382-.665-.411-1.023-.882l-.094-.118c-.489 0-.953.295-1.241.565c-.377.341-.647.576-.524 1.276l.5.177z"/><path fill="#9A9A9A" d="M16.32 18.425c-.076.264.13.958-.094 1.152l.235.083c.018.488-.106.488-.147.852c.57-.27 1.1-.564 1.57-.782v-2.293l-1.376.84c-.176.118-.059.006-.188.148"/><path fill="silver" d="M13.48 9.598c.317.041 1.904-.353 2.08-.418v.147c.471-.13.636-.229.9-.476c-.387-1.376-2.31-2.011-3.157-1.97l.27.465c.241.37.012.211.494.329c.353.088 1 .259 1.176.482c.559.706-.623 1-1.094 1.153c-.135.04-.211.059-.311.111l-.353.177z"/><path fill="#959595" d="M16.384 13.985c.212.129.2-.083.117.311c.406-.164.377-.235.847-.24c.088.617.047 1.252.041 1.91c-.011 1.147-.376.724-.87 1.259l-.03.559c.471-.177.636-.236.994-.559c.442-.341.4-.506.4-1.147v-2.905z"/><path fill="#989898" d="M16.602 8.628c1.264-1.676-2.382-2.535-3.84-2.588c.259.553.259.459.93.588c2.192.447 2.469 1.317 2.869 1.94a.15.15 0 0 1 .041.06"/><path fill="#F3F3F3" d="M9.922 18.307c.188-.712.058-.382.006-1.035c-.018-.353.064-.712.088-1.023l-.024-1.764l-.753-.083c.171.665.042 2.388.077 3.282c.018.54.059.523.606.623"/><path fill="#989898" d="m10.415 6.54l-.017-.5c-.236.3-.206.03-1.094.3c-.553.176-.706.235-1.176.47c-.63.324-1.435 1.03-.718 1.853c.012-.018.035-.07.041-.059c.047.118.065-.1.089-.118c1.134-1.799 1.94-1.27 2.881-1.94z"/><path fill="#C1C1C1" d="M7.417 11.368c.011-.512.082-.976.27-1.412c-.512-.123-.776-.411-1-.746c-.247.117-.305.111-.411.458c-.083.283-.083.565.017.835c.147.36.794.73 1.118.865z"/><path fill="#B7B7B7" d="M15.65 16.702c.423.029 1.046-.118 1.346-.26c.388-.176.282-.558.3-.917c-.159.136-.112.16-.153.277c-.088.317.041.364-.576.43l-.206-.418l-.83.105c0 .294.012.541.118.777z"/><path fill="#676767" d="M9.98 18.701h.106v-.317h.235l-.4-.089c-.547-.1-.588-.082-.605-.623c-.036-.894.094-2.594-.077-3.258l.753.082c.17-.1-.07-.106.347-.147h.376c-.235-.14-.411-.094-.735-.064l-.905-.13l-.012 4.21l.917.33z"/><path fill="#9A9A9A" d="m9.604 7.28l.094.118c.352.477.576.506 1.023.888q.117.09.223.189l.135.153c.053-.236.118-.33.189-.483l-.5-.811l-.306-.37c-.312.058-.606.1-.858.317"/><path fill="silver" d="m10.85 16.631l1.723.07l.018-.564c-1.623.059-.235.165-1.447.294l-.317-.318z"/><path fill="#9A9A9A" d="M6.693 9.21c.217.329.476.623.993.74c.165-.14.206-.188.37-.37c-.017-.017-.04-.082-.046-.059c-.012.018-.047-.053-.059-.058L7.54 9.15c-.2-.153-.276-.253-.482-.453c-.106.13-.094.112-.176.235z"/><path fill="#999" d="M11.068 6.734c.459.07.741-.118 1.047-.282l-.076-.453c-.706-.147-1.376.041-.97.735m1.776 1.029c.012-.93-.817-.753-.97-.447c-.135.259-.041.518.165.612c.352.158.552-.053.805-.165"/></g></svg>