<svg xmlns="http://www.w3.org/2000/svg" xmlns:xlink="http://www.w3.org/1999/xlink" width="24" height="24" viewBox="0 0 24 24"><g fill="#5B0B0B"><path d="M17.046 11.922a.757.757 0 0 1-.75.767a.763.763 0 0 1-.795-.722a.76.76 0 0 1 .756-.778a.767.767 0 0 1 .788.733m-9.323.8a.755.755 0 0 0 .755-.75a.75.75 0 0 0-.755-.75a.747.747 0 1 0 0 1.495z"/><path fill-rule="evenodd" d="M17.096 5.166q-.084.258-.334.167c-1.6-.556-3.211-.645-4.889-.645c-1.444 0-2.945.023-4.3.545c-.717.278-1.29-1.567-3.428-1.567c-.589.011-1.211.122-1.456.461c-.266.373-.555.734-.639 1.2a4.1 4.1 0 0 0 .223 2.1q.206.534.405 1.1c.078.212.222.373.367.54c.083.094.167.188.239.288a.3.3 0 0 1-.061.406c-1.19.933-1.223 2.778-.934 4.122c.422 1.934 1.234 3.44 3.028 4.523c1.367.822 2.911.96 4.484 1.11q.062.007.11.045a3.17 3.17 0 0 0 2.09.773c.644.005 1.761-.067 2.1-.712a.19.19 0 0 1 .161-.11c1.317-.145 2.734-.223 3.928-.856a6.57 6.57 0 0 0 3.584-5.184c.08-.627.08-1.262 0-1.889c-.123-.872-.923-1.35-1.106-2.05a.16.16 0 0 1 .017-.122c.722-1.261 1.522-2.378 1.266-4.017c-.077-.5-.527-1.445-1.122-1.589a4.76 4.76 0 0 0-2.278 0a2.46 2.46 0 0 0-1.455 1.367zM19.506 11a.42.42 0 0 1-.377.055l-1.028-.327c-.066-.017-.133.055-.105.122c.222.489.383 1.628-.095 2.111c-.5.5-1 .811-1.605.833c-.312.011-.65.017-1.023-.21c-.278-.167-.683-.812-1.083-.484a.17.17 0 0 0-.067.117l-.083.627a.18.18 0 0 0 .067.156c.388.294.483.444.488.689c.011.789-1.4 1.494-1.978 1.811a.243.243 0 0 0-.044.389l.428.389c.539.467 1.339.389 1.895-.006c.244-.172.388-.444.527-.705l.1-.183a.46.46 0 0 1 .245-.217a.3.3 0 0 1 .389.2c.11.41.033.789-.24 1.133c-.266.334-.56.556-.894.678a.23.23 0 0 0-.144.261a.15.15 0 0 0 .128.128c.822.133 2.405-.356 3.139-.806c2.422-1.5 4.294-5.5 1.744-7.828c-.544-.5-1.178-1.267-1.528-1.911c-.26-.478-.21-1.256-.166-1.795c.038-.466.41-.872.705-1.194l.04-.045c.21-.227.76-.31.788.145a1 1 0 0 1-.089.494a.122.122 0 0 0 .095.173c.355.072 1.239.138 1.288-.367c.056-.483-.555-.967-1.044-1.011c-1.128-.1-1.906.483-2.406 1.405l-.16.284q-.217.35-.567.15c-1.345-.773-3.445-.823-4.978-.8c-1.478.022-3.562.083-4.89.822a.39.39 0 0 1-.533-.172c-.389-.867-1.033-1.6-2.039-1.7a1.82 1.82 0 0 0-1.311.41a.65.65 0 0 0-.272.562c.022.555.96.489 1.322.417a.122.122 0 0 0 .089-.167c-.111-.278-.19-.533.039-.772a.18.18 0 0 1 .105-.056c.534-.055 1.261.872 1.317 1.406c.056.566.111 1.328-.2 1.822c-.456.68-.973 1.319-1.545 1.906a3.84 3.84 0 0 0-1.055 3.022a5.97 5.97 0 0 0 3.233 4.917c.867.45 2.056.555 3.017.683c.095.012.14-.027.145-.122c.01-.117-.045-.2-.161-.239a2.02 2.02 0 0 1-1.35-1.278c-.067-.194-.112-.689.16-.777c.167-.056.378-.028.478.139c.184.31.317.722.617.927q1.149.785 2.206-.222c.078-.078.333-.361.166-.467c-.489-.305-2.266-1.066-2.26-1.833c0-.233.194-.467.61-.689a.11.11 0 0 0 .067-.111a5 5 0 0 0-.078-.583c-.066-.406-.572-.44-.755-.128c-.29.483-.828.61-1.267.616c-.667.011-1.29-.333-1.767-.789c-.439-.416-.289-1.644-.144-2.139c.027-.083-.056-.16-.14-.133c-.338.1-.666.206-.988.328c-.367.139-.761-.25-.456-.561c.211-.217.506-.45.811-.54a6 6 0 0 1 3.04-.05c1.533.379 2.233 2.279 2.577 3.64a.236.236 0 0 0 .25.178q1.033-.075 2.056.016c.033 0 .067-.022.072-.055c.411-1.278 1.056-3.361 2.584-3.75a5.5 5.5 0 0 1 2.028-.19c.86.112 1.305.2 1.905.745a.32.32 0 0 1-.044.506m-2.177 1.078V11.8a.916.916 0 0 0-.911-.917l-.34-.005c-.5 0-.927.405-.927.9v.277c-.011.5.406.917.906.923h.344c.5 0 .922-.406.928-.9m-8.5.055a.9.9 0 0 1-.9.873h-.39a.894.894 0 0 1-.877-.895v-.35c0-.478.41-.872.894-.867h.39a.9.9 0 0 1 .882.89z" clip-rule="evenodd"/></g></svg>