<svg xmlns="http://www.w3.org/2000/svg" xmlns:xlink="http://www.w3.org/1999/xlink" width="24" height="24" viewBox="0 0 24 24"><g fill="#00D8C1"><path d="M11.795 12.905c.206-.376.558-.782.877-1.188c.857.012 1.44.048 2.27-.394c.293-.153.37-.142.458-.482c-1.022 0-1.246.118-2.082.317c.548-.788 2.67-1.294 2.8-2.293c-.736.164-1 .288-1.506.67l-1.206.977c.053-.33.283-.683.412-.978c.19-.44.136-.605.26-1.063c-.36.034-.542.43-.765.746c-.983 1.47-.613 2.664-1.7 3.307c.07-.73.359-1.554.14-2.372c-.617-.058-.687 1.335-.687 2.13c0 1.83.029.942-.6 2.247c-.048-.507-.007-1.676-.148-2.03c-.17-.44-.041-.288-.4-.294c-.259.483-.087 1.83.024 2.37c.088.46.206.636.088 1.019a11 11 0 0 1-.371.935c-.158-.736-.564-2.041-1.164-1.964c-.17.705.629 1.976 1.035 2.293c-.011.648-.188.836-.206 1.611c.106-.188.136-.288.188-.494c.048-.199.09-.44.106-.646c.782-.024 2.295-.188 2.436-1.236c-.648-.21-1.736.53-2.236.806c.072-.394.389-1.235.6-1.493c.607.152 2.195.047 2.4-.813l-2.3.442l.777-1.43c.847 0 2.589-.258 2.787-1.076c-.993-.118-1.5.224-2.293.376z"/><path d="M12.024 2C17.53 2 22 6.553 22 12.165c0 5.659-4.376 8.587-7.44 9.835h-.019c-.74-.942-.47-.765.307-2.665c.564-1.383.47-1.576.682-2.2c.082-.234.241-.412.335-.588c2.688-.036 2.9-.064 2.882-1.176c0-.76-.047-.489.272-.97c-.224-.355-.165-.49-.09-.742c.136-.442-.017-.388-.116-.771c.33-.294.634-.306.834-.752c-.223-.365-.558-.535-.893-.807c-.59-.48-.86-.858-.872-1.164c-.016-.412.36-.7.365-.942c.013-.275-.347-.705-.517-1.017L17.2 7.03c-.576-1.423-1.364-1.564-3.017-1.752c-1.34-.16-2.165-.344-2.865-.337c-.882.007-1.576.5-2.883 1.53a9 9 0 0 1-1.87 1.118c-.905.693-2.176 1.765-2.188 2.923c-.018.5-.011.994-.024 1.488c-.028 1.34.965 1.582 1.118 1.917c.118.247.048.507.206.86c.241.53.212.223.56.506c.304.233.44 1 .651 1.37c.425.74 2.1 1.13 2.424 1.387c-.053.913-.988 2.501-1.647 3.283a10.2 10.2 0 0 1-5.664-9.17C2.042 6.554 6.512 2 12.024 2"/></g></svg>