<svg xmlns="http://www.w3.org/2000/svg" xmlns:xlink="http://www.w3.org/1999/xlink" width="24" height="24" viewBox="0 0 24 24"><g fill="none"><path fill="url(#tokenBrandedMimo0)" d="M8.46 6.194h.264c.348 0 .623.18.76.285c.164.122.323.275.465.439c.296.316.613.75.93 1.214a30 30 0 0 1 1.109 1.796q.494-.843 1.024-1.664c.317-.475.634-.935.935-1.283c.142-.17.3-.338.465-.475c.132-.1.417-.312.792-.312c.28 0 .501.121.612.19c.132.085.259.185.37.29c.216.212.454.486.697.809c.491.639 1.062 1.526 1.616 2.534c.2.36.396.75.591 1.146a12 12 0 0 0 1.785-.475a.826.826 0 0 1 1.073.486a.85.85 0 0 1-.486 1.088a13 13 0 0 1-1.67.475a16 16 0 0 1 1.136 4.146a.836.836 0 0 1-1.653.18a14.7 14.7 0 0 0-1.162-4.02c-.448.07-.85.122-1.161.164l-.201.027a.83.83 0 0 1-.935-.724a.84.84 0 0 1 .713-.945l.174-.021l.666-.09l-.328-.623a19 19 0 0 0-1.473-2.324a8 8 0 0 0-.359-.433c-.227.27-.507.66-.808 1.125a57 57 0 0 0-1.569 2.582l-.11.19a.884.884 0 0 1-1.553-.052A29 29 0 0 0 9.5 9.083q-.344-.525-.75-1.004c-.824.755-1.573 1.907-2.212 3.243c.316.063.591.11.808.143c.454.058.776.48.713.945a.834.834 0 0 1-.935.723a19 19 0 0 1-1.257-.232a22.3 22.3 0 0 0-1.151 4.204a.834.834 0 0 1-.95.697a.845.845 0 0 1-.693-.962a24 24 0 0 1 1.152-4.309L2.56 12.12a.845.845 0 0 1 .407-1.632c.496.127 1.188.302 1.9.465c.825-1.816 1.944-3.601 3.38-4.61l.212-.153z"/><defs><linearGradient id="tokenBrandedMimo0" x1="5.289" x2="12.353" y1="8.013" y2="19.796" gradientUnits="userSpaceOnUse"><stop stop-color="#6DF1B5"/><stop offset="1" stop-color="#2DD8E0"/></linearGradient></defs></g></svg>