<svg xmlns="http://www.w3.org/2000/svg" xmlns:xlink="http://www.w3.org/1999/xlink" width="24" height="24" viewBox="0 0 24 24"><g fill="none"><path fill="#01D8DD" fill-rule="evenodd" d="M2.926 5.227L9.416 2.5c.948-.377 3.255-.906 4.893 0c1.64.907 1.602 1.925 1.379 2.32l5.745 1.275l-2.356 1.257l-5.04-1.257l-1.794.709l3.77 2.071l-3.1 1.683zm5.84-.328l2.23-.92c.28-.1.92-.242 1.25 0c.413.302.18.68-.193.92c-.299.191-1.199.6-1.61.78z" clip-rule="evenodd"/><path fill="#00A3FE" d="M2.303 6.28v10.34l2.424 1.246v-6.124l1.725 4.017l2.517-2.22v6.585L12.606 22V11.493l-3.41-1.601l-2.31 1.765L4.73 7.551z"/><path fill="#0061FE" d="m21.697 7.19l-8.485 4.2v2.523l3.03-1.464v5.281l-3.03 1.485v2.503l8.485-4.476v-2.48l-2.424 1.42V10.9l2.424-1.273z"/></g></svg>