<svg xmlns="http://www.w3.org/2000/svg" xmlns:xlink="http://www.w3.org/1999/xlink" width="24" height="24" viewBox="0 0 24 24"><g fill="none"><path fill="#374CE8" d="m11.044 4.867l-.089-1.778L12.4 4.094z"/><path fill="#B96FD7" d="M11.627 8.472L9.922 7.04l1.683.178z"/><path fill="#CE7EDD" d="M11.627 8.472L11.6 7.228l.9 1.428z"/><path fill="#AF69DC" d="m13.816 7.417l-2.222-.19l.9 1.429z"/><path fill="url(#tokenBrandedMix0)" d="m13 5.789l-1.406 1.444l2.216.184l-.805-1.628z"/><path fill="#8354C3" d="m11.094 6.2l-1.178.844l1.683.178z"/><path fill="url(#tokenBrandedMix1)" d="M10.96 3.072L9.923 7.04l1.2-.845l-.167-3.122z"/><path fill="#365AF7" d="m12.377 4.094l-1.428-1l1.428-1.088z"/><path fill="#2D4EF2" d="m11.395 2.211l-.417.9l1.411-1.089l-.994.195z"/><path fill="#3865FF" d="M14.038 3.667L12.372 2v2.133z"/><path fill="url(#tokenBrandedMix2)" d="m11.05 4.861l.038 1.361l.517 1.011l1.4-1.444l-.628-1.711l-1.333.778z"/><path fill="url(#tokenBrandedMix3)" d="m14.038 3.65l-1.683.433l.65 1.723z"/><path fill="url(#tokenBrandedMix4)" d="M14.017 3.65L12.995 5.8l.816 1.622l.206-3.778z"/><path fill="#F6609A" d="M9.078 13.111L5.334 11.89l2.872 3.478z"/><path fill="url(#tokenBrandedMix5)" d="M5.334 16.15v-4.272l.888 2.994z"/><path fill="url(#tokenBrandedMix6)" d="m6.222 14.906l-.889-3.017l2.862 3.444l-1.978-.422z"/><path fill="url(#tokenBrandedMix7)" d="m7.006 17.733l-1.667-1.588l.867-1.284z"/><path fill="#FD627F" d="m8.25 15.333l-2.056-.444L7 17.728z"/><path fill="url(#tokenBrandedMix8)" d="M8.982 16.15L7 17.728l1.2-2.411z"/><path fill="url(#tokenBrandedMix9)" d="M9.066 13.106L8.2 15.339l.805.85l.961-.422l-.9-2.656z"/><path fill="#E14B55" d="M9.027 18.667L8.97 16.16l.99-.4z"/><path fill="#FFD574" d="m11.999 22l-2.983-3.344l1.744-.445z"/><path fill="url(#tokenBrandedMixa)" d="m10.789 18.228l-.834-2.478l-.933 2.917l1.767-.434z"/><path fill="#F4B356" d="m11.983 19.083l-1.222-.86L12 22l1.25-3.744z"/><path fill="url(#tokenBrandedMixb)" d="M14.777 18.711L11.999 22l1.25-3.756z"/><path fill="url(#tokenBrandedMixc)" d="m11.955 15.339l-1.194 2.883l1.222.872l1.278-.838l-1.306-2.923z"/><path fill="url(#tokenBrandedMixd)" d="m11.95 15.367l-1.178 2.855l-1.711-5.11z"/><path fill="url(#tokenBrandedMixe)" d="M14.816 13.111H9.061l2.905 2.289z"/><path fill="url(#tokenBrandedMixf)" d="m8.583 10.333l-3.25 1.556l3.728 1.222h5.856l3.75-1.233l-3.317-1.545z"/><path fill="url(#tokenBrandedMixg)" d="M12.083 11.939c1.172 0 2.122-.184 2.122-.411s-.95-.411-2.122-.411s-2.122.184-2.122.41c0 .228.95.412 2.122.412"/><path fill="url(#tokenBrandedMixh)" d="m14.777 16.156l-.755-.44l.777-2.61l.928 2.21l-.944.834z"/><path fill="url(#tokenBrandedMixi)" d="m14.816 13.106l-1.556 5.15l-1.294-2.884l2.85-2.26z"/><path fill="url(#tokenBrandedMixj)" d="m14.778 18.722l-1.528-.472l.778-2.544l.75.433z"/><path fill="url(#tokenBrandedMixk)" d="m16.977 17.833l-2.2-1.7l.956-.844l1.244 2.533z"/><path fill="url(#tokenBrandedMixl)" d="m18.655 11.889l-3.85 1.222l.916 2.233l2.934-3.46z"/><path fill="url(#tokenBrandedMixm)" d="m17.8 14.861l-2.078.483l2.944-3.472z"/><path fill="url(#tokenBrandedMixn)" d="m18.666 16.122l-.906-1.239l.906-3.01z"/><path fill="url(#tokenBrandedMixo)" d="m17.766 14.856l-2.044.483l1.26 2.5l.779-2.983z"/><path fill="url(#tokenBrandedMixp)" d="m18.655 16.095l-.895-1.234l-.789 2.956z"/><defs><linearGradient id="tokenBrandedMix0" x1="11.983" x2="11.983" y1="2" y2="22" gradientUnits="userSpaceOnUse"><stop stop-color="#7187FE"/><stop offset="1" stop-color="#8862E1"/></linearGradient><linearGradient id="tokenBrandedMix1" x1="-1.395" x2="1.676" y1="3.373" y2="23.406" gradientUnits="userSpaceOnUse"><stop stop-color="#435DF9"/><stop offset="1" stop-color="#4C42D3"/></linearGradient><linearGradient id="tokenBrandedMix2" x1="16.475" x2="6.706" y1="6.965" y2="13.68" gradientUnits="userSpaceOnUse"><stop stop-color="#2E42DE"/><stop offset="1" stop-color="#6C42C4"/></linearGradient><linearGradient id="tokenBrandedMix3" x1="16.158" x2="6.785" y1="4.268" y2="13.834" gradientUnits="userSpaceOnUse"><stop stop-color="#3E78FD"/><stop offset="1" stop-color="#4A70F7"/></linearGradient><linearGradient id="tokenBrandedMix4" x1="6.493" x2="16.096" y1="12.588" y2="9.61" gradientUnits="userSpaceOnUse"><stop stop-color="#8359E3"/><stop offset="1" stop-color="#7562F3"/></linearGradient><linearGradient id="tokenBrandedMix5" x1="3.5" x2="4.753" y1="5.615" y2="20.616" gradientUnits="userSpaceOnUse"><stop offset=".43" stop-color="#D13462"/><stop offset="1" stop-color="#FF7073"/></linearGradient><linearGradient id="tokenBrandedMix6" x1="6.809" x2="17.292" y1="5.032" y2="18.561" gradientUnits="userSpaceOnUse"><stop stop-color="#AD214A"/><stop offset="1" stop-color="#F67B72"/></linearGradient><linearGradient id="tokenBrandedMix7" x1="8.089" x2="11.215" y1="4.244" y2="22.398" gradientUnits="userSpaceOnUse"><stop stop-color="#FA7B62"/><stop offset="1" stop-color="#FFCC6D"/></linearGradient><linearGradient id="tokenBrandedMix8" x1="15.977" x2="5.586" y1="4.166" y2="15.956" gradientUnits="userSpaceOnUse"><stop stop-color="#FF6088"/><stop offset="1" stop-color="#FEC46C"/></linearGradient><linearGradient id="tokenBrandedMix9" x1="11.874" x2="11.874" y1="3.081" y2="22" gradientUnits="userSpaceOnUse"><stop stop-color="#830E36"/><stop offset="1" stop-color="#EC4679"/></linearGradient><linearGradient id="tokenBrandedMixa" x1="12" x2="12" y1="2.114" y2="21.848" gradientUnits="userSpaceOnUse"><stop stop-color="#F15979"/><stop offset="1" stop-color="#ED9748"/></linearGradient><linearGradient id="tokenBrandedMixb" x1="17.599" x2="4.144" y1="5.136" y2="18.985" gradientUnits="userSpaceOnUse"><stop stop-color="#FF5C8C"/><stop offset="1" stop-color="#F1984C"/></linearGradient><linearGradient id="tokenBrandedMixc" x1="11.94" x2="11.94" y1="2.03" y2="22" gradientUnits="userSpaceOnUse"><stop offset=".27" stop-color="#DB4B82"/><stop offset="1" stop-color="#EF8F58"/></linearGradient><linearGradient id="tokenBrandedMixd" x1="7.333" x2="15.953" y1="9.065" y2="7.862" gradientUnits="userSpaceOnUse"><stop stop-color="#E67C8E"/><stop offset="1" stop-color="#D55674"/></linearGradient><linearGradient id="tokenBrandedMixe" x1="12.965" x2="3.546" y1="2.583" y2="14.972" gradientUnits="userSpaceOnUse"><stop stop-color="#591560"/><stop offset="1" stop-color="#C55070"/></linearGradient><linearGradient id="tokenBrandedMixf" x1="8.378" x2="17.196" y1="20.04" y2="18.281" gradientUnits="userSpaceOnUse"><stop stop-color="#C84083"/><stop offset=".43" stop-color="#A53B98"/><stop offset=".53" stop-color="#BB55B6"/><stop offset="1" stop-color="#744FD7"/></linearGradient><linearGradient id="tokenBrandedMixg" x1="8.038" x2="20.452" y1="24.162" y2="21.44" gradientUnits="userSpaceOnUse"><stop stop-color="#220633"/><stop offset=".46" stop-color="#3E0E55"/><stop offset="1" stop-color="#370E65"/></linearGradient><linearGradient id="tokenBrandedMixh" x1="12.064" x2="12.064" y1="3.02" y2="22.182" gradientUnits="userSpaceOnUse"><stop stop-color="#C058BB"/><stop offset="1" stop-color="#B63781"/></linearGradient><linearGradient id="tokenBrandedMixi" x1="16.145" x2="13.284" y1="3.963" y2="22.195" gradientUnits="userSpaceOnUse"><stop stop-color="#8C3078"/><stop offset="1" stop-color="#E17269"/></linearGradient><linearGradient id="tokenBrandedMixj" x1="12.267" x2="12.267" y1="2.184" y2="21.816" gradientUnits="userSpaceOnUse"><stop stop-color="#EE919B"/><stop offset="1" stop-color="#FBBF84"/></linearGradient><linearGradient id="tokenBrandedMixk" x1="8.734" x2="14.461" y1="3.135" y2="21.264" gradientUnits="userSpaceOnUse"><stop stop-color="#DB62B6"/><stop offset="1" stop-color="#C03F89"/></linearGradient><linearGradient id="tokenBrandedMixl" x1="7.372" x2="10.403" y1="18.212" y2="6.604" gradientUnits="userSpaceOnUse"><stop stop-color="#9E408C"/><stop offset="1" stop-color="#230E79"/></linearGradient><linearGradient id="tokenBrandedMixm" x1="11.748" x2="11.748" y1="2.576" y2="21.968" gradientUnits="userSpaceOnUse"><stop offset=".64" stop-color="#260E76"/><stop offset="1" stop-color="#9E408C"/></linearGradient><linearGradient id="tokenBrandedMixn" x1="12.04" x2="12.04" y1="2.471" y2="22" gradientUnits="userSpaceOnUse"><stop stop-color="#230D75"/><stop offset="1" stop-color="#A04F93"/></linearGradient><linearGradient id="tokenBrandedMixo" x1="12.905" x2="11.948" y1="2.112" y2="21.998" gradientUnits="userSpaceOnUse"><stop stop-color="#57156D"/><stop offset="1" stop-color="#DB7391"/></linearGradient><linearGradient id="tokenBrandedMixp" x1="18.432" x2="17.805" y1="15.423" y2="17.812" gradientUnits="userSpaceOnUse"><stop stop-color="#914089"/><stop offset=".96" stop-color="#D78E83"/></linearGradient></defs></g></svg>