<svg xmlns="http://www.w3.org/2000/svg" xmlns:xlink="http://www.w3.org/1999/xlink" width="24" height="24" viewBox="0 0 24 24"><g fill="none"><path fill="url(#tokenBrandedMnb0)" d="m12 2l2.353 1.4v1.882l5.294 3.13v4.317l-1.176.765V9.06l-6.418-3.853l-.335-.247l1.07-.606l.636.376v-.788L12 3.106l-1.423.841v1.694L12 6.482l.535-.317l.93.553l-.877.523v1.2l3.53 2.094v4.236l1.088.64l1.812-1.058l2.394 1.4v2.788l-2.394 1.4l-1.783-1.041L12 22l-3.53-2.088v-1.324L12 20.706l6.341-3.806l.565-.3v1.306l-.735.435l.847.488l1.447-.84v-1.695l-1.447-.841l-1.453.841v.624l-.941.553v-1.295l-.894-.517L12 17.882l-3.706-2.2l-1 .589v2.276l-2.353 1.394l-2.353-1.4v-2.788L4.353 14.7V8.412L8 6.252l1.118.648L5.53 9.059v8.265l-1.177-.718v-.8l-.835.494v1.694l1.423.841l1.424-.84v-1.7l-.447-.266v-1.088l.87.512l1.094-.641v-4.283l3.53-2.094v-1.2L9.647 6.182V3.388zm2.03 9.394L12 10.182l-2.018 1.206l2.053 1.159l2-1.153zm-4.39 2.994l2.06 1.224v-2.435l-2.06-1.218zm2.688 1.2l2.024-1.2V12l-2.018 1.177v2.405z"/><defs><linearGradient id="tokenBrandedMnb0" x1="12" x2="12" y1="2" y2="22" gradientUnits="userSpaceOnUse"><stop stop-color="#2DE7F4"/><stop offset="1" stop-color="#082E9A"/></linearGradient></defs></g></svg>