<svg xmlns="http://www.w3.org/2000/svg" xmlns:xlink="http://www.w3.org/1999/xlink" width="24" height="24" viewBox="0 0 24 24"><g fill="none"><path fill="#C5E2E6" d="M17.769 17.974a7.6 7.6 0 0 1-1.975.724a8.4 8.4 0 0 0 .325-2.324c0-4.488-3.5-8.125-7.812-8.125c-.55 0-1.088.062-1.606.175c.962-3.362 3.95-5.8 7.487-5.8C18.5 2.624 22 6.262 22 10.75a8.28 8.28 0 0 1-1.894 5.3a1.562 1.562 0 0 0-2.337 1.918z"/><path fill="#A8D3D9" d="m19.35 4.655l-5.75 5.75a7.63 7.63 0 0 0-6.9-1.981c.963-3.362 3.95-5.8 7.488-5.8c1.981 0 3.787.769 5.162 2.031"/><path fill="#8EBAC3" d="M13.561 8.874a2.187 2.187 0 1 0 0-4.375a2.187 2.187 0 0 0 0 4.375m-4.373-1.25a.937.937 0 1 0 0-1.875a.937.937 0 0 0 0 1.875"/><path fill="#A8D3D9" d="M17.625 10.749a1.25 1.25 0 1 0 0-2.5a1.25 1.25 0 0 0 0 2.5M17 13.874a.625.625 0 1 0 0-1.25a.625.625 0 0 0 0 1.25"/><path fill="#FF3E87" d="M11.943 20.623a5.72 5.72 0 0 0 2.663-4.85a5.653 5.653 0 0 0-5.6-5.7c-1.425 0-2.862.72-4 1.807c.6.375 1.356.894 1.625 1.162a4.03 4.03 0 0 0-3.437 3.175c.525-.118 1.7-.231 2.15.244c-.37.594-1.557 2.363-3.344 4.681c1.05.313 3.656.356 5.7-2.031c.15.363.268 1.312-.45 2.206c.862.2 2.893 0 4.156-2.4c.094.388.287 1.1.537 1.713z"/></g></svg>