<svg xmlns="http://www.w3.org/2000/svg" xmlns:xlink="http://www.w3.org/1999/xlink" width="24" height="24" viewBox="0 0 24 24"><g fill="none"><path fill="#181B1E" d="M4.062 15.095v-.132c.165-.008.243-.02.243-.227v-1.835l-.738 2.194h-.214a94 94 0 0 0-.743-2.227v1.489c0 .288.054.598.413.598v.14H2v-.14c.371-.021.412-.248.412-.578v-1.22c0-.256-.165-.38-.412-.396v-.14h1.122l.482 1.649l.49-1.344a1.3 1.3 0 0 0 .075-.306h1.047v.132c-.156.017-.33.03-.33.219v1.748c0 .182.182.203.33.219v.157zm3.142-.083a.8.8 0 0 1-.338.083c-.214 0-.276-.07-.313-.223h-.009c-.136.152-.37.223-.577.223c-.23 0-.412-.165-.412-.396c0-.446.647-.52.981-.64v-.148c0-.223-.14-.33-.28-.33a.3.3 0 0 0-.182.054c0 .07.05.14.05.214c0 .124-.083.194-.256.194c-.165 0-.256-.078-.256-.227c0-.276.45-.37.66-.37c.248 0 .429.04.528.123c.095.09.148.223.148.396v.734c0 .177.091.19.24.19zm-.668-.804c-.206.07-.482.173-.482.417q-.001.229.177.23c.082 0 .247-.04.305-.119zm2.268.887v-.124c.124 0 .206-.041.206-.17v-.758c0-.223-.057-.338-.206-.338c-.206 0-.536.066-.618.206v.866c0 .132.082.173.206.194v.124h-.854v-.124c.124-.008.235-.033.235-.177v-.94c0-.132-.082-.21-.26-.227v-.116l.648-.066l.025.025v.26h.008c.157-.165.503-.285.825-.285s.404.227.404.536v.804c0 .136.082.174.206.186v.124zm12.371 0v-.124c.124 0 .206-.041.206-.17v-.758c0-.223-.057-.338-.206-.338c-.206 0-.536.066-.618.206v.866c0 .132.082.173.206.194v.124h-.854v-.124c.124-.008.235-.033.235-.177v-.94c0-.132-.082-.21-.26-.227v-.116l.648-.066l.025.025v.26h.008c.157-.165.503-.285.825-.285s.404.227.404.536v.804c0 .136.082.174.206.186v.124zm-9.69-.43a.85.85 0 0 1-.763.43c-.28 0-.503-.083-.652-.223a.8.8 0 0 1-.235-.61a.825.825 0 0 1 .85-.817c.391 0 .8.24.8.672v.153h-1.238c0 .437.318.61.656.61c.181 0 .33-.095.462-.288zm-.413-.593c0-.33-.255-.507-.412-.507c-.173 0-.404.165-.413.507zm5.361.367q-.345.656-1.13.656c-.717 0-1.344-.462-1.344-1.217c0-.77.664-1.258 1.398-1.258q.372 0 .688.153l.112-.095h.156l.017.858h-.153c-.095-.26-.206-.454-.325-.577a.63.63 0 0 0-.466-.186c-.442 0-.809.359-.809 1.047c0 .508.305 1.031.891 1.031c.322 0 .598-.165.817-.503zm-3.58.544c-.177.07-.333.112-.482.112c-.31 0-.474-.153-.474-.462v-.982h-.28v-.206h.28v-.412h.412v.412h.413v.206h-.413v.858c0 .165.1.371.31.371q.124-.002.218-.016l.017.123z"/><path fill="#38A632" d="m17.451 10.559l.565.503l.71-.277l-.305.69l.486.58l-.755-.078l-.412.643l-.157-.738l-.738-.185l.66-.384z"/><path fill="#B2E0AF" d="m15.625 8.91l.462.605l.759-.132l-.441.607l.358.663l-.73-.226l-.548.544l-.008-.742l-.697-.338l.734-.235l.107-.747z"/><path fill="#A4E3A0" d="m13.452 8.91l.363.288l.404-.202l-.157.437l.31.33l-.454-.017l-.219.4l-.12-.441l-.445-.095l.375-.247l-.057-.458z"/><path fill="#8FE68B" d="m12.103 9.321l.248.19l.268-.124l-.108.28l.21.22l-.304-.009l-.145.268l-.082-.297l-.293-.057l.247-.165z"/><path fill="#181B1E" d="M17.653 15.095a.79.79 0 0 1-.808-.82c0-.48.338-.83.825-.83c.478 0 .824.33.824.813c0 .49-.354.837-.841.837m.012-1.526c-.202 0-.408.223-.408.672c0 .206.1.718.413.718c.206 0 .412-.235.412-.71c-.008-.45-.215-.676-.412-.676zm1.407-.359c-.149 0-.248-.152-.248-.289s.09-.3.24-.3c.156 0 .255.156.255.296s-.095.29-.247.29zm-.363 1.757c.082 0 .136-.025.16-.05a.2.2 0 0 0 .038-.123v-.97q0-.186-.223-.226v-.112l.618-.04l.017.024v1.311q-.001.08.041.128c.02.033.075.05.149.066v.12h-.8z"/></g></svg>