<svg xmlns="http://www.w3.org/2000/svg" xmlns:xlink="http://www.w3.org/1999/xlink" width="24" height="24" viewBox="0 0 24 24"><g fill="none"><path fill="url(#tokenBrandedMnw0)" d="M5.4 5.86L2.03 18.35c-.218.812.834 1.364 1.4.73l4.505-5.06l2.765 3.13a1.753 1.753 0 0 0 2.611 0l2.765-3.124l4.494 5.03c.57.635 1.618.082 1.4-.73L18.605 5.878a1.681 1.681 0 0 0-2.876-.658l-3.73 4.217l-3.717-4.223a1.682 1.682 0 0 0-2.876.647z"/><path fill="url(#tokenBrandedMnw1)" d="m5.4 5.86l-2.218 8.218a2.5 2.5 0 0 1 3.382-1.294c.589.277 1.048.8 1.371 1.236l2.765 3.117a1.752 1.752 0 0 0 2.611 0l2.765-3.117l3.618-4.112a5.14 5.14 0 0 1-6.04.92a5.1 5.1 0 0 1-1.66-1.39L8.276 5.213A1.682 1.682 0 0 0 5.4 5.86"/><path fill="url(#tokenBrandedMnw2)" d="m16.077 14.02l4.494 5.029c.57.635 1.617.082 1.4-.73l-2.277-8.411z"/><path fill="url(#tokenBrandedMnw3)" d="M3.182 14.072L2.03 18.343c-.217.812.835 1.365 1.4.73l4.506-5.06a3.47 3.47 0 0 0-1.482-1.276a2.5 2.5 0 0 0-2.73.526c-.234.232-.42.506-.547.81z"/><defs><linearGradient id="tokenBrandedMnw0" x1="16.794" x2="16.1" y1="5.814" y2="10.714" gradientUnits="userSpaceOnUse"><stop stop-color="#5083A9"/><stop offset="1" stop-color="#12132C"/></linearGradient><linearGradient id="tokenBrandedMnw1" x1="20.054" x2="2.001" y1="13.093" y2="13.523" gradientUnits="userSpaceOnUse"><stop stop-color="#1C2849"/><stop offset="1" stop-color="#5893BA"/></linearGradient><linearGradient id="tokenBrandedMnw2" x1="8.912" x2="11.375" y1="7.917" y2="20.05" gradientUnits="userSpaceOnUse"><stop stop-color="#13182F"/><stop offset="1" stop-color="#5284AC"/></linearGradient><linearGradient id="tokenBrandedMnw3" x1="6.588" x2="3" y1="12.972" y2="18.925" gradientUnits="userSpaceOnUse"><stop stop-color="#1C2849"/><stop offset="1" stop-color="#436C92"/></linearGradient></defs></g></svg>