<svg xmlns="http://www.w3.org/2000/svg" xmlns:xlink="http://www.w3.org/1999/xlink" width="24" height="24" viewBox="0 0 24 24"><g fill="none"><path fill="#9CE3E5" d="M12 22c5.523 0 10-4.477 10-10S17.523 2 12 2S2 6.477 2 12s4.477 10 10 10"/><path fill="#4F97A5" d="M22 12a10 10 0 0 1-20 0z"/><path fill="#36C7CE" d="M12 21.375a9.375 9.375 0 1 0 0-18.75a9.375 9.375 0 0 0 0 18.75"/><path fill="#359BB1" d="M13.062 21.938L7.25 16.375l2.025-6.663l2.337 2.65l4.531-4.737l5.782 5.625a10.35 10.35 0 0 1-1.988 4.856a10.2 10.2 0 0 1-6.875 3.831"/><path fill="#3AB1D3" d="M21.375 12c0-3.281-4.044-8.75-9.375-8.75S2.625 8.244 2.625 12a9.375 9.375 0 1 1 18.75 0"/><path fill="#28808E" d="M7.481 11.144V7.919h2.056l2.35 3.856L14.2 7.919h2.175v3.225l1.875-.294l.25.294V12h-2.125v.894l1.869-.294l.25.294v.875h-2.12v2.906h-1.918l-.25-.3l.25-5.231l-2.625 3.562l-2.45-3.562v5.53h-1.8l-.331-.299l.231-2.606H5.356l-.231-.3l.231-.575h2.125v-.913H5.356l-.231-.293l.231-.544z"/><path fill="#EBEBEB" d="M7.25 10.85V7.625H9.4l2.25 3.694l2.3-3.694h2.187v3.225h2.113v.838h-2.107v.906h2.107v.875h-2.107v2.906h-1.937V10.85l-2.563 3.575l-2.5-3.575v5.525H7.25v-2.906H5.125v-.875H7.25v-.906H5.125v-.838z"/></g></svg>