<svg xmlns="http://www.w3.org/2000/svg" xmlns:xlink="http://www.w3.org/1999/xlink" width="24" height="24" viewBox="0 0 24 24"><g fill="none"><path fill="#F2B705" d="M20.176 11.234A8.238 8.238 0 0 0 8.507 2.776a8.24 8.24 0 0 0-4.657 8.65a6.65 6.65 0 0 1 4.442-1.782a8.24 8.24 0 0 1 4.695 1.57a5.88 5.88 0 0 0 4.047 1.166c1.442-.17 2.53-.73 3.136-1.153z"/><path fill="#52CAC7" d="M5.526 14.352c0-.277.265-.589.589-.589s.588.312.588.588v2.93c0 .277-.265.6-.588.6c-.324 0-.589-.323-.589-.6zm5.295-.589c0-.27.265-.588.589-.588s.588.318.588.588v2.942c0 .27-.265.588-.588.588c-.324 0-.589-.317-.589-.588zm1.765 1.177c0-.253.265-.588.589-.588s.588.335.588.588v.588c0 .253-.265.588-.588.588c-.324 0-.589-.335-.589-.588zm5.295.588c0-.3.265-.588.589-.588s.588.288.588.588v1.765c0 .3-.265.589-.588.589a.606.606 0 0 1-.588-.589zm-10.59-1.765c0-.264.265-.588.589-.588s.588.323.588.588v4.148c0 .265-.265.559-.588.559c-.324 0-.589-.294-.589-.559zm7.06 1.765a.61.61 0 0 1 .589-.588a.61.61 0 0 1 .588.588v4.707a.61.61 0 0 1-.588.588a.61.61 0 0 1-.589-.588zm1.765.588c0-.27.265-.588.589-.588s.588.318.588.588v3.53c0 .271-.265.589-.588.589c-.324 0-.589-.318-.589-.588zm-7.06-2.941c0-.277.265-.589.589-.589s.588.312.588.589v8.237c0 .276-.265.588-.588.588c-.324 0-.589-.312-.589-.588z"/><path fill="#52CAC7" d="M8.856 11.88a5.77 5.77 0 0 0-4.218 1.495a.535.535 0 0 1-.847-.235a.51.51 0 0 1 .159-.553a6.82 6.82 0 0 1 7.825-.942q.566.323 1.064.742l.295.217c.694.47 1.847 1 3.235 1.012c1.33.012 2.49-.741 3.019-1.13a.53.53 0 0 1 .74.1c.177.23.13.554-.105.73c-.553.412-1.96 1.353-3.665 1.342c-1.648-.018-3.013-.648-3.825-1.195l-.394-.294l-.176-.141a5.5 5.5 0 0 0-3.107-1.153z"/></g></svg>