<svg xmlns="http://www.w3.org/2000/svg" xmlns:xlink="http://www.w3.org/1999/xlink" width="24" height="24" viewBox="0 0 24 24"><g fill="none"><path fill="url(#tokenBrandedMrs0)" d="M7.949 6.045s-.895.27-.435 1.233c0 0-.655-.333-1.142-.082s-1.189.59-1.738.194s-.399-1.101-.28-1.628c.12-.528.094-1.313-.972-1.517c0 0 .925-.25 1.445.418c.518.667.002 1.609.772 1.943s1.093-.945 2.35-.56M6.196 7.778s-.058.508-.553.569c0 0 .16 1.124 1.466.694c0 0-.16.882-.877 1.181c-.716.299-2.392 1.144-2.23 3.826c0 0-.81-1.247-.156-3.483C4.178 9.43 5.422 8.9 5.422 8.9s-.655-.054-1.26.501c0 0 .475-1.434 2.034-1.622m2.253-1.74c-.465-.626-1.024-.55-1.502-.3c-.436.23-1.067.509-1.385.098c-.712-.922.14-1.622-.272-2.466c-.483-.988-2.18-1.195-2.18-1.195c1.133-.331 2.495-.175 3.099.324c.604.498.196 1.296.82 1.738c.622.442 1.536-.028 2.069.546c.531.573.389 1.17.228 1.39c-.192.26-.59.1-.936.538s-.162.836-.162.836c-1.158-.92.221-1.51.221-1.51m7.483 8.921s-.158.138-.25.419c-.097.294-.14.644-.582.732c0 0 .141-.096.177-.172c.116-.252.091-.792.655-.979m-4.386 1.92c.02-.034.022-.055.087-.047c.065.007.39.02.538-.087c.147-.109.174.016.134.106a.56.56 0 0 1-.18.217s.16.134.465.055c.306-.078.42-.128.345.018c-.055.107-.189.157-.28.205c-.08.044-.388.2-.459.25c-.034.023-.061.026-.108-.004c-.048-.03-.016-.12-.074-.161s-.138.014-.172.032c-.035.019-.069.04-.165.01c-.096-.031-.261-.063-.245-.22s.091-.335.114-.375m-3.578-2.445s-.058.266.2.663c.257.396.98 1.377.374 2.772c0 0-.696-.443-.674-1.082c.02-.64.24-.6.205-.992c-.037-.391-.305-.956-.105-1.361m-.221-1.414s-.717.884-.227 1.845c.428.837.165 1.026-.288 1.854c-.572 1.046.126 2.237.126 2.237c-.666-.183-1.233-.876-1.186-1.905c.02-.439.291-.99.632-1.565c.32-.539-.144-.693.256-1.656c.181-.436.687-.81.687-.81m5.195-2.267s-.005.166.102.166c.09 0 .087-.08.087-.08s.067.005.09-.007c0 0-.042.313-.269.313c-.042 0-.087-.05-.087-.05c-.036-.012-.061 0-.045.057c.017.057.018.129.127.19c.108.063.266.105.418.227c.073.058.263.252.336.37s-.008.063-.07.03c-.042-.021-.303-.22-.456-.275s-.285-.042-.345-.13c-.058-.088-.162-.304-.166-.463s-.003-.169.037-.195zm.728-.633c.087.067.138.044.19.116c.053.071-.037.286-.13.332c-.093.045-.127-.037-.122-.057c.003-.02.073-.128-.068-.253c-.14-.125-.265-.158-.383-.056c-.11.095-.113.115-.12.194s-.044.146-.247.214c-.202.069-.514.012-.796-.173s-.392-.413-.413-.57c0 0 .2.211.544.27c0 0 .145-.496.714-.572c.189-.025.431.105.575.257c.103.108.158.223.256.298M12.4 8.6c-.16-.073-.286-.135-.28-.285s.133-.304.368-.47c.235-.167.42-.223.583-.149c.573.26.6.337.912.909c.091.167.122.342.184.41c.122.131.297.23.418.419c.12.189.116.474.165.633c.08.26.176.304.22.44c.03.093.041.287.032.49c-.009.201.013.267.034.386c.02.119.017.235-.223.17c-.24-.066-.23-.129-.296-.16c-.11-.053-.268-.045-.373-.026c-.184.033-.048.225.175.233c.134.006.357.023.573.15c.216.128.372.188.456.371c.083.184.126.285.397.482c.27.197.502.502.53.678c.03.174.057.301.199.557a.67.67 0 0 1 .058.49c-.025.122-.068.213-.097.283s-.08.114-.15.03c-.071-.085-.178-.275-.223-.346c-.145-.226-.596-.308-.716-.445c-.111-.126-.143-.289-.18-.43c-.037-.14-.085-.197-.133-.021c-.046.177.023.43.122.65c.1.22.262.7.225 1s-.15.532-.228.608c-.034.033-.134.074-.306.044c-.172-.028-.768-.148-1.113-.202c0 0-.382.383-.746.59c-.356.205-.333.021-.15-.207c.178-.224.337-.494.342-.602c0 0-.199-.125.02-.134c.216-.009.345.012.494.082c.149.069.35.185.242-.04c-.107-.224-.727-.768-.774-1.146c-.045-.37.227-.864.553-.87s.86.325 1.028.863c0 0 .07-.158-.059-.396c-.13-.237-.599-.779-.88-.772c-.276.005-.649.12-.957.844c-.2.47-.515.364-.582.346c-.08-.022-.27-.259-.145-.356s.267-.21.315-.365c0 0-.738.362-1.25.098s-.352-.718-.382-.838c-.026-.098-.1-.094-.185.027c-.086.12-.27.598.132.946c.403.348.733.236.9.2s.234.025.176.124s-.056.263.095.379c.152.115.655.233.645.502c-.007.175-.114.08-.196.061c-.148-.034-1.516-.378-2.3.631c-.21.27-.115.294-.035.439c.053.094.226.64.137 1.296c-.073.532-.035.698.189.909c.094.088.372.277.676.237c.218-.027.198.051.177.108c-.02.057-.05.21-.355.228c-.069.005-.912-.007-1.189-.482c-.186-.318-.105-.403-.267-.778c-.108-.254-.222-.229-.299-.451c-.065-.188-.038-.313-.035-.454c.002-.14.036-.213.168-.12c.132.094.253.206.278.235c0 0 0-.115-.158-.393s-1.266-1.254-.888-2.539c0 0-.547-.22-.793.565c0 0-.139-.316.106-.685c.183-.276.48-.306.332-.954c-.113-.494-.251-.827.08-1.313c.33-.485.625-.392.62-.598c-.004-.146-.593-.27-.974.358c0 0-.433-1.414 1.672-1.775c0 0-.578-.243-1.351.206c-.774.449-.703 1.435-.594 1.94c.11.504.413 1.157-.533 1.826c-.646.455-.46.882-.45 1.383c.01.502-.25 1.117-.564 1.512c0 0-.296-1.073.108-1.987c.406-.914.7-1.034.82-1.295c.119-.26-.006-.235-.205-.126c-.2.109-1.656.963-1.164 4.036c0 0-1.184-1.068-1.13-2.74c.056-1.673.669-2.483 1.103-2.842c.434-.36.662-.504.7-.126s-.017.444-.211.668c-.196.223-.324.551-.307.839c0 0 .274-.48.674-.715c.293-.17.388-.649.394-1c.006-.353.234-1.06.806-1.676s.563-1.304-.083-.883c-.646.42-1.063.534-1.423.236c0 0 .372-.071.412-.457c.041-.385.426-.713 1.003-.513c.577.202 1.12.793 1.412.878c.293.084.828.186 1.043.468c0 0-.139-.898.377-.975c0 0-.055-.74-.815-.574c-.666.146-.465.75-.465.75s-.872-.53-.35-1.186c.504-.634 1.378-.594 1.783-.135c0 0 .156-.295-.052-.531s-.516.043-.637-.214c-.122-.257.232-.406-.06-1.029c-.293-.624-1.05-.844-1.484-1.075s-.703-.767-.572-1.405c0 0 .759.915 1.79.903c.911-.01 1.366-.256 1.943-.026c.576.23.78.64.823.992c0 0 .231-.186.162-.506c-.068-.32-.085-.424.185-.669c0 0-.07.519.65.973s1.364.63 1.42 1.613c.014.222-.218 1.035-.788 1.313c-.273.132-.74.018-.74.018s1.197-.958.014-1.9c0 0 .306.596-.256 1.139c0 0 .234-.723-.264-.846c0 0 .238.304-.122.733c-.362.43-.041.689.37.952c0 0-.657.313-.974-.098c-.21-.273.147-.7.023-1.159c-.018-.066-.074-.443-.87-.775c-.797-.333-.775-.411-.956-.606c0 0 .025.255.251.544c.253.325.552.38.658.574c.106.192.115.468.2.579c.128.164.295.213.369.4c.073.187.136.398-.013.827c0 0-.26.048-.24-.281c.02-.328-.06-.47-.313-.478c0 0 .133.158.122.382c-.011.223-.214.339-.172.446c.049.126.231.156.394.34c.163.183.428.396.627.709c.2.313.445.868.142.696s-.448-.3-.748-.25c-.298.053-.397.37-.413.746c-.017.377-.083.387-.299.552s-.383.24-.53.606c-.15.366-.455.566-.677.678c-.221.111-.649.26-.541.816c.107.557.477 1.093.705 1.299c0 0 .04-.3-.035-.545c-.074-.246-.215-.625-.067-1.074c.147-.447.424-.555.49-.577c.067-.021.207-.076.367-.428c.158-.351.28-.459.617-.535c.338-.078 1.074-.044 1.34.28c.267.325.072.527.397.87c.324.344.573.317.87.38c.318.068 1.336.509 1.124.236c-.195-.25-.311-.32-.523-.445c-.217-.128-.428-.194-.564-.493c-.11-.244-.122-.34-.135-.397s-.013-.148.098-.178c.11-.029.4-.06.466-.353c.052-.233-.047-.583-.082-.664c-.074-.168-.272-.171-.369-.265c-.139-.133-.564-.706-.751-.817c-.1-.06-.38-.146-.47-.188m2.361 7.383s-.225.073-.412-.023c0 0-.237.3-.53.425c-.256.109-.39.15-.25-.04c.106-.148.125-.133.258-.255s.227-.256.307-.324c.099-.084.197-.042.627.217"/><path fill="url(#tokenBrandedMrs1)" d="M16.33 15.48c-1.002 1.664-2.516 3.384-4.805 4.781q-.31-.189-.609-.393a1.27 1.27 0 0 0 .852-.592c.205-.335.243-.695.429-.84c.197-.152.456-.215.652-.43c.377-.41.39-.9.39-.9s.137-.007.263-.033c.136-.027.267-.08.43-.084c.236-.004.538.115.769.063c.281-.063.478-.135.585-.23c.487-.433.42-.873.604-1.017c.1-.079.271-.184.44-.326m.528-.962c1.429-2.865 1.43-5.33 1.43-5.33c-.816-.534-1.953-1.208-4.012-1.536c.06.194.125.433.142.6c.017.177.069.133.185.23c.117.099.303.283.37.462c.068.18.113.422.176.587c.064.167.225.634.235.85s-.21.75-.117.934c.207.416.887.651 1.09 1.07c.176.359.182.58.244.86c.063.28.349.757.264 1.237z"/><path fill="url(#tokenBrandedMrs2)" d="M3.18 10.392a10.5 10.5 0 0 1-.044-1.92a26 26 0 0 1 .87-.528a.7.7 0 0 0 .254.205s-.795.542-.664 1.707c0 0-.257.232-.415.536m17.685-1.92c-1.454-.916-2.914-1.709-5.13-2.124a1.7 1.7 0 0 1-.294.75c2.371.398 3.697 1.172 4.654 1.754c0 0 .438 7.719-8.096 12.219c-1.814-.959-3.223-2.058-4.317-3.195c-.024.33.077.883.559 1.678c1.094.93 2.337 1.726 3.76 2.446c3.153-1.595 5.423-3.568 7.142-6.511c1.376-2.397 1.87-5.021 1.722-7.017"/><defs><linearGradient id="tokenBrandedMrs0" x1="3.186" x2="19.454" y1="14.102" y2="8.677" gradientUnits="userSpaceOnUse"><stop stop-color="#B59978"/><stop offset=".201" stop-color="#BFA480"/><stop offset=".751" stop-color="#EDCFA5"/></linearGradient><linearGradient id="tokenBrandedMrs1" x1="-1.11" x2="23.064" y1="14.973" y2="8.667" gradientUnits="userSpaceOnUse"><stop stop-color="#8F191C"/><stop offset=".25" stop-color="#89181A"/><stop offset=".65" stop-color="#9E1D20"/><stop offset="1" stop-color="#89181A"/></linearGradient><linearGradient id="tokenBrandedMrs2" x1="5.845" x2="20.249" y1="15.951" y2="7.517" gradientUnits="userSpaceOnUse"><stop offset=".25" stop-color="#A89C8E"/><stop offset=".65" stop-color="#DFD1C0"/><stop offset="1" stop-color="#B0A495"/></linearGradient></defs></g></svg>