<svg xmlns="http://www.w3.org/2000/svg" xmlns:xlink="http://www.w3.org/1999/xlink" width="24" height="24" viewBox="0 0 24 24"><g fill="#1C2C5F"><path d="M12 3.053a9.21 9.21 0 0 1 8.42 5.79l-1.579.262A7.33 7.33 0 0 0 12 4.68c-4.095 0-7.453 3.21-7.368 7.321l-1.474 1.395A8.963 8.963 0 0 1 12 3.054m-6.69 11.92a7.34 7.34 0 0 0 6.684 4.348c4.142 0 7.5-3.474 7.374-7.584l1.515-.81A8.955 8.955 0 0 1 12 20.946a8.97 8.97 0 0 1-8.126-5.263z"/><path d="m2 15.158l8.947-6.316l-.526 2.632l5.263-2.632l-.526 2.632L22 9.368l-9.21 4.474l.789-2.368l-5.263 2.631L8.842 12z"/></g></svg>