<svg xmlns="http://www.w3.org/2000/svg" xmlns:xlink="http://www.w3.org/1999/xlink" width="24" height="24" viewBox="0 0 24 24"><g fill="none"><path fill="#8AE2D8" d="m2.406 3.403l7.752 4.344l-1.824 1.025c-.138.076-.313.031-.384 0L4.404 6.771c-.307-.133-.53.081-.53.206v10.195c0 .316.424.242.563.165c3.627-2.054 10.935-6.187 11.158-6.29s.407-.042.472 0l1.382.789c.233.231.06.424-.057.492L2.565 20.64c-.495.279-.581-.04-.563-.233V3.555c.017-.282.276-.22.404-.152"/><path fill="#2C5FF3" d="m21.594 20.597l-7.753-4.344l1.825-1.025c.138-.075.313-.031.384 0l3.546 2.001c.307.133.529-.081.529-.205V6.829c0-.317-.423-.243-.561-.166c-3.627 2.054-10.936 6.188-11.159 6.29a.51.51 0 0 1-.472 0l-1.382-.788c-.234-.232-.06-.425.057-.493L21.435 3.36c.494-.279.581.04.563.234v16.852c-.017.281-.276.218-.404.15"/></g></svg>