<svg xmlns="http://www.w3.org/2000/svg" xmlns:xlink="http://www.w3.org/1999/xlink" width="24" height="24" viewBox="0 0 24 24"><mask id="tokenBrandedMtvt0" width="20" height="20" x="2" y="2" maskUnits="userSpaceOnUse" style="mask-type:luminance"><path fill="#fff" d="M22 2H2v20h20z"/></mask><g fill="none"><g mask="url(#tokenBrandedMtvt0)"><path fill="url(#tokenBrandedMtvt1)" d="M2 2h20v20H2z"/><path fill="#003414" d="m6.804 14.275l.507-5.372l3.086-2.535l.375.289l.9 3.06l.514.15l1.132-2.089l2.375.25l1.582 6.543l-.628.261l-2.447-.079l.472-1.221l-.083-1.536l-.892.036l-1.058 2.636l-2.182-.065l.7-1.45l-.885-.882l-.865.154l.165 2.214l-2.483.007z"/><path fill="#178729" d="m8.607 8.914l-.004.15c-.153.036-.328.09-.471.122c.164.328.025.057.493.085c-.154.947 1.618.643 1.243 1.458c.089.214.125.332.242.25c-.142.089-.26.142-.335-.033c-.082-.4-.336-.235.064.393c.286.422 3.279-.321 2.154.24c-.1.114-.054 0-.125.185c.625.136 1.814-1.728.539.275l-.472-.164c-.378-.107-.017.15.093.25c-.768.682 1.357.146-.953.79c-.115.031-.075-.065-.1.089c-.025.142-.011.125-.129.142c-.11.022-.146-.021-.414-.025c-.179.865-.714.486.003.615c.347.075 1.286.6 1.572.339c.193-.175.118-.054.26-.168l.022-.021l.021-.022c-.271-.21-.228.143-.696.172c-.186-.218-.24-.122.071-.304c-.042-.025 1.397-.821 1.561-1.31c-1.44.06-.75.078-.536-.358c.097-.196-.046-.035.208-.075c3.135-.518 3.346-1.693 1.403-1.51c-.453.042-1.428.889-.632-.029c.136-.107.11-.05.307-.229c.072-.014.06.108.079.143c.178-.078.021.007.157-.168c.26-.335.407-.078-.193-.25c-1.475-.407-.34.047-.1.286c-2.186.525-1.446.282-2.564.51c.064-.31 1.821-.842-.007-.631c.075-.036-.608-2.882-.608-2.886c0-.01-.207-.036-.203-.043c.121-.24-.275-.703.04-.81c-.612-.072.206.546-.276.824c-.21.154-.125.115-.26.086c-.518-.11-.204.275-.536.286c.053.596-.036 1.182-.918 1.346"/><path fill="#157416" d="M11.982 9.76c.029.043.018.079.018.079c0-.007-.007.01-.014.018c.35.49-.418-.004-.611.886c.864-.179.51-.211.45.142c.15.04 2.779-.485 3.643-1c-.04.243-.036-.117.04.136l.01.036c.014.06.393.107.178-.175c0 .203.15-.84-.117-1.193c-.036-.04-.022-.043-.079-.071c.036-.029.15-.083.2-.108l-.204-.114c-.114-.036-.067-.025-.203-.014l.025.071c.003.15.064-.035-.022.1c-.392 0-2.153.118-2.239.111l.018.154s-.332-.165-.532.189c.525-.064.26.16.053.382c3.408-.16 1.015.143.09.525c-.072.032-.082-.025-.322-.018c-.135.004-.178.032-.225-.136z"/><path fill="#061709" d="m15.5 8.396l.2.115c-.218.118-.05 1.171.075 1.378c.114.057.082.125.082.125c.328.75-.022.729.453 1.172c-.142.039-.132.071-.196.193c-.054.089-.097.146-.16.167c.331.186.296-.05.306.311v.229c-.007.085.404 1.6.465 1.778c-.19.114-.34-.021-.436.11c.603-.06.428.005.578.415c-.317.072-.97.529-.167.3l-.029.168l.122-.032l1.835-.096c.247-.011.322.035.514-.108c-.192-.01-.25-.057-.37-.157c-.197-.157-.122-.1-.537-.214c-1.039-.225-.614.146-.464-.71c-.196.228-.364.81-.586.156l-.007-.025c-.09-.332-.228-.696-.078-.982l.067-.157c-.228-.06-.257-.021-.346-.218l-.079-.178c.154-.065.08-.086.215-.197c.053.065.078.104.121.179c.068-.49.268-.286-.118-.536c.015-.164.022-.054-.025-.236c-.221.275-.253-.053-.293-.207c-.067-.282 0-.035.011-.35c.043-1-.185-.2-.293-1.107c-.085-.475.125-.375-.2-.56c.133-.383-.043-.147-.082-.418l-.021-.5l-.043-.15c-.16.042.057-.015-.114-.065c-.122-.035-.086-.018-.207-.007c.035.1-.022-.046-.047.182c-.025.204.054.15-.15.232z"/><path fill="#179737" d="M7.554 8.254c.357.15.243-.118.464.1c-.032.046-.078.143-.125.175c-.928.264 1.593-.072-.44.435c.162-.017.337.35-.05.179v.021l.012.093c.003.025.021.072.039.086c.05.046 1.475-.582 1.475-.582c.09-.104.028.025.018-.114c0-.033-.01-.036-.004-.072c.557-.214.507-.046.718-.046V8.31c-.21-.068-.286.05-.45-.132l.043-.057c.086-.154.025.192.018-.072l-.015-.178h.258c.046-.118.025-.158.01-.308c.332-.007.018-.392.536-.282c.893.193-.096-.989.536-.91l.1-.018l.118-.043c-.829-.079-.715.043-1.061.1c-.172.028-.343.036-.514.086c-.172.05-.34.1-.493.132c-.55.11-.965-.318-1.043.993c-.007.114-.01.107.053.196c-.225.09-.264.146-.203.436m-1.49 4.996c.04.2.204.322.29.55c.05.129.021.122.096.225c-.1.082-.618.41-.775.522c-.253.153.172-.043-.103.121l.11.021l.372-.117c.214-.05.357.028.764.032l.268.046c.31.036.679 0 .99-.003c-.15-.033-.09-.1-.215-.115c-.157-.021.168-.025-.096.036c-.068.014-1.122-.168-.025-.321c-.083-.39.471-.068.553-.036c-.007-.014-.018-.054-.025-.047c-.428-.635-1.082-.707-1.064-.896L7.06 13.2c.418-.107.186.036.45-.257c.004-.018-.007-.075-.01-.096c.842.032.274-.325.196-.6c.357.085.196.132.521-.018c.414-.011.432-.397.397-.015v.058c.05 1.6.46.417.403.25c-.036-.108-.207-.108-.303-.133c.435-.132.489-.057.342-.428c.154-.086.25-.125.261-.24l-.236-.017c-.796.543-1.292.271-1.896-.55c.218-.05-.096-.018.154-.022c.071 0 .142.025.296-.025l-.086-.068c-.193-.146-.128-.125-.446-.235c-.036.196-.014.071-.057.168c-.143.321-.04.132-.047.317c-.007.154-.064.158-.085.204c-.179.429-.258 1.35-.379 1.836c.214.018-.029.025-.004.478c-.135-.05-.178-.257-.328-.432l-.143-.121z"/><path fill="#15671A" d="m15.065 10.218l-.179-.029c-.186.825 1.018.447.557.718c-.357.215-.01.222.25.1c.279-.135.036 0 .182-.014c-.285.3-.382.157-.478.114c0 .197-.047.168-.022.215c0 .01.043.057.05.071c-1.01 0 .336.925-.432.454c-.346-.168-.31-.036-.557-.008c-.079-.071-.046.022-.046-.164c-.107-.093.039-.04-.133-.036c.015.161.018.118-.071.179c.475.121-.386 1.046.25.518c.068.118.082.553.132.646c.054.107-.046-.018.143-.057l.21.022c-.27.16-.22 0-.26.35c1.679-.297.543.2 1.054.478c.321-.336.214.018.457-.178c.139-.122.232-.143.043-.204c-.186-.064-.075.021-.072.036c-.132-.175-.035-.132.25-.204c.086-.025.09-.018.19-.018c-.1-.014-.179-.218-.154-.35c.029-.157-.168-.518-.168-1c-.01-.357.021-.125-.307-.31c.064-.022.107-.079.157-.168l.036-.057c.078-.125.05-.104.164-.136c-.075-.068-.021-.097-.15-.143c-.118-.04-.179.025-.179-.164l.054-.347c.032-.16-.01-.128-.179-.518c0 0 .033-.067-.082-.125c-.168.036 0-.032-.035.215c-.19-.022-.2.032-.232-.082c-.075-.25-.461.189-.443.196"/><path fill="#072616" d="M12.321 14.6c-.107.19-.518.057-.768.075c-.593.046-.753-.129-.646.082q1.156-.039 2.31.057l.45-.039c.626-.05 1.997.046 2.693.071c-.028-.142-1.692-.121-1.817-.142c0-.286.039-.133-.107-.708c.239-.064.153-.032.135 0c.029-.285.022-.014-.107-.225c-.193.018-.3.029-.357.186c-.057.168.086-.107-.029.136c.197-.04.107-.057.3 0a3 3 0 0 1-.171.34c-.286.381-.49.203-.722.131c-.132-.039-.06 0-.196-.068c.06-.453-.06-.542.497-.332c0 0-.454-.464-.08-1.146l.194-.554c.057-.093.064-.082.225-.093c.007.143.036.518-.029.593c.118.011.675-1.693.7-1.75c.072.007.172.047.186.05l.096.022c.086-.029-.028.007.086-.072c.16-.118.014-.043.175-.085c-.632-.104.371 0-.346.007c-.35 0-.843-1.243-1.015.107c-.007.078-.035-.022 0 .09c-.778.096-1.285.963-1.482.967c-.043 0-.125.046-.236.068c0 0 .14.128.543.071l.443-.018c-.036.097-.01.168-.25.179l-.014.121c-.046.072-.179.079-.193.079l-.418-.032c.182.071.31.16.307.328c.161-.028.24-.017.357.068c-.342.279-.464 1.018-.714 1.436"/><path fill="#17A737" d="M12.918 7.686c.035.15-.007.221-.082.336c-.358.546-.215 1.167-.797 1.628c-.093.079-.018 0-.057.11h.157c.046.169.09.144.225.137c.24-.008.246.05.321.017c.911-.082 1.18-.75 1.343-.185c.19-.036.115-.057.272-.022l.075-.196l-.1-.05c-.118-.05-.304-.222-.31-.207c0 0-.15-.107-.18-.082c-.225.107-.267.417-.464.357c-.178-.061.104-.036-.175-.118c-.078-.025-.182 0-.225.078c-.143-.085-.15-.107-.321-.1c.721-.785 1-1.017 2.06-1.107c.354.625.643.054.836.115c.204-.083.125-.029.147-.233c.028-.228.089-.082.05-.178c.121-.014.085-.032.203 0c.179.053-.043.107.118.071l-.032-.157c-.518-.1-.964-.221-1.5-.278c-.143-.018-.25-.072-.371-.086l-.893.01c-.3.033-.015.018-.3.143z"/><path fill="#167728" fill-rule="evenodd" d="M14.465 13.772c.132.21.135-.065.107.221c.018-.029.125.029-.115.09c.093.357.086.181-.096.539c-.09.214.625.064.764.021c-.107.21-.164.114.422.11c.421-.092.707.09 1.125.104l.025-.167c-.779.22-.1-.108-.122-.204c-.035-.168-.053-.072-.107-.09c.122.015.136.036.207.036l.193-.043c-.357-.982-.81-.124-.143-.524l-.19-.526c.122 0 .019.022.047-.132c-.096 0-.103-.007-.192.018c-1.483.393-.761-.182-1.34-.075c-.107.022-.164.107-.393.143c.04-.328.254-.453.004-.34c-.01.008-.09.04-.093.03c-.021-.036-.193-.361-.214-.043c-.029.32.021-.097.14.25c.088.267-.058.35-.226.42c.214.115.214-.017.2.162z" clip-rule="evenodd"/><path fill="#061709" d="M9.461 10.893c.007.232-.071.403-.114.653l-.236.043c.043.193.018.04-.028.115l.235.017c-.025.318-.278-.078-.178.54l-.429.128c.1.022.272.029.307.132c.222.65-.843.358.379 2.118c-.16.004-.247-.035-.397-.018c-.253.033-.1.108-.3-.071c-.632.096-2.21-.082-2.646.021l-.371.118c1.26.065 2.35.036 3.582.05c.257 0 .493.011.753-.018c.347-.035.486.008.679-.025l.05.011c-.125-.196-.082-.036-.29-.107c-.507-.01-.746-.382-.839-.825a3.4 3.4 0 0 1-.003-1.154l.107-.028c-.043-.143 0-.393.018-.457c.032-.1.114-.347.193-.425c-.015-.072-.108.093-.05-.132c-.118-.133-.129-.179-.09-.35c-.114-.1-.103-.272-.235-.147c.064-.132.153-.021.089-.26a.3.3 0 0 0-.06-.1l-.215.064c-.004.071-.04-.022.018.06l.071.043z"/><path fill="#076825" d="M7.41 10.932c.018.036-.014-.014.226.179c-.154.046-.222.021-.297.021c-.25 0 .064-.028-.153.018c.342.468.642.536 1.078.925l.4-.182c.079-.05.122-.136.19-.16c.178-.072.464-.019.542-.458c.054-.193-.046-.036.072-.143c-.007-.25-.279-.521-.515-.521c-.064 0-.092 0-.153.014c-.107.032-.172.107-.24.204c-.37.521-.092-.058-.292.314c-.057-.043.028-.04-.136-.064c.179-.765-.157-.786.596-.704c.268.032.108 0 .258-.036c.125-.028.214.065.321-.089l.086-.143c-.097-.018-.161-.082-.318-.16l-.09.196c-.174-.046-.489-.064-.474-.182c.171-1.372-1.64 1.332-1.1.971"/><path fill="#18B847" d="M7.283 9.582c.003.454-.165.118-.158.454c.004.464.072.135-.15.571l-.007.022l.111.12c.057-.05.207-.06.207-.06c.018 0 1.418-2.257 1.225-.728c0 .007-.025.035-.028.046c.178.05 1.642.057.5.336c-.147.036.014.064-.254.036c-1.954.257 0 .457-.09.735c-.06.114.536-.26.572-.19c.393.044.154-.07.164-.142c.411-.118.29-.143.379.057l.021.107c.072.179.19.122.336.033c-.071.05.157.078-.071.003c-.111-.036-.072-.021-.172-.25c.132-.29-1.268-1.2-1.464-1.157c1.182-1.19-.882-.168-.95-.232a.2.2 0 0 1-.04-.086c-.02-.2.494-.343.04-.293c1.618-.4.121.107.56-.61c-.217-.218-.106.05-.46-.1c-.04.007-.032-.058-.075.128c-.082.354-.204.7-.196 1.2"/><path fill="#045816" fill-rule="evenodd" d="M8.071 14.643c.118.064.529.003.629-.09c.2.179.043.1.296.072c.154-.022.24.018.4.014c-.246-.35.09-.018-.214-.225c-.118-.132-.332-.286-.203-.41c.092-.093.014-.522-.347-.18c-.118-.088-.05-.046-.114-.196c.457-.025.457-.067.4-.728c.19-.104-.057.057.093-.01c.018-.008.078-.062.1-.076c-.24-.025-.072-.007-.129-.075c-.207-.036-.014-.01-.1-.057c-.875-.46-.221 1.14-.268-.41v-.058l.018-.082c.004-.01.036-.071.036-.09c-.147.061-.082.026-.204.108c-.082.05-.382.178-.482.175c-.028 0-.01-.007-.1-.036l-.19-.043c.144.482.376.693-.635.954c.25.118.147.143.043.293c.268-.068.221-.157.3.103l.01.04l.48-.211l.3.178c-.133.015-.144.015-.25.043c-.05.018.585.607-.604.668c-.025 0-.011.286.253.09c-.01.32.229.12.272.128c.121.014.064.082.214.114z" clip-rule="evenodd"/><path fill="#05260A" d="M10.597 6.372c-.15.05-.086.039-.107.178c-.047.364.207.357.067.636l-.02.028c.085.072.153.086.192.204c.093.225.129.521.207.671c-.428.24.179.936.468 1.65c-.036.018-.257.143-.207.079c.107.096-.029.018.143.05c.057.01.082-.01.189.018c-.025.246-.197.368.214.096c.55-.364.022-.1.297-.332c-.365-.375.378-.725-.25-.607a2.1 2.1 0 0 0-.507-1.257c.146-.14.075-.036.089-.132c.036-.293-.186-.368-.272-.572l-.285-.771l-.118.043z"/><path fill="#045816" d="M9.793 11.229c-.04.171-.028.214.086.35c.178-.004.193-.061.293-.072c.117-.014.242.1.242.1c-.57.643.143.911.458 1.093c.314.179.8.214.971.25c-1.457 1.625.525-.507-.107-1.096c.89-.032.168.51 1.178-.347l.261-.178c-.15-.086-.078 0-.107-.172l-.218.072c-.046.021.082.139-.196.064c-.279-.071.021-.079-.168-.09c-.164-.01-.125.097-.15.211l.296.061c-.721.457-1.035.304-.357-.036a2 2 0 0 0-.136-.128c-.01 0-.017 0-.02.014c-.876.136-.09-.225-.476.25c-.45-.446.014-.228-.41.007l-.036.022l-.129.071c.057-.264-1.071.06-.486-.196c.825-.186.107-.136-.239-.065c-.168.061.172.029-.09-.046c-.164-.046-.203.154-.381.021l-.032-.05l-.011-.025c-.057-.11.11.029-.036-.085"/><path fill="#155819" d="m10.614 14.321l-.007.025l-.153.258c.21.071.167-.093.292.103l-.05-.01c.058.074.065.05.208.06c-.107-.21.057-.036.65-.082c.25-.018.657.114.771-.075c.114-.196-.143-.168.19-.329l-.108-.117c.357-.033.272-.24.272-.258l.01-.075c.018-.103.129-.271.25-.396c-.128-.036-.16-.025-.268-.079c.083-.071.161-.078.25-.082l-.003-.043l-.279.011c-.217-.028-.55.175-.75.314c-.225.158-.432.065-.2.186l-.257.15c.129.064.1.054.182.154c.125-.007.965-.404.675-.15c-.107.089-.168.082-.285.189l-.015.01l-.096.072c-.393.275-.107-.186-.414-.175c-1.422.05.975-.046-.825-.186c.01.011.032.018.043.022l.1.053c.074.047.035-.107.046.211c-.118.118-.104 0-.229.243z"/><path fill="#139247" fill-rule="evenodd" d="M9.883 11.579c-.061.225.035.064.05.132c-.079.079-.161.321-.193.428c-.268.9.936.786 1.164.808l-.018-.132c-.093-.783.275-.561-.028-.411c-.629.264.285.107.314-.222c.2.165.264.015.336-.068c-.172-.028.214.05-.1-.132a.34.34 0 0 0-.29-.01c-.185.064-1.196.464-.275-.115c.093-.117-.021.1.079-.121c-.45-.168-.393.086-.407.16l-.447-.12c-.067-.09.118-.022.222-.072c.132-.06.025.018.128-.097c0 0-.128-.114-.246-.1c-.1.011-.114.068-.29.072" clip-rule="evenodd"/><path fill="#003414" d="m6.804 15.018l.507 4.74L10.397 22l.375-.254l.9-2.703l.514-.132l1.132 1.846l2.375-.218l1.582-5.785l-.628-.225l-2.447.071l.472 1.075l-.083 1.357l-.892-.036l-1.058-2.321l-2.182.054l.7 1.278l-.885.786l-.865-.143l.165-1.954l-2.483-.007l-.285.332z"/><path fill="#178729" d="m8.607 19.75l-.004-.132c-.153-.032-.328-.082-.471-.107c.164-.293.025-.05.493-.075c-.154-.836 1.618-.572 1.243-1.29c.089-.19.125-.293.242-.218c-.142-.082-.26-.128-.335.025c-.082.358-.336.211.064-.346c.286-.372 3.279.286 2.154-.21c-.1-.104-.054 0-.125-.165c.625-.122 1.814 1.529.539-.243l-.472.143c-.378.1-.017-.129.093-.222c-.768-.6 1.357-.125-.953-.692c-.115-.029-.075.053-.1-.079c-.025-.128-.011-.11-.129-.128c-.11-.018-.146.02-.414.024c-.179-.764-.714-.428.003-.546c.347-.064 1.286-.529 1.572-.296c.193.153.118.046.26.146l.022.021l.021.018c-.271.186-.228-.125-.696-.15c-.186.193-.24.107.071.268c-.042.018 1.397.722 1.561 1.157c-1.44-.053-.75-.071-.536.318c.097.168-.046.029.208.064c3.135.458 3.346 1.493 1.403 1.333c-.453-.036-1.428-.786-.632.025c.136.092.11.046.307.203c.072.01.06-.096.079-.128c.178.071.021-.004.157.15c.26.296.407.071-.193.214c-1.475.364-.34-.036-.1-.25c-2.186-.464-1.446-.243-2.564-.447c.064.275 1.821.743-.007.558c.075.035-.608 2.546-.608 2.546c0 .01-.207.032-.203.036c.121.214-.275.625.04.718c-.612.068.206-.482-.276-.729c-.21-.136-.125-.1-.26-.071c-.518.096-.204-.243-.536-.25c.053-.529-.036-1.05-.918-1.193"/><path fill="#061709" d="m15.5 20.207l.2-.1c-.218-.107-.05-1.036.075-1.218c.114-.05.082-.11.082-.11c.328-.661-.022-.643.453-1.036c-.142-.036-.132-.06-.196-.172c-.054-.075-.097-.128-.16-.146c.331-.164.296.043.306-.275v-.204c-.007-.071.404-1.41.465-1.567c-.19-.1-.34.017-.436-.097c.603.05.428-.003.578-.368c-.317-.06-.97-.464-.167-.264l-.029-.15l.122.029l1.835.085c.247.011.322-.035.514.093c-.192.01-.25.054-.37.143c-.197.136-.122.086-.537.19c-1.039.2-.614-.133-.464.624c-.196-.2-.364-.714-.586-.139l-.007.025c-.09.293-.228.614-.078.868l.067.136c-.228.053-.257.021-.346.196l-.079.154c.154.06.08.078.215.171a.7.7 0 0 0 .121-.154c.068.433.268.25-.118.472c.015.143.022.046-.025.207c-.221-.243-.253.05-.293.182c-.067.25 0 .036.011.31c.043.887-.185.18-.293.98c-.085.417.125.332-.2.492c.133.34-.043.132-.082.372l-.021.443l-.043.132c-.16-.036.057.01-.114.057c-.122.028-.086.014-.207 0c.035-.082-.022.046-.047-.157c-.025-.179.054-.132-.15-.204z"/><path fill="#179737" d="M6.065 15.918c.039-.175.203-.279.289-.482c.05-.114.021-.107.096-.2c-.1-.072-.618-.36-.775-.457c-.253-.14.172.035-.103-.111l.11-.018l.372.104c.214.046.357-.025.764-.025l.268-.043c.31-.032.679 0 .99 0c-.15.028-.09.09-.215.107c-.157.014.168.018-.096-.036c-.068-.01-1.122.147-.025.286c-.083.343.471.057.553.029c-.007.014-.018.05-.025.042c-.428.561-1.082.625-1.064.79l-.143.06c.418.097.186-.028.45.229c.004.014-.007.068-.01.086c.842-.029.274.285.196.528c.357-.078.196-.114.521.015c.414.01.432.353.397.01v-.046c.05-1.414.46-.372.403-.222c-.036.093-.207.097-.303.115c.435.121.489.053.342.378c.154.079.25.115.261.215l-.236.017c-.796-.482-1.292-.242-1.896.486c.218.04-.096.014.154.014c.071 0 .142-.021.296.022l-.086.06c-.193.133-.128.108-.446.215c-.036-.179-.014-.072-.057-.154c-.143-.285-.04-.118-.047-.278c-.007-.136-.064-.14-.085-.182c-.179-.375-.258-1.193-.379-1.618c.214-.018-.029-.025-.004-.425c-.135.043-.178.225-.328.382l-.143.107z"/><path fill="#15671A" d="m15.065 18.596l-.179.029c-.186-.732 1.018-.397.557-.636c-.357-.186-.01-.193.25-.086c.279.118.036 0 .182.011c-.285-.264-.382-.143-.478-.104c0-.17-.047-.142-.022-.189c0-.007.043-.046.05-.057c-1.01-.007.336-.821-.432-.404c-.346.15-.31.03-.557.008c-.079.06-.046-.022-.046.143c-.107.082.039.035-.133.035c.015-.143.018-.107-.071-.157c.475-.11-.386-.928.25-.46c.068-.108.082-.49.132-.572c.054-.096-.046.014.143.05l.21-.018c-.27-.143-.22 0-.26-.307c1.679.26.543-.179 1.054-.429c.321.3.214-.01.457.165c.139.103.232.121.043.178c-.186.054-.075-.021-.072-.032c-.132.154-.035.114.25.179c.086.021.09.014.19.014c-.1.014-.179.193-.154.31c.029.14-.168.458-.168.883c-.01.321.021.11-.307.275c.064.018.107.071.157.146l.036.054c.078.11.05.09.164.118c-.075.06-.021.085-.15.125c-.118.035-.179-.022-.179.143c.015.107.036.21.054.31c.032.143-.01.111-.179.457c0 0 .033.061-.082.108c-.168-.029 0 .032-.035-.186c-.19.018-.2-.029-.232.071c-.075.222-.461-.168-.443-.175"/><path fill="#072616" d="M12.322 14.728c-.107-.168-.518-.05-.768-.067c-.593-.04-.754.114-.65-.072c.307.029 2.085 0 2.314-.05l.45.036c.625.043 1.993-.043 2.693-.064c-.029.128-1.693.107-1.818.128c0 .25.04.114-.107.625c.24.054.15.025.136 0c.028.25.021.01-.107.197c-.193-.015-.3-.026-.358-.165c-.057-.15.086.093-.028-.118c.196.036.107.05.296 0a2 2 0 0 0-.168-.3c-.285-.339-.489-.182-.721-.117c-.132.035-.06 0-.197.057c.061.403-.06.482.497.293c0 0-.454.414-.079 1.017l.193.486c.057.082.064.072.225.082c.007-.125.036-.457-.028-.525c.117-.01.675 1.5.7 1.55c.071-.007.171-.043.182-.046l.096-.018c.09.025-.025-.007.09.064c.16.1.014.036.175.072c-.633.093.37 0-.347-.004c-.35-.004-.843 1.096-1.014-.096c-.007-.072-.036.017 0-.079c-.779-.086-1.286-.85-1.482-.857c-.043 0-.125-.04-.236-.057c0 0 .14-.11.543-.064l.443.017c-.036-.085-.011-.146-.25-.16l-.015-.107c-.046-.061-.178-.068-.192-.068l-.418.028c.182-.064.31-.143.307-.293c.16.029.24.018.357-.057c-.343-.243-.464-.9-.714-1.268"/><path fill="#167728" fill-rule="evenodd" d="M14.468 15.46c.129-.185.132.058.107-.196c.014.025.122-.025-.118-.078c.093-.315.086-.161-.096-.475c-.09-.19.625-.057.764-.022c-.107-.182-.164-.1.422-.096c.421.082.707-.079 1.125-.093l.028.15c-.782-.196-.1.093-.125.179c-.035.15-.053.067-.107.082c.122-.015.136-.036.207-.032l.193.035c-.357.868-.81.111-.143.465l-.19.464c.122 0 .019-.022.047.114c-.096 0-.103.007-.192-.014c-1.483-.347-.761.16-1.34.068c-.107-.018-.164-.093-.39-.129c.037.293.25.4 0 .3c-.01-.003-.088-.036-.092-.025c-.021.036-.193.322-.214.04c-.029-.286.021.085.14-.222c.088-.24-.058-.31-.226-.371c.214-.104.214.014.2-.143" clip-rule="evenodd"/><path fill="#076825" d="M7.41 17.964c.018-.028-.014.018.226-.153c-.154-.043-.222-.022-.297-.022c-.25 0 .064.025-.153-.014c.342-.414.642-.475 1.078-.818l.4.161c.079.046.122.121.19.143c.178.064.464.014.542.403c.054.172-.046.036.072.129c-.007.221-.279.457-.515.46c-.064 0-.092 0-.153-.014c-.107-.028-.172-.096-.24-.178c-.37-.46-.092.05-.292-.279c-.057.036.028.036-.136.054c.179.678-.157.696.596.621c.268-.025.108 0 .258.032c.125.025.214-.053.321.079l.086.125c-.097.018-.161.071-.318.143l-.09-.172c-.174.04-.489.058-.474.161c.171 1.21-1.64-1.178-1.1-.857z"/><path fill="#045816" fill-rule="evenodd" d="M8.071 14.69c.118-.058.529 0 .629.081c.2-.157.043-.09.296-.06c.154.014.24-.022.4-.018c-.246.31.09.014-.214.2c-.118.117-.332.25-.203.364c.092.079.014.46-.347.157c-.118.075-.05.04-.114.172c.457.024.457.06.4.642c.19.093-.057-.05.093.011c.018.007.078.054.1.068c-.24.021-.072.004-.129.064c-.207.029-.014.01-.1.05c-.875.407-.221-1.003-.268.364v.047l.018.075l.036.078c-.147-.053-.082-.02-.204-.092a1.7 1.7 0 0 0-.482-.154c-.028 0-.01 0-.1.029l-.19.039c.144-.429.376-.614-.635-.843c.25-.104.147-.129.043-.257c.268.057.221.136.3-.093l.01-.036l.48.186l.3-.157c-.133-.01-.144-.01-.25-.036c-.05-.018.585-.535-.604-.59c-.025 0-.011-.25.253-.078c-.01-.285.229-.107.272-.114c.121-.014.064-.071.214-.1z" clip-rule="evenodd"/><path fill="#045816" d="M9.793 17.707c-.04-.153-.028-.193.086-.31c.178.003.193.053.293.064c.117.01.242-.09.242-.09c-.57-.571.143-.803.458-.964c.314-.16.8-.193.971-.218c-1.457-1.435.525.443-.107.965c.89.028.168-.45 1.178.307l.261.157c-.15.075-.078 0-.107.153l-.218-.064c-.046-.021.082-.121-.196-.057c-.279.064.021.068-.168.079c-.164.007-.125-.086-.15-.186l.296-.054c-.721-.407-1.035-.268-.357.032l-.136.111c-.01 0-.017 0-.02-.01c-.876-.122-.09.196-.476-.222c-.45.393.014.2-.41-.007l-.036-.018l-.129-.064c.057.235-1.071-.05-.486.175c.825.164.107.118-.239.057c-.168-.057.172-.025-.09.04c-.164.042-.203-.137-.381-.019l-.032.043l-.011.022c-.057.1.11-.022-.036.078"/><path fill="#155819" d="m10.614 14.971l-.007-.021l-.153-.225c.21-.06.167.082.292-.09l-.05.011c.058-.071.065-.05.208-.057c-.107.186.057.032.65.072c.25.017.657-.1.771.071s-.143.143.19.286l-.108.103c.357.029.272.214.272.229l.01.068c.018.089.129.239.25.35c-.128.032-.16.021-.268.067c.083.065.161.072.25.072l-.003.036l-.279-.008c-.217.03-.55-.153-.75-.274c-.225-.14-.432-.061-.2-.165l-.257-.132c.129-.06.1-.05.182-.136c.125.008.965.357.675.133c-.107-.083-.168-.072-.285-.168l-.015-.011l-.096-.06c-.393-.244-.107.16-.414.153c-1.422-.047.975.04-.825.164c.01-.01.032-.014.043-.021c.028-.015.07-.029.1-.047c.074-.039.035.097.046-.186c-.118-.107-.104 0-.229-.214"/><path fill="#139247" fill-rule="evenodd" d="M9.883 17.393c-.061-.196.035-.053.05-.114a1.1 1.1 0 0 1-.193-.375c-.268-.797.936-.693 1.164-.715l-.018.118c-.093.69.275.493-.028.361c-.629-.232.285-.093.314.197c.2-.143.264-.011.336.06c-.172.025.214-.046-.1.114a.38.38 0 0 1-.293.011c-.179-.057-1.197-.41-.272.104c.093.103-.021-.093.079.103c-.45.15-.393-.075-.407-.143l-.447.108c-.067.082.118.021.222.064c.132.053.025-.014.128.086c0 0-.128.1-.246.089c-.1-.01-.114-.06-.29-.064z" clip-rule="evenodd"/><path fill="url(#tokenBrandedMtvt2)" d="M2 14.5h20V22H2z"/><path fill="#195936" d="M6.218 13.697c0 .046-.393-.257-.453-.329c.021.118.046.379-.022.493c-.071-.075-.103-.264-.107-.354a1.1 1.1 0 0 1-.328.354c-.029-.064.064-.264.135-.4c-.064.11-.157.25-.2.236a.36.36 0 0 1 .065-.375c-.043.014-.147.043-.215.021c.015-.071.222-.14.322-.16l-.236-.19c.071.007.232.025.304.025c0-.114.071-.286.107-.353l.043.353l.132-.307v.236c.05-.036.268-.093.368-.118a1 1 0 0 0-.022.19a.15.15 0 0 1 .129.07a1.4 1.4 0 0 0-.193.14a.3.3 0 0 1 .171.14a3 3 0 0 1-.321-.026c.107.05.321.307.321.354"/><path fill="#132725" d="M17.75 13.75c0 .032.257-.171.304-.218c-.018.079-.036.25.014.329c.047-.05.064-.179.072-.236a.7.7 0 0 0 .214.236c.021-.043-.04-.179-.09-.268c.043.075.108.168.136.157a.24.24 0 0 0-.043-.25a.3.3 0 0 0 .143.018c-.01-.05-.15-.096-.214-.11l.157-.126l-.203.015a.6.6 0 0 0-.072-.232l-.028.232l-.086-.204v.157c-.036-.025-.179-.06-.25-.078a.5.5 0 0 1 .018.125a.11.11 0 0 0-.09.046c.04.029.122.082.133.097c-.072.024-.108.071-.115.092c.018 0 .09 0 .215-.014a.64.64 0 0 0-.215.232"/></g><defs><linearGradient id="tokenBrandedMtvt1" x1="12" x2="12" y1="2" y2="22" gradientUnits="userSpaceOnUse"><stop stop-color="#0980B8"/><stop offset=".21" stop-color="#4DCCF7"/><stop offset=".35" stop-color="#48C9F4"/><stop offset=".57" stop-color="#10A8D9"/><stop offset="1" stop-color="#044F7C"/></linearGradient><linearGradient id="tokenBrandedMtvt2" x1="12" x2="12" y1="13.989" y2="22" gradientUnits="userSpaceOnUse"><stop stop-color="#10A3D4" stop-opacity=".28"/><stop offset=".57" stop-color="#034E78"/></linearGradient></defs></g></svg>