<svg xmlns="http://www.w3.org/2000/svg" xmlns:xlink="http://www.w3.org/1999/xlink" width="24" height="24" viewBox="0 0 24 24"><g fill="none"><path fill="url(#tokenBrandedMv0)" d="M11.755 2.003a10 10 0 1 1 .49 19.995a10 10 0 0 1-.49-19.995"/><path fill="url(#tokenBrandedMv1)" d="M11.754 2.591a9.412 9.412 0 1 1 0 18.824a9.412 9.412 0 0 1 0-18.824"/><path fill="#38FEFE" d="m14.714 18.356l.029-.13c.059-.317.2-.923.541-.929c.235-.006.612.353.588.588c-.029.265-.435.453-.588.589c.118.911-.247 1.37-1.07 1.347c-.26-.006-.371.088-.371.205c0 .212.188.336.37.336a2.35 2.35 0 0 0 1.56-.635c.417-.277.682-.865.688-1.448c0-.47-.165-.94-.518-1.235c-.382-.323-.906-.306-1.465-.435c-.888-.2-.459-1.324-1.253-1.277c-.294.018-.511.106-.529.365c-.059.777 1.117.718 1.53 1.635c.105.242.117.26.2.477c.111.217.117.4.288.547"/><path fill="#48FC2E" d="M16.866 7.274c-.223.517-.535.764-.67 1.394c-.06.653.135.906.353 1.3l.023-.494c-.07-1.471 1.453-1.8 2.488-1.63c.589.1.336.218.548-.023c-.448-.471-.706-.9-1.707-.942c-.023-.876-.305-1.411-.94-1.705c.158.729.452 1.388-.095 2.1"/><path fill="url(#tokenBrandedMv2)" d="M6.343 6.262c.177-.506.553-1.194.806-1.73c-.447.23-1.57 1.083-1.741 1.424c-.518 1-.488 1.33-.535 2.57c-.012.46.082.471-.306.648L4.42 7.603c-.57.4-.4-.018-.753.824c-.441 1.035-.688 1.423-.006 2.305c.27.36.665.342 1.07.548c.253.576.312 1.223.824 1.729a.4.4 0 0 0 .047-.088l.088-1.118l.141 1.388c.765-.576.424-1.523.812-1.812c.141-.105.041.042.324-.135c.235-.153.17-.212.353-.341c.453-.318.435.147.747-.606l.13-.112l.152-.164c.265-.377.206-.918.03-1.236c-.142.17-.089.247-.171.477c-.012-.447-.13-.824-.606-1.07l-.041.84l-.03.412c-.505-.459.042-1.465-.364-1.823c-.253-.318-.141-.318-.177-.436c-.035-.147 0-.117-.059-.317a2.4 2.4 0 0 0-.235-.436l-.37.765l.011-.935z"/><path fill="#6EFBF8" d="M5.872 15.826c.03.453.37.895.724.883c.358-.012.729-.43 1.04-.588c-.27.517-.246.329-.135 1.047c.406-.218.712-.283.93-.677c.376-.688.353-.818.453-1.647c-.07-.182.176-.176-.283-.082c-.188.035-.223.106-.311.205c-.406.43 0 .26-.718.389c-.682.13-.847.765-1.218.765c-.129 0-.282-.118-.482-.295"/><path fill="url(#tokenBrandedMv3)" d="M18.096 9.791c-.035-.47-.111-.717.453-.694c.818.03 1.041 1.041.489 1.618c-.636.659-1.477.135-2.177.112c-.965-.036-1.576.294-1.576 1.211c0 .453.617 1.07.588 1.5c-.024.3-.153.441-.359.441a.37.37 0 0 1-.33-.176c-.176-.324.095-.277.265-.553c-.4-.118-.753-.053-.77.4c-.024.588.411.924.97.941c.47.012 1.383-.253 1.4-.823c.012-.4-.57-.818-.588-1.177c0-.676.33-.9.882-.923c.424-.018.806.27 1.253.247a1.894 1.894 0 0 0 1.794-1.812a1.87 1.87 0 0 0-1.905-1.924a1.44 1.44 0 0 0-1.453 1.412c0 .553.517 1 1.064.977c.395-.012.712-.294.724-.806c-.159.059-.253.1-.335.112c-.106.011-.194-.012-.389-.083"/><path fill="#32FD2D" d="M14.737 16.12c.424.018.547-.17.547-.447c0-.1-.018-.217-.035-.335c.859.047.806.247 1.382.412c.177.059.347.118.547.118c.2.017.2.017.394-.024c.4-.086.754-.316.994-.647c.624-.847-.194-.117.212-.665c.218-.312.4-.317.565-.758a1.176 1.176 0 0 0-1.094-1.648c-.524.012-.977.412-.988.942c0 .353.206.7.805.7c.089-.695-.129 0-.2-.489c-.023-.14.206-.217.33-.211c.182.005.288.2.282.458c0 .865-.84 1.418-1.53 1.418c-1.035 0-2.735-.747-2.84.5c-.024.3.329.665.629.677"/><path fill="#44FEFF" d="M5.714 17.015c-.288-.047-.841-.1-1.235-.147c.252.994.658.853 1.27 1.358c.212.177.47.242.712.248c.423.011.588-.295.594-.83c-.276.118-.57.236-.812.241c-.27 0-.482-.165-.53-.87"/><path fill="#D5FE01" d="M19.519 14.827c.706-.883 1.03-.883 1.059-1.471c.04-.982-.63-.394-.083-1.865c-.335.118-.506.277-.67.606c-.283.553-.088.577.082.97c.412.977-.906.718-.394 1.765z"/><path fill="url(#tokenBrandedMv4)" d="M15.873 16.415c.047.9 1.47.24 2.117.47c-.094.306-1 .683-1.023 1.13c-.024.306.353.576.64.582c.295 0 .619-.123.619-.47c0-.242-.042-.242-.218-.483c.565-.153.788-.4.806-1.065c.07-.6.288-.411.33-.976c-.054.13-.39.388-.577.5c-1.1.641-1.824 0-2.33.018c-.17.006-.376.1-.364.294"/><path fill="#F7F412" d="M4.06 15.974c.412-.024.336-.083.73.017c.312.07.241.17.53.07c-.207-.334-.054-.305-.348-.558l-1.63-.924c0 .877.324 1 .754 1.124c-.124.153-.094.024-.036.27"/><path fill="#FAAE70" d="M7.472 6.768c.2-.389.16-.394.283-.812c.13-.47.3-.6.323-1.147c-.765.07-1.117.63-1.135 1.394c.247.247.347.259.53.565"/><path fill="#F48F6D" d="m16.067 4.691l-.058-.188c-.206-.23-.63-.624-1.118-.624c-.047.206.217.589.335.842c.306.647.235.082.588.635c.241-.265.236-.277.253-.665"/><path fill="#6EFBF8" d="M9.19 15.156c-.046.47.8.082.8.717c.207-.176.283-.352.283-.535c0-.317-.276-.617-.576-.617a.5.5 0 0 0-.506.435"/><path fill="url(#tokenBrandedMv5)" fill-rule="evenodd" d="M10.432 14.632v.06c.47.91.223 1.193-.195 1.658c-.153.17-.33.365-.5.624a3.36 3.36 0 0 0-.488 1.723c.024 1.282 1.212 2.118 2.4 2.13c1.353.017 2.283-1.118 2.306-2.371c.018-1.147-.63-1.953-1.847-1.953c-.718 0-1.247.517-1.106 1.294c.07.43.341.682.741.677c.141 0 .294-.042.46-.095l.01-.94c.889 0 .636 1.393-.564 1.376c-1.33 0-1.288-1.76-.8-2.547c.465-.742 1.335-1.16 2.57-1.389l.048-.011c.453-.1.711-.589.617-1.065a2.94 2.94 0 0 1-3.647.823zm.07 4.5c-.159.012-.377.177-.282.56c.064.252.788.517.858.052c.036-.265-.311-.623-.576-.612" clip-rule="evenodd"/><path fill="url(#tokenBrandedMv6)" d="m9.031 10.897l-.153.059c-.3.135-.323.141-.576.53c-.141.217-.194.27-.224.329c-.029.076-.023.164-.058.53l-.336-.519a1.7 1.7 0 0 1-.547.377c0 .182.018.312.03.412c.04.306.04.329-.394.647c-.253.176-.312.276-.389.412a3 3 0 0 1-.235.34l-.194.389l-.365-.159a1.6 1.6 0 0 0-.182-.282a2.3 2.3 0 0 1-.294-.47l-.124-.313c-.188-.458-.453-1.117-.706-1.288c-.388-.265-.44-.176-.506-.059c-.04.065-.082.141-.2.17l-.588-.776c-.059.724-.153 1.906.177 2.471a5 5 0 0 0 1.564 1.124a2.14 2.14 0 0 0-.705-.865l1.258.794l.265.259c.07.188.106.24.159.306c.035.047.076.106.147.235c.353.082.482-.041.676-.224l.112-.1l.188-.158c.189-.153.336-.277.471-.518l.059-.147c.176-.435.223-.559.93-.665c.234.318.134.4.152.436c.012.029.082.035.412.1c.294.058.73.07.923-.053l-.005-.047a2.94 2.94 0 0 1-.742-3.277"/><path fill="#F92A12" d="M9.272 10.42a2.95 2.95 0 0 1 1.294-1.105l-.06-.088l-.217-.048c-.482-.111-1.223-.282-1.3.212z"/><path fill="url(#tokenBrandedMv7)" d="M13.648 4.097c.635.07.824.276.994.753c.218.565.247.841.236 1.453c.158.03.429-.341.558-.559l.194.2c.236 1.341-.459 1.688-1.282 2.094l-.165.083c-.306-.024-.417.029-.564.105c-.13.06-.283.142-.63.183c.318-.494.53-.865.53-1.236c0-.882-.689-1.317-1.5-1.34c-.489-.018-.877.276-1.2.917a1 1 0 0 1-.306-.453a.84.84 0 0 0-.224-.365c-.13.977.37 1.706 1.465 1.512c.012-.247-.03-.282-.088-.33c-.06-.046-.124-.105-.177-.4c-.053-.335.394-.588.694-.576c.418.012.742.418.747.941c.018.765-.511.989-1.076 1.224l-.37.165l.293.117c.606.241 1.195.483 2.042.1c.058.03.082.124.106.2c0 .03.011.053.017.07l.953-.07l.724-.235c-.024.253-.106.418-.194.594l-.065.141c.235.13.282.283.347.53l.018.059a9 9 0 0 1-.312-.077c-.424-.1-.718-.176-.718.159c0 .323.17.441.347.57c.083.06.17.118.241.206c-.388.188-.37.294-.335.547c.018.095.035.212.035.36l-.294.423a2.94 2.94 0 0 0-2.653-3.089c-.423-.235-.94-.27-1.458-.311c-1.189-.089-2.353-.177-2.248-2.647l.536.664l.117-.029l-.329-.806c0-.576.247-1.223.747-1.588c-.176.041-.418.1-.588.017c.23-.47.564-.629.906-.782l.158-.07c.189-.095.23-.089.253-.106c.03-.012.042-.042.177-.194c.223.058.641.029 1.041 0c.2-.024.394-.036.559-.042c.4-.011.7.036.97.083c.2.03.383.059.571.059c-.165.194-.377.247-.588.294c-.335.076-.659.153-.747.823c-.06.424.335.853.817.87c.547.013.748-.293.736-.758z"/><path fill="url(#tokenBrandedMv8)" fill-rule="evenodd" d="M10.555 10.827c-.565 0-1.153.517-1.153 1.135c0 .694.641 1.223 1.288 1.217c.435 0 .824-.317 1.07-.564c.089.094.583.564 1.177.564s1.182-.635 1.17-1.117c-.023-.753-.452-1.235-1.235-1.235c-.435 0-.8.211-1.111.505c-.247-.323-.806-.506-1.206-.506m.611 1.176a.589.589 0 1 1-1.177 0a.589.589 0 0 1 1.177 0m1.765.588a.588.588 0 1 0 0-1.176a.588.588 0 0 0 0 1.176" clip-rule="evenodd"/><path fill="#6EFBF8" d="M6.166 17.297a.294.294 0 1 0 0-.588a.294.294 0 0 0 0 .588"/><path fill="#4BFFFF" d="M8.66 18.856c.165.088.318.176.33.364c.024.448-.365.765-.776.754c-.612 0-1.171-.406-1.165-.995c.006-1.1 1.123-1.753 2.117-2.035c-.34 1.018-.535 1.194-.688 1.33c-.064.058-.13.117-.188.24c.07.171.224.26.37.342m-.729.794a.294.294 0 1 0 0-.588a.294.294 0 0 0 0 .588"/><path fill="#FFFF71" d="M12.932 4.738a.382.382 0 1 0 0-.765a.382.382 0 0 0 0 .765"/><defs><linearGradient id="tokenBrandedMv0" x1="11.755" x2="11.755" y1="2.003" y2="22.003" gradientUnits="userSpaceOnUse"><stop stop-color="#109AF9"/><stop offset="1" stop-color="#A211E0"/></linearGradient><linearGradient id="tokenBrandedMv1" x1="11.999" x2="11.999" y1="2" y2="22" gradientUnits="userSpaceOnUse"><stop offset=".04" stop-color="#A57A70"/><stop offset=".32" stop-color="#350100"/><stop offset="1" stop-color="#02233B"/></linearGradient><linearGradient id="tokenBrandedMv2" x1="24.187" x2="10.983" y1="11.103" y2="23.811" gradientUnits="userSpaceOnUse"><stop offset=".21" stop-color="#F96C1A"/><stop offset=".47" stop-color="#FFF000"/></linearGradient><linearGradient id="tokenBrandedMv3" x1="2.066" x2="24.716" y1="10.257" y2="10.257" gradientUnits="userSpaceOnUse"><stop offset=".2" stop-color="#72ED00"/><stop offset="1" stop-color="#C9FF00"/></linearGradient><linearGradient id="tokenBrandedMv4" x1="12.29" x2="12.29" y1="2" y2="22.118" gradientUnits="userSpaceOnUse"><stop stop-color="#26F960"/><stop offset="1" stop-color="#4CFFFF"/></linearGradient><linearGradient id="tokenBrandedMv5" x1="12.179" x2="12.179" y1="2.201" y2="21.999" gradientUnits="userSpaceOnUse"><stop offset=".54" stop-color="#41FEFF"/><stop offset="1" stop-color="#fff"/></linearGradient><linearGradient id="tokenBrandedMv6" x1="1.142" x2="21.836" y1="7.984" y2="9.163" gradientUnits="userSpaceOnUse"><stop offset=".14" stop-color="#FFF500"/><stop offset=".75" stop-color="#EFB806"/></linearGradient><linearGradient id="tokenBrandedMv7" x1="12.001" x2="17.66" y1="2.004" y2="20.406" gradientUnits="userSpaceOnUse"><stop stop-color="#FFFF6F"/><stop offset=".33" stop-color="#F5190C"/><stop offset=".65" stop-color="#F3230C"/><stop offset=".96" stop-color="#CAF301"/></linearGradient><linearGradient id="tokenBrandedMv8" x1="2" x2="23.249" y1="12" y2="12" gradientUnits="userSpaceOnUse"><stop stop-color="#F3C923"/><stop offset=".48" stop-color="#E4EBE8"/><stop offset="1" stop-color="#4FF631"/></linearGradient></defs></g></svg>