<svg xmlns="http://www.w3.org/2000/svg" xmlns:xlink="http://www.w3.org/1999/xlink" width="24" height="24" viewBox="0 0 24 24"><g fill="none"><path fill="url(#tokenBrandedMvx0)" d="M12 22a10 10 0 1 0 0-20a10 10 0 0 0 0 20"/><path fill="url(#tokenBrandedMvx1)" d="M21.023 12a9.024 9.024 0 1 1-18.047 0a9.024 9.024 0 0 1 18.047 0"/><path fill="url(#tokenBrandedMvx2)" fill-rule="evenodd" d="M12 20.859a8.864 8.864 0 1 0 .456-17.722A8.864 8.864 0 0 0 12 20.859m0 .165a9.024 9.024 0 1 0 0-18.048a9.024 9.024 0 0 0 0 18.048" clip-rule="evenodd"/><path fill="url(#tokenBrandedMvx3)" d="m9.1 21.506l9.353-9.335l-3.176-3.142l-3.294.13l-3.318-3.024l-6.588 6.812c-.212.106.847 2.977 3.164 5.977c2.312 3 2.43 2.906 3.86 2.582"/><path fill="url(#tokenBrandedMvx4)" d="m12 18.541l6.47-6.353V9.094L12 15.453z"/><path fill="url(#tokenBrandedMvx5)" d="m12 18.541l-6.47-6.353V9.094L12 15.453z"/><path fill="url(#tokenBrandedMvx6)" d="M12.011 9.135L8.73 12.353v2.988l3.282-3.117z"/><path fill="url(#tokenBrandedMvx7)" d="m12 9.135l3.27 3.218v2.988L12 12.224z"/><path fill="url(#tokenBrandedMvx8)" d="m18.471 12.177l-3.2-3.142V5.953l3.2 3.135z"/><path fill="url(#tokenBrandedMvx9)" d="m5.53 12.177l3.206-3.142V5.953L5.53 9.088z"/><path fill="#D28A1C" d="m11.989 12.253l3.282-3.218V5.953L11.99 9.165z"/><path fill="#FFAA27" d="M12 12.253L8.735 9.035V5.953L12 9.165z"/><defs><linearGradient id="tokenBrandedMvx0" x1="24.441" x2="12" y1="-1.535" y2="24.153" gradientUnits="userSpaceOnUse"><stop offset=".14" stop-color="#FDEBEE"/><stop offset=".5" stop-color="#4D259B"/><stop offset=".71" stop-color="#291D99"/><stop offset="1" stop-color="#120C40"/></linearGradient><linearGradient id="tokenBrandedMvx1" x1="19.927" x2="3.199" y1="3.31" y2="19.705" gradientUnits="userSpaceOnUse"><stop stop-color="#CABFFF"/><stop offset=".5" stop-color="#4D259B"/><stop offset=".71" stop-color="#291D99"/><stop offset="1" stop-color="#120C40"/></linearGradient><linearGradient id="tokenBrandedMvx2" x1="18.02" x2="2.78" y1="2" y2="20.685" gradientUnits="userSpaceOnUse"><stop stop-color="#7D51A3"/><stop offset="1" stop-color="#3A28EE"/></linearGradient><linearGradient id="tokenBrandedMvx3" x1="14.778" x2="7.067" y1="7.971" y2="17.795" gradientUnits="userSpaceOnUse"><stop stop-opacity=".71"/><stop offset=".98" stop-opacity="0"/></linearGradient><linearGradient id="tokenBrandedMvx4" x1="50.672" x2="15.995" y1="-7.788" y2="41.574" gradientUnits="userSpaceOnUse"><stop offset=".49" stop-color="#FFAA27"/><stop offset=".85" stop-color="#5547BF"/><stop offset="1" stop-color="#180D65"/></linearGradient><linearGradient id="tokenBrandedMvx5" x1="-17.4" x2="4.855" y1="-10.927" y2="27.923" gradientUnits="userSpaceOnUse"><stop offset=".49" stop-color="#FFAA27"/><stop offset="1" stop-color="#8679E8"/></linearGradient><linearGradient id="tokenBrandedMvx6" x1="1.534" x2="8.271" y1="18.834" y2="7.155" gradientUnits="userSpaceOnUse"><stop stop-color="#fff"/><stop offset="1" stop-color="#FFC772" stop-opacity=".63"/></linearGradient><linearGradient id="tokenBrandedMvx7" x1="25.273" x2="17.767" y1="17.393" y2="4.503" gradientUnits="userSpaceOnUse"><stop stop-color="#fff"/><stop offset="1" stop-color="#FFC772" stop-opacity=".63"/></linearGradient><linearGradient id="tokenBrandedMvx8" x1="-61.124" x2="-57.831" y1="7.123" y2="27.776" gradientUnits="userSpaceOnUse"><stop stop-color="#fff"/><stop offset="1" stop-color="#FFC772" stop-opacity=".47"/></linearGradient><linearGradient id="tokenBrandedMvx9" x1="22.441" x2="11.902" y1="5.403" y2="23.445" gradientUnits="userSpaceOnUse"><stop stop-color="#fff"/><stop offset="1" stop-color="#FFC772" stop-opacity=".63"/></linearGradient></defs></g></svg>