<svg xmlns="http://www.w3.org/2000/svg" xmlns:xlink="http://www.w3.org/1999/xlink" width="24" height="24" viewBox="0 0 24 24"><g fill="none"><path fill="#fff" d="M12 19.18a7.18 7.18 0 1 0 0-14.36a7.18 7.18 0 0 0 0 14.36"/><path fill="#1896A4" d="M2 12c0 5.523 4.477 10 10 10s10-4.477 10-10S17.523 2 12 2S2 6.477 2 12m10 6.284c-3.38 0-6.279-2.74-6.279-6.12c0-.795.151-1.71.426-2.407l2.698 1.15l-.032.142q-.12.396-.14.81q-.009.082-.006.164l.002.037a3.314 3.314 0 0 0 4.07 3.186l1.533 2.604a6.1 6.1 0 0 1-2.27.434m5.792-3.797l-6.847-2.901l4.391-.02C15.181 9.973 13.544 8.68 12 8.68c-.35 0-.698.058-1.029.172L9.451 6.27A6.1 6.1 0 0 1 12 5.716c3.38 0 6.27 2.791 6.27 6.172c0 .91-.118 1.822-.475 2.599"/></g></svg>