<svg xmlns="http://www.w3.org/2000/svg" xmlns:xlink="http://www.w3.org/1999/xlink" width="24" height="24" viewBox="0 0 24 24"><g fill="none"><path fill="url(#tokenBrandedMyst0)" d="m21.94 13.458l-6.484-6.4a.23.23 0 0 0-.302 0l-3.184 3.131l-3.12-3.08a.213.213 0 0 0-.303 0l-.973.943l-3.581 3.464l-.783.76l-1.15 1.106a.2.2 0 0 0-.06.153c0 .058.026.109.06.152l3.234 3.194c.085.083.225.083.302 0l3.106-3.063l3.147 3.106c.085.083.224.083.301 0l3.115-3.074l3.132 3.092a.2.2 0 0 0 .155.058q.087.001.154-.058l3.235-3.194a.2.2 0 0 0 .059-.152a.17.17 0 0 0-.06-.138m-.58.265l-1.86-.675l-.854-1.815l.493.07l2.338 2.307zm-1.052 1.038l-.551-1.165l1.268.46zM7.504 10.562l-2.621.697l2.62-2.543zM4.25 11.865l1.838-.486l-.12 2.043l-2.236-1.049zm2.28-.602l.327-.084l.871 1.32l-1.364 1.492zm1.488.9l-.731-1.107l.415-.11l1.044.426zm-.085-1.583v-.773l2.486.204l.621 1.84zm2.103 2.392l.89.537l.147 2.05l-1.257-1.234zm1.21.232l-1.129-.69l.085-.536l1.062.435q.037.03.085.033l1.07.442l.448 1.31zm1.61-.377l1.166-.595l-.853 1.498zm1.614-1.292l-1.077.551l.257-1.803l1.5.903zm1.128-.58l-2.01-1.209l-.353-.214l.53-.519l2.286.733l.217.867zm1.097-.418l-.534-2.188l2.485 2.453zm.017.428l.457.059l.492 4.579l-1.312-1.296zm.89.127l.544.076l.776 1.651l-.948 1.739zm-2.304-3.584l.268.264l.364 1.492l-1.82-.581zm-3.18 3.141l.812-.802l.32.197l-.327 2.282l-.335.17l-1.033-.417l-.846-2.51l1.103 1.088a.24.24 0 0 0 .306-.008M8.69 7.57l1.338 1.317l.232.69l-2.327-.196V8.298zm-5.294 5.123l2.537 1.183L5.864 15l-2.268-.392l-1.077-1.063zm2.044 3.745l-1.32-1.302l1.706.297l-.044.657zm3.103-3.066L6.25 15.636l.06-.97l.006-.007l2.845-3.106l.63.254l-.13.784l-.224 1.36l-.588-.58a.217.217 0 0 0-.305 0m3.46 3.11l-.467-.461l-.155-2.239l1.706 1.038l.155.443zm3.268-3.135a.23.23 0 0 0-.155.058l-1.544 1.524l-.224-.657l1.371-2.402l1.544-.784l-.308 2.834l-.526-.52a.26.26 0 0 0-.158-.053m3.279 3.15l-.416-.41l-.085-.785l1.096-2.01l.838 1.79z"/><defs><linearGradient id="tokenBrandedMyst0" x1="2" x2="22" y1="12" y2="12" gradientUnits="userSpaceOnUse"><stop stop-color="#C31F5D"/><stop offset="1" stop-color="#302361"/></linearGradient></defs></g></svg>