<svg xmlns="http://www.w3.org/2000/svg" xmlns:xlink="http://www.w3.org/1999/xlink" width="24" height="24" viewBox="0 0 24 24"><g fill="none"><path fill="url(#tokenBrandedNahmii0)" d="m10.245 3.46l-.89.5v2.304a.86.86 0 0 0 .265.592a.88.88 0 0 0 1.217 0a.85.85 0 0 0 .264-.592V3.948c.002-.536-.384-.755-.856-.489"/><path fill="url(#tokenBrandedNahmii1)" d="m13.756 3.46l.889.5v2.304a.85.85 0 0 1-.264.592a.88.88 0 0 1-1.218 0a.85.85 0 0 1-.264-.592V3.948c0-.536.385-.755.857-.489"/><path fill="url(#tokenBrandedNahmii2)" d="m5.206 5.441l.89.506l3.259-1.851l.89-.502c.47-.267.857-.047.857.488v-.824c0-.478-.226-.892-.604-1.106s-.856-.2-1.277.038L5.185 4.482c-.45.268-.443.696.021.96"/><path fill="url(#tokenBrandedNahmii3)" d="m18.794 5.441l-.89.506l-3.26-1.851l-.888-.502c-.472-.266-.857-.047-.857.488v-.824c0-.478.226-.892.605-1.106c.378-.215.856-.2 1.276.038l4.037 2.292c.448.268.441.696-.023.96"/><path fill="url(#tokenBrandedNahmii4)" d="m5.385 17.683l.886.505l2.028-1.152a.87.87 0 0 0 .416-.521a.845.845 0 0 0-.312-.911a.88.88 0 0 0-.653-.167a.9.9 0 0 0-.324.113l-2.041 1.158c-.47.268-.471.707 0 .975"/><path fill="url(#tokenBrandedNahmii5)" d="m3.63 14.694l-.003-1.006l2.028-1.153a.9.9 0 0 1 .663-.086a.87.87 0 0 1 .53.4a.85.85 0 0 1 .087.652a.86.86 0 0 1-.407.52l-2.041 1.16c-.47.267-.857.048-.858-.487"/><path fill="url(#tokenBrandedNahmii6)" d="M9.65 20.982v-1.01l-3.26-1.851l-.885-.505c-.471-.269-.47-.707 0-.975l-.725.412c-.42.239-.672.638-.672 1.069s.251.828.672 1.068l4.036 2.29c.461.248.834.03.834-.498"/><path fill="url(#tokenBrandedNahmii7)" d="m2.856 9.412l.89.505v3.703l.002 1.007c0 .535.387.754.859.486l-.725.412c-.42.239-.898.253-1.276.038C2.228 15.35 2 14.935 2 14.457V9.874c.012-.517.392-.725.856-.462"/><path fill="url(#tokenBrandedNahmii8)" d="m20.371 14.693l.003-1.005l-2.029-1.152a.884.884 0 0 0-1.2.31a.85.85 0 0 0 .327 1.177l2.042 1.158c.47.266.856.048.857-.488"/><path fill="url(#tokenBrandedNahmii9)" d="m18.615 17.683l-.885.506l-2.03-1.152a.87.87 0 0 1-.415-.522a.85.85 0 0 1 .312-.91a.88.88 0 0 1 .653-.168a.9.9 0 0 1 .324.113l2.041 1.159c.47.267.471.706 0 .974"/><path fill="url(#tokenBrandedNahmiia)" d="m21.145 9.412l-.89.505v3.703l-.003 1.007c0 .535-.387.754-.859.486l.725.412c.42.239.898.253 1.276.038c.378-.214.604-.628.604-1.106V9.874c-.01-.517-.39-.725-.854-.462"/><path fill="url(#tokenBrandedNahmiib)" d="M14.35 20.982v-1.01l3.26-1.851l.886-.505c.47-.269.47-.707 0-.975l.724.412c.421.239.672.638.672 1.069s-.25.828-.672 1.068l-4.037 2.292c-.46.246-.833.027-.833-.5"/><path fill="url(#tokenBrandedNahmiic)" d="m19.396 4.812l-.7-.398c.45.27.443.697-.02.96L13.839 8.12c-.49.278-1.165.415-1.84.413c-.674-.002-1.35-.135-1.838-.413L5.326 5.374c-.464-.263-.47-.69-.021-.96l-.702.398c-.42.239-.672.638-.672 1.068s.252.829.672 1.069l4.685 2.659c.758.43 1.728.644 2.7.644h.025c.972 0 1.943-.215 2.7-.644l4.685-2.66c.421-.238.672-.637.672-1.068c0-.43-.253-.83-.674-1.068"/><path fill="url(#tokenBrandedNahmiid)" d="M2 9.214v.794c.012-.518.392-.725.856-.462l4.836 2.746c.489.277.948.784 1.284 1.36s.556 1.218.556 1.772v5.491c0 .527-.374.745-.835.498l.7.397c.42.239.898.253 1.276.039c.379-.215.604-.629.604-1.106v-5.32c0-.858-.296-1.792-.782-2.62l-.006-.01l-.006-.01c-.486-.829-1.161-1.548-1.917-1.976L3.88 8.147c-.421-.24-.898-.254-1.277-.04C2.226 8.323 2 8.735 2 9.215"/><path fill="url(#tokenBrandedNahmiie)" d="m14.604 21.81l.699-.397c-.46.248-.835.029-.835-.498v-5.491c0-.555.217-1.198.556-1.773c.339-.574.794-1.082 1.284-1.36l4.836-2.746c.464-.263.844-.054.856.463v-.794c0-.478-.226-.892-.604-1.106c-.379-.215-.856-.2-1.277.038l-4.684 2.66c-.758.43-1.431 1.15-1.917 1.976l-.006.01l-.006.01c-.486.828-.783 1.763-.783 2.62v5.32c0 .478.226.892.604 1.107c.379.215.857.2 1.277-.039"/><defs><linearGradient id="tokenBrandedNahmii0" x1="10.23" x2="10.23" y1="6.243" y2="3.484" gradientUnits="userSpaceOnUse"><stop stop-color="#902784"/><stop offset=".07" stop-color="#842885"/><stop offset=".35" stop-color="#5E2D87"/><stop offset=".6" stop-color="#433089"/><stop offset=".83" stop-color="#32328A"/><stop offset=".99" stop-color="#2C338A"/></linearGradient><linearGradient id="tokenBrandedNahmii1" x1="13.771" x2="13.771" y1="6.361" y2="3.434" gradientUnits="userSpaceOnUse"><stop stop-color="#902784"/><stop offset=".07" stop-color="#842885"/><stop offset=".35" stop-color="#5E2D87"/><stop offset=".6" stop-color="#433089"/><stop offset=".83" stop-color="#32328A"/><stop offset=".99" stop-color="#2C338A"/></linearGradient><linearGradient id="tokenBrandedNahmii2" x1="5.874" x2="10.76" y1="5.613" y2="2.65" gradientUnits="userSpaceOnUse"><stop stop-color="#902784"/><stop offset=".23" stop-color="#AA2D87"/><stop offset=".53" stop-color="#C5348A"/><stop offset=".79" stop-color="#D6388B"/><stop offset=".99" stop-color="#DC398C"/></linearGradient><linearGradient id="tokenBrandedNahmii3" x1="18.161" x2="13.59" y1="5.49" y2="2.915" gradientUnits="userSpaceOnUse"><stop stop-color="#902784"/><stop offset=".23" stop-color="#AA2D87"/><stop offset=".53" stop-color="#C5348A"/><stop offset=".79" stop-color="#D6388B"/><stop offset=".99" stop-color="#DC398C"/></linearGradient><linearGradient id="tokenBrandedNahmii4" x1="7.844" x2="5.435" y1="16.304" y2="17.719" gradientUnits="userSpaceOnUse"><stop stop-color="#902784"/><stop offset=".07" stop-color="#842885"/><stop offset=".35" stop-color="#5E2D87"/><stop offset=".6" stop-color="#433089"/><stop offset=".83" stop-color="#32328A"/><stop offset=".99" stop-color="#2C338A"/></linearGradient><linearGradient id="tokenBrandedNahmii5" x1="6.178" x2="3.622" y1="13.23" y2="14.731" gradientUnits="userSpaceOnUse"><stop stop-color="#902784"/><stop offset=".07" stop-color="#842885"/><stop offset=".35" stop-color="#5E2D87"/><stop offset=".6" stop-color="#433089"/><stop offset=".83" stop-color="#32328A"/><stop offset=".99" stop-color="#2C338A"/></linearGradient><linearGradient id="tokenBrandedNahmii6" x1="9.468" x2="4.497" y1="20.328" y2="17.504" gradientUnits="userSpaceOnUse"><stop stop-color="#902784"/><stop offset=".23" stop-color="#AA2D87"/><stop offset=".53" stop-color="#C5348A"/><stop offset=".79" stop-color="#D6388B"/><stop offset=".99" stop-color="#DC398C"/></linearGradient><linearGradient id="tokenBrandedNahmii7" x1="3.215" x2="3.306" y1="9.927" y2="15.106" gradientUnits="userSpaceOnUse"><stop stop-color="#902784"/><stop offset=".23" stop-color="#AA2D87"/><stop offset=".53" stop-color="#C5348A"/><stop offset=".79" stop-color="#D6388B"/><stop offset=".99" stop-color="#DC398C"/></linearGradient><linearGradient id="tokenBrandedNahmii8" x1="17.927" x2="20.336" y1="13.289" y2="14.704" gradientUnits="userSpaceOnUse"><stop stop-color="#902784"/><stop offset=".07" stop-color="#842885"/><stop offset=".35" stop-color="#5E2D87"/><stop offset=".6" stop-color="#433089"/><stop offset=".83" stop-color="#32328A"/><stop offset=".99" stop-color="#2C338A"/></linearGradient><linearGradient id="tokenBrandedNahmii9" x1="16.052" x2="18.608" y1="16.245" y2="17.746" gradientUnits="userSpaceOnUse"><stop stop-color="#902784"/><stop offset=".07" stop-color="#842885"/><stop offset=".35" stop-color="#5E2D87"/><stop offset=".6" stop-color="#433089"/><stop offset=".83" stop-color="#32328A"/><stop offset=".99" stop-color="#2C338A"/></linearGradient><linearGradient id="tokenBrandedNahmiia" x1="20.659" x2="20.738" y1="9.894" y2="15.538" gradientUnits="userSpaceOnUse"><stop stop-color="#902784"/><stop offset=".23" stop-color="#AA2D87"/><stop offset=".53" stop-color="#C5348A"/><stop offset=".79" stop-color="#D6388B"/><stop offset=".99" stop-color="#DC398C"/></linearGradient><linearGradient id="tokenBrandedNahmiib" x1="14.624" x2="19.098" y1="20.419" y2="17.683" gradientUnits="userSpaceOnUse"><stop stop-color="#902784"/><stop offset=".23" stop-color="#AA2D87"/><stop offset=".53" stop-color="#C5348A"/><stop offset=".79" stop-color="#D6388B"/><stop offset=".99" stop-color="#DC398C"/></linearGradient><radialGradient id="tokenBrandedNahmiic" cx="0" cy="0" r="1" gradientTransform="matrix(12.4451 0 0 29.7467 11.927 19.496)" gradientUnits="userSpaceOnUse"><stop stop-color="#00A3DE"/><stop offset=".25" stop-color="#029AD6"/><stop offset=".66" stop-color="#0880C0"/><stop offset="1" stop-color="#0E67AB"/></radialGradient><radialGradient id="tokenBrandedNahmiid" cx="0" cy="0" r="1" gradientTransform="matrix(-10.8245 -10.708 12.36385 -12.49837 18.787 11.052)" gradientUnits="userSpaceOnUse"><stop stop-color="#00A3DE"/><stop offset=".25" stop-color="#029AD6"/><stop offset=".66" stop-color="#0880C0"/><stop offset="1" stop-color="#0E67AB"/></radialGradient><radialGradient id="tokenBrandedNahmiie" cx="0" cy="0" r="1" gradientTransform="rotate(120.421 3.37 10.664)scale(9.9166 9.99962)" gradientUnits="userSpaceOnUse"><stop stop-color="#00A3DE"/><stop offset=".25" stop-color="#029AD6"/><stop offset=".66" stop-color="#0880C0"/><stop offset="1" stop-color="#0E67AB"/></radialGradient></defs></g></svg>