<svg xmlns="http://www.w3.org/2000/svg" xmlns:xlink="http://www.w3.org/1999/xlink" width="24" height="24" viewBox="0 0 24 24"><g fill="none"><path fill="url(#tokenBrandedNaos0)" d="M12 2c5.488 0 10 4.459 10 10c0 5.488-4.459 10-10 10c-5.488 0-10-4.459-10-10S6.459 2 12 2"/><path fill="#F0F3FA" d="M14.059 9.788a.57.57 0 0 1 .294.489a.47.47 0 0 1-.076.258a.57.57 0 0 1-.512.288a.5.5 0 0 1-.236-.076L7.295 6.941v9.924l2.718-1.26a.5.5 0 0 1 .27-.076c.189 0 .365.106.47.295a.48.48 0 0 1 .077.294a.56.56 0 0 1-.282.447l-3.576 1.8c-.106.053-.212.106-.318.106c-.324 0-.535-.212-.535-.53V6.076c0-.105 0-.158.058-.264c.153-.265.471-.37.742-.212l7.147 4.182z"/><path fill="#F0F3FA" d="M9.912 13.559a.53.53 0 0 1-.265-.47q0-.124.053-.248c.077-.176.288-.259.5-.253c.088 0 .177.018.253.047l6.253 3.777V6.965L14 8.4a.54.54 0 0 1-.554-.013a.6.6 0 0 1-.193-.193a.47.47 0 0 1-.076-.288a.55.55 0 0 1 .294-.43l3.553-1.847c.105-.047.211-.1.317-.1c.324 0 .541.206.541.512v11.33c0 .106 0 .153-.058.258c-.16.253-.483.306-.747.206z"/><defs><linearGradient id="tokenBrandedNaos0" x1="18.765" x2="3.176" y1="4.059" y2="18.765" gradientUnits="userSpaceOnUse"><stop stop-color="#5A47F0"/><stop offset="1" stop-color="#2A1BA8"/></linearGradient></defs></g></svg>