<svg xmlns="http://www.w3.org/2000/svg" xmlns:xlink="http://www.w3.org/1999/xlink" width="24" height="24" viewBox="0 0 24 24"><g fill="none"><path fill="url(#tokenBrandedNavi0)" d="m7.482 14.18l-4.516 5.079V4.565a2.258 2.258 0 0 1 4.516 0z"/><path fill="url(#tokenBrandedNavi1)" d="m7.32 10.549l-.2-7.219l12.457 15.02a2.213 2.213 0 0 1-.32 3.147a2.274 2.274 0 0 1-3.168-.326z"/><path fill="#FFC524" d="m2.97 19.085l4.517-5.361v6.018a2.258 2.258 0 0 1-4.516 0z"/><path fill="#91D450" d="m2.97 5.277l4.517 5.524V4.565a2.258 2.258 0 1 0-4.516 0z"/><path fill="#FF7819" d="M20.81 6.311c.148-.367.225-.76.224-1.157C21.034 3.412 19.59 2 17.808 2c-1.781 0-3.226 1.412-3.226 3.154c0 .387.07.758.202 1.1c.611 2.003 2.21 3.562 3.007 4.134c1.78-1.31 2.663-2.978 3.019-4.077"/><path fill="#AC46BC" d="M17.809 6.516a1.29 1.29 0 1 0 0-2.582a1.29 1.29 0 0 0 0 2.582"/><defs><linearGradient id="tokenBrandedNavi0" x1="21.034" x2="2.985" y1="12.555" y2="11.934" gradientUnits="userSpaceOnUse"><stop stop-color="#5DC17C"/><stop offset="1" stop-color="#8CD037"/></linearGradient><linearGradient id="tokenBrandedNavi1" x1="2.964" x2="14.692" y1="5.621" y2="24.661" gradientUnits="userSpaceOnUse"><stop stop-color="#9CD863"/><stop offset="1" stop-color="#49ADDA"/></linearGradient></defs></g></svg>