<svg xmlns="http://www.w3.org/2000/svg" xmlns:xlink="http://www.w3.org/1999/xlink" width="24" height="24" viewBox="0 0 24 24"><g fill="none"><path fill="url(#tokenBrandedNett0)" d="m7.721 12l-5.555 6.904c-.194-.114-.177-.434-.149-.583l1.378-6.32z"/><path fill="url(#tokenBrandedNett1)" d="M11.682 14.83L7.727 12l-5.566 6.915c.125.155.44.115.577.07z"/><path fill="#54CCFF" d="M7.727 12H3.389c.617-2.195 1.869-6.63 1.931-6.824c.058-.188.246-.331.338-.377z"/><path fill="#A2AFFE" d="M6.282 4.805c-.24-.16-.515-.069-.63 0l2.081 7.2l9.31.567C13.557 10.08 6.527 4.97 6.282 4.805"/><path fill="#3189F7" d="M11.688 14.846L7.72 12l4.4.234z"/><path fill="url(#tokenBrandedNett2)" d="m17.032 12.572l-4.915-.355l-.446 2.612l7.07 4.298c.154.103.491.303.64.303c.154 0 .308-.04.371-.057l-2.726-6.801z"/><path fill="url(#tokenBrandedNett3)" d="M21.112 12.469H16.94l2.8 6.904c.355-.08.56-.446.606-.612l.766-6.287z"/><path fill="url(#tokenBrandedNett4)" d="m16.98 12.572l-4.4-3.207l8.458-4.646c.074-.08.309-.212.64-.114c.332.097.343.491.309.674l-.892 7.293z"/><defs><linearGradient id="tokenBrandedNett0" x1="11.99" x2="11.99" y1="4.583" y2="19.43" gradientUnits="userSpaceOnUse"><stop stop-color="#38C2FF"/><stop offset="1" stop-color="#2698EE"/></linearGradient><linearGradient id="tokenBrandedNett1" x1="12" x2="12" y1="4.57" y2="19.427" gradientUnits="userSpaceOnUse"><stop stop-color="#4196FF"/><stop offset="1" stop-color="#2588FD"/></linearGradient><linearGradient id="tokenBrandedNett2" x1="12" x2="9.656" y1="4.57" y2="14.835" gradientUnits="userSpaceOnUse"><stop stop-color="#4583FC"/><stop offset="1" stop-color="#307EFA"/></linearGradient><linearGradient id="tokenBrandedNett3" x1="12.219" x2="12.219" y1="4.57" y2="19.381" gradientUnits="userSpaceOnUse"><stop stop-color="#718CFD"/><stop offset="1" stop-color="#5A86FF"/></linearGradient><linearGradient id="tokenBrandedNett4" x1="21.523" x2="17.557" y1="5.085" y2="12.594" gradientUnits="userSpaceOnUse"><stop stop-color="#A796F6"/><stop offset="1" stop-color="#999FFF"/></linearGradient></defs></g></svg>