<svg xmlns="http://www.w3.org/2000/svg" xmlns:xlink="http://www.w3.org/1999/xlink" width="24" height="24" viewBox="0 0 24 24"><g fill="none"><path fill="#3CA9E5" d="m7.19 3.668l9.797 5.512v5.625L2 6.375l4.806-2.7a.42.42 0 0 1 .385 0z"/><path fill="#2853C3" d="m16.995 3.555l-4.998 2.813l4.998 2.812z"/><path fill="#1A4199" d="m16.994 3.555l4.806 2.7a.39.39 0 0 1 .192.33v11.033l-4.998-2.805z"/><path fill="#2853C3" d="m22 17.621l-4.813 2.704a.42.42 0 0 1-.408 0l-9.796-5.513v-5.64z"/><path fill="#60BEFF" d="M2 6.367V17.4a.39.39 0 0 0 .192.345l4.806 2.7V9.18z"/><path fill="#3CA9E5" d="m6.999 20.438l4.998-2.813l-4.998-2.82z"/></g></svg>