<svg xmlns="http://www.w3.org/2000/svg" xmlns:xlink="http://www.w3.org/1999/xlink" width="24" height="24" viewBox="0 0 24 24"><g fill="none"><path fill="url(#tokenBrandedNftbs0)" d="m13.094 13.112l-.488 1.241H11.37l-.46-1.265l.883-1.941h.13l-.024 1.824a.352.352 0 0 0-.131.605a.353.353 0 1 0 .33-.605l.024-1.824h.13z"/><path fill="url(#tokenBrandedNftbs1)" d="M15.053 15.335h-6.1l-.036-.164c-.018-.089-.412-2.147.465-2.977q.494-.44 1.059-.765c.47-.294.84-.53.84-.806v-.164c0-.277-.37-.506-.84-.8a6.7 6.7 0 0 1-1.06-.77C8.5 8.064 8.9 6 8.918 5.911l.035-.165h6.1l.03.165c.018.088.412 2.147-.459 2.976a7 7 0 0 1-1.065.77c-.47.295-.84.53-.84.8v.165c0 .277.37.506.84.8a7 7 0 0 1 1.06.771c.881.83.482 2.888.47 2.977zm-5.677-.394h5.253c.1-.647.176-1.97-.383-2.5a6.7 6.7 0 0 0-.994-.718c-.547-.34-1.023-.64-1.023-1.1v-.164c0-.46.47-.753 1.023-1.1c.353-.206.689-.447.994-.718c.56-.53.483-1.882.383-2.523H9.376c-.1.647-.177 2 .382 2.523c.306.27.636.512.989.718c.553.341 1.023.64 1.023 1.1v.165c0 .458-.47.752-1.024 1.1a6.6 6.6 0 0 0-.988.717c-.559.53-.482 1.859-.382 2.5"/><path fill="url(#tokenBrandedNftbs2)" d="M15.53 4.941H8.471v.588h7.059z"/><path fill="url(#tokenBrandedNftbs3)" d="M15.53 15.53H8.471v.588h7.059z"/><path fill="url(#tokenBrandedNftbs4)" d="m10.735 7.294l-.512-.812l.135-.094l.177.294l.03-.082a.2.2 0 0 1 .064-.059l.088-.035a.15.15 0 0 1 .07.012a.1.1 0 0 1 .048.035l.059.094l.14.218l.048.082l.012.059a.16.16 0 0 1-.088.13a.2.2 0 0 1-.089.035a.4.4 0 0 1-.076-.012l.03.059l-.136.082zm.023-.57a.1.1 0 0 0-.047-.042a.07.07 0 0 0-.064.012a.08.08 0 0 0-.042.082c0 .006 0 .018.012.024l.141.235a.08.08 0 0 0 .083.036l.035-.012A.07.07 0 0 0 10.911 7a.1.1 0 0 0-.017-.059z"/><path fill="url(#tokenBrandedNftbs5)" d="M11.43 7.141a.4.4 0 0 1 .029-.07a.2.2 0 0 1 .047-.053a.2.2 0 0 1 .105-.036a.26.26 0 0 1 .136.018a.3.3 0 0 1 .106.07a.3.3 0 0 1 .053.1a.2.2 0 0 1 0 .065l-.024.077l-.082.217a.4.4 0 0 1-.03.071a.2.2 0 0 1-.047.047a.2.2 0 0 1-.1.041a.4.4 0 0 1-.135-.023a.3.3 0 0 1-.106-.07a.2.2 0 0 1-.053-.1a.2.2 0 0 1 0-.06l.024-.082zm.058.288a.08.08 0 0 0 0 .06q.018.034.053.04a.05.05 0 0 0 .059 0a.08.08 0 0 0 .041-.047l.094-.253a.07.07 0 0 0 0-.058a.1.1 0 0 0-.047-.042a.1.1 0 0 0-.059 0a.08.08 0 0 0-.041.047l-.094.253z"/><path fill="url(#tokenBrandedNftbs6)" d="m11.512 8.441l-.06-.053a.2.2 0 0 1-.04-.059a.2.2 0 0 1-.006-.105a.33.33 0 0 1 .153-.212a.2.2 0 0 1 .106-.024c.023 0 .047 0 .064.012l.07.041l.177.135l.06.053l.04.06c.012.029.012.07.006.105a.3.3 0 0 1-.053.118a.3.3 0 0 1-.1.088a.2.2 0 0 1-.106.024a.2.2 0 0 1-.064-.012l-.065-.041zm.294.018a.08.08 0 0 0 .059.017a.1.1 0 0 0 .053-.035a.08.08 0 0 0 .017-.059a.08.08 0 0 0-.035-.058l-.218-.153a.08.08 0 0 0-.059-.018a.1.1 0 0 0-.047.035a.08.08 0 0 0-.023.059a.08.08 0 0 0 .041.053z"/><path fill="url(#tokenBrandedNftbs7)" d="m11.636 9.735l.323-.912l.153.06l-.194.54l.288-.217l.153.059l-.276.2l.082.458L12 9.865l-.035-.336l-.106.077l-.07.176z"/><path fill="#A57F62" d="M8.294 19.059v-2.353h.676c.13 0 .26.012.383.047q.14.046.253.135a.5.5 0 0 1 .147.188a.6.6 0 0 1 .04.224v.082a.5.5 0 0 1-.023.165a.3.3 0 0 1-.058.118a.8.8 0 0 1-.236.159a.4.4 0 0 1 .236.164a.5.5 0 0 1 .082.294v.136a.59.59 0 0 1-.206.476c-.141.112-.359.165-.665.165zm.459-2.035v.647h.212a.44.44 0 0 0 .311-.089a.34.34 0 0 0 .083-.24a.3.3 0 0 0-.089-.236a.5.5 0 0 0-.323-.082zm0 .94v.754h.2a.7.7 0 0 0 .217-.03a.26.26 0 0 0 .118-.082a.25.25 0 0 0 .053-.124a1.2 1.2 0 0 0 0-.317a.23.23 0 0 0-.059-.112a.26.26 0 0 0-.123-.065a.8.8 0 0 0-.206-.023zm1.447-.693c0-.083.023-.171.07-.247a.6.6 0 0 1 .183-.177a1 1 0 0 1 .247-.106c.276-.073.57-.035.818.106q.106.07.176.177c.047.076.07.164.07.247v1.223a.45.45 0 0 1-.07.247a.6.6 0 0 1-.177.177a1.12 1.12 0 0 1-.811.105a.8.8 0 0 1-.253-.105a.55.55 0 0 1-.177-.17a.45.45 0 0 1-.07-.248v-1.23zm.47 1.223c0 .035 0 .07.018.1s.041.059.077.077a.45.45 0 0 0 .44 0a.18.18 0 0 0 .088-.177v-1.223a.2.2 0 0 0-.017-.1a.2.2 0 0 0-.07-.077a.45.45 0 0 0-.441 0a.2.2 0 0 0-.077.077a.2.2 0 0 0-.018.1zm1.418-1.223c0-.083.024-.171.07-.247a.6.6 0 0 1 .177-.177a1.09 1.09 0 0 1 1.059 0a.6.6 0 0 1 .182.177a.5.5 0 0 1 .07.247v1.223a.4.4 0 0 1-.07.247a.6.6 0 0 1-.176.177a1.12 1.12 0 0 1-.812.105a.8.8 0 0 1-.247-.105a.55.55 0 0 1-.182-.177a.45.45 0 0 1-.07-.247zm.47 1.223q-.008.054.018.1c.018.03.041.059.07.077a.45.45 0 0 0 .442 0a.2.2 0 0 0 .07-.077a.2.2 0 0 0 .018-.1v-1.223a.2.2 0 0 0-.017-.1a.2.2 0 0 0-.071-.077a.45.45 0 0 0-.441 0a.2.2 0 0 0-.094.177v1.223zm2.918-1.082a1 1 0 0 0-.423-.13l.382-.558c.094-.142-.047-.3-.265-.3l-.582.905v-.623c-.259 0-.47.147-.47.335v2c.264 0 .47-.147.47-.33V17.8c0-.035.012-.07.024-.1a.2.2 0 0 1 .07-.076a.56.56 0 0 1 .541 0a.3.3 0 0 1 .083.094q.026.054.017.117v.941c0 .148.177.271.383.271v-1.212a.44.44 0 0 0-.053-.235a.5.5 0 0 0-.177-.188"/><path fill="url(#tokenBrandedNftbs8)" d="M12 22a10 10 0 1 1 0-20a10 10 0 0 1 0 20m0-19.776a9.776 9.776 0 1 0 0 19.553a9.776 9.776 0 0 0 0-19.553"/><defs><linearGradient id="tokenBrandedNftbs0" x1="-8.458" x2="25.847" y1="36.349" y2="-43.146" gradientUnits="userSpaceOnUse"><stop stop-color="#99644F"/><stop offset=".32" stop-color="#A57F62"/><stop offset=".71" stop-color="#DBC0B0"/></linearGradient><linearGradient id="tokenBrandedNftbs1" x1="1.205" x2="12.467" y1="23.325" y2="-3.433" gradientUnits="userSpaceOnUse"><stop stop-color="#99644F"/><stop offset=".32" stop-color="#A57F62"/><stop offset=".71" stop-color="#DBC0B0"/><stop offset="1" stop-color="#E8E1DA"/></linearGradient><linearGradient id="tokenBrandedNftbs2" x1="-3.683" x2="59.955" y1="404.399" y2="398.064" gradientUnits="userSpaceOnUse"><stop offset=".32" stop-color="#A57F62"/><stop offset=".71" stop-color="#DBC0B0"/><stop offset="1" stop-color="#E8E1DA"/></linearGradient><linearGradient id="tokenBrandedNftbs3" x1="9.134" x2="72.772" y1="83.8" y2="77.466" gradientUnits="userSpaceOnUse"><stop stop-color="#99644F"/><stop offset=".32" stop-color="#A57F62"/></linearGradient><linearGradient id="tokenBrandedNftbs4" x1="-96.649" x2="50.23" y1="173.871" y2="-68.914" gradientUnits="userSpaceOnUse"><stop offset=".32" stop-color="#A57F62"/><stop offset=".71" stop-color="#DBC0B0"/></linearGradient><linearGradient id="tokenBrandedNftbs5" x1="-151.159" x2="23.772" y1="223.371" y2="-112.579" gradientUnits="userSpaceOnUse"><stop offset=".32" stop-color="#A57F62"/><stop offset=".71" stop-color="#DBC0B0"/></linearGradient><linearGradient id="tokenBrandedNftbs6" x1="-114.723" x2="106.705" y1="227.58" y2="-96.954" gradientUnits="userSpaceOnUse"><stop offset=".32" stop-color="#A57F62"/><stop offset=".71" stop-color="#DBC0B0"/></linearGradient><linearGradient id="tokenBrandedNftbs7" x1="-95.398" x2="2.317" y1="125.315" y2="-108.954" gradientUnits="userSpaceOnUse"><stop offset=".32" stop-color="#A57F62"/><stop offset=".71" stop-color="#DBC0B0"/></linearGradient><linearGradient id="tokenBrandedNftbs8" x1="12.047" x2="11.953" y1="21.724" y2="1.765" gradientUnits="userSpaceOnUse"><stop stop-color="#99644F"/><stop offset=".32" stop-color="#A57F62"/><stop offset=".71" stop-color="#DBC0B0"/><stop offset="1" stop-color="#E8E1DA"/></linearGradient></defs></g></svg>