<svg xmlns="http://www.w3.org/2000/svg" xmlns:xlink="http://www.w3.org/1999/xlink" width="24" height="24" viewBox="0 0 24 24"><g fill="none"><path fill="url(#tokenBrandedNvt0)" fill-rule="evenodd" d="m11.135 5.683l-.27.724l3.88 6.866l.27-.725zM8.98 11.47l3.89 6.848l.258-.691l-3.883-6.87zm4.82 4.34L9.92 8.944l.27-.725l3.879 6.866z" clip-rule="evenodd"/><path fill="url(#tokenBrandedNvt1)" d="M16.613 18.315h-3.747L17.332 6.33c.071-.19.197-.354.361-.47a.97.97 0 0 1 .558-.178H22l-4.468 11.983a1 1 0 0 1-.36.47a.97.97 0 0 1-.56.179"/><path fill="url(#tokenBrandedNvt2)" d="M5.746 18.315H2L6.466 6.33c.07-.19.197-.354.36-.47a.97.97 0 0 1 .56-.178h3.748L6.666 17.666c-.07.19-.196.353-.36.47a.97.97 0 0 1-.56.179"/><path fill="url(#tokenBrandedNvt3)" fill-rule="evenodd" d="M11.134 5.683h.005l.54.958l-.273.717l-.54-.956zm-.41 3.466l-.534-.945l-.271.724l.532.94zm-.96 2.526l-.52-.92l-.265.714l.517.911z" clip-rule="evenodd"/><path fill="url(#tokenBrandedNvt4)" d="m14.483 11.606l.534.946l-.277.724l-.526-.952z"/><path fill="url(#tokenBrandedNvt5)" d="m14.072 15.083l-.546-.96l-.27.72l.547.97z"/><path fill="url(#tokenBrandedNvt6)" d="m13.125 17.618l-.545-.958l-.258.703l.544.952z"/><defs><linearGradient id="tokenBrandedNvt0" x1="4.858" x2="8.585" y1="12.757" y2="20.402" gradientUnits="userSpaceOnUse"><stop stop-color="#4E90E2"/><stop offset=".857" stop-color="#17E9D9"/></linearGradient><linearGradient id="tokenBrandedNvt1" x1="19.529" x2="6.385" y1="10.037" y2="6.606" gradientUnits="userSpaceOnUse"><stop stop-color="#5D7CE9"/><stop offset="1" stop-color="#17EAD9"/></linearGradient><linearGradient id="tokenBrandedNvt2" x1="19.529" x2="6.385" y1="10.037" y2="6.606" gradientUnits="userSpaceOnUse"><stop stop-color="#5D7CE9"/><stop offset="1" stop-color="#17EAD9"/></linearGradient><linearGradient id="tokenBrandedNvt3" x1="1.166" x2="6.699" y1="12" y2="20.565" gradientUnits="userSpaceOnUse"><stop offset=".39" stop-color="#2E4177"/><stop offset="1" stop-color="#2E4177" stop-opacity="0"/></linearGradient><linearGradient id="tokenBrandedNvt4" x1="1.345" x2="-19.425" y1="35.439" y2="16.426" gradientUnits="userSpaceOnUse"><stop stop-color="#3B8382"/><stop offset="1" stop-color="#439A99" stop-opacity="0"/></linearGradient><linearGradient id="tokenBrandedNvt5" x1="24.822" x2="4.294" y1="16.269" y2="-2.429" gradientUnits="userSpaceOnUse"><stop stop-color="#3B8382"/><stop offset="1" stop-color="#439A99" stop-opacity="0"/></linearGradient><linearGradient id="tokenBrandedNvt6" x1="14.187" x2="12.764" y1="15.539" y2="15.142" gradientUnits="userSpaceOnUse"><stop stop-color="#3B8382"/><stop offset="1" stop-color="#439A99" stop-opacity="0"/></linearGradient></defs></g></svg>