<svg xmlns="http://www.w3.org/2000/svg" xmlns:xlink="http://www.w3.org/1999/xlink" width="24" height="24" viewBox="0 0 24 24"><g fill="none"><path fill="url(#tokenBrandedO30)" fill-rule="evenodd" d="M8.111 18.667h10.556a3.334 3.334 0 0 0 2.56-5.469A3.055 3.055 0 1 0 16.64 9.16l-.009.017c-.256.367-.445 1.117.057 1.563c.495.44 1.221.263 1.609-.097A.833.833 0 1 1 18.926 12l.002.005c-.633 0-1.375.435-1.375 1.384c0 .95.756 1.338 1.375 1.38v.002h.012a.838.838 0 0 1 0 1.674q-.153 0-.28-.005v.005H8.806l.001-.002a4.445 4.445 0 1 1 3.713-2.222c-.374.666-.35 1.126.114 1.5c.812.405 1.575-.033 1.746-.285a6.667 6.667 0 1 0-6.27 3.208z" clip-rule="evenodd"/><defs><linearGradient id="tokenBrandedO30" x1="12" x2="10.517" y1="5.333" y2="18.126" gradientUnits="userSpaceOnUse"><stop stop-color="#42B06B"/><stop offset="1" stop-color="#06AF8F"/></linearGradient></defs></g></svg>