<svg xmlns="http://www.w3.org/2000/svg" xmlns:xlink="http://www.w3.org/1999/xlink" width="24" height="24" viewBox="0 0 24 24"><g fill="none"><path fill="url(#tokenBrandedOcta0)" d="M2 8.345v7.638l1.667 1.123V7.222L2 8.35z"/><path fill="url(#tokenBrandedOcta1)" d="M3.667 7.222v9.89l1.666-1.129V8.345z"/><path fill="url(#tokenBrandedOcta2)" d="M5.334 5.278v13.76L7 20.162v-16L5.334 5.283z"/><path fill="url(#tokenBrandedOcta3)" d="m7 20.167l1.667-1.123V5.278L7 4.15z"/><path fill="url(#tokenBrandedOcta4)" d="M22 8.345v7.638l-1.667 1.123V7.222L22 8.35z"/><path fill="url(#tokenBrandedOcta5)" d="M20.334 7.222v9.89l-1.667-1.129V8.345z"/><path fill="url(#tokenBrandedOcta6)" d="M18.667 5.278v13.76L17 20.162v-16l1.667 1.122z"/><path fill="url(#tokenBrandedOcta7)" d="m17 20.167l-1.666-1.123V5.278L17 4.15z"/><path fill="url(#tokenBrandedOcta8)" d="M8.667 3.122v17.756L10.327 22h.006V2z"/><path fill="url(#tokenBrandedOcta9)" d="M10.333 22h.006l1.66-1.122V3.122L10.334 2z"/><path fill="url(#tokenBrandedOctaa)" d="M12 3.122v17.756L13.661 22h.006V2z"/><path fill="url(#tokenBrandedOctab)" d="M13.667 22h.005l1.661-1.122V3.122L13.667 2z"/><defs><linearGradient id="tokenBrandedOcta0" x1="12" x2="12" y1="2" y2="22" gradientUnits="userSpaceOnUse"><stop stop-color="#670057"/><stop offset="1" stop-color="#230059"/></linearGradient><linearGradient id="tokenBrandedOcta1" x1="12" x2="12" y1="2" y2="21.989" gradientUnits="userSpaceOnUse"><stop stop-color="#CC1B99"/><stop offset="1" stop-color="#471288"/></linearGradient><linearGradient id="tokenBrandedOcta2" x1="12" x2="12" y1="1.993" y2="22" gradientUnits="userSpaceOnUse"><stop stop-color="#670057"/><stop offset="1" stop-color="#230059"/></linearGradient><linearGradient id="tokenBrandedOcta3" x1="12.001" x2="12.001" y1="2.007" y2="21.993" gradientUnits="userSpaceOnUse"><stop stop-color="#CC1B99"/><stop offset="1" stop-color="#471288"/></linearGradient><linearGradient id="tokenBrandedOcta4" x1="12" x2="12" y1="2" y2="22" gradientUnits="userSpaceOnUse"><stop stop-color="#CC1B99"/><stop offset="1" stop-color="#471288"/></linearGradient><linearGradient id="tokenBrandedOcta5" x1="12.001" x2="12.001" y1="2" y2="21.989" gradientUnits="userSpaceOnUse"><stop stop-color="#670057"/><stop offset="1" stop-color="#230059"/></linearGradient><linearGradient id="tokenBrandedOcta6" x1="12" x2="12" y1="1.993" y2="22" gradientUnits="userSpaceOnUse"><stop stop-color="#CC1B99"/><stop offset="1" stop-color="#471288"/></linearGradient><linearGradient id="tokenBrandedOcta7" x1="12" x2="12" y1="2.007" y2="21.993" gradientUnits="userSpaceOnUse"><stop stop-color="#670057"/><stop offset="1" stop-color="#230059"/></linearGradient><linearGradient id="tokenBrandedOcta8" x1="12" x2="12" y1="2" y2="22.006" gradientUnits="userSpaceOnUse"><stop stop-color="#670057"/><stop offset="1" stop-color="#230059"/></linearGradient><linearGradient id="tokenBrandedOcta9" x1="14.5" x2="14.5" y1="2" y2="22.006" gradientUnits="userSpaceOnUse"><stop stop-color="#CC1B99"/><stop offset="1" stop-color="#471288"/></linearGradient><linearGradient id="tokenBrandedOctaa" x1="12" x2="12" y1="2" y2="22.006" gradientUnits="userSpaceOnUse"><stop stop-color="#670057"/><stop offset="1" stop-color="#230059"/></linearGradient><linearGradient id="tokenBrandedOctab" x1="14.5" x2="14.5" y1="2" y2="22.006" gradientUnits="userSpaceOnUse"><stop stop-color="#CC1B99"/><stop offset="1" stop-color="#471288"/></linearGradient></defs></g></svg>