<svg xmlns="http://www.w3.org/2000/svg" xmlns:xlink="http://www.w3.org/1999/xlink" width="24" height="24" viewBox="0 0 24 24"><g fill="#4100A8"><path d="M6.979 7.16c.572-.556 1.222-.994 1.967-1.267a4.86 4.86 0 0 1 4.205.445c.445.289.822.639 1.167 1.039l-.633.505a5 5 0 0 0-.75-.805a3.7 3.7 0 0 0-1.112-.65A4.36 4.36 0 0 0 9.24 6.26a4.7 4.7 0 0 0-2.06 1.083c-.017.017-.022.028-.033.011l-.056-.066z"/><path d="m21.162 4.666l-1.678.188c-.178.023-.372.034-.5.173c-.19.205-.011.466.139.622l.444.478l.161.166c.011.011-.122.14-.139.156l-.788.86l-.04.045a11 11 0 0 0-1.244-1.466c-.011-.011-.078-.095-.089-.078l-.11.1l-.106.094c-.011.017.077.106.088.117l.39.467q.402.502.733 1.055c.028.045.033.045-.006.09l-.489.532a7.7 7.7 0 0 0-3.366-3.327a7.26 7.26 0 0 0-5.49-.334A7.7 7.7 0 0 0 4.84 8.171a8.05 8.05 0 0 0-.622 6.211c.011.039.022.056 0 .084l-.066.066l-.123.128l-.255.272l-.84.889l-.9.95c0 .005-.038.033-.032.039l.222.211c.022.028.039.072.066.044l.095-.1l1.15-1.172l.861-.889a7.86 7.86 0 0 0 2.206 3.117a7.35 7.35 0 0 0 10.044-.467a7.7 7.7 0 0 0 2.161-4.377a8.2 8.2 0 0 0-.406-3.834c-.016-.05-.055-.094-.016-.127l.122-.123l.444-.444a8.24 8.24 0 0 1 .484 5.689a9 9 0 0 1-.623 1.666q-.359.709-.794 1.367l.989.628c.417-.74.778-1.5 1.044-2.311a9.15 9.15 0 0 0-.505-7.045l-.156-.289l-.038-.066c-.017-.034 0-.04.033-.061l.139-.145l.483-.478l.494-.489l.723.773c.166.166.46.344.605.06c.067-.138.067-.3.072-.455l.067-1.35l.028-.56c.01-.179.01-.35-.072-.517a.75.75 0 0 0-.761-.39zm-16.328 8.5a6.9 6.9 0 0 1 .855-5.223a6.28 6.28 0 0 1 4.256-2.889c1.822-.3 3.717.278 5.105 1.49a6.5 6.5 0 0 1 1.834 2.655c.017.044.066.122.027.16l-.133.15l-.944 1.023l-1.983 2.133l-1.017 1.095l-.361.389c-.084.089-.261.278-.406.21c-.178-.077-.205-.41-.239-.582l-.26-1.417c-.179-.956-.334-1.922-.534-2.872c-.084-.411-.317-.85-.778-.895c-.311-.033-.606.122-.822.334c-.222.222-.428.45-.64.677l-1.027 1.084l-2.794 2.977l-.134-.488c.04.166-.3-1.25 0 0zm7.033.81c0 .012 0 .006 0 0m5.267-1.016a6.72 6.72 0 0 1-2.922 4.3a6.07 6.07 0 0 1-7.423-.717l-.055-.055l-.017-.011a6.6 6.6 0 0 1-1.522-2.206c-.017-.044-.072-.111-.033-.15l.133-.139l.911-.928l1.967-2.016l1.05-1.067c.21-.211.41-.439.627-.639c.095-.083.25-.2.384-.15c.178.072.211.345.239.506l.255 1.455l.478 2.8c.033.211.067.434.178.617c.189.333.5.544.9.478c.333-.056.583-.29.816-.523l1.056-1.055l3.045-3.072a7.2 7.2 0 0 1-.062 2.572c.19-.9-.094.455 0 0z"/></g></svg>