<svg xmlns="http://www.w3.org/2000/svg" xmlns:xlink="http://www.w3.org/1999/xlink" width="24" height="24" viewBox="0 0 24 24"><g fill="none"><path fill="#FED501" d="M12.5 19.5a8 8 0 1 0 0-16a8 8 0 0 0 0 16"/><path fill="#72B4C4" d="M11.035 5.75c.415.05.485.205.69.415c.125-.47.575-1.105 1.115-.675c.62.5.79 2.63.22 3.195c-.36.36-.91.4-1.33-.16c-.215.175-.07.165-.405.35c-.19.01-.11 0-.205.065c.18.11.335.25.45.44c.135.225.125.47-.065.575c-.35.785-2.085.8-3.05.5c-.98-.315-1.69-.915-1.705-2.15c-.11-.005-.08-.015-.185.01c-.115.025-.06.01-.12.05l.12.04c-.3.11-.535.47-.63.8c-.145.515-.01.8.05 1.255l-.15-.065c.25.7 1.8 1.665 2.43 3.2c.89 2.185.33 3.34.275 4.81c.34.3 1.73.86 2.215.96c.465.09 1.1.14 1.745.135c1.86 0 3.965-.735 5.18-1.955c-.17-.35-.425-.625-.63-1.03a3.6 3.6 0 0 1-.375-1.27c-.13-1.425.875-3.645 1.415-5.065c.29-.77.625-1.555.85-2.38l-.04-.02l-.315-.12a.33.33 0 0 1-.17-.3c0-.44.44-.2.61-.295c.205-.11.1-.635.015-.84c-.1-.26-.22-.425-.46-.53l-.035.25c.09.035.125-.035.2.2c.175.575-1.3.25-1.04-.22c.055-.075-.03-.05.16-.125c.385-.14.425.19.6-.265c-1.3-.385-1.965.43-2.58 1.035c-.26.26-1.815 1.445-2.26 1.54c.21-.91-.005-2.925-1.115-2.915c-.49 0-.62.295-.835.565c-.22-.065-.435-.15-.64-.01"/><path fill="#081517" d="m16.05 7.835l.34-.23c-.41 1.295-2.85 2.665-4.266 3.11c-1.335.42-3.365.7-4.68-.025c-.41-.225-.94-.42-.625-1.01c-.73.725.965 1.205 1.195 1.43c.1.1.715 1.885.805 2.15c.255.75.475 1.61 1.06 1.9c.606.305 2.015.25 2.696.105c1.64-.34 2.44-1.51 3.06-2.87c.31-.675.55-1.44.725-2.24c.224-1.02.224-1.65.285-2.715l1.125-.28a3.1 3.1 0 0 0-1.39.285c.575-.63.66-.475 1.55-.765c-.816-.19-1.73.605-1.88 1.15z"/><path fill="#FEE563" d="M11.42 20.245c.165.22.42.485.62.71c.34.39.04.6.235 1.035l.805.01c.075-.69-.175-.54.3-1.05c.19-.205.42-.46.62-.725a1.36 1.36 0 0 0-.785-.405l-.555.64c-.215-.165-.34-.45-.56-.635c-.265.025-.315.18-.55.285c-.475-.36-.835-.785-1.665-.535c-.6.185-1.035.685-.835 1.395c.285 1.01 1.975 1.25 2.495.085c.22-.5-.2-.38-.65-.445c-.25-.035-.345-.065-.635-.065l-.095.38l.2.065c.135.085.06-.04.1.11c-.55.225-.845-.245-.585-.6c.275-.375.75-.29.99.015z"/><path fill="#0C0C0C" d="m18.55 5.945l.095.365c-.37.14-.75.025-.875-.26c.11-.215.175-.22.455-.215c.07.165-.1.025.055.255c.205-.06.085-.06.265-.15zm-5.985-2.33c.125.25.265.945.245 1.26l-.75.035c-.05-.1-.36-1.04-.39-1.15c-.2-.26-.34-.6-.525-.85c-.225-.3-.4-.44-.65-.66c.25.14.865 1.125 1 1.5c.115.12.315.65.37.85c.09.335.04.455-.32.93c-.16.005-.34-.015-.42.08l-.01.085c.24-.05.365.01.56.065c.215-.27.345-.56.835-.565c1.11-.01 1.325 2 1.115 2.915c.45-.1 2-1.28 2.26-1.54c.615-.6 1.285-1.42 2.58-1.035c-.175.45-.22.125-.6.265c-.19.07-.1.05-.16.125c-.265.475 1.215.795 1.04.22c-.075-.235-.11-.165-.2-.2l.035-.25c.24.1.36.27.46.53c.085.2.19.73-.015.84c-.17.095-.61-.145-.61.3c0 .15.075.235.17.295l.315.125l.035.015c-.22.825-.55 1.61-.85 2.38c-.54 1.42-1.54 3.64-1.41 5.065c.045.48.2.93.375 1.27c.205.405.46.685.63 1.03c.205-.08.12-.03.125-.15c-1.275-1.61-1.12-3.035-.37-5.125c.3-.835.62-1.6.93-2.415c.255-.68.765-1.82.865-2.505c.075-.34.065-.3.375-.42c.4-.16.425-.095.615-.24c-.47.02-.54.12-.915.2c-.045-.9-.225-.835-.55-1.385c.23-.485.57-.46.86-.765c-.45.095-.745.44-1 .66c-.26-.045-.33-.165-.665-.165c-.265-.005-.495.09-.715.15c-.1.095-.565.345-.745.47c-.45.33-1.71 1.55-2.2 1.54c-.04-.75-.19-1.635-.58-2.055c-.48-.525-.59-.145-.7-.625c-.06-.265-.225-.805-.215-1.02c-.18-.2-.475-1.305-.85-1.695z"/><path fill="#FDFDFD" d="M11 13.31c-.005.28.28 1.64.4 1.88c.785.085 1.45-.19 2.03-.445l-.095-2.135c-.36.115-.675.3-1.065.435c-.465.16-.755.21-1.275.265z"/><path fill="#FEE666" d="M7.93 20.15c-.22.375-.91-.11-.6-.605c.115-.175.38-.25.645-.185c.23.055.31.21.43.36c.575-.18.89-.28.05-.97c-.235-.2-.515-.275-.935-.245c-.72.06-1.08.625-1.01 1.325c.135 1.48 2.555 1.54 2.49.27a4 4 0 0 0-.81-.34c-.4-.135-.545-.215-.58.275l.32.12z"/><path fill="#FEE563" d="M5.7 17.505c.35.625-.115 1.29-.51.95c-.17-.14-.17-.51-.07-.76c.115-.275.315-.25.58-.19m-.635-.86c-1.26.88-.16 3.45.86 2.73c1.235-.875.255-3.515-.86-2.73"/><path fill="#FEE666" d="M17.42 18.35c0 .41.13.45.135.845l-1.055-.22c.015.275.43 1.86.53 2.025c.215-.025.565-.3.645-.4c-.045-.25-.165-.3-.13-.57l.955-.06c.005-.355-.125-.7-.19-1.05c-.035-.2-.075-.28-.11-.475L18.08 18c-.13.06-.53.26-.66.35"/><path fill="#FCFDFC" d="m13.48 12.495l.05 2.165c.36-.1.985-.79 1.2-1.09c.78-1.1.785-1.285.76-2.285c-.235.1-.67.45-.955.62c-.3.18-.72.465-1.05.59z"/><path fill="#FEE666" d="m18.82 17.465l.125.3c.2.395.51.69.35.95c-.22-.07-.2-.21-.34-.55l-.23-.535c-.036-.055-.036-.05-.076-.09c-.245.05-.505.235-.65.335c.126.34.34.765.516 1.125c.22.47.55.705 1.075.27c.724-.6.355-1.27-.09-2.02c-.035-.055-.04-.075-.076-.115c-.064-.085.02.01-.05-.06c-.05-.055-.03-.04-.08-.075c-.15.08-.32.325-.474.465"/><path fill="#FDFDFD" d="M10.81 11.81c-.08.375.095.94.125 1.325c.885-.05 1.715-.36 2.375-.69l-.16-1.33c-.29.045-.75.25-1.1.345c-.39.105-.765.18-1.2.2zm2.595-.535l.07 1.075c.36-.125.74-.375 1.05-.565c.345-.2.67-.49.95-.635l-.03-.505c-.185-.17-.16-.335-.465-.345c-.315-.005-1.255.505-1.555.655z"/><path fill="#B70119" d="m9.48 7.75l-.095.105c-.115-.035-.115-.05-.28-.075c-.225.415.07.495-.435.975c-.31.3-.75.155-1.015.34c-.185-.03-.245-.05-.375-.15a5 5 0 0 1-.29-.235c-.125.17-.07.2-.07.24c.435.31.32.32.845.53c-.45.13.375.5.6.635c.15.095-.04.035.165.135c.31.15 1.19.165 1.55.12c.69-.09.435.155.96-.25c.15-.08.29-.13.465-.165c.19-.1.2-.35.065-.575a1.3 1.3 0 0 0-.45-.44c.1-.065.015-.055.205-.07l-.31-.005c-.035-.065-.15.08-.025-.125c-.45-.22-.58-.615-.6-1.21c-.02-.53.05-1.15.35-1.46c-.085 0-.075.025-.06-.05c-.235.24-.32.76-.35 1.135c-.05.525.11.88.115 1.35c-.43-.16-.685-.65-.965-.75z"/><path fill="#FDFDFD" d="M11.285 15.2c-.13-.615-.355-1.225-.465-1.89c-.565.01-.905-.075-1.425-.155c.115.49.3 1.02.45 1.495c.105.34.14.4.5.49c.285.08.625.095.94.065z"/><path fill="#F8F8F7" d="M10.74 6.07c-.3.31-.37.93-.35 1.46c.015.6.15.99.6 1.21c.97.055.54-.82.56-1.6c.01-.415.185-.75-.04-1.035c-.265-.335-.53-.27-.77-.035"/><path fill="#171403" d="M5.33 8.105c.215.06.37.115.51.245c-.15.29-.32.17-.445.995l-.655-.08c-.365-.015-.955-.035-1.24.09c.36.12 1.23-.115 1.475.12c.585-.01.35.425.64.9c.685 1.15 2.65 2.23 2.935 4.8c.085.74.075 2.165-.125 2.86c-.03.265-.1.3.115.37c.055-1.47.615-2.625-.275-4.81c-.625-1.535-2.18-2.5-2.435-3.2c-.62-.465-.3-2.115.615-2.025c.06-.045 0-.03.12-.055c.105-.025.075-.015.185-.01c-.03-.205-.185-.145-.4-.13c-.4.08-.3.025-.62-.105a4 4 0 0 0-.55-.165c-.19-.02-.4-.035-.61-.035l-.45.05c-.09.03-.075.03-.125.065c.45-.015 1.02-.035 1.335.12"/><path fill="#FDFDFD" d="M9.11 11.78c-.02.275.125.95.25 1.16c.285.2 1 .25 1.4.195l-.21-1.45c-.27.02-.535.025-.8.025c-.13 0-.275-.02-.395-.02c-.26-.005-.19-.08-.245.09"/><path fill="#990516" d="M6.345 8.175c.22-.015.375-.075.4.13c.02 1.235.725 1.835 1.71 2.15c.965.3 2.7.285 3.05-.5c-2.51.46-.71.6-4-.7c-.16-.09-.66-.345-.515-.545c-.015-.16-.035-.35-.035-.505c-.015-.67.87-1.06 1.625-.83c.23.07.35.115.46.29c.015.025.035.05.065.115c.165.025.165.04.28.075l.095-.1c-.6-.75-2.575-.835-2.71.375l-.425.05z"/><path fill="#FEE563" d="M15.005 19.325c-.06.525.35 1.69.48 2.175a1.9 1.9 0 0 0 1.015-.305c.02-.3-.25-2-.41-2.195c-.275.025-.35.085-.565.155c-.195.07-.365.12-.52.17"/><path fill="#CDCDCB" d="M15.615 10.985c.545-.265.53-.61.66-1.35c.085-.49.23-1.265.215-1.755c-.15.4-.8.98-.975 1.17c-.2.225-.075.275.005.9c.045.35.07.685.1 1.035zm-2.21.29l.02-.32c.3-.15 1.24-.66 1.55-.65c.31.005.285.17.47.34l-.22-1.29c-.28.115-1.24.915-1.97 1.11c.03.23.035.66.15.81m-2.595.535l.04-.15c.435-.02.81-.095 1.2-.2c.35-.095.815-.3 1.1-.345l-.105-.52c-.32.06-.74.26-1.11.365c-.355.1-.85.25-1.22.275c0 .095.005.2.02.29z"/><path fill="#17191B" d="m11.115 5.7l.01-.09c-.215.12-.31.215-.445.405c-.015.08-.03.05.06.05c.24-.23.505-.295.77.04c.05.07.53 2.7-.52 2.635c-.125.2-.01.06.025.125l.31.005c.335-.18.19-.17.4-.345c.425.56.975.52 1.335.16c.57-.565.4-2.69-.22-3.195c-.54-.43-.99.2-1.115.675c-.205-.21-.275-.365-.69-.415z"/><path fill="#CF2133" d="M6.99 8.71c.055.05.22.185.29.235c.13.1.19.12.375.15c.27-.185.705-.04 1.015-.34c.505-.48.21-.56.435-.975c-.03-.07-.05-.09-.065-.115c-.105-.175-.23-.22-.46-.29c-.755-.23-1.64.16-1.625.83c0 .155.02.345.035.505"/><path fill="#E04F65" d="M7.865 7.56c-.42.09-.81.315-.75.84c.02.17.22.37.325.43c.18.105.55.06.705 0c.065-.025.175-.09.25-.13c.26-.15.505-.335.51-.685c0-.43-.62-.55-1.04-.455"/><path fill="#ABD3D6" d="m5.83 10.4l.15.06c-.055-.455-.19-.74-.045-1.25c.1-.335.335-.695.63-.805l-.12-.035c-.915-.09-1.235 1.56-.615 2.025z"/><path fill="#CDCDCB" d="M9.11 11.78c.05-.17-.015-.095.25-.09c.115 0 .26.015.385.02c.27 0 .535 0 .8-.03l-.04-.375l-1.5.055c.015.165.015.3.105.42"/><path fill="#FAFAFA" d="M13.225 8.02c.14-.65.07-1.59-.225-2.14c-.13-.24-.37-.585-.77-.375c-.535.285-.77 2.235-.4 2.96c.225.42 1.15.7 1.4-.45z"/><path fill="#69AD52" d="M12.265 6.53c-.29.23-.175 1.48.3 1.12c.26-.205.18-1.505-.3-1.12M11.18 8.02c.185-.19.19-.34.185-.66c0-.355-.13-.55-.265-.585c-.15-.03-.305.145-.32.53c-.01.365-.005.685.4.715"/><path fill="#F8F8F7" d="m9.805 14.85l-.5-1.52c-.09-.295-.07-.255-.38-.325c.125.625.485 1.54.88 1.845"/><path fill="#FAFAFA" d="M8.864 11.74a.14.14 0 0 0-.045-.035l-.085-.065a.4.4 0 0 0-.085-.035c-.09-.02-.104-.03-.16.05c0 .21.125.47.2.69c.136.385.05.455.466.56z"/><path fill="#ED8F9C" d="M7.47 7.84s-.555.885.425.685c.55-.115.68-.325.69-.66c-.5-.215-.655-.02-1.115-.025"/><path fill="#EFB64B" d="M18.55 5.945c-.185.085-.065.085-.27.15c-.15-.235.015-.1-.055-.26c-.275 0-.35 0-.455.215c.12.285.505.4.875.26l-.1-.365z"/><path fill="#082429" d="M12.61 16.39c-.15-.12-.695.04-1.27.035c-.54 0-.765-.11-1.225-.25c.05.14-.105.095.465.26c.58.17 1.56.16 2.03-.045"/><path fill="#D9AC64" d="M18.775 7.465c-.05-.15.01-.185.06-.31c-.885-.015.205 1.02.225.18c-.22.08-.115.09-.285.13"/><path fill="#CDCDCB" d="M8.49 11.65c.05-.075.07-.065.16-.045l.085.035l.09.065l.04.035l-.075-.415l-.465-.09zm7.135-.525l-.01.645l.35-.855c-.135.07-.21.14-.34.21"/><path fill="#060906" d="M11 7.245c-.095.245-.11.415.185.45c.085-.27.135-.405-.19-.45z"/><path fill="#0C0C0C" d="M12.46 6.87c-.315.05-.29.31-.07.465c.195-.125.2-.25.07-.465"/></g></svg>