<svg xmlns="http://www.w3.org/2000/svg" xmlns:xlink="http://www.w3.org/1999/xlink" width="24" height="24" viewBox="0 0 24 24"><g fill="none"><path fill="#0A01CC" d="M3.948 12.068c-.163-1.347.431-3.015.747-3.684l.832.853a7 7 0 0 0-.506 3.131z"/><path fill="#000" d="m4.685 8.337l.878.895l-.01.015a7 7 0 0 0-.5 3.116v.047l-1.137-.315v-.027c-.084-.679.026-1.436.195-2.105c.168-.668.4-1.253.558-1.59l.02-.036zm.02.105A9 9 0 0 0 4.17 9.98a6 6 0 0 0-.195 2.063l1.01.284c-.052-.542-.01-1.842.506-3.084l-.79-.8z"/><path fill="#1BAF01" d="M20.053 11.932c.163 1.347-.432 3.015-.748 3.684l-.831-.853a7 7 0 0 0 .505-3.131z"/><path fill="#000" d="m19.316 15.669l-.88-.895l.011-.021a7 7 0 0 0 .5-3.116v-.048l1.137.316v.027c.084.679-.026 1.436-.194 2.105a9 9 0 0 1-.559 1.59l-.02.041zm-.021-.106c.158-.342.373-.9.536-1.542c.164-.658.269-1.4.195-2.063l-1.01-.284c.052.542.01 1.842-.505 3.084l.789.8z"/><path fill="url(#tokenBrandedOmax0)" d="M4.548 5.037H2.953l6.705 6.958l-2.447 2.542l-2.842-2.926L2.042 14l5.169 5.3L12 14.405l3.641 3.774l1.684.132L12 12.784l-4.79 4.974l-3.63-3.763l.789-.821l2.842 2.994l4.063-4.173z"/><path fill="#000" d="M2.879 5h1.684l6.753 7l-4.105 4.21l-2.843-2.99l-.747.775l3.59 3.715L12 12.742l5.379 5.59l-1.753-.122l-3.631-3.758l-4.784 4.895L2 14l2.368-2.432l2.843 2.921L9.616 12L2.879 5.01zm.147.068L9.7 11.995l-2.49 2.584l-2.842-2.927L2.084 14l5.127 5.258L12 14.363l3.658 3.79l1.595.115L12 12.831L7.21 17.8l-3.673-3.805l.837-.863l2.842 2.989L11.226 12l-6.69-6.932z"/><path fill="url(#tokenBrandedOmax1)" d="M19.453 18.963h1.594l-6.705-6.958l2.447-2.542l2.842 2.926L21.959 10L16.79 4.7L12 9.595L8.359 5.82l-1.684-.132L12 11.216l4.79-4.974l3.63 3.763l-.789.821l-2.842-2.994l-4.063 4.173z"/><path fill="#000" d="M21.121 19h-1.684l-6.753-7l4.106-4.21l2.842 2.989l.747-.774l-3.59-3.716L12 11.258L6.647 5.705l1.727.084l3.631 3.758l4.785-4.894L22 10l-2.368 2.432L16.79 9.51L14.384 12l6.737 6.99zm-.147-.069L14.3 12.006l2.49-2.584l2.842 2.926L21.916 10L16.79 4.742L12 9.637l-3.658-3.79l-1.595-.115L12 11.168L16.79 6.2l3.673 3.805l-.837.863l-2.842-2.99L12.774 12l6.69 6.926h1.51z"/><path fill="url(#tokenBrandedOmax2)" d="M7.21 17.753V19.3L12 14.405l3.658 3.795l1.674.105L12 12.79l-4.79 4.968z"/><path fill="#000" d="m12 12.742l5.38 5.595l-1.775-.158L12 14.458l-4.79 4.895V17.72L12 12.737zM7.21 17.79v1.464L12 14.368l3.71 3.827l1.6.136l-5.315-5.494z"/><path fill="url(#tokenBrandedOmax3)" d="M16.79 6.247V4.7L12 9.595L8.358 5.82l-1.69-.132L12 11.216l4.79-4.974z"/><path fill="#000" d="M12 11.258L6.654 5.71l1.721.08l3.632 3.757l4.784-4.894v1.626zm4.79-5.053V4.737L12 9.632l-3.657-3.79l-1.595-.116L12 11.168z"/><path fill="#0A01CC" d="M12.169 20.384a8.2 8.2 0 0 1-4.632-1.373l.816-.822a7.37 7.37 0 0 0 3.721 1.043c1.868-.063 2.979-.685 3.563-1.043l1.684.111c-.768.784-2.61 1.974-5.158 2.084z"/><path fill="#000" d="m8.347 18.153l.021.01a7.34 7.34 0 0 0 3.705 1.037a6.86 6.86 0 0 0 3.548-1.037l1.758.174c-.774.784-2.658 1.968-5.21 2.079c-2.043.09-3.948-.884-4.648-1.38l-.032-.02zm7.39.02a7.26 7.26 0 0 1-3.664 1.09c-.642.026-2.273-.152-3.715-1.031l-.774.773c.716.5 2.584 1.432 4.579 1.348c2.484-.106 4.326-1.253 5.116-2.027z"/><path fill="#1BAF01" d="M11.832 3.616a8.2 8.2 0 0 1 4.631 1.373l-.816.821a7.37 7.37 0 0 0-3.72-1.042c-1.869.063-3.106.721-3.685 1.085l-1.526-.127a7.85 7.85 0 0 1 5.116-2.105z"/><path fill="#000" d="m15.653 5.847l-.021-.01A7.34 7.34 0 0 0 11.926 4.8c-1.863.063-2.973.684-3.557 1.042L6.647 5.71l.011-.031c.774-.79 2.621-1.984 5.174-2.095c2.042-.09 3.947.884 4.647 1.38l.032.02zm-7.39-.015a7.24 7.24 0 0 1 3.663-1.095c.637-.027 2.274.152 3.716 1.031l.774-.773a8.2 8.2 0 0 0-4.58-1.348a8.05 8.05 0 0 0-5.104 2.069l1.526.116z"/><defs><linearGradient id="tokenBrandedOmax0" x1="5.554" x2="7.405" y1="4.38" y2="15.4" gradientUnits="userSpaceOnUse"><stop stop-color="#EB1FF4"/><stop offset="1" stop-color="#02D2DF"/></linearGradient><linearGradient id="tokenBrandedOmax1" x1="11.993" x2="11.993" y1="20.422" y2="10.794" gradientUnits="userSpaceOnUse"><stop stop-color="#FB8A07"/><stop offset="1" stop-color="#DFDF01"/></linearGradient><linearGradient id="tokenBrandedOmax2" x1="20.471" x2="2.501" y1="17.426" y2="17.895" gradientUnits="userSpaceOnUse"><stop stop-color="#0A02C9"/><stop offset="1" stop-color="#02D2DF"/></linearGradient><linearGradient id="tokenBrandedOmax3" x1="22" x2="3.736" y1="5.429" y2="5.978" gradientUnits="userSpaceOnUse"><stop stop-color="#E6E101"/><stop offset="1" stop-color="#1BAF01"/></linearGradient></defs></g></svg>