<svg xmlns="http://www.w3.org/2000/svg" xmlns:xlink="http://www.w3.org/1999/xlink" width="24" height="24" viewBox="0 0 24 24"><g fill="none"><path fill="url(#tokenBrandedOrn0)" d="M10.255 3.387c-2.351 0-5.144 1.593-6.18 3.018c1.96-1.257 5.092-1.78 6.055-1.648c3.904.627 5.212 4.127 5.409 5.922c1.49.587 4.438.765 2.858-2.355c-1.97-3.889-5.258-4.937-8.142-4.937"/><path fill="url(#tokenBrandedOrn1)" d="M8.805 17.918c3.752 0 6.794-2.999 6.794-6.698s-3.042-6.697-6.794-6.697s-6.793 2.998-6.793 6.697c0 3.7 3.042 6.698 6.793 6.698"/><path fill="#25253B" d="M10.338 17.168a4.88 4.88 0 1 0 0-9.761a4.88 4.88 0 0 0 0 9.76"/><path fill="url(#tokenBrandedOrn2)" d="M21.394 10.736c.922-.647.602-1.953.273-2.395c-.508-.682-1.218-.765-1.505-.733c-2.273.257-4.131 2.78-4.856 4.018l2.85 1.975c.133-.187.484-.747 1.051-1.398c.688-.789 1.61-1.062 2.187-1.467"/><path fill="url(#tokenBrandedOrn3)" d="M19.168 11.18c.489-1.015-.372-1.915-.875-2.14c-.776-.348-1.366-.1-1.542 0c-1.858 1.334-2.378 4.537-2.405 5.971l3.786.479c.025-.229.08-.919.097-1.85c.018-.93.705-1.975.939-2.46"/><path fill="url(#tokenBrandedOrn4)" d="M10.367 20.613c-5.195 0-8.597-4.694-8.355-9.187c1.677 5.611 5.765 6.79 8.355 6.185c2.071-.483 3.931-2.576 4.659-3.599c.297-.418 1.403-.574 2.322-.072c.918.5 1.138 1.602.919 2.011c-2.195 4.099-5.92 4.662-7.9 4.662"/><path fill="url(#tokenBrandedOrn5)" d="M18.663 6.832a1.723 1.723 0 1 0 0-3.445a1.723 1.723 0 0 0 0 3.445"/><defs><linearGradient id="tokenBrandedOrn0" x1="3.863" x2="23.011" y1="7.389" y2="11.547" gradientUnits="userSpaceOnUse"><stop stop-color="#5D86BC"/><stop offset=".614" stop-color="#6CC3D7"/></linearGradient><linearGradient id="tokenBrandedOrn1" x1="3.069" x2="20.34" y1="8.857" y2="15.984" gradientUnits="userSpaceOnUse"><stop offset=".226" stop-color="#94D0DA"/><stop offset="1" stop-color="#3F65AE"/></linearGradient><linearGradient id="tokenBrandedOrn2" x1="17.476" x2="8.613" y1="3.11" y2="19.593" gradientUnits="userSpaceOnUse"><stop stop-color="#F57240"/><stop offset="1" stop-color="#FBE18C"/></linearGradient><linearGradient id="tokenBrandedOrn3" x1="3.771" x2="18.234" y1="13.732" y2="3.025" gradientUnits="userSpaceOnUse"><stop offset=".212" stop-color="#583D90"/><stop offset="1" stop-color="#DC719B"/></linearGradient><linearGradient id="tokenBrandedOrn4" x1="1.86" x2="21.604" y1="4.279" y2="8.496" gradientUnits="userSpaceOnUse"><stop stop-color="#4FA2C5"/><stop offset="1" stop-color="#FD7813"/></linearGradient><linearGradient id="tokenBrandedOrn5" x1="19.668" x2="17.632" y1="3.964" y2="6.34" gradientUnits="userSpaceOnUse"><stop stop-color="#B1599B"/><stop offset="1" stop-color="#5B418B"/></linearGradient></defs></g></svg>