<svg xmlns="http://www.w3.org/2000/svg" xmlns:xlink="http://www.w3.org/1999/xlink" width="24" height="24" viewBox="0 0 24 24"><g fill="none"><path fill="#590577" d="m11.36 9.241l.982-.294l.294.988l-.988.288z"/><path fill="#8D5F90" d="M11.612 9.377L12.2 9.2l.176.589l-.588.176z"/><path fill="#590577" d="m13.288 9.835l.577-.17l.17.576l-.576.17z"/><path fill="#8D5F90" d="m13.5 9.953l.252-.077l.077.253l-.253.077z"/><path fill="#590577" fill-rule="evenodd" d="m12.189 13.024l-.577.164l.177.577l.57-.17zm-.112.206l-.253.076l.076.253l.253-.076zm-.912-2.577l-1.259.37l.37 1.26l1.26-.371zm-.176.335l-.748.218l.218.741l.741-.218l-.217-.74zm-.624 2.077l-.953.282l.282.953l.953-.282zm-.141.253l-.559.17l.165.56l.559-.166z" clip-rule="evenodd"/><path fill="#590577" d="m12.63 11.747l.73-.211l.211.723l-.73.218z"/><path fill="#8D5F90" d="m12.894 11.894l.318-.094l.094.318l-.318.094z"/><path fill="#590080" fill-rule="evenodd" d="M12 22a10 10 0 1 0 0-20a10 10 0 0 0 0 20m0-1.177a8.824 8.824 0 1 0-5.141-1.652a.224.224 0 0 1 .106-.336l.153-1.512l2.805-1.94l.089.117l-2.747 1.906l-.147 1.43a.224.224 0 1 1-.13.429A8.8 8.8 0 0 0 12 20.823m4.576-16c-.205.4-1.111 1.218-3.058 1.324l-1.9 2.141l.182.177l1.653-1.941c.335.34.894.882 1.47 1.405l-.623.718l.176.159l.618-.73c.5.442 1 .842 1.365 1.048l-1.941 2.564l.188.112L16.7 9.235c.018-.059.035-.288-.047-.706c-.106-.529-.165-1.958.835-2.905c-.1-.612-.647-.789-.912-.8m-7.7 7.471l.13.082l-1.759 2.695v1.064a.224.224 0 1 1-.147 0v-1.112zm-1.705 4.13a.08.08 0 0 0 .067-.013a.08.08 0 0 0 .03-.061a.076.076 0 0 0-.062-.075a.076.076 0 0 0-.09.075a.08.08 0 0 0 .055.073m-.053 2.623a.076.076 0 1 1-.147.042a.076.076 0 0 1 .147-.042m5.317-4.418l-1.976 2.342l-1.918 1.182v.035a.224.224 0 1 1-.07-.165l1.888-1.17l1.964-2.324zm-4.117 3.636a.08.08 0 0 0 .067-.013a.077.077 0 1 0-.067.013" clip-rule="evenodd"/></g></svg>