<svg xmlns="http://www.w3.org/2000/svg" xmlns:xlink="http://www.w3.org/1999/xlink" width="24" height="24" viewBox="0 0 24 24"><g fill="none"><path fill="url(#tokenBrandedOsmosis0)" d="M12.689 5.499A7.37 7.37 0 0 0 7.406 6.61l-.054.059c.59-.366 1.436-.688 1.436-.688c-2.193 1.312-2.87 2.8-2.87 2.8c.852-1.7 3.353-2.895 5.317-2.977c1.965-.083 3.248.512 4.824 1.806c1.564 1.312 2.511 3.982 2.418 6.1c-.082 2.118-1.165 3.83-1.165 3.83a10.2 10.2 0 0 0 1.477-2.453c.059-.219.105-.44.134-.682c.677-4.236-2.11-8.224-6.234-8.907"/><path fill="#5E12A0" d="M20.481 5.917c-.193-.741-.8-1.477-1.894-2.295c-.883-.664-1.823-1.035-2.559-1.035c-.153 0-.288.012-.424.041a1.24 1.24 0 0 0-.823.695c-.23.446-.282 1.046-.135 1.41c.06.106.117.248.206.371c-.718.448-1.124.571-1.176.59a8.07 8.07 0 0 1 4.393 3.716l.013-.17c.041-.459.175-.988.37-1.53c.188.06.376.083.564.083c.5 0 .935-.206 1.207-.589c.27-.37.376-.87.258-1.294z"/><path fill="url(#tokenBrandedOsmosis9)" d="M18.529 7.305c1.235.352 1.736-.624 1.571-1.277c-.177-.659-.74-1.323-1.747-2.077c-1-.752-2.012-1.058-2.665-.917c-.647.135-.835 1.153-.677 1.54c.071.154.218.378.424.632c-.26.176-.507.316-.706.446a8 8 0 0 1 3.141 2.576q.138-.513.353-1q.157.021.306.077"/><path fill="url(#tokenBrandedOsmosisa)" d="M11.482 20.953c4.177 0 7.565-3.482 7.565-7.783c0-4.295-3.388-7.782-7.565-7.782c-4.176 0-7.564 3.482-7.564 7.782c0 4.295 3.388 7.783 7.564 7.783"/><path fill="#A98698" d="M19.476 5.389A5 5 0 0 0 16.54 3.74c-.812-.193-.594-.664.394-.57a2.4 2.4 0 0 0-1.248-.135c-.646.134-.834 1.153-.676 1.54c.071.154.218.377.424.631q-.457.309-.942.57a6.2 6.2 0 0 1 1.413.888c-.76-.664-.595-.97.447-1.724c.323-.235.917-.211 1.47.082c.559.296 1.207 1.03 1.207 1.03l-.618 1.23l.117.04c.393.112.706.083.947-.017c.288-.177 1.03-.793 0-1.917"/><path fill="#5E12A0" d="M16.53 4.412a7.5 7.5 0 0 1 2.3 1.647a7.4 7.4 0 0 0-.978 2.124l.295.417c.1-.347.265-.86.477-1.377a.7.7 0 0 0 .193.018c.181.01.36-.047.501-.16a.58.58 0 0 0 .217-.511q.001-.399-.623-1a9.6 9.6 0 0 0-1.112-.905c-1.165-.795-1.976-1.019-2.341-.648c-.242.254-.217.558-.135.782c-.43.295-.8.507-1.042.648c.165.052.312.117.471.188a12.4 12.4 0 0 0 1.776-1.223m2.558 1.992a.35.35 0 0 1 .053.177c0 .129-.041.17-.07.193a.47.47 0 0 1-.254.072c.077-.165.177-.306.27-.442M15.74 4.328c.042-.04.153-.068.33-.04c-.136.112-.27.205-.412.305c-.012-.099 0-.195.082-.265"/><path fill="url(#tokenBrandedOsmosis1)" d="M11.482 20.953c4.177 0 7.565-3.482 7.565-7.782c0-4.295-3.388-7.642-7.565-7.642c-4.176 0-7.564 3.341-7.564 7.642c0 4.294 3.388 7.782 7.564 7.782"/><path fill="#A98698" d="M11.43 20c-4.13-.676-6.93-4.67-6.253-8.918a7.76 7.76 0 0 1 2.517-4.636a7.77 7.77 0 0 0-3.682 5.484c-.665 4.247 2.135 8.24 6.253 8.923c2.294.394 4.517-.347 6.154-1.794a7.4 7.4 0 0 1-4.99.942"/><path fill="url(#tokenBrandedOsmosis2)" d="M18.469 13.1c0 4.076-3.159 7.394-7.053 7.394c-3.888 0-7.064-3.32-7.064-7.394z"/><path fill="url(#tokenBrandedOsmosis3)" d="M17.91 13.1c0 3.98-2.998 7.233-6.77 7.394h.277c3.894 0 7.052-3.32 7.052-7.394z"/><path fill="url(#tokenBrandedOsmosis4)" d="M4.458 13.1c0 4.076 3.047 7.394 7.011 7.394c.177 0 .337 0 .501-.018c-3.724-.277-6.67-3.477-6.67-7.376z"/><path fill="url(#tokenBrandedOsmosis5)" d="M18.469 13.17c0-.852-1.411-1.335-3.282-1.506c-1.354-.112-2.723.03-4.295.53c-1.352.417-2.582.353-3.47.233c-1.982-.233-3.07-.263-3.07.742c0 1.448 2.823 3.26 7.046 2.63c2.142-.318 3.241-.976 4.507-1.417c1.37-.47 2.564-.46 2.564-1.212"/><path fill="#fff" d="M14.06 9.648a1.176 1.176 0 1 0 0-2.353a1.176 1.176 0 0 0 0 2.353m1.764 1.176a.59.59 0 1 0 0-1.179a.59.59 0 0 0 0 1.179"/><path fill="url(#tokenBrandedOsmosis6)" d="M17.664 7.406h-.03c-.076-.012-.135-.1-.117-.195c.12-.47.346-.91.659-1.282c.059-.07.164-.07.218-.011c.07.059.07.165.018.222c-.018.014-.489.584-.601 1.142a.15.15 0 0 1-.147.118z"/><path fill="#fff" d="M10.983 18.976a.385.385 0 0 0 .376-.389a.384.384 0 0 0-.376-.394a.385.385 0 0 0-.356.245a.39.39 0 0 0 .355.538"/><path fill="#fff" d="M10.764 18.836a.406.406 0 0 1 0-.554l.082-.07a.3.3 0 0 0-.135.083a.405.405 0 0 0 0 .558a.384.384 0 0 0 .459.065a.37.37 0 0 1-.412-.082zm.352-.366a.08.08 0 0 0 .076-.05a.082.082 0 0 0-.06-.113a.082.082 0 0 0-.098.08c0 .05.036.09.082.09zm1.842.313a.39.39 0 0 0 .376-.395a.384.384 0 0 0-.376-.387a.392.392 0 0 0 0 .782"/><path fill="#fff" d="M12.74 18.647a.406.406 0 0 1 0-.566l.083-.064a.27.27 0 0 0-.134.082a.406.406 0 0 0 0 .553a.37.37 0 0 0 .458.072a.37.37 0 0 1-.412-.083zm.354-.371c.04 0 .077-.036.077-.082a.08.08 0 0 0-.022-.057a.08.08 0 0 0-.055-.027a.08.08 0 0 0-.083.082c0 .048.036.084.083.084m-1.112 1.412a.29.29 0 0 0 .283-.295a.285.285 0 0 0-.283-.293a.27.27 0 0 0-.202.089a.28.28 0 0 0-.08.206a.29.29 0 0 0 .282.293"/><path fill="url(#tokenBrandedOsmosis7)" d="M11.823 19.576a.31.31 0 0 1 0-.418c.01-.018.034-.03.052-.04a.3.3 0 0 0-.1.064a.31.31 0 0 0 0 .417a.274.274 0 0 0 .352.041a.29.29 0 0 1-.311-.064z"/><path fill="#fff" d="M13.729 19.475a.29.29 0 0 0 .283-.294a.293.293 0 0 0-.283-.293a.287.287 0 0 0-.288.293a.29.29 0 0 0 .288.294"/><path fill="#fff" d="M13.564 19.365a.315.315 0 0 1 0-.412a.3.3 0 0 1 .059-.047a.3.3 0 0 0-.1.069a.316.316 0 0 0 0 .412a.275.275 0 0 0 .353.048a.29.29 0 0 1-.312-.07m.26-.278a.06.06 0 0 0 .035-.1a.06.06 0 0 0-.043-.018a.06.06 0 0 0-.047.06c0 .035.024.058.054.058m-4.455-.252a.636.636 0 0 0 .625-.641a.635.635 0 0 0-.625-.641a.64.64 0 0 0-.623.646a.63.63 0 0 0 .623.636"/><path fill="#fff" d="M9.016 18.601a.645.645 0 0 1 0-.906a.6.6 0 0 1 .136-.1c-.082.029-.147.088-.218.142a.645.645 0 0 0 0 .906a.61.61 0 0 0 .764.1a.59.59 0 0 1-.682-.142m.571-.6a.137.137 0 0 0 .136-.14a.13.13 0 0 0-.039-.098a.13.13 0 0 0-.097-.039a.13.13 0 0 0-.126.084a.1.1 0 0 0-.01.052c0 .082.06.142.136.142m5.34-.735a.637.637 0 0 0 .625-.648a.623.623 0 0 0-.624-.636a.63.63 0 0 0-.618.643a.63.63 0 0 0 .618.64"/><path fill="url(#tokenBrandedOsmosis8)" d="M14.565 17.023a.646.646 0 0 1 0-.9a.6.6 0 0 1 .135-.1a.7.7 0 0 0-.217.14a.645.645 0 0 0 0 .906a.616.616 0 0 0 .764.095a.59.59 0 0 1-.682-.141"/><path fill="#fff" d="M15.147 16.43c.077 0 .136-.06.136-.142a.14.14 0 0 0-.039-.1a.14.14 0 0 0-.097-.041a.135.135 0 0 0-.136.14a.14.14 0 0 0 .038.1a.14.14 0 0 0 .098.042"/><path fill="#5E12A0" d="M11.482 4.94c-4.424 0-8.012 3.689-8.012 8.236s3.588 8.236 8.012 8.236c4.423 0 7.87-3.689 7.87-8.236s-3.459-8.236-7.87-8.236m0 15.884c-4.188 0-7.425-3.353-7.425-7.648S7.3 5.529 11.482 5.529c4.176 0 7.283 3.354 7.283 7.647c0 4.295-3.119 7.648-7.283 7.648"/><path fill="#fff" d="M18.941 3.146c1.119.842 1.866 1.683 2.107 2.612c.176.618.011 1.295-.347 1.794a2.03 2.03 0 0 1-1.848.824c-.029.105-.059.206-.077.3a9.15 9.15 0 0 1 1.166 4.5c0 4.848-3.683 8.824-8.46 8.824c-4.764 0-8.6-3.965-8.6-8.824c0-4.86 3.836-8.822 8.6-8.822c.894 0 1.753.141 2.554.4a2.65 2.65 0 0 1 .223-1.694a1.83 1.83 0 0 1 1.236-1.001a2.3 2.3 0 0 1 .53-.059c.922 0 1.976.453 2.91 1.147zm-4.159.177c-.229.446-.281 1.046-.134 1.411q.093.192.206.37q-.303.182-.613.348a7.7 7.7 0 0 0-2.764-.512c-4.418 0-8.006 3.688-8.006 8.236c0 4.547 3.588 8.235 8.012 8.235c4.423 0 7.87-3.688 7.87-8.235c0-1.617-.435-3.13-1.2-4.4c.065-.336.17-.7.294-1.065c.195.06.383.083.571.083c.5 0 .935-.206 1.206-.59c.27-.37.377-.87.259-1.293c-.194-.735-.8-1.47-1.895-2.294c-.882-.653-1.822-1.03-2.558-1.03a2 2 0 0 0-.424.042a1.24 1.24 0 0 0-.824.694"/><defs><linearGradient id="tokenBrandedOsmosis0" x1="18.039" x2="7.815" y1="6.094" y2="13.799" gradientUnits="userSpaceOnUse"><stop offset=".29" stop-color="#fff"/><stop offset=".78" stop-color="#fff" stop-opacity="0"/></linearGradient><linearGradient id="tokenBrandedOsmosis1" x1="10.539" x2="14.086" y1="21.855" y2="2.053" gradientUnits="userSpaceOnUse"><stop stop-color="#81FFFF"/><stop offset=".62" stop-color="#fff" stop-opacity="0"/></linearGradient><linearGradient id="tokenBrandedOsmosis2" x1="2.888" x2="21.11" y1="11.991" y2="11.991" gradientUnits="userSpaceOnUse"><stop stop-color="#0002E9"/><stop offset="1" stop-color="#FF00C7"/></linearGradient><linearGradient id="tokenBrandedOsmosis3" x1="22.771" x2="1.343" y1="3.748" y2="21.522" gradientUnits="userSpaceOnUse"><stop offset=".29" stop-color="#fff"/><stop offset=".78" stop-color="#fff" stop-opacity="0"/></linearGradient><linearGradient id="tokenBrandedOsmosis4" x1="2.468" x2="21.132" y1="11.991" y2="11.991" gradientUnits="userSpaceOnUse"><stop stop-color="#000292"/><stop offset="1" stop-color="#7D00C7"/></linearGradient><linearGradient id="tokenBrandedOsmosis5" x1="2.903" x2="21.118" y1="12.017" y2="12.017" gradientUnits="userSpaceOnUse"><stop stop-color="#000292"/><stop offset="1" stop-color="#BE00C7"/></linearGradient><linearGradient id="tokenBrandedOsmosis6" x1="20.497" x2="9.302" y1="1.866" y2="28.169" gradientUnits="userSpaceOnUse"><stop offset=".29" stop-color="#fff"/><stop offset=".78" stop-color="#fff" stop-opacity="0"/></linearGradient><linearGradient id="tokenBrandedOsmosis7" x1="2.792" x2="20.869" y1="11.683" y2="11.683" gradientUnits="userSpaceOnUse"><stop offset=".29" stop-color="#fff"/><stop offset=".78" stop-color="#fff" stop-opacity="0"/></linearGradient><linearGradient id="tokenBrandedOsmosis8" x1="2.932" x2="20.893" y1="11.919" y2="11.919" gradientUnits="userSpaceOnUse"><stop offset=".29" stop-color="#fff"/><stop offset=".78" stop-color="#fff" stop-opacity="0"/></linearGradient><radialGradient id="tokenBrandedOsmosis9" cx="0" cy="0" r="1" gradientTransform="matrix(20.4203 0 0 23.808 20.181 10.228)" gradientUnits="userSpaceOnUse"><stop stop-color="#FFEAFF" stop-opacity=".6"/><stop offset=".68" stop-color="#A087C9"/><stop offset="1" stop-color="#10002F"/></radialGradient><radialGradient id="tokenBrandedOsmosisa" cx="0" cy="0" r="1" gradientTransform="matrix(17.8356 0 0 19.5637 18.034 5.106)" gradientUnits="userSpaceOnUse"><stop stop-color="#FFEAFF" stop-opacity=".6"/><stop offset=".68" stop-color="#A087C9"/><stop offset="1" stop-color="#10002F"/></radialGradient></defs></g></svg>