<svg xmlns="http://www.w3.org/2000/svg" xmlns:xlink="http://www.w3.org/1999/xlink" width="24" height="24" viewBox="0 0 24 24"><g fill="#10C7CA"><path d="M11.73 7.405a3.784 3.784 0 1 0 0 7.568a3.784 3.784 0 0 0 0-7.568M6.324 11.19a5.405 5.405 0 1 1 10.81 0a5.405 5.405 0 0 1-10.81 0"/><path d="M7.135 10.378a.81.81 0 0 1 .81.811v10a.81.81 0 1 1-1.62 0v-10a.81.81 0 0 1 .81-.81m9.19 0a.81.81 0 0 1 .81.811v5.135a.81.81 0 1 1-1.622 0V11.19a.81.81 0 0 1 .811-.81m.001-5.677a1.351 1.351 0 1 0 0-2.703a1.351 1.351 0 0 0 0 2.703"/></g></svg>