<svg xmlns="http://www.w3.org/2000/svg" xmlns:xlink="http://www.w3.org/1999/xlink" width="24" height="24" viewBox="0 0 24 24"><g fill="none"><path fill="url(#tokenBrandedPal0)" d="M9.076 13.052a.46.46 0 0 0-.2.349c-.003.819-.002 1.63 0 2.447c0 .539-.355.76-.802.492c-1.505-.903-2.434-1.629-3.305-2.158a.63.63 0 0 1-.268-.49L4.5 5.045c0-.18.122-.4.27-.49l4.101-2.486a.58.58 0 0 1 .544 0l4.176 2.486c.15.09.284.31.284.49v4.975c0 .18-.135.4-.284.49c-1.393.845-3.122 1.698-4.515 2.543m6.05-2.435c.002-.818 0-1.63 0-2.446c-.002-.54.378-.76.825-.492c1.505.903 2.41 1.61 3.28 2.14c.148.09.27.31.27.488v8.65c0 .179-.122.4-.27.49l-4.102 2.485a.58.58 0 0 1-.544 0l-4.167-2.486c-.148-.09-.293-.31-.293-.49v-4.975c0-.18.145-.4.294-.49c1.394-.844 3.136-1.68 4.53-2.524c.106-.064.176-.221.177-.35"/><defs><linearGradient id="tokenBrandedPal0" x1="12" x2="12" y1="2" y2="22" gradientUnits="userSpaceOnUse"><stop stop-color="#00EDD8"/><stop offset="1" stop-color="#00D7AF"/></linearGradient></defs></g></svg>