<svg xmlns="http://www.w3.org/2000/svg" xmlns:xlink="http://www.w3.org/1999/xlink" width="24" height="24" viewBox="0 0 24 24"><g fill="none"><path fill="#DDC6B8" d="m20.263 7.577l-.276-.353h.812l.176.353z"/><path fill="#503B20" d="M20.98 7.577h-.717l.188.235h.636z"/><path fill="#FFF7D6" d="m20.628 8.054l-.176-.242h.635l.106.236h-.565z"/><path fill="#1B1306" d="m21.646 9.342l-1.012-1.288h.559c.176.188.377.94.459 1.288z"/><path fill="#DDE18C" d="m15.734 3.736l.353-.888c.794.223 1.676.9 2.012 1.206v2.158L16.41 7.883l-.67-4.141z"/><path fill="url(#tokenBrandedPeople0)" d="M2.611 8.471a16 16 0 0 0-.47 1.912l5.982.159l1.059.2v2.73l1.429-1.301l-.17-2.335l1.217-1.388l.159-1.33l-.518-1.729l.23-1.623L11.246 2c-.394.023-1.547.265-2.07.376v4.806L9.029 8.47z"/><path fill="#EEE7CB" d="M12.176 7.23c-.471-.806-.342-2.764-.212-3.647c.753-.706 2.04-.447 2.588-.23c.423.342 1.364 1.2 1.806 1.971c.44.765.182 1.188 0 1.3v.97c-.706.707-2.183 2.13-2.47 2.118c-.365-.023-1.13-1.47-1.718-2.482z"/><path fill="#DAB98C" d="M12.793 4.413c-.188-.395.312-.942.589-1.16c-.348-.152-1.218.33-1.383 1.036s.635 1.07.918 1.2c.23.1.37.394.412.53c-.048-.177.264-.236.364-.048c.106.177.053.947.06 1.018c0 .053.329-.07.493-.141c.012-.247.047-.777.083-.883c.046-.123.635-.211.952-.176c.318.035.142.576-.076.706c-.223.117-.153.141 0 .541c.117.323-.335.647-.577.776l.906.371l.17-.959c.124-.506.383-1.535.39-1.6a8 8 0 0 0-.39-1.376a8 8 0 0 0-.958-.812l-.859-.112c.718.53.389 1.306.136 1.636c-.353.035-1-.053-1.23-.547"/><path fill="#D89C78" d="M12.511 6.777c-.112-.288.365-.83.612-1.07a3.8 3.8 0 0 1-.747.564l-.553.441l.553.906l1.106 1.67c.147.03.447.06.447-.07c0-.164.835-.611 1.088-.535c.247.07 1.57-1.141 1.447-1.394a3.6 3.6 0 0 1-.094-1.453c.059-.418.264-.13.047-.335c-.177-.177-.383.047-.47.176c-.148.336-.454 1.07-.413 1.312c.042.294-.047.694-.253.912c-.164.176-.482.07-.623 0c.059.094.082.33-.253.54c-.423.26-.882-.152-.741-.334c.141-.177 1.135-.236.788-.253c-.282-.024-.294-.647-.27-.96l-.76.16c-.017-.018-.123 0-.434.235c-.395.294-.342-.153-.477-.512"/><path fill="#BC855C" d="M12.317 4.824c-.306-.54.123-1.111.382-1.323c-.44.188-1.33.723-1.388 1.323a1.08 1.08 0 0 0 .588 1.06l.965-.448c-.059.024-.241-.07-.547-.612"/><path fill="url(#tokenBrandedPeople1)" d="M12.005 22a10 10 0 0 0 9.272-6.268A10 10 0 0 0 22 11.865l-3.26-4.229L4.694 18.812A9.95 9.95 0 0 0 12.005 22"/><path fill="#572F23" d="M11.917 6.754c-.341-.306-.159-.024-.253-.183a34 34 0 0 0 1.47 2.57c.324.471.747.342.918.218c-.082.06-.312.118-.535-.088c-.277-.253-1.177-2.14-1.6-2.517"/><path fill="url(#tokenBrandedPeople2)" d="m11.781 13.206l-.323-.664l7.4-5.806l2.97 3.353c.112.364.135 1.34.135 1.788L18.681 7.77l-1.83 1.412z"/><path fill="url(#tokenBrandedPeople3)" d="M14.822 10.777L4.705 18.824l-.27-.306l-.26-.312l10.13-8.117z"/><path fill="#E6D399" d="M8.234 21.247a7 7 0 0 1-1.335-.682l13.74-10.459l.56.753z"/><path fill="#E6D399" d="m19.863 18.159l-3.206-3.83c.283-.323.847-.97.883-.97c.03 0 2.076 2.435 3.1 3.653z"/><path fill="#EAE9CD" d="M17.381 14.942c.504 0 .912-.388.912-.865c0-.478-.408-.865-.912-.865c-.503 0-.912.387-.912.865c0 .477.409.865.912.865"/><path fill="#361822" d="M12.281 5.648c-.353.03-.665-.618-.776-.941l-.089 1.258l.571 1.071c-.147-.335.177-.623.359-.73l.041-.34c.118-.118.247-.353-.106-.318"/><path fill="#9A634E" d="M13.17 7.707c.088-.012.176-.483.205-.718c.118-.024.318-.012.224.188c-.118.247.406.753.17.77a.48.48 0 0 0-.358.242c.053.153.217.47.488.506c.27.035.594.017.723 0l-.411.235c-.13.147-.442.424-.648.359c-.211-.065-.629-.765-.811-1.1l-.9-1.341l.212-.524c-.018.06-.012.283.176.694c.247.518.812.712.93.694z"/><path fill="#CCB98E" d="M13.163 6.118c-.106-.164-.5.253-.682.483c.147-.377.635-1.041.782-.86c.147.177.16.93.183 1.283l-.177.041c.006-.247.006-.788-.106-.947"/><path fill="#A2776E" d="M13.746 8.354c-.182 0-.188-.142-.177-.212c-.023.012-.005-.006.295-.1c.776-.235.83-.118 1.023-.088c-.276.117-.953.4-1.141.4"/><path fill="#A2776E" d="M14.17 8.412c-.218.089-.46-.017-.512-.023c.017.07.117.217.376.247c.265.03.641-.335.794-.524a10 10 0 0 1-.659.306z"/><path fill="#390800" d="M13.334 8.407a.45.45 0 0 1 .3-.506c.37-.13 1.018-.3 1.447.117c-.294-.211-.706-.059-1.012.06c-.135.046-.253.087-.33.093c-.2 0-.352.159-.41.236zm.212.117c.217.059.717.088.97-.194c-.394.824-.811.47-.97.194"/><path fill="url(#tokenBrandedPeople4)" d="M8.681 8.471H2.623l.217-.406h5.747c.212 0 .218-.117.194-.176V2.542l.512-.194v5.711l-.23.406h-.382z"/><path fill="#CFBB96" d="M8.87 8.071H2.846l.147-.376H8.47V2.63l.4-.135z"/><path fill="#401D07" d="M8.47 7.707H2.98a1.2 1.2 0 0 1 .118-.253h4.947V2.807c.165-.094.33-.141.423-.177z"/><path fill="#D8C19E" d="M3.3 7.077c-.06.094-.147.294-.189.382l4.941.006V2.79l-.17.047v4.241z"/><path fill="#DDB963" d="M6.705 3.39c-.93.387-2.253 1.799-2.864 2.728h2.864z"/><path fill="#301617" d="M3.853 6.118c-.124.142-.418.741-.541.97h4.57V2.843c-.194.047-.912.394-1.176.553v2.723z"/><path fill="#E7D0B1" d="M8.917 10.824h-6.83c-.017.118-.029.294-.035.377H8.47v2.888l.447-.17z"/><path fill="#3B2323" d="M2.058 11.183a8 8 0 0 0-.04.847h5.764v2.506l.688-.477v-2.87H2.058z"/><path fill="#71524D" d="M2.376 11.412h4.912v.17H2.376z"/><path fill="#AC8F71" d="M7.882 11.63h.306v2.517h-.306z"/><path fill="url(#tokenBrandedPeople5)" d="M9.081 13.365L3.741 17.6l.264.388l.283.353l3.535-3l11.082-8.529l2.893 3.312l-.146-.776l-2.918-3.741z"/><path fill="#301900" d="m2.146 10.371l-.058.441l6.823.012v2.882l.482-.188V10.93l-.559-.559z"/><path fill="#4A1F0F" d="m2.994 12.724l-.983-.694c-.088.83.37 3.13.983 4.259z"/><path fill="#EAD697" d="m2.976 12.724l-.965-.694h5.812l-.836.694z"/><path fill="#59301E" d="M6.981 15.147v-2.435l.824-.7v2.483z"/><path fill="#D09F52" d="M2.976 12.718v3.547c.03.088.177.33.253.441h1.753l2.024-1.53v-2.458z"/><path fill="#2C1608" d="M3.746 17.606c-.07-.088-.394-.641-.54-.9h1.782z"/><path fill="#1C0D0A" d="M11.904 3.007V2h-.652l.235 1.735l.412-.73z"/><path fill="#1B1107" d="M9.017 9.712c-.118-.335.011-.688.24-.935c.118-.118.248-.212.377-.265q.203-.072.335-.011a.95.95 0 0 1 .518.647l.194-.047a1.18 1.18 0 0 0-.635-.783a.63.63 0 0 0-.476.012a1.2 1.2 0 0 0-.453.318c-.265.282-.436.706-.283 1.135c.13.347.43.547.736.665c.311.117.635.152.847.147V10.4c-.194 0-.494-.029-.777-.135c-.282-.106-.523-.276-.623-.553m1.335.453c-.024.012-.653-.006-.882-.34c-.236-.336-.095-1.09.37-1.083c.47 0 .783.794.512 1.423"/><path fill="#39201B" d="M9.917 11.5c-.03-.87-.235-1.17-.33-1.211c1.947.335 1.236 1.44 1.2 1.476l-.546.883c-.095-.024-.295-.277-.324-1.148"/><path fill="#141416" d="M11.405 8.118c.411-.335.217-1.382.064-1.864a47 47 0 0 0 1.741 2.829c.377.512.712.482.836.4l-3.677 3.123l.112-.647c.288-.94-.612-1.976-.612-2.735c0-.765 1.012-.688 1.53-1.106z"/><path fill="#BC8F65" d="M15.493 2.613c-1.077-.524-3.018-.624-3.853-.612l.188 1.059c.165-.036.689-.118 1.494-.194c.812-.077 1.783.547 2.17.864z"/><path fill="#1B0000" d="M15.47 3.718V2.601c.164.035.487.188.623.259l-.183.588l.247.588z"/><path fill="#100000" d="M18.08 6.248v-2.2l.436.353v1.494z"/><path fill="#D6BD9E" d="m18.505 4.377l.27.26v1.04l-.27.212z"/><path fill="#4F2D11" d="m18.77 4.63l.37.341v1.183l-.37-.47z"/><path fill="#B38971" d="M19.14 6.148V4.97l.258.277V6.47z"/><path fill="#240C00" d="m19.4 6.483l-.001-1.235c.494.441 1.141 1.5 1.406 1.976h-.812l-.588-.741z"/><path fill="#E4DAB6" d="M14.022 5.471c.018-.076.1-.235.342-.276c.235-.035.4-.012.452 0c-.035.106-.152.33-.323.365l-.059.011c-.2.042-.412.083-.412-.1m-1.67.547c.123-.111.412-.329.547-.347c.176-.017.088.618-.43.647a.24.24 0 0 1-.14-.058c-.042-.036 0-.177.023-.242"/><path fill="#390800" fill-rule="evenodd" d="M11.587 5.336c.236.406.236 1.224.2 1.582c-.764-.753-.788-1.882-.8-2.258v-.03c-.006-.353.8-1.67.889-1.711l.076-.06c.253-.193 1.053-.805 1.982-.623c.747.147 1.118.547 1.37.824c.107.117.195.206.283.253c.3.158.588.511.83.94c.176.318.194 1.165.176 1.612c-.006-.088-.065-.211-.247-.317c-.277-.165-.294.294-.294.576v.294c0 .142 0 .23-.047.2c-.065-.035-.088-.306-.088-.435c.029-.835-.2-1.165-.306-1.318l-.024-.029l-.059-.118c-.165-.37-.647-1.405-1.594-1.405a2.96 2.96 0 0 0-1.906.682c-.076.082-.74.841-.44 1.341m2.183.082l-.247-.317c.176.035.358-.06.547-.153c.135-.07.27-.141.411-.165a.69.69 0 0 1 .588.159l-.153-.024a.75.75 0 0 0-.629.253c.106-.035.253-.058.453-.047l.182.07h-.058a.6.6 0 0 1-.295.348l.036-.035a.3.3 0 0 1-.077.017c-.117 0-.206-.076-.206-.159q0-.06.053-.105a.56.56 0 0 0-.252.117c-.048.112-.042.283-.036.37l-.035-.111c-.047-.23-.206-.235-.282-.218m.823-.205l.224-.018a.5.5 0 0 1-.089.17c0-.07-.053-.129-.13-.152zm-2.294.311c-.341.17-.435.43-.441.541c.159-.235.53-.353.688-.388c-.082.053-.253.194-.306.388a.295.295 0 0 0 .118.342V6.33c.147.059.37-.076.47-.153a.6.6 0 0 1-.47.065v-.124c.012-.094.135-.194.294-.264l-.012.011c-.03.06-.059.177.041.23c.136.059.383-.059.318-.23a.15.15 0 0 0-.094-.088a.6.6 0 0 1 .176-.012c.112.012.165.048.194.083l.024.1c.047.2.082.412.082.588c-.005.353-.053.43-.07.424c-.047.105-.077.335.135.388c.147.04.206-.024.27-.1c.054-.06.112-.13.23-.147l.147-.012c.165-.012.259-.024.259-.2c0-.224-.47-.235-.553-.094c-.088.135-.312.206-.353.047c-.012-.041-.012-.106-.018-.194a3.2 3.2 0 0 0-.14-.894l-.018-.27c-.012-.324-.53-.171-.965.04z" clip-rule="evenodd"/><path fill="#5D3E2C" d="M12.905 2.53c-.4.147-.623.489-.682.641c.553-.482 2.035-.352 2.706-.235l-.636-.412a2.56 2.56 0 0 0-1.388 0z"/><defs><linearGradient id="tokenBrandedPeople0" x1="4.164" x2="18.006" y1="14.359" y2="15.28" gradientUnits="userSpaceOnUse"><stop stop-color="#E8D394"/><stop offset=".52" stop-color="#E4E1B3"/><stop offset="1" stop-color="#E2D07A"/></linearGradient><linearGradient id="tokenBrandedPeople1" x1="8.737" x2="18.39" y1="10.428" y2="19.922" gradientUnits="userSpaceOnUse"><stop stop-color="#B69961"/><stop offset=".17" stop-color="#90703F"/><stop offset=".36" stop-color="#CFB885"/><stop offset=".5" stop-color="#95713A"/><stop offset=".71" stop-color="#E0D792"/><stop offset="1" stop-color="#DBC07D"/></linearGradient><linearGradient id="tokenBrandedPeople2" x1="12" x2="12" y1="2" y2="21.764" gradientUnits="userSpaceOnUse"><stop stop-color="#664F41"/><stop offset=".33" stop-color="#745A37"/><stop offset=".74" stop-color="#948149"/></linearGradient><linearGradient id="tokenBrandedPeople3" x1="3.857" x2="20.394" y1="20.667" y2="11.134" gradientUnits="userSpaceOnUse"><stop stop-color="#12140D"/><stop offset=".83" stop-color="#4A3D25"/><stop offset="1" stop-color="#846E40"/></linearGradient><linearGradient id="tokenBrandedPeople4" x1="9.495" x2="23.736" y1="22.845" y2="6.769" gradientUnits="userSpaceOnUse"><stop stop-color="#23150A"/><stop offset="1" stop-color="#241500"/></linearGradient><linearGradient id="tokenBrandedPeople5" x1="12.026" x2="-1.949" y1="2" y2="15.916" gradientUnits="userSpaceOnUse"><stop stop-color="#2F2218"/><stop offset="1" stop-color="#12140D"/></linearGradient></defs></g></svg>