<svg xmlns="http://www.w3.org/2000/svg" xmlns:xlink="http://www.w3.org/1999/xlink" width="24" height="24" viewBox="0 0 24 24"><g fill="none"><path fill="#94191B" d="m4.119 17.253l.018-.055c.503-.49 1.698-1.558 2.486-1.861c.272-.164 7.123.57 10.512.958c.69.436 2.097 1.352 2.176 1.534c.055.121.321.606.57 1.049a9.998 9.998 0 0 1-15.762-1.625"/><path fill="#000" fill-rule="evenodd" d="M6.617 15.337c-.782.303-1.977 1.37-2.48 1.861l-.018.06a9.996 9.996 0 0 0 15.762 1.62a26 26 0 0 1-.57-1.05c-.079-.181-1.485-1.097-2.183-1.533c-3.382-.388-10.233-1.122-10.511-.958m10.396 1.297a395 395 0 0 0-6.335-.672a116 116 0 0 0-3.673-.292a4 4 0 0 0-.273 0c-.34.134-.788.443-1.243.8c-.352.286-.691.583-.934.813a9.638 9.638 0 0 0 14.89 1.54a23 23 0 0 1-.461-.837q-.356-.285-.728-.545q-.615-.414-1.243-.807m2.001 1.389q.009 0 0 0" clip-rule="evenodd"/><path fill="#67B312" d="m7.344 14.076l.776-.2c-.503-2.795-.006-5.626.303-6.693l.849-.679l7.608-.479c.437.212 1.303.794 1.303 1.455c0 .667-.533 1.358-.8 1.619c.152.145.485.473.649.545c.2.103.8.964.376 2.668c-.425 1.715-2.65 2.57-2.88 2.667c-.182.085-.224.394-.224.534l1.728 1.006a4 4 0 0 1-.352 1.085c-.158.243.067.988.2 1.334l-1.455-1.11l-7.857-1.485z"/><path fill="#000" d="M16.868 5.85c.03 0 .06 0 .09.018q.47.232.856.588c.285.266.545.624.545 1.03c0 .376-.151.746-.327 1.043a3 3 0 0 1-.4.564q.233.21.485.4a.9.9 0 0 1 .267.279c.09.14.175.327.242.557c.127.48.17 1.152-.049 2.031c-.224.916-.933 1.589-1.582 2.037a7.5 7.5 0 0 1-1.394.746c-.018.012-.06.048-.085.14l-.03.133l1.637.951c.06.037.097.11.078.182c-.024.14-.072.352-.133.57c-.06.206-.146.437-.242.582a.4.4 0 0 0-.025.164c0 .09.019.206.043.327c.048.249.14.515.2.68a.18.18 0 0 1-.06.205a.18.18 0 0 1-.207 0l-1.419-1.085l-7.82-1.473a.176.176 0 0 1-.145-.158l-.225-2.267a.176.176 0 0 1 .134-.182l.618-.163c-.46-2.783.024-5.554.333-6.614a.2.2 0 0 1 .061-.091l.849-.68c.03-.018.06-.036.097-.036zm-1.388 9.972v.527a.18.18 0 0 1-.176.182a.176.176 0 0 1-.176-.182v-.83c0-.085.012-.219.06-.34a.51.51 0 0 1 .274-.351l.054-.025a6.8 6.8 0 0 0 1.28-.685c.624-.436 1.248-1.042 1.442-1.837c.206-.83.164-1.442.049-1.849a1.7 1.7 0 0 0-.2-.46a.8.8 0 0 0-.134-.158a2 2 0 0 1-.363-.279l-.334-.303a.18.18 0 0 1 0-.254c.127-.122.315-.346.479-.619c.157-.273.273-.582.273-.867c0-.26-.17-.527-.43-.77a3.3 3.3 0 0 0-.728-.509l-7.517.467l-.758.612c-.303 1.091-.77 3.844-.285 6.56a.18.18 0 0 1-.121.2l-.637.163l.2 1.983l7.73 1.46q.045.01.072.037l1.013.77a4 4 0 0 1-.097-.594a.7.7 0 0 1 .085-.364c.06-.09.133-.279.194-.485l.109-.406l-1.358-.788z"/><path fill="#94191B" d="M7.144 13.7c.364-.097.818.194 1 .352c-.848-.607-.624 1.388-.175 1.964c.94.788 5.298 1.334 7.36 1.516c.333.424 1 1.333 1 1.576c-4.08.606-4.378-.346-5.808-.776c-1.425-.425-3.553-1.637-3.656-1.989c-.097-.351-.17-2.515.279-2.643"/><path fill="#000" d="M7.78 13.621c.2.085.376.213.48.303c.072.061.078.164.024.243a.176.176 0 0 1-.243.03c-.09-.06-.145-.079-.17-.079c-.018 0-.03 0-.042.019a.4.4 0 0 0-.06.157a1.4 1.4 0 0 0-.025.297c0 .23.043.497.11.74c.066.242.157.442.242.564c.206.163.618.333 1.176.497a23 23 0 0 0 1.988.436c1.455.255 3.056.437 4.086.522c.049 0 .091.03.122.066q.487.638.909 1.322l.09.188c.019.06.037.121.037.182c0 .09-.06.163-.145.182c-2.056.303-3.177.212-3.977-.013a6 6 0 0 1-1-.4l-.03-.012a5 5 0 0 0-.88-.363a13.1 13.1 0 0 1-3.292-1.613a3 3 0 0 1-.412-.364a.4.4 0 0 1-.067-.133a3.3 3.3 0 0 1-.072-.582a9 9 0 0 1 0-.88c.006-.302.036-.612.097-.854c.03-.121.066-.236.12-.327a.43.43 0 0 1 .25-.219c.242-.06.484 0 .684.091m-.588.249s-.018.012-.042.055a.8.8 0 0 0-.085.236a4.4 4.4 0 0 0-.09.788q-.021.676.06 1.346l.012.018l.067.073q.092.092.266.212a12.8 12.8 0 0 0 3.19 1.564c.363.11.648.242.927.382l.036.018c.291.14.582.273.946.376c.703.2 1.728.291 3.619.03a15 15 0 0 0-.86-1.273a52 52 0 0 1-4.038-.521a20 20 0 0 1-2.025-.449a3.9 3.9 0 0 1-1.346-.6c-.133-.17-.242-.43-.31-.697a3 3 0 0 1-.12-.837a1.5 1.5 0 0 1 .024-.37a.63.63 0 0 1 .14-.309a.63.63 0 0 0-.37-.042"/><path fill="#94191B" d="M15.334 15.113v.751c.425-.176 1.225.655 1.37.934c0 .655.4 1.685.528 1.813c.12.12.303-.83.303-1.716c-.2-.606-1.552-1.443-2.207-1.782z"/><path fill="#000" d="M15.237 14.961a.18.18 0 0 1 .176-.006c.327.176.836.473 1.291.812c.224.164.443.346.618.522c.17.176.316.363.376.551q.01.666-.097 1.322c-.03.17-.06.321-.109.425a.4.4 0 0 1-.09.151a.204.204 0 0 1-.291 0a.6.6 0 0 1-.092-.133a5.2 5.2 0 0 1-.485-1.758a2.8 2.8 0 0 0-.897-.789c-.121-.048-.2-.048-.242-.03a.17.17 0 0 1-.165-.017a.18.18 0 0 1-.078-.146v-.752a.19.19 0 0 1 .085-.152m.267.449v.255q.137.018.266.072a2.86 2.86 0 0 1 1.092.976c.017.388.095.77.23 1.134q.065.218.14.382l.024-.128c.06-.315.097-.751.103-1.176a1.3 1.3 0 0 0-.291-.388a5 5 0 0 0-.57-.485a10 10 0 0 0-.994-.642"/><path fill="#000" d="M16.771 17.404a.19.19 0 0 1 .134.212c-.091.4.018.873.188 1.358l.06.164c.206.315.364.691.455 1.152a.176.176 0 0 1-.34.085a5 5 0 0 0-.224-.576l-.018-.043l-.182-.454a2.44 2.44 0 0 0-1.097-.928a.18.18 0 0 1-.073-.215a.18.18 0 0 1 .194-.118c.262.104.504.254.715.442a2.2 2.2 0 0 1-.024-.946a.175.175 0 0 1 .212-.133"/><path fill="#94181A" d="M8.241 5.243c-.097.606.042 1.546.127 1.94c.643-.849 4.674-2.334 6.608-2.97c-.206-.607-.667-1.88-.849-2.037c-2.303.303-5.759 2.315-5.88 3.067z"/><path fill="#000" d="M14.104 2q.083-.002.139.042a.6.6 0 0 1 .115.152l.11.206l.242.558c.164.424.327.891.436 1.2a.18.18 0 0 1-.115.224q-1.913.632-3.777 1.4c-.66.28-1.279.565-1.77.825a7 7 0 0 0-.624.376a2 2 0 0 0-.352.303a.176.176 0 0 1-.31-.06a8 8 0 0 1-.132-.916a4.6 4.6 0 0 1 .006-1.09c.024-.146.12-.292.236-.425c.121-.14.285-.291.479-.443c.382-.303.91-.642 1.497-.97A12.1 12.1 0 0 1 14.104 2M8.569 5.031c-.103.121-.146.2-.152.243q-.06.503 0 1.006c.012.194.043.382.06.546l.183-.134c.182-.121.406-.26.66-.394a23 23 0 0 1 1.8-.843a56 56 0 0 1 3.638-1.351a27 27 0 0 0-.606-1.552l-.097-.182c-1.264.246-2.48.695-3.6 1.327c-.577.316-1.086.643-1.456.934a3 3 0 0 0-.424.394z"/><path fill="#94181A" d="M14.977 4.212c.94-.024 2.91.146 3.334 1.031c0 .406-1.128 1.061-4.559 1.134c-3.05.066-4.474.254-5.123.545c1.17-.618 4.808-2.334 6.348-2.71"/><path fill="#000" fill-rule="evenodd" d="M15 4.388c-.75.188-2.024.704-3.267 1.25c-.6.266-1.182.539-1.697.781l.236-.03q1.733-.165 3.474-.182c1.186.01 2.37-.139 3.516-.443c.254-.067.496-.176.715-.32a.44.44 0 0 0 .152-.17a1.15 1.15 0 0 0-.467-.413a3.7 3.7 0 0 0-.86-.303A8 8 0 0 0 15 4.388M8.709 7.08a6 6 0 0 1 1.6-.34c.813-.09 1.928-.151 3.45-.181c1.722-.043 2.88-.225 3.613-.455c.364-.121.63-.243.813-.382c.175-.127.303-.29.303-.479a.2.2 0 0 0-.018-.073c-.128-.266-.364-.466-.643-.618a3.5 3.5 0 0 0-.952-.333a8.2 8.2 0 0 0-1.94-.176c-.788.194-2.091.721-3.34 1.273a58 58 0 0 0-3.274 1.57a.18.18 0 0 0-.048.242a.18.18 0 0 0 .236.061z" clip-rule="evenodd"/><path fill="#000" d="M15.188 7.88c-1.163-1.2-2.637-.71-3.364-.406a.125.125 0 1 1-.097-.23c.727-.303 2.352-.867 3.637.454a.12.12 0 0 1 0 .182a.12.12 0 0 1-.136.028a.1.1 0 0 1-.04-.028"/><path fill="#000" d="M12.849 7.729a3.8 3.8 0 0 0-.697.412a.12.12 0 0 1-.094.026a.12.12 0 0 1-.082-.05a.12.12 0 0 1-.03-.097a.12.12 0 0 1 .054-.085a4 4 0 0 1 .752-.436a2.64 2.64 0 0 1 2.576.139a.12.12 0 0 1 .024.176a.12.12 0 0 1-.17.024a2.41 2.41 0 0 0-2.327-.11zm2.746.879c.06.036.079.115.042.176a2.09 2.09 0 0 1-1.806 1.018a4.4 4.4 0 0 1-1.243-.206a.127.127 0 0 1-.082-.16a.13.13 0 0 1 .16-.082c.195.06.698.194 1.159.194c.57 0 1.224-.261 1.6-.892a.12.12 0 0 1 .17-.048"/><path fill="#fff" d="M14.704 7.535c-.643 0-1.8.91-2.304 1.358c.079.127.527.327 1.079.327c1.825 0 2.073-.448 2.073-.879c0-.424-.424-.806-.848-.806"/><path fill="#000" d="M12.594 8.893c.277.13.579.198.885.2c.91 0 1.394-.11 1.661-.26a.56.56 0 0 0 .237-.231a.56.56 0 0 0 .054-.261a.67.67 0 0 0-.224-.473a.76.76 0 0 0-.503-.206q-.201.002-.51.14c-.2.084-.412.212-.624.351c-.37.243-.728.521-.976.74M14.09 7.57c.213-.097.425-.164.613-.164c.248 0 .49.11.666.28c.182.163.31.4.31.654a.9.9 0 0 1-.08.376a.8.8 0 0 1-.339.333c-.321.182-.866.303-1.782.303a2.36 2.36 0 0 1-1.018-.242a.5.5 0 0 1-.17-.152a.12.12 0 0 1 .024-.157c.255-.23.68-.576 1.116-.861c.218-.146.448-.273.666-.37zm3.486-.891c-.212-.303-.582-.449-1.158-.4c-.218.018-.515.121-.806.254c-.291.128-.558.28-.721.382a.12.12 0 0 1-.17-.042a.12.12 0 0 1 .004-.143a.1.1 0 0 1 .038-.033c.164-.103.443-.26.746-.394a3 3 0 0 1 .885-.279c.624-.048 1.103.103 1.394.51a.12.12 0 0 1 .021.095a.12.12 0 0 1-.057.08a.12.12 0 0 1-.136.003a.1.1 0 0 1-.034-.033z"/><path fill="#000" d="M16.928 6.177a.12.12 0 0 1-.052.127a.1.1 0 0 1-.045.018a3.8 3.8 0 0 0-1.83 1.17a.12.12 0 0 1-.089.048a.12.12 0 0 1-.093-.036a.12.12 0 0 1-.038-.133a.1.1 0 0 1 .025-.042a4.07 4.07 0 0 1 1.97-1.25a.12.12 0 0 1 .152.098m.691 2.455c.061.03.08.11.049.17c-.188.364-.564.594-.934.727a3.3 3.3 0 0 1-1 .219a.13.13 0 0 1-.09-.033a.12.12 0 0 1-.04-.086a.12.12 0 0 1 .07-.118a.1.1 0 0 1 .048-.012a3.2 3.2 0 0 0 .928-.2c.33-.103.614-.32.8-.612a.12.12 0 0 1 .17-.055"/><path fill="#000" d="M17.899 8.365a.12.12 0 0 1-.061.164c-.437.212-.916.273-1.334.267a3.8 3.8 0 0 1-1.012-.158a.13.13 0 0 1-.088-.111a.13.13 0 0 1 .03-.093a.13.13 0 0 1 .137-.038c.188.06.54.139.933.145c.4.012.837-.048 1.225-.242a.12.12 0 0 1 .17.06z"/><path fill="#fff" d="M17.31 6.456a3.6 3.6 0 0 0-1.958 1.358c.667.582 1.946.412 2.503.248c.098-.048.28-.248.28-.654c0-.504-.552-.88-.825-.952"/><path fill="#000" d="M17.28 6.328a.1.1 0 0 1 .06 0c.164.049.389.176.57.352c.182.182.346.43.346.727c0 .443-.2.691-.34.77a2.134 2.134 0 0 1-2.643-.266a.12.12 0 0 1-.018-.17c.133-.194.394-.491.74-.77c.351-.273.788-.534 1.285-.643M15.528 7.79c.29.213.703.291 1.121.303a4.3 4.3 0 0 0 1.158-.145c.061-.036.2-.194.2-.54c0-.2-.109-.394-.272-.545a1.25 1.25 0 0 0-.43-.28c-.437.104-.831.334-1.153.589a4.3 4.3 0 0 0-.624.618M14.12 9.893c-.466.182-1.042.164-1.848-.158a.126.126 0 0 0-.091.237c.842.327 1.479.37 2.03.157c.546-.212.976-.666 1.419-1.26a.12.12 0 0 0-.024-.176a.12.12 0 0 0-.182.024c-.43.588-.825.994-1.304 1.176"/><path fill="#000" fill-rule="evenodd" d="M14.4 9.172c.377 0 .68-.261.68-.576c0-.322-.303-.582-.68-.582c-.37 0-.672.26-.672.582c0 .315.303.576.673.576m-.272-.303a.147.147 0 0 0 .152-.152a.151.151 0 0 0-.304 0a.15.15 0 0 0 .152.152m.248-.4a.096.096 0 0 1-.096.096a.103.103 0 0 1-.104-.097a.103.103 0 0 1 .146-.117a.1.1 0 0 1 .054.117m.055.351c.055 0 .097-.048.097-.103a.1.1 0 0 0-.019-.088a.103.103 0 0 0-.181.088c0 .06.042.103.103.103m2.625-.703c.376 0 .679-.26.679-.582s-.303-.576-.68-.576c-.369 0-.672.255-.672.576s.303.582.673.582m-.273-.303a.154.154 0 0 0 .152-.152a.152.152 0 1 0-.152.152m.303-.455c0 .06-.048.103-.103.103a.103.103 0 0 1 0-.2c.055 0 .097.043.097.097zm.049.352a.104.104 0 0 0 .078-.1a.1.1 0 0 0-.078-.1a.1.1 0 0 0-.103.103c0 .054.042.097.103.097" clip-rule="evenodd"/><path fill="#A24A43" d="M18.032 9.881c.982 0 1.176.346 1.152.521c0 .243-.2.407-.303.455c.14.085.406.315.406.582c0 1.03-2.128.655-3.304.655S13.176 13.1 12.83 13.1c-.352 0-.88-.182-.88-.685c0-1.558 4.856-2.54 6.08-2.54z"/><path fill="#000" d="M14.48 10.396a14.5 14.5 0 0 1 3.552-.697c.51 0 .843.09 1.049.23c.206.134.303.322.279.485a.65.65 0 0 1-.188.443l.097.109c.097.121.194.279.194.473a.73.73 0 0 1-.449.691c-.255.127-.588.182-.934.194q-.655.027-1.309-.024c-.291-.019-.558-.03-.788-.03c-.552 0-1.225.236-1.819.484l-.485.213l-.309.133l-.303.121a.7.7 0 0 1-.242.055c-.2 0-.45-.049-.661-.182a.77.77 0 0 1-.388-.68c0-.484.376-.884.854-1.2c.58-.35 1.2-.626 1.85-.818m-1.655 1.116c-.467.303-.698.612-.698.909c0 .176.085.29.218.376a1 1 0 0 0 .486.121q.206-.062.406-.145l.284-.122l.504-.218a5.5 5.5 0 0 1 1.958-.521c.242 0 .521.018.812.036l.206.012c.364.018.734.03 1.067.012c.334-.012.606-.06.788-.157a.5.5 0 0 0 .188-.152a.38.38 0 0 0-.042-.467a1 1 0 0 0-.212-.188a.18.18 0 0 1-.073-.156a.18.18 0 0 1 .09-.147a.4.4 0 0 0 .128-.115a.28.28 0 0 0 .073-.212s.006-.073-.121-.158c-.122-.085-.382-.17-.849-.17c-.594 0-2.098.243-3.456.68c-.673.218-1.303.484-1.758.782"/><path fill="#000" d="M18.863 11.112c-2.898 0-5.002.812-5.675 1.212a.175.175 0 0 1-.242-.067a.18.18 0 0 1 .066-.242c.728-.424 2.898-1.255 5.85-1.255a.176.176 0 0 1 0 .352"/></g></svg>