<svg xmlns="http://www.w3.org/2000/svg" xmlns:xlink="http://www.w3.org/1999/xlink" width="24" height="24" viewBox="0 0 24 24"><mask id="tokenBrandedPepe0" width="20" height="20" x="2" y="2" maskUnits="userSpaceOnUse" style="mask-type:luminance"><path fill="#fff" d="M22 2H2v20h20z"/></mask><g fill="none" mask="url(#tokenBrandedPepe0)"><path fill="#4F9843" d="M2 2h20v20H2z"/><path fill="#fff" d="m10.65 9.529l.678.357l.086.053c.235.14.785.465 1.303.465c.475 0 1.09-.111 1.336-.168c-.054-.186-.214-.597-.44-.747a1.24 1.24 0 0 0-.667-.214l-1.507.025a2.3 2.3 0 0 0-.79.229m3.796.557c.025-.129.143-.411.41-.511c.34-.129.64-.214 1.015-.182c.278.031.548.11.8.232c.014.018.125.168.132.26c.01.097-.125.386-.714.504a3.1 3.1 0 0 1-1.393-.093a.64.64 0 0 1-.25-.214z"/><path fill="#206814" d="m12.226 12.271l-1.697-.41c-.293-.072-.646-.104-.757.06c-.09.129.236.429.407.565l1.275.632c.45.2 1.743.6 3.336.6c1.596 0 2.036-.493 2.053-.743l-.05-.272v-.214c.1-.125.318-.418.376-.629c.057-.207-.108-.328-.2-.364l-.08.261l-.335.514c-.103.05-.357.172-.578.254c-.272.107-.858.046-.925.046c-.072 0-1.204-.071-1.357-.085q-.736-.083-1.465-.215z"/><path fill="#000" d="M9.685 6.643q-.337.388-.625.814q-.616.873-1.16 1.793a10.13 10.13 0 0 0-1.493 5.496c0 .575.153 1.022.4 1.364a2.4 2.4 0 0 0 .953.765c.675.287 1.403.43 2.136.418c.475 0 .821-.018 1.2-.036h.096c.418-.022.883-.04 1.59-.04c.553 0 .867-.167 1.043-.367a.8.8 0 0 0 .192-.6a.06.06 0 0 1 .099-.055q.019.016.023.04a.93.93 0 0 1-.222.693c-.203.232-.557.411-1.135.411c-.704 0-1.168.018-1.582.036l-.1.007c-.375.014-.73.032-1.204.032c-.518 0-1.418-.064-2.186-.429a2.5 2.5 0 0 1-1.003-.803a2.4 2.4 0 0 1-.422-1.436c0-2.368.607-4.039 1.51-5.557q.547-.923 1.165-1.8q.29-.428.629-.818l.007-.01l.064-.086c.057-.072.136-.157.25-.24a1.95 1.95 0 0 1 1.179-.307c.435 0 .764.072 1.01.197c.215.107.365.26.468.44a1.65 1.65 0 0 1 1.143-.472c.372 0 .668.025.91.128c.244.107.422.297.562.604l.357.8c.25.143.446.296.56.407c.18.186.368.421.458.54c.16.07.3.178.396.339a.3.3 0 0 1 .036.082l.018.121c.007.107 0 .243-.04.386a.9.9 0 0 1 .075.293a.7.7 0 0 1-.089.428a3 3 0 0 1-.34.457c.076.075.169.182.244.304a.96.96 0 0 1 .168.44a.4.4 0 0 1 .192.263a.6.6 0 0 1-.043.343a1.9 1.9 0 0 1-.37.561c.056.096.1.214.103.336a.57.57 0 0 1-.2.425a1.54 1.54 0 0 1-.686.321c-.329.079-.768.125-1.35.125c-2.721 0-4.343-1.125-4.696-1.368l-.054-.035a.6.6 0 0 1-.15-.165a.46.46 0 0 1-.064-.214a.26.26 0 0 1 .082-.21a.4.4 0 0 1 .275-.086c.236 0 .571.089.928.193l.19.053c.31.093.628.186.928.246c.725.143 2.479.311 3.44.311c.467 0 .77-.143.97-.336c.2-.192.305-.428.365-.625a.4.4 0 0 0 .018-.103a.8.8 0 0 0-.146-.41a1.7 1.7 0 0 0-.225-.276l-.104.107a.86.86 0 0 1-.432.236a.062.062 0 0 1-.021-.121a.7.7 0 0 0 .364-.2q.291-.288.51-.632a.6.6 0 0 0 .072-.358a.8.8 0 0 0-.072-.267c-.096-.133-.435-.415-1.01-.415a1.2 1.2 0 0 0-.836.322c.196-.08.406-.12.618-.118c.46 0 .768.082.964.193c.193.107.286.25.297.357a.3.3 0 0 1-.072.196a.7.7 0 0 1-.214.193c-.193.118-.49.214-.89.214c-.392 0-.724-.025-.953-.092a.57.57 0 0 1-.268-.143a.26.26 0 0 1-.053-.257v-.004a.9.9 0 0 1 .282-.371l.003-.011A1.3 1.3 0 0 1 15.84 9c.514 0 .864.21 1.032.375q.02-.13.014-.232a.7.7 0 0 0-.275-.165a2.2 2.2 0 0 0-.771-.117c-.436 0-.71.1-.875.203a.9.9 0 0 0-.229.197l-.007.007l-.018.018a.06.06 0 0 1-.068.005a.06.06 0 0 1-.01-.098l.007-.011l.06-.064a.8.8 0 0 1 .2-.161c.288-.158.613-.233.94-.218c.357 0 .625.054.814.125a.8.8 0 0 1 .179.086a.7.7 0 0 0-.297-.254a.06.06 0 0 1-.053-.025a1.3 1.3 0 0 0-.457-.085a2.6 2.6 0 0 0-.922.153a.061.061 0 0 1-.043-.114c.31-.11.636-.165.964-.16q.169 0 .325.038a2.5 2.5 0 0 0-.975-.821a2.3 2.3 0 0 0-1.01-.264c-.304 0-.536.028-.707.068a1.5 1.5 0 0 0-.25.071q.052.069.096.143c.136.203.264.396.357.578c.104.2.168.393.136.572a.061.061 0 0 1-.111.024a.06.06 0 0 1-.01-.046c.024-.135-.022-.3-.122-.492c-.09-.179-.214-.365-.35-.572l-.036-.05a1 1 0 0 0-.1-.136c-.278-.321-.7-.475-1.528-.475c-.843 0-1.25.525-1.36.679l-.022.025a.06.06 0 0 1-.065.019l-.021-.012a.06.06 0 0 1-.023-.04a.06.06 0 0 1 .012-.046l.022-.025a1.76 1.76 0 0 1 1.457-.721c.353 0 .643.025.878.086a1.5 1.5 0 0 0-.118-.372a1 1 0 0 0-.457-.464a2.1 2.1 0 0 0-.953-.179c-.572 0-.904.136-1.107.283a1 1 0 0 0-.225.214l-.065.082zm3.064.464q.359.112.575.357q.098-.055.308-.1c.178-.04.421-.071.732-.071c.364 0 .71.107 1 .243l-.293-.661a.96.96 0 0 0-.5-.54a2.2 2.2 0 0 0-.857-.12c-.536 0-.932.296-1.086.463c.057.136.097.275.121.429m3.983 5.607a.6.6 0 0 1-.168.157c-.147.09-.379.165-.725.179c-.429.025-1.468.035-2.557-.068a12 12 0 0 1-1.6-.243a3.8 3.8 0 0 1-1.25-.486a.06.06 0 0 1-.026-.04a.06.06 0 0 1 .011-.045c.018-.029.058-.036.082-.015c.293.2.718.35 1.211.465c.49.117 1.04.192 1.582.242c1.082.1 2.118.09 2.543.072c.232 0 .46-.056.665-.164c.125-.079.16-.158.164-.193v-.022l.018-.018c.132-.132.3-.346.382-.553a.5.5 0 0 0 .035-.275a.26.26 0 0 0-.089-.147l-.007.033a1.6 1.6 0 0 1-.4.678a1.46 1.46 0 0 1-1.054.372a24 24 0 0 1-3.464-.318c-.303-.06-.628-.157-.94-.247l-.185-.053c-.364-.107-.678-.186-.893-.186c-.107 0-.164.025-.196.054a.14.14 0 0 0-.043.114a.3.3 0 0 0 .05.157q.04.073.107.122l.054.035c.35.243 1.95 1.35 4.632 1.35c.575 0 1.004-.05 1.321-.125c.315-.075.515-.178.633-.293a.44.44 0 0 0 .107-.535zm-2.186-2.696a.15.15 0 0 0 .029.139c.035.04.107.079.214.107c.207.064.528.086.918.086c.287.012.572-.054.825-.193a.7.7 0 0 0 .182-.16c.036-.054.046-.09.046-.108c-.007-.06-.06-.168-.236-.268a1.86 1.86 0 0 0-.903-.178c-.704 0-1.007.393-1.072.571z"/><path fill="#000" fill-rule="evenodd" d="M13.607 9.021c.375.327.683.724.907 1.168a.063.063 0 0 1-.028.082l-.023.006a.06.06 0 0 1-.045-.015l-.014-.02a3.7 3.7 0 0 0-.875-1.128a2.33 2.33 0 0 0-1.622-.625c-.821.032-1.286.197-1.536.368c-.246.175-.27.354-.25.429l.015.039q.014.053.028.078v.008a2.25 2.25 0 0 1 1.74-.761c.542.015 1.06.227 1.457.596c.193.057.357.243.475.436c.121.19.21.403.257.55a.23.23 0 0 1 .09.16q.011.136-.158.265a2 2 0 0 0-.19.168c-.289.275-.76.721-1.739.982a.06.06 0 0 1-.075-.043a.06.06 0 0 1 .043-.075a3.5 3.5 0 0 0 1.586-.857a29 29 0 0 0-1.696-.082c-.286 0-.536-.118-.729-.264a1.8 1.8 0 0 1-.41-.44a.06.06 0 0 1 .003-.07l.018-.015a.06.06 0 0 1 .082.017c.068.107.2.272.382.408c.179.139.404.242.654.242c.525 0 1.414.057 1.821.09q.094-.098.179-.158c.096-.07.11-.128.107-.157a.1.1 0 0 0-.032-.064a4.1 4.1 0 0 1-1.143.154c-.722 0-1.247-.332-1.504-.497c-.2-.128-.618-.314-.8-.393l-.128-.057l.125-.057q.368-.184.775-.25h1.814a2.11 2.11 0 0 0-2.21-.271c-.23.11-.394.253-.526.378q-.105.096-.221.179a.13.13 0 0 1-.065.01c-.057-.003-.082-.053-.096-.085a1 1 0 0 1-.032-.093c0-.014-.007-.025-.01-.036c-.044-.143.02-.371.296-.564s.764-.357 1.6-.393a2.45 2.45 0 0 1 1.703.657m-.285.34c.15.042.292.196.41.385c.107.165.186.35.232.486c-.185.054-.585.14-1.082.14c-.678 0-1.178-.319-1.435-.48a7 7 0 0 0-.69-.346q.292-.134.607-.185z" clip-rule="evenodd"/><path fill="#000" d="m14.696 10.707l.072-.096c.107.05.267.075.432.086c.164.007.321 0 .414-.008a.06.06 0 0 1 .068.054c0 .036-.022.064-.054.071q-.342.027-.682-.025l.654.672a.07.07 0 0 1 0 .09a.06.06 0 0 1-.09 0zM9.49 11.904a.062.062 0 1 1-.122-.025l.022-.054l.046-.078a.8.8 0 0 1 .197-.197c.178-.132.46-.225.871-.132a.06.06 0 0 1 .042.073a.06.06 0 0 1-.07.045c-.379-.086-.622.003-.772.114a.7.7 0 0 0-.214.254m.775-.879c.029.014.04.054.025.082a.18.18 0 0 1-.118.09a.5.5 0 0 1-.143.017h-.146c-.043 0-.072.008-.09.011a.06.06 0 0 1-.075-.043a.06.06 0 0 1 .043-.075c.036-.01.079-.01.122-.01h.14a1 1 0 0 0 .113-.018c.036-.011.043-.022.047-.025a.06.06 0 0 1 .082-.029"/><path fill="#000" fill-rule="evenodd" d="M14.689 14.75c.05.046.1.107.136.168a.286.286 0 0 1-.05.346a.06.06 0 0 1-.086 0a.06.06 0 0 1 0-.082q.052-.054.05-.104a.2.2 0 0 0-.025-.103a.6.6 0 0 0-.143-.16a.5.5 0 0 0-.26.342v.01a.2.2 0 0 0 0 .13c.017.035.05.074.132.085a.7.7 0 0 0 .414-.064l.625-.45H16l.035.453l.447-.371l.02-.011a.06.06 0 0 1 .047.003l.018.015c.022.029.018.064-.007.086l-1.35 1.132a.5.5 0 0 0 .047.171a.4.4 0 0 0 .171.197a.67.67 0 0 0 .464.046l.583-.735a.06.06 0 0 1 .064-.022l.021.01a.063.063 0 0 1 .008.086l-.59.747a.23.23 0 0 0-.014.168c.021.046.075.107.236.114c.171.01.282 0 .35-.018l.064-.028l.01-.011v-.004l.55-.682a.06.06 0 0 1 .041-.023a.06.06 0 0 1 .045.012a.06.06 0 0 1 .011.086l-.536.668a.24.24 0 0 0 0 .143a.12.12 0 0 0 .05.053q.032.028.111.033a.3.3 0 0 0 .171-.065c.072-.043.14-.107.211-.178c.14-.14.268-.31.343-.429a.06.06 0 0 1 .086-.014a.06.06 0 0 1 .018.082c-.079.121-.215.3-.361.45a1.5 1.5 0 0 1-.232.193a.4.4 0 0 1-.24.082a.34.34 0 0 1-.174-.05a.24.24 0 0 1-.093-.114a.3.3 0 0 1-.018-.093l-.025.007c-.086.021-.21.036-.39.025c-.189-.014-.296-.086-.339-.193a.3.3 0 0 1-.018-.168a.72.72 0 0 1-.464-.071a.53.53 0 0 1-.225-.254a.4.4 0 0 1-.036-.1a.2.2 0 0 1-.171.015a.17.17 0 0 1-.1-.079a.2.2 0 0 1-.021-.11c0-.04.01-.08.02-.115a.4.4 0 0 1-.142-.143a.24.24 0 0 1-.028-.15a.4.4 0 0 1 .035-.143l.036-.082a.75.75 0 0 1-.314.014c-.125-.017-.197-.082-.225-.164a.34.34 0 0 1-.015-.186a1 1 0 0 0-.053-.107a.5.5 0 0 0-.104-.125a.23.23 0 0 0-.186-.042c-.067.014-.142.064-.207.189a.27.27 0 0 0-.028.16q.01.075.064.161q.082.127.186.24l.14.164a.87.87 0 0 1 .16.471c.01.143-.004.279-.025.368c.178.321.846.96 2.203.96c.654 0 1.115-.1 1.425-.224c.304-.122.465-.272.525-.372v-.028a2 2 0 0 0-.125-.304a4.5 4.5 0 0 0-.492-.743c-.118-.157-.247-.335-.386-.503a2.4 2.4 0 0 0-.607-.564a1.5 1.5 0 0 1-.475-.45a.9.9 0 0 0-.45-.336a.4.4 0 0 0-.293.036c-.1.046-.2.125-.3.214q-.095.087-.179.175l-.107.107a2 2 0 0 1-.182.154zm3.71 2.168a2 2 0 0 0-.132-.314a4.4 4.4 0 0 0-.375-.579l-.125-.175c-.117-.157-.25-.34-.392-.51a2.5 2.5 0 0 0-.643-.594a1.35 1.35 0 0 1-.44-.418a1 1 0 0 0-.507-.378a.52.52 0 0 0-.378.04a1.4 1.4 0 0 0-.332.239l-.19.178l-.1.1a.9.9 0 0 1-.232.182a.66.66 0 0 0-.314.297a.6.6 0 0 0-.136-.161a.36.36 0 0 0-.285-.068c-.108.025-.215.104-.29.254a.4.4 0 0 0-.043.232a.6.6 0 0 0 .083.214q.089.135.2.25l.132.16a.7.7 0 0 1 .135.404c.011.143-.007.279-.028.357l-.004.018l.01.022c.18.36.897 1.046 2.322 1.046c.665 0 1.143-.1 1.468-.232a1.2 1.2 0 0 0 .593-.432l.029-.054a.06.06 0 0 0-.025-.079m-3.464-1.5a.7.7 0 0 0-.117.196a.3.3 0 0 0-.03.111q-.005.052.012.071q.036.066.1.107l.896-.914h-.275l-.59.429zm.961-.35l-.921.935a.3.3 0 0 0-.036.122q-.002.031.007.046c.004.011.01.018.029.022c.046.014.071.003.082-.007a.14.14 0 0 0 .035-.05v-.022l.836-.696l-.028-.35z" clip-rule="evenodd"/><path fill="#000" d="M13.265 8.528a2.2 2.2 0 0 0-.647.061a.06.06 0 0 1-.028-.118c.16-.043.425-.082.682-.064s.528.09.686.286c.15.189.235.414.278.618c.047.203.05.392.043.5a.06.06 0 0 1-.02.041a.06.06 0 0 1-.044.016a.06.06 0 0 1-.057-.065c.007-.1 0-.271-.04-.464c-.04-.206-.127-.4-.253-.568c-.129-.157-.354-.225-.6-.243"/><path fill="#000" fill-rule="evenodd" d="M11.622 9.39c-.06.114-.214.389-.2.539c.16.096.557.314.86.41c.383.122.665-.225.665-.521a.72.72 0 0 0-.172-.475h-1.128zm.136.378a.156.156 0 0 0 0-.31a.155.155 0 0 0 0 .31m.107.271a.107.107 0 1 0 0-.214a.107.107 0 0 0 0 .214m.821-.232a.228.228 0 0 1-.313.215a.23.23 0 0 1-.14-.215c0-.128.1-.228.228-.228c.125 0 .229.1.229.228zm2.118.547c-.021-.2-.025-.643.136-.808c.164-.164.725-.189.985-.178c.079.071.225.303.204.607a.51.51 0 0 1-.325.464c-.214.011-.718.011-1-.085m.304-.429a.16.16 0 0 0 .157-.157a.16.16 0 0 0-.157-.157a.16.16 0 0 0-.154.157c0 .086.071.153.154.153zm.107.268a.107.107 0 1 0 0-.214a.107.107 0 0 0 0 .214m.825-.232a.23.23 0 0 1-.317.214a.23.23 0 0 1-.14-.214a.23.23 0 0 1 .228-.229a.23.23 0 0 1 .229.229" clip-rule="evenodd"/><path fill="#000" d="M16.425 13.525a.644.644 0 0 1-.347.697l-.071-.161a.47.47 0 0 0 .24-.507z"/></g></svg>