<svg xmlns="http://www.w3.org/2000/svg" xmlns:xlink="http://www.w3.org/1999/xlink" width="24" height="24" viewBox="0 0 24 24"><g fill="none"><path fill="url(#tokenBrandedPer0)" d="M12 20.286A9.143 9.143 0 1 0 12 2a9.143 9.143 0 0 0 0 18.286"/><path fill="url(#tokenBrandedPer1)" d="m2.92 10.057l-.029.32c1.36-1.16 4.766-3.234 8.452-3.234c2.988 0 4.703 1.714 5.183 2.594l-.48 3.783l-5.366 2.96l-.394.303v-6.84a1.077 1.077 0 1 0-2.155 0v9.486c.68.314 1.4.548 2.155.685V18.23c2.777-.366 7.428-2.029 7.428-6.612c0-1.743-1.291-3.628-1.977-4.348l-3.6-1.046l-4.051.611l-3.12 1.606z"/><path fill="url(#tokenBrandedPer2)" d="m2.937 9.834l-.034.286c1.971-1.874 5.634-3.269 8.325-3.269C14 6.851 16 8.51 16 10.543c0 2.983-4.406 4.4-6.286 4.668V10a1.143 1.143 0 1 0-2.286 0v10.857a1.143 1.143 0 1 0 2.286 0v-3.44c7.2-1.703 8-5.474 8-6.623c0-1.143-.851-4.794-6.126-4.794c-3.817 0-7.114 2.331-8.651 3.834"/><defs><linearGradient id="tokenBrandedPer0" x1="19.034" x2="3.021" y1="5.987" y2="14.951" gradientUnits="userSpaceOnUse"><stop stop-color="#FD2307"/><stop offset="1" stop-color="#FDB106"/></linearGradient><linearGradient id="tokenBrandedPer1" x1="18.126" x2="9.368" y1="2.995" y2="20.566" gradientUnits="userSpaceOnUse"><stop stop-color="#E67F5E"/><stop offset="1" stop-color="#FCC252"/></linearGradient><linearGradient id="tokenBrandedPer2" x1="9.537" x2="8.245" y1="18.611" y2="21.709" gradientUnits="userSpaceOnUse"><stop stop-color="#FEFEFC"/><stop offset="1" stop-color="#FFC125"/></linearGradient></defs></g></svg>