<svg xmlns="http://www.w3.org/2000/svg" xmlns:xlink="http://www.w3.org/1999/xlink" width="24" height="24" viewBox="0 0 24 24"><g fill="none"><path fill="#3BEBAA" fill-rule="evenodd" d="m11.03 20.47l-8.17-7.84c-.685-.723-1.33-2.554-.385-3.44c.257-.241.688-.64 1.206-1.121C5.02 6.826 6.95 5.035 8.02 4.002c1-.964 2.231-1.298 3.42-.226q1.46 1.325 2.867 2.706l-2.279 6.45l-2.167 2.025l2.21 2.165zm-5.61-9.817L9.924 6.47l2.145 2.102l-4.45 4.228z" clip-rule="evenodd"/><path fill="#02BCE4" fill-rule="evenodd" d="m9.784 10.745l4.442 4.303l-3.253 3.085c-.393.391-.943 1.407 0 2.337c.941.931 2.079.095 2.53-.44l7.699-7.431c.5-.58 1.402-2.286.202-3.471a151 151 0 0 0-3.462-3.281c-.567-.454-2.107-.962-3.724.637a224 224 0 0 1-4.434 4.261m4.516.002l2.219 2.173l2.201-2.06l-2.289-2.16z" clip-rule="evenodd"/><path fill="#01A5E2" d="m14.304 10.74l-2.262 2.153l-2.26-2.153l2.26-2.145z"/></g></svg>