<svg xmlns="http://www.w3.org/2000/svg" xmlns:xlink="http://www.w3.org/1999/xlink" width="24" height="24" viewBox="0 0 24 24"><g fill="none"><path fill="#E61E28" d="M11.985 14.625c.017-.036.056-.015.075 0l.363 4.248l-.4.377l-.42-.377c.12-1.402.364-4.214.382-4.249"/><path fill="url(#tokenBrandedPhb0)" d="m11.165 11.525l.383-.475l.464.985l.471-.985l.383.475l-.854 1.84z"/><path fill="url(#tokenBrandedPhb1)" d="m11.609 10.52l.41-.42l.416.42l-.417.764z"/><path fill="url(#tokenBrandedPhb2)" d="m4.193 10.845l-.372-1.087l7.557 3.179l.481.84l-.657 4.746l-.575-.533l.95-4.213z"/><path fill="url(#tokenBrandedPhb3)" d="m19.807 10.845l.373-1.087l-7.557 3.179l-.481.84l.657 4.746l.575-.533l-.95-4.213z"/><path fill="url(#tokenBrandedPhb4)" d="M9.959 10.314L2 4.75l.793 2.172l7.64 4.283z"/><path fill="url(#tokenBrandedPhb5)" d="M14.041 10.314L22 4.75l-.793 2.172l-7.64 4.283z"/><path fill="url(#tokenBrandedPhb6)" d="m3.611 9.18l-.596-1.653l7.639 4.102l.47.875z"/><path fill="url(#tokenBrandedPhb7)" d="m20.389 9.18l.596-1.653l-7.638 4.102l-.471.875z"/><defs><linearGradient id="tokenBrandedPhb0" x1="11.997" x2="11.997" y1="4.75" y2="19.25" gradientUnits="userSpaceOnUse"><stop stop-color="#E9231E"/><stop offset="1" stop-color="#E42021"/></linearGradient><linearGradient id="tokenBrandedPhb1" x1="12" x2="12" y1="4.75" y2="19.25" gradientUnits="userSpaceOnUse"><stop stop-color="#E53A2D"/><stop offset="1" stop-color="#E82620"/></linearGradient><linearGradient id="tokenBrandedPhb2" x1="2" x2="15.654" y1="4.75" y2="19.526" gradientUnits="userSpaceOnUse"><stop stop-color="#F0341E"/><stop offset="1" stop-color="#E31D26"/></linearGradient><linearGradient id="tokenBrandedPhb3" x1="22" x2="8.346" y1="4.75" y2="19.527" gradientUnits="userSpaceOnUse"><stop stop-color="#F0341E"/><stop offset="1" stop-color="#E31D26"/></linearGradient><linearGradient id="tokenBrandedPhb4" x1="2.346" x2="21.317" y1="4.75" y2="20.095" gradientUnits="userSpaceOnUse"><stop stop-color="#F7691F"/><stop offset="1" stop-color="#E9342A"/></linearGradient><linearGradient id="tokenBrandedPhb5" x1="21.655" x2="2.683" y1="4.75" y2="20.096" gradientUnits="userSpaceOnUse"><stop stop-color="#F7691F"/><stop offset="1" stop-color="#E9342A"/></linearGradient><linearGradient id="tokenBrandedPhb6" x1="2" x2="23.659" y1="4.75" y2="15.504" gradientUnits="userSpaceOnUse"><stop stop-color="#EE511F"/><stop offset="1" stop-color="#EE1B21"/></linearGradient><linearGradient id="tokenBrandedPhb7" x1="20.985" x2="12.841" y1="7.527" y2="12.305" gradientUnits="userSpaceOnUse"><stop stop-color="#EE511F"/><stop offset="1" stop-color="#EE1B21"/></linearGradient></defs></g></svg>