<svg xmlns="http://www.w3.org/2000/svg" xmlns:xlink="http://www.w3.org/1999/xlink" width="24" height="24" viewBox="0 0 24 24"><g fill="none"><path fill="#4D4D4D" d="m17.19 8.994l.921 4.028l1.428-2.917l-.872-3.583zm-12.695 4.8l.839 4.223l1.405-3.24l-.85-3.81L4.495 13.8zm4.172 5.35l.978-.083l.689-3.011V7.633l-1.667 3.695zm5-2.222l.978-.722l.689-3V4.855l-1.667 3.611z"/><path fill="url(#tokenBrandedPhonon0)" d="M8.667 19.145c1.277.316 2.6-.378 2.944-1.556l3.722-12.733c-1.277-.317-2.6.377-2.944 1.555zm-.684-2.656a2.17 2.17 0 0 1-2.65 1.544l2.35-8.855a2.167 2.167 0 0 1 2.65-1.545zm8.334-1.111a2.166 2.166 0 0 1-2.65 1.544l2.35-8.855a2.166 2.166 0 0 1 2.65-1.545zm4.555-3.834c-.317 1.128-1.555 1.795-2.76 1.495l1.121-3.917c.323-1.128 1.561-1.794 2.767-1.494l-1.122 3.916zM2 16.372c1.206.3 2.444-.366 2.767-1.494l1.122-3.917c-1.206-.3-2.445.367-2.767 1.495z"/><defs><linearGradient id="tokenBrandedPhonon0" x1="1.989" x2="22" y1="7.767" y2="7.767" gradientUnits="userSpaceOnUse"><stop stop-color="#F8A8FD"/><stop offset="1" stop-color="#00E2B0"/></linearGradient></defs></g></svg>