<svg xmlns="http://www.w3.org/2000/svg" xmlns:xlink="http://www.w3.org/1999/xlink" width="24" height="24" viewBox="0 0 24 24"><g fill="none"><path fill="url(#tokenBrandedPixel0)" d="M7.334 16.667h5.333V22H7.334z"/><path fill="url(#tokenBrandedPixel1)" d="M12.667 2h2.087C18.754 2 22 5.247 22 9.253c0 4-3.247 7.414-7.253 7.414H7.334v-10h5.333v4.667h2.087c1.313 0 2.58-1.02 2.58-2.334c0-1.313-1.267-2.333-2.587-2.333h-2.08z"/><path fill="url(#tokenBrandedPixel2)" d="M2 11.334h5.333v5.333H2z"/><path fill="url(#tokenBrandedPixel3)" d="M7.334 11.334h5.333v5.333H7.334z"/><defs><linearGradient id="tokenBrandedPixel0" x1="2" x2="22" y1="8" y2="16.425" gradientUnits="userSpaceOnUse"><stop stop-color="#3EFF6E"/><stop offset="1" stop-color="#16DDDE"/></linearGradient><linearGradient id="tokenBrandedPixel1" x1="2.227" x2="23.718" y1="7.409" y2="17.118" gradientUnits="userSpaceOnUse"><stop stop-color="#FF5B3C"/><stop offset="1" stop-color="#FF3196"/></linearGradient><linearGradient id="tokenBrandedPixel2" x1="2" x2="22" y1="8" y2="16.425" gradientUnits="userSpaceOnUse"><stop stop-color="#FF6F3F"/><stop offset="1" stop-color="#FFC546"/></linearGradient><linearGradient id="tokenBrandedPixel3" x1="7.334" x2="12.667" y1="12.934" y2="15.18" gradientUnits="userSpaceOnUse"><stop stop-color="#E059FE"/><stop offset="1" stop-color="#656FFF"/></linearGradient></defs></g></svg>