<svg xmlns="http://www.w3.org/2000/svg" xmlns:xlink="http://www.w3.org/1999/xlink" width="24" height="24" viewBox="0 0 24 24"><path fill="#FC2952" d="M16.438 2H7.611L2.05 9.013l-.05.05l1.925 8.862l8.019 4.019L12 22l8.075-4.019L22 9.12zm1.393 12.444l2.457-3.094l-1.063 4.887zm-10.912.93l3.58 4.513l-5.13-2.556zM9.112 3.2h5.832L12 7.106L9.112 3.194zM12 9.013l4.387 5.487L12 20.044L7.612 14.5zm-5.131 4.512L3.388 9.18l4.5-5.6l3.362 4.456zM17.08 15.43l1.55 1.9l-5.081 2.557zm3.581-6.194l-3.474 4.344L12.8 8.037l3.375-4.456zM6.17 14.4l-1.39 1.737L3.712 11.3z"/></svg>