<svg xmlns="http://www.w3.org/2000/svg" xmlns:xlink="http://www.w3.org/1999/xlink" width="24" height="24" viewBox="0 0 24 24"><g fill="none"><path fill="#E1AA00" d="m8.453 6.706l-.517 1.588l3.294 2.4l-2.618 1.894l-3.082-2.253l1.176-3.63zm.612 0l2.641 1.923v1.694L8.618 8.076zM8.624 13.3l-.006.023l3.088 2.247v-4.51l-3.082 2.235zm.565 1.159l2.511 1.83h.006v2.182l-3.088-2.247l.576-1.765z"/><path fill="#FFC800" d="M15.547 6.706h1.747l1.177 3.641l-3.088 2.241l-2.6-1.9l3.282-2.382zm-3.253 1.923l2.647-1.923l.442 1.37l-3.089 2.242V8.623zm3.083 4.67L12.3 11.066h-.006v4.506l3.089-2.248zm-3.083 2.995l2.518-1.83l.57 1.765l-3.088 2.242v-2.183z"/><path fill="#FFC800" fill-rule="evenodd" d="M12 21.412a9.411 9.411 0 1 0 0-18.823a9.411 9.411 0 0 0 0 18.823M12 22a10 10 0 1 0 0-20a10 10 0 0 0 0 20" clip-rule="evenodd"/></g></svg>