<svg xmlns="http://www.w3.org/2000/svg" xmlns:xlink="http://www.w3.org/1999/xlink" width="24" height="24" viewBox="0 0 24 24"><g fill="none"><path fill="#3B3B3D" d="m7.875 3.25l10.056.438L22 12.613l-5.744 8.137l-10.112-.637L2 10.456z"/><path fill="url(#tokenBrandedPnk0)" d="m7.875 3.25l10.056.438L22 12.613l-5.744 8.137l-10.112-.637L2 10.456zm7.375 5.137l-7.294 3.138l6.231 4.75zm-.85-1.575L8.575 4.345L7.356 9.537zm-1.475 10.65l-6.331-4.45l.156 6.032zm8.063-4.874l-4.313-4.313l-1.138 8.288zm-6.582 5.85L9.07 19.812l6.281.394l-.937-1.768zm5.738-3.894l-4.669 3.425l.925 1.787l3.75-5.212zm-2.207-9.607l-.912 1.838l3.381 3.381zm-1.13-.875l-5.938-.237l4.9 2.106l1.037-1.875zM7 4.906l-4.156 5.169l2.781.581zM5.456 11.67l-2.794-.582l2.913 6.763l-.125-6.181z"/><defs><linearGradient id="tokenBrandedPnk0" x1="20.437" x2=".419" y1="-.812" y2="15.7" gradientUnits="userSpaceOnUse"><stop offset=".08" stop-color="#3E3E40"/><stop offset=".29" stop-color="#5B5B5D"/><stop offset=".74" stop-color="#9D9D9F"/><stop offset=".89" stop-color="#606061"/></linearGradient></defs></g></svg>