<svg xmlns="http://www.w3.org/2000/svg" xmlns:xlink="http://www.w3.org/1999/xlink" width="24" height="24" viewBox="0 0 24 24"><g fill="none"><path fill="url(#tokenBrandedPolyx0)" d="M13.076 12c1.153 0 2.453-.488 2.453-1.765c0-1.229-1.247-1.764-2.453-1.764H9.647V7.294h3.612c1.894 0 3.447.959 3.447 2.941c0 1.983-1.63 2.942-3.447 2.942h-2.436v4.117H9.647V12z"/><path fill="url(#tokenBrandedPolyx1)" fill-rule="evenodd" d="M12 22a10 10 0 1 0 0-20a10 10 0 0 0 0 20m0-1.177a8.824 8.824 0 1 0 0-17.648a8.824 8.824 0 0 0 0 17.649" clip-rule="evenodd"/><defs><linearGradient id="tokenBrandedPolyx0" x1="119.583" x2="119.525" y1="1.612" y2="40.165" gradientUnits="userSpaceOnUse"><stop stop-color="#FF2E72"/><stop offset=".93" stop-color="#4A125E"/></linearGradient><linearGradient id="tokenBrandedPolyx1" x1="12" x2="12" y1="2" y2="22" gradientUnits="userSpaceOnUse"><stop stop-color="#FF2E72"/><stop offset="1" stop-color="#631661"/></linearGradient></defs></g></svg>