<svg xmlns="http://www.w3.org/2000/svg" xmlns:xlink="http://www.w3.org/1999/xlink" width="24" height="24" viewBox="0 0 24 24"><g fill="none"><path fill="#FBF9DC" d="m5.422 9.016l-.27 1.179L6.4 9.892z"/><path fill="#FCF6BB" d="m5.124 11.79l.676 1.967l.703-1.887v-.432L5.15 10.195z"/><path fill="#FCF9D3" d="m5.151 10.19l1.336 1.28l.037-.994z"/><path fill="#F8F7F0" d="m6.4 9.892l-1.243.297l1.362.292z"/><path fill="#F4F2E9" d="m6.394 9.892l-.973-.865l1.152.41z"/><path fill="#312E21" d="m6.519 10.487l-.12-.595l.163-.465l.562.46z"/><path fill="#38382D" d="m7.2 11.19l-.681-.703l.59-.611l.091 1.308z"/><path fill="#FAE8CD" d="m7.195 11.184l-.72.27l.028-.973z"/><path fill="#313126" d="m7.097 9.892l.103 1.297l.897-.357z"/><path fill="#AE7F59" d="m7.081 9.908l-.524-.476l1.097-.243l-.567.719z"/><path fill="#FBF17E" d="m6.81 8.784l-.248.648L7.676 9.2l.097-.19z"/><path fill="#FFF6C0" d="M6.557 9.438L5.42 9.027l1.395-.254z"/><path fill="#FFF2DB" d="m6.178 8.119l-.362-.184l-.395 1.092L6.805 8.8l-.567-.41z"/><path fill="#E7DCA8" d="m5.816 7.946l.103-.487l.167.665l-.27-.184z"/><path fill="#FBE38E" d="m7.227 14.508l-1.443-.762l.708-1.876l.594.503z"/><path fill="#F9EFC5" d="m4.973 16.054l.827-2.313l1.443.756z"/><path fill="#F9EEC6" d="M4.973 17.676v-1.622l1.622.438v.719z"/><path fill="#FDF39F" d="m6.26 15.157l-1.287.897l1.481.503l.908-.054L6.26 15.15z"/><path fill="#F3E27B" d="m7.248 14.432l-1.01.703l.945 1.157h.276z"/><path fill="#443F33" d="m7.178 11.178l-.092.54l-.605-.27z"/><path fill="#3A3416" d="m7.676 11.73l-.509-.579l-.108.552z"/><path fill="#2A2122" d="M7.08 11.697v.676l-.599-.513l.595-.163z"/><path fill="#3D371F" d="m8.092 12.378l-1.033-.01l.552-.682z"/><path fill="#37321D" d="m9.049 12.292l-1.438-.595l.47.725z"/><path fill="#56421E" d="m9.68 12.173l-2.118-.497l1.486.616z"/><path fill="#563918" d="m9.94 12.503l-.907-.217l.638-.113l.27.324z"/><path fill="#3D371F" d="m10.757 12.032l-1.092.14l.232.336l.865-.476z"/><path fill="#E4C568" d="m8.054 12.384l-.973-.022l.135 2.152L9 15.292z"/><path fill="#EDBC69" d="m7.449 16.27l-.238-1.827l1.79.838l-.866 1.027l-.686-.032z"/><path fill="#CCAD5B" d="m9.027 12.286l-.973.098L9 15.28l.88-2.79l-.848-.205z"/><path fill="#BF9F5E" d="m10.697 15.61l-1.713-.329l.892-2.805z"/><path fill="#BB9C5F" d="m10.757 12.027l-.887.476l.811 3.08z"/><path fill="#C19E5C" d="m9.914 16.368l-.936-1.103l-.86 1.043z"/><path fill="#97764B" d="m10.67 15.6l-1.697-.34l.94 1.113l.757.092z"/><path fill="#A67E40" d="m13.367 15.265l-2.702.324v.865l1.243.043z"/><path fill="#C6AC61" d="m10.74 12.022l-.07 3.567l2.725-.313z"/><path fill="#E1BD5F" d="m8.087 10.81l-.898.374l.417.508l.821.189l-.34-1.076z"/><path fill="#FADA7C" d="m10.07 10.178l-1.648 1.698l-.346-1.06l.389-.686l1.605.054z"/><path fill="#FBE88D" d="m10.038 10.184l-1.643-.52l.086.487z"/><path fill="#FBDA50" d="m8.394 9.654l-.74-.46l.167-.302l2.557-1.584l.184.714l-.697.962l-1.46.67z"/><path fill="#FFD243" d="m10.054 10.19l-1.697-.53l1.513-.682l.508.525z"/><path fill="#FAAA26" d="m10.476 9.297l-.455.881l.984-.383z"/><path fill="#FCE273" d="m9.676 12.19l.362-2L8.4 11.875z"/><path fill="#FBDA66" d="M10.979 10.616L9.665 12.2l.368-2.022l.973-.389z"/><path fill="#F9DD80" d="m10.746 12.027l-1.076.157l1.276-1.6L12 10.119l.53.049z"/><path fill="#FBE88D" d="m11.005 9.714l-.038.875l1.044-.47l.08-.07z"/><path fill="#E8CE70" d="m13.027 9.584l-2.303 2.448l2.665 3.244z"/><path fill="#FFEDA5" d="m6.135 18.886l-1.162-1.264l1.211-.346z"/><path fill="#AB8E4D" d="M12.843 16.497h-.92l1.45-1.243z"/><path fill="#D3B053" d="m15.221 16.378l-1.886-1.102l-.497 1.189l2.378-.087z"/><path fill="#E1B857" d="m15.849 14.108l-2.492 1.168l-.324-5.687z"/><path fill="#F69026" d="m15.405 16.519l-2.108-1.243l2.535-1.168l.27 2.41H15.4z"/><path fill="#E88429" d="m18.621 15.519l-2.838-1.465l.314 2.454l1.108-.086z"/><path fill="#AE6328" d="m19.027 15.73l-3.244-1.676L18.216 12z"/><path fill="#F5871F" d="m16.535 11.173l-.752 2.881L18.216 12z"/><path fill="#EFBF61" d="m16.562 11.184l-3.637-1.698l2.859 4.568z"/><path fill="#E88429" d="m18.562 12.178l-2.038-.983l.72-2.74l1.318 3.729z"/><path fill="#FCDB69" d="m15.486 8.524l-2.378 1.087l3.465 1.6z"/><path fill="#F69026" d="m17.265 8.454l-1.8.108l1.08 2.638z"/><path fill="#FCD756" d="m15.503 8.557l-2.557 1.13L14 8.27z"/><path fill="#FAAE32" d="m15.848 6.454l-.356 2.14l-1.487-.335l-.19-.556l1.423-1.849l.61.595z"/><path fill="#F58A1F" d="m15.849 6.443l-.373 2.211l1.27-1.751z"/><path fill="#F5863C" d="m17.265 8.465l-1.762.13l1.21-1.703l.552 1.567z"/><path fill="#CE7637" d="m16.367 6.108l-.508.34l.876.465l-.368-.81z"/><path fill="#D96D27" d="m16.876 5.692l-.52.41l.363.811z"/><path fill="#494341" d="m16.367 6.108l-1.13-.243l.611.594z"/><path fill="#49352E" d="m16.108 4.93l-.865.935l1.14.249l-.27-1.19z"/><path fill="#AC6E32" d="m16.665 4.022l-.298 2.091l.508-.4z"/><path fill="#885C30" d="m16.108 4.935l.265 1.168l.308-2.033l-1.01.438l.443.427z"/><path fill="#E07726" d="m15.67 5.416l-.967-.984l.967.05l.454.453z"/><path fill="#F89D1C" d="M14.703 5.622v-1.19l.983.968l-.454.486z"/><path fill="#FBC244" d="m15.243 5.86l-.54-.238l-1.428.53l.638 1.432z"/><path fill="#E68025" d="m15.06 3.135l-.357 1.297l.989.082l.346-2.011l-.973.627z"/><path fill="#DC8226" d="m16.67 4.07l-.984.449l.341-2.016l.649 1.567z"/><path fill="#F9A943" d="m13.962 4.216l1.098-1.08l-.352 1.323z"/><path fill="#FBB544" d="m14.702 5.622l-.719-1.427l.72.237z"/><path fill="#F9DF65" d="m14 4.195l-1.351-.098l2.07 1.552l-.724-1.46z"/><path fill="#FDE54B" d="m11.492 4.438l-1.249-.19l.46 1.67l2.502.293l1.498-.59l-2.044-1.518z"/><path fill="#FDD94D" d="m9.405 5.373l.844-1.119l.513 1.81L9.4 7.59l-.395-1.178l.395-1.038z"/><path fill="#EBE96E" d="m9.476 4.254l-1.163.59l1.103.534l.833-1.124z"/><path fill="#49352E" d="m8.578 3.54l-.172 1.276l.637-.34z"/><path fill="#E68025" d="m8.746 2l-.162 1.54l.465.946l.07-1.956z"/><path fill="#AE6328" d="m9.556 4.27l-.443-1.74l-.07 1.946z"/><path fill="#B76F3F" d="M10.244 4.254L9.119 2.52l.422 1.751z"/><path fill="#8247E5" d="m7.076 4.632l-1.33 1.33c-.146.146-.205.362-.146.562l.525 1.8c.054.195.205.34.4.395l2.156.54l1.687-1.762l.178.476l-.746.762l.2.681a.57.57 0 0 0 .416.395l1.811.4a.58.58 0 0 0 .52-.146l1.318-1.314a.57.57 0 0 0 .151-.556l-.491-1.806a.58.58 0 0 0-.406-.4l-1.816-.47a.55.55 0 0 0-.54.151L9.437 7.222l-.346-.281l.919-.865l-.227-.735a.56.56 0 0 0-.395-.384l-1.773-.47a.54.54 0 0 0-.54.145"/><path fill="#000" d="M6.432 6.41L7.53 5.309l1.498.4l.4 1.508L8.329 8.32l-1.491-.405l-.4-1.503zm3.914 1.082l1.092-1.103l1.497.406l.4 1.502L12.243 9.4L10.746 9l-.4-1.514z"/><path fill="#C1C1C1" d="m6.74 6.108l-.308.314l.973.659l-.281.195l1.324.919l.325-.346l-.92-.573l.298-.222zm3.946 1.038l-.308.319l.973.66l-.281.194l1.324.913l.325-.34l-.92-.573l.298-.222z"/><path fill="#D92F85" d="M6.054 16.605a.54.54 0 0 1 .53-.551h10.832a.54.54 0 0 1 .53.551v4.844a.54.54 0 0 1-.53.551H6.584a.54.54 0 0 1-.53-.551z"/><path fill="#fff" fill-rule="evenodd" d="M13.081 16.054v3.784h.811v-3.784zm-3.513 2.703a1.082 1.082 0 0 1-1.892.713v1.449h-.811v-3.243h.81v.367a1.081 1.081 0 0 1 1.893.714m-1.892 0a.54.54 0 1 0 1.081 0a.54.54 0 0 0-1.081 0m3.513 1.08c.746 0 1.352-.486 1.352-1.08s-.606-1.081-1.352-1.081s-1.351.486-1.351 1.08s.605 1.082 1.351 1.082m0-.54a.54.54 0 1 0 0-1.08a.54.54 0 0 0 0 1.08m3.957.227l-.984-1.848h.833l.535 1.08l.503-1.08h.832l-1.6 3.243h-.795zm-4.335 1.935c.357 0 .649-.243.649-.54s-.292-.54-.649-.54s-.649.243-.649.54s.292.54.649.54m0-.194c.178 0 .324-.157.324-.346c0-.19-.146-.346-.324-.346s-.324.157-.324.346s.146.346.324.346m-1.838-.703h-.216v-.184h.692c.33 0 .594.244.594.54c0 .298-.265.541-.594.541h-.692v-.194h.216zm.324.708h.054c.211 0 .379-.162.379-.357a.366.366 0 0 0-.379-.356h-.054zm3.649-.351a.4.4 0 0 1-.016.108v.06h-.016c-.087.216-.335.372-.627.372c-.363 0-.66-.243-.66-.54s.297-.54.66-.54c.102 0 .2.015.28.053v-.016h.287v.351h-.286v-.021a.32.32 0 0 0-.281-.173c-.179 0-.325.157-.325.346s.146.346.325.346a.32.32 0 0 0 .286-.178h-.21v-.168zm.206-.335h.162v.686h-.162v.19h1.01v-.341h-.189v.151h-.351v-.276h.28v-.162h-.28v-.248h.351v.14h.19v-.346h-1.011z" clip-rule="evenodd"/><path fill="#312F32" d="m8.08 10.827l-.983-.924L8.4 9.654l.097.508z"/><path fill="#715421" d="m7.654 9.19l-.578.713l1.346-.238z"/><path fill="#37321D" d="M7.605 11.697h-.54v.665z"/></g></svg>