<svg xmlns="http://www.w3.org/2000/svg" xmlns:xlink="http://www.w3.org/1999/xlink" width="24" height="24" viewBox="0 0 24 24"><path fill="#3F4B80" d="m22 6.989l-.043-.678l-.2.564l-1.107.986l-1.286.192l-.379-.357L20.1 6.125l1.15-.35l-1.235.028l-1.8 1.322l-1.643-.122l-.065-.042l-2.364-1.186l-1.4.286l-4.379 3.685l-2.093.679l-.878 1.019h-1.55l-.757 1.345L2 13.097l1.014.157l.958-1.293l1.45.293l-.015 1.393l-.729 1.986l-.428 1.85l-.45.742l1.143-.25l-.128-.771l.97-2.029l1.879-.757l.715-1.214l1.228-.9l2.422.364l2.45-1.093l-.429 1.869h-1.072l-.314 1.367l.929-.636l1.536-.672L16.5 11.59v-.921l.571.693l1.872 1.185l1.071-.507l-.071-2.521l-.293-.986l1.393-.357z"/></svg>