<svg xmlns="http://www.w3.org/2000/svg" xmlns:xlink="http://www.w3.org/1999/xlink" width="24" height="24" viewBox="0 0 24 24"><mask id="tokenBrandedPooh0" width="20" height="20" x="2" y="2" maskUnits="userSpaceOnUse" style="mask-type:luminance"><path fill="#fff" d="M22 2H2v20h20z"/></mask><g fill="none" mask="url(#tokenBrandedPooh0)"><path fill="#337243" d="M2 2h20v20H2z"/><path fill="#FAC736" d="M9.44 11.679c1.153.957 3.106 1.657 3.935 1.889l1-.8c-.057-.072-.171-.25-.171-.404c0-.596.792-1.521.792-2.035s-.421-.786-.421-1.118s.125-.454.125-.747c0-.228-.76-.978-1.14-1.321c.108-.15.311-.51.311-.772c0-.321-.371-.76-.71-.76c-.34 0-.65.268-.65.596c0 .26.214.575.321.7a4 4 0 0 0-.943-.086c-.518 0-1.16.215-1.414.322a2 2 0 0 0 .036-.386c0-.371-.429-.678-.75-.678c-.318 0-.693.228-.693.742c0 .515.457.786.607.947c-.536.768-.236 3.278-.236 3.91"/><path fill="#E39F2E" d="M11.457 12.864c-.714-.321-1.46-.725-2.018-1.186c0-.128-.014-.335-.028-.589c-.061-.993-.161-2.71.264-3.321c-.029-.032-.071-.068-.114-.107c-.197-.168-.493-.425-.493-.84c0-.167.04-.307.107-.414c-.014.243.029.54.214.793q.175.229.297.371c.178.222.264.329.25.472c-.025.21-.047 1.1.189 1.55c0 .082-.014.15-.032.228c-.022.115-.05.25-.05.479c0 .382.168 1.3 1.414 2.564"/><path fill="#000" d="M13.16 5.653c-.32 0-.607.25-.607.554c0 .121.05.257.115.382c.068.125.146.232.2.293c.01.014.01.036 0 .05a.04.04 0 0 1-.043.014a4 4 0 0 0-.936-.082c-.507 0-1.143.207-1.4.314a.04.04 0 0 1-.043-.007a.04.04 0 0 1-.014-.039c.01-.05.036-.2.036-.375c0-.168-.097-.329-.24-.45a.8.8 0 0 0-.464-.19a.66.66 0 0 0-.44.169c-.124.114-.213.289-.213.535c0 .243.107.432.235.579q.111.124.24.228l.121.111c.01.014.014.036 0 .05a2 2 0 0 0-.254.829c-.046.35-.06.753-.057 1.153c.004.404.025.8.047 1.136c0 .06.007.121.01.179c.015.242.025.442.025.571c1.143.94 3.05 1.629 3.886 1.864l.954-.76a1 1 0 0 1-.086-.143a.6.6 0 0 1-.071-.254c0-.157.053-.332.128-.514c.075-.179.179-.368.275-.554l.022-.039c.092-.171.178-.34.25-.493c.071-.168.117-.318.117-.436c0-.25-.1-.435-.203-.607l-.036-.053a2 2 0 0 1-.11-.197a.56.56 0 0 1-.072-.26c0-.172.036-.29.064-.4L14.6 8.8c.032-.104.06-.2.06-.336a.2.2 0 0 0-.031-.09a1 1 0 0 0-.086-.142a4 4 0 0 0-.3-.357q-.34-.368-.71-.704a.04.04 0 0 1-.008-.053a2 2 0 0 0 .193-.336c.064-.14.11-.286.11-.41c0-.15-.085-.33-.214-.476c-.132-.143-.3-.243-.453-.243m-.692.554c0-.354.332-.636.693-.636c.189 0 .375.118.514.272c.143.153.24.353.24.528c0 .143-.058.304-.122.443a2 2 0 0 1-.179.322c.19.171.464.435.69.682c.12.132.228.257.307.368c.035.057.071.107.092.153a.25.25 0 0 1 .036.125c0 .147-.028.25-.057.357l-.004.011c-.032.107-.06.218-.06.379q0 .113.06.225q.064.127.143.246c.107.171.215.375.215.643c0 .143-.05.3-.125.471c-.072.157-.161.325-.25.5l-.022.036c-.1.186-.2.371-.271.55s-.122.34-.122.482a.5.5 0 0 0 .061.214a1 1 0 0 0 .1.165a.04.04 0 0 1-.007.057l-1 .8a.04.04 0 0 1-.036.007c-.832-.232-2.79-.936-3.953-1.896a.04.04 0 0 1-.015-.033q-.019-.383-.035-.767a21 21 0 0 1-.047-1.136c-.003-.404.007-.81.057-1.168c.043-.34.122-.636.25-.836l-.089-.078l-.043-.036a2 2 0 0 1-.207-.204a.95.95 0 0 1-.257-.632c0-.268.1-.464.243-.596a.75.75 0 0 1 .496-.19c.172 0 .368.083.518.215c.154.125.271.307.271.507a2 2 0 0 1-.025.318c.293-.114.88-.293 1.358-.293c.393 0 .682.036.846.06a2 2 0 0 1-.14-.214a1 1 0 0 1-.124-.421"/><path fill="#49573E" d="M7.504 16.093A21 21 0 0 0 7 15.507c.24-.714.569-1.396.979-2.028c-.822 2.239.021 2.539.3 2.732a3.4 3.4 0 0 0-.775-.118m4.142 1.968c-1.071-.947-1.621-2.782-1.764-3.582a7.4 7.4 0 0 0-.364 2.239l-.482.05a.87.87 0 0 0 .214.614c1.393.668 2.268.722 2.396.679"/><path fill="#FAC736" d="M9.086 16.536c.035.25.207.717.289.921a6.1 6.1 0 0 1-1.84-1.368c.515-.01 1.411.354 1.55.447"/><path fill="#49573E" d="M16.982 15.346c-.082-1.057-.871-2.142-1.253-2.55c.153.911.435 2.383.557 3.008l.632-.097c.021-.053.064-.196.064-.357z"/><path fill="#FAC736" d="M17.286 15.8c-.256.35-.57.653-.929.896c0-.507-.09-.789-.09-.896c.158-.057.637-.34.858-.472c.054.108.157.358.157.472z"/><path fill="#000" d="M10.482 7.096c.021.008.036.029.029.05a2.4 2.4 0 0 1-.133.372a.043.043 0 0 1-.07.011a.04.04 0 0 1-.01-.031l.005-.016c.061-.121.108-.286.129-.357c.004-.018.029-.036.05-.029m2.329-.182a.046.046 0 0 1 .05-.032l.3.068c.021.004.035.029.032.05a.043.043 0 0 1-.05.029l-.3-.068a.04.04 0 0 1-.032-.031zm1.982 5.204a.037.037 0 0 1 .053-.018q.35.165.654.404a5.7 5.7 0 0 1 1.857 2.621a.1.1 0 0 1-.01.04a.2.2 0 0 1-.026.035l-.078.075c-.061.054-.15.118-.25.186a5.5 5.5 0 0 1-.686.375a.04.04 0 0 1-.036 0a.04.04 0 0 1-.025-.032c-.246-1.565-.639-2.808-.807-3.243a3.6 3.6 0 0 0-.638-.398a.04.04 0 0 1-.008-.045m.771.546c.34 1 .593 2.028.757 3.072q.46-.219.868-.522a.6.6 0 0 0 .082-.085a5.6 5.6 0 0 0-1.707-2.465"/><path fill="#000" d="M9.44 11.264c.01.022.006.047-.015.057q-.156.096-.304.2a.043.043 0 0 1-.057.004a.04.04 0 0 1-.016-.027a.04.04 0 0 1 .009-.03a2 2 0 0 1 .325-.214q.014-.009.03-.006t.027.016m5.017.293a.04.04 0 0 1 .047-.01l.014.01c.053.068.135.179.203.3a.8.8 0 0 1 .125.39c0 .428-.296.785-.628 1.035a2.5 2.5 0 0 1-.5.293a1.1 1.1 0 0 1-.386.107a6.3 6.3 0 0 1-1.857-.493a16 16 0 0 1-1.515-.703c-.5-.268-.864-.243-.975-.204a.043.043 0 0 1-.053-.021a.04.04 0 0 1 .01-.046l.015-.008c.14-.05.528-.068 1.043.207q.731.39 1.5.7c.625.25 1.3.46 1.832.486c.071 0 .2-.036.35-.1a2.2 2.2 0 0 0 .486-.286c.321-.243.596-.578.596-.968a.8.8 0 0 0-.114-.353a1.6 1.6 0 0 0-.197-.279l-.008-.013l-.002-.016a.04.04 0 0 1 .014-.028m2.743 3.3c.018.018.018.043 0 .057a.7.7 0 0 1-.182.14q-.386.21-.793.374a.043.043 0 0 1-.054-.02l-.004-.017l.003-.015a.04.04 0 0 1 .023-.022a8 8 0 0 0 .778-.372a.7.7 0 0 0 .168-.121l.014-.01a.04.04 0 0 1 .033 0q.008.003.014.01zm-7.707 1.436a4.4 4.4 0 0 0-2.379-.629a.043.043 0 0 1-.046-.035c0-.025.017-.043.039-.047c.44-.025 1.536.071 2.428.643c.022.014.025.036.015.057a.043.043 0 0 1-.057.01"/><path fill="#49573E" d="M11.493 13.157c-.832-.164-2.493-.143-3.222-.114c.148-.33.39-.61.697-.804c-.047-.01-.143-.075-.143-.257c0-.228.275-.578.375-.49c.332.883 2.571 1.65 3.65 1.922a10 10 0 0 0-1.357-.257"/><path fill="#000" d="M8.264 12.964a.044.044 0 0 1 .054-.025a2.46 2.46 0 0 1 1.538 1.66a.04.04 0 0 1-.015.03l-.016.007a.043.043 0 0 1-.05-.029a2.38 2.38 0 0 0-1.497-1.596L8.268 13a.04.04 0 0 1-.004-.031z"/><path fill="#000" d="M8.414 12.736a.043.043 0 0 1 .054-.025c.218.078.55.253.846.535c.335.305.553.717.618 1.165c0 .021-.014.043-.036.046a.04.04 0 0 1-.032-.007a.04.04 0 0 1-.018-.029a1.88 1.88 0 0 0-.592-1.117a2.4 2.4 0 0 0-.83-.523l-.01-.013a.04.04 0 0 1 0-.032m5.247-2.822c-.522 0-.736.286-.775.429c0 .3.468.564.696.564c.229 0 .529-.507.529-.682c0-.179-.222-.31-.45-.31m-.343 1.879a.04.04 0 0 1 0 .057a.33.33 0 0 1-.186.093a.5.5 0 0 1-.184-.001a.04.04 0 0 1-.02-.042c0-.021.025-.036.047-.036a.4.4 0 0 0 .143 0a.25.25 0 0 0 .143-.071a.043.043 0 0 1 .057 0m-1.482-.804a.7.7 0 0 0-.107.147a.043.043 0 0 1-.054.021l-.014-.008a.04.04 0 0 1-.011-.03l.003-.015a.6.6 0 0 1 .122-.172c.057-.057.132-.107.225-.1c.021 0 .04.018.036.043c0 .021-.018.036-.04.036a.22.22 0 0 0-.16.078"/><path fill="#000" d="M13.15 9.646c0-.021.021-.039.046-.035c.25.01.533.039.75.132a.7.7 0 0 1 .283.2a.5.5 0 0 1 .11.332c.004.3-.068.598-.207.864a.9.9 0 0 1-.821.49c-.325 0-.64-.118-.9-.261a2.7 2.7 0 0 1-.582-.429a.04.04 0 0 1 0-.057a.043.043 0 0 1 .057 0c.107.107.314.279.568.414c.25.143.553.25.857.25a.82.82 0 0 0 .75-.446a1.8 1.8 0 0 0 .196-.825a.45.45 0 0 0-.093-.282a.7.7 0 0 0-.25-.175a2.2 2.2 0 0 0-.725-.129a.043.043 0 0 1-.036-.043z"/><path fill="#000" d="M13.582 10.821c.025-.003.047.015.047.036a.92.92 0 0 1-.333.754a.04.04 0 0 1-.031.009a.04.04 0 0 1-.037-.03a.04.04 0 0 1 .004-.032l.01-.012a.83.83 0 0 0 .304-.682c0-.021.015-.043.036-.046zm-1.628-1.228c0 .132-.072.24-.161.24s-.16-.108-.16-.24c0-.136.07-.243.16-.243s.16.107.16.243m2.246-.318c0 .136-.071.243-.16.243s-.161-.107-.161-.243c0-.132.071-.24.16-.24s.161.108.161.24m-2.286-.829c-.257.047-.55.329-.578.347c0-.179.371-.468.478-.472c.107-.007.1.1.1.125m2.004-.107c.186-.032.428.082.45.086c-.025-.107-.322-.214-.397-.19c-.078.022-.057.086-.053.104m-6.454 7.722c0-.022.022-.036.047-.036c.705.086 1.388.3 2.018.629c.017.01.025.035.014.057a.04.04 0 0 1-.026.018a.04.04 0 0 1-.031-.004a5.8 5.8 0 0 0-1.986-.618l-.016-.004a.04.04 0 0 1-.02-.026z"/><path fill="#FAC736" d="M15 15.75a1.09 1.09 0 0 1-1.107 1.079a1.093 1.093 0 0 1-1.1-1.079a1.093 1.093 0 0 1 1.1-1.079c.61 0 1.107.483 1.107 1.079"/><path fill="#000" d="M11.364 12.814a.085.085 0 0 1 .115.036c.15.275.403.714.696 1.16q.4.636.943 1.154a.08.08 0 0 1 .007.114c-.029.036-.082.036-.118.008a6 6 0 0 1-.971-1.186a16 16 0 0 1-.704-1.179a.08.08 0 0 1 .036-.107zm.075.054a.04.04 0 0 0-.023-.02a.04.04 0 0 0-.03.002a.04.04 0 0 0-.02.023l-.002.016q0 .008.004.014c.15.28.403.726.703 1.172q.408.65.965 1.179c.018.017.043.017.057 0a.04.04 0 0 0 .012-.03a.04.04 0 0 0-.012-.028a6 6 0 0 1-.954-1.164q-.375-.567-.7-1.164m2.997 2.21a.08.08 0 0 1-.041-.047a.08.08 0 0 1 .005-.063c.186-.35.25-.85.254-1.34c0-.489-.058-.957-.115-1.235a.08.08 0 0 1 .014-.063a.08.08 0 0 1 .054-.034c.043-.007.09.022.097.065c.057.289.117.768.117 1.268s-.067 1.028-.271 1.414a.086.086 0 0 1-.114.036m.228-2.707a.04.04 0 0 0-.033-.035h-.017a.04.04 0 0 0-.03.016l-.006.016a3.07 3.07 0 0 1-.138 2.617c-.011.022-.004.043.017.054c.018.01.047.004.057-.018c.197-.375.261-.896.265-1.392c0-.497-.058-.972-.115-1.258"/><path fill="#000" fill-rule="evenodd" d="m13.068 15.754l.032.142a.3.3 0 0 0 .075-.035a.1.1 0 0 0 .032-.036v-.036c-.014-.032-.04-.043-.071-.043a.2.2 0 0 0-.072.008zm.05.225a.4.4 0 0 0 .107-.058a.2.2 0 0 0 .06-.071a.12.12 0 0 0-.003-.096a.16.16 0 0 0-.143-.09a.4.4 0 0 0-.139.029l-.029.014l.09.386l.078-.018zm.471-.104a.1.1 0 0 0 .08-.02a.096.096 0 0 0 .026-.116a.096.096 0 0 0-.106-.053a.097.097 0 0 0-.096.093c0 .053.043.096.096.096m0 .079a.18.18 0 0 0 .179-.175a.179.179 0 1 0-.179.178zm.518-.186c.057 0 .1-.043.1-.097a.096.096 0 0 0-.096-.092a.097.097 0 0 0-.097.092c0 .054.043.097.097.097zm0 .078a.18.18 0 0 0 .182-.175a.178.178 0 1 0-.178.179z" clip-rule="evenodd"/><path fill="#000" d="m14.686 15.5l-.032-.157l.082-.014l.04.192l.042.193l-.082.018l-.036-.15l-.193.057l.036.157l-.082.018l-.09-.39l.083-.017l.035.154l.197-.057z"/></g></svg>