<svg xmlns="http://www.w3.org/2000/svg" xmlns:xlink="http://www.w3.org/1999/xlink" width="24" height="24" viewBox="0 0 24 24"><g fill="#181B1E"><path d="M4.312 17.031L15.675 2.344l.987.769L5.306 17.8l-.987-.769z"/><path d="M21.406 9.9L8.92 12.65L2.375 9.875l.488-1.15L9.03 11.35l12.1-2.662l.269 1.218z"/><path d="M11.387 21.137L15.35 2.7l1.219.262L12.612 21.4z"/><path fill-rule="evenodd" d="M8.137 3.25L3.35 9.481l1.719 7.606l6.937 3.513l7.025-3.513L20.656 9.5L15.77 3.25zM16.375 2H7.519L2 9.188l1.981 8.75L12 22l8.125-4.062L22 9.188z" clip-rule="evenodd"/><path d="M19.013 17.906L7.344 3.125l.981-.775l11.669 14.775l-.981.775z"/></g></svg>