<svg xmlns="http://www.w3.org/2000/svg" xmlns:xlink="http://www.w3.org/1999/xlink" width="24" height="24" viewBox="0 0 24 24"><g fill="none"><path fill="#5A1826" fill-rule="evenodd" d="m19.237 3.71l.544 1.243q-.018.045-.007.063c.138.375.294.743.463 1.093l.193.344c.036.064.08.128.123.192c.092.135.185.272.215.42c.075.388-.088.638-.481.763l-.02.011a.04.04 0 0 0-.012.02a.04.04 0 0 0 .007.038a4.53 4.53 0 0 1 .43 4.662a5.74 5.74 0 0 1-2.599 2.512a5 5 0 0 0-.3.146l-.119.06q-.037.018-.037.063l.044.994c0 .03.012.043.043.03l.044-.012a.2.2 0 0 0-.037.094c-.05.05-.07.175-.057.362l.019.588q-.002 1.202-.125 2.393a4.15 4.15 0 0 1-.512 1.806a.04.04 0 0 0 .018.038l.025.006h2.207q.12.002.15.125v.019c.018.1-.05.212-.17.212H6.532s-.143-.05-.143-.15v-.062c0-.1.043-.144.137-.144h.838a.1.1 0 0 0 .018-.03a.06.06 0 0 0 0-.064a2 2 0 0 1-.343-.9a15.7 15.7 0 0 1-.144-3.074a.25.25 0 0 0-.05-.175l.162-1.094q.002-.045-.043-.062a.92.92 0 0 1-.525-.375a1 1 0 0 0-.212-.215a.9.9 0 0 1-.227-.24a1.22 1.22 0 0 1 .025-1.288a.1.1 0 0 1 .063-.05q.168-.064.168.163a.2.2 0 0 1-.037.118q-.236.356-.069.788q.066.17.113-.007c.043-.168.131-.35.312-.374q.197-.03.3.168c.138.275.081.532-.162.763l-.007.012a.04.04 0 0 0 0 .038l.013.012l.319.175a.05.05 0 0 0 .063-.006l.005-.025c.2-.75.532-1.356 1.007-1.812q.037-.038 0-.075a4.8 4.8 0 0 1-1.482-3.313a.03.03 0 0 0-.025.007a.3.3 0 0 0-.1.112c-.187.369-.45.625-.774.763c-1.125.487-1.75-1.207-.832-1.769a.06.06 0 0 0 .025-.031a.06.06 0 0 0 0-.038a1.36 1.36 0 0 1-.125-.893c.044-.282.232-.47.55-.55c.02.062.125.062.313-.025l.106-.02c.1 0 .175-.05.219-.137q.346-.308.768-.362c.125.025.25.075.363.15h.025l.019-.025v-.013a.4.4 0 0 0-.188-.087a.13.13 0 0 1-.062-.044l-.057-.062c-.262-.27-.287-.563-.068-.888q.431-.636.637-1.168l.581-1.475c.194-.488.488-1.044.944-1.307c.562-.312 1.25-.312 1.794.063a.13.13 0 0 0 .125 0a5.24 5.24 0 0 1 3.918-.75c.1.019.175-.012.237-.094a.11.11 0 0 1 .082-.043c.6-.05 1.219.268 1.65.7c.025.018.05.037.08.043c.026 0 .064 0 .082-.012c.975-.388 1.863.031 2.313.968zm-3.419 17.917h-3.062a.03.03 0 0 1-.012-.017v-.011l.003-.006l.003-.004c.125-.193.219-.393.293-.6q.012-.037.05-.037a5.1 5.1 0 0 0 2.332-.4c.043-.019.062 0 .075.044c.062.35.175.675.35.968c.025.038.018.063-.032.063M9 21.564c.188-.237.313-.518.338-.825q.001-.046.05-.037a7.6 7.6 0 0 0 1.862.244a.06.06 0 0 1 .062.03l.313.626l.006.006v.006l-.006.007h-.006l-2.588.006c-.05 0-.062-.019-.025-.063zM6.52 15.39c-.045-.025-.057-.112-.02-.187c.038-.082.107-.132.15-.107c.05.025.057.107.02.188c-.032.081-.1.125-.15.106" clip-rule="evenodd"/><path fill="#F0F3FA" d="M11.818 7.61a3.2 3.2 0 0 0-1.313.043c-.393.087-.687-.025-.893-.338a.1.1 0 0 0-.075-.043a.1.1 0 0 0-.088.03l-.106.113c-.019.02-.031.02-.056.007l-.02-.02h-.012a.03.03 0 0 0-.025.026c0 .019 0 .025-.018.019q-.02 0-.02-.038l.282-.337a.2.2 0 0 1 .094-.057c1.262-.268 2.6-.818 3.475-1.812a21.6 21.6 0 0 0 2.093-2.812a.13.13 0 0 1 .056-.05c.02-.006.044-.013.063-.006c.544.08 1 .3 1.369.668c.012.019.018.038 0 .063a13.5 13.5 0 0 1-3.269 3.668c-.375.288-.881.575-1.537.875"/><path fill="#FFF9FC" d="M14.324 3.097a.09.09 0 0 1-.062-.062c-.013-.025 0-.05.025-.063l.019-.019a.13.13 0 0 0 .05-.062a.13.13 0 0 0-.032-.144a.13.13 0 0 0-.075-.031a4.7 4.7 0 0 0-2.737.343c-.087.038-.15.02-.194-.043a5.34 5.34 0 0 1 3.413-.525v.031z"/><path fill="#FFCCD2" d="M14.325 3.097c-.225.325-.638.856-1.225 1.581a5 5 0 0 1-1.988 1.481c-.48.2-.95.363-1.4.469a.16.16 0 0 1-.156-.05a.08.08 0 0 0-.075-.031a.1.1 0 0 0-.062.043a2.44 2.44 0 0 1-.75.844l-.344-.137a.8.8 0 0 1-.312-.188c-.325-.375-.175-.781.1-1.131c.15-.187.25-.387.318-.587q.255-.808.388-1.157c.156-.4.443-.73.875-.987a.4.4 0 0 0 .125-.119q.037-.039 0-.069c-.013-.012-.013-.025-.007-.03a.06.06 0 0 1 .057-.05l.087-.02q.508.057.894.413l.031.025a.08.08 0 0 0 .075-.025a.1.1 0 0 0 .025-.031q.066-.234.338-.325c.043.062.106.081.187.043a4.8 4.8 0 0 1 1.475-.38a6.2 6.2 0 0 1 1.268.037a.13.13 0 0 1 .114.117a.13.13 0 0 1-.057.12l-.019.013c-.031.018-.038.044-.025.068c.012.032.031.057.063.063"/><path fill="#F5ACB6" d="m9.956 2.96l-.087.018a.06.06 0 0 0-.063.05c0 .007 0 .019.013.031q.038.03 0 .07a.5.5 0 0 1-.125.124c-.432.25-.719.581-.875.981q-.133.35-.388 1.157c-.062.2-.168.4-.318.587c-.275.35-.425.762-.094 1.125a.7.7 0 0 0 .312.187l.338.144q-.561.375-1.206.169c-.182-.056-.375-.119-.52-.25a.21.21 0 0 1-.03-.275c.637-.894.95-1.925 1.356-2.906c.312-.763.812-1.3 1.687-1.212"/><path fill="#FFF9FC" d="m20.324 7.447l.025-.25a.1.1 0 0 0-.025-.082a4.1 4.1 0 0 1-.675-1.012a50 50 0 0 1-.581-1.369c-.344-.862-.9-1.55-1.913-1.3a.9.9 0 0 0-.5.313c0 .006 0 .012-.012.019a.04.04 0 0 1-.038-.007l-.012-.018a.2.2 0 0 1 0-.082c.125-.187.312-.587.544-.637c1.062-.25 1.662.269 2.024 1.194c.375.937.688 1.937 1.275 2.762c.144.2.125.362-.112.469"/><path fill="#FFCCD2" d="M20.324 7.447a1.48 1.48 0 0 1-1.8-.175c-.15-.125-.324-.357-.53-.675q-.05-.077-.126-.032a.1.1 0 0 0-.05.044a.21.21 0 0 0 0 .225c.413.725 1.05 1.263 1.906 1.175c-.03.05-.025.081 0 .094a.25.25 0 0 1 .157.119c.667.97.932 2.162.737 3.324l-.169.344a.037.037 0 0 0 .013.05h.019a.06.06 0 0 1 .037.031q.01.04.05.032c.013 0 .031 0 .044.012c-1.075 2.612-4.156 3.675-6.668 3.731c-.363.019-.638-.062-.975-.088a3 3 0 0 1-.538-.093a17 17 0 0 1-1.175-.394a9 9 0 0 1-1.512-.75a4.63 4.63 0 0 1-1.956-4.393c.025-.156.087-.375.187-.631c.082-.2.163-.413.232-.625a10.2 10.2 0 0 0 3.487-.732c2.018-.812 3.687-2.537 4.893-4.374v.075l.019.018l.019.007a.04.04 0 0 0 .037-.012a.85.85 0 0 1 .5-.32c1-.25 1.563.438 1.906 1.3c.188.475.388.932.581 1.369c.144.325.37.656.675 1.012c.02.02.025.044.025.075z"/><path fill="#76D2E4" d="M5.656 8.272c-.187.08-.287.093-.305.025a6.3 6.3 0 0 1-1.25-1.1A13 13 0 0 1 2.462 4.69c-.063-.125-.113-.12-.163.006c-.062.956-.175 2.375-.062 3.293q.074.666.306 1.331c.056.157.125.307.225.438c.031.05.019.069-.037.075c-.488.038-.607.419-.469.856c.312.988 1.1 1.581 1.875 2.175q.016.007.006.025l-.006.019c-.013.018-.025.025-.05.018q-.666-.309-1.2-.037c-.375.194-.075.662.106.869c.319.362.688.612 1.088.75a.75.75 0 0 0 .38.087c.05-.031.126.013.238.125l.013.019a.05.05 0 0 1-.006.05l-.02.012c-.25.094-.6.3-.468.632c.156.387.494.53.813.75c.33.237.974.318 1.374.25h.032c.006.012.012.018.006.037a.06.06 0 0 1-.025.038c-.125.093-.475.362-.275.556c.144.137.344.206.537.25c.038 0 .057.025.063.062a.4.4 0 0 1-.025.113a.87.87 0 0 1-.606-.213c-.17-.143-.22-.312-.138-.525a.1.1 0 0 0 0-.075a.08.08 0 0 0-.062-.043a2.86 2.86 0 0 1-1.45-.594c-.338-.269-.581-.719-.3-1.125a.09.09 0 0 0-.006-.109a.1.1 0 0 0-.032-.022c-.65-.288-1.23-.675-1.506-1.344a.62.62 0 0 1 .563-.881q.189-.002.05-.144a5.1 5.1 0 0 1-.9-1.156c-.25-.456-.513-1.256.112-1.575a.08.08 0 0 0 .038-.044a.08.08 0 0 0 0-.062a6.3 6.3 0 0 1-.457-2.075a13.6 13.6 0 0 1 .063-2.406c.025-.2.081-.563.225-.713c.075-.068.137-.062.187.032c.775 1.5 1.707 2.937 3.156 3.856m15.418 3.793c.063-.237.188-.5.406-.794c.125-.162.219-.406.294-.73c.081-.363-.1-.657-.462-.688h-.02a.06.06 0 0 1-.02-.028a.06.06 0 0 1-.004-.035c.062-.268.15-.525.244-.775a4.6 4.6 0 0 0 .187-.662c.22-1.237.21-2.504-.025-3.737a.06.06 0 0 0-.063-.013l-.018.013c-.4.5-.625 1.218-1.063 1.75a.17.17 0 0 1-.08-.182l1.124-1.812a.07.07 0 0 1 .094-.025l.018.019q.14.213.175.437a11.3 11.3 0 0 1-.068 3.912a3.5 3.5 0 0 1-.294.882a.1.1 0 0 0 .025.074l.031.02c.381.18.438.562.344.962c-.131.537-.406 1-.825 1.406z"/><path fill="#182A42" d="M13.5 6.028c-.094.088-.175.05-.25-.1c-.057-.125-.175-.144-.363-.081a.12.12 0 0 0-.062.056l-.15.275c-.05.094-.082.088-.082-.025c-.025-.381.182-.506.457-.687a.05.05 0 0 1 .062.012c.175.169.45.238.387.55"/><path fill="#1E82C8" d="M13.25 5.928c.074.15.156.188.25.1q.095.468-.307.644q-.064-.243-.194-.25l.25-.5z"/><path fill="#FFF9FC" d="m20.237 6.11l.212.074c-.012.082.019.144.075.175a.2.2 0 0 0-.093.094z"/><path fill="#182A42" d="M12.999 6.422q.13.007.194.25c-.05.075-.125.106-.226.081c-.056-.019-.08-.05-.062-.113A.6.6 0 0 1 13 6.422"/><path fill="#FFF9FC" d="M11.818 7.61a9.75 9.75 0 0 1-4.362.812a1.3 1.3 0 0 1-.031-.45l.012-.007a1.69 1.69 0 0 0 1.756-.562c0 .031 0 .044.02.044c.012 0 .018 0 .018-.02c0-.012.012-.018.025-.024h.012l.02.019a.05.05 0 0 0 .055 0l.107-.12a.1.1 0 0 1 .087-.03a.1.1 0 0 1 .075.043q.307.469.888.338c.462-.106.9-.125 1.318-.044"/><path fill="#F0F3FA" d="M20.611 12.015c-.012-.012-.031-.019-.043-.012c-.026 0-.044 0-.05-.032c-.007-.012-.02-.025-.038-.025l-.019-.006a.037.037 0 0 1-.012-.05l.168-.344a4.54 4.54 0 0 0-.73-3.33a.3.3 0 0 0-.157-.113c-.031-.013-.037-.044-.006-.094a.4.4 0 0 1 .194-.031c.012 0 .025 0 .037.012a4.03 4.03 0 0 1 .656 4.025M5.144 9.64c-.1-.262-.282-.993.218-.968a.9.9 0 0 0 .488-.113c.237-.144.687-.5.969-.456c.15.019.156.062.025.137c-.32.188-.525.525-.7.844c-.213.394-.5.55-.95.587c-.013 0-.025 0-.032-.012z"/><path fill="#F5ACB6" d="M5.988 8.115a.24.24 0 0 1-.219.138z"/><path fill="#F0F3FA" d="M5.688 9.915c.7-.187.731-1.187 1.412-1.412a.04.04 0 0 1 .044.019a.04.04 0 0 1 0 .043a4.8 4.8 0 0 0-.463 1.431a.6.6 0 0 1-.118.275l-.456.6c-.232.32-.738.613-1.088.35a.7.7 0 0 1-.287-.5c-.088-.65.518-.687.962-.812z"/><path fill="#672835" d="M11.619 11.046a.7.7 0 0 1-.357-.093a.9.9 0 0 1-.3-.275a1.4 1.4 0 0 1-.2-.413a1.66 1.66 0 0 1 0-.962q.068-.235.2-.413a1 1 0 0 1 .307-.268a.73.73 0 0 1 .356-.1c.119 0 .238.037.35.1a1 1 0 0 1 .306.275q.123.17.2.406a1.66 1.66 0 0 1 0 .968c-.05.15-.119.294-.206.407a1 1 0 0 1-.3.275a.74.74 0 0 1-.356.093m4.837.007a.7.7 0 0 1-.356-.094a1 1 0 0 1-.3-.275a1.4 1.4 0 0 1-.2-.412a1.66 1.66 0 0 1 .2-1.375a.9.9 0 0 1 .306-.27a.73.73 0 0 1 .356-.1a.73.73 0 0 1 .356.1a1 1 0 0 1 .3.276q.134.17.2.406a1.66 1.66 0 0 1-.206 1.375a.8.8 0 0 1-.3.275a.66.66 0 0 1-.356.094"/><path fill="#F5ACB6" d="M8.206 8.772c-.069.212-.15.425-.225.625a3 3 0 0 0-.194.624c-.287 1.625.625 3.55 1.956 4.394c.475.3.982.556 1.513.756c.362.138.75.269 1.175.394c.162.044.337.075.537.094c.338.025.613.106.975.087a7.9 7.9 0 0 1-3.893-.75c-2.269-1.081-4.038-3.562-2.707-6.193c0-.013.013-.019.02-.025l.024-.006z"/><path fill="#F0F3FA" d="M11.687 9.565c0 .25.144.45.319.45c.18 0 .325-.2.325-.45s-.15-.443-.325-.443c-.182 0-.325.2-.325.45zm4.125 0c0 .25.143.444.325.444c.18 0 .324-.2.318-.437c0-.25-.143-.444-.325-.444c-.175 0-.318.2-.318.437"/><path fill="#5A1826" d="M16.861 13.046q0 .44-.225.844a2.4 2.4 0 0 1-.624.712c-.276.2-.594.363-.944.475c-.725.226-1.5.226-2.225 0a3.1 3.1 0 0 1-.937-.475a2.3 2.3 0 0 1-.632-.712a1.74 1.74 0 0 1-.225-.844c0-.581.313-1.137.85-1.55a3.44 3.44 0 0 1 2.056-.637a3.44 3.44 0 0 1 2.057.637a1.96 1.96 0 0 1 .85 1.55"/><path fill="#FFCCD2" d="M15.824 14.34q-.62.11-1.25.175a3.5 3.5 0 0 1-1.856-.306c-.44-.188-.8-.527-1.012-.957c-.063-.168-.125-.468-.188-.887c.29-.446.725-.777 1.231-.937a3.7 3.7 0 0 1 1.813-.157c.6.1 1.13.344 1.5.688c.3.269.474.594.518.937c.05.381-.075.769-.362 1.1c-.113.125-.244.25-.394.35z"/><path fill="#F5ACB6" d="M11.518 12.359q.094.626.188.887c.168.425.625.781 1.012.963c.581.268 1.2.375 1.862.306q.621-.064 1.25-.175a3.58 3.58 0 0 1-3.624.075a1.83 1.83 0 0 1-.832-.981a1.3 1.3 0 0 1 .138-1.075z"/><path fill="#672835" d="M12.563 13.252c0 .394.231.713.525.713s.531-.313.531-.713c0-.393-.237-.718-.531-.718s-.531.325-.531.718zm2.006 0c0 .394.237.72.531.72c.288 0 .531-.32.531-.72c0-.393-.237-.718-.53-.718c-.288 0-.532.319-.532.718"/><path fill="#76D2E4" d="M20.687 12.559q1.01.054.662.981c-.218.562-.918 1.012-1.462 1.237a.093.093 0 0 0-.062.106l.024.038c.325.488-.08.981-.475 1.238a3 3 0 0 1-1.3.5a.13.13 0 0 0-.05.094a.1.1 0 0 0 0 .05c.075.218.013.374-.175.48c.094-.293.075-.506-.043-.65a.06.06 0 0 0-.075-.018a.06.06 0 0 0-.032.019a.1.1 0 0 0-.012.037l-.012.137c-.013-.187 0-.312.062-.362c.2.063.769-.075 1-.169c.437-.175.906-.437 1.062-.893c.144-.42-.5-.525-.493-.625a.06.06 0 0 1 .018-.032a2.55 2.55 0 0 0 1.425-.737c.207-.219.431-.412.513-.713c.125-.437-.419-.524-.694-.518a.4.4 0 0 1 .119-.2"/><path fill="#F5ACB6" d="M8.65 14.515c-.013.062-.013.137-.013.219q.01.12-.019.212c-.481 1.544-.169 3.537 1.25 4.444c.225.143.537.243.95.306q.075.01.262.218l.138.675c.006.025 0 .032-.025.032c-1.013-.057-2.05-.182-2.856-.825a.105.105 0 0 0-.119-.009a.1.1 0 0 0-.031.027a.14.14 0 0 0-.031.057c-.032.094 0 .175.08.237c.25.2.526.357.813.475a.065.065 0 0 1 .044.063c-.063.593-.419.987-.981.956c-.456-.031-.7-.363-.781-.794a15.8 15.8 0 0 1-.207-3.412c0-.175.032-.437.088-.8c.144-.875.494-1.75 1.131-2.3c.025-.019.044-.019.069 0z"/><path fill="#FFCCD2" d="M8.65 14.515a8.1 8.1 0 0 0 5 1.593a11.2 11.2 0 0 0 3.362-.568c.2.462.3.95.313 1.462c0 .025.012.044.043.038l.032-.006l.018-.013l.006-.019l.026-.168a20 20 0 0 1-.188 3.25c-.113-.013-.231.062-.35.212q-.217.291-.556.2q-.093-.03-.325-.206a1.2 1.2 0 0 0-.35-.188l-.131-1.163c-.013-.075-.05-.112-.12-.112a.13.13 0 0 0-.112.063l-.012.037l.025.45a.5.5 0 0 1-.219.05a.6.6 0 0 0-.212.038a2.6 2.6 0 0 1-.763.137c-.219 0-.487-.012-.8-.05l.019-.456q.001-.067-.062-.088a.11.11 0 0 0-.125.025a.12.12 0 0 0-.044.088a7 7 0 0 1-.313 1.687q-.074.045-.093-.031a.17.17 0 0 0-.163-.131a.8.8 0 0 1-.587-.344a5.7 5.7 0 0 1-.525-.894a.12.12 0 0 0-.057-.056l-.125-.062l-.156-1.888a.1.1 0 0 0-.031-.062c-.031-.02-.056-.032-.081-.025c-.082.012-.125.062-.125.137c.018.838.087 1.662.212 2.462q-.187-.207-.262-.218a2.5 2.5 0 0 1-.944-.306c-1.425-.907-1.737-2.9-1.256-4.438q.028-.104.019-.218c0-.082 0-.157.012-.219"/><path fill="#FFF9FC" d="m17.45 16.834l-.025.168l-.006.019l-.019.012h-.031c-.031.013-.044 0-.044-.03a3.9 3.9 0 0 0-.312-1.463l.33-.144h.013q.014 0 .023.01a.03.03 0 0 1 .009.021z"/><path fill="#F5ACB6" d="m11.262 19.29l.125.062q.04.019.05.056q.243.489.531.894q.223.308.588.344c.081 0 .138.05.162.125c.013.062.044.068.094.037c-.069.281-.312.8-.65.763c-.631-.075-.862-1.788-.9-2.282m4.069.087l.08.75c0 .025 0 .044-.011.063a.1.1 0 0 1-.05.043a5.3 5.3 0 0 1-2.188.381l-.012-.006v-.012l.187-1.044q.47.058.8.05c.25 0 .5-.05.762-.137a.7.7 0 0 1 .213-.038a.4.4 0 0 0 .219-.05m1.937.7c-.037.406-.225 1.4-.7 1.531q-.298.082-.475-.162a2.67 2.67 0 0 1-.412-1.338c.125.038.237.1.35.188c.156.112.268.187.325.2c.225.062.406 0 .562-.2c.113-.156.231-.225.35-.22"/><path fill="#672835" d="M5.126 21.633a.147.147 0 0 0-.144.15v.044c0 .081.062.169.144.169h.562c.081 0 .138-.075.138-.163v-.037a.16.16 0 0 0-.144-.163z"/></g></svg>