<svg xmlns="http://www.w3.org/2000/svg" xmlns:xlink="http://www.w3.org/1999/xlink" width="24" height="24" viewBox="0 0 24 24"><mask id="tokenBrandedPros0" width="20" height="20" x="2" y="2" maskUnits="userSpaceOnUse" style="mask-type:luminance"><path fill="#fff" d="M22 2H2v20h20z"/></mask><g fill="none"><g mask="url(#tokenBrandedPros0)"><path fill="#333" d="M2 2h20v20H2z"/><path fill="#5901F6" d="M22 2L2 22V2z"/><path fill="url(#tokenBrandedPros1)" fill-rule="evenodd" d="m9.01 15.015l-.039-.038c-2.667-2.668-3.486-6.175-1.828-7.833s5.164-.84 7.832 1.828l.023.024l-.964.969l-.026-.027C11.886 7.815 9.254 7.006 8.13 8.13s-.315 3.757 1.808 5.88l.036.037z" clip-rule="evenodd"/><path fill="url(#tokenBrandedPros2)" fill-rule="evenodd" d="m14.99 8.985l.039.039c2.667 2.668 3.486 6.175 1.828 7.833s-5.165.84-7.832-1.829l-.023-.024l.963-.968l.027.026c2.122 2.123 4.754 2.932 5.878 1.808s.315-3.757-1.808-5.88l-.036-.036z" clip-rule="evenodd"/></g><defs><linearGradient id="tokenBrandedPros1" x1="16.638" x2="10.223" y1="9.899" y2="16.279" gradientUnits="userSpaceOnUse"><stop stop-color="#FBFCFA"/><stop offset=".817" stop-color="#9359FD" stop-opacity=".07"/></linearGradient><linearGradient id="tokenBrandedPros2" x1="9.6" x2="14.562" y1="14.944" y2="10.832" gradientUnits="userSpaceOnUse"><stop stop-color="#01FDFE"/><stop offset="1" stop-color="#01FDFE" stop-opacity=".06"/></linearGradient></defs></g></svg>