<svg xmlns="http://www.w3.org/2000/svg" xmlns:xlink="http://www.w3.org/1999/xlink" width="24" height="24" viewBox="0 0 24 24"><g fill="none"><path fill="#D7A012" d="m9.884 5.179l-4.2 6.295L12 22l6.316-10.526l-4.2-6.295l1.242 6.295h1.48l-4.312 7.895v-7.895h1.353l-1.858-9.448l-.02-.026l-.022.026l-1.858 9.448h1.353v7.895l-4.316-7.895h1.484z"/><path fill="url(#tokenBrandedProteo0)" fill-opacity=".3" d="m9.884 5.179l-4.2 6.295L12 22l6.316-10.526l-4.2-6.295l1.242 6.295h1.48l-4.312 7.895v-7.895h1.353l-1.858-9.448l-.02-.026l-.022.026l-1.858 9.448h1.353v7.895l-4.316-7.895h1.484z"/><defs><linearGradient id="tokenBrandedProteo0" x1="12" x2="12" y1="6.474" y2="19.632" gradientUnits="userSpaceOnUse"><stop stop-color="#fff"/><stop offset=".68" stop-color="#fff" stop-opacity="0"/><stop offset="1" stop-color="#fff" stop-opacity=".5"/></linearGradient></defs></g></svg>