<svg xmlns="http://www.w3.org/2000/svg" xmlns:xlink="http://www.w3.org/1999/xlink" width="24" height="24" viewBox="0 0 24 24"><g fill="none"><path fill="url(#tokenBrandedPts0)" d="M11 2.82A7.6 7.6 0 0 0 6.8 5.6c-.454.68-.734 1.554-2.4 7.48a124 124 0 0 1-2.167 7.22c-.154.28-.26.634-.227.78c.047.247.187.267 1.667.247c2.053-.02 2.5-.107 2.966-.58c.607-.62.827-1.2 1.72-4.567c1.24-4.686 2.02-7.133 2.447-7.7c.793-1.08 2.307-1.146 4.16-1.146c1.56 0 1.6-.18.56 3.467c-.46 1.6-1.927 2.626-4.013 2.8c-.534.04-1.054.133-1.147.213c-.233.193-.22 1.44.02 1.92c.673 1.313 2.333 1.566 3.707 1.6c2.346.066 4.086-1.087 5.273-3.6c.813-1.713 1.053-2.58 1.533-5.46c.24-1.427.627-3.2.867-3.933c.106-.32.18-.667.227-.967c.06-.38-.247-.707-.634-.707h-4.62s-5.1-.006-5.746.154z"/><defs><linearGradient id="tokenBrandedPts0" x1="2.346" x2="23.439" y1="19.76" y2="15.494" gradientUnits="userSpaceOnUse"><stop stop-color="#FD8C30"/><stop offset=".54" stop-color="#C720B6"/><stop offset=".8" stop-color="#9246E2"/><stop offset="1" stop-color="#6966FF"/></linearGradient></defs></g></svg>