<svg xmlns="http://www.w3.org/2000/svg" xmlns:xlink="http://www.w3.org/1999/xlink" width="24" height="24" viewBox="0 0 24 24"><g fill="none"><path fill="url(#tokenBrandedPussy0)" fill-rule="evenodd" d="M12 21.412a9.411 9.411 0 1 0 0-18.823a9.411 9.411 0 0 0 0 18.823M12 22a10 10 0 1 0 0-20a10 10 0 0 0 0 20" clip-rule="evenodd"/><path fill="url(#tokenBrandedPussy1)" fill-rule="evenodd" d="M12 19.94a7.941 7.941 0 1 0 0-15.882a7.941 7.941 0 0 0 0 15.883m0 .295a8.235 8.235 0 1 0 0-16.47a8.235 8.235 0 0 0 0 16.47" clip-rule="evenodd"/><path fill="url(#tokenBrandedPussy2)" fill-rule="evenodd" d="M12 19.353a7.353 7.353 0 1 0 0-14.706a7.353 7.353 0 0 0 0 14.706m0 .294A7.648 7.648 0 1 0 12 4.35a7.648 7.648 0 0 0 0 15.296" clip-rule="evenodd"/><path fill="#EF9819" d="M7.047 6.765v.017l-.082.088h-.012v-.005h-.006v-.006h-.006v-.006h-.006l-.023-.012l-.588-.406h-.006c0 .218.023.412.076.606c.024.077.053.147.094.224a.5.5 0 0 0-.088.082l-.006.006h-.006v-.006h-.012a2.2 2.2 0 0 1-.188-.618a6 6 0 0 1-.064-.611c.294.223.605.44.923.647"/><path fill="#FFC47A" d="M6.912 6.841a4 4 0 0 0 .388.253c.46.253.93.494 1.394.735c.083.047.16.1.236.177a.1.1 0 0 0-.041.03h-.012v.011l-.006.006h-.012v.012l-.006.006l-.03.029h-.011v.018h-.018v.017l-.047.041h-.006l-.005.006v.012l-.047.047h-.012v.006l-.006.006l-.041.047h-.012l-.006.006c0 .006 0 .012-.012.018v.005a.6.6 0 0 0-.135-.123l-.135-.094a1.3 1.3 0 0 1-.224-.236a5 5 0 0 0-.447-.3l-.141-.082c-.224-.135-.435-.265-.665-.382a1 1 0 0 0-.176-.077a.4.4 0 0 0-.1-.023l.106.147a.36.36 0 0 0 .14.265l.207.147q.279.192.57.364c.101.087.17.205.194.336l.018.129v.112a.32.32 0 0 1-.106.164c-.076.06-.059.236-.047.336c.012.059.059.106.106.141c0 .012 0 .018-.012.018l-.006.005l-.006.012H7.73v.018l-.03.023h-.006l-.005.012c0 .006 0 .012-.012.006l-.006.006c0 .012 0 .018-.012.012l-.006.006l-.006.011H7.63a1 1 0 0 1-.318-.676l-.006-.118a1 1 0 0 0-.17-.453a3.2 3.2 0 0 1-.647-.764a1 1 0 0 1-.095-.236a2.3 2.3 0 0 1-.076-.6l.588.412z"/><path fill="#E9852D" d="M7.047 6.765c.165.105.341.211.518.3q.571.286 1.135.588q.247.141.424.317h-.018v.006a.4.4 0 0 0-.094.1L8.93 8a1.2 1.2 0 0 0-.236-.17c-.464-.242-.935-.483-1.394-.736a4 4 0 0 1-.388-.253s.012 0 .018.012h.011q0 .009 0 0v.006h.006l.006.011h.012l.082-.088z"/><path fill="#D4497E" d="m19.059 7.018l-.012.023l-.224.224a.15.15 0 0 0-.17-.03l-.353.147q-1.264.505-2.53 1q-.193.065-.394.094h-.011v-.011l.129-.13v-.011h.006v-.012h.012v-.006l.023-.018q.404-.12.788-.288q.93-.37 1.86-.735l.158-.07q.36-.166.712-.354v.177z"/><path fill="#090906" d="M8.106 7.882a3.7 3.7 0 0 1-.788-.335a5.5 5.5 0 0 1-.635-.388l-.106-.142v-.006c.035 0 .064.012.1.024c.058.018.117.047.176.076c.23.118.441.248.665.383l.141.082c.153.088.306.194.447.3z"/><path fill="#CF3A92" d="M19.059 7.018a2.3 2.3 0 0 1-.342 1.082l-.288.506c-.065.13-.135.27-.164.423l-.006.124c0 .059 0 .1-.012.147a1.5 1.5 0 0 1-.33.712a5.4 5.4 0 0 0-.529.759c-.041.1-.041.188.041.27l.077.082c.047.053.076.118.04.177c-.058.094-.146.176-.252.088h-.006c-.024.13-.024.259-.012.383l-.017.011l-.071.07l-.006.013v-.012h-.012a50 50 0 0 0-.1-.741a.2.2 0 0 0-.023-.065l-.059-.082v-.018c-.012-.012-.006-.018 0-.018c.059-.023.118-.03.159-.076c.07-.077.112-.177.159-.259l.105-.153c.153-.212.324-.43.489-.635a.5.5 0 0 0 .059-.083q.09-.197.105-.411v-.118c.041-.26.127-.51.253-.741a9 9 0 0 0 .53-1.047a.13.13 0 0 0-.024-.141l.224-.218z"/><path fill="#EF9819" d="M6.682 7.159q.4.28.842.488q.283.143.588.235c.059.083.135.159.217.23l.136.094a.5.5 0 0 1 .13.123l.04.07c.024.048.03.095.03.142c-.006.047-.012.088-.006.13v.04c-.012.03-.035.018-.059.012a3 3 0 0 1-.341-.135c-.059-.023-.083-.047-.1-.106s-.012-.117-.012-.176c0-.03-.018-.07-.053-.083c-.059-.017-.118.1-.135.142a.4.4 0 0 0-.035.117c-.012.07-.012.141-.012.206c0 .047.017.094.041.13l.076.135q.034.06.03.13a.24.24 0 0 1-.112.193a2 2 0 0 1-.176-.117c-.053-.041-.1-.089-.112-.147c-.018-.094-.03-.277.047-.336q.075-.066.1-.164a.3.3 0 0 0 0-.112l-.012-.13a.6.6 0 0 0-.194-.335a10 10 0 0 1-.776-.512a.38.38 0 0 1-.142-.264"/><path fill="#FF84B7" d="M18.824 7.265c.035.047.047.094.023.14a5 5 0 0 1-.235.5h-.018l-2.235 2.242h-.012c.03-.082.053-.176.024-.259c-.03-.088-.088-.182-.189-.182c-.064 0-.158-.006-.14-.1c.011-.077.04-.177-.007-.241V9.34l.371-.365l.012-.035l.57-.182c.089-.03.183-.07.26-.118q.297-.191.587-.394a.1.1 0 0 0 .024-.03a.6.6 0 0 0 .047-.158l.135-.077q.187-.104.312-.235a1 1 0 0 0 .135-.135q.009-.015.012-.03v-.006l-.006-.005c-.023-.012-.064.011-.088.023l-.223.141a6 6 0 0 1-.483.294l-.006-.005l-.011.005v-.005l.617-.63v-.012l.353-.147q.09-.034.17.03"/><path fill="#E9852D" d="M6.488 7.265q.232.366.553.659l.094.111c.089.124.147.294.17.447v.13a1 1 0 0 0 .324.676l.118.118a.1.1 0 0 1-.03-.024h-.005l-.006-.001l-.006.001l-.094.095a.5.5 0 0 0-.2-.071a1 1 0 0 0-.177-.018v-.006a.4.4 0 0 0 .118-.253a.21.21 0 0 0-.106-.158c-.094-.06-.223-.036-.323.011a.6.6 0 0 1-.236.047v-.005l.106-.071q.16-.116.294-.259a.36.36 0 0 0 .094-.223c0-.118-.076-.212-.147-.306c-.117-.165-.258-.312-.4-.47a2.4 2.4 0 0 1-.253-.354l.012.006v.006H6.4v-.012c.03-.03.059-.059.088-.076"/><path fill="#FF8CAB" d="m18.294 7.382l.006.006v.006l-.624.63v.005h.012v-.006h.012v.012l-.13.07l-.97.46v.005l.03.006a4.4 4.4 0 0 1-.742.336a2 2 0 0 0-.323.153a.9.9 0 0 0-.236.194a.4.4 0 0 0-.064.1c-.03.058-.06.117-.077.176c-.035 0-.053.018-.059.041a.06.06 0 0 0 .012.059l.053.059c.018.023.018.059.012.088l-.018.07a.13.13 0 0 0 .012.083l.006.035v.006q-.174.18-.353.353a328 328 0 0 1-2.07 2.083q-.27.278-.548.547l-.84.853l-.418.417q-.05.045-.095.094l-.17.177a3 3 0 0 0-.4-.335a.5.5 0 0 0-.118-.06c-.112-.035-.2-.029-.335-.029a.15.15 0 0 1-.094-.035c.006 0 .011 0 .006-.006v-.012l1.488-1.494q.143.03.288.047l.241-.253l-.006-.005h-.006l-.117-.012v-.018h.006l.388-.4c.153 0 .306-.023.453-.059a.6.6 0 0 0 .223-.1q.24-.175.418-.34c.059-.06.13-.119.165-.19c.017-.04.011-.07-.018-.082a.3.3 0 0 0-.13-.035a6 6 0 0 0-.558.018h-.03l-.17.041v-.012l1.982-2h.012l.006-.011v-.006l.047-.042c.012 0 .012-.005.012-.011l.006-.006l.047-.047c.005 0 .011 0 .011-.012l.041-.047h.006c.006 0 .012 0 .012-.012V8.93l.041-.04h.012l.006-.013v-.011l.047-.036l.006-.006c.006 0 .012 0 .012-.011l.04-.047l.004-.001h.003l.012-.005v-.012h.011V8.74l.006-.012l.024-.023h.011l.006-.006v-.012h.017l.004-.003V8.68l-.003-.004V8.67l.03-.029h.011v-.012l.006-.006h.006l.003.001h.003v-.012l.047-.047h.018v-.018l.023-.024l-.012-.011q.4-.007.783-.124l.694-.27z"/><path fill="#090906" d="M17.906 8.059q-.19.089-.37.194a19 19 0 0 1-.671.312a.4.4 0 0 1-.182.017h-.06l-.017-.011q-.018.002 0-.006l1.094-.53c.165-.094.324-.2.483-.306c.082-.058.158-.1.223-.135c.024-.012.059-.035.088-.03l.005.006l.001.007v.005l-.012.03c-.04.053-.088.094-.135.141q-.14.135-.312.23z"/><path fill="#FF79C9" d="M18.635 7.876a9 9 0 0 1-.382.695a2.3 2.3 0 0 0-.188.735q-.019.216-.112.412a.5.5 0 0 1-.053.088c-.165.206-.335.424-.488.635l-.106.153c-.047.083-.088.182-.159.259c-.035.047-.1.059-.153.077q-.019 0-.012.017l.012.018l-.088.023a.1.1 0 0 0-.053.036c-.024.04-.012.117 0 .164l.018.07a862 862 0 0 0-1.894 1.883h-.006l-.006.03l-.03.03h-.005c-.006 0-.012 0-.018-.013c.03-.223.065-.453.117-.676a1 1 0 0 1 .042-.177h-.006a.9.9 0 0 0-.259.26l-.094.117a1.4 1.4 0 0 1-.565.306l-.235.058q-.204.057-.388.16a.2.2 0 0 1-.065.011c-.053 0-.112 0-.176-.012a.5.5 0 0 0-.177 0c.012 0 .006 0 0-.006q.207-.202.4-.417l2.459-2.453v.011c-.036.048-.082.1-.018.148l.106.07c.041.03.088.07.094.118a.3.3 0 0 1-.023.159c.058-.03.152-.094.147-.16c0-.117-.018-.234 0-.352l.017-.059l.06-.147h.017l2.23-2.235l.005-.006h.012l.012-.018v-.006z"/><path fill="#DF6953" d="M14.194 8.17h-.012v.012l-.1.1l-.358-.182a.6.6 0 0 0-.242-.047q-.186.002-.364.047a3 3 0 0 1-.441.065a4 4 0 0 1-.547-.03l-.46-.04q.042-.045.089-.083l.023-.018v-.006h.047l.012-.006h.006l.012-.006l.412.012q.495.004.988-.053l.2-.03a.7.7 0 0 1 .394.083z"/><path fill="#E27147" d="M11.859 7.976h-.012v.006h-.064v.006l-.024.023q-.046.04-.088.083l-.7-.006h-.906l-.177.006v-.006l.142-.153h-.018q-.009 0 0 0l.006-.012l.23-.011q.808.017 1.617.058z"/><path fill="#E57B3A" d="m10.018 7.923l-.012.006v.006h.023l-.14.147v.012a.8.8 0 0 0-.354.1a.6.6 0 0 0-.223.235h-.006a3 3 0 0 0-.294-.353a.7.7 0 0 1 .094-.1l.017-.006l.165.177h.006c.218-.124.47-.194.724-.224"/><path fill="#FFBE84" d="m8.93 8l.082.076q.162.164.294.353a.6.6 0 0 1 .235-.235a.8.8 0 0 1 .353-.1l.17-.006q-.005.098-.005.194a.26.26 0 0 1-.094.1a.8.8 0 0 1-.236.1c-.076.024-.264.059-.135.177l.112.129c.023.03.035.059 0 .094a7.6 7.6 0 0 0-1.524 1.194a.4.4 0 0 0-.005.2a.4.4 0 0 1-.053.236a2 2 0 0 1-.306.435a3 3 0 0 0-.13.17l-.04.112a.3.3 0 0 1-.06.094c-.059.06-.07.13-.023.206l-.13.124l-.023-.018a.3.3 0 0 0-.106 0l.012-.094a.2.2 0 0 1 .04-.1c.019-.024.06-.059.03-.088l-.04-.047a.08.08 0 0 1-.019-.089c.024-.082.077-.153.13-.229a1.5 1.5 0 0 0 .194-.406q.001-.228.035-.453a1 1 0 0 1 .1-.218l.047-.07c.03-.053.03-.13.03-.182a.44.44 0 0 0-.118-.247l-.118-.124h.012c.012-.006.012-.012.012-.018q.018 0 .018-.017q.017 0 .017-.018H7.7l.03-.03v-.011h.011l.006-.012V9.17c.018 0 .024 0 .018-.017c.059.047.117.082.182.117a.14.14 0 0 0 .024.142q.051.08.129.011a.7.7 0 0 0 .165-.27a.07.07 0 0 0-.012-.06a3 3 0 0 1-.094-.164c-.006-.035.041-.023.059-.017a.9.9 0 0 1 .235.152h.006a.7.7 0 0 1-.012-.176q.01-.097.118-.07a.4.4 0 0 0 .17 0a.02.02 0 0 0 .012-.012a.2.2 0 0 0 0-.118a.3.3 0 0 0-.082-.147a.3.3 0 0 0-.03-.141l-.04-.07l.005-.007c.012 0 .012-.011.012-.017h.006l.011-.006l.042-.047V8.24h.017l.041-.047v-.006l.006-.006h.012l.041-.047v-.012h.018v-.017h.012l.006-.006l.029-.03V8.06h.018v-.02h.017A.1.1 0 0 1 8.93 8"/><path fill="#FFA288" d="M13.724 8.1v.006l-.977.982q-.016.008 0 .006V9.1a1.8 1.8 0 0 0-.44-.041c-.03 0-.066 0-.107-.012a.48.48 0 0 1-.282-.141h-.006a2 2 0 0 1-.276.017h-.106l-.112-.011h-.006q-.024-.001-.047 0v-.006l.03-.012h.017a.06.06 0 0 0 .018-.035l.706-.718q.345.044.694.024l.294-.065c.117-.03.235-.047.365-.047q.121 0 .235.047"/><path fill="#F2518F" d="M17.906 8.059a.6.6 0 0 1-.047.159q-.3.217-.612.423a1.5 1.5 0 0 1-.258.118a8 8 0 0 1-.848.259c-.1.03-.194.088-.282.147c-.035.017-.176.117-.13.164h.218a.12.12 0 0 1 .089.036c.047.064.017.164.005.235c-.017.1.077.106.136.106c.1 0 .164.094.194.182c.03.089.006.177-.024.26l-.076.21c-.018.107 0 .236 0 .348c0 .065-.088.13-.141.159a.3.3 0 0 0 .017-.153c0-.053-.053-.094-.094-.118a2 2 0 0 1-.106-.076c-.058-.047-.017-.1.018-.147l.07-.089a.3.3 0 0 0 .054-.03q.12-.099.217-.223a.8.8 0 0 0-.235.012c-.059.012-.112.041-.165.065c-.023.012-.065.023-.082 0A.15.15 0 0 1 15.8 10c0-.041.018-.088.036-.135a4 4 0 0 1 .135-.336c0-.035-.012-.058-.053-.064c-.059-.012-.118.059-.135.112l-.024.058a1.4 1.4 0 0 1-.318.324c-.04.018-.047-.03-.047-.059l.012-.118a.1.1 0 0 0-.017-.058a.44.44 0 0 0-.2-.183l.076-.176a.4.4 0 0 1 .065-.106a.9.9 0 0 1 .235-.194q.149-.09.324-.153q.386-.133.74-.336l.054.006c.058.012.123 0 .182-.017l.235-.106q.407-.19.806-.4"/><path fill="#FFAE75" d="m10.97 8.088l.006.006V8.1l-3.4 3.418v.005l-.005.012l-.006-.006c-.047-.076-.036-.147.023-.206a.4.4 0 0 0 .059-.094l.041-.111q.061-.091.13-.177c.117-.13.235-.27.306-.43a.4.4 0 0 0 .052-.235a.4.4 0 0 1 .012-.2q.323-.33.641-.664q.105-.096.224-.177q.306-.15.606-.312a.2.2 0 0 0 .053-.04c.03-.03.017-.065-.006-.095a1 1 0 0 0-.112-.13c-.13-.117.059-.152.135-.176c.083-.023.165-.059.236-.1a.26.26 0 0 0 .094-.1v-.194z"/><path fill="#FFA97E" d="m10.971 8.088l.7.006l.459.041l-.706.724a.06.06 0 0 1-.018.035h-.011l-.03.006v.006h.053v.006l.112.006h-.265c-.194 0-.394.017-.582.07l-.453.135a1 1 0 0 0-.235.177q-.09.086-.03.2c.018.03.041.047.047.076q.037.09.012.177c0 .012-.006.03-.018.035l-.04.041c-.024.036-.018.083.017.106q.113.087.165.218q-.009-.017-.018-.006l-1.024 1.035v.012a.08.08 0 0 0-.082-.059a1.6 1.6 0 0 0-.459-.212l-.13-.017a.1.1 0 0 0-.029-.036a.06.06 0 0 0-.076 0c0 .012-.012.018-.024.03a.1.1 0 0 0-.035.023c-.059.065-.094.177-.03.26l.189.2q.152.161.341.282v.006h-.012l-.27.276l-.106-.059c-.024-.012-.059-.023-.077.006q-.044.087.018.147l.035.035q-.198.217-.411.418a.43.43 0 0 1-.06-.212v-.076a.3.3 0 0 0-.035-.124c-.023-.047-.058-.094-.064-.14l-.018-.136c-.006-.083-.035-.153-.106-.194c-.035-.024-.065-.042-.094-.077v-.012h.006l3.4-3.423v-.012z"/><path fill="#FF9A94" d="m13.724 8.1l.088.035l.27.147l.06.036l-.907.905a1.8 1.8 0 0 1-.394-.094l-.094-.03c-.012 0-.012-.005 0-.005v-.006l.97-.982h.007z"/><path fill="#DA5A67" d="M14.194 8.17c.141.071.283.142.442.189c.076.023.153.03.235.03q.326-.005.641-.089v.006H15.5v.03l-.135.129v.006l.006.011q-.407.056-.812-.006q-.153-.03-.294-.1l-.13-.058l-.058-.036z"/><path fill="#090906" d="M8.665 8.541a.34.34 0 0 1 .088.147c.012.041 0 .077-.006.118a.02.02 0 0 1-.012.012a.3.3 0 0 1-.17 0c-.071-.018-.112 0-.118.07c0 .047 0 .106.012.177a1.2 1.2 0 0 0-.236-.153c-.023 0-.07-.018-.064.017q.044.084.094.165q.017.028.006.065a.7.7 0 0 1-.16.265c-.052.047-.093.04-.129-.012a.14.14 0 0 1-.023-.135q.104-.062.112-.195a.24.24 0 0 0-.03-.129a2 2 0 0 0-.076-.135a.26.26 0 0 1-.041-.13c0-.064 0-.135.011-.2a.4.4 0 0 1 .036-.123c.017-.041.082-.16.135-.141c.035.011.047.053.053.082c0 .059 0 .118.012.176c.017.06.047.083.1.106c.111.053.223.094.34.136c.024 0 .048.017.06-.012v-.17z"/><path fill="#FF959D" d="m14.135 8.318l.13.058c.094.047.188.077.294.1q.216.044.435.042v.005l-.023.024v.012h-.012l-.006.006l-.041.04v.018l-.003.003h-.005l-.004-.003h-.006v.012l-.011.006h-.006l-.024.03v.005l-.006.006h-.012V8.7h-.017l-.03.03v.011h-.011l-.006.006v.012h-.012v.006l-.047.04v.007c0 .006 0 .011-.012.011h-.006l-.041.042v.011l-.012.006h-.011l-.036.047v.006l-.017.012l-.047.041v.006c0 .006 0 .012-.012.012h-.006l-.041.047c0 .012-.006.012-.012.012h-.006l-.041.047q-.002.017-.012.017h-.012l-1.988 2l.006.012l-.023.006l-.177-.024c-.03 0-.024.06-.018.083q-.287.089-.564.206l-.053.029a.7.7 0 0 0-.177.13q-.087.078-.076.176c.023.03.053.059.088.07l.13.036q.256.043.517.035c0 .012-.006.012-.018.018c0 .006 0 .011-.011.017l-.36.383a2 2 0 0 1-.405-.083c-.041-.017-.077-.04-.118-.053a2.4 2.4 0 0 0-.523-.1a.2.2 0 0 1-.1-.117L12.7 9.759l.006-.012V9.74c.13-.059.253-.118.365-.206c.1-.07.194-.176.223-.294l-.006-.012l-.053-.006z"/><path fill="#FFAF9B" d="m12.2 9.047l.012.006v.006l.006.006v.006l-.024.023V9.1l-.218.218l-.005.011q-.963.967-1.93 1.93c-.011-.047-.041-.082-.07-.118c-.018-.035 0-.059.029-.082a.3.3 0 0 0 .059-.059c.041-.07.018-.177-.059-.212c-.023-.017-.023-.047-.018-.076c.018-.041.048-.06.083-.083q.019-.008.03-.053l.028-.082q.21-.202.412-.412L11.66 8.93l-.024-.005q.143.001.283-.018a.45.45 0 0 0 .282.141"/><path fill="#FFB394" d="M11.53 8.918h.105c.006.011.018.011.024.011c.011 0 .017 0 .006.012l-.018.024a3 3 0 0 0-.13.13l-.117.117q-.637.641-1.277 1.282c0-.041.018-.112.036-.206a.26.26 0 0 0-.012-.135a.5.5 0 0 0-.165-.218c-.035-.023-.04-.07-.017-.106l.04-.04a.1.1 0 0 0 .018-.036a.26.26 0 0 0-.011-.177c-.006-.029-.03-.047-.047-.076q-.061-.114.03-.2q.104-.106.234-.177a.3.3 0 0 1 .077-.029l.035-.006l.341-.1c.188-.059.388-.07.588-.07z"/><path fill="#FF8CAB" d="M16.412 8.94c.006.013 0 .024-.006.036l-.37.388a.14.14 0 0 0-.095-.04a1 1 0 0 0-.188.011l-.023-.006c-.053-.047.094-.147.129-.165c.088-.058.182-.117.282-.147l.277-.076z"/><path fill="#FFABA2" d="m12.2 9.047l.106.012a2.2 2.2 0 0 1 .44.041l.095.03q.202.069.394.094l.053.005v.012a.54.54 0 0 1-.218.294a1.8 1.8 0 0 1-.694.312q-.157.061-.288.141a.2.2 0 0 0-.059.06a.4.4 0 0 0-.017.193v.006l-.23.07a.3.3 0 0 0-.082.06c-.1.082-.182.194-.27.294a1 1 0 0 1-.16.153l-.182.153a.6.6 0 0 0-.135.147a.35.35 0 0 1-.13.129c-.076.047-.153.076-.164.177l-.006.117c-.006.082-.053.135-.1.2a.3.3 0 0 0-.047.077a.18.18 0 0 0 .011.129a.2.2 0 0 0 .1.118v.006l-.005.005l-.236.236v.035a11 11 0 0 1-.288-.13a2.6 2.6 0 0 0-.512.024l-.264.03h-.265q.09-.101.176-.206l-.023-.012l.459-.035a.5.5 0 0 0 .176-.047l.159-.06q.027 0 .035-.017l.012-.012l-.006-.011c-.023-.036-.1-.06-.147-.071c-.059-.012-.112-.077-.059-.13q.119-.169.212-.352a.1.1 0 0 0 0-.06a1 1 0 0 0 .088-.087l.27-.271q.784-.79 1.572-1.576l.005-.012l.218-.224l.023-.023v-.012c-.011 0-.017 0-.017-.012"/><path fill="#E57B3A" d="M7.747 9.412a.44.44 0 0 1 .118.247c0 .053 0 .13-.03.176l-.047.077a.7.7 0 0 0-.094.223l-.176.177H7.5a.35.35 0 0 0-.159-.17a.4.4 0 0 1-.153-.112a.8.8 0 0 0 .37-.048q.16-.069.16-.253c0-.082-.036-.2-.106-.253l.088-.094h.018z"/><path fill="#090906" d="M16.035 10.282c-.088.024-.182.018-.276.018h-.077c-.04.012-.117 0-.1-.059c.018-.053.06-.1.065-.165q.001-.072-.059-.064c-.035 0-.059.017-.082.035c-.03.018-.059.018-.094.012c-.077-.006-.17-.047-.212-.118a.15.15 0 0 1-.012-.088l.018-.07a.12.12 0 0 0-.012-.083l-.059-.065a.06.06 0 0 1-.006-.058q.008-.036.06-.036a.4.4 0 0 1 .2.177q.015.03.01.064V9.9c-.005.03 0 .076.036.059q.185-.136.318-.324l.03-.058c.017-.06.07-.118.135-.112q.059.011.058.064q-.104.23-.176.47q-.01.054.023.107c.018.023.06.012.083 0c.059-.024.111-.053.17-.059a.5.5 0 0 1 .23-.018a1.1 1.1 0 0 1-.218.224a.3.3 0 0 1-.059.03z"/><path fill="#FF9A94" d="M12.706 9.741v.018l-2.188 2.194a.18.18 0 0 1-.012-.13a.3.3 0 0 1 .047-.076c.047-.059.094-.118.1-.2l.006-.118c.011-.1.088-.129.164-.176a.35.35 0 0 0 .13-.13a.6.6 0 0 1 .135-.146l.183-.154a1 1 0 0 0 .158-.152c.088-.1.177-.212.27-.295a.3.3 0 0 1 .083-.058a1 1 0 0 1 .235-.077c-.011-.059-.017-.141.012-.194a.2.2 0 0 1 .06-.059a1.5 1.5 0 0 1 .428-.176l.195-.07z"/><path fill="#FF84B7" d="M15.2 9.941c.042.07.136.112.212.118q.051.008.094-.012c.024-.018.047-.035.083-.035c.04-.006.064.018.058.059c0 .07-.047.117-.058.176c-.024.059.058.059.094.059l.076-.006c.094 0 .188.006.277-.018l-.07.088v-.017q0-.009 0 0h-.007q-.23.24-.47.47l-2.383 2.406c.006 0 .012.006 0 .012c-.117.03-.223.141-.317.253l-.177.212a1.2 1.2 0 0 1-.188.2c-.253.223-.53.423-.824.576c-.1.047-.194.088-.294.118a.8.8 0 0 1-.282.035l-.159-.011l-.147-.13q.128-.133.259-.264l.412-.418q1.91-1.923 3.823-3.841a.06.06 0 0 1-.012-.036z"/><path fill="#E27147" d="M7.694 10.135q-.039.171-.03.347c0 .036 0 .07-.01.1a1.5 1.5 0 0 1-.195.412a.7.7 0 0 0-.13.224q-.016.043.018.088l.041.047c.036.03-.011.059-.029.088a.2.2 0 0 0-.041.1l-.012.094l-.041.106a.4.4 0 0 0-.018.177c0 .017 0 .035.012.053c.035.076.059.164-.059.188c-.094.023-.194.047-.235.159a.3.3 0 0 0-.012.094c0 .17.035.339.106.494h-.012l-.088.088h-.035l-.118-.459a.6.6 0 0 1 0-.235c.024-.13.118-.218.235-.265l.024-.011v-.012c0-.077 0-.147.012-.224a.3.3 0 0 1 .023-.065a.5.5 0 0 0 .041-.153l.006-.123c0-.176.036-.365.141-.512a.5.5 0 0 1 .077-.088c.106-.112.212-.288.176-.441a.5.5 0 0 0-.04-.094h.017z"/><path fill="#FFA288" d="M10.147 10.153a.3.3 0 0 1 .012.135l-.036.206l-.029.082q-.01.044-.03.053a.2.2 0 0 0-.082.083c-.005.03 0 .059.024.076c.07.035.094.141.053.212a.3.3 0 0 1-.059.059c-.023.017-.047.047-.03.076c.03.042.06.077.071.124v.059a3 3 0 0 1-.211.359c-.053.058 0 .117.058.129a.27.27 0 0 1 .147.07a.02.02 0 0 1 .005.012a.02.02 0 0 1-.005.012a.1.1 0 0 1-.04.018l-.16.058a.6.6 0 0 1-.176.047a7 7 0 0 1-.888.024a.8.8 0 0 1-.283-.1l.27-.27h.007v-.006h.006v-.012l.117.053c.106.041.265.053.353-.047a.2.2 0 0 0 .03-.1a.62.62 0 0 0-.153-.341l-.006-.03v-.018l1.023-1.029h.012z"/><path fill="#39423A" d="M8.435 10.906q.032.057.03.123c-.006.06-.053.136-.124.106q-.044-.016-.053-.076v-.106a.2.2 0 0 1 .018-.053a.1.1 0 0 1 .023-.024a.06.06 0 0 1 .077-.006z"/><path fill="#090906" d="M8.306 10.9a.4.4 0 0 0-.012.159c0 .04.018.059.047.076c.07.03.118-.041.118-.106a.24.24 0 0 0-.024-.123l.13.017c.029 0 .058.012.094.024l.153.065a.5.5 0 0 0-.21.002l-.014.01c-.035.052-.03.135-.023.194l.029.094a.37.37 0 0 0 .247.159a.5.5 0 0 0 .212 0c.059-.006.1-.048.117-.112a.1.1 0 0 0 0-.03a.12.12 0 0 0-.047-.064v-.042a.66.66 0 0 1 .147.341a.14.14 0 0 1-.035.1c-.082.1-.241.089-.353.048a1.8 1.8 0 0 1-.459-.33a5 5 0 0 1-.176-.2c-.07-.076-.041-.194.023-.259a.1.1 0 0 1 .036-.023"/><path fill="#FF8ECF" d="m16.994 10.965l.06.082l.017.059l.03.182l.07.565v.018c0-.012-.012-.006-.018.005l-.006.006q-.134.135-.27.265l-.006.018q.06-.392.03-.788l-.03-.118l-.018-.07c-.012-.048-.023-.119 0-.165a.1.1 0 0 1 .06-.036z"/><path fill="#002D1D" d="M8.812 11.012a.6.6 0 0 1 .106.058l.082.071c-.024.018-.041.03-.047.047a.3.3 0 0 0-.024.141c0 .07.083.095.142.077c.029 0 .047-.024.052-.059v-.082q.035.024.048.064q.003.015 0 .03q-.029.099-.118.117a1 1 0 0 1-.212 0a.35.35 0 0 1-.247-.164a.2.2 0 0 1-.03-.094c0-.06-.011-.142.024-.195a.04.04 0 0 1 .03-.017a.5.5 0 0 1 .194.006"/><path fill="#39423A" d="M13.165 11.082a.73.73 0 0 1-.46.506c.012-.111.03-.223.018-.33a.1.1 0 0 0-.023-.058l-.094-.1q.279-.022.559-.018"/><path fill="#002D1D" d="M12.583 11.1c.005.094.011.183 0 .277c0 .04-.024.07-.053.094a.24.24 0 0 0-.083.088c-.035.094-.117.147-.217.176a.45.45 0 0 1-.483-.147a.8.8 0 0 1-.117-.176l.164-.07q.194-.081.394-.136l.024.124a.4.4 0 0 0 .077.129a.15.15 0 0 0 .146.047c.047-.012.077-.035.083-.082a.5.5 0 0 0-.03-.212c-.011-.035-.07-.059-.105-.059l.023-.012z"/><path fill="#DDEEE0" d="M12.382 11.147c.036.012.095.03.106.065a.5.5 0 0 1 .03.212c-.006.047-.036.07-.083.082a.15.15 0 0 1-.147-.047a.3.3 0 0 1-.076-.13l-.024-.123c0-.03-.011-.082.024-.082a1 1 0 0 1 .17.023m-3.358-.012c.04 0 .07.024.088.06l.006.029l.006.04v.083c-.006.035-.024.059-.06.059c-.052.018-.129 0-.135-.077c0-.053 0-.1.024-.14c.006-.018.024-.03.047-.048h.024z"/><path fill="#FF71D5" d="m16.87 11.259l.03.117l.012.283a3.4 3.4 0 0 1-.147.929h-.018q0-.009 0 0h-.011q-.352.37-.718.724l-.065.058l-.2.206a1 1 0 0 1-.094.094a1 1 0 0 1-.07.07a1 1 0 0 1-.142.142l-.058.059l-.13.13q-.338.33-.665.67q-.05.045-.094.094q-.105.098-.2.206h-.006a1 1 0 0 1-.094.094a1 1 0 0 1-.07.07a1 1 0 0 1-.065.071a1 1 0 0 1-.076.077l-.06.059a1 1 0 0 1-.076.07l-.041.047q-.296.285-.576.583a1 1 0 0 1-.071.07a1 1 0 0 1-.07.07l-.065.06l-.036.035a2 2 0 0 0-.135.135a1 1 0 0 0-.082.088l-.06.06a2 2 0 0 0-.105.105a1 1 0 0 1-.07.07a.7.7 0 0 1-.189.189l-.017.018a4 4 0 0 0-.224.235l-.2.2l.018.006c-.118 0-.236 0-.353.012q-.345.037-.683.117q-.16.06-.317.13q.016-.008 0-.024l.459-.47h-.012c.176-.077.412-.165.612-.23l.082-.018q.087-.027.041-.117c-.024-.036-.059-.118.018-.13c.023-.006.053 0 .076-.017c.059-.018.1-.06.141-.1l.177-.189c.059-.058.1-.1.135-.117c.059-.024.135-.059.23-.083c.04-.017.123-.052.082-.111a.08.08 0 0 0-.077-.036a.08.08 0 0 1-.076-.035c-.03-.041.059-.088.088-.1a.3.3 0 0 1 .065-.012a.4.4 0 0 0 .206-.082l.094-.1c.065-.082.135-.153.212-.224a.3.3 0 0 1 .1-.07c.047-.024.076-.059.059-.118l-.012-.053a.21.21 0 0 1 .088-.247q.417-.285.812-.6a.6.6 0 0 0 .088-.094c.041-.059.059-.123.082-.188c.024-.077.047-.147.124-.183a1 1 0 0 0 .312-.27l.058-.1l.024-.094l.047-.312l.018.018l.035-.036l.006-.023h.011q.94-.946 1.883-1.888z"/><path fill="#39423A" d="M11.577 11.441q.054.054.065.1q.033.09-.03.17a.1.1 0 0 1-.059.042h-.059l-.176-.006q-.01-.097.077-.177a.7.7 0 0 1 .176-.129z"/><path fill="#FFB394" d="M7.565 11.53a.3.3 0 0 0 .1.082c.07.04.1.111.106.194l.018.135c.011.047.04.094.058.141c.03.036.042.077.047.118v.082q0 .115.053.212l.065.13q-.061.052-.118.111l-.252.26a.7.7 0 0 0-.095-.201a1 1 0 0 1-.07-.13a.4.4 0 0 1-.035-.14a41 41 0 0 1 0-.871l.117-.124z"/><path fill="#FFA97E" d="m7.435 11.653l.006.153q-.003.359 0 .717c0 .047.018.1.035.142q.03.066.065.129l-.018.018l-.176.182h-.006q-.129.128-.259.253l.018-.17a.5.5 0 0 0-.035-.177a1.2 1.2 0 0 1-.118-.488c0-.036.012-.065.024-.095c.035-.111.135-.135.235-.158c.117-.024.088-.112.053-.189a.2.2 0 0 1-.012-.047a.4.4 0 0 1 .018-.182c0-.018.017-.053.04-.106a.3.3 0 0 1 .107 0l.023.024z"/><path fill="#CB2EA2" d="M17.277 11.77q.051.44.123.877c.03.241.06.488.077.735v.012h-.012v-.012l-.123.106l-.024-.37l-.147-1.248v-.017h.006v.006h.012l.058-.06l.012-.017z"/><path fill="#FF81E4" d="m17.17 11.87l.148 1.248l.023.37v.124v-.03h-.012l-.723.724q.035-.28.035-.5c0-.106-.012-.212 0-.312c.016-.451.093-.899.23-1.33v-.011l.006-.012v-.006h.005q0 .009 0 0h.012q.14-.13.277-.264"/><path fill="#FFAF9B" d="M8.488 11.947a.7.7 0 0 0 .283.1q.213.026.43.012l.023.006v.017a6 6 0 0 1-.177.189a2.4 2.4 0 0 1-.47-.083a.6.6 0 0 1-.253-.147c-.042-.04-.047-.094-.018-.147c.018-.03.059-.018.076 0a.5.5 0 0 1 .106.059z"/><path fill="#FFA6A9" d="m10.618 12.07l.059.018c.146.012.317.041.458.083c.047.011.083.035.124.052c.017 0 .035.012.047.018q.23.066.47.077l.012.005l.002.006l-.002.006l-.247.247a3 3 0 0 1-.647-.153a2 2 0 0 0-.323-.011a.6.6 0 0 1-.194-.065v-.035l.235-.236v-.006h.006z"/><path fill="#FFA288" d="M8.353 12.076c.07.053.141.089.224.118q.361.098.735.082c.082 0 .176-.017.265-.029l.011.006v.012l-.147.14v.007h.006q.02-.001.012.006a.8.8 0 0 0-.194.082a.4.4 0 0 0-.082.07a.12.12 0 0 0-.036.071a.3.3 0 0 0-.07.165v-.018q.002-.018-.006 0l-.812.806v.006h-.006l-.018.018a1 1 0 0 1-.129-.224a.4.4 0 0 1-.03-.176a7 7 0 0 0 0-.453a.4.4 0 0 0-.058-.142l-.07-.129h.005v-.018l.024-.011q.192-.193.382-.389z"/><path fill="#FF9A94" d="M10.376 12.353c.06.03.13.059.195.059l.005.011h.006l.006.006l-.217.218h-.018c-.035-.059-.106-.07-.177-.077L10 12.548a.25.25 0 0 0-.1-.083a1 1 0 0 0-.141-.046a.5.5 0 0 0-.294 0c0-.006 0-.012-.018 0v-.012l.141-.141v-.012l-.012-.006q.255-.037.512-.024q.14.067.283.13z"/><path fill="#FF8ECF" d="M14.912 13.188q-.037.202-.07.406a.5.5 0 0 1-.06.094a1 1 0 0 1-.311.27c-.077.042-.1.112-.118.19c-.023.058-.047.134-.088.187a3 3 0 0 1-.306.277c-.188.14-.394.282-.588.417a.22.22 0 0 0-.094.247l.012.053c.017.06-.012.095-.06.118a.4.4 0 0 0-.1.07a2 2 0 0 0-.211.224c-.035.047-.07.077-.094.1a.4.4 0 0 1-.206.082a.3.3 0 0 0-.065.012c-.03.012-.118.06-.088.1a.1.1 0 0 0 .076.036c.03 0 .06.011.077.035c.041.059-.041.094-.082.112l-.23.082a.5.5 0 0 0-.135.118l-.177.188a.4.4 0 0 1-.14.1c-.024.012-.054.012-.077.018c-.07.011-.041.094-.018.129q.046.09-.041.118c-.03 0-.059.011-.082.017c-.2.065-.43.153-.612.224c-.065.023-.135.059-.2.076c-.083.024-.17.035-.259.047a3 3 0 0 1-.382-.006a6 6 0 0 1-.512-.235h-.006v-.012q.429-.44.865-.87a.4.4 0 0 0 .053-.06c.023 0 .059 0 .094-.01a.27.27 0 0 0 .147-.06l.623-.411l.095-.089l.294-.3c.088-.094.176-.182.235-.288c.018-.023.03-.047.023-.059c-.011-.094-.117-.059-.164-.03a.2.2 0 0 1-.047.019l-.018-.012c-.012 0-.018 0-.024-.012v-.006l1.618-1.63v-.017l.059-.012q.19-.106.4-.164l.235-.06l.182-.058c.142-.059.271-.135.377-.247a.6.6 0 0 0 .094-.118a1 1 0 0 1 .259-.253l-.041.177c-.047.223-.083.453-.118.676z"/><path fill="#FF959D" d="M10.57 12.412q.209 0 .413.035c.023 0 .047.012.082.024l.194.058l-1.488 1.495v.011h-.006a1 1 0 0 1-.159-.182c-.03.112-.112.2-.223.212c-.136.017-.324-.024-.406.117a1.5 1.5 0 0 1-.418-.235v-.018l.012-.011v-.006l.035-.03l.683-.67l.011.023q.01.043.03.059c.035.03.058.07.088.1l.094.059c.106.059.2.047.294-.024c.059-.04.07-.111.053-.176l-.018-.077c-.017-.105.036-.135.13-.129l.176.012l.124-.006a.165.165 0 0 0 .13-.147c0-.083 0-.177-.048-.253l.018-.006l.206-.224v-.005z"/><path fill="#C44950" d="m10 12.547l.176.024c.07.011.141.017.176.082a.47.47 0 0 1 .042.276a1 1 0 0 1-.236.024c-.129 0-.258-.024-.382 0q-.026-.001-.041.023c-.03.06-.077.153-.047.224a.12.12 0 0 1-.024.118c-.017.023-.047.029-.076.005l-.241-.147c-.024-.011-.036-.005-.042.006l-.135-.147a.3.3 0 0 1-.094-.23a.4.4 0 0 1 .07-.164a.3.3 0 0 1 .077-.053a1 1 0 0 1 .235-.047l.147-.006c.13-.006.277 0 .4.012z"/><path fill="#FF64E9" d="M16.765 12.588c-.07.294-.118.6-.13.906v.312c.001.298-.038.595-.117.882l-.065.16l-.447.881c-.024.042-.047.089-.082.13a.8.8 0 0 0-.112.218a.7.7 0 0 0-.006.217c0 .082 0 .165-.041.235a.4.4 0 0 1-.106.1q-.095.076-.188.153a.15.15 0 0 0-.036.1l.006.165a5 5 0 0 1-1.112.359a29 29 0 0 1-1.458.259a.6.6 0 0 1-.47-.1a.7.7 0 0 0-.313-.1a2 2 0 0 0-.176-.018q.21-.219.423-.435l.018-.018a1 1 0 0 0 .082-.082a1 1 0 0 0 .077-.077l.059-.058a1 1 0 0 0 .07-.071a1 1 0 0 0 .077-.077l.059-.058q.06-.056.117-.118a20.6 20.6 0 0 1 3.06-3.082l.064-.06q.067-.06.13-.129l.029-.035a25 25 0 0 0 .57-.559z"/><path fill="#FFAF9B" d="M8.012 12.624c.03.04.053.088.059.14l.011.118l-.006.342c0 .059.006.117.03.176q.05.114.13.218l.1.117l-.471.477l-.218-.324l-.07-.117a.44.44 0 0 1-.06-.2a.94.94 0 0 1 .112-.46a.2.2 0 0 0 .012-.117z"/><path fill="#FF9A94" d="M9.077 12.806c0 .088.04.165.094.23l.135.146a.1.1 0 0 0 0 .06c-.012-.007-.012-.019-.012-.025l-.006-.005h-.011l-.718.735a1.2 1.2 0 0 1-.224-.206l-.1-.123l.018-.018h.006l.812-.818c.006 0 0-.006 0 0z"/><path fill="#FFA288" d="M7.547 12.794c.041.059.077.13.094.2a.2.2 0 0 1-.017.118a1 1 0 0 0-.106.458c0 .071.023.136.059.2l.07.118l-.447.453c0-.012-.006-.012-.006-.006a.1.1 0 0 0-.012-.07a2 2 0 0 0-.123-.206a.3.3 0 0 1-.047-.106a1.3 1.3 0 0 1 .017-.441a3 3 0 0 0 .06-.26v-.01H7.1v-.007L7.347 13h.006v-.018l.176-.17s0-.012.012-.018z"/><path fill="#DF6953" d="M7.059 12.9q.043.089.041.176l-.017.171a3 3 0 0 1-.077.394a1.4 1.4 0 0 0 .006.312a.2.2 0 0 0 .047.106c.047.07.088.135.118.206q.018.036.011.076l-.017.053a1.2 1.2 0 0 0-.112.306a2 2 0 0 0-.024.477c.006.046.024.082.048.135v.011h-.006l-.1.1v.012q-.009 0 0 0v.012c-.069-.215-.1-.44-.094-.665c0-.064.011-.135.04-.2c.024-.059.054-.123.06-.188c.011-.059-.024-.082-.077-.1a1 1 0 0 0-.147-.047c.088-.059.182-.165.147-.282a1 1 0 0 0-.059-.142a.3.3 0 0 1-.012-.229l.06-.165a.62.62 0 0 0 .029-.435h.03l.093-.088h.018z"/><path fill="#090906" d="M10.394 12.93q-.028.098-.118.117a.4.4 0 0 1-.135.011l-.176-.011c-.089 0-.142.023-.124.13l.018.07c.017.07 0 .14-.06.182a.26.26 0 0 1-.287.024a.4.4 0 0 1-.094-.06l-.089-.1a.1.1 0 0 1-.03-.058v-.053c.013-.012.024-.018.048-.006l.07.041l.177.106c.024.024.053.018.07-.006a.12.12 0 0 0 .018-.117c-.023-.07.024-.165.06-.224c0-.018.017-.023.034-.03c.124-.017.253.012.383.007q.113.002.235-.024"/><path fill="#FF95C5" d="M13.459 13.247v.018l-1.618 1.629v.006l.018.012h.006l.018.011h-.018a.55.55 0 0 0-.26-.058c-.27 0-.529-.071-.74-.236h.159c.1.012.188 0 .282-.03c.1-.029.194-.07.294-.117a4.2 4.2 0 0 0 1.012-.776l.176-.212c.094-.112.194-.223.324-.253a.5.5 0 0 1 .165-.006l.176.012z"/><path fill="#C51BBC" d="M17.477 13.382c.049.483.029.97-.059 1.447q-.188.631-.53 1.194c-.082.147-.176.27-.294.389a3.77 3.77 0 0 1-2.235 1.135q-.627.132-1.264.23v-.012l.005-.006l.018-.018v-.012h.018l.1-.106v-.006l-.012-.006c.37-.058.741-.129 1.106-.205q.58-.114 1.117-.36a4 4 0 0 0 .548-.31q.204-.14.364-.307a4 4 0 0 0 .4-.476c.265-.37.442-.777.512-1.218q.089-.556.07-1.118v-.129l.118-.112h.006v.018h.006z"/><path fill="#FF75F6" d="M17.341 13.612q.018.565-.07 1.123c-.075.44-.25.857-.512 1.218c-.118.17-.26.33-.4.476a2 2 0 0 1-.365.306a3.6 3.6 0 0 1-.553.312l-.006-.165a.16.16 0 0 1 .035-.1q.097-.078.194-.153a.3.3 0 0 0 .1-.1a.4.4 0 0 0 .042-.235c0-.07-.012-.147.006-.218a.7.7 0 0 1 .111-.217c.036-.041.06-.089.083-.13c.159-.294.3-.588.447-.882l.07-.159a2.3 2.3 0 0 0 .083-.382l.723-.724h.006z"/><path fill="#FFA6A9" d="M8.336 13.74c.177.197.4.348.647.442a.35.35 0 0 0-.042.188a.4.4 0 0 1-.011.1c-.024.07-.094.1-.16.118a.7.7 0 0 1-.323.024a.33.33 0 0 0 .13.123c.094.047.223.012.317-.018a.24.24 0 0 0-.017.16c.012.034.035.058.076.058h.088q.088.01.112.1l-.182.176c-.006.012-.018.012-.035.012a.22.22 0 0 0-.077-.176h-.006c0 .07-.012.135-.035.212a.4.4 0 0 0-.012.1l-.012-.018v.018H8.79l-.024.005l-.106.095l-.041-.1a3.4 3.4 0 0 0-.27-.483l-.177-.23l-.306-.435z"/><path fill="#090906" d="M9.765 14.041q.043.035.094.035c.135 0 .223-.006.33.03a.4.4 0 0 1 .123.059c.14.094.306.24.406.329l.147.13c.211.176.47.24.74.235c.089 0 .177.023.26.059l.006.011l-.136.03l-.34.03q-.134 0-.266-.036a32 32 0 0 0-1.223-.312a5 5 0 0 0-.8 0c-.07.018-.141.053-.212.077c-.094.029-.223.064-.318.017a.35.35 0 0 1-.129-.123a.8.8 0 0 0 .324-.024c.07-.018.135-.047.158-.117a.4.4 0 0 0 .012-.1a.5.5 0 0 1 .035-.189c.083-.14.271-.1.406-.117c.118-.012.194-.1.218-.212h.006c.047.065.094.135.159.188"/><path fill="#FF9A94" d="m7.647 13.888l.217.324l.306.435h-.012l-.94.947l-.136-.282c-.024-.059-.041-.088-.047-.135v-.06c-.012-.129 0-.27.023-.411c.024-.118.06-.206.118-.312l.012-.059h.006v.006z"/><path fill="#A02C4D" d="M10.13 14.247c.117.053.235.118.329.218l.211.247a2.2 2.2 0 0 0-.582-.147c-.212-.024-.441-.036-.659-.024a6 6 0 0 1-.364.006c-.012-.07-.024-.235.047-.282a.3.3 0 0 1 .082-.047l.218-.06c.07-.01.153-.088.206-.14a.34.34 0 0 0 .235.14q.115.019.276.09"/><path fill="#F2518F" d="M11.87 14.93h.013a.2.2 0 0 0 .047-.024c.047-.03.152-.065.164.023c0 .018 0 .041-.017.065c-.07.106-.153.194-.236.288q-.193.195-.394.383c-.206.147-.412.276-.623.417a.34.34 0 0 1-.147.06a.9.9 0 0 1-.371-.013l-.5-.117a.22.22 0 0 1-.13-.083a.4.4 0 0 1-.064-.117l-.047-.112a.7.7 0 0 0-.224-.276c-.058-.048-.088-.095-.13-.153a.2.2 0 0 1-.04-.118c0-.041-.012-.077-.018-.118c-.012-.059-.053-.094-.118-.094l-.082-.006a.076.076 0 0 1-.076-.059a.24.24 0 0 1 .017-.158c.07-.024.141-.06.212-.071l.106-.018q.347-.017.694.012l.294.065l.518.141c.135.041.276.077.412.106q.132.035.264.035q.24-.009.477-.059"/><path fill="#FF959D" d="m8.177 14.647l.176.23q.155.23.27.482l-.152.141h-.012l-.006.006v.012l-.1.094v.006a.2.2 0 0 1-.041.035a1 1 0 0 1-.07.07l-.054.053c-.011 0-.011 0-.011.012v.006l-.26.259h-.005l-.006.006v.012l-.253.247l-.247-.389l-.182-.335l.94-.941q0-.009 0 0h.007z"/><path fill="#FF8CAB" d="m9.153 15.035l.017.118c0 .047.012.082.036.117c.047.06.082.106.135.153a.6.6 0 0 1 .223.277l.042.118l-.306.305h-.024c-.059-.058-.088-.123-.13-.211c-.023-.047-.058-.095-.117-.071q-.035.017-.018.059l.03.094c.012.03.017.059.017.106c0 .041.012.07.024.106c.018.035.041.059.07.059v.005h-.005l-.006.012l-.012.012l-.118.135l.06.118l-.06.059v.006h-.005v.011H9l-.27.271v.006l-.19.188l-.14-.023c-.194-.042-.342-.177-.47-.33c-.06-.07-.1-.147-.154-.218l-.123-.2l.247-.247v-.005l.006-.006h.011l.26-.265v-.006l.005-.012h.006l.059-.053l.04-.047a.1.1 0 0 1 .024-.023a.2.2 0 0 0 .036-.036h.006l.094-.1v-.011h.011l.012-.006l.147-.141l.041.1h.018l.118-.118c0 .006 0 .012.012.018c0 .029 0 .082.023.106c.065.064.118.14.17.223c.012.03.012.07.06.076v-.005a.3.3 0 0 0-.018-.224a1 1 0 0 1-.106-.312l.035-.005l.177-.183z"/><path fill="#090906" d="M8.941 15.223q.02.152.1.312c.035.07.042.15.018.224c-.047 0-.047-.042-.059-.07a1 1 0 0 0-.17-.224c-.024-.024-.024-.077-.024-.106c0-.036 0-.07.012-.106a.7.7 0 0 0 .035-.212c.059.047.076.118.082.182z"/><path fill="#DA5A67" d="m7.082 15.312l.142.282a5.6 5.6 0 0 0 .43.724l.123.2v-.006h-.012l-.088.094q-.36-.576-.706-1.159v-.012l.006-.011l.1-.095v-.017z"/><path fill="#FF95C5" d="M9.606 15.812a.5.5 0 0 0 .07.117c.03.041.077.07.13.083q.315.056.624.14h.152q-.462.467-.917.942l-.036-.012a11 11 0 0 0-.311-.165a.4.4 0 0 1-.118-.14a1.4 1.4 0 0 0-.123-.236l-.065-.112l-.002-.006l.002-.006l.141-.147q.155.02.312.012a1 1 0 0 1-.188-.165h.005v.006H9.3z"/><path fill="#D4497E" d="M7.776 16.518c.053.07.1.146.16.217c.123.153.27.294.47.33l.135.023l.765.147c-.042.047-.083.094-.13.13q-.452-.107-.912-.177a.8.8 0 0 1-.429-.341l-.159-.241l.089-.094h.011z"/><path fill="#FF84B7" d="M9.076 16.547q.06.088.13.23a.28.28 0 0 0 .117.14a.5.5 0 0 0 .147.089l.16.076l-.071.06c-.006.011-.012.017-.006.023v.006h-.018l-.082.082v.012l-.141-.03l-.765-.147l.176-.188v-.006h.012L9 16.63v-.011h.012v-.006l.058-.065z"/><path fill="#FF79C9" d="m9.624 17.082l.04.018q.255.127.518.23l.07.011q.29.001.571-.059c.06-.011.136-.047.2-.07h.012v.012l-.459.47c.012 0 .012.012 0 .018a.206.206 0 0 1-.247-.041a2.3 2.3 0 0 0-.4-.295a19 19 0 0 0-.482-.117l.006-.006l.076-.077h.018v-.005c0-.012 0-.018.012-.024z"/><path fill="#CF3A92" d="m9.312 17.235l.135.03q.245.056.488.117c.018 0 .047.024.094.06c.112.07.206.14.3.234q.106.098.247.036l.077-.03l.241-.1q.346-.075.7-.106v.006c-.012 0-.018 0-.018.012v.006h-.012v.012l-.011.006h-.006l-.009.01l-.003.013h-.012l-.005.012c0 .006 0 .012-.012.012l.006.005q.008 0 0 0h-.006c-.006.012-.018.012-.024.006h-.006v.006a2.2 2.2 0 0 0-.411.083l-.354.135a1 1 0 0 1-.258.047c-.094 0-.177-.012-.236-.088a.64.64 0 0 0-.229-.177l-.176-.059l-.636-.159c.047-.035.088-.082.136-.129"/><path fill="#CB2EA2" d="m11.93 17.453l.159.012a.7.7 0 0 1 .317.1l.106.058a.56.56 0 0 0 .353.041q.186-.017.37-.04l-.105.105h-.006v.012l-.014.006l-.01.012h-.006v.017q-.41.06-.823.1c.03-.023.147-.159.07-.194l-.088-.03a2.6 2.6 0 0 0-.741-.082h-.006v-.005c.006 0 .012 0 .012-.012v-.006h.006l.012-.006c0-.012 0-.018.011-.024h.012v-.005l.006-.012h.012c0-.012 0-.018.011-.018h.006v-.006l-.011-.011q.176-.02.352-.012z"/><defs><linearGradient id="tokenBrandedPussy0" x1="12" x2="12" y1="2" y2="22" gradientUnits="userSpaceOnUse"><stop stop-color="#12030F"/><stop offset=".15" stop-color="#9486D7"/><stop offset=".49" stop-color="#080106"/><stop offset=".76" stop-color="#6FAEE2"/><stop offset="1" stop-color="#000508"/></linearGradient><linearGradient id="tokenBrandedPussy1" x1="12" x2="12" y1="2" y2="22" gradientUnits="userSpaceOnUse"><stop stop-color="#864985"/><stop offset="1" stop-color="#202847"/></linearGradient><linearGradient id="tokenBrandedPussy2" x1="12" x2="12" y1="2" y2="22" gradientUnits="userSpaceOnUse"><stop stop-color="#73105F"/><stop offset="1" stop-color="#B8A3D4"/></linearGradient></defs></g></svg>