<svg xmlns="http://www.w3.org/2000/svg" xmlns:xlink="http://www.w3.org/1999/xlink" width="24" height="24" viewBox="0 0 24 24"><g fill="#1347E8"><path d="M12 2a10 10 0 1 0 0 20a10 10 0 0 0 0-20m9.49 9.591h-.808v-.327l.809-.01zm-.208-1.745l-.8.108l-.046-.336l.8-.109zm-.69-2.137l.144.318l-.745.327l-.137-.308zm-1.01-1.527l.227.254l-.609.536l-.227-.254zM18.4 4.909l.254.227l-.527.61l-.263-.22l.536-.608zm-1.419-1.136l.283.181l-.437.682l-.282-.181zm-1.609-.8l.328.09l-.2.782l-.336-.09l.209-.773zM13.6 2.545l.346.026l-.074.8l-.336-.026zm-1.819-.22h.328v.82h-.337v-.82zm-1.509.22l.064.8l-.336.036l-.064-.819zM8.5 2.972l.21.792l-.328.09l-.21-.79zm-1.609.8l.445.682l-.29.182l-.437-.681zM5.481 4.91l.528.61l-.255.227l-.527-.62zM4.3 6.172l.6.537l-.219.255l-.609-.546l.22-.246zM3.281 7.718l.738.328l-.138.308l-.735-.336l.136-.31zM2.646 9.51l.8.11l-.055.335l-.8-.108l.045-.337zm-.255 1.745H3.2v.346l-.819-.009v-.337zm.073 1.9l.808-.09l.028.345l-.8.082zm.364 1.728l.79-.182l.082.319l-.791.181l-.081-.328zm.88 2.054l-.162-.3l.7-.4l.172.291zm1.156 1.428l-.255-.228l.563-.59l.246.236zm1.29 1.154l-.272-.2l.464-.654l.272.2zm1.51 1.01l-.3-.155l.381-.719l.3.155l-.381.727zm1.672.636l-.327-.046l.127-.8l.337.054l-.137.8zm1.464.281v-.809h.336v.81zM3.581 12a8.427 8.427 0 0 1 16.838 0A8.429 8.429 0 0 1 3.58 12m9.083 9.528h-.019l-.072-.8l.336-.037h.018L13 21.5zm1.8-.382l-.137-.792l.327-.063l.146.8zm1.727-.592l-.282-.763l.318-.11l.273.755l-.319.119zm1.527-.936l-.5-.636l.264-.21l.5.637l-.273.21zm1.3-1.272l-.581-.564l.235-.236l.582.563zm1.064-1.364l-.655-.482l.2-.273l.655.482zm.864-1.636l-.764-.255l.118-.318l.764.273l-.12.318zm.48-1.837l-.817-.037l.027-.344l.81.044z"/><path fill-rule="evenodd" d="M12.627 7.624h-1.25A1.875 1.875 0 0 0 9.5 9.5v3.75a1.875 1.875 0 0 0 1.875 1.874h1.25a1.874 1.874 0 0 0 1.876-1.875V9.5a1.875 1.875 0 0 0-1.876-1.875M11.377 7a2.5 2.5 0 0 0-2.5 2.5v3.75a2.5 2.5 0 0 0 2.5 2.5h1.25a2.5 2.5 0 0 0 2.5-2.5V9.5a2.5 2.5 0 0 0-2.5-2.5z" clip-rule="evenodd"/><path d="M12.713 13.953a.313.313 0 0 1 .442.009l1.815 1.888a.312.312 0 0 1-.231.529a.3.3 0 0 1-.22-.096l-1.815-1.888a.31.31 0 0 1-.06-.342a.3.3 0 0 1 .07-.1"/></g></svg>