<svg xmlns="http://www.w3.org/2000/svg" xmlns:xlink="http://www.w3.org/1999/xlink" width="24" height="24" viewBox="0 0 24 24"><g fill="#2E9AD0"><path fill-rule="evenodd" d="M9.069 3.656h5.423L18.87 6.86l1.663 5.162l-1.606 4.898l1.965 1.808l-.377.41l-1.929-1.778l-4.138 2.985H9.025l-4.38-3.208l-1.661-5.162l1.69-5.153zm9.648 12.12l-.53-3.799l.548-3.725l1.213 3.768zm-.66-8.823l-3.11-2.275l1.04 3.06zm-2.219 1.772l-1.475 3.25l1.475 3.205l1.752-3.205zm1.909 4.122l-1.54 2.817l2.057.888zm.3 4.217l-2.065-.892l-1.08 3.159zm-3.774 2.394l1.136-3.327l-3.173.407zm-2.03-3.482l3.163-.406l-1.367-2.968zm1.798-4.637l1.37-3.019l-3.17-.469zm-.298.635l-2.011-3.898l-2.252 3.898l2.251 3.78zm-2.492 4.567L9.18 19.493L7.786 16.13zm-3.487-.973l1.423-3.002l2.031 3.412zm1.087-3.593l-1.516 3.2l-1.68-3.2l1.68-3.246zM7.206 7.73L8.5 4.75L5.46 6.94zm-2.456.644l-1.182 3.603l1.162 3.609l.332-3.61zm.781 4.564l1.436 2.733l-1.763.835zm.004-1.941l-.308-3.553l1.74.788zm-.111 6.02l3.055 2.239l-1.276-3.081zM9.65 19.79h4.175l-2.08-2.983zm-.431-15.3L7.8 7.757l3.448-.473zm.485-.279l2.045 2.815l2.098-2.815zm4.603.312l-2.06 2.766l3.16.468zm-3.085 3.325l-3.463.475l1.425 3.052zm6.532 3.258l-1.542-2.86l2.078-.788z" clip-rule="evenodd"/><path d="M10.337 4.217a1.111 1.111 0 1 1-2.223 0a1.111 1.111 0 0 1 2.223 0m4.992 0a1.111 1.111 0 1 1-2.223 0a1.111 1.111 0 0 1 2.223 0M4.767 8.11a1.112 1.112 0 1 0 0-2.224a1.112 1.112 0 0 0 0 2.224m12.786-1.112a1.111 1.111 0 1 0 2.223 0a1.111 1.111 0 0 0-2.223 0M7.556 9.22a1.112 1.112 0 1 0 0-2.223a1.112 1.112 0 0 0 0 2.223m7.208-1.111a1.112 1.112 0 1 0 2.224 0a1.112 1.112 0 0 0-2.224 0m-3.048.556a1.112 1.112 0 1 0 0-2.224a1.112 1.112 0 0 0 0 2.224M9.226 18.67a1.112 1.112 0 1 1 0 2.224a1.112 1.112 0 0 1 0-2.224m4.991 0a1.112 1.112 0 1 1 0 2.224a1.112 1.112 0 0 1 0-2.224M5.88 17.003a1.111 1.111 0 1 0-2.223 0a1.111 1.111 0 0 0 2.223 0m12.786-1.112a1.111 1.111 0 1 0 0 2.223a1.111 1.111 0 0 0 0-2.223m1.111 3.374a1.112 1.112 0 1 1 2.224 0a1.112 1.112 0 0 1-2.224 0M7.556 14.78a1.112 1.112 0 1 1 0 2.223a1.112 1.112 0 0 1 0-2.223m7.208 1.111a1.112 1.112 0 1 1 2.224 0a1.112 1.112 0 0 1-2.224 0m-.825-5.003a1.112 1.112 0 1 0 0 2.224a1.112 1.112 0 0 0 0-2.224M10.35 12a1.112 1.112 0 1 0-2.224 0a1.112 1.112 0 0 0 2.225 0m7.437-1.112a1.111 1.111 0 1 0 0 2.223a1.111 1.111 0 0 0 0-2.223M6.731 12a1.112 1.112 0 1 0-2.224 0a1.112 1.112 0 0 0 2.224 0m13.562-1.112a1.112 1.112 0 1 0 0 2.224a1.112 1.112 0 0 0 0-2.224M4.223 12A1.112 1.112 0 1 0 2 12a1.112 1.112 0 0 0 2.224 0m7.493 3.335a1.111 1.111 0 1 1 0 2.223a1.111 1.111 0 0 1 0-2.223"/></g></svg>