<svg xmlns="http://www.w3.org/2000/svg" xmlns:xlink="http://www.w3.org/1999/xlink" width="24" height="24" viewBox="0 0 24 24"><g fill="none"><path fill="#4289C7" fill-rule="evenodd" d="M20.92 15.692c.006-2.427-1.115-6.1-5.725-7.274c1.498.368 4.285 1.174 5.383 1.947c-.842-1.15-3.376-3.453-6.785-3.453c.635-.527 1.805-1.718 2.196-2.844a9.49 9.49 0 0 1 5.423 8.59a9.5 9.5 0 0 1-.492 3.034M2.588 12.71v-.053c0-5.236 4.214-9.482 9.412-9.482c1.109 0 2.173.193 3.16.548c-.247.401-.911 1.151-2.272 2.024c-.016-.226-.113-.765-.371-1.119c-.051.246-.418.862-1.47 1.365q-.396.186-.765.344c-.977.428-1.731.758-1.66 1.402c.07.644.548.812.778.815c-.204.061-.66.125-.847-.118c-.285.33-.974.985-1.441.961c-.585-.03-.683-.647-.487-.961c-.79.5-2.18 1.977-1.432 3.876c.806-.49 2.886-1.39 4.75-1.064c.54.095.965.153 1.311.2c1.149.156 1.414.192 2.021 1.042c.79 1.106.031 5.142-4.722 5.491c-3.404.25-5.275-3.058-5.965-5.271" clip-rule="evenodd"/><path fill="url(#tokenBrandedQuick0)" d="M3.67 12.332c0-4.506 3.625-8.158 8.098-8.158c14.892.617-4.523 21.488-8.099 8.158"/><path fill="#191E44" fill-rule="evenodd" d="M5.785 11.845q-.03.038-.058.08c1.829-.3 5.752-.623 6.774.546c1.02 1.169.715 2.031.425 2.731c-.81 1.953-7.188 4.694-10.334-2.59c-.119 3.196 2.62 9.853 10.13 9.361c9.546-.625 6.602-13.03-1.56-12.46l-.07.015c.847.39 1.378 1.036 1.572 1.399c-3.256-.791-5.773.22-6.879.918" clip-rule="evenodd"/><path fill="#0C1D63" d="M12.247 12.212c1.733 1.152 1.5 2.959 1.166 3.718c.39-.422 1.003-.703 1.262-.792c.416.144.904 1.01-.477 3.322c-1.38 2.312-4.264 2.61-5.534 2.47l.833.564l6.19-1.5l1.285-5.563l-4.726-2.279z"/><path fill="#262F72" d="M8.089 13.186c-.6-.055-1.91-.385-2.357-1.263c.995-.651 3.785-1.623 6.986-.295c-.044-.185-.212-.604-.533-.809c.11.02.362.07.485.115c-.102-.17-.376-.565-.655-.78c2.104.293 6.313 1.944 6.313 6.214c0 4.269-3.3 5.474-4.95 5.543c-1.362.227-4.67.157-7.21-1.883a1.5 1.5 0 0 1-.171-.141l.17.141c.528.379 1.823.938 3.972.938c3.047 0 6.773-3.058 5.31-6.403c-.02.316-.353 1.098-1.524 1.702c.413-1.42.228-4.297-3.81-4.449c-1.065-.066-2.962.115-2.026 1.37"/><path fill="#161A3D" d="M18.014 9.67c-1.214-.799-2.324-1.16-2.953-1.289c2.057.247 3.047.688 3.285.877a4 4 0 0 0-.332-.576c.91.321 2.11 1.276 2.597 1.713c-.69-.388-2.02-.646-2.597-.727"/><path fill="#18214A" d="M12.796 6.772c-.13.553-.548 1.071-.74 1.261C15.947 6.33 16.485 3.302 16.267 2c-.289 1.106-1.08 2.303-1.441 2.764l.651-.154c-.814 1.24-2.127 1.958-2.682 2.162"/><path fill="#253155" d="M10.263 7.335c-.582.278-.671.684-.644.853c1.658.068 2.205-1.086 2.271-1.67c-.251.216-.9.468-1.627.817"/><path fill="#5D98CE" fill-rule="evenodd" d="M9.892 8.188c.294-.087.618-.249.832-.53c.185-.244.3-.493.367-.706q-.106.05-.22.1c-.19.088-.396.18-.608.283c-.582.278-.671.684-.644.853q.142.006.273 0" clip-rule="evenodd"/><path fill="#54A2CC" d="M6.582 9.726c-.32-.012-.631.61-.747.922c.576-.578.807-.413.851-.258c.098-.216.215-.651-.104-.664"/><path fill="#3A415A" fill-rule="evenodd" d="M6.17 10.012c.14-.088.285-.144.383-.1c.089.04.162.126.218.222c.042-.197.026-.399-.19-.408c-.144-.005-.287.119-.411.286" clip-rule="evenodd"/><defs><linearGradient id="tokenBrandedQuick0" x1="6.636" x2="11.909" y1="4.667" y2="10.332" gradientUnits="userSpaceOnUse"><stop stop-color="#fff" stop-opacity=".41"/><stop offset="1" stop-color="#fff" stop-opacity="0"/></linearGradient></defs></g></svg>