<svg xmlns="http://www.w3.org/2000/svg" xmlns:xlink="http://www.w3.org/1999/xlink" width="24" height="24" viewBox="0 0 24 24"><g fill="none"><path fill="#12E3BC" d="M18 18.667v.666h4l-.587-.666z"/><path fill="#14F4C8" d="M13.333 18v-2.667H4.667V4.667h10.666V22H22v-2.667h-4V2H2v16z"/><path fill="url(#tokenBrandedQuint0)" d="m5.333 14.666l-.666.667h8.666l-.666-.667z"/><path fill="url(#tokenBrandedQuint1)" d="m5.333 5.333l-.666-.667h10.666l-.666.667z"/><path fill="url(#tokenBrandedQuint2)" d="m15.334 4.667l-.667.666v16l.667.667z"/><path fill="url(#tokenBrandedQuint3)" d="m8.667 7.667l-4-3v10.666l4-3z"/><defs><linearGradient id="tokenBrandedQuint0" x1="8.108" x2="5.691" y1="15.8" y2="7.064" gradientUnits="userSpaceOnUse"><stop stop-color="#068F82"/><stop offset="1" stop-color="#12E3BC"/></linearGradient><linearGradient id="tokenBrandedQuint1" x1="8.138" x2="8.138" y1="-3" y2="6.4" gradientUnits="userSpaceOnUse"><stop stop-color="#068F82"/><stop offset="1" stop-color="#12E3BC"/></linearGradient><linearGradient id="tokenBrandedQuint2" x1="25.201" x2="6.401" y1="8.3" y2="8.3" gradientUnits="userSpaceOnUse"><stop stop-color="#068F82"/><stop offset="1" stop-color="#12E3BC"/></linearGradient><linearGradient id="tokenBrandedQuint3" x1="4.186" x2="8.873" y1="9.5" y2="9.5" gradientUnits="userSpaceOnUse"><stop stop-color="#068F82"/><stop offset="1" stop-color="#12E3BC"/></linearGradient></defs></g></svg>