<svg xmlns="http://www.w3.org/2000/svg" xmlns:xlink="http://www.w3.org/1999/xlink" width="24" height="24" viewBox="0 0 24 24"><g fill="none"><path fill="url(#tokenBrandedRare0)" d="M11.763 2h1.428v2.381h3.824v4.762h-.438c-.357-1.957-2.543-4.324-4.61-4.324c-1.547 0-3.257.752-3.257 2.148c0 1.7 1.805 2.604 3.052 3.176v3.595a13 13 0 0 1-1.076-.414c-2.014-.953-4.214-2.19-4.162-4.657c.053-2.69 2.381-4.286 5.238-4.286z"/><path fill="url(#tokenBrandedRare1)" d="M11.762 19.619h.705l-5.072-.01H7v-5.228h.395c.505 2.333 2.486 4.762 5.23 4.762c1.985 0 2.856-1.19 2.766-2.914c-.057-1.048-1.095-1.52-2.2-1.986V10.57q.253.113.495.248c1.857.843 3.79 1.857 3.79 4.29c0 3.082-2.68 4.51-4.761 4.51l.476-.024V22h-1.429z"/><defs><linearGradient id="tokenBrandedRare0" x1="8.562" x2="20.435" y1="5.468" y2="13.289" gradientUnits="userSpaceOnUse"><stop stop-color="#E7F88F"/><stop offset="1" stop-color="#50F0F8"/></linearGradient><linearGradient id="tokenBrandedRare1" x1="8.561" x2="20.435" y1="5.468" y2="13.288" gradientUnits="userSpaceOnUse"><stop stop-color="#E7F88F"/><stop offset="1" stop-color="#50F0F8"/></linearGradient></defs></g></svg>