<svg xmlns="http://www.w3.org/2000/svg" xmlns:xlink="http://www.w3.org/1999/xlink" width="24" height="24" viewBox="0 0 24 24"><g fill="none"><path fill="url(#tokenBrandedRay0)" d="M19.778 9.778v6.667L12 20.755l-7.778-4.31v-8.89L12 3.23l6.118 3.253l.924-.52L12 2L3.11 7.001V17L12 22l8.889-5.001V8.987z"/><path fill="url(#tokenBrandedRay1)" d="M10.333 16.445H8.667V12h3.889c.845-.009 1.664-.564 1.666-1.421c.01-.843-.83-1.362-1.666-1.357h-3.89V7.556h4.217c1.78 0 2.992 1.334 3.006 3.023c.015 1.824-1.429 3.088-3.454 3.088h-2.102z"/><path fill="url(#tokenBrandedRay2)" d="M16.174 16.445h-1.936l-1.2-2.107c.475-.027 1.29-.222 1.75-.47z"/><path fill="url(#tokenBrandedRay3)" d="m18.944 8.132l.973.535l.972-.535v-1.13l-.972-.558l-.973.558z"/><defs><linearGradient id="tokenBrandedRay0" x1="20.873" x2="2.161" y1="7.007" y2="14.686" gradientUnits="userSpaceOnUse"><stop stop-color="#C200FB"/><stop offset=".49" stop-color="#3773FE"/><stop offset="1" stop-color="#5AC4BE"/></linearGradient><linearGradient id="tokenBrandedRay1" x1="33.158" x2="-11.631" y1=".765" y2="20.874" gradientUnits="userSpaceOnUse"><stop stop-color="#C200FB"/><stop offset=".49" stop-color="#3773FE"/><stop offset="1" stop-color="#5AC4BE"/></linearGradient><linearGradient id="tokenBrandedRay2" x1="47.53" x2="-66.207" y1="-51.24" y2="-17.137" gradientUnits="userSpaceOnUse"><stop stop-color="#C200FB"/><stop offset=".49" stop-color="#3773FE"/><stop offset="1" stop-color="#5AC4BE"/></linearGradient><linearGradient id="tokenBrandedRay3" x1="20.892" x2="1.009" y1="7.004" y2="15.036" gradientUnits="userSpaceOnUse"><stop stop-color="#C200FB"/><stop offset=".49" stop-color="#3773FE"/><stop offset="1" stop-color="#5AC4BE"/></linearGradient></defs></g></svg>