<svg xmlns="http://www.w3.org/2000/svg" xmlns:xlink="http://www.w3.org/1999/xlink" width="24" height="24" viewBox="0 0 24 24"><g fill="none"><path fill="#4FA8FF" d="M21.086 8.669c-.503 0-.909.387-.909.872v4.936c.006.479.424.86.92.854a.89.89 0 0 0 .897-.854V9.541c0-.485-.405-.872-.908-.872"/><path fill="url(#tokenBrandedRazor0)" d="M18.057 6.246c-.502 0-.908.388-.908.86v9.764c-.012.478.387.872.89.884c.497.012.915-.363.927-.842V7.106c0-.472-.406-.86-.909-.86"/><path fill="url(#tokenBrandedRazor1)" d="M15.028 2.006c-.503 0-.908.382-.908.86V21.14c0 .472.405.854.908.854s.909-.382.909-.854V2.866c0-.478-.406-.86-.909-.86"/><path fill="url(#tokenBrandedRazor2)" d="M12 6.852c-.503 0-.909.37-.909.83v8.03c0 .455.406.83.909.83s.909-.369.909-.83v-8.03c0-.46-.406-.83-.91-.83"/><path fill="url(#tokenBrandedRazor3)" d="M8.971 2.006c-.502 0-.908.382-.908.854v18.286c0 .472.406.854.908.854c.503 0 .91-.382.91-.854V2.854c0-.472-.407-.848-.91-.854z"/><path fill="url(#tokenBrandedRazor4)" d="M5.943 5.035c-.503 0-.909.375-.909.835v12.26c0 .46.406.836.909.836c.502 0 .908-.376.908-.836V5.87c0-.46-.406-.835-.908-.835"/><path fill="url(#tokenBrandedRazor5)" d="M2.914 8.669c-.503 0-.909.375-.909.836v4.997c0 .454.406.83.909.83s.908-.376.908-.83V9.505c0-.46-.405-.836-.908-.836"/><defs><linearGradient id="tokenBrandedRazor0" x1="-171.06" x2="36.85" y1="10.084" y2="10.084" gradientUnits="userSpaceOnUse"><stop stop-color="#14779A"/><stop offset="1" stop-color="#4FA8FF"/></linearGradient><linearGradient id="tokenBrandedRazor1" x1="-137.776" x2="70.164" y1="10.915" y2="10.915" gradientUnits="userSpaceOnUse"><stop stop-color="#14779A"/><stop offset="1" stop-color="#4FA8FF"/></linearGradient><linearGradient id="tokenBrandedRazor2" x1="-104.396" x2="103.411" y1="9.825" y2="9.825" gradientUnits="userSpaceOnUse"><stop stop-color="#14779A"/><stop offset="1" stop-color="#4FA8FF"/></linearGradient><linearGradient id="tokenBrandedRazor3" x1="-71.083" x2="136.724" y1="10.916" y2="10.916" gradientUnits="userSpaceOnUse"><stop stop-color="#14779A"/><stop offset="1" stop-color="#4FA8FF"/></linearGradient><linearGradient id="tokenBrandedRazor4" x1="-37.837" x2="170.104" y1="10.478" y2="10.478" gradientUnits="userSpaceOnUse"><stop stop-color="#14779A"/><stop offset="1" stop-color="#4FA8FF"/></linearGradient><linearGradient id="tokenBrandedRazor5" x1="1.412" x2="20.316" y1="10.946" y2="10.946" gradientUnits="userSpaceOnUse"><stop stop-color="#14779A"/><stop offset="1" stop-color="#4FA8FF"/></linearGradient></defs></g></svg>