<svg xmlns="http://www.w3.org/2000/svg" xmlns:xlink="http://www.w3.org/1999/xlink" width="24" height="24" viewBox="0 0 24 24"><g fill="none"><path fill="url(#tokenBrandedRbls0)" d="M12.91 11.396c-.599.261-.999.778-1.021.8v.106c.083.044.316.139.6.183c.35.056.944.089 1.427.067c.484-.028 1.19-.178 1.84-.356a16 16 0 0 0 1.499-.533c.011-.011.022-.05-.061-.128a1.3 1.3 0 0 1-.283-.594a.9.9 0 0 1 .044-.361h-.305c-.39.055-1.323.188-1.934.26c-.76.09-1.2.295-1.805.556"/><path fill="url(#tokenBrandedRbls1)" d="m14.989 10.807l-.378.045l-.089.378l-.216.11l-.123.184l-.055.206l.089.222l.244.072l.2.028l.078.128l.167.244l.516-.111l-.2-.239l-.066-.183c.1-.111.305-.373.294-.517c-.005-.144-.172-.2-.255-.211h-.256z"/><path fill="url(#tokenBrandedRbls2)" d="m13.005 21.573l-1.238.245l-1.406-1.311L8.49 18.79L7.2 17.68v-.08l-.055-2.133c-.817-.7-1.222-2.788-1.328-3.75l-.056-1.183a.74.74 0 0 1-.544-.65c0-.472.322-.672.478-.722V8.135l.055-1.144c.761.111 2.772.244 4.733-.094c1.967-.334 3.111-.956 3.433-1.223l.378.928l.239.972l-.361-.183l-.344-.039a1.21 1.21 0 0 0-1.278 1.222c0 .734.539 1.095.656 1.178c.11.078.16.078.71.078c.445 0 .667-.184.734-.278v1.278a4.76 4.76 0 0 0-2.172.86H11.01c-.911-.016-2.055.195-2.505.306c.11.14.333.428.333.445c1.094.516 3.233.294 4.166.122c.684.05 1.7-.095 2.117-.167c-.011.256-.145.967-.211 1.289a3.8 3.8 0 0 1-1.217 2l-.36.244l.05 2.761l-.178 1.817z"/><path fill="#4B594B" d="M3.445 19.268c1.333 1.189 4.866 3.366 8.333 2.555L8.85 19.09l-.833-.705l-.822-.723l-.04-1.477l-.721.517l-.545.422a.35.35 0 0 0 0 .35l-.761.572l-1.678 1.222zm9.905-2.739v1.328l.039.889l-.195 1.944l-.183.889c1.055-.278 3.489-1.172 4.75-2.505l-2.995-1.35l-.066-.156z"/><path fill="#2D352D" d="m4.012 19.724l1.822-1.695l.572 2.494c-.084.04-.25.134-.25.184c0 .055.166.122.25.155l2.033.906h.505l-2.583-1.139l.384-.178l1.577-.555v-.984l3.156 2.978l.3-.067l-2.311-2.155l-.85-.778l-.595-.5l-.827-.733l-.034-1.328l-.005-.139l-.722.511l-.456.35l.811.384h-.444l.744.316l.878.89l-.511.277c-.19.15-.572.483-.59.572c-.021.111.018.278.19.278l.76.028c.073-.023.223-.128.212-.35l.122.35l-.444.16c-.267-.016-.85-.088-1.04-.255c.006-.133 0-.439-.071-.605c-.073-.167-.484-1.39-.678-1.972a.34.34 0 0 0-.072.166c0 .056.005.117.044.184l-.083.06a.5.5 0 0 1-.1.079l-.578.433l-1.678 1.222c.156.139.345.294.556.456zm9.221.572l.022-.156l.128-1.305v-.056l.006-.033v-1.339l-.04-.433v-.445l.028.023l.5.427l-.35.49l.284-.129l-.222.25l.027.645l.256-.273l-.278.59c.045-.017.195-.056.434-.056c.233 0 .566.05.7.078l-.59.777c-.005.045.012.14.117.134c.111-.006.522-.317.711-.473l-.41-1.555l.144.111l.066.156l.017.01l.406 1.39l-.134.133l.24.228l-.84.083h-.36l-.54-.633l-.027.61q-.05.18-.062.367c0 .123-.144 1.234-.222 1.606l-.2.055l.078-.527l.072-.356zm2.867.016a14 14 0 0 1-1.667.79l1.361-1.656l.2.022l-.2.239l.794.311c-.083.055-.166.111-.26.16l-.612-.31l-.222.25z"/><path fill="#393F3E" d="M7.517 7.113c-1.067.028-1.667-.089-1.828-.155l-.077-.278l-.04-.156l-.533.056l-.372-.095l-.444-.166l-.461-.428v-.3l.233-.305l.456-.356l.622-.405l.8-.456l.61-.217l.24-.294l.466-.417l.44-.377l.582-.334l.712-.255l.5-.095l.61-.039h1.295l1.205-.033c.223 0 .723.033 1.011.144c.29.112.5.262.567.328l.244.361l.095.39l-.095.277l-.46.678v.788l.1.156l.066.294l-.106.228c-.222.145-.75.461-1.083.572a61 61 0 0 1-1.755.523c-.639.177-2.261.327-3.6.36z"/><path fill="url(#tokenBrandedRbls3)" d="m14.089 19.168l-.378-.5v-.055l.061-.084l.083-.028l.795.067l.11.044l.023.084l-.028.1l-.278.266l-.177.167h-.111l-.1-.066z"/><path fill="url(#tokenBrandedRbls4)" d="m7.683 18.701l-.689.706l-.038.15l.077.111l.728.005l.156-.005l.088-.15l-.072-.75l-.139-.1z"/><path fill="#9F0111" d="m7.7 18.924l-.483.51l-.017.045l.061.011h.35l.15-.066l.017-.1l-.017-.373z"/><path fill="url(#tokenBrandedRbls5)" d="M8.978 19.557a.07.07 0 0 0-.011-.05a.07.07 0 0 0-.045-.028a.07.07 0 0 0-.068.03l-.01.026l-.127.922l-.945.333a.065.065 0 0 0-.044.084c.017.033.056.055.089.038l.878-.305l-.106.755c0 .04.022.073.056.078c.039 0 .072-.022.077-.056l.111-.833l.745-.255c.033-.011.055-.05.039-.084a.067.067 0 0 0-.089-.039l-.667.234l.111-.856z"/><path fill="#000" d="M8.928 19.412c.073.012.128.078.111.15l-.094.745l.567-.2c.072-.022.15.01.172.083a.133.133 0 0 1-.078.167l-.7.25l-.111.783a.133.133 0 0 1-.15.111a.134.134 0 0 1-.111-.144l.083-.65l-.777.272a.133.133 0 0 1-.167-.083a.133.133 0 0 1 .083-.167l.906-.322l.122-.878a.13.13 0 0 1 .097-.113a.1.1 0 0 1 .053-.004zm-.21 1.045l-.945.333a.065.065 0 0 0-.045.084c.017.033.056.055.09.038l.877-.305l-.106.755c0 .04.023.073.056.078c.039 0 .072-.022.078-.056l.11-.833l.745-.255c.034-.011.056-.05.04-.084a.067.067 0 0 0-.089-.039l-.667.234l.11-.856a.067.067 0 0 0-.055-.072a.066.066 0 0 0-.072.056z"/><path fill="url(#tokenBrandedRbls6)" d="M13.444 20.368a.06.06 0 0 0-.037.05q0 .012.004.022a.06.06 0 0 0 .031.035a.06.06 0 0 0 .047-.002l.727-.277l.645.572a.07.07 0 0 0 .083 0a.055.055 0 0 0-.006-.083l-.6-.534l.6-.233a.06.06 0 0 0 .032-.03a.06.06 0 0 0 .002-.042l-.012-.021a.06.06 0 0 0-.066-.013l-.655.25l-.5-.444a.06.06 0 0 0-.042-.019l-.023.005l-.019.014a.06.06 0 0 0-.016.043q0 .012.007.022l.015.018l.461.406z"/><path fill="#000" d="M13.361 20.462a.11.11 0 0 1 .023-.126a.1.1 0 0 1 .038-.024l.589-.222l-.389-.35a.116.116 0 0 1 .026-.19a.11.11 0 0 1 .13.023l.472.423l.622-.24c.055-.021.128.012.15.067a.11.11 0 0 1 .002.089a.11.11 0 0 1-.063.062l-.517.194l.528.472c.05.044.056.111.017.167a.11.11 0 0 1-.167 0l-.611-.545l-.7.267a.117.117 0 0 1-.15-.067m.855-.266l.645.572a.07.07 0 0 0 .083 0a.055.055 0 0 0-.006-.083l-.6-.534l.6-.233a.055.055 0 0 0 .033-.072l-.01-.021a.054.054 0 0 0-.066-.013l-.656.25l-.5-.444a.06.06 0 0 0-.042-.019a.06.06 0 0 0-.042.019l-.012.02a.06.06 0 0 0 .003.045l.015.018l.461.406l-.678.26a.056.056 0 0 0-.033.073l.012.02a.06.06 0 0 0 .043.02l.023-.006z"/><path fill="#9F0111" d="m14.555 18.685l-.644-.05l.25.383z"/><path fill="#7B889A" d="M11.389 15.857c-3.333 0-4.96-2.683-5.36-4.027c.033.938.41 3 1.61 3.794c1.195.789 1.45.733 1.817.844c-.489-.055-1.578-.294-2.039-.766c-.028.288-.072.866 0 .866c.095 0 2.222 2.122 5.228 1.856l.7-.15v-.456c-.073.056-.223.067-.223-.389v-1.394c.378-.172 1.178-.722 1.383-1.539c-1.116 1.383-2.944 1.311-3.11 1.361z"/><path fill="#7B889A" d="m12.4 21.696l-4.194-3.261l.366.4l2.039 1.916l1.178 1.045a4.4 4.4 0 0 0 1.222-.256c.222-.639.316-2.35.333-3.127l-.794 3.25z"/><path fill="#EAF9FF" d="M10.833 20.507c.578-.072 1.822-.267 2.222-.484c-.483.4-1.683.49-2.222.484"/><path fill="#EAF8FF" d="M12.5 18.59c-1.31.706-3.366.245-4.227-.072L9.7 19.701l.15-.61c.611.1 2.006.133 2.65-.5"/><path fill="#7B899B" d="M6.24 11.246c-.295.078-.428-.01-.462-.06l-.05-.667l.411.055c.428-.022.59-.467.623-.683c.077.589-.167 1.26-.523 1.355"/><path fill="#AFC0DA" d="m5.522 9.385l.023-.016c.194-.128.589-.278.794.044c.211.333 0 .761-.139.928c.111-.167.278-.661 0-.956c-.205-.222-.51-.11-.655-.016zm1.034.35l-.106-.278l.14-.027c.027.039.071.189.088.255z"/><path fill="#445369" d="m6.723 9.89l-.2.05c-.028.35-.35.556-.512.612c.64.033.74-.428.712-.667z"/><path fill="#EBFAFF" d="M7.234 9.38a1.32 1.32 0 0 0-.756-.828c.822-.189 1.034 1.228 1.034 1.961h-.056c0-.156-.039-.6-.222-1.133"/><path fill="#919CAF" d="m7.584 10.913l-1.445.833l1.444-.61z"/><path fill="#9AA6B7" d="m8.012 11.024l-.034-.344c.295-.145.817-.556 1.039-.74l.117.184z"/><path fill="#EEFAFF" d="m8.85 11.902l-.217-1.417l.484-.422l.172.244l.11 1.495l-.555.1zm-.017-2.178l-.25.167l-.039-.589l.284.422z"/><path fill="#8593A8" d="m7.711 9.258l-.322-.034l.095.35l.06.933l.384-.2l-.217-1.055z"/><path fill="#6B7686" d="m7.59 11.163l-.028-.244l.388-.223l.073.334z"/><path fill="#566370" d="M8.19 7.835h-.362v.095l.34.055c.016 0 .021-.1.021-.15"/><path fill="#4D5868" d="M7.778 8.213a.77.77 0 0 1-.51.383c.027 0 .277.25.36.484a1.3 1.3 0 0 0 .633-.772l-.166-.028z"/><path fill="#515D6D" d="M7.834 7.447a.66.66 0 0 0-.128-.334h.61c.084.134.084.567.079.767l-.067.11h-.167l.04-.543z"/><path fill="#CDDAEF" d="M6.64 8.419c-.168-.111-.273-.4-.3-.534l.3.078c.055.122.221.361.388.372s.322-.116.372-.183l.378.072c-.133.267-.428.361-.556.378l-.272-.111h-.205l-.111-.072z"/><path fill="#EBF8FF" d="m8.989 7.085l-.683.056l.083.383v.378l.328-.111l.333-.056l-.055-.65z"/><path fill="#50584C" d="M10.128 5.619c-.445.1-1.39.411-1.69.878c.279 0 1.495-.15 2.067-.223c-.344.24-1.405.478-1.894.567c2.317.144 4.583-.889 5.428-1.422c.01-.089 0-.289-.084-.372c-.089-.078-.51.216-.716.372c.255-.211.155-.667.072-.861c-.278.166-.856.505-.911.489s-.045-.111-.034-.15l-.833.5A2.83 2.83 0 0 1 12.7 4.324l-.178.323c.311-.25.956-.767 1.039-.85l.044-.045c.14-.127.445-.41.4-.622c-.033-.189-.61-.46-.889-.572c-.444-.206-1.672-.594-3.088-.472a2.39 2.39 0 0 0-2.133 1.833c.133.878 1.75 1.422 2.538 1.583l.5-.166c-.428.335-.913.59-1.433.75l.622-.473zm-.645-3.133c.706-.084 2.24-.167 2.678.166c.355.283.651.632.872 1.028c-.766-.35-2.555-1.072-3.555-1.194z"/><path fill="#626D53" d="M11.072 3.725c.095.15.14.316.122.488l-.633-.916c.206.122.4.272.511.433zm-1.055-.695c.122.05.277.117.433.2l.722 1.095a.75.75 0 0 1-.205.36l-.945-1.655zm-.073-.028l.962 1.745a1 1 0 0 1-.278.166L9.81 2.97l.117.028zm.445 2l.178-.055c-.267-.678-.695-1.734-.817-1.99c-.439-.066-1.078-.01-1.117.634c-.06.922.973 1.611 1.756 1.406zm.994-1.86h.078l.583.944l-.072.01c-.444.05-.733-.327-.816-.521c-.045-.14-.062-.423.227-.434m.85.838c-.022.033-.055.056-.11.078l-.384-.6l.5.522zm-.572-.794l.6.622a.8.8 0 0 0-.222-.345l-.056-.055a.95.95 0 0 0-.322-.222m-.467 2.927l.806-.2l-.317.484c-.25.066-.583.155-.86.21zm.984-.239l-.25.456l.166-.045c.028 0 .24-.316.345-.477zm-1.111.273l-.423.494l-.183.022l.356-.455l.244-.061z"/><path fill="#A30000" d="m11.489 4.191l-.322.261l-.356-.022l.15.294l-.039.35l.256-.055l.244.205l.022-.044c.022-.067.073-.2.084-.206c.01 0 .144-.15.21-.222l-.177-.15z"/><path fill="#FF7878" d="m10.839 4.43l.339.011l.16.3zm.922.317l-.189-.19l-.233.15zm-.85.322a2.4 2.4 0 0 1 .072-.317h.333zm.428-.311l.11.483l-.238-.222z"/><path fill="#000" fill-rule="evenodd" d="M11.522 4.158a.03.03 0 0 0-.022-.028c-.017 0-.028 0-.039.011l-.277.278l-.378-.022a.03.03 0 0 0-.033.011a.034.034 0 0 0 0 .039l.01.022l.15.278l-.094.355c0 .011 0 .028.011.034c.006.01.022.01.033.01l.012-.005h.005l.278-.089l.244.24c.011.005.023.01.034.005c.01 0 .022-.011.027-.023l.061-.294l.256-.194a.03.03 0 0 0 .015-.028a.03.03 0 0 0-.015-.028l-.217-.189zm-.338.822l-.145.044l.278-.227l.089.377l-.19-.183a.03.03 0 0 0-.032-.011m.3-.022l-.028.128l-.073-.323l.306.023l-.194.15a.03.03 0 0 0-.012.022m.2-.24l-.156-.132a.03.03 0 0 1-.011-.023l-.034-.21l-.088.344zm-.756.312l.35-.289l-.383-.21l.11.194v.022l-.077.277zm.511-.772l-.222.217a.03.03 0 0 1-.028.01l-.267-.016l.406.222z" clip-rule="evenodd"/><path fill="#FFFA44" d="m16.544 18.918l-.445-.078l.25.323l-.16.322l.41-.056l.373.289l.022-.383l.339-.134l-.445-.183l-.072-.333l-.278.233z"/><path fill="#fff" d="m16.566 19.024l-.455-.167l.222.278l.389.05l.078-.478l-.234.211z"/><path fill="#EC843B" d="m16.65 19.174l-.473.31l.167-.294l-.017-.061zm.089-.09l.072-.394l.089.328l-.167.067z"/><path fill="#EC843B" d="m16.6 19.435l.038-.256l.267.489zm.677-.256h-.422l.072.494l.04.034l.033-.367l.333-.139z"/><path fill="#FFF447" d="m4.439 20.068l-.589-.434l.133-.122l.045-.427l.361.266l.572-.21l-.25.471l.233.378H4.44z"/><path fill="#fff" d="m4.217 19.54l-.194-.444l.372.255l-.017.134l.6-.35l-.255.455l-.345.067l.5.2l.056.11l-.611-.277l-.028.261l-.1-.055v-.223l-.161.1l-.122-.083z"/><path fill="#EA8436" d="m4.228 19.546l-.239-.028l.04-.417zm.5.044l-.367.056l.528.239c.011.005-.105-.173-.166-.267v-.028zm-.439.367l.04-.284l.127.312l-.017.083z"/><path fill="#35404E" d="m5.778 6.985l.733.078c-.055.1-.155.345-.139.5l-.638-.16l.038-.418zm-.056.767c.028.111.095.372.167.528c.083.166.183.294.222.339a.6.6 0 0 1 .556-.161a1.03 1.03 0 0 1-.322-.556a14 14 0 0 1-.617-.15z"/><path fill="#707B88" d="M6.123 8.613a1.9 1.9 0 0 1-.406-.794l-.022.777l.022.545h.078l.122-.289z"/><path fill="#2E2E2E" d="M8.3 8.002c-.311-.039-1.844-.405-2.572-.578L5.7 7.72l.856.228l1.105.244l.611.111l.167.483l.45.9l-.589.4l-1.111.611l-1.389.778v.089l.045.3l1.466-.817l.672-.377l.74-.462l.227-.188l.072-.1l.511.666l.217.134c.05.027.144.083.167.083h.166l.333-.167l.362-.355l.333-.428l.472-.667l.267-.494l.139-.417l.022-.316v-.223l-.106-.2l.79-.877l.416-.522l-.584.244l-.855.994l-.056-.027h-.344l-.461.06l-1.928.34c-.416.077-.56.205-.583.26z"/><path fill="#494949" d="M6.75 7.99v-.32l.3.089v.294z"/><path fill="#484848" d="M9.206 8.48c0-.506.166-.745.255-.795l1.722-.277c.067-.028.278-.028.572.16c.29.184.167.773.067 1.04c-.2.294-.739.877-1.278.877l-.222-.016l-.46.355l.338-.378h-.011l.355-.41l-.466.388a2 2 0 0 1-.234-.089l-.194.334l.139-.356h-.011l.172-.367l-.239.323c-.3-.167-.505-.445-.505-.79m3.338-1.628l-.205-.261l.205-.211l.567-.239z"/><path fill="#000" d="m7.59 10.902l-.045-.4l.377-.183l.05.372l-.388.21z"/><path fill="#484848" d="M7.139 10.724c0 .133.022.394.033.411l.417-.239l-.056-.372zm.855-.039l-.072-.389l.361-.216l.039.405zm.322-2.405a.26.26 0 0 1 .073-.234c-.056.045-.012.173.016.234c.045.116.217.51.495 1.128c.35.766.844 1.194 1.1 1.233a.7.7 0 0 0 .405-.04a.7.7 0 0 1-.405.167c-.667-.166-1.023-1.055-1.184-1.322c-.166-.266-.472-1.027-.5-1.166"/><path fill="#C7C7C7" d="M11.728 7.719c-.012.033-.056.055-.09.039l-.288-.106a.07.07 0 0 1-.04-.032a.07.07 0 0 1-.005-.05c.017-.035.056-.057.09-.04l.294.105c.033.012.055.05.039.084m-.723-.045a.062.062 0 0 0 .061-.072a.067.067 0 0 0-.072-.056l-.31.023a.07.07 0 0 0-.062.066c0 .04.033.067.072.062zm-.638.011a.067.067 0 0 1-.056.078l-.306.056a.07.07 0 0 1-.068-.031a.068.068 0 0 1 .046-.103l.306-.055c.039 0 .072.022.078.055m-.767.212a.068.068 0 0 0 .042-.106a.07.07 0 0 0-.07-.028l-.305.056a.07.07 0 0 0-.055.051l-.001.027c.006.033.044.055.078.055zm-.65.11c.033-.01.05-.055.033-.083a.07.07 0 0 0-.036-.038a.07.07 0 0 0-.053 0l-.283.122a.064.064 0 0 0-.039.088c.017.034.056.05.089.034zm2.65.423c-.011.033.01.072.044.083s.072-.011.084-.044l.094-.295q.004-.012.003-.026a.07.07 0 0 0-.047-.057a.07.07 0 0 0-.072.021l-.012.023zm-.306.778a.07.07 0 0 1-.044-.063q0-.014.005-.026l.123-.284a.064.064 0 0 1 .088-.039c.034.017.05.056.034.09l-.117.283a.066.066 0 0 1-.089.033zm-.983 1.083a.06.06 0 0 0-.02.047a.07.07 0 0 0 .02.047a.075.075 0 0 0 .1 0l.211-.233a.067.067 0 0 0-.028-.108a.07.07 0 0 0-.051.003l-.02.016zm-.605.089a.07.07 0 0 1-.05.014a.07.07 0 0 1-.045-.025l-.189-.245a.07.07 0 0 1-.014-.05a.07.07 0 0 1 .025-.044a.07.07 0 0 1 .075-.006q.01.006.02.017l.189.244a.07.07 0 0 1-.011.095m-.54-.5c.017.028.056.039.095.022a.065.065 0 0 0 .028-.089l-.145-.278a.066.066 0 0 0-.094-.022a.066.066 0 0 0-.028.089zm-.183-.59a.066.066 0 0 1-.094-.027l-.145-.278a.067.067 0 0 1 .028-.089a.08.08 0 0 1 .095.028l.144.278c.017.028 0 .072-.028.089m-.333-.61a.075.075 0 0 0 .094.028c.034-.017.045-.056.028-.095l-.144-.272a.07.07 0 0 0-.041-.035a.07.07 0 0 0-.054.007a.067.067 0 0 0-.027.089zm1.216 1.883c0-.039.028-.067.067-.067h.172c.04 0 .073.028.073.067c0 .033-.034.067-.073.067h-.172a.066.066 0 0 1-.067-.067m.967-.833a.066.066 0 0 0 .017.094c.027.022.072.011.094-.017l.178-.255a.067.067 0 0 0-.017-.089a.07.07 0 0 0-.075-.002l-.02.019z"/><path fill="#D43D25" d="m14.944 11.14l.061-.35l.189-.021v.188l.205.028l.24.156l.127.222l-.128.372l-.21.211l.055.095l.222.155l-.261.089l-.15-.089l-.139-.272a.5.5 0 0 0 .061-.072l.106-.117l.105-.128l.056-.183l-.1-.172l-.228-.111l-.211.039zm-.694.067l.066-.333l.256-.028l-.017.272l-.066.112l-.173.133l-.144.194l-.045.178l.045.161l.2.111h.289l.027.106l.195.233l.022.061l-.217.05l-.094-.144l-.105-.1l-.24-.067l-.31-.189l-.09-.25l.09-.305zm.488.045l.084.15h.233l-.133.172l.133.228l-.205-.072l-.178.183v-.228l-.206-.11l.222-.112l.056-.211z"/><path fill="url(#tokenBrandedRbls7)" d="M16.35 11.19a1 1 0 0 1 0-.555l.239-.027c-.034.088-.095.327-.04.516c.056.194.306.517.428.656l-.189.1c-.11-.128-.366-.445-.438-.69"/><path fill="url(#tokenBrandedRbls8)" d="m16.905 10.946l.022-.35l.167-.055v.35l.105.333l.278.328l-.21.089l-.09-.09l-.189-.277z"/><path fill="#fff" d="m17.605 10.585l-.206-.022a.3.3 0 0 0 .056.167c.05.055.078.15.089.194l-.028.345c.028.038.095.11.111.11l.067-.072a.7.7 0 0 0 .056-.155l.088-.167l.111-.139l.128-.139l.256-.166c.089-.056.278-.156.283-.167l.139-.022h.139c.017 0 .11.066.15.1l.111.083l.128.083h.127l.095-.033l.161-.11l.211-.223l.206-.289l.2-.294l.144-.323l.106-.288l.077-.35l-.05-.284l-.077-.35l-.15-.26l-.2-.25l-.334-.2l-.222-.084l-.239-.033l-.366.083l-.25.144c-.106.123-.434.328-.728.223c-.372-.14-.339-.473-.306-.667a.8.8 0 0 1 .195-.389l.166-.111l.195-.022l.161.022l.122.061l.222.017l.323-.1l.266-.156l.128-.222l.05-.222v-.245l-.122-.277l-.161-.167l-.211-.1h-.25l-.195.039l-.189.122l-.066.1l-.017.111l.083.111l.14.045a1 1 0 0 0 .166-.073l.055-.11l.073.027l.077.156l-.077.166l-.172.073l-.206-.023l-.467-.2l-.222-.016l-.317.11l-.333.217l-.267.2l-.183.3l-.111.361l-.056.35v.334l-.027.2l.022.244l.15.345l.267.372c.083.089.305.283.522.4c.222.11.472.1.572.083l.05-.067l.061-.133c.028-.044.083-.189.1-.205c.022-.017.1-.045.139-.078l.155-.028l.15.028l.167.144l.056.14l.022.2l-.04.3l-.171.149l-.206.1l-.216.183l-.14.145l-.094.233l-.205.206l-.223.105z"/><path fill="#B3B3B3" d="M16.489 7.224a1.8 1.8 0 0 1 .11-.555c0 .033.006.178.04.494c.033.311.222.817.316 1.033l-.316-.294c.01.417.433.961.888 1.011c.373.033.456-.233.45-.378c.034-.155.223-.466.695-.46c.594 0 .61.416.622.544c.005.1-.039.327-.056.427c-.066.15-.222.462-.333.523a.45.45 0 0 1-.233.066c.05-.028.144-.1.166-.127a2.6 2.6 0 0 0 .067-.462c0-.11-.111-.333-.356-.394c-.188-.05-.305.094-.344.167l-.167.305l-.172.056c-.222.039-.5-.111-.616-.19a2.5 2.5 0 0 1-.54-.582a1.2 1.2 0 0 1-.238-.634z"/><path fill="#C7C7C7" d="M18.539 5.641a.2.2 0 0 1-.206-.172c0-.056.028-.183.128-.25c.1-.072.266-.089.333-.095c.078.04.228.156.239.328a.39.39 0 0 1-.167.334l.045-.145l-.156-.172a.22.22 0 0 1-.222.172z"/><path fill="#AFB1B3" d="M18.794 6.469c.233.028.5-.15.6-.245c-.189.367-.689.39-.911.345c-.067-.056-.256-.134-.533.033c-.278.172-.29.578-.256.756a2 2 0 0 1-.255-.54c-.028-.188-.034-.705.444-.705c.483 0 .617.322.911.356"/><path fill="#C7C7C7" d="M18.638 10.03c-.222.05-.478.5-.578.716c.145-.2.667-.405.75-.41c.078-.006.223.055.323.166c.077.094.21.11.266.11c.273-.021.706-.643.89-.955c.055-.11.21-.444.294-.9c.083-.455-.167-.844-.3-.983l.1.206c.055.183 0 1.033-.1 1.289c-.1.26-.673 1.005-1.011 1.005c-.345 0-.356-.311-.634-.244"/><path fill="#fff" d="m8.894 12.49l-.388-.483c.733-.316 2.927-.366 3.938-.355l-.555.522l.039.167c.316.077.972.244 1.027.25c.067.01-.227.072-1.655.127c-1.145.05-2.078-.133-2.406-.227"/><path fill="url(#tokenBrandedRbls9)" d="M12.661 8.102a1.08 1.08 0 0 1 1.156-.733c-.29.016-.934.35-.917 1.316c.017.778.661 1.095.978 1.156h-.456c-.15 0-.41-.195-.522-.295a1.54 1.54 0 0 1-.239-1.444"/><path fill="url(#tokenBrandedRblsa)" d="M15 8.613c0 .689-.472 1.25-1.05 1.25s-1.05-.555-1.05-1.25c0-.689.472-1.25 1.055-1.25c.573 0 1.045.556 1.045 1.25"/><path fill="#6C8B4B" d="M13.944 7.641c-.494 0-.722.489-.767.739c-.05.189.084 1.055.761 1.055c.678 0 .806-.789.778-.905c-.016-.122-.166-.889-.777-.889z"/><path fill="#B7FA00" d="m13.811 7.874l-.378.522l.134.55l.66.228l.278-.366l-.083-.756z"/><path fill="#000" d="M14.655 18.64a.11.11 0 0 1 .1.078a.11.11 0 0 1-.033.117l-.417.377a.12.12 0 0 1-.177-.016l-.361-.445a.1.1 0 0 1 .016-.144a.14.14 0 0 1 .1-.033zm.15.056a.17.17 0 0 0-.144-.111l-.772-.067a.2.2 0 0 0-.14.039v.006a.15.15 0 0 0-.056.167q.01.03.029.055l.361.444a.2.2 0 0 0 .128.067c.05 0 .1-.011.133-.045l.417-.372a.17.17 0 0 0 .044-.183m-6.983.072a.16.16 0 0 0-.15.033l-.627.64a.15.15 0 0 0-.045.11c0 .028.011.056.023.073a.13.13 0 0 0 .105.055h.689a.15.15 0 0 0 .105-.044a.14.14 0 0 0 .04-.106l-.05-.644c0-.056-.04-.1-.09-.117m-.194-.011a.22.22 0 0 1 .217-.056a.22.22 0 0 1 .133.178l.05.644a.23.23 0 0 1-.056.156a.2.2 0 0 1-.155.067h-.689a.2.2 0 0 1-.167-.09a.2.2 0 0 1-.027-.1v-.01c0-.056.022-.111.066-.15zm.078.255l-.467.484v.005l.406-.016c.055 0 .1-.045.094-.1l-.011-.362v-.01zm-.05-.044a.083.083 0 0 1 .11 0a.07.07 0 0 1 .029.055l.01.362a.166.166 0 0 1-.16.166l-.4.017a.07.07 0 0 1-.072-.05c-.012-.022 0-.056.016-.067zm6.205-.294a.03.03 0 0 1 .014-.014a.03.03 0 0 1 .02-.003l.694.044c.01 0 .022.011.027.023c0 .01 0 .027-.01.038l-.406.334l-.013.009l-.015.002a.03.03 0 0 1-.022-.017l-.283-.389l-.004-.014q0-.007.004-.014zm.1.055l.222.294l.317-.26l-.54-.04zm2.866-.033c.011 0 .023.01.023.022l.066.311l.461.189c.012 0 .023.017.017.028q.002.025-.022.033l-.35.111l-.022.39c0 .01-.012.021-.023.027l-.033-.006l-.366-.294l-.373.05c-.016 0-.027 0-.033-.011a.03.03 0 0 1 0-.034l.139-.305l-.261-.306a.03.03 0 0 1 0-.039a.03.03 0 0 1 .027-.01l.467.066l.25-.222a.04.04 0 0 1 .017-.006q.009 0 .016.006m-.027.094l-.223.19l-.013.005h-.014l-.39-.056l.212.256c.011.005.011.022.006.033l-.123.267l.334-.045l.022.006l.328.26l.022-.338q-.002-.027.022-.028l.283-.094l-.389-.161a.03.03 0 0 1-.022-.022l-.055-.278zm-12.788.3h.033l.355.25l.562-.205c.016 0 .027 0 .038.01q.018.018 0 .034l-.238.467l.244.35v.033a.03.03 0 0 1-.028.017h-.51v.06h-.073v-.094c0-.016.017-.033.033-.033h.484l-.223-.317a.03.03 0 0 1 0-.033l.217-.4l-.5.183l-.033-.005l-.317-.222l-.033.35c0 .01 0 .016-.011.022l-.145.139l-.044-.045l.133-.133l.039-.4a.03.03 0 0 1 .017-.028"/><path fill="#000" fill-rule="evenodd" d="M11.706 2.075h-.14c.617.11 1.523.427 2.04.633a21 21 0 0 0-2.728-.633c-.733.016-1.4.055-1.767.089c-.5.033-1.005.305-1.422.61q-.482.357-.866.817a1.4 1.4 0 0 1-.373.278a14 14 0 0 1-.589.306l-.133.06c-.405.195-.85.412-1.21.65c-.323.212-.506.4-.612.545c-.1.15-.122.256-.111.306v.01c-.017.084.017.317.333.5c.2.123.372.223.584.267c.21.05.466.045.833-.044h.016l.012.01c.666-.188 2.088-.516 3.122-.488c-.611 0-2.072.311-2.911.511l1.127-.044l.434-.011c.75-.023 1.61-.056 2.388-.128c2.256-.206 3.361-.839 4.061-1.261a.5.5 0 0 1 .09-.067l-.056-.65a.5.5 0 0 1 .039-.21c.027-.079.072-.15.116-.223c.095-.133.211-.261.295-.333c.11-.167.233-.612-.278-1.09a1 1 0 0 0-.339-.183a3 3 0 0 0-.539-.127a10.5 10.5 0 0 0-1.416-.106zm2.244 2.9l-.056-.64a.5.5 0 0 1 .034-.183c.027-.066.066-.139.11-.205c.095-.134.212-.256.284-.328h.006c.138-.194.255-.683-.278-1.183a1 1 0 0 0-.367-.2a3 3 0 0 0-.55-.128q-.71-.101-1.427-.106a30 30 0 0 0-2.6.095a2.94 2.94 0 0 0-1.456.628a5 5 0 0 0-.883.822c-.061.083-.183.166-.35.266c-.167.095-.367.195-.583.3l-.134.062c-.405.2-.855.416-1.222.655c-.322.211-.516.406-.628.567c-.105.15-.133.272-.122.344c-.022.117.034.367.361.561c.2.122.384.222.611.278c.217.05.478.044.834-.039a.6.6 0 0 1 .077.122q.022.045.023.095c0 .027 0 .05-.011.072v.017l-.012.05c0 .022 0 .05.012.072a.1.1 0 0 0 .066.055v2.09q-.166.095-.289.244a.74.74 0 0 0-.183.477c0 .19.083.35.183.467a.9.9 0 0 0 .295.228l.083 1.488c.039.35.133.928.3 1.511c.167.584.4 1.19.722 1.59c.09.121.195.233.3.338l.011.717c-.16.1-.4.26-.627.422c-.234.166-.456.344-.556.461a.3.3 0 0 0-.111.311l.028.111l-2.456 1.783l.04.056l2.438-1.767l.094.323l.023.077q.21.651.372 1.317c-.195.083-.483.267-.756.472c-.277.206-.555.428-.722.567l.05.055c.167-.144.434-.366.711-.572c.2-.144.4-.278.567-.372q-.566.501-1.128 1.005v.012l.061.016v.006l.028-.028a8 8 0 0 1 .444-.4l.767-.672l.095.355l.016.111v.006a.2.2 0 0 0 .017.089a.14.14 0 0 0 .083.061q.446.082.889.178l-1.017.35a2 2 0 0 0-.3.128a.1.1 0 0 0-.022.027c-.01.028 0 .05.011.056l.034.033l.11.061c.084.045.19.09.262.117l1.778.789l.022-.061l-1.772-.79a3 3 0 0 1-.373-.183l.017-.01l.078-.04a1 1 0 0 1 .172-.06l1.133-.39h.011v-.005l.723-.25v-1.166l3.422 3.071l.044-.05l-1.344-1.21c.389-.04 1-.123 1.55-.245c.277-.056.555-.128.777-.206c.173-.055.328-.127.434-.2c-.056.612-.14 1.212-.261 1.634l.066.016c.145-.489.228-1.205.278-1.905l.05-.85l.689.761l1.666-.067l.223-.022c0 .011 0 .022-.011.034l-1.167 1.444l.05.039c.239-.295.633-.778.894-1.111l.006.005l.11.045l.112.05l.406.166l.027-.055l-.577-.245l-.04-.016l.078-.095l.7.29l.028-.062l-.683-.278l.111-.133c.039-.056.011-.111 0-.139l-.017-.011l-.255.028l-1.061.044l.077-.05l.123-.072l.266-.167a.17.17 0 0 0 .056-.077a.1.1 0 0 0 .011-.078a.2.2 0 0 0-.056-.106l-.194-.522a3.6 3.6 0 0 1-.167-.672c.345.183.884.46 1.434.722c.577.278 1.172.528 1.577.639l.017-.067c-.394-.11-.989-.36-1.561-.633q-.75-.353-1.483-.744a1 1 0 0 0-.05-.145a.2.2 0 0 0-.028-.039v-.005l-1.294-.967v-.528a3.3 3.3 0 0 0 1.094-1.105a4.57 4.57 0 0 0 .661-2.489a23 23 0 0 0 1.6-.472h.005q.31-.113.612-.245a1 1 0 0 0 .205-.11l.333-.55c.078-.106.212-.262.367-.39c.078-.066.156-.127.239-.166a.5.5 0 0 1 .439-.034c.05.017.083.045.122.073l.011.01a.6.6 0 0 0 .111.079a.5.5 0 0 0 .19.038a.5.5 0 0 0 .216-.072c.066-.044.139-.11.2-.172a3.8 3.8 0 0 0 .627-.978c.111-.238.2-.51.2-.744a1.67 1.67 0 0 0-.322-.933a1.14 1.14 0 0 0-1.344-.44a.7.7 0 0 0-.222.168l-.011.01c-.056.056-.1.1-.167.14a.75.75 0 0 1-.344.066a.6.6 0 0 1-.3-.072a.4.4 0 0 1-.162-.172a.7.7 0 0 1-.055-.417a.7.7 0 0 1 .15-.311a.54.54 0 0 1 .417-.183a.4.4 0 0 1 .133.016c.055.011.1.028.122.056a.2.2 0 0 0 .095.055c.038.012.077.006.127 0c.1-.022.234-.077.417-.177c.389-.217.41-.634.41-.717a.8.8 0 0 0-.127-.367a.69.69 0 0 0-.61-.3c-.318 0-.473.1-.529.228a.26.26 0 0 0-.005.184a.2.2 0 0 0 .094.116c.078.04.15.056.223.034a.26.26 0 0 0 .155-.123c.028 0 .056.017.083.034a.17.17 0 0 1 .056.127c0 .084-.022.123-.056.145a.5.5 0 0 1-.222.033a.34.34 0 0 1-.139-.033l-.072-.028l-.006-.005a1.3 1.3 0 0 0-.644-.145c-.578 0-1.155.539-1.272 1.322c-.111.778.017 1.389.344 1.706c.161.16.423.333.656.444c.117.05.233.089.333.1c.09.011.178 0 .222-.061a.6.6 0 0 0 .09-.167l.016-.044l.044-.111a.26.26 0 0 1 .09-.111a.3.3 0 0 1 .177-.04a.36.36 0 0 1 .333.19a.9.9 0 0 1 .084.383a.4.4 0 0 1-.078.25a.33.33 0 0 1-.189.1a.63.63 0 0 0-.289.189a1.9 1.9 0 0 0-.333.45a.56.56 0 0 1-.561.305h-.006c-1.094 0-2 .095-2.733.24V9.523h-.011c.2-.239.328-.572.328-.933c0-.445-.184-.833-.461-1.072a9 9 0 0 0-.572-1.906a.4.4 0 0 0 .088-.11a.24.24 0 0 0 .034-.179a3 3 0 0 0-.084-.305a.1.1 0 0 0-.027-.033a.1.1 0 0 0-.028-.017zM8.922 18.74l1.39 1.7l-1.956-1.772v-.017h-.017l-.222-.2c.2.095.478.2.811.278zm1.534 1.767l-1.423-1.739c1.102.26 2.255.19 3.317-.2c.261-.1.51-.222.716-.372l.228.56q-.018.54-.06 1.079a1.6 1.6 0 0 1-.467.227a7 7 0 0 1-.767.206c-.55.111-1.15.2-1.544.239M13.3 18.59l.011-.61a1.5 1.5 0 0 1-.189.177zm.078-.705v-1.3l1.244.933l.017.022l.027.073c.036.28.105.557.206.822c.067.205.144.405.194.527v.012h.006c.017.022.039.05.044.077v.045c-.01.01-.016.028-.038.044a4 4 0 0 1-.39.24l-.177.11H14.4l.455-.433l-.533.439l-.244.01l-.69-.766c.084-.122.345-.566.484-.81l-.5.71l.011-.755zm-.073-.017c-.188.278-.572.483-.977.633a5.66 5.66 0 0 1-4.028-.039h.04l-.045-2.233c.616.24 1.377.35 2.333.35c.966 0 1.733-.122 2.36-.394c.112-.056.218-.106.317-.167zm-5.033.589L8.228 16.2a3.4 3.4 0 0 1-1.061-.677l.05 2.127l.117.112a.34.34 0 0 1 .26-.112c.1 0 .206.073.29.195a.95.95 0 0 1 .144.5zm-.677-.745a.28.28 0 0 0-.211.09l.577.522a.94.94 0 0 0-.133-.445c-.078-.111-.167-.167-.233-.167m8.143 2.15l-.027.034h.01c.012-.006.012-.023.018-.034m-7.46-1.16l-1.144-1.028l.01-.011v-.012l-.944-.594l.945.522v-.022l-.422-.5l.416.417l-.028-1.223c-.16.1-.383.25-.594.4c-.239.167-.456.345-.55.456l-.006.006c-.033.016-.11.1-.083.244c.022.1.078.283.145.5l.022.072c.055.195.122.395.166.567q.177.66.34 1.322c0 .039.005.055.01.072l.045.028l.144.033l.85.167l.678-.233zM14 9.901a1 1 0 0 0 .61-.306v1.206c-.5.1-.91.222-1.26.355a5 5 0 0 0-.872.428c-2-.033-3.639.233-4.361.411l-.111-1.328q.307-.174.555-.333a4 4 0 0 0 .467-.328a3 3 0 0 0 .144.24l.023.033c.072.11.155.239.272.344a.73.73 0 0 0 .516.222a.6.6 0 0 0 .295-.105c.105-.056.21-.145.31-.24c.2-.182.39-.405.495-.555c.117-.155.3-.427.478-.727c.172-.306.339-.64.422-.923c.017-.077.034-.21.017-.355a.9.9 0 0 0-.106-.35q.605-.627 1.15-1.306c.123.023.306.034.495-.01a.84.84 0 0 0 .489-.317c.138.372.322.933.427 1.5a.94.94 0 0 0-.61-.167v-.006c-.54 0-.878.223-1.084.5c-.169.241-.26.528-.261.823c0 .233.111.555.294.816c.178.267.44.478.734.478h.483zm0-4.016l-.095-.217a2 2 0 0 1-.277.194a6 6 0 0 1-.45.234l-.09.133c.112.017.279.017.434-.022a.73.73 0 0 0 .472-.322zm-8.244 1.55V7.04c.139.017.383.044.722.067a1 1 0 0 0-.2.433l-.522-.111zm0 .322v-.256l2.528.517a.35.35 0 0 0-.05.144v.1zm.1.41a1.7 1.7 0 0 1-.072-.333l.51.1c.023.067.062.167.117.261a.8.8 0 0 0 .184.223H6.51a.65.65 0 0 0-.427.166a1.2 1.2 0 0 1-.223-.416zm1.172.245H6.7a.7.7 0 0 1-.227-.25a1.2 1.2 0 0 1-.1-.21l.2.038c.033.067.1.161.183.239a.44.44 0 0 0 .3.144a.47.47 0 0 0 .389-.2L8 8.285a.83.83 0 0 1-.594.384a.86.86 0 0 0-.372-.25zm.589.578a1.3 1.3 0 0 0-.161-.261a.92.92 0 0 0 .61-.434l.112.023c-.017.15-.111.294-.233.416a1.7 1.7 0 0 1-.328.256m.078.222c-.011-.055-.034-.111-.05-.155a1.7 1.7 0 0 0 .344-.278c.122-.122.228-.272.256-.434c.01.09.039.178.066.262l.1.222c-.044.11-.166.244-.31.355c-.117.1-.25.184-.345.24L7.7 9.207zm.255 1.045a13 13 0 0 0-.178-.767c.1-.056.24-.15.373-.256c.122-.1.239-.21.305-.327v.005q.192.381.395.756a4 4 0 0 1-.461.322zm-.316-1.034c.138.484.222.9.26 1.072l-.344.2a38 38 0 0 0-.144-1.216a1.3 1.3 0 0 0-.256-.54a.9.9 0 0 0-.333-.26h.211c.139.044.472.25.611.744zm-.295.067c.039.228.111.916.15 1.244q-.83.48-1.672.933l-.056-.91a.86.86 0 0 0 .567 0a.6.6 0 0 0 .306-.245c.083-.117.133-.278.133-.494a.77.77 0 0 0-.111-.417a.6.6 0 0 0-.272-.222a1.1 1.1 0 0 0-.573-.072c.04-.112.117-.256.223-.378c.127-.14.289-.245.483-.245c.25 0 .444.128.578.3c.139.167.222.373.244.506m-1.5 2.522l-.022-.278a67 67 0 0 0 2.61-1.489a5 5 0 0 0 .457-.316L9 9.952a6 6 0 0 1-.472.333l-.883.522a69 69 0 0 1-1.811 1.006zm.006.2l-.006-.128a65 65 0 0 0 1.717-.944l.072 1.15h.344v.01l.023-.005c.61.417 2.416 1.072 5 .522c.533.045 1.227 0 2.066-.216h.005c.028.433-.066 1.5-.655 2.439a3.2 3.2 0 0 1-1.45 1.277c-.611.278-1.372.395-2.333.395c-1.906 0-3-.456-3.778-1.434a4.7 4.7 0 0 1-.705-1.566a10 10 0 0 1-.3-1.5m1.85.011l-.078-1.122l.333-.195l.106 1.306l-.056.011zm-.311-3.866l-.723-.15c.04.055.09.116.145.172c.078.078.167.128.255.128a.43.43 0 0 0 .323-.15M6.35 7.552a.9.9 0 0 1 .217-.439l.172.011a.85.85 0 0 0-.222.461zm.484-.417c.333.012.733.028 1.2.028c.033.072.083.19.116.334c.034.133.05.288.017.427l-1.583-.322a.7.7 0 0 1 .25-.467m1.388.345a1.5 1.5 0 0 0-.11-.311h.15c.055.11.155.41.105.755l-.039.034l-.094-.023c.033-.15.016-.316-.017-.455zm.223.389a.6.6 0 0 1 .194-.078l.167-.044c.055-.323-.023-.523-.067-.59l-.4.012c.056.128.133.389.1.7zm2.716-.5c-.722.01-1.716.222-2.283.36c.039-.277-.011-.477-.067-.577c1.311-.078 2.722-.433 3.317-.617l.26-.1l-.85.934h-.005a1.7 1.7 0 0 0-.372 0m1.906-1.222c-.178.083-.367.166-.534.233l-.916 1l.1.028a.26.26 0 0 1 .127.1l.023.027c.16-.166.41-.427.65-.7c.21-.244.422-.494.555-.688zm-.556.166q.553-.228 1.083-.505a1.6 1.6 0 0 0 .322-.234a.5.5 0 0 0 .078-.094c.029-.04.04-.09.034-.139a3 3 0 0 0-.095-.3a.2.2 0 0 0-.05.028l-.039.039h-.005c-.711.428-1.822 1.072-4.1 1.277a40 40 0 0 1-2.389.128l-.433.011c-.533.017-.978.028-1.272.056l.028.055a.3.3 0 0 1 .016.212v.016l-.01.04v.032l.038.028c.278.045 1.178.14 2.594.14c1.422 0 3.122-.423 3.8-.634l.383-.145l.006-.01zM11.167 7.43c.089-.006.227-.011.355 0a.6.6 0 0 1 .167.044c.055.017.083.04.1.067a.8.8 0 0 1 .15.411a1 1 0 0 1-.017.328c-.078.278-.244.605-.417.905q-.216.374-.472.723a4.4 4.4 0 0 1-.489.55c-.094.088-.2.166-.294.227a.54.54 0 0 1-.261.09a.67.67 0 0 1-.472-.195c-.111-.106-.19-.228-.261-.334l-.011-.016l-.012-.023q-.383-.67-.733-1.36a3 3 0 0 1-.116-.262a.84.84 0 0 1-.073-.416a.3.3 0 0 1 .134-.223a.44.44 0 0 1 .21-.088a12.3 12.3 0 0 1 2.506-.428zM5.76 8.774v.278l.073-.15zm.112.061a1.3 1.3 0 0 1 .166-.205a1.3 1.3 0 0 1-.278-.578v.589zm6.65 2.817h-.018c-.316.2-.5.394-.588.544l.01.089c.312.184 1.25.444 2.7.15l-.133-.178a1.4 1.4 0 0 1-.4-.155a.6.6 0 0 1-.266-.39a.4.4 0 0 1 .127-.371a1 1 0 0 1 .261-.167v-.211a9 9 0 0 0-.838.256q-.449.165-.856.416zm-1.056.005c.294-.01.605-.01.916-.01c-.255.177-.422.35-.51.494l-.434.027a.84.84 0 0 0 .033-.505zm-.128.667l.533.005q.107.068.289.134a5 5 0 0 0 0 .21c-.272.023-.528.045-.778.05zm1.41.272l-.521.067a2 2 0 0 1 0-.178q.214.068.522.111m4.134-.81l-.139.055a1.2 1.2 0 0 1-.194-.195a.9.9 0 0 1-.195-.36c-.06-.279 0-.534.045-.64l.15-.005a1.2 1.2 0 0 0-.028.6a1 1 0 0 0 .189.366c.055.078.122.14.166.178zm-.594-.484a1.3 1.3 0 0 1 .038-.65a11 11 0 0 0-1.066.111l-.039.15a.52.52 0 0 1 .517.367c.05.166 0 .31-.067.433a.8.8 0 0 1-.211.239l.222.21c.406-.11.722-.21.983-.3a1 1 0 0 1-.166-.171a1.1 1.1 0 0 1-.212-.39m-1.15-.317l.05-.216l-.178.027l-.045.311c.09-.005.2 0 .3.04a.38.38 0 0 1 .256.3c0 .1-.056.31-.322.477c.044.089.133.233.222.317l.189-.056l-.256-.239l.034-.022a.74.74 0 0 0 .222-.244c.066-.111.105-.245.055-.378a.43.43 0 0 0-.222-.267a.53.53 0 0 0-.26-.055zm.205 1.278q-.207.054-.416.105l-.24-.366h-.05l.19-.211l.288.105l.011.034c.034.066.123.227.217.333m-.205-.378c.266-.155.316-.355.316-.428a.3.3 0 0 0-.216-.25a.7.7 0 0 0-.306-.027h-.044l.055-.367q-.189.03-.378.067v.422l-.027.01a.65.65 0 0 0-.25.134c-.084.067-.14.156-.134.267c.011.105.09.178.195.222c.094.039.194.056.277.067l-.033-.306l-.2-.11l.228-.156l.089-.29l.128.234h.31l-.16.211zm-.278.5l-.167.033l-.155-.222h-.017a1.3 1.3 0 0 1-.389-.15a.5.5 0 0 1-.239-.35a.33.33 0 0 1 .111-.305a.6.6 0 0 1 .256-.156l.028-.005v-.284l.21-.055v.355a.9.9 0 0 0-.255.14c-.089.077-.166.183-.155.321c.01.145.116.234.233.284c.111.05.239.066.333.072l.206.316zm3.55-6.833a.14.14 0 0 1-.067-.083a.2.2 0 0 1 .011-.133c.033-.09.156-.19.461-.19c.295 0 .461.134.556.273a.7.7 0 0 1 .11.333c0 .072-.016.456-.371.65c-.184.106-.306.156-.395.167a.2.2 0 0 1-.1.005a.1.1 0 0 1-.044-.022V6.54a.5.5 0 0 0-.317-.261a.5.5 0 0 1 .206.2a.7.7 0 0 0-.217-.033a.6.6 0 0 0-.467.21a.8.8 0 0 0-.16.34a.8.8 0 0 0 .06.455c.045.078.1.15.19.2a.6.6 0 0 0 .332.083a.74.74 0 0 0 .373-.077a.6.6 0 0 0 .183-.15l.017-.011a.6.6 0 0 1 .2-.15a1.07 1.07 0 0 1 1.26.41c.2.278.312.617.312.895c0 .222-.084.478-.189.717a5 5 0 0 1-.322.572q-.13.21-.3.389a.8.8 0 0 1-.19.155a.34.34 0 0 1-.177.067a.35.35 0 0 1-.255-.1l-.017-.011a.56.56 0 0 0-.639-.05a2.6 2.6 0 0 0-.622.578l-.322.538q-.102.072-.217.117c-.383-.483-.367-.867-.317-1l.445-.006a.63.63 0 0 0 .627-.338a2.5 2.5 0 0 1 .317-.44a.7.7 0 0 1 .206-.144l-.017.006c.805-.039.772-.928.656-1.372c.088.794-.173 1.133-.384 1.239a.43.43 0 0 0 .111-.317a.84.84 0 0 0-.089-.406a.42.42 0 0 0-.388-.227a.4.4 0 0 0-.223.055a.3.3 0 0 0-.11.134l-.045.122l-.011.039a.6.6 0 0 1-.078.15q-.033.05-.167.033a1.2 1.2 0 0 1-.31-.1a2.4 2.4 0 0 1-.634-.422a1.45 1.45 0 0 1-.361-.945c.067.128.205.311.45.484a1.6 1.6 0 0 1-.456-.7c0-.156.017-.317.04-.49c.11-.76.666-1.266 1.2-1.266c.213-.007.426.04.616.14h.01l.073.038c.056.017.106.033.167.033c.11 0 .194-.005.255-.044c.061-.033.09-.1.09-.189c.1-.244-.067-.444-.168-.517c.056.073.156.245.15.412a.2.2 0 0 0-.066-.084a.3.3 0 0 0-.133-.055h-.012c-.044-.084-.15-.095-.2-.09c.056.012.15.056.167.129a.2.2 0 0 1-.117.088a.24.24 0 0 1-.172-.022zm-1.51 5.073c-.056.178-.034.561.327 1.028l-.272.11a1 1 0 0 1-.194-.194a.9.9 0 0 1-.172-.344a1.13 1.13 0 0 1 .033-.589zm-7.672 1.233l-.611.1c0 .09.055.25.255.334c.14-.017.345-.028.573-.034a.7.7 0 0 1-.217-.4m.067-.01c.016.1.083.294.255.405q.237-.006.472 0l.411-.028l-.055-.5c-.4.033-.761.078-1.083.122m1.15-.128l.055.5l.861-.05a.65.65 0 0 0 .067-.267c0-.1-.011-.19-.028-.24c-.333.012-.655.029-.956.056m.872 1.005l-.045-.4l-.76-.011l.01.4c.25.01.517.017.795.01m-.861-.017l-.017-.389l-.128-.005q-.324.006-.65 0l-.05.144a.5.5 0 0 0-.017.145c.262.044.55.083.862.105m-.928-.122c0-.044.005-.1.017-.144l.038-.123q-.34.01-.677.034l.039.089q.258.084.583.144m-3.539-2.05l-.066-.005a.72.72 0 0 0 .427-.256a.9.9 0 0 0 .178-.455c0-.34-.139-.528-.311-.623l-.011-.005a.6.6 0 0 1 .15.05c.099.041.184.11.244.2a.7.7 0 0 1 .1.378a.8.8 0 0 1-.122.46a.56.56 0 0 1-.272.212a.7.7 0 0 1-.317.044M5.711 9.18a.8.8 0 0 0-.255.222a.64.64 0 0 0-.172.433c0 .167.072.317.166.422c.1.112.211.184.29.223c.277 0 .444-.111.555-.25a.8.8 0 0 0 .166-.417c0-.317-.127-.478-.277-.555a.76.76 0 0 0-.467-.067V9.18zm9.016 2.133l-.044.155l-.166.112l.144.077l.017.2l.133-.15l.205.078l-.11-.21l.11-.134h-.222zm-1.905-3.489c-.161.23-.249.503-.25.784c0 .216.106.527.278.777c.183.261.422.45.683.45h.034c-.428-.172-.74-.666-.74-1.239c0-.538.267-1 .65-1.2c-.263.059-.495.21-.655.428m.072.772c0 .684.445 1.223.984 1.24h.066c.534-.023.978-.556.978-1.24c0-.7-.467-1.244-1.017-1.244s-1.016.544-1.016 1.244zm1.067.767a.6.6 0 0 0 .333-.1l-.072-.044h-.005l-.578-.217l.089.311a.6.6 0 0 0 .233.056zm.689-.728a.9.9 0 0 1-.295.584l-.094-.056l.267-.355V8.78zm.005-.127v.016l-.144.167l-.089-.689h-.006l-.027-.167a.9.9 0 0 1 .266.673m-.31-.534l-.034-.205a.6.6 0 0 0-.35-.111a.6.6 0 0 0-.411.166h.178l.005-.022zm-1.078.534c0-.25.088-.467.222-.623h.194l-.289.445l-.127.205zm.377.76a.84.84 0 0 1-.366-.616l.138-.233l.14.555zm.317.167c.422 0 .766-.416.766-.927c0-.506-.344-.923-.766-.923s-.761.417-.761.923c0 .51.339.922.76.922zm.4-1.389l.089.712l.005.027l-.26.356l-.584-.222l-.145-.578l.3-.461zM4.439 5.713l.267-.227a.46.46 0 0 1-.111.183a.3.3 0 0 1-.156.044m1.9-.889a4.1 4.1 0 0 0-1.75.934l.745-.44l-.128.168a4.3 4.3 0 0 1 .833-.367c.35-.106 1.461-.539 1.972-.744l-1.888.583l.222-.14zm2.817-2.31c.8.094 2.683.46 3.838 1.183l-.333-.334h.128l-1.389-.61l.178.16c-.567-.155-1.845-.455-2.422-.4m3.266 2.527c.261-.189.85-.66 1.095-1.016c-.26.436-.64.789-1.095 1.016m-.944.333c.16-.11.522-.383.672-.588c-.139.277-.511.51-.678.588z" clip-rule="evenodd"/><path fill="#FF0" d="M17.539 10.89c-.028-.11-.123-.1-.167-.088v-.239c0-.044-.1-.128-.2-.122c-.078 0-.095.144-.095.216l.095.445c.01.011.178.311.194.322c.023.011.161.111.172.106c.017-.011-.072-.35-.055-.373a.32.32 0 0 0 .055-.266"/><path fill="#FF9417" fill-rule="evenodd" d="M17.172 10.674v-.144a.2.2 0 0 1 .039-.028q.035-.016.06 0c.018.011.023.022.023.083v.017l.006.078v.027a1 1 0 0 1-.128-.033m.16.595a1.6 1.6 0 0 1-.105-.278v-.006h.012l.055.006c.039 0 .078-.095.089-.167l.028.022h.005a.4.4 0 0 1 .056.056a.06.06 0 0 1 .028.039c0 .016 0 .039-.012.072l-.016.078c-.011-.011-.028-.017-.039-.011c-.028.01-.033.038-.044.072a.3.3 0 0 1-.056.111zm.04.06a.5.5 0 0 0 .139.15v-.005a.8.8 0 0 1-.045-.194l-.094.055zm-.034-.955a.18.18 0 0 0-.183-.005a.3.3 0 0 0-.105.088l-.011.017v.222c.028.246.1.485.21.706a.55.55 0 0 0 .173.194a.34.34 0 0 0 .183.056l.056-.006a.1.1 0 0 0 .05-.055c.01-.034 0-.056 0-.072a1 1 0 0 0-.056-.072l-.011-.012l-.011-.017a.63.63 0 0 1-.017-.36a.24.24 0 0 0-.05-.267a.5.5 0 0 0-.072-.061l-.055-.045v-.028l-.006-.055v-.017c0-.055 0-.155-.095-.21" clip-rule="evenodd"/><defs><linearGradient id="tokenBrandedRbls0" x1="10.154" x2="17.767" y1="5.93" y2="17.154" gradientUnits="userSpaceOnUse"><stop offset=".1" stop-color="#6F4214"/><stop offset=".19" stop-color="#985C1B"/><stop offset=".25" stop-color="#7B4915"/><stop offset=".55" stop-color="#7B4915"/><stop offset=".71" stop-color="#683F13"/></linearGradient><linearGradient id="tokenBrandedRbls1" x1="9.249" x2="11.669" y1="3.512" y2="22.033" gradientUnits="userSpaceOnUse"><stop stop-color="#D98C47"/><stop offset=".13" stop-color="#FFC365"/><stop offset=".27" stop-color="#FCA351"/><stop offset=".58" stop-color="#FCA351"/><stop offset=".74" stop-color="#D68B46"/></linearGradient><linearGradient id="tokenBrandedRbls2" x1="5.302" x2="19.123" y1="8.449" y2="8.449" gradientUnits="userSpaceOnUse"><stop offset=".53" stop-color="#B1BFD5"/><stop offset=".98" stop-color="#6B7686"/></linearGradient><linearGradient id="tokenBrandedRbls3" x1="12.044" x2="12.044" y1="2" y2="21.847" gradientUnits="userSpaceOnUse"><stop offset=".36" stop-color="#F8DEAB"/><stop offset="1" stop-color="#F7B647"/></linearGradient><linearGradient id="tokenBrandedRbls4" x1="11.954" x2="11.954" y1="2" y2="22" gradientUnits="userSpaceOnUse"><stop offset=".12" stop-color="#FFDC3D"/><stop offset=".39" stop-color="#FFFFC0"/><stop offset="1" stop-color="#CF992C"/></linearGradient><linearGradient id="tokenBrandedRbls5" x1="9.923" x2="12.457" y1="3.596" y2="21.928" gradientUnits="userSpaceOnUse"><stop stop-color="#FFC340"/><stop offset=".24" stop-color="#FFE8BC"/><stop offset=".57" stop-color="#F7B23D"/><stop offset=".76" stop-color="#F9DFAD"/></linearGradient><linearGradient id="tokenBrandedRbls6" x1="6.907" x2="23.885" y1="21.095" y2="12.996" gradientUnits="userSpaceOnUse"><stop stop-color="#FFC340"/><stop offset=".24" stop-color="#FFE8BC"/><stop offset=".57" stop-color="#F7B23D"/><stop offset=".76" stop-color="#F9DFAD"/><stop offset="1" stop-color="#FDC33A"/></linearGradient><linearGradient id="tokenBrandedRbls7" x1="4.251" x2="7.175" y1="3.397" y2="22.709" gradientUnits="userSpaceOnUse"><stop stop-color="#DA8E48"/><stop offset=".18" stop-color="#F9BB60"/><stop offset="1" stop-color="#D68B46"/></linearGradient><linearGradient id="tokenBrandedRbls8" x1="3.389" x2="6.598" y1="4.626" y2="23.001" gradientUnits="userSpaceOnUse"><stop stop-color="#ADA3A0"/><stop offset="1" stop-color="#706F6E"/></linearGradient><linearGradient id="tokenBrandedRbls9" x1="12" x2="12" y1="2.016" y2="22" gradientUnits="userSpaceOnUse"><stop offset=".22" stop-color="#4A576D"/><stop offset=".29" stop-color="#606D84"/><stop offset=".44" stop-color="#606D84"/><stop offset=".5" stop-color="#48566B"/></linearGradient><linearGradient id="tokenBrandedRblsa" x1="12" x2="6.295" y1="2" y2="20.304" gradientUnits="userSpaceOnUse"><stop offset=".36" stop-color="#617381"/><stop offset=".4" stop-color="#86999F"/><stop offset=".57" stop-color="#889C9A"/><stop offset=".62" stop-color="#667A7B"/></linearGradient></defs></g></svg>