<svg xmlns="http://www.w3.org/2000/svg" xmlns:xlink="http://www.w3.org/1999/xlink" width="24" height="24" viewBox="0 0 24 24"><g fill="none"><path fill="#00309D" d="M5.886 3.931L2 14.07l6.411 7.074l10.24-.48L22 10.417l-5.908-7.56z"/><path fill="#062682" d="m6.143 4.257l-3.72 9.726l6.148 6.794l9.829-.463l3.206-9.834l-5.669-7.257z"/><path fill="#0541D6" d="m6.972 5.354l-3.2 8.343l5.286 5.829l8.44-.395l2.76-8.434l-4.869-6.228z"/><path fill="#409BEA" d="m7.657 6.257l-2.76 7.217l4.566 5.035l7.286-.343l2.383-7.298l-4.206-5.377z"/><path fill="#58C5F5" d="m8.28 7.103l-2.372 6.154l3.915 4.297l6.25-.291l2.047-6.217l-3.606-4.589l-6.234.651z"/><path fill="#BAFCFD" d="M8.897 7.903L6.92 13.046l3.269 3.6l5.21-.246l1.704-5.2l-3.006-3.84z"/><path fill="#E1FFFE" d="m11.806 11.114l-5.96-7.097l.131-.114L12 11.08L8.514 21.126l-.16-.058l3.452-9.948z"/><path fill="#E1FFFE" d="m15.978 3.137l5.726 7.32l-3.246 9.937l-9.92.469l-6.211-6.857l3.76-9.829zm-9.771 1.2L2.52 13.966l6.091 6.72l9.72-.457l3.183-9.732l-5.611-7.183z"/><path fill="#E1FFFE" d="m13.343 10.914l2.8-7.971l-.16-.057l-3.663 10.423l-10.188.702l.011.172l10.2-.709l6.246 7.269l.126-.109l-6.24-7.263l.8-2.285l8.703-.56l-.012-.172l-8.628.56z"/></g></svg>