<svg xmlns="http://www.w3.org/2000/svg" xmlns:xlink="http://www.w3.org/1999/xlink" width="24" height="24" viewBox="0 0 24 24"><path fill="#4155FF" d="M21.963 7.97a.62.62 0 0 0-.573-.41a.61.61 0 0 0-.555.35a10 10 0 0 1-.534 1a8.88 8.88 0 0 0-4.246-4.813A8.81 8.81 0 0 0 4.54 7.227a8.93 8.93 0 0 0-1.25 6.301a11.4 11.4 0 0 0-1.223 2.029a.61.61 0 1 0 1.1.522q.241-.51.54-.995a8.88 8.88 0 0 0 4.24 4.819a8.81 8.81 0 0 0 11.515-3.13a8.93 8.93 0 0 0 1.256-6.301c.478-.634.89-1.312 1.223-2.029a.6.6 0 0 0 .022-.472M19.629 12c0 1.867-.684 3.68-1.918 5.08a7.614 7.614 0 0 1-13.115-3.24a11.35 11.35 0 0 1 5.807-3.518a17.3 17.3 0 0 1 3.807-.584l-1.828 1.834l.867.873l3.307-3.33l-3.769-3.784l-.86.867L14.22 8.51c-1.39.044-2.767.256-4.112.622a13.9 13.9 0 0 0-4.407 2.046a11 11 0 0 0-1.323 1.111l-.006-.294a7.614 7.614 0 0 1 15.022-1.845a11.3 11.3 0 0 1-5.802 3.523a17.3 17.3 0 0 1-3.806.583l1.822-1.834l-.867-.872l-3.3 3.323l3.778 3.796l.862-.867l-2.295-2.312a18 18 0 0 0 4.112-.622a13.9 13.9 0 0 0 4.402-2.045a10.6 10.6 0 0 0 1.328-1.112z"/></svg>