<svg xmlns="http://www.w3.org/2000/svg" xmlns:xlink="http://www.w3.org/1999/xlink" width="24" height="24" viewBox="0 0 24 24"><path fill="#52B675" d="m2.87 10.941l6.089.847l-6.088.853L2 11.788l.87-.853zm3.912 2.118h2.612L7.218 14.34l-.871-.423l.435-.853zm3.041.859l-2.176.847v.853h.877l1.3-1.706zm-.864 3.4v-.848l1.735-1.276l-.87 2.124zm1.735 4.258L12 15.618l-2.606 5.529l.43.853zm2.176-3.829l.436-2.13l.435 2.13l-.435.424zm1.736 0l-.43-2.13l1.3 1.706v.848zm6.088.424l-4.347-4.253L22 16.894v1.277zm-1.3-6.812l-2.612.43l2.612.423l.43-.424zm1.3-5.953l-4.347 4.253L22 7.106V5.829zm-5.218 1.276l-.435 1.706l1.306-1.282v-.853zm-1.735-.853l-.435 2.13l-.435-2.13l.435-.423zm-3.047-3.405L12 8.382l-2.606-5.53l.43-.852zM8.96 7.106l1.3 2.13l-2.177-1.277v-.853z"/></svg>