<svg xmlns="http://www.w3.org/2000/svg" xmlns:xlink="http://www.w3.org/1999/xlink" width="24" height="24" viewBox="0 0 24 24"><path fill="#16406E" d="M11.98 2L3.15 7.104v.167l2.53-1.387l.25.251h.016l1.478-.777l.175.351l5.387-3.13zm1.379.794L3.157 8.674v.25l2.53-1.478l.25.35L8.82 6.145l.175.35L14.411 3.4zm1.458.84l-11.66 6.693v.166l2.53-1.386l.25.343h.01l4.266-2.522l.175.35l5.397-3.087zm1.387.798L3.148 11.896v.251l2.531-1.478l.25.35h.017l5.662-3.214l.175.259l5.388-3.076zm1.372.79l-14.419 8.32v.183l2.53-1.394l.25.258h.01l7.055-4.008l.175.26l5.438-3.021zm1.371.789L3.157 15.12v.259l2.53-1.478l.25.342h.01l8.45-4.877l.175.351l5.422-3.103zm1.38.794l-17.17 9.968v.167l2.53-1.386l.25.35l8.46-4.968l.175.351l6.28-3.574v-.605zM5.686 17.124l-1.395.868l-.267-.176L20.852 8.14v1.144l-6.28 3.658l-.176-.35l-8.542 4.876zm8.885-2.53l-.176-.351l-7.064 4.008l-.25-.342l-1.395.86l-.267-.084l15.432-8.96v1.119zM8.56 18.776l-1.479.785l-.008-.008l-.25-.084l14.029-8.1v1.136l-6.28 3.658l-.167-.351l-5.679 3.314zm1.394.785l-1.478.785v-.017l-.267-.083l12.643-7.307v1.22l-6.28 3.657l-.176-.35l-4.275 2.446zm-.092 1.653l-.259-.175l11.249-6.446v1.136l-6.28 3.657l-.176-.35l-2.88 1.652l-.167-.341zm2.79-.083L11.255 22l-.174-.084l9.77-5.752v1.22l-6.28 3.657l-.176-.351l-1.477.784z"/></svg>