<svg xmlns="http://www.w3.org/2000/svg" xmlns:xlink="http://www.w3.org/1999/xlink" width="24" height="24" viewBox="0 0 24 24"><g fill="none"><path fill="#F7931A" d="M4.222 12a7.777 7.777 0 1 1 15.555 0a7.777 7.777 0 0 1-15.555 0"/><path fill="#fff" d="M15.488 11.082c.145-.972-.594-1.5-1.61-1.85l.327-1.316l-.806-.2l-.322 1.283l-.639-.15l.323-1.294l-.806-.2l-.333 1.322l-.506-.122v-.006l-1.11-.278l-.217.861s.594.14.588.145c.323.083.378.294.373.46l-.373 1.512l.084.028l-.09-.022l-.527 2.11c-.039.095-.139.245-.367.184c.011.017-.583-.14-.583-.14l-.4.918l1.05.26l.572.15l-.333 1.334l.8.2l.328-1.322l.644.166l-.333 1.317l.81.2l.334-1.333c1.367.26 2.4.16 2.834-1.084c.35-1-.017-1.572-.74-1.955c.528-.111.923-.461 1.023-1.178zm-1.833 2.583c-.25 1-1.933.456-2.478.328l.445-1.777c.539.144 2.289.41 2.027 1.444v.005zm.245-2.588c-.223.905-1.634.444-2.084.333l.4-1.605c.456.11 1.917.327 1.684 1.272"/><path fill="#B3BDC7" d="m2 11.999l.006-.372l1.828-1.028a7.4 7.4 0 0 0-.112 1.167l-1.694 1A12 12 0 0 1 2 11.999m.156 1.75c.055.317.122.628.21.939l1.534-.906a9 9 0 0 1-.144-.955zm.889 2.694a10 10 0 0 1-.39-.86l1.5-.867q.16.441.35.866l-1.466.861zm.444.806c.167.278.356.544.55.8l1.461-.856a8 8 0 0 1-.55-.789zm1.856 2.21a9 9 0 0 1-.706-.694l1.483-.855q.35.35.734.666zm.766.623q.392.285.8.528l1.65-.967q-.45-.215-.867-.472zm3.133 1.533a9 9 0 0 1-1.35-.5L9.7 20.077a8 8 0 0 0 1.611.322zm1.378.29a10 10 0 0 0 10.644-6.14l-2.4 1.39l-.378.422a10 10 0 0 1-.577.594c-.456.444-1 .928-1.506 1.222c-1.183.706-3.338 1.106-3.338 1.106zm9.278-6.556l1.844-1.083c.094-.406.167-.828.206-1.25l-1.584.91a8 8 0 0 1-.472 1.428zm2.1-3.594l-1.434.838q.03-.424.017-.85l1.367-.788c.027.266.044.527.05.8m-1.534-1.173l1.295-.766a8 8 0 0 0-.211-.795l-1.267.734q.108.4.183.827m.7-2.588l-1.244.733a9 9 0 0 0-.356-.745l1.245-.722c.127.245.244.484.355.734m-2.172-.917l1.25-.739a8 8 0 0 0-.467-.622l-1.277.739c.172.2.333.405.494.622m.044-2.183l-1.322.777a7 7 0 0 0-.65-.516l1.384-.795c.2.167.4.35.588.534m-2.994-.367l1.472-.867a10 10 0 0 0-.688-.416l-1.606.91c.278.112.556.234.822.373m-.389-1.833l-1.822 1.055a7.5 7.5 0 0 0-1.51-.166l2.243-1.245c.373.1.74.217 1.09.356m-13.544 7.81l2.04-1.172a8.4 8.4 0 0 1 .76-1.655L2.445 9.038q-.223.72-.334 1.467m10.817-8.46A10 10 0 0 0 2.984 7.66l3-1.689s1.038-1.016 1.844-1.466c.8-.45 2.2-.822 2.2-.822z"/></g></svg>