<svg xmlns="http://www.w3.org/2000/svg" xmlns:xlink="http://www.w3.org/1999/xlink" width="24" height="24" viewBox="0 0 24 24"><g fill="none"><path fill="url(#tokenBrandedRet0)" d="M10.736 18.665c-.836-.065-.971-1.16-.936-1.706l.236-1l1.258-.27c.212.323.624 1.04.589 1.382c-.06.423-.648.9-.7 1.035c-.053.13-.183.559-.447.559"/><path fill="#B46014" d="M10.876 18.618a.8.8 0 0 1-.159-.465c0-.182.136-.382.271-.588c.147-.224.294-.453.294-.683c0-.259.077-.67.141-.982c.218.359.489.894.453 1.17c-.035.295-.323.612-.517.824c-.088.094-.16.17-.177.212l-.011.047c-.053.123-.142.364-.295.47z"/><path fill="#FAD33F" d="m13.235 15.718l2.388 5.411l-3.388.87l.059-5.393z"/><path fill="url(#tokenBrandedRet1)" d="M11.347 16.33c.123 1.252 1.53 1.882 2.206 2.04c.159-.105.106-.558 0-.9c-.083-.276-.036-1.282 0-1.752c-.788-.318-2.335-.648-2.206.611"/><path fill="#B05A0D" d="M12.83 15.765c.023.035.305.84.305 1.217c0 .336.177.918.47 1.335c.095-.158.042-.546-.052-.846c-.083-.277-.036-1.283 0-1.754a5 5 0 0 0-.441-.152l-.283.206z"/><path fill="#FAD33F" d="m15.547 13.77l5.564 2.212L19.1 18.83l-3.682-3.776z"/><path fill="url(#tokenBrandedRet2)" d="M16.165 15.824c-.03-.318-.612-1.089-.665-1.118c-1.494-.794-3.277.294-2.741 1.117c.53.824 1.806 1.33 2.605 1.33c.642 0 1.03-.218 1.148-.324a4.3 4.3 0 0 1-.353-1.006z"/><path fill="#B25F05" d="M14.412 14.635c.353.03 1.1.259 1.194.941a2.3 2.3 0 0 0 .665 1.4a.8.8 0 0 0 .235-.147a4.3 4.3 0 0 1-.341-1.006c-.03-.317-.612-1.088-.665-1.117a2.35 2.35 0 0 0-1-.27z"/><path fill="#1A739F" d="m6.13 13.941l-1.324.677l-.524-2.306h1.453zm3.352 3.37l-.664 1.683l-1.994-1.188l1.17-1.283z"/><path fill="#FAD33F" d="m15.9 10.659l5.512-2.347l.588 3.435h-5.194zm-2.053-2.4l2.341-5.488l2.665 1.911l-3.594 3.742z"/><path fill="url(#tokenBrandedRet3)" d="M5.353 12.588c0-.47.976-.764 1.47-.853c.43.73 1.071 2.16.154 2.07c-1.142-.1-1.624-.629-1.624-1.217"/><path fill="#63CBE6" d="M12.277 3.806V2l3.329.588l-.588 1.718z"/><path fill="#1A739F" d="M11.77 3.806V2l-3.223.612l.618 1.617z"/><path fill="#63CBE6" d="M11.77 20.018v1.8l-3.223-.606l.618-1.624z"/><path fill="#1A739F" d="m8.694 4.553l-.659-1.676l-2.776 1.74L6.423 5.9zm0 14.788l-.659 1.682l-2.776-1.74L6.423 18zM5.971 6.294L4.753 5.16L2.918 7.865l1.588.706L5.97 6.3zM4.24 14.9l-1.559.588l-.647-3.206l1.736-.04zm1.735 2.647l-1.17 1.188L2.87 16.1l1.558-.765zM4.324 9.165l-1.677-.677l-.647 3.2l1.735.047zm7.311-3.13V4.23l-2.288.37l.612 1.618zm-4.34 1.747L6.287 6.694L5 8.682l1.365.5zM6.152 9.906l-1.294-.577l-.541 2.306l1.517.077z"/><path fill="url(#tokenBrandedRet4)" d="M7.323 8.076c0 .53.394.912.588 1.036h2.047l-.294-1.459c-.105-.63-.353-1.882-.5-1.882c-.629 0-1.84 1.747-1.84 2.305"/><path fill="url(#tokenBrandedRet5)" d="M9.294 6c-.166.41-.256.846-.264 1.288c0 .47.4.77.753.924l-.118-.559A13 13 0 0 0 9.3 6.006z"/><path fill="url(#tokenBrandedRet6)" d="M5.806 15.453a2.8 2.8 0 0 1 1.012-2.018l2.264 1.489c-.47.235-1.529.788-2 1.088c-.582.37-.664.847-.794.847c-.135 0-.482-.189-.482-1.412z"/><path fill="#D7841A" d="M6.276 16.859c.171-.67 1.024-1.383 1.26-1.536c-.107-.188-.483.06-.795.26l-.223.14c.094-.294.547-.664.658-.752l.018-.018c.03-.024-.153-.03-.365-.035c-.24-.012-.523-.018-.558-.06c-.036-.029.07-.246.176-.47c.124-.253.253-.518.212-.576a2 2 0 0 0-.1-.13c.094-.106.188-.188.259-.247l2.264 1.489c-.47.235-1.53.788-2 1.088c-.358.23-.53.5-.635.67c-.065.106-.112.177-.159.177z"/><path fill="url(#tokenBrandedRet7)" d="M9.376 7.306c0 .553.389.794.589.847l2.123.27c.253-.911.759-2.811.8-3.105c.059-.37-.294-.4-.423-.4c-2.506.664-3.089 1.7-3.089 2.388"/><path fill="url(#tokenBrandedRet8)" d="M12.824 5.035c-.471.877-1.253 2.465-1.224 2.841c.018.295.27.46.494.536c.247-.912.753-2.8.794-3.094c.018-.136-.011-.224-.07-.283z"/><path fill="url(#tokenBrandedRet9)" d="M15.447 8.1c-.112-.653.376-1.265.635-1.482c-.094-.124-.57-.37-1.676-.37c-1.383 0-2.689.793-2.689 1.428c0 .512 1.118 1.365 1.677 1.724c.73-.159 2.159-.641 2.053-1.294z"/><path fill="url(#tokenBrandedReta)" d="M15.788 6.941a1.6 1.6 0 0 0-.341 1.159c.088.547-.888.976-1.635 1.194a.53.53 0 0 1-.041-.323c.129-1 1.317-1.736 2.017-2.03"/><path fill="url(#tokenBrandedRetb)" d="M15.735 8.1c-1.488 0-1.806.73-1.782 1.088c-.106 1.647 1.888 2.259 2.612 1.382c.476-1.54.952-1.723 1.117-1.94c-.106-.448-1.064-.53-1.94-.53z"/><path fill="url(#tokenBrandedRetc)" d="M17.653 8.559c-.359.247-1.094.841-1.918 1.77a6 6 0 0 1-.623.56c.535.17 1.123.076 1.453-.319c.382-1.24.764-1.6.988-1.805l.13-.13a.4.4 0 0 0-.03-.076"/><path fill="url(#tokenBrandedRetd)" d="M16 10.541c-.847 0-1.118.347-1.17.4a3.2 3.2 0 0 0-.13 1.588c.159.853 1.624.4 1.941.4c.318 0 1.012-.529 1.147-.658c.13-.136.56-.43.56-.53c0-.323-1.495-1.2-2.342-1.2z"/><path fill="#B25F05" d="M18.306 11.63c-.394.311-1.177.8-1.741.8c-.547 0-1.4-.053-1.894-.089l.029.194c.13.683 1.1.524 1.641.436c.13-.024.236-.042.3-.042c.324 0 1.012-.529 1.147-.658c.041-.048.118-.106.2-.177c.165-.13.353-.288.353-.353a.2.2 0 0 0-.035-.112"/><path fill="url(#tokenBrandedRete)" d="M17.97 14.735c-.805-2.1-2.411-2.306-3.111-2.147c-.194.43-.588 1.47-.588 2.147c2.746.689 3.57.106 3.705 0z"/><path fill="#B25F05" d="M17.912 14.782a34 34 0 0 1-1.624.036c-1.023 0-1.7-.236-1.994-.394c-.012.111-.024.217-.024.311c2.471.618 3.383.212 3.642.047"/><path fill="url(#tokenBrandedRetf)" d="M10.864 16.512c2.398 0 4.342-1.936 4.342-4.324s-1.944-4.323-4.342-4.323s-4.34 1.935-4.34 4.323s1.943 4.324 4.34 4.324"/><path fill="#DF9A1C" d="M13.5 13.835c.235-.617.17-1.035.106-1.17c.188-.388.53-.636.53-.294a1.7 1.7 0 0 1-.636 1.464"/><path fill="#656D62" d="M7.83 8.741c-1.36.041-1.465.93-1.465 1.483c0 1.223.4 1.435.776 1.435c1.436 0 2.024-2.124 2.024-2.547s-.324-.424-1.335-.37"/><path fill="#656D62" d="M10.389 9.006a5 5 0 0 0-1.306.023l-.036-.153c.177-.04.683-.094 1.353-.029zm-.789.359c-.212.011-.412.047-.54.111l-.066-.147a2.13 2.13 0 0 1 1.253-.058l-.04.152a2.2 2.2 0 0 0-.607-.058"/><path fill="#656D62" d="M12.012 8.582c1.47 0 2.029.812 2.129 1.218c0 1.776-.935 2.176-1.441 2.176c-2.606 0-2.553-1.911-2.553-2.6c0-.688.506-.794 1.864-.794"/><path fill="url(#tokenBrandedRetg)" d="M10.282 13.182c-1.623 0-2.664-.6-2.982-.9c0 1.941 1.118 2.783 3.218 2.783c2.106 0 2.558-1.565 2.688-1.883c.135-.317.082-.37 0-.394c-.077-.03-.9.394-2.924.394"/><path fill="#CBCAC9" d="m7.447 13.37l.059-.082l.353.265a.5.5 0 0 1 .106-.07c.058-.024.14-.048.211-.018a.43.43 0 0 1 .165.14a.7.7 0 0 1 .077.136c.323.13 1.317.353 2.876.253a.5.5 0 0 1 .194.047l.059.024a.2.2 0 0 0 .047.005l.07-.011l.1-.041l.077-.03q.09-.033.182-.059l.1-.017l.042-.006q.263-.045.523-.1a.7.7 0 0 0 .188-.07l.06.087a.8.8 0 0 1-.224.083q-.261.07-.53.106h-.041l-.147.03a2 2 0 0 0-.188.076l-.118.04a.3.3 0 0 1-.176.006l-.065-.023l-.012-.006a.4.4 0 0 0-.14-.035c-1.595.106-2.619-.135-2.942-.27l-.018-.012l-.006-.018a.6.6 0 0 0-.07-.13a.3.3 0 0 0-.118-.105a.18.18 0 0 0-.13.017a.5.5 0 0 0-.117.077l-.03.03z"/><path fill="url(#tokenBrandedReth)" d="M9.959 9.618h-.56c.107.2-.105.635-.105.764c-.424.16-.612.453-.612.747c0 .295.265.712.612.712c.506 0 .853-.294.853-.659c0-.37-.318-.53-.347-.717c-.018-.147.1-.63.159-.847"/><path fill="url(#tokenBrandedReti)" d="M7.565 16.382c0-.553.53-1.1.8-1.3c.664-.188 2.258.394 2.37.5c.106.106.394.53.394.883c0 .688-1.194.976-1.647 1.058c-.453.077-1.117.765-1.306.765c-.188 0-.611-1.217-.611-1.906"/><path fill="url(#tokenBrandedRetj)" d="M10.888 15.794c.118.176.241.441.241.665c0 .694-1.194.982-1.647 1.059c-.259.047-.588.294-.864.5l-.218.158c.273-.424.65-.772 1.094-1.011c.63-.27 1.218-.794 1.394-1.37"/><path fill="url(#tokenBrandedRetk)" d="M7.806 8.835c-1.253.041-1.342.847-1.342 1.353c0 1.106.365 1.294.706 1.294c1.318 0 1.859-1.923 1.859-2.306c0-.388-.294-.388-1.223-.34"/><path fill="url(#tokenBrandedRetl)" d="M12.023 8.718c1.353 0 1.871.747 1.96 1.117c0 1.641-.86 2.006-1.324 2.006c-2.4 0-2.353-1.759-2.353-2.394s.47-.73 1.717-.73"/><path fill="#B25C06" d="m9.37 15.1l-.47.994l.188-1h.283zm.865.253l-.73.959l.883-.87l-.159-.09z"/><defs><linearGradient id="tokenBrandedRet0" x1="11.958" x2="15.502" y1="2" y2="22.361" gradientUnits="userSpaceOnUse"><stop offset=".15" stop-color="#B45A0F"/><stop offset=".33" stop-color="#FACA30"/></linearGradient><linearGradient id="tokenBrandedRet1" x1="11.981" x2="15.533" y1="2.013" y2="22.365" gradientUnits="userSpaceOnUse"><stop offset=".15" stop-color="#B45A0F"/><stop offset=".33" stop-color="#FACA30"/></linearGradient><linearGradient id="tokenBrandedRet2" x1="1.985" x2="25.651" y1="8.911" y2="15.541" gradientUnits="userSpaceOnUse"><stop offset=".27" stop-color="#DB8611"/><stop offset=".53" stop-color="#FBE04C"/></linearGradient><linearGradient id="tokenBrandedRet3" x1="2" x2="23.767" y1="12.038" y2="12.038" gradientUnits="userSpaceOnUse"><stop stop-color="#F8E467"/><stop offset="1" stop-color="#D78519"/></linearGradient><linearGradient id="tokenBrandedRet4" x1="12" x2="12" y1="1.965" y2="22" gradientUnits="userSpaceOnUse"><stop stop-color="#FAED84"/><stop offset="1" stop-color="#E79D20"/></linearGradient><linearGradient id="tokenBrandedRet5" x1="12" x2="12" y1="2" y2="22" gradientUnits="userSpaceOnUse"><stop stop-color="#D8A935"/><stop offset="1" stop-color="#AE5C04"/></linearGradient><linearGradient id="tokenBrandedRet6" x1="16.147" x2="10.655" y1="3.237" y2="23.911" gradientUnits="userSpaceOnUse"><stop offset=".27" stop-color="#DB8611"/><stop offset=".53" stop-color="#FBE04C"/></linearGradient><linearGradient id="tokenBrandedRet7" x1="11.998" x2="11.998" y1="2" y2="22" gradientUnits="userSpaceOnUse"><stop stop-color="#FAED84"/><stop offset="1" stop-color="#E79D20"/></linearGradient><linearGradient id="tokenBrandedRet8" x1="12.012" x2="12.012" y1="2" y2="22" gradientUnits="userSpaceOnUse"><stop stop-color="#D8A935"/><stop offset="1" stop-color="#AE5C04"/></linearGradient><linearGradient id="tokenBrandedRet9" x1="12" x2="12" y1="2" y2="22" gradientUnits="userSpaceOnUse"><stop stop-color="#FAED84"/><stop offset="1" stop-color="#E79D20"/></linearGradient><linearGradient id="tokenBrandedReta" x1="12.016" x2="12.016" y1="2" y2="22" gradientUnits="userSpaceOnUse"><stop stop-color="#D8A935"/><stop offset="1" stop-color="#AE5C04"/></linearGradient><linearGradient id="tokenBrandedRetb" x1="22" x2="2.983" y1="5.033" y2="9.314" gradientUnits="userSpaceOnUse"><stop offset=".47" stop-color="#FBF387"/><stop offset=".88" stop-color="#E59718"/></linearGradient><linearGradient id="tokenBrandedRetc" x1="6.943" x2="15.542" y1="15.176" y2="17.604" gradientUnits="userSpaceOnUse"><stop stop-color="#B76708"/><stop offset="1" stop-color="#CD7F13"/></linearGradient><linearGradient id="tokenBrandedRetd" x1="22" x2="2.952" y1="5.002" y2="9.298" gradientUnits="userSpaceOnUse"><stop offset=".47" stop-color="#FBF387"/><stop offset=".88" stop-color="#E59718"/></linearGradient><linearGradient id="tokenBrandedRete" x1="2" x2="25.642" y1="8.916" y2="15.515" gradientUnits="userSpaceOnUse"><stop offset=".27" stop-color="#DB8611"/><stop offset=".53" stop-color="#FBE04C"/></linearGradient><linearGradient id="tokenBrandedRetf" x1="12" x2="12" y1="2" y2="22" gradientUnits="userSpaceOnUse"><stop stop-color="#FFD133"/><stop offset=".46" stop-color="#F8C72D"/><stop offset="1" stop-color="#EFA914"/></linearGradient><linearGradient id="tokenBrandedRetg" x1="12.589" x2="9.926" y1="6.863" y2="21.626" gradientUnits="userSpaceOnUse"><stop stop-color="#DEDCD0"/><stop offset=".45" stop-color="#FCFAFB"/><stop offset="1" stop-color="#E7E9E6"/></linearGradient><linearGradient id="tokenBrandedReth" x1="16.538" x2="14.566" y1="2" y2="24.025" gradientUnits="userSpaceOnUse"><stop offset=".17" stop-color="#F9CC38"/><stop offset=".35" stop-color="#FFEE7E"/><stop offset=".8" stop-color="#D8880B"/></linearGradient><linearGradient id="tokenBrandedReti" x1="15.3" x2="3.328" y1="3.027" y2="21.032" gradientUnits="userSpaceOnUse"><stop stop-color="#E89D0E"/><stop offset="1" stop-color="#FEEE76"/></linearGradient><linearGradient id="tokenBrandedRetj" x1="20.577" x2="-2.692" y1="2" y2="20.372" gradientUnits="userSpaceOnUse"><stop stop-color="#B35D0A"/><stop offset=".42" stop-color="#D27F08"/><stop offset="1" stop-color="#B5650B"/></linearGradient><linearGradient id="tokenBrandedRetk" x1="12" x2="15.441" y1="2.026" y2="22.091" gradientUnits="userSpaceOnUse"><stop offset=".16" stop-color="#8DF1ED"/><stop offset=".34" stop-color="#D2EDA9"/><stop offset=".46" stop-color="#D6EDA5"/><stop offset=".54" stop-color="#54D8ED"/><stop offset=".9" stop-color="#1180AE"/></linearGradient><linearGradient id="tokenBrandedRetl" x1="11.984" x2="8.944" y1="2" y2="21.873" gradientUnits="userSpaceOnUse"><stop offset=".16" stop-color="#8DF1ED"/><stop offset=".34" stop-color="#D2EDA9"/><stop offset=".46" stop-color="#D6EDA5"/><stop offset=".54" stop-color="#54D8ED"/><stop offset=".9" stop-color="#1180AE"/></linearGradient></defs></g></svg>