<svg xmlns="http://www.w3.org/2000/svg" xmlns:xlink="http://www.w3.org/1999/xlink" width="24" height="24" viewBox="0 0 24 24"><g fill="none"><path fill="url(#tokenBrandedRev3l0)" d="M16.375 2.625L14.5 5.75H7.831c-.969 0-2.706.738-2.706 3.125S6.962 11.856 7.937 12h3.125l-4.687 9.375H2.312L5.75 14.5C4.5 14.075 2 12.969 2 8.875s3.75-6.25 5.625-6.25zm-8.75 18.75l1.562-3.125h6.982c.968 0 2.706-.737 2.706-3.125S17.038 12.144 16.062 12h-3.437l5-9.375h4.063L18.25 9.438C19.5 9.875 22 11.03 22 15.125s-3.125 6.25-5.625 6.25z"/><defs><linearGradient id="tokenBrandedRev3l0" x1="7.893" x2="15.765" y1="3.63" y2="20.937" gradientUnits="userSpaceOnUse"><stop stop-color="#242A3F"/><stop offset=".38" stop-color="#321B65"/><stop offset=".73" stop-color="#622065"/><stop offset="1" stop-color="#C56058"/></linearGradient></defs></g></svg>