<svg xmlns="http://www.w3.org/2000/svg" xmlns:xlink="http://www.w3.org/1999/xlink" width="24" height="24" viewBox="0 0 24 24"><g fill="none"><path fill="url(#tokenBrandedRgt0)" fill-rule="evenodd" d="M12 17.882a5.882 5.882 0 1 0 0-11.764a5.882 5.882 0 0 0 0 11.764m0-.588a5.294 5.294 0 1 0 0-10.589a5.294 5.294 0 0 0 0 10.59" clip-rule="evenodd"/><path fill="url(#tokenBrandedRgt1)" fill-rule="evenodd" d="M8.178 18.624a7.647 7.647 0 1 0 7.648-13.245a7.647 7.647 0 0 0-7.648 13.245m3.823.435A7.06 7.06 0 1 0 12 4.94a7.06 7.06 0 0 0 0 14.118" clip-rule="evenodd"/><path fill="url(#tokenBrandedRgt2)" fill-rule="evenodd" d="M12 22c5.523 0 10-4.477 10-10S17.523 2 12 2S2 6.477 2 12s4.477 10 10 10m0-.588A9.41 9.41 0 0 0 21.412 12A9.41 9.41 0 0 0 12 2.588A9.41 9.41 0 0 0 2.588 12A9.41 9.41 0 0 0 12 21.412" clip-rule="evenodd"/><defs><linearGradient id="tokenBrandedRgt0" x1="1.9" x2="22.1" y1="12.261" y2="12" gradientUnits="userSpaceOnUse"><stop stop-color="#F9F9F9"/><stop offset="1" stop-color="#F9F9F9" stop-opacity="0"/></linearGradient><linearGradient id="tokenBrandedRgt1" x1="22.278" x2="1.719" y1="11.998" y2="11.998" gradientUnits="userSpaceOnUse"><stop stop-color="#F0F0F0"/><stop offset="1" stop-color="#F0F0F0" stop-opacity="0"/></linearGradient><linearGradient id="tokenBrandedRgt2" x1="2" x2="22" y1="12" y2="12" gradientUnits="userSpaceOnUse"><stop stop-color="#F0F0F0"/><stop offset="1" stop-color="#F0F0F0" stop-opacity="0"/></linearGradient></defs></g></svg>