<svg xmlns="http://www.w3.org/2000/svg" xmlns:xlink="http://www.w3.org/1999/xlink" width="24" height="24" viewBox="0 0 24 24"><g fill="none"><path fill="url(#tokenBrandedRibbit0)" fill-rule="evenodd" d="M19.778 12.111c0 4.056-3.484 7.333-7.778 7.333s-7.778-3.277-7.778-7.333c0-4.05 3.483-7.333 7.778-7.333c4.294 0 7.778 3.283 7.778 7.333m-.49 0c0 3.8-3.26 6.878-7.288 6.878S4.706 15.91 4.706 12.11c0-3.794 3.266-6.872 7.294-6.872s7.289 3.078 7.289 6.872m-.621.222c0 3.556-2.984 6.445-6.667 6.445s-6.667-2.89-6.667-6.445S8.317 5.89 12 5.89s6.667 2.889 6.667 6.444m-.473-.022c0 3.3-2.777 5.972-6.194 5.972c-3.422 0-6.194-2.672-6.194-5.972c0-3.294 2.777-5.967 6.194-5.967c3.422 0 6.194 2.673 6.194 5.967M12 18.044c3.067 0 5.555-2.472 5.555-5.522A5.54 5.54 0 0 0 12 7c-3.067 0-5.556 2.472-5.556 5.522A5.54 5.54 0 0 0 12 18.044m4.917-4.238A5.08 5.08 0 0 0 12 7.389a5.089 5.089 0 1 0 3.844 8.422a5 5 0 0 1-3.705 1.611c-2.711 0-4.906-2.089-4.906-4.655s2.195-4.65 4.906-4.65c2.705 0 4.9 2.083 4.9 4.65q.001.541-.122 1.044zm-.334-1.095c0 2.322-1.989 4.206-4.444 4.206c-2.461 0-4.45-1.884-4.45-4.206c0-2.328 1.989-4.211 4.444-4.211c2.461 0 4.456 1.889 4.456 4.211z" clip-rule="evenodd"/><path fill="#E6EB2C" fill-rule="evenodd" d="m4.028 17.933l.739.845l.706-.583l.294.277l-.65.65l.433.5l.828-.894c-.005.2.106.389.245.533l-.567.678l.878.616l.505-.766a.66.66 0 0 0 .39-.011l-.523.972c.311.155.617.311.933.461c.111-.289.222-.578.35-.86a.7.7 0 0 0 .195.127c.25.11.494.139.744.016l-.317 1.028l.69.156l.316-1.217c.033.078.056.178.083.289c.072.333.084.683.078 1.028l1.05.16l.022-.238c.206.245.567.3.878.3c.378 0 .633-.122.789-.305a.77.77 0 0 0 .189-.523a7 7 0 0 1-.028-.322a3.6 3.6 0 0 0-.072-.6l.255-.033l.3 1.644l1.056-.25l-.45-1.589l.239-.077c0 .072.017.138.039.188v.006l.344.811a.61.61 0 0 0 .445.361q.323.067.772-.116c.344-.145.528-.356.594-.584l.034-.161l.166.267l.034.044l.555-.333l-.483-.75l.333-.233l.511.666l.023.028l.183-.139c.472-.35.972-.717 1.344-1.156a2 2 0 0 0 .284-.394a.9.9 0 0 0 .133-.428c0-.166-.089-.31-.178-.416a1.4 1.4 0 0 0-.289-.262c-.227-.172-.522-.377-.828-.377a.4.4 0 0 0-.166.039c-.167.072-.311.183-.456.294l-.016.011c-.262.206-.511.422-.762.645l.134.144l-.078-.006a1 1 0 0 0-.3.067a3 3 0 0 0-.367.178c-.255.161-.55.433-.505.756a.7.7 0 0 0-.211-.078c-.23-.04-.467-.01-.678.089c-.25.1-.411.244-.5.4l-.056-.145a.14.14 0 0 0-.022-.06c-.577.255-1.166.35-1.8.41l.034.122a1.2 1.2 0 0 0-.584-.127c-.3 0-.522.088-.678.222l.017-.222l-.6-.05l-.005.055l-.05.234a1.34 1.34 0 0 0-.984-.49H9.85l-.05.145c-.189-.239-.494-.4-.789-.5c-.188-.067-.388-.111-.583-.022l.111-.2l-.51-.245l-.323.49c-.022.044-.089.155-.15.155c-.067 0-.139-.067-.189-.106a.6.6 0 0 1-.094-.1c-.034-.044.016-.11.055-.144l.367-.511l-1.022-.85l-.517.522l-.256-.244l.617-.512l-.661-.66zm4.9 1.922a.4.4 0 0 1-.122.05q.081-.14.183-.266l.006.011c.066.056-.011.172-.067.206m3.4 1.967c-.605 0-.828-.233-.828-.5l.023-.878a.5.5 0 0 1 .055-.194c.089-.178.3-.367.711-.367c.745 0 .772.478.806 1q.002.15.022.3c.006.212-.122.64-.789.64m2.833-.944l-.344-.8c-.122-.345.155-.678.472-.811c.445-.184.756-.078.89.166l.41.712c.095.194.15.633-.46.888c-.556.223-.857.1-.968-.15zm2.323-2.911l1.255 1.36c.24-.188.467-.41.661-.65c.184-.221.328-.46.328-.655c0-.216-.222-.41-.389-.539c-.172-.127-.489-.338-.716-.338c-.084 0-.273.122-.478.277q-.345.257-.661.545m1.5.916l-.134.123l-1.027-1.056l.105-.122c.111-.122.256-.256.339-.256c.256 0 1.033.667 1.033.878c0 .033-.022.078-.055.128a1.8 1.8 0 0 1-.261.305m-.128-.133l-.789-.806q.059-.063.122-.122c.04-.039.073-.078.122-.055c.034.016.078.033.128.066q.333.206.59.5c.1.123.077.145-.018.25q-.08.081-.155.167m-6.767 2.661a.1.1 0 0 1-.07-.025a.1.1 0 0 1-.03-.07v-.927c0-.056.045-.095.1-.095h.117c.056 0 .1.045.1.095v.928c0 .055-.044.094-.1.094zm3.65-.667a.1.1 0 0 1-.128-.05l-.388-.85a.09.09 0 0 1 .055-.122l.111-.044c.045-.023.1 0 .122.044l.39.856c.016.044 0 .1-.056.122l-.111.044zm-3.65.845a.28.28 0 0 1-.283-.272v-.928a.28.28 0 0 1 .278-.272h.122c.155 0 .283.122.283.272v.928a.277.277 0 0 1-.278.272zm3.35-.822a.29.29 0 0 0 .373.144l.11-.05a.26.26 0 0 0 .145-.355l-.383-.85a.29.29 0 0 0-.373-.145l-.11.05a.263.263 0 0 0-.145.356zm1.517-1.856l.1.089l-.267.183c-.055-.094-.055-.11.034-.2a.4.4 0 0 1 .088-.072c.017-.011.023-.011.045 0M11.595 2.644l.016.817a.6.6 0 0 0 .045.183l-.428.006a.04.04 0 0 1-.033-.033l-.111-1.54l-1.011.095l.044.372a.76.76 0 0 0-.556-.255c-.244 0-.55.089-.788.222c-.223.111-.5.311-.49.589c0 .067.028.15.05.222c.084.278.2.545.323.806c.055.144.267.383.639.383c.183 0 .377-.072.533-.139l.189-.1l.033.084l.545-.178l-.017-.078a.7.7 0 0 0 .334.089l.91.005l.017-.277c.15.139.367.233.667.233c.255 0 .467-.056.622-.167V4l-.022.178l.605.089l.117-.656l.15.7l.961.239l-.144-1.056a1 1 0 0 0 .222-.127c.011.166.106.3.194.4q.075.076.15.127l-.327.723l.833.383l.389-.756a.78.78 0 0 0 .622-.227c.178-.184.267-.411.334-.645a4 4 0 0 0-.534-.36l-.055.132c-.056.173-.128.356-.245.495c-.055.055-.083.061-.128.061a.3.3 0 0 1-.222-.083c-.044-.056-.066-.09-.044-.15a.4.4 0 0 1 .027-.067l.245-.578l-.945-.3l-.016.017l-.145.244a.9.9 0 0 0-.316-.339a1.4 1.4 0 0 0-.772-.227c-.256 0-.5.11-.64.305a.7.7 0 0 0-.133-.233C13.145 2.117 12.9 2 12.55 2q-.457-.001-.705.172a.57.57 0 0 0-.25.472M4.078 6.74l.283.211l.75.567l.395-.428l-.7-.556l.222-.244c.206.178.4.361.595.544l.688-.572l-.255-.267a.69.69 0 0 0 .644-.077l.734-.523l-.067-.1a.7.7 0 0 0 .428-.055l.81-.406l-.244-.505l-.55.289a.04.04 0 0 1-.05-.017L6.917 3.29l-.85.539l.289.405c.189.278.389.556.594.817l-.333.25a.04.04 0 0 1-.05-.006L5.511 4.128l-.744.66l.206.206a.6.6 0 0 0-.145-.022c-.233 0-.5.234-.655.372l-.017.012a2.3 2.3 0 0 0-.328.366a.83.83 0 0 0-.161.456a.51.51 0 0 0 .261.455h.006l.116.09zm13.578-3.217l.178.122l.788.556q.434.309.8.694l-.044.045q-.075.066-.144.139a.6.6 0 0 1 .222.01c.2.04.405.173.6.39c.239.255.305.505.267.722a.74.74 0 0 1-.267.45l-.006.006h-.005c-.145.1-.472.322-.634.444c-.15.111-.333.15-.522.111a1.03 1.03 0 0 1-.539-.333c-.21-.234-.277-.461-.26-.667a.7.7 0 0 1 .205-.439l.21-.189c.145-.133.29-.272.445-.389l-.333-.272l-1.011 1.184l-.717-.567l.961-1.206l-.455-.305l.26-.5zm-8.222-.489v-.016a.35.35 0 0 0-.067-.156c-.011-.011-.017-.017-.028-.017a.1.1 0 0 0-.05.017a.1.1 0 0 0-.022.033a.3.3 0 0 0 0 .15l.011.028zm.127.828a.4.4 0 0 1-.06-.111l.333-.1v.089c0 .017-.006.05-.067.089a.3.3 0 0 1-.156.055c-.016 0-.027-.005-.05-.022m-4.955 2.05a.4.4 0 0 0-.111-.061c-.022-.011-.034-.006-.056 0a.3.3 0 0 0-.105.122c-.028.061-.023.095-.011.111l.05.078zm7.644-3.267c0-.038.034-.072.072-.072h.112c.044 0 .077.034.077.072v.862c0 .038-.033.072-.077.072h-.111a.07.07 0 0 1-.073-.072zm1.695.362a.5.5 0 0 0 .205-.056c.05-.033.056-.056.061-.056q0-.073-.027-.088c-.011-.012-.04-.034-.122-.034l-.04.006A.1.1 0 0 0 14 2.8a.2.2 0 0 0-.033.067zM18.75 6.44l-.077-.078a.07.07 0 0 1 .01-.1l.667-.572a.08.08 0 0 1 .057-.02a.08.08 0 0 1 .055.025l.072.084c.027.028.027.078 0 .1l-.678.572a.077.077 0 0 1-.111-.011z" clip-rule="evenodd"/><path fill="url(#tokenBrandedRibbit1)" fill-rule="evenodd" d="m11.8 3.45l-.018-.806c0-.25.206-.466.767-.466c.611 0 .734.394.722.594l-.072.75c-.017.25-.239.445-.689.445c-.539 0-.7-.345-.71-.517m.26-.806c0-.138.117-.25.261-.25h.111c.145 0 .267.112.267.25v.862c0 .138-.122.25-.267.25h-.11a.255.255 0 0 1-.262-.25zm-1.15-.372l-.633.056l.155 1.272a.476.476 0 0 0 .478.411h.74l.01-.189l-.428.006a.22.22 0 0 1-.227-.2zm2.645 1.79l-.24-.04c.05-.35.162-1.1.206-1.272c.056-.211.278-.356.54-.356c.505 0 .955.323.955.612c0 .222-.29.333-.434.355l.134.95l-.578-.144l-.206-.984c.211 0 .467-.127.467-.289c0-.16-.094-.305-.333-.305c-.2 0-.273.167-.284.255l-.222 1.217zM4.299 17.966l.489.555l.694-.572l.545.522l-.661.661l.189.217l1.272-1.383l-.15-.145l-.522.522l-.534-.51l.623-.512l-.412-.41zm13.184 0l1.255 1.36c.333-.26.989-.888.989-1.305c0-.216-.222-.41-.389-.539c-.172-.122-.489-.338-.717-.338c-.177 0-.833.55-1.138.822m.333-.017l1.033 1.056c.15-.128.445-.428.445-.556c0-.211-.773-.878-1.028-.878c-.117 0-.345.25-.445.378zm-10.372.5l-.434-.339c-.15.111-.444.4-.444.628s.21.428.316.5l-.56.667l.555.389l.489-.734c.028.028.11.072.26.072s.318-.116.379-.177l.277-.5l-.183-.095l-.222.345c-.05.083-.172.25-.322.25c-.19 0-.484-.267-.484-.395c0-.1.073-.211.111-.25zm.11 2.222l.578-1.072c.084-.133.3-.394.528-.394c.278 0 1.1.355 1.1.766c0 .233-.389.434-.555.434c-.173 0-.545-.145-.545-.29l.067-.01c.172-.034.472-.09.472-.417c0-.167-.15-.233-.222-.233c-.078 0-.261.016-.845 1.5l-.577-.278zm2.434-1.039l-.544 1.756l.316.072c.1-.389.311-1.2.356-1.344c.372.055.455 1.027.444 1.505l.695.111l.166-1.866l-.239-.017c-.044.222-.133.711-.133.894a1.08 1.08 0 0 0-.647-1.02a1.1 1.1 0 0 0-.414-.09m5.4-16.9l.617.2l-.167.39a.5.5 0 0 0-.056.2c0 .088.128.36.467.36c.206 0 .334-.144.522-.61c.078.044.184.127.223.166c-.067.255-.334.75-.834.605l-.378.717l-.505-.233l.317-.7c-.128-.067-.39-.256-.39-.5c0-.245.123-.5.184-.595m-5.289.128l-.489.122c-.033-.194-.128-.322-.278-.322c-.283.028-.277.3-.244.433c.044.145.144.473.206.645c.072.217.166.322.316.322s.411-.128.411-.322a.8.8 0 0 0-.055-.322l-.445.144l-.094-.344l.722-.178l.228 1.022l-.222.072l-.056-.127c-.15.11-.522.322-.805.322a.5.5 0 0 1-.467-.267a5 5 0 0 1-.356-.967c-.016-.305.69-.627 1.084-.627c.316 0 .494.26.544.389zM5.238 7.106l-.15.166q-.522-.411-1.067-.794a.33.33 0 0 1-.166-.3c0-.467.822-1.022.972-1.022c.117 0 .222.055.261.088l.95 1l-.411.345c-.15-.15-.389-.367-.611-.556l-.478.523l.7.555zm-.767-1.45c.061 0 .223.11.406.26l-.483.523l-.245-.189a.26.26 0 0 1-.072-.183c0-.123.205-.411.389-.411zM5.5 4.383l-.467.411l.917.923a.504.504 0 0 0 .639.055l.594-.422l-.11-.161l-.34.25a.233.233 0 0 1-.305-.028L5.499 4.39zm.833-.505l.528-.334l.745 1.15c.06.1.194.134.3.078l.372-.2l.083.178l-.65.328a.5.5 0 0 1-.628-.15l-.755-1.056zM11.5 21.322l.022-.877c.011-.184.184-.556.767-.556c.483 0 .722.211.745.478c.016.222.06.633.083.816c.005.212-.122.64-.79.64c-.605 0-.827-.234-.827-.5m.589.267a.28.28 0 0 1-.26-.166a.3.3 0 0 1-.023-.106v-.928a.28.28 0 0 1 .277-.272h.123c.155 0 .283.122.283.272v.928a.277.277 0 0 1-.278.272zm2.728-1.511l.344.805c.111.25.411.378.967.145c.611-.25.555-.69.461-.89a23 23 0 0 1-.411-.71c-.133-.24-.444-.345-.889-.161c-.533.222-.533.633-.472.81m.622.689a.29.29 0 0 0 .372.144l.111-.05a.26.26 0 0 0 .145-.355l-.383-.85a.29.29 0 0 0-.373-.145l-.11.05a.263.263 0 0 0-.145.356zm1.65-.256l.244-.144l-.477-.74l.61-.433c.14.167.312.39.54.69c.139-.1.422-.328.544-.428l-.916-1c-.056-.061-.206-.184-.356-.184c-.189 0-.989.323-.989.79c0 .166.533 1.038.8 1.45m.239-1.483l-.589.417l-.133-.206a.4.4 0 0 1-.056-.178c0-.089.245-.339.372-.339c.084 0 .156.017.406.306m-4.256.839c.312-.028 1.04-.134 1.456-.323a.8.8 0 0 1 .055.217l-.444.145l.444 1.572l-.666.166l-.306-1.633l-.483.072zm5.973-14.511l-.617.544c-.128.122-.294.467.061.856c.294.322.6.355.811.2l.639-.445c.155-.122.389-.467-.022-.911c-.372-.406-.672-.411-.872-.244m.555.222a.27.27 0 0 0-.366-.022l-.678.566a.24.24 0 0 0-.074.271q.017.048.051.085l.078.083c.095.1.256.111.367.022l.672-.572a.24.24 0 0 0 .028-.35zm-1.966-1.611l.094-.173c.389.262 1.217.845 1.439 1.09l-.134.144l-.444-.356l-1.011 1.184l-.428-.345l.972-1.222l-.488-.317z" clip-rule="evenodd"/><path fill="#000" d="M7.305 9.189v-.467c0-.233.506-.628.728-.628s.695.195.939.195h1.122c.65 0 1.306.683 1.778.9c.467.211.8-.167 1.022-.222c.222-.05.3-.245.75-.678c.445-.428.617.055.934 0c.322-.056.394-.195 1.422-.195c1.027 0 1.333 1.095 1.333 1.667c0 .456-.444 1.145-.661 1.433c.406.678 1.222 2.123 1.222 2.456c0 .411-.283.378-.566.611c-.278.228-.445.445-.656 1.017c-.206.577-1.7 1.2-1.7 1.433c-.189.595-.972.395-1.328.183c-.15.334-.555.212-.466.412c-.04.41-.656.716-.878.894s-.656-.283-.75-.467c-.095-.178.205-.538.316-.628c.111-.088.49-.194-.11-.21c-.595-.023-3.517-.578-3.723-.917s-.055-.54-.222-.7c-.167-.161-.483-.428-.895-.84c-.416-.41-.427-.527-.488-.755c-.073-.266.205-.41.188-.483c-.022-.072.112-.517.206-.717c.094-.194.411-.539.556-.844c.155-.3.338-.517.077-.695c-.405-.372-.266-1.327-.15-1.755"/><path fill="#978827" d="M7.833 14.455c.517.067.2.056.745.034c.516-.022.544.077.888.178c.34.1.384.183.5.21c1 .278.556-.222-.466-.477c-.528-.2-.084-1.106 1.1-1.756c.039.056.039-.027.016.2c.434-.016.056.278.428.2c.045-.15-.122-.116.056-.205c2.672.083 3.144.244 4.46 1.666c.667 0 1-.083 1.362-.522c.444-.472.794.078.594-.51c-.388.021-.322.11-.672-.107l-1.455-.76c-.334-.04-.656-.2-1.05-.223c-.4-.028-1.362-.055-1.723-.166c-.416-.117-.533-.15-.844-.017c-.667.283-1.861-.039-2.95.433c-.311.134-.628.222-.867.384c-.905.605-1.016.522-1.166.666c0-.139.038-.133-.045-.216c-.122.027-.044-.078-.133.1c-.039.077-.106.344.222.35l.056-.228c.472.25.255.328.7.622c.072.044.189.1.239.144z"/><path fill="#B49B17" d="M11 15.222c3.472.556 2.145-.461 4.3-.733c-.055-.095-.083 0-.005-.178c-.306 0 0-.017-.167.111c-.439-.26-1.15.056-1.789-1.572c-.311.161-2.311-.383-3.111.139c-.794.505-.778 1.989.778 2.239z"/><path fill="#D8C718" d="m15.295 14.311l.15.006c-.056-.162-.033-.04.066-.2c-.488-.111 0-.195.156-.312c.011 0 .011-.005.022-.016c-1.483-.156-1.055-.295-1.005-.39c.11-.204 1.278-.332-.567-.777h-.21c-.112-.01-.14-.033-.24-.016c-.044.222-.522.138-1.033.277c.416.395.083.345-.04.1c0 .195.04.156.056.25l-.022.256c.072-.183.056-.145.14-.211c.56.372 1.021.566.988 1.278c.442-.147.91-.192 1.372-.134c.167-.128-.139-.11.167-.11m-5.028.145c.061-.128.089-.067.145-.123c.627-.666-.145-.41.86-.889c.073-.044.056-.077.134-.16c.178-.195.228-.112.033-.373l-.066-.094c-.167.1-.111-.067-.278.022s-.006.055-.05.205c-.367.078.005-.222-.428-.2c.022-.227.022-.15-.017-.2c-.31.05-.083-.027-.272.145c-.289-.122-1.355.128-1.378.316c.345-.044 1.962-.166.573.045c-.156.628-1.111.394-.628.861c-.095.111-.095.083-.217.111c.011.417.234.295.572.15c.123.045.128.095.25.128c.417.105.211.228.517.1c.111-.056.111-.033.25-.044"/><path fill="#776827" d="M13.278 9.078c-.056.239-.017.055.055.128c.434-.034.39-.078.723.05c.1.038.233-.028.322-.084l.111-.072l.022-.011c.078-.034.106-.011.239-.1c.078-.05.567-.222.739-.3c.105-.05.239-.1.344-.022c-.105.044-.127.033-.227.055c-.378.1.044.133-.64.256c-.171.033-.677.294-.755.444c.028.056 0 .04.111.089l.056.017c.01.25-.028.155.028.222c.36.222.31.122.477.444c.034.195.134.478.245.628c.066.095.222.184.322.256c.233.166.3.033.339.016l.161-.06c-.05-.167.006-.017-.1-.117l-.294-.473c-.173-.377-.045-.494-.117-.838l-.128.166c-.205.372.039.478.056.595c.016.094.005.06-.017.11c-.4-.577.111-1.11-.278-.655c-.1-.194.078-.322.25-.566c.111-.162.195-.212.356-.317s.255-.195.46-.206c.379-.022.279.1.556.184v-.29c-.272-.15-.277-.288-.71-.066l-.073-.183c-.178.033-.05-.011-.15.055l-.044-.089c-.006-.005.055-.055-.1-.022c-.278.067-.923.217-1.123.3c-.033.017-.094.095-.122.122c.067-.172.067-.01.072-.222c-.5-.167-.777.017-.86.45l-.312.111z"/><path fill="#5A5515" d="m16.55 12.289l.022.16c1.133-.066-1.128-1.077-1.222-1.094c-1.09-.45-.345-.405-.778-.644c-.056.144-.122.072-.456-.083c-.594-.273-.205-.65-.572-.911l.278-.067c.178.094.055.078.255.055c.056-.25-.005-.194-.044-.25c-.205-.31-.4-.216-.706-.172c-1.077.339-.688.067-1.733.19c-.278.032-.75-.279-1.144-.229c-.134.017-.428.222-.39.378c.029.106.145.122.278.122c-.016 0-.016 0-.01-.022c.022-.078.022-.067.11-.067c.128 0 .056-.022.123.045l.016.283c-.01.222-.188.445-.35.556c-.2.139-.133.167-.455.167c.2-.29.1-.04.344-.356c.134-.167.184-.044.184-.467c-.156 0-.1.04-.112-.055c-.31.066-.072.027-.344.227c-.394.367-.417.456-.711.912l-.167.188c-.189.173-.533.256-.772.167c-.178-.067-.111-.111-.333-.144c-.045.044-.24.605-.317.7c-.072.077-.322.389-.339.394c-.094.067-.116.239-.122.345c.25-.045.117-.056.183-.295c.217.067.011.445.456-.1c.05-.067 3.889-.967 3.944-1.005c.434-.406 4.123.633 4.884 1.072"/><path fill="#5B5427" d="M11.5 11.367c.127-.045.066-.011.088-.067c.112.033.273.028.262.183c-.09.067-.05.011-.223-.016c-.066-.011.011-.023-.06-.011c-.095.016-.062.066-.112.083c-.155-.011-.5-.09-.561.089l.106.078c.088-.067.194-.09.35-.095c.027 0 2 .278 2.477.445c.111-.245 1.956.516 1.984.416c.716.822 2.383.173-1.511-.639c-.212-.027-1.667-.205-1.6-.466l-.006-.223c-.25.04-.178.023-.222 0l-.04-.31c-.055-.167-.15-.023-.188-.112c-.056-.105-.117.095.028-.089l.044-.116c-.266.15-.26-.106-.516.127l-.073.067c0 .128.034.139.017.25c-.072.139-.222.328-.25.406z"/><path fill="#C7B846" d="M7.083 12.617c-.15.3-.15.15-.222.316c.25.056.544-.127.667-.294l.177-.1l.59-.19c.233-.088.055-.11.721-.316l.112-.039c.26-.072.9-.022 1.138-.094c.356-.111.545-.372.89-.378l.3.017c.05-.017.016-.067.11-.083c.073-.011-.005 0 .056.01c.178.028.139.084.228.017c.01-.155-.145-.15-.261-.183c-.023.055.038.022-.095.067c-.066-.04-.039.027-.083-.128c-.078-.239-.045-.228.017-.428c-.323.067-.34.061-.712.228c-.81.361-2.194.194-3 1.183c-.133.167-.155.222-.3.295l-.044-.084c-.039-.072-.017-.083-.106-.11l-.027.11v.156z"/><path fill="#A89817" d="m10.595 15.356l-.112.16c.634.129.611.473-.027.59c.338.377 2.822.027 2.933.033c-.017-.178-.011-.095.028-.217l.16-.505c.112-.04.173-.04.24-.206c-1.267.367-1.445.4-3.222.144"/><path fill="#D7D717" d="M10.233 16.128c.739-.14.633.216.906-.54c-.195-.11-.04-.038-.117.04c-.005.01-2.3-1.045-2.744-1H7.96l.017.133c.777.222.3.445.188-.1c.25.072.012 0 .14.072c.222.128-.084-.022.072.045c.627.266 1.444 1.4 1.855 1.35"/><path fill="#696527" d="M8.05 8.444c-.167-.01-.372.056-.511.084c-.022.189-.061.227.017.422c.138-.111 0-.095.222-.167c.339-.11.528.017.783.178c.306.189.445.472.595.778c-.117.089.122.455-.412-.15c-.016.316.023.622-.1.9c-.055.133-.194.355-.316.45c-.084.066-.084.028-.111.11c.689.1.394-.166.805-.127c.206-.5.111-.111.256-.728c.055-.222.11-.189.16-.205l.323-.178c.017-.222.033-.094.006-.317c.133.011.083.017.166.028l.028-.172c-.117-.083-.311-.195-.439-.272c-.222-.145-.35-.084-.544-.15a10 10 0 0 1-.711-.373c-.073-.038-.14-.044-.217-.11"/><path fill="#CCB453" d="M12.955 11.222c-.222-.005-.266-.055-.255.145c0 .022-.061.11-.034.188c.517.195 1.15.217 1.634.278c.416.09 1.866.456 2.055.761c.19-.127.867.428.65.128c-.083-.15-.333-.483-.333-.494l-1.694-.806c-.423-.26-1.667-.5-1.95-.15l-.073-.056z"/><path fill="#DB642A" d="M15.722 9.733c.094-.05.061-.027.178-.072c.316-.122.255-.344.583 0c.128.139.261.122.14.35c-.09.022-.707 0-.823-.01c-.072-.09-.117-.112-.078-.268m.417-.71c-.111.055-.167.066-.267.144c-.483.389-.411 1.033-.15 1.405a.62.62 0 0 0 .567.25c.355-.028.6-.527.589-1.01c-.006-.295-.256-1.023-.74-.79"/><path fill="#E6E817" d="M13.822 15.217c-.073.16-.134.166-.245.2l-.161.505c-.039.122-.044.039-.028.217h.023l.122-.284c.044-.055 1.11-.127 1.266-.21c.634-.356.445-.417.29-.812c.238 0 .444.006.694-.072l-.017-.156c-.483.012-.733.012-1.111.212c-.278.15-.6.272-.833.4"/><path fill="#978837" d="M14.572 10.711c.433.239-.328.278.761.728a2.49 2.49 0 0 1 1.672 1.283c.211.395.24.19.117-.055c-.061-.123-.095-.223-.139-.334l-.561-1.01c-.189-.284-.039-.04-.511.038c-.122.022-.372 0-.472-.056l-.223-.15c-.316-.277-.266-.36-.4-.583a2.6 2.6 0 0 0-.777-.71c-.1.088-.162.027-.111.266c.077.41.527.36.644.583"/><path fill="#A48B18" d="M13.028 15.283a1 1 0 0 0 .205-.039c.223-.066-.083-.555.356-.588l-.072-.25c-.278.738-.39-.29-.761-.373c-.234-.055-.445.056-.545.123c-.122.077-.11.15.006.644c-.19.244-.084.2-.084.467c.167-.023.095-.023.15-.073c.011-.005.112-.239.223-.322c-.034.478-.317.534.522.411"/><path fill="#999626" d="m15.767 14.605l.016.156c-.25.078-.455.072-.694.072c.094.233-.078.29-.267.278c.061.344.89.028-.022.533c-.155.084-1.222.156-1.267.211l-.122.284c.511.05 1.2-.24 1.645-.372c.039-.011 1.438-1 1.755-1.362a.5.5 0 0 0 .134-.244c-.5.472-.578.439-1.178.444"/><path fill="#D75335" d="m7.378 9.589l.077.083c.04-.066.034-.094.073-.15l.077-.089l.628.006c.083.022.017 0 .072.028c.29.16.306.26.267.566c-.106.056-.022.028-.144.078c-.367-.017-.684.156-.828.111c-.111-.027-.128-.505-.206-.566c.017-.317-.016-.067-.078.266c0 .128.012.245.056.345c.389.966 1.128.51 1.278-.017c.31-1.056-1.056-1.883-1.278-.661z"/><path fill="#7A7527" d="M9.972 16.017c-.044-.49 0-.2-.122-.067c-.167-.222.178-.839-.306-.944c-.428-.167-2.194-.362-2.333-.85c-.011-.017-.022-.017-.028-.023l.483.723c.606.666.945.722 1.85 1.055c.167.061.267.083.456.106"/><path fill="#867827" d="M8.25 8.417c-.01.072-.11.116.228.189c.556.122.367.222.628.25c.4.05.144-.017.672.272c.133.072.144.139.272.122c.167-.022.15-.072.356-.089c.222-.017.311.039.528.045c-.056-.156.01-.112-.15-.184l-.206-.06c-.044-.045-.039-.673-.811-.445c0 .7.25-.117-1.039.055c-.117-.278-.194-.239-.478-.155"/><path fill="#978827" d="M11.41 11.239c.045.155.084.178.156.222c.039-.133.533-1.133.767-.444c.005.005.222.189.222.222c.611.355.678 0 0-.456c.761-1.039-.294.078.117-.777c-.778.177-.128.938-.89.138c-.11-.122-.11.056-.15-.083l-.366.256c.067.155.033.022.117.177c-.067.123-.178.212-.261.145c.989.36.066-.1.289.6"/><path fill="#C7B98A" d="M11.633 10.055c.039.145.039-.033.156.09c.083.088 0 .522.51.288l.056-.216c.017-.05-.183-.412.333-.584c-.116-.155-.01-.122-.327-.016c-.267.088-.728-.067-.867-.09c.067.15.3.384.139.534z"/><path fill="#DF9B1B" d="M7.511 10.017c-.066-.356.112-.267.362-.25c.216.01.372-.2.56-.067c.145.111 0 .311-.222.311c-.205 0-.544.05-.7.006m-.133-.428l.017.017l-.022.455c.077.067.122.133.227.167q.096.03.195.016c.222-.027.005 0 .155-.044c.184-.055.261.006.478-.089c.122-.05.039-.022.145-.078c.038-.305.022-.405-.267-.56c-.056-.034.011-.012-.072-.034h-.628l-.078.083c-.039.056-.033.084-.072.15l-.045-.039z"/><path fill="#71282E" d="M12.8 16.844c.116-.177-.056-.7-.328-.566c.061.116.028.028.078.122c.155.306.111.344.066.517h-.038l-.106.01c-.067.012-.178.029-.233.123c-.1.167-.056.778.644.444c.167-.51-.033-.416-.189-.577c.111 0 .067.022.111-.073z"/><path fill="#57474B" d="M13.933 16.722c.195.056.444.2.617.167c.466-.095.044-.722-1-.6c.01.122.222.4.383.439z"/><path fill="#677061" d="M12.889 16.845c.389.305.866-.117.516-.584c-.11-.15-.377-.089-.483-.039c-.133.067-.056 0-.155.117c.666 0 .333.055.577.128c-.2.055-.16-.067-.477-.067c.016.567.777.083.022.445"/><path fill="#E6ECD2" d="M11.85 17.739c.156.078.311.183.467.211c.06-.072.089-.089.1-.211c-.256-.145-.245-.089-.361-.378c-.111.034-.206.284-.206.378"/><defs><linearGradient id="tokenBrandedRibbit0" x1="12.148" x2="12.148" y1="1.583" y2="21.917" gradientUnits="userSpaceOnUse"><stop stop-color="#F3FA04"/><stop offset="1" stop-color="#80760F"/></linearGradient><linearGradient id="tokenBrandedRibbit1" x1="11.998" x2="11.998" y1="2" y2="22" gradientUnits="userSpaceOnUse"><stop offset=".8" stop-color="#E3484E"/><stop offset="1" stop-color="#9E3A2F"/></linearGradient></defs></g></svg>