<svg xmlns="http://www.w3.org/2000/svg" xmlns:xlink="http://www.w3.org/1999/xlink" width="24" height="24" viewBox="0 0 24 24"><g fill="#0B0B0B"><path d="M14.731 13.25h.788c.118 0 .23.1.23.219v.812c0 .125-.112.219-.23.219h-.556c-.238 0-.463.35-.463.594v.4c0 .131-.094.256-.219.256H9.72c-.125 0-.219-.125-.219-.25v-.406c0-.188-.256-.594-.463-.594H8.45c-.112 0-.2-.094-.2-.219v-.812c0-.119.088-.219.2-.219h.825c.113 0 .225.1.225.219v.656c0 .263.238.375.5.375h4c.263 0 .5-.112.5-.375v-.656c0-.119.112-.219.231-.219"/><path d="m21.981 10.469l.013.106l.006.106v5.069a1.53 1.53 0 0 1-1.106 1.219L20.78 17l-.031.025l-.025.025l-.031.025l-.025.031l-.025.025l-.025.032l-.019.037l-.019.031l-.018.038l-.176.437l-.187.381c-.137.25-3.238 2.55-3.238 2.55s-1.606.738-4.962.738s-4.963-.738-4.963-.738s-3.1-2.3-3.237-2.55l-.188-.387l-.175-.437L3.4 17.2l-.019-.037l-.025-.032l-.025-.025l-.025-.03l-.031-.026l-.025-.025L3.219 17l-.188-.069A1.66 1.66 0 0 1 2 15.662v-5.087l.037-.212l.026-.107l.03-.1l.038-.1l.044-.1l.05-.094l.062-.087l.057-.094l.062-.081l.156-.156l.082-.069l.087-.062l.094-.063l.156-.094l.063-.05l.056-.056l.05-.062l.019-.038l.018-.031l.013-.038l.019-.037l.094-.25l.118-.25l.131-.25l.15-.231l.163-.225l.175-.213l.194-.2l.206-.187l.219-.175l.125-.125l.037-.063l.275-.437l.306-.42l.325-.4l.357-.374l.381-.356l.4-.332l.425-.306l.437-.275l.463-.25l.475-.225l.487-.187l.5-.163l.513-.125l.512-.1l.525-.062l.525-.038h.525l.525.031l.525.063l.513.1l.513.131l.5.163l.487.187l.475.225l.456.25l.444.275l.425.313l.4.325l.375.356l.362.375l.325.4l.307.419l.275.437l.037.063l.05.05l.019.025l.031.025l.025.025l.219.175l.206.187l.188.2l.187.213l.157.225l.15.23l.13.25l.12.25l.093.25l.019.038l.012.038l.02.031l.018.038l.05.062l.081.081l.031.025l.038.019l.125.075l.094.063l.087.062l.081.069l.075.075l.075.081l.063.081l.062.094l.063.087l.05.094l.044.1l.037.1l.031.1l.025.107zm-2.906 3.8l.113-1.238l.024-1.237l-.062-1.244l-.137-1.231l-.232-1.225l-.006-.038l-.012-.03L18.755 8l-.006-.006l-.019-.031l-.012-.032l-.25-.387l-.282-.375l-.306-.356l-.331-.338l-.35-.312l-.375-.294l-.394-.275l-.419-.25l-.43-.225l-.445-.194l-.462-.175l-.469-.144l-.481-.112l-.487-.088l-.494-.062l-.5-.025h-.494l-.5.031l-.488.056l-.487.088l-.481.112l-.47.144l-.462.175l-.443.194l-.438.225l-.412.25l-.394.275l-.375.294l-.356.312l-.325.338l-.307.356l-.28.375l-.25.387l-.02.032l-.012.03V8l-.013.025l-.012.031l-.006.038l-.232 1.225l-.143 1.231l-.063 1.244l.031 1.237l.113 1.238l.187 1.231l.288 1.212l.006.038l.019.031l.012.038l.057.094l.025.025l.025.03l.031.026l.025.025l.031.025l.038.018l.031.02l.687.33l.7.3l.725.25l.738.22l.75.168l.769.131l.768.088l.763.044h.8l.762-.044l.77-.088l.762-.125l.756-.175l.738-.212l.725-.257l.706-.3l.68-.33l.032-.02l.038-.018l.031-.025l.025-.025l.031-.025l.025-.031l.025-.025l.056-.094l.013-.038l.012-.031l.013-.038l.281-1.212z"/></g></svg>