<svg xmlns="http://www.w3.org/2000/svg" xmlns:xlink="http://www.w3.org/1999/xlink" width="24" height="24" viewBox="0 0 24 24"><g fill="none"><path fill="url(#tokenBrandedRite0)" d="m17.265 16.536l-.311-.323a6.52 6.52 0 0 0-3.636-10.537a6.47 6.47 0 0 0-6.6 2.571a6.512 6.512 0 0 0 2.394 9.613a6.47 6.47 0 0 0 7.03-.836l.282.277l1.806 1.812l.806-.806l-1.77-1.777zm-1.506-.706a5.338 5.338 0 0 1-8.894-2.235a5.38 5.38 0 0 1 2.594-6.283a5.33 5.33 0 0 1 7.865 4.724a5.36 5.36 0 0 1-1.565 3.794"/><path fill="url(#tokenBrandedRite1)" d="m19.077 18.266l-.812.811l-1.811-1.812l.847-.776z"/><path fill="#01FDFE" d="M17.389 3.564A10.06 10.06 0 0 0 4.917 4.917a10.06 10.06 0 0 0-.93 13.084l.912-.689a9 9 0 0 1-.67-1.035a8.912 8.912 0 0 1 7.789-13.13c1.617 0 3.235.435 4.647 1.317a2.177 2.177 0 0 0 2.87 2.865a8 8 0 0 0-.446-.647L20 5.994q.227.3.429.618a2.177 2.177 0 0 0-3.047-3.048zm2.017 2.495a1.042 1.042 0 1 1-1.545-1.398a1.042 1.042 0 0 1 1.545 1.398"/><path fill="#01FDFE" d="M19.095 6.682a8.87 8.87 0 0 1 1.724 6.165A8.94 8.94 0 0 1 12 20.83c-1.617 0-3.224-.388-4.67-1.294a2.177 2.177 0 1 0-.718.894A10.007 10.007 0 0 0 20 5.994l-.912.688zM6.065 19.407a1.04 1.04 0 1 1-1.471-1.471a1.04 1.04 0 0 1 1.47 1.47"/><path fill="#01FDFE" d="M9.058 9.288c0-.14.047-.282.13-.406a.9.9 0 0 1 .33-.294a1 1 0 0 1 .905-.012l.618.324l4.624 2.4c.135.07.253.177.33.294a.75.75 0 0 1 0 .824a.9.9 0 0 1-.33.294l-3.718 1.924l-.906.47l-.618.318a1 1 0 0 1-.294.094l-.159.018a1 1 0 0 1-.647-.236a.82.82 0 0 1-.265-.582z"/><defs><linearGradient id="tokenBrandedRite0" x1="26.885" x2="2.42" y1="27.018" y2="2.336" gradientUnits="userSpaceOnUse"><stop stop-color="#8E40A3"/><stop offset=".65" stop-color="#30BEE0"/><stop offset="1" stop-color="#01FDFE"/></linearGradient><linearGradient id="tokenBrandedRite1" x1="16.843" x2="5.496" y1="16.318" y2="6.2" gradientUnits="userSpaceOnUse"><stop stop-color="#2284C6"/><stop offset="1" stop-color="#2284C6" stop-opacity="0"/></linearGradient></defs></g></svg>