<svg xmlns="http://www.w3.org/2000/svg" xmlns:xlink="http://www.w3.org/1999/xlink" width="24" height="24" viewBox="0 0 24 24"><g fill="#E92E88"><path d="M7.295 12.929h-.26c-.103-.232-.256-.4-.502-.465c.228-.055.567-.241.673-.464h.26a1.49 1.49 0 0 0-.171-1.407c-.232-.279-.627-.45-1.235-.45H4.137V12h-.306v.929h.306v.928h.929v-.928h.682c.298 0 .404.25.585.668l.112.256h1.221a15 15 0 0 1-.246-.613zm-2.23-1.858h.93c.2 0 .385.265.385.465S6.194 12 5.99 12h-.924zm10.732 1.858h.26l.153.371c.07.186.154.39.223.553h-1.226l-.111-.256c-.177-.417-.283-.668-.58-.668h-.627v.928h-.93v-.928h-.306V12h.307v-1.857h1.862c.803 0 1.5.413 1.486 1.263c0 .12-.028.483-.074.594h-.265c-.153.316-.358.385-.673.464c.25.065.404.233.501.465m-1.04-1.858h-.868V12h.868c.2 0 .385-.265.385-.464c0-.2-.185-.465-.385-.465m5.359 1.937l-.274-.08l.673.93h-1.314l-.66-.93h.27l-.358-.478l-.469.479h-.38v.928h-.93v-.928h.284V12h-.283v-1.857h.929v1.467l1.448-1.467h1.426l-1.574 1.625l.13.232h.274zm-9.659-1.923l.418-.943h1.37v1.696h-.214v1.09h.214v.93h-.985v-.93h-.213v-1.09h-.154l-.469 1.09h.26l-.357.93h-.409l-.371-.925h-.25l-.451-1.09H8.78v1.086h.209v.924h-.985v-.924h-.209v-1.091h.21v-1.695h1.378l.418.942l.316.752h.028zm-1.463.497v.255h.116zm2.276 0l-.117.255h.117z"/><path d="M22 12V9.135a.386.386 0 0 0-.39-.386H2.664a.39.39 0 0 0-.385.386V12H2v.933h.279v1.932a.385.385 0 0 0 .39.386h18.94a.39.39 0 0 0 .391-.386V12.93h-.218V12zm-.743.924v1.584H3.059v-1.58h-.316V12h.311V9.483h18.203V12h-.213v.929h.218v-.005z"/></g></svg>