<svg xmlns="http://www.w3.org/2000/svg" xmlns:xlink="http://www.w3.org/1999/xlink" width="24" height="24" viewBox="0 0 24 24"><g fill="none"><path fill="url(#tokenBrandedRoute0)" d="M8.142 3.445a.32.32 0 0 1-.01-.437a2.915 2.915 0 0 1 4.279-.142l2.21 2.195a4.626 4.626 0 0 1 .053 6.432l-2.82 2.932l2.936 3.037a3.23 3.23 0 0 1 .01 4.447a.29.29 0 0 1-.42 0l-4.206-4.253a4.626 4.626 0 0 1 .01-6.453l2.8-2.816L8.143 3.44z"/><path fill="url(#tokenBrandedRoute1)" d="m11.106 10.272l1.874-1.885a3.42 3.42 0 0 1 .469 4.38l-1.595 1.652c-.6-.605-1.705-2.052-.78-4.074z"/><defs><linearGradient id="tokenBrandedRoute0" x1="16.401" x2="10.364" y1="10.093" y2="10.093" gradientUnits="userSpaceOnUse"><stop stop-color="#FE8664"/><stop offset="1" stop-color="#FF3B56"/></linearGradient><linearGradient id="tokenBrandedRoute1" x1="13.806" x2="11.079" y1="9.656" y2="13.609" gradientUnits="userSpaceOnUse"><stop stop-color="#AB3E55"/><stop offset=".51" stop-color="#BD4551"/><stop offset="1" stop-color="#AB3E55"/></linearGradient></defs></g></svg>