<svg xmlns="http://www.w3.org/2000/svg" xmlns:xlink="http://www.w3.org/1999/xlink" width="24" height="24" viewBox="0 0 24 24"><g fill="none"><path fill="url(#tokenBrandedRpl0)" d="M12 21.266a9.332 9.332 0 1 0-9.331-9.332a9.33 9.33 0 0 0 9.332 9.332"/><path fill="#FF7534" fill-rule="evenodd" d="M12 21.398A9.397 9.397 0 0 0 21.398 12A9.398 9.398 0 1 0 12 21.398m0-.575a8.824 8.824 0 1 0 0-17.647a8.824 8.824 0 0 0 0 17.648" clip-rule="evenodd"/><path fill="#FFD58D" fill-rule="evenodd" d="M12 22c5.523 0 10-4.477 10-10S17.523 2 12 2S2 6.477 2 12s4.477 10 10 10m0-.588A9.41 9.41 0 0 0 21.412 12A9.41 9.41 0 0 0 12 2.588A9.41 9.41 0 0 0 2.588 12A9.41 9.41 0 0 0 12 21.412" clip-rule="evenodd"/><path fill="#fff" fill-rule="evenodd" d="m9.398 11.076l-.96 1.149l1.35.506c.017.51.14.721.198.764l-.513.476l.513.524l.506-.524c.281.103.582.14.88.105l.473 1.38l1.189-1.082l.298-1.324c2.747-2.5 3.055-4.493 2.866-5.179c-2.434-.173-4.61 1.83-5.395 2.853zm.058 3.902L5.38 18.74l-.43-.467l4.077-3.762zm-1.307.088l-3.345 3.058l-.429-.47l3.346-3.058zm1.21 1.17l-3.375 3.102l-.43-.468l3.374-3.101zm3.64-4.528a.785.785 0 1 0 0-1.57a.785.785 0 0 0 0 1.57" clip-rule="evenodd"/><defs><linearGradient id="tokenBrandedRpl0" x1="3.613" x2="22" y1="18.703" y2="5.164" gradientUnits="userSpaceOnUse"><stop stop-color="#FB9533"/><stop offset=".261" stop-color="#FEBA67"/><stop offset=".747" stop-color="#FF9976"/><stop offset="1" stop-color="#FF6350"/></linearGradient></defs></g></svg>