<svg xmlns="http://www.w3.org/2000/svg" xmlns:xlink="http://www.w3.org/1999/xlink" width="24" height="24" viewBox="0 0 24 24"><path fill="#4F53F6" fill-rule="evenodd" d="M12.855 2.833a.85.85 0 0 1-.856.834a.844.844 0 0 1-.855-.834c0-.46.389-.833.855-.833c.472 0 .856.372.856.833M10.332 5.89a1.111 1.111 0 1 1-2.222 0a1.111 1.111 0 0 1 2.223 0M14.778 7a1.11 1.11 0 1 0 0-2.222a1.11 1.11 0 0 0 0 2.222m-4.733 2.222a1.6 1.6 0 0 1-.467-.016c-.333-.084-.5-.167-.5-.578c0-.345.411-.522.778-.517h4.26c.329 0 .829.178.812.578c-.017.572-.8.555-1.189.528a.07.07 0 0 0-.05.016a.06.06 0 0 0-.022.045V12.9q0 .116.066.222a393 393 0 0 1 4.64 7.017c.16.239.305.522.294.811c-.028.839-.761 1.05-1.489 1.05H6.81c-.46 0-.944-.067-1.233-.406a.87.87 0 0 1-.222-.794q.073-.384.255-.667L7.36 17.5a752 752 0 0 0 2.911-4.4a.36.36 0 0 0 .056-.2V9.278a.05.05 0 0 0-.011-.045a.06.06 0 0 0-.045-.016h-.227zM9.066 17l-.017-.006l-.017-.016a.03.03 0 0 1 0-.034l2.412-3.61V9.221h1.11l.006 4.111l2.4 3.612a.03.03 0 0 1 .01.03a.03.03 0 0 1-.02.025z" clip-rule="evenodd"/></svg>