<svg xmlns="http://www.w3.org/2000/svg" xmlns:xlink="http://www.w3.org/1999/xlink" width="24" height="24" viewBox="0 0 24 24"><g fill="none"><path fill="#A6FFA9" d="M15.51 4.616L9.57 6.524l6.595.872z"/><path fill="#27A986" d="m9.462 6.36l.762-1.417l3.27-1.308z"/><path fill="#054034" d="m10.224 4.834l.382-1.09l2.67-.11z"/><path fill="#27A986" d="m14.64 4.016l.38-1.035l.437 1.417z"/><path fill="#A6FFA9" d="m14.583 4.016l.382-1.035l-1.907-.817z"/><path fill="#27A986" d="m12.785 2.055l-1.308.6l2.997 1.307zM14.256 2H12.84l2.18.872z"/><path fill="#A6FFA9" d="M15.129 3.035v-.163l2.913.818c.054.015.053.09-.001.105l-2.477.657z"/><path fill="#27A986" d="m10.606 3.635l.872-.872l1.854.817z"/><path fill="#054034" d="M13.603 3.69L9.516 6.414l5.94-1.907z"/><path fill="#27A986" d="m16.164 7.504l-6.757-.926l5.231 11.662z"/><path fill="#054034" d="m14.747 18.022l1.526-10.409l.98 1.199zm-.218.218L9.35 6.687l1.91 11.443zm-3.324-.055L9.297 6.741L5.918 22z"/></g></svg>