<svg xmlns="http://www.w3.org/2000/svg" xmlns:xlink="http://www.w3.org/1999/xlink" width="24" height="24" viewBox="0 0 24 24"><g fill="none"><path fill="#3D4FC5" d="M11.194 18.223L5.946 22L9.282 6.658zm.112-.028l3.187.037l-5.09-11.527zm3.496-.262l2.446-9.073l-.928-1.124zm-1.18-14.227L9.59 6.424l5.886-1.903zm-.507 0l-2.502.094l-.375 1.03z"/><path fill="#DF5D44" d="m9.47 6.601l5.173 11.575l1.575-10.628zm.768-1.65l3.187-1.246L9.47 6.367zm.413-1.311l.806-.872l1.836.806zm.927-.975l1.266-.58l1.612 1.845zM12.928 2h1.35l.749.815zm1.818 2.052l.318-.965l.329 1.274z"/><path fill="#E99749" d="m9.695 6.498l6.447.881l-.637-2.718zm5.875-2.08l-.412-1.51l2.896.853zm-.6-1.415l-.356.965l-1.499-1.771z"/></g></svg>