<svg xmlns="http://www.w3.org/2000/svg" xmlns:xlink="http://www.w3.org/1999/xlink" width="24" height="24" viewBox="0 0 24 24"><g fill="none"><path fill="url(#tokenBrandedSail0)" d="M16.865 19.503C10.638 11.75 12.54 6.27 14.27 4.497c-4.67 4.254-3.027 10.94-1.62 13.753c1.297.751 3.35 1.146 4.216 1.248z"/><path fill="url(#tokenBrandedSail1)" d="M5.838 15.751C6.098 10.25 11.568 4.291 14.27 2C8.822 9 10.487 15.54 12 17.935z"/><path fill="url(#tokenBrandedSail2)" d="M3.892 19.189V17.62S4.216 17 5.19 17c2.487 0 9.935 3.416 12.325 3.438c1.378.01 2.162-1 2.594-1.563c-.432.833-1.708 2.595-3.784 2.595c-2.594 0-7.367-2.908-11.135-2.908c-.778 0-1.189.416-1.297.627"/><path fill="url(#tokenBrandedSail3)" d="M5.373 18.843c-1.297 0-1.265 1.52-.94 2.108c0-.297.27-1.054.94-1.054c.951-.005 7.157 1.325 10.41 2.103c-2.972-1.054-8.107-3.157-10.41-3.157"/><defs><linearGradient id="tokenBrandedSail0" x1="11.996" x2="11.996" y1="2.007" y2="22" gradientUnits="userSpaceOnUse"><stop stop-color="#FF9C00"/><stop offset=".54" stop-color="#FED087"/><stop offset="1" stop-color="#FF9D00"/></linearGradient><linearGradient id="tokenBrandedSail1" x1="19.484" x2="14.659" y1="2.393" y2="22.01" gradientUnits="userSpaceOnUse"><stop stop-color="#00116A"/><stop offset=".63" stop-color="#003180"/><stop offset=".78" stop-color="#0094C6"/><stop offset="1" stop-color="#00CBEE"/></linearGradient><linearGradient id="tokenBrandedSail2" x1="3.568" x2="20.161" y1="6.184" y2="6.41" gradientUnits="userSpaceOnUse"><stop stop-color="#0064A3"/><stop offset=".16" stop-color="#00B1DA"/><stop offset=".46" stop-color="#001169"/><stop offset="1" stop-color="#011D6D"/></linearGradient><linearGradient id="tokenBrandedSail3" x1="4.206" x2="14.957" y1="19.929" y2="22.929" gradientUnits="userSpaceOnUse"><stop stop-color="#0064A3"/><stop offset=".16" stop-color="#00B1DA"/><stop offset=".51" stop-color="#001169"/><stop offset="1" stop-color="#011D6D"/></linearGradient></defs></g></svg>