<svg xmlns="http://www.w3.org/2000/svg" xmlns:xlink="http://www.w3.org/1999/xlink" width="24" height="24" viewBox="0 0 24 24"><path fill="#EA1D3A" d="m20.779 6.914l-8.657-4.89a.3.3 0 0 0-.066-.022h-.012a.24.24 0 0 0-.128.017h-.022L3.243 6.903l-.017.011a.22.22 0 0 0-.116.19v9.784a.22.22 0 0 0 .11.189l8.669 4.89a.2.2 0 0 0 .11.033a.2.2 0 0 0 .117-.034l8.669-4.889a.22.22 0 0 0 .105-.156V7.11a.22.22 0 0 0-.111-.19zM11.722 21.39L3.637 16.8l4.14-6.94l3.945 2.267zM3.665 7.47l3.723 2.167l-3.723 6.412zm8.613 4.656l4.245-2.428l3.811-2.2v9.246h-8.056zm4.211-2.922l-3.322-5.496l-.534-.872l7.574 4.267zm-4.573-6.68l4.173 6.902l-2.472 1.394l-1.617.917l-8.19-4.645zm.362 14.736h6.995l-6.995 4.129z"/></svg>