<svg xmlns="http://www.w3.org/2000/svg" xmlns:xlink="http://www.w3.org/1999/xlink" width="24" height="24" viewBox="0 0 24 24"><g fill="none"><path fill="#348AA7" d="M7.555 9.5v-5L3.111 7z"/><path fill="#55CF98" d="M12 7L7.555 9.5v5L12 17z"/><path fill="#1A6882" d="m3.11 7l4.445 2.5v5L3.111 17z"/><path fill="#76E8B5" d="M7.555 4.5L12 7L7.555 9.5z"/><path fill="#12556B" d="m3.11 17l4.445-2.5L12 17v5z"/><path fill="#BCE784" d="M16.444 4.5L12 7L7.555 4.5L12 2z"/><path fill="#48B081" d="m12 7l4.445 2.5v5L12 17z"/><path fill="#1A6882" d="m20.89 7l-4.445 2.5v5l4.444 2.5z"/><path fill="#57C795" d="M16.445 4.5L12 7l4.445 2.5z"/><path fill="#0D3E4F" d="m20.889 17l-4.444-2.5L12 17v5z"/><path fill="#348AA7" d="M16.445 9.5v-5L20.889 7z"/></g></svg>