<svg xmlns="http://www.w3.org/2000/svg" xmlns:xlink="http://www.w3.org/1999/xlink" width="24" height="24" viewBox="0 0 24 24"><g fill="none"><path fill="#EEEEEC" d="M14.101 2.719c-.612 2.57-.53 2.4-2.7 2.211c-.711.177-1.235-.264-2.04.083c-.054.164-.1.264-.23.182c-.07-.235.012-.082.13-.294c.429-.694.188-1.076-.336-1.982l-.476-.547c0-.094-.312-.047-.383-.047c-1.147.335-2.605 5.429-2.723 5.623l-.335-.165c-.118 1.13.388.965-.353 1.365c-.024.094.059.417.13.606c.117.335.329.823.117 1.105c-1.206 1.683-1.806 4.882-.712 6.747c.93 1.523 1.194 1.553 1.67 2.506c.236-.6 7.606.788 10.147-1.43c2.494-2.217 3.106-2.8 2.988-5.723c-.423-3.364-1.188-7.617-3.382-10.31c-.094-.119-.559-.413-.706-.46c-.318-.082-.606.324-.806.53"/><path fill="#DDDAD9" d="M10.69 19.312c-.86.141-.783 0-1.477-.118c-.577.094-1.912-.5-2.435-.906c-.194-.14-.383-.311-.577-.429c.07.188.118.353.218.547c-1.624-.47-2.3-3.417-2.588-3.776c-.312.93.117 2.447.506 3.117c.258.43.606.794.87 1.177q.177.284.353.611c.212.383.235.37.47.494v-.6c.1.095.107.148.2.289c2.024 2.97 7.03 1.611 9.235-.289c.336-.329.653-.782 1.03-1.046c0 .064.088.176.117.235c.477-.141 1.67-1.424 2.006-1.924c.912-1.382.624-2.194.741-3.123c.289.141.236.353.577.47a5.84 5.84 0 0 0-1.341-3.258c-.312-.382-.283-.812-.047-1.312l.205-.44c-1.423.07-.176.517-.235-1.195l-.565-.13c-.1.1-.1-.07-.117.265c-.03.383.041.289-.177.741c.077.118.147.071.195.236c.094.564-.371 1.153-.765 1.476c.241.194.435.235.788.335c.218.142.812 1.718.912 2.288c.047.33.135.718-.118.977c-.053-.476-.147-.647-.435-.906c-.047.094-.047 0-.024.235c.265 1.412-.235 3.624-1.67 4.124c.07-.283.217-.306.288-.689c-1.964.977-3.012 2.63-5.494 2.883c.17-.236.265-.189.412-.312c.088-.07.018-.024.088-.118c-.188 0-1.147.212-1.147.07"/><path fill="#CBC5C5" d="M8.378 21.124a.5.5 0 0 0 .118.094l.117.047c.07.023.17.047.265.1l.453.164l-.953-.14c.118.211.523.282.741.352c.882.265 2.03.335 2.912.17c2.194-.411 2.6-.905 3.294-1.1c.264.195.529.6 1 .577c.147-1.717 1.794-1.906 2.964-3.882c.694-1.212 1.312-1.606.776-3.83c-.07-.287-.117-.57-.235-.834c-.094-.212-.311-.812-.476-.953c.165.647.282 1.117.353 1.906c-.236-.118-.07-.095-.353-.236c-.118.93.076 1.753-.806 3.112c-.335.5-1.465 1.747-1.941 1.888c-.03-.059-.118-.165-.118-.235c-.388.294-.706.776-1.094 1.082a8 8 0 0 1-2.194 1.359c-1.194.576-3.676.74-4.823.358"/><path fill="#242323" d="M5.225 7.613L4.772 7.4c-.024.664.094.976.117 1.523c-.288.024-.406.094-.6.165c.294.647.506.812.483 1.623c-.67 1.118-1.389 2.265-1.294 3.647l.17-.1c-.382 4.124 1.241 3.412 2.077 6.1c.288-.07.311-.141.529-.33c.882.83 1.023.86 2.076 1.336l.953.14c-.094-.023-.312-.117-.453-.164c-.07-.03-.17-.053-.264-.1l-.118-.047c-.07-.047-.07-.047-.118-.094c-.482 0-1.7-.906-2.082-1.476c-.07-.118-.118-.218-.235-.336l-.024.718c-.235-.118-.217-.194-.412-.577c-.117-.211-.258-.4-.376-.588c-.265-.388-.553-.694-.812-1.147c-.382-.67-.811-2.17-.506-3.1c.053-.452.195-.858.36-1.211c-.26.094-.024.07-.454.33c.024-.883.67-2.118 1.147-2.789c.36-.47-.288-1.594-.235-1.735c.259-.147.5.212.688.33c-.117-.524-.453-1.048-.382-1.765l.335.17C5.46 7.73 6.895 2.63 8.066 2.301c.905-.265 1.882 1.741 2.176 2.382c-.312.024-.841.094-.959.43c.406-.118.647-.236 1.118-.17c.623.1.217.24.982.052c.553-.147 1.724 0 2.13.259c.211-.141-.295-.312-.483-.382c.17-.5 1.194-2.836 1.865-2.665c1.117.259 2.746 4.43 3.035 5.453l.235.382l.265-.188c.023.711-.336 1.164-.53 1.711c.335-.188.335-.47.841-.5l-.217.36c-.236.5-.265.928.047 1.31c.553.648 1.264 2.048 1.482 2.93c.118.5.265 1.412.07 1.882c-.187-.258-.335-.617-.529-.835c.077 1.859-.547 2.741-1.976 3.912l-.624.57c-.811.812-.688.953-1.023 1.335c-.265-.429-.076-.623 0-1.1c-.741.553-.6.883-1.765 1.36c-1.223.5-1.964.552-2.37.717c1.27.094 3.13-.547 3.73-1.235l.046.064c.235.5-.07.077.477.67c.164-.17.235-.546.382-.764c.57-.594 1.1-1 1.718-1.547c.623-.57.623-.717 1.076-1.382c.476-.694.43-.859.594-1.412c.118-.376.118-.088.118-.064l.194.352c.117-.094.117-.094.217-.423c.812-2.788-2.129-4.941-1.623-6.123c.141-.336.235-.336.5-.53c-.312-.235-.312-.258-.718-.282c.17-.476.194-.906.141-1.453c-.14.118-.282.236-.453.353C17.83 6.4 17 4.254 16.16 3.113c-1.117-1.553-1.623-1.435-2.553.07c-.217.353-.647 1.236-.764 1.647c-.477-.03-.67-.176-1.218-.076c-.882.141-.147.217-1.053.047c-.288-.835-1.335-2.835-2.435-2.694c-1.241.118-2.553 4.24-2.911 5.506"/><path fill="#242323" d="M9.766 16.453c.065-.288.165-.453.282-.664l1.024.523c-.047.43-.2.706-.2 1.176c0 .312.194.836.117 1.071c-.188.5-1.188.359-1.682.353c-.647-.077-1.053-1.459-.353-2.765c.26-.506.283-.358.618-.67l.259.164c-.647.883-.406 1.86-.306 2.6c.07-.547 0-1.382.235-1.788zm-.553 2.741c.694.141.618.265 1.477.118c.147-.094.294-.141.411-.235c.5-.383.236-1.253.282-1.824c.477-.335 1.365-.441 1.96-1.73l.358-.928l-.047.57c.094-.188.235-.259.265-.588c.023-.27-.147-.459-.265-.6l-.906-.883c.118.383.353.736.665.953c-.07.689-.765 1.547-1.412 1.883c-.83.43-1.74-.383-2.264-.718v-.57c.335-.165.53-.165.788-.406c.835-.806.476-1.712-.788-1.783c-.383-.029-.765 0-1.024.189c-.241.164-.382.43-.359.788c.047.57.647 1.023 1.118 1.165v.67c-.235.118-.5.33-.765.5c-.664.43-1.406-1.03-1.188-2.218c.141-.694.647-1.094 1.141-1.382c.718-.406 1.27-.335 2.106-.164c-.453-.53-1.841-.477-2.606.188c-.617.53-1.147 1.14-.859 2.411c.289 1.33.671 1.065.93 1.641c.1.189.294.353.294.571c0 .188-.1.453-.124.765c-.07 1.047.383 1.235.812 1.617"/><path fill="#EA888D" d="M9.296 18.918c.476.17 1.37-.06 1.394-.583c0-.188-.094-.617-.094-.858c0-.306.023-.618-.024-.906c-.253-.394-.641-.506-.888-.153c-.265.406-.1.812-.118 1.312c-.123-.742-.33-1.23.341-2.112l-.347-.153c-.335.306-.335.1-.594.6c-.74 1.312-.312 2.782.33 2.853"/><path fill="#CEB1AE" d="M16.312 7.518c.265-.358-.006-2-.364-2.67c-.218-.43-.812-1.812-1.483-1.594c-.288.906-.547 2.041.312 2.706c.265-.141.241-.206.412-.418c.235.306.323.588.37 1l.389-.176c-.053.447-.112.958.364 1.152"/><path fill="#CBC5C5" d="M14.465 3.278c.67-.218 1.265 1.164 1.483 1.594c.329.67.617 2.24.352 2.6l.1.093l.383.312c.188.118.382.259.647.212c.33-.665-.67-2.882-.959-3.453c-.288-.547-.576-1-.859-1.43c-.476-.74-.788-.787-1.147.071"/><path fill="#CEB1AE" d="M6.918 7.424c.335-.235.265-.623.194-1c.189.024.283.071.43.118c.023-.353.164-.688.382-.859c.118.218.165.265.453.336c.235-.477.5-.5.453-1.265c-.024-.47-.2-1.418-.453-1.647c-.741.094-1.759 2.817-1.612 4.317z"/><path fill="#CBC5C5" d="M6.92 7.424h-.118c-.147-1.5.953-4.052 1.694-4.146c-.476-1.047-1.03.164-1.264.617c-.5.93-1.577 3.312-1.436 4.218c.336.07.936-.471 1.124-.689"/><path fill="#46433C" d="M8.684 12.853c-.07.236-.118.53 0 .765c.17-.047.147-.07.194-.288h-.023c0 .053 0 .147-.071 0c-.047-.07-.024.147-.024-.07c-.023-.354.712-.213.165.693c.218.142.312.306.577.353c.305.077.523-.117.735-.188c-.047-.141.047.024-.141-.165c-.236-.217-.289-.547-.218-.858l.312-.024l.117.312c-.164-.077-.14-.1-.235-.147c.118.358.118.53.477.594c.788-1.33-1.077-1.353-1.865-.977"/><path fill="#D67179" d="M10.548 16.547c.047.312.024.6.024.906c0 .235.094.694.094.859c-.024.53-.882.717-1.359.547c.353.43 1.576.265 1.788-.235c.1-.218-.023-.836-.023-1.17c0-.471.076-.765.117-1.19l-1.14-.528c-.648 1.029-.007.27.5.811"/><path fill="#242323" d="M13.13 10.642c-.358.47-.764.306-.458-.265c-1.859-.118-.547 1.694.358 1.07c.312-.211.195-.523.1-.805"/><path fill="#DDDAD9" d="M9.33 5.13c.024-.094-.118-.117.335-.282q.293-.1.6-.118c-.335-.794-1.123-2.194-1.823-2.358l.482.547c.53.882.765 1.264.335 1.976c-.14.218-.217.1-.14.335c0 .024.023.047.023.047c.188-.047.141 0 .188-.147m4.106.124c.076.047.023.047.17.07h.118c.07-.07.024-.829.118-1.382c.023-.165.1-.43.17-.617c.141-.43.282-.43.188-.595c-.405.283-1.023 1.789-1.17 2.189c.118.053.17.053.312.147c.288.188.217.117.094.188"/><path fill="#242323" d="M7.802 10.471c.07.477 0 .547-.453.288c-.047.26-.07.5.194.647c.26.142.524.089.765-.076c.547-.406.141-1.047-.506-.859"/></g></svg>