<svg xmlns="http://www.w3.org/2000/svg" xmlns:xlink="http://www.w3.org/1999/xlink" width="24" height="24" viewBox="0 0 24 24"><g fill="none"><path fill="#000300" d="M18.935 17.49c1.693 0 3.065-1.385 3.065-3.095c0-1.709-1.372-3.094-3.065-3.094s-3.065 1.385-3.065 3.094c0 1.71 1.372 3.095 3.065 3.095"/><path fill="#F5E0CD" d="M7.06 12.118c-.576-.03-.784.669-.817 1.021l1.916 1.227c1.345.753 3.96 1.56 6.368.753c2.192-.733 2.602-2.811 2.748-3.16c.116-.279.146-1.17.146-1.58c.364-.159 1.04-.61.837-1.138c-.204-.53-.935-.613-1.275-.589c-.563-.973-3.057-3.49-6.732-1.91c-2.94 1.264-3.353 4.11-3.192 5.376"/><path fill="url(#tokenBrandedSats0)" d="M15.055 11.303c-1.245.882-3.566 1.276-4.57 1.363c.075.404 1.34 2.4 3.165 1.735c1.46-.533 1.545-2.287 1.405-3.098"/><path fill="#F2F6F9" d="M12.955 12.699a1.14 1.14 0 0 1-.975-.248l1.835-.541c-.097.22-.405.685-.86.789"/><path fill="#000" fill-rule="evenodd" d="M12.832 12.154c-1.707.488-2.5.38-3.035.306l-.063-.009l.654.31c.13.516 1.102 2.264 3.157 1.766c1.588-.384 1.796-2.313 1.648-3.305l.373-.465c-.416.293-1.525 1.052-2.735 1.397m-.738 2.148c-.817-.324-1.372-1.104-1.598-1.6c.254-.011.795-.063 1.433-.18c.137.114.498.296.988.23c.261-.034.479-.186.644-.357c.14-.146.245-.309.308-.433a6.2 6.2 0 0 0 1.152-.628c.085.535.062 1.463-.387 2.17c-.23-.17-.754-.38-1.47-.205c-.735.18-1.01.7-1.07 1.003m.093.034a2.1 2.1 0 0 0 1.274.03a1.97 1.97 0 0 0 1.119-.78c-.204-.152-.7-.361-1.393-.191c-.707.173-.954.675-1 .941m1.537-2.313a7 7 0 0 1-.806.274c-.291.08-.58.145-.856.199c.154.096.453.21.843.16c.231-.032.43-.168.586-.33c.096-.1.174-.208.232-.303" clip-rule="evenodd"/><path fill="#0C0000" d="M12.388 10.201c-.384-.013-.505.389-.518.592c.061-.3.294-.409.511-.419s.37.106.386.221c.014.093-.12.193-.19.232c.243-.041.284-.221.274-.306c.006-.1-.079-.306-.463-.32"/><path fill="#FDA925" d="M3.953 9.747c-.184-.37-.496-.507-.628-.528c-.341-.114-1.024.636-1.024 4.56c0 4.906 5.353 7.783 9.27 7.783c3.037 0 5.895-2.851 6.944-4.277l-1.874-3.506c-.164.27-.697.902-1.517 1.276c-.82.373-2.206.578-2.796.633c-6.554 0-8.144-5.475-8.375-5.94"/><path fill="#FFFFE0" fill-rule="evenodd" d="M2.46 15.214c-.048-1.22-.055-2.591.09-3.15c.271-1.054.635-2.199.816-2.222c.145-.019.544.97.726 1.466c.726 1.68 3.294 5.017 7.759 4.925c3.26-.067 4.55-1.181 4.94-2.172l-.15-.282c-.164.27-.697.902-1.517 1.276c-.668.304-1.733.373-2.425.418a16 16 0 0 0-.409.03c-6.025 0-7.832-4.67-8.262-5.785a3 3 0 0 0-.084-.206c-.148-.297-.37-.293-.521-.29a.5.5 0 0 1-.098-.003c-.341-.114-1.024.636-1.024 4.56q.002.75.159 1.435" clip-rule="evenodd"/><path fill="#BF6A0F" fill-rule="evenodd" d="M18.222 16.737h-.337c-2.867 2.639-6.337 3.176-7.713 3.115c-4.314-.03-6.694-2.637-7.723-4.683c.891 4.054 5.591 6.393 9.123 6.393c3.037 0 5.895-2.851 6.944-4.277z" clip-rule="evenodd"/><path fill="#1C0000" d="M4.351 15.481c.645 0 1.167-.6 1.167-1.34S4.996 12.8 4.351 12.8c-.644 0-1.166.6-1.166 1.34s.522 1.341 1.166 1.341"/><path fill="#BF6A0F" d="M4.14 15.644c.645 0 1.167-.6 1.167-1.34s-.522-1.341-1.167-1.341c-.644 0-1.166.6-1.166 1.34s.522 1.34 1.166 1.34"/><path fill="#1C0000" d="M6.106 17.278c.385.129.806-.098.94-.506s-.07-.843-.456-.972c-.385-.129-.806.098-.94.506s.07.843.456.972"/><path fill="#BF6A0F" d="M6.005 17.355c.385.129.806-.098.94-.506s-.07-.843-.456-.972c-.385-.129-.806.098-.94.506s.07.843.456.972"/><path fill="#1C0000" d="M7.563 19.823c.43.143.898-.109 1.047-.564c.15-.454-.078-.939-.507-1.082c-.43-.144-.898.109-1.047.563c-.149.455.078.94.507 1.083"/><path fill="#BF6A0F" d="M7.424 19.869c.43.143.898-.11 1.047-.564c.15-.454-.078-.94-.507-1.083c-.43-.143-.898.11-1.047.564c-.15.455.078.94.507 1.083"/><path fill="#1C0000" d="M14.57 17.819c.43.143.887-.074 1.022-.485s-.104-.86-.533-1.004s-.887.074-1.021.485c-.135.41.104.86.533 1.004"/><path fill="#BF6A0F" d="M14.457 17.924c.43.143.887-.074 1.021-.485c.135-.411-.104-.86-.533-1.004s-.886.074-1.021.485c-.135.41.104.86.533 1.004"/><path fill="#1C0000" d="M11.864 20.788c.763.255 1.577-.134 1.818-.87c.241-.735-.182-1.537-.946-1.792c-.763-.255-1.577.134-1.818.87c-.24.734.183 1.537.946 1.792"/><path fill="#BF6A0F" d="M11.72 20.957c.763.255 1.577-.134 1.818-.87c.241-.734-.183-1.537-.946-1.792s-1.577.134-1.818.87c-.24.735.183 1.537.946 1.792"/><path fill="#02050A" d="M10.354 11.034c.206-.165.196-.524-.022-.803c-.219-.279-.563-.37-.77-.206c-.206.165-.196.525.023.803c.218.279.562.371.769.206"/><path fill="#000005" d="M14.307 9.898c.255-.067.39-.399.303-.743s-.365-.57-.62-.504s-.39.399-.303.743s.365.57.62.504"/><path fill="#FEFDF9" d="M10.022 10.143c-.065-.095-.178-.13-.25-.079s-.079.17-.013.265c.065.095.177.13.25.08c.073-.052.079-.17.013-.266m4.405-1.173c-.038-.11-.136-.174-.22-.145c-.084.03-.12.143-.083.252c.038.109.137.173.22.143c.084-.03.121-.142.083-.25"/><path fill="#FFF6FD" d="M12.717 14.308c.088.067.204.063.259-.01s.028-.187-.06-.255s-.204-.063-.259.01s-.028.187.06.254"/><path fill="#fff" d="M11.982 3.385c-5.086.294-6.727 4.531-6.913 6.613c-.708-3.806 3.817-8.82 9.022-7.237c4.372 1.33 5.227 6.073 4.92 7.483c0-2.647-1.941-4.727-2.912-5.437c-.17.453-.604 1.329-2.944.539c-1.704-.576-1.507-1.494-1.173-1.96"/><path fill="#C37600" d="M21.483 14.395c0-1.414-1.136-2.561-2.537-2.561s-2.537 1.147-2.537 2.561c0 1.415 1.136 2.562 2.537 2.562s2.537-1.147 2.537-2.562"/><path fill="#F9C813" fill-rule="evenodd" d="M18.935 17.253c1.563 0 2.83-1.28 2.83-2.858s-1.267-2.857-2.83-2.857s-2.83 1.28-2.83 2.857c0 1.579 1.267 2.858 2.83 2.858m-.005-.47c1.305 0 2.364-1.07 2.364-2.387c0-1.318-1.059-2.387-2.364-2.387s-2.363 1.069-2.363 2.387s1.058 2.386 2.363 2.386" clip-rule="evenodd"/><path fill="#F3E0CF" d="M16.203 16.38c.409-.246.454-.928.102-1.523s-.97-.877-1.378-.63c-.409.247-.454.93-.102 1.524c.352.595.969.876 1.378.63"/><path fill="url(#tokenBrandedSats1)" d="M21.179 14.395c0-1.245-1-2.254-2.233-2.254a2.244 2.244 0 0 0-2.233 2.254c0 1.245 1 2.255 2.233 2.255a2.244 2.244 0 0 0 2.232-2.255"/><path fill="#BF6E00" fill-rule="evenodd" d="m19.503 12.823l.4.1l-.091.37a.76.76 0 0 1 .122 1.266a.83.83 0 0 1-.178 1.22a.82.82 0 0 1-.586.126l-.101.411l-.4-.1l.1-.41l-.186-.046l-.102.41l-.4-.1l.1-.41l-.665-.167l.097-.396l.36.09l.452-1.84l-.36-.09l.098-.398l.666.167l.086-.35l.4.1l-.086.35l.187.047zm-.458.787l.465.116c.125.032.196.182.158.336c-.037.153-.17.252-.295.22l-.466-.116zm-.36.995l.655.165c.116.028.178.177.14.331s-.162.257-.277.228l-.655-.164z" clip-rule="evenodd"/><path fill="#FFEE81" fill-rule="evenodd" d="m19.225 12.6l-.4-.1l-.086.35l-.307-.077l-.36-.09l-.097.397l.36.09l-.453 1.84l-.36-.09l-.097.396l.666.167l-.1.41l.4.1l.1-.41l.187.047l-.1.41l.4.1l.101-.412a.82.82 0 0 0 .93-.617a.83.83 0 0 0-.166-.728a.76.76 0 0 0-.122-1.266l.09-.37l-.4-.1l-.085.35l-.188-.047zm-.355.834l.466.116c.125.032.196.181.158.335s-.17.253-.294.222l-.466-.117zm-.359.995l.655.164c.116.029.178.177.14.332c-.038.154-.162.257-.277.227l-.656-.163z" clip-rule="evenodd"/><path fill="#F9C813" fill-rule="evenodd" d="m19.452 12.745l.4.1l-.091.37a.758.758 0 0 1 .122 1.265a.83.83 0 0 1-.178 1.22a.82.82 0 0 1-.586.126l-.101.411l-.4-.1l.1-.409l-.186-.047l-.101.41l-.4-.1l.1-.41l-.666-.167l.097-.396l.36.09l.453-1.84l-.36-.09l.097-.397l.666.167l.087-.35l.4.1l-.086.35l.187.047zm-.458.786l.465.117c.126.031.196.181.158.335c-.038.153-.17.253-.295.221l-.465-.116zm-.36.996l.656.164c.115.028.177.177.14.331c-.038.155-.162.257-.278.229l-.655-.165z" clip-rule="evenodd"/><path fill="#000300" fill-rule="evenodd" d="M6.36 5.62C5.318 7.207 5.014 8.949 5.029 9.563c.021.931.311 2 .487 2.445c.189.263.397.527.627.783a1.2 1.2 0 0 1 .167-.357c.152-.22.385-.37.648-.419a5 5 0 0 1 .002-1.128C7.24 8.48 9.273 6.7 11.304 6.336c1.007-.18 2.1-.249 3.145.104c1.049.354 2.041 1.13 2.853 2.619l.003.004l.002.006c.1.275.22.749.256 1.281c.035.533.041 1.133-.203 1.654l-.34.275c.229-.49.43-1.4.396-1.918a4.7 4.7 0 0 0-.245-1.236c-.796-1.458-1.76-2.204-2.768-2.545c-1.012-.342-2.076-.278-3.073-.099c-1.977.355-3.953 2.09-4.226 4.423c-.18 1.546.417 2.711.898 3.303c.45.225.94.423 1.427.587c1.008.339 1.977.526 2.518.527c.303-.01.796-.045 1.292-.116c.477-.068.937-.167 1.234-.3c-.002-.35.126-.651.378-.804a.76.76 0 0 1 .555-.08a1.3 1.3 0 0 1 .258-.318c.133-.117.309-.211.505-.172l-.027.145c-.133-.026-.264.034-.381.138a1.2 1.2 0 0 0-.209.248c.311.112.62.374.84.743c.392.665.342 1.427-.115 1.703s-1.146-.039-1.54-.704a2 2 0 0 1-.221-.544c-.339.133-.794.225-1.23.287c-.51.072-1.018.108-1.33.119h-.006c-.593 0-1.604-.2-2.629-.545c-1.026-.346-2.095-.846-2.792-1.464c-1.714-1.52-2.535-3.647-2.696-4.134a.34.34 0 0 0-.216-.228a.5.5 0 0 0-.265-.016l-.032.008l-.033-.006c-.02-.003-.117 0-.248.14c-.13.136-.282.397-.393.872c-.143.608-.433 2.075-.24 3.751c.192 1.673.865 3.546 2.644 4.988c2.164 1.755 4.66 2.547 7.028 2.29c2.368-.255 4.626-1.559 6.317-4.027l.281.196c-1.743 2.544-4.088 3.907-6.561 4.174c-2.471.267-5.054-.56-7.279-2.364c-1.867-1.514-2.57-3.481-2.77-5.217c-.2-1.734.102-3.246.248-3.87c.12-.512.294-.837.478-1.032c.171-.18.36-.257.516-.245a.85.85 0 0 1 .421.033a.68.68 0 0 1 .428.444c.069.21.27.745.62 1.404q-.08-.621-.091-1.248c-.016-.685.308-2.496 1.39-4.14c1.09-1.655 2.954-3.144 6.004-3.144s4.875 1.457 5.931 3.1c1.05 1.63 1.34 3.44 1.34 4.18v.152a9 9 0 0 1-.308 1.773l-.328-.097c.179-.612.271-1.473.295-1.834c-.002-.686-.279-2.424-1.285-3.987c-1.002-1.557-2.726-2.943-5.646-2.943c-2.917 0-4.68 1.416-5.718 2.99m-.097 7.3q.232.247.491.478c.264.233.589.452.949.652a4.55 4.55 0 0 1-.727-1.889a.86.86 0 0 0-.547.357a1.05 1.05 0 0 0-.166.402m10.196 2.869a1.3 1.3 0 0 0-.014-.281l-.349.3l-.062-.075l.39-.336a1.7 1.7 0 0 0-.114-.328l-.326.27l-.061-.077l.342-.284a2 2 0 0 0-.177-.272l-.292.247l-.063-.075l.291-.247a1.5 1.5 0 0 0-.282-.251l-.389.312l-.06-.077l.361-.29a1 1 0 0 0-.089-.046c-.239-.109-.455-.105-.613-.01c-.158.096-.264.286-.281.55s.055.581.234.884s.422.517.66.627c.238.108.454.105.612.01c.158-.097.264-.287.282-.551" clip-rule="evenodd"/><path fill="#C19C58" fill-rule="evenodd" d="M11.316 4.663c.515.326.458 1.549-.887 2.846c.373-.369.932-1.134.721-1.8c-.284-.897-.713-.984-1.122-.906c.265-.173.868-.406 1.288-.14m-1.207 2.87c.156-.503.293-1.444-.204-1.93c-.67-.655-1.09-.528-1.414-.264c.154-.278.585-.827 1.079-.793c.605.042 1.12 1.2.54 2.987m.469.205q.043 0 .095-.004c1.535-.078 2.224-.812 2.077-1.295c-.121-.395-.623-.579-.881-.616c.298.174.52.463.217 1.179c-.223.531-.983.705-1.413.732z" clip-rule="evenodd"/><defs><linearGradient id="tokenBrandedSats0" x1="4.762" x2="20.491" y1="14.741" y2="10.67" gradientUnits="userSpaceOnUse"><stop stop-color="#C08695"/><stop offset="1" stop-color="#FAC5D5"/></linearGradient><linearGradient id="tokenBrandedSats1" x1="12" x2="12" y1="2.286" y2="21.714" gradientUnits="userSpaceOnUse"><stop stop-color="#F99501"/><stop offset="1" stop-color="#FEA201"/></linearGradient></defs></g></svg>