<svg xmlns="http://www.w3.org/2000/svg" xmlns:xlink="http://www.w3.org/1999/xlink" width="24" height="24" viewBox="0 0 24 24"><g fill="none" fill-rule="evenodd" clip-rule="evenodd"><path fill="#fff" d="M5.182 8.739h4.474a1.065 1.065 0 0 1 1.04 1.087c0 .6-.466 1.087-1.04 1.087H8.74v.87H7.652V9.39H6.287c-.33 0-.274.3-.2.413c.248.261.748.9.748 1.361a.584.584 0 0 1-.548.617H3.739v-.87h1.56c.323 0 .2-.225.097-.325l-.618-.826c-.326-.718.135-.983.404-1.022m3.557.652h.574c.16 0 .296.148.296.326s-.13.326-.296.326h-.574zm4.54-.652H11.59l-.896 3.043h1.057l.117-.434h1.192l.13.434h.983zm-.414 1.956h-.813l.335-1.217h.113zm2.613-1.956a1.522 1.522 0 1 0 0 3.043h1.304v-.87h-1.304a.653.653 0 0 1 0-1.304h1.304v-.87zm4.348 0v.87h-1.74v.434h1.305v.435h-1.304v.435h2.608v.87h-3.478V8.738z"/><path fill="#FC0" d="m4.791 12.739l-.656.774a.652.652 0 1 0-.009.474l.7.717a1.62 1.62 0 0 1-1.23.557A1.56 1.56 0 0 1 2 13.739c0-.84.713-1.522 1.596-1.522c.478 0 .904.2 1.195.522m13.73-.522h1.088l.652.87l.652-.87H22l-1.304 1.74v1.304h-.87v-1.305zM8.088 13.74a1.523 1.523 0 1 1-3.045 0a1.523 1.523 0 0 1 3.045 0m-.87 0a.652.652 0 1 1-1.303 0a.652.652 0 0 1 1.303 0m10.218 1.522a1.522 1.522 0 1 0 0-3.044a1.522 1.522 0 0 0 0 3.044m0-.87a.652.652 0 1 0 0-1.303a.652.652 0 0 0 0 1.303m-8.478.87l-.87-3.044h.87l.434 1.304l.435-1.304h.87l.434 1.304l.505-1.304h3.135a.713.713 0 0 1 .378 1.322a.896.896 0 0 1-.348 1.722h-2.365v-2.174h-.174l-.696 2.174h-.87l-.478-1.083l-.39 1.083zm4.565-2.174h.782a.218.218 0 0 1 0 .434h-.782zm0 .87h.76a.326.326 0 0 1 0 .651h-.76z"/></g></svg>