<svg xmlns="http://www.w3.org/2000/svg" xmlns:xlink="http://www.w3.org/1999/xlink" width="24" height="24" viewBox="0 0 24 24"><g fill="none"><path fill="url(#tokenBrandedSclp0)" d="m16.082 3.195l-4.764 4.9a.3.3 0 0 0-.047.04l-3.459 3.46a.855.855 0 0 0 0 1.21l3.276 3.277l-4.034 4.235a12 12 0 0 1-1.812-1.524C1.013 14.576.866 9.353 5.125 5.09C8.5 1.713 12.482 1.143 16.082 3.195"/><path fill="url(#tokenBrandedSclp1)" d="M18.916 18.876c-3.364 3.358-7.322 3.964-10.898 2.029l1.423-1.482l3.258-3.37l3.24-3.241a.866.866 0 0 0 0-1.212l-3.251-3.252l3.993-4.176l.353-.365c.588.412 1.176.912 1.735 1.47c4.194 4.182 4.37 9.37.147 13.599"/><defs><linearGradient id="tokenBrandedSclp0" x1="18.409" x2="-5.887" y1="-5.339" y2="63.719" gradientUnits="userSpaceOnUse"><stop stop-color="#00DECA"/><stop offset=".38" stop-color="#3A8AFA"/><stop offset="1" stop-color="#1A6AF4"/></linearGradient><linearGradient id="tokenBrandedSclp1" x1="19.493" x2="-7.239" y1="-2.869" y2="55.499" gradientUnits="userSpaceOnUse"><stop stop-color="#00DECA"/><stop offset=".38" stop-color="#3A8AFA"/><stop offset="1" stop-color="#1A6AF4"/></linearGradient></defs></g></svg>