<svg xmlns="http://www.w3.org/2000/svg" xmlns:xlink="http://www.w3.org/1999/xlink" width="24" height="24" viewBox="0 0 24 24"><g fill="none"><path fill="#D9D9D9" d="M12 21.412a9.411 9.411 0 1 0 0-18.823a9.411 9.411 0 0 0 0 18.823M12 22a10 10 0 1 0 0-20a10 10 0 0 0 0 20"/><path fill="url(#tokenBrandedScs0)" d="M12 21.412a9.412 9.412 0 1 0 0-18.823a9.412 9.412 0 0 0 0 18.823"/><path fill="#16191D" d="M11.412 4.353V3.47L6.706 8.176l-2.647 7.06l2.059.587l5-3.529l4.706 2.941l-5.294 2.353l1.176.588l7.059-2.94l-7.647-5.883l-6.177 5l2.06-5.588z"/><path fill="#1F232A" d="m17 8.765l.294.882l-3.824-3.823l.588 3.235l4.706 4.412l.883 2.058l-7.353-6.176l-.295-5.882z"/><path fill="#D2D2D4" d="M15.53 12.588v-1.764h.435v.711h.306v-.712h.435v1.765h-.435v-.77h-.306v.77zm-.853 0a.8.8 0 0 1-.336-.059a.4.4 0 0 1-.206-.176a.7.7 0 0 1-.076-.312l.406-.047q-.001.115.023.177q.026.072.06.1q.043.027.105.029q.069.001.094-.041a.15.15 0 0 0 .024-.083a.26.26 0 0 0-.06-.176a1 1 0 0 0-.176-.153l-.188-.13a1.2 1.2 0 0 1-.206-.182a.4.4 0 0 1-.082-.264a.39.39 0 0 1 .165-.33a.74.74 0 0 1 .435-.118a.7.7 0 0 1 .276.048q.106.045.16.117a.7.7 0 0 1 .076.165c.011.059.023.106.023.159l-.412.04c0-.052 0-.093-.011-.134a.15.15 0 0 0-.036-.083q-.026-.035-.088-.035a.12.12 0 0 0-.1.047a.16.16 0 0 0-.03.088c0 .06.018.118.06.159l.147.118l.176.13a.8.8 0 0 1 .235.217q.099.115.1.294a.37.37 0 0 1-.07.223a.5.5 0 0 1-.194.153a.64.64 0 0 1-.294.06m-1.795 0l.353-1.764h.47l.354 1.764h-.382l-.06-.37h-.276l-.064.37zm.494-.588h.2l-.1-.706zm-1.364.588a.76.76 0 0 1-.36-.07a.4.4 0 0 1-.187-.2a.8.8 0 0 1-.053-.3V11.4c0-.118.018-.223.059-.306a.4.4 0 0 1 .176-.2a.8.8 0 0 1 .365-.07a.9.9 0 0 1 .347.058a.4.4 0 0 1 .176.177a.6.6 0 0 1 .053.259v.147h-.435V11.2a.12.12 0 0 0-.041-.076q-.028-.036-.1-.036q-.07 0-.106.036a.15.15 0 0 0-.041.076v1.018l.047.076q.037.026.1.024c.047 0 .082-.006.1-.03a.15.15 0 0 0 .035-.076l.006-.1v-.183h.435v.147q0 .15-.053.265a.38.38 0 0 1-.176.177a.7.7 0 0 1-.347.07M8.618 9.93v-.282l-1.6 1.506l-.9 2.259l.7.188l1.7-1.13l1.594.942l-1.794.753l.4.188l2.394-.941l-2.594-1.883l-2.1 1.6l.7-1.788z"/><path fill="#D2D2D4" d="m10.512 11.341l.1.283L9.318 10.4l.194 1.035l1.6 1.412l.3.659l-2.5-1.977l-.094-1.882z"/><defs><linearGradient id="tokenBrandedScs0" x1="7.937" x2="15.75" y1="2.937" y2="21.375" gradientUnits="userSpaceOnUse"><stop stop-color="#383D45"/><stop offset="1" stop-color="#1A1D22"/></linearGradient></defs></g></svg>