<svg xmlns="http://www.w3.org/2000/svg" xmlns:xlink="http://www.w3.org/1999/xlink" width="24" height="24" viewBox="0 0 24 24"><g fill="none"><g opacity=".7"><path fill="url(#tokenBrandedSdao0)" d="M12 22a10 10 0 1 0 0-20a10 10 0 0 0 0 20m2.53-12.812c.229-.994.1-2.276-1.13-4.035c4.418.965 7.212 5.77 6.012 10.053a7.58 7.58 0 0 1-3.594 4.694c-1.477.824-3.63 1.47-5.224.6a3.01 3.01 0 0 1-1.476-3.1c.194-.97.894-1.924 1.64-2.824c.4-.482.824-.94 1.242-1.411l.647-.712c.835-.947 1.594-2.07 1.87-3.265z"/><path fill="#203BDB" d="M5.559 7.882c3.5-3.753 7.806-2.729 7.806-2.729l-.083-.094c-.47-.118-4.811-.883-7.723 2.823"/><path fill="url(#tokenBrandedSdao1)" d="M15.824 19.9c-1.477.824-3.63 1.47-5.224.6a3.01 3.01 0 0 1-1.476-3.1c.194-.97.894-1.924 1.641-2.824c.4-.482.823-.94 1.241-1.411l.647-.712c-1.106 1.165-2.788 1.735-4 2.67c-1.206.924-1.588 2.318-1.27 3.806c.335 1.53 1.476 2.942 4.229 3.06c1.723.076 3.07-1.06 4.212-2.09"/></g><defs><linearGradient id="tokenBrandedSdao0" x1="22" x2="2" y1="12.018" y2="12.018" gradientUnits="userSpaceOnUse"><stop offset=".11" stop-color="#E25900"/><stop offset=".2" stop-color="#CBC91E"/><stop offset=".35" stop-color="#2DE2C1"/><stop offset=".46" stop-color="#3093D3"/><stop offset=".7" stop-color="#2024DE"/><stop offset="1" stop-color="#2624DF"/></linearGradient><linearGradient id="tokenBrandedSdao1" x1="9.383" x2="7.271" y1="16.782" y2="16.876" gradientUnits="userSpaceOnUse"><stop stop-color="#203BDB"/><stop offset="1" stop-color="#2133DD" stop-opacity=".4"/></linearGradient></defs></g></svg>