<svg xmlns="http://www.w3.org/2000/svg" xmlns:xlink="http://www.w3.org/1999/xlink" width="24" height="24" viewBox="0 0 24 24"><g fill="none"><path fill="#474799" d="M2 12a10 10 0 1 1 20 0a10 10 0 0 1-20 0m10-8.824c-4.947 0-8.824 3.877-8.824 8.824S7.053 20.824 12 20.824s8.824-3.877 8.824-8.824S16.947 3.176 12 3.176"/><path fill="url(#tokenBrandedSdl0)" d="m11.988 20.212l-4.34-4.083l1.835-1.747z"/><path fill="url(#tokenBrandedSdl1)" d="M9.176 6.488c-.17.153-2.264 1.565-1.823 3.977c.206 1.111 1.506 2.306 2.582 3.517c1.524 1.724 1.812 2.183 2.077 2.812c.647 1.541.076 3.118-.006 3.441c0 0 1.37-1.006 1.635-2.353c.218-1.13.165-1.423.077-1.935c-.218-1.235-1.16-2.265-2.26-3.4c-1.088-1.13-1.187-1.194-1.987-2.194C9 9.765 8.729 9.2 8.71 8.47c-.017-1.064.607-2.117.46-1.982z"/><path fill="url(#tokenBrandedSdl2)" d="M10.23 5.459s.058.076.182.117c.165.059.412.07.606-.117c.176-.16.17-.4.112-.548c-.048-.117-.13-.176-.13-.176l.112-.118s.041.065.141.112a.59.59 0 0 0 .677-.147c.164-.176.129-.4.058-.535a1 1 0 0 0-.105-.16l.129-.123l4.388 4.16l-.611.552s-.548-.635-1.136-.665a3 3 0 0 0-.9.06c-.318.07-.488.146-.87-.042c-.483-.241-.471-.735-.465-.994c.012-.206-.094-.324-.241-.33c-.13 0-.265.042-.294.242c-.06.412 0 .682.323 1.176c.312.465 1.53 1.588 1.93 2.03c.435.47.794.73 1.47 1.63c.47.61 1.1 1.487 1.1 2.558c0 .812-.253 1.306-.582 1.917A7.7 7.7 0 0 1 14.8 17.6c.018-.041.377-1.094.312-2.383c-.082-1.606-1.582-2.864-2.412-3.8c-.676-.753-1.27-1.33-1.947-2.211c-1.165-1.518-.53-3.747-.53-3.747z"/><defs><linearGradient id="tokenBrandedSdl0" x1="2" x2="22" y1="12.01" y2="12.01" gradientUnits="userSpaceOnUse"><stop offset=".1" stop-color="#73BFB4"/><stop offset=".26" stop-color="#4F9994"/><stop offset=".75" stop-color="#40418F"/><stop offset="1" stop-color="#403B8F"/></linearGradient><linearGradient id="tokenBrandedSdl1" x1="2.006" x2="21.999" y1="12.004" y2="12.004" gradientUnits="userSpaceOnUse"><stop offset=".07" stop-color="#79C2BA"/><stop offset=".27" stop-color="#46998F"/><stop offset=".85" stop-color="#484997"/><stop offset="1" stop-color="#353681"/></linearGradient><linearGradient id="tokenBrandedSdl2" x1="17.625" x2="11.19" y1="16.064" y2="4.211" gradientUnits="userSpaceOnUse"><stop stop-color="#79C2BA"/><stop offset=".26" stop-color="#46998F"/><stop offset=".38" stop-color="#468C90"/><stop offset=".59" stop-color="#476A93"/><stop offset=".78" stop-color="#484997"/><stop offset="1" stop-color="#353681"/></linearGradient></defs></g></svg>