<svg xmlns="http://www.w3.org/2000/svg" xmlns:xlink="http://www.w3.org/1999/xlink" width="24" height="24" viewBox="0 0 24 24"><g fill="none"><path fill="url(#tokenBrandedSfd0)" d="m11.474 2l-1.28 1.763v.59C8.51 4.826 5.285 6.51 3.88 7.295c0 1.647.6 5.784.905 7.647l-.305.295l-.9 2.052l2.705-1.757c-.72-1.885-.7-5.885-.6-7.648c1.442-1.179 4.484-2.063 5.79-2.352z"/><path fill="url(#tokenBrandedSfd1)" d="m12.526 2l1.28 1.763v.59c1.684.473 4.91 2.158 6.315 2.942c0 1.647-.6 5.784-.905 7.647l.305.295l.9 2.052l-2.705-1.757c.72-1.885.7-5.885.6-7.648c-1.442-1.179-4.484-2.063-5.79-2.352z"/><path fill="url(#tokenBrandedSfd2)" d="m6.89 16.41l-3.012 1.77l2.405.29l.3-.29C7.79 20.053 10.694 21.51 12 22c2.89-1.179 4.81-3.037 5.416-3.821l.3.29l2.405-.29l-3.01-1.768c-.959 2.12-3.806 3.631-5.111 4.12c-2.647-.71-4.51-3.041-5.11-4.12"/><path fill="#303435" d="M12.063 5.158c-2.253 0-5.626 1.195-6.563 2.395c-1.753 8.62 3.579 12.431 6.5 13.131c6.874-1.795 7.247-8.942 6.626-13.131c-1.258-1.5-4.316-2.395-6.563-2.395"/><path fill="#CACAD4" d="M10.42 9.932c.717-.232.953-.29 1.053-.29V6.211c-1.668.226-4.068 1.431-5.063 2c-.473 1.147 0 4.105.3 5.436c.716-.457 2.816-1.142 3.71-1.431v4.579c-1.189-.232-2.22-2-2.52-2.863l-1.19.579c.716 2.968 3.474 4.473 4.764 4.858V10.5c-1.432 0-3.09.684-3.685.974V9.368l2.632-1.157z"/><path fill="#949398" fill-rule="evenodd" d="M12.526 6.21v13.16c1.221-.474 3.843-2.058 4.58-4.58a20.3 20.3 0 0 0 .61-6.578a10.7 10.7 0 0 0-5.19-2m1.053 1.58v9.473c1.174-.737 3.442-3.474 3.126-8.526c-.647-.316-2.19-.947-3.126-.947" clip-rule="evenodd"/><defs><linearGradient id="tokenBrandedSfd0" x1="11.921" x2="11.921" y1="2" y2="22.007" gradientUnits="userSpaceOnUse"><stop stop-color="#1BA9D1"/><stop offset="1" stop-color="#126DB0"/></linearGradient><linearGradient id="tokenBrandedSfd1" x1="12.079" x2="12.079" y1="2" y2="22.007" gradientUnits="userSpaceOnUse"><stop stop-color="#1AA3CB"/><stop offset="1" stop-color="#126DB1"/></linearGradient><linearGradient id="tokenBrandedSfd2" x1="12" x2="12" y1="2" y2="22" gradientUnits="userSpaceOnUse"><stop stop-color="#1868A7"/><stop offset="1" stop-color="#0E59AB"/></linearGradient></defs></g></svg>