<svg xmlns="http://www.w3.org/2000/svg" xmlns:xlink="http://www.w3.org/1999/xlink" width="24" height="24" viewBox="0 0 24 24"><path fill="#C44536" fill-rule="evenodd" d="M5.72 2A3.72 3.72 0 0 0 2 5.72v12.56A3.72 3.72 0 0 0 5.72 22h12.56A3.72 3.72 0 0 0 22 18.28V5.721A3.72 3.72 0 0 0 18.28 2zm4.945 10s.022-.037 0 4.375v3.657h2.676v-3.656c0-.918.004-1.785.008-2.503c.005-1.038.01-1.763-.008-1.87c.634-.23 1.297-.536 1.851-.796c.799-.374 1.602-1.16 1.94-1.9c.486-1.06.521-1.86.138-3.155c-.336-1.135-.345-1.525-.047-2.005c.097-.157.17-.245.155-.311c-.025-.11-.288-.163-1.072-.373c-.695-.186-.695-.186-.819-.022c-.415.55-.436 1.57-.055 2.757c.419 1.305.296 2.275-.383 3.027c-.304.336-.899.663-1.515.833c-.611.168-2.342.17-3.03.003c-1.272-.31-1.992-1.018-2.148-2.116c-.08-.566-.016-.994.284-1.902c.298-.905.324-1.75.071-2.312c-.24-.534-.36-.497-1.078-.275l-.151.046l-.871.296l.217.415c.284.542.274.874-.055 1.853c-.321.955-.38 1.608-.212 2.362c.245 1.098.852 1.956 1.83 2.585l.123.08c.667.43 1.183.761 2.15.907m-.67 6.025H6.65v1.338h3.346zm7.36 0H14.01v1.338h3.346zm-7.36-2.676H6.65v1.338h3.346zm7.36 0H14.01v1.338h3.346zm-7.36-2.677H6.65v1.339h3.346zm7.36 0H14.01v1.339h3.346zM10.702 9.8c.424.024 1.16-2.287 1.299-2.8c.022.063.065.218.122.427c.224.817.671 2.447.978 2.447c.034 0 1.49-.762 1.542-.807c.012-.01-.428-.858-.977-1.882l-1.04-2.06h-1.25l-1.253 2.072l-.997 1.872l.751.363c.413.2.785.366.825.368" clip-rule="evenodd"/></svg>