<svg xmlns="http://www.w3.org/2000/svg" xmlns:xlink="http://www.w3.org/1999/xlink" width="24" height="24" viewBox="0 0 24 24"><g fill="none"><path fill="#FF8003" d="M15.877 2.784c.012.018 0 .035-.023.059a23 23 0 0 1-1.929 2.234c-.047.041-.106.047-.165.035c-.552-.07-1.04-.117-1.464-.158c-.594-.06-1.129-.06-1.793-.047a5.7 5.7 0 0 0-1.588.247a4.85 4.85 0 0 0-1.993-1.77a10 10 0 0 1 8.955-.6"/><path fill="#FFA403" d="M17.894 4.025a6.66 6.66 0 0 1-.7 3.498c-.018.041-.047.118-.088.17c-.018.024-.047.03-.077.018a2.5 2.5 0 0 0-.834-.264l-.003.009q0 .005.003.008q.348.345.67.712q.201.229.359.476l.452.747A11.3 11.3 0 0 1 19 12.968c.104.45.076.919-.082 1.352a2.2 2.2 0 0 0-1.588-.864a.6.6 0 0 1 0-.17a9.4 9.4 0 0 0 .136-1.982a15 15 0 0 0-.171-1.376a4 4 0 0 0-.147-.611c-.006 0-.012 0-.012-.012V9.28a.7.7 0 0 1-.094-.14v-.024a.2.2 0 0 0-.03-.089a.4.4 0 0 1-.046-.117a.1.1 0 0 0-.012-.03a.25.25 0 0 1-.059-.094a.3.3 0 0 0-.07-.117a.5.5 0 0 1-.065-.088a.3.3 0 0 0-.088-.095a.3.3 0 0 1-.088-.076l-.147-.176h-.03a.03.03 0 0 0-.012.023a.13.13 0 0 1-.04.094a.38.38 0 0 0-.024-.258a1.3 1.3 0 0 0-.294-.347a5.5 5.5 0 0 0-1.188-.777a1.1 1.1 0 0 0-.635-.082a.68.68 0 0 0-.511.408a.5.5 0 0 0-.024.221c.03.241.223.459.417.594l.212.124l.218.117q-.355.213-.577.524a1.63 1.63 0 0 0-.311 1.14q.036.43.1.923q.053.441.206.759c.123.27.329.53.488.782c.04.07.094.076.158.03c.03-.024.035-.048.024-.083l-.094-.212a6 6 0 0 1-.265-.57c-.059-.141-.076-.3-.1-.447c0-.023 0-.03.024-.018l.105.083c.383.282.9.453 1.359.353a1.764 1.764 0 0 0 1.481-1.63a.33.33 0 0 1 .03.177q-.015.1-.035.2l-.024.07a.6.6 0 0 1-.047.107a.3.3 0 0 0-.023.07q-.143.295-.353.547c-.024.059-.059.094-.118.1a.023.023 0 0 0-.023.018a.1.1 0 0 1-.03.035a.3.3 0 0 1-.047.03a.2.2 0 0 0-.059.04l-.011.006h-.006a.06.06 0 0 0-.036.012a.9.9 0 0 1-.311.165a.1.1 0 0 0-.047.03c-.036.04 0 .105.012.158c.058.494.04 1.011.04 1.505a1.2 1.2 0 0 1-.058.312a6.2 6.2 0 0 0-1.164.494q-.267.143-.53.294l-.017-.012a8 8 0 0 0-1.417-2.376a4.3 4.3 0 0 0-.859-.782a3.1 3.1 0 0 0-.923-.429a1.7 1.7 0 0 0-.723-.047a2.96 2.96 0 0 0-1.505.682a8 8 0 0 0-1.782 2.111q-.151.246-.3.494h-.01l-.007-.006a6 6 0 0 0-.312-.37l-.6-.647c.177-.177.341-.382.506-.576c.153-.183.282-.412.388-.67q.312-.875.47-1.788a1.8 1.8 0 0 0-.294-1.14c.283-.06.565-.107.83-.189c.393-.118.805-.247.887-.712a.41.41 0 0 0-.211-.429c-.241-.14-.488-.13-.759-.047a1.54 1.54 0 0 0-.711.453l-.2.2a.4.4 0 0 1-.106.053q.559-.914 1.246-1.735c.298-.36.682-.64 1.118-.811c.523-.194 1.17-.235 1.764-.218c1.123.03 2.24.188 3.328.47q.09-.103.158-.223l.294-.552c.153-.283.341-.57.57-.87c.395-.512.753-.941 1.07-1.277l.43-.394c.159-.14.423-.34.647-.252c.253.1.359.329.435.576c.123.388.188.782.206 1.188zM6.593 3.789c.294.118.588.224.858.412c.417.304.767.69 1.03 1.135a.03.03 0 0 1-.019.03a5.2 5.2 0 0 0-.993.834l.04-.088a.2.2 0 0 1 .06-.076q.092-.097.176-.2c0-.036-.023-.06-.035-.089c-.012-.047-.047-.076-.065-.117q-.15-.302-.37-.682a2.4 2.4 0 0 0-.294-.406a1.3 1.3 0 0 0-.424-.347c-.07-.03-.135-.059-.2-.065a6 6 0 0 0-.235-.04a.4.4 0 0 0-.188.017l-.082.147a.3.3 0 0 0-.012.094c0 .006 0 .012-.012.012h-.053c-.006 0-.011.006-.006.012l.018.064v.03c0 .029 0 .058.012.088c.017.041 0 .082.017.13l.042.17l.035.111a.4.4 0 0 1 .035.16c0 .011.006.017.018.029l.012.023v.03a3 3 0 0 0 .1.364c.011.03.023.059.029.1c.018.059.035.112.041.165c.006.035.006.064.024.1v.058a8 8 0 0 0-.089-.27c-.029-.053-.011-.118-.04-.159l-.03-.053a.3.3 0 0 1-.035-.094a2 2 0 0 1-.036-.17a.02.02 0 0 1-.011-.012c-.012-.059-.006-.112-.018-.159l-.1-.353c-.006 0-.012 0-.018-.011a2 2 0 0 1-.058-.194a.4.4 0 0 1-.036-.153c0-.036 0-.065-.012-.094a7 7 0 0 1-.029-.265a.7.7 0 0 1-.023-.159a.3.3 0 0 0-.018-.1a.4.4 0 0 1-.024-.188c0-.012 0-.012.012-.012h.065l-.053-.005h-.024q-.045.034-.029.088l.012.059c0 .058 0 .105.012.152l.011.089c0 .064.024.135.06.205l.01.03v.088l.013.088q-.002.062.023.141q.091.28.141.57l.059.224a.5.5 0 0 1 .03.124l.035.123a.2.2 0 0 1 .017.076a.2.2 0 0 0 .018.077l.024.1c0 .03.011.059.023.1q.066.178.1.364q-.009.018-.018 0l-.011-.04v-.007l-.006-.058l-.07-.236l-.036-.04a.04.04 0 0 1-.012-.024v-.094c0-.006 0-.012-.012-.012h-.011v-.018a.08.08 0 0 0-.024-.059a.03.03 0 0 1-.006-.029l-.006-.082a.5.5 0 0 1-.03-.194l-.046-.094a.3.3 0 0 0-.035-.083a1.4 1.4 0 0 0-.07-.4a.2.2 0 0 0-.024-.047a.06.06 0 0 1-.012-.058l-.006-.024a.07.07 0 0 1-.012-.059l-.006-.023l-.053-.083c-.07-.347-.135-.693-.182-1.046q.002-.02.047-.012c.394.076.706.206 1.1.37"/><path fill="#FF8003" d="M16.412 7.394a.3.3 0 0 1-.106-.059c-.306-.23-.629-.459-.9-.735c-.211-.23-.37-.43-.382-.747c-.011-.253.189-.523.37-.729l.765-.852c.082-.077.159-.177.241-.253c.118-.118.241-.23.353-.353q.07-.072.159-.135c.106-.07.153 0 .217.082q.158.204.218.435q.127.596.106 1.206l-.006.405q-.019.248-.053.494l.006.03c0 .011 0 .017.012.029a.12.12 0 0 1 .017.088l-.017.082c-.012.071-.006.136-.03.206a8 8 0 0 1-.117.365l-.012.006l-.018.088l-.011.023a.24.24 0 0 0-.06.083q-.135.137-.264.282c0 .012 0 .018-.012.023a.3.3 0 0 1-.176.042a.4.4 0 0 1-.2-.06a.5.5 0 0 0-.1-.046M7.47 6.2a12 12 0 0 0-1.012 1.258a3 3 0 0 1-.117-.311a26 26 0 0 1-.706-2.67l.047.083v.023c0 .024 0 .041.018.059c.006.012.012.018.006.03c0 .017 0 .035.012.052l.023.047a1.4 1.4 0 0 1 .07.4l.042.083l.012.035l.029.059a.6.6 0 0 0 .03.194c0 .023.005.058 0 .082c0 .012 0 .018.011.023c.018.024.024.042.018.065l.006.018h.011c.006 0 .012 0 .012.012v.094c0 .011 0 .017.012.023l.035.047q.039.149.082.294l.006.041q.009.018.018 0v-.023a2 2 0 0 0-.1-.341a.5.5 0 0 1-.023-.1a.5.5 0 0 0-.024-.1a.3.3 0 0 1-.018-.077a.2.2 0 0 0-.017-.076a.5.5 0 0 1-.036-.123a.3.3 0 0 0-.029-.124a1.5 1.5 0 0 1-.059-.223l-.03-.183a4 4 0 0 0-.11-.388a.5.5 0 0 1-.024-.14c0-.03 0-.06-.012-.089v-.088l-.006-.03a.5.5 0 0 1-.059-.205l-.017-.089c-.018-.047-.006-.1-.012-.147c0-.023 0-.047-.012-.064q-.016-.055.03-.083l.023-.006h.059v.006h-.07c-.007 0-.013 0-.013.012a.33.33 0 0 0 .024.188a.3.3 0 0 1 .018.1a.7.7 0 0 0 .017.159l.018.088q.012.135.03.27q0 .072.035.154l.029.094l.03.1l.017.011h.012v.012l.088.341c.012.047 0 .106.018.159l.011.012h.006l.006.011l.024.16a.3.3 0 0 0 .035.093l.03.053c.029.047.011.106.04.159c.018.023.024.053.036.082l.059.188l-.006-.058c-.018-.036-.018-.065-.024-.1c0-.06-.023-.112-.035-.165a1 1 0 0 0-.035-.1a2 2 0 0 1-.118-.417a.04.04 0 0 1-.012-.03a.5.5 0 0 0-.035-.159a1 1 0 0 1-.035-.117l-.042-.165c-.011-.047 0-.088-.017-.13a.2.2 0 0 1-.012-.087v-.03l-.018-.059l.006-.017h.053c.006 0 .012 0 .012-.012c0-.053 0-.082.012-.094q.04-.074.082-.147a.5.5 0 0 1 .188-.018l.235.041c.06.012.13.036.2.065q.228.115.43.353q.163.187.294.4c.14.253.264.482.364.682c.018.041.053.07.065.117c.012.03.035.053.035.089l-.006.023l-.176.177a.3.3 0 0 0-.053.076z"/><path fill="#FF8003" d="M5.058 4.818c.082.389.165.794.253 1.153c.188.735.388 1.393.647 2.046a.4.4 0 0 1 .029.118c0 .04-.012.059-.047.064c-.147.03-.282.03-.423.065a1.5 1.5 0 0 0-.606.323a1.94 1.94 0 0 0-.517 2.158c.023.06.011.106-.018.16q-.3.5-.606.999a3.1 3.1 0 0 0-.447 1.493q-.018.573.094 1.094a5.6 5.6 0 0 0 .624 1.582a7.8 7.8 0 0 0 2.022 2.398c.554.45 1.207.76 1.905.906q.847.176 1.535.23a13.6 13.6 0 0 0 4.898-.565a11.1 11.1 0 0 0 3.98-2.358q.514-.482.9-1.07q.309-.45.494-1.006a3.25 3.25 0 0 0 .1-1.693a10 10 0 0 0-.623-2.046a14 14 0 0 0-1.558-2.693c-.047-.07-.082-.1-.041-.194a7.7 7.7 0 0 0 .646-3.481l-.005-.235v-.012a.02.02 0 0 1 .017 0c.49.386.938.824 1.335 1.305a9.9 9.9 0 0 1 2.193 4.704A9.98 9.98 0 0 1 8.915 21.506A10.03 10.03 0 0 1 2.277 9.652a10.04 10.04 0 0 1 2.422-4.493c.1-.117.218-.211.318-.329c.012-.017.03-.023.04-.012"/><path fill="#fff" d="m16.353 8.346l-.006.089a1.76 1.76 0 0 0-1.822-.077a4 4 0 0 0-.218-.123l-.212-.118c-.194-.141-.388-.353-.411-.606a.5.5 0 0 1 .135-.405a.7.7 0 0 1 .394-.218a1.16 1.16 0 0 1 .635.082l.306.153q.471.27.882.624q.196.176.294.352a.36.36 0 0 1 .023.253zm-9.455.447a1.9 1.9 0 0 0-.44-.417v-.012l.17-.241a.24.24 0 0 0 .106-.053l.2-.2c.191-.215.44-.372.717-.453c.265-.082.512-.094.753.047c.153.089.247.247.211.43c-.082.464-.493.6-.882.711c-.27.082-.552.135-.834.188"/><path fill="#FF8003" d="M17.323 13.462c-.458-.077-.888-.006-1.352.106a1 1 0 0 0 .065-.312c0-.494.011-1.011-.042-1.505c-.005-.053-.047-.118-.011-.159a.1.1 0 0 1 .047-.03a.9.9 0 0 0 .311-.164a.06.06 0 0 1 .041-.012h.012a.2.2 0 0 1 .06-.047a.2.2 0 0 0 .046-.03a.1.1 0 0 0 .03-.034c0-.012.011-.018.023-.018c.059 0 .094-.035.117-.1c0-.006.006-.018.018-.018a.18.18 0 0 0 .083-.094c0-.006.005-.018.017-.018l.012-.017l.012-.024q.12-.18.211-.376a.3.3 0 0 1 .024-.07a.6.6 0 0 0 .047-.106l.023-.07q.021-.104.036-.207a.3.3 0 0 0-.03-.176c.015-.43-.127-.85-.4-1.182a2.4 2.4 0 0 0-.376-.364l.006-.083a.13.13 0 0 0 .041-.094v-.012l.012-.011h.03l.146.176c.024.03.06.059.088.076a.3.3 0 0 1 .089.095l.059.082a.3.3 0 0 1 .076.123c.018.036.035.07.059.094q.009.014.012.03a.5.5 0 0 0 .047.117q.024.045.023.089v.023l.094.147v.018l.018.012h.012q.115.353.158.723l.024.117c.076.588.117.965.123 1.147a9.4 9.4 0 0 1-.135 1.981a1 1 0 0 0-.006.177"/><path fill="#fff" d="M15.371 11.028a1.137 1.137 0 0 0 1.217-1.132a1.137 1.137 0 0 0-1.217-1.132a1.135 1.135 0 0 0 0 2.264M4.852 9.734c-.14.63.147 1.223.63 1.329c.487.106.987-.318 1.128-.94c.136-.63-.147-1.224-.635-1.33c-.482-.106-.987.318-1.123.941"/><path fill="#FFA403" d="M5.722 12.874a6 6 0 0 0-1.37-1.023l.235-.412l.112-.176a.02.02 0 0 1 .018-.012h.012l.011.006a1.3 1.3 0 0 0 1.7.1h.011l.006.006v.006c0 .047-.017.094-.03.14a3.1 3.1 0 0 1-.422.924l-.283.43z"/><path fill="#fff" d="M17.323 13.462c-.459-.076-.888-.006-1.352.106a6.4 6.4 0 0 0-1.159.494q-.266.143-.529.294a.024.024 0 0 1-.023-.018a8 8 0 0 0-1.418-2.375a4.3 4.3 0 0 0-.846-.782a3.1 3.1 0 0 0-.923-.43a1.7 1.7 0 0 0-.723-.047a2.96 2.96 0 0 0-1.506.682a8 8 0 0 0-1.781 2.111q-.153.246-.3.494h-.01l-.008-.006a6 6 0 0 0-.312-.37l-.6-.647l-.105-.1c-.409-.4-.872-.74-1.376-1.011a2.9 2.9 0 0 0-.441 2.263q.16.787.617 1.53a8 8 0 0 0 2.082 2.257c.353.265.782.447 1.217.559q.76.202 1.6.229a15 15 0 0 0 2.751-.176c.923-.146 1.828-.39 2.699-.73c.641-.274 1.256-.61 1.834-1a7 7 0 0 0 1.647-1.493c.235-.3.423-.629.558-.976a2.2 2.2 0 0 0-1.587-.864zm-6.827-.341a.35.35 0 0 0-.205.323c0 .118-.136.188-.224.224a.8.8 0 0 1-.294.053c-.1 0-.276-.06-.247-.194c.03-.118.06-.23-.023-.335a.7.7 0 0 0-.194-.16l-.353-.205c-.223-.135-.412-.376-.412-.647c0-.282.26-.382.494-.412q.554-.069 1.1-.076c.364 0 .735.03 1.07.188a1.04 1.04 0 0 1 .588.865c.012.282-.235.517-.53.423a4 4 0 0 0-.293-.088a.66.66 0 0 0-.477.04M8.35 15.202c.124.07.236.118.383.136q.156.025.429 0a19 19 0 0 0 1.34-.136a11.5 11.5 0 0 1 2.546.06h.03c.117.017.2.029.27.123c.03.035.035.088.03.147c-.018.135-.153.205-.277.176a8.8 8.8 0 0 0-1.981-.253c-.447-.006-.882.047-1.311.1l-.165.024l-.33.023l-1.022.012c-.106 0-.177-.047-.195-.141a.2.2 0 0 1 .018-.153c.041-.082.135-.165.235-.118"/></g></svg>