<svg xmlns="http://www.w3.org/2000/svg" xmlns:xlink="http://www.w3.org/1999/xlink" width="24" height="24" viewBox="0 0 24 24"><g fill="none"><path fill="url(#tokenBrandedSkey0)" fill-rule="evenodd" d="M3.412 15.966a4.64 4.64 0 0 1 0-6.664l5.18-5.065c1.882-1.84 4.934-1.84 6.816 0l5.18 5.065a4.64 4.64 0 0 1 0 6.664l-5.18 5.064l-.09.086l-.373-1.165l4.416-4.27a3.9 3.9 0 0 0 0-5.648l-4.44-4.292c-1.613-1.56-4.229-1.56-5.842 0l-4.44 4.292a3.897 3.897 0 0 0 0 5.648l4.427 4.28l-.355 1.182l-.119-.113zm11.114 2.675l3.791-3.792a2.816 2.816 0 0 0 0-3.983L13.993 6.54a2.816 2.816 0 0 0-3.983 0l-4.327 4.325a2.814 2.814 0 0 0 0 3.983l3.784 3.784l.509-1.69l-3.207-3.206a1.646 1.646 0 0 1 0-2.33l4.067-4.066a1.645 1.645 0 0 1 2.33 0l4.067 4.066a1.65 1.65 0 0 1 0 2.33l-3.24 3.24zm-.936-2.922l2.434-2.45a.903.903 0 0 0 0-1.271l-3.392-3.414a.887.887 0 0 0-1.264 0l-3.392 3.414a.903.903 0 0 0 0 1.272l2.382 2.397l.362-1.202a2.285 2.285 0 1 1 2.486.05z" clip-rule="evenodd"/><defs><linearGradient id="tokenBrandedSkey0" x1="12" x2="12" y1="2.857" y2="21.26" gradientUnits="userSpaceOnUse"><stop stop-color="#530491"/><stop offset="1" stop-color="#03F3FB"/></linearGradient></defs></g></svg>