<svg xmlns="http://www.w3.org/2000/svg" xmlns:xlink="http://www.w3.org/1999/xlink" width="24" height="24" viewBox="0 0 24 24"><g fill="none"><path fill="url(#tokenBrandedSlg0)" d="m2.588 17.806l2.942-5.47l6.529 2.87l6.412-2.87l2.94 5.47L12.06 22z"/><path fill="url(#tokenBrandedSlg1)" fill-rule="evenodd" d="M11.989 15.594C9.866 14.517 5.6 12.359 5.53 12.335l6.459-3.212l6.482 3.212zm0-1.018c-1.453-.735-4.376-2.218-4.43-2.235l4.43-2.2l4.453 2.206l-4.453 2.235zm-2.047-1.694l2.059.882l2.059-.888L12 12l-2.058.876z" clip-rule="evenodd"/><path fill="url(#tokenBrandedSlg2)" d="m12 11.412l-4.706-2.07L12 2z"/><path fill="url(#tokenBrandedSlg3)" d="m12 11.412l4.706-2.07L12 2z"/><defs><linearGradient id="tokenBrandedSlg0" x1="11.812" x2="11.812" y1="21.206" y2="13.906" gradientUnits="userSpaceOnUse"><stop offset=".59" stop-color="#A9CFD8"/><stop offset="1" stop-color="#CFE6EE"/></linearGradient><linearGradient id="tokenBrandedSlg1" x1="12.001" x2="12.001" y1="9.123" y2="15.594" gradientUnits="userSpaceOnUse"><stop offset=".57" stop-color="#D7FDFF"/><stop offset="1" stop-color="#DAFBFF"/></linearGradient><linearGradient id="tokenBrandedSlg2" x1="8.217" x2="11.582" y1="9.77" y2="3.576" gradientUnits="userSpaceOnUse"><stop offset=".46" stop-color="#70B8C7"/><stop offset="1" stop-color="#D8F3FC"/></linearGradient><linearGradient id="tokenBrandedSlg3" x1="15.783" x2="12.418" y1="9.77" y2="3.576" gradientUnits="userSpaceOnUse"><stop offset=".26" stop-color="#96CEDF"/><stop offset="1" stop-color="#D8F3FC"/></linearGradient></defs></g></svg>