<svg xmlns="http://www.w3.org/2000/svg" xmlns:xlink="http://www.w3.org/1999/xlink" width="24" height="24" viewBox="0 0 24 24"><g fill="none"><path fill="url(#tokenBrandedSlim0)" d="m11.99 9.4l1.636-1.621l-1.647-1.621l-1.653 1.632l8.516 8.42L12.895 22H11.01l-5.852-5.79l4.205-4.173l2.537 2.516l-1.742 1.658L12 17.79l1.579-1.58l-1.68-1.657l-2.53-2.516l-4.211-4.248L11.01 2h1.885l5.947 5.79l-4.21 4.242z"/><path fill="url(#tokenBrandedSlim1)" d="m11.01 2l5.938 5.79h1.894L12.895 2z"/><path fill="url(#tokenBrandedSlim2)" d="M18.842 7.79h-1.89l-3.33 3.236l1.01 1.006z"/><path fill="url(#tokenBrandedSlim3)" d="m13.336 18.921l2.874-2.71h2.631L12.894 22l-5.716-5.79h3.242z"/><path fill="url(#tokenBrandedSlim4)" d="m7.178 16.21l3.2-3.157l1.521 1.5l-1.479 1.658z"/><path fill="url(#tokenBrandedSlim5)" d="m7.926 7.79l8.285 8.42h2.631L11.99 9.4c-.485-.484-1.516-1.61-1.516-1.61z"/><path fill="url(#tokenBrandedSlim6)" d="m14.632 12.032l1.874-1.874l-2.963-2.316L11.99 9.4z"/><path fill="url(#tokenBrandedSlim7)" d="m9.363 12.037l-3.006 3l4.064 1.174l1.479-1.658z"/><path fill="url(#tokenBrandedSlim8)" d="m10.821 5.047l1.158 1.11l-1.51 1.632H7.932z"/><defs><linearGradient id="tokenBrandedSlim0" x1="10.184" x2="16.989" y1="19.568" y2="8.3" gradientUnits="userSpaceOnUse"><stop stop-color="#C20FF6"/><stop offset=".49" stop-color="#749CCE"/><stop offset="1" stop-color="#47C1C1"/></linearGradient><linearGradient id="tokenBrandedSlim1" x1="7.742" x2="24.132" y1="3.909" y2="13.575" gradientUnits="userSpaceOnUse"><stop stop-color="#4AF3FF"/><stop offset="1" stop-color="#087792"/></linearGradient><linearGradient id="tokenBrandedSlim2" x1="20.622" x2="5.491" y1="5.573" y2="13.058" gradientUnits="userSpaceOnUse"><stop stop-color="#004957"/><stop offset="1" stop-color="#7A97D0"/></linearGradient><linearGradient id="tokenBrandedSlim3" x1="6.732" x2="15.181" y1="8.582" y2="10.786" gradientUnits="userSpaceOnUse"><stop stop-color="#D29BFF"/><stop offset="1" stop-color="#B661E2"/></linearGradient><linearGradient id="tokenBrandedSlim4" x1="12.037" x2="12.037" y1="1.833" y2="21.5" gradientUnits="userSpaceOnUse"><stop stop-color="#7599CE"/><stop offset="1" stop-color="#69039C"/></linearGradient><linearGradient id="tokenBrandedSlim5" x1="7.817" x2="22.01" y1="6.2" y2="12.878" gradientUnits="userSpaceOnUse"><stop stop-color="#1EB8F1"/><stop offset="1" stop-color="#9F76DB"/></linearGradient><linearGradient id="tokenBrandedSlim6" x1="12.639" x2="2.47" y1="9.99" y2="18.035" gradientUnits="userSpaceOnUse"><stop stop-color="#313131" stop-opacity="0"/><stop offset="1"/></linearGradient><linearGradient id="tokenBrandedSlim7" x1="11.694" x2="20.686" y1="12.946" y2="8.205" gradientUnits="userSpaceOnUse"><stop stop-color="#313131" stop-opacity="0"/><stop offset="1"/></linearGradient><linearGradient id="tokenBrandedSlim8" x1="11.606" x2="10.6" y1="5.774" y2="7.505" gradientUnits="userSpaceOnUse"><stop stop-color="#4ADAE8"/><stop offset="1" stop-color="#5E92C9"/></linearGradient></defs></g></svg>