<svg xmlns="http://www.w3.org/2000/svg" xmlns:xlink="http://www.w3.org/1999/xlink" width="24" height="24" viewBox="0 0 24 24"><g fill="none"><path fill="url(#tokenBrandedSnail0)" d="M10.52 5.96c-1.618 0-6.076 3.884-8.102 5.826c-.542 1.458.677 2.064 1.355 2.187c3.032 0 8.096-6.555 8.096-7.284c0-.58-.903-.729-1.348-.729"/><path fill="url(#tokenBrandedSnail1)" d="M8.495 5.96c-2.967.297-4.838 2.548-5.4 3.645c1.684.362 2.362-.367 3.375-1.458c.812-.87 3.715-1.58 5.064-1.819a13.5 13.5 0 0 0-3.039-.368"/><path fill="#D2ADFD" d="M4.78 10.334c-1.35 0-1.685-.49-1.685-.729H4.45c.671 0 1.755-1.335 2.355-1.819c1.355-1.097 3.039-1.458 4.729-1.458c-1.69 1.335-5.4 4-6.755 4z"/><path fill="url(#tokenBrandedSnail2)" d="M3.766 13.244c-1.348 0-1.458-.968-1.348-1.458c-.149.535-.407 1.497-.336 2.187c.084.89.626 1.458 1.684 1.458c2.368 0 9.142-5.368 10.49-5.368c1.077 0 1.213.387 1.329.633c-.226-.852-1.013-2.549-2.361-2.549c-1.69 0-7.768 5.097-9.458 5.097"/><path fill="url(#tokenBrandedSnail3)" d="M14.572 11.786c-4.322 1.168-8.103 5.587-9.451 7.651a6.7 6.7 0 0 0 2.026.361c3.032 0 8.773-4.735 8.773-6.554c0-1.458-.903-1.574-1.354-1.458z"/><path fill="url(#tokenBrandedSnail4)" d="M3.766 19.437c-.806 0-1.232 1.213-1.348 1.82c0 .728 3.038.36 3.374 0c.342-.368-1.013-1.82-2.026-1.82"/><path fill="url(#tokenBrandedSnail5)" d="M14.237 9.967c-3.53.096-8.774 5.464-10.47 5.464c-.672 0-1.35-.73-1.685-1.458c-.335 1.458.336 2.916 2.362 2.916c2.025 0 6.412-2.555 8.773-4.006c1.897-1.162 2.594-.73 2.71-.368l-.342-1.82c-.336-.728-.677-.748-1.355-.728z"/><path fill="url(#tokenBrandedSnail6)" d="M5.27 19.52c.303.13 1.051.278 2.554.278c2.374 0 5.078-1.096 7.11-3.277c2.032-2.187 3.722-6.916 5.754-6.916c2.033 0 2.033 6.194-2.367 9.464c-1.697 1.458-4.671 2.187-7.11 2.187c-2.322 0-4.838-1.103-5.935-1.735z"/><path fill="url(#tokenBrandedSnail7)" d="M14.675 6.257c-.993-.58-.832-1.226-.62-1.47c.62-.736 2.485 0 3.42 1.838c.93 1.838.31 4.045-.316 4.413c-.62.367-1.239-4.046-2.484-4.775z"/><path fill="url(#tokenBrandedSnail8)" d="M16.701 4.076c-.993-.593-.832-1.225-.62-1.47c.62-.736 2.485 0 3.42 1.838c.929 1.839.31 4.045-.316 4.413c-.62.368-1.239-4.045-2.484-4.78"/><defs><linearGradient id="tokenBrandedSnail0" x1="20.6" x2=".984" y1="3.212" y2="15.639" gradientUnits="userSpaceOnUse"><stop stop-color="#3F12B7"/><stop offset="1" stop-color="#2F0FD2"/></linearGradient><linearGradient id="tokenBrandedSnail1" x1="12" x2="9.79" y1="2.324" y2="15.218" gradientUnits="userSpaceOnUse"><stop stop-color="#C28EFA"/><stop offset="1" stop-color="#E6C2FF"/></linearGradient><linearGradient id="tokenBrandedSnail2" x1="19.002" x2="-.407" y1="3.284" y2="8.922" gradientUnits="userSpaceOnUse"><stop stop-color="#87CAFF"/><stop offset="1" stop-color="#5E7EF5"/></linearGradient><linearGradient id="tokenBrandedSnail3" x1="20.59" x2=".974" y1="3.212" y2="15.64" gradientUnits="userSpaceOnUse"><stop stop-color="#004F9E"/><stop offset="1" stop-color="#02628A"/></linearGradient><linearGradient id="tokenBrandedSnail4" x1="20.593" x2=".977" y1="3.16" y2="15.617" gradientUnits="userSpaceOnUse"><stop stop-color="#49D2E5"/><stop offset="1" stop-color="#58FCCC"/></linearGradient><linearGradient id="tokenBrandedSnail5" x1="20.536" x2="1.488" y1="3.363" y2="8.464" gradientUnits="userSpaceOnUse"><stop stop-color="#BBE9F9"/><stop offset="1" stop-color="#607EFF"/></linearGradient><linearGradient id="tokenBrandedSnail6" x1="20.432" x2="2.379" y1="4.135" y2="13.797" gradientUnits="userSpaceOnUse"><stop stop-color="#D2FCD2"/><stop offset="1" stop-color="#53DBED"/></linearGradient><linearGradient id="tokenBrandedSnail7" x1="5.846" x2="13.819" y1="3.156" y2="21.918" gradientUnits="userSpaceOnUse"><stop stop-color="#C4F4E4"/><stop offset="1" stop-color="#84FFBB"/></linearGradient><linearGradient id="tokenBrandedSnail8" x1="16.701" x2="20.242" y1="2.606" y2="7.592" gradientUnits="userSpaceOnUse"><stop stop-color="#C4F4E4"/><stop offset="1" stop-color="#84FFBB"/></linearGradient></defs></g></svg>