<svg xmlns="http://www.w3.org/2000/svg" xmlns:xlink="http://www.w3.org/1999/xlink" width="24" height="24" viewBox="0 0 24 24"><g fill="none"><path fill="#83D3E3" d="M4.812 6.358V3.19L4.53 5.152l-.656 1.737c-.238.612-.706 1.968-.713 2.518c-.012.687.475 1.5.663 1.856c.187.356.937 1.087 1.037 1.687c.1.593-.475.93-.656 1.124c-.188.188-.906.394-1.587.762c-.688.37-.644.825-.45 1.425c.15.481.918 1.444 1.287 1.868l1.13.063c-.08-.006-.33-.15-.655-.587c-.419-.55-.562-.775-.475-1.594c.063-.656 1.087-1.524 1.593-1.874c.313-.25.969-.769 1.125-.875c.2-.125.2-.419.156-.581c-.037-.125-.462-.456-.675-.606L4.65 11.15a7 7 0 0 1-.5-.837a1 1 0 0 1-.087-.669l.194-.487c.069-.212.25-.793.38-1.437a7.7 7.7 0 0 0 .176-1.362"/><path fill="#235863" d="M4.83 3.628c-.018.193 0-.313-.112.768a11 11 0 0 1-.793 2.543a25 25 0 0 0-.475 1.337c-.12.364-.19.742-.206 1.125c0 .624.268 1.212.6 1.75c.162.262.337.505.5.736h.005c.163.232.313.438.42.625c.224.394.155.775-.045 1.088c-.2.312-.53.562-.83.705a4 4 0 0 1-.426.182l-.112.043a5 5 0 0 0-.587.27c-.375.211-.656.486-.65.911c0 .175.062.375.162.6c.1.219.232.45.388.681q.407.605.906 1.137l-.075.075a9 9 0 0 1-.919-1.155a5 5 0 0 1-.393-.7a1.7 1.7 0 0 1-.17-.638c-.005-.48.313-.787.7-1q.345-.186.713-.318l.419-.175c.287-.144.6-.381.787-.675c.187-.287.25-.625.044-.974c-.107-.188-.25-.388-.419-.625a12 12 0 0 1-.506-.75a3.5 3.5 0 0 1-.612-1.8c0-.324.087-.718.212-1.143c.125-.431.3-.887.475-1.35l.075-.187c.323-.746.562-1.525.712-2.324l.213-1.925v1.169zM4.457 8.47c.162-.569.318-1.85.375-2.418v.75c-.057.562-.113 1.118-.282 1.699c-.08.281-.18.5-.262.687l-.063.17c-.093.224-.15.405-.124.605c.025.206.124.456.28.706c.144.25.338.5.538.7q.387.366.812.687q.27.216.525.45l.088.112c.068.125.1.27.043.432c-.062.162-.2.33-.462.512l-.038.025c-.274.194-.862.6-1.393 1.106a4.6 4.6 0 0 0-.718.85c-.188.3-.313.6-.307.887c.007.468.22.862.482 1.162c.268.3.587.506.793.606l-.037.087a2.6 2.6 0 0 1-.831-.624a1.88 1.88 0 0 1-.5-1.231c-.007-.312.118-.637.312-.937c.188-.313.456-.606.737-.875a11.6 11.6 0 0 1 1.406-1.112l.038-.025c.25-.181.375-.331.425-.469a.41.41 0 0 0-.107-.437q-.296-.27-.612-.519a9 9 0 0 1-.725-.612a3.7 3.7 0 0 1-.562-.719A2.1 2.1 0 0 1 4 9.975c-.032-.224.03-.43.125-.656l.074-.168c.075-.188.17-.406.25-.681z"/><path fill="url(#tokenBrandedSnek0)" d="M13.36 6.164a12.5 12.5 0 0 0-3.162 2.037l2.286.131c.663-.125 2.075-.375 2.45-.375c.462 0 1.387.094 1.75.613c.286.406.311 1.524.28 2.03l5.03-2.974V2.178a1467 1467 0 0 1-8.622 3.986z"/><path fill="url(#tokenBrandedSnek1)" d="M11.228 8.264a21 21 0 0 0-2.312-.269c-.468-.038-1.243.306-1.568.481l-.85.737l-.124.95l.212 1.8l1.218 1.518l.638.874c.368.3 1.25.956 1.85 1.125c.749.213 1.28-.031 2.717-.48a3.87 3.87 0 0 0 2.255-2.075c.126-.288 1.025-1.125 1.456-1.5c.094-.3.25-1.125.132-2.062c-.113-.924-.925-1.3-1.312-1.374l-1.481.187c-.569.094-1.937.25-2.83.088"/><path fill="#150E73" fill-rule="evenodd" d="m10.697 8.126l-.487-.35l.063-.081l.524.387v.157l.581.218l.27-.162l.055.081l-.287.175v.125l.593.269l.681-.419l-.55-.206l.032-.094l.625.237l.437-.268l.063.087l-.475.281v.113l.6.269v.043l.63-.38l-.568-.257v-.237h.1v.168l.575.263l.73-.438V8.07h.057l.156-.094l.05.088l-.162.093v.082l.493.224l.607-.374l.056.08l-.563.344v.188l.563.25l.375-.219l.05.088l-.35.212v.112l.674.282v.187h-.1v-.081l-.737.45v.112l.456.25l.225-.137l.05.087l-.175.113l.063.037v.138h-.1v-.075l-.063-.038l-.593.375v.1l.656.331v.2h-.1v-.05q-.246.162-.5.313c-.013 0-.013.006-.019.012l.063.062c.05.063.106.126.137.175l.025.038l-.78.662l-.438-.43l-.488.58l.513.375l-.975.575h.65l-.437.643l-.769-.13l-.312.686l-.606-.393l-.575.762l-.95-.481l-.525.487l-.75-.575l-.28.288l-.07-.069l.5-.518l.363-.231l.019-.17l-.457-.293l-.48.294l-.582.475l-.062-.075l.58-.488l.45-.268l-.074-.05l.006-.113l-.375-.268l-.4.237l-.05-.088l.356-.218l-.118-.081l.012-.132l-.344-.262q-.457.283-.918.562l-.013.007l-.03-.094l.012-.013q.12-.07.237-.143c.156-.088.369-.219.625-.382l-.106-.08l.019-.15l-.35-.188q-.411.255-.819.518v-.006l.013-.025h-.1v-.025l.03-.031l.05-.031l.726-.456l-.2-.106l.012-.17l-.325-.187l-.768.469l-.05-.088l.718-.437l-.175-.1l.02-.2l-.288-.168l-.438.268l-.062-.087l.4-.244l-.188-.106l.025-.207l-.33-.162l-.07.037l-.05-.087h.013l-.125-.062l.044-.094l.187.087l.438-.25v-.012l-.488-.356l.063-.081l.524.387l.707-.406l-.544-.206v-.182l-.038-.024l-.73.406l-.05-.094l.687-.375l-.356-.269l.062-.08l.394.293l.65-.363l-.475-.35l.062-.08l.512.374l.7-.387l-.456-.338l.063-.08l.493.368l.95-.531l.05.087l-.138.081l.45.325v.094l.625-.369l.05.088l-.625.368l.563.207v.112l.668-.406l-.575-.219zm-.812.456v-.1l-.437-.325l-.738.406v.088l.619.231v.031l.562-.33zm-.562.444l.606-.35l.575.219v.1l-.588.362l-.587-.269v-.062zm-.1-.056v-.02l-.613-.23v-.1l-.718.4v.062l.619.225v.081zm-.712.53l.712-.412v.063l.587.268l-.706.438v-.075l-.593-.269zm-.107-.055v-.063l-.612-.238v-.068l-.575.312l.044.031v.163l.556.206zm-.525.424l.525-.312v.019l.6.275v.062l-.575.356l-.55-.25zm-.1.063l-.78.443v.038l.618.231v.113l.706-.438l-.544-.244v-.15zm-.88.506l-.332.194l.332.168l-.02.207l.176.106l.456-.288v-.106l-.612-.225zm3.73-1.4l.687-.425v.125l.587.27l-.7.43v-.137zm.63.481l.65-.393v.081l.625.281v.031l-.687.419h-.012v-.169zm.707.469l.575-.35v.013l.618.25l-.65.4v-.088zm.675-.406l.624.25l.613-.375l-.563-.25V9.17zm-.088.812l.662-.406v.088l.563.337l-.694.425v-.125l-.531-.312zm.769-.375l.556.331l.712-.437l-.644-.262v-.125c-.206.137-.412.262-.624.393zm-.138.875l.6-.369v.02l.6.337l-.681.412v-.106zm.706-.406l.594.331l.687-.419l-.544-.325v-.062l-.737.45zm-.081.862l.6-.362v.019l.58.293l-.624.394v-.063zm.7-.406l.58.294l.632-.394l-.525-.3v-.037l-.687.418zm.562.562v-.13l-.694.436l.313.126l-.044.1l-.375-.163l-.512.319v.15l.618.306v.162l.557-.662l.006-.006q.432-.23.875-.438l.024-.006l.02-.012a4 4 0 0 0 .58-.363l-.624-.312v-.107l-.644.407v.137l.319.138l-.038.093l-.387-.162zm-.812.25l-.6.375l-.581-.275v-.062l.631-.381l.55.274zm-1.281.163l.575.275l-.638.4l-.637-.307l.7-.43zm-.806.437l.643.3l-.624.394l-.563-.263v-.106l.544-.331zm.668.406l-.55.344h.02v.162l.618.3l.525-.33v-.107l-.612-.306zm-1.312.088l.556.262l-.712.45v-.106l-.556-.275l.712-.438zm.663.312l-.775.487l.631.3v.156l.012.007l.763-.475l-.613-.312v-.15l-.018-.007zm-.925.356v.106l-.906.563l.019-.156l-.469-.3l.806-.488zm.05.194l-.875.544l.537.33l-.056.088l-.575-.356l-.393.25l-.144.144l.675.512l.5-.462h.012l.02-.013l.08-.044q.44-.25.863-.53h-.013v-.163l-.625-.3zm.106.918l.644-.4l.525.257l.043-.088l-.468-.23l.13-.082l.532-.331v.043l.362.257l.063-.082l-.325-.23v-.05l.575-.37l.318.232l.063-.088l-.287-.2l.674-.437v.012h.075l-.012.013l.475.35l-1.175.68h.837l-.287.432l-.787-.131l-.294.65l-.588-.375l-.58.768l-.813-.418l.025-.02zm2.137-1.562v.1l.712-.45v.007v-.019l-.612-.312v-.144l-.719.45v.062zm-2.95.12l-.793.486l-.062-.043l.006-.113l-.393-.28l.73-.445l.513.288zm-.611-.457l-.719.444l-.106-.075l.012-.132l-.356-.268l.656-.4l.5.3v.125zm-.582-.512l-.674.418l-.094-.069l.019-.168l-.356-.188l.55-.33l.562.224v.113zm-.674-.388l-.531.325l-.194-.1l.012-.168l-.33-.188l.462-.287l.58.25zm-.631-.506l-.513.313l-.168-.094l.018-.2l-.293-.175l.38-.237l.576.262zm.1-.2l-.569-.256l.731-.45v.125l.587.262l-.75.457zm.262-.643v-.125l.531-.325v.012l.625.281v.07l-.562.35zm.631-.5v-.013l.719-.437v.087l.624.275l-.712.438v-.075l-.625-.275zm.819-.431v-.082l.6-.374l.58.268v.131l-.55.338l-.624-.281zm.624.4l.606-.37l.582.25v.17h.006l-.512.312v-.044l-.675-.275v-.043zm.688.48l.625-.374l.55.218v.094l-.626.388zm.562.438l.662-.412l.519.312v.125h.006l-.562.35l-.625-.35v-.031zm.631.487l.656-.4l.519.294v.106l-.531.325zm-.1.063l.644.325l-.706.437v-.062l-.588-.3zm-.169.756v.062l-.574.357l-.613-.313v-.025l.606-.375zm-1.287.175l.613.306l-.775.468v-.106l-.513-.287l.675-.412zm-.03-.131l-.744.456l-.007-.007v-.124l-.512-.307l.668-.412v.063zm-.638-.488l-.688.425v-.119l-.55-.225l.713-.437v.044zm-.531-.468l-.825.5h-.006V11.6l-.575-.25l.737-.45v.088zm-.563-.338v-.087l.55-.344l.65.269v.112l-.062.044l-.47.281l-.674-.275zm1.3-.23l-.644-.263l.688-.419v.044l.675.28v.038l-.72.438zm.062.199l.663-.4l.55.325c-.238.144-.475.287-.7.437v-.062zm.55.45l.675-.419v.031l.625.35l-.719.438v-.069zm.481.387v.081l-.562.344l-.587-.331v-.062l.568-.357zm-.624-.418l-.575.356l-.519-.313v-.043l.512-.313l.082-.05l.5.3zm5.535-.9l-.593.368l-.525-.293v-.044l.656-.4v.106zm-.543-.438l-.6.37l-.544-.326v-.068l.656-.407v.138zm-.594-.487l-.575.356l-.65-.262v-.113l.625-.387l.032.013v.162zm-.712-.456l-.581.356l-.562-.25v-.031l.656-.394v.1zm-.387-.281v-.1l.712-.431v.087l.487.219l-.706.437zm.606.262l.7-.437v.194l.562.25l-.656.406l-.581-.238v-.162zm.706.469l.624-.387v.125l.6.237l-.75.456l-.474-.287zm-2.85-.019l.682-.412v-.038l-.6-.275v-.112l-.713.437v.081l.631.275zm3.2 2.33l-.025.007l-.082.037l-.237.113l-.45.244l.362.356l.638-.544a1.6 1.6 0 0 0-.169-.194a.1.1 0 0 0-.038-.018" clip-rule="evenodd"/><path fill="#0032A7" d="M3.537 18.26c.831-.043 1.225.2 1.312.325c.275.125.244.42.188.556a10 10 0 0 0-.07.682c.007.056.095.1.363.15c.219.037.55-.238.688-.375c.5.043.843.724.955 1.062l-.162.437a4.2 4.2 0 0 1-1.537.756c-.625.081-1.28.106-1.8-.231a3.5 3.5 0 0 1-.937-1.187a4 4 0 0 0-.2-.512c-.1-.207-.156-.5-.168-.613c.112-.33.537-1 1.374-1.05z"/><path fill="#002786" d="M4.624 21.466a4.8 4.8 0 0 1-1.83-.331c1.686 1.58 4.298.218 4.31-.332c.02-.443-.412-.868-.624-1.024c.044.412-.306.73-.438.868c-.143.138-.293.819-1.418.819"/><path fill="#000" d="M9.023 11.375c-.281.281-1.019.163-1.512-.331s-.563-1.175-.275-1.456c.281-.28 1.018-.206 1.512.288c.493.493.562 1.218.275 1.5"/><path fill="#2F028A" d="m8.848 10.813l-1.362-.875c.05-.125.25-.337.668-.125c.419.219.638.75.688 1z"/><path fill="#AB0D00" d="m8.854 11.125l-1.225-.675c-.012.075.038.294.369.582a.76.76 0 0 0 .856.093"/><path fill="#D39338" d="M8.167 11.094a.162.162 0 1 0 0-.325a.162.162 0 0 0 0 .325"/><path fill="#000" d="M14.021 11.063c.281.287 1.019.168 1.512-.325c.5-.5.563-1.175.282-1.456c-.282-.281-1.019-.212-1.513.281c-.5.5-.562 1.225-.28 1.5"/><path fill="#2F028A" d="m14.203 10.5l1.362-.874c-.05-.125-.25-.331-.675-.119c-.418.212-.631.75-.687.993"/><path fill="#AB0D00" d="m14.19 10.813l1.225-.669c.018.075-.032.294-.363.575a.74.74 0 0 1-.862.094"/><path fill="#D39338" d="M14.883 10.788a.163.163 0 1 1 0-.325a.163.163 0 0 1 0 .325"/><path fill="#1C1C1C" d="m9.004 13.806l-.193-.475c-.413.38-1.344 1.218-1.781 1.487c-.538.344-.787 1.35-.687 2.593a4.7 4.7 0 0 1-.307 2.155L7.15 20.66l.118-.1l.25-1.656c-.125-.437-.387-1.424-.375-1.824a6 6 0 0 1 .375-1.712c.163-.419 1.062-1.212 1.487-1.562"/><path fill="url(#tokenBrandedSnek2)" fill-rule="evenodd" d="M21.994 2.684h-.013l-.718-.062l.025-.038l-.075-.062l-.075.087l-.35-.031l-.013.106l.288.025l-.406.519a11 11 0 0 0-.638-.025l.163-.207l-.075-.062l-.219.262h-.375v.1h.294l-.5.625l-.73-.006l.405-.519l-.081-.062l-.45.58h-.456v.107h.375l-.381.494a27 27 0 0 0-.775-.013l.231-.3l-.075-.062l-.287.362c-.256 0-.469.019-.612.044l.018.1q.186-.028.513-.038l-.488.613l-.7-.025l.27-.356l-.082-.063l-.312.413l-.35-.013v.1l.274.013l-.412.543l-.681-.025l.15-.2l-.081-.062l-.188.262h-.374v.106l.293-.006l-.481.65l-.787-.013l.187-.25l-.075-.062l-.237.312h-.437v.1h.362l-.344.45h-.85v.106h.775l-.437.563l-.731-.025l.362-.563l-.087-.05l-.394.613l-.45-.013v.1l.388.013l-.213.318l.088.063l.243-.375l.725.012l-.312.407l.087.062l.35-.462l.794.018l-.338.45l.082.063l.374-.506l.681.018l-.187.25l.081.063l.231-.313l.6.02l.075.062l.05-.063l.231.006v-.1h-.15l.413-.524l.78.062l-.374.481l.081.063l.412-.538l.563.05l-.45.563l.075.062l.5-.612l.73.062l-.5.644a11 11 0 0 0-.436-.006v.1h.356l-.125.162l.08.063l.17-.213l.78.056q-.248.315-.5.625l-.262-.031l-.018.1l.206.025q-.067.08-.138.156l.063.081q.098-.107.194-.218c.237.037.512.075.787.125l-.956 1.3l.081.062l.987-1.35l.894.15l-.05.056l.05.094q.058-.06.112-.125l.263.044l.018-.1l-.212-.038q.247-.326.481-.662c.269.056.5.1.668.144l.026-.1l-.625-.131l.48-.688l.744.1l-.037.056q-.081.134-.156.27l.1.024l.006-.012l.031-.05q.082-.14.169-.275l.506.075l.019-.1l-.469-.063q.195-.303.394-.606l.506.081v-.1l-.45-.075l.406-.624l.044.006v-.25l-.094.144l-.687-.075l.475-.688q.156.029.312.063v-.113a5 5 0 0 0-.25-.037L22 5.22v-.175c-.119.156-.237.331-.362.512a16 16 0 0 0-.825-.087l.494-.669l.687.056v-.106l-.619-.044l.413-.562l.206.031V4.07l-.138-.019l.138-.187V3.72l-.013-.006l-.237.325a9 9 0 0 0-.631-.063l.437-.568q.246.029.444.075v-.1a5 5 0 0 0-.375-.069l.375-.487zm-4.286 5.53a11 11 0 0 0-.781-.063l.5-.63l.762.074zm.556-.713l-.763-.075l.444-.574l.775.062zm.53-.68a59 59 0 0 0-.774-.063l.45-.575l.762.069l-.331.437zm-.893-.076l.45-.575l-.625-.05l-.075-.006l-.474.588zm1.406-.587l-.762-.069l.5-.643q.387.023.774.05zm-.88-.081l.499-.638l-.693-.037l-.5.612l.687.063zm.874-.719l-.175-.006l.512-.662l.762.05l-.505.656l-.588-.038zM19 5.34l.518-.657q-.337-.02-.674-.037l-.531.656zm1.474-.7l-.755-.05l.43-.55q.382.011.763.031zm-.88-.057l.43-.55l-.674-.012l-.425.525l.081.006zm.7-.643h-.063l.475-.606q.363.024.724.062l-.437.575zm-.188 0l.475-.619l-.644-.018l-.5.618l.663.013zm.762-.7l-.087-.006l.406-.519l.718.063l-.4.525a12 12 0 0 0-.637-.063m-2.374.775h.725l-.425.531a47 47 0 0 0-.688-.031l.394-.5zm-.463.6l.688.025l-.537.656l-.65-.031zm-.574.75l.65.03l-.5.613l-.613-.05zm-.538.687l.613.05l-.481.587l-.6-.031zm-.543.7l.6.037l-.438.544l-.575-.05zm1 .662l-.719-.069l.437-.55l.731.05l-.443.563zm-1.125-.669l-.406.525l-.781-.062l.4-.5zm-.912-.037l-.394.5l-.612-.044l.362-.481zm-.769-.031l-.362.48l-.669-.03l.35-.47zm-.437.58l-.669-.037l-.425.569l.681.019zm-.375-.6l-.344.463l-.78-.025l.343-.45l.787.013zm-.419.563l-.78-.025l-.438.569l.8.018zm.919.044l-.413.543l.606.02l.413-.526zm.387-.687c-.237 0-.469-.013-.687-.02l.493-.649c.194 0 .425.013.681.025zm.125.006l.481-.644l.662.038l-.5.625c-.218 0-.437-.013-.643-.02m.768.031l.5-.625l.763.05l-.475.613zm.575-.725l.763.063l.456-.594l-.769-.037zm1.793-1.28l-.5.65l-.768-.032l.494-.625q.387-.006.774.006M15.99 5.882l.45-.562l-.7-.031l-.412.55zm4.61-1.236l.438-.562q.32.018.637.05l-.419.562zm-.075.1l.663.044l-.494.668l-.68-.05zm-.587.756l.688.056l-.5.681l-.7-.062zm-.587.762l.7.069l-.419.569l-.719-.07l.063-.087zm.812.081l-.412.569c.293.031.587.063.874.106l.407-.587l-.863-.088zm-1.324.582l.724.068l-.437.606l-.75-.087zm.843.08l-.444.607l.894.106l.019-.025l.406-.581zm-1.375.6l.744.088l-.462.625l-.763-.094zm.863.1l-.469.632l.887.15l.475-.675zm-1.419.613c.263.025.519.062.769.094l-.488.662l-.787-.125l.375-.469zm.881.112l-.487.663l.893.15q.248-.327.482-.663a16 16 0 0 0-.888-.15m2.356-.6l-.744-.093l.425-.613l.706.1zm.45-.7l-.7-.1l.406-.587l.687.075zm-1.2-.88l.862.087l.475-.687a16 16 0 0 0-.83-.088l-.5.688z" clip-rule="evenodd"/><path fill="#000" fill-rule="evenodd" d="M15.877 4.69a129 129 0 0 1 6.117-2.687v.437a128 128 0 0 0-5.936 2.625A45 45 0 0 0 10.56 8.02l.112.031l.05.013c.413.1.781.187 1.25.187c.481 0 1.093-.1 1.712-.206h.031c.6-.106 1.212-.206 1.693-.206c.519 0 .956.2 1.263.6c.373.553.532 1.224.45 1.886q.627-.381 1.262-.755l1.23-.732c.95-.574 1.875-1.112 2.381-1.35v.45c-.506.257-1.312.725-2.168 1.25l-1.225.725c-.587.35-1.15.681-1.55.931a2.82 2.82 0 0 1-1.374 1.843c-.125.075-.231.194-.343.35c-.107.156-.207.338-.313.525l-.019.038c-.1.175-.193.356-.3.512c-.118.175-.25.33-.406.444c-.293.206-.83.48-1.437.706c-.606.224-1.306.406-1.905.406c-.607 0-1.2-.22-1.656-.469a4 4 0 0 1-.769-.556a1 1 0 0 1-.093-.113a9 9 0 0 0-.438.463a2.8 2.8 0 0 0-.487.8c-.125.33-.206.75-.206 1.324c0 .281.018.475.05.613c.025.143.062.243.106.35c.044.112.094.23.125.393c.037.169.062.375.062.675c0 .6-.15 1.312-.6 1.874c-.462.575-1.224.975-2.405.975c-.956 0-1.562-.312-1.906-.737a1.8 1.8 0 0 1-.425-1.156a1 1 0 0 1-.156-.163a.6.6 0 0 1-.156-.375c0-.15.025-.343.15-.562c.131-.212.356-.437.743-.65c.781-.424 1.488-.325 1.987.013c.225.143.319.35.35.543a.9.9 0 0 1-.043.469a1.3 1.3 0 0 0-.044.269c0 .106.006.187.025.218h.037a.6.6 0 0 0 .219-.056c.187-.075.4-.231.562-.437q.103-.123.15-.375a3 3 0 0 0 .044-.544l-.019-.612v-.038a9 9 0 0 1-.025-.556v-.2a3.8 3.8 0 0 1 .113-1.224c.175-.575.575-1.175 1.456-1.706h.006v-.006h.006l.025-.019a2 2 0 0 0 .212-.187a5 5 0 0 1-.356-.525a1.6 1.6 0 0 0-.187-.231l-.306-.325l-.013-.019l-.3-.312a2 2 0 0 1-.218-.282a4 4 0 0 1-.17-.556l-.087-.562q-.098-.482-.1-.975c0-.375.05-.787.244-1.062c.438-.65 1.45-1.218 2.693-1.218c.325 0 .606.025.862.068c1.275-.937 3.55-2.124 5.861-3.211zm.918 5.835l-.068.044l.056.081a2.5 2.5 0 0 1-1.262 1.781a1.5 1.5 0 0 0-.437.437c-.125.163-.225.363-.332.544l-.018.037a6 6 0 0 1-.288.5a1.3 1.3 0 0 1-.325.357c-.262.187-.774.45-1.374.668c-.588.219-1.244.387-1.793.387a3.6 3.6 0 0 1-2.206-.924a.4.4 0 0 1-.069-.088l-.125.063l.456-.438a2.73 2.73 0 0 0 2.081.956a4.7 4.7 0 0 0 2.718-.887c.062-.05.137-.137.2-.231l.212-.331c.144-.244.281-.506.375-.681v-.013l.006-.012a2 2 0 0 1 .2-.45c.107-.169.238-.319.388-.4c.559-.288.994-.77 1.224-1.356c.113.013.213-.025.256-.106c.076-.125 0-.294-.156-.381c-.156-.094-.337-.063-.406.05c-.05.087-.031.193.038.28a2.27 2.27 0 0 1-1.094 1.244c-.225.113-.393.313-.512.513a2.2 2.2 0 0 0-.225.506q-.255.494-.556.962a.8.8 0 0 1-.138.169a4.4 4.4 0 0 1-2.53.824a2.39 2.39 0 0 1-1.93-.968l-.27-.363c-.187-.387-.387-.55-.812-.874a3.8 3.8 0 0 1-.606-.625c.082-.087.107-.206.05-.294c-.062-.118-.25-.143-.406-.05c-.156.088-.225.263-.156.375c.044.082.137.125.244.113c.15.2.406.5.687.718c.387.294.544.425.681.688l-.387.356a5 5 0 0 1-.325-.469a1.5 1.5 0 0 0-.219-.293l-.312-.332l-.02-.012l-.293-.312a1.6 1.6 0 0 1-.181-.226a3.5 3.5 0 0 1-.131-.462c-.038-.2-.063-.412-.081-.543v-.013c-.05-.219-.1-.575-.107-.925c0-.368.063-.7.188-.893c.375-.55 1.287-1.087 2.45-1.087c.58 0 1.018.1 1.442.206l.063.012c.406.1.812.2 1.312.2c.512 0 1.15-.106 1.762-.212h.012c.619-.106 1.206-.206 1.662-.206c.438 0 .781.168 1.019.487c.25.319.393.812.393 1.5q.002.213-.025.4m-7.966 3.2c-.287.268-.775.737-1.062 1.068a3.1 3.1 0 0 0-.537.893c-.144.369-.232.825-.232 1.431c0 .3.025.506.063.675c.031.169.075.287.119.4c.043.106.08.206.112.343c.025.144.05.332.05.613c0 .556-.137 1.187-.531 1.687c-.394.487-1.062.856-2.168.856c-.887 0-1.393-.288-1.675-.625a1.5 1.5 0 0 1-.35-.987c.344.062.888.087 1.388-.113c.393-.162.668-.312.843-.43l-.006.093c-.006.125 0 .287.069.406c.03.05.075.081.118.1a.74.74 0 0 0 .638.319c.574 0 .487-.35-.038-.4c.206-.106.425-.275.594-.488c.112-.143.175-.318.212-.5c.038-.187.05-.4.05-.612a10 10 0 0 0-.025-.625v-.037l-.019-.544v-.225c-.012-.324-.025-.706.1-1.112a2.7 2.7 0 0 1 1.381-1.574l.094-.075q.375-.314.725-.656l.087.125zm-3.961 5.673l.025-.107v-.006l.006-.006a.7.7 0 0 0 .031-.325a.5.5 0 0 0-.062-.169a1.72 1.72 0 0 1-1.437.688a3.7 3.7 0 0 1-.931-.081a1 1 0 0 1-.163-.063a1 1 0 0 0-.03.237c0 .05.024.113.08.188l.163.144l.075.05v.03c.325.063.862.088 1.343-.105c.317-.123.62-.283.9-.475m-2.493-.169a.6.6 0 0 0 .15.062c.169.044.443.082.9.082c.762 0 1.2-.394 1.387-.675a.5.5 0 0 0-.1-.081c-.4-.269-.988-.369-1.675.006a1.56 1.56 0 0 0-.662.612zm.512-.3c-.156.231.481.181.644.169h.037c.375-.019.831-.325.869-.413c.031-.08-.119-.187-.5-.187c-.375 0-.875.169-1.05.431" clip-rule="evenodd"/><defs><linearGradient id="tokenBrandedSnek0" x1="11.428" x2="18.413" y1="9.909" y2="17.064" gradientUnits="userSpaceOnUse"><stop stop-color="#9D35B8"/><stop offset=".54" stop-color="#3B3299"/><stop offset="1" stop-color="#1A5994"/></linearGradient><linearGradient id="tokenBrandedSnek1" x1="12.001" x2="12.001" y1="2.003" y2="21.99" gradientUnits="userSpaceOnUse"><stop offset=".04" stop-color="#6C34AA"/><stop offset=".17" stop-color="#46319D"/><stop offset=".72" stop-color="#129BD2"/></linearGradient><linearGradient id="tokenBrandedSnek2" x1="11.431" x2="16.283" y1="7.898" y2="14.255" gradientUnits="userSpaceOnUse"><stop stop-color="#610C8B"/><stop offset="1" stop-color="#231C81"/></linearGradient></defs></g></svg>