<svg xmlns="http://www.w3.org/2000/svg" xmlns:xlink="http://www.w3.org/1999/xlink" width="24" height="24" viewBox="0 0 24 24"><g fill="#FFC908"><path d="m12 22l-.038-.005c-2.367-.617-6.448-2.66-6.448-5.536V5.995c0-.422.356-.757.794-.752h11.384c.433 0 .79.335.795.752v10.464c0 2.903-4.054 4.941-6.449 5.536zM6.054 5.784v10.594c0 2.638 3.8 4.53 5.946 5.098c.487-.12 5.946-1.968 5.946-5.087V5.784zm4.595-2.752h1.027L12 2l.324 1.032h1.027l-.832.638l.314 1.033L12 4.065l-.832.638l.313-1.033z"/><path d="m9.546 18.757l.172-.179l-.021-.037l-.027.032l-.016.016l-.017.011c-.005 0-.021-.01-.032-.033l-.01-.016l-.012-.016v-.708l-.021-.065a.14.14 0 0 0-.049-.049l-.027-.021l-.027-.016l-.162.162l.021.038l.055-.054l.016.01l.032.027l.016.081v.563a.15.15 0 0 1-.043.108zm.756-.292a.8.8 0 0 0 .076-.33a.43.43 0 0 0-.076-.27a.5.5 0 0 0-.232-.173a.75.75 0 0 0-.216.216a.4.4 0 0 0-.065.227a.3.3 0 0 0 .178.281l.287-.238v.054a.6.6 0 0 1-.108.39l-.217-.136l-.108.125l.254.146q.138-.122.227-.292m-.146-.524a.37.37 0 0 1 .087.2l-.135.108c0 .01-.011.016-.022.016h-.016a.16.16 0 0 1-.12-.07a.3.3 0 0 1-.053-.173a.22.22 0 0 1 .086-.195a.4.4 0 0 1 .173.108zm3.914.546a.8.8 0 0 0 .054-.298a.7.7 0 0 0-.054-.303a.6.6 0 0 0-.2-.21a.76.76 0 0 0-.249.567c0 .12.022.233.07.325a.37.37 0 0 0 .195.189a.9.9 0 0 0 .184-.27m-.097-.503c.048.075.07.173.07.27c0 .13-.022.254-.07.351a.31.31 0 0 1-.19-.173a.7.7 0 0 1-.075-.324a.47.47 0 0 1 .075-.281a.33.33 0 0 1 .19.157m.67.486a1 1 0 0 0 .054-.335a.5.5 0 0 0-.065-.281a.45.45 0 0 0-.195-.173a.8.8 0 0 0-.183.216a.5.5 0 0 0-.054.227c0 .13.054.227.151.287l.249-.238v.054c0 .168-.033.303-.098.395l-.178-.136l-.092.125l.216.146c.076-.076.14-.179.195-.292zm-.13-.54c.038.054.06.13.076.205l-.12.108c0 .011-.005.011-.01.017h-.022c-.043 0-.08-.033-.102-.07a.3.3 0 0 1-.044-.174a.26.26 0 0 1 .07-.194a.36.36 0 0 1 .152.108m-1.162.286a1.352 1.352 0 1 1-2.704 0a1.352 1.352 0 0 1 2.704 0M12 17.011a1.205 1.205 0 1 0 0 2.41a1.205 1.205 0 0 0 0-2.41"/><path d="M11.437 17.984v.173h-.13v-.53h.335a.27.27 0 0 1 .173.043a.16.16 0 0 1 .06.135a.2.2 0 0 1-.027.108a.16.16 0 0 1-.07.055l.118.189h-.162l-.092-.173zm.205-.244h-.205v.13h.195c.027 0 .053 0 .08-.016a.07.07 0 0 0 .028-.054q0-.015-.005-.03a.1.1 0 0 0-.017-.024a.13.13 0 0 0-.076-.005m.54.417v-.535h.547v.119h-.406v.097h.368v.108h-.368v.21zm0 .805v-.524h.547v.108h-.406v.108h.368v.108h-.368v.2zm-.875-.53h.573v.114h-.432v.092h.378v.108h-.378v.108h.432v.108h-.573zm.935-2.497a.4.4 0 0 0-.205.119v-.022a.4.4 0 0 0-.016-.097c.119-.005.205-.081.205-.184a.18.18 0 0 0-.13-.173v-.032l.011-.027l-.032.01a.1.1 0 0 0-.038.022l-.011-.027a.1.1 0 0 0-.027-.027l-.032.022l-.022.032a.1.1 0 0 0-.033-.021h-.053l.027.027l.01.027c-.086.005-.124.092-.124.167c0 .098.092.179.205.184l.011.097v.011a1.4 1.4 0 0 0-.216-.124c-.087-.016-.19 0-.227-.005c.022.021.054.037.07.064c.043.033.087.06.14.076a.4.4 0 0 0 .239-.01l-.027.107l.064-.021l.006-.076h.038c.016-.01.108 0 .194 0a.25.25 0 0 0 .162-.065l.06-.032a.6.6 0 0 0-.249-.022m-.303-.184a.22.22 0 0 1 .07-.162a.225.225 0 0 1 0 .325a.23.23 0 0 1-.07-.163m.238-2.637l-.021.032c.032 0 .065.021.086.054h.006v-.005a.14.14 0 0 1 .092-.049l-.027-.033zm-.545-.287c-.044 0-.082.038-.082.076c0 .016 0 .027.011.043l.027.049c.006-.022.027-.033.049-.033c.027 0 .054.016.054.043h.092a.06.06 0 0 1 .06-.043q.038 0 .053.033l.022-.054a.08.08 0 0 0 .007-.068a.07.07 0 0 0-.042-.042a.1.1 0 0 0-.03-.004a.08.08 0 0 0-.07.049a.3.3 0 0 0 .027-.135c0-.07-.07-.152-.07-.152s-.07.081-.07.152q.001.07.026.135c0-.027-.037-.049-.064-.049m.459.173q.014-.033.054-.033c.027 0 .049.017.054.044h.092a.07.07 0 0 1 .054-.043c.027 0 .049.01.054.032l.022-.054a.1.1 0 0 0 .016-.043a.07.07 0 0 0-.051-.069a.1.1 0 0 0-.03-.002q-.048.002-.07.044v.005a.3.3 0 0 0 .027-.135c0-.076-.07-.152-.07-.152s-.071.076-.071.152c0 .049.016.086.027.13v.005c-.01-.043-.06-.06-.097-.043a.08.08 0 0 0-.049.07c0 .016 0 .027.01.043zm-.14.373a.076.076 0 0 0-.098-.038a.08.08 0 0 0-.049.07c0 .011 0 .027.011.044l.022.048a.06.06 0 0 1 .054-.032c.027 0 .054.016.054.043h.092a.07.07 0 0 1 .06-.043a.06.06 0 0 1 .053.032l.022-.054a.1.1 0 0 0 .01-.038a.07.07 0 0 0-.021-.057a.07.07 0 0 0-.06-.018c-.026 0-.053.021-.07.048a.3.3 0 0 0 .033-.135c0-.075-.07-.151-.07-.151s-.07.075-.07.151q.001.065.026.13m-.022.238l-.022.032a.15.15 0 0 1 .087.054h.005v-.005a.14.14 0 0 1 .092-.049l-.027-.032zm-.092-.465l-.022-.033h-.135l-.021.033c.032 0 .064.021.086.054l.01-.005a.12.12 0 0 1 .082-.049m1.362-2.405a.63.63 0 0 1 .254.194c.043-.032.124-.054.179-.032h.005c.01-.006-.016-.044-.033-.044H13.6l-.022.017v-.022c-.005-.01-.021-.01-.032 0c0 0-.01.005-.01.016l.015.016h-.005c-.01 0-.032.006-.038-.005c-.005 0-.01-.01-.005-.022l-.016-.005c-.011-.01 0-.022.005-.032h.005v.016c.017.01.033 0 .038-.011v-.016h-.021v-.006l.021-.016h.006c0-.01 0-.027-.017-.027h-.016l-.016.027l-.005-.016c-.011-.01-.027 0-.033.01v.022h.022v.006c-.011.01-.022.021-.038.01c-.011 0-.011-.016-.011-.021h-.021c-.022-.022 0-.038 0-.049h.005l.01.011v.006c.017 0 .033 0 .033-.017v-.016h-.005l-.022-.005l.027-.022q.008-.024-.016-.032h-.016v.005l-.011.027l-.01-.016v-.005c-.017 0-.033 0-.033.021v.016h.027v.011c-.011.01-.027.027-.038.016c-.011-.005-.011-.016-.011-.021h-.022c-.016-.011-.01-.027 0-.038v-.005l.011.016c.016 0 .027 0 .033-.022l-.006-.016h-.022l.017-.016h.005c0-.011 0-.022-.01-.027h-.028v.032h-.01l-.006-.016v-.006h-.01l-.01.004a.03.03 0 0 0-.012.018v.01h.027v.012c-.006.01-.011.021-.027.016l-.006-.01h-.027c-.01-.006-.01-.028-.01-.039h.016c.016 0 .021-.016.021-.027l-.01-.01h-.006l-.016.005v-.022c0-.021-.049-.032-.054-.021c.038.032.032.119.016.173m-.146 1.189a.195.195 0 0 0-.243.124a.2.2 0 0 0 .005.13c0-.016 0-.033.011-.043a.1.1 0 0 1 .032-.038c-.005.021-.01.037-.005.054c0 .027.01.054.027.065l.005-.033l.011-.005l.011.005l.011.033v.037a.11.11 0 0 1-.14.07a.1.1 0 0 1-.028-.016c-.021-.016-.048-.021-.075-.032a.13.13 0 0 0-.092.005a.08.08 0 0 0-.043.054a.06.06 0 0 1 .065-.016c.01 0 .01.011.01.017c.006.021.033.037.054.037l.049-.016l.01.005c.006.011 0 .017-.005.017l-.043.01a.13.13 0 0 0-.065.07a.1.1 0 0 0 .011.071c0-.022.01-.049.032-.054h.022q.016.009.034.006a.06.06 0 0 0 .031-.017l.027-.054l.01-.005q.01 0 .012.016l-.011.033c0 .032.016.064.027.091c.016.022.043.027.07.027a.07.07 0 0 1-.038-.054l.011-.021a.044.044 0 0 0 .027-.054l-.01-.017l-.006-.016l.005-.01h.011a.2.2 0 0 0 .254-.044l-.043-.005c-.016 0-.027-.011-.043-.022a.13.13 0 0 0 .108-.065a.054.054 0 0 1-.07-.032a.06.06 0 0 1 0-.042l.014-.017l.018-.011a.05.05 0 0 1 .038 0c.005 0 .016 0 .021-.011a.19.19 0 0 0-.124-.227m-.351-.946c.01.016.032.027.054.032l.032.006h.216c-.064-.017-.14-.027-.2-.05a.1.1 0 0 1-.043-.026a.11.11 0 0 0-.14-.01h.032c.022.01.033.026.054.048z"/><path d="M12.88 10.946c0 .01.006.032.017.043c.01-.032.048-.054.08-.038a.06.06 0 0 1 .032.03a.064.064 0 0 1-.017.08a.06.06 0 0 1-.041.015a.04.04 0 0 1-.027-.043a.1.1 0 0 0-.017.027l-.021.086c-.006.022-.022.016-.033.032c.092-.027.108 0 .125-.005l.119-.043c.005 0 .016-.017.01-.022v-.043l.011-.022h.011v.017q-.015.025 0 .043l.005.01l.017.028v.005l-.065.022c-.011.005-.016.01-.011.027c0 .01 0 .016-.01.027c-.006.005-.017.016-.028.016l-.162.016a.11.11 0 0 0-.076.103c.044-.011.081 0 .125.016l.027.016l-.027.022a.14.14 0 0 0-.049.108a.15.15 0 0 1 .119 0l.027.01l-.022.022a.09.09 0 0 0-.016.108a.15.15 0 0 1 .135-.032l.016.005v.017q0 .049.033.08a.26.26 0 0 1 .119-.064c.043-.011.07-.054.08-.097c-.08.043-.075-.011-.053-.027c.043-.055.054-.109.075-.179v-.032a.1.1 0 0 1-.021-.033c.054.038.097-.021.092-.054c-.033.033-.044.016-.044 0s.017-.162-.021-.238c.038.011.07-.005.081-.043v-.01c-.022.01-.054 0-.07-.017l-.038-.038a.46.46 0 0 0-.184-.119a.1.1 0 0 1-.065.022h-.097c-.022-.01-.043 0-.054.016a.4.4 0 0 1-.087.043a.03.03 0 0 0-.016.027l.006.011a.06.06 0 0 1 .01.049m.152-.081l.086.021c-.021.033-.07.038-.108.017v-.017z"/><path d="M12.27 11.14c.017.022.044.027.065.011l.033-.016h.016v.011c-.01.043.01.086.048.097h.022q.016.04.049.065h-.011a.07.07 0 0 1-.06-.038c0 .022 0 .054.022.065a.13.13 0 0 0 .086.033a.1.1 0 0 1-.08 0a.1.1 0 0 0 .059.054l.162.021c.043.006.043.043.081.033a.5.5 0 0 0 .081-.038a.1.1 0 0 1 .027-.049a.13.13 0 0 0-.086.006l-.033.01v-.032c0-.027 0-.054.011-.081a.2.2 0 0 1-.086-.016l-.033-.011c-.027-.016-.054-.027-.075-.054l-.006-.006l-.005-.01v-.017l-.017-.021a.2.2 0 0 1-.026-.103l-.006-.043l.011-.065a.15.15 0 0 0-.027-.087a.07.07 0 0 0-.054-.027h-.01c.02.011.037.033.037.054q-.001.017-.01.017q-.042.025-.033.06l.01.01l.006.027v.005q0 .018-.016.011h-.006l-.01-.016c-.017-.016-.011-.022-.033-.054a.15.15 0 0 0-.076-.054a.1.1 0 0 0-.065.022c.022 0 .05.005.065.027v.016c-.01.027 0 .054.016.065h.011a.06.06 0 0 1 .033.027c.005 0 .01.005.005.016l-.01.005h-.044a.14.14 0 0 0-.08.049a.07.07 0 0 0-.017.06v.01a.07.07 0 0 1 .054-.048c0-.011 0-.006.005 0m1.281.07c-.08.18.06.363.125.52a.6.6 0 0 1 .043.28l-.005.033a.13.13 0 0 1-.135.087c-.006 0-.011 0-.011-.011a.17.17 0 0 0-.065-.13c-.092-.081-.125-.092-.173-.157a.14.14 0 0 1-.033-.135a.14.14 0 0 0-.108.06l-.01.016l-.017-.01a.13.13 0 0 1-.07-.109a.1.1 0 0 0-.097.038l-.016.016l-.011-.016a.1.1 0 0 1-.017-.027h-.043a.5.5 0 0 1-.06.086l.287.146a.25.25 0 0 1 .108.276a.6.6 0 0 0-.027.232c0 .044.027.087.06.12l-.006-.055c0-.01 0-.027.011-.038c0 .017 0 .038.016.054a.15.15 0 0 0 .054.044a.1.1 0 0 1 0-.054a.08.08 0 0 1 .044-.054a.15.15 0 0 0 .091-.098a.14.14 0 0 1-.016.114c.022.021.033.054.022.075a.1.1 0 0 1-.049.076s-.032.016-.113-.016a.13.13 0 0 0-.098.01a.08.08 0 0 0-.043.055a.06.06 0 0 1 .07-.016q.01 0 .011.016c0 .021.027.038.054.032h.017l.027-.016c.01 0 .016.01.016.016l-.01.011l-.044.01a.14.14 0 0 0-.06.071a.08.08 0 0 0 .006.07q-.002-.041.038-.059h.016a.054.054 0 0 0 .065-.005l.005-.017l.022-.037l.016-.006l.005.016a.2.2 0 0 1-.021.054a.16.16 0 0 0-.017.092a.08.08 0 0 0 .05.054a.07.07 0 0 1-.006-.07c0-.005.01-.01.016-.005c.027 0 .054-.022.054-.044s-.022-.032-.016-.043c0-.01.005-.01.01-.01a.08.08 0 0 0 .074-.03a.08.08 0 0 0 .008-.079c-.038-.08.108-.146.108-.2a.07.07 0 0 0-.043-.086h-.038c-.017 0-.033-.011-.038-.033a.3.3 0 0 0-.049-.102l.016-.022c.098.01.19-.054.217-.146a.2.2 0 0 0 .016-.07q.002-.154-.054-.292c-.065-.162-.233-.357-.092-.524c.054-.07.135-.06.168-.033c.027.016.054.054.08.14a.16.16 0 0 0 .13.12a.16.16 0 0 1-.048-.082l.01-.021l.022.005c.043.065.13.076.19.033a.1.1 0 0 0 .043-.054a.1.1 0 0 1-.098.005c-.054-.016-.054-.087-.092-.13a.3.3 0 0 0-.135-.108a.3.3 0 0 0-.357.168"/><path d="M12.524 11.946a.1.1 0 0 0 .06.027h.005c-.022-.016-.038-.032-.038-.06q.001-.015.01-.016c.022-.01.033-.037.022-.065l-.005-.01l-.01-.022v-.01l.015-.012c.038.022.087.006.103-.027l.006-.021a.4.4 0 0 0 .065-.038l.005.01c0 .022-.022.044-.049.055c.027 0 .054 0 .07-.016a.1.1 0 0 0 .044-.082q.016.04-.006.082a.11.11 0 0 0 .06-.087c0-.01.01-.016.016-.016l.005.005h.038a.13.13 0 0 1 .011-.108a.1.1 0 0 0-.081.022l-.022.016l-.005-.027c-.01-.022-.016-.054-.01-.076c-.109.087-.12.135-.222.168a.24.24 0 0 1-.109.016h-.043l-.054-.027a.13.13 0 0 0-.097.01a.08.08 0 0 0-.038.055v.005a.07.07 0 0 1 .065-.021l.016.016c.005.021.032.038.054.032h.016l.022-.005h.01c.012 0 .012.01.006.016v.006l-.075.037a.14.14 0 0 0-.065.07a.1.1 0 0 0 .005.06l.005.01c0-.026.011-.053.033-.064h.021c.017.01.044.006.06-.01a.1.1 0 0 1 .038-.039l.01-.005q.01 0 .011.016c0 .016 0 .027-.01.043q0 .048.032.087"/><path d="M9.297 14.757c0 .61.303 1.097.865 1.421c.475.27 1.124.417 1.838.417c1.308 0 2.702-.487 2.702-1.838v-4.649H9.297zm1.081 1.297c-.027-.01-.092-.022-.114-.038a1.4 1.4 0 0 1-.226-.146V13.2h.34zm.2.087V13.2h.34v2.935c-.053.01-.15.01-.205.01zm1.427.264a4.2 4.2 0 0 1-1.26-.184a1.24 1.24 0 0 0 .92-.464c.162-.19.27-.411.33-.654c.053.248.161.475.329.67c.238.27.584.438.951.448c-.41.125-.843.184-1.27.184m-.887-.34V13.2h.033c.01.238.146.465.308.649v2.037c-.092.07-.238.13-.34.179m.541-.422v-1.61c.092.043.195.07.297.075v.649c0 .324-.102.627-.297.886m2.849-.892c0 .557-.26.984-.768 1.27q-.096.056-.2.098a1.22 1.22 0 0 1-1.157-.4a1.47 1.47 0 0 1-.345-.962v-.649a.8.8 0 0 0 .324-.097v.297a.2.2 0 0 0-.135.249c.021.065.07.113.135.13v.205q0 .145.048.28a.195.195 0 0 0-.021.282c.038.043.092.07.151.07c.027 0 .054 0 .076-.01q.188.196.46.254a.2.2 0 0 0 .232.162a.195.195 0 0 0 .162-.162a.93.93 0 0 0 .46-.26a.21.21 0 0 0 .264-.113a.19.19 0 0 0-.054-.222a1 1 0 0 0 .043-.281v-.205a.2.2 0 0 0 0-.379v-.557a.205.205 0 0 0 .14-.248a.21.21 0 0 0-.253-.135a.2.2 0 0 0-.135.13h-.465a.2.2 0 0 0-.249-.13a.2.2 0 0 0-.14.13h-.298q.051-.146.06-.309h1.67v1.568zm-1.881.395a.2.2 0 0 0-.114-.016a.8.8 0 0 1-.038-.233v-.205a.2.2 0 0 0 .136-.135h.432l.038.08zm.027.184a.112.112 0 0 1-.188.078a.1.1 0 0 1-.034-.078c0-.06.049-.108.108-.108c.065-.006.108.048.108.108zm.06-.108l.459-.514c.01.01.027.01.048.016v.822a.19.19 0 0 0-.13.108a.8.8 0 0 1-.378-.216a.2.2 0 0 0 0-.216m.426-.72c0-.075.06-.13.135-.13s.136.06.136.136a.136.136 0 0 1-.27-.005m.13 1.125a.11.11 0 0 1 .113.108a.112.112 0 0 1-.188.079a.1.1 0 0 1-.033-.079c0-.054.048-.108.108-.108m.06-.081v-.816l.048-.017l.454.509a.19.19 0 0 0 .01.216a.8.8 0 0 1-.378.216a.23.23 0 0 0-.135-.108m.134-.908a.2.2 0 0 0 .044-.081h.427a.21.21 0 0 0 .135.135v.205q.001.12-.038.233h-.021c-.033 0-.06.01-.087.021zm.541.578a.11.11 0 0 1 .113.108a.11.11 0 0 1-.189.079a.1.1 0 0 1-.032-.079c0-.054.054-.108.108-.108m.005-.713c0-.065.054-.108.114-.108s.108.048.108.108a.108.108 0 0 1-.184.076a.1.1 0 0 1-.032-.076zm0-.94c0-.055.054-.109.114-.109s.108.054.108.108a.105.105 0 0 1-.108.108a.11.11 0 0 1-.108-.108zm.033.178l.027.016v.551a.2.2 0 0 0-.135.135h-.427a.2.2 0 0 0-.033-.07zm-.654.556l-.054-.021v-.525a.2.2 0 0 0 .13-.135h.464q.001.023.027.054zm-.12-.621a.11.11 0 0 1-.107-.108c0-.065.048-.109.108-.109c.065 0 .113.044.113.109a.116.116 0 0 1-.108.108zm-.053.08v.52a.2.2 0 0 0-.054.027l-.503-.557l.07-.119h.352c.016.054.07.108.135.13m-.14.617a.2.2 0 0 0-.033.07h-.432a.2.2 0 0 0-.13-.135v-.373a.7.7 0 0 0 .108-.108zm-.541.13c0 .06-.054.108-.114.108a.11.11 0 0 1-.108-.108c0-.065.049-.108.108-.108c.06 0 .108.048.108.108zm-.498-4.206h2.47v2.816h-1.67c-.021-.486-.367-.88-.8-.908zm.65 2.86c0 .443-.309.805-.693.805c-.378 0-.692-.362-.692-.81c0-.444.308-.806.692-.806s.698.362.698.81zm-.73-2.86V12.2a.74.74 0 0 0-.476.205h-.217v-.756h.098v-.325h-.092v-.216h.065v-.189h-.054v.076h-.065v-.076h-.108v.076h-.065v-.076h-.054v.19h.065v.215h-.2v-.47h.08v-.227h-.059v.076h-.097v-.076h-.108v.076h-.108v-.076h-.054v.227h.08v.47h-.21v-.216h.065v-.189h-.054v.076h-.06v-.076h-.119v.076h-.054v-.076h-.054v.19h.06v.215h-.087v.325h.087v.756H10v.406h.562v-.298c0-.086.07-.15.151-.15c.087 0 .2.07.2.15v.298h.297a1 1 0 0 0-.065.297H9.487v-2.81zm-.914 1.449v.216h-.173v-.216c0-.043.043-.081.086-.081c.049 0 .087.038.087.081m-.476 0v.216h-.173v-.216c0-.043.043-.081.087-.081c.048 0 .086.038.086.081m-1.08 1.448h.35v2.433a1.38 1.38 0 0 1-.346-.876v-1.556zm-.612-2.61a.054.054 0 0 0-.054-.054h-.66a.054.054 0 0 0-.053.054c0 .016.016.032.032.043a.12.12 0 0 1 .054.097a.13.13 0 0 1-.054.103a.05.05 0 0 0-.021.054c-.006.033.016.054.048.054h.665a.054.054 0 0 0 .054-.054a.06.06 0 0 0-.032-.054a.11.11 0 0 1-.049-.097c0-.038.01-.076.049-.098a.08.08 0 0 0 .021-.054zm.044 4.735h-.973v.276h.973zm-.503-3.54c.108-.017.227-.028.34-.028v-.724h-.54v.795zm.297 1.805c-.205.113-.319.216-.497.292v1.016c0 .135-.06.222-.097.28c-.006.017-.006.033.01.044h.654c.022 0 .033-.021.017-.043c-.033-.054-.044-.14-.044-.281v-1.32zm.108-.92v.32c.087-.054.162-.12.238-.195l.038-.038a.6.6 0 0 0-.276-.086m.422 3.158a.6.6 0 0 1-.243.016a1 1 0 0 1-.19-.054a.86.86 0 0 0-.648 0a.65.65 0 0 1-.416.043l-.07-.01v.097l.053.005q.135.028.27.016c.065-.016.136-.032.2-.06a.75.75 0 0 1 .574 0a.8.8 0 0 0 .524.039v-.098z"/><path d="M9.243 16.043a.7.7 0 0 1-.243.011A1 1 0 0 1 8.81 16a.87.87 0 0 0-.648 0a.64.64 0 0 1-.416.043l-.07-.01v.097l.053.01q.135.026.27.011a1.4 1.4 0 0 0 .2-.054a.75.75 0 0 1 .574 0c.07.022.135.044.21.054a.8.8 0 0 0 .314-.021v-.098z"/><path d="M9.243 16.249a.6.6 0 0 1-.243.01a1 1 0 0 1-.19-.054a.87.87 0 0 0-.648 0a.6.6 0 0 1-.19.054a.6.6 0 0 1-.226-.005l-.07-.016v.097l.053.01q.135.027.27.012c.065-.011.136-.033.2-.054a.75.75 0 0 1 .574 0c.07.021.135.043.21.054a.8.8 0 0 0 .314-.022v-.097zm-.487-3.881a1.6 1.6 0 0 0-.54.097v.87c.162-.07.308-.162.454-.26l.086-.053zm-.886 1.448l-.016.076c.47-.165.913-.4 1.313-.697l-.043-.341a3.6 3.6 0 0 1-1.173.643zm.081-1.73l-.022.006l.038.103l.022-.011c.027-.016.032-.043.021-.07a.05.05 0 0 0-.054-.027z"/><path d="M8.368 11.86c-.444.064-.773.237-.876.378a.12.12 0 0 0-.033.092l.163.362l.021-.038c.124-.162.47-.308.827-.357a2.7 2.7 0 0 1 .903.038v-.449a3.2 3.2 0 0 0-1.005-.021zm-.27.28c-.012.033-.055.06-.12.082l.049.124l-.081.032l-.114-.286l.125-.049c.086-.032.124 0 .135.033c.01.021.01.048 0 .064zm.14.141l-.065-.292l.01-.005h.033a.1.1 0 0 0 .027-.011l.016-.005l.054.254a.5.5 0 0 0 .114-.027l.016.043zm.519-.335a2 2 0 0 0-.108.27v.006l-.054.005l-.163-.286v-.011l.092-.006l.076.146c.016.016.022.033.032.054c.027-.06.054-.135.076-.216h.06zm.07.243a.3.3 0 0 0 .022-.054h.016c.01.033.032.054.065.054c.027 0 .054-.005.054-.038c0-.027-.022-.037-.054-.054c-.044-.021-.092-.043-.081-.108c0-.043.043-.092.13-.086c.032 0 .059.016.08.032h.006v.01a.2.2 0 0 0-.022.039h-.016a.054.054 0 0 0-.054-.038c-.033-.005-.054.005-.054.027c0 .027.027.038.054.054c.043.022.097.054.092.108c0 .054-.054.087-.13.087h-.027a.2.2 0 0 1-.086-.027z"/><path d="M8.053 12.962v-.394c-.054 0-.097 0-.146-.011a.6.6 0 0 0-.194.151l-.017.022l-.027.054c.017.102.163.162.379.178zm3.914-5.751h.065v-.103h.07v-.06h-.07v-.086h-.065v.087h-.07v.06h.07v.107zM9.686 8.973c.005.005 0 .01-.006.01a.2.2 0 0 0-.08.098c-.006.01 0 .016.005.022h.01c.087-.038.19 0 .227.086c.011.016.011.027.011.043l.016.011h.011a.11.11 0 0 1 .146.022a.11.11 0 0 1 .011.108v.016c.232.146.378.39.405.654c0 .011.006.011.017.011c.892-.265 2.173-.265 3.07 0c.005 0 .016 0 .021-.01a.87.87 0 0 1 .4-.65v-.021a.116.116 0 0 1 .055-.146a.11.11 0 0 1 .108.01h.021v-.01a.173.173 0 0 1 .195-.146l.043.016c.011 0 .016 0 .022-.01v-.011a.16.16 0 0 0-.081-.098c-.006 0-.011-.01-.006-.016a1 1 0 0 0 .092-.313c.065-.54-.443-.817-1.189-.708c-.162-.276-.59-.373-1.13-.255c-.005-.054 0-.14-.086-.14c-.081 0-.087.086-.087.14c-.54-.118-.962-.021-1.124.255c-.746-.114-1.254.167-1.19.708q.027.178.093.324m.93.854a.08.08 0 0 1-.074-.043q-.011-.02-.007-.044a.08.08 0 0 1 .058-.062a.076.076 0 0 1 .093.073c0 .044-.027.076-.07.076m.632-.162l-.19.124h-.016l-.21-.08c-.006 0-.011-.012-.006-.017l.006-.01l.189-.12h.01l.217.076zm.265.07a.087.087 0 1 1 .086-.086a.09.09 0 0 1-.086.086m.702-.097q-.111.051-.221.108l-.216-.108v-.022l.005-.005l.216-.108h.011c.07.032.14.065.21.108l.006.01zm.27.097a.087.087 0 1 1 .087-.086a.09.09 0 0 1-.086.086m.682-.027l-.211.081h-.016l-.19-.124v-.022l.217-.086l.01.005l.19.12c.005.004.01.015 0 .026m.216.119a.1.1 0 0 1-.028-.006a.07.07 0 0 1-.039-.041a.1.1 0 0 1-.003-.029c0-.043.027-.07.07-.07s.076.027.076.07a.074.074 0 0 1-.076.076m-.216-.962c0-.043.032-.076.075-.076c.011 0 .017 0 .017-.01l-.006-.006c-.016-.01-.032-.027-.048-.027c-.027-.01-.044-.033-.038-.054c.102-.206.173-.476.07-.703c.46-.043.8.054.919.33c.07.151.07.33.01.54v.017l.044.08v.017h-.005A.13.13 0 0 0 14.14 9h-.022a.24.24 0 0 0-.054-.097c-.016-.017-.027.005-.038.01a.27.27 0 0 0-.075.184l-.011.011h-.016a.13.13 0 0 0-.146-.043l-.006.01v.066c.006.01 0 .016-.005.016h-.011a.103.103 0 0 0-.14.027v.01c.016.038.053.07.086.076q.015 0 .016.016h-.005l-.022.044c0 .005 0 .016.01.016h.017a.1.1 0 0 1 .087-.01a.13.13 0 0 1-.092.161a.13.13 0 0 1-.162-.092l-.006-.027c.033-.016.054-.054.033-.092c-.022-.037-.06-.054-.098-.032c-.032.016-.043.054-.032.092c-.12.097-.362.065-.33-.108c0-.043.043-.081.097-.07h.006c.043.005.07.037.075.08c0 .006 0 .011.011.011h.006a.12.12 0 0 0 .037-.075l.006-.016h.016a.14.14 0 0 0 .119-.044l.005-.016a.14.14 0 0 0-.097-.076h-.016v-.021c.005-.027 0-.054-.005-.081l-.017-.006l-.005.006a.093.093 0 0 1-.124.048q-.08-.05-.07-.108zm-.022.13c.022.043.005.102-.038.124a.09.09 0 0 1-.124-.038a.1.1 0 0 1 .021-.108a.1.1 0 0 1 .067-.027a.1.1 0 0 1 .063.032s.011.006.011.017M12.13 8.4c.016 0 .032-.01.038-.032v-.022a.9.9 0 0 1-.065-.335c0-.092 0-.179-.011-.276c.433-.086.768-.043.919.162c.151.184.081.46-.005.665v.022l.08.054c.022.027-.02.07-.053.075c-.022 0-.038 0-.055.011c-.01 0-.01.011-.01.017l.01.005c.044.022.065.076.044.124a.093.093 0 0 1-.12.044a.08.08 0 0 1-.053-.076c0-.006 0-.011-.011-.011h-.01a.12.12 0 0 0-.033.076c0 .005 0 .01-.011.016h-.01a.14.14 0 0 0-.125.038v.016c.016.038.054.07.097.081h.01v.022c0 .027 0 .054.012.075c0 .011.005.011.016.011l.005-.01a.086.086 0 0 1 .12-.044a.09.09 0 0 1 .053.097c-.027.168-.286.136-.373-.01c.038-.017.054-.054.033-.092c-.016-.033-.054-.054-.092-.033c-.038.022-.054.06-.033.098l.011.016c-.124.157-.475.119-.432-.087a.11.11 0 0 1 .124-.08a.11.11 0 0 1 .087.08l.01.011l.011-.01a.16.16 0 0 0 .027-.087c0-.016 0-.027.022-.027a.15.15 0 0 0 .124-.07v-.017a.16.16 0 0 0-.124-.07c-.027 0-.022-.01-.022-.027a.14.14 0 0 0-.027-.087h-.021l-.006.006c-.016.06-.075.097-.13.081c-.054-.016-.091-.076-.075-.13c.005-.038.038-.065.075-.075c.011 0 .011-.011.011-.017l-.005-.01a.2.2 0 0 0-.065-.022c-.027 0-.054-.032-.054-.065c0-.038.032-.065.07-.065c.011-.016.017-.016.022-.016m-.027.486a.11.11 0 0 1-.087.12a.11.11 0 0 1-.119-.092V8.88a.11.11 0 0 1 .12-.092c.048.016.08.049.086.097m-1.114-.989c.152-.2.487-.243.92-.162l-.012.281a1.3 1.3 0 0 1-.059.33l-.005.022c0 .021.016.032.037.037c.038-.005.076.017.082.054v.011c0 .033-.022.065-.055.07a.2.2 0 0 0-.059.022c-.01 0-.01.011-.005.022l.005.005c.06.016.097.076.081.13s-.076.092-.13.076c-.037-.006-.065-.038-.075-.076c0-.01-.011-.01-.016-.01l-.011.005a.2.2 0 0 0-.027.086c0 .016.005.027-.017.027a.15.15 0 0 0-.13.07v.017c.028.043.076.07.13.07c.022 0 .017.01.017.027c0 .032.01.065.027.086c.005.011.016.011.021.006l.006-.006a.11.11 0 0 1 .087-.082a.11.11 0 0 1 .123.082c.038.206-.319.244-.437.087a.07.07 0 0 0 .022-.052a.07.07 0 0 0-.022-.05a.07.07 0 0 0-.08-.017l-.023.016a.07.07 0 0 0-.025.054a.07.07 0 0 0 .025.054l.022.006c-.082.15-.346.183-.373.01a.09.09 0 0 1 .038-.09q.014-.009.032-.012h.005a.095.095 0 0 1 .098.054h.021a.1.1 0 0 0 .011-.081v-.022h.016a.14.14 0 0 0 .098-.081v-.016a.14.14 0 0 0-.125-.038h-.01c-.011 0-.006-.01-.011-.016a.1.1 0 0 0-.033-.07h-.016l-.006.005c0 .054-.048.086-.097.086c-.054 0-.086-.048-.086-.097c0-.038.027-.065.054-.081c.01 0 .01-.005.01-.01l-.01-.012a.1.1 0 0 0-.054-.01c-.033 0-.076-.055-.054-.076l.08-.054v-.022c-.086-.205-.156-.48-.005-.665m-.135 1.098a.09.09 0 0 1 .125-.038l.021.01c.038.033.038.087.006.13c-.033.038-.087.038-.125.006a.077.077 0 0 1-.027-.108m-1.065-.05l.044-.08v-.016c-.054-.206-.054-.39.005-.54c.124-.271.465-.368.924-.325c-.108.221-.032.497.07.702c.006.022-.01.044-.037.055a.1.1 0 0 0-.049.021v.016l.011.006c.049 0 .081.048.081.097a.087.087 0 0 1-.097.081a.1.1 0 0 1-.081-.054l-.017-.005l-.005.005a.1.1 0 0 0-.005.076v.021h-.017a.12.12 0 0 0-.097.081v.017a.13.13 0 0 0 .124.038h.017l.005.021a.09.09 0 0 0 .038.07h.01l.006-.01c0-.049.049-.087.097-.081c.044 0 .082.037.082.075c.032.173-.217.206-.33.108l.005-.027a.07.07 0 0 0-.139-.016a.07.07 0 0 0 .042.082a.13.13 0 0 1-.048.09a.13.13 0 0 1-.098.028a.13.13 0 0 1-.119-.146v-.021a.1.1 0 0 1 .092.005h.021v-.016l-.021-.038v-.016l.01-.006a.12.12 0 0 0 .087-.075v-.011a.11.11 0 0 0-.14-.027h-.017v-.081l-.005-.011c-.054-.022-.114 0-.151.043h-.017v-.01a.3.3 0 0 0-.08-.18c-.011-.005-.028-.026-.038-.01a.4.4 0 0 0-.055.092c-.005.01-.016.01-.021.005a.3.3 0 0 0-.065-.027c-.022.017-.027.006-.022 0zm2.179-1.702c-.054.006-.098.054-.108.108h.108zm.065 0v.108h.108a.14.14 0 0 0-.108-.108m-.033.27a.134.134 0 0 0 .135-.108h-.27c.01.065.07.109.135.109m3.946 3.07l-.004-.02a.05.05 0 0 0-.05-.033h-.66a.05.05 0 0 0-.038.016a.05.05 0 0 0-.015.038c0 .016.01.038.032.043c.032.027.054.06.049.097a.11.11 0 0 1-.049.098a.06.06 0 0 0-.032.054c0 .032.021.06.053.06h.665a.054.054 0 0 0 .054-.054a.07.07 0 0 0-.032-.055a.11.11 0 0 1-.049-.108a.11.11 0 0 1 .055-.097c.01 0 .021-.022.021-.038m.087 4.736h-.968v.276h.968zm-.444-3.535l.195.038v-.795h-.54v.724q.176.002.345.027zm-.302 1.8l-.044-.011v1.319c0 .135-.005.222-.038.276c-.016.021-.005.054.011.054h.611c.016 0 .027-.022.027-.038v-.016a.54.54 0 0 1-.07-.281v-1.022c-.184-.065-.297-.162-.497-.281m-.108-.914a.53.53 0 0 0-.27.081l.032.044q.11.108.238.194v-.324zm.848 3.168a1 1 0 0 1-.19-.054a1 1 0 0 0-.323-.065a.9.9 0 0 0-.325.065l-.189.054a.8.8 0 0 1-.232-.016l-.065-.006v.098a.7.7 0 0 0 .313.021c.076-.016.14-.032.211-.06a.75.75 0 0 1 .573 0c.065.022.135.044.206.055a.7.7 0 0 0 .27-.011l.049-.005v-.098c-.028 0-.05 0-.07.011a.6.6 0 0 1-.228.01"/><path d="M16.026 16.054a1 1 0 0 1-.189-.054a1.2 1.2 0 0 0-.324-.065a1 1 0 0 0-.324.065a1 1 0 0 1-.19.054c-.075.006-.162 0-.232-.01l-.065-.012v.098q.155.045.314.021c.075-.01.14-.032.21-.054a.7.7 0 0 1 .282-.065a.8.8 0 0 1 .291.06c.065.021.136.043.206.054a.7.7 0 0 0 .27-.005l.049-.011v-.098l-.07.011a.54.54 0 0 1-.228.017z"/><path d="M16.026 16.265a1 1 0 0 1-.189-.054a1 1 0 0 0-.324-.07a1 1 0 0 0-.324.064a1 1 0 0 1-.19.054a.8.8 0 0 1-.232-.01l-.065-.011v.097q.155.045.314.022c.075-.011.14-.033.21-.054a.7.7 0 0 1 .282-.065c.102 0 .194.021.291.06q.1.037.206.059a.7.7 0 0 0 .27-.011l.049-.01v-.098a.15.15 0 0 0-.07.016a.8.8 0 0 1-.228.01m-.243-2.924v-.87a1.2 1.2 0 0 0-.308-.082a2 2 0 0 0-.232-.016v.649l.086.064q.219.14.454.255"/><path d="M14.838 13.19c.049.091.81.534 1.313.696c-.005-.021-.016-.048-.016-.075l-.075-.32a3.6 3.6 0 0 1-1.173-.642l-.055.345zm1.027-1.114v-.022c0-.027-.027-.033-.054-.038l-.027.098c.016.01.038.01.054 0a.1.1 0 0 0 .027-.038"/><path d="M16.508 12.238c-.103-.14-.433-.308-.876-.373a3.2 3.2 0 0 0-1.005.027v.454a1.9 1.9 0 0 1 .55-.06c.12 0 .233.006.352.022c.357.038.703.195.827.357l.022.032l.162-.362a.15.15 0 0 0-.032-.097m-1.444-.297a2 2 0 0 0-.086.28h-.011l-.043.011h-.006c-.054-.086-.108-.173-.183-.275v-.011l.091-.01h.006c.021.053.054.096.081.14l.038.054l.06-.216h.005l.048-.011l.006-.006zm.298.27v.005h-.211l.01-.308h.082l-.006.27c.044 0 .076 0 .108-.01h.011v.01zm.28-.227l-.086-.016l-.027.264l-.08-.01l.02-.265h-.096l.005-.011v-.043l.286.027v.01l-.005.033v.01zm.282.335l-.087-.022l-.054-.135s0-.01-.01-.016l-.027.13h-.006l-.076-.022l.07-.297l.125.027c.027 0 .049.016.07.027q.04.026.033.075a.09.09 0 0 1-.092.065l.043.098l.01.032l.017.043h-.016zm.335.167h-.006l-.075-.043h-.006v-.005l.006-.092l-.097-.049l-.082.065l-.043-.027h-.01l.286-.21v.005l.016.01l.022.011z"/><path d="M16.286 12.708a.7.7 0 0 0-.2-.151l-.14.016v.394c.22-.016.361-.075.378-.172v-.006l-.028-.054c0-.01 0-.016-.01-.027m-.79-2.676V9.6l-.027-.01h-.032a.12.12 0 0 0-.108.064v.016l.146.362zm-.443-.259l.011.01l.205.325l.054-.027l-.135-.351l-.005-.011h-.032a.14.14 0 0 0-.098.054m.843.33l.206-.32l.005-.01a.12.12 0 0 0-.097-.054h-.027l-.005.01l-.141.347zm-.346-.773a.07.07 0 0 1 .055 0v-.103h.075v-.054h-.075v-.087h-.055v.087h-.07v.054h.07z"/><path d="m15.189 10.173l.027-.022l.016-.01l-.211-.33v-.006l-.006-.005c-.043-.076-.043-.151 0-.2a.13.13 0 0 1 .109-.043l.043.005v-.054c-.01-.01-.027-.01-.043-.01a.22.22 0 0 0-.152.07c-.06.07-.06.183 0 .28zm.016-.59V9.6c0 .038.01.081.027.114l.14.356l.054-.016c-.043-.103-.108-.249-.14-.357l-.006-.005a.4.4 0 0 1-.027-.108v-.07l.006-.006a.11.11 0 0 1 .119-.086c.048 0 .092.021.13.048v-.075a.24.24 0 0 0-.13-.033a.2.2 0 0 0-.108.033a.2.2 0 0 0-.065.091v.022c-.006.022-.011.054-.006.076zm.838-.026a.13.13 0 0 1 .108.038c.043.054.043.13 0 .205l-.006.005l-.205.325l.01.01l.039.027l.205-.324c.065-.102.065-.216 0-.286a.2.2 0 0 0-.146-.065h-.049v.065zm-.206.108a.12.12 0 0 0-.108-.081l-.038.005l-.027.011v.432h.027l.14-.356v-.011z"/><path d="M15.654 9.46a.26.26 0 0 1 .13-.044a.11.11 0 0 1 .113.081l.006.011v.06a.24.24 0 0 1-.022.108l-.01.016a9 9 0 0 1-.141.346l.06.016l.14-.351v-.006a.4.4 0 0 0 .027-.113V9.47l-.006-.005a.18.18 0 0 0-.173-.124a.24.24 0 0 0-.13.032v.081h.006zm-.038-.076c-.01-.016-.038-.022-.054-.016a.03.03 0 0 0-.01.016v.654h.064zm.303.794l-.011-.005h-.01l-.006-.005v-.006l-.092-.038l-.005-.005h-.011l-.07-.022l-.017-.005c-.016 0-.032 0-.054-.01h-.13l-.043.01h-.021l-.07.021l-.017.011l-.086.038l-.022.016l-.016.006c-.006.01-.027.016-.033.021l.108.162h.011a.4.4 0 0 1 .054-.027h.017a.5.5 0 0 1 .194-.043c.06 0 .124.011.178.038h.017l.054.027h.016l.108-.162a.1.1 0 0 1-.049-.022zm-7.324-.156h.016l.054-.157a.9.9 0 0 1 .194-.314h.011a.173.173 0 0 0-.167-.178a.16.16 0 0 0-.108.043zm.075.016l.07.021c.022-.075.044-.119.055-.146a.76.76 0 0 1 .189-.324H8.93l-.027.006a.8.8 0 0 0-.179.291a1 1 0 0 1-.054.152m.13.043a.5.5 0 0 1 .119.07c.065-.108.135-.216.189-.324v-.01a.17.17 0 0 0-.06-.2l-.005.005a.67.67 0 0 0-.194.308a1 1 0 0 1-.054.151zm-.476-.216l.054.151h.017v-.6a.16.16 0 0 0-.233.027a.17.17 0 0 0-.038.108h.006a.8.8 0 0 1 .2.314zm-.432-.043q.083.17.189.324l.114-.065l-.055-.151a.67.67 0 0 0-.183-.308l-.011-.006a.17.17 0 0 0-.054.2zm.573-.514a.1.1 0 0 1 .065 0v-.076h.075v-.064H8.53V9.08h-.065v.087h-.076v.064h.076zm.07.081a.04.04 0 0 0-.038-.038c-.027 0-.038.017-.038.038v.627h.07V9.39zm-.432.816l.108.162c0 .011.01.011.021.011h.011a.6.6 0 0 1 .26-.07c.092 0 .178.027.26.065q.023.009.032-.005l.102-.173a.66.66 0 0 0-.794.01m.102-.297l.054.146l.06-.016l-.049-.152a.8.8 0 0 0-.178-.291l-.027-.006H8.01q.138.139.194.32"/></g></svg>