<svg xmlns="http://www.w3.org/2000/svg" xmlns:xlink="http://www.w3.org/1999/xlink" width="24" height="24" viewBox="0 0 24 24"><g fill="none"><path fill="url(#tokenBrandedSoul0)" d="M18.455 8.499H5.572c-1.957 0-3.544 1.569-3.544 3.504s1.587 3.504 3.544 3.504h12.883c1.957 0 3.544-1.569 3.544-3.504s-1.587-3.504-3.544-3.504"/><path fill="url(#tokenBrandedSoul1)" d="M9.495 3.036L3.04 9.466a3.527 3.527 0 0 0 0 5.002a3.56 3.56 0 0 0 5.023 0l6.455-6.43a3.527 3.527 0 0 0 0-5.002a3.56 3.56 0 0 0-5.023 0"/><path fill="url(#tokenBrandedSoul2)" d="m15.938 9.532l-6.456 6.43a3.527 3.527 0 0 0 0 5.002a3.56 3.56 0 0 0 5.023 0l6.455-6.43a3.527 3.527 0 0 0 0-5.002a3.56 3.56 0 0 0-5.023 0"/><defs><radialGradient id="tokenBrandedSoul0" cx="0" cy="0" r="1" gradientTransform="matrix(-11.03643 5.86002 -5.0488 -9.50863 19.111 8.479)" gradientUnits="userSpaceOnUse"><stop stop-color="#FFD8B0"/><stop offset=".359" stop-color="#FFA3AC"/><stop offset="1" stop-color="#FF87CD"/></radialGradient><radialGradient id="tokenBrandedSoul1" cx="0" cy="0" r="1" gradientTransform="matrix(-7.49973 7.46969 -8.67394 -8.70883 12.013 4.898)" gradientUnits="userSpaceOnUse"><stop offset=".25" stop-color="#FF2E79"/><stop offset=".87" stop-color="#FF8BD1"/></radialGradient><radialGradient id="tokenBrandedSoul2" cx="0" cy="0" r="1" gradientTransform="matrix(9.0165 -9.9037 6.33648 5.76884 11.843 18.744)" gradientUnits="userSpaceOnUse"><stop offset=".13" stop-color="#FF2B9D"/><stop offset=".724" stop-color="#FF9BBF"/><stop offset=".958" stop-color="#FAC7BD"/></radialGradient></defs></g></svg>