<svg xmlns="http://www.w3.org/2000/svg" xmlns:xlink="http://www.w3.org/1999/xlink" width="24" height="24" viewBox="0 0 24 24"><g fill="none"><path fill="#F9D993" d="M3.43 16.754V6.897L4 7.2v9.2z"/><path fill="#000" d="M21.143 17.463L12.057 22l-8.709-4.32l-.491-.766V6.16L6.777 2H17.2l3.943 4.16z"/><path fill="#9D1302" d="M3.428 16.714V5.897L6.96 2.67h10.154l3.457 3.245v10.829l-8.503 4.246z"/><path fill="#F6A703" d="M5.503 8.229L3.669 7.2l-.035 9.24l6.937 3.468v-1.965l-5.068-2.686z"/><path fill="#F5BC42" d="m5.189 7.84l-1.714-.937l.125.708l1.446.892l.669-.28l-.526-.286z"/><path fill="#E17402" d="M5.143 8.457V15.4l.572-.2V8.211z"/><path fill="#F9C352" d="m10.857 17.829l-5.142-2.646l-.63.234l5.258 2.657z"/><path fill="url(#tokenBrandedSquad0)" d="m4.452 16.229l.668-.852l5.246 2.703l-5.103-2.44z"/><path fill="#EE7B02" d="M10.285 19.611L3.908 16.4l-.44.343l7.389 3.64v-2.56l-.572.285z"/><path fill="#F9EDE3" d="m13.714 18.154l-.57-.274l5.37-2.6l.452.377z"/><path fill="#FDD16C" d="M18.286 15.291V8.343h.571l-.074 7.343l-.497-.4z"/><path fill="#E6B480" d="M13.143 17.891v2.035l.571-.349v-1.406z"/><path fill="#CA6A16" d="m19.977 16.457l-6.263 3.126v-1.446l5.2-2.497l1.063.828z"/><path fill="#F6A803" d="M18.686 8.423v7.234l1.417.886V7.57l-1.411.858z"/><path fill="#B7490D" d="m13.714 19.583l-.57.343v.56l7.382-3.715l-.583-.331z"/><path fill="#DC7202" d="M20.572 6.971v9.8L20 16.554V7.39z"/><path fill="#FFFFF8" d="m20.526 6.943l-2.24 1.343l.611.097l.074 5.388l.103-5.388l.646-.446l.571-.497a5 5 0 0 0 .229-.497z"/><path fill="#DEAB5C" d="M6.206 6.571L4.217 5.366l.623-.126l1.177.777L7.812 4.2l.217.371l-1.829 2z"/><path fill="#F4F598" d="M6.012 6.051L4.84 5.24l.612-.949l1.6-1.342l.743 1.262z"/><path fill="#FEFEF7" d="m4.166 5.291l.09.08l.612-.12l2.058-2.057l.731.743l-.737-1.354z"/><path fill="#DEA007" d="M15.983 4.583H8.05l-.268-.389h8.377z"/><path fill="#F5E90C" d="m7.772 4.229l-.589-1.166h9.566l-.606 1.166z"/><path fill="#FCF8AC" d="M17.017 2.571H6.915l.262.515h9.543l.286-.515z"/><path fill="#F2A503" d="m19.492 5.063l-2.474-2.48l-.903 1.663L17.772 6l1.72-.931z"/><path fill="#DC7502" d="m17.851 6.537l-1.868-1.966l.148-.354l1.623 1.772l1.72-.938l.343.383z"/><path fill="#CF340B" d="M6.8 7.211v7.2l5.155 2.572l5.326-2.572v-7.2L15.212 5.44H8.778L6.795 7.211z"/><path fill="#fff" d="m7.428 6l1.143.886V8.76l4.572 3.886v.783h-2.858v-1.126L8.182 10.73l-.37 4.418h7.616v-2.772l-4.571-3.611V7.703h4V6zm8 0v2.326l1.143 1.103V6z"/><path fill="#670000" d="M5.715 6.811L4 5.886v.8l1.715.96zm12.571 0L20 5.886v.8l-1.714.96zM11.43 20.286V18h1.143v2.286z"/><defs><linearGradient id="tokenBrandedSquad0" x1="4.076" x2="13.16" y1="4.368" y2="8.253" gradientUnits="userSpaceOnUse"><stop stop-color="#FCEABF"/><stop offset="1" stop-color="#FCEABF" stop-opacity="0"/></linearGradient></defs></g></svg>