<svg xmlns="http://www.w3.org/2000/svg" xmlns:xlink="http://www.w3.org/1999/xlink" width="24" height="24" viewBox="0 0 24 24"><g fill="none"><path fill="#08237A" d="M16.758 12.003a4.72 4.72 0 0 1-4.708 4.724a4.72 4.72 0 0 1-4.746-4.691a4.72 4.72 0 0 1 4.719-4.724a4.717 4.717 0 0 1 4.746 4.69z"/><path fill="#010200" fill-rule="evenodd" d="M12.045 16.16a4.144 4.144 0 0 0 3.82-5.743a4.14 4.14 0 0 0-3.848-2.538a4.145 4.145 0 0 0-4.145 4.151a4.146 4.146 0 0 0 4.173 4.13m0 .567a4.72 4.72 0 0 0 4.713-4.724a4.72 4.72 0 0 0-4.746-4.691a4.72 4.72 0 0 0-4.708 4.724a4.72 4.72 0 0 0 4.746 4.69z" clip-rule="evenodd"/><path fill="#FCF6BA" d="M12.912 3.504a.91.91 0 1 1-.29-.592a.9.9 0 0 1 .29.598z"/><path fill="#010200" d="M13.485 3.504a1.478 1.478 0 1 1-2.957 0a1.478 1.478 0 0 1 2.957 0m-1.478.911a.911.911 0 1 0 .14-1.816a.911.911 0 0 0-.14 1.816"/><path fill="#FFE8C5" d="M7.937 4.371a.567.567 0 0 1 .344-.99c.151-.01.3.04.415.14l1.652 1.38l3.311-.011l1.653-1.386a.573.573 0 0 1 .802.038a.57.57 0 0 1-.038.802L14.668 5.6l.192.229l-.71.622l-.18-.218l-.703.627v.616a4.75 4.75 0 0 0-2.504.006v-.617z"/><path fill="#010200" d="M7.56 4.797a1.13 1.13 0 0 1-.097-1.598A1.146 1.146 0 0 1 9.072 3.1l1.494 1.254l2.875-.01l1.49-1.266a1.146 1.146 0 0 1 1.608.087c.42.464.382 1.184-.087 1.604L14.93 6.133l-.382-.42l1.528-1.363a.573.573 0 1 0-.764-.846L13.659 4.89l-3.31.01l-1.66-1.374a.573.573 0 0 0-.806.05a.56.56 0 0 0 .054.796l2.82 2.492v.617c-.196.054-.382.12-.567.196v-.55L7.555 4.801z"/><path fill="#010200" d="M13.84 7.672V7.11l.654-.59l-.382-.42l-.845.759v.616c.196.055.387.115.572.191z"/><path fill="#FCF6BA" d="M11.139 20.49a.91.91 0 1 1 1.815-.14a.91.91 0 0 1-1.815.14"/><path fill="#010200" d="M10.566 20.496a1.478 1.478 0 1 1 2.956 0a1.478 1.478 0 0 1-2.956 0m1.478-.911a.91.91 0 1 0-.14 1.814a.91.91 0 0 0 .14-1.814"/><path fill="#FFE8C5" d="M16.114 19.629a.57.57 0 0 1 .049.801a.57.57 0 0 1-.807.044l-1.697-1.402l-3.31.011l-1.61 1.418a.569.569 0 0 1-.758-.845L9.383 18.4l-.191-.224l.709-.627l.18.218l.704-.627v-.61c.82.22 1.685.216 2.503-.012v.617z"/><path fill="#010200" d="M16.496 19.203c.47.415.507 1.135.093 1.604a1.145 1.145 0 0 1-1.61.093l-1.516-1.282l-2.875.01l-1.467 1.293a1.146 1.146 0 0 1-1.61-.087a1.126 1.126 0 0 1 .088-1.598l1.522-1.364l.382.415l-1.527 1.369a.57.57 0 0 0 .763.845l1.615-1.429h3.344l1.658 1.408c.24.207.6.185.807-.055a.563.563 0 0 0-.049-.797l-2.825-2.492v-.617a5 5 0 0 0 .567-.196v.556l2.634 2.324z"/><path fill="#010200" d="M10.212 16.334v.556l-.654.59l.381.42l.846-.759v-.61a5 5 0 0 1-.573-.197"/><path fill="#EC9B8D" d="m18.896 15.936l.927 1.489l.83-1.451l-1.751-.038z"/><path fill="#010200" d="m17.87 15.347l1.964 3.185l1.79-3.11zm1.032.589l1.745.038l-.829 1.45z"/><path fill="#FFE8C5" d="M20.713 12.281a.57.57 0 0 1 .72.36a.57.57 0 0 1-.36.72l-2.1.698l-1.642 2.864l.463 2.16a.569.569 0 0 1-1.113.235l-.398-1.833l-.283.054l-.191-.927l.278-.05l-.197-.916l-.534-.305a4.7 4.7 0 0 0 1.244-2.165l.534.305z"/><path fill="#010200" d="M20.532 11.746a1.134 1.134 0 0 1 .726 2.15l-1.904.632l-1.418 2.488l.414 1.952a1.14 1.14 0 0 1-2.225.475l-.431-1.997l.556-.125l.431 2.002a.57.57 0 0 0 1.113-.24l-.464-2.16l1.637-2.864l2.105-.698a.565.565 0 0 0 .388-.5a.568.568 0 0 0-.748-.58l-3.578 1.2l-.535-.306q.076-.294.11-.589l.485.273l3.333-1.113z"/><path fill="#010200" d="m14.903 15.74l.485.272l.186.862l.556-.12l-.24-1.108l-.534-.305a5 5 0 0 1-.453.398"/><path fill="#EC9B8D" d="m5.172 8.08l-.917-1.488l-.834 1.45l1.745.039z"/><path fill="#010200" d="M6.203 8.67L4.239 5.484L2.45 8.594zm-1.037-.59l-1.745-.037l.834-1.451l.917 1.489z"/><path fill="#FFE8C5" d="M3.36 11.73a.57.57 0 0 1-.743-.348a.567.567 0 0 1 .384-.727l2.1-.703l1.636-2.859l-.458-2.165a.569.569 0 1 1 1.113-.235l.393 1.839l.289-.055l.19.927l-.283.044l.196.922l.54.305a4.7 4.7 0 0 0-1.243 2.166l-.535-.306l-3.578 1.2z"/><path fill="#010200" d="M3.54 12.27a1.134 1.134 0 1 1-.725-2.15l1.898-.637l1.424-2.488l-.414-1.947a1.14 1.14 0 0 1 2.225-.475l.426 1.997l-.551.125l-.431-2.002a.569.569 0 1 0-1.113.235l.464 2.165l-1.637 2.859l-2.105.709a.565.565 0 0 0-.415.735a.567.567 0 0 0 .775.334l3.578-1.195l.534.306a4 4 0 0 0-.109.589l-.49-.273l-3.328 1.113z"/><path fill="#010200" d="m9.17 8.277l-.491-.273l-.18-.867l-.556.126l.234 1.107l.54.305a5 5 0 0 1 .453-.398"/><path fill="#FFE8C5" d="M16.583 4.644a.57.57 0 1 1 1.119.23l-.448 2.16l1.664 2.852l2.11.682a.57.57 0 0 1-.134 1.107a.6.6 0 0 1-.22-.027l-1.789-.584l-.104.273l-.9-.294l.11-.273l-.9-.29l-.535.312a4.7 4.7 0 0 0-1.26-2.155l.535-.31z"/><path fill="#010200" d="M16.027 4.53a1.141 1.141 0 1 1 2.236.458L17.86 6.94l1.446 2.47l1.898.617a1.14 1.14 0 0 1 .729 1.432a1.134 1.134 0 0 1-1.432.728l-1.948-.633l.175-.545l1.947.638a.57.57 0 0 0 .72-.365a.57.57 0 0 0-.365-.71l-2.106-.687l-1.669-2.847l.447-2.166a.573.573 0 0 0-.444-.673a.57.57 0 0 0-.674.444l-.753 3.682l-.534.311a5 5 0 0 0-.458-.393l.485-.278z"/><path fill="#010200" d="m16.67 11.38l.486-.277l.84.272l.174-.545l-1.08-.344l-.534.306q.081.294.114.589"/><path fill="#B7DEF8" d="m19.18 6.782l1.309.328l-.328 1.298l-1.309-.327z"/><path fill="#010200" d="m18.765 6.095l2.411.6l-.6 2.4l-2.41-.6zm.415.688l-.327 1.303l1.309.322l.327-1.304z"/><path fill="#FFE8C5" d="M7.403 19.345a.568.568 0 0 1-1.113-.235l.453-2.165l-1.653-2.853l-2.106-.698a.568.568 0 1 1 .36-1.075l1.79.59l.103-.274l.9.306l-.109.262l.9.3l.535-.311c.213.821.645 1.57 1.249 2.165l-.535.306l-.774 3.676z"/><path fill="#010200" d="M7.959 19.454a1.14 1.14 0 0 1-2.226-.458l.41-1.953l-1.435-2.482l-1.898-.627a1.133 1.133 0 0 1-.53-1.833a1.13 1.13 0 0 1 1.239-.322l1.947.644l-.174.54l-1.948-.644a.56.56 0 0 0-.629.151a.567.567 0 0 0 .27.924l2.105.698l1.653 2.853l-.453 2.165a.569.569 0 0 0 1.113.235l.774-3.682l.535-.306q.214.213.453.393l-.486.278l-.72 3.432z"/><path fill="#010200" d="m7.348 12.603l-.485.278l-.84-.273l-.175.535l1.08.36l.535-.311a3.5 3.5 0 0 1-.115-.59"/><path fill="#B7DEF8" d="m4.823 17.19l-1.31-.327l.328-1.298l1.309.327z"/><path fill="#010200" d="m5.232 17.878l-2.411-.6l.61-2.4l2.412.6zm-.415-.688l.327-1.298l-1.298-.327l-.327 1.298z"/><path fill="#644F90" d="m14.75 11.08l-1.221 1.38l.201 1.817l-1.696-.714l-1.691.758l.175-1.822l-1.239-1.342l1.8-.414l.922-1.588l.938 1.566z"/><path fill="#E9AB44" d="M14.941 11.02a.19.19 0 0 1-.044.192l-1.162 1.314l.191 1.73a.2.2 0 0 1-.078.179a.2.2 0 0 1-.194.022l-1.62-.676l-1.604.72a.2.2 0 0 1-.197-.018a.2.2 0 0 1-.087-.178l.164-1.735l-1.178-1.282a.197.197 0 0 1 .098-.327l1.724-.393l.872-1.516a.203.203 0 0 1 .344 0l.895 1.489l1.723.349c.071.01.131.06.153.13m-.567.186l-1.473-.294a.2.2 0 0 1-.13-.093l-.765-1.276l-.752 1.298a.2.2 0 0 1-.131.098l-1.468.333l1.01 1.09a.23.23 0 0 1 .054.159l-.142 1.478l1.375-.616a.16.16 0 0 1 .158 0l1.386.578l-.164-1.478a.2.2 0 0 1 .049-.153z"/><path fill="#643F85" d="M13.365 11.545a.21.21 0 0 1-.038.196l-.459.518l.071.682a.196.196 0 0 1-.172.216a.2.2 0 0 1-.1-.014l-.644-.268l-.633.284a.203.203 0 0 1-.263-.096a.2.2 0 0 1-.02-.1l.065-.682l-.463-.507a.197.197 0 0 1 .01-.281a.2.2 0 0 1 .093-.047l.676-.152l.344-.6a.203.203 0 0 1 .27-.07a.2.2 0 0 1 .074.07l.354.583l.682.137a.21.21 0 0 1 .147.13z"/><path fill="#73D4EA" d="M13.365 11.545a.21.21 0 0 1-.038.196l-.459.518l.071.682a.196.196 0 0 1-.172.216a.2.2 0 0 1-.1-.014l-.644-.268l-.633.284a.203.203 0 0 1-.263-.096a.2.2 0 0 1-.02-.1l.065-.682l-.463-.507a.197.197 0 0 1 .01-.281a.2.2 0 0 1 .093-.047l.676-.152l.344-.6a.203.203 0 0 1 .27-.07a.2.2 0 0 1 .074.07l.354.583l.682.137a.21.21 0 0 1 .147.13zm-.567.19l-.426-.081a.2.2 0 0 1-.13-.093l-.225-.377l-.218.382a.2.2 0 0 1-.13.093l-.431.098l.294.317a.23.23 0 0 1 .055.158l-.044.425l.398-.18a.2.2 0 0 1 .164 0l.404.17l-.05-.431c0-.055.011-.11.055-.153z"/><path fill="#E4A51A" d="M13.834 9.106a.203.203 0 0 1 .273-.076c.098.054.13.174.082.273l-.3.545a.2.2 0 0 1-.367-.041a.2.2 0 0 1 .018-.15l.294-.545zm1.505 3.71a.2.2 0 0 1 .12.094a.2.2 0 0 1 .017.151a.2.2 0 0 1-.246.136l-.6-.163a.2.2 0 0 1-.142-.168a.2.2 0 0 1 .042-.147a.2.2 0 0 1 .21-.067zm-5.045-3.688a.2.2 0 0 0-.273-.07a.196.196 0 0 0-.065.272l.327.534a.195.195 0 0 0 .273.066a.2.2 0 0 0 .065-.273zm-1.522 3.715a.2.2 0 0 0-.14.173a.2.2 0 0 0 .26.209l.6-.191a.2.2 0 0 0-.12-.382zm3.11 2.547a.199.199 0 0 0 .397 0v-.622a.197.197 0 0 0-.392 0v.622z"/><path fill="#F3D1A3" d="m6.563 13.383l.365.12l.535-.311c.213.821.645 1.57 1.249 2.165l-.535.306l-.081.382a5.57 5.57 0 0 1-1.533-2.662m7.03 4.02a5.63 5.63 0 0 1-3.114.016l.306-.272v-.617a4.76 4.76 0 0 0 2.504-.01v.616zm3.863-4.031a5.57 5.57 0 0 1-1.49 2.624l-.076-.35l-.534-.305a4.7 4.7 0 0 0 1.243-2.165l.535.3l.327-.11zm-.033-2.777l-.332-.109l-.535.306a4.7 4.7 0 0 0-1.26-2.155l.535-.31l.065-.312a5.6 5.6 0 0 1 1.527 2.58m-3.927-3.943l-.23.207v.616a4.75 4.75 0 0 0-2.503.006v-.617l-.245-.212a5.64 5.64 0 0 1 2.978 0m-5.39 1.374l.071.344l.54.305a4.7 4.7 0 0 0-1.243 2.166l-.535-.306l-.365.126a5.57 5.57 0 0 1 1.532-2.635"/></g></svg>