<svg xmlns="http://www.w3.org/2000/svg" xmlns:xlink="http://www.w3.org/1999/xlink" width="24" height="24" viewBox="0 0 24 24"><g fill="none"><path fill="#64C557" fill-rule="evenodd" d="M20.882 16.999V7.01l-8.884-5v9.993l-8.882 4.998L12.001 22l8.876-4.994l.005.003v-.006l.003-.002z" clip-rule="evenodd"/><path fill="#118AB2" d="m3.11 7.01l8.893-5v9.999l-8.893 5z"/><path fill="#00F8B7" d="m12.004 2l8.885 4.999l-2.778 1.804l-8.889-5.228z"/><path fill="#09BD8E" d="M18.111 8.524v3.382L9.222 6.865V3.569z"/><path fill="#FFE3A3" d="m9.22 6.865l8.89 5.027l-3.333 1.879L5.891 8.74z"/><path fill="#FFBB1D" d="M14.775 13.771v3.364L5.89 11.946V8.733z"/><path fill="#FF965E" d="m5.889 11.943l8.888 5.146l-2.776 1.578l-8.89-5z"/><path fill="#D94C00" d="M12 18.667V22l-8.89-5.003v-3.334z"/><path fill="#06D6A0" d="m18.114 8.539l2.775-1.519v9.999l-2.775 1.542z"/><path fill="#FFD166" d="m14.776 13.771l3.335-1.886v6.678l-3.336 1.863z"/><path fill="#F3722C" d="m12 18.664l2.775-1.58v3.36L12 21.997z"/></g></svg>