<svg xmlns="http://www.w3.org/2000/svg" xmlns:xlink="http://www.w3.org/1999/xlink" width="24" height="24" viewBox="0 0 24 24"><g fill="none"><path fill="url(#tokenBrandedStima0)" d="M11.522 2.125a.98.98 0 0 1 .956 0l7.935 4.53a.94.94 0 0 1 .478.816v9.058c0 .333-.183.65-.477.817l-7.936 4.529a.98.98 0 0 1-.956 0l-7.935-4.529a.95.95 0 0 1-.478-.817V7.471c0-.333.183-.65.478-.817z"/><path fill="url(#tokenBrandedStima1)" d="M12.022 12L4.219 7.554l7.803-4.445l7.757 4.445z"/><path fill="url(#tokenBrandedStima2)" d="m12 11.972l-.006 8.92l-7.763-4.474l-.012-8.864z"/><path fill="url(#tokenBrandedStima3)" d="m12 11.972l.005 8.92l7.763-4.474l.011-8.864z"/><path fill="url(#tokenBrandedStima4)" d="m3.953 10.405l8.224 4.596a.59.59 0 0 1 .223.822a.613.613 0 0 1-.834.223L3.342 11.45z"/><path fill="url(#tokenBrandedStima5)" d="m19.919 13.706l-8.253-4.73a.597.597 0 0 1-.222-.827a.61.61 0 0 1 .828-.222l8.263 4.74l-.61 1.039z"/><defs><linearGradient id="tokenBrandedStima0" x1="3.109" x2="21.886" y1="16.329" y2="7.554" gradientUnits="userSpaceOnUse"><stop stop-color="#EBECF3"/><stop offset="1" stop-color="#ACB2C6"/></linearGradient><linearGradient id="tokenBrandedStima1" x1="2.657" x2="20.326" y1="11.775" y2="11.749" gradientUnits="userSpaceOnUse"><stop stop-color="#DD79B2"/><stop offset=".5" stop-color="#D4399B"/><stop offset="1" stop-color="#B94299"/></linearGradient><linearGradient id="tokenBrandedStima2" x1="3.997" x2="17.75" y1="15.558" y2="3.904" gradientUnits="userSpaceOnUse"><stop stop-color="#DD79B2"/><stop offset=".5" stop-color="#D4399B"/><stop offset="1" stop-color="#B94299"/></linearGradient><linearGradient id="tokenBrandedStima3" x1="3.68" x2="17.519" y1="7.525" y2="20.133" gradientUnits="userSpaceOnUse"><stop stop-color="#A7036C"/><stop offset="1" stop-color="#8C136D"/></linearGradient><linearGradient id="tokenBrandedStima4" x1="3.108" x2="23.352" y1="2" y2="8.82" gradientUnits="userSpaceOnUse"><stop stop-color="#E5E7EF"/><stop offset="1" stop-color="#ACB2C6"/></linearGradient><linearGradient id="tokenBrandedStima5" x1="20.353" x2="11.556" y1="10.611" y2="9.599" gradientUnits="userSpaceOnUse"><stop stop-color="#B7BDCE"/><stop offset="1" stop-color="#D0D3E1"/></linearGradient></defs></g></svg>