<svg xmlns="http://www.w3.org/2000/svg" xmlns:xlink="http://www.w3.org/1999/xlink" width="24" height="24" viewBox="0 0 24 24"><g fill="none"><path fill="url(#tokenBrandedStrp0)" d="M5.125 18.875A9.5 9.5 0 0 1 2 11.806a9.52 9.52 0 0 1 4.231-7.931c-.512 1.144-1.106 2.8-1.106 4.137c0 2.213 1.875 5.688 5 6.326l.625-.95c.519.737 1.875 2.337 3.125 2.843a4.44 4.44 0 0 1-4.687 1.263l.312-.944a2.34 2.34 0 0 0-1.875-.95c-1.25 0-2.5.95-2.5 2.531z"/><path fill="url(#tokenBrandedStrp1)" d="M5.138 7.65a9.5 9.5 0 0 0-1.888 5.706a9.6 9.6 0 0 0 1.519 5.182A9.5 9.5 0 0 1 2 11.806a9.52 9.52 0 0 1 4.231-7.931A12.2 12.2 0 0 0 5.138 7.65"/><path fill="url(#tokenBrandedStrp2)" d="M18.875 5.125A9.5 9.5 0 0 1 22 12.194a9.52 9.52 0 0 1-4.231 7.931c.512-1.144 1.106-2.8 1.106-4.137c0-2.213-1.875-5.688-5-6.326l-.625.95c-.519-.737-1.875-2.337-3.125-2.843a4.44 4.44 0 0 1 4.687-1.263l-.312.944c.206.312.875.95 1.875.95c1.25 0 2.5-.95 2.5-2.531z"/><path fill="url(#tokenBrandedStrp3)" d="M18.863 16.35a9.5 9.5 0 0 0 1.887-5.706a9.6 9.6 0 0 0-1.519-5.182a9.5 9.5 0 0 1 2.77 6.732a9.52 9.52 0 0 1-4.232 7.931c.566-1.19.936-2.466 1.094-3.775"/><defs><linearGradient id="tokenBrandedStrp0" x1="2" x2="20.381" y1="14.146" y2="21.579" gradientUnits="userSpaceOnUse"><stop stop-color="#0367AB"/><stop offset="1" stop-color="#0C99D7"/></linearGradient><linearGradient id="tokenBrandedStrp1" x1="19.726" x2="19.034" y1="4.228" y2="18.428" gradientUnits="userSpaceOnUse"><stop stop-color="#076EB0"/><stop offset="1" stop-color="#199CD4"/></linearGradient><linearGradient id="tokenBrandedStrp2" x1="22" x2="3.619" y1="9.854" y2="2.42" gradientUnits="userSpaceOnUse"><stop stop-color="#FBB20B"/><stop offset="1" stop-color="#FEFF42"/></linearGradient><linearGradient id="tokenBrandedStrp3" x1="18.251" x2="20.807" y1="19.806" y2="7.493" gradientUnits="userSpaceOnUse"><stop stop-color="#F38F12"/><stop offset="1" stop-color="#F09508"/></linearGradient></defs></g></svg>