<svg xmlns="http://www.w3.org/2000/svg" xmlns:xlink="http://www.w3.org/1999/xlink" width="24" height="24" viewBox="0 0 24 24"><g fill="none"><path fill="url(#tokenBrandedStsol0)" d="M11.997 14.336L6.302 10.99l-.162.244a7.046 7.046 0 0 0 .945 8.718a6.92 6.92 0 0 0 7.573 1.515a6.9 6.9 0 0 0 2.251-1.515a7.024 7.024 0 0 0 .945-8.718l-.161-.244z"/><path fill="url(#tokenBrandedStsol1)" d="m17.693 11.002l-5.696 3.345l-5.701-3.35l5.718-2.99z"/><path fill="url(#tokenBrandedStsol2)" d="m11.997 2l4.918 7.668l-4.918 2.89z"/><path fill="url(#tokenBrandedStsol3)" d="M11.997 2v10.558l-4.906-2.89z"/><defs><linearGradient id="tokenBrandedStsol0" x1="11.997" x2="11.997" y1="2" y2="22.007" gradientUnits="userSpaceOnUse"><stop stop-color="#498BE9"/><stop offset="1" stop-color="#56F2FF"/></linearGradient><linearGradient id="tokenBrandedStsol1" x1="11.997" x2="11.997" y1="2" y2="21.93" gradientUnits="userSpaceOnUse"><stop stop-color="#4A8CEA"/><stop offset=".7" stop-color="#5ABEF4"/></linearGradient><linearGradient id="tokenBrandedStsol2" x1="13.484" x2="10.73" y1="13.053" y2="22.81" gradientUnits="userSpaceOnUse"><stop stop-color="#FB8174"/><stop offset=".56" stop-color="#568FDD"/></linearGradient><linearGradient id="tokenBrandedStsol3" x1="8.13" x2="9.019" y1="7.24" y2="11.535" gradientUnits="userSpaceOnUse"><stop stop-color="#FFE235"/><stop offset=".61" stop-color="#5DCBA2"/></linearGradient></defs></g></svg>