<svg xmlns="http://www.w3.org/2000/svg" xmlns:xlink="http://www.w3.org/1999/xlink" width="24" height="24" viewBox="0 0 24 24"><mask id="tokenBrandedSun0" width="14" height="14" x="5" y="5" maskUnits="userSpaceOnUse" style="mask-type:alpha"><path fill="#F0F3FA" d="M11.964 18.79a6.827 6.827 0 1 0 0-13.653a6.827 6.827 0 0 0 0 13.653"/></mask><g fill="none"><path fill="url(#tokenBrandedSun1)" fill-rule="evenodd" d="M10.465 2.118v4.47h.588V2.045q.22-.021.441-.032v4.575h.588V2q.386.003.765.036v4.552h.588V2.103q.234.035.465.079v2.865l.553.14l1.314-2.45q.128.051.255.107l-.833 2.761l.488.295l2.08-2.077q.204.144.403.3l-3.107 3.106l.006.006l.412.412L18.614 4.5q.166.147.328.302l-3.16 3.156l.418.412l3.152-3.148q.262.284.501.587l-3.112 3.108l.418.412l3.047-3.044q.154.22.295.449L18.565 8.67l.294.488l2.475-.747l.011.03l-2.286 1.223l.141.553h2.64q.065.359.104.724H17.84v.588h4.148q.01.234.011.47h-4.117v.589h4.1a10 10 0 0 1-.052.588h-4.049v.588h3.961a10 10 0 0 1-.124.588h-2.29l-.135.553l1.903 1.02a10 10 0 0 1-.15.335l-2.059-.62l-.294.489l1.544 1.54q-.186.27-.39.528l-2.665-2.662l-.412.412l2.699 2.702q-.148.165-.304.325l-2.713-2.71l-.418.412l2.71 2.707q-.285.261-.59.498l-2.66-2.658l-.412.412l2.598 2.595q-.235.16-.477.309l-1.463-1.463l-.488.288l.567 1.878a10 10 0 0 1-.32.126l-.918-1.71l-.552.141v1.993l-.265.05v-3.519h-.588v3.607q-.293.035-.589.053V18.34H12V22q-.296 0-.588-.017v-3.654h-.588v3.601q-.285-.033-.565-.083v-1.995l-.553-.14l-.94 1.75a10 10 0 0 1-.432-.158l.566-1.87l-.488-.293l-1.48 1.48a10 10 0 0 1-.618-.395l2.569-2.568l-.412-.412l-2.635 2.629q-.173-.136-.34-.28l2.657-2.654l-.006-.006l-.412-.412l-2.674 2.678a10 10 0 0 1-.537-.56l2.664-2.665v-.006l-.411-.412l-2.63 2.633q-.195-.25-.376-.509l1.559-1.553l-.295-.488l-2.078.627a10 10 0 0 1-.155-.345l1.863-1l-.135-.553H2.285a10 10 0 0 1-.128-.606h4.008v-.588H2.069a10 10 0 0 1-.052-.588H5.53V12H2q0-.216.01-.43H6.1v-.588H2.052q.015-.15.035-.3h2.901l.142-.553L2.546 8.74l.036-.101l2.771.843l.294-.494l-2.19-2.186q.14-.229.29-.45l3.006 3.006l.418-.417l-3.075-3.067a10 10 0 0 1 .283-.349L7.483 8.63l.411-.412L4.771 5.09a10 10 0 0 1 .556-.538L8.441 7.67l.412-.412l-3.08-3.083q.182-.144.37-.28L8.347 6.1l.488-.295l-.889-2.947l.125-.054l1.347 2.513l.553-.135V2.208q.245-.051.494-.09m-1.082.23q-.387.105-.764.24l.764 1.423zm-1.976.769a10 10 0 0 0-.77.443l1.298 1.298zM3.158 7.328a10 10 0 0 0-.362.762l1.61.486zm-.79 1.986a10 10 0 0 0-.185.78h1.641zm.08 5.644q.064.21.138.415l.773-.415zm.779 1.84q.104.193.218.38l.638-.637zm4.24 4.116q.161.081.325.157l.208-.69zm1.873.726q.165.045.33.085v-.702zm5.278.011q.158-.043.314-.09l-.314-.585zm1.74-.651q.16-.078.317-.16l-.522-.523zm4.205-3.836q.11-.183.214-.371l-.836-.252zm.85-1.79q.078-.215.145-.433h-.952zm.302-5.745A10 10 0 0 0 21.54 9l-1.17.628zm-.61-1.766a10 10 0 0 0-.3-.602l-.993.991zm-3.85-4.371q-.34-.21-.695-.392l-.472 1.558zm-2.045-.963q-.356-.12-.722-.215v1.562z" clip-rule="evenodd"/><path fill="#F8BA3A" d="M12 18.764a6.765 6.765 0 1 0 .001-13.53a6.765 6.765 0 0 0 0 13.53"/><path fill="#F0F3FA" d="M12.001 5.529a6.47 6.47 0 1 0 0 12.94a6.47 6.47 0 0 0 0-12.94m-7.059 6.47a7.059 7.059 0 1 1 14.118 0a7.059 7.059 0 0 1-14.118 0"/><g mask="url(#tokenBrandedSun0)"><path fill="#F0F3FA" d="m12.281 4.836l-.9 7.253h.9l-.353 6.7l6.589-1.176l1.188-9.194l-2.9-2.553z"/><path fill="#01C1AE" d="M17.8 8.605c.393.182.729.476.788.93c.058.494-.024 1.235-.242 1.87c-.104.32-.263.618-.47.882c-.212.26-.494.465-.853.512c-1.647.2-3.018.07-4.035-.476a3.3 3.3 0 0 1-1.16-1.03q-.059.23-.152.447c-.447 1.024-1.512 1.9-3.741 2.177a2.05 2.05 0 0 1-1.865-.818a3.85 3.85 0 0 1-.782-1.93a1.43 1.43 0 0 1 .47-1.282c.335-.317.824-.54 1.383-.717c1.111-.341 2.688-.53 4.447-.747l.035-.006c1.794-.224 3.43-.294 4.647-.177c.606.065 1.135.177 1.53.365m-5.5.718c1.735-.206 2.776-.465 3.893-.353c.571.059 1.006.164 1.295.294c.294.141.364.27.376.359c.041.37-.018 1-.206 1.547a2.2 2.2 0 0 1-.347.659c-.13.158-.259.229-.376.24c-1.577.195-2.777.06-3.6-.393c-.8-.43-.965-.971-1.112-2.142c-.006-.076.118-.158.076-.211m-1.389.211c-1.576.195-2.612.048-3.559.336c-.523.159-.882.34-1.1.547a.71.71 0 0 0-.24.659c.07.582.293 1.158.623 1.564c.33.394.735.606 1.211.547c2.06-.253 2.848-1.023 3.16-1.735c.281-.647.223-1.312.176-1.806c-.006-.094-.106-.088-.112-.165c0-.07-.188.112-.159.053"/><path fill="#F0F3FA" d="M12.07 16.375c1.5-.123 2.618-1.329 2.512-2.7l-5.423.442c.117 1.37 1.417 2.382 2.911 2.258"/><path fill="#FE9D51" d="M14.705 13.546q.06.043.059.112c.123 1.47-1.083 2.747-2.653 2.876c-1.577.13-2.97-.935-3.094-2.412c0-.088.058-.17.153-.176l5.417-.441a.16.16 0 0 1 .118.04m-5.335.718c.188 1.176 1.352 2.047 2.711 1.94c1.353-.117 2.365-1.158 2.365-2.352z"/><path fill="#FE9A54" d="M12.641 14.905c0-.077.059-.136.135-.136h1.483a.135.135 0 0 1 0 .265h-1.483a.135.135 0 0 1-.135-.13"/><path fill="#000" d="M13.581 11.84a2.88 2.88 0 0 1-1.706-2.13c0-.711.8-.806 2.765-.806c1.97 0 3.165.16 3.265.677c.094.9-.23 2.259-.683 2.482c-.447.224-2.188.324-3.647-.223zm-3.418.6a2.61 2.61 0 0 0 1.13-2.794c-.165-.57-1.07-.43-2.77-.165c-1.518.241-2.677.906-2.548 1.488c.059.947.794 1.953 1.224 2.124c.43.176 1.806.117 2.97-.647z"/><path fill="#F0F3FA" d="m18.222 6.646l.57 1.53l1.53.564l-1.53.565l-.57 1.53l-.565-1.53l-1.53-.565l1.53-.565z"/></g><defs><linearGradient id="tokenBrandedSun1" x1="12" x2="12" y1="2" y2="22" gradientUnits="userSpaceOnUse"><stop stop-color="#F5B745"/><stop offset="1" stop-color="#FC8B47"/></linearGradient></defs></g></svg>