<svg xmlns="http://www.w3.org/2000/svg" xmlns:xlink="http://www.w3.org/1999/xlink" width="24" height="24" viewBox="0 0 24 24"><g fill="none"><path fill="url(#tokenBrandedSwise0)" d="M3.667 17.778L12.005 22v-8.283l-8.339 4.055z"/><path fill="url(#tokenBrandedSwise1)" d="m12.006 22l8.327-4.206l-8.327-4.077z"/><path fill="url(#tokenBrandedSwise2)" d="m12.006 13.717l8.328 4.077l-3.4-6.466L12 13.722z"/><path fill="url(#tokenBrandedSwise3)" d="m3.667 17.778l8.338-4.061l-4.916-2.4z"/><path fill="url(#tokenBrandedSwise4)" d="m7.09 11.317l4.91 2.4V2l-4.916 9.317z"/><path fill="url(#tokenBrandedSwise5)" d="m12.006 13.717l4.928-2.39L12 2v11.722z"/><defs><linearGradient id="tokenBrandedSwise0" x1="7.186" x2="25.334" y1="4.052" y2="11.676" gradientUnits="userSpaceOnUse"><stop stop-color="#8277A6"/><stop offset="1" stop-color="#655880"/></linearGradient><linearGradient id="tokenBrandedSwise1" x1="2.366" x2="17.993" y1="23.851" y2="4.726" gradientUnits="userSpaceOnUse"><stop stop-color="#665A82"/><stop offset=".24" stop-color="#73638D"/><stop offset="1" stop-color="#B4A6D1"/></linearGradient><linearGradient id="tokenBrandedSwise2" x1="11.611" x2="30.638" y1="16.364" y2="2.694" gradientUnits="userSpaceOnUse"><stop stop-color="#B0A0CE"/><stop offset="1" stop-color="#CEC6E2"/></linearGradient><linearGradient id="tokenBrandedSwise3" x1="12.25" x2="16.065" y1="14.554" y2="7.103" gradientUnits="userSpaceOnUse"><stop stop-color="#887CAE"/><stop offset="1" stop-color="#7A6E9B"/></linearGradient><linearGradient id="tokenBrandedSwise4" x1="24.176" x2="9.524" y1="12.005" y2="12.005" gradientUnits="userSpaceOnUse"><stop stop-color="#B0A0CE"/><stop offset="1" stop-color="#887CAE"/></linearGradient><linearGradient id="tokenBrandedSwise5" x1="13.478" x2="16.512" y1="9.244" y2="12.139" gradientUnits="userSpaceOnUse"><stop stop-color="#B0A0CE"/><stop offset="1" stop-color="#CEC6E2"/></linearGradient></defs></g></svg>