<svg xmlns="http://www.w3.org/2000/svg" xmlns:xlink="http://www.w3.org/1999/xlink" width="24" height="24" viewBox="0 0 24 24"><g fill="none"><path fill="url(#tokenBrandedThor0)" d="M22 12a10 10 0 1 1-20 0a10 10 0 0 1 20 0m-10 9.412a9.411 9.411 0 1 0 0-18.823a9.411 9.411 0 0 0 0 18.823"/><path fill="url(#tokenBrandedThor1)" d="m10.094 8.476l2.165 2.094l4.806-5.117l-6.97 3.018zm8.036-4.123l.34.459l-6.193 6.6l-3.218-3.118z"/><path fill="url(#tokenBrandedThor2)" d="m14.53 14.388l-2.219-2.123l-5.758 5.976zm-9 4.965l-.33-.47l7.094-7.471l3.235 3.164z"/><defs><linearGradient id="tokenBrandedThor0" x1="18.765" x2="6.118" y1="4.353" y2="19.353" gradientUnits="userSpaceOnUse"><stop stop-color="#37FAF9"/><stop offset="1" stop-color="#08ACFC"/></linearGradient><linearGradient id="tokenBrandedThor1" x1="20.9" x2="2.857" y1="2.75" y2="13.794" gradientUnits="userSpaceOnUse"><stop stop-color="#3EFFFA"/><stop offset="1" stop-color="#29E0EE"/></linearGradient><linearGradient id="tokenBrandedThor2" x1="6.789" x2="13.818" y1="18.476" y2="13.011" gradientUnits="userSpaceOnUse"><stop stop-color="#14AAFE"/><stop offset="1" stop-color="#1CD2F1"/></linearGradient></defs></g></svg>