<svg xmlns="http://www.w3.org/2000/svg" xmlns:xlink="http://www.w3.org/1999/xlink" width="24" height="24" viewBox="0 0 24 24"><g fill="none"><path fill="#0E134D" d="M12 22c5.523 0 10-4.477 10-10S17.523 2 12 2S2 6.477 2 12s4.477 10 10 10"/><path fill="#0E376B" d="M12 20.75a8.75 8.75 0 1 0 0-17.5a8.75 8.75 0 0 0 0 17.5"/><path fill="#0E608C" d="M12 18.875a6.875 6.875 0 1 0 0-13.75a6.875 6.875 0 0 0 0 13.75"/><path fill="#fff" d="m8.875 11.356l-.638-2.031l-.568.625l.656 2.05z"/><path fill="#A5BCCA" d="m6.3 8.875l-.55.662l1.918.413l.563-.625l-1.938-.45z"/><path fill="#fff" d="M12 10.731L11.363 8.7l-.57.625l.657 2.05z"/><path fill="#A5BCCA" d="m9.425 8.25l-.55.662l1.919.413l.562-.625l-1.937-.45z"/><path fill="#fff" d="m15.75 10.125l-.638-2.05l-.569.631l.657 2.063z"/><path fill="#A5BCCA" d="m13.175 7.625l-.55.669l1.919.412l.562-.625l-1.937-.456z"/><path fill="#fff" d="m15.125 13.856l-.644-2.031l-.57.625l.663 2.05z"/><path fill="#A5BCCA" d="m12.53 11.375l-.555.662l1.937.413l.563-.625z"/><path fill="#fff" d="m15.125 17.606l-.638-2.031l-.568.625l.656 2.05z"/><path fill="#A5BCCA" d="m12.55 15.125l-.55.662l1.918.413l.563-.625l-1.937-.45z"/></g></svg>