<svg xmlns="http://www.w3.org/2000/svg" xmlns:xlink="http://www.w3.org/1999/xlink" width="24" height="24" viewBox="0 0 24 24"><path fill="#BE7C40" fill-rule="evenodd" d="M6.002 5.018a1.562 1.562 0 1 0-.875.075v3.061l6.142-4.098l-.944 7.034l-7.697 4.311l7.41 2.75l-1.68 1.124a1.562 1.562 0 1 0 .437.662l2.855-2.093l-7.216-2.624l6.197-3.505l7.41 4.898l-1.15-7.447l1.45.737a1.56 1.56 0 1 0 .418-.624l-2.892-1.475l1.13 7.291l-5.916-4.005l1.137-8.684L5.996 6.78V5.018zm.175-1.456a.737.737 0 1 1-1.474 0a.737.737 0 0 1 1.474 0m13.632 7.61a.737.737 0 1 0 0-1.475a.737.737 0 0 0 0 1.475M8.051 20.43a.737.737 0 1 1-1.474 0a.737.737 0 0 1 1.474 0" clip-rule="evenodd"/></svg>