<svg xmlns="http://www.w3.org/2000/svg" xmlns:xlink="http://www.w3.org/1999/xlink" width="24" height="24" viewBox="0 0 24 24"><g fill="#8A71EA"><path d="m5.126 5.28l.062 4.33c8.74-3.863 13.233 2.577 14.388 6.28l2.164.262c-.209-.859-.646-1.728-.839-2.055H22c-.262-1.097-1.28-2.391-1.755-2.9l.929-.39c-.662-1.15-2.073-2.161-2.696-2.522l.793-.583c-1.088-1.078-2.643-1.607-3.285-1.736l.487-.594c-.707-.32-2.818-.335-3.786-.302V3.98c-1.247.04-3.064.883-3.817 1.3l-.074-1.237c-.863.395-2.02 1.534-2.49 2.054z"/><path d="M8.092 8.071c.09-.197-.037-.287-.11-.307c1.635-.576 2.673-.605 2.987-.547c-.72 1.252-2.95 1.754-3.137 1.611c-.185-.142.15-.51.26-.757m4.627.189c2.776.111 5.1 2.168 5.914 3.182l.493.957c-2.718.362-4.44-.838-4.961-1.483c-.237-.293-.128-.405 0-.44c1.08-.302 1.95.024 2.25.225c1.046.756 1.736 1.032 1.95 1.075c-.2-.112-.776-.482-1.479-1.076c-.703-.593-1.478-.662-1.778-.623c-1.423.195-2.679.023-3.129-.086c-.91-.283-2.53-.933-1.724-1.269s1.978-.448 2.464-.462m5.172 4.9c.967.431 1.564 1.928 1.776 2.789c-.077 0-1.147.035-1.672.053c-1.576-.607-2.619-2.589-2.75-2.841c-.24-.456.049-.555.222-.548c1.023.03 2.042.378 2.424.548m-2.469 2.706c.085.132.112.463.115.613c.278-.187.965-.3 1.274-.331c-.71-.537-1.173-.693-1.274-.593c-.074.048-.2.18-.115.31"/><path fill-rule="evenodd" d="m2 8.43l3.79 4.248c.092.092.26.294.202.37s-.442-.09-.627-.183c.037.423.022 1.393-.327 1.88c-.35.488-1.038 1.562-1.338 2.038a.7.7 0 0 0-.072.402l.011.146c.02.3.055.822.26 1.39c.174.482.416.376.865.18l.178-.076c.565-.238 6.12-3.848 6.459-4.08c.339-.23.969-.93.774-1.88c-.242-1.187-.924-1.63-1.78-1.63c-.684 0-1.672.125-2.08.188c-.477.065-1.652.043-2.525-.572S2.9 8.981 2 8.431m6.071 4.305c.53-.24.905.29.807.305c-.413.06-.807.187-1.105.477c-.082.08-.209-.553.298-.782" clip-rule="evenodd"/><path d="M10.144 16.236c.463 1.603-.225 3.19-.627 3.783c2.517-2.248 4.46-3.084 5.116-3.221c1.102-4.104-1.412-5.796-1.855-5.932c-.355-.11-.348.084-.3.195c1.043 2.949-1.121 4.678-2.334 5.175M7.562 9.473c-1.16.006-1.713-.285-1.845-.43l-.144.105c.395.617.725 1.023 1.232 1.315c.578.333 1.447.236 1.917.138c1.837-.194 2.658.439 2.868.455c.168.013.123-.168.08-.26c-.765-1.316-2.658-1.331-4.108-1.323"/></g></svg>