<svg xmlns="http://www.w3.org/2000/svg" xmlns:xlink="http://www.w3.org/1999/xlink" width="24" height="24" viewBox="0 0 24 24"><g fill="none"><path fill="#98E5B7" d="M5.177 21.212L2.2 4.576l9.635-1.635c2.312-.388 5.747-.447 7.236 2.983c1.2 2.747-.653 5.4-1.73 6.382l4.353 5.876l-7.482 1.418l-2.865-4.635l-.3.082l.965 4.97l-6.841 1.195z"/><path fill="#000" d="M15.806 2.835a5.06 5.06 0 0 1 3.43 3.024a5.08 5.08 0 0 1-.012 3.982a7.4 7.4 0 0 1-1.648 2.488L22 18.294l-7.87 1.494l-2.86-4.63l-.023.007l.97 4.988l-7.188 1.259L2 4.435l.176-.03l9.63-1.635c1.165-.194 2.63-.311 4 .065m-.088.335c-1.3-.352-2.706-.252-3.853-.058l-9.46 1.606l2.907 16.294l6.494-1.136l-.965-4.953l.588-.158l2.871 4.647l7.094-1.353l-4.288-5.777l.117-.106c.518-.47 1.236-1.364 1.671-2.464c.441-1.1.594-2.4.024-3.718a4.71 4.71 0 0 0-3.2-2.824"/><path fill="#000" d="m9.46 5.43l4.448-.765c1.188-.2 4.011-.06 4.835 2.576c1.03 3.288-.935 5.194-2.647 5.765l-4.912.97c-1.782.436-5-.823-5-3.958c0-3.142 2.182-4.365 3.277-4.589M14.59 13c2.27 0 4.118-1.835 4.118-4.094a4.106 4.106 0 0 0-4.118-4.088c-2.277 0-4.118 1.829-4.118 4.088A4.104 4.104 0 0 0 14.59 13"/></g></svg>