<svg xmlns="http://www.w3.org/2000/svg" xmlns:xlink="http://www.w3.org/1999/xlink" width="24" height="24" viewBox="0 0 24 24"><mask id="tokenBrandedTrias0" width="20" height="20" x="2" y="2" maskUnits="userSpaceOnUse" style="mask-type:luminance"><path fill="#fff" d="M22 2H2v20h20z"/></mask><g fill="none"><g mask="url(#tokenBrandedTrias0)"><mask id="tokenBrandedTrias1" width="20" height="20" x="2" y="2" maskUnits="userSpaceOnUse" style="mask-type:luminance"><path fill="#fff" d="M2 2h20v20H2z"/></mask><g mask="url(#tokenBrandedTrias1)"><path fill="url(#tokenBrandedTrias2)" fill-rule="evenodd" d="M12.528 6.34a.265.265 0 0 0-.357.033l-5.83 6.742a.222.222 0 0 0 .048.335l6.252 4.22a.27.27 0 0 0 .315-.015l3.96-3.278a.22.22 0 0 0 .074-.237l-1.703-5.668zm-5.682 6.812l6.124.555l.44-3.977l-1.162-2.824zm6.08.94L7.3 13.584l5.289 3.57zm.418.039l2.92.264l-3.248 2.69zm3.177-.103l-3.134-.284l.428-3.863l1.166-.98zm-1.766-5.46l-1.021.857l-.996-2.417z" clip-rule="evenodd"/></g></g><defs><linearGradient id="tokenBrandedTrias2" x1="7.6" x2="14.483" y1="7.2" y2="14.761" gradientUnits="userSpaceOnUse"><stop stop-color="#79DCE5"/><stop offset=".807" stop-color="#12ABA9"/></linearGradient></defs></g></svg>