<svg xmlns="http://www.w3.org/2000/svg" xmlns:xlink="http://www.w3.org/1999/xlink" width="24" height="24" viewBox="0 0 24 24"><g fill="none"><path fill="url(#tokenBrandedTtk0)" d="M3.77 17.676a9.95 9.95 0 0 1-1.751-6.102a5.4 5.4 0 0 0 1.752.723z"/><path fill="url(#tokenBrandedTtk1)" d="M9.06 21.556a10 10 0 0 1-2.733-1.323h2.145v.588h.588z"/><path fill="url(#tokenBrandedTtk2)" d="M10.236 21.844v-1.023h.294v-.588h.294v-8.23h-.294v-.587h-.294V10.24h3.527v1.176h-.294v.588h-.294v8.23h.294v.587h.294v1.023a10 10 0 0 1-3.527 0"/><path fill="url(#tokenBrandedTtk3)" d="M17.671 20.233a10 10 0 0 1-2.733 1.323v-.735h.588v-.588z"/><path fill="url(#tokenBrandedTtk4)" d="M18.465 12.592h-3.527v1.175h.294v.588h.294v5.29h2.351v-5.29h.294v-.588h.294z"/><path fill="url(#tokenBrandedTtk5)" d="M9.06 12.592H5.533v1.175h.294v.588h.294v5.29h2.351v-5.29h.294v-.588h.294z"/><path fill="url(#tokenBrandedTtk6)" d="M19.64 18.44a9.95 9.95 0 0 0 2.323-7.171h-.012a.295.295 0 0 1-.3.141c-.588.27-1.364.594-2.01.594z"/><path fill="url(#tokenBrandedTtk7)" d="M21.933 10.946a.294.294 0 0 0-.529.135c-1.634-.165-2.762-.782-3.127-1.446a.294.294 0 0 0-.106-.57c-.294 0-.294.294-.294.294v.293h-2.939v-.881c1.41 0 2.545-.588 2.94-.882c-1.682.059-2.47-.6-2.775-1.2a.588.588 0 1 0-.753-.563H9.648a.588.588 0 1 0-.753.564q-.176.37-.458.605L3.48 6.778q.205-.334.435-.652h3.38l-2.992-.5a9.976 9.976 0 0 1 15.59.253l-3.78.54l4.35.27q.184.301.353.612h-3.528l3.798.541c.451.983.74 2.034.852 3.11z"/><path fill="url(#tokenBrandedTtk8)" d="M2.3 10.828a.3.3 0 0 0-.235.118c.118-1.2.459-2.334.976-3.374l5.396-.277c-.676.576-1.716.659-2.316.594c.236.705 1.664.882 2.352.882v.881H6.12V9.36a.294.294 0 1 0-.293.293c-.682 1.194-2.07 1.429-3.234 1.47a.294.294 0 0 0-.293-.294"/><defs><linearGradient id="tokenBrandedTtk0" x1="12" x2="12" y1="2.01" y2="21.997" gradientUnits="userSpaceOnUse"><stop offset=".71" stop-color="#C9AF67"/><stop offset="1" stop-color="#A58C51"/></linearGradient><linearGradient id="tokenBrandedTtk1" x1="43.417" x2="43.417" y1="-273.554" y2="28.667" gradientUnits="userSpaceOnUse"><stop offset=".71" stop-color="#C9AF67"/><stop offset="1" stop-color="#A58C51"/></linearGradient><linearGradient id="tokenBrandedTtk2" x1="12.028" x2="12.028" y1="-11.996" y2="21.995" gradientUnits="userSpaceOnUse"><stop offset=".71" stop-color="#C9AF67"/><stop offset="1" stop-color="#A58C51"/></linearGradient><linearGradient id="tokenBrandedTtk3" x1="-19.361" x2="-19.361" y1="-273.554" y2="28.667" gradientUnits="userSpaceOnUse"><stop offset=".71" stop-color="#C9AF67"/><stop offset="1" stop-color="#A58C51"/></linearGradient><linearGradient id="tokenBrandedTtk4" x1="-14.541" x2="-14.541" y1="-28" y2="28.667" gradientUnits="userSpaceOnUse"><stop offset=".71" stop-color="#C9AF67"/><stop offset="1" stop-color="#A58C51"/></linearGradient><linearGradient id="tokenBrandedTtk5" x1="38.596" x2="38.596" y1="-28" y2="28.667" gradientUnits="userSpaceOnUse"><stop offset=".71" stop-color="#C9AF67"/><stop offset="1" stop-color="#A58C51"/></linearGradient><linearGradient id="tokenBrandedTtk6" x1="-62.728" x2="-62.728" y1="-23.82" y2="31.918" gradientUnits="userSpaceOnUse"><stop offset=".71" stop-color="#C9AF67"/><stop offset="1" stop-color="#A58C51"/></linearGradient><linearGradient id="tokenBrandedTtk7" x1="11.26" x2="11.26" y1="2.024" y2="46.041" gradientUnits="userSpaceOnUse"><stop stop-color="#927A47"/><stop offset=".4" stop-color="#CAB067"/><stop offset=".71" stop-color="#C9AF67"/></linearGradient><linearGradient id="tokenBrandedTtk8" x1="12" x2="12" y1="2.011" y2="21.997" gradientUnits="userSpaceOnUse"><stop stop-color="#927A47"/><stop offset=".4" stop-color="#CAB067"/><stop offset=".71" stop-color="#C9AF67"/></linearGradient></defs></g></svg>