<svg xmlns="http://www.w3.org/2000/svg" xmlns:xlink="http://www.w3.org/1999/xlink" width="24" height="24" viewBox="0 0 24 24"><path fill="#3274C0" fill-rule="evenodd" d="M3.515 5.184c.015 3.72.045 10.008 1.5 11.894c1.57 2.035 3.782 3.255 5.294 4.089c.498.274.92.508 1.218.714c.215.149.53.163.745.014c.418-.29 1.016-.624 1.69-1.001c1.742-.976 3.98-2.23 4.858-3.688c1.313-2.18 1.57-8.144 1.665-11.964a.71.71 0 0 0-.724-.717c-3.151.017-5.922-1.152-7.297-2.319c-.303-.257-.765-.281-1.072-.028C9.07 4.092 6.244 4.438 4.195 4.49a.694.694 0 0 0-.68.693m2.121 1.311c.015 2.633.268 8.237 1.164 9.59c.717 1.083 2.427 1.96 3.697 2.61c.714.366 1.289.66 1.47.88c.287-.267.887-.59 1.588-.966c1.247-.669 2.813-1.51 3.508-2.524c.785-1.149 1.24-6.836 1.3-9.59c-2.92.189-5.48-1.302-6.396-2.07c-1.85 1.554-4.991 2.028-6.33 2.07" clip-rule="evenodd"/></svg>