<svg xmlns="http://www.w3.org/2000/svg" xmlns:xlink="http://www.w3.org/1999/xlink" width="24" height="24" viewBox="0 0 24 24"><g fill="none"><path fill="url(#tokenBrandedUbxs0)" d="M21.908 10.623a9.48 9.48 0 0 0-4.455-6.766a10 10 0 0 0-1.341-.683l.37-.588l-2.141.541l.712 1.724l.47-.741a7.94 7.94 0 0 1 3.772 3.589a7.78 7.78 0 0 1 .541 5.59a8.2 8.2 0 0 1-1.423 2.83a8.5 8.5 0 0 1-2.636 2.241l-1.1-3.648q.407-.178.805-.376l.177-.106l.047-.024c.294-.189.556-.423.777-.694c.207-.27.37-.572.482-.894a2.8 2.8 0 0 0-.112-2.042A2.73 2.73 0 0 0 15.03 8.87a4 4 0 0 0-.93-.17q.311-.23.507-.483c.135-.171.235-.342.294-.53q.088-.263.07-.553a1.8 1.8 0 0 0-.135-.588a2.6 2.6 0 0 0-.312-.56a2 2 0 0 0-.453-.429l-.053-.035l-.023-.018l-.012-.012h-.012l-.03-.023l-.023-.012l-.03-.018l-.017-.011h-.011a3 3 0 0 0-.689-.283a3 3 0 0 0-.694-.064h-.053l-.059.011h-.047l-.147.024l-.177.018l-.188.029l-.353-1.194l-1.06.264l.307 1.16l-.041.011l-.03.012h-.017l-.012.006l-.041.012l-.036.005l-.04.012l-.036.006l-.706.183l-.642-2.778l-.111.036h-.012l-.118.04l-.117.042l-.13.047l-.188.07l-.053.024l-.235.094a10.8 10.8 0 0 0-2.06 1.177a10.07 10.07 0 0 0-3.4 4.384a9.7 9.7 0 0 0-.56 5.036a9.1 9.1 0 0 0 1.248 3.401c.335.559.73 1.077 1.188 1.571l-.853 1.283l3.16-.806l-.318-3.484l-.812 1.224a7.7 7.7 0 0 1-2.083-3.895a7.84 7.84 0 0 1 .224-3.9a8.14 8.14 0 0 1 2.53-3.802A8.8 8.8 0 0 1 8.304 4.18l.33 1.736l-2.342.588l.147 1.354l1.153-.294l.971 6.595l-1.4.353l.235 2.16l3.119-.795l.429 2.295l1.542-.4l-.518-2.26l.894-.229l.094-.023l.1-.024l.095-.03l.094-.023l1.635 6.231h.012q.423-.12.824-.3l.176-.076a10 10 0 0 0 4.025-3.084a9.8 9.8 0 0 0 1.994-7.33zm-11.415-1.73l-.447-1.941l.606-.153l.059-.018q.457-.11.93-.118l.217.042a.66.66 0 0 1 .33.205l.117.177q.118.234.147.494v.236a.73.73 0 0 1-.176.382c-.047.059-.106.1-.177.153a2.7 2.7 0 0 1-.523.259q-.175.06-.353.106l-.736.176zm3.53 3.042a1 1 0 0 1-.059.294a.8.8 0 0 1-.135.236a1.3 1.3 0 0 1-.224.212c-.094.07-.2.13-.317.194q-.452.221-.942.33l-.823.211l-.671-2.907l.765-.194q.429-.108.87-.14c.13 0 .242 0 .354.017a1.01 1.01 0 0 1 .765.412q.101.129.176.276c.125.276.204.57.235.87c.012.06.012.13.006.19"/><defs><linearGradient id="tokenBrandedUbxs0" x1="12" x2="12" y1="2.586" y2="21.414" gradientUnits="userSpaceOnUse"><stop stop-color="#5BC8CB"/><stop offset="1" stop-color="#03A4DF"/></linearGradient></defs></g></svg>