<svg xmlns="http://www.w3.org/2000/svg" xmlns:xlink="http://www.w3.org/1999/xlink" width="24" height="24" viewBox="0 0 24 24"><g fill="none" fill-rule="evenodd" clip-rule="evenodd"><path fill="#2BBDF7" d="M17.175 8.765s.921-.018 4.103 0c.403.023.722.39.722.809a.8.8 0 0 1-.189.517l-1.288 2.293l-.031.057l-3.188 5.686a2.37 2.37 0 0 1-2.013 1.226h-.099l-9.432-.05H4.71v-.019a2.39 2.39 0 0 0 1.81-1.355h.007l4.622-8.277c.259-.526.79-.887 1.401-.887l-.043.002l.002-.002z"/><path fill="#2B6DEF" d="M9.792 4.654h8.326a.78.78 0 0 1 .721.789a.8.8 0 0 1-.138.453l-4.636 8.315h.021l-.764 1.368c-1.25 1.153-.888 2.62.198 3.318l.067.04c.272.163 0 .163.766.416h-10c-.388-.007-.74-.144-1.104-.352c-1.17-.67-1.594-2.196-.945-3.406l5.18-9.657a2.41 2.41 0 0 1 2.308-1.284"/><path fill="#003CB2" d="M12.615 8.766h4.48l-3.706 6.847c-1.356 2.479.216 3.737 1.799 3.737h-3.857l-.002.003H4.941a2.36 2.36 0 0 0 1.773-1.169l.046-.08l4.725-8.71a1.51 1.51 0 0 1 1.147-.63z"/></g></svg>