<svg xmlns="http://www.w3.org/2000/svg" xmlns:xlink="http://www.w3.org/1999/xlink" width="24" height="24" viewBox="0 0 24 24"><g fill="none"><path fill="#B10001" d="M5.633 6c.2 0-.415.65-.75.98c-.41.654-1.29 1.964-1.49 1.964c-.25 0-.126-.25 0-.49c.124-.25-.126-.125-.5-.365c-.38-.25.12-.25.37-.49c.25-.25-.626-.125-1.126-.365c-.5-.25.5-.125.875 0c.375.115.25-.125.25-.37c0-.25-.5-.615-.38-.735c.125-.125.38.49.75.485c.38 0 .125-.61.25-.61s.13.61.25.61c.13 0 .25-.61.375-.61c.126 0-.12.61 0 .73c.13.125.876-.735 1.126-.735m12.116 12c-.2 0 .415-.65.75-.98c.415-.65 1.3-1.96 1.5-1.96c.25 0 .126.25 0 .49c-.124.25.126.125.5.37c.376.246-.124.246-.374.49c-.25.245.625.12 1.125.366c.5.25-.5.125-.875 0c-.375-.12-.25.125-.25.37s.5.61.375.735c-.125.12-.375-.49-.75-.49c-.376 0-.125.61-.25.61c-.126 0-.126-.61-.25-.61c-.126 0-.25.61-.376.61c-.125 0 .125-.61 0-.735C18.75 17.15 18 18 17.75 18"/><path fill="#5A0000" d="M4.248 12.525c.08-.12.32-.36.62-.36s.46.16.5.24c.165-.12.55-.34.75-.24c.2.095.83.28 1.12.36c.165-.2.57-.58.87-.485c.375.125.75.365.75.605c0 .195-.58 1.93-.875 2.77h.625l.75-2.65c.12-.2.55-.625 1.246-.725c.87-.12 1.495 0 1.62.605c.085-.08.35-.265.75-.36c.4-.1 1.41-.04 1.865 0c.085-.04.25.02.25.6c0 .725-.5 1.45-.87 1.45c-.375 0-.625-.365-.5-.485s.25-.48 0-.36s-1.25 2.05-1 2.05c.165 0 .535-.255.85-.465c.165-.115.31-.22.4-.26c.2-.1.415.12.5.24l1.12-2.65c.085-.12.3-.34.5-.24c.2.095.25.68.25.96c.5-.36 1.546-1.06 1.746-.96c.25.12-.5 1.445-1.376 2.05c.21.44.625 1.37.625 1.565c.04-.08.175-.24.375-.24s.33-.08.376-.125c-.21-.04-.626-.165-.626-.36V13.85c.29-.56 1.1-1.685 1.996-1.685c.25 0 .72.07.62.36c.21-.12.675-.34.875-.24c.155.075-.08.435-.31.785c-.135.205-.27.405-.315.54c-.125.36-.5.845-.87.845c-.375 0-.75-.365-.625-.6c-.125.075-.35.26-.25.355q.106.08.23.13c.2.1.48.235.645.475c.2.29.33.685.375.845c-.085.4-.4 1.2-1 1.2s-1.66.085-2.12.125c-.166-.04-.47-.17-.37-.36c.1-.195.12-.325.12-.364l-.75-1.086l-.37 1.085c-.206.24-.67.725-.87.725s-.336-.32-.376-.485c-.29.166-.925.485-1.125.485h-1.12c-.205-.04-.625-.194-.625-.485c-.165.166-.57.485-.87.485s-.956-.32-1.25-.485c0 .085-.05.245-.25.245h-1.49c-.046.08-.2.24-.5.24s-1.121-.32-1.501-.485c-.245.2-.82.58-1.12.485l-.75-.24l.75-4.22zm5.73 2.77c.085-.08.276-.19.376 0l.75-1.685c.04-.12.07-.34-.125-.24c-.25.12-.5.24-.625.72c-.1.385-.29.965-.376 1.205"/><path fill="#5A0000" fill-rule="evenodd" d="M5.123 6.519c.335.04.975.26.875.825a7 7 0 0 1-.35 1.045c-.25.67-.51 1.35-.275 1.43c.175.05.43-.69.705-1.485c.315-.905.65-1.88.92-1.815c.4.095.665.275.75.35c.04-.155.175-.45.375-.35c.2.095.5.195.625.235l.25 1.18c.29-.515.925-1.51 1.125-1.415s.25.275.25.35c.125-.155.4-.45.5-.35l.376.35c.374-.075 1.15-.235 1.25-.235s.54.315.75.475c.04-.12.175-.355.375-.355s1.835.08 2.625.115c.125.08.35.31.25.59c-.125.35-1 .825-1.5.825c.125.08.375.285.375.47c0 .19-.415.55-.625.71c.29 0 .875.05.875.235c.165-.12.525-.35.625-.35c.035 0 .17-.215.37-.525c.53-.815 1.495-2.305 2.13-2.305c.126.04.376.14.376.235a.98.98 0 0 1 .625-.235c.3 0 .46.155.5.235l1.125-.12c.21.04.625.19.625.475c0 .35-.875 2.826-1.125 3.3c-.2.375-1.585.7-2.25.82c-.166.08-.5.216-.5.12v-.635a3.4 3.4 0 0 1-.75.516c-.1 0-.126-.786-.126-1.175c-.165.274-.525.825-.625.825c-.125 0-.25 0-.75.47c-.125 0-.375-.05-.375-.235l.015-.19c.025-.2.05-.4-.14-.4c-.15 0-.25.12-.335.22c-.06.075-.115.135-.165.135l-.17-.015c-.27-.03-.765-.075-.955.015c-.2.095-.415.275-.5.35l-.875-.94c-.125.115-.45.4-.75.59c-.226.14-.585.2-.89.245c-.206.03-.386.06-.486.105a.6.6 0 0 0-.225.195c-.05.065-.085.105-.15.045l-.5-.475c-.165.15-.525.435-.625.4s-.375-.28-.5-.4l-.125-.705l-.25.47c-.125.16-.45.5-.75.59c-.3.095-.71-.2-.875-.35c-.04.115-.2.35-.5.35s-1.21-.315-1.625-.47zm6.25 1.65l.376-.235l.125.47c-.085.39-.376 1.225-.876 1.415zm8.502 0l.5-.235v.82c-.085.4-.375 1.18-.875 1.18z" clip-rule="evenodd"/><path fill="#D00008" fill-rule="evenodd" d="M5.169 12.355c0-.285-.25-.355-.38-.355c-.205 0-.51.24-.64.355c-.25 1.275-.74 3.86-.635 4.05c.085.16.34 0 .65-.195c.155-.095.325-.2.5-.28c.505-.24 1.4-.715 1.525-1.31c.1-.475-.125-.6-.25-.6c.25-.235.76-.805.76-1.185c0-.48-.25-.715-.765-.715c-.405 0-.68.16-.765.235m-.125.715l-.13.6c.13-.04.435-.12.64-.12c.21-.16.56-.5.25-.6c-.3-.09-.635.04-.76.12m-.385 1.67l-.125.595c.3-.08.89-.31.89-.6c0-.28-.51-.115-.765 0z" clip-rule="evenodd"/><path fill="#D00008" d="M7.974 12c-.41 0-.766.795-.89 1.19l-.69 2.62c-.236.08-.716.266-.716.36c0 .096.34.116.51.116c.045.04.145.12.21.12c.06 0 .225-.155.3-.235h1.91l.256-.24c.085.16.435.475 1.15.475s1.15-.55 1.275-.83c.3-.8.89-2.43.89-2.62c0-.24 0-.956-1.15-.956a1.65 1.65 0 0 0-1.525.95l-.765 2.386h-1.4q.338-1.146.76-2.266c.255-.595.385-1.07-.125-1.07m1.525 3.335l.765-2.38c.085-.08.355-.215.765-.12c.405.095.34.435.25.595l-1.05 2.08c.035-.21-.06-.475-.095-.535c0 .24-.21.36-.25.36zm.635.356q.074-.075.095-.18zm4.085-2.5c-.13.2-.33.6-.13.6c.255 0 .765-.6.895-.836c.126-.24.126-.715-.765-.715c-.89 0-1.53 0-1.785.715a49 49 0 0 0-.765 2.62c-.125.276-.25.83.255.83h1.15c.38-.154 1.17-.57 1.27-.95c.13-.48.13-.835-.125-.715c-.085.04-.285.2-.515.386c-.46.37-1.055.845-1.14.684l-.045-.075l-.05-.095c-.015-.06 0-.13.05-.35l.045-.194c.1-.476.38-1.31.51-1.666c.17-.16.56-.475.76-.475c.255 0 .52 0 .385.235m2.166-.476c.1-.475-.125-.675-.25-.715c-.15 0-.26.29-.376.6a2.7 2.7 0 0 1-.264.59c-.255.36-1.276 3.1-1.02 3.216c.2.1.68-.435.89-.715c0-.396.1-1.19.51-1.19s1.105 1.035 1.4 1.55c-.4.095-.42.275-.38.355c1.985.235 2.16.015 2.52-.435l.03-.04c.345-.425.275-.66.165-1.05l-.035-.14c-.07-.246-.3-.396-.51-.53c-.2-.13-.385-.25-.385-.426c0-.355.64-.595.895-.595c.145 0 .12.24.1.46c-.015.165-.03.325.025.375c.13.12.51-.285.765-.6c.255-.31.635-1.07.51-1.185c-.075-.07-.285.105-.47.265c-.125.11-.245.21-.295.21s-.075-.08-.115-.18c-.065-.175-.15-.415-.395-.415c-.38 0-1.53.95-1.655 1.31a1.9 1.9 0 0 0 0 1.19c.07.27.465.46.705.58c.185.09.28.136.06.136c-.41 0-1.02.315-1.275.474c0-.38-.6-1.35-.895-1.785c.64-.36 1.785-1.785 1.53-1.905c-.2-.1-1.36.75-1.91 1.19l.125-.6zM5.244 7.17c.1-.526-.205-.656-.37-.656c-.3-.105-.62.395-.75.655c-.12.615-.396 1.916-.49 2.23c-.126.396-.5 1.706.99 1.84c1.475.13 1.85-1.674 2.1-2.854l.01-.035c.045-.226.095-.426.135-.606c.18-.76.265-1.125-.135-1.23c-.395-.1-.785 1.676-.995 2.62c-.05.25-.1.45-.125.53c-.12.39-.495.916-.99.786c-.355-.095.055-1.41.36-2.386c.12-.38.225-.71.26-.895m3.345 2.1c-.2 0-.575-1.836-.74-2.756c-.62 0-1.615 4.85-1.365 4.85s.62-.39.745-.65c.04-.084.065-.25.095-.43c.065-.4.15-.884.4-.884c.3 0 .535 1.315.62 1.97c.37 0 .865-1.05.99-1.575s.375-1.18.5-1.445c.12-.26.37-1.836 0-1.836c-.21 0-.485.835-.74 1.585c-.2.616-.39 1.17-.5 1.17zm4.84-2.36c-.17.35-.424 1.05-.124 1.05c.37 0 2.48 0 2.725-.526c.2-.42-1.65-.525-2.6-.525m-.374 2.36c-.3-.105.04-.745.25-1.05c.535.045 1.585.235 1.485.655c-.12.525-1.36.525-1.735.395m-.745 1.18l.56.79c.02-.135.185-.4.68-.4c.428.019.855-.07 1.24-.26c.1-.05.19-.06.27-.07c.135-.015.225-.03.225-.19c0-.265-.865-.525-1.485-.525c-.5 0-1.2.435-1.49.655"/><path fill="#D00008" fill-rule="evenodd" d="M10.949 6.91c0-.316-.25-.4-.375-.4c-.3 0-.37.44-.37.66c-.25 1.445-.72 4.3-.62 4.2c.05-.055.125-.065.265-.08c.2-.025.52-.065 1.1-.265c.79-.275 1.24-1.11 1.36-1.495c.125-.7.4-2.15.5-2.36c.085-.186-.13-.3-.31-.4a1 1 0 0 1-.19-.126c-.1-.1-.95.13-1.36.265m-.25 1.05l-.5 2.49c.415-.085 1.295-.45 1.49-1.18c.2-.735.25-1.62.25-1.97l-1.24.654zm4.835 2.095a3.8 3.8 0 0 1 .745-.39c.535-1.095 1.736-3.256 2.23-3.15c.486.1.29.52.066 1.014a6 6 0 0 0-.19.43c-.2.52-.33 1.966-.37 2.62l-.62.66V9.79h-.37l-.62 1.05c-.21.09-.67.346-.87.66c-.04-.35-.05-1.1.25-1.31zm1.86-1.05l.25-.65V9h-.25zm2.106-2.49c-.2 0-.41.26-.495.394c-.12.48-.395 1.52-.495 1.836c-.1.315-.29 1.88-.37 2.625c.205 0 .77-.07 1.365-.35a3.4 3.4 0 0 0 1.24-1.095q.425-1.23.74-2.49c.1-.526-.37-.66-.62-.66l-.99.134c-.04-.135-.175-.4-.37-.4zm0 1.31l-.495 2.625a2.35 2.35 0 0 0 1.74-1.705V7.299z" clip-rule="evenodd"/></g></svg>