<svg xmlns="http://www.w3.org/2000/svg" xmlns:xlink="http://www.w3.org/1999/xlink" width="24" height="24" viewBox="0 0 24 24"><path fill="#42EAB2" fill-rule="evenodd" d="M17.022 5.652a.64.64 0 0 0-.195-.46a.68.68 0 0 0-.471-.192h-3.667a.68.68 0 0 0-.471.19a.64.64 0 0 0-.196.462v3.443c0 .173.07.338.196.46c.125.122.295.19.471.19h3.625a.61.61 0 0 1 .471.195a.58.58 0 0 1 .144.479c-.413 1.981-2.113 3.519-4.24 3.788a.75.75 0 0 0-.467.224a.7.7 0 0 0-.2.468v3.444a.6.6 0 0 0 .194.456a.64.64 0 0 0 .473.174c4.985-.311 8.972-4.09 9.31-8.818a.6.6 0 0 0-.176-.463a.64.64 0 0 0-.468-.189H17.69a.68.68 0 0 1-.472-.19a.64.64 0 0 1-.195-.462zM7 18.348c0 .173-.07.338-.195.46a.68.68 0 0 1-.471.192H2.666a.68.68 0 0 1-.47-.191a.64.64 0 0 1-.196-.46v-3.444c0-.173.07-.338.195-.46a.67.67 0 0 1 .471-.19h3.626a.61.61 0 0 0 .473-.198a.58.58 0 0 0 .142-.483a4.8 4.8 0 0 0-1.5-2.557a5 5 0 0 0-2.742-1.23a.75.75 0 0 1-.465-.224a.7.7 0 0 1-.2-.468V5.652a.6.6 0 0 1 .194-.457a.64.64 0 0 1 .473-.173c4.985.312 8.97 4.09 9.31 8.817a.6.6 0 0 1-.177.463a.63.63 0 0 1-.467.19H7.667a.68.68 0 0 0-.471.19a.64.64 0 0 0-.196.46z" clip-rule="evenodd"/></svg>