<svg xmlns="http://www.w3.org/2000/svg" xmlns:xlink="http://www.w3.org/1999/xlink" width="24" height="24" viewBox="0 0 24 24"><g fill="none"><path fill="url(#tokenBrandedUsh0)" d="M11.923 2L3.176 7L12 12l8.823-5z"/><path fill="url(#tokenBrandedUsh1)" d="M3.176 17.165V7L12 12v10z"/><path fill="url(#tokenBrandedUsh2)" d="M20.824 17.165V7L12 12v10z"/><path fill="url(#tokenBrandedUsh3)" d="m12 7.253l4.118 2.353v4.706L12 16.665l-4.117-2.353V9.606z"/><path fill="url(#tokenBrandedUsh4)" d="M7.883 9.665L12 12v4.665l-4.117-2.353z"/><path fill="url(#tokenBrandedUsh5)" d="M16.118 9.665v-.06L12 7.254L7.883 9.606v.059L12 12z"/><defs><linearGradient id="tokenBrandedUsh0" x1="15.17" x2="5.61" y1="6.059" y2="11.162" gradientUnits="userSpaceOnUse"><stop stop-color="#006ACA"/><stop offset=".66" stop-color="#00DFFA"/></linearGradient><linearGradient id="tokenBrandedUsh1" x1="3.812" x2="11.514" y1="3.922" y2="24.57" gradientUnits="userSpaceOnUse"><stop stop-color="#0059CB"/><stop offset=".4" stop-color="#00C3E4"/></linearGradient><linearGradient id="tokenBrandedUsh2" x1="19.647" x2="9.918" y1="4.235" y2="13.523" gradientUnits="userSpaceOnUse"><stop stop-color="#0062C8"/><stop offset="1" stop-color="#00E7EF"/></linearGradient><linearGradient id="tokenBrandedUsh3" x1="15.618" x2="12.175" y1="13.887" y2="22.071" gradientUnits="userSpaceOnUse"><stop stop-color="#00E0FF"/><stop offset="1" stop-color="#00C9FF"/></linearGradient><linearGradient id="tokenBrandedUsh4" x1="6.328" x2="11.21" y1="5.529" y2="13.915" gradientUnits="userSpaceOnUse"><stop stop-color="#00C3FF"/><stop offset="1" stop-color="#00F1FF"/></linearGradient><linearGradient id="tokenBrandedUsh5" x1="10.112" x2="11.189" y1="8.524" y2="9.824" gradientUnits="userSpaceOnUse"><stop stop-color="#00C9FF"/><stop offset="1" stop-color="#00E8FF"/></linearGradient></defs></g></svg>