<svg xmlns="http://www.w3.org/2000/svg" xmlns:xlink="http://www.w3.org/1999/xlink" width="24" height="24" viewBox="0 0 24 24"><g fill="none"><path fill="url(#tokenBrandedVcore0)" fill-rule="evenodd" d="M21.996 12.004C21.996 17.524 17.521 22 12 22c-5.52 0-9.996-4.475-9.996-9.996S6.479 2.007 12 2.007c5.52 0 9.996 4.476 9.996 9.997m-8.854-5.88h2.352l-1.659 4.116l5.222-1.664v2.246l-3.704 1.182l3.704 1.176v2.252l-5.104-1.635l1.647 4.087h-2.352L12 14.797l-1.247 3.087H8.402l1.694-4.199l-5.151 1.647v-2.246l3.393-1.088l-3.393-1.082V8.67l5.268 1.687l-1.705-4.233h2.352L12 8.952z" clip-rule="evenodd"/><path fill="url(#tokenBrandedVcore1)" d="M21.45 15.267a10 10 0 0 1-3.182 4.528c-1-.988-1.922-3.293-.788-4.587c1.1-1.252 3-.54 3.97.06"/><path fill="#C49D41" d="M7.867 21.106a10.04 10.04 0 0 1-4.892-4.798c.788-.294 2.105-.377 3.405.793c1.458 1.318 1.693 3.064 1.487 4.005"/><path fill="#B38B3E" d="M4.98 4.888c.823.365 1.899.647 2.705.241l.7-.358c.781-.412.964-.512 1.628-.353c.312.076.565.276.823.476c.424.335.865.682 1.623.512c1.094-.247 3.01-1.5 3.01-2.781A9.98 9.98 0 0 0 4.98 4.882z"/><defs><linearGradient id="tokenBrandedVcore0" x1="2.621" x2="20.92" y1="12.521" y2="9.675" gradientUnits="userSpaceOnUse"><stop stop-color="#D3A955"/><stop offset=".24" stop-color="#CEA651"/><stop offset=".46" stop-color="#FFD57E"/><stop offset=".75" stop-color="#FBD072"/><stop offset="1" stop-color="#FCC766"/></linearGradient><linearGradient id="tokenBrandedVcore1" x1="16.957" x2="21.138" y1="15.161" y2="18.343" gradientUnits="userSpaceOnUse"><stop stop-color="#BC8E3A"/><stop offset="1" stop-color="#79622D"/></linearGradient></defs></g></svg>