<svg xmlns="http://www.w3.org/2000/svg" xmlns:xlink="http://www.w3.org/1999/xlink" width="24" height="24" viewBox="0 0 24 24"><g fill="none"><path fill="#F0E9C6" d="m12.358 3l-.321-1l-.326 1h-1.043l.843.61l-.316 1l.842-.62l.842.615l-.321-.994l.842-.616h-1.042zM8.153 4.437l-.321-1l-.327 1H6.463l.842.616l-.316.994l.843-.615l.842.615l-.321-1l.842-.61zm7.979-1l.32 1H17.5l-.842.616l.316.994l-.842-.615l-.842.615l.315-1l-.842-.61h1.042zm3.6 3.879l-.316-.995l-.326 1h-1.048l.842.61l-.316 1l.843-.62l.842.615l-.316-.994l.842-.616zm.9 3.352l.326 1H22l-.842.616l.316.995l-.842-.616l-.843.616l.316-1l-.842-.61h1.047zm-1.116 5.616l-.321-1l-.321 1h-1.048l.843.616l-.316 1l.842-.621l.842.616l-.316-1l.842-.61zm-3.195 1.884l.316 1h1.052l-.847.611l.321 1l-.842-.616l-.847.616l.32-1l-.841-.616h1.042zm-4.01 2.222l-.316-1l-.326 1H10.62l.842.615l-.316.995l.842-.616l.843.616l-.316-1l.842-.61zm-4.648-2.437l.321 1h1.042l-.842.61l.321 1l-.842-.62l-.842.615l.316-.995l-.842-.616h1.042zm-2.752-1.885l-.322-1l-.32 1H3.22l.842.616l-.316.995l.842-.616l.843.616l-.316-1l.842-.61zm-1.543-5.4l.321 1h1.048l-.842.616l.316.995l-.843-.616l-.842.616l.316-1L2 11.674h1.042l.326-1zm1.316-3.352l-.316-.995l-.326 1H2.995l.842.61l-.316 1l.842-.62l.842.615l-.316-.994l.843-.616z"/><path fill="url(#tokenBrandedVeur0)" d="M15.474 13.58V7.264h2.369c.452 0 .842.084 1.157.258q.484.251.737.715q.253.466.253 1.09q.002.628-.258 1.084c-.168.3-.42.526-.747.684q-.483.246-1.18.248h-1.583v-1.08H17.6c.243 0 .448-.036.606-.105a.75.75 0 0 0 .358-.315a1.06 1.06 0 0 0 .12-.521c0-.621-.473-1.01-1.089-1.01h-.858v5.262h-1.263zm3.237-2.874l1.5 2.874h-1.4l-1.463-2.874h1.368zm-5.658-3.442h1.316v4.042a2.13 2.13 0 0 1-1.19 1.99q-.56.284-1.31.284q-.749 0-1.316-.285a2.13 2.13 0 0 1-1.184-1.99v-4.04h1.316v3.931c0 .71.442 1.227 1.184 1.227c.737 0 1.184-.516 1.184-1.227zM4.37 13.579V7.264h3.947v1.052H5.685v1.58h2.631v1.052H5.685v1.579h2.631v1.053zm4.947 4.737l-1.1-2.105h.774l1.042 2.105h-.721zm1.721-2.105h-.742l-.51 1l.395.637zm.19 2.105v-2.105h.568l1.053 1.116V16.21h.59v2.105h-.585L11.8 17.053v1.263h-.578zm2.42-2.105h.822l1.663 2.105h-.858l-.405-.526l-.4.526h-.821l.81-1.052zm2.406 0h-.779l-.273.416l.4.353z"/><defs><linearGradient id="tokenBrandedVeur0" x1="12.29" x2="12.29" y1="7.264" y2="18.316" gradientUnits="userSpaceOnUse"><stop stop-color="#D4BF60"/><stop offset="1" stop-color="#F2E6A4"/></linearGradient></defs></g></svg>