<svg xmlns="http://www.w3.org/2000/svg" xmlns:xlink="http://www.w3.org/1999/xlink" width="24" height="24" viewBox="0 0 24 24"><g fill="none"><path fill="#C474E7" d="m11.903 17.099l.065-.395c.024-.123.03-.258.03-.4V3.27c0-.318-.024-.635 0-.947q.018-.195-.147-.265c.07-.058.135-.07.188-.047l8.187 3.612q.029.016.012.041l-8.211 11.529q-.02.027-.047.011q-.051-.017-.077-.105"/><path fill="#AC8BFE" d="M11.85 2.058q.168.071.148.265v13.981c0 .142-.006.277-.03.4l-.064.395L3.752 5.652v-.017z"/><path fill="#93D0FE" d="M11.998 18.487v2.94c0 .183.018.33.082.436c-.011.065-.035.106-.064.13c-.024.011-.041.011-.053-.013q-4.68-8.225-9.37-16.445h.017l9.388 12.958z"/><path fill="#8694E8" d="M12.08 21.863a.8.8 0 0 1-.088-.435q.027-.796 0-2.941c3.135-4.312 6.258-8.623 9.382-12.94c.006-.012.017-.012.023-.006c.012 0 .012.011.006.023l-9.111 15.97a3 3 0 0 1-.206.329z"/></g></svg>