<svg xmlns="http://www.w3.org/2000/svg" xmlns:xlink="http://www.w3.org/1999/xlink" width="24" height="24" viewBox="0 0 24 24"><g fill="none"><path fill="#00D8FF" fill-rule="evenodd" d="M12 22a10 10 0 1 0 0-20a10 10 0 0 0 0 20m0-1.177a8.824 8.824 0 1 0 0-17.648a8.824 8.824 0 0 0 0 17.649" clip-rule="evenodd"/><path fill="#fff" d="M6.865 9.647H5.53l3.153 7.059h.964l2.371-5.383l2.318 5.383h1.053l3.082-7.059h-1.259L14.86 15l-2.33-5.353h-1L9.137 15L6.859 9.647z"/><path fill="#FD124D" d="M5.53 7.882v.588h4.57l.377-.317h7.994v-.27z"/></g></svg>