<svg xmlns="http://www.w3.org/2000/svg" xmlns:xlink="http://www.w3.org/1999/xlink" width="24" height="24" viewBox="0 0 24 24"><g fill="none"><path fill="url(#tokenBrandedWallet0)" d="m18.5 15l-3-3.25L11 15.5V22z"/><path fill="url(#tokenBrandedWallet1)" d="M10 10.5L8.5 8.25l-2.75 2.5l1 1.75l2.75-1z"/><path fill="url(#tokenBrandedWallet2)" d="M11.5 7.5V2l3 7z"/><path fill="url(#tokenBrandedWallet3)" d="m14.5 9l-3-1.5l-6 8.25l4 4.25z"/><path fill="url(#tokenBrandedWallet4)" d="M15.5 11.75V9.5l3 5.5z"/><path fill="url(#tokenBrandedWallet5)" d="m8.5 8.25l1-3.75l-3.75 6.25z"/><defs><linearGradient id="tokenBrandedWallet0" x1="19.107" x2="6.263" y1="8.761" y2="10.361" gradientUnits="userSpaceOnUse"><stop stop-color="#5C02FF"/><stop offset=".79" stop-color="#5402DB"/><stop offset="1" stop-color="#35077D"/></linearGradient><linearGradient id="tokenBrandedWallet1" x1="16.558" x2="5.57" y1="11.247" y2="12.649" gradientUnits="userSpaceOnUse"><stop stop-color="#35028B"/><stop offset=".31" stop-color="#5704E7"/><stop offset="1" stop-color="#4101BA"/></linearGradient><linearGradient id="tokenBrandedWallet2" x1="5.782" x2="10.531" y1="2" y2="24.168" gradientUnits="userSpaceOnUse"><stop stop-color="#7412FD"/><stop offset="1" stop-color="#9A39FC"/></linearGradient><linearGradient id="tokenBrandedWallet3" x1="15.647" x2="8.746" y1="2.344" y2="21.292" gradientUnits="userSpaceOnUse"><stop stop-color="#6001FF"/><stop offset="1" stop-color="#7E1FFF"/></linearGradient><linearGradient id="tokenBrandedWallet4" x1="6.324" x2="14.575" y1="4.6" y2="22.588" gradientUnits="userSpaceOnUse"><stop stop-color="#7D2BD8"/><stop offset="1" stop-color="#A35CEA"/></linearGradient><linearGradient id="tokenBrandedWallet5" x1="9.714" x2="5.765" y1="4.855" y2="10.51" gradientUnits="userSpaceOnUse"><stop stop-color="#7416F0"/><stop offset="1" stop-color="#9A43FF"/></linearGradient></defs></g></svg>