<svg xmlns="http://www.w3.org/2000/svg" xmlns:xlink="http://www.w3.org/1999/xlink" width="24" height="24" viewBox="0 0 24 24"><g fill="none"><path fill="url(#tokenBrandedWbt0)" fill-rule="evenodd" d="M19.071 19.071A10 10 0 1 1 4.93 4.93a10 10 0 0 1 14.14 14.14M12.466 9.024c.199.083.371.218.5.39h-.005l1.53 2.003l3.122-7.692a10 10 0 0 1 1.926 1.708l-3.604 8.881a1.21 1.21 0 0 1-1.593.658a1.2 1.2 0 0 1-.498-.387l-1.525-2.003l-2.009 4.942a1.21 1.21 0 0 1-1.066.76h-.058a1.21 1.21 0 0 1-1.072-.648l-2.815-5.318a1.214 1.214 0 0 1 2.15-1.131l1.595 3.01L10.87 9.69a1.21 1.21 0 0 1 1.596-.667" clip-rule="evenodd"/><defs><linearGradient id="tokenBrandedWbt0" x1="1.994" x2="22" y1="12" y2="12" gradientUnits="userSpaceOnUse"><stop stop-color="#E9C570"/><stop offset="1" stop-color="#F7B839"/></linearGradient></defs></g></svg>