<svg xmlns="http://www.w3.org/2000/svg" xmlns:xlink="http://www.w3.org/1999/xlink" width="24" height="24" viewBox="0 0 24 24"><g fill="none"><path fill="#fff" d="M6.8 18.818a.75.75 0 0 0-1.014.101c-.296.335-.162.746 0 .922c2.321 1.849 4.998 2.143 6.35 2.159c2.526.027 5.362-1.311 6.463-1.984c.235-.143.52-.546.207-1.004c-.312-.457-.85-.32-1.079-.194c-.903.563-3.286 1.688-5.59 1.688a9.37 9.37 0 0 1-5.332-1.685zM6.722 5.333a1.667 1.667 0 1 0 0-3.333a1.667 1.667 0 0 0 0 3.333m11.335-3.248c.326-.157.67-.079.77.094c.186.317.013.518-.096.582l-1.807.886c.495.244 1.537.76 1.756.866c.274.134.348.388.161.656c-.127.183-.49.204-.66.108l-2.24-1.111a.57.57 0 0 1-.33-.498a.63.63 0 0 1 .33-.55c.57-.28 1.79-.877 2.116-1.033"/><path fill="#D1AA11" d="m11.157 16.51l1.278-4l1.58 4.09a1.497 1.497 0 0 0 1.914.862a1.45 1.45 0 0 0 .942-1.214l2.02-7.374a1.46 1.46 0 0 0-1.038-1.8a1.494 1.494 0 0 0-1.817 1.048l-.886 3.235l-1.314-3.401a1.5 1.5 0 0 0-1.57-.945a1.5 1.5 0 0 0-1.502 1.035l-1.13 3.537l-1.13-3.536a1.496 1.496 0 0 0-1.86-.972a1.455 1.455 0 0 0-.962 1.838l2.429 7.596a1.5 1.5 0 0 0 1.522 1.034a1.5 1.5 0 0 0 1.524-1.033"/></g></svg>