<svg xmlns="http://www.w3.org/2000/svg" xmlns:xlink="http://www.w3.org/1999/xlink" width="24" height="24" viewBox="0 0 24 24"><g fill="none"><path fill="#FBB935" fill-rule="evenodd" d="M12 20.235a8.235 8.235 0 1 0 0-16.47a8.235 8.235 0 0 0 0 16.47M12 22a10 10 0 1 0 0-20a10 10 0 0 0 0 20" clip-rule="evenodd"/><path fill="#FFB830" d="M7.588 10.776c-.47 0-.782.424-.882.636v3.235c0 1.176 1.176 2.647 2.94 2.647c1.412 0 2.06-.588 2.354-1.176c.294.588 1.37 1.176 2.059 1.176c2.058 0 3.235-1.47 3.235-2.488V9.1c0-.206-.177-.63-.883-.63c-.705 0-.882.424-.882.636v5.247c0 .423-.294 1.176-1.47 1.176c-1.177 0-1.177-.753-1.177-1.176v-4.07c0-.213-.176-.636-.882-.636s-.883.423-.883.635v4.07c0 .424-.53 1.177-1.47 1.177c-.941 0-1.177-.753-1.177-1.176v-2.941c0-.318-.294-.636-.882-.636"/></g></svg>