<svg xmlns="http://www.w3.org/2000/svg" xmlns:xlink="http://www.w3.org/1999/xlink" width="24" height="24" viewBox="0 0 24 24"><g fill="none"><path fill="url(#tokenBrandedXava0)" d="M14.3 3.446a2.553 2.553 0 0 0-4.6 0L2.308 17.985c-.92 1.82.333 4.013 2.3 4.013a2.17 2.17 0 0 0 1.286-.42l4.546-3.34a2.66 2.66 0 0 1 3.22.04l4.113 3.167c.466.36 1.033.553 1.62.553c1.966 0 3.22-2.193 2.3-4.013z"/><path fill="url(#tokenBrandedXava1)" d="M5.415 11.886c.666.333 1.706.993 3.02 2.106c2.419 2.046 5.852 1.026 6.845-.1c.96-1.093 1.533-1.7 3.227-2.166L14.3 3.446a2.552 2.552 0 0 0-4.6 0z"/><path fill="url(#tokenBrandedXava2)" d="M6.674 9.4c.434.286.967.692 1.52 1.226a5.16 5.16 0 0 0 3.52 1.466c.693 0 2.326-.333 3.853-1.753a10.3 10.3 0 0 1 1.586-1.28L14.3 3.446a2.552 2.552 0 0 0-4.6 0z"/><path fill="#FF4746" d="M7.834 7.113L9.7 3.446a2.555 2.555 0 0 1 4.6 0l1.646 3.247a5.17 5.17 0 0 1-4.22 2.12c-1.56 0-2.96-.66-3.893-1.7"/><defs><linearGradient id="tokenBrandedXava0" x1="12.207" x2="11.98" y1="14.259" y2="21.998" gradientUnits="userSpaceOnUse"><stop stop-color="#FF7153"/><stop offset="1" stop-color="#FF2F45"/></linearGradient><linearGradient id="tokenBrandedXava1" x1="12.001" x2="12.001" y1="1.999" y2="21.995" gradientUnits="userSpaceOnUse"><stop offset=".69" stop-color="#FF6C58"/><stop offset="1" stop-color="#FF4746"/></linearGradient><linearGradient id="tokenBrandedXava2" x1="12" x2="12" y1="1.998" y2="22.011" gradientUnits="userSpaceOnUse"><stop offset=".55" stop-color="#FF8368"/><stop offset=".94" stop-color="#FF4746"/></linearGradient></defs></g></svg>