<svg xmlns="http://www.w3.org/2000/svg" xmlns:xlink="http://www.w3.org/1999/xlink" width="24" height="24" viewBox="0 0 24 24"><path fill="#FF914C" fill-rule="evenodd" d="M20.49 7.24a.3.3 0 0 0-.141.413a9.411 9.411 0 1 1-5.659-4.671a.3.3 0 0 0 .393-.279a.29.29 0 0 0-.205-.28a10 10 0 1 0 5.983 4.941a.29.29 0 0 0-.371-.123M12.002 17.3a5.293 5.293 0 1 0 0-10.587a5.293 5.293 0 0 0 0 10.587m0 .588a5.883 5.883 0 1 0 0-11.766a5.883 5.883 0 0 0 0 11.766m7.647-13.53a1.765 1.765 0 1 1-3.53 0a1.765 1.765 0 0 1 3.53 0m.588 0a2.353 2.353 0 1 1-4.706 0a2.353 2.353 0 0 1 4.706 0" clip-rule="evenodd"/></svg>