<svg xmlns="http://www.w3.org/2000/svg" xmlns:xlink="http://www.w3.org/1999/xlink" width="24" height="24" viewBox="0 0 24 24"><g fill="none"><path fill="#B8B5B1" d="M21.975 11.031C19.675-2.263 2.312.312 2 11.031l1.638.844s-.532.312-1.638 1.037c2.013 13.05 19.094 11.15 20-.018q-.838-.515-1.681-1.02zm-8.563 4.65l-1.63-2.812l-1.638 2.812l-1.263-.094l2.369-3.98L9.125 8.18l1.281-.112l1.5 2.543l1.513-2.437l1.187.025l-1.962 3.387l2.187 4.05l-1.412.044z"/><path fill="#254C82" d="M21.156 10.5c-3.119-11.813-17.388-8.625-18.363 0l2.438 1.375l-2.438 1.55C4.918 24.794 20.318 22.6 21.156 13.4c-1.544-.975-2.475-1.55-2.475-1.55s2.1-1.125 2.475-1.35m-7.737 5.2l-1.638-2.813l-1.663 2.813l-1.262-.088l2.375-3.98L9.106 8.2l1.281-.106l1.5 2.543L13.393 8.2l1.194.025l-1.962 3.381l2.212 4.05l-1.412.044z"/></g></svg>