<svg xmlns="http://www.w3.org/2000/svg" xmlns:xlink="http://www.w3.org/1999/xlink" width="24" height="24" viewBox="0 0 24 24"><path d="M11.9 2.013a.58.58 0 0 0-.445.41a.8.8 0 0 0 0 .278a.5.5 0 0 0 .15.25a.5.5 0 0 0 .422.161q.077 0 .15-.022a.565.565 0 0 0 .317-.789a.57.57 0 0 0-.422-.288c-.089-.017-.089-.017-.172 0M3.523 6.456a.6.6 0 0 0-.245.15a.5.5 0 0 0-.166.367c0 .106.01.172.055.278a.6.6 0 0 0 .373.294a.7.7 0 0 0 .266 0a.59.59 0 0 0 .395-.389a.567.567 0 0 0-.4-.7a.8.8 0 0 0-.278 0m16.67 0a.556.556 0 0 0-.255.94a.52.52 0 0 0 .389.16a.5.5 0 0 0 .255-.055a.56.56 0 0 0-.105-1.039a.8.8 0 0 0-.278-.006zm-10.97 3.6v.833h1.127l.072-.833h3.15l.078.833h1.127V9.223H9.222zM10.332 12v.556h3.333v-1.111h-3.333zm-1.11 1.944v.834h5.554V13.11h-1.11l-.095.833h-3.144l-.078-.833H9.222zm-5.65 2.506a.57.57 0 0 0-.461.594c.01.139.06.25.166.356a.65.65 0 0 0 .278.15c.078.01.222 0 .278-.017a.57.57 0 0 0 .372-.389a.7.7 0 0 0 0-.305a.56.56 0 0 0-.633-.39m16.687-.006a.57.57 0 0 0-.484.556a.556.556 0 1 0 1.1-.111a.576.576 0 0 0-.616-.445M11.883 20.9a.58.58 0 0 0-.411.356a.8.8 0 0 0-.022.305a.561.561 0 0 0 1.094.006a.64.64 0 0 0-.017-.306a.57.57 0 0 0-.644-.36M5.333 8.667l-1.11-.833v3.61l1.11-.833zm2.5-3.333L4.778 7.28l1.111.833l1.944-1.389l2.222 1.389L12 7l1.666.833V6.445L12 5.612l-1.945 1.111z"/><path d="M11.722 3.39L8.667 5.056l1.389.556l1.666-.833zm.556 1.389v-1.39l3.055 1.667v2.222l2.222 1.389v2.222l-1.111.555V9.5l-2.222-1.389V5.89z"/><path d="M16.443 7.278V5.612l2.778 1.944l-1.389.556zm3.333.834l-1.11.555v2.222L16.442 12v2.5l-1.666.833l1.11.833l1.667-1.11v-2.223l2.222-1.11z"/><path d="M19.776 15.889v-3.333l-1.111.555v2.222zm-.556.555l-1.11-.555l-1.945 1.11l-2.222-1.11L12 16.999l-1.667-1.11v1.389L12 18.388l1.944-1.11l2.222 1.11z"/><path d="m15.332 18.944l-3.055 1.389l.278-1.667l1.389-.555zm-3.888 0v1.389l-2.778-1.667v-2.222l-2.222-1.388v-1.667l1.111-.833v1.666l2.222 1.39v2.221z"/><path d="M7.556 16.722v1.388l-2.778-1.666l1.111-.555zm-2.222-1.389l-1.111.556v-3.611l2.222-1.389V8.667l1.666-.833l1.111.833l-1.666.833v1.945l-2.222 1.388z"/></svg>