<svg xmlns="http://www.w3.org/2000/svg" xmlns:xlink="http://www.w3.org/1999/xlink" width="24" height="24" viewBox="0 0 24 24"><g fill="none"><path fill="url(#tokenBrandedYam0)" d="M2.573 11.612a4.5 4.5 0 0 1-.523-2.13c3.58-2.37 10.902-7.137 11.555-7.227a2.13 2.13 0 0 1 1.333.207c5.578 6.402 6.745 11.753 7.027 15.23c.13.913-.034 2.933-1.704 3.75c-2.088 1.03-3.874-.247-5.323-.59c-1.443-.351-4.397-1.478-5.764-2.357c-1.36-.886-1.903-1.56-2.645-2.253c-.748-.7-3.393-3.648-3.956-4.63"/><path fill="#EBDDD5" fill-opacity=".7" d="M17.205 6.144c.268-.371.715.206.907.536c1.655 2.122 3.16 6.78 3.098 6.78c-.46-1.484-4.328-6.856-4.005-7.316"/><path fill="#E6DE95" d="M8.782 7.144c3.37-2.052 5.813-4.21 5.457-4.819c-.357-.609-3.378.561-6.748 2.613s-5.813 4.21-5.456 4.819s3.377-.561 6.747-2.613"/><path fill="url(#tokenBrandedYam1)" d="M2.188 10.588c-.165-.15-.062-.384.014-.48c.522.247 2.322-.22 3.16-.481c-.99.377-3.01 1.112-3.174.961"/><defs><linearGradient id="tokenBrandedYam0" x1="19.679" x2="7.743" y1="6.218" y2="18.649" gradientUnits="userSpaceOnUse"><stop offset=".01" stop-color="#F374AB"/><stop offset=".3" stop-color="#ED4892"/><stop offset=".91" stop-color="#A71C2D"/><stop offset="1" stop-color="#B91F2B"/></linearGradient><linearGradient id="tokenBrandedYam1" x1="2.188" x2="4.84" y1="10.389" y2="10.403" gradientUnits="userSpaceOnUse"><stop stop-color="#EAC4CF"/><stop offset="1" stop-color="#E76D9E" stop-opacity="0"/></linearGradient></defs></g></svg>