<svg xmlns="http://www.w3.org/2000/svg" xmlns:xlink="http://www.w3.org/1999/xlink" width="24" height="24" viewBox="0 0 24 24"><path fill="currentColor" stroke="currentColor" stroke-linejoin="round" d="M9.92 7.408a53 53 0 0 1 .523 1.245l.003.008l.239.575l.022.052l.001.001c.1.2.202.523.022.892zm0 0c-.12-.268-.277-.48-.498-.608m.499.608L9.422 6.8m3.832 7.165a4 4 0 0 0-.185-.083l-.009-.004a6.1 6.1 0 0 1-1.769-1.114c-.647-.574-1.11-1.28-1.29-1.581c.086-.088.18-.201.255-.293l.01-.01q.073-.09.135-.162c.158-.18.23-.33.298-.473l.004-.008l.027-.056l-.776.93l-.028.016l-.402.233m3.73 2.605l-.01.018l.015-.016m-.005-.002l-.01.019l-.033.038c-.012.015-.012.011.002.002l.002-.001l.014-.008l-.008.016l-.19.382m.223-.448l.005.002m0 0a.4.4 0 0 0 .072.03s-.014-.003-.038 0a.2.2 0 0 0-.064.018l-.008.016l-.19.382m.228-.446c.189-.22.591-.693.732-.9m-.96 1.346c.258.128.41.108.56-.064c.148-.173.642-.749.816-1.005m-1.376 1.069q-.063-.031-.169-.076a6.6 6.6 0 0 1-1.903-1.2c-.767-.68-1.286-1.521-1.435-1.777m4.467 1.706l-.002.004l.418.274m-.416-.278l.002-.002l.414.28m-.416-.278c.138-.208.338-.378.62-.412c.227-.026.436.051.545.092l.004.002c.146.054.55.245.915.421c.38.183.763.371.894.436l.136.066l-.216.451m-2.482-.778c.168-.256.34-.216.578-.128c.238.089 1.504.71 1.761.837l.143.07M9.524 11.36l.401-.233l.03-.017l.069-.72l-.144.17c-.085.104-.17.206-.242.278c-.129.128-.262.266-.114.522Zm7.365 2.762l.216-.45l.012.005c.08.038.175.084.256.134a.86.86 0 0 1 .298.287m-.782.024c.179.086.3.145.352.232m.43-.256l-.578 1.477c.212-.601.212-1.113.148-1.221m.43-.256c.08.134.096.289.102.368q.013.16-.004.356a3.8 3.8 0 0 1-.205.92l-.001.003c-.167.46-.602.83-.974 1.07c-.377.242-.838.445-1.19.478m2.272-3.195l-.43.255m0 0l-1.843 2.94m0 0l-.122.014l-.06-.496l.06.496c-.24.03-.54.064-1.046-.02c-.487-.082-1.154-.273-2.154-.666c-2.57-1.011-4.241-3.482-4.575-3.975l-.006-.009l.415-.28l-.415.28l-.03-.045l-.009-.012v-.002l-.005-.005a7 7 0 0 1-.625-1.005c-.26-.513-.523-1.207-.523-1.941c0-1.385.697-2.125.99-2.436l.044-.046zM9.422 6.8c-.21-.122-.418-.127-.512-.13m.512.13l-.512-.13m0 0H8.9zM7.516 20.182a.5.5 0 0 0-.364-.044l-4.44 1.16l1.185-4.3a.5.5 0 0 0-.05-.384a9.4 9.4 0 0 1-1.263-4.703c0-5.186 4.246-9.411 9.458-9.411c2.534 0 4.906.982 6.692 2.76a9.33 9.33 0 0 1 2.766 6.656c0 5.187-4.246 9.412-9.458 9.412h-.005a9.5 9.5 0 0 1-4.52-1.146Z"/></svg>