<svg xmlns="http://www.w3.org/2000/svg" xmlns:xlink="http://www.w3.org/1999/xlink" width="20" height="20" viewBox="0 0 20 20"><g fill="currentColor"><path fill-rule="evenodd" d="M2 5.5a3.5 3.5 0 1 0 7 0a3.5 3.5 0 0 0-7 0Zm5 0a1.5 1.5 0 1 1-3 0a1.5 1.5 0 0 1 3 0ZM2 14a3.5 3.5 0 1 0 7 0a3.5 3.5 0 0 0-7 0Zm5 0a1.5 1.5 0 1 1-3 0a1.5 1.5 0 0 1 3 0Z" clip-rule="evenodd"/><path d="M16.707 15.293a1 1 0 0 1-1.414 1.414l-8.5-8.5a1 1 0 0 1 1.414-1.414l8.5 8.5Z"/><path d="M6.793 11.293a1 1 0 1 0 1.414 1.414l8.5-8.5a1 1 0 0 0-1.414-1.414l-8.5 8.5Z"/></g></svg>