<svg xmlns="http://www.w3.org/2000/svg" xmlns:xlink="http://www.w3.org/1999/xlink" width="12" height="12" viewBox="0 0 12 12"><g fill="none"><g clip-path="url(#bubblesActivitiesSolid0)"><path fill="currentColor" fill-rule="evenodd" d="M5.896.005a1.5 1.5 0 0 0-1.05.536c-.158.193-.27.425-.317.664c-.03.148-.028.114-.03.857c-.002.724-.002.75.02.826a.5.5 0 0 0 .394.355c.062.01 2.11.01 2.172 0a.5.5 0 0 0 .413-.448c.003-.036.004-.255.003-.728c-.002-.729-.002-.713-.028-.847A1.503 1.503 0 0 0 5.896.005m.063.999a.372.372 0 0 0-.115.708c.054.026.1.036.16.036s.109-.012.169-.042a.373.373 0 0 0-.214-.702M2.2 1.5a1 1 0 0 0-.946.928c-.004.05-.005 1.336-.004 4.368c.001 4.103.002 4.3.01 4.349q.028.164.096.3a1 1 0 0 0 .793.55c.06.006 7.644.006 7.704 0a1 1 0 0 0 .889-.855c.008-.053.008-.243.008-4.392c0-4.15 0-4.339-.008-4.39a1.005 1.005 0 0 0-.79-.839c-.1-.02-.094-.02-.865-.02c-.68 0-.743.001-.759.008a.14.14 0 0 0-.066.067c-.01.024-.01.024-.009.433l.001.41l.017.024a.13.13 0 0 0 .066.052c.015.006.125.007.604.007c.643 0 .615 0 .675.03s.115.101.129.169c.003.017.004 1.005.004 3.262L9.746 9.2l-.01.028a.4.4 0 0 1-.029.056c-.01.016-.326.335-.838.848l-.822.82l-.04.02a.2.2 0 0 1-.085.025c-.028.004-.993.005-2.753.004c-2.619-.001-2.71-.002-2.736-.01a.26.26 0 0 1-.177-.19c-.003-.018-.005-1.15-.005-4.053c0-3.553 0-4.032.007-4.056a.25.25 0 0 1 .186-.184c.026-.006.117-.007.616-.007c.479 0 .589-.001.604-.007a.13.13 0 0 0 .066-.052l.016-.024l.002-.41c0-.41 0-.41-.01-.433a.14.14 0 0 0-.065-.067c-.016-.007-.078-.008-.73-.008zm1.518 3a.38.38 0 0 0-.331.28a.5.5 0 0 0 .002.194a.4.4 0 0 0 .106.175c.028.026.083.06.117.074c.073.03-.098.028 2.389.028s2.316.002 2.388-.027a.5.5 0 0 0 .118-.075a.4.4 0 0 0 .106-.175a.5.5 0 0 0 .002-.194a.39.39 0 0 0-.278-.272C8.308 4.5 8.167 4.5 6.02 4.5zm-.04 1.756a.37.37 0 0 0-.301.346a.37.37 0 0 0 .283.386c.038.01.045.01 2.337.01c2.563 0 2.328.003 2.406-.034a.3.3 0 0 0 .11-.075a.37.37 0 0 0 .074-.426a.38.38 0 0 0-.24-.2l-.035-.012H6.01c-1.9-.001-2.307 0-2.332.005m-.02 1.755a.374.374 0 0 0-.074.698c.085.042-.021.038 1.104.038c1.12 0 1.019.004 1.1-.035A.37.37 0 0 0 6 8.394a.37.37 0 0 0-.222-.362c-.072-.033.004-.031-1.093-.03c-.968 0-.991 0-1.026.009" clip-rule="evenodd"/></g><defs><clipPath id="bubblesActivitiesSolid0"><path fill="#fff" d="M0 0h12v12H0z"/></clipPath></defs></g></svg>