<svg xmlns="http://www.w3.org/2000/svg" xmlns:xlink="http://www.w3.org/1999/xlink" width="19" height="18" viewBox="0 0 19 18"><path fill="currentColor" fill-rule="evenodd" d="M9.176.004A9 9 0 0 0 .96 6.147A8.8 8.8 0 0 0 .503 9c0 .428.011.64.051 1.005a9 9 0 0 0 3.654 6.278c.726.53 1.567.963 2.437 1.255a8.8 8.8 0 0 0 2.855.458a8 8 0 0 0 1.004-.05a9 9 0 0 0 5.015-2.253c.126-.111.562-.548.674-.674a9 9 0 0 0 1.37-2.02a8.9 8.9 0 0 0 .93-3.652c0-.044.002-.073.007-.073c.004 0 .007-.098.007-.278a2 2 0 0 0-.007-.273q-.008.003-.008-.07a9 9 0 0 0-1.349-4.409a9 9 0 0 0-1.134-1.458A8.9 8.9 0 0 0 13.5.936a8.9 8.9 0 0 0-3.416-.919C9.94.007 9.31-.002 9.176.004m-.087.99a8 8 0 0 0-4.172 1.427a8.3 8.3 0 0 0-1.673 1.567a8 8 0 0 0-1.531 3.1a8.2 8.2 0 0 0-.18 2.808a8 8 0 0 0 3.175 5.531a8 8 0 0 0 2.581 1.28a8.1 8.1 0 0 0 3.136.256a7.9 7.9 0 0 0 2.635-.78a7.9 7.9 0 0 0 2.106-1.516a7.9 7.9 0 0 0 1.516-2.107A7.9 7.9 0 0 0 17.513 9a7.9 7.9 0 0 0-.831-3.56a7.8 7.8 0 0 0-1.515-2.107a7.8 7.8 0 0 0-2.107-1.515A7.9 7.9 0 0 0 9.885.994c-.173-.009-.62-.008-.796 0m.306 4.121a.5.5 0 0 0-.365.328l-.016.047l-.004 1.508l-.004 1.509l-1.508.003l-1.508.004l-.047.016a.52.52 0 0 0-.315.315a.4.4 0 0 0-.02.155a.4.4 0 0 0 .02.155c.047.142.17.266.315.315l.047.016l1.508.004l1.508.003l.004 1.509l.004 1.508l.016.047a.52.52 0 0 0 .315.315a.4.4 0 0 0 .155.019a.4.4 0 0 0 .154-.02a.52.52 0 0 0 .316-.314l.016-.047l.003-1.508l.004-1.509L11.5 9.49l1.509-.004l.046-.016a.52.52 0 0 0 .315-.315a.4.4 0 0 0 .02-.155a.4.4 0 0 0-.02-.155a.52.52 0 0 0-.315-.315l-.046-.016L11.5 8.51l-1.508-.003l-.004-1.509l-.003-1.508l-.016-.047a.51.51 0 0 0-.316-.314a.6.6 0 0 0-.259-.014M.503 9.004c0 .154 0 .216.002.138V8.86c-.001-.076-.002-.012-.002.143" clip-rule="evenodd"/></svg>