<svg xmlns="http://www.w3.org/2000/svg" xmlns:xlink="http://www.w3.org/1999/xlink" width="18" height="19" viewBox="0 0 18 19"><g fill="none"><g clip-path="url(#bubblesAddCommentSolid0)"><path fill="currentColor" fill-rule="evenodd" d="M1.386.527A1.74 1.74 0 0 0 .02 1.94C.004 2.04 0 3.53.004 7.898l.005 5.823l.05.162c.029.089.088.23.133.315c.273.515.776.86 1.336.917c.102.01.557.019 1.011.019h.826l.005 1.462l.005 1.463l.047.1c.1.212.25.319.475.336a.46.46 0 0 0 .22-.022q.087-.032 2.293-1.686l2.206-1.653h3.835c2.539 0 3.898-.007 4.022-.02c.36-.036.7-.191.97-.443c.172-.162.262-.278.366-.473c.082-.155.173-.43.173-.523c0-.028.008-.056.018-.062c.012-.008.018-1.969.018-5.825c0-3.311-.007-5.81-.016-5.805c-.008.006-.02-.03-.027-.08A1.735 1.735 0 0 0 16.599.525C16.41.489 1.567.49 1.386.527m.077 1.161a.6.6 0 0 0-.286.296l-.043.094l.005 5.75l.004 5.749l.04.082c.056.113.176.23.293.285l.1.047l1.26.009l1.26.009l.09.048a.6.6 0 0 1 .268.285l.046.099v2.367l1.832-1.374a88 88 0 0 1 1.895-1.4c.053-.022.662-.027 4.13-.034l4.068-.01l.1-.046a.7.7 0 0 0 .292-.286l.04-.081l.005-5.75l.004-5.749l-.043-.094a.6.6 0 0 0-.285-.296l-.11-.054H1.572zM.009 7.808c0 3.202.002 4.513.005 2.911c.002-1.601.002-4.221 0-5.823C.01 3.295.009 4.606.009 7.808m8.747-3.222a.65.65 0 0 0-.306.293l-.043.094v2.276l-1.112.005l-1.112.005l-.085.042a.57.57 0 0 0-.044.999c.133.078.226.084 1.32.084h1.032v2.118l.056.11a.6.6 0 0 0 .268.267c.096.051.378.048.478-.005a.8.8 0 0 0 .266-.266c.039-.072.04-.085.044-1.149l.005-1.075h1.021a19 19 0 0 0 1.134-.019a.557.557 0 0 0 .42-.782a.58.58 0 0 0-.29-.287l-.099-.046H9.523l-.005-1.148l-.005-1.147l-.04-.083a.67.67 0 0 0-.274-.273a.64.64 0 0 0-.443-.013" clip-rule="evenodd"/></g><defs><clipPath id="bubblesAddCommentSolid0"><path fill="#fff" d="M0 .5h18v18H0z"/></clipPath></defs></g></svg>