<svg xmlns="http://www.w3.org/2000/svg" xmlns:xlink="http://www.w3.org/1999/xlink" width="18" height="18" viewBox="0 0 18 18"><path fill="currentColor" fill-rule="evenodd" d="M1.465.612A1.67 1.67 0 0 0 .02 1.97l-.016.08l-.002 1.44C-.001 5.096-.004 4.985.05 5.094c.067.136.2.239.341.266c.05.01 1.051.01 8.609.01c7.525 0 8.56 0 8.609-.01a.51.51 0 0 0 .377-.36a.3.3 0 0 1 .014-.056c.003-.007.006-.578.006-1.406c0-1.497 0-1.516-.037-1.699a1.5 1.5 0 0 0-.816-1.073a1.6 1.6 0 0 0-.44-.142l-.078-.015L9.079.608C4.923.607 1.497.609 1.465.612m.043.99a.7.7 0 0 0-.284.145a.7.7 0 0 0-.19.26c-.05.114-.048.048-.048 1.272v1.105h16.028l-.002-1.175l-.002-1.175l-.017-.053a.54.54 0 0 0-.37-.37l-.052-.017H9.065c-6.607-.002-7.512 0-7.557.009M.003 3.533c0 .78.001 1.1.002.71V2.825c0-.39-.002-.073-.002.707m1.167 3.43a.45.45 0 0 0-.27.143a.4.4 0 0 0-.092.123c-.057.115-.052-.264-.05 3.905c.002 3.52.003 3.744.014 3.832c.052.38.13.638.283.943c.138.275.274.463.5.688s.413.362.688.5c.316.16.603.243.983.286c.122.014 11.426.014 11.548 0a2.7 2.7 0 0 0 .983-.286a2.4 2.4 0 0 0 .688-.5c.226-.225.362-.413.5-.688c.152-.3.233-.573.283-.943c.011-.088.012-.33.014-3.832c.002-4.169.007-3.79-.05-3.905a.4.4 0 0 0-.095-.126a.45.45 0 0 0-.22-.13a.6.6 0 0 0-.252 0a.52.52 0 0 0-.35.346c-.013.042-.014.195-.018 3.784c-.004 4.062-.001 3.751-.04 3.931a1.72 1.72 0 0 1-1.522 1.365c-.146.016-11.244.016-11.39 0a1.72 1.72 0 0 1-1.523-1.365c-.038-.18-.035.131-.04-3.93c-.003-3.59-.004-3.743-.017-3.785a.52.52 0 0 0-.347-.344a.6.6 0 0 0-.208-.012m7.744.843a.51.51 0 0 0-.354.345c-.008.026-.01.492-.013 2.309l-.004 2.276l-.803-.828c-.637-.657-.814-.835-.855-.863a.48.48 0 0 0-.62.073a.44.44 0 0 0-.136.316a.5.5 0 0 0 .008.135a.5.5 0 0 0 .09.19c.03.037 2.289 2.37 2.43 2.509a.6.6 0 0 0 .152.123c.08.041.135.055.227.055c.116 0 .208-.03.292-.093c.06-.046 2.505-2.57 2.54-2.623a.5.5 0 0 0 .054-.439a.492.492 0 0 0-.779-.21c-.02.018-.39.397-.822.842l-.785.81l-.003-2.268c-.004-2.155-.005-2.27-.017-2.31a.46.46 0 0 0-.13-.217a.4.4 0 0 0-.127-.095a.6.6 0 0 0-.111-.041a.6.6 0 0 0-.234.004" clip-rule="evenodd"/></svg>