<svg xmlns="http://www.w3.org/2000/svg" xmlns:xlink="http://www.w3.org/1999/xlink" width="13" height="13" viewBox="0 0 13 13"><path fill="currentColor" fill-rule="evenodd" d="M8.014.818c-.612-.005-1.212.188-1.619.543c-.162.141-.39.33-.641.573l-.886.875a.83.83 0 0 0 .03 1.177a.854.854 0 0 0 1.192-.03c.048-.049.826-.817.855-.845q.346-.337.55-.513c.22-.188.774-.2.978 0c.495.486 1.708 1.687 2.2 2.203c.244.257.207.766-.031.996c-.142.136-1.325 1.308-1.375 1.358a.83.83 0 0 0 0 1.176a.853.853 0 0 0 1.191 0c.05-.049 1.207-1.224 1.344-1.357c.81-.786.944-2.402.123-3.29a68 68 0 0 0-2.292-2.293C9.244 1.025 8.627.823 8.014.818M4.709 12.844c.612.003 1.211-.192 1.617-.548c.161-.142.39-.332.64-.575c.03-.03.832-.826.882-.878a.83.83 0 0 0-.034-1.177a.854.854 0 0 0-1.191.034c-.048.05-.824.82-.853.848c-.231.225-.415.393-.548.514c-.25.228-.751.214-.978.004c-.508-.472-1.701-1.694-2.206-2.196c-.249-.248-.221-.756.027-.996c.142-.137 1.32-1.312 1.37-1.362a.83.83 0 0 0-.004-1.177a.853.853 0 0 0-1.191.004C2.19 5.389 1.038 6.567.9 6.7c-.806.789-.935 2.406-.11 3.29c.513.55 1.765 1.787 2.299 2.285c.39.365 1.008.565 1.62.568"/><path fill="currentColor" fill-rule="evenodd" d="M7.556 4.861a.88.88 0 0 0-.61.242L4.622 7.366a.83.83 0 0 0-.03 1.177c.323.327.86.319 1.191 0L8.137 6.28c.33-.32.323-.82 0-1.147a.85.85 0 0 0-.58-.272"/></svg>