<svg xmlns="http://www.w3.org/2000/svg" xmlns:xlink="http://www.w3.org/1999/xlink" width="24" height="24" viewBox="0 0 24 24"><g fill="none" stroke="currentColor" stroke-linecap="round" stroke-linejoin="round" stroke-width="1.5"><path d="M5.5 19.751h-3a2 2 0 0 1-2-2v-15a2 2 0 0 1 2-2h7a2 2 0 0 1 2 2v4m-11-3h11m-11 13h5"/><path d="M15.5 11.251s1.716-2.58 7.481-2.727a.51.51 0 0 1 .519.5v11a.5.5 0 0 1-.5.5c-5.783.141-7.5 2.728-7.5 2.728v-12s-1.716-2.58-7.481-2.727a.51.51 0 0 0-.519.5v11a.5.5 0 0 0 .5.5c5.783.141 7.5 2.728 7.5 2.728"/></g></svg>