<svg xmlns="http://www.w3.org/2000/svg" xmlns:xlink="http://www.w3.org/1999/xlink" width="24" height="24" viewBox="0 0 24 24"><g fill="none" stroke="currentColor" stroke-linecap="round" stroke-linejoin="round" stroke-width="1.5"><path d="M3.5 3.001h17v12h-17z"/><path d="M4.409 15a1.02 1.02 0 0 0-.883.5l-2.385 4a1 1 0 0 0 .883 1.5h19.952a1 1 0 0 0 .883-1.5l-2.385-4a1.02 1.02 0 0 0-.883-.5M9.5 19.001h5M12 6.7s.92-1.291 3.983-1.424a.5.5 0 0 1 .517.5v5.3a.5.5 0 0 1-.492.5C12.925 11.7 12 13 12 13zm0 0s-.92-1.291-3.983-1.424a.5.5 0 0 0-.517.5v5.3a.5.5 0 0 0 .492.5C11.075 11.7 12 13 12 13"/></g></svg>