<svg xmlns="http://www.w3.org/2000/svg" xmlns:xlink="http://www.w3.org/1999/xlink" width="13" height="12" viewBox="0 0 13 12"><g fill="none"><g clip-path="url(#bubblesCheckBoldSolid0)"><path fill="currentColor" d="M12.424 2.207L10.94.594a.3.3 0 0 0-.086-.062a.25.25 0 0 0-.29.062L4.298 7.392a.3.3 0 0 1-.087.063a.25.25 0 0 1-.29-.063L2.438 5.78a.3.3 0 0 0-.087-.062a.25.25 0 0 0-.29.062L.579 7.392a.3.3 0 0 0-.078.204a.3.3 0 0 0 .078.204l3.343 3.625a.3.3 0 0 0 .087.063a.25.25 0 0 0 .29-.063l8.126-8.814a.3.3 0 0 0 .076-.202a.3.3 0 0 0-.076-.202"/></g><defs><clipPath id="bubblesCheckBoldSolid0"><path fill="#fff" d="M.5.01h12v12H.5z"/></clipPath></defs></g></svg>