<svg xmlns="http://www.w3.org/2000/svg" xmlns:xlink="http://www.w3.org/1999/xlink" width="12" height="12" viewBox="0 0 12 12"><g fill="none"><g clip-path="url(#bubblesClassSolid0)"><path fill="currentColor" fill-rule="evenodd" d="M5.409.008a.52.52 0 0 0-.394.365l-.01.038l-.003.497c-.003.46-.003.498-.011.515a.15.15 0 0 1-.059.062l-.02.01l-1.506.004c-1.638.003-1.53 0-1.662.028A1.25 1.25 0 0 0 .762 2.57l-.01.063l-.003 2.388L.746 7.41l-.01.022a.12.12 0 0 1-.062.057c-.016.008-.032.01-.1.01a.8.8 0 0 0-.212.021a.5.5 0 0 0 .057.974c.038.007.227.008 1.61.008h1.566l.015-.014c.014-.013.014-.015.019-.075q.03-.375.254-.671c.04-.053.043-.062.043-.104a.14.14 0 0 0-.09-.132c-.02-.007-.129-.008-1.006-.008c-.942 0-.985 0-1.004-.009a.12.12 0 0 1-.062-.059l-.012-.025V5.06c0-2.017.001-2.348.007-2.37q.016-.06.056-.105a.24.24 0 0 1 .098-.067l.033-.014l3.54-.001c3.12-.001 3.542 0 3.57.006a.25.25 0 0 1 .188.193c.004.018.006.54.006 1.83c0 1.601 0 1.806.007 1.824a.13.13 0 0 0 .05.065c.01.006.19.073.399.147l.398.141c.052.02.109-.005.135-.06l.011-.022V4.652c0-2.124.002-2.016-.024-2.146A1.245 1.245 0 0 0 9.07 1.503a140 140 0 0 0-1.52-.005a75 75 0 0 1-1.466-.005a.15.15 0 0 1-.072-.064l-.01-.02L6 .916L5.997.421L5.985.375a.504.504 0 0 0-.576-.367m2.809 6.994l-.032.007a571 571 0 0 0-3.57 1.28a.25.25 0 0 0-.114.177c-.003.025-.004.398-.003 1.132l.001 1.095l.01.036c.058.203.257.32.458.27a.38.38 0 0 0 .272-.27c.008-.03.009-.068.01-.878c.001-.8.002-.846.01-.844c.004.001.657.28 1.45.621c.794.341 1.455.623 1.469.627a.4.4 0 0 0 .134.003c.03-.007 3.568-1.523 3.596-1.541a.3.3 0 0 0 .08-.085c.01-.018.011-.027.011-.126q0-.106-.005-.116l-.027-.039c-.045-.058.09-.007-1.85-.7l-1.792-.638a.3.3 0 0 0-.108-.011M2.226 9.008a.14.14 0 0 0-.06.044c-.015.02-1.153 2.305-1.163 2.334a.53.53 0 0 0 .01.339a.5.5 0 0 0 .226.257l.037.019h.404l.025-.013a.53.53 0 0 0 .214-.21l.673-1.344l.322-.641c.31-.62.318-.637.32-.667a.1.1 0 0 0-.012-.058a.13.13 0 0 0-.072-.062A9 9 0 0 0 2.688 9c-.358 0-.447.001-.462.007m3.86.914a.12.12 0 0 0-.078.073c-.008.02-.008.058-.007.446c.002.466 0 .438.033.533a.62.62 0 0 0 .315.359c.045.022 1.689.634 1.734.645a.6.6 0 0 0 .331-.012c.078-.026 1.707-.633 1.74-.649a.63.63 0 0 0 .315-.362c.031-.094.031-.09.031-.54v-.409l-.015-.026a.12.12 0 0 0-.075-.059c-.02-.005-.027-.004-.05.002c-.016.004-.291.12-.614.258c-1 .428-1.232.527-1.27.54A.75.75 0 0 1 8 10.712c-.019-.007-.444-.187-.946-.402c-.931-.397-.935-.399-.968-.388" clip-rule="evenodd"/></g><defs><clipPath id="bubblesClassSolid0"><path fill="#fff" d="M0 0h12v12H0z"/></clipPath></defs></g></svg>