<svg xmlns="http://www.w3.org/2000/svg" xmlns:xlink="http://www.w3.org/1999/xlink" width="18" height="18" viewBox="0 0 18 18"><path fill="currentColor" fill-rule="evenodd" d="M8.647.573a8.4 8.4 0 0 0-6.077 2.97a8.43 8.43 0 0 0-1.968 4.68A7 7 0 0 0 .572 9c0 .393.004.49.03.777a8.4 8.4 0 0 0 2.94 5.653a8.43 8.43 0 0 0 4.68 1.968c.289.026.385.03.778.03s.49-.004.778-.03a8.4 8.4 0 0 0 5.652-2.94a8.43 8.43 0 0 0 1.968-4.68c.026-.289.03-.385.03-.778c0-.394-.004-.49-.03-.778a8.4 8.4 0 0 0-2.94-5.652A8.43 8.43 0 0 0 9.587.586a18 18 0 0 0-.94-.013m.223.98A7.42 7.42 0 0 0 3.935 3.54A7.4 7.4 0 0 0 2.07 6.267a7.3 7.3 0 0 0-.508 2.33c-.01.171-.01.634 0 .806c.048.83.211 1.579.508 2.33a7.4 7.4 0 0 0 1.865 2.726a7.4 7.4 0 0 0 2.333 1.471c.75.296 1.507.461 2.327.507a7.4 7.4 0 0 0 3.706-.76a7.3 7.3 0 0 0 1.616-1.082c.154-.134.544-.524.678-.678a7.3 7.3 0 0 0 1.083-1.616a7.4 7.4 0 0 0 .76-3.706a7.4 7.4 0 0 0-.764-2.904a7.4 7.4 0 0 0-1.609-2.15a7.4 7.4 0 0 0-2.333-1.471a7.4 7.4 0 0 0-2.862-.517m.002 4.135a.45.45 0 0 0-.218.13a.44.44 0 0 0-.13.22c-.013.053-.013.09-.014 1.548c0 1.312.001 1.498.01 1.535c.016.06.038.106.074.156c.017.024.848.86 1.847 1.859c1.976 1.974 1.842 1.845 1.96 1.88a.496.496 0 0 0 .58-.242a.43.43 0 0 0 .053-.228a.47.47 0 0 0-.082-.28a311 311 0 0 0-1.739-1.747L9.49 8.794v-1.35c0-1.324 0-1.352-.015-1.407a.45.45 0 0 0-.13-.22a.45.45 0 0 0-.22-.13a.6.6 0 0 0-.253.001" clip-rule="evenodd"/></svg>