<svg xmlns="http://www.w3.org/2000/svg" xmlns:xlink="http://www.w3.org/1999/xlink" width="17" height="16" viewBox="0 0 17 16"><path fill="currentColor" fill-rule="evenodd" d="M5.556.504c-.978.11-1.9.492-2.672 1.11c-.212.17-.608.567-.78.783a5.4 5.4 0 0 0-.946 1.835a6 6 0 0 0-.156.784c-.034.262-.038.9-.008 1.152a5.154 5.154 0 0 0 4.258 4.534c.388.066.478.062.605-.03a.35.35 0 0 0 .16-.29c.008-.135.001-.163-.062-.259c-.078-.117-.156-.154-.404-.19a4.33 4.33 0 0 1-2.442-1.175a4.3 4.3 0 0 1-1.201-2.062a4.35 4.35 0 0 1 .583-3.464c.184-.277.316-.438.56-.68a4.1 4.1 0 0 1 1.083-.792a4.34 4.34 0 0 1 4.67.447c.178.138.5.45.66.641c.434.52.76 1.194.907 1.88c.055.257.15.372.34.411c.125.026.2.005.377-.108c.287-.181.6-.31.92-.376c.235-.049.675-.06.921-.024a2.685 2.685 0 0 1 2.25 3.167c-.216 1.068-1.005 1.872-2.08 2.118c-.171.04-.194.04-1.007.05c-.752.01-.838.013-.896.039a.43.43 0 0 0-.248.371c0 .15.106.307.248.371c.057.026.127.03.632.034c.822.008 1.2-.019 1.56-.11c.713-.18 1.396-.61 1.838-1.156a3.48 3.48 0 0 0-1.15-5.356a3.46 3.46 0 0 0-2.87-.092c-.082.035-.151.06-.154.058a4 4 0 0 1-.064-.18a5.2 5.2 0 0 0-1.472-2.191A5.14 5.14 0 0 0 6.668.504a7 7 0 0 0-1.112 0m2.81 8.544a.4.4 0 0 0-.222.2l-.044.084v4.82l-.868-.867c-.66-.659-.885-.875-.94-.9a.45.45 0 0 0-.328-.003a.413.413 0 0 0-.203.532c.024.053.342.38 1.285 1.32c1.345 1.342 1.289 1.292 1.454 1.292s.109.05 1.454-1.292c.942-.94 1.261-1.267 1.285-1.32a.41.41 0 0 0-.203-.531a.45.45 0 0 0-.328.002c-.055.025-.28.241-.94.9l-.868.866v-4.82l-.045-.085a.4.4 0 0 0-.49-.198" clip-rule="evenodd"/></svg>