<svg xmlns="http://www.w3.org/2000/svg" xmlns:xlink="http://www.w3.org/1999/xlink" width="16" height="16" viewBox="0 0 16 16"><path fill="currentColor" fill-rule="evenodd" d="M7.941.855A.4.4 0 0 0 7.8.918c-.026.019-.55.54-1.487 1.477C5.206 3.502 4.86 3.851 4.846 3.877a.413.413 0 0 0 .221.606c.06.02.169.022.234.006c.112-.028.021.056 1.232-1.152l1.09-1.09l.002 3.33l.001 3.33l.013.04q.03.088.104.161c.08.08.155.114.268.119c.128.005.22-.03.309-.119A.3.3 0 0 0 8.399 9a1 1 0 0 0 .035-.087c.006-.024.008-.656.01-3.345l.001-3.315l1.076 1.075c.591.59 1.086 1.082 1.1 1.092c.073.056.147.08.248.08a.36.36 0 0 0 .186-.043a.3.3 0 0 0 .099-.073a.37.37 0 0 0 .121-.268a.38.38 0 0 0-.072-.26c-.015-.02-.681-.69-1.481-1.49L8.268.915L8.217.889a.5.5 0 0 0-.093-.034a.5.5 0 0 0-.183 0M.83 11.425a.42.42 0 0 0-.281.275l-.014.045v.594c0 .64 0 .647.034.837a2.31 2.31 0 0 0 2.01 1.876c.082.01.322.011 5.453.011c5.133 0 5.37 0 5.454-.01c.28-.035.505-.1.743-.215a2.31 2.31 0 0 0 1.295-1.86c.009-.078.01-.184.012-.65c.002-.332 0-.564-.003-.57l-.016-.052a.4.4 0 0 0-.108-.178a.3.3 0 0 0-.106-.076a.5.5 0 0 0-.088-.033a.6.6 0 0 0-.202.005a.42.42 0 0 0-.286.282c-.013.045-.013.046-.017.64a15 15 0 0 1-.011.63a1.5 1.5 0 0 1-.514.922a1.5 1.5 0 0 1-.738.332c-.07.01-.22.011-5.415.011c-5.103 0-5.346 0-5.412-.01a2 2 0 0 1-.293-.074a1.49 1.49 0 0 1-.929-1.028c-.041-.169-.04-.147-.044-.796c-.004-.644-.002-.606-.04-.688a.42.42 0 0 0-.263-.22a.5.5 0 0 0-.22 0m-.295.902c0 .31 0 .436.002.28z" clip-rule="evenodd"/></svg>