<svg xmlns="http://www.w3.org/2000/svg" xmlns:xlink="http://www.w3.org/1999/xlink" width="18" height="19" viewBox="0 0 18 19"><g fill="none"><g clip-path="url(#bubblesCommentedSolid0)"><path fill="currentColor" fill-rule="evenodd" d="M1.377.53A1.73 1.73 0 0 0 .019 1.94C.003 2.041 0 3.53.004 7.898l.005 5.823l.05.162c.028.09.088.23.132.315c.274.515.777.86 1.336.917c.103.01.558.019 1.012.019h.826l.005 1.462l.005 1.463l.047.1c.1.212.25.319.475.336a.46.46 0 0 0 .22-.022q.087-.032 2.293-1.685l2.206-1.654h3.835c2.539 0 3.898-.006 4.022-.019c.36-.036.7-.192.969-.444c.173-.162.263-.278.367-.473c.082-.155.173-.43.173-.523c0-.028.008-.056.018-.062c.012-.007.018-1.968.018-5.825c0-3.311-.007-5.81-.016-5.804c-.008.005-.02-.031-.027-.081a2 2 0 0 0-.181-.512a1.8 1.8 0 0 0-.92-.79c-.312-.109.31-.101-7.887-.1c-6.58.002-7.5.005-7.61.029m.085 1.159a.6.6 0 0 0-.285.296l-.043.094l.004 5.749l.005 5.749l.04.082c.056.113.175.23.293.285l.099.047l1.26.009l1.26.009l.09.048a.6.6 0 0 1 .269.285l.046.099v2.367l1.832-1.374a94 94 0 0 1 1.894-1.4c.054-.021.663-.026 4.131-.034l4.068-.009l.099-.047a.7.7 0 0 0 .293-.285l.04-.082l.005-5.75l.004-5.748l-.043-.094a.6.6 0 0 0-.285-.296l-.11-.055H1.572zM.01 7.808c0 3.203.002 4.513.004 2.912c.003-1.602.003-4.222 0-5.823C.011 3.295.01 4.605.01 7.808m2.95 1.338a.58.58 0 0 0-.365.315c-.039.085-.043.115-.037.254c.006.128.016.17.055.236a.66.66 0 0 0 .275.255l.09.041l2.88.005c2.103.004 2.909 0 2.987-.015c.472-.09.613-.706.23-1c-.162-.123.042-.115-3.153-.113c-2.127.001-2.909.007-2.962.022m7.722.001a.5.5 0 0 0-.266.172a.5.5 0 0 0-.139.378c0 .22.149.437.352.516c.086.033.167.034 2.204.034h2.115l.084-.039a.6.6 0 0 0 .293-.296a.4.4 0 0 0 .043-.247a.5.5 0 0 0-.048-.219a.65.65 0 0 0-.28-.273l-.092-.042l-2.097-.003c-1.656-.003-2.112 0-2.169.019m-7.689 2.316a.62.62 0 0 0-.396.308c-.05.092-.047.394.006.492c.052.097.169.21.272.263l.085.043h2.124c2.046 0 2.127-.001 2.213-.034a.62.62 0 0 0 .295-.271c.041-.079.048-.113.048-.253c0-.134-.007-.175-.041-.24a.62.62 0 0 0-.271-.268l-.102-.05l-2.079-.003a83 83 0 0 0-2.154.013m5.922 0a.55.55 0 0 0-.394.329a.4.4 0 0 0-.041.243c.004.1.018.16.048.219a.65.65 0 0 0 .28.274l.092.041h1.152c1.139 0 1.153 0 1.235-.038a.57.57 0 0 0 .225-.856a.6.6 0 0 0-.331-.211c-.113-.024-2.148-.025-2.266-.001m3.81.003a.6.6 0 0 0-.33.236a.563.563 0 0 0 .129.76c.154.118.148.118 1.346.112l1.078-.005l.092-.042a.65.65 0 0 0 .28-.273a.5.5 0 0 0 .048-.219a.4.4 0 0 0-.042-.245a.6.6 0 0 0-.288-.296l-.09-.041l-1.071-.003c-.675-.002-1.1.004-1.152.016" clip-rule="evenodd"/></g><defs><clipPath id="bubblesCommentedSolid0"><path fill="#fff" d="M0 .5h18v18H0z"/></clipPath></defs></g></svg>