<svg xmlns="http://www.w3.org/2000/svg" xmlns:xlink="http://www.w3.org/1999/xlink" width="30" height="30" viewBox="0 0 30 30"><path fill="currentColor" fill-rule="evenodd" d="M15.258.013a14.04 14.04 0 0 0-7.806 2.819a14.3 14.3 0 0 0-2.88 2.928a14.06 14.06 0 0 0-.945 15.082l.096.173l-.042.091l-1.82 3.83a457 457 0 0 0-1.817 3.84c-.035.097-.037.11-.037.282s.002.185.04.294a.93.93 0 0 0 .599.6c.11.038.126.04.284.041c.175 0 .235-.01.372-.067c.056-.024 7.53-3.585 7.627-3.635l.043-.022l.15.085a14 14 0 0 0 5.687 1.725a14.05 14.05 0 0 0 10.218-3.28a15 15 0 0 0 1.705-1.717a14.04 14.04 0 0 0 3.07-6.673c.231-1.367.26-2.793.084-4.145a14.1 14.1 0 0 0-3.432-7.542a17 17 0 0 0-1.056-1.07a14.05 14.05 0 0 0-8.856-3.64a20 20 0 0 0-1.284.001m.258 1.872a12.14 12.14 0 0 0-8.68 4.06a12.16 12.16 0 0 0-3.019 9.36a12.2 12.2 0 0 0 1.676 5.014c.199.332.225.41.225.657a.7.7 0 0 1-.028.252c-.015.05-.643 1.383-1.395 2.963a679 679 0 0 0-1.363 2.876c.001.001 1.288-.61 2.858-1.36a277 277 0 0 1 2.942-1.39a1 1 0 0 1 .396-.041c.18.023.264.057.522.213a12.3 12.3 0 0 0 3.398 1.406c.673.165 1.299.263 2.072.325c.26.021 1.112.029 1.41.013a12.18 12.18 0 0 0 8.971-4.615a12.2 12.2 0 0 0 2.56-6.342a13 13 0 0 0 .013-2.304A12.184 12.184 0 0 0 16.812 1.908a22 22 0 0 0-.936-.034zm-5.454 10.792a1.42 1.42 0 0 0-1.126 1.1c-.045.215-.036.46.024.67c.043.153.157.372.258.496a1.4 1.4 0 0 0 1.1.525a1.406 1.406 0 0 0 .34-2.77a1.1 1.1 0 0 0-.314-.034a1.5 1.5 0 0 0-.282.013m5.618.001c-.495.093-.915.46-1.074.937c-.116.347-.09.75.067 1.067a1.42 1.42 0 0 0 1.263.786a1.41 1.41 0 0 0 1.387-1.165c.027-.152.018-.43-.018-.573a1.42 1.42 0 0 0-1.035-1.035a2 2 0 0 0-.59-.017m5.628 0a1.41 1.41 0 0 0-1.13 1.139c-.037.216-.017.494.05.69a1.412 1.412 0 0 0 1.954.82a1.43 1.43 0 0 0 .768-1.035a1.41 1.41 0 0 0-.942-1.564a1.6 1.6 0 0 0-.7-.05" clip-rule="evenodd"/></svg>