<svg xmlns="http://www.w3.org/2000/svg" xmlns:xlink="http://www.w3.org/1999/xlink" width="24" height="25" viewBox="0 0 24 25"><g fill="none"><g stroke="currentColor" stroke-width="1.5" clip-path="url(#bubblesDataFileBarsQuestionOutline0)"><path stroke-linecap="round" stroke-linejoin="round" d="M17.25 23.75a6 6 0 1 0 0-12a6 6 0 0 0 0 12"/><path stroke-linecap="round" stroke-linejoin="round" d="M15.375 16.625A1.875 1.875 0 1 1 17.25 18.5"/><path d="M17.25 21.5a.375.375 0 0 1 0-.75m0 .75a.375.375 0 0 0 0-.75"/><path stroke-linecap="round" stroke-linejoin="round" d="M3.75 14.75h4.5m0 0v-7.5m3 3v-1.5m-6 6v-4.5m2.25 10.5H2.25a1.5 1.5 0 0 1-1.5-1.5V2.75a1.5 1.5 0 0 1 1.5-1.5h10.629a1.5 1.5 0 0 1 1.06.439l2.872 2.872a1.5 1.5 0 0 1 .439 1.06V8"/></g><defs><clipPath id="bubblesDataFileBarsQuestionOutline0"><path fill="#fff" d="M0 .5h24v24H0z"/></clipPath></defs></g></svg>