<svg xmlns="http://www.w3.org/2000/svg" xmlns:xlink="http://www.w3.org/1999/xlink" width="20" height="20" viewBox="0 0 20 20"><path fill="currentColor" fill-rule="evenodd" d="M10.005.458a6.4 6.4 0 0 1 3.436.983a6.54 6.54 0 0 1 2.103 2.13a4.84 4.84 0 0 1 2.924 1.319a4.9 4.9 0 0 1 1.118 1.603c.262.602.401 1.25.412 1.907a4.64 4.64 0 0 1-.669 2.541a4.55 4.55 0 0 1-1.95 1.76a1 1 0 0 1-1.38-.604L16 16.62c0 .349-.142.681-.39.924a1.32 1.32 0 0 1-.892.373c-1.394.032-2.442.293-3.198.694a3 3 0 0 0-.513.333l-.131.116l-.056.054l-.047.063l-.08.086l-.076.066l-.08.057l-.072.041l-.128.056l-.105.032l-.11.02l-.13.007l-.11-.007l-.116-.02l-.112-.035l-.14-.064l-.086-.054l-.063-.047l-.084-.078l-.061-.07l-.05-.062l-.083-.08a3 3 0 0 0-.607-.414c-.756-.4-1.804-.662-3.198-.694a1.32 1.32 0 0 1-.891-.373a1.3 1.3 0 0 1-.382-.776L4 16.62v-4.193l-.007.028a1 1 0 0 1-1.162.646A3.6 3.6 0 0 1 .732 11.74a3.7 3.7 0 0 1-.728-2.384A4 4 0 0 1 .41 7.688a4 4 0 0 1 1.078-1.35a3.9 3.9 0 0 1 2.206-.851A6.53 6.53 0 0 1 5.599 2.17A6.35 6.35 0 0 1 10.005.458m3.994 10.789l-.201.02c-.852.092-1.546.284-2.099.546l-.179.09a3 3 0 0 0-.52.338l-.001 4.402c.725-.32 1.584-.546 2.585-.655l.415-.038zm-8 0v4.703l.035.003c1.166.089 2.15.33 2.967.69l-.002-4.402a3 3 0 0 0-.52-.339c-.579-.307-1.33-.533-2.277-.635zm4.008-8.789h-.02a4.35 4.35 0 0 0-3.024 1.175a4.55 4.55 0 0 0-1.424 2.99a1 1 0 0 1-1.216.902a1.86 1.86 0 0 0-1.584.372a2 2 0 0 0-.533.668a2 2 0 0 0-.204.877c-.02.398.098.787.332 1.1c.233.312.564.525.932.607a1 1 0 0 1 .735.672L4 10.506a1.3 1.3 0 0 1 .415-.946a1.32 1.32 0 0 1 .93-.351c1.69.04 3.037.377 4.072.927q.328.174.583.353q.255-.179.582-.353c1.036-.55 2.383-.886 4.073-.927a1.33 1.33 0 0 1 .931.352a1.3 1.3 0 0 1 .407.812l.007.133v.991a1 1 0 0 1 .527-.605a2.55 2.55 0 0 0 1.092-.987c.263-.434.396-.939.38-1.451v-.017a3 3 0 0 0-.247-1.147a2.9 2.9 0 0 0-.664-.952a2.8 2.8 0 0 0-.97-.608a2.8 2.8 0 0 0-1.12-.171a1 1 0 0 1-.95-.56a4.55 4.55 0 0 0-1.67-1.864a4.4 4.4 0 0 0-2.37-.677" clip-rule="evenodd"/></svg>