<svg xmlns="http://www.w3.org/2000/svg" xmlns:xlink="http://www.w3.org/1999/xlink" width="18" height="18" viewBox="0 0 18 18"><path fill="currentColor" fill-rule="evenodd" d="M15.347 1.707a2.2 2.2 0 0 0-1.304.596c-.055.051-1.722 1.716-3.704 3.7C7.29 9.052 6.73 9.615 6.708 9.654a.6.6 0 0 0-.045.105a114 114 0 0 0-.422 2.966c.001.19.104.35.278.435a.4.4 0 0 0 .18.048c.051.003.229-.02 1.513-.204c1.565-.225 1.486-.211 1.586-.269c.057-.033 7.37-7.344 7.464-7.462c.145-.183.285-.431.36-.638a2.21 2.21 0 0 0-.347-2.108a3 3 0 0 0-.178-.192a2 2 0 0 0-.525-.388a2.2 2.2 0 0 0-.7-.227a3 3 0 0 0-.525-.014m.029.99a1.2 1.2 0 0 0-.624.293c-.037.034-1.663 1.657-3.612 3.606L7.596 10.14l-.14.987c-.078.543-.14.992-.14.998c0 .009.178-.015.994-.131l.995-.143l3.587-3.588c2.398-2.398 3.601-3.607 3.63-3.645c.158-.213.24-.458.24-.727a1.21 1.21 0 0 0-.905-1.17a1.4 1.4 0 0 0-.481-.026m-13.929 8.09c-.304.033-.6.156-.839.348a1.64 1.64 0 0 0-.6 1.104c-.01.101-.01 2.49 0 2.594a1.62 1.62 0 0 0 .888 1.292c.16.08.316.13.5.16c.08.012.389.012 7.604.012s7.524 0 7.603-.013a1.64 1.64 0 0 0 1.293-1.035a1.6 1.6 0 0 0 .094-.4a.2.2 0 0 1 .011-.064c.003-.002.006-.568.006-1.257c0-.69-.003-1.251-.006-1.249s-.008-.022-.01-.053a1.625 1.625 0 0 0-1.448-1.44c-.04-.005-.537-.007-1.283-.007c-1.358 0-1.269-.004-1.378.051a.54.54 0 0 0-.211.206a.54.54 0 0 0-.048.337a.53.53 0 0 0 .284.348c.094.042.012.04 1.357.044l1.235.004l.052.016c.231.07.408.265.452.493c.01.05.01.219.01 1.257c0 .781-.002 1.216-.007 1.245a.6.6 0 0 1-.164.327a.64.64 0 0 1-.294.184l-.064.02H1.516l-.064-.02a.64.64 0 0 1-.294-.184a.6.6 0 0 1-.136-.213c-.037-.113-.035-.055-.035-1.35c0-.8.002-1.222.007-1.253a.66.66 0 0 1 .454-.506l.053-.016l1.235-.004c1.345-.005 1.263-.002 1.357-.044a.52.52 0 0 0 .245-.24a.4.4 0 0 0 .047-.217a.45.45 0 0 0-.144-.342a.4.4 0 0 0-.123-.092c-.11-.055-.019-.051-1.39-.05c-.674 0-1.251.003-1.28.006M.003 13.535c0 .691.001.974.002.628v-1.256c0-.346-.002-.063-.002.628" clip-rule="evenodd"/></svg>