<svg xmlns="http://www.w3.org/2000/svg" xmlns:xlink="http://www.w3.org/1999/xlink" width="20" height="20" viewBox="0 0 20 20"><g fill="none"><g clip-path="url(#bubblesEditorIndentIncreaseSolid0)"><path fill="currentColor" fill-rule="evenodd" d="M3.466 2.082a1 1 0 0 1 1-1H19a1 1 0 1 1 0 2H4.466a1 1 0 0 1-1-1m0 16.666a1 1 0 0 1 1-1H19a1 1 0 0 1 0 2H4.466a1 1 0 0 1-1-1M8.1 14.415a1 1 0 0 0 0 2H19a1 1 0 1 0 0-2zm-1-2.333a1 1 0 0 1 1-1H19a1 1 0 0 1 0 2H8.1a1 1 0 0 1-1-1m1-4.334a1 1 0 1 0 0 2H19a1 1 0 1 0 0-2zm-1-2.333a1 1 0 0 1 1-1H19a1 1 0 1 1 0 2H8.1a1 1 0 0 1-1-1m-5.274.887a1.07 1.07 0 0 0-.569-.288l-.131-.013a1.06 1.06 0 0 0-.509.107c-.191.094-.35.242-.458.425a1.14 1.14 0 0 0-.159.58v6.774c0 .204.054.405.158.58a1.1 1.1 0 0 0 .459.425a1.06 1.06 0 0 0 1.21-.195l3.499-3.386a1.1 1.1 0 0 0 .34-.811a1.14 1.14 0 0 0-.34-.81z" clip-rule="evenodd"/></g><defs><clipPath id="bubblesEditorIndentIncreaseSolid0"><path fill="#fff" d="M0 0h20v20H0z"/></clipPath></defs></g></svg>