<svg xmlns="http://www.w3.org/2000/svg" xmlns:xlink="http://www.w3.org/1999/xlink" width="20" height="20" viewBox="0 0 20 20"><path fill="currentColor" fill-rule="evenodd" d="M12.399 3.452a1 1 0 1 0-1.957-.412L7.6 16.549a1 1 0 1 0 1.957.412zm-6.533 1.75a1 1 0 0 1-.143 1.407l-3.14 2.558l3.14 2.558a1 1 0 1 1-1.264 1.55L.37 9.942a1 1 0 0 1 0-1.55l4.09-3.334a1 1 0 0 1 1.407.144m8.268 0a1 1 0 0 1 1.406-.144l4.091 3.334a1 1 0 0 1 0 1.55l-4.09 3.333a1 1 0 1 1-1.264-1.55l3.14-2.558l-3.14-2.558a1 1 0 0 1-.143-1.407" clip-rule="evenodd"/></svg>