<svg xmlns="http://www.w3.org/2000/svg" xmlns:xlink="http://www.w3.org/1999/xlink" width="18" height="18" viewBox="0 0 18 18"><path fill="currentColor" fill-rule="evenodd" d="m8.669.537l-.184.01a8.43 8.43 0 0 0-5.472 2.466a8.3 8.3 0 0 0-1.576 2.175A8.4 8.4 0 0 0 .566 8.23c-.025.276-.03.392-.03.77s.005.494.03.77a8.43 8.43 0 0 0 2.948 5.682a8.46 8.46 0 0 0 4.968 2.002c.178.012.858.012 1.036 0a8.48 8.48 0 0 0 5.933-2.968a8.46 8.46 0 0 0 1.962-4.503c.04-.348.05-.554.05-.983s-.01-.635-.05-.983a8.46 8.46 0 0 0-2.927-5.469A8.46 8.46 0 0 0 9.533.547a20 20 0 0 0-.864-.01m.111.976a7.45 7.45 0 0 0-3.827 1.18c-.663.424-1.29.99-1.807 1.63a7.5 7.5 0 0 0-1.569 3.651c-.049.37-.066.633-.066 1.03c0 .444.028.804.095 1.212a7.5 7.5 0 0 0 1.087 2.831a7.5 7.5 0 0 0 5.281 3.376c.364.048.637.066 1.026.066c.327 0 .527-.01.817-.041a7.47 7.47 0 0 0 4.9-2.606a7.47 7.47 0 0 0 1.75-5.468A7.5 7.5 0 0 0 15.3 4.943a7.7 7.7 0 0 0-1.459-1.66a7.46 7.46 0 0 0-5.062-1.77M5.658 5.6a.756.756 0 0 0-.593.868a.76.76 0 0 0 .442.561a.6.6 0 0 0 .3.058a.6.6 0 0 0 .194-.02a.76.76 0 0 0 .547-.588a.9.9 0 0 0-.002-.292a.76.76 0 0 0-.36-.5a.78.78 0 0 0-.528-.087m6.383.001a.753.753 0 0 0-.031 1.47a.6.6 0 0 0 .183.016a.6.6 0 0 0 .181-.016a.754.754 0 0 0-.333-1.47M4.327 10.12a1.02 1.02 0 0 0-.844.808a1.2 1.2 0 0 0 0 .404c.018.08.087.274.163.454a5.809 5.809 0 0 0 10.721-.03c.075-.184.133-.348.149-.424a1.2 1.2 0 0 0 .004-.384a1.02 1.02 0 0 0-.733-.803c-.136-.038.179-.036-4.794-.035c-3.818 0-4.615.002-4.666.01m.127.98c-.017.016-.015.034.018.12q.37.991 1.118 1.736a4.75 4.75 0 0 0 1.653 1.08c.578.214 1.047.31 1.589.327a4.8 4.8 0 0 0 2.314-.5a4.82 4.82 0 0 0 2.382-2.642c.032-.087.035-.105.018-.122c-.01-.01-.433-.011-4.546-.011s-4.536.001-4.546.011" clip-rule="evenodd"/></svg>