<svg xmlns="http://www.w3.org/2000/svg" xmlns:xlink="http://www.w3.org/1999/xlink" width="24" height="24" viewBox="0 0 24 24"><g fill="none" stroke="currentColor" stroke-linecap="round" stroke-linejoin="round" stroke-width="1.5"><path d="M5.247 23.248h-3a1.5 1.5 0 0 1-1.5-1.5v-19.5a1.5 1.5 0 0 1 1.5-1.5h10.629a1.5 1.5 0 0 1 1.06.439l5.872 5.872a1.5 1.5 0 0 1 .439 1.06v4.629"/><path d="M20.247 8.248h-6a1.5 1.5 0 0 1-1.5-1.5v-6m9 22.5v-7.5m-1.5 0h3m-13.5 7.5v-7.5m-1.5 0h3m3 0l3 7.5m0-7.5l-3 7.5"/></g></svg>