<svg xmlns="http://www.w3.org/2000/svg" xmlns:xlink="http://www.w3.org/1999/xlink" width="24" height="24" viewBox="0 0 24 24"><g fill="none" stroke="currentColor" stroke-linecap="round" stroke-linejoin="round" stroke-width="1.5"><path d="M8.248 23.248v-7.5m0 0h1.125a1.875 1.875 0 0 1 0 3.75H8.248m3 3.75l-2.25-3.75m11.25 3.75v-7.5m0 0h1.125a1.875 1.875 0 0 1 0 3.75h-1.125m3 3.75l-2.25-3.75m-6.75 3.75v-6a1.5 1.5 0 1 1 3 0v6m-3-3h3"/><path d="M5.248 23.248h-3a1.5 1.5 0 0 1-1.5-1.5v-19.5a1.5 1.5 0 0 1 1.5-1.5h10.629a1.5 1.5 0 0 1 1.06.439l5.872 5.872a1.5 1.5 0 0 1 .439 1.06v4.629"/><path d="M20.248 8.248h-6a1.5 1.5 0 0 1-1.5-1.5v-6"/></g></svg>