<svg xmlns="http://www.w3.org/2000/svg" xmlns:xlink="http://www.w3.org/1999/xlink" width="24" height="24" viewBox="0 0 24 24"><g fill="none" stroke="currentColor" stroke-linecap="round" stroke-linejoin="round" stroke-width="1.5"><path d="M5.25 23.25h-3a1.5 1.5 0 0 1-1.5-1.5V2.25a1.5 1.5 0 0 1 1.5-1.5h10.629a1.5 1.5 0 0 1 1.06.439l5.872 5.872a1.5 1.5 0 0 1 .439 1.06v4.629"/><path d="M20.25 8.25h-6a1.5 1.5 0 0 1-1.5-1.5v-6m1.5 15v2.55c0 1.763.522 3.487 1.5 4.954a8.93 8.93 0 0 0 1.5-4.954v-2.55m-6 0h-1.5a1.5 1.5 0 0 0-1.5 1.5c0 2.25 3 2.25 3 4.5a1.5 1.5 0 0 1-1.5 1.5h-1.5m14.25-3h.75v1.5a1.5 1.5 0 1 1-3 0v-4.5a1.5 1.5 0 0 1 1.5-1.5h1.5"/></g></svg>