<svg xmlns="http://www.w3.org/2000/svg" xmlns:xlink="http://www.w3.org/1999/xlink" width="15" height="16" viewBox="0 0 15 16"><g fill="none"><g clip-path="url(#bubblesInfoSolid0)"><path fill="currentColor" fill-rule="evenodd" d="M7.224.947a7.02 7.02 0 0 0-5.1 2.48a7.05 7.05 0 0 0-1.669 4.14c-.01.149-.01.715 0 .864a7.05 7.05 0 0 0 2.473 4.944a7.04 7.04 0 0 0 3.753 1.635c.29.033.462.042.82.042c.356 0 .528-.01.818-.042a7.064 7.064 0 0 0 6.171-6.03c.048-.345.063-.576.063-.981c0-.357-.009-.53-.042-.82a7.05 7.05 0 0 0-2.439-4.557A7.05 7.05 0 0 0 7.944.955a16 16 0 0 0-.72-.008m.093.813a6.2 6.2 0 0 0-4.233 1.829a6 6 0 0 0-1.197 1.676a6.2 6.2 0 0 0-.609 2.209a6.22 6.22 0 0 0 2.187 5.29a6.23 6.23 0 0 0 4.716 1.441a6.23 6.23 0 0 0 4.083-2.171a6.23 6.23 0 0 0 1.455-4.59a6.2 6.2 0 0 0-.95-2.796a6.25 6.25 0 0 0-4.353-2.826a6.4 6.4 0 0 0-1.099-.062m-.15 2.739a.628.628 0 0 0-.166 1.18c.1.05.18.066.3.062a.5.5 0 0 0 .227-.048a.66.66 0 0 0 .33-.335a.63.63 0 0 0-.286-.796a.64.64 0 0 0-.404-.063m-.606 2.21a.38.38 0 0 0-.234.117a.38.38 0 0 0-.118.285q0 .111.047.198a.5.5 0 0 0 .167.163c.084.044.078.043.38.047c.26.003.272.003.28.015c.008.01.01.176.01 1.149c0 .72.001 1.161.005 1.203a1.29 1.29 0 0 0 1.155 1.173c.03.003.182.006.34.006c.322 0 .335-.002.42-.043a.3.3 0 0 0 .102-.077a.36.36 0 0 0 .118-.302a.4.4 0 0 0-.016-.112a.43.43 0 0 0-.259-.26c-.037-.012-.053-.013-.336-.016c-.34-.005-.346-.005-.45-.055a.3.3 0 0 1-.12-.088a.43.43 0 0 1-.134-.242c-.009-.041-.01-.172-.01-1.19c0-.751-.002-1.163-.006-1.204a.85.85 0 0 0-.59-.73c-.11-.036-.142-.038-.442-.04c-.15-.001-.29 0-.309.003" clip-rule="evenodd"/></g><defs><clipPath id="bubblesInfoSolid0"><path fill="#fff" d="M0 .5h15v15H0z"/></clipPath></defs></g></svg>