<svg xmlns="http://www.w3.org/2000/svg" xmlns:xlink="http://www.w3.org/1999/xlink" width="20" height="20" viewBox="0 0 20 20"><path fill="currentColor" d="M15.656 2H4.344A2.347 2.347 0 0 0 2 4.344v11.312A2.347 2.347 0 0 0 4.344 18h11.312A2.347 2.347 0 0 0 18 15.656V4.344A2.347 2.347 0 0 0 15.656 2m-5.625 12.188a4.223 4.223 0 0 1-4.219-4.22a4.223 4.223 0 0 1 4.22-4.218a4.223 4.223 0 0 1 4.218 4.219a4.224 4.224 0 0 1-4.219 4.219m4.688-7.5a1.408 1.408 0 0 1 0-2.813a1.407 1.407 0 0 1 0 2.813"/></svg>