<svg xmlns="http://www.w3.org/2000/svg" xmlns:xlink="http://www.w3.org/1999/xlink" width="17" height="16" viewBox="0 0 17 16"><path fill="currentColor" fill-rule="evenodd" d="M9.392.527a1.5 1.5 0 0 0-.847.494c-.042.048-.805 1.12-1.696 2.383c-.892 1.263-1.65 2.33-1.687 2.37a.9.9 0 0 1-.339.215c-.084.03-.137.033-.716.04l-.626.005l-.01-.133a1.15 1.15 0 0 0-.643-.964c-.23-.113-.227-.113-1.128-.113H.892l-.09.044a.55.55 0 0 0-.24.24a.6.6 0 0 0 0 .428c.052.101.153.2.249.243c.08.036.09.037.83.045l.75.008l.038.045l.04.045v7.932l-.04.045l-.038.045l-.75.008c-.722.008-.752.009-.823.042a.57.57 0 0 0-.251.237c-.037.07-.043.1-.043.225s.006.155.043.225c.05.097.15.19.251.237c.072.033.098.034.81.039c.768.005.902-.003 1.076-.062a1.25 1.25 0 0 0 .612-.51c.103-.172.145-.333.156-.588l.009-.21l.305.159c1.883.982 3.422 1.451 5.426 1.653c.977.099 2.5.135 2.849.068c1.223-.235 2.392-1.36 3.318-3.195c.55-1.088.91-2.227 1.06-3.336c.049-.367.053-1.11.008-1.408c-.076-.503-.211-.906-.395-1.176a1.5 1.5 0 0 0-.885-.6c-.21-.049-.48-.056-2.116-.056c-1.47 0-1.659-.003-1.736-.026a.83.83 0 0 1-.561-.555c-.065-.212-.056-.262.28-1.531c.165-.62.31-1.2.324-1.287a1.54 1.54 0 0 0-.43-1.283a1.74 1.74 0 0 0-.812-.47a1.9 1.9 0 0 0-.724-.017m.164.99a.6.6 0 0 0-.236.15c-.037.038-.79 1.094-1.675 2.347a190 190 0 0 1-1.708 2.4C5.698 6.7 5.304 6.923 4.9 7c-.092.018-.27.023-.772.023h-.652v2.708l.001 2.708l.324.176c1.699.922 2.923 1.376 4.4 1.631c.963.166 1.826.236 2.947.24c.795.001.798 0 1.064-.108c.33-.134.627-.347.985-.706c.342-.343.584-.65.859-1.09c.913-1.461 1.492-3.356 1.418-4.64c-.033-.561-.162-.982-.347-1.122c-.15-.114-.033-.107-2.05-.118c-1.29-.007-1.84-.015-1.895-.028c-.389-.093-.67-.245-.924-.5a1.8 1.8 0 0 1-.519-1.583c.012-.066.156-.627.32-1.247s.302-1.164.307-1.21c.026-.217-.12-.445-.357-.562a.47.47 0 0 0-.267-.064a1 1 0 0 0-.186.009" clip-rule="evenodd"/></svg>