<svg xmlns="http://www.w3.org/2000/svg" xmlns:xlink="http://www.w3.org/1999/xlink" width="24" height="24" viewBox="0 0 24 24"><g fill="none"><g stroke="currentColor" stroke-linecap="round" stroke-linejoin="round" stroke-width="1.5" clip-path="url(#bubblesListEditOutline0)"><path d="m20.25 19.511l1.5 3l1.5-3v-9.75a1.5 1.5 0 1 0-3 0zm-7.5-14.25h3a1.5 1.5 0 0 1 1.5 1.5v14.25a1.5 1.5 0 0 1-1.5 1.5H2.25a1.5 1.5 0 0 1-1.5-1.5V6.761a1.5 1.5 0 0 1 1.5-1.5h3a3.75 3.75 0 1 1 7.5 0"/><path d="M9 4.511a.375.375 0 1 1 0 .75a.375.375 0 0 1 0-.75"/></g><defs><clipPath id="bubblesListEditOutline0"><path fill="#fff" d="M0 0h24v24H0z"/></clipPath></defs></g></svg>