<svg xmlns="http://www.w3.org/2000/svg" xmlns:xlink="http://www.w3.org/1999/xlink" width="24" height="24" viewBox="0 0 24 24"><g fill="none" stroke="currentColor" stroke-linecap="round" stroke-linejoin="round" stroke-width="1.5"><path d="M11.247 17.25a6 6 0 1 0 12 0a6 6 0 0 0-12 0m8.25-2.25l-4.5 4.5m0-4.5l4.5 4.5"/><path d="m8.223 16.5l-5.811-6.065a5.67 5.67 0 0 1-1.063-6.55v0a5.672 5.672 0 0 1 9.085-1.472L12 3.978l1.566-1.565a5.672 5.672 0 0 1 9.085 1.473v0A5.68 5.68 0 0 1 22.632 9"/></g></svg>