<svg xmlns="http://www.w3.org/2000/svg" xmlns:xlink="http://www.w3.org/1999/xlink" width="18" height="18" viewBox="0 0 18 18"><path fill="currentColor" fill-rule="evenodd" d="M1.377.03A1.73 1.73 0 0 0 .019 1.44c-.016.102-.02 1.59-.016 5.958l.006 5.823l.05.162c.028.09.088.231.132.315c.274.515.777.86 1.336.917c.103.01.558.02 1.012.02h.826l.005 1.462l.005 1.462l.047.1c.1.212.25.32.475.336a.45.45 0 0 0 .22-.021q.087-.034 2.292-1.686l2.207-1.654h3.835c2.539 0 3.898-.006 4.021-.019c.361-.036.7-.192.97-.444a1.6 1.6 0 0 0 .366-.473c.083-.155.174-.43.174-.523c0-.028.008-.056.018-.062c.012-.007.018-1.968.018-5.825c0-3.31-.007-5.81-.016-5.804c-.008.005-.02-.031-.027-.08a2 2 0 0 0-.181-.513a1.8 1.8 0 0 0-.92-.79c-.312-.109.31-.1-7.887-.1c-6.58.002-7.5.005-7.61.03m.085 1.159a.6.6 0 0 0-.285.296l-.043.094l.004 5.75l.005 5.748l.04.082c.056.113.175.23.293.285l.099.047l1.26.01l1.26.008l.09.048a.6.6 0 0 1 .269.285l.046.1v2.366l1.832-1.373c1.007-.756 1.86-1.386 1.894-1.4c.054-.022.662-.027 4.13-.035l4.069-.009l.099-.047a.7.7 0 0 0 .293-.285l.04-.082l.005-5.749l.004-5.75l-.043-.093a.6.6 0 0 0-.285-.296l-.11-.055H1.572zM.01 7.309c0 3.202.002 4.512.004 2.91c.003-1.6.003-4.22 0-5.822S.01 4.106.01 7.308m2.95 1.338a.58.58 0 0 0-.365.315c-.04.084-.043.114-.037.253c.006.128.016.171.055.237a.65.65 0 0 0 .275.254l.09.041l2.88.006c2.103.004 2.909 0 2.987-.016c.472-.09.613-.706.23-1c-.162-.122.042-.115-3.153-.113c-2.127.001-2.91.007-2.962.023m7.722 0a.5.5 0 0 0-.266.173a.5.5 0 0 0-.14.377c.001.22.15.438.353.516c.086.033.167.034 2.204.034h2.115l.084-.039a.6.6 0 0 0 .293-.296a.4.4 0 0 0 .043-.247a.5.5 0 0 0-.048-.219a.65.65 0 0 0-.28-.273l-.092-.042l-2.097-.003c-1.656-.003-2.112.001-2.17.02m-7.689 2.316a.62.62 0 0 0-.396.308c-.05.093-.047.394.006.492c.052.097.169.21.272.263l.085.043h2.124c2.046 0 2.127-.001 2.213-.034a.62.62 0 0 0 .295-.271c.041-.079.048-.112.048-.253c0-.134-.007-.175-.041-.239a.62.62 0 0 0-.271-.269l-.102-.05l-2.08-.002a82 82 0 0 0-2.153.012m5.922 0a.55.55 0 0 0-.394.329a.4.4 0 0 0-.041.243c.004.1.018.16.048.22a.65.65 0 0 0 .28.273l.092.041h1.152c1.139 0 1.153 0 1.235-.038a.57.57 0 0 0 .224-.856a.6.6 0 0 0-.33-.21c-.113-.024-2.148-.025-2.266-.002m3.81.003a.6.6 0 0 0-.33.236a.563.563 0 0 0 .129.76c.154.118.148.118 1.346.112l1.078-.005l.092-.041a.65.65 0 0 0 .28-.274a.5.5 0 0 0 .048-.218a.4.4 0 0 0-.042-.245a.6.6 0 0 0-.288-.296l-.09-.042l-1.071-.003c-.675-.002-1.1.004-1.152.016" clip-rule="evenodd"/></svg>