<svg xmlns="http://www.w3.org/2000/svg" xmlns:xlink="http://www.w3.org/1999/xlink" width="19" height="18" viewBox="0 0 19 18"><g fill="currentColor" fill-rule="evenodd" clip-rule="evenodd"><path d="M5.843 2.45c-.695.044-1.19.497-1.322 1.213a2 2 0 0 0-.021.145a1594 1594 0 0 0 0 9.336c.03.36.153.65.375.88q.064.067.136.124l.777.316c.058.01.153.012.608.014c.694.004.82-.003 1.017-.055c.565-.15.945-.62 1.027-1.268c.002-.017.004-.227.005-.573c.001-.222.004-.427.004-.748v-1.122l.002-2.82a418 418 0 0 0-.012-4.168a1.37 1.37 0 0 0-.287-.73c-.238-.304-.636-.505-1.08-.544a30 30 0 0 0-1.23 0m6.06 0c-.537.034-.96.312-1.182.775a1.8 1.8 0 0 0-.16.56c-.003.03-.005.84-.006 2.4v2.294l.93-.802l.002 1.138l-.933.927c0 4 .001 3.448.027 3.58q.121.623.65.934c.197.116.452.195.7.217c.108.01 1.052.01 1.21 0c.378-.023.674-.145.918-.379c.247-.238.406-.589.445-.98c.006-.068.007-4.6.004-7.313V4.652a65 65 0 0 0-.004-.867a1.6 1.6 0 0 0-.07-.37a1.3 1.3 0 0 0-.305-.516c-.225-.234-.52-.376-.913-.44c-.06-.01-.15-.012-.646-.013c-.318 0-.618.001-.667.004m-6.03.927a.6.6 0 0 0-.183.05c-.132.062-.222.203-.257.403c-.01.06-.011.396-.01 4.686l.002 2.792v1.83l.016.053c.026.09.053.139.11.196a.4.4 0 0 0 .117.084l-.657.677l.777.316l.867-.879c.564-.002.446-.038.502-.053a.4.4 0 0 0 .2-.11a.5.5 0 0 0 .121-.2c.02-.058 0-.412 0-.412s.887-.859.971-.976v-1.122l-.93.93l.001-1.317v-1.89c0-4.536 0-4.616-.013-4.68a.4.4 0 0 0-.115-.218a.56.56 0 0 0-.282-.145c-.058-.016-.06-.016-.635-.017c-.318 0-.588 0-.602.002m6.038.003a.42.42 0 0 0-.264.121a.5.5 0 0 0-.122.2c-.034.097-.04-.115-.04 1.815v2.16l.002 1.139v4.336l.015.05c.026.084.054.13.11.186c.074.073.16.116.299.148c.05.012.094.012.645.012c.665 0 .643.002.758-.051c.131-.062.221-.202.256-.403c.01-.06.011-.396.01-4.686V6.705l.928-.904V4.652l-.93.93V3.786l-.015-.054a.4.4 0 0 0-.111-.196a.5.5 0 0 0-.21-.122c-.123-.042-.127-.042-.736-.04a17 17 0 0 0-.595.006"/><path d="M16.984 1.003a.4.4 0 0 0-.167.052c-.03.015-.223.202-2.383 2.36l-2.95 2.947l-.93.93l-1.381 1.38l-.722.723l-.93.93l-2.973 2.97l-2.971 2.971l-.028.058a.47.47 0 0 0 .219.632a.47.47 0 0 0 .451-.03c.025-.017.752-.74 2.792-2.778l3.438-3.436l1.395-1.394l1.64-1.641l2.095-2.095l.929-.93c2.384-2.385 2.921-2.928 2.936-2.953a.4.4 0 0 0 .056-.236a.4.4 0 0 0-.013-.133a.5.5 0 0 0-.101-.175a.46.46 0 0 0-.402-.152"/></g></svg>