<svg xmlns="http://www.w3.org/2000/svg" xmlns:xlink="http://www.w3.org/1999/xlink" width="16" height="16" viewBox="0 0 16 16"><path fill="currentColor" fill-rule="evenodd" d="M9.956.938a.43.43 0 0 0-.272.212a.33.33 0 0 0-.042.19a.3.3 0 0 0 .016.126c.042.128.148.23.283.27c.035.01.123.011 2.089.014l2.053.003L10.03 5.74C7.8 7.933 5.964 9.743 5.948 9.762a.38.38 0 0 0-.088.277a.36.36 0 0 0 .121.27c.082.082.17.118.288.117a.36.36 0 0 0 .218-.062c.028-.018 1.144-1.111 4.114-4.033l4.074-4.008l.003 2.022c.003 1.913.004 2.024.014 2.058a.44.44 0 0 0 .206.259c.104.059.271.06.38.002a.42.42 0 0 0 .211-.272c.007-.034.009.713.011 4.305l.003 4.347v-4.806c.001-2.644 0-5.747-.002-6.898l-.004-2.09l-.016-.045a.4.4 0 0 0-.101-.156a.4.4 0 0 0-.157-.101L15.18.93h-2.592c-2.2-.001-2.598 0-2.63.007M1.361 4.085a.965.965 0 0 0-.838.743l-.014.051l-.002 5.097c-.001 3.73 0 5.11.005 5.142a.97.97 0 0 0 .78.797c.041.009.478.01 5.091.012c3.629.001 5.063 0 5.106-.005a.96.96 0 0 0 .855-.873c.005-.05.006-1.108.005-3.425l-.002-3.355l-.013-.039a.42.42 0 0 0-.284-.275a.5.5 0 0 0-.222 0a.42.42 0 0 0-.287.286c-.01.032-.01.229-.013 3.4l-.003 3.367l-.013.024a.15.15 0 0 1-.08.069a870 870 0 0 1-5.012.005c-4.495 0-4.992 0-5.013-.009a.16.16 0 0 1-.074-.072c-.01-.023-.01-.166-.01-5.02c0-4.179 0-5 .007-5.016a.15.15 0 0 1 .073-.074l.03-.014h3.34c3.713 0 3.39.003 3.482-.042a.4.4 0 0 0 .231-.37a.405.405 0 0 0-.288-.394l-.039-.014H4.784c-1.856 0-3.396.001-3.423.004" clip-rule="evenodd"/></svg>