<svg xmlns="http://www.w3.org/2000/svg" xmlns:xlink="http://www.w3.org/1999/xlink" width="25" height="25" viewBox="0 0 25 25"><g fill="none"><path stroke="currentColor" stroke-linecap="round" stroke-linejoin="round" stroke-width="1.5" d="M22 3.5H3.5a2 2 0 0 0-2 2V20a2 2 0 0 0 2 2H22a2 2 0 0 0 2-2V5.5a2 2 0 0 0-2-2M1.5 8H24M1.5 15H24M9 8v14m7.5-14v14"/><path fill="currentColor" fill-rule="evenodd" d="M2 8.438h7v13.28H2zM3.5 11.5a.75.75 0 0 1 .75-.75h2a.75.75 0 0 1 0 1.5h-2a.75.75 0 0 1-.75-.75m.75 6.25a.75.75 0 0 0 0 1.5h2a.75.75 0 0 0 0-1.5z" clip-rule="evenodd"/></g></svg>