<svg xmlns="http://www.w3.org/2000/svg" xmlns:xlink="http://www.w3.org/1999/xlink" width="25" height="25" viewBox="0 0 25 25"><g fill="none"><path fill="currentColor" fill-rule="evenodd" d="M8.804 22.604a3.9 3.9 0 0 0 1.146-2.767V3.207A1.957 1.957 0 0 0 7.994 1.25H4.081a1.957 1.957 0 0 0-1.957 1.957v16.63a3.913 3.913 0 0 0 6.68 2.767M4.652 6.324a1.5 1.5 0 1 1 2.772-1.148a1.5 1.5 0 0 1-2.772 1.148m-.114 5.426a1.5 1.5 0 1 0 3 0a1.5 1.5 0 0 0-3 0m.114 6.574a1.5 1.5 0 1 1 2.771-1.148a1.5 1.5 0 0 1-2.77 1.148" clip-rule="evenodd"/><path stroke="currentColor" stroke-linecap="round" stroke-linejoin="round" stroke-width="1.5" d="M9.95 19.837a3.913 3.913 0 1 1-7.826 0V3.207A1.957 1.957 0 0 1 4.081 1.25h3.913A1.957 1.957 0 0 1 9.95 3.207z"/><path stroke="currentColor" stroke-linecap="round" stroke-linejoin="round" stroke-width="1.5" d="M9.393 21.852L17.742 7.39a1.957 1.957 0 0 0-.716-2.673l-3.389-1.956A1.95 1.95 0 0 0 12.62 2.5"/><path stroke="currentColor" stroke-linecap="round" stroke-linejoin="round" stroke-width="1.5" d="m8.043 23.2l14.354-8.29a1.957 1.957 0 0 0 .716-2.672L21.156 8.85a1.9 1.9 0 0 0-.5-.57"/></g></svg>