<svg xmlns="http://www.w3.org/2000/svg" xmlns:xlink="http://www.w3.org/1999/xlink" width="25" height="25" viewBox="0 0 25 25"><path fill="currentColor" fill-rule="evenodd" d="M9.531.5c-.994 0-1.953.39-2.656 1.094c-.52.52-.79 1.198-.937 1.906H2.03a1.5 1.5 0 0 0-1.062.438A1.5 1.5 0 0 0 .53 5v9.75c0 .414.336.75.75.75h3.75V17h-.5a4.057 4.057 0 0 0-4 4.094v2.656a.75.75 0 0 0 1.5 0v-2.656a2.54 2.54 0 0 1 .719-1.813A2.54 2.54 0 0 1 4.53 18.5h1.25a.75.75 0 0 0 .75-.75V14a.75.75 0 1 1 1.5 0v5.906c0 .64.732.979 1.219.563l.844-.719l.094-.094a.6.6 0 0 1 .156-.125c.053-.029.096-.057.156-.062a.5.5 0 0 1 .344.125a.52.52 0 0 1 .187.343a.53.53 0 0 1-.125.375l-2.437 2.97c-.262.32-.197.8.125 1.062c.321.261.8.196 1.062-.125l2.406-2.969a1.98 1.98 0 0 0 .438-1.437a2.07 2.07 0 0 0-.687-1.375a2 2 0 0 0-.688-.375a1.8 1.8 0 0 0-.75-.063a2 2 0 0 0-.75.219c-.04.021-.056.07-.094.093V15.5h6a2 2 0 0 0-.25.75c-.03.305.021.617.125.906s.252.565.469.782l.906.875v1.53c-.048.415-.004.833.157 1.22c.175.425.468.795.843 1.062l3 1.781a.75.75 0 0 0 .782-1.281l-2.97-1.75a1.1 1.1 0 0 1-.28-.406a.87.87 0 0 1-.063-.5l.031-.125V18.5a.75.75 0 0 0-.218-.531l-1.125-1.094a.6.6 0 0 1-.125-.219a.6.6 0 0 1-.032-.25a.6.6 0 0 1 .063-.25c.043-.073.116-.109.187-.156a.58.58 0 0 1 .375-.094c.133.013.25.062.344.156l1.563 1.563a.752.752 0 0 0 1.062-1.062L18.813 15c-.076-.075-.195-.069-.282-.125v-3.312l2.782 2.5c.443.63.718 1.353.718 2.124v2.188c0 .825.323 1.635.907 2.219l.28.281a.752.752 0 0 0 1.063-1.062L24 19.53a1.65 1.65 0 0 1-.469-1.156v-2.187c0-1.095-.364-2.141-1-3.032l-.093-.125l-3.907-3.469V5c0-.398-.156-.781-.437-1.062A1.5 1.5 0 0 0 17.03 3.5h-3.906c-.148-.708-.418-1.387-.937-1.906A3.76 3.76 0 0 0 9.53.5m-.031 3c.198 0 .398.046.563.156s.299.286.374.469s.07.369.032.563s-.11.39-.25.53s-.338.212-.531.25c-.194.04-.38.045-.563-.03a1.07 1.07 0 0 1-.469-.375A1 1 0 0 1 8.5 4.5c0-.131.012-.254.063-.375c.05-.121.125-.25.218-.344s.223-.168.344-.219A1 1 0 0 1 9.5 3.5"/></svg>