<svg xmlns="http://www.w3.org/2000/svg" xmlns:xlink="http://www.w3.org/1999/xlink" width="25" height="25" viewBox="0 0 25 25"><g fill="none"><path fill="currentColor" d="m9.238 11.766l6.364-6.364l3.182 3.182l-6.364 6.364zm13.259-6.895l1.06 1.061a1.5 1.5 0 0 1 0 2.121l-4.773 4.773zm-3.713 3.713l3.713-3.713a1.5 1.5 0 0 0 0-2.12l-1.061-1.062a1.5 1.5 0 0 0-2.121 0L15.602 5.4"/><path stroke="currentColor" stroke-linecap="round" stroke-linejoin="round" stroke-width="1.5" d="m18.784 8.584l3.713-3.713a1.5 1.5 0 0 0 0-2.12l-1.061-1.062a1.5 1.5 0 0 0-2.121 0L15.602 5.4m-6.364 6.366l6.364-6.364l3.182 3.182l-6.364 6.364zm13.259-6.895l1.06 1.061a1.5 1.5 0 0 1 0 2.121l-4.773 4.773z"/><path stroke="currentColor" stroke-linecap="round" stroke-linejoin="round" stroke-width="1.5" d="M4.497 19.25H3.75a2.25 2.25 0 1 0 0 4.5H19.5m-8.671-7.21c-.878.877-4.242 1.06-4.242 1.06s.182-3.365 1.06-4.243a2.25 2.25 0 1 1 3.182 3.182"/></g></svg>