<svg xmlns="http://www.w3.org/2000/svg" xmlns:xlink="http://www.w3.org/1999/xlink" width="23" height="23" viewBox="0 0 23 23"><g fill="none" stroke="currentColor" stroke-width="1.3"><path stroke-linecap="round" stroke-linejoin="round" d="M12.34 1a9.9 9.9 0 0 0-8.672 5.095a9.92 9.92 0 0 0 .245 10.062L1 22.281l6.118-2.917a9.918 9.918 0 0 0 14.784-5.714a9.94 9.94 0 0 0-1.63-8.71A9.93 9.93 0 0 0 12.34 1"/><path d="M12.35 11.286a.355.355 0 1 1 0-.71m0 .71a.355.355 0 1 0 0-.71m-4.256.71a.355.355 0 0 1 0-.71m0 .71a.355.355 0 0 0 0-.71m8.512.71a.355.355 0 0 1 0-.71m0 .71a.355.355 0 1 0 0-.71"/></g></svg>