<svg xmlns="http://www.w3.org/2000/svg" xmlns:xlink="http://www.w3.org/1999/xlink" width="24" height="25" viewBox="0 0 24 25"><g fill="currentColor"><path fill-rule="evenodd" d="M9.03 2.224c.1.071.175.171.215.287l4.165 7.172a6.92 6.92 0 0 0-4.006 6.278H1.439c-.614 0-.865-.433-.558-.961l7.25-12.49a.59.59 0 0 1 .899-.286m.374 13.737a6.923 6.923 0 1 0 4.006-6.278L16.497 15c.307.528.056.96-.558.96z" clip-rule="evenodd"/><path d="m9.245 2.51l-.708.248a1 1 0 0 0 .06.13zm.686 10.803l-.693-.287zM.881 15l.648.377zm7.25-12.49l.649.377a1 1 0 0 0 .06-.129zm10.845 19.848l.287.693zm2.246-1.5l-.53-.531zm1.501-2.247l.693.287zm0-5.298l.693-.287zm-1.5-2.246l-.531.53zm-2.247-1.501l.287-.693zm-5.298 0l-.287-.693zM16.497 15l-.649.377zM9.953 2.264a1.34 1.34 0 0 0-.49-.651l-.868 1.223a.16.16 0 0 1-.058-.078zm4.106 7.043L9.894 2.134l-1.298.754l4.165 7.172zm-.965-.304a7.7 7.7 0 0 0-2.193 1.533l1.061 1.06a6.2 6.2 0 0 1 1.764-1.232zM10.9 10.536a7.7 7.7 0 0 0-1.663 2.49l1.386.574a6.2 6.2 0 0 1 1.338-2.003zm-1.663 2.49a7.7 7.7 0 0 0-.584 2.935h1.5c0-.81.16-1.613.47-2.361zM1.44 16.71h7.965v-1.5H1.439zM.233 14.623c-.235.404-.35.944-.067 1.432c.282.486.807.656 1.273.656v-1.5c-.068 0-.087-.012-.073-.006a.24.24 0 0 1 .097.097a.25.25 0 0 1 .036.136c-.001.017-.003-.004.03-.061zm7.25-12.489l-7.25 12.49l1.297.752L8.78 2.887zm.43-.521a1.34 1.34 0 0 0-.49.65l1.416.495a.16.16 0 0 1-.058.078zm.775-.248c-.278 0-.55.087-.776.248l.869 1.223a.16.16 0 0 1-.093.03zm.776.248a1.34 1.34 0 0 0-.776-.248v1.5a.16.16 0 0 1-.093-.03zm-.81 14.348h1.5zm0 0c0 1.008.198 2.006.584 2.937l1.386-.574a6.2 6.2 0 0 1-.47-2.362zm.584 2.937c.386.931.95 1.777 1.663 2.49l1.061-1.061a6.2 6.2 0 0 1-1.338-2.003zm1.663 2.49a7.7 7.7 0 0 0 2.49 1.663l.574-1.386a6.2 6.2 0 0 1-2.003-1.338zm2.49 1.663c.93.385 1.928.584 2.936.584v-1.5c-.81 0-1.613-.16-2.362-.47zm2.936.584a7.7 7.7 0 0 0 2.936-.584l-.574-1.386c-.749.31-1.551.47-2.362.47zm2.936-.584a7.7 7.7 0 0 0 2.49-1.663l-1.061-1.061a6.2 6.2 0 0 1-2.003 1.338zm2.49-1.663a7.7 7.7 0 0 0 1.663-2.49l-1.386-.574a6.2 6.2 0 0 1-1.338 2.003zm1.663-2.49c.386-.93.584-1.928.584-2.936h-1.5c0 .81-.16 1.613-.47 2.362zM24 15.962a7.7 7.7 0 0 0-.584-2.936l-1.386.574c.31.749.47 1.551.47 2.362zm-.584-2.936a7.7 7.7 0 0 0-1.663-2.49l-1.061 1.06A6.2 6.2 0 0 1 22.03 13.6zm-1.663-2.49a7.7 7.7 0 0 0-2.49-1.663l-.574 1.386c.75.31 1.43.765 2.003 1.338zm-2.49-1.663a7.7 7.7 0 0 0-2.936-.584v1.5c.81 0 1.613.16 2.362.47zm-2.936-.584a7.7 7.7 0 0 0-2.936.584l.574 1.386a6.2 6.2 0 0 1 2.362-.47zm-2.936.584q-.15.062-.297.13l.632 1.36q.118-.054.239-.104zm3.755 5.75l-3.088-5.316l-1.297.753l3.087 5.317zm-1.207 2.088c.466 0 .991-.17 1.273-.656c.283-.488.168-1.028-.067-1.432l-1.296.754c.033.057.031.078.03.061a.25.25 0 0 1 .036-.136a.24.24 0 0 1 .097-.097c.014-.006-.005.006-.073.006zm-6.535 0h6.535v-1.5H9.404z"/></g></svg>