<svg xmlns="http://www.w3.org/2000/svg" xmlns:xlink="http://www.w3.org/1999/xlink" width="25" height="25" viewBox="0 0 25 25"><g fill="none" stroke="currentColor" stroke-linecap="round" stroke-linejoin="round" stroke-width="1.5"><path d="M3.375 8.375a4.125 4.125 0 1 0 8.25 0a4.125 4.125 0 0 0-8.25 0M.75 20.75a6.75 6.75 0 0 1 13.5 0"/><path fill="currentColor" d="M12.625 8.375a4.125 4.125 0 1 0 8.25 0a4.125 4.125 0 0 0-8.25 0M10 20.75a6.75 6.75 0 0 1 13.5 0"/><path d="M14.251 4.916a4.125 4.125 0 1 1-.006 6.914M16 14.167a6.758 6.758 0 0 1 8.25 6.583"/></g></svg>