<svg xmlns="http://www.w3.org/2000/svg" xmlns:xlink="http://www.w3.org/1999/xlink" width="25" height="25" viewBox="0 0 25 25"><g fill="currentColor"><path d="M18.381 3.904a.75.75 0 1 0 .238 1.48zm4.851.346l.005.75h.007zm.366.144l.522-.538l-.003-.003zm.152.356h.75v-.004zm0 15.768l.75.008v-.008zm-.5.5l-.007-.75h-.002zM12.5 23.75h-.75a.75.75 0 0 0 1.298.512zm0-16.768h.75a.75.75 0 0 0-.202-.512zM1.768 4.25L1.754 5h.004zm-.368.144l-.52-.54l-.005.004zm-.15.356L.5 4.748v.002zm0 15.768H.5v.008zm.5.5l.01-.75h-.003zm10.202 3.244a.75.75 0 0 0 1.096-1.024zm6.667-18.877A30.4 30.4 0 0 1 23.237 5l-.01-1.5a32 32 0 0 0-4.846.404zM23.244 5a.23.23 0 0 1-.165-.065l1.038-1.082a1.27 1.27 0 0 0-.896-.353zm-.168-.067a.3.3 0 0 1-.056-.082l1.38-.589a1.3 1.3 0 0 0-.28-.406zm-.056-.082a.3.3 0 0 1-.02-.096l1.5-.01a1.3 1.3 0 0 0-.1-.483zm-.02-.1v15.767h1.5V4.75zm0 15.76a.24.24 0 0 1 .072-.171l1.06 1.06a1.25 1.25 0 0 0 .368-.874zm.072-.171a.25.25 0 0 1 .17-.072l.015 1.5c.329-.003.643-.135.875-.367zm.169-.072c-4.225.053-7.007.75-8.758 1.46c-.875.355-1.49.713-1.895.992a5 5 0 0 0-.579.46l-.036.036l-.012.013l-.005.005l-.002.002l-.001.001s-.001.001.547.513s.547.513.547.513l-.002.002l-.002.002l-.001.002l.008-.008q.014-.016.062-.057c.063-.054.17-.14.327-.249c.314-.216.832-.522 1.608-.837c1.551-.63 4.144-1.3 8.212-1.35zM13.25 23.75V6.982h-1.5V23.75zM12.5 6.982c.548-.512.547-.513.547-.513v-.001q-.002 0-.003-.002l-.017-.018l-.036-.036a5 5 0 0 0-.578-.46c-.405-.279-1.02-.636-1.893-.991c-1.748-.71-4.525-1.407-8.742-1.46L1.758 5c4.06.052 6.649.721 8.198 1.35c.774.315 1.292.621 1.605.838a4 4 0 0 1 .39.305l.007.008l-.001-.002l-.002-.002l-.001-.001h-.001c0-.001 0-.002.547-.514M1.782 3.5c-.335-.006-.66.12-.901.353l1.038 1.082A.23.23 0 0 1 1.754 5zm-.907.358a1.3 1.3 0 0 0-.277.408l1.382.582a.3.3 0 0 1-.055.082zm-.277.408a1.3 1.3 0 0 0-.098.482l1.5.004a.3.3 0 0 1-.02.096zM.5 4.75v15.768H2V4.75zm0 15.776c.003.328.135.642.368.875l1.06-1.061a.25.25 0 0 1 .072.17zm.368.875c.232.232.546.364.875.367l.014-1.5c.065 0 .126.026.171.072zm.873.367c4.068.05 6.66.72 8.212 1.35c.776.315 1.294.62 1.608.837a4 4 0 0 1 .39.306l.007.008l-.001-.002l-.002-.002l-.001-.001h-.001c0-.001-.001-.002.547-.514s.547-.512.547-.513l-.003-.003l-.005-.005l-.012-.013a2 2 0 0 0-.158-.146a5 5 0 0 0-.457-.35c-.405-.28-1.02-.637-1.895-.992c-1.75-.71-4.533-1.407-8.758-1.46z"/><path d="M12.5 7.232V24s-2.457-2.629-10.75-2.732a.505.505 0 0 1-.5-.5V5a.5.5 0 0 1 .518-.5C10.045 4.606 12.5 7.232 12.5 7.232m0 16.025a6.04 6.04 0 0 1 1.636-3.448a8.23 8.23 0 0 1 4.364-2.463V1.743a.48.48 0 0 0-.228-.4a.6.6 0 0 0-.494-.066a7.8 7.8 0 0 0-3.642 2.277C13.232 4.496 12.5 7 12.5 7"/><path fill-rule="evenodd" d="M17.566.557a1.35 1.35 0 0 1 1.103.15a1.23 1.23 0 0 1 .58 1.022l.001.014v15.603a.75.75 0 0 1-.598.734a7.5 7.5 0 0 0-3.966 2.239l-.009.01a5.3 5.3 0 0 0-1.432 3.019a.75.75 0 0 1-1.495-.091V7a.8.8 0 0 1 .03-.21l.72.21l-.72-.21l.001-.004l.002-.006l.007-.024a16 16 0 0 1 .127-.398c.086-.26.21-.616.365-1.005c.293-.736.744-1.72 1.304-2.31a8.55 8.55 0 0 1 3.98-2.486M13.25 7.111v12.567a7 7 0 0 1 .34-.384a9 9 0 0 1 4.16-2.537V2.07a7.05 7.05 0 0 0-3.073 2.003c-.339.354-.703 1.087-1.001 1.834a17 17 0 0 0-.426 1.204" clip-rule="evenodd"/></g></svg>