<svg xmlns="http://www.w3.org/2000/svg" xmlns:xlink="http://www.w3.org/1999/xlink" width="25" height="25" viewBox="0 0 25 25"><g fill="none" stroke="currentColor" stroke-linecap="round" stroke-linejoin="round" stroke-width="1.5"><path d="m24.009 9.5l-11.25-8.25L1.509 9.5m2.25 3.75a3 3 0 1 0 6 0a3 3 0 0 0-6 0m4.5 4.756a4.5 4.5 0 0 0-6 4.244m21 0a4.5 4.5 0 0 0-6-4.244m-1.5-4.756a3 3 0 1 0 6 0a3 3 0 0 0-6 0m-5.25 5.25a2.25 2.25 0 1 0 4.5 0a2.25 2.25 0 0 0-4.5 0"/><path d="M16.656 23.75a4.5 4.5 0 0 0-7.793 0"/></g></svg>