<svg xmlns="http://www.w3.org/2000/svg" xmlns:xlink="http://www.w3.org/1999/xlink" width="24" height="24" viewBox="0 0 24 24"><g fill="none"><g clip-path="url(#bubblesProgramSolid0)"><path fill="currentColor" fill-rule="evenodd" d="M19.863.51c-.834.087-1.398.164-2.036.277c-.792.14-1.872.384-2.009.453a.6.6 0 0 0-.211.21c-.059.118-.055-.136-.055 3.389c0 2.87.002 3.237.015 3.287a.51.51 0 0 0 .353.356a.52.52 0 0 0 .378-.049c.03-.017.294-.273.742-.72c.383-.381.714-.705.737-.718a.56.56 0 0 1 .406-.058c.133.039.122.03.854.758c.528.526.697.69.734.708a.505.505 0 0 0 .676-.216c.062-.125.058.004.059-2.203c0-1.975 0-2.009.019-2.07a.5.5 0 0 1 .242-.288c.101-.05.138-.055.48-.055c.191 0 .334.004.365.01a.52.52 0 0 1 .381.398c.008.042.01 1.865.008 6.845c-.002 6.568-.003 6.789-.02 6.84a.51.51 0 0 1-.367.35q-.058.013-.397.024a23.1 23.1 0 0 0-7.556 1.522a.45.45 0 0 1-.383-.005a.5.5 0 0 1-.244-.287l-.021-.063l-.002-6.605c-.003-5.73-.001-6.611.01-6.658c.023-.088.078-.168.193-.284c.118-.119.283-.245.466-.357s.274-.218.306-.357c.007-.028.01-.278.01-.687c0-.702 0-.702-.055-.805a.6.6 0 0 0-.16-.177a.43.43 0 0 0-.23-.076c-.12-.007-.17.009-.4.122c-.263.13-.462.244-.71.408a5 5 0 0 1-.246.158a.5.5 0 0 1-.248.046c-.132-.01-.168-.027-.453-.227a8 8 0 0 0-1.523-.804C8.356 2.243 6.116 1.785 3.6 1.599c-.974-.072-1.724-.095-1.934-.06a1.93 1.93 0 0 0-1.136.622a2 2 0 0 0-.52 1.156C.002 3.393 0 5.463.002 10.829l.004 7.406l.02.106A2.004 2.004 0 0 0 2.011 20c.984.033 1.893.1 2.75.203c2.113.254 3.956.735 5.166 1.348c.552.281.909.556 1.028.792c.036.073.039.085.047.197a1.01 1.01 0 0 0 .764.922c.117.031.354.032.465.002q.39-.107.6-.42a.97.97 0 0 0 .167-.501a.5.5 0 0 1 .034-.173c.11-.24.474-.522 1.041-.809c1.732-.873 4.59-1.444 7.782-1.556c.33-.011.427-.02.579-.054a2 2 0 0 0 1.556-1.766c0-.023.005-.042.01-.042c.006 0 .01-2.473.01-7.4c0-4.069-.004-7.393-.009-7.386c-.005.008-.01-.016-.014-.062a2 2 0 0 0-.188-.651a2 2 0 0 0-.405-.56a1.86 1.86 0 0 0-1.055-.546c-.077-.013-.19-.017-.73-.022l-.638-.006l-.067-.026a.7.7 0 0 1-.134-.077c-.16-.118-.233-.227-.26-.381l-.024-.134c-.03-.173-.188-.33-.378-.38a.7.7 0 0 0-.245-.003M.005 10.757c0 4.07.001 5.737.002 3.704a4566 4566 0 0 0 0-7.402C.006 5.022.005 6.686.005 10.757M2.38 3.519a.49.49 0 0 0-.356.332l-.023.07v6.826c0 6.598 0 6.828.017 6.883c.051.164.16.28.319.34c.053.021.083.024.422.035a23.2 23.2 0 0 1 7.558 1.503c.049.02.118.042.153.047c.254.036.477-.138.52-.405c.007-.04.01-2.205.01-6.614c0-6.5 0-6.554-.018-6.614c-.11-.351-.88-.837-1.973-1.245c-1.523-.568-3.54-.964-5.765-1.13c-.605-.045-.778-.05-.864-.028m1.533 2.923a.76.76 0 0 0-.642.554a.85.85 0 0 0 0 .39a.76.76 0 0 0 .504.523c.073.022.122.029.487.064a22.4 22.4 0 0 1 4.305.855c.288.086.314.092.413.097a.748.748 0 0 0 .756-.982a.74.74 0 0 0-.388-.446a1 1 0 0 1-.088-.05c-.027-.026-.688-.213-1.25-.353a25 25 0 0 0-4.022-.66zm15.934 4.124c-1.21.091-2.635.33-3.902.652c-.497.127-1.181.325-1.291.373a.77.77 0 0 0-.402.446a.6.6 0 0 0-.033.208a.67.67 0 0 0 .079.374a.76.76 0 0 0 .46.39c.076.025.27.035.352.019c.032-.007.163-.044.292-.083a22.5 22.5 0 0 1 4.603-.888a.9.9 0 0 0 .336-.087a.745.745 0 0 0-.264-1.409a2 2 0 0 0-.23.005m-16.012.067a.8.8 0 0 0-.385.217a.73.73 0 0 0-.125.838q.109.224.332.34c.113.06.188.075.45.097a22.7 22.7 0 0 1 4.71.89a.75.75 0 0 0 .539-1.398c-.093-.043-.102-.044-.102-.02q0 .02-.012.016a24 24 0 0 0-4.85-.967c-.299-.028-.473-.032-.557-.013M19.78 14.78c-1.383.132-2.394.298-3.599.59c-.575.138-1.396.372-1.508.429a.76.76 0 0 0-.394.483a.9.9 0 0 0 .003.386a.76.76 0 0 0 .522.526a.8.8 0 0 0 .334.015a.2.2 0 0 1 .08-.007a.6.6 0 0 0 .144-.034a22.6 22.6 0 0 1 4.648-.901a.85.85 0 0 0 .405-.13a.8.8 0 0 0 .312-.438a.8.8 0 0 0 0-.382a.77.77 0 0 0-.264-.392c-.189-.143-.352-.177-.683-.146m-15.907.014a.77.77 0 0 0-.6.539a.76.76 0 0 0 .079.579c.047.08.181.216.26.262c.137.082.207.097.573.131c1.482.139 2.977.435 4.456.884c.214.065.274.076.396.07a.75.75 0 0 0 .298-1.414a.4.4 0 0 1-.076-.048c-.02-.026-.744-.233-1.29-.37a24 24 0 0 0-3.73-.624c-.23-.02-.29-.022-.366-.009" clip-rule="evenodd"/></g><defs><clipPath id="bubblesProgramSolid0"><path fill="#fff" d="M0 0h24v24H0z"/></clipPath></defs></g></svg>