<svg xmlns="http://www.w3.org/2000/svg" xmlns:xlink="http://www.w3.org/1999/xlink" width="18" height="18" viewBox="0 0 18 18"><g fill="currentColor" fill-rule="evenodd" clip-rule="evenodd"><path d="M6.97.007A1.596 1.596 0 0 0 5.559 1.47c0 .012-.04.013-.74.013c-.703 0-.744 0-.826.014a1.2 1.2 0 0 0-.522.215a1.3 1.3 0 0 0-.389.466l-.02.047h-.973c-.836 0-.983.001-1.047.01a1.22 1.22 0 0 0-.796.477c-.13.176-.208.364-.235.575c-.01.077-.01.787-.009 6.865c.002 6.196.004 6.783.014 6.833c.03.141.058.225.109.329a1.25 1.25 0 0 0 .89.67c.05.01.578.012 6.092.014c5.427.002 6.046.001 6.123-.01c.55-.07.971-.488 1.056-1.046c.008-.049.01-.35.01-1.448c0-1.323 0-1.388-.013-1.432a.49.49 0 0 0-.32-.336a.34.34 0 0 0-.142-.02a.43.43 0 0 0-.329.124a.47.47 0 0 0-.15.259a50 50 0 0 0-.007 1.366c0 .926-.003 1.338-.008 1.368a.26.26 0 0 1-.187.204c-.025.007-1.323.008-6.008.006l-5.976-.002l-.04-.018a.3.3 0 0 1-.129-.13l-.018-.039V3.38l.019-.041a.3.3 0 0 1 .125-.128l.036-.018l.904-.002l.904-.002l.005.186a1.23 1.23 0 0 0 .923 1.254c.154.039-.048.037 3.262.037c2.721 0 3.066-.002 3.134-.012q.392-.057.677-.33c.166-.16.274-.343.334-.567a1.4 1.4 0 0 0 .041-.399V3.19l.906.002l.905.002l.04.019a.27.27 0 0 1 .125.129l.022.047l.004 1.375l.003 1.375l.016.044a.5.5 0 0 0 .248.286a.4.4 0 0 0 .214.048c.142 0 .238-.04.34-.144a.4.4 0 0 0 .092-.123c.052-.11.048.005.048-1.522c0-1.483.001-1.43-.037-1.58a1.22 1.22 0 0 0-.942-.902l-.072-.016l-1.004-.004l-1.003-.004l-.034-.065a1.24 1.24 0 0 0-.778-.634c-.14-.036-.106-.034-.922-.038l-.766-.004l-.009-.078A1.595 1.595 0 0 0 7.416.02A2.3 2.3 0 0 0 6.97.007m.083.962a.63.63 0 0 0-.519.491a1 1 0 0 0-.003.246a.6.6 0 0 0 .189.343a.6.6 0 0 0 .425.169c.121 0 .237-.03.323-.084A.63.63 0 0 0 7.312.983a1.2 1.2 0 0 0-.26-.014M4.09 2.464a.3.3 0 0 0-.145.146l-.017.043v.843l.017.04a.3.3 0 0 0 .128.14l.042.021h6.063l.04-.02a.28.28 0 0 0 .127-.126l.02-.041v-.871l-.02-.041a.28.28 0 0 0-.127-.127l-.04-.02l-.843-.001l-.843-.002l-.025.038a1.6 1.6 0 0 1-1.062.68a2 2 0 0 1-.457.006a1.6 1.6 0 0 1-.906-.432a2 2 0 0 1-.2-.236l-.04-.056h-.836c-.831 0-.837 0-.876.016m11.934 3.484q-.518.053-.933.372a563 563 0 0 0-4.636 4.631l-.04.064a150 150 0 0 0-.78 2.744a.47.47 0 0 0 .214.459a.48.48 0 0 0 .319.075c.024-.004.684-.189 1.345-.376c.633-.18 1.267-.361 1.341-.386c.122-.04-.021.099 2.415-2.338a367 367 0 0 0 2.297-2.308a1.8 1.8 0 0 0 .407-.93a2.5 2.5 0 0 0-.004-.474a1.8 1.8 0 0 0-1.527-1.524a3 3 0 0 0-.418-.01m.036.968a.9.9 0 0 0-.353.147a309 309 0 0 0-2.234 2.22l-2.19 2.19l-.234.817l-.232.82l.818-.232l.816-.233l2.17-2.17a321 321 0 0 0 2.22-2.231a1 1 0 0 0 .144-.27a.83.83 0 0 0-.925-1.058"/><path d="m7.219 5.948l-.158.01c-.311.02-.684.085-.994.173a5.04 5.04 0 0 0-2.585 1.731a5 5 0 0 0-1.036 2.473c-.03.235-.037.356-.037.638c0 .281.007.402.037.637a5.02 5.02 0 0 0 4.352 4.352c.234.03.355.036.637.036s.403-.007.637-.036c.505-.063.733-.083 1.195-.295c.333-.2 0-1.134-.667-.82l.659-.332l.59-.297L10.5 14l1.013-.083c.196-.27-1.15-.114-1.013-.417c.247-.546.266-1.271.317-1.89c.012-.14.985-2.135 1.422-1.689c-.065-.782-.572-1.721-.572-1.721c-.392-.683-.847-1.032-1.513-1.46a5 5 0 0 0-2.297-.78a9 9 0 0 0-.638-.012m-.108.993a4.04 4.04 0 0 0-2.849 1.522a4.05 4.05 0 0 0-.837 1.977c-.043.327-.043.74 0 1.065q.075.58.323 1.132A4.07 4.07 0 0 0 5.77 14.66a4 4 0 0 0 1.665.355a4 4 0 0 0 1.165-.168l1.248-.629c.287-.214.548-.467.77-.75c.415-.527.228-1.02.34-1.682c.084-.5.962-1.997 1.168-2.472L12.017 9l-.076-.202l-.083-.198l-.091-.2l-.1-.2c.266.467-.467 1-.8.667c0 0-.373-.591-.768-.937a4.04 4.04 0 0 0-2.156-.97a5 5 0 0 0-.832-.02m2.26 2.218a.5.5 0 0 0-.224.082c-.019.013-.602.59-1.296 1.284l-1.262 1.26l-.408-.406a14 14 0 0 0-.444-.431a.48.48 0 0 0-.315-.085a.45.45 0 0 0-.302.126a.495.495 0 0 0-.07.644c.018.025.305.316.637.647c.656.655.64.641.758.678c.07.021.21.023.277.003a.6.6 0 0 0 .193-.11c.028-.024.69-.684 1.471-1.466A84 84 0 0 0 9.834 9.92a.493.493 0 0 0-.462-.762"/></g></svg>