<svg xmlns="http://www.w3.org/2000/svg" xmlns:xlink="http://www.w3.org/1999/xlink" width="24" height="25" viewBox="0 0 24 25"><g fill="none"><g stroke="currentColor" clip-path="url(#bubblesQuestionExclamationOutline0)"><path stroke-linecap="round" stroke-linejoin="round" stroke-width="1.5" d="M9.425 20.075L7.5 22v-4h-6a1 1 0 0 1-1-1V2a1 1 0 0 1 1-1h18a1 1 0 0 1 1 1v7"/><path stroke-linecap="round" stroke-linejoin="round" stroke-width="1.5" d="M11.5 19a1 1 0 0 0 1 1h4l4 4v-4h2a1 1 0 0 0 1-1v-7a1 1 0 0 0-1-1h-10a1 1 0 0 0-1 1zm-4-12.5a2 2 0 1 1 2.667 1.886a1 1 0 0 0-.667.943v.672m8 4.999v-2"/><path stroke-width="1.5" d="M9.5 12.5a.25.25 0 1 1 0-.5m0 .5a.25.25 0 1 0 0-.5"/><path d="M17.5 17.5a.25.25 0 1 1 0-.5m0 .5a.25.25 0 1 0 0-.5"/></g><defs><clipPath id="bubblesQuestionExclamationOutline0"><path fill="#fff" d="M0 .5h24v24H0z"/></clipPath></defs></g></svg>