<svg xmlns="http://www.w3.org/2000/svg" xmlns:xlink="http://www.w3.org/1999/xlink" width="18" height="18" viewBox="0 0 18 18"><path fill="currentColor" fill-rule="evenodd" d="M11.347.011a.52.52 0 0 0-.326.254a.4.4 0 0 0-.05.228c0 .082.002.101.019.152a.51.51 0 0 0 .34.324c.04.013.147.014 2.506.017l2.463.004l-4.863 4.784C8.76 8.406 6.556 10.577 6.537 10.6a.46.46 0 0 0-.105.333a.44.44 0 0 0 .145.324a.45.45 0 0 0 .345.14a.43.43 0 0 0 .263-.075c.034-.02 1.372-1.333 4.936-4.839l4.89-4.81l.003 2.427c.003 2.295.004 2.43.016 2.47a.53.53 0 0 0 .247.31c.126.07.326.072.457.003a.5.5 0 0 0 .253-.327c.008-.04.01.856.013 5.167l.004 5.215V11.17c.001-3.172 0-6.897-.003-8.277L17.997.385l-.02-.053a.5.5 0 0 0-.121-.188a.5.5 0 0 0-.188-.121l-.053-.02h-3.11c-2.642-.002-3.118 0-3.158.008M1.033 3.788a1.16 1.16 0 0 0-1.006.892l-.016.061l-.002 6.117c-.002 4.476 0 6.13.006 6.17a1.165 1.165 0 0 0 .936.956c.049.01.573.012 6.109.014c4.355.002 6.075 0 6.127-.005a1.15 1.15 0 0 0 1.026-1.049c.005-.059.007-1.33.006-4.11l-.002-4.025l-.017-.047a.5.5 0 0 0-.34-.33a.6.6 0 0 0-.266 0a.5.5 0 0 0-.344.343c-.012.039-.013.274-.016 4.08l-.004 4.04l-.016.03a.18.18 0 0 1-.095.081c-.017.005-2.151.007-6.014.008c-5.395 0-5.992-.002-6.016-.012A.2.2 0 0 1 1 16.916c-.013-.028-.013-.199-.013-6.024c0-5.015.001-6 .01-6.02a.18.18 0 0 1 .087-.089l.036-.017h4.008c4.456 0 4.067.005 4.178-.05a.47.47 0 0 0 .278-.443a.486.486 0 0 0-.346-.473l-.047-.016l-4.05-.001c-2.227 0-4.076.002-4.108.005" clip-rule="evenodd"/></svg>