<svg xmlns="http://www.w3.org/2000/svg" xmlns:xlink="http://www.w3.org/1999/xlink" width="16" height="16" viewBox="0 0 16 16"><path fill="currentColor" fill-rule="evenodd" d="M7.763 2.87a5.287 5.287 0 0 0-5.047 5.335l-.004.282l-.547-.545c-.3-.3-.557-.554-.57-.564a.38.38 0 0 0-.246-.08a.37.37 0 0 0-.299.131a.41.41 0 0 0-.06.465c.02.04.079.1.937.96c.504.506.93.931.95.947a.4.4 0 0 0 .134.069a.5.5 0 0 0 .233-.002c.095-.03.05.012 1.025-.962c.498-.496.922-.923.942-.948a.36.36 0 0 0 .089-.255c0-.1-.023-.17-.081-.248a.4.4 0 0 0-.318-.157a.36.36 0 0 0-.183.04l-.058.027l-.565.565l-.565.565v-.228a4.49 4.49 0 0 1 1.664-3.595a4.5 4.5 0 0 1 1.923-.904c.31-.063.543-.085.888-.085c.245 0 .316.004.516.027c.816.095 1.61.425 2.253.935c.204.162.447.395.615.59c.1.118.13.144.194.176a.4.4 0 0 0 .203.037a.406.406 0 0 0 .307-.637a5.29 5.29 0 0 0-4.33-1.94m5.066 3.985a.4.4 0 0 0-.147.046c-.039.02-.104.084-.978.958c-.923.923-.937.937-.962.985a.4.4 0 0 0-.044.194a.36.36 0 0 0 .121.282a.3.3 0 0 0 .102.076a.41.41 0 0 0 .402-.02c.021-.014.242-.23.59-.577c.306-.306.556-.553.556-.55a4.47 4.47 0 0 1-.764 2.393a4.47 4.47 0 0 1-6.867.66c-.142-.138-.186-.173-.248-.194a.407.407 0 0 0-.44.656a5.286 5.286 0 0 0 8.366-.877a5.3 5.3 0 0 0 .761-2.526l.004-.122l.559.558c.405.405.57.565.597.583c.021.013.06.031.087.04a.3.3 0 0 0 .127.016a.3.3 0 0 0 .126-.016a.43.43 0 0 0 .226-.185a.35.35 0 0 0 .05-.182a.37.37 0 0 0-.087-.274a84 84 0 0 0-.94-.947c-.972-.97-.931-.932-1.022-.96a.5.5 0 0 0-.175-.017" clip-rule="evenodd"/></svg>