<svg xmlns="http://www.w3.org/2000/svg" xmlns:xlink="http://www.w3.org/1999/xlink" width="20" height="20" viewBox="0 0 20 20"><path fill="currentColor" fill-rule="evenodd" d="M4.44.6c-.756.075-1.284.58-1.444 1.38c-.039.193-.038 13.524 0 13.729c.124.652.59 1.11 1.306 1.284c.14.034.482.036 6.718.042c4.338.004 6.658 0 6.83-.014c.296-.023.472-.068.677-.172c.45-.228.768-.689.852-1.232c.017-.109.021-1.918.017-6.937l-.006-6.79l-.064-.184c-.153-.437-.392-.711-.796-.914A1.9 1.9 0 0 0 17.87.6C17.66.577 4.68.577 4.44.6m-.034 1.03c-.18.057-.288.162-.378.371c-.037.088-.038.232-.043 6.79c-.006 7.303-.013 6.81.105 6.97a.67.67 0 0 0 .345.22c.128.04.199.04 6.77.04c7.441 0 6.786.014 6.966-.145c.105-.092.153-.178.198-.35c.028-.109.031-.779.031-6.747c0-7.516.018-6.78-.169-6.97a.6.6 0 0 0-.221-.15l-.12-.048l-6.7-.004c-5.473-.003-6.715.001-6.784.023M.97 2.978a.54.54 0 0 0-.342.295C.604 3.328.6 4.489.6 10.63c0 8.035-.01 7.422.123 7.733c.2.472.57.805 1.087.98l.14.047l7.35.005l7.349.005l.107-.052a.5.5 0 0 0 .223-.668a.57.57 0 0 0-.259-.238c-.09-.041-.093-.041-7.3-.042c-7.604 0-7.302.003-7.47-.085A.8.8 0 0 1 1.662 18l-.052-.11l-.01-7.28c-.01-7.051-.011-7.282-.047-7.35a.6.6 0 0 0-.24-.243a.6.6 0 0 0-.343-.04m5.897 2.384c-.092.027-.257.184-.297.283a.57.57 0 0 0 .005.398a.6.6 0 0 0 .235.254c.055.03.388.033 4.38.033h4.32l.082-.053a.49.49 0 0 0 .248-.442c0-.2-.103-.359-.29-.447l-.1-.048l-4.26.002c-2.497 0-4.286.01-4.323.02M6.845 7.75a.49.49 0 0 0-.309.456a.49.49 0 0 0 .274.46l.08.044l4.257.005c2.891.004 4.282-.001 4.334-.015a.51.51 0 0 0 .359-.489a.45.45 0 0 0-.153-.355c-.154-.148.25-.136-4.501-.135c-3.643 0-4.286.005-4.341.029m.075 2.352a.51.51 0 0 0-.379.391a.497.497 0 0 0 .4.587c.074.014 1.14.019 3.13.015c3.34-.006 3.076.005 3.234-.133a.51.51 0 0 0-.003-.746c-.154-.136.107-.126-3.252-.129c-1.706-.002-3.08.005-3.13.015" clip-rule="evenodd"/></svg>