<svg xmlns="http://www.w3.org/2000/svg" xmlns:xlink="http://www.w3.org/1999/xlink" width="18" height="18" viewBox="0 0 18 18"><path fill="currentColor" fill-rule="evenodd" d="M1.791 1.128A1.61 1.61 0 0 0 .596 2.22c-.067.218-.077.456-.07 1.776C.53 5.232.53 5.248.57 5.328a.54.54 0 0 0 .208.23l.074.05h16.296l.074-.05a.54.54 0 0 0 .208-.23c.039-.08.04-.095.044-1.368a31 31 0 0 0-.013-1.496c-.03-.334-.12-.575-.3-.802a1.44 1.44 0 0 0-.922-.544c-.09-.014-2.178-.02-7.224-.018c-6.23.001-7.113.004-7.224.028m.206.96a.64.64 0 0 0-.434.337l-.042.086l-.005 1.067l-.005 1.066h14.977V3.56c-.002-1.16 0-1.148-.093-1.284a.46.46 0 0 0-.29-.182c-.09-.019-1.437-.023-7.069-.021c-3.826 0-6.994.008-7.04.015m-.412 5.025a.5.5 0 0 0-.247.273c-.034.091-.032 7.073.002 7.293c.09.591.336 1.079.75 1.486c.402.396.954.655 1.532.718c.244.027 10.584.027 10.828 0c1.151-.126 2.05-.963 2.268-2.111c.029-.153.031-.427.031-3.765c0-3.452-.001-3.602-.033-3.666a.53.53 0 0 0-.446-.285a.52.52 0 0 0-.459.321c-.019.054-.024.714-.024 3.504c0 2.236-.008 3.495-.02 3.6a1.4 1.4 0 0 1-.162.558c-.224.454-.64.764-1.151.857c-.204.038-10.659.037-10.845 0a1.6 1.6 0 0 1-1.266-1.17l-.048-.173l-.009-3.573c-.009-3.488-.01-3.574-.044-3.643a.52.52 0 0 0-.444-.28a.4.4 0 0 0-.213.056m7.296.75a.7.7 0 0 0-.162.088c-.038.031-.582.57-1.207 1.196c-1.256 1.26-1.23 1.228-1.229 1.446q.002.295.254.432c.08.044.117.053.222.053c.224 0 .219.005 1.048-.822l.742-.74l.005 2.14l.005 2.141l.04.073a.55.55 0 0 0 .262.233a.52.52 0 0 0 .42-.037a.54.54 0 0 0 .222-.274c.013-.044.019-.777.019-2.172V9.515l.743.74c.83.828.825.824 1.048.823a.45.45 0 0 0 .409-.23c.048-.074.057-.108.063-.225c.006-.116 0-.151-.035-.223c-.058-.122-2.399-2.467-2.513-2.52a.5.5 0 0 0-.356-.018" clip-rule="evenodd"/></svg>