<svg xmlns="http://www.w3.org/2000/svg" xmlns:xlink="http://www.w3.org/1999/xlink" width="19" height="19" viewBox="0 0 19 19"><path fill="currentColor" fill-rule="evenodd" d="M7.798 1.5a6.297 6.297 0 1 0-.001 12.594A6.297 6.297 0 0 0 7.798 1.5m5.501 11.09a7.3 7.3 0 0 0 1.796-4.794a7.297 7.297 0 1 0-2.503 5.502l4.93 4.93a.5.5 0 1 0 .707-.707zM7.751 3.876a.5.5 0 0 1 .5.5V7.25h2.875a.5.5 0 0 1 0 1H8.25v2.875a.5.5 0 0 1-1 0V8.25H4.376a.5.5 0 0 1 0-1H7.25V4.375a.5.5 0 0 1 .5-.5" clip-rule="evenodd"/></svg>