<svg xmlns="http://www.w3.org/2000/svg" xmlns:xlink="http://www.w3.org/1999/xlink" width="16" height="16" viewBox="0 0 16 16"><path fill="currentColor" fill-rule="evenodd" d="M10.918 1.027a.99.99 0 0 0-.854.763c-.015.072-.03.248-.039.486c-.01.278-.019.377-.033.386a1 1 0 0 1-.192.013c-.357.001-.618.025-.752.07a.99.99 0 0 0-.624.623c-.036.097-.04.131-.04.312c-.002.16.004.22.026.285c.103.302.24.446.69.725c.17.107.31.2.31.208c0 .009-.07.148-.157.31c-.239.45-.265.527-.264.766c0 .262.096.498.276.68c.206.21.428.302.722.301c.222-.001.31-.032.72-.25c.311-.166.33-.174.353-.15c.014.015.091.135.172.267c.24.39.306.473.461.58a.988.988 0 0 0 1.454-.393c.075-.155.087-.235.104-.659c.008-.218.02-.402.026-.408s.186-.017.4-.026c.518-.02.628-.05.857-.232a.93.93 0 0 0 .362-.716a.95.95 0 0 0-.189-.648c-.09-.123-.177-.19-.504-.395a8 8 0 0 1-.321-.208c-.018-.017.006-.072.152-.348c.217-.41.254-.513.255-.717a.9.9 0 0 0-.095-.45a.96.96 0 0 0-.943-.559c-.21.01-.282.036-.674.246a5 5 0 0 1-.337.17c-.01 0-.075-.092-.144-.206c-.281-.457-.338-.533-.479-.637a1 1 0 0 0-.7-.189m0 .854a.2.2 0 0 0-.06.094c-.004.026-.014.22-.022.43c-.016.407-.028.48-.101.628c-.06.117-.241.296-.365.358c-.143.072-.264.09-.66.102a3 3 0 0 0-.405.028c-.06.019-.12.1-.12.159c0 .085.058.136.405.354c.378.239.459.31.547.49a.85.85 0 0 1 .057.617a5 5 0 0 1-.208.43a3 3 0 0 0-.186.394c0 .096.081.175.18.175q.048 0 .388-.18c.187-.098.37-.19.407-.204a1 1 0 0 1 .21-.032a.8.8 0 0 1 .452.096c.164.086.242.175.463.532c.108.176.217.339.242.362c.085.08.25.035.274-.076a7 7 0 0 0 .024-.43c.015-.414.026-.486.099-.636a1.1 1.1 0 0 1 .38-.373c.142-.067.217-.078.644-.095c.211-.008.403-.022.425-.031c.051-.02.102-.1.102-.157c0-.088-.045-.128-.377-.336a3.5 3.5 0 0 1-.413-.29a.84.84 0 0 1-.223-.38a1 1 0 0 1 0-.435a5 5 0 0 1 .211-.442c.194-.369.208-.41.165-.492c-.023-.045-.104-.091-.159-.091a2 2 0 0 0-.298.14c-.357.191-.445.234-.523.258a.86.86 0 0 1-.811-.2c-.06-.06-.15-.189-.296-.422q-.209-.337-.254-.363q-.101-.063-.194.018m.566 1.732a.71.71 0 0 0-.516.475a.75.75 0 0 0 .03.498a.85.85 0 0 0 .3.329a.71.71 0 0 0 1.014-.414a.9.9 0 0 0 .008-.387a.75.75 0 0 0-.344-.432a.9.9 0 0 0-.346-.09a1 1 0 0 0-.146.02M4.062 5.28c-.376.08-.68.322-.84.67c-.09.194-.1.265-.102.76c-.003.417-.005.446-.035.51a.4.4 0 0 1-.193.188c-.046.02-.102.025-.238.023a1.4 1.4 0 0 1-.19-.01a3 3 0 0 0-.257-.008c-.29 0-.39.018-.59.113c-.293.139-.492.36-.61.68c-.047.127-.048.139-.049.371c0 .212.004.254.034.352c.084.267.179.394.522.7c.296.263.337.318.348.47a.4.4 0 0 1-.027.17c-.03.08-.053.106-.305.333c-.356.322-.44.431-.53.69c-.038.111-.041.138-.042.36c0 .215.003.251.035.345c.144.42.436.698.848.803c.104.026.167.03.517.03c.22 0 .425.004.456.01c.03.005.091.03.134.056a.28.28 0 0 1 .124.135l.045.09l.003.443c.003.388.007.458.034.56c.085.329.311.607.623.765c.286.144.666.153.978.024c.18-.075.296-.17.559-.455c.134-.145.264-.28.29-.299a.35.35 0 0 1 .366-.032c.056.029.124.092.269.252c.106.117.23.25.275.294a1.178 1.178 0 0 0 1.952-.516c.031-.097.035-.139.043-.585c.008-.456.01-.483.041-.541a.5.5 0 0 1 .086-.108c.094-.083.163-.093.61-.093c.51 0 .61-.02.861-.164c.485-.279.695-.877.5-1.422a1.1 1.1 0 0 0-.217-.365a6 6 0 0 0-.283-.268a9 9 0 0 1-.252-.234a.4.4 0 0 1-.087-.257c0-.154.043-.225.238-.396c.485-.426.597-.585.658-.933a1.18 1.18 0 0 0-1.033-1.374a3 3 0 0 0-.335 0c-.391.023-.505.02-.578-.018a.34.34 0 0 1-.168-.157c-.03-.056-.033-.086-.042-.54c-.01-.52-.015-.565-.102-.752q-.237-.506-.811-.667a1.4 1.4 0 0 0-.255-.02c-.213 0-.35.03-.533.12c-.152.073-.248.156-.482.414c-.324.359-.351.38-.508.38c-.154-.001-.199-.032-.448-.309a5 5 0 0 0-.32-.333a1.2 1.2 0 0 0-.987-.255m.105.816a.4.4 0 0 0-.191.169c-.032.06-.034.084-.043.535c-.01.511-.017.567-.104.76c-.056.126-.12.22-.23.332a1.1 1.1 0 0 1-.474.302c-.181.06-.278.066-.671.046c-.426-.022-.46-.017-.574.085a.35.35 0 0 0-.085.418c.028.06.082.117.274.286c.272.24.343.315.42.435c.225.351.25.824.065 1.2c-.083.167-.179.277-.466.534a2.3 2.3 0 0 0-.282.282a.4.4 0 0 0-.025.297a.43.43 0 0 0 .2.216c.027.012.206.021.521.027c.446.009.488.012.585.044c.4.13.689.422.805.813c.029.1.033.158.041.583c.01.53.012.536.123.636c.07.063.201.106.281.092c.12-.022.178-.066.378-.286c.349-.383.492-.494.75-.576a1.25 1.25 0 0 1 .727.011c.252.087.356.169.742.585c.24.26.326.303.498.252a.35.35 0 0 0 .223-.184c.037-.072.037-.079.046-.553c.007-.448.01-.486.043-.585c.14-.424.466-.721.89-.808c.088-.019.21-.024.524-.025c.303 0 .424-.006.466-.02a.35.35 0 0 0 .236-.342c-.001-.152-.028-.191-.287-.426c-.304-.274-.348-.32-.433-.45a1.13 1.13 0 0 1-.19-.584a1.2 1.2 0 0 1 .253-.828c.033-.043.169-.176.302-.295c.133-.118.257-.232.275-.251c.132-.143.103-.407-.058-.523c-.107-.078-.139-.082-.535-.06c-.198.01-.395.013-.44.008a1.18 1.18 0 0 1-1.003-.826c-.032-.098-.035-.137-.043-.592c-.009-.462-.01-.49-.041-.548a.36.36 0 0 0-.33-.202c-.146 0-.186.03-.43.302a5 5 0 0 1-.322.333a1.3 1.3 0 0 1-.527.259a1.3 1.3 0 0 1-.593-.031c-.265-.088-.377-.173-.695-.526c-.264-.293-.326-.338-.466-.336a.6.6 0 0 0-.13.015m1.346 2.52a1.46 1.46 0 0 0-.791.436c-.26.27-.404.6-.423.975a1.513 1.513 0 0 0 1.376 1.584q.713.057 1.207-.439a1.5 1.5 0 0 0 .435-.851a2.2 2.2 0 0 0-.015-.515a1.54 1.54 0 0 0-1.008-1.144a1.6 1.6 0 0 0-.78-.046m.177.795a.72.72 0 0 0-.57.59a.7.7 0 0 0 .518.78a.67.67 0 0 0 .668-.185c.485-.485.061-1.3-.616-1.185" clip-rule="evenodd"/></svg>