<svg xmlns="http://www.w3.org/2000/svg" xmlns:xlink="http://www.w3.org/1999/xlink" width="24" height="24" viewBox="0 0 24 24"><g fill="none" stroke="currentColor" stroke-linecap="round" stroke-linejoin="round" stroke-width="1.5"><path d="M12 .75a7.7 7.7 0 0 1 7.7 7.7c0 3.5-5.211 11.665-7.061 14.454a.773.773 0 0 1-1.284 0C9.508 20.117 4.3 11.953 4.3 8.453A7.7 7.7 0 0 1 12 .75"/><path d="M10.5 6.752a1.39 1.39 0 0 0-2.4 0m5.4 0a1.39 1.39 0 0 1 2.4 0m-7.383 3.767a3.84 3.84 0 0 0 6.973 0"/></g></svg>