<svg xmlns="http://www.w3.org/2000/svg" xmlns:xlink="http://www.w3.org/1999/xlink" width="16" height="17" viewBox="0 0 16 17"><path fill="currentColor" fill-rule="evenodd" d="M6.936 4.09a.33.33 0 0 0-.19.161c-.02.04-.627 1.733-1.35 3.764a593 593 0 0 1-1.321 3.693c-.004 0-.255-.594-.557-1.32a51 51 0 0 0-.579-1.36a.34.34 0 0 0-.262-.128c-.195 0-.357.196-.317.381c.007.031.337.836.734 1.787c.541 1.3.73 1.742.76 1.776a.326.326 0 0 0 .541-.086c.015-.033.66-1.836 1.433-4.008c.774-2.171 1.414-3.965 1.423-3.987l.016-.039h6.127l.06-.028a.4.4 0 0 0 .17-.17a.4.4 0 0 0 .011-.204a.35.35 0 0 0-.22-.233c-.058-.016-6.424-.016-6.479 0m.902 3.422a.37.37 0 0 0-.158.155a.44.44 0 0 0 0 .279c.016.032.377.402 1.11 1.137l1.088 1.09L8.79 11.26a45 45 0 0 0-1.108 1.13a.4.4 0 0 0-.027.116a.3.3 0 0 0 .093.256a.32.32 0 0 0 .343.078c.054-.018.152-.113 1.154-1.113l1.095-1.094l1.089 1.087c.735.734 1.105 1.095 1.137 1.11a.3.3 0 0 0 .144.023c.083 0 .104-.004.152-.033a.35.35 0 0 0 .144-.159a.37.37 0 0 0-.003-.258c-.019-.042-.267-.297-1.112-1.143l-1.089-1.089l1.088-1.089a45 45 0 0 0 1.109-1.13a.4.4 0 0 0 .01-.26a.334.334 0 0 0-.437-.184c-.042.019-.299.269-1.143 1.113l-1.09 1.088L9.252 8.62c-.847-.844-1.102-1.092-1.144-1.11a.36.36 0 0 0-.27.003" clip-rule="evenodd"/></svg>