<svg xmlns="http://www.w3.org/2000/svg" xmlns:xlink="http://www.w3.org/1999/xlink" width="19" height="18" viewBox="0 0 19 18"><path fill="currentColor" fill-rule="evenodd" d="M2.395.542c-.747.072-1.265.611-1.354 1.408c-.025.228-.026 13.872 0 14.132c.022.232.073.416.163.585c.236.449.676.728 1.246.792c.23.026 13.829.027 14.115.001c.245-.021.427-.07.603-.163c.448-.236.727-.677.791-1.247c.026-.229.027-13.828.001-14.115a1.5 1.5 0 0 0-.163-.602C17.56.885 17.12.605 16.55.542C16.345.519 2.632.519 2.395.542m-.014.995c-.173.055-.242.12-.318.3l-.042.098v14.166l.048.101c.053.113.121.173.267.235l.1.042H16.6l.101-.047c.113-.053.173-.121.235-.268l.042-.099V1.9l-.047-.1c-.053-.114-.122-.174-.268-.236l-.099-.042l-7.056-.003c-5.656-.003-7.07.001-7.128.02m4.212 1.309a3.68 3.68 0 0 0-3.061 5.281a3.67 3.67 0 0 0 3.557 2.06a3.683 3.683 0 0 0 3.358-4.403a3.68 3.68 0 0 0-3.854-2.938m-.44 1.06c-.483.13-.893.371-1.245.732a2.5 2.5 0 0 0-.629 1.034a2.3 2.3 0 0 0-.13.844c0 .35.029.542.13.849c.143.428.35.759.68 1.083c.419.413.96.673 1.567.752c.344.045.83-.006 1.172-.122c.158-.053.457-.195.585-.277l.088-.056l-.963-.966C6.76 7.13 6.43 6.787 6.4 6.732l-.042-.08l-.005-1.391l-.005-1.39l-.04.001c-.022 0-.092.016-.157.033m1.17 1.184v1.22l.87.87l.871.871l.065-.101a2.73 2.73 0 0 0 .326-2.1a2.7 2.7 0 0 0-1.682-1.865a2.5 2.5 0 0 0-.422-.115c-.026 0-.029.12-.029 1.22m5.198-1.158a.51.51 0 0 0-.313.4a.51.51 0 0 0 .27.498c.073.04.078.04 1.422.044c1.51.006 1.449.01 1.6-.122c.116-.103.163-.222.152-.395c-.006-.106-.018-.151-.054-.208a.5.5 0 0 0-.23-.205c-.079-.036-.11-.037-1.43-.036c-1.069 0-1.365.005-1.417.024m-.012 2.486a.52.52 0 0 0-.3.398a.494.494 0 0 0 .309.51c.095.035.135.036 1.417.036c1.463 0 1.413.004 1.556-.118a.6.6 0 0 0 .121-.161c.044-.09.048-.114.04-.243c-.007-.125-.015-.154-.068-.23a.7.7 0 0 0-.149-.15l-.09-.06l-1.388-.005c-1.186-.003-1.397 0-1.448.023m2.793 3.303a.6.6 0 0 0-.135.045c-.033.016-.718.687-1.522 1.49l-1.463 1.46l-.751-.747c-.418-.416-.792-.773-.842-.804a1.05 1.05 0 0 0-.98-.047c-.132.063-.176.105-1.662 1.588c-1.393 1.392-1.529 1.532-1.561 1.619a.485.485 0 0 0 .198.588c.132.084.343.09.49.017c.033-.016.717-.687 1.522-1.49l1.462-1.46l.77.767c.73.728.776.77.904.831c.306.145.674.132.967-.034c.057-.033.6-.562 1.593-1.553c1.654-1.65 1.586-1.574 1.586-1.794a.46.46 0 0 0-.263-.429a.5.5 0 0 0-.313-.047" clip-rule="evenodd"/></svg>