<svg xmlns="http://www.w3.org/2000/svg" xmlns:xlink="http://www.w3.org/1999/xlink" width="24" height="24" viewBox="0 0 24 24"><g fill="none" stroke="currentColor" stroke-linecap="round" stroke-linejoin="round" stroke-width="1.5"><path d="M10.901 5.053V8.4L7.517 9.569L4.133 8.4V5.053"/><path d="M14.284 3.619L7.517.75L.75 3.619l6.767 2.868zm-13.534 0v3.825m21.4 7.206V9.883a.733.733 0 0 0-.733-.733h-7.334a.733.733 0 0 0-.733.733v4.767z"/><path d="M23.187 16.919a.732.732 0 0 1-.67 1.03h-9.534a.732.732 0 0 1-.67-1.03l1.037-2.27h8.8zM10.65 15.183a.733.733 0 0 0-.733-.733H2.583a.733.733 0 0 0-.733.733v4.767h8.8m1.037 2.269a.732.732 0 0 1-.67 1.031H1.483a.734.734 0 0 1-.67-1.031L1.85 19.95h8.8z"/></g></svg>