<svg xmlns="http://www.w3.org/2000/svg" xmlns:xlink="http://www.w3.org/1999/xlink" width="18" height="19" viewBox="0 0 18 19"><path fill="currentColor" fill-rule="evenodd" d="M9.15 2.02c-.841.31-5.11 1.915-5.148 1.935a.5.5 0 0 0-.21.23l-.042.092v2.736l.043.095a.49.49 0 0 0 .487.287a.46.46 0 0 0 .32-.163c.13-.142.131-.145.131-1.206c0-.883.002-.934.032-.922l1.484.559c.03.012.032.076.032.989c0 .687.006.994.02 1.037a1 1 0 0 0 .073.139l.051.077v.499c0 .65.038.916.18 1.273a2.86 2.86 0 0 0 2.094 1.776c.156.034.239.04.561.04s.405-.006.56-.04a2.855 2.855 0 0 0 2.257-2.451c.01-.084.018-.353.018-.599v-.445l.068-.069c.145-.144.138-.087.148-1.216l.009-1.005l1.125-.422c.618-.232 1.155-.442 1.192-.468a.54.54 0 0 0 .192-.302a.5.5 0 0 0-.197-.488c-.04-.028-1.183-.466-2.64-1.013c-2.728-1.024-2.689-1.01-2.84-.955M7.503 3.684l-1.825.687c-.026.012.419.186 1.782.697c.999.375 1.824.681 1.834.681s.836-.306 1.835-.681c1.761-.661 1.815-.682 1.76-.705l-1.781-.67l-1.769-.664c-.038-.014-.33.09-1.836.655m-.252 2.93c0 .313.004.57.01.57c.004 0 .459.137 1.01.306s1.01.306 1.023.306s.473-.138 1.023-.306a99 99 0 0 1 1.01-.306c.006 0 .01-.256.01-.567c0-.356-.006-.567-.018-.567c-.01 0-.452.162-.984.361c-.913.343-.972.362-1.067.355c-.073-.006-.346-.1-1.027-.356c-.51-.191-.941-.352-.958-.356c-.03-.008-.032.027-.032.56m.15 1.978c.015.508.084.752.308 1.098c.368.57 1.099.913 1.756.825c.88-.12 1.54-.782 1.637-1.648c.026-.225.025-.585-.001-.585c-.011 0-.405.117-.875.26c-.54.165-.883.262-.933.262c-.049 0-.405-.1-.965-.271l-.913-.28c-.021-.007-.023.047-.014.339m1.338 3.767a4.62 4.62 0 0 0-3.268 1.989a4.6 4.6 0 0 0-.796 2.262c-.033.4-.004.552.13.688a.485.485 0 0 0 .762-.088c.057-.09.063-.123.082-.426c.027-.444.1-.79.246-1.158a3.67 3.67 0 0 1 1.177-1.567c.022-.012.218.196.918.976c.49.545.931 1.029.982 1.075s.124.094.164.106a.53.53 0 0 0 .462-.082c.022-.017.44-.477.928-1.021c.488-.545.906-1.01.928-1.033l.04-.042l.165.138a3.67 3.67 0 0 1 1.235 2.17c.015.084.035.284.044.444c.02.323.034.377.139.492c.234.26.653.195.805-.127c.034-.071.038-.11.036-.332c-.012-1.248-.621-2.533-1.597-3.369a4.6 4.6 0 0 0-2.49-1.096a6 6 0 0 0-1.092.001m.276.955l-.216.027c-.253.03-.81.177-.81.213c0 .01 1.158 1.309 1.267 1.42l.04.042l.647-.72c.356-.396.649-.728.652-.737c.011-.034-.455-.166-.748-.212a6 6 0 0 0-.832-.033" clip-rule="evenodd"/></svg>