<svg xmlns="http://www.w3.org/2000/svg" xmlns:xlink="http://www.w3.org/1999/xlink" width="19" height="19" viewBox="0 0 19 19"><path fill="currentColor" fill-rule="evenodd" d="M4.46 1.04a3.6 3.6 0 0 0-1.332.353A3.68 3.68 0 0 0 1.067 4.2a4.6 4.6 0 0 0 0 1.026A3.7 3.7 0 0 0 2.715 7.8l.157.102l-.182.12a3.67 3.67 0 0 0-1.623 2.565a5 5 0 0 0-.009.955c.078.633.329 1.252.715 1.77c.127.17.418.472.6.623c.414.346.968.62 1.502.745c.37.086.505.093 1.832.092c1.214 0 1.248 0 1.327-.037a.495.495 0 0 0 .027-.886c-.071-.039-.084-.04-1.359-.05c-1.347-.01-1.362-.012-1.685-.095a2.78 2.78 0 0 1-1.437-.956a2.69 2.69 0 0 1-.328-2.759a2.4 2.4 0 0 1 .57-.814c.391-.386.834-.619 1.413-.743c.06-.013 1.034-.023 2.997-.03l2.907-.01l.103-.05a.46.46 0 0 0 .273-.436a.45.45 0 0 0-.164-.37c-.153-.134.056-.125-3.038-.125c-1.898 0-2.823-.006-2.927-.02a2.7 2.7 0 0 1-.93-.295a2.5 2.5 0 0 1-.65-.48a2.699 2.699 0 0 1 1.6-4.588c.124-.014 1.41-.018 4.69-.013l4.517.006l.193.048c.37.092.643.21.929.404q.907.613 1.149 1.734c.047.216.046.788 0 1.008a2.73 2.73 0 0 1-.754 1.414c-.16.168-.215.272-.215.412a.43.43 0 0 0 .12.33a.44.44 0 0 0 .398.162c.167-.01.258-.067.46-.282c.96-1.024 1.266-2.448.807-3.755a3.68 3.68 0 0 0-2.065-2.188a3.5 3.5 0 0 0-1.194-.268c-.343-.022-8.648-.022-8.98 0m.054 2.945a.754.754 0 0 0-.333 1.257a.746.746 0 0 0 1.066-.004a.743.743 0 0 0-.002-1.054a.66.66 0 0 0-.347-.201a.73.73 0 0 0-.383.002m3.755.267a.52.52 0 0 0-.254.217c-.05.08-.054.101-.054.243s.005.163.054.244c.064.102.18.197.275.223q.068.018 2.543.019c2.8 0 2.578.012 2.734-.145a.473.473 0 0 0 .01-.673c-.155-.16.127-.145-2.718-.149c-2.11-.003-2.531 0-2.59.021m4.678 4.233a4.76 4.76 0 0 0-4.327 3.598c-.102.408-.118.562-.118 1.134c0 .566.007.649.092 1.032a4.745 4.745 0 0 0 4.074 3.685c.229.027.8.037.986.017q1.232-.133 2.187-.771c.285-.19.447-.32.677-.543c.279-.268.465-.5.5-.619a.487.487 0 0 0-.7-.565a.8.8 0 0 0-.18.156a3.8 3.8 0 0 1-1.2.963a3.73 3.73 0 0 1-3.35.036a3.5 3.5 0 0 1-.96-.666c-.592-.56-.963-1.263-1.121-2.122c-.045-.245-.045-.947 0-1.188c.078-.42.18-.736.348-1.077c.39-.79 1.091-1.457 1.878-1.787a3.77 3.77 0 0 1 3.617.35c.423.285.843.732 1.11 1.182c.104.173.186.332.186.359c0 .011-.347.02-.996.023l-.996.005l-.073.049c-.168.11-.241.237-.242.416a.48.48 0 0 0 .16.371c.15.132.08.127 1.652.127s1.503.005 1.653-.127a.6.6 0 0 0 .122-.165l.043-.095v-1.701c0-1.688 0-1.702-.038-1.782a.47.47 0 0 0-.236-.246a.483.483 0 0 0-.655.224l-.043.085l-.005.743l-.006.743l-.073-.093a4.74 4.74 0 0 0-3.084-1.716a7 7 0 0 0-.882-.035m-8.47 1.894a.76.76 0 0 0-.507.837c.1.602.848.843 1.274.41a.755.755 0 0 0-.306-1.25a.9.9 0 0 0-.461.003" clip-rule="evenodd"/></svg>