<svg xmlns="http://www.w3.org/2000/svg" xmlns:xlink="http://www.w3.org/1999/xlink" width="18" height="19" viewBox="0 0 18 19"><g fill="none"><g clip-path="url(#bubblesTeacherSolid0)"><path fill="currentColor" fill-rule="evenodd" d="M4.23 1.263a2.616 2.616 0 0 0-2.385 2.26c-.028.21-.013.685.028.87A2.62 2.62 0 0 0 4.05 6.456c.212.032.559.032.779-.001a2.62 2.62 0 0 0 2.13-1.89a2.7 2.7 0 0 0-.011-1.422a2.63 2.63 0 0 0-1.605-1.73a2.7 2.7 0 0 0-1.113-.15m4.377-.001a.495.495 0 0 0-.39.583c.037.176.19.332.363.369c.062.013 1.25.02 3.877.02h3.787l.104.038a.6.6 0 0 1 .327.327l.039.104v4.624c0 4.606 0 4.625-.037 4.723a.6.6 0 0 1-.283.312l-.103.05l-3.33.01l-3.33.008l-.081.042a.48.48 0 0 0-.275.445a.49.49 0 0 0 .291.447l.083.038l3.195.006c2.155.003 3.265-.002 3.41-.014c.402-.036.708-.177.982-.45a1.5 1.5 0 0 0 .449-.952c.026-.259.026-9.07 0-9.328a1.56 1.56 0 0 0-1.21-1.379c-.122-.03-.38-.032-3.955-.035c-2.104-.001-3.865.004-3.913.012m-4.385.982c-.694.128-1.164.539-1.362 1.19c-.043.141-.048.187-.048.428c0 .223.006.295.039.414c.162.59.616 1.038 1.2 1.182c.226.056.547.056.774 0a1.73 1.73 0 0 0 .886-.561c.118-.145.262-.43.313-.62a2 2 0 0 0 0-.81c-.196-.722-.8-1.203-1.532-1.225a3 3 0 0 0-.27.002M4.14 6.582l-.216.027a3.6 3.6 0 0 0-1.147.361a3.67 3.67 0 0 0-1.95 2.558c-.067.33-.083.732-.077 1.912l.006 1.044l.043.095a.6.6 0 0 0 .122.166c.128.112.195.126.594.126c.191 0 .348.002.348.005l.25 2.48c.23 2.303.251 2.483.291 2.563c.05.1.136.18.25.233c.081.038.091.038 1.783.038c1.688 0 1.701 0 1.782-.037a.5.5 0 0 0 .246-.23c.044-.086.056-.191.287-2.512c.133-1.333.246-2.45.25-2.481l.01-.059h.347c.398 0 .466-.014.593-.126a.6.6 0 0 0 .123-.166l.043-.095v-1.26c-.001-1.111-.005-1.285-.033-1.474a3.7 3.7 0 0 0-3.072-3.134a6 6 0 0 0-.873-.034m-.387 1.06a2.7 2.7 0 0 0-1.48 1a2.8 2.8 0 0 0-.484 1.073c-.039.17-.04.223-.047 1.18L1.736 11.9h.347c.3.001.358.006.421.034a.5.5 0 0 1 .24.229c.04.08.061.26.292 2.562l.25 2.48c0 .003.518.005 1.15.005h1.15l.011-.085c.006-.047.117-1.147.246-2.444s.246-2.399.26-2.448a.48.48 0 0 1 .246-.286c.091-.045.104-.047.441-.047h.348v-.913c0-1.102-.015-1.244-.166-1.66a2.71 2.71 0 0 0-2.038-1.729L3.93 7.6l1.84-.636l-.144.05l-.375.129l-.401.139l-.435.15l-.485.168c-.012 0-.091.02-.175.043" clip-rule="evenodd"/></g><defs><clipPath id="bubblesTeacherSolid0"><path fill="#fff" d="M0 .5h18v18H0z"/></clipPath></defs></g></svg>