<svg xmlns="http://www.w3.org/2000/svg" xmlns:xlink="http://www.w3.org/1999/xlink" width="18" height="18" viewBox="0 0 18 18"><g fill="currentColor" fill-rule="evenodd" clip-rule="evenodd"><path d="M7.36.006c-.256.026-.565.14-.785.29a2 2 0 0 0-.577.62a2.2 2.2 0 0 0-.228.583c-.045.197-.046.217-.05.786l-.002.526l-4.802.004l-.061.022A.57.57 0 0 0 .52 3.2a.8.8 0 0 0-.012.296a.56.56 0 0 0 .369.419c.043.014.111.015 1.138.017l1.093.003v6.105c0 4.32.002 6.132.008 6.196c.017.18.063.382.125.544c.25.65.779 1.096 1.428 1.206c.084.014.296.015 4.826.015c4.58 0 4.741 0 4.83-.015a1.8 1.8 0 0 0 .85-.386a2.4 2.4 0 0 0 .317-.334c.22-.3.355-.658.39-1.034c.006-.058.008-2.029.008-6.191V3.934l1.093-.003c1.025-.002 1.095-.003 1.138-.017a.56.56 0 0 0 .369-.418a.8.8 0 0 0-.012-.297a.57.57 0 0 0-.334-.362l-.06-.022l-4.804-.004v-.478c0-.471-.004-.577-.027-.719a2.1 2.1 0 0 0-.37-.879a2.4 2.4 0 0 0-.317-.333a1.8 1.8 0 0 0-.66-.343c-.23-.063-.023-.057-2.373-.059C8.377 0 7.4.002 7.361.006m.053 1.122a1 1 0 0 0-.22.08a.83.83 0 0 0-.385.459c-.045.132-.043.108-.046.647l-.003.497h5.481v-.468c0-.271-.003-.49-.008-.52a.84.84 0 0 0-.524-.66c-.126-.046-.01-.044-2.219-.043c-1.12 0-2.054.004-2.076.008M4.15 10.032c0 5.532 0 6.105.012 6.163a.84.84 0 0 0 .58.665l.054.017l4.662.003c3.434.002 4.677 0 4.722-.007a.77.77 0 0 0 .38-.18a.86.86 0 0 0 .27-.446l.016-.063l.004-12.25H4.15zm5.173-2.979a.47.47 0 0 0-.231.148a.5.5 0 0 0-.098.14c-.06.13-.055-.141-.055 3.067c0 3.206-.005 2.936.055 3.065a.5.5 0 0 0 .098.142a.4.4 0 0 0 .138.109a.43.43 0 0 0 .233.055a.47.47 0 0 0 .323-.124a.6.6 0 0 0 .18-.314c.015-.079.015-5.787 0-5.867c-.037-.199-.207-.384-.388-.425a.6.6 0 0 0-.255.004"/><path d="M8.986 6.576a.6.6 0 0 1 .849 0l2.41 2.41a.6.6 0 0 1-.848.849l-2.41-2.41a.6.6 0 0 1 0-.85"/><path d="M9.835 6.576a.6.6 0 0 1 0 .848l-2.41 2.41a.6.6 0 0 1-.85-.848l2.411-2.41a.6.6 0 0 1 .849 0"/></g></svg>