<svg xmlns="http://www.w3.org/2000/svg" xmlns:xlink="http://www.w3.org/1999/xlink" width="18" height="18" viewBox="0 0 18 18"><path fill="currentColor" fill-rule="evenodd" d="M9.031 10.999a.51.51 0 0 1-.403-.376c-.009-.041-.01-.605-.01-4.022V2.626L7.322 3.92c-.712.711-1.31 1.305-1.331 1.32a.492.492 0 0 1-.702-.665c.029-.043.395-.414 1.784-1.801C8.71 1.14 8.826 1.025 8.873 1a.5.5 0 0 1 .228-.056c.093 0 .14.01.222.049l.068.032l1.765 1.765l1.765 1.766l.03.06c.04.082.053.15.049.246a.46.46 0 0 1-.137.32a.46.46 0 0 1-.329.146a.46.46 0 0 1-.245-.05l-.06-.03l-1.313-1.31l-1.312-1.312v3.931c0 2.271-.003 3.959-.007 3.996a.5.5 0 0 1-.063.204a.5.5 0 0 1-.268.22a.4.4 0 0 1-.137.023a1 1 0 0 1-.098-.001M.372 13.59a.5.5 0 0 0-.337.331l-.017.054v.713c0 .768 0 .777.04 1.004a2.77 2.77 0 0 0 2.412 2.252c.1.012.387.012 6.545.012c6.16 0 6.445 0 6.544-.012c.336-.042.606-.12.892-.258a2.77 2.77 0 0 0 1.554-2.232c.01-.093.013-.22.015-.78c.001-.398 0-.676-.005-.685l-.018-.061a.46.46 0 0 0-.13-.213a.4.4 0 0 0-.127-.092a.6.6 0 0 0-.105-.04a.7.7 0 0 0-.243.007a.5.5 0 0 0-.343.338c-.016.054-.016.056-.021.767a19 19 0 0 1-.013.758c-.061.344-.18.615-.377.858a3 3 0 0 1-.24.247a1.8 1.8 0 0 1-.885.399c-.084.013-.264.013-6.498.013c-6.124 0-6.416 0-6.495-.013a2 2 0 0 1-.351-.088a1.79 1.79 0 0 1-1.114-1.234c-.05-.202-.049-.176-.054-.954c-.005-.774-.002-.728-.049-.827a.5.5 0 0 0-.315-.264a.6.6 0 0 0-.265 0m-.354 1.083c0 .373 0 .524.002.336v-.676c-.001-.185-.002-.032-.002.34" clip-rule="evenodd"/></svg>