<svg xmlns="http://www.w3.org/2000/svg" xmlns:xlink="http://www.w3.org/1999/xlink" width="12" height="12" viewBox="0 0 12 12"><path fill="currentColor" fill-rule="evenodd" d="M3.629 1.502a2.378 2.378 0 0 0-2.184 2.945a2.376 2.376 0 0 0 4.671-.353a4 4 0 0 0 0-.437a2.4 2.4 0 0 0-.548-1.313a4 4 0 0 0-.306-.302a2.37 2.37 0 0 0-1.633-.54m4.506 0a2.35 2.35 0 0 0-1.353.516c-.071.057-.174.15-.204.185a.24.24 0 0 0-.058.177c.002.051.003.055.062.18a3.11 3.11 0 0 1-.01 2.653c-.046.097-.053.12-.053.17c0 .044.008.078.027.117c.016.033.106.124.193.197c.371.308.79.486 1.274.541c.092.01.368.012.46.003a2.37 2.37 0 0 0 1.515-.748a2.37 2.37 0 0 0-.059-3.298a2.36 2.36 0 0 0-1.794-.693M3.559 6.504a3.76 3.76 0 0 0-3.18 2.1a3.7 3.7 0 0 0-.374 1.447c-.007.125-.006.222.003.259a.25.25 0 0 0 .095.141a.24.24 0 0 0 .117.046c.025.004 1.192.005 3.555.004l3.519-.001l.031-.011a.25.25 0 0 0 .173-.208a3.73 3.73 0 0 0-1.226-2.808a3.73 3.73 0 0 0-2.713-.97m4.5 0c-.308.016-.61.07-.916.164c-.104.031-.134.046-.173.085a.25.25 0 0 0-.047.297q.015.03.066.084a4.5 4.5 0 0 1 1.226 2.562c.018.145.027.258.032.43c.002.084.007.164.01.177a.27.27 0 0 0 .172.186l.031.01l1.642.002q1.642.001 1.679-.004a.25.25 0 0 0 .212-.19c.014-.056.005-.288-.017-.489a3.74 3.74 0 0 0-2.361-3.063a3.8 3.8 0 0 0-1.555-.251" clip-rule="evenodd"/></svg>