<svg xmlns="http://www.w3.org/2000/svg" xmlns:xlink="http://www.w3.org/1999/xlink" width="24" height="24" viewBox="0 0 24 24"><path fill="none" stroke="currentColor" stroke-linecap="round" stroke-linejoin="round" stroke-width="1.5" d="M.75 6.751V2.25a1.5 1.5 0 0 1 1.5-1.5h4.5m16.5 6.001V2.25a1.5 1.5 0 0 0-1.5-1.5h-4.5M.75 17.25v4.5a1.5 1.5 0 0 0 1.5 1.5h4.5m16.5-6v4.5a1.5 1.5 0 0 1-1.5 1.5h-4.5M7.875 8.625a4.125 4.125 0 1 0 8.25 0a4.125 4.125 0 0 0-8.25 0M18.337 18.75a6.712 6.712 0 0 0-12.674 0"/></svg>