<svg xmlns="http://www.w3.org/2000/svg" xmlns:xlink="http://www.w3.org/1999/xlink" width="24" height="24" viewBox="0 0 24 24"><g fill="none" stroke="currentColor" stroke-linecap="round" stroke-linejoin="round" stroke-width="1.5"><path d="m2.783 21l18.75-18M8.964 19.05A10 10 0 0 0 12 19.5c4.1.069 8.258-2.813 10.824-5.637a1.663 1.663 0 0 0 0-2.226A20.6 20.6 0 0 0 19.75 8.88m-5.337-2.598A9.6 9.6 0 0 0 12 6c-4.031-.067-8.2 2.752-10.821 5.635a1.663 1.663 0 0 0 0 2.226a21 21 0 0 0 2.6 2.4"/><path d="M8.25 12.75A3.75 3.75 0 0 1 12 9m3.75 3.749A3.75 3.75 0 0 1 12 16.5"/></g></svg>