<svg xmlns="http://www.w3.org/2000/svg" xmlns:xlink="http://www.w3.org/1999/xlink" width="19" height="18" viewBox="0 0 19 18"><path fill="currentColor" fill-rule="evenodd" d="M16.203 2.131a.46.46 0 0 0-.238.097c-.031.025-1.376 1.313-2.7 2.587l-.25.24l-.035-.017l-.171-.077A8.5 8.5 0 0 0 9.4 4.255c-1.215 0-2.502.337-3.835 1.005c-1.414.71-2.841 1.795-3.992 3.036c-.206.222-.288.334-.372.506c-.3.616-.198 1.333.262 1.847a14.6 14.6 0 0 0 3.032 2.58c0 .002-.43.416-.956.921q-.956.918-.984.959a.46.46 0 0 0-.081.299a.46.46 0 0 0 .173.351c.09.076.188.11.315.11a.45.45 0 0 0 .285-.09c.02-.016.54-.512 1.154-1.102c.82-.787 1.127-1.078 1.155-1.093a.46.46 0 0 0 .168-.154c.037-.056.139-.156.951-.936c.602-.577.927-.885.962-.908a.6.6 0 0 0 .145-.144c.022-.037 3.696-3.561 3.748-3.595a.5.5 0 0 0 .142-.135c.022-.03.31-.312.847-.827l.98-.94c.09-.089.823-.792 1.627-1.563s1.48-1.423 1.504-1.45a.489.489 0 0 0-.427-.8M9.05 5.242c-.975.067-1.95.35-2.995.867c-1.046.519-2.042 1.214-3.013 2.102c-.265.242-.815.804-.905.924a.8.8 0 0 0-.105.215a.5.5 0 0 0-.016.18a.56.56 0 0 0 .062.3c.039.08.073.123.24.304c.341.373.757.775 1.149 1.113c.516.446 1.14.903 1.7 1.248l.057.035l.02-.017a389 389 0 0 0 1.48-1.418c.014-.013.013-.016-.04-.127a3.2 3.2 0 0 1-.218-2.172a3.22 3.22 0 0 1 2.717-2.41c.283-.034.634-.029.908.015c.351.056.72.18 1.015.34l.096.053l.525-.504l.525-.504l-.06-.024l-.187-.07a7.6 7.6 0 0 0-1.905-.429a9 9 0 0 0-1.05-.02m5.836 1.069a.51.51 0 0 0-.351.318a.54.54 0 0 0-.01.275a.5.5 0 0 0 .133.234c.013.011.1.079.195.15c.397.3.715.563 1.073.89c.277.253.842.83.937.957a.8.8 0 0 1 .104.21c.02.07.027.222.014.3a.7.7 0 0 1-.122.29c-.05.065-.238.267-.447.479c-1.658 1.684-3.68 2.89-5.49 3.273a6.2 6.2 0 0 1-1.382.144c-.71 0-1.295-.082-1.933-.271l-.14-.042h-.102a.37.37 0 0 0-.23.057a.48.48 0 0 0-.235.304a.6.6 0 0 0-.006.227a.57.57 0 0 0 .16.268c.075.06.108.074.31.134c.54.158 1.091.253 1.686.289c.19.012.806.012.969 0a7.8 7.8 0 0 0 1.67-.296c1.12-.32 2.28-.896 3.402-1.688a15 15 0 0 0 2.023-1.719c.239-.243.454-.476.523-.568a1.66 1.66 0 0 0-.034-2.03c-.14-.174-.676-.724-.982-1.006a15 15 0 0 0-1.175-.978c-.19-.142-.223-.163-.295-.189a.6.6 0 0 0-.265-.012M9.422 7.344a2.25 2.25 0 0 0-1.749 1.07a3 3 0 0 0-.184.377a2.28 2.28 0 0 0-.007 1.56c.004.006.522-.487 1.488-1.414c1.42-1.362 1.481-1.423 1.465-1.431a2.4 2.4 0 0 0-.418-.125a2.6 2.6 0 0 0-.595-.037m2.654 1.706a.5.5 0 0 0-.386.354a1 1 0 0 0-.019.168a2.1 2.1 0 0 1-.215.9a2.14 2.14 0 0 1-.995 1.005c-.294.144-.54.207-.88.223c-.182.009-.21.014-.293.054a.487.487 0 0 0 .108.915c.107.023.443.002.676-.04a3.16 3.16 0 0 0 2.353-1.934c.145-.368.216-.725.217-1.09c.001-.156 0-.173-.015-.22a.5.5 0 0 0-.315-.317a.6.6 0 0 0-.236-.018" clip-rule="evenodd"/></svg>