<svg xmlns="http://www.w3.org/2000/svg" xmlns:xlink="http://www.w3.org/1999/xlink" width="24" height="22" viewBox="0 0 24 22"><path fill="currentColor" fill-rule="evenodd" d="M15.135.907a2.4 2.4 0 0 0-.653.192c-.141.063-.598.353-5.527 3.497l-2.49 1.589l-1.89.016l-1.89.016l-.264.082C1.442 6.602.754 7.374.584 8.356c-.04.232-.045.57-.037 2.335c.01 2.28.002 2.162.212 2.672c.231.562.787 1.117 1.348 1.348c.499.205.419.198 2.509.217l1.9.017l-2.755 2.295a320 320 0 0 0-2.917 2.444c-.191.18-.266.316-.292.531c-.023.2.02.368.146.554c.143.213.33.317.604.334c.191.013.243.004.382-.06c.11-.053 1.273-1.004 3.731-3.054c1.963-1.638 3.638-3.033 3.722-3.101A6516 6516 0 0 0 20.794 5.17c2.799-2.331 2.65-2.185 2.65-2.601c0-.193-.014-.248-.09-.388c-.204-.373-.685-.532-1.05-.347c-.082.041-1.047.824-2.144 1.739l-1.995 1.664l-.02-1.072c-.016-.942-.026-1.098-.079-1.296a2.4 2.4 0 0 0-.366-.832A2.6 2.6 0 0 0 15.87.892a2 2 0 0 0-.735.015m.072 1.658c-.075.03-.197.096-.27.146c-.152.104-7.728 4.938-7.887 5.032c-.103.06-.148.062-2.115.077l-2.01.015l-.17.08a1.1 1.1 0 0 0-.481.451l-.069.129l-.008 2.014c-.008 1.97-.007 2.018.053 2.18c.082.22.31.448.53.53c.159.06.222.061 2.948.061h2.786l3.992-3.322l3.992-3.323l-.007-1.71c-.006-1.676-.007-1.713-.07-1.849a1.06 1.06 0 0 0-.444-.468c-.204-.105-.567-.125-.77-.043m1.843 8.837a.86.86 0 0 0-.523.438c-.035.063-.044.57-.057 3.045l-.015 2.97l-.079.169c-.153.325-.383.504-.73.568a.9.9 0 0 1-.6-.103c-.066-.037-.964-.605-1.994-1.262s-1.933-1.215-2.006-1.24a.83.83 0 0 0-.594.057c-.489.245-.595.93-.202 1.3c.109.103 3.851 2.503 4.104 2.633c.362.185.847.28 1.301.254c1.116-.063 2.041-.821 2.351-1.926l.068-.24l.009-3.004c.01-2.976.009-3.004-.053-3.17a.9.9 0 0 0-.435-.458a.93.93 0 0 0-.545-.031" clip-rule="evenodd"/></svg>