<svg xmlns="http://www.w3.org/2000/svg" xmlns:xlink="http://www.w3.org/1999/xlink" width="17" height="16" viewBox="0 0 17 16"><path fill="currentColor" fill-rule="evenodd" d="M1.043 1.938c0 .518.42.938.938.938h14.082a.938.938 0 0 0 0-1.876H1.981a.94.94 0 0 0-.938.938m0 12c0 .518.42.938.938.938h14.082a.938.938 0 0 0 0-1.876H1.981a.94.94 0 0 0-.938.938m0-6c0 .518.42.938.938.938h10.082a.938.938 0 0 0 0-1.876H1.981a.94.94 0 0 0-.938.938m0 3c0 .518.42.938.938.938h8.082a.938.938 0 0 0 0-1.876H1.981a.94.94 0 0 0-.938.938m0-6c0 .518.42.938.938.938h6.082a.938.938 0 0 0 0-1.876H1.981a.94.94 0 0 0-.938.938"/></svg>