<svg xmlns="http://www.w3.org/2000/svg" xmlns:xlink="http://www.w3.org/1999/xlink" width="24" height="24" viewBox="0 0 24 24"><path fill="currentColor" d="M9.75 14.192q-.192 0-.317-.125t-.125-.316t.125-.317t.317-.126h4.5q.192 0 .317.125t.125.316t-.125.317t-.317.126zm-1-3q-.192 0-.317-.125t-.125-.316t.125-.317t.317-.126h6.5q.192 0 .317.125t.125.316t-.125.317t-.317.126zM7.616 22q-.691 0-1.153-.462T6 20.385V3.615q0-.69.463-1.152T7.616 2h8.769q.69 0 1.152.463T18 3.616v16.769q0 .69-.462 1.153T16.384 22zM7 18.5h10v-13H7z"/></svg>