<svg xmlns="http://www.w3.org/2000/svg" xmlns:xlink="http://www.w3.org/1999/xlink" width="24" height="24" viewBox="0 0 24 24"><path fill="currentColor" d="M7 20.385q-.537 0-.922-.386q-.386-.385-.386-.922v-10q0-.537.386-.922q.385-.386.922-.386h10q.537 0 .922.386q.386.385.386.922v10q0 .536-.386.922q-.385.386-.922.386zm4.308-2.231v.423q0 .29.2.491q.202.201.492.201t.491-.2q.201-.202.201-.492v-.423zm-.039-1.385h1.462q.096-.748.455-1.323q.358-.575.756-1.117q.399-.548.709-1.102t.31-1.265q0-1.22-.87-2.09Q13.219 9 12 9t-2.09.871t-.872 2.09q0 .712.311 1.266q.31.554.709 1.102q.398.523.756 1.107q.359.585.455 1.333m-4.5-10.5q.096-.394.409-.64t.726-.244h8.192q.414 0 .726.245t.409.64zm1.02-2.385q.096-.394.408-.639T8.923 3h6.154q.413 0 .726.245t.408.64z"/></svg>