<svg xmlns="http://www.w3.org/2000/svg" xmlns:xlink="http://www.w3.org/1999/xlink" width="24" height="24" viewBox="0 0 24 24"><path fill="currentColor" d="M9.462 15.385q-.368 0-.607-.24q-.24-.24-.24-.606v-1.693q.368 0 .607-.24q.24-.239.24-.606t-.24-.607t-.606-.24v-1.69q0-.368.239-.607q.24-.24.606-.24h5.078q.367 0 .606.24q.24.24.24.607v1.692q-.368 0-.607.24q-.24.239-.24.606t.24.607t.606.24v1.692q0 .367-.239.606q-.24.24-.607.24zM12 14.115q.18 0 .302-.12q.121-.122.121-.303t-.121-.301t-.302-.122t-.302.122t-.121.301t.121.302q.121.122.302.122m0-1.693q.18 0 .302-.121q.121-.121.121-.302t-.121-.302t-.302-.121t-.302.121t-.121.302t.121.302t.302.121m0-1.692q.18 0 .302-.121q.121-.121.121-.302t-.121-.302T12 9.885t-.302.12t-.121.303t.121.302q.121.12.302.12M7.616 22q-.691 0-1.153-.462T6 20.385V3.615q0-.69.463-1.152T7.616 2h8.769q.69 0 1.152.463T18 3.616v16.769q0 .69-.462 1.153T16.384 22zM7 19.5v.885q0 .23.192.423t.423.192h8.77q.23 0 .423-.192t.192-.424V19.5zm0-1h10v-13H7zm0-14h10v-.885q0-.23-.192-.423T16.384 3H7.616q-.231 0-.424.192T7 3.616zm0 0V3zm0 15V21z"/></svg>