<svg xmlns="http://www.w3.org/2000/svg" xmlns:xlink="http://www.w3.org/1999/xlink" width="24" height="24" viewBox="0 0 24 24"><path fill="currentColor" d="M5.5 4q-.213 0-.356-.144T5 3.499t.144-.356T5.5 3h13.885q.69 0 1.153.463T21 4.615V6.64q0 .244-.155.36t-.341.115t-.345-.12T20 6.621V4.615q0-.23-.192-.423T19.385 4zM3.779 17q-.338 0-.559-.221Q3 16.558 3 16.23V8.384q0-.326.22-.547t.559-.221h3.98q.339 0 .56.22q.22.222.22.549v7.846q0 .327-.22.548q-.221.221-.56.221zm12.779 2.327v-4.5q-.225-.123-.363-.347t-.137-.48q0-.396.281-.669t.657-.273q.395 0 .67.273q.276.273.276.669q0 .256-.122.473q-.122.218-.378.354v4.5q0 .191-.125.317q-.125.125-.316.125t-.317-.125t-.126-.317M17 11.192q-1.165 0-1.986.815q-.822.814-.822 1.993q0 .492.194.937t.497.834q.111.16.128.338q.016.177-.132.325t-.326.136t-.314-.166q-.447-.52-.689-1.133T13.308 14q0-1.546 1.083-2.62q1.084-1.072 2.605-1.072q1.545 0 2.62 1.073T20.692 14q0 .671-.239 1.294q-.24.623-.686 1.123q-.136.154-.315.167q-.18.012-.314-.136q-.134-.123-.13-.301t.115-.337q.323-.371.504-.835t.18-.975q0-1.18-.813-1.993T17 11.192m-.005-2.5q-2.205 0-3.754 1.54Q11.692 11.77 11.692 14q0 .994.369 1.926q.368.932 1.035 1.659q.123.16.137.337q.013.178-.116.307q-.14.148-.329.123q-.188-.025-.33-.179q-.785-.856-1.217-1.93q-.433-1.075-.433-2.243q0-2.596 1.809-4.394t4.379-1.798q2.595 0 4.395 1.798q1.801 1.798 1.801 4.394q0 1.175-.417 2.256t-1.246 1.917q-.142.135-.32.144q-.178.01-.307-.128q-.129-.139-.11-.304q.02-.166.143-.325q.667-.708 1.02-1.638T22.308 14q0-2.23-1.541-3.768q-1.54-1.54-3.772-1.54M4 16h3.539V8.616H4zm0 0h3.539z"/></svg>