<svg xmlns="http://www.w3.org/2000/svg" xmlns:xlink="http://www.w3.org/1999/xlink" width="24" height="24" viewBox="0 0 24 24"><path fill="currentColor" d="M21 7.467q-.238-.157-.479-.294q-.24-.136-.521-.246V4.616q0-.232-.192-.424T19.385 4H5V3h14.385q.69 0 1.153.463T21 4.615zM3.779 17q-.338 0-.559-.221Q3 16.558 3 16.23V8.384q0-.326.22-.547t.559-.221h3.98q.339 0 .56.22q.22.222.22.549v7.846q0 .327-.22.548q-.221.221-.56.221zm12.779 2.77v-4.943q-.225-.123-.363-.347t-.137-.48q0-.396.281-.669t.657-.273q.395 0 .67.273q.276.273.276.669q0 .256-.122.473q-.122.218-.378.354v4.942zm-1.998-3.022q-.57-.556-.911-1.262q-.341-.707-.341-1.486q0-1.546 1.083-2.62q1.084-1.072 2.605-1.072q1.545 0 2.62 1.073T20.692 14q0 .794-.326 1.51q-.325.715-.92 1.251l-.633-.627q.466-.407.73-.962q.265-.555.265-1.172q0-1.18-.815-1.994T17 11.192q-1.165 0-1.986.815q-.822.814-.822 1.993q0 .61.277 1.159t.723.956zm-1.756 1.775q-.952-.892-1.474-2.074q-.522-1.18-.522-2.449q0-2.596 1.809-4.394t4.379-1.798q2.595 0 4.395 1.798q1.801 1.798 1.801 4.394q0 1.275-.503 2.462q-.504 1.188-1.487 2.036l-.594-.614q.84-.744 1.27-1.762t.43-2.122q0-2.23-1.541-3.769t-3.772-1.539q-2.204 0-3.754 1.54Q11.692 11.77 11.692 14q0 1.11.446 2.128q.445 1.018 1.28 1.782z"/></svg>