<svg xmlns="http://www.w3.org/2000/svg" xmlns:xlink="http://www.w3.org/1999/xlink" width="24" height="24" viewBox="0 0 24 24"><path fill="currentColor" d="M21.02 9.192v7.03q0 .282-.147.464q-.146.181-.363.268q-.218.086-.444.053q-.227-.034-.42-.22l-4.911-4.883q-.222-.22-.354-.53t-.131-.632v-1.55q0-.343.232-.575t.576-.233h5.154q.343 0 .575.233t.232.575M15.058 19q-.344 0-.576-.232t-.232-.576v-2.508L6 7.435V17.5h4.73q.313 0 .532.22t.219.534q0 .313-.219.53q-.219.216-.531.216H3.75q-.312 0-.531-.22T3 18.246t.219-.53t.531-.216H5V6.435L3.12 4.554q-.141-.14-.15-.345q-.01-.203.15-.363q.159-.16.353-.16t.354.16l16.462 16.462q.14.14.15.344t-.15.364t-.355.159t-.353-.16L17.566 19zM19.5 6H8.77q-.25 0-.376-.155q-.125-.155-.125-.341t.125-.345T8.77 5H19.5q.213 0 .356.144t.144.357t-.144.356T19.5 6"/></svg>