<svg xmlns="http://www.w3.org/2000/svg" xmlns:xlink="http://www.w3.org/1999/xlink" width="24" height="24" viewBox="0 0 24 24"><path fill="currentColor" d="M12 16.558q-.271 0-.468-.198q-.197-.197-.197-.468q0-.27.197-.468q.197-.197.468-.197t.468.197t.197.468t-.197.468q-.197.198-.468.198m-.442-2.777q0-.766.245-1.258t.928-1.108q.408-.388.667-.735t.26-.85q0-.546-.405-.992T12 8.392q-.713 0-1.083.34t-.57.783l-.812-.319q.3-.721.919-1.199T12 7.519q1.079 0 1.81.609q.732.608.732 1.691q0 .581-.251 1.02q-.252.438-.683.869q-.731.73-.93 1.088q-.197.358-.236.985zM7.616 22q-.691 0-1.153-.462T6 20.385V3.615q0-.69.463-1.152T7.616 2h8.769q.69 0 1.152.463T18 3.616v16.769q0 .69-.462 1.153T16.384 22zM7 18.5h10v-13H7z"/></svg>