<svg xmlns="http://www.w3.org/2000/svg" xmlns:xlink="http://www.w3.org/1999/xlink" width="24" height="24" viewBox="0 0 24 24"><path fill="currentColor" d="M8.5 20.885q0-.214.143-.357T9 20.385h6q.214 0 .357.143t.143.357t-.143.356t-.357.144H9q-.213 0-.357-.144q-.143-.143-.143-.356m.116-2.5q-.691 0-1.153-.463T7 16.769V4q0-.69.463-1.153t1.153-.462h6.769q.69 0 1.153.462T17 4v12.77q0 .69-.462 1.152t-1.153.463zM8 15.885v.884q0 .231.192.423t.423.193h6.77q.23 0 .423-.193T16 16.77v-.884zm0-1h8v-9H8zm0-10h8V4q0-.23-.192-.423t-.423-.192h-6.77q-.23 0-.423.192T8 4zm0 0v-1.5zm0 11v1.5z"/></svg>