<svg xmlns="http://www.w3.org/2000/svg" xmlns:xlink="http://www.w3.org/1999/xlink" width="24" height="24" viewBox="0 0 24 24"><path fill="currentColor" d="M9.577 20.5q-.633 0-1.066-.434q-.434-.433-.434-1.066v-.5h7.846v.5q0 .633-.433 1.066q-.434.434-1.067.434zm-1.5-3v-5h7.846v5zm.023-6q.23-.938 1.002-1.768q.771-.83 2.092-1.113v-.211q-.385-.123-.69-.4q-.306-.275-.456-.57l-1.879-.463q-.223-.05-.335-.224q-.111-.174-.111-.367q0-.192.112-.366q.111-.174.334-.224l1.86-.463q.279-.533.803-.855T12 4.154q.41 0 .77.127q.359.127.657.388l1.489-.4q.378-.119.693.133t.314.65V7.64q0 .418-.333.66q-.334.242-.732.104l-1.302-.439q-.154.154-.337.26t-.413.202v.192q1.213.264 2.045 1.091q.832.829 1.049 1.79zM12 7.385q.406 0 .703-.297T13 6.385q-.006-.431-.3-.716q-.294-.284-.7-.284q-.425 0-.712.287T11 6.385t.288.712t.712.288"/></svg>