<svg xmlns="http://www.w3.org/2000/svg" xmlns:xlink="http://www.w3.org/1999/xlink" width="24" height="24" viewBox="0 0 24 24"><path fill="currentColor" d="M7.116 21.385q-.691 0-1.153-.463q-.463-.462-.463-1.153V6.04q0-.214.143-.357T6 5.538t.357.144t.143.356V19.77q0 .231.192.423t.423.193h8.116q.213 0 .357.143q.143.143.143.357q0 .213-.143.356q-.144.144-.357.144zm3-3q-.691 0-1.153-.463T8.5 16.769V4q0-.69.463-1.153t1.153-.462h6.769q.69 0 1.153.462T18.5 4v12.77q0 .69-.462 1.152t-1.153.463zm-.616-2.5v.884q0 .231.192.423t.423.193h6.77q.23 0 .423-.193t.192-.423v-.884zm0-1h8v-9h-8zm5.054-4.674h-2.688v1.308q0 .19-.126.317t-.317.126t-.316-.126t-.126-.317v-1.5q0-.31.191-.5q.192-.192.501-.192h2.88l-.693-.694q-.13-.13-.139-.304q-.01-.175.139-.323q.148-.148.313-.148q.166 0 .314.148l1.47 1.471q.132.13.132.292t-.131.292l-1.472 1.472q-.128.128-.303.138t-.324-.138t-.148-.314t.148-.313zM9.5 4.885h8V4q0-.23-.192-.423q-.193-.192-.424-.192h-6.768q-.231 0-.424.192T9.5 4zm0 0v-1.5zm0 11v1.5z"/></svg>