<svg xmlns="http://www.w3.org/2000/svg" xmlns:xlink="http://www.w3.org/1999/xlink" width="24" height="24" viewBox="0 0 24 24"><path fill="currentColor" d="M2.63 17.558q-.182-.085-.252-.29t.014-.387l5.12-10.22q.084-.182.28-.243q.195-.06.377.024q.183.085.253.29t-.014.387l-5.12 10.22q-.084.182-.28.243q-.194.06-.377-.024m6.023 0q-.183-.085-.253-.29t.014-.387l5.12-10.22q.084-.182.28-.243q.194-.06.377.024q.183.085.253.29t-.014.387L9.31 17.34q-.084.182-.28.243t-.377-.024m6.023 0q-.183-.085-.253-.29t.015-.387l5.119-10.22q.084-.182.28-.243t.378.024t.252.29t-.014.387l-5.12 10.22q-.084.182-.28.243t-.377-.024"/></svg>