<svg xmlns="http://www.w3.org/2000/svg" xmlns:xlink="http://www.w3.org/1999/xlink" width="24" height="24" viewBox="0 0 24 24"><path fill="currentColor" d="M12.23 17.116v-.885h2.5v-2.5h.886v3.385zm-3.845-6.847V6.885h3.384v.884h-2.5v2.5zM7.615 22q-.69 0-1.152-.462T6 20.385V3.615q0-.69.463-1.152T7.616 2h8.769q.69 0 1.152.463T18 3.616v16.769q0 .69-.462 1.153T16.384 22zM7 19.5v.885q0 .23.192.423t.423.192h8.77q.23 0 .423-.192t.192-.424V19.5zm0-1h10v-13H7zm0-14h10v-.885q0-.23-.192-.423T16.384 3H7.616q-.231 0-.424.192T7 3.616zm0 0V3zm0 15V21z"/></svg>