<svg xmlns="http://www.w3.org/2000/svg" xmlns:xlink="http://www.w3.org/1999/xlink" width="24" height="24" viewBox="0 0 24 24"><path fill="currentColor" d="M5 18.73q-.31 0-.52-.21q-.21-.209-.21-.52t.21-.52q.209-.21.52-.21t.52.21q.21.209.21.52t-.21.52q-.209.21-.52.21m4.5 0q-.31 0-.52-.21q-.21-.209-.21-.52t.21-.52q.209-.21.52-.21t.52.21q.21.209.21.52t-.21.52q-.209.21-.52.21m4.5 0q-.31 0-.52-.21q-.21-.209-.21-.52t.21-.52q.209-.21.52-.21t.52.21q.21.209.21.52t-.21.52q-.209.21-.52.21m4.5 0q-.31 0-.52-.21q-.21-.209-.21-.52t.21-.52q.209-.21.52-.21t.52.21q.21.209.21.52t-.21.52q-.209.21-.52.21m-15.5-4q-.31 0-.52-.21q-.21-.209-.21-.52t.21-.52q.209-.21.52-.21t.52.21q.21.209.21.52t-.21.52q-.209.21-.52.21m4.5 0q-.31 0-.52-.21q-.21-.209-.21-.52t.21-.52q.209-.21.52-.21t.52.21q.21.209.21.52t-.21.52q-.209.21-.52.21m4.5 0q-.31 0-.52-.21q-.21-.209-.21-.52t.21-.52q.209-.21.52-.21t.52.21q.21.209.21.52t-.21.52q-.209.21-.52.21m4.5 0q-.31 0-.52-.21q-.21-.209-.21-.52t.21-.52q.209-.21.52-.21t.52.21q.21.209.21.52t-.21.52q-.209.21-.52.21m4.5 0q-.31 0-.52-.21q-.21-.209-.21-.52t.21-.52q.209-.21.52-.21t.52.21q.21.209.21.52t-.21.52q-.209.21-.52.21m-16-4q-.31 0-.52-.21q-.21-.209-.21-.52t.21-.52q.209-.21.52-.21t.52.21q.21.209.21.52t-.21.52q-.209.21-.52.21m4.5 0q-.31 0-.52-.21q-.21-.209-.21-.52t.21-.52q.209-.21.52-.21t.52.21q.21.209.21.52t-.21.52q-.209.21-.52.21m4.5 0q-.31 0-.52-.21q-.21-.209-.21-.52t.21-.52q.209-.21.52-.21t.52.21q.21.209.21.52t-.21.52q-.209.21-.52.21m4.5 0q-.31 0-.52-.21q-.21-.209-.21-.52t.21-.52q.209-.21.52-.21t.52.21q.21.209.21.52t-.21.52q-.209.21-.52.21M3 6.73q-.31 0-.52-.21q-.21-.209-.21-.52t.21-.52q.209-.21.52-.21t.52.21q.21.209.21.52t-.21.52q-.209.21-.52.21m4.5 0q-.31 0-.52-.21q-.21-.209-.21-.52t.21-.52q.209-.21.52-.21t.52.21q.21.209.21.52t-.21.52q-.209.21-.52.21m4.5 0q-.31 0-.52-.21q-.21-.209-.21-.52t.21-.52q.209-.21.52-.21t.52.21q.21.209.21.52t-.21.52q-.209.21-.52.21m4.5 0q-.31 0-.52-.21q-.21-.209-.21-.52t.21-.52q.209-.21.52-.21t.52.21q.21.209.21.52t-.21.52q-.209.21-.52.21m4.5 0q-.31 0-.52-.21q-.21-.209-.21-.52t.21-.52q.209-.21.52-.21t.52.21q.21.209.21.52t-.21.52q-.209.21-.52.21"/></svg>