<svg xmlns="http://www.w3.org/2000/svg" xmlns:xlink="http://www.w3.org/1999/xlink" width="24" height="24" viewBox="0 0 24 24"><path fill="currentColor" d="M7.616 22q-.691 0-1.153-.462T6 20.385V3.615q0-.69.463-1.152T7.616 2h8.769q.69 0 1.152.463T18 3.616v16.769q0 .69-.462 1.153T16.384 22zM7 18.5h10v-13H7zm4.5-5.12V9.193q0-.213.143-.357T12 8.692t.357.143t.143.357v4.189l1.746-1.74q.14-.141.341-.15q.202-.01.367.155q.16.16.16.354t-.16.354l-2.388 2.388q-.243.242-.566.242t-.565-.242l-2.389-2.388q-.14-.14-.153-.342t.153-.366q.16-.16.351-.162q.192-.003.357.156z"/></svg>