<svg xmlns="http://www.w3.org/2000/svg" xmlns:xlink="http://www.w3.org/1999/xlink" width="24" height="24" viewBox="0 0 24 24"><path fill="currentColor" d="m12.646 23.5l2.062-2.329l-2-1L15.03 17.5h1.323l-2.062 2.329l2 1L13.97 23.5zm-6 0l2.062-2.329l-2-1L9.03 17.5h1.323l-2.062 2.329l2 1L7.97 23.5zm.854-8q-2.083 0-3.541-1.459Q2.5 12.583 2.5 10.5q0-1.94 1.308-3.356t3.275-1.633q.742-1.405 2.033-2.208Q10.408 2.5 12 2.5q2.154 0 3.701 1.428t1.801 3.559q1.84.111 2.92 1.28Q21.5 9.937 21.5 11.5q0 1.664-1.168 2.832T17.5 15.5z"/></svg>