<svg xmlns="http://www.w3.org/2000/svg" xmlns:xlink="http://www.w3.org/1999/xlink" width="24" height="24" viewBox="0 0 24 24"><path fill="currentColor" d="m13.366 22.677l1.342-1.506l-1.062-.54q-.367-.187-.448-.565q-.08-.38.187-.677l1.5-1.712q.067-.079.164-.128t.201-.049q.323 0 .46.287t-.076.536l-1.342 1.506l1.062.54q.367.187.448.566q.08.379-.186.677l-1.5 1.711q-.068.079-.165.128t-.201.049q-.323 0-.46-.287t.076-.536m-6 0l1.342-1.506l-1.062-.54q-.367-.187-.448-.566q-.08-.379.187-.677l1.5-1.711q.067-.079.164-.128t.201-.049q.323 0 .46.287t-.076.536l-1.342 1.506l1.062.54q.367.187.448.566q.08.379-.186.677l-1.5 1.711q-.068.079-.165.128t-.201.049q-.323 0-.46-.287t.076-.536M7.5 15.5q-2.083 0-3.541-1.459Q2.5 12.583 2.5 10.5q0-1.94 1.308-3.356t3.275-1.633q.742-1.405 2.033-2.208Q10.408 2.5 12 2.5q2.154 0 3.701 1.428t1.801 3.559q1.84.111 2.92 1.28Q21.5 9.937 21.5 11.5q0 1.664-1.168 2.832T17.5 15.5zm0-1h10q1.242 0 2.121-.879T20.5 11.5t-.879-2.121T17.5 8.5h-1V8q0-1.861-1.32-3.18T12 3.5q-1.354 0-2.466.737t-1.67 1.97l-.116.293H7.45q-1.636.05-2.793 1.207T3.5 10.5q0 1.662 1.17 2.83T7.5 14.5M12 9"/></svg>