<svg xmlns="http://www.w3.org/2000/svg" xmlns:xlink="http://www.w3.org/1999/xlink" width="24" height="24" viewBox="0 0 24 24"><path fill="currentColor" d="M11.167 21q-.815 0-1.552-.338t-1.22-.985l-4.506-5.952q-.104-.148-.098-.316t.128-.292q.25-.275.595-.336t.655.121l3.023 1.49V6.77q0-.212.144-.356t.357-.144t.359.144t.146.356v8q0 .46-.387.69t-.792.025l-2.4-1.165l3.639 4.806q.342.444.85.66q.507.215 1.06.215h4.313q1.056 0 1.787-.722Q18 18.556 18 17.5v-3.538q0-.605-.41-1.014q-.408-.41-1.013-.41h-4.11q-.212 0-.356-.143t-.144-.357t.144-.356t.356-.143h4.11q1.01 0 1.716.706T19 13.962v3.537q0 1.459-1.034 2.48Q16.933 21 15.481 21zM8.7 4.77q-.865 0-1.436.57q-.572.571-.572 1.43v2.708q0 .24-.217.349t-.404-.033q-.627-.546-1.003-1.332q-.376-.785-.376-1.692q0-1.672 1.165-2.836Q7.02 2.769 8.692 2.769t2.836 1.165t1.164 2.842q0 .91-.373 1.688t-1.008 1.329q-.178.157-.395.053t-.218-.375V6.77q0-.858-.577-1.429q-.577-.57-1.421-.57"/></svg>