<svg xmlns="http://www.w3.org/2000/svg" xmlns:xlink="http://www.w3.org/1999/xlink" width="24" height="24" viewBox="0 0 24 24"><path fill="currentColor" d="M11.167 21q-.815 0-1.552-.338t-1.22-.985l-4.74-6.271l.264-.289q.25-.275.594-.336t.656.121l3.023 1.49V6.77q0-.213.143-.357t.357-.143t.36.143q.146.144.146.357v4.77h7.379q1.02 0 1.721.701q.702.702.702 1.722V17.5q0 1.458-1.03 2.479T15.48 21zM6.692 6.77v3.459q-.894-.535-1.447-1.432t-.553-2.028q0-1.671 1.165-2.835Q7.02 2.769 8.692 2.769t2.836 1.165t1.164 2.835q0 1.131-.55 2.028t-1.444 1.432v-3.46q0-.858-.577-1.429q-.577-.57-1.429-.57q-.858 0-1.429.57q-.57.571-.57 1.43"/></svg>