<svg xmlns="http://www.w3.org/2000/svg" xmlns:xlink="http://www.w3.org/1999/xlink" width="24" height="24" viewBox="0 0 24 24"><path fill="currentColor" d="M6.692 6.77v3.459q-.894-.535-1.447-1.432t-.553-2.026q0-1.673 1.165-2.837Q7.02 2.769 8.692 2.769t2.836 1.165t1.164 2.837q0 1.129-.55 2.026t-1.444 1.432v-3.46q0-.858-.577-1.429q-.577-.57-1.421-.57q-.865 0-1.436.57q-.572.571-.572 1.43M11.167 21q-.815 0-1.553-.338t-1.22-.985l-4.738-6.271l.263-.289q.25-.275.594-.336t.656.121l3.023 1.49V6.77q0-.212.144-.356t.357-.144t.359.144t.146.356v9.32l-3.579-1.77l3.639 4.806q.342.444.85.66q.507.215 1.06.215h4.313q1.056 0 1.787-.722Q18 18.556 18 17.5v-3.538q0-.605-.41-1.014q-.408-.41-1.013-.41h-4.61v-1h4.61q1.01 0 1.716.707T19 13.962v3.537q0 1.459-1.034 2.48Q16.933 21 15.481 21zm.652-5.23"/></svg>