<svg xmlns="http://www.w3.org/2000/svg" xmlns:xlink="http://www.w3.org/1999/xlink" width="32" height="32" viewBox="0 0 32 32"><g fill="none"><path fill="url(#fluentColorAddCircle320)" d="M30 16c0 7.732-6.268 14-14 14S2 23.732 2 16S8.268 2 16 2s14 6.268 14 14"/><path fill="url(#fluentColorAddCircle321)" d="M15 10a1 1 0 1 1 2 0v5h5a1 1 0 1 1 0 2h-5v5a1 1 0 1 1-2 0v-5h-5a1 1 0 1 1 0-2h5z"/><defs><linearGradient id="fluentColorAddCircle320" x1="3" x2="22.323" y1="7.25" y2="27.326" gradientUnits="userSpaceOnUse"><stop stop-color="#52D17C"/><stop offset="1" stop-color="#22918B"/></linearGradient><linearGradient id="fluentColorAddCircle321" x1="11.625" x2="15.921" y1="10.428" y2="25.592" gradientUnits="userSpaceOnUse"><stop stop-color="#fff"/><stop offset="1" stop-color="#E3FFD9"/></linearGradient></defs></g></svg>