<svg xmlns="http://www.w3.org/2000/svg" xmlns:xlink="http://www.w3.org/1999/xlink" width="20" height="20" viewBox="0 0 20 20"><g fill="none"><path fill="url(#fluentColorAddCircle200)" d="M18 10a8 8 0 1 1-16 0a8 8 0 0 1 16 0"/><path fill="url(#fluentColorAddCircle201)" d="M6 10a.5.5 0 0 1 .5-.5h3v-3a.5.5 0 0 1 1 0v3h3a.5.5 0 0 1 0 1h-3v3a.5.5 0 0 1-1 0v-3h-3A.5.5 0 0 1 6 10"/><defs><linearGradient id="fluentColorAddCircle200" x1="2.571" x2="13.613" y1="5" y2="16.472" gradientUnits="userSpaceOnUse"><stop stop-color="#52D17C"/><stop offset="1" stop-color="#22918B"/></linearGradient><linearGradient id="fluentColorAddCircle201" x1="7.5" x2="9.955" y1="6.816" y2="15.481" gradientUnits="userSpaceOnUse"><stop stop-color="#fff"/><stop offset="1" stop-color="#E3FFD9"/></linearGradient></defs></g></svg>