<svg xmlns="http://www.w3.org/2000/svg" xmlns:xlink="http://www.w3.org/1999/xlink" width="28" height="28" viewBox="0 0 28 28"><g fill="none"><path fill="url(#fluentColorAddCircle280)" d="M14 2c6.627 0 12 5.373 12 12s-5.373 12-12 12S2 20.627 2 14S7.373 2 14 2"/><path fill="url(#fluentColorAddCircle281)" d="M14 8a.75.75 0 0 1 .75.75v4.5h4.5a.75.75 0 0 1 0 1.5h-4.5v4.5a.75.75 0 0 1-1.5 0v-4.5h-4.5a.75.75 0 0 1 0-1.5h4.5v-4.5A.75.75 0 0 1 14 8"/><defs><linearGradient id="fluentColorAddCircle280" x1="2.857" x2="19.42" y1="6.5" y2="23.708" gradientUnits="userSpaceOnUse"><stop stop-color="#52D17C"/><stop offset="1" stop-color="#22918B"/></linearGradient><linearGradient id="fluentColorAddCircle281" x1="10.25" x2="13.932" y1="9.224" y2="22.222" gradientUnits="userSpaceOnUse"><stop stop-color="#fff"/><stop offset="1" stop-color="#E3FFD9"/></linearGradient></defs></g></svg>