<svg xmlns="http://www.w3.org/2000/svg" xmlns:xlink="http://www.w3.org/1999/xlink" width="28" height="28" viewBox="0 0 28 28"><g fill="none"><path fill="url(#fluentColorAlert280)" d="M17.5 21.5a3.5 3.5 0 1 1-7 0a3.5 3.5 0 0 1 7 0"/><path fill="url(#fluentColorAlert281)" d="M14.002 3a8.5 8.5 0 0 1 8.494 8.246v.255h.004v4.112l1.413 3.644q.057.148.077.306l.01.157a1.28 1.28 0 0 1-1.149 1.274l-.13.006H5.28a1.28 1.28 0 0 1-1.234-1.62l.041-.124l1.416-3.644v-4.11A8.5 8.5 0 0 1 14.003 3"/><defs><linearGradient id="fluentColorAlert280" x1="14" x2="14.023" y1="20.5" y2="24.999" gradientUnits="userSpaceOnUse"><stop stop-color="#EB4824"/><stop offset="1" stop-color="#FFCD0F" stop-opacity=".988"/></linearGradient><linearGradient id="fluentColorAlert281" x1="21.494" x2="6.599" y1="19" y2="5.29" gradientUnits="userSpaceOnUse"><stop stop-color="#FF6F47"/><stop offset="1" stop-color="#FFCD0F"/></linearGradient></defs></g></svg>