<svg xmlns="http://www.w3.org/2000/svg" xmlns:xlink="http://www.w3.org/1999/xlink" width="32" height="32" viewBox="0 0 32 32"><g fill="none"><path fill="url(#fluentColorApps320)" d="M3 6a3 3 0 0 1 3-3h8a3 3 0 0 1 3 3v9a1 1 0 0 1-1 1H4a1 1 0 0 1-1-1z"/><path fill="url(#fluentColorApps321)" d="M26 15a3 3 0 0 1 3 3v8a3 3 0 0 1-3 3H16a1 1 0 0 1-1-1V16a1 1 0 0 1 1-1z"/><path fill="url(#fluentColorApps322)" d="M17 28a1 1 0 0 1-1 1H6a3 3 0 0 1-3-3V16a1 1 0 0 1 1-1h12a1 1 0 0 1 1 1z"/><path fill="url(#fluentColorApps323)" d="M20.2 2.953a3.25 3.25 0 0 1 4.597 0l4.248 4.25a3.25 3.25 0 0 1 0 4.595l-4.25 4.247a3.25 3.25 0 0 1-4.596 0l-4.249-4.249a3.25 3.25 0 0 1 0-4.595z"/><defs><linearGradient id="fluentColorApps320" x1="3" x2="15.964" y1="3" y2="16.962" gradientUnits="userSpaceOnUse"><stop stop-color="#B9C0C7"/><stop offset="1" stop-color="#889096"/></linearGradient><linearGradient id="fluentColorApps321" x1="29" x2="16" y1="28" y2="15" gradientUnits="userSpaceOnUse"><stop stop-color="#63686E"/><stop offset="1" stop-color="#889096"/></linearGradient><linearGradient id="fluentColorApps322" x1="3" x2="17" y1="15" y2="24" gradientUnits="userSpaceOnUse"><stop stop-color="#55595E"/><stop offset="1" stop-color="#383B3D"/></linearGradient><linearGradient id="fluentColorApps323" x1="27.397" x2="18.903" y1="13.625" y2="3.145" gradientUnits="userSpaceOnUse"><stop stop-color="#2764E7"/><stop offset="1" stop-color="#36DFF1"/></linearGradient></defs></g></svg>