<svg xmlns="http://www.w3.org/2000/svg" xmlns:xlink="http://www.w3.org/1999/xlink" width="20" height="20" viewBox="0 0 20 20"><g fill="none"><path fill="url(#fluentColorBuildingStore200)" d="M3 7h14v10.5a.5.5 0 0 1-.5.5h-13a.5.5 0 0 1-.5-.5z"/><path fill="url(#fluentColorBuildingStore201)" fill-opacity=".8" d="M5 11.5a.5.5 0 0 1 .5-.5h4a.5.5 0 0 1 .5.5v6a.5.5 0 0 1-.5.5h-4a.5.5 0 0 1-.5-.5z"/><path fill="url(#fluentColorBuildingStore202)" fill-opacity=".8" d="M11 11.5a.5.5 0 0 1 .5-.5h3a.5.5 0 0 1 .5.5v3a.5.5 0 0 1-.5.5h-3a.5.5 0 0 1-.5-.5z"/><path fill="url(#fluentColorBuildingStore203)" d="M4.6 2.18L2.128 5.146A.55.55 0 0 0 2 5.5V7a3 3 0 0 0 6 0V5.5h-.5l1-3.5H4.984a.5.5 0 0 0-.384.18"/><path fill="url(#fluentColorBuildingStore204)" d="m11.5 2l1 3.5H12V7a3 3 0 1 0 6 0V5.5a.55.55 0 0 0-.128-.354L15.4 2.18a.5.5 0 0 0-.384-.18z"/><path fill="url(#fluentColorBuildingStore205)" d="M8.09 2L7 5.5v1.75C7 8.769 8.343 10 10 10s3-1.231 3-2.75V5.5L11.91 2z"/><defs><linearGradient id="fluentColorBuildingStore200" x1="6.5" x2="8.5" y1="8" y2="18.5" gradientUnits="userSpaceOnUse"><stop offset=".312" stop-color="#29C3FF"/><stop offset="1" stop-color="#0094F0"/></linearGradient><linearGradient id="fluentColorBuildingStore201" x1="5.179" x2="9.806" y1="12.313" y2="15.746" gradientUnits="userSpaceOnUse"><stop stop-color="#0067BF"/><stop offset="1" stop-color="#003580"/></linearGradient><linearGradient id="fluentColorBuildingStore202" x1="12.2" x2="13.661" y1="10.556" y2="15.816" gradientUnits="userSpaceOnUse"><stop stop-color="#FDFDFD"/><stop offset="1" stop-color="#B3E0FF"/></linearGradient><linearGradient id="fluentColorBuildingStore203" x1="5" x2="5" y1="2" y2="5.5" gradientUnits="userSpaceOnUse"><stop stop-color="#FB6F7B"/><stop offset="1" stop-color="#D7257D"/></linearGradient><linearGradient id="fluentColorBuildingStore204" x1="14.5" x2="14.5" y1="2" y2="5.5" gradientUnits="userSpaceOnUse"><stop stop-color="#FB6F7B"/><stop offset="1" stop-color="#D7257D"/></linearGradient><linearGradient id="fluentColorBuildingStore205" x1="10" x2="10" y1="2" y2="5.5" gradientUnits="userSpaceOnUse"><stop offset=".304" stop-color="#FF9FB2"/><stop offset="1" stop-color="#F97DBD"/></linearGradient></defs></g></svg>