<svg xmlns="http://www.w3.org/2000/svg" xmlns:xlink="http://www.w3.org/1999/xlink" width="16" height="16" viewBox="0 0 16 16"><g fill="none"><path fill="url(#fluentColorCalendarCancel160)" d="M14 11.5v-6l-6-1l-6 1v6A2.5 2.5 0 0 0 4.5 14h7a2.5 2.5 0 0 0 2.5-2.5"/><path fill="url(#fluentColorCalendarCancel161)" d="M14 11.5v-6l-6-1l-6 1v6A2.5 2.5 0 0 0 4.5 14h7a2.5 2.5 0 0 0 2.5-2.5"/><path fill="url(#fluentColorCalendarCancel165)" fill-opacity=".3" d="M14 11.5v-6l-6-1l-6 1v6A2.5 2.5 0 0 0 4.5 14h7a2.5 2.5 0 0 0 2.5-2.5"/><path fill="url(#fluentColorCalendarCancel162)" d="M14 4.5A2.5 2.5 0 0 0 11.5 2h-7A2.5 2.5 0 0 0 2 4.5V6h12z"/><path fill="url(#fluentColorCalendarCancel163)" d="M16 11.5a4.5 4.5 0 1 1-9 0a4.5 4.5 0 0 1 9 0"/><path fill="url(#fluentColorCalendarCancel164)" fill-rule="evenodd" d="M9.646 9.646a.5.5 0 0 1 .708 0l1.146 1.147l1.146-1.147a.5.5 0 0 1 .708.708L12.207 11.5l1.147 1.146a.5.5 0 0 1-.708.708L11.5 12.207l-1.146 1.147a.5.5 0 0 1-.708-.708l1.147-1.146l-1.147-1.146a.5.5 0 0 1 0-.708" clip-rule="evenodd"/><defs><linearGradient id="fluentColorCalendarCancel160" x1="6.286" x2="9.327" y1="4.5" y2="13.987" gradientUnits="userSpaceOnUse"><stop stop-color="#B3E0FF"/><stop offset="1" stop-color="#8CD0FF"/></linearGradient><linearGradient id="fluentColorCalendarCancel161" x1="9.286" x2="11.025" y1="8.386" y2="16.154" gradientUnits="userSpaceOnUse"><stop stop-color="#DCF8FF" stop-opacity="0"/><stop offset="1" stop-color="#FF6CE8" stop-opacity=".7"/></linearGradient><linearGradient id="fluentColorCalendarCancel162" x1="2.482" x2="4.026" y1="2" y2="8.725" gradientUnits="userSpaceOnUse"><stop stop-color="#0094F0"/><stop offset="1" stop-color="#2764E7"/></linearGradient><linearGradient id="fluentColorCalendarCancel163" x1="8.406" x2="14.313" y1="7.563" y2="16.281" gradientUnits="userSpaceOnUse"><stop stop-color="#F83F54"/><stop offset="1" stop-color="#CA2134"/></linearGradient><linearGradient id="fluentColorCalendarCancel164" x1="9.977" x2="11.771" y1="11.652" y2="13.518" gradientUnits="userSpaceOnUse"><stop stop-color="#FDFDFD"/><stop offset="1" stop-color="#FECBE6"/></linearGradient><radialGradient id="fluentColorCalendarCancel165" cx="0" cy="0" r="1" gradientTransform="matrix(.14285 6.79546 -6.61306 .13902 11.857 12.704)" gradientUnits="userSpaceOnUse"><stop offset=".497" stop-color="#4A43CB"/><stop offset="1" stop-color="#4A43CB" stop-opacity="0"/></radialGradient></defs></g></svg>