<svg xmlns="http://www.w3.org/2000/svg" xmlns:xlink="http://www.w3.org/1999/xlink" width="20" height="20" viewBox="0 0 20 20"><g fill="none"><path fill="url(#fluentColorCalendar200)" d="M17 6H3v8.5A2.5 2.5 0 0 0 5.5 17h9a2.5 2.5 0 0 0 2.5-2.5z"/><path fill="url(#fluentColorCalendar201)" d="M17 6H3v8.5A2.5 2.5 0 0 0 5.5 17h9a2.5 2.5 0 0 0 2.5-2.5z"/><g filter="url(#fluentColorCalendar208)"><path fill="url(#fluentColorCalendar202)" d="M8 10a1 1 0 1 1-2 0a1 1 0 0 1 2 0"/><path fill="url(#fluentColorCalendar203)" d="M8 13a1 1 0 1 1-2 0a1 1 0 0 1 2 0"/><path fill="url(#fluentColorCalendar204)" d="M11 13a1 1 0 1 1-2 0a1 1 0 0 1 2 0"/><path fill="url(#fluentColorCalendar205)" d="M10 11a1 1 0 1 0 0-2a1 1 0 0 0 0 2"/><path fill="url(#fluentColorCalendar206)" d="M14 10a1 1 0 1 1-2 0a1 1 0 0 1 2 0"/></g><path fill="url(#fluentColorCalendar207)" d="M17 5.5A2.5 2.5 0 0 0 14.5 3h-9A2.5 2.5 0 0 0 3 5.5V7h14z"/><defs><linearGradient id="fluentColorCalendar200" x1="12.528" x2="8.499" y1="18.351" y2="6.56" gradientUnits="userSpaceOnUse"><stop stop-color="#B3E0FF"/><stop offset="1" stop-color="#B3E0FF"/></linearGradient><linearGradient id="fluentColorCalendar201" x1="11.5" x2="13.5" y1="10.5" y2="19.5" gradientUnits="userSpaceOnUse"><stop stop-color="#DCF8FF" stop-opacity="0"/><stop offset="1" stop-color="#FF6CE8" stop-opacity=".7"/></linearGradient><linearGradient id="fluentColorCalendar202" x1="9.273" x2="10.913" y1="8.423" y2="18.392" gradientUnits="userSpaceOnUse"><stop stop-color="#0078D4"/><stop offset="1" stop-color="#0067BF"/></linearGradient><linearGradient id="fluentColorCalendar203" x1="9.273" x2="10.913" y1="8.423" y2="18.392" gradientUnits="userSpaceOnUse"><stop stop-color="#0078D4"/><stop offset="1" stop-color="#0067BF"/></linearGradient><linearGradient id="fluentColorCalendar204" x1="9.273" x2="10.913" y1="8.423" y2="18.392" gradientUnits="userSpaceOnUse"><stop stop-color="#0078D4"/><stop offset="1" stop-color="#0067BF"/></linearGradient><linearGradient id="fluentColorCalendar205" x1="9.273" x2="10.913" y1="8.423" y2="18.392" gradientUnits="userSpaceOnUse"><stop stop-color="#0078D4"/><stop offset="1" stop-color="#0067BF"/></linearGradient><linearGradient id="fluentColorCalendar206" x1="9.273" x2="10.913" y1="8.423" y2="18.392" gradientUnits="userSpaceOnUse"><stop stop-color="#0078D4"/><stop offset="1" stop-color="#0067BF"/></linearGradient><linearGradient id="fluentColorCalendar207" x1="3" x2="15.018" y1="3" y2="-.772" gradientUnits="userSpaceOnUse"><stop stop-color="#0094F0"/><stop offset="1" stop-color="#2764E7"/></linearGradient><filter id="fluentColorCalendar208" width="10.667" height="7.667" x="4.667" y="8.333" color-interpolation-filters="sRGB" filterUnits="userSpaceOnUse"><feFlood flood-opacity="0" result="BackgroundImageFix"/><feColorMatrix in="SourceAlpha" result="hardAlpha" values="0 0 0 0 0 0 0 0 0 0 0 0 0 0 0 0 0 0 127 0"/><feOffset dy=".667"/><feGaussianBlur stdDeviation=".667"/><feColorMatrix values="0 0 0 0 0.1242 0 0 0 0 0.323337 0 0 0 0 0.7958 0 0 0 0.32 0"/><feBlend in2="BackgroundImageFix" result="effect1_dropShadow_378174_9787"/><feBlend in="SourceGraphic" in2="effect1_dropShadow_378174_9787" result="shape"/></filter></defs></g></svg>