<svg xmlns="http://www.w3.org/2000/svg" xmlns:xlink="http://www.w3.org/1999/xlink" width="20" height="20" viewBox="0 0 20 20"><g fill="none"><path fill="url(#fluentColorCalendarCancel200)" d="M17 6H3v8.5A2.5 2.5 0 0 0 5.5 17h9a2.5 2.5 0 0 0 2.5-2.5z"/><path fill="url(#fluentColorCalendarCancel201)" d="M17 6H3v8.5A2.5 2.5 0 0 0 5.5 17h9a2.5 2.5 0 0 0 2.5-2.5z"/><path fill="url(#fluentColorCalendarCancel205)" fill-opacity=".3" d="M17 6H3v8.5A2.5 2.5 0 0 0 5.5 17h9a2.5 2.5 0 0 0 2.5-2.5z"/><path fill="url(#fluentColorCalendarCancel202)" d="M17 5.5A2.5 2.5 0 0 0 14.5 3h-9A2.5 2.5 0 0 0 3 5.5V7h14z"/><path fill="url(#fluentColorCalendarCancel203)" d="M19 14.5a4.5 4.5 0 1 1-9 0a4.5 4.5 0 0 1 9 0"/><path fill="url(#fluentColorCalendarCancel204)" fill-rule="evenodd" d="M12.646 12.646a.5.5 0 0 1 .708 0l1.146 1.147l1.146-1.147a.5.5 0 0 1 .708.708L15.207 14.5l1.147 1.146a.5.5 0 0 1-.708.708L14.5 15.207l-1.146 1.147a.5.5 0 0 1-.708-.708l1.147-1.146l-1.147-1.146a.5.5 0 0 1 0-.708" clip-rule="evenodd"/><defs><linearGradient id="fluentColorCalendarCancel200" x1="8" x2="11.5" y1="6" y2="17" gradientUnits="userSpaceOnUse"><stop stop-color="#B3E0FF"/><stop offset="1" stop-color="#8CD0FF"/></linearGradient><linearGradient id="fluentColorCalendarCancel201" x1="11.5" x2="13.5" y1="10.5" y2="19.5" gradientUnits="userSpaceOnUse"><stop stop-color="#DCF8FF" stop-opacity="0"/><stop offset="1" stop-color="#FF6CE8" stop-opacity=".7"/></linearGradient><linearGradient id="fluentColorCalendarCancel202" x1="3.563" x2="4.904" y1="3" y2="9.816" gradientUnits="userSpaceOnUse"><stop stop-color="#0094F0"/><stop offset="1" stop-color="#2764E7"/></linearGradient><linearGradient id="fluentColorCalendarCancel203" x1="11.406" x2="17.313" y1="10.563" y2="19.281" gradientUnits="userSpaceOnUse"><stop stop-color="#F83F54"/><stop offset="1" stop-color="#CA2134"/></linearGradient><linearGradient id="fluentColorCalendarCancel204" x1="12.977" x2="14.771" y1="14.652" y2="16.518" gradientUnits="userSpaceOnUse"><stop stop-color="#FDFDFD"/><stop offset="1" stop-color="#FECBE6"/></linearGradient><radialGradient id="fluentColorCalendarCancel205" cx="0" cy="0" r="1" gradientTransform="rotate(90 -.5 15)scale(6.5)" gradientUnits="userSpaceOnUse"><stop offset=".535" stop-color="#4A43CB"/><stop offset="1" stop-color="#4A43CB" stop-opacity="0"/></radialGradient></defs></g></svg>