<svg xmlns="http://www.w3.org/2000/svg" xmlns:xlink="http://www.w3.org/1999/xlink" width="16" height="16" viewBox="0 0 16 16"><g fill="none"><path fill="url(#fluentColorCamera160)" d="M5.276 2.83A1.5 1.5 0 0 1 6.618 2h2.764a1.5 1.5 0 0 1 1.342.83L11.309 4H12a2 2 0 0 1 2 2v5a2 2 0 0 1-2 2H4a2 2 0 0 1-2-2V6a2 2 0 0 1 2-2h.691z"/><path fill="url(#fluentColorCamera161)" fill-opacity=".5" d="M5.276 2.83A1.5 1.5 0 0 1 6.618 2h2.764a1.5 1.5 0 0 1 1.342.83L11.309 4H12a2 2 0 0 1 2 2v5a2 2 0 0 1-2 2H4a2 2 0 0 1-2-2V6a2 2 0 0 1 2-2h.691z"/><path fill="url(#fluentColorCamera163)" fill-rule="evenodd" d="M8 11a3 3 0 1 0 0-6a3 3 0 0 0 0 6" clip-rule="evenodd"/><path fill="url(#fluentColorCamera162)" d="M10 8a2 2 0 1 1-4 0a2 2 0 0 1 4 0"/><path fill="url(#fluentColorCamera164)" d="M12 7a1 1 0 1 0 0-2a1 1 0 0 0 0 2"/><defs><radialGradient id="fluentColorCamera160" cx="0" cy="0" r="1" gradientTransform="rotate(40.097 -3.683 1.538)scale(17.648 36.5145)" gradientUnits="userSpaceOnUse"><stop stop-color="#F08AF4"/><stop offset=".535" stop-color="#9C6CFE"/><stop offset="1" stop-color="#4E44DB"/></radialGradient><radialGradient id="fluentColorCamera161" cx="0" cy="0" r="1" gradientTransform="matrix(.5 4 -4.3159 .53949 9.5 9)" gradientUnits="userSpaceOnUse"><stop stop-color="#312A9A"/><stop offset="1" stop-color="#312A9A" stop-opacity="0"/></radialGradient><radialGradient id="fluentColorCamera162" cx="0" cy="0" r="1" gradientTransform="rotate(49.764 -2.724 8.25)scale(5.67646)" gradientUnits="userSpaceOnUse"><stop offset=".243" stop-color="#3BD5FF"/><stop offset="1" stop-color="#2052CB"/></radialGradient><linearGradient id="fluentColorCamera163" x1="6.129" x2="9.129" y1="5" y2="12.125" gradientUnits="userSpaceOnUse"><stop stop-color="#fff"/><stop offset="1" stop-color="#DECBFF"/></linearGradient><linearGradient id="fluentColorCamera164" x1="11" x2="13" y1="5.5" y2="7" gradientUnits="userSpaceOnUse"><stop stop-color="#F08AF4"/><stop offset="1" stop-color="#F462AB"/></linearGradient></defs></g></svg>