<svg xmlns="http://www.w3.org/2000/svg" xmlns:xlink="http://www.w3.org/1999/xlink" width="16" height="16" viewBox="0 0 16 16"><g fill="none"><path fill="url(#fluentColorChatMultiple160)" d="M9 4a5 5 0 0 1 4.533 7.113l.457 2.289a.5.5 0 0 1-.588.588l-2.288-.457A5 5 0 1 1 9 4"/><path fill="url(#fluentColorChatMultiple161)" d="M7 2a5 5 0 0 0-4.533 7.113l-.457 2.289a.5.5 0 0 0 .588.588l2.288-.457A5 5 0 1 0 7 2"/><defs><radialGradient id="fluentColorChatMultiple160" cx="0" cy="0" r="1" gradientTransform="matrix(4.60184 5.3384 -5.34296 4.60577 6.684 6.67)" gradientUnits="userSpaceOnUse"><stop offset=".63" stop-color="#3D35B1"/><stop offset=".85" stop-color="#6553C9"/><stop offset="1" stop-color="#7660D3"/></radialGradient><linearGradient id="fluentColorChatMultiple161" x1="2" x2="12" y1="2" y2="12" gradientUnits="userSpaceOnUse"><stop stop-color="#0FAFFF"/><stop offset="1" stop-color="#2764E7"/></linearGradient></defs></g></svg>