<svg xmlns="http://www.w3.org/2000/svg" xmlns:xlink="http://www.w3.org/1999/xlink" width="20" height="20" viewBox="0 0 20 20"><g fill="none"><path fill="url(#fluentColorCheckmarkCircle200)" d="M18 10a8 8 0 1 1-16 0a8 8 0 0 1 16 0"/><path fill="url(#fluentColorCheckmarkCircle201)" fill-rule="evenodd" d="M13.354 7.646a.5.5 0 0 1 0 .708l-4 4a.5.5 0 0 1-.708 0l-2-2a.5.5 0 0 1 .708-.708L9 11.293l3.646-3.647a.5.5 0 0 1 .708 0" clip-rule="evenodd"/><defs><linearGradient id="fluentColorCheckmarkCircle200" x1="2.571" x2="13.613" y1="5" y2="16.472" gradientUnits="userSpaceOnUse"><stop stop-color="#52D17C"/><stop offset="1" stop-color="#22918B"/></linearGradient><linearGradient id="fluentColorCheckmarkCircle201" x1="7.813" x2="8.95" y1="8.01" y2="13.63" gradientUnits="userSpaceOnUse"><stop stop-color="#fff"/><stop offset="1" stop-color="#E3FFD9"/></linearGradient></defs></g></svg>