<svg xmlns="http://www.w3.org/2000/svg" xmlns:xlink="http://www.w3.org/1999/xlink" width="16" height="16" viewBox="0 0 16 16"><g fill="none"><path fill="url(#fluentColorCheckbox160)" d="M4.5 2A2.5 2.5 0 0 0 2 4.5v7A2.5 2.5 0 0 0 4.5 14h7a2.5 2.5 0 0 0 2.5-2.5v-7A2.5 2.5 0 0 0 11.5 2z"/><path fill="url(#fluentColorCheckbox161)" d="m10.854 6.854l-3.5 3.5a.5.5 0 0 1-.708 0l-1.5-1.5a.5.5 0 1 1 .708-.708L7 9.293l3.146-3.147a.5.5 0 0 1 .708.708"/><defs><linearGradient id="fluentColorCheckbox160" x1="2.429" x2="10.71" y1="4.25" y2="12.854" gradientUnits="userSpaceOnUse"><stop stop-color="#36DFF1"/><stop offset="1" stop-color="#2764E7"/></linearGradient><linearGradient id="fluentColorCheckbox161" x1="6.154" x2="8.802" y1="6.346" y2="14.902" gradientUnits="userSpaceOnUse"><stop stop-color="#fff"/><stop offset="1" stop-color="#B3E0FF"/></linearGradient></defs></g></svg>