<svg xmlns="http://www.w3.org/2000/svg" xmlns:xlink="http://www.w3.org/1999/xlink" width="24" height="24" viewBox="0 0 24 24"><g fill="none"><path fill="url(#fluentColorCheckmarkCircle240)" d="M12 2c5.523 0 10 4.477 10 10s-4.477 10-10 10S2 17.523 2 12S6.477 2 12 2"/><path fill="url(#fluentColorCheckmarkCircle241)" d="m15.22 8.97l-4.47 4.47l-1.97-1.97a.75.75 0 0 0-1.06 1.06l2.5 2.5a.75.75 0 0 0 1.06 0l5-5a.75.75 0 1 0-1.06-1.06"/><defs><linearGradient id="fluentColorCheckmarkCircle240" x1="2.714" x2="16.517" y1="5.75" y2="20.09" gradientUnits="userSpaceOnUse"><stop stop-color="#52D17C"/><stop offset="1" stop-color="#22918B"/></linearGradient><linearGradient id="fluentColorCheckmarkCircle241" x1="9.188" x2="10.681" y1="9.413" y2="16.713" gradientUnits="userSpaceOnUse"><stop stop-color="#fff"/><stop offset="1" stop-color="#E3FFD9"/></linearGradient></defs></g></svg>