<svg xmlns="http://www.w3.org/2000/svg" xmlns:xlink="http://www.w3.org/1999/xlink" width="20" height="20" viewBox="0 0 20 20"><g fill="none"><path fill="url(#fluentColorClipboard202)" d="M4 4.506a1.5 1.5 0 0 1 1.5-1.5h9a1.5 1.5 0 0 1 1.5 1.5v12a1.5 1.5 0 0 1-1.5 1.5h-9a1.5 1.5 0 0 1-1.5-1.5z"/><path fill="url(#fluentColorClipboard200)" fill-opacity=".7" d="M4 4.506a1.5 1.5 0 0 1 1.5-1.5h9a1.5 1.5 0 0 1 1.5 1.5v12a1.5 1.5 0 0 1-1.5 1.5h-9a1.5 1.5 0 0 1-1.5-1.5z"/><path fill="url(#fluentColorClipboard201)" fill-opacity=".4" d="M4 4.506a1.5 1.5 0 0 1 1.5-1.5h9a1.5 1.5 0 0 1 1.5 1.5v12a1.5 1.5 0 0 1-1.5 1.5h-9a1.5 1.5 0 0 1-1.5-1.5z"/><path fill="url(#fluentColorClipboard203)" d="M7 3.5A1.5 1.5 0 0 0 8.5 5h3a1.5 1.5 0 0 0 0-3h-3A1.5 1.5 0 0 0 7 3.5"/><defs><radialGradient id="fluentColorClipboard200" cx="0" cy="0" r="1" gradientTransform="matrix(0 5.14077 -4.64062 0 10 2.173)" gradientUnits="userSpaceOnUse"><stop stop-color="#0A1852"/><stop offset=".97" stop-color="#0A1852" stop-opacity="0"/></radialGradient><radialGradient id="fluentColorClipboard201" cx="0" cy="0" r="1" gradientTransform="matrix(0 2.30574 -3.67969 0 10 3.74)" gradientUnits="userSpaceOnUse"><stop stop-color="#0A1852"/><stop offset="1" stop-color="#0A1852" stop-opacity="0"/></radialGradient><linearGradient id="fluentColorClipboard202" x1="4" x2="16" y1="4.506" y2="18.006" gradientUnits="userSpaceOnUse"><stop stop-color="#36DFF1"/><stop offset="1" stop-color="#0094F0"/></linearGradient><linearGradient id="fluentColorClipboard203" x1="10" x2="10" y1="2" y2="5" gradientUnits="userSpaceOnUse"><stop stop-color="#FFE06B"/><stop offset="1" stop-color="#FAB500"/></linearGradient></defs></g></svg>