<svg xmlns="http://www.w3.org/2000/svg" xmlns:xlink="http://www.w3.org/1999/xlink" width="24" height="24" viewBox="0 0 24 24"><g fill="none"><path fill="url(#fluentColorClockAlarm240)" d="M20.097 9.407a4 4 0 1 0-5.504-5.504a8.52 8.52 0 0 1 5.504 5.504"/><path fill="url(#fluentColorClockAlarm247)" d="M20.097 9.407a4 4 0 1 0-5.504-5.504a8.52 8.52 0 0 1 5.504 5.504"/><path fill="url(#fluentColorClockAlarm241)" d="M9.407 3.903a8.52 8.52 0 0 0-5.504 5.504a4 4 0 1 1 5.504-5.504"/><path fill="url(#fluentColorClockAlarm248)" d="M9.407 3.903a8.52 8.52 0 0 0-5.504 5.504a4 4 0 1 1 5.504-5.504"/><path fill="url(#fluentColorClockAlarm242)" d="m4.28 20.78l2.75-2.75l-1.06-1.06l-2.75 2.75a.75.75 0 0 0 1.06 1.06"/><path fill="url(#fluentColorClockAlarm243)" d="m20.78 19.72l-2.75-2.75l-1.06 1.06l2.75 2.75a.75.75 0 1 0 1.06-1.06"/><path fill="url(#fluentColorClockAlarm244)" d="M21 12a9 9 0 1 1-18 0a9 9 0 0 1 18 0"/><path fill="url(#fluentColorClockAlarm245)" d="M19.5 12a7.5 7.5 0 1 1-15 0a7.5 7.5 0 0 1 15 0"/><path fill="url(#fluentColorClockAlarm246)" fill-rule="evenodd" d="M11.25 7a.75.75 0 0 1 .75.75V12h2.75a.75.75 0 0 1 0 1.5h-3.5a.75.75 0 0 1-.75-.75v-5a.75.75 0 0 1 .75-.75" clip-rule="evenodd"/><defs><linearGradient id="fluentColorClockAlarm240" x1="22.21" x2="15.208" y1="9.37" y2="3.641" gradientUnits="userSpaceOnUse"><stop stop-color="#FF6F47"/><stop offset="1" stop-color="#FFCD0F"/></linearGradient><linearGradient id="fluentColorClockAlarm241" x1="10.383" x2="3.381" y1="9.37" y2="3.641" gradientUnits="userSpaceOnUse"><stop stop-color="#FF6F47"/><stop offset="1" stop-color="#FFCD0F"/></linearGradient><linearGradient id="fluentColorClockAlarm242" x1="3" x2="3.847" y1="15.239" y2="22.319" gradientUnits="userSpaceOnUse"><stop stop-color="#CAD2D9"/><stop offset="1" stop-color="#70777D"/></linearGradient><linearGradient id="fluentColorClockAlarm243" x1="3" x2="3.847" y1="15.239" y2="22.319" gradientUnits="userSpaceOnUse"><stop stop-color="#CAD2D9"/><stop offset="1" stop-color="#70777D"/></linearGradient><linearGradient id="fluentColorClockAlarm244" x1="6" x2="15" y1="2" y2="22" gradientUnits="userSpaceOnUse"><stop stop-color="#1EC8B0"/><stop offset="1" stop-color="#2764E7"/></linearGradient><linearGradient id="fluentColorClockAlarm245" x1="6.783" x2="16.565" y1="2.87" y2="23.739" gradientUnits="userSpaceOnUse"><stop stop-color="#FDFDFD"/><stop offset="1" stop-color="#DEDEFF"/></linearGradient><linearGradient id="fluentColorClockAlarm246" x1="12.6" x2="15.429" y1="7.133" y2="11.849" gradientUnits="userSpaceOnUse"><stop stop-color="#1EC8B0"/><stop offset="1" stop-color="#2764E7"/></linearGradient><radialGradient id="fluentColorClockAlarm247" cx="0" cy="0" r="1" gradientTransform="rotate(-45 20.302 -9.41)scale(11.0309)" gradientUnits="userSpaceOnUse"><stop offset=".644" stop-color="#FF6F47"/><stop offset=".942" stop-color="#FF6F47" stop-opacity="0"/></radialGradient><radialGradient id="fluentColorClockAlarm248" cx="0" cy="0" r="1" gradientTransform="rotate(-135 8.702 3.19)scale(11.0309)" gradientUnits="userSpaceOnUse"><stop offset=".659" stop-color="#FF6F47"/><stop offset=".949" stop-color="#FF6F47" stop-opacity="0"/></radialGradient></defs></g></svg>