<svg xmlns="http://www.w3.org/2000/svg" xmlns:xlink="http://www.w3.org/1999/xlink" width="16" height="16" viewBox="0 0 16 16"><g fill="none"><path fill="url(#fluentColorClockAlarm160)" d="M12.888 6.58A2.5 2.5 0 1 0 9.254 3.4a5.26 5.26 0 0 1 3.634 3.18"/><path fill="url(#fluentColorClockAlarm167)" d="M12.888 6.58A2.5 2.5 0 1 0 9.254 3.4a5.26 5.26 0 0 1 3.634 3.18"/><path fill="url(#fluentColorClockAlarm161)" d="M6.746 3.4a5.26 5.26 0 0 0-3.634 3.18A2.5 2.5 0 1 1 6.746 3.4"/><path fill="url(#fluentColorClockAlarm168)" d="M6.746 3.4a5.26 5.26 0 0 0-3.634 3.18A2.5 2.5 0 1 1 6.746 3.4"/><path fill="url(#fluentColorClockAlarm162)" d="m3.354 13.854l1.5-1.5l-.708-.707l-1.5 1.5a.5.5 0 1 0 .708.707"/><path fill="url(#fluentColorClockAlarm163)" d="m13.354 13.147l-1.5-1.5l-.708.707l1.5 1.5a.5.5 0 1 0 .707-.707"/><path fill="url(#fluentColorClockAlarm164)" d="M13.5 8.5a5.5 5.5 0 1 1-11 0a5.5 5.5 0 0 1 11 0"/><path fill="url(#fluentColorClockAlarm165)" d="M12.5 8.5a4.5 4.5 0 1 1-9 0a4.5 4.5 0 0 1 9 0"/><path fill="url(#fluentColorClockAlarm166)" fill-rule="evenodd" d="M7.5 5.5A.5.5 0 0 1 8 6v2.5h1.5a.5.5 0 0 1 0 1h-2A.5.5 0 0 1 7 9V6a.5.5 0 0 1 .5-.5" clip-rule="evenodd"/><defs><linearGradient id="fluentColorClockAlarm160" x1="14.807" x2="10.139" y1="6.913" y2="3.094" gradientUnits="userSpaceOnUse"><stop stop-color="#FF6F47"/><stop offset="1" stop-color="#FFCD0F"/></linearGradient><linearGradient id="fluentColorClockAlarm161" x1="6.922" x2="2.254" y1="6.913" y2="3.094" gradientUnits="userSpaceOnUse"><stop stop-color="#FF6F47"/><stop offset="1" stop-color="#FFCD0F"/></linearGradient><linearGradient id="fluentColorClockAlarm162" x1="2.5" x2="2.973" y1="10.636" y2="14.775" gradientUnits="userSpaceOnUse"><stop stop-color="#CAD2D9"/><stop offset="1" stop-color="#70777D"/></linearGradient><linearGradient id="fluentColorClockAlarm163" x1="2.5" x2="2.973" y1="10.636" y2="14.775" gradientUnits="userSpaceOnUse"><stop stop-color="#CAD2D9"/><stop offset="1" stop-color="#70777D"/></linearGradient><linearGradient id="fluentColorClockAlarm164" x1="4.333" x2="9.833" y1="2.389" y2="14.611" gradientUnits="userSpaceOnUse"><stop stop-color="#1EC8B0"/><stop offset="1" stop-color="#2764E7"/></linearGradient><linearGradient id="fluentColorClockAlarm165" x1="4.87" x2="10.739" y1="3.022" y2="15.543" gradientUnits="userSpaceOnUse"><stop stop-color="#FDFDFD"/><stop offset="1" stop-color="#DEDEFF"/></linearGradient><linearGradient id="fluentColorClockAlarm166" x1="8.4" x2="10.286" y1="5.422" y2="8.566" gradientUnits="userSpaceOnUse"><stop stop-color="#1EC8B0"/><stop offset="1" stop-color="#2764E7"/></linearGradient><radialGradient id="fluentColorClockAlarm167" cx="0" cy="0" r="1" gradientTransform="matrix(5.2 -5.2 5.2 5.2 8.4 8.4)" gradientUnits="userSpaceOnUse"><stop offset=".644" stop-color="#FF6F47"/><stop offset=".942" stop-color="#FF6F47" stop-opacity="0"/></radialGradient><radialGradient id="fluentColorClockAlarm168" cx="0" cy="0" r="1" gradientTransform="matrix(-5.2 -5.2 5.2 -5.2 8.4 8.4)" gradientUnits="userSpaceOnUse"><stop offset=".659" stop-color="#FF6F47"/><stop offset=".949" stop-color="#FF6F47" stop-opacity="0"/></radialGradient></defs></g></svg>