<svg xmlns="http://www.w3.org/2000/svg" xmlns:xlink="http://www.w3.org/1999/xlink" width="32" height="32" viewBox="0 0 32 32"><g fill="none"><path fill="url(#fluentColorClockAlarm320)" d="M26.394 12.39a5 5 0 1 0-6.785-6.785a11.03 11.03 0 0 1 6.785 6.786"/><path fill="url(#fluentColorClockAlarm327)" d="M26.394 12.39a5 5 0 1 0-6.785-6.785a11.03 11.03 0 0 1 6.785 6.786"/><path fill="url(#fluentColorClockAlarm321)" d="M12.39 5.606a11.03 11.03 0 0 0-6.784 6.785a5 5 0 1 1 6.785-6.785"/><path fill="url(#fluentColorClockAlarm328)" d="M12.39 5.606a11.03 11.03 0 0 0-6.784 6.785a5 5 0 1 1 6.785-6.785"/><path fill="url(#fluentColorClockAlarm322)" d="m5.707 27.707l3-3l-1.414-1.414l-3 3a1 1 0 0 0 1.414 1.414"/><path fill="url(#fluentColorClockAlarm323)" d="m27.707 26.293l-3-3l-1.414 1.414l3 3a1 1 0 1 0 1.414-1.414"/><path fill="url(#fluentColorClockAlarm324)" d="M28 16c0 6.627-5.373 12-12 12S4 22.627 4 16S9.373 4 16 4s12 5.373 12 12"/><path fill="url(#fluentColorClockAlarm325)" d="M26 16c0 5.523-4.477 10-10 10S6 21.523 6 16S10.477 6 16 6s10 4.477 10 10"/><path fill="url(#fluentColorClockAlarm326)" fill-rule="evenodd" d="M15 9a1 1 0 0 1 1 1v6h4a1 1 0 1 1 0 2h-5a1 1 0 0 1-1-1v-7a1 1 0 0 1 1-1" clip-rule="evenodd"/><defs><linearGradient id="fluentColorClockAlarm320" x1="30.106" x2="20.77" y1="12.826" y2="5.188" gradientUnits="userSpaceOnUse"><stop stop-color="#FF6F47"/><stop offset="1" stop-color="#FFCD0F"/></linearGradient><linearGradient id="fluentColorClockAlarm321" x1="13.844" x2="4.507" y1="13.826" y2="6.188" gradientUnits="userSpaceOnUse"><stop stop-color="#FF6F47"/><stop offset="1" stop-color="#FFCD0F"/></linearGradient><linearGradient id="fluentColorClockAlarm322" x1="5" x2="5.946" y1="21.272" y2="29.551" gradientUnits="userSpaceOnUse"><stop stop-color="#CAD2D9"/><stop offset="1" stop-color="#70777D"/></linearGradient><linearGradient id="fluentColorClockAlarm323" x1="5" x2="5.946" y1="21.272" y2="29.551" gradientUnits="userSpaceOnUse"><stop stop-color="#CAD2D9"/><stop offset="1" stop-color="#70777D"/></linearGradient><linearGradient id="fluentColorClockAlarm324" x1="8" x2="20" y1="2.667" y2="29.333" gradientUnits="userSpaceOnUse"><stop stop-color="#1EC8B0"/><stop offset="1" stop-color="#2764E7"/></linearGradient><linearGradient id="fluentColorClockAlarm325" x1="9.043" x2="22.087" y1="3.826" y2="31.652" gradientUnits="userSpaceOnUse"><stop stop-color="#FDFDFD"/><stop offset="1" stop-color="#DEDEFF"/></linearGradient><linearGradient id="fluentColorClockAlarm326" x1="16.8" x2="20.573" y1="10.845" y2="17.132" gradientUnits="userSpaceOnUse"><stop stop-color="#1EC8B0"/><stop offset="1" stop-color="#2764E7"/></linearGradient><radialGradient id="fluentColorClockAlarm327" cx="0" cy="0" r="1" gradientTransform="rotate(-45 27.718 -12.973)scale(14.7078)" gradientUnits="userSpaceOnUse"><stop offset=".644" stop-color="#FF6F47"/><stop offset=".942" stop-color="#FF6F47" stop-opacity="0"/></radialGradient><radialGradient id="fluentColorClockAlarm328" cx="0" cy="0" r="1" gradientTransform="rotate(-135 11.88 4.92)scale(14.7078)" gradientUnits="userSpaceOnUse"><stop offset=".659" stop-color="#FF6F47"/><stop offset=".949" stop-color="#FF6F47" stop-opacity="0"/></radialGradient></defs></g></svg>