<svg xmlns="http://www.w3.org/2000/svg" xmlns:xlink="http://www.w3.org/1999/xlink" width="20" height="20" viewBox="0 0 20 20"><g fill="none"><path fill="url(#fluentColorClockAlarm200)" d="M16.231 8.144a3.25 3.25 0 1 0-4.375-4.375a6.51 6.51 0 0 1 4.375 4.375"/><path fill="url(#fluentColorClockAlarm207)" d="M16.231 8.144a3.25 3.25 0 1 0-4.375-4.375a6.51 6.51 0 0 1 4.375 4.375"/><path fill="url(#fluentColorClockAlarm201)" d="M8.144 3.769a6.51 6.51 0 0 0-4.375 4.375a3.25 3.25 0 1 1 4.375-4.375"/><path fill="url(#fluentColorClockAlarm208)" d="M8.144 3.769a6.51 6.51 0 0 0-4.375 4.375a3.25 3.25 0 1 1 4.375-4.375"/><path fill="url(#fluentColorClockAlarm202)" d="m3.854 16.854l2-2l-.708-.707l-2 2a.5.5 0 1 0 .708.707"/><path fill="url(#fluentColorClockAlarm203)" d="m16.854 16.147l-2-2l-.708.707l2 2a.5.5 0 0 0 .708-.707"/><path fill="url(#fluentColorClockAlarm204)" d="M17 10a7 7 0 1 1-14 0a7 7 0 0 1 14 0"/><path fill="url(#fluentColorClockAlarm205)" d="M15.75 10a5.75 5.75 0 1 1-11.5 0a5.75 5.75 0 0 1 11.5 0"/><path fill="url(#fluentColorClockAlarm206)" fill-rule="evenodd" d="M9.5 6a.5.5 0 0 1 .5.5V10h2.5a.5.5 0 0 1 0 1h-3a.5.5 0 0 1-.5-.5v-4a.5.5 0 0 1 .5-.5" clip-rule="evenodd"/><defs><linearGradient id="fluentColorClockAlarm200" x1="18.009" x2="12.174" y1="8.141" y2="3.368" gradientUnits="userSpaceOnUse"><stop stop-color="#FF6F47"/><stop offset="1" stop-color="#FFCD0F"/></linearGradient><linearGradient id="fluentColorClockAlarm201" x1="8.152" x2="2.317" y1="8.141" y2="3.368" gradientUnits="userSpaceOnUse"><stop stop-color="#FF6F47"/><stop offset="1" stop-color="#FFCD0F"/></linearGradient><linearGradient id="fluentColorClockAlarm202" x1="3" x2="3.547" y1="12.921" y2="17.946" gradientUnits="userSpaceOnUse"><stop stop-color="#CAD2D9"/><stop offset="1" stop-color="#70777D"/></linearGradient><linearGradient id="fluentColorClockAlarm203" x1="3" x2="3.547" y1="12.921" y2="17.946" gradientUnits="userSpaceOnUse"><stop stop-color="#CAD2D9"/><stop offset="1" stop-color="#70777D"/></linearGradient><linearGradient id="fluentColorClockAlarm204" x1="5.333" x2="12.333" y1="2.222" y2="17.778" gradientUnits="userSpaceOnUse"><stop stop-color="#1EC8B0"/><stop offset="1" stop-color="#2764E7"/></linearGradient><linearGradient id="fluentColorClockAlarm205" x1="6" x2="13.5" y1="3" y2="19" gradientUnits="userSpaceOnUse"><stop stop-color="#FDFDFD"/><stop offset="1" stop-color="#DEDEFF"/></linearGradient><linearGradient id="fluentColorClockAlarm206" x1="10" x2="12.358" y1="6.278" y2="10.207" gradientUnits="userSpaceOnUse"><stop stop-color="#1EC8B0"/><stop offset="1" stop-color="#2764E7"/></linearGradient><radialGradient id="fluentColorClockAlarm207" cx="0" cy="0" r="1" gradientTransform="matrix(6.5 -6.5 6.5 6.5 10 10)" gradientUnits="userSpaceOnUse"><stop offset=".644" stop-color="#FF6F47"/><stop offset=".942" stop-color="#FF6F47" stop-opacity="0"/></radialGradient><radialGradient id="fluentColorClockAlarm208" cx="0" cy="0" r="1" gradientTransform="matrix(-6.5 -6.5 6.5 -6.5 10 10)" gradientUnits="userSpaceOnUse"><stop offset=".659" stop-color="#FF6F47"/><stop offset=".949" stop-color="#FF6F47" stop-opacity="0"/></radialGradient></defs></g></svg>