<svg xmlns="http://www.w3.org/2000/svg" xmlns:xlink="http://www.w3.org/1999/xlink" width="28" height="28" viewBox="0 0 28 28"><g fill="none"><path fill="url(#fluentColorCloud280)" d="M14 5a7 7 0 0 0-6.931 6.017A5.5 5.5 0 0 0 7.5 22h13a5.5 5.5 0 0 0 .431-10.983A7 7 0 0 0 14 5"/><path fill="url(#fluentColorCloud281)" fill-opacity=".3" d="M13 16.5a5.5 5.5 0 1 1-11 0a5.5 5.5 0 0 1 11 0"/><path fill="url(#fluentColorCloud282)" fill-opacity=".3" d="M14 19a7 7 0 1 0-6.931-7.983a5.5 5.5 0 0 1 5.413 7.818c.488.108.997.165 1.518.165"/><path fill="url(#fluentColorCloud283)" d="M14 19a7 7 0 1 0-6.931-7.983a5.5 5.5 0 0 1 5.413 7.818c.488.108.997.165 1.518.165"/><path fill="url(#fluentColorCloud284)" fill-opacity=".5" d="M14 5a7 7 0 0 0-6.931 6.017A5.5 5.5 0 0 0 7.5 22h13a5.5 5.5 0 0 0 .431-10.983A7 7 0 0 0 14 5"/><defs><linearGradient id="fluentColorCloud280" x1="2.857" x2="13.786" y1="8.188" y2="24.218" gradientUnits="userSpaceOnUse"><stop stop-color="#0FAFFF"/><stop offset="1" stop-color="#367AF2"/></linearGradient><linearGradient id="fluentColorCloud281" x1="2" x2="9.415" y1="12.884" y2="19.448" gradientUnits="userSpaceOnUse"><stop stop-color="#fff"/><stop offset="1" stop-color="#FCFCFC" stop-opacity="0"/></linearGradient><linearGradient id="fluentColorCloud282" x1="9.484" x2="11.338" y1="5.787" y2="15.439" gradientUnits="userSpaceOnUse"><stop stop-color="#fff"/><stop offset="1" stop-color="#FCFCFC" stop-opacity="0"/></linearGradient><radialGradient id="fluentColorCloud283" cx="0" cy="0" r="1" gradientTransform="matrix(7.8525 -3.325 2.97468 7.02515 7.614 16.462)" gradientUnits="userSpaceOnUse"><stop offset=".412" stop-color="#2C87F5"/><stop offset="1" stop-color="#2C87F5" stop-opacity="0"/></radialGradient><radialGradient id="fluentColorCloud284" cx="0" cy="0" r="1" gradientTransform="matrix(9.24997 18.83524 -135.00177 66.2992 13 3.938)" gradientUnits="userSpaceOnUse"><stop offset=".5" stop-color="#DD3CE2" stop-opacity="0"/><stop offset="1" stop-color="#DD3CE2"/></radialGradient></defs></g></svg>