<svg xmlns="http://www.w3.org/2000/svg" xmlns:xlink="http://www.w3.org/1999/xlink" width="32" height="32" viewBox="0 0 32 32"><g fill="none"><path fill="url(#fluentColorCloudDismiss320)" d="M2 16a6 6 0 0 0 6 6h16a6 6 0 1 0-.062-12a8.001 8.001 0 0 0-15.876 0H8a6 6 0 0 0-6 6"/><path fill="url(#fluentColorCloudDismiss321)" fill-opacity=".3" d="M14 16a6 6 0 1 1-12 0a6 6 0 0 1 12 0"/><path fill="url(#fluentColorCloudDismiss322)" fill-opacity=".3" d="M16 19a8 8 0 1 0-7.938-9a6 6 0 0 1 5.359 8.575A8 8 0 0 0 16 19"/><path fill="url(#fluentColorCloudDismiss325)" d="M16 19a8 8 0 1 0-7.938-9a6 6 0 0 1 5.359 8.575A8 8 0 0 0 16 19"/><path fill="url(#fluentColorCloudDismiss326)" fill-opacity=".5" d="M2 16a6 6 0 0 0 6 6h16a6 6 0 1 0-.062-12a8.001 8.001 0 0 0-15.876 0H8a6 6 0 0 0-6 6"/><path fill="url(#fluentColorCloudDismiss327)" fill-opacity=".5" d="M2 16a6 6 0 0 0 6 6h16a6 6 0 1 0-.062-12a8.001 8.001 0 0 0-15.876 0H8a6 6 0 0 0-6 6"/><path fill="url(#fluentColorCloudDismiss323)" d="M22.5 15a7.5 7.5 0 1 1 0 15a7.5 7.5 0 0 1 0-15"/><path fill="url(#fluentColorCloudDismiss324)" fill-rule="evenodd" d="M18.72 18.72a.75.75 0 0 1 1.06 0l2.72 2.72l2.72-2.72a.75.75 0 1 1 1.06 1.06l-2.72 2.72l2.72 2.72a.75.75 0 1 1-1.06 1.06l-2.72-2.72l-2.72 2.72a.75.75 0 1 1-1.06-1.06l2.72-2.72l-2.72-2.72a.75.75 0 0 1 0-1.06" clip-rule="evenodd"/><defs><linearGradient id="fluentColorCloudDismiss320" x1="3" x2="15.015" y1="6.563" y2="24.959" gradientUnits="userSpaceOnUse"><stop stop-color="#0FAFFF"/><stop offset="1" stop-color="#367AF2"/></linearGradient><linearGradient id="fluentColorCloudDismiss321" x1="2" x2="10.09" y1="12.056" y2="19.215" gradientUnits="userSpaceOnUse"><stop stop-color="#fff"/><stop offset="1" stop-color="#FCFCFC" stop-opacity="0"/></linearGradient><linearGradient id="fluentColorCloudDismiss322" x1="10.825" x2="12.942" y1="3.9" y2="14.931" gradientUnits="userSpaceOnUse"><stop stop-color="#fff"/><stop offset="1" stop-color="#FCFCFC" stop-opacity="0"/></linearGradient><linearGradient id="fluentColorCloudDismiss323" x1="17.344" x2="28.75" y1="15.938" y2="32.5" gradientUnits="userSpaceOnUse"><stop stop-color="#F83F54"/><stop offset="1" stop-color="#CA2134"/></linearGradient><linearGradient id="fluentColorCloudDismiss324" x1="19.454" x2="23.043" y1="22.805" y2="26.536" gradientUnits="userSpaceOnUse"><stop stop-color="#FDFDFD"/><stop offset="1" stop-color="#FECBE6"/></linearGradient><radialGradient id="fluentColorCloudDismiss325" cx="0" cy="0" r="1" gradientTransform="matrix(8.98356 -3.8 3.39718 8.03127 8.686 16.1)" gradientUnits="userSpaceOnUse"><stop offset=".412" stop-color="#2C87F5"/><stop offset="1" stop-color="#2C87F5" stop-opacity="0"/></radialGradient><radialGradient id="fluentColorCloudDismiss326" cx="0" cy="0" r="1" gradientTransform="matrix(10.79167 21.05115 -154.80576 79.35965 14.833 1.813)" gradientUnits="userSpaceOnUse"><stop offset=".5" stop-color="#DD3CE2" stop-opacity="0"/><stop offset="1" stop-color="#DD3CE2"/></radialGradient><radialGradient id="fluentColorCloudDismiss327" cx="0" cy="0" r="1" gradientTransform="matrix(0 11 -11.1447 0 22.5 24.5)" gradientUnits="userSpaceOnUse"><stop offset=".288" stop-color="#0D1F69"/><stop offset="1" stop-color="#0D1F69" stop-opacity="0"/></radialGradient></defs></g></svg>