<svg xmlns="http://www.w3.org/2000/svg" xmlns:xlink="http://www.w3.org/1999/xlink" width="20" height="20" viewBox="0 0 20 20"><g fill="none"><path fill="url(#fluentColorCodeBlock200)" d="M3 6a3 3 0 0 1 3-3h8a3 3 0 0 1 3 3v8a3 3 0 0 1-3 3H6a3 3 0 0 1-3-3z"/><path fill="url(#fluentColorCodeBlock201)" d="M8.854 7.854L6.707 10l2.147 2.146a.5.5 0 0 1-.708.708l-2.5-2.5a.5.5 0 0 1 0-.708l2.5-2.5a.5.5 0 1 1 .708.708m3-.708l2.5 2.5a.5.5 0 0 1 0 .708l-2.5 2.5a.5.5 0 0 1-.708-.708L13.293 10l-2.147-2.146a.5.5 0 0 1 .708-.708"/><defs><linearGradient id="fluentColorCodeBlock200" x1="6.413" x2="14.091" y1="3" y2="17" gradientUnits="userSpaceOnUse"><stop offset=".028" stop-color="#E67EEA"/><stop offset=".438" stop-color="#AD64D7"/><stop offset="1" stop-color="#794DC5"/></linearGradient><linearGradient id="fluentColorCodeBlock201" x1="7.634" x2="11.158" y1="7.231" y2="16.354" gradientUnits="userSpaceOnUse"><stop stop-color="#FDFDFD"/><stop offset="1" stop-color="#F9DCFA"/></linearGradient></defs></g></svg>