<svg xmlns="http://www.w3.org/2000/svg" xmlns:xlink="http://www.w3.org/1999/xlink" width="16" height="16" viewBox="0 0 16 16"><g fill="none"><path fill="url(#fluentColorCodeBlock160)" d="M2 4.5A2.5 2.5 0 0 1 4.5 2h7A2.5 2.5 0 0 1 14 4.5v7a2.5 2.5 0 0 1-2.5 2.5h-7A2.5 2.5 0 0 1 2 11.5z"/><path fill="url(#fluentColorCodeBlock161)" d="M9.854 5.646a.5.5 0 1 0-.708.708L10.793 8L9.146 9.646a.5.5 0 0 0 .708.708l2-2a.5.5 0 0 0 0-.708zm-3 .708a.5.5 0 0 0-.708-.707l-2 2a.5.5 0 0 0 0 .707l2 2a.5.5 0 0 0 .708-.708L5.207 8z"/><defs><linearGradient id="fluentColorCodeBlock160" x1="4.975" x2="11.665" y1="2" y2="14.2" gradientUnits="userSpaceOnUse"><stop offset=".028" stop-color="#E67EEA"/><stop offset=".438" stop-color="#AD64D7"/><stop offset="1" stop-color="#794DC5"/></linearGradient><linearGradient id="fluentColorCodeBlock161" x1="5.897" x2="8.694" y1="5.692" y2="13.416" gradientUnits="userSpaceOnUse"><stop stop-color="#FDFDFD"/><stop offset="1" stop-color="#F9DCFA"/></linearGradient></defs></g></svg>