<svg xmlns="http://www.w3.org/2000/svg" xmlns:xlink="http://www.w3.org/1999/xlink" width="24" height="24" viewBox="0 0 24 24"><g fill="none"><path fill="url(#fluentColorCodeBlock240)" d="M3 6.25A3.25 3.25 0 0 1 6.25 3h11.5A3.25 3.25 0 0 1 21 6.25v11.5A3.25 3.25 0 0 1 17.75 21H6.25A3.25 3.25 0 0 1 3 17.75z"/><path fill="url(#fluentColorCodeBlock241)" d="M10.53 9.28L7.81 12l2.72 2.72a.75.75 0 1 1-1.06 1.06l-3.25-3.25a.75.75 0 0 1 0-1.06l3.25-3.25a.75.75 0 1 1 1.06 1.06m4-1.06l3.25 3.25a.75.75 0 0 1 0 1.06l-3.25 3.25a.75.75 0 1 1-1.06-1.06L16.19 12l-2.72-2.72a.75.75 0 0 1 1.06-1.06"/><defs><linearGradient id="fluentColorCodeBlock240" x1="7.389" x2="17.26" y1="3" y2="21" gradientUnits="userSpaceOnUse"><stop offset=".028" stop-color="#E67EEA"/><stop offset=".438" stop-color="#AD64D7"/><stop offset="1" stop-color="#794DC5"/></linearGradient><linearGradient id="fluentColorCodeBlock241" x1="8.845" x2="13.544" y1="8.308" y2="20.472" gradientUnits="userSpaceOnUse"><stop stop-color="#FDFDFD"/><stop offset="1" stop-color="#F9DCFA"/></linearGradient></defs></g></svg>