<svg xmlns="http://www.w3.org/2000/svg" xmlns:xlink="http://www.w3.org/1999/xlink" width="16" height="16" viewBox="0 0 16 16"><g fill="none"><path fill="url(#fluentColorCoinMultiple160)" d="M13 13.5c0 1.381-2.239 2.5-5 2.5s-5-1.119-5-2.5v-2h10z"/><path fill="url(#fluentColorCoinMultiple161)" d="M13 11.5c0 1.38-2.239 2.5-5 2.5s-5-1.12-5-2.5S5.239 9 8 9s5 1.12 5 2.5"/><path fill="url(#fluentColorCoinMultiple162)" d="M13 9.5c0 1.381-2.239 2.5-5 2.5s-5-1.119-5-2.5v-2h10z"/><path fill="url(#fluentColorCoinMultiple163)" d="M13 7.5c0 1.38-2.239 2.5-5 2.5S3 8.88 3 7.5S5.239 5 8 5s5 1.12 5 2.5"/><path fill="url(#fluentColorCoinMultiple164)" d="M13 5.5C13 6.881 10.761 8 8 8S3 6.881 3 5.5v-2h10z"/><path fill="url(#fluentColorCoinMultiple165)" d="M13 3.5C13 4.88 10.761 6 8 6S3 4.88 3 3.5S5.239 1 8 1s5 1.12 5 2.5"/><defs><linearGradient id="fluentColorCoinMultiple160" x1="5.652" x2="7.302" y1="12.604" y2="16.274" gradientUnits="userSpaceOnUse"><stop stop-color="#FFA43D"/><stop offset="1" stop-color="#FB5937"/></linearGradient><linearGradient id="fluentColorCoinMultiple161" x1="13.014" x2="8.702" y1="13.998" y2="6.943" gradientUnits="userSpaceOnUse"><stop stop-color="#FF8A69"/><stop offset="1" stop-color="#FFCD0F"/></linearGradient><linearGradient id="fluentColorCoinMultiple162" x1="5.652" x2="7.302" y1="8.604" y2="12.274" gradientUnits="userSpaceOnUse"><stop stop-color="#FFA43D"/><stop offset="1" stop-color="#FB5937"/></linearGradient><linearGradient id="fluentColorCoinMultiple163" x1="13.014" x2="8.702" y1="9.998" y2="2.943" gradientUnits="userSpaceOnUse"><stop stop-color="#FF8A69"/><stop offset="1" stop-color="#FFCD0F"/></linearGradient><linearGradient id="fluentColorCoinMultiple164" x1="5.652" x2="7.302" y1="4.604" y2="8.274" gradientUnits="userSpaceOnUse"><stop stop-color="#FFA43D"/><stop offset="1" stop-color="#FB5937"/></linearGradient><linearGradient id="fluentColorCoinMultiple165" x1="13.014" x2="8.702" y1="5.998" y2="-1.057" gradientUnits="userSpaceOnUse"><stop stop-color="#FF8A69"/><stop offset="1" stop-color="#FFCD0F"/></linearGradient></defs></g></svg>