<svg xmlns="http://www.w3.org/2000/svg" xmlns:xlink="http://www.w3.org/1999/xlink" width="20" height="20" viewBox="0 0 20 20"><g fill="none"><path fill="url(#fluentColorDataBarVerticalAscending200)" d="M17 5a2 2 0 1 0-4 0v10a2 2 0 1 0 4 0z"/><path fill="url(#fluentColorDataBarVerticalAscending201)" d="M12 8a2 2 0 1 0-4 0v7a2 2 0 1 0 4 0z"/><path fill="url(#fluentColorDataBarVerticalAscending202)" d="M7 11a2 2 0 1 0-4 0v4a2 2 0 1 0 4 0z"/><defs><linearGradient id="fluentColorDataBarVerticalAscending200" x1="16.474" x2="26.659" y1="-1.3" y2="4.133" gradientUnits="userSpaceOnUse"><stop stop-color="#16BBDA"/><stop offset="1" stop-color="#0067BF"/></linearGradient><linearGradient id="fluentColorDataBarVerticalAscending201" x1="8.386" x2="17.444" y1="3.312" y2="9.351" gradientUnits="userSpaceOnUse"><stop stop-color="#16BBDA"/><stop offset="1" stop-color="#0067BF"/></linearGradient><linearGradient id="fluentColorDataBarVerticalAscending202" x1="2.75" x2="9.859" y1="4.5" y2="11.017" gradientUnits="userSpaceOnUse"><stop stop-color="#16BBDA"/><stop offset="1" stop-color="#0067BF"/></linearGradient></defs></g></svg>