<svg xmlns="http://www.w3.org/2000/svg" xmlns:xlink="http://www.w3.org/1999/xlink" width="32" height="32" viewBox="0 0 32 32"><g fill="none"><path fill="url(#fluentColorDismissCircle320)" d="M16 2C8.268 2 2 8.268 2 16s6.268 14 14 14s14-6.268 14-14S23.732 2 16 2"/><path fill="url(#fluentColorDismissCircle321)" d="M21.707 10.293a1 1 0 0 1 0 1.414L17.414 16l4.293 4.293a1 1 0 0 1-1.414 1.414L16 17.414l-4.293 4.293a1 1 0 0 1-1.414-1.414L14.586 16l-4.293-4.293a1 1 0 1 1 1.414-1.414L16 14.586l4.293-4.293a1 1 0 0 1 1.414 0"/><defs><linearGradient id="fluentColorDismissCircle320" x1="6.375" x2="24.75" y1="3.75" y2="30.875" gradientUnits="userSpaceOnUse"><stop stop-color="#F83F54"/><stop offset="1" stop-color="#CA2134"/></linearGradient><linearGradient id="fluentColorDismissCircle321" x1="10.697" x2="16.945" y1="16.53" y2="23.028" gradientUnits="userSpaceOnUse"><stop stop-color="#FDFDFD"/><stop offset="1" stop-color="#FECBE6"/></linearGradient></defs></g></svg>