<svg xmlns="http://www.w3.org/2000/svg" xmlns:xlink="http://www.w3.org/1999/xlink" width="48" height="48" viewBox="0 0 48 48"><g fill="none"><path fill="url(#fluentColorDocument480)" d="M11 43h26a3 3 0 0 0 3-3V18l-10-4l-4-10H11a3 3 0 0 0-3 3v33a3 3 0 0 0 3 3"/><path fill="url(#fluentColorDocument482)" fill-opacity=".5" d="M11 43h26a3 3 0 0 0 3-3V18l-10-4l-4-10H11a3 3 0 0 0-3 3v33a3 3 0 0 0 3 3"/><path fill="url(#fluentColorDocument481)" d="M26 15V4l14 14H29a3 3 0 0 1-3-3"/><defs><linearGradient id="fluentColorDocument480" x1="30.4" x2="33.484" y1="4" y2="36.911" gradientUnits="userSpaceOnUse"><stop stop-color="#6CE0FF"/><stop offset="1" stop-color="#4894FE"/></linearGradient><linearGradient id="fluentColorDocument481" x1="32.977" x2="29.477" y1="9.833" y2="15.667" gradientUnits="userSpaceOnUse"><stop stop-color="#9FF0F9"/><stop offset="1" stop-color="#B3E0FF"/></linearGradient><radialGradient id="fluentColorDocument482" cx="0" cy="0" r="1" gradientTransform="matrix(-17.33333 17.73237 -10.47911 -10.24329 41.333 5.219)" gradientUnits="userSpaceOnUse"><stop offset=".362" stop-color="#4A43CB"/><stop offset="1" stop-color="#4A43CB" stop-opacity="0"/></radialGradient></defs></g></svg>