<svg xmlns="http://www.w3.org/2000/svg" xmlns:xlink="http://www.w3.org/1999/xlink" width="20" height="20" viewBox="0 0 20 20"><g fill="none"><path fill="url(#fluentColorDocumentFolder200)" d="M6 6a2 2 0 0 1 2-2h6a2 2 0 0 1 2 2v9a2 2 0 0 1-2 2H8a2 2 0 0 1-2-2z"/><path fill="url(#fluentColorDocumentFolder201)" d="M6 6a2 2 0 0 1 2-2h6a2 2 0 0 1 2 2v9a2 2 0 0 1-2 2H8a2 2 0 0 1-2-2z"/><path fill="url(#fluentColorDocumentFolder203)" d="M4 4a2 2 0 0 1 2-2h6a2 2 0 0 1 2 2v11a2 2 0 0 1-2 2H6a2 2 0 0 1-2-2z"/><path fill="url(#fluentColorDocumentFolder202)" d="M5 7a2 2 0 0 0-2 2v6.5A2.5 2.5 0 0 0 5.5 18h9a2.5 2.5 0 0 0 2.5-2.5V14a2 2 0 0 0-2-2h-1.879a1 1 0 0 1-.707-.293L8.293 7.586A2 2 0 0 0 6.879 7z"/><defs><linearGradient id="fluentColorDocumentFolder200" x1="17.5" x2="19.689" y1="19.5" y2="5.879" gradientUnits="userSpaceOnUse"><stop stop-color="#BB45EA"/><stop offset="1" stop-color="#9C6CFE"/></linearGradient><linearGradient id="fluentColorDocumentFolder201" x1="16" x2="13.5" y1="8.5" y2="8.5" gradientUnits="userSpaceOnUse"><stop offset=".338" stop-color="#5750E2" stop-opacity="0"/><stop offset="1" stop-color="#5750E2"/></linearGradient><linearGradient id="fluentColorDocumentFolder202" x1="6" x2="6" y1="7" y2="22" gradientUnits="userSpaceOnUse"><stop offset=".241" stop-color="#FFD638"/><stop offset=".637" stop-color="#FAB500"/><stop offset=".985" stop-color="#CA6407"/></linearGradient><radialGradient id="fluentColorDocumentFolder203" cx="0" cy="0" r="1" gradientTransform="matrix(6.49998 -11.49996 16.4653 9.30648 7 14)" gradientUnits="userSpaceOnUse"><stop offset=".228" stop-color="#2764E7"/><stop offset=".685" stop-color="#5CD1FF"/><stop offset="1" stop-color="#6CE0FF"/></radialGradient></defs></g></svg>