<svg xmlns="http://www.w3.org/2000/svg" xmlns:xlink="http://www.w3.org/1999/xlink" width="48" height="48" viewBox="0 0 48 48"><g fill="none"><path fill="url(#fluentColorDocumentLock484)" d="M11 43h26a3 3 0 0 0 3-3V18l-10-4l-4-10H11a3 3 0 0 0-3 3v33a3 3 0 0 0 3 3"/><path fill="url(#fluentColorDocumentLock480)" fill-opacity=".5" d="M11 43h26a3 3 0 0 0 3-3V18l-10-4l-4-10H11a3 3 0 0 0-3 3v33a3 3 0 0 0 3 3"/><path fill="url(#fluentColorDocumentLock481)" fill-opacity=".7" d="M11 43h26a3 3 0 0 0 3-3V18l-10-4l-4-10H11a3 3 0 0 0-3 3v33a3 3 0 0 0 3 3"/><path fill="url(#fluentColorDocumentLock482)" fill-opacity=".7" d="M11 43h26a3 3 0 0 0 3-3V18l-10-4l-4-10H11a3 3 0 0 0-3 3v33a3 3 0 0 0 3 3"/><path fill="url(#fluentColorDocumentLock483)" fill-opacity=".7" d="M11 43h26a3 3 0 0 0 3-3V18l-10-4l-4-10H11a3 3 0 0 0-3 3v33a3 3 0 0 0 3 3"/><path fill="url(#fluentColorDocumentLock485)" d="M26 15V4l14 14H29a3 3 0 0 1-3-3"/><path fill="url(#fluentColorDocumentLock486)" fill-rule="evenodd" d="M8 30v-1a5 5 0 0 1 10 0v1h1a3 3 0 0 1 3 3v10a3 3 0 0 1-3 3H7a3 3 0 0 1-3-3V33a3 3 0 0 1 3-3zm2.5-1a2.5 2.5 0 0 1 5 0v1h-5z" clip-rule="evenodd"/><path fill="#944600" d="M16 38a3 3 0 1 1-6 0a3 3 0 0 1 6 0"/><defs><radialGradient id="fluentColorDocumentLock480" cx="0" cy="0" r="1" gradientTransform="matrix(-17.33333 17.73237 -10.47911 -10.24329 41.333 5.219)" gradientUnits="userSpaceOnUse"><stop offset=".362" stop-color="#4A43CB"/><stop offset="1" stop-color="#4A43CB" stop-opacity="0"/></radialGradient><radialGradient id="fluentColorDocumentLock481" cx="0" cy="0" r="1" gradientTransform="matrix(0 7.3125 -5.475 0 20 40.563)" gradientUnits="userSpaceOnUse"><stop stop-color="#4A43CB" stop-opacity=".4"/><stop offset=".5" stop-color="#4A43CB" stop-opacity=".2"/><stop offset="1" stop-color="#4A43CB" stop-opacity="0"/></radialGradient><radialGradient id="fluentColorDocumentLock482" cx="0" cy="0" r="1" gradientTransform="matrix(-6.66667 0 0 -6.09375 20 34.469)" gradientUnits="userSpaceOnUse"><stop stop-color="#4A43CB" stop-opacity=".5"/><stop offset=".731" stop-color="#4A43CB" stop-opacity=".05"/><stop offset="1" stop-color="#4A43CB" stop-opacity="0"/></radialGradient><radialGradient id="fluentColorDocumentLock483" cx="0" cy="0" r="1" gradientTransform="matrix(0 7.3125 -8 0 12 30.813)" gradientUnits="userSpaceOnUse"><stop stop-color="#4A43CB" stop-opacity="0"/><stop offset=".62" stop-color="#4A43CB" stop-opacity=".5"/><stop offset="1" stop-color="#4A43CB" stop-opacity="0"/></radialGradient><linearGradient id="fluentColorDocumentLock484" x1="30.4" x2="33.484" y1="4" y2="36.911" gradientUnits="userSpaceOnUse"><stop stop-color="#6CE0FF"/><stop offset="1" stop-color="#4894FE"/></linearGradient><linearGradient id="fluentColorDocumentLock485" x1="32.977" x2="29.477" y1="9.833" y2="15.667" gradientUnits="userSpaceOnUse"><stop stop-color="#9FF0F9"/><stop offset="1" stop-color="#B3E0FF"/></linearGradient><linearGradient id="fluentColorDocumentLock486" x1="22.026" x2="1.807" y1="46.947" y2="33.978" gradientUnits="userSpaceOnUse"><stop stop-color="#FF6F47"/><stop offset="1" stop-color="#FFD638"/></linearGradient></defs></g></svg>