<svg xmlns="http://www.w3.org/2000/svg" xmlns:xlink="http://www.w3.org/1999/xlink" width="20" height="20" viewBox="0 0 20 20"><g fill="none"><path fill="url(#fluentColorDocumentLock204)" d="M10 2H5.5A1.5 1.5 0 0 0 4 3.5v13A1.5 1.5 0 0 0 5.5 18h9a1.5 1.5 0 0 0 1.5-1.5V8l-4-2z"/><path fill="url(#fluentColorDocumentLock200)" fill-opacity=".5" d="M10 2H5.5A1.5 1.5 0 0 0 4 3.5v13A1.5 1.5 0 0 0 5.5 18h9a1.5 1.5 0 0 0 1.5-1.5V8l-4-2z"/><path fill="url(#fluentColorDocumentLock201)" fill-opacity=".7" d="M10 2H5.5A1.5 1.5 0 0 0 4 3.5v13A1.5 1.5 0 0 0 5.5 18h9a1.5 1.5 0 0 0 1.5-1.5V8l-4-2z"/><path fill="url(#fluentColorDocumentLock202)" fill-opacity=".7" d="M10 2H5.5A1.5 1.5 0 0 0 4 3.5v13A1.5 1.5 0 0 0 5.5 18h9a1.5 1.5 0 0 0 1.5-1.5V8l-4-2z"/><path fill="url(#fluentColorDocumentLock203)" fill-opacity=".7" d="M10 2H5.5A1.5 1.5 0 0 0 4 3.5v13A1.5 1.5 0 0 0 5.5 18h9a1.5 1.5 0 0 0 1.5-1.5V8l-4-2z"/><path fill="url(#fluentColorDocumentLock205)" d="M10.01 6.5V2l6 6h-4.5a1.5 1.5 0 0 1-1.5-1.5"/><path fill="url(#fluentColorDocumentLock206)" d="M3.5 12v1H3a1 1 0 0 0-1 1v4a1 1 0 0 0 1 1h5a1 1 0 0 0 1-1v-4a1 1 0 0 0-1-1h-.5v-1a2 2 0 1 0-4 0m1 1v-1a1 1 0 1 1 2 0v1z"/><path fill="#944600" d="M6.25 16a.75.75 0 1 0-1.5 0a.75.75 0 0 0 1.5 0"/><defs><radialGradient id="fluentColorDocumentLock200" cx="0" cy="0" r="1" gradientTransform="rotate(131.781 7.69 4.942)scale(9.75567 5.7303)" gradientUnits="userSpaceOnUse"><stop offset=".362" stop-color="#4A43CB"/><stop offset="1" stop-color="#4A43CB" stop-opacity="0"/></radialGradient><radialGradient id="fluentColorDocumentLock201" cx="0" cy="0" r="1" gradientTransform="matrix(0 3 -3 0 5.5 13)" gradientUnits="userSpaceOnUse"><stop stop-color="#4A43CB" stop-opacity="0"/><stop offset=".62" stop-color="#4A43CB" stop-opacity=".5"/><stop offset="1" stop-color="#4A43CB" stop-opacity="0"/></radialGradient><radialGradient id="fluentColorDocumentLock202" cx="0" cy="0" r="1" gradientTransform="matrix(-2.5 0 0 -2.5 8.5 14.5)" gradientUnits="userSpaceOnUse"><stop stop-color="#4A43CB" stop-opacity=".5"/><stop offset=".731" stop-color="#4A43CB" stop-opacity=".05"/><stop offset="1" stop-color="#4A43CB" stop-opacity="0"/></radialGradient><radialGradient id="fluentColorDocumentLock203" cx="0" cy="0" r="1" gradientTransform="matrix(0 3 -2.05312 0 8.5 17)" gradientUnits="userSpaceOnUse"><stop stop-color="#4A43CB" stop-opacity=".4"/><stop offset="1" stop-color="#4A43CB" stop-opacity="0"/></radialGradient><linearGradient id="fluentColorDocumentLock204" x1="12.4" x2="13.782" y1="2" y2="15.479" gradientUnits="userSpaceOnUse"><stop stop-color="#6CE0FF"/><stop offset="1" stop-color="#4894FE"/></linearGradient><linearGradient id="fluentColorDocumentLock205" x1="13" x2="11.5" y1="4.5" y2="7" gradientUnits="userSpaceOnUse"><stop stop-color="#9FF0F9"/><stop offset="1" stop-color="#B3E0FF"/></linearGradient><linearGradient id="fluentColorDocumentLock206" x1="9.01" x2="1.11" y1="18.997" y2="13.97" gradientUnits="userSpaceOnUse"><stop stop-color="#FF6F47"/><stop offset="1" stop-color="#FFD638"/></linearGradient></defs></g></svg>