<svg xmlns="http://www.w3.org/2000/svg" xmlns:xlink="http://www.w3.org/1999/xlink" width="28" height="28" viewBox="0 0 28 28"><g fill="none"><path fill="url(#fluentColorDocumentLock285)" d="M15.05 2H6.5A2.5 2.5 0 0 0 4 4.5v19A2.5 2.5 0 0 0 6.5 26h15a2.5 2.5 0 0 0 2.5-2.5V11l-7-2z"/><path fill="url(#fluentColorDocumentLock280)" fill-opacity=".5" d="M15.05 2H6.5A2.5 2.5 0 0 0 4 4.5v19A2.5 2.5 0 0 0 6.5 26h15a2.5 2.5 0 0 0 2.5-2.5V11l-7-2z"/><path fill="url(#fluentColorDocumentLock281)" fill-opacity=".3" d="M15.05 2H6.5A2.5 2.5 0 0 0 4 4.5v19A2.5 2.5 0 0 0 6.5 26h15a2.5 2.5 0 0 0 2.5-2.5V11l-7-2z"/><path fill="url(#fluentColorDocumentLock282)" fill-opacity=".7" d="M15.05 2H6.5A2.5 2.5 0 0 0 4 4.5v19A2.5 2.5 0 0 0 6.5 26h15a2.5 2.5 0 0 0 2.5-2.5V11l-7-2z"/><path fill="url(#fluentColorDocumentLock283)" fill-opacity=".7" d="M15.05 2H6.5A2.5 2.5 0 0 0 4 4.5v19A2.5 2.5 0 0 0 6.5 26h15a2.5 2.5 0 0 0 2.5-2.5V11l-7-2z"/><path fill="url(#fluentColorDocumentLock284)" fill-opacity=".7" d="M15.05 2H6.5A2.5 2.5 0 0 0 4 4.5v19A2.5 2.5 0 0 0 6.5 26h15a2.5 2.5 0 0 0 2.5-2.5V11l-7-2z"/><path fill="url(#fluentColorDocumentLock286)" d="M15 9.5V2l9 9h-7.5A1.5 1.5 0 0 1 15 9.5"/><path fill="url(#fluentColorDocumentLock287)" fill-rule="evenodd" d="M4.5 18v-1a3 3 0 1 1 6 0v1h.5a2 2 0 0 1 2 2v5a2 2 0 0 1-2 2H4a2 2 0 0 1-2-2v-5a2 2 0 0 1 2-2zM6 17a1.5 1.5 0 0 1 3 0v1H6z" clip-rule="evenodd"/><path fill="#944600" d="M9 22.5a1.5 1.5 0 1 1-3 0a1.5 1.5 0 0 1 3 0"/><defs><radialGradient id="fluentColorDocumentLock280" cx="0" cy="0" r="1" gradientTransform="rotate(133.966 11.833 6.65)scale(16.325 9.64965)" gradientUnits="userSpaceOnUse"><stop offset=".362" stop-color="#4A43CB"/><stop offset="1" stop-color="#4A43CB" stop-opacity="0"/></radialGradient><radialGradient id="fluentColorDocumentLock281" cx="0" cy="0" r="1" gradientTransform="rotate(133.966 11.833 6.65)scale(16.325 9.64965)" gradientUnits="userSpaceOnUse"><stop offset=".362" stop-color="#4A43CB"/><stop offset="1" stop-color="#4A43CB" stop-opacity="0"/></radialGradient><radialGradient id="fluentColorDocumentLock282" cx="0" cy="0" r="1" gradientTransform="matrix(0 4.5 -5 0 6.5 18.5)" gradientUnits="userSpaceOnUse"><stop stop-color="#4A43CB" stop-opacity="0"/><stop offset=".62" stop-color="#4A43CB" stop-opacity=".5"/><stop offset="1" stop-color="#4A43CB" stop-opacity="0"/></radialGradient><radialGradient id="fluentColorDocumentLock283" cx="0" cy="0" r="1" gradientTransform="matrix(-4.16667 0 0 -3.75 11.5 20.75)" gradientUnits="userSpaceOnUse"><stop stop-color="#4A43CB" stop-opacity=".5"/><stop offset=".731" stop-color="#4A43CB" stop-opacity=".05"/><stop offset="1" stop-color="#4A43CB" stop-opacity="0"/></radialGradient><radialGradient id="fluentColorDocumentLock284" cx="0" cy="0" r="1" gradientTransform="matrix(0 4.5 -3.42187 0 11.5 24.5)" gradientUnits="userSpaceOnUse"><stop stop-color="#4A43CB" stop-opacity=".4"/><stop offset="1" stop-color="#4A43CB" stop-opacity="0"/></radialGradient><linearGradient id="fluentColorDocumentLock285" x1="18" x2="19.388" y1="2" y2="20.598" gradientUnits="userSpaceOnUse"><stop stop-color="#6CE0FF"/><stop offset="1" stop-color="#4894FE"/></linearGradient><linearGradient id="fluentColorDocumentLock286" x1="19.485" x2="17.235" y1="5.75" y2="9.5" gradientUnits="userSpaceOnUse"><stop stop-color="#9FF0F9"/><stop offset="1" stop-color="#B3E0FF"/></linearGradient><linearGradient id="fluentColorDocumentLock287" x1="13.016" x2=".905" y1="27.56" y2="19.526" gradientUnits="userSpaceOnUse"><stop stop-color="#FF6F47"/><stop offset="1" stop-color="#FFD638"/></linearGradient></defs></g></svg>