<svg xmlns="http://www.w3.org/2000/svg" xmlns:xlink="http://www.w3.org/1999/xlink" width="28" height="28" viewBox="0 0 28 28"><g fill="none"><path fill="url(#fluentColorDocumentAdd283)" d="M15 2H6.5A2.5 2.5 0 0 0 4 4.5v19A2.5 2.5 0 0 0 6.5 26h15a2.5 2.5 0 0 0 2.5-2.5V11l-6.5-2.5z"/><path fill="url(#fluentColorDocumentAdd280)" fill-opacity=".5" d="M15 2H6.5A2.5 2.5 0 0 0 4 4.5v19A2.5 2.5 0 0 0 6.5 26h15a2.5 2.5 0 0 0 2.5-2.5V11l-6.5-2.5z"/><path fill="url(#fluentColorDocumentAdd281)" fill-opacity=".3" d="M15 2H6.5A2.5 2.5 0 0 0 4 4.5v19A2.5 2.5 0 0 0 6.5 26h15a2.5 2.5 0 0 0 2.5-2.5V11l-6.5-2.5z"/><path fill="url(#fluentColorDocumentAdd282)" fill-opacity=".5" d="M15 2H6.5A2.5 2.5 0 0 0 4 4.5v19A2.5 2.5 0 0 0 6.5 26h15a2.5 2.5 0 0 0 2.5-2.5V11l-6.5-2.5z"/><path fill="url(#fluentColorDocumentAdd284)" d="M15 9.5V2l9 9h-7.5A1.5 1.5 0 0 1 15 9.5"/><path fill="url(#fluentColorDocumentAdd285)" d="M14 20.5a6.5 6.5 0 1 1-13 0a6.5 6.5 0 0 1 13 0"/><path fill="#fff" fill-rule="evenodd" d="M7.5 16a.5.5 0 0 1 .5.5V20h3.5a.5.5 0 0 1 0 1H8v3.5a.5.5 0 0 1-1 0V21H3.5a.5.5 0 0 1 0-1H7v-3.5a.5.5 0 0 1 .5-.5" clip-rule="evenodd"/><defs><radialGradient id="fluentColorDocumentAdd280" cx="0" cy="0" r="1" gradientTransform="rotate(133.966 11.833 6.65)scale(16.325 9.64965)" gradientUnits="userSpaceOnUse"><stop offset=".362" stop-color="#4A43CB"/><stop offset="1" stop-color="#4A43CB" stop-opacity="0"/></radialGradient><radialGradient id="fluentColorDocumentAdd281" cx="0" cy="0" r="1" gradientTransform="rotate(133.966 11.833 6.65)scale(16.325 9.64965)" gradientUnits="userSpaceOnUse"><stop offset=".362" stop-color="#4A43CB"/><stop offset="1" stop-color="#4A43CB" stop-opacity="0"/></radialGradient><radialGradient id="fluentColorDocumentAdd282" cx="0" cy="0" r="1" gradientTransform="matrix(.5 11.00004 -11.2431 .51106 7 24.5)" gradientUnits="userSpaceOnUse"><stop offset=".535" stop-color="#4A43CB"/><stop offset="1" stop-color="#4A43CB" stop-opacity="0"/></radialGradient><linearGradient id="fluentColorDocumentAdd283" x1="18" x2="19.388" y1="2" y2="20.598" gradientUnits="userSpaceOnUse"><stop stop-color="#6CE0FF"/><stop offset="1" stop-color="#4894FE"/></linearGradient><linearGradient id="fluentColorDocumentAdd284" x1="19.485" x2="17.235" y1="5.75" y2="9.5" gradientUnits="userSpaceOnUse"><stop stop-color="#9FF0F9"/><stop offset="1" stop-color="#B3E0FF"/></linearGradient><linearGradient id="fluentColorDocumentAdd285" x1="1.464" x2="10.436" y1="16.438" y2="25.759" gradientUnits="userSpaceOnUse"><stop stop-color="#52D17C"/><stop offset="1" stop-color="#22918B"/></linearGradient></defs></g></svg>