<svg xmlns="http://www.w3.org/2000/svg" xmlns:xlink="http://www.w3.org/1999/xlink" width="24" height="24" viewBox="0 0 24 24"><g fill="none"><path fill="url(#fluentColorDocument240)" d="M6 22h12a2 2 0 0 0 2-2V9l-5-2l-2-5H6a2 2 0 0 0-2 2v16a2 2 0 0 0 2 2"/><path fill="url(#fluentColorDocument242)" fill-opacity=".5" d="M6 22h12a2 2 0 0 0 2-2V9l-5-2l-2-5H6a2 2 0 0 0-2 2v16a2 2 0 0 0 2 2"/><path fill="url(#fluentColorDocument241)" d="M13 7.5V2l7 7h-5.5A1.5 1.5 0 0 1 13 7.5"/><defs><linearGradient id="fluentColorDocument240" x1="15.2" x2="16.822" y1="2" y2="18.87" gradientUnits="userSpaceOnUse"><stop stop-color="#6CE0FF"/><stop offset="1" stop-color="#4894FE"/></linearGradient><linearGradient id="fluentColorDocument241" x1="16.488" x2="14.738" y1="4.917" y2="7.833" gradientUnits="userSpaceOnUse"><stop stop-color="#9FF0F9"/><stop offset="1" stop-color="#B3E0FF"/></linearGradient><radialGradient id="fluentColorDocument242" cx="0" cy="0" r="1" gradientTransform="matrix(-8.66665 9.09357 -5.3691 -5.11703 20.667 2.625)" gradientUnits="userSpaceOnUse"><stop offset=".362" stop-color="#4A43CB"/><stop offset="1" stop-color="#4A43CB" stop-opacity="0"/></radialGradient></defs></g></svg>