<svg xmlns="http://www.w3.org/2000/svg" xmlns:xlink="http://www.w3.org/1999/xlink" width="16" height="16" viewBox="0 0 16 16"><g fill="none"><path fill="url(#fluentColorDocumentLock164)" d="M9.002 1H5.5A1.5 1.5 0 0 0 4 2.5v11A1.5 1.5 0 0 0 5.5 15h7a1.5 1.5 0 0 0 1.5-1.5V6l-3.5-1.5z"/><path fill="url(#fluentColorDocumentLock160)" fill-opacity=".5" d="M9.002 1H5.5A1.5 1.5 0 0 0 4 2.5v11A1.5 1.5 0 0 0 5.5 15h7a1.5 1.5 0 0 0 1.5-1.5V6l-3.5-1.5z"/><path fill="url(#fluentColorDocumentLock161)" fill-opacity=".7" d="M9.002 1H5.5A1.5 1.5 0 0 0 4 2.5v11A1.5 1.5 0 0 0 5.5 15h7a1.5 1.5 0 0 0 1.5-1.5V6l-3.5-1.5z"/><path fill="url(#fluentColorDocumentLock162)" fill-opacity=".7" d="M9.002 1H5.5A1.5 1.5 0 0 0 4 2.5v11A1.5 1.5 0 0 0 5.5 15h7a1.5 1.5 0 0 0 1.5-1.5V6l-3.5-1.5z"/><path fill="url(#fluentColorDocumentLock163)" fill-opacity=".7" d="M9.002 1H5.5A1.5 1.5 0 0 0 4 2.5v11A1.5 1.5 0 0 0 5.5 15h7a1.5 1.5 0 0 0 1.5-1.5V6l-3.5-1.5z"/><path fill="url(#fluentColorDocumentLock165)" d="M9 4.5V1l5 5h-3.5A1.5 1.5 0 0 1 9 4.5"/><path fill="url(#fluentColorDocumentLock166)" d="M3.5 8v1H3a1 1 0 0 0-1 1v4a1 1 0 0 0 1 1h5a1 1 0 0 0 1-1v-4a1 1 0 0 0-1-1h-.5V8a2 2 0 1 0-4 0m1 1V8a1 1 0 0 1 2 0v1z"/><path fill="#944600" d="M6.25 12a.75.75 0 1 0-1.5 0a.75.75 0 0 0 1.5 0"/><defs><radialGradient id="fluentColorDocumentLock160" cx="0" cy="0" r="1" gradientTransform="rotate(130.396 6.876 4.05)scale(8.3582 4.87695)" gradientUnits="userSpaceOnUse"><stop offset=".362" stop-color="#4A43CB"/><stop offset="1" stop-color="#4A43CB" stop-opacity="0"/></radialGradient><radialGradient id="fluentColorDocumentLock161" cx="0" cy="0" r="1" gradientTransform="matrix(0 3.375 -3.01136 0 5.506 9.375)" gradientUnits="userSpaceOnUse"><stop stop-color="#4A43CB" stop-opacity="0"/><stop offset=".62" stop-color="#4A43CB" stop-opacity=".5"/><stop offset="1" stop-color="#4A43CB" stop-opacity="0"/></radialGradient><radialGradient id="fluentColorDocumentLock162" cx="0" cy="0" r="1" gradientTransform="matrix(-2.50947 0 0 -2.8125 8.517 11.063)" gradientUnits="userSpaceOnUse"><stop stop-color="#4A43CB" stop-opacity=".5"/><stop offset=".731" stop-color="#4A43CB" stop-opacity=".05"/><stop offset="1" stop-color="#4A43CB" stop-opacity="0"/></radialGradient><radialGradient id="fluentColorDocumentLock163" cx="0" cy="0" r="1" gradientTransform="matrix(0 3.375 -2.0609 0 8.517 13.875)" gradientUnits="userSpaceOnUse"><stop stop-color="#4A43CB" stop-opacity=".4"/><stop offset="1" stop-color="#4A43CB" stop-opacity="0"/></radialGradient><linearGradient id="fluentColorDocumentLock164" x1="11" x2="12.268" y1="1" y2="12.781" gradientUnits="userSpaceOnUse"><stop stop-color="#6CE0FF"/><stop offset="1" stop-color="#4894FE"/></linearGradient><linearGradient id="fluentColorDocumentLock165" x1="11.492" x2="10.242" y1="3.083" y2="5.167" gradientUnits="userSpaceOnUse"><stop stop-color="#9FF0F9"/><stop offset="1" stop-color="#B3E0FF"/></linearGradient><linearGradient id="fluentColorDocumentLock166" x1="9.01" x2="1.11" y1="14.996" y2="9.97" gradientUnits="userSpaceOnUse"><stop stop-color="#FF6F47"/><stop offset="1" stop-color="#FFD638"/></linearGradient></defs></g></svg>