<svg xmlns="http://www.w3.org/2000/svg" xmlns:xlink="http://www.w3.org/1999/xlink" width="16" height="16" viewBox="0 0 16 16"><g fill="none"><path fill="url(#fluentColorErrorCircle160)" d="M2 8a6 6 0 1 1 12 0A6 6 0 0 1 2 8"/><path fill="url(#fluentColorErrorCircle161)" d="M8 10a.75.75 0 1 0 0 1.5a.75.75 0 0 0 0-1.5m0-5.5a.5.5 0 0 0-.492.41L7.5 5v3.5l.008.09a.5.5 0 0 0 .984 0L8.5 8.5V5l-.008-.09A.5.5 0 0 0 8 4.5"/><defs><linearGradient id="fluentColorErrorCircle160" x1="3.875" x2="11.75" y1=".125" y2="15.125" gradientUnits="userSpaceOnUse"><stop stop-color="#FFCD0F"/><stop offset="1" stop-color="#FE8401"/></linearGradient><linearGradient id="fluentColorErrorCircle161" x1="6" x2="9.213" y1="4.5" y2="11.844" gradientUnits="userSpaceOnUse"><stop stop-color="#4A4A4A"/><stop offset="1" stop-color="#212121"/></linearGradient></defs></g></svg>