<svg xmlns="http://www.w3.org/2000/svg" xmlns:xlink="http://www.w3.org/1999/xlink" width="24" height="24" viewBox="0 0 24 24"><g fill="none"><path fill="#CECECE" d="M5.25 4A3.25 3.25 0 0 0 2 7.25v8.5A3.25 3.25 0 0 0 5.25 19h13.5A3.25 3.25 0 0 0 22 15.75v-8.5A3.25 3.25 0 0 0 18.75 4z"/><path fill="url(#fluentColorGiftCard240)" d="M5.25 4A3.25 3.25 0 0 0 2 7.25v8.5A3.25 3.25 0 0 0 5.25 19h13.5A3.25 3.25 0 0 0 22 15.75v-8.5A3.25 3.25 0 0 0 18.75 4z"/><path fill="#000" fill-rule="evenodd" d="M7.986 10L8 3.998l1.5.004L9.486 10H22v1.5H9.482l-.017 7.502l-1.5-.004l.017-7.498H2V10z" clip-rule="evenodd"/><path fill="url(#fluentColorGiftCard242)" fill-rule="evenodd" d="M7.986 10L8 3.998l1.5.004L9.486 10H22v1.5H9.482l-.017 7.502l-1.5-.004l.017-7.498H2V10z" clip-rule="evenodd"/><path fill="#515151" fill-rule="evenodd" d="M6.94 11.5a2.5 2.5 0 1 1 1.81-4.285a2.5 2.5 0 1 1 1.81 4.285l1.72 1.72a.75.75 0 1 1-1.06 1.06l-2.47-2.47l-2.47 2.47a.75.75 0 0 1-1.06-1.06zM7 8a1 1 0 0 0 0 2h1V9a1 1 0 0 0-1-1m3.5 2h-1V9a1 1 0 1 1 1 1" clip-rule="evenodd"/><path fill="url(#fluentColorGiftCard241)" fill-rule="evenodd" d="M6.94 11.5a2.5 2.5 0 1 1 1.81-4.285a2.5 2.5 0 1 1 1.81 4.285l1.72 1.72a.75.75 0 1 1-1.06 1.06l-2.47-2.47l-2.47 2.47a.75.75 0 0 1-1.06-1.06zM7 8a1 1 0 0 0 0 2h1V9a1 1 0 0 0-1-1m3.5 2h-1V9a1 1 0 1 1 1 1" clip-rule="evenodd"/><defs><linearGradient id="fluentColorGiftCard240" x1="2" x2="14.41" y1="-.688" y2="24.366" gradientUnits="userSpaceOnUse"><stop offset=".125" stop-color="#BB45EA"/><stop offset=".468" stop-color="#8B57ED"/><stop offset="1" stop-color="#5B2AB5"/></linearGradient><linearGradient id="fluentColorGiftCard241" x1="9.033" x2="8.457" y1="-16.928" y2="23.071" gradientUnits="userSpaceOnUse"><stop stop-color="#FF6F47"/><stop offset=".804" stop-color="#FFCD0F"/></linearGradient><radialGradient id="fluentColorGiftCard242" cx="0" cy="0" r="1" gradientTransform="matrix(25.625 0 0 17.0833 9.5 11.5)" gradientUnits="userSpaceOnUse"><stop stop-color="#FB5937"/><stop offset=".378" stop-color="#FFCD0F"/></radialGradient></defs></g></svg>