<svg xmlns="http://www.w3.org/2000/svg" xmlns:xlink="http://www.w3.org/1999/xlink" width="16" height="16" viewBox="0 0 16 16"><g fill="none"><path fill="#CECECE" d="M1 5a2 2 0 0 1 2-2h10a2 2 0 0 1 2 2v6a2 2 0 0 1-2 2H3a2 2 0 0 1-2-2z"/><path fill="url(#fluentColorGiftCard160)" d="M1 5a2 2 0 0 1 2-2h10a2 2 0 0 1 2 2v6a2 2 0 0 1-2 2H3a2 2 0 0 1-2-2z"/><path fill="#000" fill-rule="evenodd" d="M4.99 7L5 2.999L6 3l-.01 4H15v1H5.988l-.011 5.001l-1-.002L4.988 8H1V7z" clip-rule="evenodd"/><path fill="url(#fluentColorGiftCard162)" fill-rule="evenodd" d="M4.99 7L5 2.999L6 3l-.01 4H15v1H5.988l-.011 5.001l-1-.002L4.988 8H1V7z" clip-rule="evenodd"/><path fill="#515151" fill-rule="evenodd" d="M4.305 7.987A1.5 1.5 0 1 1 5.5 5.382a1.5 1.5 0 1 1 1.195 2.606l1.159 1.158a.5.5 0 1 1-.708.708L5.5 8.207L3.854 9.854a.5.5 0 0 1-.708-.708zM4.5 6a.5.5 0 0 0 0 1H5v-.5a.5.5 0 0 0-.5-.5m2 1H6v-.5a.5.5 0 1 1 .5.5" clip-rule="evenodd"/><path fill="url(#fluentColorGiftCard161)" fill-rule="evenodd" d="M4.305 7.987A1.5 1.5 0 1 1 5.5 5.382a1.5 1.5 0 1 1 1.195 2.606l1.159 1.158a.5.5 0 1 1-.708.708L5.5 8.207L3.854 9.854a.5.5 0 0 1-.708-.708zM4.5 6a.5.5 0 0 0 0 1H5v-.5a.5.5 0 0 0-.5-.5m2 1H6v-.5a.5.5 0 1 1 .5.5" clip-rule="evenodd"/><defs><linearGradient id="fluentColorGiftCard160" x1="1" x2="9.027" y1="-.125" y2="16.889" gradientUnits="userSpaceOnUse"><stop offset=".125" stop-color="#BB45EA"/><stop offset=".468" stop-color="#8B57ED"/><stop offset="1" stop-color="#5B2AB5"/></linearGradient><linearGradient id="fluentColorGiftCard161" x1="5.667" x2="5.284" y1="-9.643" y2="15.356" gradientUnits="userSpaceOnUse"><stop stop-color="#FF6F47"/><stop offset=".804" stop-color="#FFCD0F"/></linearGradient><radialGradient id="fluentColorGiftCard162" cx="0" cy="0" r="1" gradientTransform="matrix(17.9375 0 0 11.3889 6.25 8)" gradientUnits="userSpaceOnUse"><stop stop-color="#FB5937"/><stop offset=".378" stop-color="#FFCD0F"/></radialGradient></defs></g></svg>