<svg xmlns="http://www.w3.org/2000/svg" xmlns:xlink="http://www.w3.org/1999/xlink" width="32" height="32" viewBox="0 0 32 32"><g fill="none"><path fill="url(#fluentColorHeadset320)" d="m7 21l1 1a4 4 0 0 0 4 4h6.83a3 3 0 0 1 0 2H12a6 6 0 0 1-6-6z"/><path fill="url(#fluentColorHeadset321)" d="M19 27a3 3 0 1 1-6 0a3 3 0 0 1 6 0"/><path fill="url(#fluentColorHeadset322)" d="M8 12a8 8 0 1 1 16 0l1 1l1-1c0-5.523-4.477-10-10-10S6 6.477 6 12l1 1z"/><path fill="url(#fluentColorHeadset323)" d="M8 22h4a2 2 0 0 0 2-2v-6a2 2 0 0 0-2-2H8z"/><path fill="url(#fluentColorHeadset324)" d="M24 12h-4a2 2 0 0 0-2 2v6a2 2 0 0 0 2 2h2c.729 0 1.412-.195 2-.535z"/><path fill="url(#fluentColorHeadset325)" d="M8 12H6v10h2z"/><path fill="url(#fluentColorHeadset326)" d="M24 21.465A4 4 0 0 0 26 18v-6h-2z"/><defs><linearGradient id="fluentColorHeadset320" x1="13.583" x2="12.225" y1="26.833" y2="20.483" gradientUnits="userSpaceOnUse"><stop stop-color="#9CA5AD"/><stop offset="1" stop-color="#70777D"/></linearGradient><linearGradient id="fluentColorHeadset321" x1="18.25" x2="13.168" y1="29.25" y2="26.281" gradientUnits="userSpaceOnUse"><stop stop-color="#383B3D"/><stop offset="1" stop-color="#70777D"/></linearGradient><linearGradient id="fluentColorHeadset322" x1="-1.143" x2=".841" y1="2" y2="11.399" gradientUnits="userSpaceOnUse"><stop stop-color="#B9C0C7"/><stop offset="1" stop-color="#70777D"/></linearGradient><linearGradient id="fluentColorHeadset323" x1="16" x2="16" y1="12" y2="22" gradientUnits="userSpaceOnUse"><stop stop-color="#0FAFFF"/><stop offset="1" stop-color="#0067BF"/></linearGradient><linearGradient id="fluentColorHeadset324" x1="16" x2="16" y1="12" y2="22" gradientUnits="userSpaceOnUse"><stop stop-color="#0FAFFF"/><stop offset="1" stop-color="#0067BF"/></linearGradient><linearGradient id="fluentColorHeadset325" x1="16" x2="15.726" y1="12" y2="21.992" gradientUnits="userSpaceOnUse"><stop stop-color="#0078D4"/><stop offset="1" stop-color="#2052CB"/></linearGradient><linearGradient id="fluentColorHeadset326" x1="16" x2="15.726" y1="12" y2="21.992" gradientUnits="userSpaceOnUse"><stop stop-color="#0078D4"/><stop offset="1" stop-color="#2052CB"/></linearGradient></defs></g></svg>