<svg xmlns="http://www.w3.org/2000/svg" xmlns:xlink="http://www.w3.org/1999/xlink" width="32" height="32" viewBox="0 0 32 32"><g fill="none"><path fill="url(#fluentColorHeadphones320)" d="M4 15.5C4 9.149 9.149 4 15.5 4S27 9.149 27 15.5V18l1 1l1-1v-2.5C29 8.044 22.956 2 15.5 2S2 8.044 2 15.5V18l1 1l1-1z"/><path fill="url(#fluentColorHeadphones321)" d="M4 15.5C4 9.149 9.149 4 15.5 4S27 9.149 27 15.5V18l1 1l1-1v-2.5C29 8.044 22.956 2 15.5 2S2 8.044 2 15.5V18l1 1l1-1z"/><path fill="url(#fluentColorHeadphones322)" d="M2 25.5c0 1.56.794 2.935 2 3.742L6 23.5L4 18H2z"/><path fill="url(#fluentColorHeadphones323)" d="M29 25.5c0 1.56-.794 2.935-2 3.742L25 23.5l2-5.5h2z"/><path fill="url(#fluentColorHeadphones324)" d="M4 29.242V18h7a1 1 0 0 1 1 1v10a1 1 0 0 1-1 1H6.5c-.925 0-1.785-.28-2.5-.758"/><path fill="url(#fluentColorHeadphones325)" d="M27 18v11.242a4.5 4.5 0 0 1-2.5.758H20a1 1 0 0 1-1-1V19a1 1 0 0 1 1-1z"/><defs><linearGradient id="fluentColorHeadphones320" x1="-6.438" x2="1.795" y1="4.51" y2="22.656" gradientUnits="userSpaceOnUse"><stop stop-color="#CAD2D9"/><stop offset="1" stop-color="#70777D"/></linearGradient><linearGradient id="fluentColorHeadphones321" x1="-7.643" x2="-4.555" y1="2" y2="15.577" gradientUnits="userSpaceOnUse"><stop stop-color="#B9C0C7"/><stop offset="1" stop-color="#70777D"/></linearGradient><linearGradient id="fluentColorHeadphones322" x1="28" x2="28" y1="18" y2="29.242" gradientUnits="userSpaceOnUse"><stop stop-color="#0078D4"/><stop offset="1" stop-color="#2052CB"/></linearGradient><linearGradient id="fluentColorHeadphones323" x1="28" x2="28" y1="18" y2="29.242" gradientUnits="userSpaceOnUse"><stop stop-color="#0078D4"/><stop offset="1" stop-color="#2052CB"/></linearGradient><linearGradient id="fluentColorHeadphones324" x1="13.813" x2="13.813" y1="18" y2="30" gradientUnits="userSpaceOnUse"><stop stop-color="#0FAFFF"/><stop offset="1" stop-color="#0067BF"/></linearGradient><linearGradient id="fluentColorHeadphones325" x1="13.813" x2="13.813" y1="18" y2="30" gradientUnits="userSpaceOnUse"><stop stop-color="#0FAFFF"/><stop offset="1" stop-color="#0067BF"/></linearGradient></defs></g></svg>