<svg xmlns="http://www.w3.org/2000/svg" xmlns:xlink="http://www.w3.org/1999/xlink" width="16" height="16" viewBox="0 0 16 16"><g fill="none"><path fill="url(#fluentColorHeadset160)" fill-rule="evenodd" d="M3 11v-.5h1.5v.5c0 .966.784 1.75 1.75 1.75h2v1.5h-2A3.25 3.25 0 0 1 3 11" clip-rule="evenodd"/><path fill="url(#fluentColorHeadset161)" d="M9.5 13.5a1.5 1.5 0 1 1-3 0a1.5 1.5 0 0 1 3 0"/><path fill="url(#fluentColorHeadset162)" fill-rule="evenodd" d="M8 2.5A3.5 3.5 0 0 0 4.5 6v2H3V6a5 5 0 0 1 10 0v2h-1.5V6A3.5 3.5 0 0 0 8 2.5" clip-rule="evenodd"/><path fill="url(#fluentColorHeadset163)" fill-rule="evenodd" d="M3 11V7h1.5v4z" clip-rule="evenodd"/><path fill="url(#fluentColorHeadset164)" fill-rule="evenodd" d="M11.5 7H13v2.5a1.5 1.5 0 0 1-1.5 1.5z" clip-rule="evenodd"/><path fill="url(#fluentColorHeadset165)" d="M6.25 11a.75.75 0 0 0 .75-.75v-2.5A.75.75 0 0 0 6.25 7H4.5l-1 2l1 2z"/><path fill="url(#fluentColorHeadset166)" d="M9.75 7a.75.75 0 0 0-.75.75v2.5c0 .414.336.75.75.75h1.75l1-2l-1-2z"/><defs><linearGradient id="fluentColorHeadset160" x1="6.375" x2="5.671" y1="13" y2="10.341" gradientUnits="userSpaceOnUse"><stop stop-color="#9CA5AD"/><stop offset="1" stop-color="#70777D"/></linearGradient><linearGradient id="fluentColorHeadset161" x1="9.125" x2="6.584" y1="14.625" y2="13.14" gradientUnits="userSpaceOnUse"><stop stop-color="#383B3D"/><stop offset="1" stop-color="#70777D"/></linearGradient><linearGradient id="fluentColorHeadset162" x1="1.094" x2="3.82" y1="2.565" y2="8.393" gradientUnits="userSpaceOnUse"><stop stop-color="#B9C0C7"/><stop offset="1" stop-color="#70777D"/></linearGradient><linearGradient id="fluentColorHeadset163" x1="12.167" x2="12.167" y1="7" y2="11" gradientUnits="userSpaceOnUse"><stop stop-color="#0078D4"/><stop offset="1" stop-color="#2052CB"/></linearGradient><linearGradient id="fluentColorHeadset164" x1="12.167" x2="12.167" y1="7" y2="11" gradientUnits="userSpaceOnUse"><stop stop-color="#0078D4"/><stop offset="1" stop-color="#2052CB"/></linearGradient><linearGradient id="fluentColorHeadset165" x1="11.188" x2="11.188" y1="7" y2="11" gradientUnits="userSpaceOnUse"><stop stop-color="#0FAFFF"/><stop offset="1" stop-color="#0067BF"/></linearGradient><linearGradient id="fluentColorHeadset166" x1="11.188" x2="11.188" y1="7" y2="11" gradientUnits="userSpaceOnUse"><stop stop-color="#0FAFFF"/><stop offset="1" stop-color="#0067BF"/></linearGradient></defs></g></svg>