<svg xmlns="http://www.w3.org/2000/svg" xmlns:xlink="http://www.w3.org/1999/xlink" width="20" height="20" viewBox="0 0 20 20"><g fill="none"><path fill="#367AF2" d="M2.757 6.071A.5.5 0 0 0 2 6.5v8A2.5 2.5 0 0 0 4.5 17h11a2.5 2.5 0 0 0 2.5-2.5v-8a.5.5 0 0 0-.757-.429L10 10.417z"/><path fill="url(#fluentColorMail200)" d="M2.757 6.071A.5.5 0 0 0 2 6.5v8A2.5 2.5 0 0 0 4.5 17h11a2.5 2.5 0 0 0 2.5-2.5v-8a.5.5 0 0 0-.757-.429L10 10.417z"/><path fill="url(#fluentColorMail201)" d="M2.757 6.071A.5.5 0 0 0 2 6.5v8A2.5 2.5 0 0 0 4.5 17h11a2.5 2.5 0 0 0 2.5-2.5v-8a.5.5 0 0 0-.757-.429L10 10.417z"/><path fill="url(#fluentColorMail202)" fill-opacity=".75" d="M2.757 6.071A.5.5 0 0 0 2 6.5v8A2.5 2.5 0 0 0 4.5 17h11a2.5 2.5 0 0 0 2.5-2.5v-8a.5.5 0 0 0-.757-.429L10 10.417z"/><path fill="url(#fluentColorMail203)" fill-opacity=".7" d="M2.757 6.071A.5.5 0 0 0 2 6.5v8A2.5 2.5 0 0 0 4.5 17h11a2.5 2.5 0 0 0 2.5-2.5v-8a.5.5 0 0 0-.757-.429L10 10.417z"/><path fill="url(#fluentColorMail204)" d="M4.5 4A2.5 2.5 0 0 0 2 6.5v.6a.5.5 0 0 0 .247.431l7.5 4.4a.5.5 0 0 0 .506 0l7.5-4.4A.5.5 0 0 0 18 7.1v-.6A2.5 2.5 0 0 0 15.5 4z"/><defs><linearGradient id="fluentColorMail200" x1="12.031" x2="16.923" y1="8.156" y2="16.616" gradientUnits="userSpaceOnUse"><stop offset=".228" stop-color="#0094F0" stop-opacity="0"/><stop offset=".431" stop-color="#0094F0"/></linearGradient><linearGradient id="fluentColorMail201" x1="7.714" x2="2.272" y1="7.158" y2="17.134" gradientUnits="userSpaceOnUse"><stop offset=".228" stop-color="#0094F0" stop-opacity="0"/><stop offset=".431" stop-color="#0094F0"/></linearGradient><linearGradient id="fluentColorMail202" x1="14.219" x2="15.057" y1="12.563" y2="17.991" gradientUnits="userSpaceOnUse"><stop stop-color="#2764E7" stop-opacity="0"/><stop offset="1" stop-color="#2764E7"/></linearGradient><linearGradient id="fluentColorMail203" x1="12.476" x2="14.006" y1="7.351" y2="18.41" gradientUnits="userSpaceOnUse"><stop offset=".533" stop-color="#FF6CE8" stop-opacity="0"/><stop offset="1" stop-color="#FF6CE8"/></linearGradient><linearGradient id="fluentColorMail204" x1="6.753" x2="12.394" y1="1.507" y2="15.118" gradientUnits="userSpaceOnUse"><stop stop-color="#6CE0FF"/><stop offset=".462" stop-color="#29C3FF"/><stop offset="1" stop-color="#4894FE"/></linearGradient></defs></g></svg>