<svg xmlns="http://www.w3.org/2000/svg" xmlns:xlink="http://www.w3.org/1999/xlink" width="28" height="28" viewBox="0 0 28 28"><g fill="none"><path fill="#367AF2" d="M2.004 8.503V19.25A3.75 3.75 0 0 0 5.754 23H22.25A3.75 3.75 0 0 0 26 19.25V8.5l-11.658 5.972a.75.75 0 0 1-.684 0z"/><path fill="url(#fluentColorMail280)" d="M2.004 8.503V19.25A3.75 3.75 0 0 0 5.754 23H22.25A3.75 3.75 0 0 0 26 19.25V8.5l-11.658 5.972a.75.75 0 0 1-.684 0z"/><path fill="url(#fluentColorMail281)" d="M2.004 8.503V19.25A3.75 3.75 0 0 0 5.754 23H22.25A3.75 3.75 0 0 0 26 19.25V8.5l-11.658 5.972a.75.75 0 0 1-.684 0z"/><path fill="url(#fluentColorMail282)" fill-opacity=".75" d="M2.004 8.503V19.25A3.75 3.75 0 0 0 5.754 23H22.25A3.75 3.75 0 0 0 26 19.25V8.5l-11.658 5.972a.75.75 0 0 1-.684 0z"/><path fill="url(#fluentColorMail283)" fill-opacity=".7" d="M2.004 8.503V19.25A3.75 3.75 0 0 0 5.754 23H22.25A3.75 3.75 0 0 0 26 19.25V8.5l-11.658 5.972a.75.75 0 0 1-.684 0z"/><path fill="url(#fluentColorMail284)" d="M2.004 7.75A3.75 3.75 0 0 1 5.754 4H22.25A3.75 3.75 0 0 1 26 7.75v1.2l-11.658 5.972a.75.75 0 0 1-.684 0L2.004 8.953z"/><defs><linearGradient id="fluentColorMail280" x1="17.5" x2="23.168" y1="10.5" y2="23.701" gradientUnits="userSpaceOnUse"><stop offset=".199" stop-color="#0094F0" stop-opacity="0"/><stop offset=".431" stop-color="#0094F0"/></linearGradient><linearGradient id="fluentColorMail281" x1="10.574" x2="4.55" y1="10.026" y2="24.154" gradientUnits="userSpaceOnUse"><stop offset=".191" stop-color="#0094F0" stop-opacity="0"/><stop offset=".431" stop-color="#0094F0"/></linearGradient><linearGradient id="fluentColorMail282" x1="20.329" x2="21.305" y1="17.151" y2="24.345" gradientUnits="userSpaceOnUse"><stop stop-color="#2764E7" stop-opacity="0"/><stop offset="1" stop-color="#2764E7"/></linearGradient><linearGradient id="fluentColorMail283" x1="17.716" x2="19.496" y1="10.281" y2="24.921" gradientUnits="userSpaceOnUse"><stop offset=".533" stop-color="#FF6CE8" stop-opacity="0"/><stop offset="1" stop-color="#FF6CE8"/></linearGradient><linearGradient id="fluentColorMail284" x1="9.133" x2="16.477" y1=".555" y2="19.789" gradientUnits="userSpaceOnUse"><stop stop-color="#6CE0FF"/><stop offset=".462" stop-color="#29C3FF"/><stop offset="1" stop-color="#4894FE"/></linearGradient></defs></g></svg>