<svg xmlns="http://www.w3.org/2000/svg" xmlns:xlink="http://www.w3.org/1999/xlink" width="20" height="20" viewBox="0 0 20 20"><g fill="none"><path fill="#1B44B1" d="M4 7.5v7A2.5 2.5 0 0 0 6.5 17h7a4.5 4.5 0 0 0 4.5-4.5v-5A2.5 2.5 0 0 0 15.5 5h-9A2.5 2.5 0 0 0 4 7.5"/><path fill="#367AF2" d="M2 5.5v7A2.5 2.5 0 0 0 4.5 15h9a2.5 2.5 0 0 0 2.5-2.5v-7z"/><path fill="url(#fluentColorMailMultiple200)" d="M2 5.5v7A2.5 2.5 0 0 0 4.5 15h9a2.5 2.5 0 0 0 2.5-2.5v-7z"/><path fill="url(#fluentColorMailMultiple201)" d="M2 5.5v7A2.5 2.5 0 0 0 4.5 15h9a2.5 2.5 0 0 0 2.5-2.5v-7z"/><path fill="url(#fluentColorMailMultiple202)" fill-opacity=".75" d="M2 5.5v7A2.5 2.5 0 0 0 4.5 15h9a2.5 2.5 0 0 0 2.5-2.5v-7z"/><path fill="url(#fluentColorMailMultiple203)" fill-opacity=".7" d="M2 5.5v7A2.5 2.5 0 0 0 4.5 15h9a2.5 2.5 0 0 0 2.5-2.5v-7z"/><path fill="url(#fluentColorMailMultiple204)" d="M16 5.5A2.5 2.5 0 0 0 13.5 3h-9A2.5 2.5 0 0 0 2 5.5v1l6.746 3.431l.082.038a.5.5 0 0 0 .426-.038L16 6.5z"/><defs><linearGradient id="fluentColorMailMultiple200" x1="10.777" x2="14.975" y1="7.362" y2="14.716" gradientUnits="userSpaceOnUse"><stop offset=".228" stop-color="#0094F0" stop-opacity="0"/><stop offset=".431" stop-color="#0094F0"/></linearGradient><linearGradient id="fluentColorMailMultiple201" x1="7" x2="2.333" y1="6.5" y2="15.167" gradientUnits="userSpaceOnUse"><stop offset=".228" stop-color="#0094F0" stop-opacity="0"/><stop offset=".431" stop-color="#0094F0"/></linearGradient><linearGradient id="fluentColorMailMultiple202" x1="12.391" x2="13.408" y1="10.25" y2="15.858" gradientUnits="userSpaceOnUse"><stop stop-color="#2764E7" stop-opacity="0"/><stop offset="1" stop-color="#2764E7"/></linearGradient><linearGradient id="fluentColorMailMultiple203" x1="11.167" x2="12.472" y1="6.667" y2="16.222" gradientUnits="userSpaceOnUse"><stop offset=".533" stop-color="#DD3CE2" stop-opacity="0"/><stop offset="1" stop-color="#DD3CE2"/></linearGradient><linearGradient id="fluentColorMailMultiple204" x1="6.159" x2="11.095" y1=".818" y2="12.729" gradientUnits="userSpaceOnUse"><stop stop-color="#6CE0FF"/><stop offset=".462" stop-color="#29C3FF"/><stop offset="1" stop-color="#4894FE"/></linearGradient></defs></g></svg>