<svg xmlns="http://www.w3.org/2000/svg" xmlns:xlink="http://www.w3.org/1999/xlink" width="32" height="32" viewBox="0 0 32 32"><g fill="none"><path fill="url(#fluentColorMic320)" d="M7 15a1 1 0 0 1 1 1a8 8 0 1 0 16 0a1 1 0 1 1 2 0c0 5.186-3.947 9.45-9.001 9.95L17 26v3a1 1 0 1 1-2 0v-3l.001-.05C9.947 25.45 6 21.187 6 16a1 1 0 0 1 1-1"/><path fill="url(#fluentColorMic321)" d="M10 8a6 6 0 0 1 12 0v8a6 6 0 0 1-12 0z"/><defs><linearGradient id="fluentColorMic320" x1="6" x2="15.227" y1="8.56" y2="31.59" gradientUnits="userSpaceOnUse"><stop stop-color="#CAD2D9"/><stop offset="1" stop-color="#70777D"/></linearGradient><linearGradient id="fluentColorMic321" x1="7" x2="17.069" y1="-2.545" y2="33.449" gradientUnits="userSpaceOnUse"><stop stop-color="#0FAFFF"/><stop offset="1" stop-color="#CC23D1"/></linearGradient></defs></g></svg>