<svg xmlns="http://www.w3.org/2000/svg" xmlns:xlink="http://www.w3.org/1999/xlink" width="28" height="28" viewBox="0 0 28 28"><g fill="none"><path fill="url(#fluentColorMolecule280)" d="m8.927 13.68l5-3.5l1.147 1.64l-5 3.5z"/><path fill="url(#fluentColorMolecule285)" d="m8.927 13.68l5-3.5l1.147 1.64l-5 3.5z"/><path fill="url(#fluentColorMolecule286)" d="m8.927 13.68l5-3.5l1.147 1.64l-5 3.5z"/><path fill="url(#fluentColorMolecule281)" d="m15.496 21.864l-6-3.5l1.008-1.728l6 3.5z"/><path fill="url(#fluentColorMolecule287)" d="m15.496 21.864l-6-3.5l1.008-1.728l6 3.5z"/><path fill="url(#fluentColorMolecule288)" d="m15.496 21.864l-6-3.5l1.008-1.728l6 3.5z"/><circle cx="19" cy="8" r="6" fill="url(#fluentColorMolecule282)"/><circle cx="6.5" cy="15.5" r="4.5" fill="url(#fluentColorMolecule283)"/><circle cx="18.5" cy="22.5" r="3.5" fill="url(#fluentColorMolecule284)"/><defs><linearGradient id="fluentColorMolecule280" x1="8.927" x2="10.52" y1="10.181" y2="15.627" gradientUnits="userSpaceOnUse"><stop stop-color="#B9C0C7"/><stop offset="1" stop-color="#70777D"/></linearGradient><linearGradient id="fluentColorMolecule281" x1="9.496" x2="10.966" y1="16.636" y2="22.267" gradientUnits="userSpaceOnUse"><stop stop-color="#B9C0C7"/><stop offset="1" stop-color="#70777D"/></linearGradient><linearGradient id="fluentColorMolecule282" x1="13.429" x2="21.71" y1="4.25" y2="12.854" gradientUnits="userSpaceOnUse"><stop stop-color="#2BDABE"/><stop offset="1" stop-color="#22918B"/></linearGradient><linearGradient id="fluentColorMolecule283" x1="2.321" x2="8.533" y1="12.688" y2="19.141" gradientUnits="userSpaceOnUse"><stop stop-color="#EC318F"/><stop offset="1" stop-color="#B91D6B"/></linearGradient><linearGradient id="fluentColorMolecule284" x1="16.094" x2="20.688" y1="17.906" y2="26.656" gradientUnits="userSpaceOnUse"><stop stop-color="#FFCD0F"/><stop offset="1" stop-color="#FE8401"/></linearGradient><radialGradient id="fluentColorMolecule285" cx="0" cy="0" r="1" gradientTransform="matrix(-6 4.50001 -5.38492 -7.17986 19 8)" gradientUnits="userSpaceOnUse"><stop offset=".605" stop-color="#70777D"/><stop offset="1" stop-color="#70777D" stop-opacity="0"/></radialGradient><radialGradient id="fluentColorMolecule286" cx="0" cy="0" r="1" gradientTransform="matrix(5 -2.5 2.99162 5.98322 6.5 15.5)" gradientUnits="userSpaceOnUse"><stop offset=".652" stop-color="#70777D"/><stop offset="1" stop-color="#70777D" stop-opacity="0"/></radialGradient><radialGradient id="fluentColorMolecule287" cx="0" cy="0" r="1" gradientTransform="rotate(-147.995 12.476 8.597)scale(4.71699 4.1059)" gradientUnits="userSpaceOnUse"><stop offset=".584" stop-color="#70777D"/><stop offset="1" stop-color="#70777D" stop-opacity="0"/></radialGradient><radialGradient id="fluentColorMolecule288" cx="0" cy="0" r="1" gradientTransform="matrix(5 3 -3.74184 6.23639 6.5 15.5)" gradientUnits="userSpaceOnUse"><stop offset=".709" stop-color="#70777D"/><stop offset="1" stop-color="#70777D" stop-opacity="0"/></radialGradient></defs></g></svg>