<svg xmlns="http://www.w3.org/2000/svg" xmlns:xlink="http://www.w3.org/1999/xlink" width="24" height="24" viewBox="0 0 24 24"><g fill="none"><path fill="url(#fluentColorMolecule240)" d="m6.584 12.876l8.25-5.5l.832 1.248l-8.25 5.5z"/><path fill="url(#fluentColorMolecule245)" d="m6.584 12.876l8.25-5.5l.832 1.248l-8.25 5.5z"/><path fill="url(#fluentColorMolecule246)" d="m6.584 12.876l8.25-5.5l.832 1.248l-8.25 5.5z"/><path fill="url(#fluentColorMolecule241)" d="m15.665 19.67l-10-5l.67-1.34l10 5z"/><path fill="url(#fluentColorMolecule247)" d="m15.665 19.67l-10-5l.67-1.34l10 5z"/><path fill="url(#fluentColorMolecule248)" d="m15.665 19.67l-10-5l.67-1.34l10 5z"/><circle cx="16" cy="7" r="5" fill="url(#fluentColorMolecule242)"/><circle cx="6" cy="14" r="4" fill="url(#fluentColorMolecule243)"/><circle cx="16" cy="19" r="3" fill="url(#fluentColorMolecule244)"/><defs><linearGradient id="fluentColorMolecule240" x1="6.584" x2="8.475" y1="7.376" y2="14.648" gradientUnits="userSpaceOnUse"><stop stop-color="#B9C0C7"/><stop offset="1" stop-color="#70777D"/></linearGradient><linearGradient id="fluentColorMolecule241" x1="5.665" x2="7.12" y1="13.329" y2="20.323" gradientUnits="userSpaceOnUse"><stop stop-color="#B9C0C7"/><stop offset="1" stop-color="#70777D"/></linearGradient><linearGradient id="fluentColorMolecule242" x1="11.357" x2="18.258" y1="3.875" y2="11.045" gradientUnits="userSpaceOnUse"><stop stop-color="#2BDABE"/><stop offset="1" stop-color="#22918B"/></linearGradient><linearGradient id="fluentColorMolecule243" x1="2.286" x2="7.807" y1="11.5" y2="17.236" gradientUnits="userSpaceOnUse"><stop stop-color="#EC318F"/><stop offset="1" stop-color="#B91D6B"/></linearGradient><linearGradient id="fluentColorMolecule244" x1="13.938" x2="17.875" y1="15.063" y2="22.563" gradientUnits="userSpaceOnUse"><stop stop-color="#FFCD0F"/><stop offset="1" stop-color="#FE8401"/></linearGradient><radialGradient id="fluentColorMolecule245" cx="0" cy="0" r="1" gradientTransform="matrix(-5.50003 3.99997 -4.56477 -6.27664 16 7)" gradientUnits="userSpaceOnUse"><stop offset=".628" stop-color="#70777D"/><stop offset="1" stop-color="#70777D" stop-opacity="0"/></radialGradient><radialGradient id="fluentColorMolecule246" cx="0" cy="0" r="1" gradientTransform="matrix(4.5 -3 3.4236 5.1354 6 14)" gradientUnits="userSpaceOnUse"><stop offset=".563" stop-color="#70777D"/><stop offset="1" stop-color="#70777D" stop-opacity="0"/></radialGradient><radialGradient id="fluentColorMolecule247" cx="0" cy="0" r="1" gradientTransform="matrix(-4 -2 2.18494 -4.3699 16 19)" gradientUnits="userSpaceOnUse"><stop offset=".563" stop-color="#70777D"/><stop offset="1" stop-color="#70777D" stop-opacity="0"/></radialGradient><radialGradient id="fluentColorMolecule248" cx="0" cy="0" r="1" gradientTransform="matrix(5 2.5 -2.4842 4.9684 6 14)" gradientUnits="userSpaceOnUse"><stop offset=".677" stop-color="#70777D"/><stop offset="1" stop-color="#70777D" stop-opacity="0"/></radialGradient></defs></g></svg>