<svg xmlns="http://www.w3.org/2000/svg" xmlns:xlink="http://www.w3.org/1999/xlink" width="48" height="48" viewBox="0 0 48 48"><g fill="none"><path fill="url(#fluentColorMolecule480)" d="m14.668 24.752l12-8l1.664 2.496l-12 8z"/><path fill="url(#fluentColorMolecule485)" d="m14.668 24.752l12-8l1.664 2.496l-12 8z"/><path fill="url(#fluentColorMolecule486)" d="m14.668 24.752l12-8l1.664 2.496l-12 8z"/><path fill="url(#fluentColorMolecule481)" d="m28.33 37.842l-12-6l1.34-2.684l12 6z"/><path fill="url(#fluentColorMolecule487)" d="m28.33 37.842l-12-6l1.34-2.684l12 6z"/><path fill="url(#fluentColorMolecule488)" d="m28.33 37.842l-12-6l1.34-2.684l12 6z"/><circle cx="32" cy="14" r="10" fill="url(#fluentColorMolecule482)"/><circle cx="12" cy="28" r="8" fill="url(#fluentColorMolecule483)"/><circle cx="32" cy="38" r="6" fill="url(#fluentColorMolecule484)"/><defs><linearGradient id="fluentColorMolecule480" x1="14.668" x2="17.696" y1="16.752" y2="28.014" gradientUnits="userSpaceOnUse"><stop stop-color="#B9C0C7"/><stop offset="1" stop-color="#70777D"/></linearGradient><linearGradient id="fluentColorMolecule481" x1="16.329" x2="18.492" y1="29.158" y2="38.656" gradientUnits="userSpaceOnUse"><stop stop-color="#B9C0C7"/><stop offset="1" stop-color="#70777D"/></linearGradient><linearGradient id="fluentColorMolecule482" x1="22.714" x2="36.517" y1="7.75" y2="22.09" gradientUnits="userSpaceOnUse"><stop stop-color="#2BDABE"/><stop offset="1" stop-color="#22918B"/></linearGradient><linearGradient id="fluentColorMolecule483" x1="4.571" x2="15.613" y1="23" y2="34.472" gradientUnits="userSpaceOnUse"><stop stop-color="#EC318F"/><stop offset="1" stop-color="#B91D6B"/></linearGradient><linearGradient id="fluentColorMolecule484" x1="27.875" x2="35.75" y1="30.125" y2="45.125" gradientUnits="userSpaceOnUse"><stop stop-color="#FFCD0F"/><stop offset="1" stop-color="#FE8401"/></linearGradient><radialGradient id="fluentColorMolecule485" cx="0" cy="0" r="1" gradientTransform="rotate(143.13 13.667 12.333)scale(12.5 14.4743)" gradientUnits="userSpaceOnUse"><stop offset=".688" stop-color="#70777D"/><stop offset="1" stop-color="#70777D" stop-opacity="0"/></radialGradient><radialGradient id="fluentColorMolecule486" cx="0" cy="0" r="1" gradientTransform="matrix(8 -5 5.78976 9.26362 12 28)" gradientUnits="userSpaceOnUse"><stop offset=".737" stop-color="#70777D"/><stop offset="1" stop-color="#70777D" stop-opacity="0"/></radialGradient><radialGradient id="fluentColorMolecule487" cx="0" cy="0" r="1" gradientTransform="matrix(-7 -4.00002 3.99047 -6.98329 32 38)" gradientUnits="userSpaceOnUse"><stop offset=".563" stop-color="#70777D"/><stop offset="1" stop-color="#70777D" stop-opacity="0"/></radialGradient><radialGradient id="fluentColorMolecule488" cx="0" cy="0" r="1" gradientTransform="matrix(8.5 4.5 -4.89701 9.2499 12 28)" gradientUnits="userSpaceOnUse"><stop offset=".798" stop-color="#70777D"/><stop offset="1" stop-color="#70777D" stop-opacity="0"/></radialGradient></defs></g></svg>