<svg xmlns="http://www.w3.org/2000/svg" xmlns:xlink="http://www.w3.org/1999/xlink" width="16" height="16" viewBox="0 0 16 16"><g fill="none"><path fill="url(#fluentColorMolecule160)" d="m3.665 8.33l7-3.5l.67 1.34l-7 3.5z"/><path fill="url(#fluentColorMolecule165)" d="m3.665 8.33l7-3.5l.67 1.34l-7 3.5z"/><path fill="url(#fluentColorMolecule166)" d="m3.665 8.33l7-3.5l.67 1.34l-7 3.5z"/><path fill="url(#fluentColorMolecule161)" d="m11.165 13.17l-6-3l.67-1.34l6 3z"/><path fill="url(#fluentColorMolecule167)" d="m11.165 13.17l-6-3l.67-1.34l6 3z"/><path fill="url(#fluentColorMolecule168)" d="m11.165 13.17l-6-3l.67-1.34l6 3z"/><circle cx="11" cy="5" r="3" fill="url(#fluentColorMolecule162)"/><circle cx="4.5" cy="9.5" r="2.5" fill="url(#fluentColorMolecule163)"/><circle cx="11" cy="12" r="2" fill="url(#fluentColorMolecule164)"/><defs><linearGradient id="fluentColorMolecule160" x1="3.665" x2="4.838" y1="4.829" y2="10.141" gradientUnits="userSpaceOnUse"><stop stop-color="#B9C0C7"/><stop offset="1" stop-color="#70777D"/></linearGradient><linearGradient id="fluentColorMolecule161" x1="5.165" x2="6.247" y1="8.829" y2="13.578" gradientUnits="userSpaceOnUse"><stop stop-color="#B9C0C7"/><stop offset="1" stop-color="#70777D"/></linearGradient><linearGradient id="fluentColorMolecule162" x1="8.214" x2="12.355" y1="3.125" y2="7.427" gradientUnits="userSpaceOnUse"><stop stop-color="#2BDABE"/><stop offset="1" stop-color="#22918B"/></linearGradient><linearGradient id="fluentColorMolecule163" x1="2.179" x2="5.629" y1="7.938" y2="11.523" gradientUnits="userSpaceOnUse"><stop stop-color="#EC318F"/><stop offset="1" stop-color="#B91D6B"/></linearGradient><linearGradient id="fluentColorMolecule164" x1="9.625" x2="12.25" y1="9.375" y2="14.375" gradientUnits="userSpaceOnUse"><stop stop-color="#FFCD0F"/><stop offset="1" stop-color="#FE8401"/></linearGradient><radialGradient id="fluentColorMolecule165" cx="0" cy="0" r="1" gradientTransform="matrix(-3 2 -2.09924 -3.14887 11 5)" gradientUnits="userSpaceOnUse"><stop offset=".633" stop-color="#70777D"/><stop offset="1" stop-color="#70777D" stop-opacity="0"/></radialGradient><radialGradient id="fluentColorMolecule166" cx="0" cy="0" r="1" gradientTransform="matrix(2.5 -2 2.09924 2.62406 4.5 9.5)" gradientUnits="userSpaceOnUse"><stop offset=".563" stop-color="#70777D"/><stop offset="1" stop-color="#70777D" stop-opacity="0"/></radialGradient><radialGradient id="fluentColorMolecule167" cx="0" cy="0" r="1" gradientTransform="matrix(-2.5 -.99998 .9976 -2.49404 11 12)" gradientUnits="userSpaceOnUse"><stop offset=".438" stop-color="#70777D"/><stop offset="1" stop-color="#70777D" stop-opacity="0"/></radialGradient><radialGradient id="fluentColorMolecule168" cx="0" cy="0" r="1" gradientTransform="matrix(3.5 1 -1.08822 3.80878 4.5 9.5)" gradientUnits="userSpaceOnUse"><stop offset=".563" stop-color="#70777D"/><stop offset="1" stop-color="#70777D" stop-opacity="0"/></radialGradient></defs></g></svg>