<svg xmlns="http://www.w3.org/2000/svg" xmlns:xlink="http://www.w3.org/1999/xlink" width="24" height="24" viewBox="0 0 24 24"><g fill="none"><path fill="url(#fluentColorNews246)" d="M19.75 7a2.25 2.25 0 0 1 2.245 2.096L22 9.25v7.5a3.25 3.25 0 0 1-3.066 3.245L18.75 20h-.25V7z"/><path fill="url(#fluentColorNews240)" d="M18.75 20H5.25a3.25 3.25 0 0 1-3.245-3.066L2 16.75V6.25a2.25 2.25 0 0 1 2.096-2.245L4.25 4h12.5a2.25 2.25 0 0 1 2.245 2.096L19 19.99l-.066.004z"/><path fill="url(#fluentColorNews241)" d="M18.75 20H5.25a3.25 3.25 0 0 1-3.245-3.066L2 16.75V6.25a2.25 2.25 0 0 1 2.096-2.245L4.25 4h12.5a2.25 2.25 0 0 1 2.245 2.096L19 19.99l-.066.004z"/><path fill="url(#fluentColorNews242)" d="M18.75 20H5.25a3.25 3.25 0 0 1-3.245-3.066L2 16.75V6.25a2.25 2.25 0 0 1 2.096-2.245L4.25 4h12.5a2.25 2.25 0 0 1 2.245 2.096L19 19.99l-.066.004z"/><path fill="url(#fluentColorNews243)" d="M9.244 11.005a.75.75 0 0 1 .75.75v3.495a.75.75 0 0 1-.75.75H5.748a.75.75 0 0 1-.75-.75v-3.495a.75.75 0 0 1 .75-.75z"/><path fill="url(#fluentColorNews244)" d="M12.246 14.5h3.006a.75.75 0 0 1 .102 1.493l-.102.007h-3.006a.75.75 0 0 1-.102-1.493zh3.006zm0-3.495h3.006a.75.75 0 0 1 .102 1.493l-.102.007h-3.006a.75.75 0 0 1-.102-1.494zh3.006z"/><path fill="url(#fluentColorNews245)" d="M5.748 7.502h9.504a.75.75 0 0 1 .102 1.494l-.101.006H5.747a.75.75 0 0 1-.102-1.493zh9.504z"/><defs><linearGradient id="fluentColorNews240" x1="6.857" x2="19.923" y1="1.538" y2="18.667" gradientUnits="userSpaceOnUse"><stop stop-color="#3BD5FF"/><stop offset="1" stop-color="#367AF2"/></linearGradient><linearGradient id="fluentColorNews241" x1="11.714" x2="11.714" y1="16.923" y2="20" gradientUnits="userSpaceOnUse"><stop offset=".181" stop-color="#2764E7" stop-opacity="0"/><stop offset="1" stop-color="#2764E7"/></linearGradient><linearGradient id="fluentColorNews242" x1="11.107" x2="17.197" y1="8.923" y2="24.439" gradientUnits="userSpaceOnUse"><stop stop-color="#DCF8FF" stop-opacity="0"/><stop offset="1" stop-color="#FF6CE8" stop-opacity=".7"/></linearGradient><linearGradient id="fluentColorNews243" x1="5.475" x2="7.973" y1="10.76" y2="15.762" gradientUnits="userSpaceOnUse"><stop stop-color="#DEFCFF"/><stop offset="1" stop-color="#9FF0F9"/></linearGradient><linearGradient id="fluentColorNews244" x1="11.89" x2="12.806" y1="11.092" y2="16.418" gradientUnits="userSpaceOnUse"><stop stop-color="#FDFDFD"/><stop offset="1" stop-color="#CCEAFF"/></linearGradient><linearGradient id="fluentColorNews245" x1="-10.126" x2="-10.085" y1="6.421" y2="9.304" gradientUnits="userSpaceOnUse"><stop stop-color="#FDFDFD"/><stop offset="1" stop-color="#CCEAFF"/></linearGradient><radialGradient id="fluentColorNews246" cx="0" cy="0" r="1" gradientTransform="rotate(128.069 9.87 10.343)scale(9.08199 13.4374)" gradientUnits="userSpaceOnUse"><stop stop-color="#068BEB"/><stop offset=".617" stop-color="#0056CF"/><stop offset=".974" stop-color="#0027A7"/></radialGradient></defs></g></svg>