<svg xmlns="http://www.w3.org/2000/svg" xmlns:xlink="http://www.w3.org/1999/xlink" width="24" height="24" viewBox="0 0 24 24"><g fill="none"><path fill="url(#fluentColorOrg246)" fill-rule="evenodd" d="M11 11.5v-3h1.5v3h3.25A2.25 2.25 0 0 1 18 13.75V16h-1.5v-2.25a.75.75 0 0 0-.75-.75h-8a.75.75 0 0 0-.75.75V16H5.5v-2.25a2.25 2.25 0 0 1 2.25-2.25z" clip-rule="evenodd"/><path fill="url(#fluentColorOrg240)" fill-rule="evenodd" d="M11 11.5v-3h1.5v3h3.25A2.25 2.25 0 0 1 18 13.75V16h-1.5v-2.25a.75.75 0 0 0-.75-.75h-8a.75.75 0 0 0-.75.75V16H5.5v-2.25a2.25 2.25 0 0 1 2.25-2.25z" clip-rule="evenodd"/><path fill="url(#fluentColorOrg241)" fill-rule="evenodd" d="M11 11.5v-3h1.5v3h3.25A2.25 2.25 0 0 1 18 13.75V16h-1.5v-2.25a.75.75 0 0 0-.75-.75h-8a.75.75 0 0 0-.75.75V16H5.5v-2.25a2.25 2.25 0 0 1 2.25-2.25z" clip-rule="evenodd"/><path fill="url(#fluentColorOrg242)" fill-rule="evenodd" d="M11 11.5v-3h1.5v3h3.25A2.25 2.25 0 0 1 18 13.75V16h-1.5v-2.25a.75.75 0 0 0-.75-.75h-8a.75.75 0 0 0-.75.75V16H5.5v-2.25a2.25 2.25 0 0 1 2.25-2.25z" clip-rule="evenodd"/><path fill="url(#fluentColorOrg243)" d="M10 18.25a3.75 3.75 0 1 1-7.5 0a3.75 3.75 0 0 1 7.5 0"/><path fill="url(#fluentColorOrg244)" d="M21 18.25a3.75 3.75 0 1 1-7.5 0a3.75 3.75 0 0 1 7.5 0"/><path fill="url(#fluentColorOrg245)" d="M15.5 5.75a3.75 3.75 0 1 1-7.5 0a3.75 3.75 0 0 1 7.5 0"/><defs><radialGradient id="fluentColorOrg240" cx="0" cy="0" r="1" gradientTransform="matrix(0 4.5613 -7.60216 0 11.75 6.246)" gradientUnits="userSpaceOnUse"><stop offset=".553" stop-color="#70777D"/><stop offset="1" stop-color="#70777D" stop-opacity="0"/></radialGradient><radialGradient id="fluentColorOrg241" cx="0" cy="0" r="1" gradientTransform="matrix(-.01956 -4.66947 7.78243 -.0326 6.125 17.75)" gradientUnits="userSpaceOnUse"><stop offset=".549" stop-color="#70777D"/><stop offset="1" stop-color="#70777D" stop-opacity="0"/></radialGradient><radialGradient id="fluentColorOrg242" cx="0" cy="0" r="1" gradientTransform="matrix(.03906 -4.61538 7.69222 .0651 17.355 17.73)" gradientUnits="userSpaceOnUse"><stop offset=".549" stop-color="#70777D"/><stop offset="1" stop-color="#70777D" stop-opacity="0"/></radialGradient><radialGradient id="fluentColorOrg243" cx="0" cy="0" r="1" gradientTransform="rotate(53.616 -7.092 1.06)scale(20.282 17.3706)" gradientUnits="userSpaceOnUse"><stop offset=".529" stop-color="#1EC8B0"/><stop offset="1" stop-color="#1A7F7C"/></radialGradient><radialGradient id="fluentColorOrg244" cx="0" cy="0" r="1" gradientTransform="rotate(53.616 -1.592 11.945)scale(20.282 17.3706)" gradientUnits="userSpaceOnUse"><stop offset=".529" stop-color="#7B7BFF"/><stop offset="1" stop-color="#4A43CB"/></radialGradient><radialGradient id="fluentColorOrg245" cx="0" cy="0" r="1" gradientTransform="rotate(53.616 8.027 .253)scale(20.282 17.3706)" gradientUnits="userSpaceOnUse"><stop offset=".529" stop-color="#0FAFFF"/><stop offset="1" stop-color="#0067BF"/></radialGradient><linearGradient id="fluentColorOrg246" x1="5.5" x2="7.236" y1="8.5" y2="16.765" gradientUnits="userSpaceOnUse"><stop stop-color="#B9C0C7"/><stop offset="1" stop-color="#70777D"/></linearGradient></defs></g></svg>