<svg xmlns="http://www.w3.org/2000/svg" xmlns:xlink="http://www.w3.org/1999/xlink" width="16" height="16" viewBox="0 0 16 16"><g fill="none"><path fill="url(#fluentColorOrg166)" fill-rule="evenodd" d="M7.25 7V5h1.5v2h1.5c.966 0 1.75.784 1.75 1.75v2.75h-1.5V8.75a.25.25 0 0 0-.25-.25h-4.5a.25.25 0 0 0-.25.25v2.75H4V8.75C4 7.784 4.784 7 5.75 7z" clip-rule="evenodd"/><path fill="url(#fluentColorOrg160)" fill-rule="evenodd" d="M7.25 7V5h1.5v2h1.5c.966 0 1.75.784 1.75 1.75v2.75h-1.5V8.75a.25.25 0 0 0-.25-.25h-4.5a.25.25 0 0 0-.25.25v2.75H4V8.75C4 7.784 4.784 7 5.75 7z" clip-rule="evenodd"/><path fill="url(#fluentColorOrg161)" fill-rule="evenodd" d="M7.25 7V5h1.5v2h1.5c.966 0 1.75.784 1.75 1.75v2.75h-1.5V8.75a.25.25 0 0 0-.25-.25h-4.5a.25.25 0 0 0-.25.25v2.75H4V8.75C4 7.784 4.784 7 5.75 7z" clip-rule="evenodd"/><path fill="url(#fluentColorOrg162)" fill-rule="evenodd" d="M7.25 7V5h1.5v2h1.5c.966 0 1.75.784 1.75 1.75v2.75h-1.5V8.75a.25.25 0 0 0-.25-.25h-4.5a.25.25 0 0 0-.25.25v2.75H4V8.75C4 7.784 4.784 7 5.75 7z" clip-rule="evenodd"/><path fill="url(#fluentColorOrg163)" d="M7.25 12.5a2.5 2.5 0 1 1-5 0a2.5 2.5 0 0 1 5 0"/><path fill="url(#fluentColorOrg164)" d="M13.754 12.5a2.5 2.5 0 1 1-5 0a2.5 2.5 0 0 1 5 0"/><path fill="url(#fluentColorOrg165)" d="M10.5 3.5a2.5 2.5 0 1 1-5 0a2.5 2.5 0 0 1 5 0"/><defs><radialGradient id="fluentColorOrg160" cx="0" cy="0" r="1" gradientTransform="matrix(0 3.95312 -4.86538 0 8 3.047)" gradientUnits="userSpaceOnUse"><stop offset=".621" stop-color="#70777D"/><stop offset="1" stop-color="#70777D" stop-opacity="0"/></radialGradient><radialGradient id="fluentColorOrg161" cx="0" cy="0" r="1" gradientTransform="matrix(-.0125 -4.04687 4.9808 -.01539 4.4 13.016)" gradientUnits="userSpaceOnUse"><stop offset=".549" stop-color="#70777D"/><stop offset="1" stop-color="#70777D" stop-opacity="0"/></radialGradient><radialGradient id="fluentColorOrg162" cx="0" cy="0" r="1" gradientTransform="matrix(.025 -4 4.92318 .03077 11.588 13)" gradientUnits="userSpaceOnUse"><stop offset=".549" stop-color="#70777D"/><stop offset="1" stop-color="#70777D" stop-opacity="0"/></radialGradient><radialGradient id="fluentColorOrg163" cx="0" cy="0" r="1" gradientTransform="rotate(53.616 -4.766 1.45)scale(13.5213 11.5804)" gradientUnits="userSpaceOnUse"><stop offset=".529" stop-color="#1EC8B0"/><stop offset="1" stop-color="#1A7F7C"/></radialGradient><radialGradient id="fluentColorOrg164" cx="0" cy="0" r="1" gradientTransform="rotate(53.616 -1.514 7.886)scale(13.5213 11.5804)" gradientUnits="userSpaceOnUse"><stop offset=".529" stop-color="#7B7BFF"/><stop offset="1" stop-color="#4A43CB"/></radialGradient><radialGradient id="fluentColorOrg165" cx="0" cy="0" r="1" gradientTransform="rotate(53.616 5.764 .167)scale(13.5213 11.5804)" gradientUnits="userSpaceOnUse"><stop offset=".529" stop-color="#0FAFFF"/><stop offset="1" stop-color="#0067BF"/></radialGradient><linearGradient id="fluentColorOrg166" x1="4" x2="5.968" y1="5" y2="11.919" gradientUnits="userSpaceOnUse"><stop stop-color="#B9C0C7"/><stop offset="1" stop-color="#70777D"/></linearGradient></defs></g></svg>