<svg xmlns="http://www.w3.org/2000/svg" xmlns:xlink="http://www.w3.org/1999/xlink" width="20" height="20" viewBox="0 0 20 20"><g fill="none"><g clip-path="url(#fluentColorPeopleHome209)"><path fill="url(#fluentColorPeopleHome200)" d="M5.009 11A2 2 0 0 0 3 13c0 1.691.833 2.966 2.135 3.797C6.417 17.614 8.145 18 10 18s3.583-.386 4.865-1.203C16.167 15.967 17 14.69 17 13a2 2 0 0 0-2-2z"/><path fill="url(#fluentColorPeopleHome201)" d="M5.009 11A2 2 0 0 0 3 13c0 1.691.833 2.966 2.135 3.797C6.417 17.614 8.145 18 10 18s3.583-.386 4.865-1.203C16.167 15.967 17 14.69 17 13a2 2 0 0 0-2-2z"/><path fill="url(#fluentColorPeopleHome206)" fill-opacity=".75" d="M5.009 11A2 2 0 0 0 3 13c0 1.691.833 2.966 2.135 3.797C6.417 17.614 8.145 18 10 18s3.583-.386 4.865-1.203C16.167 15.967 17 14.69 17 13a2 2 0 0 0-2-2z"/><path fill="url(#fluentColorPeopleHome207)" fill-opacity=".55" d="M5.009 11A2 2 0 0 0 3 13c0 1.691.833 2.966 2.135 3.797C6.417 17.614 8.145 18 10 18s3.583-.386 4.865-1.203C16.167 15.967 17 14.69 17 13a2 2 0 0 0-2-2z"/><path fill="url(#fluentColorPeopleHome208)" fill-opacity=".55" d="M5.009 11A2 2 0 0 0 3 13c0 1.691.833 2.966 2.135 3.797C6.417 17.614 8.145 18 10 18s3.583-.386 4.865-1.203C16.167 15.967 17 14.69 17 13a2 2 0 0 0-2-2z"/><path fill="url(#fluentColorPeopleHome202)" d="M10 2a4 4 0 1 0 0 8a4 4 0 0 0 0-8"/><path fill="url(#fluentColorPeopleHome203)" d="M14 15h3v4h-3z"/><path fill="url(#fluentColorPeopleHome204)" d="M12 15.46c0-.292.127-.569.349-.759l2.826-2.422a.5.5 0 0 1 .651 0l2.825 2.422c.221.19.349.467.349.76v3.04a.5.5 0 0 1-.5.5l-2-.001v-2.5a.5.5 0 0 0-.5-.5h-1a.5.5 0 0 0-.5.5V19h-2a.5.5 0 0 1-.5-.5z"/><path fill="url(#fluentColorPeopleHome205)" fill-rule="evenodd" d="M14.518 11.359a1.5 1.5 0 0 1 1.964 0l3.26 2.824a.75.75 0 1 1-.983 1.134L15.5 12.492l-3.259 2.825a.75.75 0 1 1-.982-1.134z" clip-rule="evenodd"/></g><defs><linearGradient id="fluentColorPeopleHome200" x1="6.329" x2="8.591" y1="11.931" y2="19.153" gradientUnits="userSpaceOnUse"><stop offset=".125" stop-color="#9C6CFE"/><stop offset="1" stop-color="#7A41DC"/></linearGradient><linearGradient id="fluentColorPeopleHome201" x1="10" x2="13.167" y1="10.167" y2="22" gradientUnits="userSpaceOnUse"><stop stop-color="#885EDB" stop-opacity="0"/><stop offset="1" stop-color="#E362F8"/></linearGradient><linearGradient id="fluentColorPeopleHome202" x1="7.902" x2="11.979" y1="3.063" y2="9.574" gradientUnits="userSpaceOnUse"><stop offset=".125" stop-color="#9C6CFE"/><stop offset="1" stop-color="#7A41DC"/></linearGradient><linearGradient id="fluentColorPeopleHome203" x1="15.5" x2="12.853" y1="15" y2="19.413" gradientUnits="userSpaceOnUse"><stop stop-color="#944600"/><stop offset="1" stop-color="#CD8E02"/></linearGradient><linearGradient id="fluentColorPeopleHome204" x1="11.764" x2="18.118" y1="12.349" y2="18.864" gradientUnits="userSpaceOnUse"><stop stop-color="#FFD394"/><stop offset="1" stop-color="#FFB357"/></linearGradient><linearGradient id="fluentColorPeopleHome205" x1="15.929" x2="15.193" y1="9.711" y2="15.112" gradientUnits="userSpaceOnUse"><stop stop-color="#FF921F"/><stop offset="1" stop-color="#EB4824"/></linearGradient><radialGradient id="fluentColorPeopleHome206" cx="0" cy="0" r="1" gradientTransform="matrix(5 0 0 4.26136 15 17)" gradientUnits="userSpaceOnUse"><stop stop-color="#0A1852" stop-opacity=".75"/><stop offset="1" stop-color="#0A1852" stop-opacity="0"/></radialGradient><radialGradient id="fluentColorPeopleHome207" cx="0" cy="0" r="1" gradientTransform="rotate(90 2 16)scale(1.5)" gradientUnits="userSpaceOnUse"><stop stop-color="#0A1852" stop-opacity=".322"/><stop offset="1" stop-color="#0A1852" stop-opacity="0"/></radialGradient><radialGradient id="fluentColorPeopleHome208" cx="0" cy="0" r="1" gradientTransform="matrix(0 1 -1.67609 0 12 15)" gradientUnits="userSpaceOnUse"><stop stop-color="#0A1852" stop-opacity=".75"/><stop offset="1" stop-color="#0A1852" stop-opacity="0"/></radialGradient><clipPath id="fluentColorPeopleHome209"><path fill="#fff" d="M0 0h20v20H0z"/></clipPath></defs></g></svg>