<svg xmlns="http://www.w3.org/2000/svg" xmlns:xlink="http://www.w3.org/1999/xlink" width="24" height="24" viewBox="0 0 24 24"><g fill="none"><path fill="url(#fluentColorPeople240)" d="M17 19.5c-.732 0-1.357-.07-1.89-.192C12 18.606 12 16.2 12 16.2a2.2 2.2 0 0 1 2.2-2.2c1.872 0 3.743-.012 5.614 0A2.2 2.2 0 0 1 22 16.2s0 2.875-4.065 3.258q-.434.041-.935.042"/><path fill="url(#fluentColorPeople245)" fill-opacity=".5" d="M17 19.5c-.732 0-1.357-.07-1.89-.192C12 18.606 12 16.2 12 16.2a2.2 2.2 0 0 1 2.2-2.2c1.872 0 3.743-.012 5.614 0A2.2 2.2 0 0 1 22 16.2s0 2.875-4.065 3.258q-.434.041-.935.042"/><path fill="url(#fluentColorPeople241)" d="M4.25 14A2.25 2.25 0 0 0 2 16.25v.25S2 21 8 21s6-4.5 6-4.5v-.25A2.25 2.25 0 0 0 11.75 14z"/><path fill="url(#fluentColorPeople242)" d="M4.25 14A2.25 2.25 0 0 0 2 16.25v.25S2 21 8 21s6-4.5 6-4.5v-.25A2.25 2.25 0 0 0 11.75 14z"/><path fill="url(#fluentColorPeople243)" d="M17 12a3 3 0 1 0 0-6a3 3 0 0 0 0 6"/><path fill="url(#fluentColorPeople244)" d="M8 12a4 4 0 1 0 0-8a4 4 0 0 0 0 8"/><defs><linearGradient id="fluentColorPeople240" x1="14.378" x2="16.3" y1="14.727" y2="20.301" gradientUnits="userSpaceOnUse"><stop offset=".125" stop-color="#9C6CFE"/><stop offset="1" stop-color="#7A41DC"/></linearGradient><linearGradient id="fluentColorPeople241" x1="4.854" x2="7.41" y1="14.931" y2="21.927" gradientUnits="userSpaceOnUse"><stop offset=".125" stop-color="#BD96FF"/><stop offset="1" stop-color="#9C6CFE"/></linearGradient><linearGradient id="fluentColorPeople242" x1="8" x2="11.607" y1="13.167" y2="24.721" gradientUnits="userSpaceOnUse"><stop stop-color="#885EDB" stop-opacity="0"/><stop offset="1" stop-color="#E362F8"/></linearGradient><linearGradient id="fluentColorPeople243" x1="15.427" x2="18.485" y1="6.798" y2="11.68" gradientUnits="userSpaceOnUse"><stop offset=".125" stop-color="#9C6CFE"/><stop offset="1" stop-color="#7A41DC"/></linearGradient><linearGradient id="fluentColorPeople244" x1="5.902" x2="9.98" y1="5.063" y2="11.574" gradientUnits="userSpaceOnUse"><stop offset=".125" stop-color="#BD96FF"/><stop offset="1" stop-color="#9C6CFE"/></linearGradient><radialGradient id="fluentColorPeople245" cx="0" cy="0" r="1" gradientTransform="matrix(6.58115 -.80285 .78625 6.44506 10.732 16.747)" gradientUnits="userSpaceOnUse"><stop offset=".392" stop-color="#3B148A"/><stop offset="1" stop-color="#3B148A" stop-opacity="0"/></radialGradient></defs></g></svg>