<svg xmlns="http://www.w3.org/2000/svg" xmlns:xlink="http://www.w3.org/1999/xlink" width="16" height="16" viewBox="0 0 16 16"><g fill="none"><g clip-path="url(#fluentColorPeopleHome168)"><path fill="url(#fluentColorPeopleHome160)" d="M10.5 8A1.5 1.5 0 0 1 12 9.5v.5c0 1.971-1.86 4-5 4s-5-2.029-5-4v-.5A1.5 1.5 0 0 1 3.5 8z"/><path fill="url(#fluentColorPeopleHome161)" d="M10.5 8A1.5 1.5 0 0 1 12 9.5v.5c0 1.971-1.86 4-5 4s-5-2.029-5-4v-.5A1.5 1.5 0 0 1 3.5 8z"/><path fill="url(#fluentColorPeopleHome166)" fill-opacity=".75" d="M10.5 8A1.5 1.5 0 0 1 12 9.5v.5c0 1.971-1.86 4-5 4s-5-2.029-5-4v-.5A1.5 1.5 0 0 1 3.5 8z"/><path fill="url(#fluentColorPeopleHome167)" fill-opacity=".55" d="M10.5 8A1.5 1.5 0 0 1 12 9.5v.5c0 1.971-1.86 4-5 4s-5-2.029-5-4v-.5A1.5 1.5 0 0 1 3.5 8z"/><path fill="url(#fluentColorPeopleHome162)" d="M7 1.5A2.75 2.75 0 1 1 7 7a2.75 2.75 0 0 1 0-5.5"/><path fill="url(#fluentColorPeopleHome163)" d="M10 11h3v4h-3z"/><path fill="url(#fluentColorPeopleHome164)" d="M8 11.46c0-.292.127-.569.349-.759l2.826-2.422a.5.5 0 0 1 .651 0l2.825 2.422c.221.19.349.467.349.76v3.04a.5.5 0 0 1-.5.5h-2v-2.5a.5.5 0 0 0-.5-.5h-1a.5.5 0 0 0-.5.5V15h-2a.5.5 0 0 1-.5-.5z"/><path fill="url(#fluentColorPeopleHome165)" fill-rule="evenodd" d="M10.518 7.36a1.5 1.5 0 0 1 1.964 0l3.26 2.823a.75.75 0 0 1-.983 1.134L11.5 8.493l-3.259 2.824a.75.75 0 0 1-.982-1.134z" clip-rule="evenodd"/></g><defs><linearGradient id="fluentColorPeopleHome160" x1="4.378" x2="6.616" y1="8.798" y2="14.754" gradientUnits="userSpaceOnUse"><stop offset=".125" stop-color="#9C6CFE"/><stop offset="1" stop-color="#7A41DC"/></linearGradient><linearGradient id="fluentColorPeopleHome161" x1="7" x2="10.164" y1="7.286" y2="17.139" gradientUnits="userSpaceOnUse"><stop stop-color="#885EDB" stop-opacity="0"/><stop offset="1" stop-color="#E362F8"/></linearGradient><linearGradient id="fluentColorPeopleHome162" x1="5.558" x2="8.361" y1="2.231" y2="6.707" gradientUnits="userSpaceOnUse"><stop offset=".125" stop-color="#9C6CFE"/><stop offset="1" stop-color="#7A41DC"/></linearGradient><linearGradient id="fluentColorPeopleHome163" x1="11.5" x2="8.853" y1="11" y2="15.412" gradientUnits="userSpaceOnUse"><stop stop-color="#944600"/><stop offset="1" stop-color="#CD8E02"/></linearGradient><linearGradient id="fluentColorPeopleHome164" x1="7.764" x2="14.118" y1="8.349" y2="14.865" gradientUnits="userSpaceOnUse"><stop stop-color="#FFD394"/><stop offset="1" stop-color="#FFB357"/></linearGradient><linearGradient id="fluentColorPeopleHome165" x1="11.929" x2="11.193" y1="5.711" y2="11.112" gradientUnits="userSpaceOnUse"><stop stop-color="#FF921F"/><stop offset="1" stop-color="#EB4824"/></linearGradient><radialGradient id="fluentColorPeopleHome166" cx="0" cy="0" r="1" gradientTransform="matrix(0 -2.5 1.80804 0 9 13.5)" gradientUnits="userSpaceOnUse"><stop stop-color="#0A1852" stop-opacity=".75"/><stop offset="1" stop-color="#0A1852" stop-opacity="0"/></radialGradient><radialGradient id="fluentColorPeopleHome167" cx="0" cy="0" r="1" gradientTransform="matrix(0 2 -1.66667 0 8 11)" gradientUnits="userSpaceOnUse"><stop stop-color="#0A1852" stop-opacity=".75"/><stop offset="1" stop-color="#0A1852" stop-opacity="0"/></radialGradient><clipPath id="fluentColorPeopleHome168"><path fill="#fff" d="M0 0h16v16H0z"/></clipPath></defs></g></svg>