<svg xmlns="http://www.w3.org/2000/svg" xmlns:xlink="http://www.w3.org/1999/xlink" width="24" height="24" viewBox="0 0 24 24"><g fill="none"><path fill="url(#fluentColorPeopleTeam240)" d="M20.25 10c.967 0 1.75.784 1.75 1.75V15a4 4 0 1 1-8-.001V11.75a1.75 1.75 0 0 1 1.607-1.744z"/><path fill="url(#fluentColorPeopleTeam247)" fill-opacity=".5" d="M20.25 10c.967 0 1.75.784 1.75 1.75V15a4 4 0 1 1-8-.001V11.75a1.75 1.75 0 0 1 1.607-1.744z"/><path fill="url(#fluentColorPeopleTeam241)" d="M8.25 10c.967 0 1.75.784 1.75 1.75V15a4 4 0 1 1-8-.001V11.75a1.75 1.75 0 0 1 1.606-1.744z"/><path fill="url(#fluentColorPeopleTeam248)" fill-opacity=".5" d="M8.25 10c.967 0 1.75.784 1.75 1.75V15a4 4 0 1 1-8-.001V11.75a1.75 1.75 0 0 1 1.606-1.744z"/><path fill="url(#fluentColorPeopleTeam242)" d="M14.754 10c.966 0 1.75.784 1.75 1.75v4.749a4.501 4.501 0 0 1-9.002 0V11.75c0-.966.783-1.75 1.75-1.75z"/><path fill="url(#fluentColorPeopleTeam243)" d="M14.754 10c.966 0 1.75.784 1.75 1.75v4.749a4.501 4.501 0 0 1-9.002 0V11.75c0-.966.783-1.75 1.75-1.75z"/><path fill="url(#fluentColorPeopleTeam244)" d="M18.5 4a2.5 2.5 0 1 1 0 5a2.5 2.5 0 0 1 0-5"/><path fill="url(#fluentColorPeopleTeam245)" d="M5.5 4a2.5 2.5 0 1 1 0 5a2.5 2.5 0 0 1 0-5"/><path fill="url(#fluentColorPeopleTeam246)" d="M12 3a3 3 0 1 1 0 6a3 3 0 0 1 0-6"/><defs><linearGradient id="fluentColorPeopleTeam240" x1="15.902" x2="20.703" y1="11.196" y2="18.011" gradientUnits="userSpaceOnUse"><stop offset=".125" stop-color="#7A41DC"/><stop offset="1" stop-color="#5B2AB5"/></linearGradient><linearGradient id="fluentColorPeopleTeam241" x1="3.903" x2="8.703" y1="11.196" y2="18.011" gradientUnits="userSpaceOnUse"><stop offset=".125" stop-color="#9C6CFE"/><stop offset="1" stop-color="#7A41DC"/></linearGradient><linearGradient id="fluentColorPeopleTeam242" x1="9.643" x2="15.657" y1="11.462" y2="19.322" gradientUnits="userSpaceOnUse"><stop offset=".125" stop-color="#BD96FF"/><stop offset="1" stop-color="#9C6CFE"/></linearGradient><linearGradient id="fluentColorPeopleTeam243" x1="12.003" x2="21.131" y1="8.69" y2="22.648" gradientUnits="userSpaceOnUse"><stop stop-color="#885EDB" stop-opacity="0"/><stop offset="1" stop-color="#E362F8"/></linearGradient><linearGradient id="fluentColorPeopleTeam244" x1="17.189" x2="19.737" y1="4.665" y2="8.734" gradientUnits="userSpaceOnUse"><stop offset=".125" stop-color="#7A41DC"/><stop offset="1" stop-color="#5B2AB5"/></linearGradient><linearGradient id="fluentColorPeopleTeam245" x1="4.189" x2="6.737" y1="4.665" y2="8.734" gradientUnits="userSpaceOnUse"><stop offset=".125" stop-color="#9C6CFE"/><stop offset="1" stop-color="#7A41DC"/></linearGradient><linearGradient id="fluentColorPeopleTeam246" x1="10.427" x2="13.485" y1="3.798" y2="8.68" gradientUnits="userSpaceOnUse"><stop offset=".125" stop-color="#BD96FF"/><stop offset="1" stop-color="#9C6CFE"/></linearGradient><radialGradient id="fluentColorPeopleTeam247" cx="0" cy="0" r="1" gradientTransform="matrix(6.43822 0 0 12.2867 12.743 14.29)" gradientUnits="userSpaceOnUse"><stop offset=".433" stop-color="#3B148A"/><stop offset="1" stop-color="#3B148A" stop-opacity="0"/></radialGradient><radialGradient id="fluentColorPeopleTeam248" cx="0" cy="0" r="1" gradientTransform="matrix(-7.12497 0 0 -13.5973 12.592 14.29)" gradientUnits="userSpaceOnUse"><stop offset=".433" stop-color="#3B148A"/><stop offset="1" stop-color="#3B148A" stop-opacity="0"/></radialGradient></defs></g></svg>