<svg xmlns="http://www.w3.org/2000/svg" xmlns:xlink="http://www.w3.org/1999/xlink" width="28" height="28" viewBox="0 0 28 28"><g fill="none"><path fill="url(#fluentColorPeople280)" d="M20 22c6 0 6-3.75 6-3.75A2.25 2.25 0 0 0 23.75 16h-7.506a2.25 2.25 0 0 0-2.25 2.25s0 3.75 6 3.75z"/><path fill="url(#fluentColorPeople285)" fill-opacity=".5" d="M20 22c6 0 6-3.75 6-3.75A2.25 2.25 0 0 0 23.75 16h-7.506a2.25 2.25 0 0 0-2.25 2.25s0 3.75 6 3.75z"/><path fill="url(#fluentColorPeople281)" d="M2 18.25A2.25 2.25 0 0 1 4.25 16h10.5A2.25 2.25 0 0 1 17 18.25v.5S17 24 9.5 24S2 18.75 2 18.75z"/><path fill="url(#fluentColorPeople282)" d="M2 18.25A2.25 2.25 0 0 1 4.25 16h10.5A2.25 2.25 0 0 1 17 18.25v.5S17 24 9.5 24S2 18.75 2 18.75z"/><path fill="url(#fluentColorPeople283)" d="M23.5 10.5a3.5 3.5 0 1 1-7 0a3.5 3.5 0 0 1 7 0"/><path fill="url(#fluentColorPeople284)" d="M9.5 14a4.5 4.5 0 1 0 0-9a4.5 4.5 0 0 0 0 9"/><defs><linearGradient id="fluentColorPeople280" x1="16.849" x2="18.787" y1="16.798" y2="22.989" gradientUnits="userSpaceOnUse"><stop offset=".125" stop-color="#9C6CFE"/><stop offset="1" stop-color="#7A41DC"/></linearGradient><linearGradient id="fluentColorPeople281" x1="5.567" x2="8.291" y1="17.064" y2="25.217" gradientUnits="userSpaceOnUse"><stop offset=".125" stop-color="#BD96FF"/><stop offset="1" stop-color="#9C6CFE"/></linearGradient><linearGradient id="fluentColorPeople282" x1="9.5" x2="13.325" y1="15.048" y2="28.448" gradientUnits="userSpaceOnUse"><stop stop-color="#885EDB" stop-opacity="0"/><stop offset="1" stop-color="#E362F8"/></linearGradient><linearGradient id="fluentColorPeople283" x1="18.165" x2="21.732" y1="7.931" y2="13.627" gradientUnits="userSpaceOnUse"><stop offset=".125" stop-color="#9C6CFE"/><stop offset="1" stop-color="#7A41DC"/></linearGradient><linearGradient id="fluentColorPeople284" x1="7.14" x2="11.727" y1="6.196" y2="13.52" gradientUnits="userSpaceOnUse"><stop offset=".125" stop-color="#BD96FF"/><stop offset="1" stop-color="#9C6CFE"/></linearGradient><radialGradient id="fluentColorPeople285" cx="0" cy="0" r="1" gradientTransform="matrix(7.9006 -.875 .77996 7.04244 12.472 19)" gradientUnits="userSpaceOnUse"><stop offset=".392" stop-color="#3B148A"/><stop offset="1" stop-color="#3B148A" stop-opacity="0"/></radialGradient></defs></g></svg>