<svg xmlns="http://www.w3.org/2000/svg" xmlns:xlink="http://www.w3.org/1999/xlink" width="32" height="32" viewBox="0 0 32 32"><g fill="none"><path fill="url(#fluentColorPeopleTeam320)" d="M24.623 26.997H25a5 5 0 0 0 5-5v-6.5a2.5 2.5 0 0 0-2.5-2.5h-5.377a2.5 2.5 0 0 0-2.5 2.5v6.5a5 5 0 0 0 5 5"/><path fill="url(#fluentColorPeopleTeam327)" fill-opacity=".5" d="M24.623 26.997H25a5 5 0 0 0 5-5v-6.5a2.5 2.5 0 0 0-2.5-2.5h-5.377a2.5 2.5 0 0 0-2.5 2.5v6.5a5 5 0 0 0 5 5"/><path fill="url(#fluentColorPeopleTeam321)" d="M7 27h.377a5 5 0 0 0 5-5v-6.5a2.5 2.5 0 0 0-2.5-2.5H4.5A2.5 2.5 0 0 0 2 15.5V22a5 5 0 0 0 5 5"/><path fill="url(#fluentColorPeopleTeam328)" fill-opacity=".5" d="M7 27h.377a5 5 0 0 0 5-5v-6.5a2.5 2.5 0 0 0-2.5-2.5H4.5A2.5 2.5 0 0 0 2 15.5V22a5 5 0 0 0 5 5"/><path fill="url(#fluentColorPeopleTeam322)" d="M12.5 13a2.5 2.5 0 0 0-2.5 2.5V23a6 6 0 0 0 12 0v-7.5a2.5 2.5 0 0 0-2.5-2.5z"/><path fill="url(#fluentColorPeopleTeam323)" d="M12.5 13a2.5 2.5 0 0 0-2.5 2.5V23a6 6 0 0 0 12 0v-7.5a2.5 2.5 0 0 0-2.5-2.5z"/><path fill="url(#fluentColorPeopleTeam324)" d="M29 7.5a3.5 3.5 0 1 1-7 0a3.5 3.5 0 0 1 7 0"/><path fill="url(#fluentColorPeopleTeam325)" d="M10 7.5a3.5 3.5 0 1 1-7 0a3.5 3.5 0 0 1 7 0"/><path fill="url(#fluentColorPeopleTeam326)" d="M16 11a4 4 0 1 0 0-8a4 4 0 0 0 0 8"/><defs><linearGradient id="fluentColorPeopleTeam320" x1="22.091" x2="29.91" y1="14.858" y2="24.112" gradientUnits="userSpaceOnUse"><stop offset=".125" stop-color="#7A41DC"/><stop offset="1" stop-color="#5B2AB5"/></linearGradient><linearGradient id="fluentColorPeopleTeam321" x1="4.468" x2="12.287" y1="14.861" y2="24.116" gradientUnits="userSpaceOnUse"><stop offset=".125" stop-color="#9C6CFE"/><stop offset="1" stop-color="#7A41DC"/></linearGradient><linearGradient id="fluentColorPeopleTeam322" x1="12.854" x2="21.772" y1="15.127" y2="25.807" gradientUnits="userSpaceOnUse"><stop offset=".125" stop-color="#BD96FF"/><stop offset="1" stop-color="#9C6CFE"/></linearGradient><linearGradient id="fluentColorPeopleTeam323" x1="16" x2="29.705" y1="11.095" y2="30.3" gradientUnits="userSpaceOnUse"><stop stop-color="#885EDB" stop-opacity="0"/><stop offset="1" stop-color="#E362F8"/></linearGradient><linearGradient id="fluentColorPeopleTeam324" x1="23.665" x2="27.232" y1="4.931" y2="10.627" gradientUnits="userSpaceOnUse"><stop offset=".125" stop-color="#7A41DC"/><stop offset="1" stop-color="#5B2AB5"/></linearGradient><linearGradient id="fluentColorPeopleTeam325" x1="4.665" x2="8.232" y1="4.931" y2="10.627" gradientUnits="userSpaceOnUse"><stop offset=".125" stop-color="#9C6CFE"/><stop offset="1" stop-color="#7A41DC"/></linearGradient><linearGradient id="fluentColorPeopleTeam326" x1="13.902" x2="17.98" y1="4.063" y2="10.574" gradientUnits="userSpaceOnUse"><stop offset=".125" stop-color="#BD96FF"/><stop offset="1" stop-color="#9C6CFE"/></linearGradient><radialGradient id="fluentColorPeopleTeam327" cx="0" cy="0" r="1" gradientTransform="matrix(8.3508 0 0 19.1127 17.992 19.669)" gradientUnits="userSpaceOnUse"><stop offset=".433" stop-color="#3B148A"/><stop offset="1" stop-color="#3B148A" stop-opacity="0"/></radialGradient><radialGradient id="fluentColorPeopleTeam328" cx="0" cy="0" r="1" gradientTransform="matrix(-9.24155 0 0 -21.1514 15.739 19.672)" gradientUnits="userSpaceOnUse"><stop offset=".433" stop-color="#3B148A"/><stop offset="1" stop-color="#3B148A" stop-opacity="0"/></radialGradient></defs></g></svg>