<svg xmlns="http://www.w3.org/2000/svg" xmlns:xlink="http://www.w3.org/1999/xlink" width="28" height="28" viewBox="0 0 28 28"><g fill="none"><path fill="url(#fluentColorPerson280)" d="M21 16a3 3 0 0 1 3 3v.715C24 23.292 19.79 26 14 26S4 23.433 4 19.715V19a3 3 0 0 1 3-3z"/><path fill="url(#fluentColorPerson281)" d="M21 16a3 3 0 0 1 3 3v.715C24 23.292 19.79 26 14 26S4 23.433 4 19.715V19a3 3 0 0 1 3-3z"/><path fill="url(#fluentColorPerson282)" d="M14 2a6 6 0 1 1 0 12a6 6 0 0 1 0-12"/><defs><linearGradient id="fluentColorPerson280" x1="8.756" x2="11.987" y1="17.329" y2="27.647" gradientUnits="userSpaceOnUse"><stop offset=".125" stop-color="#9C6CFE"/><stop offset="1" stop-color="#7A41DC"/></linearGradient><linearGradient id="fluentColorPerson281" x1="14" x2="18.524" y1="14.809" y2="31.714" gradientUnits="userSpaceOnUse"><stop stop-color="#885EDB" stop-opacity="0"/><stop offset="1" stop-color="#E362F8"/></linearGradient><linearGradient id="fluentColorPerson282" x1="10.854" x2="16.969" y1="3.595" y2="13.361" gradientUnits="userSpaceOnUse"><stop offset=".125" stop-color="#9C6CFE"/><stop offset="1" stop-color="#7A41DC"/></linearGradient></defs></g></svg>