<svg xmlns="http://www.w3.org/2000/svg" xmlns:xlink="http://www.w3.org/1999/xlink" width="20" height="20" viewBox="0 0 20 20"><g fill="none"><path fill="url(#fluentColorPersonAvailable200)" d="M3 13c0-1.113.903-2 2.009-2H15a2 2 0 0 1 2 2c0 1.691-.833 2.966-2.135 3.797C13.583 17.614 11.855 18 10 18s-3.583-.386-4.865-1.203C3.833 15.967 3 14.69 3 13"/><path fill="url(#fluentColorPersonAvailable201)" d="M3 13c0-1.113.903-2 2.009-2H15a2 2 0 0 1 2 2c0 1.691-.833 2.966-2.135 3.797C13.583 17.614 11.855 18 10 18s-3.583-.386-4.865-1.203C3.833 15.967 3 14.69 3 13"/><path fill="url(#fluentColorPersonAvailable205)" fill-opacity=".5" d="M3 13c0-1.113.903-2 2.009-2H15a2 2 0 0 1 2 2c0 1.691-.833 2.966-2.135 3.797C13.583 17.614 11.855 18 10 18s-3.583-.386-4.865-1.203C3.833 15.967 3 14.69 3 13"/><path fill="url(#fluentColorPersonAvailable202)" d="M10 2a4 4 0 1 0 0 8a4 4 0 0 0 0-8"/><path fill="url(#fluentColorPersonAvailable203)" d="M19 14.5a4.5 4.5 0 1 0-9 0a4.5 4.5 0 0 0 9 0"/><path fill="url(#fluentColorPersonAvailable204)" fill-rule="evenodd" d="M16.854 12.646a.5.5 0 0 1 0 .708l-3 3a.5.5 0 0 1-.708 0l-1-1a.5.5 0 0 1 .708-.708l.646.647l2.646-2.647a.5.5 0 0 1 .708 0" clip-rule="evenodd"/><defs><linearGradient id="fluentColorPersonAvailable200" x1="6.329" x2="8.591" y1="11.931" y2="19.153" gradientUnits="userSpaceOnUse"><stop offset=".125" stop-color="#9C6CFE"/><stop offset="1" stop-color="#7A41DC"/></linearGradient><linearGradient id="fluentColorPersonAvailable201" x1="10" x2="13.167" y1="10.167" y2="22" gradientUnits="userSpaceOnUse"><stop stop-color="#885EDB" stop-opacity="0"/><stop offset="1" stop-color="#E362F8"/></linearGradient><linearGradient id="fluentColorPersonAvailable202" x1="7.902" x2="11.979" y1="3.063" y2="9.574" gradientUnits="userSpaceOnUse"><stop offset=".125" stop-color="#9C6CFE"/><stop offset="1" stop-color="#7A41DC"/></linearGradient><linearGradient id="fluentColorPersonAvailable203" x1="10.321" x2="16.532" y1="11.688" y2="18.141" gradientUnits="userSpaceOnUse"><stop stop-color="#52D17C"/><stop offset="1" stop-color="#22918B"/></linearGradient><linearGradient id="fluentColorPersonAvailable204" x1="12.938" x2="13.946" y1="12.908" y2="17.36" gradientUnits="userSpaceOnUse"><stop stop-color="#fff"/><stop offset="1" stop-color="#E3FFD9"/></linearGradient><radialGradient id="fluentColorPersonAvailable205" cx="0" cy="0" r="1" gradientTransform="rotate(90 -.5 15)scale(6.5)" gradientUnits="userSpaceOnUse"><stop offset=".423" stop-color="#30116E"/><stop offset="1" stop-color="#30116E" stop-opacity="0"/></radialGradient></defs></g></svg>