<svg xmlns="http://www.w3.org/2000/svg" xmlns:xlink="http://www.w3.org/1999/xlink" width="28" height="28" viewBox="0 0 28 28"><g fill="none"><path fill="url(#fluentColorPin280)" fill-rule="evenodd" d="m10.53 18.53l-6.25 6.25a.75.75 0 1 1-1.06-1.06l6.25-6.25z" clip-rule="evenodd"/><path fill="#D9D9D9" d="M19.039 3.478c-1.59-1.59-4.274-1.124-5.236.907l-2.553 5.39a1.75 1.75 0 0 1-.953.884l-4.13 1.588a1.75 1.75 0 0 0-.61 2.871l7.324 7.324a1.75 1.75 0 0 0 2.871-.61l1.589-4.13c.161-.419.478-.76.884-.953l5.39-2.553c2.031-.962 2.496-3.646.907-5.235z"/><path fill="url(#fluentColorPin281)" d="M19.039 3.478c-1.59-1.59-4.274-1.124-5.236.907l-2.553 5.39a1.75 1.75 0 0 1-.953.884l-4.13 1.588a1.75 1.75 0 0 0-.61 2.871l7.324 7.324a1.75 1.75 0 0 0 2.871-.61l1.589-4.13c.161-.419.478-.76.884-.953l5.39-2.553c2.031-.962 2.496-3.646.907-5.235z"/><path fill="url(#fluentColorPin282)" fill-opacity=".8" d="M19.039 3.478c-1.59-1.59-4.274-1.124-5.236.907l-2.553 5.39a1.75 1.75 0 0 1-.953.884l-4.13 1.588a1.75 1.75 0 0 0-.61 2.871l7.324 7.324a1.75 1.75 0 0 0 2.871-.61l1.589-4.13c.161-.419.478-.76.884-.953l5.39-2.553c2.031-.962 2.496-3.646.907-5.235z"/><defs><linearGradient id="fluentColorPin280" x1="4.883" x2="11.694" y1="23.117" y2="17.907" gradientUnits="userSpaceOnUse"><stop offset=".449" stop-color="#7B7BFF"/><stop offset="1" stop-color="#102784"/></linearGradient><linearGradient id="fluentColorPin281" x1="5.774" x2="19.873" y1="6.356" y2="21.004" gradientUnits="userSpaceOnUse"><stop stop-color="#43E5CA"/><stop offset="1" stop-color="#1384B1"/></linearGradient><radialGradient id="fluentColorPin282" cx="0" cy="0" r="1" gradientTransform="rotate(47.579 -11.05 33.076)scale(9.0814 22.7832)" gradientUnits="userSpaceOnUse"><stop stop-color="#E362F8"/><stop offset="1" stop-color="#96F" stop-opacity="0"/></radialGradient></defs></g></svg>