<svg xmlns="http://www.w3.org/2000/svg" xmlns:xlink="http://www.w3.org/1999/xlink" width="24" height="24" viewBox="0 0 24 24"><g fill="none"><path fill="url(#fluentColorPin240)" fill-rule="evenodd" d="m9.53 15.53l-5.25 5.25a.75.75 0 1 1-1.06-1.06l5.25-5.25z" clip-rule="evenodd"/><path fill="url(#fluentColorPin241)" d="m21.068 7.758l-4.826-4.826a2.75 2.75 0 0 0-4.404.715l-2.435 4.87a.75.75 0 0 1-.426.374l-4.166 1.44a1.25 1.25 0 0 0-.476 2.065l7.27 7.27a1.25 1.25 0 0 0 2.065-.477l1.44-4.166a.75.75 0 0 1 .373-.426l4.87-2.435a2.75 2.75 0 0 0 .715-4.404"/><path fill="url(#fluentColorPin242)" fill-opacity=".8" d="m21.068 7.758l-4.826-4.826a2.75 2.75 0 0 0-4.404.715l-2.435 4.87a.75.75 0 0 1-.426.374l-4.166 1.44a1.25 1.25 0 0 0-.476 2.065l7.27 7.27a1.25 1.25 0 0 0 2.065-.477l1.44-4.166a.75.75 0 0 1 .373-.426l4.87-2.435a2.75 2.75 0 0 0 .715-4.404"/><defs><linearGradient id="fluentColorPin240" x1="4.633" x2="9.496" y1="19.367" y2="15.648" gradientUnits="userSpaceOnUse"><stop offset=".449" stop-color="#7B7BFF"/><stop offset="1" stop-color="#102784"/></linearGradient><linearGradient id="fluentColorPin241" x1="4.608" x2="16.965" y1="5.483" y2="18.322" gradientUnits="userSpaceOnUse"><stop stop-color="#43E5CA"/><stop offset="1" stop-color="#1384B1"/></linearGradient><radialGradient id="fluentColorPin242" cx="0" cy="0" r="1" gradientTransform="rotate(47.579 -9.812 28.432)scale(7.95948 19.9685)" gradientUnits="userSpaceOnUse"><stop stop-color="#E362F8"/><stop offset="1" stop-color="#96F" stop-opacity="0"/></radialGradient></defs></g></svg>