<svg xmlns="http://www.w3.org/2000/svg" xmlns:xlink="http://www.w3.org/1999/xlink" width="16" height="16" viewBox="0 0 16 16"><g fill="none"><path fill="url(#fluentColorReceipt160)" d="M3.636 2C2.733 2 2 2.768 2 3.714v7.715C2 12.849 3.099 14 4.455 14H11V3.714C11 2.768 10.267 2 9.364 2z"/><path fill="url(#fluentColorReceipt161)" d="M11 10h3v2a2 2 0 0 1-2 2h-1z"/><path fill="url(#fluentColorReceipt162)" d="M4.5 5.5A.5.5 0 0 1 5 5h3a.5.5 0 0 1 0 1H5a.5.5 0 0 1-.5-.5"/><path fill="url(#fluentColorReceipt163)" d="M4.5 5.5A.5.5 0 0 1 5 5h3a.5.5 0 0 1 0 1H5a.5.5 0 0 1-.5-.5"/><path fill="url(#fluentColorReceipt164)" d="M4.5 8a.5.5 0 0 1 .5-.5h3a.5.5 0 0 1 0 1H5a.5.5 0 0 1-.5-.5"/><path fill="url(#fluentColorReceipt165)" d="M4.5 8a.5.5 0 0 1 .5-.5h3a.5.5 0 0 1 0 1H5a.5.5 0 0 1-.5-.5"/><path fill="url(#fluentColorReceipt166)" d="M4.5 10.5A.5.5 0 0 1 5 10h1.5a.5.5 0 0 1 0 1H5a.5.5 0 0 1-.5-.5"/><path fill="url(#fluentColorReceipt167)" d="M4.5 10.5A.5.5 0 0 1 5 10h1.5a.5.5 0 0 1 0 1H5a.5.5 0 0 1-.5-.5"/><defs><linearGradient id="fluentColorReceipt160" x1="3.636" x2="7.638" y1="2.429" y2="13.888" gradientUnits="userSpaceOnUse"><stop stop-color="#FFE06B"/><stop offset=".645" stop-color="#FFB357"/><stop offset="1" stop-color="#FF921F"/></linearGradient><linearGradient id="fluentColorReceipt161" x1="14" x2="11.134" y1="11.6" y2="12.22" gradientUnits="userSpaceOnUse"><stop stop-color="#FE8401"/><stop offset="1" stop-color="#CA6407"/></linearGradient><linearGradient id="fluentColorReceipt162" x1="3.8" x2="4.256" y1="10" y2="11.915" gradientUnits="userSpaceOnUse"><stop stop-color="#FF921F"/><stop offset="1" stop-color="#CA6407"/></linearGradient><linearGradient id="fluentColorReceipt163" x1="3.7" x2="9.623" y1="5" y2="9.739" gradientUnits="userSpaceOnUse"><stop stop-color="#FF921F"/><stop offset="1" stop-color="#CA6407"/></linearGradient><linearGradient id="fluentColorReceipt164" x1="3.8" x2="4.256" y1="10" y2="11.915" gradientUnits="userSpaceOnUse"><stop stop-color="#FF921F"/><stop offset="1" stop-color="#CA6407"/></linearGradient><linearGradient id="fluentColorReceipt165" x1="3.7" x2="9.623" y1="5" y2="9.739" gradientUnits="userSpaceOnUse"><stop stop-color="#FF921F"/><stop offset="1" stop-color="#CA6407"/></linearGradient><linearGradient id="fluentColorReceipt166" x1="3.8" x2="4.256" y1="10" y2="11.915" gradientUnits="userSpaceOnUse"><stop stop-color="#FF921F"/><stop offset="1" stop-color="#CA6407"/></linearGradient><linearGradient id="fluentColorReceipt167" x1="3.7" x2="9.623" y1="5" y2="9.739" gradientUnits="userSpaceOnUse"><stop stop-color="#FF921F"/><stop offset="1" stop-color="#CA6407"/></linearGradient></defs></g></svg>