<svg xmlns="http://www.w3.org/2000/svg" xmlns:xlink="http://www.w3.org/1999/xlink" width="32" height="32" viewBox="0 0 32 32"><g fill="none"><path fill="url(#fluentColorShifts320)" d="M9 4a5 5 0 0 0-5 5v14a5 5 0 0 0 5 5h14a5 5 0 0 0 5-5V9a5 5 0 0 0-5-5z"/><path fill="url(#fluentColorShifts321)" d="M15.006 8a1 1 0 0 1 1 1v7h5a1 1 0 0 1 0 2h-6a1 1 0 0 1-1-1V9a1 1 0 0 1 1-1"/><defs><linearGradient id="fluentColorShifts320" x1="8" x2="20" y1="2.667" y2="29.333" gradientUnits="userSpaceOnUse"><stop stop-color="#1EC8B0"/><stop offset="1" stop-color="#2764E7"/></linearGradient><linearGradient id="fluentColorShifts321" x1="13.881" x2="10.932" y1="8.75" y2="18.651" gradientUnits="userSpaceOnUse"><stop stop-color="#FDFDFD"/><stop offset="1" stop-color="#DEDEFF"/></linearGradient></defs></g></svg>