<svg xmlns="http://www.w3.org/2000/svg" xmlns:xlink="http://www.w3.org/1999/xlink" width="16" height="16" viewBox="0 0 16 16"><g fill="none"><circle cx="9.5" cy="6.5" r="5.5" fill="url(#fluentColorSport160)"/><circle cx="9.5" cy="6.5" r="5.5" fill="url(#fluentColorSport161)" fill-opacity=".8"/><path fill="url(#fluentColorSport164)" d="m6.24 2.07l3.49 3.492l.825-.824A3 3 0 0 1 10.001 3c0-.71.247-1.363.66-1.877q.551.119 1.057.342a1.996 1.996 0 0 0-.44 2.551l1.742-1.743q.386.322.707.707l-1.742 1.743a1.996 1.996 0 0 0 2.55-.44q.224.505.343 1.057A3 3 0 0 1 13 6a3 3 0 0 1-1.739-.555l-.824.825l3.493 3.49q-.3.405-.665.75L9.73 6.976L6.854 9.854l-.707-.708L9.024 6.27L5.49 2.736q.344-.366.75-.665" opacity=".6"/><path fill="url(#fluentColorSport162)" d="M2.5 6A1.5 1.5 0 0 0 1 7.5v1A6.5 6.5 0 0 0 7.5 15h1a1.5 1.5 0 0 0 1.5-1.5v-1A6.5 6.5 0 0 0 3.5 6z"/><path fill="url(#fluentColorSport163)" fill-opacity=".9" d="M2.5 6A1.5 1.5 0 0 0 1 7.5v1A6.5 6.5 0 0 0 7.5 15h1a1.5 1.5 0 0 0 1.5-1.5v-1A6.5 6.5 0 0 0 3.5 6z"/><path fill="#FFC470" d="M5.104 9.396a.5.5 0 1 0-.708.708l1.5 1.5a.5.5 0 0 0 .708-.708z"/><defs><radialGradient id="fluentColorSport160" cx="0" cy="0" r="1" gradientTransform="rotate(-90 14.355 3.374)scale(19.2202)" gradientUnits="userSpaceOnUse"><stop stop-color="#EB4824"/><stop offset=".978" stop-color="#FF921F"/></radialGradient><radialGradient id="fluentColorSport161" cx="0" cy="0" r="1" gradientTransform="matrix(4.58333 -4.58333 6.27026 6.27026 5.375 10.625)" gradientUnits="userSpaceOnUse"><stop offset=".588" stop-color="#AA1D2D"/><stop offset=".931" stop-color="#EB4824" stop-opacity=".1"/></radialGradient><radialGradient id="fluentColorSport162" cx="0" cy="0" r="1" gradientTransform="matrix(6.95452 9.40913 -8.50845 6.2888 1.818 6.409)" gradientUnits="userSpaceOnUse"><stop offset=".24" stop-color="#AE5606"/><stop offset="1" stop-color="#944600"/></radialGradient><radialGradient id="fluentColorSport163" cx="0" cy="0" r="1" gradientTransform="rotate(10.938 -88.628 31.08)scale(13.3182)" gradientUnits="userSpaceOnUse"><stop offset=".626" stop-color="#FFA43D" stop-opacity="0"/><stop offset=".927" stop-color="#FFA43D"/></radialGradient><linearGradient id="fluentColorSport164" x1="13.66" x2="7.762" y1="2.51" y2="8.408" gradientUnits="userSpaceOnUse"><stop offset=".713" stop-color="#8E250B"/><stop offset=".903" stop-color="#8E250B" stop-opacity="0"/></linearGradient></defs></g></svg>