<svg xmlns="http://www.w3.org/2000/svg" xmlns:xlink="http://www.w3.org/1999/xlink" width="24" height="24" viewBox="0 0 24 24"><g fill="none"><circle cx="14" cy="10" r="8" fill="url(#fluentColorSport240)"/><circle cx="14" cy="10" r="8" fill="url(#fluentColorSport241)" fill-opacity=".8"/><path fill="url(#fluentColorSport244)" d="M9.467 3.407L14.5 8.439l.761-.761A4.23 4.23 0 0 1 14.5 5.25c0-1.196.494-2.277 1.289-3.05q.897.207 1.706.602a2.75 2.75 0 0 0-1.147 3.789l2.753-2.754q.58.481 1.061 1.061l-2.753 2.753a2.75 2.75 0 0 0 3.789-1.147a8 8 0 0 1 .6 1.706A4.24 4.24 0 0 1 18.75 9.5a4.23 4.23 0 0 1-2.428-.762l-.762.762l5.033 5.032q-.43.624-.967 1.155L14.5 10.56l-3.97 3.97l-1.06-1.062l3.969-3.97l-5.126-5.126q.531-.536 1.154-.966" opacity=".6"/><path fill="url(#fluentColorSport242)" d="M4.25 9A2.25 2.25 0 0 0 2 11.25v2A8.75 8.75 0 0 0 10.75 22h2A2.25 2.25 0 0 0 15 19.75v-2A8.75 8.75 0 0 0 6.25 9z"/><path fill="url(#fluentColorSport243)" fill-opacity=".9" d="M4.25 9A2.25 2.25 0 0 0 2 11.25v2A8.75 8.75 0 0 0 10.75 22h2A2.25 2.25 0 0 0 15 19.75v-2A8.75 8.75 0 0 0 6.25 9z"/><path fill="#FFC470" d="M7.78 13.72a.75.75 0 0 0-1.06 1.06l2.5 2.5a.75.75 0 1 0 1.06-1.06z"/><defs><radialGradient id="fluentColorSport240" cx="0" cy="0" r="1" gradientTransform="rotate(-90 21.244 5.09)scale(27.9566)" gradientUnits="userSpaceOnUse"><stop stop-color="#EB4824"/><stop offset=".978" stop-color="#FF921F"/></radialGradient><radialGradient id="fluentColorSport241" cx="0" cy="0" r="1" gradientTransform="matrix(6.66667 -6.66667 9.1204 9.1204 8 16)" gradientUnits="userSpaceOnUse"><stop offset=".588" stop-color="#AA1D2D"/><stop offset=".931" stop-color="#EB4824" stop-opacity=".1"/></radialGradient><radialGradient id="fluentColorSport242" cx="0" cy="0" r="1" gradientTransform="rotate(53.531 -7.917 7.95)scale(16.9004 15.2827)" gradientUnits="userSpaceOnUse"><stop offset=".24" stop-color="#AE5606"/><stop offset="1" stop-color="#944600"/></radialGradient><radialGradient id="fluentColorSport243" cx="0" cy="0" r="1" gradientTransform="rotate(10.938 -129.48 47.962)scale(19.2374)" gradientUnits="userSpaceOnUse"><stop offset=".626" stop-color="#FFA43D" stop-opacity="0"/><stop offset=".927" stop-color="#FFA43D"/></radialGradient><linearGradient id="fluentColorSport244" x1="20.049" x2="11.576" y1="4.194" y2="12.667" gradientUnits="userSpaceOnUse"><stop offset=".713" stop-color="#8E250B"/><stop offset=".903" stop-color="#8E250B" stop-opacity="0"/></linearGradient></defs></g></svg>