<svg xmlns="http://www.w3.org/2000/svg" xmlns:xlink="http://www.w3.org/1999/xlink" width="48" height="48" viewBox="0 0 48 48"><g fill="none"><path fill="#212121" d="M20.471 6.228c1.617-2.99 5.916-2.966 7.5.042l15.533 29.502c1.49 2.83-.562 6.23-3.76 6.23H8.255c-3.22 0-5.27-3.44-3.738-6.272z"/><path fill="url(#fluentColorWarning480)" d="M20.471 6.228c1.617-2.99 5.916-2.966 7.5.042l15.533 29.502c1.49 2.83-.562 6.23-3.76 6.23H8.255c-3.22 0-5.27-3.44-3.738-6.272z"/><path fill="url(#fluentColorWarning481)" d="M24 15c.69 0 1.25.56 1.25 1.25v11.5a1.25 1.25 0 1 1-2.5 0v-11.5c0-.69.56-1.25 1.25-1.25m0 20a2 2 0 1 0 0-4a2 2 0 0 0 0 4"/><defs><linearGradient id="fluentColorWarning480" x1="10.25" x2="34.452" y1="-1.938" y2="46.585" gradientUnits="userSpaceOnUse"><stop stop-color="#FFCD0F"/><stop offset="1" stop-color="#FE8401"/></linearGradient><linearGradient id="fluentColorWarning481" x1="18.667" x2="28.274" y1="15" y2="35.496" gradientUnits="userSpaceOnUse"><stop stop-color="#4A4A4A"/><stop offset="1" stop-color="#242424"/></linearGradient></defs></g></svg>