<svg xmlns="http://www.w3.org/2000/svg" xmlns:xlink="http://www.w3.org/1999/xlink" width="24" height="24" viewBox="0 0 24 24"><path fill="currentColor" d="M12.043 0c.413 0 .83.266 1.054.546s.191.342.21.529s.16.265.16.62s-.16.494-.272.644s-.047.2-.14.406s-.118.168-.193.336s.123.462.319.61s.378.262.938.318s.683.03.963.05c.28.018.453.174.882.23c.43.056.449 0 .803 0s.462.053.78.053c.317 0 .75-.14 1.141-.122c.393.018 1.43.115 1.86.115s.931-.442 1.38-.423c.448.018.832.119.85.455s-.165.762-.37.837c-.206.074-.609-.067-.852-.067c-.242 0-.496.03-.606.025c-.133-.007-.232-.09-.381-.053c-.15.038-.76.297-.984.315c-.224.02-.689-.034-.875.003s-.822.15-1.083.168c-.262.02-.786-.02-1.029.018c-.243.037-.615.113-.839.113s-.702-.172-.866-.054c-.397.288-.336.683-.532 1.247c-.187.538-.488.88-.525 1.29c-.038.412.224 1.738.355 2.205s.504 1.083.747 1.848c.242.766.58 2.31.711 2.945s.004.62.11.977c.108.362.616.934.878 1.83c.261.896.547 2.744.64 3.23c.094.485.135.558.172.707c.037.15-.045.214.039.35c.378.613.848.849.792 1.222c-.056.374-.652.513-1.083.448c-.326-.048-.523-.672-.597-.859c-.075-.186.003-.239-.072-.37c-.075-.13-.089-.199-.126-.535s.016-.36-.039-.582c-.294-1.197-1.144-2.367-1.35-3.07c-.117-.393-.049-.444-.124-.799c-.074-.355-2.402-5.42-2.883-5.42c-.496 0-2.783 5.006-2.877 5.323s-.04.638-.133.899s-1.208 2.388-1.36 3.042c-.1.428-.012.556-.068.8c-.056.242-.266 1.303-.659 1.509c-.392.205-1.086.046-1.178-.292c-.142-.52.678-.906.765-1.382c.076-.41.804-4.165 1.102-4.893s.486-.654.616-1.064c.042-.13.043-.514.113-.945c.153-.934.433-2.294.765-3.201c.486-1.326 1.157-2.611 1.032-3.893c-.053-.539-.23-.606-.417-1.222s-.428-1.347-.67-1.384c-.244-.037-.449.093-.748.093s-.896-.13-1.12-.13s-.992-.05-1.31-.05s-.54-.081-.726-.063c-.187.02-.36.007-.584.007c-.28 0-1.017-.34-1.204-.34s-.245.036-.413.036s-.325-.063-.512-.063c-.186 0-.532.108-.71.108c-.186 0-.54-.419-.484-.886c.056-.466.805-.42.991-.42c.263 0 .889.355 1.131.392c.243.038 1.538-.101 1.818-.101s1.08.126 1.509.126c.43 0 1.014.01 1.369-.046s.68-.244.903-.262c.224-.019 1.238.091 1.807-.306c.375-.261.411-.486.392-.654s-.14-.192-.234-.36s-.053-.305-.109-.417s-.269-.212-.273-.623c-.004-.322.035-.278.147-.596s.116-.451.378-.707c.19-.184.575-.371.988-.371"/></svg>