<svg xmlns="http://www.w3.org/2000/svg" xmlns:xlink="http://www.w3.org/1999/xlink" width="24" height="24" viewBox="0 0 24 24"><path fill="currentColor" d="M3.75 0A3.75 3.75 0 0 0 0 3.75v16.5A3.75 3.75 0 0 0 3.75 24h16.5A3.75 3.75 0 0 0 24 20.25V3.75A3.75 3.75 0 0 0 20.25 0zm1.36 2.92h13.8q.312 0 .54.228a.74.74 0 0 1 .227.539v9.2a5.5 5.5 0 0 1-.401 2.042a7.6 7.6 0 0 1-.995 1.797a11 11 0 0 1-1.413 1.528q-.82.742-1.515 1.234a20 20 0 0 1-1.45.928q-.754.437-1.072.593a13 13 0 0 1-.51.24a.7.7 0 0 1-.31.071a.7.7 0 0 1-.312-.072a14 14 0 0 1-.51-.24a21 21 0 0 1-1.071-.592a19 19 0 0 1-1.45-.928a17 17 0 0 1-1.515-1.234a11 11 0 0 1-1.414-1.528a7.6 7.6 0 0 1-.994-1.797a5.5 5.5 0 0 1-.401-2.042v-9.2q0-.311.227-.54a.74.74 0 0 1 .54-.227zm6.9 2.3v13.62q1.425-.754 2.552-1.64q2.815-2.204 2.815-4.313V5.22Z"/></svg>