<svg xmlns="http://www.w3.org/2000/svg" xmlns:xlink="http://www.w3.org/1999/xlink" width="24" height="24" viewBox="0 0 24 24"><path fill="currentColor" d="M13.31 3.108a7.7 7.7 0 0 0-3.015.545a7.7 7.7 0 0 0-1.73.951a7.9 7.9 0 0 0-1.59 1.567a6 6 0 0 0-.764-.047C2.78 6.124 0 8.91 0 12.35a6.22 6.22 0 0 0 4.146 5.868a3.759 3.759 0 0 0 7.326-1.574l5.3-2.673l-.04-.078l.499-.257l-1.021-2.027l-.499.25l-.047-.086l-5.291 2.658a3.73 3.73 0 0 0-2.627-1.076a3.77 3.77 0 0 0-3.42 2.198a3.72 3.72 0 0 1-1.7-4.146a3.71 3.71 0 0 1 5.549-2.214a5.21 5.21 0 0 1 6.585-3.32a5.24 5.24 0 0 1 3.538 4.373a2.913 2.913 0 0 1 3.188 2.899a2.91 2.91 0 0 1-2.65 2.899h-2.135v2.517h2.244l.11-.016a5.407 5.407 0 0 0 4.925-5.852a5.46 5.46 0 0 0-1.574-3.375A5.36 5.36 0 0 0 20.3 8.01a7.73 7.73 0 0 0-6.99-4.901ZM7.748 15.367a1.76 1.76 0 0 1 1.753 1.761a1.75 1.75 0 0 1-1.753 1.753a1.75 1.75 0 0 1-1.754-1.753a1.756 1.756 0 0 1 1.754-1.753Z"/></svg>