<svg xmlns="http://www.w3.org/2000/svg" xmlns:xlink="http://www.w3.org/1999/xlink" width="24" height="24" viewBox="0 0 24 24"><path fill="currentColor" d="M0 0v24h5.6v-9.6h4.8V8.8H5.6V5.6h8V0Zm15.552 6.4l-1.638.086a.4.4 0 0 0-.363.295l-.702 2.576l-.714.342L10.9 9.16v5.74H6.404l.092 1.59a.4.4 0 0 0 .293.363l2.576.7l.344.714l-1.076 2.437a.4.4 0 0 0 .097.46l1.225 1.1a.4.4 0 0 0 .467.052l2.312-1.329l.752.268l.967 2.488a.4.4 0 0 0 .394.256l1.65-.092a.4.4 0 0 0 .366-.297l.691-2.578l.713-.341l2.446 1.08a.4.4 0 0 0 .46-.1l1.102-1.225a.4.4 0 0 0 .049-.466l-1.328-2.315l.261-.751l2.487-.967a.4.4 0 0 0 .256-.393l-.084-1.648a.4.4 0 0 0-.295-.365l-2.578-.692l-.344-.714l1.072-2.45a.4.4 0 0 0-.1-.459l-1.224-1.101a.4.4 0 0 0-.467-.049l-2.314 1.326l-.744-.258l-.975-2.49a.4.4 0 0 0-.395-.253zm2.249 8.801a2.6 2.6 0 0 1-2.6 2.6a2.6 2.6 0 0 1-2.6-2.6a2.6 2.6 0 0 1 2.6-2.6a2.6 2.6 0 0 1 2.6 2.6"/></svg>