<svg xmlns="http://www.w3.org/2000/svg" xmlns:xlink="http://www.w3.org/1999/xlink" width="24" height="24" viewBox="0 0 24 24"><path fill="currentColor" d="M3.03 2.37a2 2 0 0 0-.333.02a1 1 0 0 0-.244.067a.5.5 0 0 0-.166.088a.5.5 0 0 0-.133.144L.652 4.943a4 4 0 0 0-.308.532a2.2 2.2 0 0 0-.2.496q-.077.255-.11.543A6 6 0 0 0 0 7.143q0 .298.066.474a.48.48 0 0 0 .188.266a.75.75 0 0 0 .32.123q.2.033.465.031v.002q.276 0 .475-.033a.9.9 0 0 0 .332-.123a.56.56 0 0 0 .187-.266q.067-.176.067-.474V5.729L3.547 2.71a.4.4 0 0 0 .045-.154a.18.18 0 0 0-.067-.112a.34.34 0 0 0-.177-.054a2 2 0 0 0-.319-.022zm4.347 5.61a2 2 0 0 0-.559.065a.65.65 0 0 0-.343.205a.8.8 0 0 0-.182.387a3.4 3.4 0 0 0-.043.6q0 .343.043.58a.9.9 0 0 0 .182.386a.75.75 0 0 0 .343.205q.216.054.559.053a2.2 2.2 0 0 0 .547-.053a.75.75 0 0 0 .344-.205a.75.75 0 0 0 .183-.387q.053-.235.053-.58a2.8 2.8 0 0 0-.053-.6a.7.7 0 0 0-.183-.386a.65.65 0 0 0-.344-.205a2 2 0 0 0-.547-.065m4.05 3.69a.34.34 0 0 0-.308.172q-.102.171-.103.605q0 .435.103.617q.104.171.309.17h4.779q.194.001.297-.17q.101-.171.101-.617q0-.218-.033-.367a.6.6 0 0 0-.08-.24a.25.25 0 0 0-.127-.137a.34.34 0 0 0-.158-.033zm7.395 0a.34.34 0 0 0-.308.172q-.104.171-.104.605q0 .435.104.617q.102.171.308.17H23.6q.194.001.296-.17q.104-.171.104-.617q0-.218-.035-.367a.6.6 0 0 0-.08-.24a.25.25 0 0 0-.125-.137a.34.34 0 0 0-.16-.033zm-11.32 4.29q-.276 0-.475.034a.9.9 0 0 0-.332.123a.56.56 0 0 0-.187.266a1.4 1.4 0 0 0-.067.474v1.414L4.994 21.29a.4.4 0 0 0-.045.154q.011.067.067.112q.055.043.177.054q.133.02.32.022q.199.001.33-.022a1 1 0 0 0 .245-.066a.5.5 0 0 0 .166-.088a.5.5 0 0 0 .133-.144l1.504-2.254a4 4 0 0 0 .308-.532q.132-.242.197-.496q.079-.255.112-.543q.033-.286.033-.629a1.4 1.4 0 0 0-.066-.474a.48.48 0 0 0-.188-.266a.75.75 0 0 0-.32-.123a3 3 0 0 0-.465-.031z"/></svg>