<svg xmlns="http://www.w3.org/2000/svg" xmlns:xlink="http://www.w3.org/1999/xlink" width="16" height="16" viewBox="0 0 16 16"><path fill="currentColor" fill-rule="evenodd" d="M4.17 12.9a.5.5 0 0 1-.041-.706l3.7-4.17l-3.7-4.17a.5.5 0 0 1 .747-.664l4 4.5a.5.5 0 0 1 0 .664l-4 4.5a.5.5 0 0 1-.706.041z" clip-rule="evenodd"/><path fill="currentColor" fill-rule="evenodd" d="M8.17 12.9a.5.5 0 0 1-.041-.706l3.7-4.17l-3.7-4.17a.5.5 0 0 1 .747-.664l4 4.5a.5.5 0 0 1 0 .664l-4 4.5a.5.5 0 0 1-.706.041z" clip-rule="evenodd"/></svg>