<svg xmlns="http://www.w3.org/2000/svg" xmlns:xlink="http://www.w3.org/1999/xlink" width="16" height="16" viewBox="0 0 16 16"><path fill="currentColor" fill-rule="evenodd" d="M3.2 14.9a2.064 2.064 0 0 1-2.065-2.065v-9.6A2.064 2.064 0 0 1 3.2 1.17h9.6a2.064 2.064 0 0 1 2.065 2.065v9.6A2.064 2.064 0 0 1 12.8 14.9zm8.39-5.8h-1.45v4.8h2.67a1.066 1.066 0 0 0 1.066-1.066v-9.6a1.066 1.066 0 0 0-1.066-1.066h-9.6a1.066 1.066 0 0 0-1.066 1.066v9.6A1.066 1.066 0 0 0 3.21 13.9h5.33V9.1h-1.6V7.5h1.6v-.859c0-1.63.793-2.34 2.14-2.34c.635 0 .976.046 1.14.069h.01V5.9h-.922c-.465 0-.685.2-.751.6a2 2 0 0 0-.023.317V7.5h1.68l-.228 1.6z" clip-rule="evenodd"/></svg>