<svg xmlns="http://www.w3.org/2000/svg" xmlns:xlink="http://www.w3.org/1999/xlink" width="16" height="16" viewBox="0 0 16 16"><path fill="currentColor" d="M7.06 0c-.457 0-.775.236-.989.402l-.077.06c-.19.15-.32.253-.504.316a19 19 0 0 1-1.24.375l-.098.026l-.025.007l-.008.002a.5.5 0 0 0-.371.504l.469 11a.5.5 0 0 0 .334.451l.01.004a3 3 0 0 1 .223.095c.15.07.347.172.54.304c.417.286.673.608.673.938v1a.5.5 0 0 0 1 0v-1c0-.855-.635-1.44-1.11-1.76a5 5 0 0 0-.685-.386l-.002-.001l-.438-10.3l.097-.028c.28-.08.64-.188.955-.297c.353-.122.62-.334.802-.48l.067-.052c.201-.157.283-.191.375-.191c.132 0 .266.058.386.143a1 1 0 0 1 .165.143l.005.006a.5.5 0 0 0 .382.177h.031a.5.5 0 0 0 .382-.177l.005-.006l.032-.032c.03-.03.076-.07.133-.111a.7.7 0 0 1 .386-.143c.09 0 .173.034.375.19l.066.054c.181.144.448.357.802.479c.315.109.676.217.955.297l.098.028l-.438 10.3h-.002a5 5 0 0 0-.685.387c-.473.324-1.11.908-1.11 1.76v1a.5.5 0 0 0 1 0v-1c0-.33.256-.652.673-.938a4 4 0 0 1 .763-.399l.01-.004a.5.5 0 0 0 .334-.45l.47-11a.5.5 0 0 0-.372-.505l-.008-.002l-.025-.007l-.097-.026l-.336-.094a19 19 0 0 1-.905-.281c-.182-.063-.313-.165-.504-.315l-.077-.06C9.739.235 9.42 0 8.962 0h-.031c-.39 0-.709.155-.922.298A1.66 1.66 0 0 0 7.087 0h-.031zM13 4.28c0 .243.174.45.414.492l1.29.227c.39 0 .39-2 0-2l-1.29.227a.5.5 0 0 0-.414.492v.56zm-.2 3c0 .243.174.45.414.492l1.29.227c.39 0 .39-2 0-2l-1.29.227a.5.5 0 0 0-.414.492v.56zm-.3 3.02c0 .243.174.45.414.492l1.29.227c.39 0 .39-2 0-2l-1.29.227a.5.5 0 0 0-.414.492v.56zM1.29 5l1.29-.227a.5.5 0 0 0 .414-.492v-.56a.5.5 0 0 0-.414-.492l-1.29-.227c-.39 0-.39 2 0 2zm.2 3l1.29-.227a.5.5 0 0 0 .414-.492v-.56a.5.5 0 0 0-.414-.492l-1.29-.227c-.39 0-.39 2 0 2zm1.6 2.8l-1.29.227c-.39 0-.39-2 0-2l1.29.227a.5.5 0 0 1 .414.492v.56c0 .243-.174.45-.414.492z"/></svg>