<svg xmlns="http://www.w3.org/2000/svg" xmlns:xlink="http://www.w3.org/1999/xlink" width="16" height="16" viewBox="0 0 16 16"><path fill="currentColor" d="M2 6c0-.471 0-.707.146-.854C2.292 5 2.528 5 3 5s.707 0 .854.146C4 5.292 4 5.528 4 6c0 .471 0 .707-.146.854C3.708 7 3.472 7 3 7s-.707 0-.854-.146C2 6.708 2 6.472 2 6m3 0c0-.471 0-.707.146-.854C5.292 5 5.528 5 6 5s.707 0 .854.146C7 5.292 7 5.528 7 6c0 .471 0 .707-.146.854C6.708 7 6.472 7 6 7s-.707 0-.854-.146C5 6.708 5 6.472 5 6M2.15 8.15c-.146.146-.146.382-.146.854c0 .471 0 .707.146.854c.146.146.382.146.854.146h1c.471 0 .707 0 .854-.146c.146-.146.146-.382.146-.854c0-.471 0-.707-.146-.854c-.146-.146-.382-.146-.854-.146h-1c-.471 0-.707 0-.854.146M6 9c0-.471 0-.707.146-.854C6.292 8 6.528 8 7 8h3c.471 0 .707 0 .854.146C11 8.292 11 8.528 11 9c0 .471 0 .707-.146.854C10.708 10 10.472 10 10 10H7c-.471 0-.707 0-.854-.146C6 9.708 6 9.472 6 9m2.15-3.85c-.146.146-.146.382-.146.854c0 .471 0 .707.146.854c.146.146.382.146.854.146s.707 0 .854-.146c.146-.146.146-.382.146-.854c0-.471 0-.707-.146-.854c-.146-.146-.382-.146-.854-.146s-.707 0-.854.146m2.95 0c-.146.146-.146.382-.146.854c0 .471 0 .707.146.854c.082.082.191.118.354.134c.247.024.37.036.435.108s.065.183.065.405v1.5c0 .471 0 .707.146.854c.146.146.382.146.854.146s.707 0 .854-.146c.146-.146.146-.382.146-.854v-3c0-.471 0-.707-.146-.854c-.146-.146-.382-.146-.854-.146h-1c-.471 0-.707 0-.854.146z"/><path fill="currentColor" fill-rule="evenodd" d="M8 2H4.8c-1.68 0-2.52 0-3.16.327a3.02 3.02 0 0 0-1.31 1.31c-.327.642-.327 1.48-.327 3.16v1.4c0 1.68 0 2.52.327 3.16a3.02 3.02 0 0 0 1.31 1.31c.642.327 1.48.327 3.16.327h6.4c1.68 0 2.52 0 3.16-.327a3 3 0 0 0 1.31-1.31c.327-.642.327-1.48.327-3.16v-1.4c0-1.68 0-2.52-.327-3.16a3 3 0 0 0-1.31-1.31C13.718 2 12.88 2 11.2 2zm5.09 1.04c-.45-.037-1.03-.038-1.89-.038H4.8c-.857 0-1.44.001-1.89.038c-.438.036-.663.101-.819.18a2 2 0 0 0-.874.874c-.08.156-.145.381-.18.819c-.037.45-.038 1.03-.038 1.89v1.4c0 .857.001 1.44.038 1.89c.036.438.101.663.18.819c.192.376.498.682.874.874c.156.08.381.145.819.18c.45.037 1.03.038 1.89.038h6.4c.857 0 1.44-.001 1.89-.038c.438-.036.663-.101.819-.18c.376-.192.682-.498.874-.874c.08-.156.145-.381.18-.819c.037-.45.038-1.03.038-1.89v-1.4c0-.857-.001-1.44-.038-1.89c-.036-.438-.101-.663-.18-.819a2 2 0 0 0-.874-.874c-.156-.08-.381-.145-.819-.18" clip-rule="evenodd"/></svg>