<svg xmlns="http://www.w3.org/2000/svg" xmlns:xlink="http://www.w3.org/1999/xlink" width="16" height="16" viewBox="0 0 16 16"><path fill="currentColor" fill-rule="evenodd" d="M1 2.4c0-.84 0-1.26.163-1.58c.144-.282.373-.512.656-.656c.321-.163.741-.163 1.58-.163h1.2c.84 0 1.26 0 1.58.163c.282.144.512.373.656.656c.163.321.163.741.163 1.58v2.2c0 .84 0 1.26-.163 1.58a1.5 1.5 0 0 1-.656.656c-.321.163-.741.163-1.58.163h-1.2c-.84 0-1.26 0-1.58-.163a1.5 1.5 0 0 1-.656-.656C1 5.859 1 5.439 1 4.6zM3.4 1h1.2c.437 0 .704 0 .904.017a1.3 1.3 0 0 1 .216.034l.007.003a.5.5 0 0 1 .222.227l.009.032c.008.034.017.09.025.184c.016.2.017.467.017.904v2.2c0 .437 0 .704-.017.904a1.3 1.3 0 0 1-.034.216l-.003.006v.001a.5.5 0 0 1-.219.22l-.007.003l-.032.009a1 1 0 0 1-.184.025c-.2.016-.467.017-.904.017H3.4c-.437 0-.704 0-.904-.017a1.3 1.3 0 0 1-.216-.034l-.007-.004a.5.5 0 0 1-.222-.226l-.009-.032a1 1 0 0 1-.025-.184A13 13 0 0 1 2 4.6V2.4c0-.437 0-.704.017-.904a1.3 1.3 0 0 1 .034-.216l.004-.008a.5.5 0 0 1 .218-.219l.007-.003l.032-.009a1 1 0 0 1 .184-.025c.2-.016.467-.017.904-.017M1 11.4c0-.84 0-1.26.163-1.58c.144-.282.373-.512.656-.656c.321-.163.741-.163 1.58-.163h1.2c.84 0 1.26 0 1.58.163c.282.144.512.373.656.656c.163.321.163.741.163 1.58v2.2c0 .84 0 1.26-.163 1.58a1.5 1.5 0 0 1-.656.656c-.321.163-.741.163-1.58.163h-1.2c-.84 0-1.26 0-1.58-.163a1.5 1.5 0 0 1-.656-.656C1 14.859 1 14.439 1 13.6zM3.4 10h1.2c.437 0 .704 0 .904.017a1.3 1.3 0 0 1 .216.034l.006.003h.001a.5.5 0 0 1 .218.219l.004.007l.009.032c.008.034.017.09.025.184c.016.2.017.467.017.904v2.2c0 .437 0 .704-.017.904a1.3 1.3 0 0 1-.034.216l-.003.007a.5.5 0 0 1-.219.219h-.002l-.005.003l-.032.009c-.034.008-.09.017-.184.025c-.2.016-.467.017-.904.017H3.4c-.437 0-.704 0-.904-.017a1.3 1.3 0 0 1-.216-.034l-.007-.003a.5.5 0 0 1-.218-.218l-.001-.002l-.003-.006l-.009-.032a1 1 0 0 1-.025-.184c-.016-.2-.017-.467-.017-.904v-2.2c0-.436 0-.704.017-.904a1.3 1.3 0 0 1 .034-.216l.004-.007a.5.5 0 0 1 .218-.218l.002-.002l.005-.002l.032-.009c.034-.008.09-.017.184-.025c.2-.016.467-.017.904-.017M9.16.819c-.163.321-.163.741-.163 1.58v2.2c0 .84 0 1.26.163 1.58c.144.282.373.512.656.656c.321.163.741.163 1.58.163h1.2c.84 0 1.26 0 1.58-.163c.282-.144.512-.373.656-.656c.164-.321.164-.741.164-1.58v-2.2c0-.84 0-1.26-.164-1.58a1.5 1.5 0 0 0-.656-.656C13.855 0 13.435 0 12.596 0h-1.2c-.84 0-1.26 0-1.58.163a1.5 1.5 0 0 0-.656.656M12.6 1h-1.2c-.436 0-.704 0-.904.017a1.3 1.3 0 0 0-.216.034l-.007.003a.5.5 0 0 0-.218.22l-.004.007l-.009.032a1 1 0 0 0-.025.184c-.016.2-.017.467-.017.904v2.2c0 .437 0 .704.017.904a1.3 1.3 0 0 0 .034.216l.003.006v.001a.5.5 0 0 0 .219.22l.007.003l.032.009c.034.008.09.017.184.025c.2.016.467.017.904.017h1.2c.436 0 .704 0 .904-.017a1.3 1.3 0 0 0 .216-.034l.006-.003h.002a.5.5 0 0 0 .218-.22l.003-.007l.009-.032a1 1 0 0 0 .025-.184c.016-.2.017-.467.017-.904V2.4c0-.437 0-.704-.017-.904a1.3 1.3 0 0 0-.034-.216l-.003-.008a.5.5 0 0 0-.218-.219l-.008-.003l-.032-.009a1 1 0 0 0-.184-.025c-.2-.016-.467-.017-.904-.017" clip-rule="evenodd"/><path fill="currentColor" d="M16 8.5a.5.5 0 0 0-1 0v1.8c0 .568 0 .964-.026 1.27c-.024.303-.07.476-.138.608a1.5 1.5 0 0 1-.656.656c-.132.067-.306.113-.608.138c-.308.025-.705.026-1.27.026h-1.59l1.15-1.15a.5.5 0 0 0-.707-.708l-2 2a.5.5 0 0 0-.147.35v.007a.5.5 0 0 0 .147.35l2 2a.5.5 0 0 0 .707-.707l-1.15-1.15h1.61c.542 0 .98 0 1.33-.03c.364-.03.684-.092.981-.243a2.5 2.5 0 0 0 1.09-1.09c.151-.296.214-.616.244-.981c.03-.354.03-.791.03-1.33v-1.82z"/></svg>