<svg xmlns="http://www.w3.org/2000/svg" xmlns:xlink="http://www.w3.org/1999/xlink" width="16" height="16" viewBox="0 0 16 16"><path fill="currentColor" d="M11 4H8.71L11 1.71a.5.5 0 0 0 0-.707a.5.5 0 0 0-.707 0l-3.15 3.15q-.071.07-.109.162c-.038.092-.038.126-.038.192c0 .128.048.257.146.354l.004.002l3.14 3.14c.194.194.513.194.707 0s.194-.513 0-.707l-2.29-2.29h2.29c2.21 0 4 1.79 4 4s-1.79 4-4 4h-6c-2.21 0-4-1.79-4-4c0-2.04 1.53-3.72 3.5-3.97c.274-.034.5-.255.5-.531s-.226-.503-.5-.475a5.014 5.014 0 0 0-4.5 4.98c0 2.75 2.25 5 5 5h6c2.75 0 5-2.25 5-5s-2.25-5-5-5z"/></svg>