<svg xmlns="http://www.w3.org/2000/svg" xmlns:xlink="http://www.w3.org/1999/xlink" width="16" height="16" viewBox="0 0 16 16"><path fill="currentColor" d="M7 4c0-.139 0-.209.008-.267a.85.85 0 0 1 .724-.724c.059-.008.128-.008.267-.008s.21 0 .267.008a.85.85 0 0 1 .724.724c.008.058.008.128.008.267s0 .209-.008.267a.85.85 0 0 1-.724.724c-.058.008-.128.008-.267.008s-.209 0-.267-.008a.85.85 0 0 1-.724-.724C7 4.209 7 4.139 7 4m0 4c0-.139 0-.209.008-.267a.85.85 0 0 1 .724-.724c.059-.008.128-.008.267-.008s.21 0 .267.008a.85.85 0 0 1 .724.724c.008.058.008.128.008.267s0 .209-.008.267a.85.85 0 0 1-.724.724c-.058.008-.128.008-.267.008s-.209 0-.267-.008a.85.85 0 0 1-.724-.724C7 8.209 7 8.139 7 8m0 4c0-.139 0-.209.008-.267a.85.85 0 0 1 .724-.724c.059-.008.128-.008.267-.008s.21 0 .267.008a.85.85 0 0 1 .724.724c.008.058.008.128.008.267s0 .209-.008.268a.85.85 0 0 1-.724.724C8.208 13 8.138 13 8 13s-.209 0-.267-.008a.85.85 0 0 1-.724-.724C7 12.21 7 12.14 7 12"/></svg>