<svg xmlns="http://www.w3.org/2000/svg" xmlns:xlink="http://www.w3.org/1999/xlink" width="16" height="16" viewBox="0 0 16 16"><path fill="currentColor" d="M6.5 8a.5.5 0 1 0 0 1a.5.5 0 0 0 0-1m2 0a.5.5 0 1 0 0 1a.5.5 0 0 0 0-1m1.5.5a.5.5 0 1 1 1 0a.5.5 0 0 1-1 0m2.5-.5a.5.5 0 1 0 0 1a.5.5 0 0 0 0-1"/><path fill="currentColor" fill-rule="evenodd" d="M3.96.315a.501.501 0 0 0-.929.371l1.73 4.31H4c-.93 0-1.39 0-1.78.102A3 3 0 0 0 .1 7.218c-.102.382-.102.846-.102 1.78c0 .93 0 1.39.102 1.78a3 3 0 0 0 2.12 2.12C2.602 13 3.066 13 4 13h8c.93 0 1.4 0 1.78-.102a3 3 0 0 0 2.12-2.12c.102-.382.102-.847.102-1.78c0-.93 0-1.39-.102-1.78a3 3 0 0 0-2.12-2.12c-.382-.102-.846-.102-1.78-.102h-.762l1.73-4.31a.5.5 0 1 0-.928-.371l-1.87 4.69H5.85L3.98.315zm6.55 5.69H3.992c-.994 0-1.3.009-1.52.068c-.69.185-1.23.724-1.41 1.41c-.06.222-.068.523-.068 1.52c0 .994.009 1.3.068 1.52c.185.69.724 1.23 1.41 1.41c.222.06.523.068 1.52.068h8c.994 0 1.3-.008 1.52-.068a1.99 1.99 0 0 0 1.41-1.41c.06-.222.068-.523.068-1.52c0-.994-.008-1.3-.068-1.52a1.99 1.99 0 0 0-1.41-1.41c-.222-.06-.523-.068-1.52-.068h-1.49z" clip-rule="evenodd"/></svg>