<svg xmlns="http://www.w3.org/2000/svg" xmlns:xlink="http://www.w3.org/1999/xlink" width="16" height="16" viewBox="0 0 16 16"><path fill="currentColor" d="M3.6.002L7.15 0c1.34 0 1.82.14 2.31.401q.531.286.888.75l-.57.988l-.066-.133a1.7 1.7 0 0 0-.724-.724C8.598 1.073 8.218 1 7.148 1h-3.31c-1.07 0-1.45.074-1.84.283a1.7 1.7 0 0 0-.724.724c-.209.391-.283.771-.283 1.84v8.31c0 1.07.074 1.45.283 1.84q.252.472.724.724c.391.21.771.282 1.84.282h3.31l.418-.004c.76-.02 1.09-.099 1.42-.278a1.7 1.7 0 0 0 .724-.724c.085-.16.147-.315.192-.517l1.08-.808c-.033.959-.168 1.38-.392 1.8a2.7 2.7 0 0 1-1.13 1.13l-.185.092c-.439.202-.956.308-2.13.308h-3.31c-1.34 0-1.82-.14-2.31-.401s-.873-.645-1.13-1.13l-.092-.185c-.187-.407-.293-.883-.307-1.89l-.002-8.55c0-1.34.14-1.82.401-2.31S1.04.662 1.525.405L1.71.313C2.117.126 2.593.02 3.6.006zm.895 13l1.99.001q.225.281.505.481l.002.018a.5.5 0 0 1-.5.5h-2a.5.5 0 0 1 0-1zm9.88-12.8l.866.5c.717.414.963 1.33.549 2.05l-4.4 7.62a1.5 1.5 0 0 1-.4.45l-1.95 1.46a1 1 0 0 1-1.592-.92l.288-2.42c.024-.201.089-.395.19-.571l4.4-7.62a1.5 1.5 0 0 1 2.05-.55zm-6.38 1.8a1 1 0 0 1 1 1v.493l-1 1.73v-2.22h-5v8h2.98l-.017.15c-.035.286-.019.574.044.85h-3.01a1 1 0 0 1-1-1v-8a1 1 0 0 1 1-1h5zm5.2-.75l-4.4 7.62a.5.5 0 0 0-.063.19l-.288 2.42l1.95-1.46a.5.5 0 0 0 .095-.093l.038-.056l4.4-7.62a.5.5 0 0 0-.183-.683l-.866-.5a.5.5 0 0 0-.683.183z"/></svg>