<svg xmlns="http://www.w3.org/2000/svg" xmlns:xlink="http://www.w3.org/1999/xlink" width="16" height="16" viewBox="0 0 16 16"><path fill="currentColor" d="M12.6 0c.703 0 1.37.275 1.86.772l.751.751c.497.497.772 1.16.772 1.86c0 .703-.275 1.37-.771 1.86l-10.5 10.6a.5.5 0 0 1-.355.148H.487a.5.5 0 0 1-.5-.5v-3.75a.5.5 0 0 1 .146-.353l10.6-10.6a2.62 2.62 0 0 1 1.86-.772zM9.73 3.2L.99 11.96V15h3.16l8.65-8.73zM12.6 1c-.438 0-.847.17-1.16.48l-1.01 1.01l3.07 3.07l1.01-1.01c.271-.272.435-.619.472-.995l.008-.163c0-.437-.17-.847-.48-1.16l-.75-.75a1.62 1.62 0 0 0-1.16-.48z"/></svg>