<svg xmlns="http://www.w3.org/2000/svg" xmlns:xlink="http://www.w3.org/1999/xlink" width="16" height="16" viewBox="0 0 16 16"><path fill="currentColor" fill-rule="evenodd" d="M6 6a.5.5 0 0 0-.468.324l-1.5 4a.5.5 0 0 0 .468.675h7a.5.5 0 0 0 .468-.675l-1.5-4A.5.5 0 0 0 10 6zm-.778 4l1.12-3h3.31l1.12 3h-5.56z" clip-rule="evenodd"/><path fill="currentColor" fill-rule="evenodd" d="M2.5 0a.5.5 0 0 0-.447.723l1.9 3.8c-.707 1.88-2.37 6.38-2.83 7.64a2 2 0 0 0-.123.69v.263c0 .402 0 .735.022 1.01c.023.281.072.54.196.782c.192.376.498.682.874.874c.243.124.501.173.782.196c.271.022.603.022 1.01.022h8.24c.402 0 .735 0 1.01-.022c.281-.023.54-.072.782-.196c.376-.192.682-.498.874-.874c.124-.243.173-.5.196-.782c.022-.27.022-.603.022-1.01v-.258q0-.361-.125-.698c-.568-1.53-2.83-7.64-2.83-7.64l1.9-3.8a.5.5 0 0 0-.447-.723h-11zM14 13H2v.1c0 .428 0 .72.019.944c.018.22.05.331.09.41c.096.188.249.341.437.437c.078.04.19.073.41.09c.225.019.516.02.944.02h8.2c.428 0 .719-.001.944-.02c.219-.017.331-.05.41-.09c.188-.096.341-.249.437-.437c.04-.078.072-.19.09-.41c.019-.225.019-.516.019-.944zm-2.81-9l1.5-3H3.31l1.5 3zm-8.97 8l2.62-7h6.31l2.62 7H2.17z" clip-rule="evenodd"/></svg>