<svg xmlns="http://www.w3.org/2000/svg" xmlns:xlink="http://www.w3.org/1999/xlink" width="16" height="16" viewBox="0 0 16 16"><path fill="currentColor" d="M6.5 1c1.05 0 2.07.298 2.95.858a5.508 5.508 0 0 1 1.275 8.17l4.13 4.13a.5.5 0 1 1-.708.708l-4.13-4.13a5.5 5.5 0 0 1-4.96 1.085a5.5 5.5 0 0 1-2.29-1.26a5.486 5.486 0 0 1-.78-7.2a5.6 5.6 0 0 1 1.96-1.72a5.5 5.5 0 0 1 2.54-.62zm0 1a4.5 4.5 0 0 0-2.07.503c-.639.33-1.19.809-1.6 1.4a4.5 4.5 0 0 0-.574 4.1a4.49 4.49 0 0 0 3.01 2.83a4.51 4.51 0 0 0 4.06-.816l.21-.18l.157-.149l.185-.197l.15-.176l.115-.151a4.497 4.497 0 0 0-1.278-6.49a4.45 4.45 0 0 0-2.35-.665z"/></svg>