<svg xmlns="http://www.w3.org/2000/svg" xmlns:xlink="http://www.w3.org/1999/xlink" width="16" height="16" viewBox="0 0 16 16"><path fill="currentColor" fill-rule="evenodd" d="M7.94 0c-.409 0-.687 0-.93.048a2.49 2.49 0 0 0-1.96 1.96c-.048.242-.048.521-.048.93v2.06h-1.34c-.713 0-1.07 0-1.36.13a1.5 1.5 0 0 0-.633.528c-.178.263-.242.614-.368 1.32l-.938 5.2c-.175.971-.263 1.46-.126 1.84c.12.332.354.612.659.79c.349.201.842.201 1.83.201h10.8c.973 0 1.46 0 1.81-.198c.304-.174.537-.449.66-.777c.14-.374.06-.854-.097-1.81l-.855-5.2c-.118-.714-.176-1.07-.354-1.34a1.5 1.5 0 0 0-.636-.539c-.293-.132-.655-.132-1.38-.132h-1.61v-2.06c0-.409 0-.687-.048-.93a2.49 2.49 0 0 0-1.96-1.96c-.242-.048-.521-.048-.93-.048H8.01zm2.55 6h2.119c.377 0 .604 0 .775.014c.079.006.127.013.156.02l.037.01a.5.5 0 0 1 .212.18l.016.035c.011.028.027.074.045.151c.04.167.078.391.14.763l.854 5.2c.082.498.132.807.15 1.04c.015.19 0 .252-.002.261a.5.5 0 0 1-.22.26q.002-.003 0 0a1 1 0 0 1-.257.044c-.233.02-.547.021-1.05.021h-10.8c-.511 0-.83 0-1.07-.021a1 1 0 0 1-.261-.046q-.003 0 0 0a.5.5 0 0 1-.22-.263q0 .003 0 0a1 1 0 0 1 0-.265c.023-.237.078-.551.169-1.05l.938-5.2c.066-.366.106-.586.149-.749a1 1 0 0 1 .046-.148l.017-.034a.5.5 0 0 1 .21-.176q.001-.002.038-.01c.029-.007.076-.014.154-.02c.169-.013.392-.013.764-.013h6.838zm-.496-1V3c0-.489-.002-.66-.029-.793a1.5 1.5 0 0 0-1.18-1.18c-.133-.026-.304-.029-.793-.029s-.66.003-.793.03a1.5 1.5 0 0 0-1.18 1.18c-.026.132-.029.303-.029.792v2h4z" clip-rule="evenodd"/></svg>