<svg xmlns="http://www.w3.org/2000/svg" xmlns:xlink="http://www.w3.org/1999/xlink" width="16" height="16" viewBox="0 0 16 16"><path fill="currentColor" d="M11.4 7.15a.5.5 0 0 1 0 .707l-4 4a.5.5 0 0 1-.707 0l-2-2A.5.5 0 0 1 5.4 9.15l1.65 1.65l3.65-3.65a.5.5 0 0 1 .707 0z"/><path fill="currentColor" fill-rule="evenodd" d="M5.5 1a1.5 1.5 0 0 0-1.42 1.02c-.629.034-1.07.113-1.44.303a3.02 3.02 0 0 0-1.31 1.31c-.327.642-.327 1.48-.327 3.16v4.4c0 1.68 0 2.52.327 3.16a3.02 3.02 0 0 0 1.31 1.31c.642.327 1.48.327 3.16.327h4.4c1.68 0 2.52 0 3.16-.327a3 3 0 0 0 1.31-1.31c.327-.642.327-1.48.327-3.16v-4.4c0-1.68 0-2.52-.327-3.16a3 3 0 0 0-1.31-1.31c-.372-.189-.81-.269-1.44-.303A1.5 1.5 0 0 0 10.5 1h-.268c-.346-.598-.992-1-1.73-1h-1c-.74 0-1.39.402-1.73 1h-.268zm.989.75a.5.5 0 0 1-.433.25H5.5a.5.5 0 0 0-.5.5v1a.5.5 0 0 0 .5.5h5a.5.5 0 0 0 .5-.5v-1a.5.5 0 0 0-.5-.5h-.556a.5.5 0 0 1-.433-.25l-.144-.25A1 1 0 0 0 8.5.999h-1a1 1 0 0 0-.867.501zm-2.58 1.29l.089-.007v.47a1.5 1.5 0 0 0 1.5 1.5h5a1.5 1.5 0 0 0 1.5-1.5v-.47l.089.007c.438.036.663.101.819.18c.376.192.682.498.874.874c.08.156.145.381.18.819c.037.45.038 1.03.038 1.89v4.4c0 .857-.001 1.44-.038 1.89c-.036.438-.101.663-.18.819a2 2 0 0 1-.874.874c-.156.08-.381.145-.819.18c-.45.037-1.03.038-1.89.038h-4.4c-.857 0-1.44-.001-1.89-.038c-.438-.036-.663-.101-.819-.18a2 2 0 0 1-.874-.874c-.08-.156-.145-.381-.18-.819c-.037-.45-.038-1.03-.038-1.89v-4.4c0-.857.001-1.44.038-1.89c.036-.438.101-.663.18-.819c.192-.376.498-.682.874-.874c.156-.08.381-.145.819-.18z" clip-rule="evenodd"/></svg>