<svg xmlns="http://www.w3.org/2000/svg" xmlns:xlink="http://www.w3.org/1999/xlink" width="16" height="16" viewBox="0 0 16 16"><path fill="currentColor" d="m14.6.095l-.614-.091a.3.3 0 0 0-.295.138l-.961 1.55a.3.3 0 0 0-.042.113l-.067 1.19l-1.8 2.76l-.006-.004c-.896-.437-1.81-.606-2.68.01c-.627.447-.683.898-.741 1.37c-.043.347-.088.707-.366 1.08c-.23.31-.607.481-1.03.673c-.78.354-1.71.777-2.15 2.28c-.64 2.2 1.42 3.45 2.06 3.84l.087.053l.086.055c.63.4 2.66 1.69 4.35.139c1.15-1.06 1.12-2.08 1.09-2.94c-.015-.462-.03-.875.147-1.22l.003.001c.214-.417.516-.616.809-.809c.396-.26.775-.51.898-1.27c.169-1.04-.385-1.78-1.17-2.39l-.03.043l1.69-2.89l1.09-.63l.995-1.6a.3.3 0 0 0-.007-.326l-.354-.51a1.5 1.5 0 0 0-1-.62v.002zM0 1.5A.5.5 0 0 1 .5 1h10a.5.5 0 0 1 0 1H.5a.5.5 0 0 1-.5-.5m0 4A.5.5 0 0 1 .5 5h5a.5.5 0 0 1 0 1h-5a.5.5 0 0 1-.5-.5M.5 9a.5.5 0 0 0 0 1H2a.5.5 0 0 0 0-1zM0 13.5a.5.5 0 0 1 .5-.5h1a.5.5 0 0 1 0 1h-1a.5.5 0 0 1-.5-.5"/></svg>