<svg xmlns="http://www.w3.org/2000/svg" xmlns:xlink="http://www.w3.org/1999/xlink" width="16" height="16" viewBox="0 0 16 16"><path fill="currentColor" fill-rule="evenodd" d="M15 3c0 1.66-1.34 3-3 3S9 4.66 9 3s1.34-3 3-3s3 1.34 3 3m-3 2c1.1 0 2-.895 2-2a2 2 0 1 0-2 2" clip-rule="evenodd"/><path fill="currentColor" d="M8.94 8.29C9.593 7.565 10.6 7 12 7s2.41.565 3.06 1.29c.636.707.941 1.57.941 2.21a.5.5 0 0 1-1 0c0-.364-.195-.997-.684-1.54c-.472-.525-1.21-.959-2.32-.959s-1.84.435-2.32.959c-.489.543-.684 1.18-.684 1.54a.5.5 0 0 1-1 0c0-.636.305-1.5.941-2.21z"/><path fill="currentColor" fill-rule="evenodd" d="M7 8c0 1.66-1.34 3-3 3S1 9.66 1 8s1.34-3 3-3s3 1.34 3 3m-3 2c1.1 0 2-.895 2-2a2 2 0 1 0-2 2" clip-rule="evenodd"/><path fill="currentColor" d="M.941 13.3c.653-.725 1.66-1.29 3.06-1.29s2.41.565 3.06 1.29c.636.707.941 1.57.941 2.21a.5.5 0 0 1-1 0c0-.364-.195-.997-.684-1.54c-.472-.525-1.21-.96-2.32-.96s-1.84.435-2.32.96c-.489.543-.684 1.18-.684 1.54a.5.5 0 0 1-1 0c0-.636.305-1.5.941-2.21z"/></svg>