<svg xmlns="http://www.w3.org/2000/svg" xmlns:xlink="http://www.w3.org/1999/xlink" width="16" height="16" viewBox="0 0 16 16"><path fill="currentColor" d="M12.4 15H6.93l.313-.485h2.51l.784-1.27h-2.01l.313-.485h2l.784-1.27h-2.42l.313-.485h5.47l-2.58 4h.001zm-2.91-2.64l.299-.485h-1.92l.568-.879h-4.86l-2.58 4h4.86l.568-.879h1.99l.299-.485h-1.98l.821-1.27h1.94zm-.61-4.21c.897 0 1.64-.186 2.22-.56l-.002-.002q.874-.56.874-1.34q0-.612-.54-1.09q-.547-.476-2.12-1.01c-.749-.256-1.22-.435-1.43-.535q-.423-.21-.614-.425a.55.55 0 0 1-.139-.366q0-.325.393-.574q.392-.249 1.07-.249q.87 0 1.62.474q.364.231.597.534h-.578v1.31l.24.092c.088-.283.227-.549.395-.72q.093-.094.22-.177q.039.105.066.217h.27V1.66h-.27q-.085.28-.185.352a.44.44 0 0 1-.27.073q-.178 0-.623-.148a5.5 5.5 0 0 0-.755-.204a5 5 0 0 0-.844-.073c-.796 0-1.46.174-1.98.522q-.544.361-.71.83h-1.41v.257c.648 0 1.18.13 1 .55l-1.33 2.57l-1.54-2.8c-.18-.353.707-.32.861-.32V3.01H.006v.258c.275 0 .664.035.794.267l2.38 4.5h.457l2.36-4.44c.087-.157.377-.32.725-.32c-.349 0-.544.365-.63.521l-.18.34q.037.055.08.11q.287.362.821.654q.535.293 1.75.71q.872.296 1.21.481q.345.185.511.391a.67.67 0 0 1 .168.425q0 .372-.439.65q-.438.28-1.18.28q-.956 0-1.78-.52q-.828-.517-1.12-1.51H5.69v2.34h.244a.83.83 0 0 1 .673-.37q.204 0 .521.091q.567.165.943.224c.376.06.517.06.798.06z"/><path fill="currentColor" d="M11.6 3.3v-.287h4.41v1.64h-.171c-.072-.276-.234-.7-.512-.971a1.42 1.42 0 0 0-.963-.408h-.479v3.78q0 .384.054.479a.45.45 0 0 0 .213.167q.16.072.434.071h.213v.238h-3.37v-.238h.213q.28 0 .451-.077a.4.4 0 0 0 .195-.177q.053-.09.053-.464v-3.78h-.464q-.144 0-.277.029z"/></svg>