<svg xmlns="http://www.w3.org/2000/svg" xmlns:xlink="http://www.w3.org/1999/xlink" width="14" height="14" viewBox="0 0 14 14"><path fill="currentColor" fill-rule="evenodd" d="M1.333 2.89A6.97 6.97 0 0 0 0 7a6.97 6.97 0 0 0 1.333 4.11A4.55 4.55 0 0 0 2.87 9.355A5.2 5.2 0 0 0 3.423 7a5.24 5.24 0 0 0-.553-2.355A4.55 4.55 0 0 0 1.333 2.89m.826-.947a5.8 5.8 0 0 1 1.826 2.138c.453.895.688 1.9.688 2.919a6.5 6.5 0 0 1-.688 2.92a5.8 5.8 0 0 1-1.826 2.137a6.98 6.98 0 0 0 4.216 1.915V.028c-1.63.144-3.1.847-4.216 1.915m5.466 12.03a6.98 6.98 0 0 0 4.216-1.916a5.8 5.8 0 0 1-1.826-2.138A6.5 6.5 0 0 1 9.327 7c0-1.02.235-2.024.688-2.92a5.8 5.8 0 0 1 1.825-2.137A6.98 6.98 0 0 0 7.626.028v13.944ZM14 7a6.97 6.97 0 0 1-1.333 4.11a4.55 4.55 0 0 1-1.537-1.755A5.2 5.2 0 0 1 10.577 7c0-.828.191-1.64.553-2.355a4.55 4.55 0 0 1 1.537-1.755A6.97 6.97 0 0 1 14 7" clip-rule="evenodd"/></svg>