<svg xmlns="http://www.w3.org/2000/svg" xmlns:xlink="http://www.w3.org/1999/xlink" width="24" height="24" viewBox="0 0 24 24"><path fill="currentColor" stroke="currentColor" stroke-width="2" d="m14.571 12.494l.003-.022l.003-.021L15.4 5h3.967v7.84q0 .077.004.152a1.75 1.75 0 0 0-3.158 1.06c.005.432-.006.598-.02.674a1 1 0 0 1-.182.07a1.75 1.75 0 0 0-1.16 2.186l.955-.292l-.956.292a1.75 1.75 0 0 0 2.186 1.16c1.166-.357 1.988-1.06 2.39-2.058c.276-.684.294-1.394.29-1.832q.032.063.067.124c.56.976.913 1.777 1.088 2.419c.177.648.147 1.044.06 1.28c-.134.361-.666.874-2.703.922l.023 1l-.023-1a.9.9 0 0 1-.295-.048l-2.402-.8a4 4 0 0 0-1.264-.205h-1.264a4 4 0 0 0-1.75.403l-.928.451a2 2 0 0 1-.876.202H7.317a1 1 0 0 1-.413-.09l-.337-.153a1.2 1.2 0 0 0-.993 0l.414.91l-.414-.91l-.337.153a1 1 0 0 1-.414.09H3.761a.76.76 0 0 1-.4-.113h.167c.907 0 1.801-.409 2.442-.702l.082-.037c.446-.204.794-.36 1.108-.448l-.27-.963l.27.963c.181-.05.386-.112.61-.194a23 23 0 0 0 3.99-1.94c.652-.406 1.275-.855 1.764-1.328c.458-.442.938-1.037 1.047-1.744Z"/></svg>