<svg xmlns="http://www.w3.org/2000/svg" xmlns:xlink="http://www.w3.org/1999/xlink" width="48" height="48" viewBox="0 0 48 48"><path fill="currentColor" fill-rule="evenodd" d="M25.544 8v2.07a1 1 0 0 1-.576.905l-2.762 1.294A1 1 0 0 1 21 11.987l-1.848-2.316l-1.678 1.074l1.717 2.153a1 1 0 0 1-.21 1.445h-.002M17.52 16.47a4.7 4.7 0 0 1 .895-1.586a4 4 0 0 1 .541-.524l.023-.017M17.52 16.47a6 6 0 0 0-1.122-1.449a8 8 0 0 0-.302-.278a6.7 6.7 0 0 1 .95-1.327l.581.73l.782-.624l.565.825l-.565-.825l-.566-.825l-.002.002l-.003.002l-.008.006l-.022.015l-.066.05q-.08.06-.209.17a6 6 0 0 0-.488.474l-1.827-2.292a1 1 0 0 1 .243-1.466L18.834 7.5a1 1 0 0 1 1.32.22l1.918 2.404l-.715.334l.425.906l.781-.624l-.491-.616l1.472-.69v.635h1l-.424-.905l-.576.27V7a1 1 0 0 1 1-1h4.304a1 1 0 0 1 1 1v2.524q.15.105.328.242a8.7 8.7 0 0 1 1.542 1.54c2.116-.486 4.447-.597 6.987-.51l1.001.035l-.248 6.75l-.997-.034a54 54 0 0 0-2.531-.039c.165.121.339.26.526.426c4.52 3.999 3.5 10.21.703 15.04c-1.423 2.457-3.365 4.69-5.485 6.319C29.57 40.908 27.194 42 24.91 42c-2.29 0-4.606-1.097-6.635-2.705c-2.042-1.619-3.886-3.827-5.242-6.226c-1.354-2.395-2.256-5.04-2.34-7.542c-.062-1.848.325-3.642 1.324-5.167l-.06-.08a5.4 5.4 0 0 0-.628-.688c-.566-.522-1.393-1.067-2.487-1.242a1 1 0 0 1-.825-1.174l.896-4.727a1 1 0 0 1 1.265-.773l-.282.96l.282-.96h.003l.005.002l.018.006l.063.019l.229.073a21 21 0 0 1 3.256 1.386c.79.423 1.626.95 2.344 1.58a6.6 6.6 0 0 0-.559 1.377l1.926.54q.027-.096.057-.19m-6.857-2.512l-.504 2.66a6.9 6.9 0 0 1 2.527 1.504c.222.206.412.406.57.587q.15-.086.328-.182a28 28 0 0 1 2.196-1.07q-.255-.494-.776-1.001c-.594-.577-1.38-1.093-2.196-1.53a19 19 0 0 0-2.145-.968m7.244 3.5a4.3 4.3 0 0 0-.387-.988zm0 0q.313.004.621.02c1.409.082 2.858.374 4.126.723c1.581-2.905 3.48-4.675 6.179-5.924q.388-.18.789-.335a7 7 0 0 0-1.113-.91l-.117-.071l-.024-.015q-.003 0-.003-.002l.003.002a1 1 0 0 1-.52-.877V8h-2.304m3.304 2.07l-.48.876zm-7.114 9.956c-1.064-.273-2.22-.487-3.32-.55c-1.676-.096-2.98.172-3.725.831c-1.458 1.29-2.067 3.08-1.997 5.152c.07 2.093.838 4.425 2.082 6.625c1.24 2.196 2.921 4.2 4.743 5.644C21.354 39.183 23.242 40 24.91 40c1.674 0 3.628-.821 5.546-2.294c1.901-1.46 3.673-3.49 4.972-5.735c2.65-4.575 3.113-9.523-.297-12.539a4.6 4.6 0 0 0-1.088-.732l-.29-.143c-.315-.154-.71-.347-1.203-.628a5 5 0 0 0-.546.216c-1.074.497-2.041 1.269-2.955 2.721a2 2 0 0 1-.281.356l-2.155 4.662l-.19.682a5 5 0 0 0 .228 3.328l.117.271l3.518-.408l.23 1.986l-3.308.385l.215 3.151l-1.995.136l-.268-3.931l-.345-.796a7 7 0 0 1-.546-3.418l-2.169.98l-1.33 3.362l-1.86-.736l1.054-2.662l-3.21-.756l.458-1.947l4.005.944l3.703-1.675l1.445-3.127c-.912-.386-2.296-.94-3.49-1.289l-1.143-.334zm2.864-1.206c1.006.352 1.99.754 2.656 1.038c.003 0 .013.005.035-.003a.13.13 0 0 0 .067-.054c1.11-1.765 2.367-2.804 3.808-3.471c1.611-.746 3.543-.877 6.368-.811l.102-2.747c-3.181-.037-5.788.314-7.961 1.32c-2.17 1.004-3.724 2.373-5.075 4.728" clip-rule="evenodd"/></svg>