<svg xmlns="http://www.w3.org/2000/svg" xmlns:xlink="http://www.w3.org/1999/xlink" width="48" height="48" viewBox="0 0 48 48"><path fill="currentColor" fill-rule="evenodd" d="M22.195 12.025c1.214-.145 2.693-.135 4.122.547c1.506.718 2.524 1.97 3.18 3.476c.678 1.553 1.339 2.318 1.804 2.69c.428.345.792.44 1.12.458c.78.042 1.533-.299 2.459-.746h.001l.34-.163a3 3 0 1 1 2.56 5.426l-.203.1l-.026.014c-.814.408-2.976 1.493-5.452 1.36a7.8 7.8 0 0 1-4.07-1.406l.55-1.133l-.9-.436l-.684.728a9 9 0 0 0 1.035.841l-1.993 4.105l-.375-.489l-.794.608l.9.437l.27-.556c.652.846 1.31 1.681 1.872 2.395l-.784.62l.786-.618l.244.31c.32.408.608.773.826 1.057l.009.011l.02.025c.15.195.423.55.582.828c.236.413.367.862.417 1.034l.002.007c.075.258.147.55.215.842c.137.589.285 1.311.429 2.04c.103.52.204 1.048.301 1.55c.183.948.346 1.792.472 2.365a3 3 0 0 1-5.858 1.296c-.145-.655-.332-1.626-.52-2.597l-.002-.015c-.094-.487-.189-.978-.28-1.437a61 61 0 0 0-.386-1.844a15 15 0 0 0-.087-.356l.113.15l.801-.599l-.828.241l-.132.039l.015.051l-.037.029c-.196-.254-.463-.595-.787-1.007l-.242-.306v-.002c-.603-.765-1.34-1.7-2.063-2.64c-.817-1.061-1.652-2.175-2.279-3.09c-.307-.448-.61-.914-.838-1.334a6 6 0 0 1-.362-.789a3.7 3.7 0 0 1-.174-.674c-.04-.25-.095-.773.083-1.39c.116-.401.681-1.988 1.277-3.641q.103-.114.213-.228q.402-.42.825-.777a7.2 7.2 0 0 1 1.508-.997l-.433-.901l-.94-.341l-1.058 2.923l-.115.32c-.812.887-1.394 1.76-1.854 2.451l-.005.008c-.133.2-.262.395-.382.564a3 3 0 1 1-4.905-3.455c.043-.06.108-.159.207-.31l.007-.01c.473-.716 1.47-2.227 2.816-3.63c1.635-1.702 4.126-3.633 7.467-4.03m2.07 23.256l.032.118l-.068-.09zm1.191-20.904c-.944-.45-1.99-.49-3.025-.366c-2.688.319-4.779 1.885-6.26 3.429c-1.214 1.264-2.128 2.646-2.596 3.356l-.009.013c-.088.134-.17.258-.233.347a1 1 0 1 0 1.635 1.152c.103-.146.218-.319.357-.528l.008-.013c.5-.752 1.226-1.843 2.28-2.943c.837-.871 1.807-1.661 2.911-2.191a1 1 0 0 1 1.373 1.242l-.732 2.02c-.75 2.075-1.555 4.32-1.677 4.739a1.2 1.2 0 0 0-.028.524c.019.12.051.227.081.31c.06.17.147.344.235.506c.18.33.437.73.732 1.161c.594.867 1.402 1.944 2.215 3c.715.931 1.445 1.858 2.049 2.624l.241.307a119 119 0 0 1 1 1.286q.107.145.159.32c.046.157.1.37.16.63c.121.52.258 1.189.4 1.91c.092.464.188.958.281 1.444v.002c.191.988.373 1.933.512 2.558a1 1 0 0 0 1.953-.432a99 99 0 0 1-.481-2.404l-.003-.015a196 196 0 0 0-.3-1.541a65 65 0 0 0-.414-1.974a14 14 0 0 0-.188-.737a3 3 0 0 0-.234-.606a7 7 0 0 0-.45-.625l-.01-.012c-.21-.274-.49-.63-.813-1.04m0 0l-.24-.307h-.002l-.001-.002l-.002-.003c-.603-.766-1.324-1.681-2.032-2.602l-.233-.303a1 1 0 0 1-.106-1.045l2.812-5.793a1 1 0 0 1 1.585-.292q.213.201.432.376c1.118.897 2.293 1.271 3.41 1.331c1.917.103 3.669-.76 4.473-1.164l.008-.004l.239-.118a1 1 0 1 0-.854-1.808l-.325.156l-.072.035c-.84.405-2.024.978-3.363.906c-.723-.039-1.492-.274-2.265-.894c-.785-.63-1.617-1.692-2.385-3.452c-.514-1.18-1.238-2.008-2.208-2.47m-7.848 14.996a1 1 0 0 1 .956.406l2.855 3.968a1 1 0 0 1 .133.912l-.49 1.408a3 3 0 0 1-3.52 1.935l-6.728-1.582a3 3 0 1 1 1.373-5.84l4.096.962l.525-1.508a1 1 0 0 1 .8-.66m.456 3.136l-.188.541a1 1 0 0 1-1.173.645l-4.973-1.169a1 1 0 0 0-.458 1.947L18 36.056a1 1 0 0 0 1.173-.645l.319-.917zM32.001 12a3 3 0 1 0 0-6a3 3 0 0 0 0 6m0 2a5 5 0 1 0 0-10a5 5 0 0 0 0 10" clip-rule="evenodd"/></svg>