<svg xmlns="http://www.w3.org/2000/svg" xmlns:xlink="http://www.w3.org/1999/xlink" width="24" height="24" viewBox="0 0 24 24"><g fill="currentColor"><path d="M5 3a2 2 0 0 0-2 2v5c0 2.364 1.749 4.227 4 4.81V16a1 1 0 0 0 .502.867A4.25 4.25 0 0 0 16 16.75V16a1.5 1.5 0 0 1 2.824-.707a2.5 2.5 0 1 0 2.076-.126A3.502 3.502 0 0 0 14 16v.75a2.25 2.25 0 0 1-4.497.115A1 1 0 0 0 10 16v-1.19c2.251-.583 4-2.446 4-4.81V5a2 2 0 0 0-2-2h-1a1 1 0 1 0 0 2h1v5c0 1.55-1.453 3-3.5 3S5 11.55 5 10V5h1a1 1 0 0 0 0-2z"/><path fill-rule="evenodd" d="M9.33 12.917q.086-.018.17-.04a3.6 3.6 0 0 0 1.26-.587C11.536 11.72 12 10.876 12 10V5h-1a1 1 0 1 1 0-2h1a2 2 0 0 1 2 2v5c0 .9-.254 1.727-.692 2.44a5 5 0 0 1-.468.638c-.719.831-1.717 1.44-2.84 1.731a6 6 0 0 1-1 .17m5.47-.732A3.5 3.5 0 0 0 14 16v.75a2.25 2.25 0 0 1-4.497.115l-.002-.052l-.03-1.12l-.471-.27m5.47-1.176a3.51 3.51 0 0 1 3.273-1.739a3.5 3.5 0 0 1 2.844 1.842l.026.048q.187.363.287.769q.082.031.16.069l.47.879l-1.563.835l-.762-.294l-.248-1.015a1.5 1.5 0 0 0-.113-.31l-.04-.073l.02.035A1.51 1.51 0 0 0 17.5 14.5A1.5 1.5 0 0 0 16 16v.75a4.3 4.3 0 0 1-.384 1.768a4.25 4.25 0 0 1-8.11-1.553l-.002-.019l-.002-.079H7.5l-.056-1.118l.556-.323v-.447a6 6 0 0 1-1-.17C4.749 14.228 3 12.365 3 10V5a2 2 0 0 1 2-2h1a1 1 0 0 1 0 2H5v5c0 .876.465 1.721 1.24 2.29a3.6 3.6 0 0 0 1.43.627q.395.082.83.083q.435-.001.83-.083m8.404 5.641A6.2 6.2 0 0 0 18 16.75V16a.5.5 0 0 1-.266.442A2.5 2.5 0 0 0 17.5 17.5c0 .378.084.737.234 1.058m2.233-1.608l-.2.108a.5.5 0 1 0 .413-.025z" clip-rule="evenodd"/></g></svg>