<svg xmlns="http://www.w3.org/2000/svg" xmlns:xlink="http://www.w3.org/1999/xlink" width="24" height="24" viewBox="0 0 24 24"><path fill="currentColor" stroke="currentColor" stroke-width="1.5" d="M19.921 7.375a9.2 9.2 0 0 1 1.241 4.566a54 54 0 0 0-.558-.949a8.75 8.75 0 1 0-17.382 2.06q-.214.36-.4.68A9.255 9.255 0 0 1 7.286 3.99A9.25 9.25 0 0 1 19.92 7.375Zm-3.04 11.827q.199.177.416.32a9.24 9.24 0 0 1-9.733.646q.14-.211.249-.435a8.74 8.74 0 0 0 9.068-.531ZM3.718 16.938c.148-.313.433-.802.865-1.477c.432.675.716 1.164.864 1.477c.202.424.284.786.284 1.093c0 .35-.112.626-.348.87l.54.52l-.54-.52a1.05 1.05 0 0 1-.8.349c-.313 0-.567-.106-.801-.349l-.54.52l.54-.52a1.18 1.18 0 0 1-.348-.87c0-.307.083-.669.284-1.093l-.678-.322zm15.384.524c-.313 0-.567-.105-.801-.348a1.18 1.18 0 0 1-.348-.87c0-.308.083-.67.284-1.094c.148-.313.433-.801.865-1.476c.432.675.716 1.163.864 1.476c.202.425.284.786.284 1.094c0 .35-.112.625-.348.87a1.05 1.05 0 0 1-.8.348ZM8.52 16c.032-.518.102-.89.211-1.196c.15-.418.394-.768.85-1.224c.833-.834 1.9-1.08 2.469-1.08c.568 0 1.635.246 2.47 1.08c.45.451.698.811.848 1.236c.11.307.179.678.21 1.184z"/></svg>