<svg xmlns="http://www.w3.org/2000/svg" xmlns:xlink="http://www.w3.org/1999/xlink" width="128" height="128" viewBox="0 0 128 128"><defs><clipPath id="deviconCosmosdbWordmark0"><path d="M18.121 4H44v25H18.121Zm0 0"/></clipPath><clipPath id="deviconCosmosdbWordmark1"><path d="M19 17h90.648v63H19Zm0 0"/></clipPath></defs><path fill="#59b3d8" fill-rule="evenodd" d="M93.832 41.523c3.914 15.899-6.031 31.903-22.223 35.75c-16.187 3.844-32.488-5.921-36.402-21.824c-3.914-15.898 6.031-31.902 22.223-35.75l.054-.008c16.11-3.867 32.364 5.82 36.301 21.641Zm0 0"/><path fill="#b6deec" fill-rule="evenodd" d="M60.254 60.332c-.008-4.344-3.606-7.86-8.031-7.852h-1.215c1.031-4.199-1.602-8.421-5.88-9.433a8 8 0 0 0-1.929-.215h-8.328c-1.8 9.102.887 18.504 7.258 25.348h10.094c4.422.011 8.02-3.5 8.03-7.848Zm9.945-32.547c0 .461.059.918.18 1.363h-3.465c-4.598 0-8.324 3.657-8.324 8.176c0 4.512 3.726 8.172 8.324 8.172h27.563c-.899-9.766-6.766-18.422-15.594-23h-3.285c-2.977-.004-5.395 2.363-5.399 5.29ZM94.48 51.57H78.035c-3.75-.011-6.797 2.965-6.812 6.649a6.5 6.5 0 0 0 .82 3.164c-3.57 1.097-5.559 4.828-4.445 8.332c.886 2.785 3.523 4.68 6.496 4.668h4.586c8.78-4.574 14.699-13.113 15.8-22.813m0 0"/><g clip-path="url(#deviconCosmosdbWordmark0)"><path fill="#b7d332" fill-rule="evenodd" d="M30.75 28.77a.92.92 0 0 1-.93-.903v-.004c-.011-5.71-4.73-10.332-10.547-10.324a.91.91 0 0 1-.921-.902c0-.5.414-.907.921-.907c5.809.004 10.524-4.605 10.547-10.304a.923.923 0 0 1 .965-.871h.004c.48.02.863.398.887.87c.015 5.708 4.734 10.325 10.547 10.321c.511 0 .922.406.922.906s-.41.907-.922.907c-5.809-.008-10.532 4.605-10.547 10.312a.92.92 0 0 1-.926.899m0 0"/></g><path fill="#0072c5" fill-rule="evenodd" d="M95.813 86.96a.55.55 0 0 1-.551-.538c-.012-3.414-2.84-6.172-6.313-6.168a.54.54 0 0 1-.55-.531v-.004a.54.54 0 0 1 .546-.535h.004c3.473 0 6.293-2.758 6.309-6.172c0-.301.246-.543.55-.543h.004c.301 0 .551.242.551.543c.012 3.414 2.836 6.172 6.309 6.172c.3-.004.543.234.55.53v.005a.543.543 0 0 1-.542.535h-.008c-3.473 0-6.297 2.758-6.309 6.172a.544.544 0 0 1-.55.535Zm0 0"/><g clip-path="url(#deviconCosmosdbWordmark1)"><path fill-rule="evenodd" d="M108.45 21.84c-2.88-4.63-10.114-5.7-20.907-3.106a88 88 0 0 0-9.906 3.106a30.7 30.7 0 0 1 5.84 3.664c1.832-.59 3.636-1.129 5.355-1.54a38.5 38.5 0 0 1 8.8-1.222c3.536 0 5.485.86 6.138 1.903c1.066 1.714.085 6.242-6.192 13.363c-1.117 1.265-2.371 2.55-3.691 3.84a125.5 125.5 0 0 1-22.715 17.101a126 126 0 0 1-25.914 12.117c-10.922 3.493-18.38 3.422-20.055.743c-1.672-2.684 1.672-9.243 9.828-17.204a28.8 28.8 0 0 1-.672-6.894C21.38 59.234 17.18 69.215 20.531 74.609c1.758 2.82 5.598 4.41 11.203 4.41a58 58 0 0 0 19.387-4.199a139.3 139.3 0 0 0 22.906-11.28A138 138 0 0 0 94.63 48.562a84 84 0 0 0 7.094-7.04c7.277-8.253 9.605-15.062 6.726-19.683Zm0 0"/></g><path fill="#0c65c4" fill-rule="evenodd" d="M85.188 86.58q-.692 0-1.215.258a2.632 2.613 0 0 0-.879.684a3.2 3.2 0 0 0-.547.996a4.34 4.31 0 0 0-.215 1.184h5.555q.035-1.462-.652-2.29c-.461-.554-1.14-.832-2.047-.832m-33.196-1.238h5.835a.7.7 0 0 1 .223.035a.4.4 0 0 1 .164.114a.6.6 0 0 1 .106.199q.042.129.043.316v.36c0 .105-.012.203-.024.293c-.015.09-.039.18-.07.261q-.041.13-.125.278c-.05.097-.117.207-.192.324l-4.468 6.941h4.773q.094.002.164.04q.075.04.125.132a1 1 0 0 1 .086.238q.036.155.036.368q0 .209-.036.367q-.033.147-.078.246a.28.28 0 0 1-.125.133a.4.4 0 0 1-.172.039h-6.266a.53.53 0 0 1-.39-.156q-.153-.159-.153-.528v-.383a1.5 1.5 0 0 1 .215-.793q.078-.139.192-.32l4.492-6.941H51.99q-.178.002-.289-.184q-.105-.186-.105-.602c0-.132.008-.254.02-.355a.7.7 0 0 1 .077-.246a.27.27 0 0 1 .122-.133a.4.4 0 0 1 .175-.043Zm10.238-.055c.184 0 .332.004.453.016a.8.8 0 0 1 .29.07c.07.036.12.07.152.11a.25.25 0 0 1 .043.152v5.887q.002.89.132 1.422q.13.53.395.91c.18.25.402.445.676.582q.404.205.95.207c.468 0 .933-.16 1.394-.492q.696-.496 1.48-1.45v-7.066c0-.059.008-.11.04-.152a.36.36 0 0 1 .152-.11a.9.9 0 0 1 .285-.07q.178-.017.46-.016c.18 0 .333.004.45.016a.8.8 0 0 1 .285.07c.067.036.117.07.152.11q.053.064.051.152v10.11a.26.26 0 0 1-.039.152a.35.35 0 0 1-.14.11q-.104.042-.266.062c-.11.02-.242.023-.403.023a2.6 2.6 0 0 1-.421-.023a.9.9 0 0 1-.262-.063c-.066-.035-.11-.066-.133-.11a.344.342 0 0 1-.031-.151v-1.337c-.582.637-1.152 1.102-1.719 1.395c-.57.29-1.14.438-1.723.438c-.675 0-1.25-.114-1.715-.34a3 3 0 0 1-1.12-.914a3.6 3.6 0 0 1-.618-1.348q-.187-.769-.187-1.871v-6.133q-.002-.089.039-.152a.36.36 0 0 1 .152-.11a.9.9 0 0 1 .297-.07a5 5 0 0 1 .45-.016m23.056-.156c.797 0 1.48.13 2.043.38a3.9 3.9 0 0 1 1.383 1.03q.544.647.8 1.516q.253.868.254 1.86v.335q0 .438-.222.625a.754.749 0 0 1-.504.184h-6.708q-.002.842.172 1.516q.17.678.567 1.156q.4.485 1.035.742c.426.176.945.258 1.555.258q.73 0 1.297-.117q.573-.12.984-.262a9.315 9.248 0 0 0 .68-.266q.27-.117.406-.117q.083-.001.14.04a.24.24 0 0 1 .098.116a.8.8 0 0 1 .051.22a3 3 0 0 1 .008.597c-.008.07-.02.133-.028.187a.4.4 0 0 1-.058.153a.6.6 0 0 1-.102.132q-.063.06-.367.2a5 5 0 0 1-.793.273a10 10 0 0 1-1.125.242a8 8 0 0 1-1.363.11c-.84 0-1.57-.117-2.2-.352a4.1 4.1 0 0 1-1.59-1.031c-.43-.457-.753-1.027-.972-1.719q-.328-1.03-.328-2.402c0-.871.113-1.649.34-2.344q.338-1.04.976-1.762a4.25 4.25 0 0 1 1.547-1.113q.904-.387 2.023-.387Zm-7.31 0q.147-.001.333.016q.187.016.39.062q.204.043.368.102a.7.7 0 0 1 .23.113q.07.052.094.105q.02.054.039.13q.018.079.023.23l.004.41c0 .164-.004.305-.011.414a1 1 0 0 1-.047.266a.349.346 0 0 1-.086.144q-.048.052-.137.051a.6.6 0 0 1-.222-.05a2.84 2.82 0 0 0-.294-.098a4.876 4.841 0 0 0-.367-.098a2.234 2.218 0 0 0-.441-.047q-.284.002-.555.113c-.183.075-.371.2-.574.372q-.298.258-.625.687c-.219.281-.461.633-.723 1.043v6.649a.26.26 0 0 1-.047.152a.4.4 0 0 1-.148.11q-.1.042-.282.062c-.12.02-.273.023-.464.023c-.18 0-.332-.004-.453-.023a1.183 1.175 0 0 1-.29-.063c-.07-.035-.117-.066-.144-.11a.26.26 0 0 1-.04-.151v-10.11q.002-.089.032-.152a.3.3 0 0 1 .137-.11a.8.8 0 0 1 .262-.07a4 4 0 0 1 .418-.016q.245-.001.414.016q.161.018.254.07a.4.4 0 0 1 .128.11a.3.3 0 0 1 .04.152v1.473q.42-.609.789-.989q.365-.382.695-.601q.324-.218.648-.3a2.457 2.44 0 0 1 .653-.087m-34.243-1.707l-2.523 7.242h5.09l-2.555-7.242Zm.067-2q.362.002.601.016a1.986 1.972 0 0 1 .383.062a.55.55 0 0 1 .227.13c.05.054.093.128.125.21l4.91 13.5q.088.246.094.399q.006.15-.086.23a.53.53 0 0 1-.297.098a4 4 0 0 1-.559.023a7 7 0 0 1-.562-.015a1.2 1.2 0 0 1-.317-.055a.34.34 0 0 1-.16-.11a.929.922 0 0 1-.094-.167l-1.257-3.536h-6.086l-1.2 3.489a.5.5 0 0 1-.09.175a.5.5 0 0 1-.164.125a.9.9 0 0 1-.305.07c-.132.02-.304.024-.515.024a4 4 0 0 1-.54-.027a.54.54 0 0 1-.292-.106q-.083-.077-.078-.23a1.3 1.3 0 0 1 .097-.399l4.91-13.5a.5.5 0 0 1 .118-.203a.5.5 0 0 1 .215-.125q.141-.042.363-.062a10 10 0 0 1 .559-.016m61.643 29.703v5.122h2.82q.667.001 1.164-.157c.328-.105.622-.262.871-.464q.38-.312.594-.77q.216-.463.215-1.066q0-.656-.207-1.149a2.16 2.16 0 0 0-.613-.828a2.65 2.65 0 0 0-1.004-.516c-.403-.113-.906-.172-1.52-.172ZM72.14 108.5q-.838 0-1.434.293a2.56 2.541 0 0 0-.984.824a3.6 3.6 0 0 0-.579 1.265a6.4 6.4 0 0 0-.187 1.594q0 .831.152 1.563q.154.727.512 1.273q.362.545.969.867q.602.317 1.504.317q.82-.001 1.43-.29c.398-.195.734-.468.992-.82q.384-.53.57-1.261q.183-.727.184-1.606q.001-.82-.157-1.547a3.8 3.8 0 0 0-.507-1.28a2.5 2.5 0 0 0-.961-.872c-.399-.211-.903-.32-1.504-.32m-39.69 0q-.83 0-1.43.293a2.6 2.581 0 0 0-.988.824q-.385.533-.578 1.265a6.6 6.6 0 0 0-.187 1.594q.002.831.156 1.563q.154.727.512 1.273q.362.545.965.867q.607.317 1.508.317q.82-.001 1.425-.29a2.687 2.668 0 0 0 .997-.82a3.7 3.7 0 0 0 .566-1.261q.182-.727.183-1.606a7.5 7.5 0 0 0-.152-1.547a3.8 3.8 0 0 0-.508-1.28a2.5 2.5 0 0 0-.96-.872c-.403-.211-.903-.32-1.509-.32m50.815-1.551c.274 0 .543.023.817.07q.405.064.734.168c.219.067.406.137.559.219q.234.118.351.207c.078.059.133.11.156.156a.5.5 0 0 1 .059.153q.017.082.035.206q.017.123.016.305q.001.19-.016.332a.835.829 0 0 1-.058.23a.3.3 0 0 1-.098.126a.19.189 0 0 1-.121.043q-.105-.001-.293-.125a4 4 0 0 0-.5-.262a5 5 0 0 0-.719-.266a3.3 3.3 0 0 0-.945-.125q-.474 0-.836.11q-.364.106-.594.3a1.288 1.279 0 0 0-.352.47c-.078.18-.117.37-.117.581c0 .293.074.536.227.738c.148.196.343.372.586.52q.362.228.824.402q.467.182.945.375a10.872 10.794 0 0 1 .953.426a3.604 3.579 0 0 1 .832.57a2.729 2.71 0 0 1 .582.81q.219.474.22 1.124c0 .516-.094.977-.29 1.383a2.901 2.88 0 0 1-.816 1.023a3.8 3.8 0 0 1-1.27.63c-.488.14-1.031.21-1.617.21a6.237 6.193 0 0 1-1.035-.082a6.5 6.5 0 0 1-.883-.215a4.6 4.6 0 0 1-.66-.27a2 2 0 0 1-.399-.253a.66.66 0 0 1-.18-.316a2 2 0 0 1-.058-.547c0-.145.008-.262.023-.36q.024-.145.059-.238a.3.3 0 0 1 .094-.129a.26.26 0 0 1 .145-.04q.121 0 .367.154q.24.15.597.331a5.918 5.876 0 0 0 .844.332c.324.098.7.153 1.121.153q.474 0 .86-.102a2.165 2.15 0 0 0 .668-.297a1.355 1.345 0 0 0 .433-.504q.153-.3.152-.718q-.001-.429-.218-.715a2.2 2.2 0 0 0-.582-.52a5.105 5.068 0 0 0-.817-.398c-.3-.117-.613-.235-.934-.363a10.157 10.084 0 0 1-.937-.434a3.378 3.354 0 0 1-.82-.59a2.6 2.6 0 0 1-.582-.832q-.223-.481-.223-1.156q.001-.594.23-1.14q.237-.545.696-.954q.468-.41 1.164-.656c.461-.168 1.004-.25 1.621-.25m-11.055 0c.84 0 1.566.125 2.192.37q.931.37 1.554 1.08q.625.709.934 1.718q.311 1.014.312 2.281q0 1.236-.328 2.273a5 5 0 0 1-.98 1.793c-.43.5-.977.89-1.625 1.172c-.657.282-1.41.422-2.27.422c-.84 0-1.567-.125-2.191-.371a4 4 0 0 1-1.555-1.078a4.6 4.6 0 0 1-.926-1.719q-.31-1.01-.309-2.289q.001-1.235.325-2.277q.322-1.039.972-1.79a4.3 4.3 0 0 1 1.621-1.167c.653-.278 1.407-.418 2.274-.418m-17.84 0q.632 0 1.136.148q.505.148.887.406a2.885 2.864 0 0 1 .656.63c.184.245.332.519.453.816c.34-.367.664-.68.97-.93q.455-.387.882-.621c.281-.156.559-.27.824-.34c.266-.07.54-.11.809-.11q.984 0 1.652.345q.669.344 1.078.917q.416.572.59 1.34a7.3 7.3 0 0 1 .176 1.621v6.395q-.001.09-.043.149a.4.4 0 0 1-.148.109q-.099.041-.285.066a4 4 0 0 1-.45.02q-.282.002-.465-.02a1.3 1.3 0 0 1-.289-.066a.34.34 0 0 1-.152-.11a.23.23 0 0 1-.043-.148v-6.144q0-.64-.117-1.169a2.6 2.6 0 0 0-.364-.91a1.7 1.7 0 0 0-.632-.586a1.9 1.9 0 0 0-.903-.203c-.43 0-.863.168-1.297.496q-.65.493-1.43 1.45v7.066q0 .09-.042.149a.4.4 0 0 1-.156.109a1.3 1.3 0 0 1-.29.066a4 4 0 0 1-.45.02a4 4 0 0 1-.448-.02a1.3 1.3 0 0 1-.293-.066a.33.33 0 0 1-.149-.11a.26.26 0 0 1-.039-.148v-6.144q-.001-.64-.125-1.169a2.9 2.9 0 0 0-.37-.91a1.7 1.7 0 0 0-.63-.586a1.9 1.9 0 0 0-.898-.203c-.434 0-.867.168-1.3.496q-.659.493-1.427 1.45v7.066q0 .09-.047.149a.35.35 0 0 1-.148.109a1 1 0 0 1-.282.066a4 4 0 0 1-.464.02a4 4 0 0 1-.45-.02a1.3 1.3 0 0 1-.288-.066a.33.33 0 0 1-.15-.11a.26.26 0 0 1-.038-.148v-10.11a.4.4 0 0 1 .031-.152a.3.3 0 0 1 .137-.113a.8.8 0 0 1 .262-.066q.159-.019.418-.02q.25.001.414.02c.109.011.191.03.254.066q.093.05.128.113c.028.043.04.09.04.153v1.336q.861-.955 1.672-1.399q.808-.445 1.632-.445Zm-11.02 0c.273 0 .542.023.816.07q.405.064.734.168c.22.067.407.137.559.219q.234.118.351.207c.078.059.133.11.156.156a.5.5 0 0 1 .06.153q.016.082.035.206q.016.123.015.305q0 .19-.015.332a.835.829 0 0 1-.06.23a.3.3 0 0 1-.093.126a.21.208 0 0 1-.125.043q-.105-.001-.293-.125a4 4 0 0 0-.5-.262a5 5 0 0 0-.719-.266a3.3 3.3 0 0 0-.945-.125q-.474 0-.836.11q-.364.106-.594.3a1.288 1.279 0 0 0-.351.47c-.078.18-.117.37-.117.581c0 .293.074.536.226.738a2.18 2.164 0 0 0 .586.52q.362.228.824.402c.313.122.625.246.945.375a10.872 10.794 0 0 1 .954.426a3.604 3.579 0 0 1 .832.57a2.729 2.71 0 0 1 .582.81q.218.474.219 1.124q.002.774-.29 1.383a2.901 2.88 0 0 1-.816 1.023a3.8 3.8 0 0 1-1.27.63c-.488.14-1.03.21-1.617.21a6.237 6.193 0 0 1-1.035-.082a6.5 6.5 0 0 1-.883-.215a4.6 4.6 0 0 1-.66-.27a2 2 0 0 1-.398-.253a.66.66 0 0 1-.18-.316a2 2 0 0 1-.059-.547c0-.145.012-.262.024-.36q.023-.145.058-.238a.3.3 0 0 1 .094-.129a.26.26 0 0 1 .145-.04q.122 0 .367.154c.16.1.363.21.598.331a5.918 5.876 0 0 0 .843.332c.325.098.7.153 1.121.153q.474 0 .86-.102a2.165 2.15 0 0 0 .668-.297a1.355 1.345 0 0 0 .433-.504q.153-.3.153-.718q-.002-.429-.219-.715a2.2 2.2 0 0 0-.582-.52a5.105 5.068 0 0 0-.816-.398c-.301-.117-.614-.235-.934-.363a10.157 10.084 0 0 1-.938-.434a3.378 3.354 0 0 1-.82-.59a2.6 2.6 0 0 1-.582-.832q-.222-.481-.223-1.156q.001-.594.23-1.14q.237-.545.696-.954q.469-.41 1.164-.656q.694-.251 1.621-.25Zm-10.825 0q1.254.001 2.191.37q.932.37 1.555 1.08a4.65 4.65 0 0 1 .934 1.718q.31 1.014.308 2.281c0 .824-.105 1.582-.328 2.273a4.95 4.95 0 0 1-.977 1.793q-.65.75-1.628 1.172q-.979.422-2.266.422q-1.26-.001-2.192-.371a4 4 0 0 1-1.554-1.078c-.414-.473-.723-1.043-.93-1.719q-.305-1.01-.305-2.289c0-.824.11-1.582.32-2.277c.22-.692.54-1.29.977-1.79a4.3 4.3 0 0 1 1.621-1.167q.973-.418 2.274-.418m58.701-2.032v11.313h2.004q1.402 0 2.364-.351a3.85 3.85 0 0 0 1.605-1.067c.434-.48.754-1.078.97-1.8q.322-1.085.323-2.567q.002-1.184-.297-2.195a4.7 4.7 0 0 0-.922-1.762a4.3 4.3 0 0 0-1.585-1.157q-.966-.415-2.481-.414Zm14.216-.035v4.707h2.21q.758 0 1.216-.195q.466-.2.77-.527a2.073 2.058 0 0 0 .445-.778c.093-.292.144-.601.144-.914q0-.528-.148-.953a1.79 1.778 0 0 0-.465-.726a2 2 0 0 0-.82-.454q-.51-.159-1.348-.16Zm-1.215-1.574h3.328q1.312-.001 2.149.25q.836.245 1.398.719a2.97 2.948 0 0 1 .84 1.156q.286.685.285 1.551q-.001.518-.125.988a3.281 3.258 0 0 1-.367.871a2.945 2.924 0 0 1-.61.711a3.3 3.3 0 0 1-.843.52q.598.11 1.121.41a3.383 3.358 0 0 1 .91.758c.258.304.465.668.614 1.078q.227.615.226 1.36q0 .685-.176 1.261a3.672 3.646 0 0 1-.488 1.04a3.597 3.57 0 0 1-.766.808a4.39 4.36 0 0 1-1.008.586a5.816 5.775 0 0 1-1.199.351a8 8 0 0 1-1.465.121h-3.824a.83.83 0 0 1-.492-.175c-.153-.118-.23-.32-.23-.614v-12.96q0-.44.23-.614a.83.83 0 0 1 .492-.176m-14.22 0h3.313c1.266 0 2.34.164 3.211.492q1.32.488 2.203 1.403q.89.916 1.344 2.218c.309.872.461 1.848.461 2.942q.002 1.892-.488 3.297c-.324.941-.797 1.718-1.418 2.34q-.937.925-2.29 1.386q-1.357.46-3.238.461H90.01a.84.84 0 0 1-.497-.175c-.152-.118-.23-.32-.23-.614v-12.96q.001-.44.23-.614a.84.84 0 0 1 .497-.176m-68.545-.18q.638.002 1.234.122c.596.12.77.175 1.106.296q.511.178.906.414q.4.237.55.391c.102.102.169.176.196.23q.046.078.074.184q.03.106.047.254t.016.348q-.001.224-.02.379q-.023.162-.07.265a.36.36 0 0 1-.11.157a.226.225 0 0 1-.152.054q-.158 0-.445-.222a8 8 0 0 0-.73-.485a6 6 0 0 0-1.094-.48q-.644-.219-1.54-.22a4.05 4.05 0 0 0-1.78.388a3.76 3.76 0 0 0-1.372 1.14q-.568.75-.883 1.836q-.311 1.086-.312 2.477q0 1.385.304 2.441c.2.711.489 1.3.864 1.778q.562.714 1.383 1.078q.814.363 1.851.363q.875 0 1.528-.211q.655-.214 1.117-.476c.462-.262.558-.336.758-.481q.293-.21.465-.211q.076.001.136.031c.035.024.07.067.09.13q.038.097.05.265a4 4 0 0 1 .009.742a1.645 1.633 0 0 1-.04.235a.698.693 0 0 1-.074.18a1 1 0 0 1-.16.19a3 3 0 0 1-.472.344a6 6 0 0 1-.899.45q-.541.218-1.234.37a7 7 0 0 1-1.524.153q-1.424-.002-2.574-.473a5.2 5.2 0 0 1-1.957-1.394q-.81-.92-1.242-2.274q-.439-1.353-.438-3.117c0-1.203.156-2.281.469-3.223q.473-1.419 1.32-2.398a5.6 5.6 0 0 1 2.032-1.5q1.18-.518 2.617-.52m0 0"/></svg>