<svg xmlns="http://www.w3.org/2000/svg" xmlns:xlink="http://www.w3.org/1999/xlink" width="128" height="128" viewBox="0 0 128 128"><path fill="currentColor" fill-rule="evenodd" d="M82.837 74.447a19.717 19.717 0 0 1-1.522-.39c-.393-.152-1.743-.844-1.901-.974a11.576 11.576 0 0 0-.625-.483c-.382-.285-1.202-1.105-1.487-1.488a16.216 16.216 0 0 0-.296-.387c-.04-.05-.11-.133-.152-.186c-.09-.11-.85-1.395-.85-1.437c0-.015-.08-.204-.176-.42c-.097-.216-.234-.56-.305-.764a11.17 11.17 0 0 0-.193-.52c-.079-.182-.293-1.193-.37-1.745c-.083-.584-.08-2.187.003-2.712c.22-1.38.395-1.971.9-3.05c.077-.166.14-.341.14-.39c0-.048.034-.088.075-.088c.04 0 .074-.043.074-.096c0-.053.206-.408.459-.79c.409-.62 1.34-1.65 1.955-2.161c.636-.529 1.893-1.217 2.644-1.448c.221-.068.485-.153.587-.188c.378-.13 1.103-.225 2.043-.267c1.212-.054 2.483.104 3.38.42c.67.237 1.284.52 1.325.612c.013.03.057.056.096.056c.157 0 1 .639 1.507 1.14c.586.582.97 1.09 1.273 1.69c.19.376.192.395.06.486a8.883 8.883 0 0 0-.216.154a3.755 3.755 0 0 1-.272.17c-.106.06-.347.206-.536.323c-.383.237-.53.22-.642-.077c-.315-.828-1.76-2.188-2.744-2.581c-1.083-.434-1.74-.563-2.855-.562c-1.18.001-1.94.146-2.884.551c-.323.138-1.011.55-1.155.69c-.055.053-.122.096-.15.096c-.078 0-.904.815-1.268 1.251c-.393.473-1.077 1.688-1.238 2.203a7.099 7.099 0 0 1-.182.52c-.316.718-.501 2.46-.386 3.62c.078.795.243 1.627.387 1.95c.036.082.088.233.115.335c.12.45.819 1.754 1.186 2.21c.365.454 1.033 1.156 1.337 1.405c.347.285 1.474.99 1.584.99c.027 0 .136.046.241.101c.106.055.49.18.855.278c.557.15.822.177 1.665.17c1.41-.014 2.306-.257 3.491-.95c.777-.455 1.85-1.504 2.229-2.18c.142-.254.293-.463.334-.464c.157-.002 1.597.781 1.597.87c0 .103-.433.929-.518.987a.746.746 0 0 0-.14.2c-.177.336-.99 1.131-1.756 1.717c-.407.31-1.483.857-2.229 1.132c-.99.365-1.592.462-2.97.483c-.736.012-1.422.006-1.524-.013Zm-59.276-.104c0-.042.032-.134.072-.205c.04-.07.142-.296.227-.5c.085-.204.184-.438.22-.52c.036-.082.27-.633.52-1.226c.25-.592.484-1.143.521-1.225c.037-.082.154-.366.26-.632c.106-.265.223-.55.26-.631l.224-.52c.087-.204.206-.477.264-.606c.059-.128.106-.255.106-.282c0-.042.143-.385.373-.895c.036-.081.153-.366.259-.631c.106-.266.223-.55.26-.632c.037-.081.154-.365.26-.63c.105-.266.222-.55.259-.632c.037-.082.137-.316.224-.52a131.676 131.676 0 0 0 .63-1.486c.189-.45.373-.884.41-.965c.036-.082.203-.483.37-.892c.168-.408.335-.81.372-.891c.036-.082.183-.433.326-.78c.8-1.946.984-2.386 1.162-2.786c.036-.081.153-.366.26-.631c.106-.266.258-.625.337-.799l.145-.315h1.614l.166.39c.206.485.433 1.011.52 1.207c.253.567.372.852.372.891c0 .042.142.378.414.977c.058.129.106.256.106.283c0 .042.115.318.371.894c.253.568.372.852.372.892c0 .024.069.202.154.394c.084.191.203.465.264.608c.062.143.141.327.178.409c.036.082.152.366.258.631c.106.266.222.55.259.632c.036.081.27.633.52 1.225c.251.593.486 1.144.522 1.226c.037.082.12.282.187.446c.683 1.677.955 2.337 1.039 2.525c.055.123.237.557.406.966a63.101 63.101 0 0 0 .595 1.411c.086.204.187.439.224.52c.037.082.153.366.259.632c.106.265.223.55.26.63c.36.798.817 1.923.817 2.01c0 .09-.182.108-1.072.108c-1.047 0-1.073-.004-1.123-.167c-.046-.15-.218-.569-.405-.984a26.47 26.47 0 0 1-.261-.632a33.296 33.296 0 0 0-.483-1.151a28.372 28.372 0 0 1-.259-.632c-.105-.265-.222-.55-.259-.63c-.225-.501-.372-.853-.372-.892c0-.025-.062-.186-.138-.357a54.03 54.03 0 0 1-.24-.553l-.104-.242H28.26l-.15.353c-.082.194-.24.587-.353.873c-.111.286-.265.66-.342.832a2.42 2.42 0 0 0-.139.356c0 .04-.146.392-.372.892c-.037.082-.153.366-.26.631c-.105.266-.223.55-.26.632c-.039.081-.19.449-.338.817l-.307.761c-.049.118-2.177.135-2.177.018Zm13-7.803c0-.07-.11-.338-.414-1.01a1.449 1.449 0 0 1-.107-.286c0-.028-.048-.157-.108-.286a44.727 44.727 0 0 1-.52-1.274a57.218 57.218 0 0 0-.483-1.188a36.26 36.26 0 0 1-.41-1.04a47.07 47.07 0 0 0-.408-1.04a40.717 40.717 0 0 1-.177-.408a67.71 67.71 0 0 0-.265-.61a2.545 2.545 0 0 1-.155-.408a.924.924 0 0 0-.096-.245a8.45 8.45 0 0 1-.274-.669a8.5 8.5 0 0 0-.275-.668a.862.862 0 0 1-.096-.279c-.002-.156-.136-.103-.19.074a4.222 4.222 0 0 1-.148.39a67.17 67.17 0 0 0-.404.966l-.523 1.263l-1.402 3.38c-.652 1.572-1.239 2.985-1.304 3.138l-.117.278h3.938c2.712 0 3.937-.024 3.937-.078Zm7.279-2.076v-9.953h4.141c4.325.002 5.108.042 5.802.3c.49.183 1.248.559 1.387.688c.053.05.208.172.344.274c.958.712 1.874 2.135 2.223 3.455c.338 1.278.2 3.018-.336 4.23c-.77 1.741-2.065 2.946-3.7 3.442c-.329.099-.98.122-4.123.146l-3.733.028v7.345H43.84v-9.954Zm8.815.737c1.37-.19 2.481-1.233 3.036-2.854c.19-.557.234-2.096.077-2.714c-.215-.84-.607-1.538-1.19-2.114c-.29-.286-.626-.57-.748-.631a1.603 1.603 0 0 1-.26-.151a2.415 2.415 0 0 0-.37-.184c-.313-.135-.567-.146-3.845-.168l-3.51-.024v8.92h3.115c1.826 0 3.355-.033 3.695-.08Zm4.16 9.161c-.018-.03.096-.356.252-.724c.157-.368.574-1.37.926-2.229c.353-.857.686-1.66.741-1.782c.055-.123.239-.557.408-.966c.296-.715.456-1.096.595-1.411c.036-.082.203-.483.372-.891c.168-.41.35-.844.404-.966c.054-.123.27-.64.48-1.151l.598-1.449c.252-.61 1.096-2.607 1.192-2.823c.036-.081.153-.365.258-.631c.106-.266.223-.55.26-.631c.036-.082.138-.316.225-.52c.086-.205.205-.477.264-.606c.058-.129.106-.256.106-.282c0-.042.115-.32.371-.895c.148-.331.36-.842.525-1.263a4.32 4.32 0 0 1 .242-.539c.047-.064.314-.092.867-.092h.8l.096.241c.195.485 1.048 2.51 1.26 2.99c.036.082.202.483.37.891c.167.409.335.81.373.892c.037.081.321.767.63 1.522c.31.756.593 1.441.63 1.523c.037.082.24.566.453 1.077a268.143 268.143 0 0 0 1.554 3.677c.037.082.154.366.26.632c.182.452.33.802.484 1.15c.036.083.153.367.26.632c.106.266.241.588.3.717s.107.257.107.285c0 .028.1.268.223.533c.122.264.223.499.223.52c0 .022.048.145.106.274c.06.129.194.451.3.717c.107.265.225.55.261.631c.258.572.373.857.373.925c0 .119-2.04.105-2.137-.015c-.04-.051-.366-.811-.723-1.69a214.273 214.273 0 0 0-1.039-2.525c-.106-.266-.224-.55-.26-.632a31.823 31.823 0 0 1-.444-1.059l-.096-.242l-4.419.02l-4.419.019l-.44 1.077l-.51 1.249c-.04.094-.072.188-.072.208c0 .032-.162.414-.373.882c-.036.082-.154.366-.26.632a40.8 40.8 0 0 1-.291.705c-.054.123-.209.5-.345.836l-.246.613h-1.021c-.562 0-1.036-.025-1.054-.056Zm12.949-7.783c0-.037-.256-.673-.477-1.186c-.053-.123-.174-.44-.27-.706a7.963 7.963 0 0 0-.27-.668a.933.933 0 0 1-.097-.246c-.001-.052-.131-.37-.372-.906a26.042 26.042 0 0 1-.261-.631a34.421 34.421 0 0 0-.291-.706c-.054-.122-.159-.39-.234-.594a6.526 6.526 0 0 0-.232-.557a.926.926 0 0 1-.096-.249c0-.035-.048-.168-.107-.297a25.64 25.64 0 0 1-.38-.94a38.074 38.074 0 0 0-.635-1.541c-.128-.301-.213-.277-.34.097a5.39 5.39 0 0 1-.168.442c-.039.081-.14.315-.227.52c-.086.204-.187.438-.224.52c-.06.133-.868 2.065-1.864 4.456c-.205.49-.401.959-.438 1.04c-.036.082-.203.483-.37.891c-.166.41-.352.853-.412.987s-.109.26-.109.279c0 .019 1.772.034 3.937.034s3.937-.017 3.937-.039Zm24.92 7.748c-.02-.052-.028-4.524-.018-9.937l.02-9.842h1.93l.02 4.4l.019 4.402h11.661v-8.84h2.005v19.908h-2.005v-9.285H96.655l-.02 4.624l-.019 4.624l-.948.02c-.718.016-.958-.002-.985-.074Zm20.02-9.863v-9.953h13.073v1.857h-11.068v6.982h9.657v1.782h-9.657v7.429H128v1.857h-13.296v-9.954ZM3.441 77.294a3.13 3.13 0 0 1 .32.047c-.084.23-.17.475-.26.73C2.424 81.131.95 85.763.228 88.165c-.088.291-.165.55-.228.77c.278-.07.642-.409.708-.623a292.438 292.438 0 0 1 3.54-10.768l.009-.024a274.704 274.704 0 0 1 1.714-4.742c2.083-5.588 4.581-11.653 7.342-17.122l.042-.085c1.688-3.335 3.454-6.459 5.305-9.1l.03-.043c.954-1.36 1.911-2.59 2.924-3.66c-.964 1.064-1.856 2.337-2.778 3.755l-.031.048c-1.735 2.676-3.49 5.848-5.11 9.172l-.04.08c-2.881 5.926-5.417 12.293-7.196 17.136l-.077.21a202.93 202.93 0 0 0-1.207 3.386c-.144.414-.277.804-.398 1.166a.954.954 0 0 1 .186.097c.068.045.137.101.208.166c.035.032.071.067.107.104c.322.33.644.813.862 1.237a2.86 2.86 0 0 0-.942-2.006a13.936 13.936 0 0 0 1.022.004c1.6-.06 3.099-.448 4.204-1.444c.299-.269.569-.582.804-.945c.124-.192.239-.397.343-.617c-.492.59-.98.783-1.505.845c-.257.03-.522.03-.802.029h-.12l.03-.014c.467-.216.974-.45 1.492-.787a6.81 6.81 0 0 0 1.03-.827c.156-.153.301-.311.438-.476c.434-.523.787-1.114 1.147-1.832c-.515.495-1.051.917-1.647 1.234c-.376.2-.776.358-1.21.466c-.758.188-1.619.22-2.632.051a8.767 8.767 0 0 0 2.375-.776c1.16-.564 2.542-1.517 3.847-3.139c1.471-1.828 2.464-4.155 3.167-6.193a40.995 40.995 0 0 0 .323-.974c-.241.138-.57.261-.922.361c-.33.094-.68.166-.993.209a5.794 5.794 0 0 0 2.018-1.328c.232-.234.436-.477.615-.719c.167-.226.313-.452.44-.668c.127-.217.235-.425.328-.617c-.426.274-.796.489-1.257.654a6.06 6.06 0 0 1-1.112.272a5.792 5.792 0 0 0 2.077-1.38a5.031 5.031 0 0 0 .377-.442c.437-.581.988-1.74 1.335-2.752a8.097 8.097 0 0 0 .287-1.032c-.183.153-.52.313-.903.453a7.64 7.64 0 0 1-1.552.397l.097-.043c.473-.209 1.176-.52 1.932-1.317a7.395 7.395 0 0 0 .732-.921c1.661-2.465 2.906-5.258 3.268-7.201c.345-1.848.083-3.213-.395-4.154c-.387-.76-1.34-1.692-2.262-1.692c-.718 0-1.417.615-2.35 1.558a25.93 25.93 0 0 0-2.008 2.27a89.541 89.541 0 0 0-5.724 8.14c-3.17 5.083-6.192 11.165-7.395 17.19a29.62 29.62 0 0 0-.405 2.595c-.039.363-.07.725-.094 1.087a3.628 3.628 0 0 0-.357-.451a5.112 5.112 0 0 0-.347-.342a8.846 8.846 0 0 0-1.392-.997c.192.25.668.943 1.112 1.788c.481.918.925 2.016.925 2.922a1.564 1.564 0 0 1-.264.023a4.01 4.01 0 0 1-.501-.025a5.58 5.58 0 0 1-1.532-.39c.27.253.55.486.847.681a3.775 3.775 0 0 0 1.078.5l.025.006a3.404 3.404 0 0 0-1.158.353c-.51.25-1.024.608-1.561 1.02c.873-.344 1.7-.606 2.454-.644l.025-.001l.052-.002a3.465 3.465 0 0 1 .397.01Zm.852-2.158c.31-.86.63-1.737.962-2.626c2.099-5.632 4.623-11.758 7.418-17.284c1.696-3.353 3.48-6.511 5.36-9.195c.978-1.394 1.968-2.67 3.026-3.788a.765.765 0 0 1 1.122 1.04c-.922 1.016-1.788 2.247-2.704 3.657c-1.738 2.675-3.504 5.867-5.134 9.218c-2.685 5.522-5.072 11.437-6.821 16.133a.767.767 0 0 1 .144-.04c.867-.144 3.426-.75 5.752-3.64c1.277-1.586 2.188-3.595 2.864-5.464a7.79 7.79 0 0 1-.591.105a.765.765 0 0 1-.381-1.47a5.018 5.018 0 0 0 1.548-.958a9.673 9.673 0 0 1-.118.02a.765.765 0 0 1-.385-1.473a4.9 4.9 0 0 0 2.108-1.565c.246-.326.571-.932.867-1.62c.05-.114.096-.228.141-.34a7.5 7.5 0 0 1-1.138.245a.765.765 0 0 1-.403-1.458l.1-.044c.579-.255 1.443-.636 2.34-1.965c1.624-2.412 2.813-5.107 3.15-6.914c.318-1.71.064-2.9-.326-3.667a2.95 2.95 0 0 0-.732-.886c-.333-.272-.634-.388-.848-.388c-.133 0-.33.055-.65.283c-.322.23-.69.576-1.156 1.048a25.17 25.17 0 0 0-1.953 2.208a88.775 88.775 0 0 0-5.674 8.068c-3.148 5.048-6.117 11.04-7.294 16.936c-.24 1.207-.41 2.4-.486 3.582a.765.765 0 0 1-.559.687c.202.5.37 1.033.45 1.555Zm2.829-1.762l-.022.058a205.494 205.494 0 0 0-1.12 3.133c1.13-.02 2.152-.203 3-.627a.765.765 0 0 1-.157-1.442l.006-.002c.458-.212.912-.421 1.365-.71c-.761.133-1.596.132-2.527-.023a.764.764 0 0 1-.545-.387Z" clip-rule="evenodd"/></svg>