<svg xmlns="http://www.w3.org/2000/svg" xmlns:xlink="http://www.w3.org/1999/xlink" width="128" height="128" viewBox="0 0 128 128"><path fill="currentColor" d="M83.742 113.05c-1.644 0-3.062.44-4.08 1.247a4.183 4.183 0 0 0-1.612 3.335c0 1.22.493 2.237 1.382 2.942c.89.706 2.131 1.115 3.653 1.32l.01.002l.82.077l.003.002c1.001.152 1.617.381 1.936.617c.32.237.407.447.407.819c0 .457-.181.787-.571 1.056c-.39.268-1.019.454-1.865.454c-1.527 0-2.95-.664-3.891-1.331l-.132-.095h-.165c-.084 0-.367-.085-.686.216l-.006.006l-1.563 1.565v.187c0 .08-.09.347.228.648l.014.013l.013.01c1.299 1.052 3.564 1.853 6.115 1.773c1.964-.002 3.524-.476 4.606-1.311c1.084-.837 1.659-2.038 1.659-3.35c0-1.292-.483-2.345-1.374-3.074c-.89-.73-2.137-1.14-3.659-1.346l-.01-.002l-.839-.08c-1.002-.114-1.639-.326-1.978-.557c-.34-.23-.432-.439-.432-.796c0-.443.143-.736.436-.963c.292-.227.778-.39 1.496-.39c1.169 0 2.237.285 3.432.963l.116.066h.138c.083 0 .366.083.684-.214l.03-.028l1.206-1.578v-.152c0-.079-.029-.381-.232-.571l-.027-.026l-.033-.022c-1.284-.867-3.203-1.431-5.229-1.431zm-.003.937c1.708 0 3.315.495 4.39 1.143l-.749.981c-1.241-.665-2.455-1.005-3.726-1.005c-.874 0-1.602.196-2.126.602c-.524.407-.799 1.023-.799 1.688c0 .592.284 1.174.845 1.556s1.349.605 2.44.729h.004l.824.079c1.41.19 2.467.569 3.147 1.126s1.033 1.282 1.033 2.365c0 1.062-.431 1.958-1.295 2.625c-.863.667-2.188 1.1-3.988 1.1h-.01l-.007.003c-2.198.07-4.143-.648-5.23-1.447l1.073-1.073c1.063.712 2.539 1.4 4.257 1.4c.997 0 1.834-.212 2.45-.636c.615-.424.979-1.084.979-1.813c0-.579-.251-1.159-.79-1.556c-.537-.397-1.302-.64-2.392-.805l-.016-.002l-.84-.08c-1.404-.192-2.464-.573-3.144-1.112c-.682-.54-1.03-1.226-1.03-2.223c0-1.1.453-1.98 1.258-2.618s1.986-1.027 3.442-1.027zm3.598 2.148l.02.006l-.03.036c.042-.033.072-.042.01-.042zm-12.064.714c-1.043 0-1.84.365-2.486.844c-.038-.182-.115-.36-.23-.447a.692.692 0 0 0-.468-.16h-2.093a.781.781 0 0 0-.576.265a.609.609 0 0 0-.17.44v9.18c0 .236.138.44.279.546s.26.16.467.16h.02l2.075-.078a.78.78 0 0 0 .576-.265a.608.608 0 0 0 .17-.442v-5.142c0-.73.162-1.235.409-1.533c.247-.297.584-.454 1.19-.454c.545 0 .951.19 1.453.427l.105.05h.118c.085 0 .37.08.686-.218l.016-.017l1.302-1.492v-.168s0-.085-.021-.182a.666.666 0 0 0-.21-.386c-.638-.605-1.642-.928-2.612-.928zm.001.938c.624 0 1.275.282 1.688.576l-.816.936c-.47-.22-.994-.473-1.71-.473c-.82 0-1.527.28-1.97.813c-.444.534-.62 1.257-.62 2.111v4.921l-1.603.06v-8.708h1.602v1.029h.845l.148-.21c.4-.565 1.24-1.055 2.436-1.055zm.839 1.515l.025.006l-.038.044c.086-.076.087-.05.013-.05zm3.533 5.072c-.151.143-.1.058-.015.058l-.033-.01zm-1.298 1.089c-.007-.014.02.03.02.006l-.002.004c-.004-.004-.013-.006-.018-.01zm39.655-12.256c-.25 0-.463.133-.576.266s-.17.247-.17.441v13.057c0 .236.14.44.28.546a.692.692 0 0 0 .468.16h2.093c.25 0 .463-.132.576-.265s.172-.245.172-.44v-2.267l.942-.94l2.447 3.505l.035.033c.084.079.159.158.285.238a.993.993 0 0 0 .485.137l2.252.079h.01a.69.69 0 0 0 .397-.123a.586.586 0 0 0 .039-.916l.064.075l-3.723-5.386l3.24-3.205a.653.653 0 0 0 .203-.34a.579.579 0 0 0-.106-.451c-.175-.22-.328-.247-.533-.247h-2.337a.968.968 0 0 0-.869.492l.08-.106l-2.91 2.933v-6.569a.715.715 0 0 0-.282-.546a.691.691 0 0 0-.469-.16zm.243.938h1.605v8.709l4.676-4.71l.021-.043h1.496l-3.228 3.196l3.798 5.498l-1.533-.053l-.077-.071l-3.08-4.407l-2.073 2.067v2.41h-1.605zM.806 113.37a.781.781 0 0 0-.576.266a.609.609 0 0 0-.17.441v13.057a.71.71 0 0 0 .28.544c.14.106.259.163.468.163h5.527c1.742 0 3.173-.324 4.198-1.068c1.024-.743 1.575-1.908 1.575-3.359c0-1.564-.923-2.57-1.886-3.13c.878-.576 1.636-1.43 1.636-2.884c0-1.172-.435-2.223-1.34-2.94c-.903-.717-2.221-1.09-3.931-1.09zm.243.938h5.535c1.557 0 2.625.34 3.292.87c.668.529.987 1.258.987 2.222c0 1.427-.662 2.002-1.57 2.431l-.273.13v.696l.325.113c.7.24 1.768 1.191 1.768 2.644c0 1.24-.412 2.053-1.188 2.616c-.777.563-1.984.873-3.593.873H1.049zm90.227.014a.778.778 0 0 0-.574.264a.608.608 0 0 0-.172.441v2.223h-.258a.78.78 0 0 0-.575.265a.61.61 0 0 0-.173.442v1.345c0 .236.14.438.281.544c.14.106.26.161.467.161h.258v4.676c0 .985.257 1.824.882 2.402c.624.577 1.547.836 2.713.836l1.071.08h.02c.25 0 .461-.133.573-.265a.604.604 0 0 0 .173-.44v-1.584a.71.71 0 0 0-.281-.544a.69.69 0 0 0-.467-.163h-.585c-.274 0-.393-.053-.429-.082c-.035-.03-.081-.08-.081-.319v-4.597h1.097c.25 0 .461-.131.573-.263a.607.607 0 0 0 .173-.442v-1.345a.71.71 0 0 0-.28-.544a.684.684 0 0 0-.466-.163h-1.097v-2.223a.711.711 0 0 0-.281-.543a.69.69 0 0 0-.467-.161zm.246.938h1.605v2.38c0 .197.179.424.318.489c.138.064.261.058.261.058h1.264v.883h-1.264c-.207 0-.448.166-.517.298c-.07.132-.062.25-.062.25v4.986c0 .395.12.778.42 1.025s.684.313 1.082.313h.34v1.102l-.825-.06h-.02c-1.012 0-1.638-.217-2.019-.57c-.38-.352-.583-.896-.583-1.731v-5.064c0-.194-.174-.422-.314-.49c-.14-.066-.265-.06-.265-.06h-.427v-.882h.427c.207 0 .448-.167.517-.298c.07-.132.062-.25.062-.25zm-88.12.168c-.207 0-.448.167-.517.299c-.07.131-.062.249-.062.249v3.324c0 .059.069.088.095.147l-.004.033l.106.205s.075.07.103.088l.006.002c.004.002.004.01.008.013c.025.012.024.003.048.01c.045.02.098.045.12.05c.068.016.105.019.155.024c.1.009.222.016.37.022c.296.011.689.019 1.084.024c.79.01 1.587.009 1.587.009c.763 0 1.43-.206 1.915-.6c.484-.393.757-.976.757-1.61c0-.666-.266-1.268-.752-1.675c-.485-.408-1.157-.614-1.92-.614zm.413.937h2.686c.577 0 .993.152 1.262.378c.268.225.418.531.418.974c0 .393-.142.68-.412.9s-.691.372-1.268.372c0 0-.793 0-1.573-.009c-.145-.002-.253-.007-.392-.009l.064-.06h-.785zm14.916.484c-1.043 0-1.84.365-2.486.844c-.038-.182-.115-.36-.23-.447a.692.692 0 0 0-.468-.16h-2.093c-.25 0-.463.132-.576.265s-.172.243-.172.44v9.18c0 .236.14.44.281.546a.692.692 0 0 0 .467.16h.02l2.073-.078c.25 0 .463-.133.576-.265a.608.608 0 0 0 .172-.442v-5.142c0-.73.16-1.235.407-1.533c.247-.297.585-.454 1.19-.454c.546 0 .952.19 1.455.427l.105.05h.116c.084 0 .371.083.688-.22l.016-.015l1.3-1.492v-.168s.001-.083-.02-.18a.67.67 0 0 0-.208-.388c-.64-.605-1.642-.928-2.613-.928zm.001.938c.623 0 1.272.282 1.686.576l-.816.936c-.47-.22-.994-.473-1.71-.473c-.819 0-1.527.28-1.97.813c-.444.534-.619 1.257-.619 2.111v4.921l-1.604.06v-8.708h1.604v1.029h.845l.148-.21c.4-.565 1.24-1.055 2.436-1.055zm.837 1.515l.025.006l-.04.046c.09-.08.088-.051.015-.051zm81.598-2.453c-1.839 0-3.2.414-4.137 1.034l.283-.086a.683.683 0 0 0-.396.123a.592.592 0 0 0-.227.344c-.05.239.03.423.19.573l-.071-.084l.837 1.265l-.023-.039c.1.192.309.348.53.383a.71.71 0 0 0 .601-.181l-.075.058c.417-.262 1.158-.554 2.236-.554c.877 0 1.386.13 1.616.287c.231.157.318.35.318.826v.086h-1.765c-1.407 0-2.6.264-3.475.86c-.874.597-1.378 1.546-1.378 2.695c0 1.15.5 2.054 1.287 2.61c.787.558 1.814.786 2.895.786c1.18 0 2.01-.307 2.677-.721c.047.158.103.324.207.403c.14.106.26.16.467.16h.025l.023-.001l1.677-.16l-.049.003c.25 0 .464-.132.576-.264a.606.606 0 0 0 .17-.441v-6.174c0-1.223-.335-2.235-1.188-2.887c-.852-.65-2.102-.904-3.83-.904zm0 .938c1.622 0 2.636.258 3.208.695s.82 1.086.82 2.159v5.96l-1.186.114v-1.86l-.892 1.124c-.384.483-1.216.92-2.703.92c-.93 0-1.745-.207-2.299-.6c-.553-.392-.891-.951-.891-1.86c0-.908.333-1.502.967-1.935c.634-.432 1.62-.682 2.893-.682h2.177a.686.686 0 0 0 .517-.297c.07-.132.064-.25.064-.25v-.477c0-.632-.205-1.228-.729-1.585c-.523-.357-1.23-.465-2.197-.465a4.965 4.965 0 0 0-2.516.642l-.558-.845c.74-.427 1.788-.758 3.326-.758zm-69.533-.781c-.185 0-.268.055-.343.101a.767.767 0 0 0-.192.163a.596.596 0 0 0-.141.284a.58.58 0 0 0 .155.489l-.115-.174l3.434 9.179l-.027-.156c0 .236.14.438.281.544s.258.161.465.161h1.841c.249 0 .512-.202.584-.315c.072-.112.093-.128.02-.058l.084-.08l1.698-4.944l1.667 4.916l-.024-.145c0 .235.139.438.28.544s.26.163.466.163h.022l1.992-.08c.248 0 .51-.203.581-.315c.072-.113.095-.13.022-.061l.08-.077l3.389-9.28l-.026.057c.116-.22.044-.568-.114-.718a.635.635 0 0 0-.498-.198h-2.178c-.166 0-.443.106-.554.246s-.114.199-.142.25l-.02.037l-1.606 5.059l-1.73-5.03l.023.145a.71.71 0 0 0-.277-.544a.69.69 0 0 0-.47-.163h-1.674a.593.593 0 0 0-.376.13a.823.823 0 0 0-.137.134a.722.722 0 0 0-.09.112l-.087.08l-1.7 5.137l-1.662-5.027l.023.141a.7.7 0 0 0-.207-.509a.79.79 0 0 0-.54-.198zm.445.938h1.54l2.175 6.569h.814l2.17-6.57h1.293l2.261 6.57h.812l2.086-6.57h1.544l-3.186 8.724l-1.63.065l-2.172-6.403h-.806l-2.175 6.331h-1.462zm-6.142-.936c-2.38 0-4.221.994-4.97 2.886c-.374.713-.47 1.445-.47 2.57c0 1.148.188 1.863.45 2.525c.658 1.936 2.596 2.929 4.988 2.929c2.38 0 4.222-.994 4.97-2.885c.375-.714.47-1.445.47-2.57c0-1.152-.187-1.873-.45-2.538l-.002-.002c-.74-1.838-2.577-2.915-4.986-2.915zm0 .938c2.114 0 3.459.823 4.058 2.308c.239.602.388 1.147.388 2.21c0 1.086-.076 1.616-.366 2.164l-.014.024l-.01.026c-.601 1.563-1.93 2.303-4.058 2.303c-2.126 0-3.532-.747-4.05-2.285l-.008-.022c-.238-.6-.387-1.145-.387-2.21c0-1.086.075-1.615.366-2.165l.014-.024l.01-.026c.6-1.563 1.93-2.303 4.057-2.303zm37.447-.938c-2.38 0-4.223.994-4.971 2.886c-.382.728-.47 1.523-.47 2.57c0 1.073.182 1.852.449 2.527a3.995 3.995 0 0 0 1.881 2.24c.905.5 2.046.726 3.368.685c2.132-.002 3.854-.752 4.882-1.812l.13-.134v-.183s0-.083-.02-.18a.666.666 0 0 0-.209-.388l-.017-.018l-1.498-1.148h-.177c-.083 0-.184-.004-.31.013a.786.786 0 0 0-.457.2l.025-.023c-.53.43-1.126.76-2.273.76c-1.125 0-1.612-.32-1.973-1.137l-.006-.014l-.006-.013c-.006-.011-.016-.081-.027-.115h6.368a.783.783 0 0 0 .576-.266a.61.61 0 0 0 .17-.441c0-1.614-.18-2.415-.45-3.092l-.001-.006l-.002-.004c-.743-1.755-2.562-2.907-4.983-2.907zm0 .938c2.1 0 3.46.907 4.058 2.314c.214.54.33 1.244.353 2.526h-6.59a.68.68 0 0 0-.518.3c-.069.132-.062.248-.062.248c0 .335.079.639.215.904c.48 1.074 1.494 1.703 2.878 1.703c1.326 0 2.21-.444 2.848-.945l.894.687c-.845.72-2.125 1.298-3.826 1.298h-.017c-1.187.037-2.138-.17-2.843-.559a2.983 2.983 0 0 1-1.442-1.726l-.008-.022c-.233-.589-.387-1.229-.387-2.21c0-1.005.082-1.63.366-2.165l.012-.024l.01-.026c.6-1.563 1.932-2.303 4.06-2.303zm49.003-.938c-2.304 0-4.216.983-4.97 2.887c-.38.728-.47 1.523-.47 2.569c0 1.077.183 1.86.451 2.537c.741 1.92 2.666 2.998 5 2.915c1.708-.003 3.182-.596 4.124-1.576l.13-.134v-.181s-.001-.085-.021-.181a.668.668 0 0 0-.206-.387l-.017-.016l-1.582-1.23h-.178c-.084 0-.37-.084-.688.22l.002-.005c-.445.42-.858.654-1.66.654c-.833 0-1.353-.342-1.62-.958a5.503 5.503 0 0 1-.23-1.659c0-.712.018-1.187.2-1.532l.012-.024l.01-.025c.27-.701.761-.958 1.63-.958c.83 0 1.122.148 1.658.654l-.093-.123a.757.757 0 0 0 .53.383c.22.035.44-.03.598-.178l-.033.028l1.402-1.091c.035-.017.072-.007.104-.032a.59.59 0 0 0 .225-.344c.049-.232-.034-.409-.184-.556c-.933-1.044-2.346-1.657-4.124-1.657zm0 .938c1.395 0 2.365.442 3.095 1.128l-.961.747c-.603-.524-1.275-.833-2.217-.833c-1.133 0-2.134.532-2.543 1.552c-.306.598-.3 1.222-.3 1.924c0 .747.092 1.354.271 1.948l.006.024l.01.022c.406.956 1.384 1.56 2.555 1.56c.967 0 1.669-.36 2.217-.832l.943.735c-.74.62-1.773 1.06-3.075 1.06h-.02c-2.016.073-3.44-.747-4.039-2.303v-.002l-.002-.002c-.233-.59-.387-1.23-.387-2.21c0-1.005.082-1.63.366-2.166l.013-.024l.01-.025c.598-1.552 2.02-2.303 4.058-2.303zm2.277 7.142c-.01.009.006-.004-.002.004c-.117.108-.094.056-.015.056l-.047-.016c.018-.016.045-.024.062-.04v-.002zm-62.088-8.001c-1.423 0-2.587.335-3.411.965a3.197 3.197 0 0 0-1.273 2.589c0 .9.359 1.693 1.029 2.244c.67.55 1.606.867 2.76.992h.01l1.187.08h.004c.666.038 1.049.158 1.209.259s.167.137.167.302c0 .16-.048.265-.27.395c-.221.131-.638.246-1.246.246c-1.031 0-2.308-.463-2.936-.99l-.002-.003h-.001a.791.791 0 0 0-.988 0l-.006.006l-1.347 1.194l.34-.128a.627.627 0 0 0-.47.249a.524.524 0 0 0-.09.31c0 .175.05.33.21.48l.008.008l.008.006c1.008.866 2.73 1.705 5.118 1.624c1.581-.002 2.844-.353 3.73-1.009a3.299 3.299 0 0 0 1.365-2.702c0-.86-.333-1.645-.99-2.208c-.658-.563-1.602-.901-2.803-1.027l-.01-.002l-1.162-.079c-.678-.076-1.082-.198-1.248-.297c-.167-.098-.155-.1-.155-.265c0-.18.044-.258.209-.362s.49-.198.97-.198c.868 0 2.01.38 2.586.72l.12.07h.142c.084 0 .367.086.686-.215l.007-.007l1.229-1.249v-.183s0-.086-.021-.183s-.051-.238-.212-.388l-.032-.031l-.041-.026c-1.09-.687-2.605-1.186-4.38-1.186zm.001.938c1.422 0 2.6.388 3.501.886l-.703.715c-.766-.41-1.823-.798-2.882-.798c-.608 0-1.12.103-1.521.355c-.4.253-.651.69-.651 1.143c0 .388.22.82.62 1.058c.399.237.916.353 1.66.436h.012l1.165.078h.002c1.06.112 1.792.407 2.244.793c.452.387.665.867.665 1.512c0 .826-.322 1.475-.983 1.965s-1.7.81-3.13.81h-.02c-1.937.069-3.246-.554-4.107-1.202l.899-.796c.884.664 2.162 1.116 3.395 1.116c.732 0 1.323-.123 1.771-.388c.449-.264.737-.717.737-1.19a1.3 1.3 0 0 0-.609-1.08c-.405-.255-.944-.374-1.701-.415l-1.148-.077c-1.023-.112-1.76-.39-2.22-.77c-.462-.378-.688-.853-.688-1.535c0-.787.304-1.402.905-1.86c.6-.459 1.53-.756 2.786-.756zm2.762 1.594l.035.01l-.05.049c.152-.144.1-.06.015-.06zm8.045-.789c-1.17 0-2.223.58-2.64 1.56l-.011.025c-.114.327-.108.623-.108.94c0 .194.174.422.313.488c.14.067.266.06.266.06h4.356c.208 0 .448-.166.518-.298c.07-.131.062-.25.062-.25v-.075l-.025-.074a4.79 4.79 0 0 1-.103-.485l.025-.024l-.085-.269c0-.002-.003-.003-.004-.006c-.001-.004 0-.004-.002-.007l-.002.004c-.327-1.008-1.395-1.589-2.56-1.589zm0 .937c.836 0 1.433.365 1.614.927l.008.02c.013.038.044.18.054.253h-3.409c.008-.07.003-.182.021-.238c.258-.593.878-.962 1.712-.962zm-37.447-.699c-1.168 0-2.147.602-2.552 1.556c-.283.625-.29 1.13-.29 1.919c0 .822.093 1.37.276 1.89l.004.012l.006.013c.395.93 1.313 1.56 2.554 1.56c1.172 0 2.063-.622 2.541-1.525c.31-.587.302-1.159.302-1.95c0-.824-.093-1.37-.275-1.89l-.012-.025c-.394-.931-1.312-1.56-2.554-1.56zm0 .937c.93 0 1.35.319 1.626.962c.147.426.222.824.222 1.576c0 .791-.007 1.168-.2 1.532c-.358.677-.81 1.005-1.65 1.005c-.93 0-1.348-.318-1.624-.96c-.15-.427-.225-.825-.225-1.577c0-.792-.005-1.077.213-1.556l.004-.012c.264-.626.794-.97 1.634-.97zm-22.618.885c-.208 0-.448.166-.518.298s-.064.249-.064.249v3.482l.025-.148c-.073.208-.055.512.132.688s.42.167.423.167h3.269c.837 0 1.551-.2 2.064-.62s.777-1.052.777-1.75c0-.697-.266-1.327-.779-1.748c-.513-.42-1.226-.618-2.062-.618zm.41.937h2.857c.67 0 1.13.156 1.413.388c.283.233.436.552.436 1.042c0 .489-.153.81-.436 1.042s-.742.39-1.413.39H3.729zm97.856.958c-.879 0-1.539.088-2.05.37c-.511.28-.79.815-.79 1.363c0 .521.27 1.012.718 1.285c.45.274 1.02.372 1.704.372h.015l.014-.002c.764-.043 1.434-.184 1.96-.527c.524-.344.852-.925.852-1.602v-.712c0-.198-.179-.424-.318-.49c-.139-.064-.261-.058-.261-.058zm0 .937h1.43v.322c0 .431-.132.64-.424.831c-.289.19-.789.32-1.44.36c-.56-.004-.954-.1-1.15-.22c-.2-.123-.264-.226-.264-.497c0-.321.055-.42.298-.554s.754-.242 1.55-.242zM72.448 29.236c-.571.099-1.143.348-1.676.705c-1.066.715-2.026 1.876-2.68 3.334c-.653 1.458-.883 2.947-.708 4.219c.174 1.27.78 2.366 1.84 2.842c1.058.474 2.28.2 3.347-.514c1.066-.715 2.026-1.878 2.68-3.336s.884-2.947.709-4.22c-.175-1.27-.782-2.365-1.84-2.841h-.002a2.845 2.845 0 0 0-1.67-.19zm1.67.19l-.094-.044h-.107zm-1.522.787a1.885 1.885 0 0 1 1.118.117l.003.002c.666.3 1.118 1.025 1.262 2.07c.144 1.047-.047 2.373-.633 3.678c-.585 1.305-1.448 2.33-2.326 2.92c-.877.588-1.722.732-2.39.433h-.003c-.667-.3-1.12-1.028-1.263-2.074c-.144-1.047.047-2.373.633-3.678c.585-1.305 1.448-2.33 2.326-2.918c.439-.294.869-.478 1.273-.55zm-7.88-6.907c-9.86 0-17.862 8.002-17.862 17.86S54.856 59.03 64.716 59.03S82.58 51.026 82.58 41.167s-8.004-17.861-17.864-17.861zm0 .99c9.324 0 16.873 7.547 16.873 16.87S74.039 58.04 64.716 58.04s-16.871-7.55-16.871-16.873s7.547-16.87 16.87-16.87zm8.113 4.889l-.056.056c-1.857.122-3.656 1.753-4.68 4.034c-.654 1.457-.886 2.947-.711 4.218c.175 1.272.783 2.367 1.842 2.842s2.28.2 3.348-.514c1.066-.714 2.025-1.877 2.68-3.335c.653-1.458.883-2.948.708-4.22c-.175-1.27-.781-2.366-1.84-2.84a2.747 2.747 0 0 0-1.08-.237h-.002zm.194.994c.252.004.48.054.69.148c.669.3 1.123 1.027 1.267 2.075c.144 1.047-.047 2.372-.633 3.677c-.586 1.306-1.448 2.332-2.326 2.92s-1.723.733-2.39.434h-.003c-.667-.3-1.12-1.028-1.264-2.074c-.144-1.048.047-2.375.633-3.68c.96-2.138 2.717-3.522 4.026-3.5zm-5.352-12.585l-.016.002h.032c-11.5 0-20.832 9.332-20.832 20.832c0 .48.019.96.052 1.44c.002.019 0 .037.002.054l.989-.017c0-.048.003-.096.006-.143v-.006a16.84 16.84 0 0 1 .457-2.728a16.884 16.884 0 0 1 2.23-5.086a16.88 16.88 0 0 1 14.125-7.643h.002c.155 0 .31 0 .465.004a16.9 16.9 0 0 1 1.852.154a16.861 16.861 0 0 1 6.91 2.588v-.002c.13.085.258.172.385.26v.002a16.857 16.857 0 0 1 1.113.84v.002A16.857 16.857 0 0 1 81.59 41.17c-.002 9.322-7.548 16.87-16.87 16.87l-.04-.001l-.092.985c.018.002.036 0 .054.003v.002l.04.002h.017c.99.145 1.988.228 2.988.229c11.5 0 20.834-9.332 20.834-20.832s-9.334-20.834-20.834-20.834zm.016.99c10.965 0 19.844 8.88 19.844 19.844c0 9.997-7.406 18.178-17.018 19.558c7-2.418 12.067-9 12.067-16.818c0-.163-.004-.327-.008-.49v-.002a17.925 17.925 0 0 0-1.701-7.13a17.835 17.835 0 0 0-1.475-2.554a17.798 17.798 0 0 0-.285-.4v-.002a17.86 17.86 0 0 0-3.04-3.21a17.78 17.78 0 0 0-1.583-1.165h-.002a17.84 17.84 0 0 0-1.703-.982v-.002a17.863 17.863 0 0 0-16.567.229h-.002a17.872 17.872 0 0 0-2.47 1.615a17.864 17.864 0 0 0-4.737 5.594a17.87 17.87 0 0 0-.586 1.198c2.065-8.754 9.877-15.283 19.266-15.283zm-2.971-7.158c-13.14 0-23.803 10.663-23.803 23.803s10.663 23.803 23.803 23.803v-.99a16.874 16.874 0 0 1-11.93-4.944a16.864 16.864 0 0 1-4.941-11.925v-.004c.002-.43.02-.86.056-1.29l.002-.038l-.002-.04a19.854 19.854 0 0 1-.058-1.372v-.004c.002-10.963 8.878-19.84 19.842-19.84c10.39.002 19.013 8.009 19.783 18.37h.988c.042-.574.062-1.15.062-1.726c0-13.14-10.663-23.803-23.803-23.803zm0 .99c11.224 0 20.498 8.108 22.407 18.78c-2.965-7.96-10.548-13.598-19.436-13.6h-.002c-11.5 0-20.832 9.332-20.832 20.83v.005c.004.477.024.953.06 1.428c-.034.435-.056.87-.058 1.307v.002a17.866 17.866 0 0 0 6.348 13.654c-6.734-3.965-11.3-11.21-11.3-19.594c0-12.605 10.209-22.812 22.814-22.812zm-4.342-.762c-15.538 0-28.145 12.606-28.145 28.144s12.607 28.144 28.144 28.144s28.145-12.606 28.145-28.144c0-.24-.004-.478-.01-.717v-.03l-.99-.001c-.337 10.715-9.11 19.217-19.828 19.219a19.848 19.848 0 0 1-2.861-.225l-.051-.007l-.051.002l-.02.002c-12.601-.005-22.804-10.21-22.804-22.812c.009-11.351 8.35-20.964 19.588-22.568l-.048-.985c-.354-.014-.707-.02-1.061-.021h-.004zm-4.106 1.402c-9.05 3.447-15.348 12.135-15.355 22.172c0 13.14 10.663 23.803 23.803 23.803h.025l.016-.002c.969.144 1.946.225 2.925.23h.004c8.057 0 15.014-4.627 18.477-11.362c-3.46 11.017-13.627 19.057-25.79 19.057c-15.002 0-27.154-12.151-27.154-27.154c0-13.596 10.01-24.752 23.05-26.742zm12.833-1.22l-.143.979a22.807 22.807 0 0 1 18.57 22.414a22.846 22.846 0 0 1-.07 1.654l-.003.039l.004.04c.042.49.065.98.07 1.47c0 .204-.003.409-.01.613v.027c.007.242.01.485.01.727c0 15.003-12.152 27.154-27.155 27.154c-14.517-.012-26.45-11.428-27.104-25.93l-.984-.041a33.608 33.608 0 0 0-.285 4.299v.002c0 18.567 15.062 33.629 33.629 33.629s33.629-15.062 33.629-33.63c-.001-17.2-12.993-31.622-30.09-33.432l-.027-.008v.002c-.015-.002-.027-.007-.041-.008zm7.783 2.938c12.552 4.629 21.384 16.572 21.385 30.51c0 18.032-14.607 32.638-32.64 32.638c-17.534 0-31.717-13.845-32.492-31.187c3.103 12.223 14.154 21.198 27.236 21.209c15.538 0 28.145-12.606 28.145-28.144a24.9 24.9 0 0 0-.01-.723v-.03c.007-.206.01-.414.01-.621v-.005a20.8 20.8 0 0 0-.072-1.502a23.71 23.71 0 0 0 .072-1.686v-.004c0-8.586-4.591-16.262-11.635-20.455zm-8.74-8.376a36.142 36.142 0 0 0-30.612 16.98l-.01.01h.002l-.02.028l.823.55a27.151 27.151 0 0 1 22.045-11.322c.357 0 .715.009 1.072.024l.047.002l.047-.006a22.814 22.814 0 0 1 3.178-.248c1.507 0 3.009.15 4.486.447l.022.006l.02.002c16.52 1.84 29.012 15.792 29.025 32.414c-.013 16.414-12.206 30.259-28.487 32.347l.088.986c.013 0 .026-.005.04-.006v.002c.007 0 .014-.004.023-.006c19.223-.953 34.339-16.814 34.352-36.067c0-19.784-15.925-35.82-35.645-36.092v-.051zm0 .99c19.42 0 35.15 15.734 35.15 35.153c-.01 14.675-9.08 27.205-21.974 32.44c10.74-5.674 17.93-16.924 17.94-29.696v-.002c-.013-17.113-12.885-31.49-29.89-33.393a23.8 23.8 0 0 0-4.653-.465h-.004c-1.091.008-2.18.096-3.26.254a28.17 28.17 0 0 0-1.076-.026h-.002c-6.113.003-11.882 2.13-16.67 5.684c6.475-6.286 15.198-9.942 24.44-9.95zM32.306 38.036l-.004.084a36.149 36.149 0 0 0-.3 4.42v.01c.009.47.025.94.052 1.41l.99-.006c.038-.925.113-1.848.229-2.766l.008-.047l-.004-.05a27.14 27.14 0 0 1-.057-1.286v-.015c.007-.56.033-1.116.074-1.672l.002-.012v-.033l-.988-.037zM65.173.229c-21.722 0-39.34 17.62-39.34 39.342c0 21.72 17.618 39.34 39.34 39.34h.016l.214-.008h.022l-.016-.99c-17.94-.122-32.41-14.682-32.418-32.62v-.01c.01-.44.028-.877.055-1.316l.002-.03l-.002-.03a35.15 35.15 0 0 1-.053-1.364v-.011c.01-1.45.107-2.897.295-4.334l.004-.018v-.017c.3-5.04 1.998-9.898 4.904-14.025l.01-.012l.008-.014A35.153 35.153 0 0 1 68.147 7.39c19.42 0 35.15 15.733 35.15 35.152l.003-.008c-.01.512-.03 1.023-.06 1.534l-.003.03l.987.09c0-.01 0-.02.002-.03v-.002a39.4 39.4 0 0 0 .293-4.58v-.005c0-21.643-17.5-39.19-39.114-39.316L65.377.23zm-.02.992h.022c18.958 0 34.594 13.773 37.696 31.844C98.683 17.734 84.799 6.399 68.146 6.399a36.147 36.147 0 0 0-30.758 17.17l-.002.004a28.142 28.142 0 0 0-5.078 14.496v.01a36.133 36.133 0 0 0-.305 4.458v.014c.01.462.026.923.053 1.385c-.027.445-.044.892-.053 1.338v.01c.004 11.405 5.714 21.466 14.412 27.546c-11.643-6.583-19.592-18.926-19.592-33.26c0-21.18 17.153-38.34 38.33-38.35zM59.005 0C34.001 0 13.721 20.28 13.721 45.283s20.28 45.283 45.284 45.283s45.282-20.28 45.282-45.283v-.002c-.001-.51-.01-1.02-.027-1.53l-.987-.04c-.01.092-.023.183-.035.275l-.002.022l-.002.02c-.783 18.156-15.267 32.716-33.42 33.595l-.021.002l-.02.002a32.658 32.658 0 0 1-4.14.295l-.213-.01h-.047l-.205.01c-21.185-.003-38.345-17.168-38.345-38.351c.016-20.71 16.458-37.66 37.159-38.303l.04-.986A45.283 45.283 0 0 0 59.5.03V0zm-2.303 1.223C39.017 5.112 25.847 20.824 25.832 39.57c0 21.722 17.618 39.342 39.34 39.342h.022l.203-.01l.213.01h.023a33.43 33.43 0 0 0 4.229-.3l.012-.001c15.47-.754 28.223-11.248 32.627-25.431c-3.735 20.684-21.735 36.396-43.498 36.396c-24.467 0-44.293-19.825-44.293-44.293c0-23.68 18.616-42.84 41.99-44.06zm7.313-.994a49.74 49.74 0 0 0-.395.013l-.03.988l.349.038l.04.003l.042-.001c.306-.018.613-.03.92-.04l-.006-.99h-.026c-.292-.006-.584-.01-.876-.011h-.008zm9.846.974l-.205.969c17.472 3.962 29.868 19.483 29.87 37.398a38.367 38.367 0 0 1-.252 4.15l-.004.037v.037c.017.497.026.992.027 1.489c0 24.468-19.823 44.293-44.292 44.293c-22.75-.014-41.784-17.25-44.047-39.886l-.986.03c-.008.192-.016.384-.022.577v.014c0 27.653 22.43 50.082 50.083 50.082s50.08-22.43 50.08-50.082c0-23.86-16.841-44.41-40.234-49.101l-.004-.002l-.013-.004zm13.81 6.229c15.324 8.45 25.453 24.616 25.453 42.879c0 27.118-21.972 49.09-49.091 49.09c-24.417 0-44.606-17.831-48.397-41.175c5.607 18.848 23.04 32.327 43.367 32.34h.002c25.004 0 45.282-20.28 45.282-45.283v-.002a43.5 43.5 0 0 0-.028-1.49c.16-1.4.247-2.808.256-4.217v-.004c0-13.14-6.58-24.945-16.844-32.138z"/></svg>