<svg xmlns="http://www.w3.org/2000/svg" xmlns:xlink="http://www.w3.org/1999/xlink" width="128" height="128" viewBox="0 0 128 128"><path fill="currentColor" d="M67.564.006c-3.588.067-7.1.665-10.027 1.742c-2.175.8-4.28 1.517-6.191 2.639c-5.111 3-10.537 5.006-12.053 11.045c-3.253 1.457-4.524 5.274-4.674 9.9c-1.164.976-2.297 1.987-3.36 3.074c-8.37 8.562-13.546 20.393-13.546 33.446c0 13.05 5.176 24.88 13.547 33.441a45.23 45.23 0 0 0 2.744 2.555c.071 1.023.14 2.046.207 3.08c.134 2.084-.088 4.292.453 5.443c.558 1.19 2.625 1.57 4.12 2.262c4.314 1.996 8.892 5.044 14.552 4.44c1.349 4.535 2.625 9.365 4.244 13.337c5.803 2.087 14.963 1.76 20.996 1.035c1.834-.221 3.768-1.127 4.2-2.716c-.13-.981-.273-1.948-.212-3.108c1.887-.39 4.455-.714 4.87-2.8c.581-2.93-1.848-7.124-1.038-10.337c1.093-.355 2.259-.632 2.084-2.355c1.841-.958 4.022-1.173 6.352-1.082c.3.58.727 1.137 1.111 1.457c3.264.655 6.426.71 9.135-.174c3.068-1.001 4.533-7.275 3.83-10.26c-.497-2.115-1.624-5.58-2.584-7.629c-.599-1.28-1.479-2.063-2.517-2.511a47.818 47.818 0 0 0 6.48-24.078c.001-13.052-5.175-24.884-13.547-33.446c-.39-.399-.805-.772-1.21-1.154c-.279-4.978-1.24-9.668-3.038-13.3c-1.57-3.176-5.959-7.56-8.705-9.638C79.74 1.254 73.546-.106 67.564.006zm.479 2.84c4.847-.048 10.236 1.66 13.887 3.72c3.05 1.721 5.301 5.05 7.447 7.819c-3.01-.893-5.57.64-5.104 3.123c2.52-2.309 6.822-.025 8.094 2.527c1.218 2.441 1.21 6.057 1.397 9.686c.453 8.798-1.61 17.875-6.032 24.234c-1.181 1.698-2.173 3.553-3.836 4.723c-4.005 2.813-10.095 5.363-15.308 3.615c-6.89-2.312-10.02-6.903-13.809-12.16c.103 2.887 2.134 5.257 4.139 7.467c1.746 1.925 3.852 4.1 6.117 4.998c-1.89-.444-4.792-.584-5.58 1.113c-4.41-.293-8.507-.743-10.594-3.732c-1.643-2.357-3.315-6.364-4.064-9.46c-.153-.635-.414-1.99-.35-2.337c.246-1.343 2.638-1.932 1.698-3.809c-1.736-.016-2.128 1.58-3.721 1.738c-4.125.408-7.035-5.467-6.848-9.011c.159-3.015 2.706-5.9 6.192-5.518c2.463.27 3.299 2.958 3.777 5.35c1.42.076 3.473-.06 4.144-1.168c-.096-2.704-1.351-4.872-1.265-7.356c.162-4.668 2.704-8.88.742-13.478c2.1-4.765 8.261-8.525 12.818-10.797c1.765-.88 3.856-1.265 6.059-1.287zM55.503 5.19c.2.032.382.186.558.373c-.031.812-.83.795-1.37 1.055c-.84 1.032-2.067 1.516-3.09 2.649c-1.048 1.16-2.223 4.276-3.613 4.62c-.697.174-1.492-.12-2.1-.081c-1.605.101-2.735.923-4.363 1.16c2.102-4.596 8.66-8.314 13.776-9.764a.462.462 0 0 1 .203-.012zm8.741 9.973c-2.636.003-5.64 2.822-6.422 4.973c-.318.874-.82 2.59.442 2.896c1.413-3.149 3.727-6.187 8.388-5.101c.895-1.472-.704-2.553-1.886-2.73a3.472 3.472 0 0 0-.522-.038zm-16.654.479c1.802 4.586-1.294 10.037-.14 15.052c.352 1.536 1.572 3.92-.378 3.971c.051-4.37-5.368-7.142-9.453-4.572c-.273-3.315-.748-7.973 1.512-10.46c2.085-2.295 4.96-3.726 8.459-3.991zm41.775 7.597c-.149 2.518.787 4.033 1.436 5.813c-1.122.706-3.305.265-4.57.818c-.09 3.723 5.758 1.89 6.648-.183c-1.329-1.932-2.24-4.25-3.293-6.438l-.22-.01zm-20.326.057c-.692 1.964 1.188 5.299 2.242 6.984c-1.373 1.334-3.84.227-5.677.14c-1.753 2.77 3.421 3.291 5.642 2.636c.608-.18 1.663-1.091 1.807-1.5c.616-1.734-.628-2.494-1.268-3.118c-1.42-1.384-1.747-3.31-2.746-5.142zm10.549 1.81c-.134-.017-.295.032-.488.172c-.125 4.616 3.305 8.437 5.863 11.52c1.25 1.505 2.758 2.363 1.371 4.701c-2.236.85-5.856 3.286-8.965 2.754c-1.65-.282-1.279-2.154-1.871-3.172c-1.137 1.496-.69 3.761.48 4.78c5.48.541 9.21-1.796 12.553-3.944c-.133-.842 1.012-2.36.694-3.627c-.11-.436-1.101-1.068-1.704-1.727c-2.452-2.675-5.814-6.67-7.15-9.796c-.12-.28-.202-1.584-.783-1.66zm-44.742 3.715c.157.72.317 1.448.195 2.057c-.103.516-.803 1.176-.943 1.512c-1.79 4.267-.355 9.878 1.713 12.91c1.25 1.832 3.32 3.457 6.05 3.888c.109 1.635.503 3.043 1.258 4.7c.478 1.047 2.263 2.93 1.606 4.267c-.331.674-3.238 2.139-4.202 2.717c-3.254 1.953-5.614 3.149-8.619 5.313c-1.944 1.399-4.985 1.578-4.506 4.806c.324 2.179 1.564 4.878 2.274 7.063c.767 2.357 1.867 4.516 2.498 6.963c.766 2.97 1.191 5.846 1.484 8.71c-.131-.13-.27-.252-.4-.384c-7.877-8.058-12.752-19.185-12.752-31.492c0-12.31 4.875-23.437 12.752-31.497a41.351 41.351 0 0 1 1.592-1.533zm60.758 2.453c7.365 7.977 11.894 18.724 11.894 30.577a45.024 45.024 0 0 1-6.65 23.609c-3.095.15-6.65 1.791-9.026 2.973c2.013-5.296 3.745-10.785 5.52-16.725c.53-1.78 1.579-4.302 1.344-6.147c-.22-1.733-2.924-3.556-4.348-4.93c-.79-.762-4.48-3.562-4.693-4.61c-.208-1.014 1.504-3.311 2.054-4.46c.79-1.644 1.356-3.656 1.746-5.025c1.309-4.6 2.08-9.976 2.159-15.262zm-54.995 2.467c-1.267-.02-2.416.817-2.687 2.785c.562-.369 1.016-1.415 2.03-.918c-.89 1.738-.676 5.12.534 6.22c-.007-2.062-.329-5.588 1.43-5.481c1.23.075 1.48 2.71 2.527 3.308c.723-3.478-1.721-5.882-3.834-5.914zM90.66 44.104c-2.673 1.219-4.83 2.996-8.322 3.332c-.17.576-.097 2.031-.004 2.988c4.568-.095 6.77-3.358 8.326-6.32zm-21.885 1.921c1.335 3.573 7.354 4.832 12.444 4.579c-.008-1.058-.003-2.131-.215-2.999c-3.96.116-9.315-.048-12.229-1.58zm-.552 2.856c-2.574.003-.403 1.436.033 1.996c.902 1.16 1.96 3.138 3.607 4.014c2.598 1.38 7.76.802 9.631.04c.693-.28 1.249-1.057 1.506-1.714c-5.84.14-12.763.722-14.777-4.336zm19.435 9.832c2 1.61 3.21 3.127 5.127 4.85c1.041.932 3.088 2.05 3.295 3.558c.116.843-.402 2.905-.592 3.852c-.84 4.154-2.73 9.643-4.529 13.996c-.654 1.582-1.279 3.56-2.143 3.902c-2.363.936-5.233-.09-7.242 1.16c2.7-4.685 5.639-9.11 8.285-13.851c-.403-.941-1.39-1.342-1.677-2.389c1.858-3.51 1.004-14.403-3.739-12.103c.664-.974 2.404-1.778 3.215-2.975zm-41.722 2.48c.43-.17 3.576 3.923 4.04 4.254c2.55 1.81 5.717 3.24 8.678 4.653c.181 1.359.601 3.12 1.338 5.476c.813 2.602 1.484 6.274 4.922 4.399c-.327 1.485-2.236 2.408-1.709 4.14c.33 1.088 3.937 2.431 5.082 3.076c2.112 1.19 4.039 1.848 5.66 2.543c-7.37.203-14.29.802-21.101 1.729c-.816-1.264-.489-3.212-.575-5.225c-.094-2.185.815-7.114-.044-7.42c-.971-.345-1.152 1.624-1.186 2.057c-.182 2.309 1.097 7.197-.166 9.959c-1.382-.39-2.062-1.431-3.357-1.902c-.508 1.6 1.052 1.677.892 2.693c-.212 1.343-2.758.22-2.744 2.217c1.657.265 4.2-.514 5.97.232c.464 5.433 1.208 10.58 2.024 16.352c-7.048-.366-11.612-3.868-16.806-6.297c-.324-11.49-2.154-23.41-6.688-33.139c4.756-3.67 10.078-7.552 15.77-9.797zm39.082 2.625c.315.016.612.094.882.252c1.033.602 1.471 4.035 1.551 5.705c.067 1.386-.125 2.784-.69 3.518c-2.901-.085-5.522-.43-7.818-1.078c.156-.941-.136-1.865.098-2.543c.64-.46 1.713-.452 2.68-.56c-.837-.412-2.012-.574-2.977-.337c-.022-.653-.315-1.059-.492-1.57c1.428-.51 4.555-3.495 6.766-3.387zm-5.202.127c-1.217.795-2.254 1.786-3.423 2.635c-2.593.128-4.008-.179-5.913-1.668c.032-.12.222-.066.229-.213c2.776 1.237 6.305-.503 9.107-.754zm-27.347.05c1.447 1.004 4.248.756 6.379 1.13c.11.682-.442 1.58-.432 2.531c-1.794-.11-7.428-2.159-5.947-3.662zm9.773.571c.155-.003.322.013.5.047c2.305.44 4.984 1.5 6.768 2.475c1.09.596 1.72 1.334 3.375 1.46l-.026.663c-.906.595-2.369.588-3.363 1.088c1.466.064 2.62.418 3.62.916c-.023.553-.046 1.105-.067 1.658c-1.66 1.137-3.178 2.83-5.133 3.897c-.925.504-4.169 1.801-5.152 1.572c-.557-.13-.606-.82-.828-1.47c-.474-1.395-1.565-3.615-1.66-5.714c-.114-2.485-.357-6.544 1.966-6.592zm13.293 3.463c.138-.01.268-.006.39.012c2.127.313 1.974 4.722-1.39 3.67c-.253-1.444-.547-1.856-.433-3.115c.541-.361 1.02-.534 1.433-.567zm1.936 5.016c1.218.13 2.184 1.81 3.922 1.7c-.279 4.53-.134 9.08-1.399 13.232c-2.357-4.322-3.743-9.54-6.795-13.217c.323-.342.61-.723.926-1.073c1.382.578 2.283-.756 3.346-.642zm7.01 1.441c1.677-.013 3.05 1.084 3.806 2.297c-2.364 4.05-4.627 8.208-7.432 11.78c1.176-3.458 1.68-9.245 1.858-13.657a4.225 4.225 0 0 1 1.767-.42zm-6.335 1.301a.943.943 0 0 0-.892.942a.94.94 0 1 0 .94-.941c-.017 0-.031-.002-.048 0zm-6.435.242c2.8 3.555 4.503 8.126 6.379 12.537c-4.432-1.336-8.96-3.503-12.844-5.7c.763-3.305 3.751-5.017 6.465-6.837zm7.375 4.12a.941.941 0 1 0 .049 0h-.05zm22.135 7.609c1.216.03 2.425 1.017 2.955 1.818c.955 1.444 1.848 5.696 2.35 7.953c.746 3.36-.932 6.63-3.602 7.278c-1.944.472-4.926.595-6.2-.02c1.559-.851 3.898-.855 5.702-1.44c-2.583-1.112-6.406-.064-9.512-.257c-.375-3.836-.657-7.993-1.566-11.02c1.813-1.927 6.193-2.39 8.68-3.982a2.07 2.07 0 0 1 1.193-.33zm-.211 3.578c-3.183.093-5.671.937-7.09 2.937c2.582.166 4.443-2.407 7.09-2.937zm-12.541.785a3.7 3.7 0 0 1 .662.084c1.692 2.91 2.054 7.747 1.998 11.26c-1.054.203-1.739.807-3.02.767c-.326-4.001-1.254-8.207-1.636-12.02c.61-.011 1.319-.12 1.996-.09zm-19.602.043c3.341-.054 6.58.143 9.385.727c.684 4.453.43 8.844.93 13.209c.662 5.807.167 12.433 1.3 17.875c-6.172 1.913-14.59 1.73-21.574-.391c-3.146-9.642-4.862-18.797-6.047-29.686c4.588-.858 10.438-1.644 16.006-1.734zm14.824.383c1.104 3.987 1.037 9.06 1.579 13.568c-1.669.366-2.888.545-4.684.815c-.357-4.683-.628-9.295-.565-13.971c1.272-.426 2.395-.4 3.67-.412zm14.487 2.297c-1.26.016-2.394.291-2.88 1.033c2.189.18 4.722-.17 6.88-.398c-.984-.34-2.573-.653-4-.635zm-.362 3.24c-1.127.014-2.123.228-2.634.777c2.304.194 5.32.24 7.744.188c-.983-.458-3.23-.988-5.11-.965zM83.098 108.82c.235-.037.45-.045.627.002c.347 3.045 1.555 6.132 1.404 9.467c-1.34.452-2.11.846-3.906.844c-.127-2.834-.506-7.166-.393-9.867c.663.044 1.56-.334 2.268-.446z"/></svg>