<svg xmlns="http://www.w3.org/2000/svg" xmlns:xlink="http://www.w3.org/1999/xlink" width="128" height="128" viewBox="0 0 128 128"><path fill="currentColor" d="M102.14 83.503c-4.96 2.17-8.997-24.275-2.902-22.666c10.112 5.688 8.356 18.344 2.901 22.666zm-5.273 16.864c-5.832 7.97-13.726 8.28-16.666 6.06c-3.076-2.857-.728-11.728 3.488-16.592v-.001c4.824-5.366 9.982-8.869 13.575-6.131c2.418 2.373 3.837 11.312-.397 16.664zM77.913 90.52c.04 6.833-6.028 12.402-13.551 12.438c-7.524.036-13.655-5.474-13.695-12.308v-.13c-.04-6.834 6.027-12.403 13.551-12.439c7.524-.036 13.655 5.474 13.695 12.308v.13zm-13.563 28.8c-6.767.288-13.402-5.46-13.315-7.451c-.101-2.921 8.24-5.201 13.678-5.067c5.473-.236 12.817 1.736 12.831 4.351c.091 2.54-6.66 8.278-13.194 8.168zM40.776 78.867c-5.644-3.642-6.662-11.9-2.273-18.442c4.39-6.543 12.524-8.894 18.169-5.251c5.645 3.642 6.662 11.9 2.273 18.442c-4.39 6.543-12.524 8.894-18.169 5.251zm6.104 27.576c-3.076 1.829-10.547 1.076-15.858-6.438c-3.58-6.304-3.119-12.72-.604-14.605c3.76-2.256 9.57.791 14.04 5.901c3.897 4.625 5.673 12.748 2.422 15.142zM25.907 83.831c-5.454-4.321-7.211-16.977 2.902-22.665c6.094-1.609 2.057 24.835-2.902 22.665zM49.74 40.777c3.874.641-18.57 19.946-18.916 15.64c-.353-11.233 8.397-17.39 18.916-15.64zm-13.853-5.573c.844-.172 1.239-.34 1.634-.953c-2.077-.653-4.313-1.215-5.629-2.296c.71.01 1.373.157 2.3-.477c-1.86-.987-3.845-1.769-5.386-3.278c.961-.023 1.998-.01 2.3-.358c-1.703-1.038-3.14-2.194-4.328-3.457c1.346.16 1.914.022 2.24-.21c-1.288-1.297-2.916-2.393-3.693-3.993c1 .34 1.914.47 2.573-.03c-.438-.972-2.311-1.545-3.39-3.815c1.052.1 2.168.226 2.391 0c-.488-1.96-1.326-3.061-2.148-4.202c2.251-.033 5.662.008 5.508-.18l-1.392-1.4c2.199-.583 4.449.094 6.083.596c.733-.57-.013-1.29-.908-2.027c1.869.246 3.557.67 5.083 1.252c.816-.725-.529-1.45-1.18-2.176c2.888.54 4.111 1.298 5.326 2.057c.883-.833.05-1.54-.544-2.265c2.177.794 3.298 1.82 4.479 2.831c.4-.532 1.016-.922.272-2.206c1.545.878 2.71 1.912 3.57 3.07c.957-.6.57-1.42.576-2.175c1.606 1.287 2.626 2.656 3.874 3.994c.25-.18.47-.792.665-1.759c3.832 3.662 9.247 12.886 1.392 16.543c-6.681-5.427-14.66-9.374-23.501-12.334c11.365 5.772 17.973 10.442 21.593 14.42c-1.854 7.323-11.531 7.657-15.07 7.451c.725-.332 1.33-.73 1.544-1.34c-.888-.622-4.036-.066-6.234-1.283zm28.342 2.953c5.57-.06 12.467 4.094 12.44 8.008c-.025 3.455-4.844 6.251-12.397 6.198c-7.396-.087-12.376-3.514-12.359-6.862c.015-2.755 6.04-7.504 12.316-7.344zm7.93-26.41c.194.966.413 1.578.665 1.758c1.247-1.337 2.267-2.707 3.873-3.994c.006.756-.38 1.576.576 2.176c.86-1.159 2.025-2.193 3.57-3.07c-.744 1.283-.128 1.673.273 2.205c1.18-1.012 2.301-2.037 4.478-2.831c-.595.725-1.426 1.432-.544 2.265c1.215-.759 2.439-1.517 5.326-2.057c-.651.726-1.996 1.451-1.18 2.176c1.526-.583 3.215-1.006 5.083-1.252c-.894.736-1.64 1.457-.907 2.027c1.633-.502 3.883-1.179 6.083-.596l-1.393 1.401c-.154.187 3.257.146 5.508.179c-.822 1.141-1.66 2.243-2.149 4.203c.224.226 1.34.1 2.391 0c-1.079 2.27-2.952 2.843-3.39 3.815c.66.5 1.574.37 2.573.03c-.776 1.6-2.405 2.696-3.692 3.994c.326.23.894.369 2.24.209c-1.19 1.263-2.626 2.419-4.328 3.457c.302.348 1.338.335 2.3.358c-1.542 1.509-3.527 2.291-5.387 3.278c.927.634 1.59.486 2.3.477c-1.315 1.081-3.552 1.643-5.628 2.296c.394.613.79.78 1.634.953c-2.198 1.217-5.346.66-6.234 1.282c.214.611.818 1.01 1.543 1.341c-3.538.206-13.215-.128-15.07-7.451c3.622-3.98 10.232-8.65 21.603-14.426c-8.847 2.961-16.83 6.908-23.51 12.34c-7.855-3.658-2.44-12.882 1.392-16.544zm15.645 66.46c-5.644 3.643-13.779 1.291-18.168-5.251c-4.39-6.543-3.372-14.8 2.273-18.443c5.645-3.642 13.779-1.291 18.168 5.251c4.39 6.543 3.372 14.8-2.273 18.443zm9.91-21.461c-.346 4.306-22.79-14.998-18.915-15.64c10.517-1.748 19.268 4.406 18.915 15.64zm5.107 1.826l-.849-1.488c.034-10.692-4.927-15.05-10.712-18.363c1.75-.461 3.558-.841 4.053-3.04c3.008-.77 3.637-2.162 3.939-3.637c.787-.525 3.42-1.997 3.144-4.53c1.474-1.016 2.296-2.322 1.878-4.172c1.584-1.728 2-3.156 1.328-4.472c1.902-2.362 1.058-3.587.246-4.827c1.425-2.583.168-5.353-3.814-4.889c-1.584-2.327-5.037-1.798-5.57-1.788c-.598-.747-1.387-1.387-3.814-1.076c-1.571-1.402-3.329-1.163-5.142-.474c-2.152-1.673-3.577-.332-5.204.175c-2.606-.84-3.202.31-4.482.777c-2.842-.59-3.706.697-5.069 2.057l-1.584-.031c-4.287 2.488-6.417 7.555-7.171 10.16c-.756-2.606-2.88-7.673-7.166-10.16l-1.585.03c-1.364-1.36-2.228-2.647-5.07-2.056c-1.28-.467-1.875-1.616-4.483-.777c-1.068-.333-2.05-1.025-3.206-.99l.002.001c-.606.018-1.258.239-1.998.814c-1.813-.689-3.57-.928-5.142.474c-2.427-.31-3.216.33-3.814 1.077c-.532-.011-3.986-.54-5.57 1.788c-3.98-.464-5.239 2.306-3.814 4.889c-.812 1.24-1.655 2.464.246 4.827c-.672 1.317-.255 2.744 1.33 4.473c-.419 1.85.403 3.155 1.877 4.173c-.276 2.531 2.357 4.004 3.143 4.528c.302 1.475.932 2.868 3.94 3.637c.495 2.2 2.303 2.579 4.053 3.04c-5.785 3.313-10.746 7.67-10.712 18.363l-.848 1.49c-6.633 3.973-12.601 16.743-3.269 27.123c.61 3.25 1.632 5.583 2.542 8.166c1.362 10.409 10.247 15.282 12.59 15.859c3.435 2.576 7.092 5.02 12.042 6.733c4.665 4.74 9.72 6.546 14.803 6.544h.224c5.083.003 10.138-1.804 14.803-6.544c4.95-1.712 8.607-4.157 12.041-6.733c2.344-.577 11.229-5.45 12.59-15.859c.91-2.583 1.933-4.916 2.543-8.166c9.332-10.38 3.364-23.152-3.27-27.126"/></svg>