<svg xmlns="http://www.w3.org/2000/svg" xmlns:xlink="http://www.w3.org/1999/xlink" width="128" height="128" viewBox="0 0 128 128"><path fill="currentColor" d="M64 1.3C29.4 1.3 1.3 29.4 1.3 64s28.1 62.7 62.7 62.7s62.7-28.1 62.7-62.7S98.6 1.3 64 1.3zm0 123.4C30.5 124.7 3.3 97.5 3.3 64S30.5 3.3 64 3.3s60.7 27.2 60.7 60.7s-27.2 60.7-60.7 60.7zM64 8h1v9h-1zm0 102h1v9h-1zM73.19 9.193l.985.173l-1.572 8.963l-.985-.173zM54.806 118.522l-.985-.173l1.572-8.963l.985.173zM82.477 11.6l.939.343l-3.119 8.549l-.939-.343zM45.506 116.113l-.939-.343l3.119-8.549l.939.343zM54.87 9.148l1.572 8.964l-.985.173l-1.572-8.964zM73.143 118.58l-1.572-8.963l.985-.173l1.572 8.963zM45.503 11.528l3.117 8.549l-.94.343l-3.117-8.549zm36.969 104.593l-3.117-8.549l.94-.343l3.117 8.549zM36.656 15.608l4.568 7.871l-.865.502l-4.568-7.871zm54.713 96.558l-4.547-7.882l.866-.5l4.547 7.882zM28.748 20.994l5.845 6.975l-.766.642l-5.845-6.975zm70.522 85.673l-5.845-6.975l.766-.642l5.845 6.975zM21.808 27.786l6.975 5.845l-.642.766l-6.975-5.845zm84.362 72.098l-6.975-5.844l.642-.766l6.975 5.844zM16.259 35.721l7.882 4.547l-.5.866l-7.882-4.547zm95.474 56.338l-7.882-4.547l.5-.866l7.882 4.547zM12.028 44.467l8.549 3.117l-.343.94l-8.549-3.117zm103.933 38.811l-8.549-3.117l.343-.94l8.549 3.117zM9.459 53.722l8.963 1.572l-.173.985l-8.963-1.572zm109.067 20.284l-8.963-1.572l.173-.985l8.963 1.572zM9 63h9v1H9zm102 0h9v1h-9zM9.277 72.997l8.963-1.572l.173.985l-8.963 1.572zm109.432-18.273l-8.963 1.572l-.173-.985l8.963-1.572zM11.714 82.386l8.549-3.117l.343.94l-8.549 3.117zm104.56-37.066l-8.549 3.117l-.343-.94l8.549-3.117zM15.732 91.119l7.882-4.547l.5.866l-7.882 4.547zm96.525-54.52l-7.882 4.547l-.5-.866l7.882-4.547zM28.118 93.347l.642.766l-6.974 5.846l-.642-.766zm78.709-64.715l-6.975 5.845l-.642-.766l6.975-5.845zm-78.863 77.446l5.845-6.975l.766.642l-5.845 6.975zm72.09-84.366l-5.845 6.975l-.766-.642l5.845-6.975zm-64.195 89.941l4.568-7.871l.865.502l-4.568 7.871zm56.308-95.627l-4.547 7.882l-.866-.5l4.547-7.882zm-32.54-7.461l.436 4.88l-.996.089l-.436-4.88zm8.761 110.543l-.436-4.88l.996-.089l.436 4.88zM50.099 10.168l1.304 4.827l-.965.261l-1.304-4.827zM77.86 117.615l-1.304-4.827l.965-.261l1.304 4.827zM41.026 13.352l2.113 4.532l-.906.423l-2.113-4.532zm45.999 101.004l-2.135-4.521l.904-.427l2.135 4.521zm-54.49-96.21l2.856 4.104l-.821.571l-2.856-4.104zm62.91 91.453l-2.857-4.104l.821-.571l2.857 4.104zM25.077 24.262l3.465 3.465l-.707.707l-3.465-3.465zm77.845 79.143l-3.465-3.465l.707-.707l3.465 3.465zM18.805 31.664l4.104 2.857l-.571.821l-4.104-2.857zm90.409 64.427l-4.104-2.856l.571-.821l4.104 2.856zM13.925 39.999l4.532 2.112l-.422.906l-4.532-2.112zm100.183 47.755l-4.521-2.135l.427-.904l4.521 2.135zM10.528 48.96l4.827 1.303l-.261.965l-4.827-1.303zm106.916 29.739l-4.827-1.304l.261-.965l4.827 1.304zM8.757 58.477l4.88.436l-.089.996l-4.88-.436zm110.47 10.719l-4.88-.436l.089-.996l4.88.436zM8.666 68.223l4.88-.436l.089.996l-4.88.436zm110.652-8.67l-4.88.436l-.089-.996l4.88-.436zM10.262 77.775l4.827-1.304l.261.965l-4.827 1.304zm107.451-27.761l-4.827 1.303l-.261-.965l4.827-1.303zM13.532 86.888l4.532-2.113l.423.906l-4.532 2.113zm100.879-46.053l-4.532 2.112l-.422-.906l4.532-2.112zM18.279 95.301l4.104-2.856l.571.821l-4.104 2.856zm91.455-62.903l-4.104 2.857l-.571-.821l4.104-2.857zm-77.148 77.194l-.821-.572l2.857-4.103l.821.572zm62.808-91.433l.818.575l-2.875 4.091l-.818-.575zm-54.395 96.199l-.904-.427l2.134-4.521l.904.427zM86.991 13.424l.904.427l-2.134 4.522l-.904-.427zM50.098 117.526l-.965-.261l1.303-4.827l.965.261zm27.765-107.38l.965.261l-1.303 4.827l-.965-.261zm-18.23 108.993l-.996-.089l.436-4.88l.996.089zM68.319 8.563l.996.089l-.435 4.88l-.996-.089zM58.8 58.8l-37.2 47.3l48.2-36.3l36.3-48.2z"/></svg>