<svg xmlns="http://www.w3.org/2000/svg" xmlns:xlink="http://www.w3.org/1999/xlink" width="128" height="128" viewBox="0 0 128 128"><defs><clipPath id="deviconPlainCosmosdbWordmark0"><path d="M18.121 4H104v83H18.121Zm0 0"/></clipPath><clipPath id="deviconPlainCosmosdbWordmark1"><path d="M19 17h90.879v62H19Zm0 0"/></clipPath></defs><path fill="currentColor" fill-rule="evenodd" d="M85.122 86.432q-.691 0-1.219.258q-.522.257-.875.684a3.2 3.2 0 0 0-.547.996a4.044 4.015 0 0 0-.214 1.183h5.554c.02-.972-.195-1.738-.656-2.293q-.687-.826-2.043-.828m-33.197-1.238h5.837q.124 0 .218.035q.1.034.164.113q.07.078.11.203a1 1 0 0 1 .039.313v.36q0 .158-.024.292a1.532 1.52 0 0 1-.066.262a1.718 1.705 0 0 1-.125.277c-.05.098-.117.204-.191.325l-4.47 6.945h4.774c.059 0 .114.008.164.035q.075.04.125.133a.8.8 0 0 1 .086.238q.031.152.032.367a1.964 1.95 0 0 1-.032.364a1.264 1.255 0 0 1-.082.25a.26.259 0 0 1-.125.133a.405.402 0 0 1-.168.039h-6.266a.52.52 0 0 1-.39-.157q-.153-.157-.153-.53v-.38q.001-.159.02-.281q.024-.123.07-.246q.042-.124.125-.266c.05-.093.117-.199.192-.32l4.492-6.942h-4.356q-.181 0-.289-.183q-.11-.186-.11-.602q0-.204.024-.355a.8.8 0 0 1 .075-.246a.33.33 0 0 1 .125-.137a.4.4 0 0 1 .175-.039m10.239-.055q.27.002.453.016a1 1 0 0 1 .285.066a.4.4 0 0 1 .157.117q.042.06.043.149v5.887c0 .59.043 1.066.128 1.418c.09.355.22.664.399.914c.176.25.402.441.672.582q.41.208.95.207q.701.001 1.398-.496q.697-.489 1.476-1.446v-7.066q-.001-.09.04-.149a.36.36 0 0 1 .152-.117q.115-.047.289-.066a6.692 6.644 0 0 1 .91 0a1 1 0 0 1 .285.066a.5.5 0 0 1 .152.117q.05.06.051.149v10.11q-.002.087-.039.152a.3.3 0 0 1-.144.105a1 1 0 0 1-.266.07a4 4 0 0 1-.824 0a1 1 0 0 1-.262-.07a.278.276 0 0 1-.129-.105a.317.315 0 0 1-.035-.153V94.26q-.868.957-1.719 1.39q-.848.442-1.719.442q-1.019 0-1.715-.34a2.95 2.95 0 0 1-1.125-.913a3.7 3.7 0 0 1-.617-1.348q-.187-.769-.187-1.871v-6.133q0-.09.043-.149q.035-.064.152-.117q.111-.047.293-.066a6.76 6.711 0 0 1 .453-.016m23.056-.156q1.195-.002 2.039.383a3.86 3.86 0 0 1 1.387 1.023c.363.434.628.938.797 1.52q.255.868.253 1.86v.335q-.001.439-.218.625a.78.78 0 0 1-.508.184h-6.703q-.001.842.167 1.515q.172.675.57 1.157q.398.485 1.036.742q.633.258 1.555.258q.727 0 1.297-.118q.569-.118.984-.265a7.953 7.896 0 0 0 .68-.262c.18-.078.312-.117.406-.117q.076 0 .14.039a.25.25 0 0 1 .098.117a.8.8 0 0 1 .051.219q.017.14.016.344a2.386 2.368 0 0 1-.04.44a.544.54 0 0 1-.054.154a.656.651 0 0 1-.102.128q-.062.064-.37.203a6 6 0 0 1-.79.278a12.018 11.932 0 0 1-1.125.238a8.36 8.3 0 0 1-1.363.11c-.84 0-1.57-.118-2.203-.348a4.1 4.1 0 0 1-1.59-1.035q-.645-.687-.973-1.72t-.328-2.405q0-1.303.34-2.34q.34-1.04.98-1.762a4.3 4.3 0 0 1 1.543-1.113c.606-.258 1.278-.387 2.028-.387m-7.313 0q.148-.001.336.016a3.08 3.059 0 0 1 .39.062q.201.045.368.102a.8.8 0 0 1 .23.113c.047.035.074.07.09.105a.6.6 0 0 1 .039.13q.018.076.023.23q.007.152.008.41q0 .245-.011.414a1 1 0 0 1-.047.266a.4.4 0 0 1-.086.144q-.047.051-.14.05a.6.6 0 0 1-.22-.05a8.369 8.309 0 0 0-.296-.101a7.018 6.968 0 0 0-.368-.094a2 2 0 0 0-.441-.043a1.5 1.5 0 0 0-.555.11q-.27.11-.57.37t-.629.688a15 15 0 0 0-.723 1.043v6.648a.3.3 0 0 1-.043.153a.372.37 0 0 1-.148.105a1 1 0 0 1-.285.07q-.179.019-.461.02c-.184 0-.332-.008-.453-.02a1 1 0 0 1-.29-.07a.3.3 0 0 1-.148-.105a.319.316 0 0 1-.039-.153v-10.11q0-.088.035-.148a.3.3 0 0 1 .137-.117a.8.8 0 0 1 .258-.066a5.551 5.512 0 0 1 .832 0q.165.018.254.066a.36.36 0 0 1 .133.117a.3.3 0 0 1 .039.149v1.473q.416-.61.785-.989q.368-.38.695-.601a2.17 2.155 0 0 1 .653-.305q.321-.082.648-.082m-34.244-1.707l-2.523 7.246h5.094l-2.559-7.246Zm.07-2c.239 0 .442.004.598.016c.16.011.285.03.387.062a.55.55 0 0 1 .227.129c.05.058.094.125.12.207l4.911 13.5q.093.251.098.399q.007.156-.086.23q-.089.083-.301.105a6.724 6.676 0 0 1-.559.02a7 7 0 0 1-.558-.016a1.4 1.4 0 0 1-.317-.054a.362.36 0 0 1-.16-.11a.8.8 0 0 1-.097-.168l-1.254-3.539h-6.087l-1.199 3.496a.654.65 0 0 1-.09.172a.5.5 0 0 1-.164.125a1 1 0 0 1-.304.074a5.935 5.892 0 0 1-.516.02q-.328 0-.54-.027c-.136-.02-.238-.055-.292-.11c-.059-.05-.082-.125-.078-.226a1.4 1.4 0 0 1 .093-.399l4.91-13.504a.6.6 0 0 1 .122-.199a.45.45 0 0 1 .215-.125q.141-.045.359-.062q.222-.017.563-.016Zm61.64 29.703v5.121h2.82q.667.001 1.164-.156q.499-.158.875-.469q.38-.306.594-.765q.216-.462.215-1.07q0-.652-.211-1.145a2.138 2.123 0 0 0-.61-.832a2.7 2.7 0 0 0-1.003-.508q-.605-.176-1.52-.176ZM72.07 108.35q-.833 0-1.43.293a2.606 2.587 0 0 0-.988.825q-.386.533-.578 1.265a6.4 6.4 0 0 0-.188 1.594c0 .55.05 1.074.156 1.563q.154.727.512 1.273q.363.542.965.863q.604.321 1.508.32q.821 0 1.426-.293a2.573 2.555 0 0 0 .992-.82c.261-.348.449-.77.57-1.254a6.5 6.5 0 0 0 .184-1.61c0-.542-.05-1.062-.153-1.55a3.9 3.9 0 0 0-.507-1.277a2.56 2.56 0 0 0-.962-.871q-.604-.321-1.507-.32Zm-39.685 0q-.833 0-1.43.293a2.606 2.587 0 0 0-.989.825a3.7 3.7 0 0 0-.578 1.265a6.4 6.4 0 0 0-.187 1.594c0 .55.05 1.074.152 1.563q.159.727.516 1.273q.359.542.965.863q.604.321 1.508.32q.821 0 1.425-.293a2.573 2.555 0 0 0 .993-.82c.257-.348.449-.77.57-1.254q.183-.73.184-1.61c0-.542-.051-1.062-.157-1.55a3.7 3.7 0 0 0-.508-1.277a2.5 2.5 0 0 0-.957-.871q-.604-.321-1.507-.32M83.2 106.8q.407 0 .813.066q.407.07.734.168c.219.07.406.14.563.219c.152.082.27.148.351.21a.6.6 0 0 1 .156.157a.5.5 0 0 1 .059.152l.031.207q.018.124.02.305q-.001.193-.02.328a.8.8 0 0 1-.054.23a.3.3 0 0 1-.098.133a.202.2 0 0 1-.125.035q-.1 0-.293-.12a4.23 4.2 0 0 0-.496-.266a6 6 0 0 0-.72-.262a3.3 3.3 0 0 0-.944-.125a3 3 0 0 0-.836.11a1.6 1.6 0 0 0-.598.3a1.322 1.313 0 0 0-.348.469c-.082.18-.12.371-.12.582q.001.441.226.734q.227.3.59.524a5.21 5.174 0 0 0 .824.406q.464.177.945.371a10.198 10.125 0 0 1 .95.426a3.5 3.475 0 0 1 .832.574a2.51 2.493 0 0 1 .582.809q.222.469.222 1.121q0 .774-.289 1.379a2.773 2.753 0 0 1-.82 1.023a3.7 3.7 0 0 1-1.266.629a5.7 5.7 0 0 1-1.62.215c-.36 0-.708-.027-1.032-.086a5.4 5.4 0 0 1-.883-.215a4.242 4.212 0 0 1-.664-.265a2 2 0 0 1-.395-.254a.67.67 0 0 1-.183-.313a2.3 2.3 0 0 1-.055-.554a2.248 2.232 0 0 1 .024-.356c.015-.098.03-.18.054-.238a.26.26 0 0 1 .098-.13a.3.3 0 0 1 .14-.038q.125 0 .368.152a8 8 0 0 0 .601.332c.239.121.516.23.84.332q.49.148 1.121.149q.477 0 .86-.098a2.1 2.1 0 0 0 .668-.3a1.342 1.332 0 0 0 .437-.497q.153-.305.153-.723q0-.427-.223-.718a2.1 2.1 0 0 0-.582-.516a4.751 4.717 0 0 0-.813-.398q-.455-.173-.933-.368a9.661 9.592 0 0 1-.942-.43a3.655 3.629 0 0 1-.82-.59a2.79 2.77 0 0 1-.582-.831q-.218-.481-.219-1.156q.001-.598.23-1.141a2.7 2.7 0 0 1 .696-.953q.462-.409 1.16-.66q.696-.246 1.625-.246m-11.055 0c.84 0 1.567.125 2.191.37q.933.37 1.555 1.079q.622.71.934 1.718q.31 1.009.308 2.282c0 .82-.109 1.582-.328 2.273a5.05 5.05 0 0 1-.976 1.793q-.65.75-1.63 1.172t-2.269.422q-1.255-.001-2.188-.371a4 4 0 0 1-1.554-1.078q-.626-.71-.93-1.719t-.305-2.293q-.002-1.23.325-2.273q.322-1.039.972-1.79c.434-.503.973-.89 1.621-1.171q.974-.413 2.274-.414m-17.84 0q.632 0 1.136.148c.336.098.629.234.887.41a2.64 2.621 0 0 1 .656.625a3.785 3.758 0 0 1 .453.817q.509-.553.965-.934q.462-.382.883-.617q.426-.235.828-.34a2.97 2.948 0 0 1 .809-.11q.984 0 1.652.344a2.9 2.9 0 0 1 1.078.914q.416.573.59 1.344a7.3 7.3 0 0 1 .176 1.621v6.391a.24.24 0 0 1-.047.152a.35.35 0 0 1-.148.11q-.1.041-.281.066c-.122.016-.27.024-.454.024c-.187 0-.343-.008-.46-.024a1.3 1.3 0 0 1-.29-.066a.3.3 0 0 1-.152-.11a.24.24 0 0 1-.047-.152v-6.14c0-.43-.039-.817-.113-1.169a2.6 2.6 0 0 0-.363-.91a1.658 1.646 0 0 0-.633-.586a1.9 1.9 0 0 0-.903-.203q-.648-.001-1.297.496q-.65.493-1.43 1.45v7.062a.24.24 0 0 1-.046.152a.4.4 0 0 1-.153.11q-.106.041-.289.066a4 4 0 0 1-.453.024a3.625 3.599 0 0 1-.445-.024a1.347 1.338 0 0 1-.297-.066a.3.3 0 0 1-.145-.11a.26.26 0 0 1-.039-.152v-6.14c0-.43-.043-.817-.125-1.169a2.8 2.8 0 0 0-.375-.91a1.695 1.683 0 0 0-.625-.586a1.9 1.9 0 0 0-.902-.203q-.645-.001-1.3.496q-.655.493-1.427 1.45v7.062a.23.23 0 0 1-.043.152a.4.4 0 0 1-.148.11q-.1.041-.281.066a4 4 0 0 1-.465.024q-.27 0-.453-.024a1.318 1.309 0 0 1-.29-.066q-.107-.047-.144-.11a.264.262 0 0 1-.043-.152v-10.106a.3.3 0 0 1 .035-.152q.036-.062.137-.113a.8.8 0 0 1 .261-.067q.157-.016.419-.015q.245 0 .41.015q.164.016.258.067q.087.05.129.113a.26.26 0 0 1 .039.152v1.336c.574-.636 1.128-1.105 1.668-1.398q.809-.445 1.636-.445Zm-11.02 0q.405 0 .812.066q.408.07.734.168c.22.07.406.14.563.219c.152.082.27.148.351.21a.7.7 0 0 1 .157.157a.5.5 0 0 1 .058.152l.032.207q.018.123.019.305q-.001.193-.02.328a.8.8 0 0 1-.054.23a.3.3 0 0 1-.098.133a.202.2 0 0 1-.125.035q-.1 0-.293-.12a4.23 4.2 0 0 0-.496-.266a6 6 0 0 0-.719-.262a3.3 3.3 0 0 0-.945-.125c-.317 0-.598.04-.836.11c-.242.07-.441.167-.594.3a1.288 1.279 0 0 0-.351.469c-.082.18-.121.371-.121.582c0 .293.078.54.226.734q.228.3.59.524a5.21 5.174 0 0 0 .824.406q.464.177.946.371a10.198 10.125 0 0 1 .949.426a3.5 3.475 0 0 1 .832.574a2.51 2.493 0 0 1 .582.809q.223.469.223 1.121q-.001.774-.29 1.379a2.773 2.753 0 0 1-.82 1.023a3.7 3.7 0 0 1-1.265.629a5.7 5.7 0 0 1-1.622.215q-.539.001-1.03-.086a5.4 5.4 0 0 1-.884-.215a4.242 4.212 0 0 1-.664-.265a2 2 0 0 1-.394-.254a.63.63 0 0 1-.18-.313a2 2 0 0 1-.059-.554q0-.213.024-.356q.024-.149.055-.238a.26.26 0 0 1 .097-.13a.291.29 0 0 1 .14-.038q.126 0 .368.152q.245.152.601.332c.239.121.516.23.84.332c.329.098.7.149 1.122.149q.476 0 .859-.098q.386-.103.668-.3a1.342 1.332 0 0 0 .437-.497q.153-.305.153-.723a1.15 1.15 0 0 0-.223-.718a2.1 2.1 0 0 0-.582-.516a4.751 4.717 0 0 0-.812-.398q-.456-.173-.934-.368a9.661 9.592 0 0 1-.941-.43a3.655 3.629 0 0 1-.82-.59a2.79 2.77 0 0 1-.583-.831q-.218-.481-.219-1.156q.001-.598.23-1.141q.234-.544.696-.953a3.5 3.5 0 0 1 1.16-.66c.465-.164 1.004-.246 1.625-.246m-10.825 0q1.255.001 2.187.37a4 4 0 0 1 1.559 1.079q.62.71.934 1.718q.31 1.009.308 2.282c0 .82-.11 1.582-.328 2.273a5.05 5.05 0 0 1-.976 1.793q-.65.75-1.63 1.172t-2.27.422q-1.254-.001-2.187-.371a4 4 0 0 1-1.558-1.078q-.621-.71-.926-1.719t-.305-2.293q0-1.23.32-2.273q.323-1.039.973-1.79c.434-.503.977-.89 1.625-1.171q.974-.413 2.274-.414m58.701-2.032v11.309h2.004q1.402 0 2.364-.348a3.95 3.95 0 0 0 1.605-1.066c.43-.48.754-1.078.969-1.805q.321-1.084.32-2.566q0-1.177-.293-2.196a4.7 4.7 0 0 0-.922-1.753a4.24 4.24 0 0 0-1.59-1.16q-.962-.416-2.476-.415Zm14.212-.035v4.707h2.21q.757 0 1.22-.2a2.2 2.2 0 0 0 .77-.522a2.073 2.058 0 0 0 .445-.778q.14-.444.14-.918c0-.347-.05-.668-.148-.953a1.7 1.7 0 0 0-.461-.723q-.315-.298-.824-.457q-.509-.157-1.344-.156Zm-1.211-1.57h3.324q1.314 0 2.153.246q.837.245 1.394.719q.562.47.844 1.156c.187.457.285.973.285 1.55q-.001.516-.125.99a3.434 3.41 0 0 1-.367.87a3.037 3.016 0 0 1-.613.711a3.22 3.196 0 0 1-.844.52a3.5 3.5 0 0 1 1.121.41a3.267 3.244 0 0 1 .91.758q.391.457.617 1.078q.228.615.227 1.36q0 .68-.176 1.26c-.176.58-.28.731-.492 1.04a3.58 3.554 0 0 1-.762.808a4.4 4.4 0 0 1-1.008.583a5.589 5.549 0 0 1-1.199.355a8 8 0 0 1-1.465.117h-3.824a.83.83 0 0 1-.492-.172c-.157-.117-.23-.32-.23-.613v-12.961c0-.293.073-.496.23-.613a.8.8 0 0 1 .492-.172m-14.223 0h3.316q1.899-.001 3.211.484q1.314.492 2.2 1.407q.89.916 1.347 2.218q.457 1.3.457 2.942c0 1.257-.16 2.36-.484 3.297q-.485 1.41-1.422 2.335q-.93.929-2.29 1.387q-1.357.462-3.234.461H89.94a.83.83 0 0 1-.492-.172q-.23-.174-.231-.613v-12.961q.001-.439.23-.613a.8.8 0 0 1 .493-.172m-68.542-.184q.633 0 1.23.121c.403.078.77.176 1.11.297q.508.18.906.414q.393.24.547.387q.153.153.2.23a.8.8 0 0 1 .073.188q.031.106.043.254q.019.142.02.344a2.638 2.62 0 0 1-.024.382a1.2 1.2 0 0 1-.066.266a.4.4 0 0 1-.11.156a.23.229 0 0 1-.152.051c-.109 0-.254-.074-.445-.219a6.884 6.834 0 0 0-.734-.48a6 6 0 0 0-1.09-.485q-.643-.217-1.543-.218q-.98 0-1.778.387a3.7 3.7 0 0 0-1.371 1.14q-.57.75-.883 1.836q-.311 1.086-.312 2.477c0 .922.101 1.734.3 2.445c.204.707.489 1.297.864 1.773q.563.715 1.383 1.079q.82.363 1.855.363c.582 0 1.094-.07 1.528-.211a6 6 0 0 0 1.117-.48a9 9 0 0 0 .754-.477c.199-.14.351-.215.468-.215q.077 0 .137.035a.26.26 0 0 1 .09.13q.035.097.051.265q.017.169.016.426q0 .18-.012.316a1.29 1.281 0 0 1-.04.234a.76.755 0 0 1-.073.18a1 1 0 0 1-.157.191q-.112.111-.476.344q-.363.227-.899.45a8 8 0 0 1-1.234.37a7.3 7.3 0 0 1-1.52.149q-1.425.001-2.574-.473a5.175 5.138 0 0 1-1.957-1.39q-.808-.92-1.246-2.274q-.434-1.353-.434-3.117q0-1.81.469-3.227c.312-.941.754-1.742 1.32-2.394a5.601 5.561 0 0 1 2.027-1.5c.79-.344 1.665-.52 2.622-.52m0 0"/><g clip-path="url(#deviconPlainCosmosdbWordmark0)"><path fill="currentColor" fill-rule="evenodd" d="M93.832 41.422c3.918 15.855-6.031 31.82-22.223 35.656c-16.187 3.836-32.488-5.906-36.402-21.766c-3.918-15.859 6.035-31.824 22.223-35.66l.054-.011c16.11-3.86 32.364 5.808 36.301 21.59ZM60.254 60.18c-.012-4.332-3.606-7.84-8.031-7.828h-1.215c1.031-4.192-1.602-8.403-5.88-9.41a8 8 0 0 0-1.929-.22h-8.328c-1.8 9.079.89 18.458 7.258 25.29h10.09c4.426.008 8.023-3.496 8.035-7.832m9.945-32.465c0 .457.059.914.18 1.36h-3.465c-4.598 0-8.324 3.652-8.324 8.152c0 4.503 3.726 8.152 8.324 8.152h27.563c-.899-9.738-6.766-18.371-15.594-22.941h-3.285c-2.977 0-5.391 2.359-5.399 5.277M94.48 51.44H78.035c-3.75-.011-6.797 2.957-6.812 6.63c0 1.105.28 2.19.82 3.156c-3.57 1.093-5.559 4.816-4.441 8.312c.882 2.777 3.52 4.668 6.492 4.656h4.586c8.78-4.562 14.699-13.078 15.8-22.754M30.75 28.695a.913.913 0 0 1-.93-.898v-.004c-.011-5.695-4.73-10.305-10.547-10.297a.915.915 0 0 1-.921-.902c0-.496.414-.903.921-.903c5.809.004 10.524-4.593 10.547-10.28a.924.924 0 0 1 .965-.868h.004a.92.92 0 0 1 .887.867c.012 5.695 4.734 10.305 10.55 10.297c.508 0 .922.406.922.902c0 .5-.414.907-.921.907c-5.813-.008-10.536 4.593-10.551 10.289a.92.92 0 0 1-.926.89m65.063 58.047a.54.54 0 0 1-.547-.535c-.016-3.406-2.84-6.16-6.317-6.152a.547.547 0 0 1-.55-.535c0-.297.246-.536.546-.536h.004c3.473 0 6.293-2.75 6.309-6.156c0-.297.246-.543.55-.539h.004a.543.543 0 0 1 .551.54c.016 3.405 2.836 6.155 6.309 6.155a.54.54 0 0 1 .55.532a.54.54 0 0 1-.542.539h-.008c-3.473-.004-6.297 2.75-6.309 6.156a.54.54 0 0 1-.55.531m0 0"/></g><g clip-path="url(#deviconPlainCosmosdbWordmark1)"><path fill="currentColor" fill-rule="evenodd" d="M108.45 21.785c-2.88-4.617-10.114-5.683-20.903-3.098a88 88 0 0 0-9.91 3.098a30.7 30.7 0 0 1 5.84 3.656c1.835-.593 3.636-1.125 5.355-1.535a38.5 38.5 0 0 1 8.8-1.222c3.536 0 5.485.855 6.138 1.898c1.066 1.711.085 6.227-6.192 13.332c-1.117 1.262-2.371 2.543-3.695 3.828a125.3 125.3 0 0 1-22.711 17.059a126 126 0 0 1-25.91 12.086c-10.926 3.484-18.387 3.414-20.059.738s1.672-9.215 9.828-17.156a28.7 28.7 0 0 1-.672-6.88C21.38 59.087 17.18 69.04 20.531 74.423c1.758 2.812 5.598 4.398 11.203 4.398a58 58 0 0 0 19.387-4.191a139 139 0 0 0 22.906-11.25A138 138 0 0 0 94.63 48.44a85 85 0 0 0 7.094-7.023c7.28-8.234 9.605-15.023 6.726-19.633Zm0 0"/></g></svg>