<svg xmlns="http://www.w3.org/2000/svg" xmlns:xlink="http://www.w3.org/1999/xlink" width="16" height="16" viewBox="0 0 16 16"><path fill="currentColor" d="M7.5 1.018V8a.5.5 0 0 0 .5.5h2.677A2 2 0 0 0 10 10v.268A2 2 0 0 0 7 12v2.93a7.001 7.001 0 0 1 .5-13.912m6.855 5.089q.175-.06.361-.087A7.005 7.005 0 0 0 8.5 1.018V7.5h4.563a2 2 0 0 1 1.291-1.393m.322.946A1 1 0 0 0 14 8v7a1 1 0 1 0 2 0V8a1 1 0 0 0-1.323-.947M12 9a1 1 0 0 1 1 1v5a1 1 0 1 1-2 0v-5a1 1 0 0 1 1-1m-3 2a1 1 0 0 1 1 1v3a1 1 0 1 1-2 0v-3a1 1 0 0 1 1-1"/></svg>