<svg xmlns="http://www.w3.org/2000/svg" xmlns:xlink="http://www.w3.org/1999/xlink" width="24" height="24" viewBox="0 0 24 24"><path fill="currentColor" d="M13 10.75h6.715c.34-.347.78-.595 1.275-.698A9.5 9.5 0 0 0 11.5 1A9.5 9.5 0 0 0 2 10.5c0 5.079 3.986 9.227 9 9.487v-1.502a8 8 0 0 1 .25-15.981V9c0 .966.784 1.75 1.75 1.75m0-1.5a.25.25 0 0 1-.25-.25V2.597a8.01 8.01 0 0 1 6.653 6.653zM21.5 11a1.5 1.5 0 0 0-1.5 1.5v8a1.5 1.5 0 0 0 3 0v-8a1.5 1.5 0 0 0-1.5-1.5m-8 6a1.5 1.5 0 0 0-1.5 1.5v2a1.5 1.5 0 0 0 3 0v-2a1.5 1.5 0 0 0-1.5-1.5m2.5-1.5a1.5 1.5 0 0 1 3 0v5a1.5 1.5 0 0 1-3 0z"/></svg>