<svg xmlns="http://www.w3.org/2000/svg" xmlns:xlink="http://www.w3.org/1999/xlink" width="16" height="16" viewBox="0 0 16 16"><path fill="currentColor" d="M7.5 2.02A6 6 0 0 0 7 13.918v1.012a7.002 7.002 0 1 1 7.716-8.909a2 2 0 0 0-.929.39A6 6 0 0 0 8.5 2.02V7.5h4.563q-.062.24-.063.5v.268A2 2 0 0 0 12 8c-.507 0-.97.189-1.323.5H8a.5.5 0 0 1-.5-.5zm7.177 5.033A1 1 0 0 0 14 8v7a1 1 0 1 0 2 0V8a1 1 0 0 0-1.323-.947M12 9a1 1 0 0 1 1 1v5a1 1 0 1 1-2 0v-5a1 1 0 0 1 1-1m-3 2a1 1 0 0 1 1 1v3a1 1 0 1 1-2 0v-3a1 1 0 0 1 1-1"/></svg>