<svg xmlns="http://www.w3.org/2000/svg" xmlns:xlink="http://www.w3.org/1999/xlink" width="24" height="24" viewBox="0 0 24 24"><path fill="currentColor" d="M12.667 2.263c.37.247.39.766.076 1.08c-.274.274-.708.293-1.035.086a6 6 0 0 0-1.578-.705c-.359-.101-.63-.414-.63-.787c0-.461.408-.82.855-.706a7.5 7.5 0 0 1 2.312 1.032m-8.41 1.08c.275.274.708.293 1.036.086a6 6 0 0 1 1.578-.705c.358-.101.63-.414.63-.787c0-.461-.409-.82-.856-.706a7.5 7.5 0 0 0-2.311 1.032c-.37.247-.39.766-.076 1.08M1.397 10.91c-.157-.461.21-.909.696-.909c.352 0 .654.24.775.57q.222.602.562 1.138c.207.327.188.76-.085 1.034c-.315.315-.834.294-1.08-.075a7.5 7.5 0 0 1-.868-1.758m1.716-5.052c.158-.321.118-.713-.135-.966c-.338-.339-.904-.288-1.126.137c-.351.67-.603 1.4-.738 2.17c-.076.431.274.802.711.802c.394 0 .717-.303.794-.69c.103-.51.27-.998.494-1.453m1.78 8.166c.252-.253.644-.293.965-.135c.697.342 1.47.553 2.286.601A8 8 0 0 0 8 15.985a7.45 7.45 0 0 1-2.972-.834c-.425-.223-.475-.788-.136-1.127M15.15 5.028c.47.899.764 1.905.834 2.972a8 8 0 0 0-1.494.142a6 6 0 0 0-.602-2.285c-.158-.321-.118-.713.135-.966c.339-.338.905-.288 1.127.137M23 16a7 7 0 1 1-14 0a7 7 0 0 1 14 0m-3.22-.97a.75.75 0 1 0-1.06-1.06l-3.22 3.22l-1.72-1.72a.75.75 0 0 0-1.06 1.06l2.25 2.25a.75.75 0 0 0 1.06 0z"/></svg>