<svg xmlns="http://www.w3.org/2000/svg" xmlns:xlink="http://www.w3.org/1999/xlink" width="24" height="24" viewBox="0 0 24 24"><path fill="currentColor" d="M2.092 10c-.486 0-.853.448-.697.909c.213.627.506 1.217.868 1.758c.247.369.766.39 1.08.075c.274-.273.293-.707.086-1.034a6 6 0 0 1-.562-1.138c-.121-.33-.423-.57-.775-.57m3.2-6.571c-.327.207-.76.188-1.034-.086c-.314-.314-.294-.833.076-1.08a7.5 7.5 0 0 1 2.311-1.032c.447-.114.855.245.855.706c0 .373-.27.686-.63.787a6 6 0 0 0-1.577.705m-2.18 2.428c.158-.321.118-.713-.135-.966c-.338-.339-.904-.288-1.126.137c-.351.67-.603 1.4-.738 2.17c-.076.431.274.802.711.802c.394 0 .717-.303.794-.69c.103-.51.27-.998.494-1.453m2.745 8.03c-.32-.157-.713-.117-.965.136c-.34.339-.289.904.136 1.127c.899.47 1.905.763 2.972.834q.002-.767.143-1.495a6 6 0 0 1-2.286-.601m9.293-8.86c.47.9.764 1.906.834 2.973a8 8 0 0 0-1.494.142a6 6 0 0 0-.602-2.285c-.158-.321-.118-.713.135-.966c.339-.338.905-.288 1.127.137m-2.407-1.684c.314-.314.293-.833-.076-1.08a7.5 7.5 0 0 0-2.312-1.032c-.447-.114-.855.245-.855.706c0 .373.271.686.63.787a6 6 0 0 1 1.578.705c.327.207.76.188 1.035-.086M19.78 13.97a.75.75 0 0 1 0 1.06l-3.75 3.75a.75.75 0 0 1-1.061 0l-2.25-2.25a.75.75 0 1 1 1.06-1.06l1.72 1.72l3.22-3.22a.75.75 0 0 1 1.06 0M16 23a7 7 0 1 0 0-14a7 7 0 0 0 0 14m0-1.5a5.5 5.5 0 1 1 0-11a5.5 5.5 0 0 1 0 11"/></svg>