<svg xmlns="http://www.w3.org/2000/svg" xmlns:xlink="http://www.w3.org/1999/xlink" width="24" height="24" viewBox="0 0 24 24"><path fill="currentColor" d="M8 5a2.98 2.98 0 0 1-.555 1.738l2.817 2.817C10.752 9.205 11.352 9 12 9s1.248.205 1.738.555l2.817-2.817a3 3 0 1 1 .707.707l-2.817 2.817c.35.49.555 1.09.555 1.738s-.205 1.248-.555 1.738l2.817 2.817a3 3 0 1 1-.707.707l-2.817-2.817A2.98 2.98 0 0 1 12 15a3 3 0 0 1-1.738-.555l-2.817 2.817a3 3 0 1 1-.707-.707l2.817-2.817A3 3 0 0 1 9 12c0-.648.205-1.248.555-1.738L6.738 7.445A3 3 0 1 1 8 5"/></svg>