<svg xmlns="http://www.w3.org/2000/svg" xmlns:xlink="http://www.w3.org/1999/xlink" width="32" height="32" viewBox="0 0 32 32"><path fill="currentColor" d="M19 2c1.306 0 2.418.835 2.83 2h1.67A3.5 3.5 0 0 1 27 7.5v19a3.5 3.5 0 0 1-3.5 3.5h-15A3.5 3.5 0 0 1 5 26.5v-19A3.5 3.5 0 0 1 8.5 4h1.67A3 3 0 0 1 13 2zm-6 2a1 1 0 1 0 0 2h6a1 1 0 1 0 0-2zM8.5 6A1.5 1.5 0 0 0 7 7.5v19A1.5 1.5 0 0 0 8.5 28h15a1.5 1.5 0 0 0 1.5-1.5v-19A1.5 1.5 0 0 0 23.5 6h-1.67A3 3 0 0 1 19 8h-6a3 3 0 0 1-2.83-2zm3.5 8a4 4 0 1 1 8 0a4 4 0 0 1-8 0m-2.5 7.59A2.59 2.59 0 0 1 12.09 19h7.82a2.59 2.59 0 0 1 2.59 2.59c0 1.556-.837 2.71-2.07 3.423c-1.19.688-2.76.987-4.43.987s-3.24-.299-4.43-.987c-1.233-.713-2.07-1.867-2.07-3.422"/></svg>