<svg xmlns="http://www.w3.org/2000/svg" xmlns:xlink="http://www.w3.org/1999/xlink" width="48" height="48" viewBox="0 0 48 48"><path fill="currentColor" d="M16.187 9.5H12.25a1.75 1.75 0 0 0-1.75 1.75v28.5c0 .967.784 1.75 1.75 1.75h23.5a1.75 1.75 0 0 0 1.75-1.75v-28.5a1.75 1.75 0 0 0-1.75-1.75h-3.937a4.25 4.25 0 0 1-4.063 3h-7.5a4.25 4.25 0 0 1-4.063-3M31.813 7h3.937A4.25 4.25 0 0 1 40 11.25v28.5A4.25 4.25 0 0 1 35.75 44h-23.5A4.25 4.25 0 0 1 8 39.75v-28.5A4.25 4.25 0 0 1 12.25 7h3.937a4.25 4.25 0 0 1 4.063-3h7.5a4.25 4.25 0 0 1 4.063 3M18.5 8.25c0 .966.784 1.75 1.75 1.75h7.5a1.75 1.75 0 1 0 0-3.5h-7.5a1.75 1.75 0 0 0-1.75 1.75M24 17.5a3 3 0 1 0 0 6a3 3 0 0 0 0-6m-5.5 3a5.5 5.5 0 1 1 11 0a5.5 5.5 0 0 1-11 0m-2 11.3a1.3 1.3 0 0 1 1.3-1.3h12.4a1.3 1.3 0 0 1 1.3 1.3c0 1.457-.677 2.57-1.926 3.372C28.277 36.006 26.35 36.5 24 36.5s-4.277-.494-5.574-1.328C17.177 34.37 16.5 33.257 16.5 31.8m1.3-3.8a3.8 3.8 0 0 0-3.8 3.8c0 2.407 1.198 4.27 3.074 5.475C18.902 38.451 21.35 39 24 39s5.098-.55 6.926-1.725C32.802 36.07 34 34.207 34 31.8a3.8 3.8 0 0 0-3.8-3.8z"/></svg>