<svg xmlns="http://www.w3.org/2000/svg" xmlns:xlink="http://www.w3.org/1999/xlink" width="48" height="48" viewBox="0 0 48 48"><path fill="currentColor" d="M16.187 9.5H12.25a1.75 1.75 0 0 0-1.75 1.75v28.5c0 .967.784 1.75 1.75 1.75h23.5a1.75 1.75 0 0 0 1.75-1.75v-28.5a1.75 1.75 0 0 0-1.75-1.75h-3.937a4.25 4.25 0 0 1-4.063 3h-7.5a4.25 4.25 0 0 1-4.063-3M31.813 7h3.937A4.25 4.25 0 0 1 40 11.25v28.5A4.25 4.25 0 0 1 35.75 44h-23.5A4.25 4.25 0 0 1 8 39.75v-28.5A4.25 4.25 0 0 1 12.25 7h3.937a4.25 4.25 0 0 1 4.063-3h7.5a4.25 4.25 0 0 1 4.063 3M18.5 8.25c0 .966.784 1.75 1.75 1.75h7.5a1.75 1.75 0 1 0 0-3.5h-7.5a1.75 1.75 0 0 0-1.75 1.75m0 12.25a5.5 5.5 0 1 1 11 0a5.5 5.5 0 0 1-11 0M14 31.8a3.8 3.8 0 0 1 3.8-3.8h12.4a3.8 3.8 0 0 1 3.8 3.8c0 2.407-1.198 4.27-3.074 5.475C29.098 38.451 26.65 39 24 39s-5.098-.55-6.926-1.725C15.198 36.07 14 34.207 14 31.8"/></svg>