<svg xmlns="http://www.w3.org/2000/svg" xmlns:xlink="http://www.w3.org/1999/xlink" width="24" height="24" viewBox="0 0 24 24"><path fill="currentColor" d="M15.088 6.412a2.84 2.84 0 0 0-1.347-.955l-1.378-.448a.544.544 0 0 1 0-1.025l1.378-.448A2.84 2.84 0 0 0 15.5 1.774l.011-.034l.448-1.377a.544.544 0 0 1 1.027 0l.447 1.377a2.84 2.84 0 0 0 1.799 1.796l1.377.448l.028.007a.544.544 0 0 1 0 1.025l-1.378.448a2.84 2.84 0 0 0-1.798 1.796l-.448 1.377l-.013.034a.544.544 0 0 1-1.013-.034l-.448-1.377a2.8 2.8 0 0 0-.45-.848m7.695 3.801l-.766-.248a1.58 1.58 0 0 1-.998-.999l-.25-.764a.302.302 0 0 0-.57 0l-.248.764a1.58 1.58 0 0 1-.984.999l-.765.248a.302.302 0 0 0 0 .57l.765.249a1.58 1.58 0 0 1 1 1.002l.248.764a.302.302 0 0 0 .57 0l.249-.764a1.58 1.58 0 0 1 .999-.999l.765-.248a.302.302 0 0 0 0-.57zM12.5 2.75v.1l-.45.15A1.565 1.565 0 0 0 11 4.469c.002.635.416 1.277 1 1.53l1.4.46c.516.175 1.014.566 1.19 1.09l.127.451H7.25l-.102.007a.75.75 0 0 0 0 1.486l.102.007h8.035a1.55 1.55 0 0 0 1.175.549c.236.003.47-.052.68-.16a1.3 1.3 0 0 0-.18.66c-.004.54.362 1.048.87 1.23q.111.034.244.066c.36.091.79.2.906.554l.014.045c.193.612.409 1.296 1.005 1.525V16h-3.754l-.154.005A2.25 2.25 0 0 0 14 18.09l-.006.161v3.755H5.753a2.25 2.25 0 0 1-2.25-2.25L3.502 5.75a2.25 2.25 0 0 1 2.25-2.25l.747-.001V2.75a.75.75 0 0 1 1.494-.102L8 2.75l-.001.749H11V2.75a.75.75 0 0 1 1.494-.102zM7.25 16l-.102.007a.75.75 0 0 0 0 1.486l.102.007h3.998l.102-.007a.75.75 0 0 0 0-1.486L11.248 16zm0-4l-.102.007a.75.75 0 0 0 0 1.486l.102.007h8.998l.102-.007a.75.75 0 0 0 0-1.486L16.248 12zm8.244 9.565l4.065-4.065h-3.314l-.102.007a.75.75 0 0 0-.641.641l-.007.102z"/></svg>