<svg xmlns="http://www.w3.org/2000/svg" xmlns:xlink="http://www.w3.org/1999/xlink" width="28" height="28" viewBox="0 0 28 28"><path fill="currentColor" d="M17.171 7.829a3.16 3.16 0 0 1 .761 1.238l.498 1.53a.605.605 0 0 0 1.14 0l.498-1.53a3.15 3.15 0 0 1 1.998-1.996l1.53-.497a.605.605 0 0 0 0-1.14l-.03-.008l-1.531-.497a3.15 3.15 0 0 1-1.998-1.996l-.497-1.53a.604.604 0 0 0-1.14 0l-.498 1.53l-.013.038a3.15 3.15 0 0 1-1.955 1.958l-1.53.497a.605.605 0 0 0 0 1.14l1.53.497c.467.156.89.418 1.237.766m8.65 3.529l.918.298l.019.004a.362.362 0 0 1 0 .684l-.919.299a1.9 1.9 0 0 0-1.198 1.197l-.299.918a.363.363 0 0 1-.684 0l-.299-.918a1.89 1.89 0 0 0-1.198-1.202l-.919-.298a.362.362 0 0 1 0-.684l.919-.299a1.9 1.9 0 0 0 1.18-1.197l.299-.918a.363.363 0 0 1 .684 0l.298.918a1.89 1.89 0 0 0 1.199 1.197M14.75 4h.858l-1.519.5a1.57 1.57 0 0 0-.79.59a1.6 1.6 0 0 0-.213.41H6.75a.75.75 0 0 0-.75.75v17c0 .414.336.75.75.75h9.246v-3.254a2.25 2.25 0 0 1 2.25-2.25H21.5v-5.022l.35.115a.85.85 0 0 1 .34.21a.9.9 0 0 1 .22.35l.3.92c.06.186.159.355.29.497v3.68a.75.75 0 0 1-.22.53l-5.504 5.504a.75.75 0 0 1-.53.22H6.75a2.25 2.25 0 0 1-2.25-2.25v-17A2.25 2.25 0 0 1 6.75 4H8V2.75a.75.75 0 0 1 1.5 0V4h3.75V2.75a.75.75 0 0 1 1.5 0zm3.496 15.996a.75.75 0 0 0-.75.75v2.193l2.943-2.943zM8.75 9.5h8.262l.467 1.43q.012.035.027.07H8.75a.75.75 0 0 1 0-1.5M8 14.75a.75.75 0 0 1 .75-.75h10a.75.75 0 0 1 0 1.5h-10a.75.75 0 0 1-.75-.75m.75 3.75a.75.75 0 0 0 0 1.5h4.5a.75.75 0 0 0 0-1.5z"/></svg>