<svg xmlns="http://www.w3.org/2000/svg" xmlns:xlink="http://www.w3.org/1999/xlink" width="24" height="24" viewBox="0 0 24 24"><path fill="currentColor" d="M15.088 6.412a2.84 2.84 0 0 0-1.347-.955l-1.378-.448a.544.544 0 0 1 0-1.025l1.378-.448A2.84 2.84 0 0 0 15.5 1.774l.011-.034l.448-1.377a.544.544 0 0 1 1.027 0l.447 1.377a2.84 2.84 0 0 0 1.799 1.796l1.377.448l.028.007a.544.544 0 0 1 0 1.025l-1.378.448a2.84 2.84 0 0 0-1.798 1.796l-.448 1.377l-.013.034a.544.544 0 0 1-1.013-.034l-.448-1.377a2.8 2.8 0 0 0-.45-.848m7.695 3.801l-.766-.248a1.58 1.58 0 0 1-.998-.999l-.25-.764a.302.302 0 0 0-.57 0l-.248.764a1.58 1.58 0 0 1-.984.999l-.765.248a.302.302 0 0 0 0 .57l.765.249a1.58 1.58 0 0 1 1 1.002l.248.764a.302.302 0 0 0 .57 0l.249-.764a1.58 1.58 0 0 1 .999-.999l.765-.248a.302.302 0 0 0 0-.57zM12.5 2.75v.1l-.45.15A1.565 1.565 0 0 0 11 4.469c0 .18.034.36.095.53H5.742a.75.75 0 0 0-.74.75l.001 14.005c0 .415.336.75.75.75h8.241V18.25a2.25 2.25 0 0 1 2.097-2.245l.154-.005h2.254v-4.028c.22.085.41.21.481.427l.014.045c.193.612.409 1.296 1.005 1.526v2.78q0 .09-.02.175l-.03.094l-.044.096l-.02.032a.7.7 0 0 1-.105.133l-4.505 4.505a1 1 0 0 1-.084.073l-.012.008l-.008.006l-.088.052l-.117.047l-.113.026l-.054.006l-.054.002H5.753a2.25 2.25 0 0 1-2.25-2.25L3.502 5.75a2.25 2.25 0 0 1 2.25-2.25l.747-.001V2.75a.75.75 0 0 1 .649-.743L7.25 2a.75.75 0 0 1 .743.648L8 2.75l-.001.749H11V2.75a.75.75 0 0 1 .649-.743L11.75 2a.75.75 0 0 1 .744.648zm3.744 14.75a.75.75 0 0 0-.743.648l-.007.102l-.001 1.194l1.944-1.944zM7.25 8h7.467l.283.999c.064.187.162.356.285.501H7.25a.75.75 0 0 1-.102-1.493zm3.998 8H7.25l-.102.007A.75.75 0 0 0 7.25 17.5h3.998l.102-.007A.75.75 0 0 0 11.248 16m5-4H7.25l-.102.007A.75.75 0 0 0 7.25 13.5h8.998l.102-.007A.75.75 0 0 0 16.248 12"/></svg>