<svg xmlns="http://www.w3.org/2000/svg" xmlns:xlink="http://www.w3.org/1999/xlink" width="28" height="28" viewBox="0 0 28 28"><path fill="currentColor" d="M17.171 7.829a3.16 3.16 0 0 1 .761 1.238l.498 1.53a.605.605 0 0 0 1.14 0l.498-1.53a3.15 3.15 0 0 1 1.998-1.996l1.53-.497a.605.605 0 0 0 0-1.14l-.03-.008l-1.531-.497a3.15 3.15 0 0 1-1.998-1.996l-.497-1.53a.604.604 0 0 0-1.14 0l-.498 1.53l-.013.038a3.15 3.15 0 0 1-1.955 1.958l-1.53.497a.605.605 0 0 0 0 1.14l1.53.497c.467.156.89.418 1.237.766m8.65 3.529l.918.298l.019.004a.362.362 0 0 1 0 .684l-.919.299a1.9 1.9 0 0 0-1.198 1.197l-.299.918a.363.363 0 0 1-.684 0l-.299-.918a1.89 1.89 0 0 0-1.198-1.202l-.919-.298a.362.362 0 0 1 0-.684l.919-.299a1.9 1.9 0 0 0 1.18-1.197l.299-.918a.363.363 0 0 1 .684 0l.298.918a1.89 1.89 0 0 0 1.199 1.197M14.75 4h.858l-1.519.5a1.57 1.57 0 0 0-.79.59a1.58 1.58 0 0 0 0 1.85c.187.273.457.48.77.59l1.56.5c.312.11.595.287.83.52q.099.097.18.21a2 2 0 0 1 .34.64l.033.1H8.75a.75.75 0 0 0 0 1.5h8.756c.116.29.311.543.563.73a1.64 1.64 0 0 0 1.86 0l.13-.11A1.3 1.3 0 0 0 20 12c.003.282.09.557.25.79a1.3 1.3 0 0 0 .66.49l.94.31a.85.85 0 0 1 .34.21a.9.9 0 0 1 .22.35l.3.92c.06.185.16.354.291.496v2.93h-4.754a2.25 2.25 0 0 0-2.25 2.25V25.5H6.75a2.25 2.25 0 0 1-2.25-2.25v-17A2.25 2.25 0 0 1 6.75 4H8V2.75a.75.75 0 0 1 1.5 0V4h3.75V2.75a.75.75 0 0 1 1.5 0zM8 14.75c0 .414.336.75.75.75h10a.75.75 0 0 0 0-1.5h-10a.75.75 0 0 0-.75.75m0 4.5c0 .414.336.75.75.75h4.5a.75.75 0 0 0 0-1.5h-4.5a.75.75 0 0 0-.75.75m9.496 5.81l5.065-5.064h-4.315a.75.75 0 0 0-.75.75z"/></svg>