<svg xmlns="http://www.w3.org/2000/svg" xmlns:xlink="http://www.w3.org/1999/xlink" width="16" height="16" viewBox="0 0 16 16"><path fill="currentColor" d="m10.878.282l.348 1.071a2.2 2.2 0 0 0 1.398 1.397l1.072.348l.021.006a.423.423 0 0 1 0 .798l-1.071.348a2.2 2.2 0 0 0-1.399 1.397l-.348 1.07a.423.423 0 0 1-.798 0l-.348-1.07a2.2 2.2 0 0 0-1.399-1.403l-1.072-.348a.423.423 0 0 1 0-.798l1.072-.348a2.2 2.2 0 0 0 1.377-1.397l.348-1.07a.423.423 0 0 1 .799 0m4.905 7.931l-.765-.248a1.58 1.58 0 0 1-1-.999l-.248-.764a.302.302 0 0 0-.57 0l-.25.764a1.58 1.58 0 0 1-.983.999l-.765.248a.303.303 0 0 0 0 .57l.765.249a1.58 1.58 0 0 1 1 1.002l.248.764a.302.302 0 0 0 .57 0l.249-.764a1.58 1.58 0 0 1 .999-.999l.765-.248a.303.303 0 0 0 0-.57zM6.5 2q.379 0 .74.06l-.29.094c-.28.1-.52.28-.69.52a1.4 1.4 0 0 0-.26.867a3 3 0 1 0 3.355 3.884q.124.166.318.318q.21.15.45.21c-.08.17-.12.361-.12.551c0 .27.08.531.24.752q.189.255.477.404l1.61 1.61q.15.297.426.5q.084.057.175.1l.85.85a.75.75 0 0 1-1.061 1.06l-3.613-3.612A4.5 4.5 0 1 1 6.5 2"/></svg>