<svg xmlns="http://www.w3.org/2000/svg" xmlns:xlink="http://www.w3.org/1999/xlink" width="32" height="32" viewBox="0 0 32 32"><path fill="currentColor" d="M20.488 7.511a3.5 3.5 0 0 1 .837 1.363l.548 1.682a.664.664 0 0 0 1.254 0l.548-1.682a3.47 3.47 0 0 1 2.197-2.196l1.684-.547a.665.665 0 0 0 0-1.254l-.034-.008l-1.683-.547a3.47 3.47 0 0 1-2.198-2.196L23.094.444a.665.665 0 0 0-1.255 0l-.547 1.682l-.014.042a3.47 3.47 0 0 1-2.15 2.154l-1.684.547a.665.665 0 0 0 0 1.254l1.684.546c.513.171.979.46 1.36.842m9.333 4.847l.918.298l.019.004a.362.362 0 0 1 0 .684l-.919.299a1.9 1.9 0 0 0-1.198 1.197l-.299.918a.363.363 0 0 1-.684 0l-.299-.918a1.89 1.89 0 0 0-1.198-1.202l-.919-.298a.362.362 0 0 1 0-.684l.919-.299a1.9 1.9 0 0 0 1.18-1.197l.299-.918a.363.363 0 0 1 .684 0l.298.918a1.89 1.89 0 0 0 1.199 1.197M13.5 3c1.146 0 2.25.184 3.282.523A2.17 2.17 0 0 0 15.5 5.5q.003.13.021.257a8 8 0 1 0 5.87 6.414a2.16 2.16 0 0 0 2.359-.091a1.9 1.9 0 0 0-.25.9a1.84 1.84 0 0 0 .476 1.238a10.45 10.45 0 0 1-2.22 5.77l6.879 6.878a1.25 1.25 0 0 1-1.768 1.768l-6.878-6.878A10.46 10.46 0 0 1 13.5 24C7.701 24 3 19.299 3 13.5S7.701 3 13.5 3"/></svg>