<svg xmlns="http://www.w3.org/2000/svg" xmlns:xlink="http://www.w3.org/1999/xlink" width="20" height="20" viewBox="0 0 20 20"><path fill="currentColor" d="M8.5 3a5.5 5.5 0 0 1 4.227 9.02l4.127 4.126a.5.5 0 0 1-.638.765l-.07-.057l-4.126-4.127q-.514.428-1.12.723a5.5 5.5 0 0 0-.286-.977a4.5 4.5 0 1 0-6.562-3.281q-.496.136-.952.358Q3 9.04 3 8.5A5.5 5.5 0 0 1 8.5 3m-5.435 8.442a2 2 0 0 1-1.43 2.478l-.461.118a4.7 4.7 0 0 0 .01 1.016l.35.083a2 2 0 0 1 1.455 2.519l-.126.422q.387.307.834.518l.325-.344a2 2 0 0 1 2.91.002l.337.358q.44-.203.822-.498l-.156-.556a2 2 0 0 1 1.43-2.479l.461-.117a4.7 4.7 0 0 0-.01-1.017l-.349-.082a2 2 0 0 1-1.456-2.52l.126-.421a4.3 4.3 0 0 0-.835-.519l-.324.344a2 2 0 0 1-2.91-.001l-.337-.358a4.3 4.3 0 0 0-.822.497zM5.5 15.5a1 1 0 1 1 0-2a1 1 0 0 1 0 2"/></svg>