<svg xmlns="http://www.w3.org/2000/svg" xmlns:xlink="http://www.w3.org/1999/xlink" width="32" height="32" viewBox="0 0 32 32"><path fill="currentColor" d="M23 11a2 2 0 1 0 0-4a2 2 0 0 0 0 4m-4.382-8a4.5 4.5 0 0 0-3.13 1.266L3.344 16.02a3.5 3.5 0 0 0-.04 4.99l7.256 7.257a3.5 3.5 0 0 0 4.91.04l12.16-11.769A4.5 4.5 0 0 0 29 13.305V6.5A3.5 3.5 0 0 0 25.5 3zm-2.434 1.985A3.5 3.5 0 0 1 18.618 4H25.5A2.5 2.5 0 0 1 28 6.5v6.805a3.5 3.5 0 0 1-1.066 2.515L14.773 27.588a2.5 2.5 0 0 1-3.507-.028L4.01 20.303a2.5 2.5 0 0 1 .029-3.564z"/></svg>