<svg xmlns="http://www.w3.org/2000/svg" xmlns:xlink="http://www.w3.org/1999/xlink" width="48" height="48" viewBox="0 0 48 48"><defs><path id="ipODatabasePoint0" d="M39 9c0 2.761-6.716 5-15 5S9 11.761 9 9s6.716-5 15-5s15 2.239 15 5"/><path id="ipODatabasePoint1" stroke="currentColor" d="M39 9c0 2.761-6.716 5-15 5S9 11.761 9 9s6.716-5 15-5s15 2.239 15 5"/></defs><g fill="none"><path stroke="currentColor" stroke-linecap="round" stroke-linejoin="round" stroke-width="4" d="M24 36v-6m-4 10H6m22 0h14m-14 0a4 4 0 1 1-8 0a4 4 0 0 1 8 0M39 9v16c0 2.761-6.716 5-15 5S9 27.761 9 25V9"/><path stroke="currentColor" stroke-linecap="round" stroke-linejoin="round" stroke-width="4" d="M39 17c0 2.761-6.716 5-15 5S9 19.761 9 17"/><use href="#ipODatabasePoint0"/><use href="#ipODatabasePoint0"/><use href="#ipODatabasePoint1" stroke-linecap="round" stroke-linejoin="round" stroke-width="4"/><use href="#ipODatabasePoint1" stroke-linecap="round" stroke-linejoin="round" stroke-width="4"/></g></svg>