<svg xmlns="http://www.w3.org/2000/svg" xmlns:xlink="http://www.w3.org/1999/xlink" width="24" height="24" viewBox="0 0 24 24"><g fill="none" stroke="currentColor" stroke-linecap="round" stroke-linejoin="round" stroke-width="1.5" color="currentColor"><path d="M21.5 4.5a2 2 0 1 1-4 0a2 2 0 0 1 4 0m-1.029 4.906c.029.884.029 1.906.029 3.094c0 4.243 0 6.364-1.318 7.682S15.742 21.5 11.5 21.5s-6.364 0-7.682-1.318S2.5 16.742 2.5 12.5s0-6.364 1.318-7.682S7.258 3.5 11.5 3.5c1.188 0 2.21 0 3.094.029"/><path d="m6.5 14.5l2.793-2.793a1 1 0 0 1 1.414 0l1.586 1.586a1 1 0 0 0 1.414 0L16.5 10.5"/></g></svg>