<svg xmlns="http://www.w3.org/2000/svg" xmlns:xlink="http://www.w3.org/1999/xlink" width="24" height="24" viewBox="0 0 24 24"><g fill="none" stroke="currentColor" stroke-linecap="round" stroke-linejoin="round" stroke-width="1.5" color="currentColor"><path d="M20.998 13q.002-.705.002-1.5c0-4.478 0-6.718-1.391-8.109S15.979 2 11.5 2C7.022 2 4.782 2 3.391 3.391S2 7.021 2 11.5c0 4.478 0 6.718 1.391 8.109S7.021 21 11.5 21q.795 0 1.5-.002"/><path d="m18.5 15l.258.697c.338.914.507 1.371.84 1.704c.334.334.791.503 1.705.841L22 18.5l-.697.258c-.914.338-1.371.507-1.704.84c-.334.334-.503.791-.841 1.705L18.5 22l-.258-.697c-.338-.914-.507-1.371-.84-1.704c-.334-.334-.791-.503-1.705-.841L15 18.5l.697-.258c.914-.338 1.371-.507 1.704-.84c.334-.334.503-.791.841-1.705zM2 9h19M6.5 5.5h.009m3.991 0h.009"/></g></svg>