<svg xmlns="http://www.w3.org/2000/svg" xmlns:xlink="http://www.w3.org/1999/xlink" width="24" height="24" viewBox="0 0 24 24"><g fill="none" stroke="currentColor" stroke-linecap="round" stroke-linejoin="round" stroke-width="1.5" color="currentColor"><path d="M20.998 11q.002.705.002 1.5c0 4.478 0 6.718-1.391 8.109S15.979 22 11.5 22c-4.478 0-6.718 0-8.109-1.391S2 16.979 2 12.5c0-4.478 0-6.718 1.391-8.109S7.021 3 11.5 3q.795 0 1.5.002"/><path d="m18.5 2l.258.697c.338.914.507 1.371.84 1.704c.334.334.791.503 1.705.841L22 5.5l-.697.258c-.914.338-1.371.507-1.704.84c-.334.334-.503.791-.841 1.705L18.5 9l-.258-.697c-.338-.914-.507-1.371-.84-1.704c-.334-.334-.791-.503-1.705-.841L15 5.5l.697-.258c.914-.338 1.371-.507 1.704-.84c.334-.334.503-.791.841-1.705zm-14 19.5c4.372-5.225 9.274-12.116 16.498-7.458"/></g></svg>