<svg xmlns="http://www.w3.org/2000/svg" xmlns:xlink="http://www.w3.org/1999/xlink" width="24" height="24" viewBox="0 0 24 24"><g fill="none" stroke="currentColor" stroke-linecap="round" stroke-linejoin="round" stroke-width="1.5" color="currentColor"><path d="M5.322 9.683c2.413-4.271 3.62-6.406 5.276-6.956a4.45 4.45 0 0 1 2.804 0c1.656.55 2.863 2.685 5.276 6.956c2.414 4.27 3.62 6.406 3.259 8.146c-.2.958-.69 1.826-1.402 2.48C19.241 21.5 16.827 21.5 12 21.5s-7.241 0-8.535-1.19a4.66 4.66 0 0 1-1.402-2.48c-.362-1.74.845-3.876 3.259-8.147"/><path d="M12.242 17v-4c0-.471 0-.707-.146-.854c-.147-.146-.382-.146-.854-.146m.75-3h.009"/></g></svg>