<svg xmlns="http://www.w3.org/2000/svg" xmlns:xlink="http://www.w3.org/1999/xlink" width="24" height="24" viewBox="0 0 24 24"><g fill="none" stroke="currentColor" stroke-linecap="round" stroke-linejoin="round" stroke-width="1.5" color="currentColor"><path d="M2 16c0-2.339 0-3.508.536-4.362a3.5 3.5 0 0 1 1.102-1.101C4.492 10 5.66 10 8 10h8c2.339 0 3.508 0 4.362.537a3.5 3.5 0 0 1 1.102 1.1C22 12.493 22 13.662 22 16s0 3.508-.537 4.362a3.5 3.5 0 0 1-1.1 1.102C19.507 22 18.338 22 16 22H8c-2.339 0-3.508 0-4.362-.537a3.5 3.5 0 0 1-1.102-1.1C2 19.507 2 18.338 2 16m18-6c0-1.4 0-2.1-.273-2.635a2.5 2.5 0 0 0-1.092-1.093C18.1 6 17.4 6 16 6H8c-1.4 0-2.1 0-2.635.272a2.5 2.5 0 0 0-1.093 1.093C4 7.9 4 8.6 4 10m14-4c0-1.886 0-2.828-.586-3.414S15.886 2 14 2h-4c-1.886 0-2.828 0-3.414.586S6 4.114 6 6"/><path d="M15 14a2 2 0 0 1-2 2h-2a2 2 0 0 1-2-2"/></g></svg>