<svg xmlns="http://www.w3.org/2000/svg" xmlns:xlink="http://www.w3.org/1999/xlink" width="24" height="24" viewBox="0 0 24 24"><g fill="none" stroke="currentColor" stroke-linecap="round" stroke-linejoin="round" stroke-width="1.5" color="currentColor"><path d="M19.863 22H9.054c-2.854 0-4.28 0-5.167-.881S3 18.82 3 15.984V7.117c0-.588 0-.882.16-1.257c.158-.376.3-.513.583-.787c1.106-1.07 3.184-2.367 6.359-2.89c1.287-.213 1.93-.319 2.46.132c.529.45.529 1.18.529 2.64v5.664c0 1.398 0 2.097.272 2.691c.524 1.142 1.716 1.59 2.792 2.09c.76.352 1.556.666 2.288 1.077a5.01 5.01 0 0 1 2.47 3.42c.188.977.168 2.103-1.05 2.103"/><path d="M3 17s2.007-1 2.95-.706c1.129.351 2.013 1.33 3.05-.023C10.132 14.945 11.992 14 14 14m5.059 3c-1 .333-3 1.8-3 5m-13-13.5h3M3 12h2m5-6h.009M10 10h.009"/></g></svg>