<svg xmlns="http://www.w3.org/2000/svg" xmlns:xlink="http://www.w3.org/1999/xlink" width="24" height="24" viewBox="0 0 24 24"><g fill="none" stroke="currentColor" stroke-linecap="round" stroke-linejoin="round" stroke-width="1.5" color="currentColor"><path d="M6 19.998c2.21 0 4-1.787 4-3.992a3.996 3.996 0 0 0-4-3.992c-2.21 0-4 1.787-4 3.992a3.996 3.996 0 0 0 4 3.992m12 0c2.21 0 4-1.787 4-3.992a3.996 3.996 0 0 0-4-3.992c-2.21 0-4 1.787-4 3.992a3.996 3.996 0 0 0 4 3.992"/><path d="M6 16.006h4.37a1 1 0 0 0 .87-.505l4.26-7.48M12 13.012L7 7.023m0 0H5m2 0h2m9.053 8.947L14.806 4.03c1.45-.07 4.553-.2 5.185 2.18"/></g></svg>