<svg xmlns="http://www.w3.org/2000/svg" xmlns:xlink="http://www.w3.org/1999/xlink" width="24" height="24" viewBox="0 0 24 24"><g fill="none" stroke="currentColor" stroke-linecap="round" stroke-linejoin="round" stroke-width="1.5" color="currentColor"><path d="M5 9c0-3.3 0-4.95 1.025-5.975S8.7 2 12 2s4.95 0 5.975 1.025S19 5.7 19 9v6c0 3.3 0 4.95-1.025 5.975S15.3 22 12 22s-4.95 0-5.975-1.025S5 18.3 5 15z"/><path d="M16 13v-2.5a4 4 0 0 0-8 0V13"/><path d="M13.5 11v-.5a1.5 1.5 0 0 0-3 0V14m3-.5V15M12 19v.01"/></g></svg>