<svg xmlns="http://www.w3.org/2000/svg" xmlns:xlink="http://www.w3.org/1999/xlink" width="24" height="24" viewBox="0 0 24 24"><g fill="none" stroke="currentColor" stroke-linecap="round" stroke-linejoin="round" stroke-width="1.5" color="currentColor"><path d="M14.008 11h-.01m-5.99 5h-.01M6.249 9.303c-.457 1.035-.267 2.186.424 2.571c.69.385 1.621-.142 2.078-1.177s.267-2.186-.424-2.571c-.69-.385-1.621.142-2.078 1.177m6.928 6.569c-.39.752-.113 1.643.617 1.99c.731.347 1.64.018 2.03-.734s.112-1.643-.618-1.99c-.731-.347-1.64-.018-2.03.734"/><path d="M12 22C6.477 22 2 17.523 2 12S6.477 2 12 2c.242 0 .387.264.296.487a4 4 0 0 0 5.25 5.203c.203-.085.454.09.454.31a3 3 0 0 0 3.337 2.981c.314-.035.632.165.649.482Q22 11.73 22 12c0 5.523-4.477 10-10 10"/></g></svg>