<svg xmlns="http://www.w3.org/2000/svg" xmlns:xlink="http://www.w3.org/1999/xlink" width="24" height="24" viewBox="0 0 24 24"><g fill="none" stroke="currentColor" stroke-linecap="round" stroke-linejoin="round" stroke-width="1.5" color="currentColor"><path d="M11 2h2c4.243 0 6.364 0 7.682 1.318S22 6.758 22 11s0 6.364-1.318 7.682S17.242 20 13 20h-2c-4.243 0-6.364 0-7.682-1.318S2 15.242 2 11s0-6.364 1.318-7.682S6.758 2 11 2"/><path d="M7 15c-1-.53-1-1.385-1-3.094v-1.812C6 8.385 6 7.53 7 7m11 15v-2M6 22v-2m6.938-6.333V8.333m1.562 0V7m0 8v-1.333M12.938 11h3.124m0 0c.518 0 .938.448.938 1v.667c0 .552-.42 1-.937 1H12M16.063 11c.517 0 .937-.448.937-1v-.667c0-.552-.42-1-.937-1H12"/></g></svg>