<svg xmlns="http://www.w3.org/2000/svg" xmlns:xlink="http://www.w3.org/1999/xlink" width="24" height="24" viewBox="0 0 24 24"><g fill="none" stroke="currentColor" stroke-linecap="round" stroke-linejoin="round" stroke-width="1.5" color="currentColor"><path d="M10.125 15V9M12 9V7.5m0 9V15m-1.875-3h3.75m0 0c.621 0 1.125.504 1.125 1.125v.75c0 .621-.504 1.125-1.125 1.125H9m4.875-3c.621 0 1.125-.504 1.125-1.125v-.75C15 9.504 14.496 9 13.875 9H9"/><path d="M21.011 14.096c.522-.14.783-.21.886-.345S22 13.4 22 12.967v-1.934c0-.433 0-.65-.103-.784c-.103-.135-.364-.205-.886-.346c-1.95-.526-3.171-2.565-2.668-4.502c.139-.533.208-.8.142-.956s-.256-.264-.635-.48l-1.725-.978c-.372-.212-.558-.317-.725-.295s-.356.21-.733.587c-1.459 1.455-3.873 1.455-5.333 0c-.377-.377-.565-.565-.732-.587s-.353.083-.725.294l-1.725.98c-.38.215-.57.323-.635.479s.003.423.141.956c.503 1.937-.718 3.976-2.669 4.502c-.522.141-.783.211-.886.346S2 10.6 2 11.033v1.934c0 .433 0 .65.103.784s.364.205.886.345c1.95.526 3.171 2.565 2.668 4.503c-.139.533-.208.8-.142.956s.256.264.635.479l1.725.98c.372.21.558.316.725.294s.356-.21.733-.587c1.46-1.457 3.876-1.457 5.336 0c.377.376.565.564.732.587c.167.022.353-.084.726-.295l1.724-.98c.38-.215.57-.322.635-.479s-.003-.422-.141-.955c-.504-1.938.716-3.977 2.666-4.503"/></g></svg>