<svg xmlns="http://www.w3.org/2000/svg" xmlns:xlink="http://www.w3.org/1999/xlink" width="24" height="24" viewBox="0 0 24 24"><g fill="none" stroke="currentColor" stroke-linecap="round" stroke-linejoin="round" stroke-width="1.5" color="currentColor"><path d="M11 9a6.5 6.5 0 1 0 0 13a6.5 6.5 0 0 0 0-13m9-.5l-4.588-4.206c-.668-.612-1.002-.918-1.404-.91c-.401.01-.721.33-1.362.97l-.966.966c-.564.564-.846.846-1.207.879c-.361.032-.69-.195-1.345-.65L4 2m16 6.5h-3.5m3.5 0v-3"/><path d="M9.438 18.167v-5.334m1.562 0V11.5m0 8v-1.333M9.438 15.5h3.124m0 0c.518 0 .938.448.938 1v.667c0 .552-.42 1-.937 1H8.5m4.063-2.667c.517 0 .937-.448.937-1v-.667c0-.552-.42-1-.937-1H8.5"/></g></svg>