<svg xmlns="http://www.w3.org/2000/svg" xmlns:xlink="http://www.w3.org/1999/xlink" width="24" height="24" viewBox="0 0 24 24"><g fill="none" stroke="currentColor" stroke-linecap="round" stroke-linejoin="round" stroke-width="1.5" color="currentColor"><path d="M20.5 12a8.5 8.5 0 1 0-17 0a8.5 8.5 0 0 0 17 0M12 2v3m10 7h-3m-7 7v3M5 12H2"/><path d="M10.438 14.667V9.333m1.562 0V8m0 8v-1.333M10.438 12h3.124m0 0c.518 0 .938.448.938 1v.667c0 .552-.42 1-.937 1H9.5M13.563 12c.517 0 .937-.448.937-1v-.667c0-.552-.42-1-.937-1H9.5"/></g></svg>