<svg xmlns="http://www.w3.org/2000/svg" xmlns:xlink="http://www.w3.org/1999/xlink" width="24" height="24" viewBox="0 0 24 24"><g fill="none" stroke="currentColor" stroke-linecap="round" stroke-linejoin="round" stroke-width="1.5" color="currentColor"><path d="M11.998 2c-2.85 0-4.697 2.019-6.882 2.755c-.888.3-1.333.449-1.512.66c-.18.21-.233.519-.338 1.135c-1.127 6.596 1.336 12.694 7.209 15.068c.631.255.947.382 1.526.382s.896-.128 1.527-.383c5.873-2.373 8.333-8.471 7.206-15.067c-.106-.616-.158-.925-.338-1.136s-.624-.36-1.512-.659C16.698 4.019 14.848 2 11.998 2"/><path d="M10.125 14.5v-6M12 8.5V7m0 9v-1.5m-1.875-3h3.75m0 0c.621 0 1.125.504 1.125 1.125v.75c0 .621-.504 1.125-1.125 1.125H9m4.875-3c.621 0 1.125-.504 1.125-1.125v-.75c0-.621-.504-1.125-1.125-1.125H9"/></g></svg>