<svg xmlns="http://www.w3.org/2000/svg" xmlns:xlink="http://www.w3.org/1999/xlink" width="24" height="24" viewBox="0 0 24 24"><path fill="none" stroke="currentColor" stroke-linecap="round" stroke-linejoin="round" stroke-width="1.5" d="M2 4.8h7c1.657 0 3 1.612 3 3.6S10.657 12 9 12m0 0c1.657 0 3 1.612 3 3.6s-1.343 3.6-3 3.6H2M9 12H3m-.167-7.2v14.4M4.5 3v1.8M8.667 3v1.8M4.5 19.2V21m4.167-1.8V21m5.833-9H22m-7.5 0c0 .7 1.994 2.008 2.5 2.5M14.5 12c0-.7 1.994-2.008 2.5-2.5" color="currentColor"/></svg>