<svg xmlns="http://www.w3.org/2000/svg" xmlns:xlink="http://www.w3.org/1999/xlink" width="24" height="24" viewBox="0 0 24 24"><g fill="none" stroke="currentColor" stroke-linecap="round" stroke-linejoin="round" stroke-width="1.5" color="currentColor"><path d="M5.5 15.5C3.288 14.617 2 12.433 2 10.175C2 7.245 4.317 4.35 5.943 2.68c.883-.908 2.23-.908 3.114 0c.492.505.908 1.122 1.443 1.819M8 14.926c0-3.556 2.949-7.07 5.019-9.1c1.124-1.101 2.838-1.101 3.962 0c2.07 2.03 5.019 5.544 5.019 9.1C22 18.413 19.35 22 15 22s-7-3.587-7-7.074"/><path d="M18.5 15.5c0 2.21-1.5 3-3 3"/></g></svg>