<svg xmlns="http://www.w3.org/2000/svg" xmlns:xlink="http://www.w3.org/1999/xlink" width="24" height="24" viewBox="0 0 24 24"><g fill="none" stroke="currentColor" stroke-linecap="round" stroke-linejoin="round" stroke-width="1.5" color="currentColor"><path d="M16 15a7 7 0 1 1-14 0a7 7 0 0 1 14 0"/><path d="m12 8.5l-.531-1.329c-.16-.397-.24-.596-.346-.761a2 2 0 0 0-1.288-.872C9.643 5.5 9.428 5.5 9 5.5s-.643 0-.835.038a2 2 0 0 0-1.288.872c-.107.165-.186.364-.345.761L6 8.5m16-1L20.5 6m0 0L19 4.5M20.5 6L19 7.5M20.5 6L22 4.5M17 6c-3 0-2.59-2.56-5.14-3.733C9.62 1.237 8.77 3.407 9.052 5"/></g></svg>