<svg xmlns="http://www.w3.org/2000/svg" xmlns:xlink="http://www.w3.org/1999/xlink" width="24" height="24" viewBox="0 0 24 24"><path fill="none" stroke="currentColor" stroke-linecap="round" stroke-linejoin="round" stroke-width="1.5" d="M12.5 2.012A11 11 0 0 0 12 2C6.478 2 2 6.284 2 11.567c0 2.538 1.033 4.845 2.719 6.556c.371.377.619.892.519 1.422a5.3 5.3 0 0 1-1.087 2.348a6.5 6.5 0 0 0 4.224-.657c.454-.241.681-.362.842-.386s.39.018.848.104c.638.12 1.286.18 1.935.18c5.522 0 10-4.284 10-9.567q0-.286-.017-.567M16 2l3 3m0 0l3 3m-3-3l3-3m-3 3l-3 3m-4.004 4h.008m3.987 0H16m-8 0h.009" color="currentColor"/></svg>