<svg xmlns="http://www.w3.org/2000/svg" xmlns:xlink="http://www.w3.org/1999/xlink" width="24" height="24" viewBox="0 0 24 24"><g fill="none" stroke="currentColor" stroke-linecap="round" stroke-linejoin="round" stroke-width="1.5" color="currentColor"><path d="M18 2v2M6 2v2M3 8h18M2.5 12.243c0-4.357 0-6.536 1.252-7.89C5.004 3 7.02 3 11.05 3h1.9c4.03 0 6.046 0 7.298 1.354C21.5 5.707 21.5 7.886 21.5 12.244v.513c0 4.357 0 6.536-1.252 7.89C18.996 22 16.98 22 12.95 22h-1.9c-4.03 0-6.046 0-7.298-1.354C2.5 19.293 2.5 17.114 2.5 12.756z"/><path d="M9.388 12.331c.939-.548 1.758-.327 2.25.025c.202.144.303.216.362.216c.06 0 .16-.072.362-.216c.492-.352 1.311-.573 2.25-.025c1.232.72 1.51 3.094-1.33 5.097c-.542.381-.813.572-1.282.572s-.74-.19-1.281-.572c-2.841-2.003-2.563-4.377-1.33-5.097"/></g></svg>