<svg xmlns="http://www.w3.org/2000/svg" xmlns:xlink="http://www.w3.org/1999/xlink" width="24" height="24" viewBox="0 0 24 24"><path fill="none" stroke="currentColor" stroke-linecap="round" stroke-linejoin="round" stroke-width="1.5" d="M16.713 13.594c1.48.39 2.51.885 3.446 1.49c1.384.896 1.978 2.51 1.815 4.068c-.07.658-.6.973-1.215.802l-1.389-.384c-1.1-.305-1.65-.457-1.986-.86s-.375-.959-.454-2.07zm0 0c-2.997-.791-6.426-.792-9.426 0m0 0c-1.48.39-2.51.885-3.446 1.49c-1.384.896-1.978 2.51-1.815 4.068c.07.658.6.973 1.215.802l1.389-.384c1.1-.305 1.65-.457 1.986-.86s.375-.959.454-2.07zm.213-9.08l2.379 2.444c1 1.028 1.5 1.542 2.121 1.542s1.121-.514 2.121-1.542L17 4m-6.5.207c-.657-.01-2.832-.461-3.293 0s-.01 2.636 0 3.293" color="currentColor"/></svg>