<svg xmlns="http://www.w3.org/2000/svg" xmlns:xlink="http://www.w3.org/1999/xlink" width="24" height="24" viewBox="0 0 24 24"><g fill="none" stroke="currentColor" stroke-linecap="round" stroke-linejoin="round" stroke-width="1.5" color="currentColor"><circle cx="12" cy="12" r="10"/><circle cx="12" cy="12" r="6"/><path d="M12 12c-.828 0-1.5.56-1.5 1.25s.672 1.25 1.5 1.25s1.5-.56 1.5-1.25S12.828 12 12 12m0 0c.828 0 1.5-.56 1.5-1.25S12.828 9.5 12 9.5s-1.5.56-1.5 1.25S11.172 12 12 12m0-10v4m0 12v4m10-10h-4M6 12H2"/></g></svg>