<svg xmlns="http://www.w3.org/2000/svg" xmlns:xlink="http://www.w3.org/1999/xlink" width="24" height="24" viewBox="0 0 24 24"><g fill="none" stroke="currentColor" stroke-linecap="round" stroke-linejoin="round" stroke-width="1.5" color="currentColor"><path d="M12 22c5.523 0 10-4.477 10-10S17.523 2 12 2S2 6.477 2 12s4.477 10 10 10"/><path d="M14.492 11.643c.53-.612 1.602-1.479 1.493-1.839m0 0c0-.419-1.051-1.218-1.493-1.804m1.493 1.804c-1.92.122-4.392-.253-5.4.547c-1.06.887-.673 3.41-.78 5.642m0 0c.536.047 1.226-.985 1.835-1.52m-1.835 1.52c-.355.098-1.264-1.008-1.797-1.517"/></g></svg>