<svg xmlns="http://www.w3.org/2000/svg" xmlns:xlink="http://www.w3.org/1999/xlink" width="24" height="24" viewBox="0 0 24 24"><g fill="none" stroke="currentColor" stroke-linecap="round" stroke-linejoin="round" stroke-width="1.5" color="currentColor"><path d="m21 3l-8 8.5m-3.554-.415c-2.48.952-4.463.789-6.446.003c.5 6.443 3.504 8.92 7.509 9.912c0 0 3.017-2.134 3.452-7.193c.047-.548.07-.821-.043-1.13c-.114-.309-.338-.53-.785-.973c-.736-.728-1.103-1.092-1.54-1.184c-.437-.09-1.007.128-2.147.565"/><path d="M4.5 16.446S7 16.93 9.5 15m-1-7.75a1.25 1.25 0 1 1-2.5 0a1.25 1.25 0 0 1 2.5 0M11 4v.1"/></g></svg>