<svg xmlns="http://www.w3.org/2000/svg" xmlns:xlink="http://www.w3.org/1999/xlink" width="24" height="24" viewBox="0 0 24 24"><path fill="none" stroke="currentColor" stroke-linecap="round" stroke-linejoin="round" stroke-width="1.5" d="M17.478 9.01h.022c2.485 0 4.5 2.017 4.5 4.506A4.505 4.505 0 0 1 17.955 18m-.477-8.99q.021-.249.022-.502A5.504 5.504 0 0 0 12 3a5.504 5.504 0 0 0-5.48 5.03m10.958.98a5.5 5.5 0 0 1-1.235 3.004M6.52 8.03A5.005 5.005 0 0 0 2 13.015C2 15.438 3.718 17.536 6 18m.52-9.97q.237-.022.48-.022c1.126 0 2.165.372 3 1.001m-.5 9.494c0-1.255 1.053-2.495 1.792-3.211a1.004 1.004 0 0 1 1.416 0c.739.716 1.792 1.956 1.792 3.211C14.5 19.734 13.553 21 12 21s-2.5-1.266-2.5-2.497" color="currentColor"/></svg>