<svg xmlns="http://www.w3.org/2000/svg" xmlns:xlink="http://www.w3.org/1999/xlink" width="24" height="24" viewBox="0 0 24 24"><g fill="none" stroke="currentColor" stroke-linecap="round" stroke-linejoin="round" stroke-width="1.5" color="currentColor"><ellipse cx="15.5" cy="11" rx="6.5" ry="2"/><path d="M22 15.5c0 1.105-2.91 2-6.5 2s-6.5-.895-6.5-2"/><path d="M22 11v8.8c0 1.215-2.91 2.2-6.5 2.2S9 21.015 9 19.8V11"/><ellipse cx="8.5" cy="4" rx="6.5" ry="2"/><path d="M6 11c-1.892-.23-3.63-.825-4-2m4 7c-1.892-.23-3.63-.825-4-2"/><path d="M6 21c-1.892-.23-3.63-.826-4-2V4m13 2V4"/></g></svg>