<svg xmlns="http://www.w3.org/2000/svg" xmlns:xlink="http://www.w3.org/1999/xlink" width="24" height="24" viewBox="0 0 24 24"><g fill="none" stroke="currentColor" stroke-linecap="round" stroke-linejoin="round" stroke-width="1.5" color="currentColor"><path d="M14 18a8 8 0 1 0 0-16a8 8 0 0 0 0 16M3.1 11a7.179 7.179 0 0 0 9.9 9.9"/><path d="M12 10h3.5M12 10V6.5h2M12 10v3.5h2m1.5-3.5c.828 0 1.5-.784 1.5-1.75s-.672-1.75-1.5-1.75H14m1.5 3.5c.828 0 1.5.784 1.5 1.75s-.672 1.75-1.5 1.75H14m0 0v1m0-8v-1"/></g></svg>