<svg xmlns="http://www.w3.org/2000/svg" xmlns:xlink="http://www.w3.org/1999/xlink" width="24" height="24" viewBox="0 0 24 24"><g fill="none" stroke="currentColor" stroke-linecap="round" stroke-linejoin="round" stroke-width="1.5" color="currentColor"><path d="M5 16H3a1 1 0 0 0-1 1v.5a1 1 0 0 0 1 1h1a1 1 0 0 1 1 1v.5a1 1 0 0 1-1 1H2m6.5-5h1a1 1 0 0 1 1 1v3a1 1 0 0 1-1 1h-1a1 1 0 0 1-1-1v-3a1 1 0 0 1 1-1m5.5 0h1a1 1 0 0 1 1 1v3a1 1 0 0 1-1 1h-1a1 1 0 0 1-1-1v-3a1 1 0 0 1 1-1m8 0v5l-3.5-5v5M17 8A5 5 0 1 0 7 8a5 5 0 0 0 10 0"/><path d="M13.5 8.5L12 8V5.5"/></g></svg>