<svg xmlns="http://www.w3.org/2000/svg" xmlns:xlink="http://www.w3.org/1999/xlink" width="24" height="24" viewBox="0 0 24 24"><g fill="none" stroke="currentColor" stroke-linecap="round" stroke-linejoin="round" stroke-width="1.5" color="currentColor"><path d="M12 19h3m0 0a3 3 0 1 0-6 0a3 3 0 0 0 6 0M12 3v3m0 6h.009M12 9h.009"/><path d="M2.949 11.496C4.922 14.216 8.24 16 12 16s7.078-1.784 9.051-4.504c.709-.976 1.063-1.464.916-2.314s-.783-1.29-2.057-2.17l-5.51-3.81C13.239 2.401 12.659 2 12 2c-.66 0-1.239.4-2.399 1.202L4.09 7.012c-1.274.88-1.91 1.32-2.057 2.17s.207 1.338.916 2.314"/></g></svg>