<svg xmlns="http://www.w3.org/2000/svg" xmlns:xlink="http://www.w3.org/1999/xlink" width="24" height="24" viewBox="0 0 24 24"><g fill="none" stroke="currentColor" stroke-linecap="round" stroke-linejoin="round" stroke-width="1.5" color="currentColor"><path d="M14.556 13.218a2.67 2.67 0 0 1-3.774-3.774l2.359-2.36a2.67 2.67 0 0 1 3.628-.135m-.325-3.167a2.669 2.669 0 1 1 3.774 3.774l-2.359 2.36a2.67 2.67 0 0 1-3.628.135"/><path d="M21 13c0 3.771 0 5.657-1.172 6.828S16.771 21 13 21h-2c-3.771 0-5.657 0-6.828-1.172S3 16.771 3 13v-2c0-3.771 0-5.657 1.172-6.828S7.229 3 11 3"/></g></svg>