<svg xmlns="http://www.w3.org/2000/svg" xmlns:xlink="http://www.w3.org/1999/xlink" width="24" height="24" viewBox="0 0 24 24"><g fill="none" stroke="currentColor" stroke-linecap="round" stroke-linejoin="round" stroke-width="1.5" color="currentColor"><path d="M22 12c0 5.523-4.477 10-10 10S2 17.523 2 12S6.477 2 12 2s10 4.477 10 10"/><path d="M15 14a2 2 0 0 1-2 2h-1c-.932 0-1.398 0-1.765-.152a2 2 0 0 1-1.083-1.083C9 14.398 9 13.932 9 13v-2c0-.932 0-1.398.152-1.765a2 2 0 0 1 1.083-1.083C10.602 8 11.068 8 12 8h1a2 2 0 0 1 2 2"/></g></svg>