<svg xmlns="http://www.w3.org/2000/svg" xmlns:xlink="http://www.w3.org/1999/xlink" width="24" height="24" viewBox="0 0 24 24"><path fill="none" stroke="currentColor" stroke-linecap="round" stroke-linejoin="round" stroke-width="1.5" d="M3.503 10.497c-.455.46-.778 1.33-1.33 3.33c-.117.423-.202.86-.162 1.297c.06.648.28 1.05.72 1.38c.468.353 1.077.44 1.664.44h1.52c1.047 0 2.146-.207 2.847-.978c.799-.877 1.006-1.85.756-2.493m.502-9.92l3.35-1.326c1.024-.405 2.255-.288 3.002.516c.362.39.594.787.665 1.306v2.063c0 1.204-.52 2.393-1.564 3.014c-.598.355-1.177.605-1.945.875M4.005 8.017c1.206-2.15 2.075-3.03 4.01-3.968c.441-.238.81-.374 1.159-.398c1.392-.095 2.141 1.546 2.708 2.808l1.008 2.243c.091.204.162.417.196.637c.157.998.003 1.499-.56 2.15l-.917.907c-.39.386-.806.774-1.332.936c-.15.046-.291.071-.433.077c-.937.036-1.817-.468-2.701-.777c-1.133-.394-1.97-1.03-3.138-2.135c-.622-.985-.593-1.529 0-2.48m13.032-.472c1.178.204 1.839.323 3.008.498c.458.067.8.005 1.184-.253c.595-.399.926-1.16.694-1.835c-.228-.664-.78-1.192-1.878-1.897c-1.153-.801-1.812-1.135-3.008-1.495M2.501 17.01c.094 1.388.578 2.273 2.005 3.985c.646.661 1.117.933 1.742.999c.49.051.967-.187 1.274-.57c.377-.47.53-.857.493-1.425l-.502-2.989" color="currentColor"/></svg>