<svg xmlns="http://www.w3.org/2000/svg" xmlns:xlink="http://www.w3.org/1999/xlink" width="24" height="24" viewBox="0 0 24 24"><g fill="none" stroke="currentColor" stroke-linecap="round" stroke-linejoin="round" stroke-width="1.5" color="currentColor"><ellipse cx="12" cy="5" rx="8" ry="3"/><path d="M7 10.842c.602.18 1.274.33 2 .44M12 15c-4.418 0-8-1.343-8-3m3 5.842c.602.18 1.274.33 2 .44"/><path d="M12 22c-4.418 0-8-1.343-8-3V5m16 0v7m0 7.327l-1.174 1.486C18.2 21.604 17.888 22 17.5 22s-.7-.396-1.326-1.187L15 19.327m2.5 2.586V14"/></g></svg>