<svg xmlns="http://www.w3.org/2000/svg" xmlns:xlink="http://www.w3.org/1999/xlink" width="24" height="24" viewBox="0 0 24 24"><g fill="none" stroke="currentColor" stroke-linecap="round" stroke-linejoin="round" stroke-width="1.5" color="currentColor"><ellipse cx="11" cy="5" rx="8" ry="3"/><path d="M6 10.842c.602.18 1.274.33 2 .44M11 15c-4.418 0-8-1.343-8-3m3 5.842c.602.18 1.274.33 2 .44"/><path d="M11 22c-4.418 0-8-1.343-8-3V5m16 0v7m0 4.674l-1.174-1.487C17.2 14.396 16.888 14 16.5 14s-.7.396-1.326 1.187L14 16.674m2.5-2.587V22"/></g></svg>