<svg xmlns="http://www.w3.org/2000/svg" xmlns:xlink="http://www.w3.org/1999/xlink" width="24" height="24" viewBox="0 0 24 24"><g fill="none" stroke="currentColor" stroke-linecap="round" stroke-linejoin="round" stroke-width="1.5" color="currentColor"><path d="M11 15c-4.418 0-8-1.343-8-3"/><path d="M19 5v6.5M3 5v14c0 1.657 3.582 3 8 3q.252 0 .5-.006"/><ellipse cx="11" cy="5" rx="8" ry="3"/><path d="M7 8v2m0 5v2m10-.333V18m0 0v1.333M17 18h1.333M17 18h-1.333M21 18a4 4 0 1 1-8 0a4 4 0 0 1 8 0"/></g></svg>