<svg xmlns="http://www.w3.org/2000/svg" xmlns:xlink="http://www.w3.org/1999/xlink" width="24" height="24" viewBox="0 0 24 24"><g fill="none" stroke="currentColor" stroke-linecap="round" stroke-linejoin="round" stroke-width="1.5" color="currentColor"><path d="M19.5 17.5a2.5 2.5 0 1 1-5 0a2.5 2.5 0 0 1 5 0m-10 0a2.5 2.5 0 1 1-5 0a2.5 2.5 0 0 1 5 0"/><path d="M14.5 17.5h-5m10 0h.763c.22 0 .33 0 .422-.012a1.5 1.5 0 0 0 1.303-1.302c.012-.093.012-.203.012-.423V13a6.5 6.5 0 0 0-6.5-6.5m-.5 9V7c0-1.414 0-2.121-.44-2.56C14.122 4 13.415 4 12 4H5c-1.414 0-2.121 0-2.56.44C2 4.878 2 5.585 2 7v8c0 .935 0 1.402.201 1.75a1.5 1.5 0 0 0 .549.549c.348.201.815.201 1.75.201"/><path d="m9.327 12l1.486-1.174C11.604 10.2 12 9.888 12 9.5M9.327 7l1.486 1.174C11.604 8.8 12 9.112 12 9.5m0 0H5"/></g></svg>