<svg xmlns="http://www.w3.org/2000/svg" xmlns:xlink="http://www.w3.org/1999/xlink" width="24" height="24" viewBox="0 0 24 24"><path fill="none" stroke="currentColor" stroke-linecap="round" stroke-linejoin="round" stroke-width="1.5" d="M17 10V9c0-3.3 0-4.95-1.025-5.975S13.3 2 10 2S5.05 2 4.025 3.025S3 5.7 3 9v6c0 3.3 0 4.95 1.025 5.975S6.7 22 10 22l1-.001m4.5-5.499V15a2 2 0 1 1 4 0v1.5M16.75 22h1.5c1.173 0 1.76 0 2.163-.31a1.5 1.5 0 0 0 .277-.277c.31-.404.31-.99.31-2.163s0-1.76-.31-2.163a1.5 1.5 0 0 0-.277-.277c-.404-.31-.99-.31-2.163-.31h-1.5c-1.173 0-1.76 0-2.163.31a1.5 1.5 0 0 0-.277.277c-.31.404-.31.99-.31 2.163s0 1.76.31 2.163a1.5 1.5 0 0 0 .277.277c.404.31.99.31 2.163.31M10 19v.01" color="currentColor"/></svg>