<svg xmlns="http://www.w3.org/2000/svg" xmlns:xlink="http://www.w3.org/1999/xlink" width="24" height="24" viewBox="0 0 24 24"><g fill="none" stroke="currentColor" stroke-linecap="round" stroke-linejoin="round" stroke-width="1.5" color="currentColor"><path d="M13.5 12H19m-8.5 0H5m7 1.5a1.5 1.5 0 1 1 0-3a1.5 1.5 0 0 1 0 3"/><path d="M12 22C6.477 22 2 17.523 2 12S6.477 2 12 2s10 4.477 10 10s-4.477 10-10 10"/><path d="M7.01 14C6.49 13.48 5 12.5 5 12s1.51-1.5 2.01-2M17 10c.52.52 2.01 1.5 2.01 2S17.5 13.5 17 14"/></g></svg>