<svg xmlns="http://www.w3.org/2000/svg" xmlns:xlink="http://www.w3.org/1999/xlink" width="24" height="24" viewBox="0 0 24 24"><path fill="none" stroke="currentColor" stroke-linecap="round" stroke-linejoin="round" stroke-width="1.5" d="M2.001 2v20M14 2v20m5.5-13.998c-.844 0-1.818-.083-2.299.75C17 9.1 17 9.568 17 10.502v3c0 .935 0 1.402.201 1.75c.481.834 1.455.75 2.299.75s1.818.084 2.299-.75c.201-.348.201-.815.201-1.75v-3c0-.934 0-1.402-.201-1.75c-.481-.833-1.455-.75-2.299-.75m-12-3c-.844 0-1.818-.083-2.299.75C5 6.1 5 6.568 5 7.502v9c0 .935 0 1.402.201 1.75c.481.834 1.455.75 2.299.75s1.818.084 2.299-.75c.201-.348.201-.815.201-1.75v-9c0-.934 0-1.402-.201-1.75c-.481-.833-1.455-.75-2.299-.75" color="currentColor"/></svg>