<svg xmlns="http://www.w3.org/2000/svg" xmlns:xlink="http://www.w3.org/1999/xlink" width="24" height="24" viewBox="0 0 24 24"><g fill="none" stroke="currentColor" stroke-linecap="round" stroke-linejoin="round" stroke-width="1.5" color="currentColor"><path d="M3.5 13v-.804c0-2.967 0-4.45.469-5.636c.754-1.905 2.348-3.407 4.37-4.118C9.595 2 11.168 2 14.318 2c1.798 0 2.698 0 3.416.253c1.155.406 2.066 1.264 2.497 2.353c.268.677.268 1.525.268 3.22V13"/><path d="M3.5 12a3.333 3.333 0 0 1 3.333-3.333c.666 0 1.451.116 2.098-.057a1.67 1.67 0 0 0 1.179-1.18c.173-.647.057-1.432.057-2.098A3.333 3.333 0 0 1 13.5 2m7 15.22c-.051-1.19-.826-1.22-1.877-1.22c-1.619 0-1.887.406-1.887 2v2c0 1.594.268 2 1.887 2c1.051 0 1.826-.03 1.878-1.22M7.266 19c0 1.657-1.264 3-2.824 3c-.352 0-.528 0-.659-.08c-.313-.193-.282-.582-.282-.92v-4c0-.338-.031-.727.282-.92c.131-.08.307-.08.66-.08c1.559 0 2.823 1.343 2.823 3M12 22c-.888 0-1.331 0-1.607-.293s-.276-.764-.276-1.707v-2c0-.943 0-1.414.276-1.707S11.113 16 12 16s1.33 0 1.606.293s.276.764.276 1.707v2c0 .943 0 1.414-.276 1.707C13.331 22 12.887 22 12 22"/></g></svg>