<svg xmlns="http://www.w3.org/2000/svg" xmlns:xlink="http://www.w3.org/1999/xlink" width="24" height="24" viewBox="0 0 24 24"><path fill="none" stroke="currentColor" stroke-linecap="round" stroke-linejoin="round" stroke-width="1.5" d="M3 3v18M21 3v18m1-15H2m13.5 4c1.105 0 2 .97 2 2.165c0 .283-.05.554-.142.802c-.294.798-3.489.617-3.716 0a2.3 2.3 0 0 1-.142-.802c0-1.196.895-2.165 2-2.165m-7 0c1.105 0 2 .97 2 2.165c0 .283-.05.554-.142.802c-.294.798-3.489.617-3.716 0a2.3 2.3 0 0 1-.142-.802c0-1.196.895-2.165 2-2.165m0 0V6m7 4V6" color="currentColor"/></svg>