<svg xmlns="http://www.w3.org/2000/svg" xmlns:xlink="http://www.w3.org/1999/xlink" width="24" height="24" viewBox="0 0 24 24"><g fill="none" stroke="currentColor" stroke-linecap="round" stroke-linejoin="round" stroke-width="1.5" color="currentColor"><circle cx="12" cy="12" r="6"/><path d="m8 22l2.684-7.648C11.234 12.784 11.51 12 12 12s.765.784 1.316 2.352L16 22M14 4a2 2 0 1 1-4 0a2 2 0 0 1 4 0m5 6a2 2 0 1 1 0-4a2 2 0 0 1 0 4M7 16a2 2 0 1 1-4 0a2 2 0 0 1 4 0m0-8.25a2 2 0 1 1-4 0a2 2 0 0 1 4 0M21 16a2 2 0 1 1-4 0a2 2 0 0 1 4 0"/></g></svg>