<svg xmlns="http://www.w3.org/2000/svg" xmlns:xlink="http://www.w3.org/1999/xlink" width="24" height="24" viewBox="0 0 24 24"><g fill="none" stroke="currentColor" stroke-linecap="round" stroke-linejoin="round" stroke-width="1.5" color="currentColor"><path d="M11 22h-.273c-3.26 0-4.892 0-6.024-.798a4.1 4.1 0 0 1-.855-.805C3 19.331 3 17.797 3 14.727v-2.545c0-2.963 0-4.445.469-5.628c.754-1.903 2.348-3.403 4.37-4.113C9.095 2 10.668 2 13.818 2c1.798 0 2.698 0 3.416.252c1.155.406 2.066 1.263 2.497 2.35C20 5.278 20 6.125 20 7.818V11"/><path d="M3 12a3.333 3.333 0 0 1 3.333-3.333c.666 0 1.451.116 2.098-.057A1.67 1.67 0 0 0 9.61 7.43c.173-.647.057-1.432.057-2.098A3.333 3.333 0 0 1 13 2m3.5 11c-1.426 0-2.35.909-3.442 1.24c-.444.134-.666.202-.756.297s-.116.233-.169.51c-.563 2.969.668 5.713 3.605 6.78c.315.116.473.173.763.173s.447-.057.763-.172c2.936-1.068 4.166-3.812 3.603-6.78c-.053-.278-.08-.417-.169-.511s-.312-.163-.756-.297c-1.093-.331-2.018-1.24-3.443-1.24"/></g></svg>