<svg xmlns="http://www.w3.org/2000/svg" xmlns:xlink="http://www.w3.org/1999/xlink" width="24" height="24" viewBox="0 0 24 24"><g fill="none" stroke="currentColor" stroke-linecap="round" stroke-linejoin="round" stroke-width="1.5" color="currentColor"><path d="m17.277 13.65l.792 1.597a.98.98 0 0 0 .64.476l1.435.24c.918.155 1.134.826.472 1.489L19.5 18.577a.99.99 0 0 0-.234.82l.32 1.394c.252 1.102-.329 1.529-1.296.952l-1.345-.803c-.244-.145-.644-.145-.891 0l-1.346.803c-.963.577-1.548.146-1.296-.952l.32-1.393a.99.99 0 0 0-.234-.821l-1.116-1.125c-.657-.663-.445-1.334.472-1.488l1.436-.24a.98.98 0 0 0 .634-.477l.792-1.597c.432-.867 1.134-.867 1.561 0"/><path d="M20 11.003V7.82c0-1.694 0-2.54-.268-3.217c-.43-1.087-1.342-1.945-2.497-2.35C16.517 2 15.617 2 13.818 2c-3.148 0-4.722 0-5.98.441c-2.02.71-3.615 2.211-4.37 4.114C3 7.74 3 9.221 3 12.185v2.546c0 3.07 0 4.605.848 5.672c.243.305.53.576.855.805c.912.643 2.147.768 4.297.792h1"/><path d="M3 12a3.333 3.333 0 0 1 3.333-3.333c.666 0 1.451.116 2.098-.057A1.67 1.67 0 0 0 9.61 7.43c.173-.647.057-1.432.057-2.098A3.333 3.333 0 0 1 13 2"/></g></svg>