<svg xmlns="http://www.w3.org/2000/svg" xmlns:xlink="http://www.w3.org/1999/xlink" width="24" height="24" viewBox="0 0 24 24"><g fill="none" stroke="currentColor" stroke-linecap="round" stroke-linejoin="round" stroke-width="1.5" color="currentColor"><path d="M12 2h.773c3.26 0 4.892 0 6.024.798c.324.228.612.5.855.805c.848 1.066.848 2.6.848 5.67v2.545c0 2.963 0 4.445-.469 5.628c-.754 1.903-2.348 3.403-4.37 4.113c-1.257.441-2.83.441-5.98.441c-1.798 0-2.698 0-3.416-.252c-1.155-.406-2.066-1.263-2.497-2.35c-.268-.676-.268-1.523-.268-3.216V11.5"/><path d="M20.5 12a3.333 3.333 0 0 1-3.333 3.333c-.666 0-1.451-.116-2.098.057a1.67 1.67 0 0 0-1.179 1.179c-.173.647-.057 1.432-.057 2.098A3.333 3.333 0 0 1 10.5 22M7.706 9.441a1.946 1.946 0 0 0 2.729 0a1.89 1.89 0 0 0 0-2.697L8.729 5.06a1.95 1.95 0 0 0-2.45-.23m.015-2.27a1.946 1.946 0 0 0-2.729 0a1.89 1.89 0 0 0 0 2.697L5.271 6.94c.678.67 1.736.738 2.49.201"/></g></svg>