<svg xmlns="http://www.w3.org/2000/svg" xmlns:xlink="http://www.w3.org/1999/xlink" width="24" height="24" viewBox="0 0 24 24"><g fill="none" stroke="currentColor" stroke-linecap="round" stroke-linejoin="round" stroke-width="1.5" color="currentColor"><path d="M22 12H2m1.5.182c0-2.963 0-4.445.469-5.628c.754-1.903 2.348-3.403 4.37-4.113c1.257-.44 2.83-.44 5.98-.44c1.798 0 2.698 0 3.416.251c1.155.406 2.066 1.263 2.497 2.35c.268.676.268 1.523.268 3.216V12"/><path d="M3.5 12a3.333 3.333 0 0 1 3.333-3.333c.666 0 1.451.116 2.098-.057a1.67 1.67 0 0 0 1.179-1.18c.173-.647.057-1.432.057-2.098A3.333 3.333 0 0 1 13.5 2M6 15v2m4-2v7m4-7v3m4-3v5"/></g></svg>