<svg xmlns="http://www.w3.org/2000/svg" xmlns:xlink="http://www.w3.org/1999/xlink" width="24" height="24" viewBox="0 0 24 24"><g fill="none" stroke="currentColor" stroke-linecap="round" stroke-linejoin="round" stroke-width="1.5" color="currentColor"><path d="M20 12.5V7.818c0-1.693 0-2.54-.268-3.216c-.43-1.087-1.342-1.944-2.497-2.35C16.517 2 15.617 2 13.818 2c-3.148 0-4.722 0-5.98.441c-2.02.71-3.615 2.21-4.37 4.113C3 7.737 3 9.219 3 12.182v2.545c0 3.07 0 4.604.848 5.67q.366.461.855.805C5.81 21.982 7.39 22 10.5 22"/><path d="M3 12a3.333 3.333 0 0 1 3.333-3.333c.666 0 1.451.116 2.098-.057A1.67 1.67 0 0 0 9.61 7.43c.173-.647.057-1.432.057-2.098A3.333 3.333 0 0 1 13 2m1.813 20c-.57-.59-2.813-2.16-2.813-3s2.244-2.41 2.813-3m3.374 6c.57-.59 2.813-2.16 2.813-3s-2.244-2.41-2.812-3"/></g></svg>