<svg xmlns="http://www.w3.org/2000/svg" xmlns:xlink="http://www.w3.org/1999/xlink" width="24" height="24" viewBox="0 0 24 24"><g fill="none" stroke="currentColor" stroke-linecap="round" stroke-linejoin="round" stroke-width="1.5" color="currentColor"><path d="M21 19.083v-3.166c0-1.769 0-2.653-.54-2.873s-1.176.405-2.447 1.656c-.662.651-1.047.791-1.971.791c-.82 0-1.229 0-1.523.194c-.604.396-.519 1.178-.519 1.815s-.085 1.419.519 1.815c.294.194.704.194 1.523.194c.924 0 1.309.14 1.97.791c1.272 1.251 1.908 1.877 2.448 1.656c.54-.22.54-1.104.54-2.873"/><path d="M12 22h-1.273c-3.26 0-4.892 0-6.024-.798a4.1 4.1 0 0 1-.855-.805C3 19.331 3 17.797 3 14.727v-2.545c0-2.963 0-4.445.469-5.628c.754-1.903 2.348-3.403 4.37-4.113C9.095 2 10.668 2 13.818 2c1.798 0 2.698 0 3.416.252c1.155.406 2.066 1.263 2.497 2.35C20 5.278 20 6.125 20 7.818V10"/><path d="M3 12a3.333 3.333 0 0 1 3.333-3.333c.666 0 1.451.116 2.098-.057A1.67 1.67 0 0 0 9.61 7.43c.173-.647.057-1.432.057-2.098A3.333 3.333 0 0 1 13 2"/></g></svg>