<svg xmlns="http://www.w3.org/2000/svg" xmlns:xlink="http://www.w3.org/1999/xlink" width="24" height="24" viewBox="0 0 24 24"><path fill="none" stroke="currentColor" stroke-linecap="round" stroke-linejoin="round" stroke-width="1.5" d="M4 4.5h9V22H4zM6 4l.33-.658a4 4 0 0 1 .235-.441A2 2 0 0 1 8 2.014C8.118 2 8.245 2 8.5 2s.382 0 .5.014a2 2 0 0 1 1.435.887c.065.099.122.213.236.44L11 4m-8 .5h11M3 22h11M13 7.5h5c1.414 0 2.121 0 2.56.461c.44.462.44 1.207.44 2.697c0 1.015 0 1.523-.25 1.918c-.25.396-.693.593-1.58.988l-.887.394c-.592.263-.888.394-1.054.658c-.166.263-.166.602-.166 1.279c0 .993 0 1.49-.293 1.797c-.293.308-.765.308-1.707.308H13z" color="currentColor"/></svg>