<svg xmlns="http://www.w3.org/2000/svg" xmlns:xlink="http://www.w3.org/1999/xlink" width="24" height="24" viewBox="0 0 24 24"><path fill="none" stroke="currentColor" stroke-linecap="round" stroke-linejoin="round" stroke-width="1.5" d="M13 20.5h-1c-4.714 0-7.071 0-8.536-1.465C2 17.572 2 15.215 2 10.5V7.444c0-1.816 0-2.724.38-3.406A3 3 0 0 1 3.538 2.88c.682-.38 1.59-.38 3.406-.38c1.164 0 1.746 0 2.255.191c1.163.436 1.643 1.493 2.168 2.542L12 6.5m-5 0h9.75c2.107 0 3.16 0 3.917.506a3 3 0 0 1 .827.827C22 8.59 22 9.643 22 11.75v.75m0 3l-6 6m6 0l-6-6" color="currentColor"/></svg>