<svg xmlns="http://www.w3.org/2000/svg" xmlns:xlink="http://www.w3.org/1999/xlink" width="24" height="24" viewBox="0 0 24 24"><path fill="none" stroke="currentColor" stroke-linecap="round" stroke-linejoin="round" stroke-width="1.5" d="M7 6.5h9.75c2.107 0 3.16 0 3.917.506a3 3 0 0 1 .827.827C22 8.59 22 9.393 22 11.5m-10-5l-.633-1.267c-.525-1.05-1.005-2.106-2.168-2.542C8.69 2.5 8.108 2.5 6.944 2.5c-1.816 0-2.724 0-3.406.38A3 3 0 0 0 2.38 4.038C2 4.72 2 5.628 2 7.444V10.5c0 4.714 0 7.071 1.464 8.535C4.822 20.394 6.944 20.493 11 20.5h1m10 1l-2.147-2.147m0 0a3.43 3.43 0 0 0 1.004-2.424a3.429 3.429 0 1 0-1.004 2.424" color="currentColor"/></svg>