<svg xmlns="http://www.w3.org/2000/svg" xmlns:xlink="http://www.w3.org/1999/xlink" width="24" height="24" viewBox="0 0 24 24"><g fill="none" stroke="currentColor" stroke-linecap="round" stroke-linejoin="round" stroke-width="1.5" color="currentColor"><path d="M10.078 22C5.468 21.062 2 16.987 2 12.102C2 6.522 6.523 2 12.103 2c4.88 0 8.953 3.46 9.897 8.061m-3.567 3.788c.335-.364.503-.546.681-.652a1.4 1.4 0 0 1 1.397-.02c.18.1.354.277.7.63c.345.353.518.53.616.714c.238.447.23.988-.02 1.427c-.104.182-.282.353-.638.696l-4.231 4.075c-.674.65-1.011.974-1.432 1.139c-.421.164-.885.152-1.81.128l-.127-.003c-.282-.008-.422-.012-.504-.105s-.071-.236-.049-.523l.012-.156c.063-.808.095-1.213.253-1.576c.157-.363.43-.658.974-1.248z"/><path d="M20 5.699c-.935.067-2.132.43-2.962 1.504c-1.5 1.94-2.999 2.103-3.999 1.456c-1.5-.97-.239-2.543-1.999-3.397C9.893 4.705 9.733 3.19 10.372 2M2 11c.763.662 1.83 1.268 3.089 1.268c2.6 0 3.12.497 3.12 2.484s0 1.987.52 3.477c.338.97.456 1.938-.218 2.771"/></g></svg>