<svg xmlns="http://www.w3.org/2000/svg" xmlns:xlink="http://www.w3.org/1999/xlink" width="24" height="24" viewBox="0 0 24 24"><g fill="none" stroke="currentColor" stroke-linecap="round" stroke-linejoin="round" stroke-width="1.5" color="currentColor"><path d="M14.83 18a3 3 0 1 1-5.659 0"/><path d="M11.236 13a3 3 0 1 1-4.472 0"/><path d="M17.236 13a3 3 0 1 1-4.472 0"/><path d="M15 10a3 3 0 1 0 6 0a3 3 0 0 0-6 0m-6 0a3 3 0 1 0 6 0a3 3 0 0 0-6 0m-6 0a3 3 0 1 0 6 0a3 3 0 0 0-6 0"/><path d="M12 7c0-1.667.8-5 4-5"/></g></svg>