<svg xmlns="http://www.w3.org/2000/svg" xmlns:xlink="http://www.w3.org/1999/xlink" width="24" height="24" viewBox="0 0 24 24"><g fill="none" stroke="currentColor" stroke-linecap="round" stroke-linejoin="round" stroke-width="1.5" color="currentColor"><path d="M15 5a3 3 0 1 1-6 0a3 3 0 0 1 6 0M8 19a3 3 0 1 1-6 0a3 3 0 0 1 6 0m14 0a3 3 0 1 1-6 0a3 3 0 0 1 6 0"/><path d="M12 8v4m0 0H8.5c-1.65 0-2.475 0-2.987.44C5 12.878 5 13.585 5 15v1m7-4h3.5c1.65 0 2.475 0 2.987.44C19 12.878 19 13.585 19 15v1"/></g></svg>