<svg xmlns="http://www.w3.org/2000/svg" xmlns:xlink="http://www.w3.org/1999/xlink" width="24" height="24" viewBox="0 0 24 24"><g fill="none" stroke="currentColor" stroke-linecap="round" stroke-linejoin="round" stroke-width="1.5" color="currentColor"><path d="M2 20c0-.943 0-1.414.293-1.707S3.057 18 4 18h1c.943 0 1.414 0 1.707.293S7 19.057 7 20s0 1.414-.293 1.707S5.943 22 5 22H4c-.943 0-1.414 0-1.707-.293S2 20.943 2 20m15 0c0-.943 0-1.414.293-1.707S18.057 18 19 18h1c.943 0 1.414 0 1.707.293S22 19.057 22 20s0 1.414-.293 1.707S20.943 22 20 22h-1c-.943 0-1.414 0-1.707-.293S17 20.943 17 20m2.5-2.5c0-3.31-.648-4-3.75-4H14.5m-10 4c0-3.31.648-4 3.75-4H9.5M12 7v4m-2-9h4c1.815 0 2 .925 2 2.5S15.815 7 14 7h-4c-1.815 0-2-.925-2-2.5S8.185 2 10 2"/><path d="M14.5 13.5a2.5 2.5 0 1 1-5 0a2.5 2.5 0 0 1 5 0"/></g></svg>