<svg xmlns="http://www.w3.org/2000/svg" xmlns:xlink="http://www.w3.org/1999/xlink" width="24" height="24" viewBox="0 0 24 24"><g fill="none" stroke="currentColor" stroke-linecap="round" stroke-linejoin="round" stroke-width="1.5" color="currentColor"><path d="m3.164 11.35l.836.209l.457 4.542c.258 2.566.387 3.849 1.244 4.624s2.147.775 4.726.775h3.146c2.58 0 3.87 0 4.726-.775c.857-.775.986-2.058 1.244-4.625L20 11.56l.836-.21a1.537 1.537 0 0 0 .509-2.75l-8.198-5.737a2 2 0 0 0-2.294 0L2.655 8.6a1.537 1.537 0 0 0 .51 2.75"/><path d="M15 16c-.8.622-1.85 1-3 1s-2.2-.378-3-1"/></g></svg>