<svg xmlns="http://www.w3.org/2000/svg" xmlns:xlink="http://www.w3.org/1999/xlink" width="24" height="24" viewBox="0 0 24 24"><g fill="none" stroke="currentColor" stroke-linecap="round" stroke-linejoin="round" stroke-width="1.5" color="currentColor"><path d="M18 21.187c.889-.202 1.564-.533 2.109-1.078C21.5 18.717 21.5 16.479 21.5 12c0-4.478 0-6.718-1.391-8.109S16.479 2.5 12 2.5c-4.478 0-6.718 0-8.109 1.391S2.5 7.521 2.5 12c0 4.478 0 6.718 1.391 8.109c.545.545 1.22.876 2.109 1.078"/><path d="M12 13.5v7m-3-2l3 3l3-3M2.5 9h19m-13-6.5V9m7-6.5V9"/></g></svg>