<svg xmlns="http://www.w3.org/2000/svg" xmlns:xlink="http://www.w3.org/1999/xlink" width="24" height="24" viewBox="0 0 24 24"><g fill="none" stroke="currentColor" stroke-linecap="round" stroke-linejoin="round" stroke-width="1.5" color="currentColor"><path d="M15 22h-4.273c-3.26 0-4.892 0-6.024-.798a4.1 4.1 0 0 1-.855-.805C3 19.331 3 17.797 3 14.727v-2.545c0-2.963 0-4.445.469-5.628c.754-1.903 2.348-3.403 4.37-4.113C9.095 2 10.668 2 13.818 2c1.798 0 2.698 0 3.416.252c1.155.406 2.066 1.263 2.497 2.35C20 5.278 20 6.125 20 7.818V10"/><path d="M3 12a3.333 3.333 0 0 1 3.333-3.333c.666 0 1.451.116 2.098-.057A1.67 1.67 0 0 0 9.61 7.43c.173-.647.057-1.432.057-2.098A3.333 3.333 0 0 1 13 2m-3 11v2.623c0 .901-.101 1.989-.952 2.289c-.636.224-1.412-.047-1.771-.618C7.108 17.026 7 16.736 7 16.5m5.5 1.5v-5h1.383c.694 0 1.448.34 1.525 1.03a1.7 1.7 0 0 1-.055.633c-.146.54-.703.837-1.262.837H13.5M21 14c-.052-.765-.378-.986-1.5-1h-1a1 1 0 0 0-1 1v3a1 1 0 0 0 1 1H20a1 1 0 0 0 1-1v-.5a.5.5 0 0 0-.5-.5h-1"/></g></svg>