<svg xmlns="http://www.w3.org/2000/svg" xmlns:xlink="http://www.w3.org/1999/xlink" width="24" height="24" viewBox="0 0 24 24"><g fill="none" stroke="currentColor" stroke-linecap="round" stroke-linejoin="round" stroke-width="1.5" color="currentColor"><path d="M3 22V5.99c0-.732 0-1.099.204-1.367c.204-.27.556-.367 1.26-.563l7-1.949c.267-.074.4-.111.536-.111s.27.037.535.111l7 1.949c.705.196 1.057.294 1.261.563S21 5.258 21 5.99V22M2 22h20"/><path d="m3 9l8.566-1.951c.286-.065.582-.065.868 0L21 9m-1.35 3.7L21 13m-5.4-1.2l.9.2m-3.6-.8L12 11l-.9.2m-6.75 1.5L3 13m5.4-1.2l-.9.2M12 7v15"/></g></svg>