<svg xmlns="http://www.w3.org/2000/svg" xmlns:xlink="http://www.w3.org/1999/xlink" width="24" height="24" viewBox="0 0 24 24"><g fill="none" stroke="currentColor" stroke-linecap="round" stroke-linejoin="round" stroke-width="1.5" color="currentColor"><path d="M19.924 12.102c.464-.664-1.336-2.896-1.85-3.29c-.469-.36-1.074-.538-2.284-.894S13.287 7 12 7s-2.581.562-3.79.918s-1.815.535-2.284.894c-.514.394-2.314 2.627-1.85 3.29c.888 1.271 15.065 1.121 15.848 0"/><path d="M9 13a3 3 0 1 0 6 0m-3 7v2m3-3l2 1.5M9 19l-2 1.5M12 7V2"/></g></svg>