<svg xmlns="http://www.w3.org/2000/svg" xmlns:xlink="http://www.w3.org/1999/xlink" width="24" height="24" viewBox="0 0 24 24"><g fill="none" stroke="currentColor" stroke-linecap="round" stroke-linejoin="round" stroke-width="1.5" color="currentColor"><path d="M10.989 6.5s1.832-.066 2.673-1.566c.84-1.5-.15-2.934-.15-2.934s-1.833.066-2.674 1.566c-.84 1.5.15 2.934.15 2.934m.195 0c-1.463 2.099-3.317 6.975.976 9.688c5.365 3.39 5.853 4.359 6.341 5.812"/><path d="M16.032 18.5s-3.572-1.364-1.53-5c0 0 4.082 1.364 1.53 5"/><path d="M16 19s-2.367-3.075-5.5.105c0 0 2.508 3.577 5.5-.105m-6.51-6.06s.398-4.086-3.96-3.936c0 0-.636 4.572 3.96 3.935"/><path d="M9.51 12.5s-.398-4.085 3.96-3.935c0 0 .636 4.572-3.96 3.935"/></g></svg>