<svg xmlns="http://www.w3.org/2000/svg" xmlns:xlink="http://www.w3.org/1999/xlink" width="24" height="24" viewBox="0 0 24 24"><g fill="none" stroke="currentColor" stroke-linecap="round" stroke-linejoin="round" stroke-width="1.5" color="currentColor"><path d="M11.53 22h-1.06c-3.992 0-5.989 0-7.23-1.172C2 19.657 2 17.771 2 14v-4c0-3.771 0-5.657 1.24-6.828C4.481 2 6.478 2 10.47 2h1.06c3.993 0 5.989 0 7.23 1.172C20 4.343 20 6.229 20 10v.5M7 7h8m-8 5h5"/><path d="M18 20.714V22m0-1.286a3.36 3.36 0 0 1-2.774-1.43M18 20.713a3.36 3.36 0 0 0 2.774-1.43M18 14.285c1.157 0 2.176.568 2.774 1.43M18 14.287a3.36 3.36 0 0 0-2.774 1.43M18 14.287V13m4 1.929l-1.226.788M14 20.07l1.226-.788M14 14.93l1.226.788M22 20.07l-1.226-.788m0-3.566a3.12 3.12 0 0 1 0 3.566m-5.548-3.566a3.12 3.12 0 0 0 0 3.566"/></g></svg>