<svg xmlns="http://www.w3.org/2000/svg" xmlns:xlink="http://www.w3.org/1999/xlink" width="24" height="24" viewBox="0 0 24 24"><path fill="none" stroke="currentColor" stroke-linecap="round" stroke-linejoin="round" stroke-width="1.5" d="M10 3h4c3.771 0 5.657 0 6.828 1.172S22 7.229 22 11s0 5.657-1.172 6.828S17.771 19 14 19h-4c-3.771 0-5.657 0-6.828-1.172S2 14.771 2 11s0-5.657 1.172-6.828S6.229 3 10 3M5.5 7h3m-3 3h3m7-3h3m-3 3h3m1.5 9v2M4 19v2m8-18v16m5.992-5h.009M8.5 14h.009" color="currentColor"/></svg>