<svg xmlns="http://www.w3.org/2000/svg" xmlns:xlink="http://www.w3.org/1999/xlink" width="24" height="24" viewBox="0 0 24 24"><path fill="none" stroke="currentColor" stroke-linecap="round" stroke-linejoin="round" stroke-width="1.5" d="M15 17.625c-.074 1.852-1.617 3.424-3.684 3.374c-.481-.012-1.076-.18-2.265-.515c-2.861-.807-5.345-2.164-5.941-5.203C3 14.724 3 14.095 3 12.837v-1.674c0-1.257 0-1.886.11-2.445c.596-3.038 3.08-4.395 5.941-5.202c1.19-.335 1.784-.503 2.265-.515c2.067-.05 3.61 1.522 3.684 3.374M21 12H10m11 0c0-.7-1.994-2.008-2.5-2.5M21 12c0 .7-1.994 2.008-2.5 2.5" color="currentColor"/></svg>