<svg xmlns="http://www.w3.org/2000/svg" xmlns:xlink="http://www.w3.org/1999/xlink" width="24" height="24" viewBox="0 0 24 24"><g fill="none" stroke="currentColor" stroke-linecap="round" stroke-linejoin="round" stroke-width="1.5" color="currentColor"><path d="M15.129 13.747a.906.906 0 0 1-1.258 0c-1.544-1.497-3.613-3.168-2.604-5.595A3.53 3.53 0 0 1 14.5 6c1.378 0 2.688.84 3.233 2.152c1.008 2.424-1.056 4.104-2.604 5.595M14.5 9.5h.009"/><path d="M2.5 12c0-4.478 0-6.718 1.391-8.109S7.521 2.5 12 2.5c4.478 0 6.718 0 8.109 1.391S21.5 7.521 21.5 12c0 4.478 0 6.718-1.391 8.109S16.479 21.5 12 21.5c-4.478 0-6.718 0-8.109-1.391S2.5 16.479 2.5 12M17 21L3 7m7 7l-6 6"/></g></svg>