<svg xmlns="http://www.w3.org/2000/svg" xmlns:xlink="http://www.w3.org/1999/xlink" width="24" height="24" viewBox="0 0 24 24"><g fill="none" stroke="currentColor" stroke-linecap="round" stroke-linejoin="round" stroke-width="1.5" color="currentColor"><path d="M15.129 13.747a.906.906 0 0 1-1.258 0c-1.544-1.497-3.613-3.168-2.604-5.595A3.53 3.53 0 0 1 14.5 6c1.378 0 2.688.84 3.233 2.152c1.008 2.424-1.056 4.104-2.604 5.595M14.5 9.5h.009"/><path d="M22 12c0 5.523-4.477 10-10 10S2 17.523 2 12S6.477 2 12 2s10 4.477 10 10M9 15l-4 4m10 2L3 9"/></g></svg>