<svg xmlns="http://www.w3.org/2000/svg" xmlns:xlink="http://www.w3.org/1999/xlink" width="24" height="24" viewBox="0 0 24 24"><g fill="none" stroke="currentColor" stroke-linecap="round" stroke-linejoin="round" stroke-width="1.5" color="currentColor"><path d="M5 15c0-3.866 3.022-7 6.75-7h.5C15.978 8 19 11.134 19 15s-3.022 7-6.75 7h-.5C8.022 22 5 18.866 5 15"/><path d="M10.5 13.118c.08-.785.607-1.118 1.158-1.118h.666c.55 0 1.077.333 1.157 1.118a4 4 0 0 1 0 .764c-.066.648-.51 1.118-.99 1.118M10.5 16.882c.08.785.607 1.118 1.158 1.118h.666c.55 0 1.077-.333 1.157-1.118a4 4 0 0 0 0-.764c-.066-.648-.51-1.118-.99-1.118m0 0h-.06M13.56 2L11 7.898M18 2l-2.821 6.5M10.44 2L12 5.594M6 2l2.821 6.5"/></g></svg>