<svg xmlns="http://www.w3.org/2000/svg" xmlns:xlink="http://www.w3.org/1999/xlink" width="24" height="24" viewBox="0 0 24 24"><g fill="none" stroke="currentColor" stroke-linecap="round" stroke-linejoin="round" stroke-width="1.5" color="currentColor"><path d="M11.5 3.004q-.845.012-1.67.067c-4.184.278-7.516 3.658-7.79 7.9a20 20 0 0 0 0 2.52c.1 1.545.783 2.976 1.588 4.184c.467.845.159 1.901-.328 2.823c-.35.665-.526.997-.385 1.237c.14.24.455.248 1.084.263c1.245.03 2.084-.322 2.75-.813c.377-.279.566-.418.696-.434s.387.09.899.3c.46.19.995.307 1.485.34c1.425.094 2.914.095 4.342 0c4.183-.278 7.515-3.658 7.789-7.9c.031-.49.044-.992.039-1.49"/><path d="M18 2c-1.267 0-2.088.808-3.06 1.102c-.394.12-.592.18-.672.264s-.103.208-.15.454c-.5 2.638.594 5.078 3.204 6.027c.28.102.42.153.679.153c.257 0 .398-.051.678-.153c2.61-.95 3.704-3.389 3.203-6.027c-.047-.247-.07-.37-.15-.454s-.278-.144-.673-.264C20.088 2.808 19.266 2 18 2M8.5 15h7m-7-5H11"/></g></svg>