<svg xmlns="http://www.w3.org/2000/svg" xmlns:xlink="http://www.w3.org/1999/xlink" width="24" height="24" viewBox="0 0 24 24"><path fill="none" stroke="currentColor" stroke-linecap="round" stroke-linejoin="round" stroke-width="1.5" d="m2 2l20 20M4 11a8 8 0 0 0 8 8m0 0c1.954 0 3.745-.7 5.135-1.865M12 19v3m0 0h3m-3 0H9m11-11c0 1.651-.5 3.186-1.358 4.46M7.008 6.996v4.02a5 5 0 0 0 5 5c1.135 0 2.165-.39 3.004-1.028m1.435-1.728c.358-.69.56-1.413.56-2.244v-4.02c0-2.762-2.238-4.98-5-4.98c-1.868 0-3.47.965-4.327 2.484" color="currentColor"/></svg>