<svg xmlns="http://www.w3.org/2000/svg" xmlns:xlink="http://www.w3.org/1999/xlink" width="24" height="24" viewBox="0 0 24 24"><g fill="none" stroke="currentColor" stroke-linecap="round" stroke-linejoin="round" stroke-width="1.5" color="currentColor"><path d="M4 9c0-3.3 0-4.95 1.172-5.975S8.229 2 12 2s5.657 0 6.828 1.025S20 5.7 20 9v6c0 3.3 0 4.95-1.172 5.975S15.771 22 12 22s-5.657 0-6.828-1.025S4 18.3 4 15z"/><path d="M12.629 14.247a.906.906 0 0 1-1.258 0c-1.544-1.497-3.613-3.168-2.604-5.595A3.53 3.53 0 0 1 12 6.5c1.378 0 2.688.84 3.233 2.152c1.008 2.424-1.056 4.104-2.604 5.595M12 10h.009M11 19h2"/></g></svg>