<svg xmlns="http://www.w3.org/2000/svg" xmlns:xlink="http://www.w3.org/1999/xlink" width="24" height="24" viewBox="0 0 24 24"><g fill="none" stroke="currentColor" stroke-linecap="round" stroke-linejoin="round" stroke-width="1.5" color="currentColor"><path d="M2 12c0-3.537 0-5.306 1.053-6.487q.253-.284.554-.522C4.862 4 6.741 4 10.5 4h3c3.759 0 5.638 0 6.892.99q.302.24.555.523C22 6.693 22 8.463 22 12s0 5.306-1.053 6.487a4.4 4.4 0 0 1-.555.522C19.138 20 17.26 20 13.5 20h-3c-3.759 0-5.638 0-6.893-.99a4.4 4.4 0 0 1-.554-.523C2 17.307 2 15.537 2 12"/><path d="M14.551 12a2.5 2.5 0 1 1-5 0a2.5 2.5 0 0 1 5 0M5 12h1m12 0h1"/></g></svg>