<svg xmlns="http://www.w3.org/2000/svg" xmlns:xlink="http://www.w3.org/1999/xlink" width="24" height="24" viewBox="0 0 24 24"><g fill="none" stroke="currentColor" stroke-linecap="round" stroke-linejoin="round" stroke-width="1.5" color="currentColor"><path d="M18 6c1.3.129 2.175.42 2.828 1.077C22 8.256 22 10.154 22 13.949s0 5.693-1.172 6.872S17.771 22 14 22h-4c-3.771 0-5.657 0-6.828-1.18C2 19.643 2 17.745 2 13.95s0-5.693 1.172-6.872C3.825 6.42 4.7 6.129 6 6m12.508 8h-.01m-12.99 0h-.01"/><path d="M14.5 14a2.5 2.5 0 1 1-5 0a2.5 2.5 0 0 1 5 0m-5-9.5C9.992 3.994 11.3 2 12 2m2.5 2.5C14.008 3.994 12.7 2 12 2m0 0v6"/></g></svg>