<svg xmlns="http://www.w3.org/2000/svg" xmlns:xlink="http://www.w3.org/1999/xlink" width="24" height="24" viewBox="0 0 24 24"><g fill="none" stroke="currentColor" stroke-linecap="round" stroke-linejoin="round" stroke-width="1.5" color="currentColor"><path d="M4.463 4.5c-.318.128-.6.289-.856.49q-.301.24-.554.523C2 6.693 2 8.463 2 12s0 5.306 1.053 6.487q.253.284.554.522C4.862 20 6.741 20 10.5 20h3c2.992 0 4.757 0 6-.5M8 4.016C8.728 4 9.554 4 10.5 4h3c3.759 0 5.638 0 6.892.99q.302.24.555.523C22 6.693 22 8.463 22 12c0 2.313 0 3.87-.294 5m-3.196-5h-.01m-13 0h-.009"/><path d="M13.744 13.742a2.5 2.5 0 1 1-3.535-3.535M2 2l20 20"/></g></svg>