<svg xmlns="http://www.w3.org/2000/svg" xmlns:xlink="http://www.w3.org/1999/xlink" width="24" height="24" viewBox="0 0 24 24"><g fill="none" stroke="currentColor" stroke-linecap="round" stroke-linejoin="round" stroke-width="1.5" color="currentColor"><path d="M14 2.2q-.97-.198-2-.2C6.477 2 2 6.477 2 12s4.477 10 10 10s10-4.477 10-10q-.002-1.03-.2-2"/><path d="M12 9c-1.105 0-2 .672-2 1.5s.895 1.5 2 1.5s2 .672 2 1.5s-.895 1.5-2 1.5m0-6c.87 0 1.612.417 1.886 1M12 9V8m0 7c-.87 0-1.612-.417-1.886-1M12 15v1m4.998-8.998l4.176-4.178m.824 3.656l-.118-3.09c0-.729-.435-1.183-1.228-1.24l-3.124-.147"/></g></svg>