<svg xmlns="http://www.w3.org/2000/svg" xmlns:xlink="http://www.w3.org/1999/xlink" width="24" height="24" viewBox="0 0 24 24"><g fill="none" stroke="currentColor" stroke-linecap="round" stroke-linejoin="round" stroke-width="1.5" color="currentColor"><path d="M21.099 7.845a3.5 3.5 0 1 1-4.943-4.943m4.943 4.943A10 10 0 0 1 22 12c0 5.523-4.477 10-10 10S2 17.523 2 12S6.477 2 12 2c1.483 0 2.89.323 4.155.901M21.1 7.845A10.04 10.04 0 0 0 16.155 2.9M10 8h.006M7 14h.006"/><path d="M16 16a2 2 0 1 1-4 0a2 2 0 0 1 4 0"/></g></svg>