<svg xmlns="http://www.w3.org/2000/svg" xmlns:xlink="http://www.w3.org/1999/xlink" width="24" height="24" viewBox="0 0 24 24"><g fill="none" stroke="currentColor" stroke-linecap="round" stroke-linejoin="round" stroke-width="1.5" color="currentColor"><path d="m11.998 17.997l.004.008M15.995 16l.005.008M8 16l.004.008m7.992 3.987l.004.008m-8-.008l.004.008m3.994 1.99l.004.007m5.476-11.013h.022c2.485 0 4.5 2.01 4.5 4.49a4.49 4.49 0 0 1-2.5 4.023m-2.022-8.513A5.494 5.494 0 0 0 12 5a5.496 5.496 0 0 0-5.48 5.012m10.958.975c-.083.914-.501 1.701-.978 2.431m-9.98-3.406A4.994 4.994 0 0 0 2 14.978a4.99 4.99 0 0 0 2.5 4.321m2.02-9.287q.237-.023.48-.023c1.126 0 2.165.371 3 .998"/><path d="M10 5.138a4.1 4.1 0 0 0-.466-1.253A4.03 4.03 0 0 0 7.136 2a3.18 3.18 0 0 1-1.547 3.138a3.12 3.12 0 0 1-3.465-.216a4.1 4.1 0 0 0 .418 3.04a4.02 4.02 0 0 0 4.594 1.885"/></g></svg>