<svg xmlns="http://www.w3.org/2000/svg" xmlns:xlink="http://www.w3.org/1999/xlink" width="24" height="24" viewBox="0 0 24 24"><path fill="none" stroke="currentColor" stroke-linecap="round" stroke-linejoin="round" stroke-width="1.5" d="M21 19.5a1.5 1.5 0 1 0-3 0a1.5 1.5 0 0 0 3 0m-7.5 0a1.5 1.5 0 1 0-3 0a1.5 1.5 0 0 0 3 0m-7.5 0a1.5 1.5 0 1 0-3 0a1.5 1.5 0 0 0 3 0M21 12a1.5 1.5 0 1 0-3 0a1.5 1.5 0 0 0 3 0m0-7.5a1.5 1.5 0 1 0-3 0a1.5 1.5 0 0 0 3 0M13.5 12a1.5 1.5 0 1 0-3 0a1.5 1.5 0 0 0 3 0m0-7.5a1.5 1.5 0 1 0-3 0a1.5 1.5 0 0 0 3 0M6 12a1.5 1.5 0 1 0-3 0a1.5 1.5 0 0 0 3 0m0-7.5a1.5 1.5 0 1 0-3 0a1.5 1.5 0 0 0 3 0" color="currentColor"/></svg>