<svg xmlns="http://www.w3.org/2000/svg" xmlns:xlink="http://www.w3.org/1999/xlink" width="24" height="24" viewBox="0 0 24 24"><path fill="none" stroke="currentColor" stroke-linecap="round" stroke-linejoin="round" stroke-width="1.5" d="M4.74 17.089c.19 2.391 2.084 4.422 4.525 4.723c.898.11 1.81.188 2.735.188s1.837-.078 2.735-.188c2.44-.301 4.334-2.332 4.524-4.723c.132-1.657.241-3.357.241-5.089s-.11-3.432-.24-5.089c-.19-2.391-2.084-4.422-4.525-4.723C13.837 2.078 12.925 2 12 2s-1.837.078-2.735.188c-2.44.3-4.335 2.332-4.524 4.723C4.609 8.568 4.5 10.268 4.5 12s.109 3.432.24 5.089M12 2v9m7 0H5m7 0l6-7" color="currentColor"/></svg>