<svg xmlns="http://www.w3.org/2000/svg" xmlns:xlink="http://www.w3.org/1999/xlink" width="24" height="24" viewBox="0 0 24 24"><g fill="none" stroke="currentColor" stroke-linecap="round" stroke-linejoin="round" stroke-width="1.5" color="currentColor"><path d="M17 15c2.412-.392 4-1.059 4-1.816C21 11.978 16.97 11 12 11s-9 .978-9 2.184C3 13.94 4.588 14.608 7 15"/><path d="M21 13c0-6.075-4.03-11-9-11S3 6.925 3 13"/><path d="M18 4.765C17.535 5.504 16.671 6 15.682 6C14.201 6 13 4.886 13 3.512c0-.569.206-1.093.552-1.512M10 11.5c-.005 3.45-.1 8.675-2 10.5m6-10.5c.005 3.45.1 8.675 2 10.5M9.008 7h-.01"/></g></svg>