<svg xmlns="http://www.w3.org/2000/svg" xmlns:xlink="http://www.w3.org/1999/xlink" width="24" height="24" viewBox="0 0 24 24"><path fill="none" stroke="currentColor" stroke-linecap="round" stroke-linejoin="round" stroke-width="1.5" d="M15.935 12.626c-.254 1.211-1.608 2.082-4.315 3.822c-2.945 1.893-4.417 2.84-5.61 2.475a2.8 2.8 0 0 1-1.088-.635C4 17.418 4 15.612 4 12s0-5.418.922-6.288a2.8 2.8 0 0 1 1.089-.635c1.192-.365 2.664.582 5.609 2.475c2.707 1.74 4.06 2.61 4.315 3.822c.087.412.087.84 0 1.252M20 5v14" color="currentColor"/></svg>