<svg xmlns="http://www.w3.org/2000/svg" xmlns:xlink="http://www.w3.org/1999/xlink" width="24" height="24" viewBox="0 0 24 24"><g fill="none" stroke="currentColor" stroke-linecap="round" stroke-linejoin="round" stroke-width="1.5" color="currentColor"><path d="M17 2v2m-5-2v2M7 2v2M3.5 16V9c0-2.828 0-4.243.879-5.121C5.257 3 6.672 3 9.5 3h5c2.828 0 4.243 0 5.121.879c.879.878.879 2.293.879 5.121v3c0 4.714 0 7.071-1.465 8.535C17.572 22 15.215 22 10.5 22h-1c-2.828 0-4.243 0-5.121-.879C3.5 20.243 3.5 18.828 3.5 16M8 15h4m-4-5h8"/><path d="M20.5 14.5A2.5 2.5 0 0 1 18 17c-.5 0-1.088-.087-1.573.043a1.25 1.25 0 0 0-.884.884c-.13.485-.043 1.074-.043 1.573A2.5 2.5 0 0 1 13 22"/></g></svg>