<svg xmlns="http://www.w3.org/2000/svg" xmlns:xlink="http://www.w3.org/1999/xlink" width="24" height="24" viewBox="0 0 24 24"><g fill="none" stroke="currentColor" stroke-linecap="round" stroke-linejoin="round" stroke-width="1.5" color="currentColor"><path d="M13.5 5.297a6.85 6.85 0 0 0-8.842 6.194c-.073 1.396.011 2.882-1.236 3.817a2.3 2.3 0 0 0-.922 1.845C2.5 18.15 3.282 19 4.3 19h14.4c1.018 0 1.8-.85 1.8-1.847c0-.726-.342-1.41-.922-1.845l-.078-.06"/><path d="M10 3.125C10 3.953 10.672 5 11.5 5S13 3.953 13 3.125S12.328 2 11.5 2S10 2.297 10 3.125M14.5 19a3 3 0 1 1-6 0m7.05-11.95l4.9 4.9M21.5 9.5a3.5 3.5 0 1 0-7 0a3.5 3.5 0 0 0 7 0"/></g></svg>