<svg xmlns="http://www.w3.org/2000/svg" xmlns:xlink="http://www.w3.org/1999/xlink" width="24" height="24" viewBox="0 0 24 24"><g fill="none" stroke="currentColor" stroke-linecap="round" stroke-linejoin="round" stroke-width="1.5" color="currentColor"><path d="M21.96 10.97c.053.83.053 1.69 0 2.52c-.274 4.243-3.606 7.623-7.79 7.9a33 33 0 0 1-4.34 0a4.9 4.9 0 0 1-1.486-.339c-.512-.21-.768-.316-.899-.3c-.13.016-.319.155-.696.434c-.666.49-1.505.844-2.75.813c-.629-.015-.943-.023-1.084-.263s.034-.572.385-1.237c.487-.922.795-1.978.328-2.823c-.805-1.208-1.488-2.639-1.588-4.184a20 20 0 0 1 0-2.52c.274-4.243 3.606-7.622 7.79-7.9c1.202-.08 1.451-.092 2.67-.037"/><path d="M22 5.5a3.5 3.5 0 1 1-7 0a3.5 3.5 0 0 1 7 0"/></g></svg>