<svg xmlns="http://www.w3.org/2000/svg" xmlns:xlink="http://www.w3.org/1999/xlink" width="24" height="24" viewBox="0 0 24 24"><path fill="none" stroke="currentColor" stroke-linecap="round" stroke-linejoin="round" stroke-width="1.5" d="M8 6h1.78c2.017 0 3.025 0 3.534.241a2.5 2.5 0 0 1 1.211 3.276c-.229.515-.994 1.17-2.525 2.483c-1.53 1.312-2.296 1.968-2.525 2.483a2.5 2.5 0 0 0 1.211 3.276c.51.241 1.517.241 3.534.241H16M2 6a3 3 0 1 0 6 0a3 3 0 0 0-6 0m14 12a3 3 0 1 0 6 0a3 3 0 0 0-6 0" color="currentColor"/></svg>