<svg xmlns="http://www.w3.org/2000/svg" xmlns:xlink="http://www.w3.org/1999/xlink" width="24" height="24" viewBox="0 0 24 24"><path fill="none" stroke="currentColor" stroke-linecap="round" stroke-linejoin="round" stroke-width="1.5" d="M5.517 3a1.5 1.5 0 1 0 0 3a1.5 1.5 0 0 0 0-3m13 0a1.5 1.5 0 1 0 0 3a1.5 1.5 0 0 0 0-3m-8.5 3h.5m3 0h.5m6.5 8v3c0 .465 0 .697-.039.89a2 2 0 0 1-1.571 1.572c-.193.038-.426.038-.89.038M3.517 14v3c0 .465 0 .697.038.89a2 2 0 0 0 1.571 1.572c.194.038.426.038.89.038m4.501-2.498q.225-.002.5-.002h2q.275 0 .5.002m-3 0c-.62.01-.972.055-1.208.29c-.292.294-.292.765-.292 1.708s0 1.414.292 1.707c.293.293.765.293 1.708.293h2c.942 0 1.414 0 1.707-.293s.293-.764.293-1.707s0-1.414-.293-1.707c-.236-.236-.588-.282-1.207-.29m-3 0V15.5a1.5 1.5 0 0 1 3 0v1.502m-8.019-5.497h-1.77c-.205 0-.412-.03-.6-.115c-.615-.277-.927-.643-1.072-.872a.38.38 0 0 1 .019-.42c.712-.993 2.363-1.593 3.423-1.593m.004 3h1.77c.205 0 .412-.03.6-.115c.615-.277.927-.643 1.072-.872a.38.38 0 0 0-.019-.42c-.712-.993-2.363-1.593-3.423-1.593m12.997 3h-1.77c-.206 0-.413-.03-.601-.115c-.615-.277-.927-.643-1.072-.872a.38.38 0 0 1 .019-.42c.712-.993 2.363-1.593 3.424-1.593m.003 3h1.77c.205 0 .412-.03.6-.115c.615-.277.927-.643 1.072-.872a.38.38 0 0 0-.019-.42c-.712-.993-2.363-1.593-3.424-1.593" color="currentColor"/></svg>