<svg xmlns="http://www.w3.org/2000/svg" xmlns:xlink="http://www.w3.org/1999/xlink" width="24" height="24" viewBox="0 0 24 24"><g fill="none" stroke="currentColor" stroke-linecap="round" stroke-linejoin="round" stroke-width="1.5" color="currentColor"><path d="M12 2c-4.418 0-8 3.618-8 8.08c0 2.553 1 4.537 3 6.309c1.41 1.25 3.117 3.324 4.143 5.006c.492.807 1.187.807 1.714 0c1.077-1.648 2.733-3.757 4.143-5.006c2-1.772 3-3.756 3-6.308C20 5.618 16.418 2 12 2"/><path d="M12 14a4 4 0 1 0-.479-7.972a2.5 2.5 0 0 1-3.493 3.493A4 4 0 0 0 12 14"/></g></svg>