<svg xmlns="http://www.w3.org/2000/svg" xmlns:xlink="http://www.w3.org/1999/xlink" width="24" height="24" viewBox="0 0 24 24"><path fill="none" stroke="currentColor" stroke-linecap="round" stroke-linejoin="round" stroke-width="1.5" d="M17.854 12.16c-.383.45-1.09.454-1.537.007l-4.484-4.483c-.447-.447-.444-1.155.007-1.538l1.231-1.047a6.5 6.5 0 0 1 3.133-1.448l.725-.122c.685-.116 1.405.123 1.919.637l.986.987c.514.513.753 1.233.637 1.918l-.122.725a6.5 6.5 0 0 1-1.448 3.133zM19.5 4.5l2-2m-19 19l2-2m1.646-7.66c.383-.45 1.09-.454 1.538-.007l4.483 4.484c.447.446.444 1.154-.007 1.537l-1.231 1.047a6.5 6.5 0 0 1-3.133 1.448l-.725.122c-.685.116-1.405-.123-1.918-.637l-.987-.986c-.514-.514-.753-1.234-.637-1.919l.122-.725a6.5 6.5 0 0 1 1.448-3.133zm2.354.66l2-2m1 5l2-2" color="currentColor"/></svg>