<svg xmlns="http://www.w3.org/2000/svg" xmlns:xlink="http://www.w3.org/1999/xlink" width="24" height="24" viewBox="0 0 24 24"><path fill="none" stroke="currentColor" stroke-linecap="round" stroke-linejoin="round" stroke-width="1.5" d="M12 18v4m-2-4l-5 4m9-4l5 4M2.5 12c0 2.828 0 4.243.879 5.121C4.257 18 5.672 18 8.5 18h7c2.828 0 4.243 0 5.121-.879c.879-.878.879-2.293.879-5.121V8c0-2.828 0-4.243-.879-5.121C19.743 2 18.328 2 15.5 2h-7c-2.828 0-4.243 0-5.121.879C2.5 3.757 2.5 5.172 2.5 8zM8 13v-3m4 3V7m4 6v-2" color="currentColor"/></svg>