<svg xmlns="http://www.w3.org/2000/svg" xmlns:xlink="http://www.w3.org/1999/xlink" width="24" height="24" viewBox="0 0 24 24"><path fill="none" stroke="currentColor" stroke-linecap="round" stroke-linejoin="round" stroke-width="1.5" d="M2.5 11.5c0 2.828 0 4.243.879 5.121c.878.879 2.293.879 5.121.879h7c2.828 0 4.243 0 5.121-.879c.879-.878.879-2.293.879-5.121v-2c0-2.828 0-4.243-.879-5.121C19.743 3.5 18.328 3.5 15.5 3.5h-7c-2.828 0-4.243 0-5.121.879C2.5 5.257 2.5 6.672 2.5 9.5zM12 2v1.5M7 22l5-3l5 3m-5-4.222V22" color="currentColor"/></svg>