<svg xmlns="http://www.w3.org/2000/svg" xmlns:xlink="http://www.w3.org/1999/xlink" width="24" height="24" viewBox="0 0 24 24"><path fill="none" stroke="currentColor" stroke-linecap="round" stroke-linejoin="round" stroke-width="1.5" d="M2.5 11c0 2.828 0 4.243.879 5.121C4.257 17 5.672 17 8.5 17h7c2.828 0 4.243 0 5.121-.879c.879-.878.879-2.293.879-5.121V8c0-2.828 0-4.243-.879-5.121C19.743 2 18.328 2 15.5 2h-7c-2.828 0-4.243 0-5.121.879C2.5 3.757 2.5 5.172 2.5 8zM7 22l5-3l5 3m-5-5v5" color="currentColor"/></svg>