<svg xmlns="http://www.w3.org/2000/svg" xmlns:xlink="http://www.w3.org/1999/xlink" width="24" height="24" viewBox="0 0 24 24"><g fill="none" stroke="currentColor" stroke-linecap="round" stroke-linejoin="round" stroke-width="1.5" color="currentColor"><path d="M19 12a4 4 0 1 1-8 0a4 4 0 0 1 8 0m3 0h-3m-8 0H2m4 4h.008"/><path d="M14 4h-4C6.229 4 4.343 4 3.172 5.172S2 8.229 2 12s0 5.657 1.172 6.828S6.229 20 10 20h4c3.771 0 5.657 0 6.828-1.172S22 15.771 22 12s0-5.657-1.172-6.828S17.771 4 14 4"/></g></svg>