<svg xmlns="http://www.w3.org/2000/svg" xmlns:xlink="http://www.w3.org/1999/xlink" width="24" height="24" viewBox="0 0 24 24"><g fill="none" stroke="currentColor" stroke-linecap="round" stroke-linejoin="round" stroke-width="1.5" color="currentColor"><path d="M11.5 21c-4.478 0-6.718 0-8.109-1.391S2 15.979 2 11.5c0-4.478 0-6.718 1.391-8.109S7.021 2 11.5 2c4.478 0 6.718 0 8.109 1.391S21 7.021 21 11.5M2 7h19m-11 9h1m-5 0h1m3-4h4m-8 0h1"/><path d="M20.4 20.4L22 22m-.8-4.4a3.6 3.6 0 1 0-7.2 0a3.6 3.6 0 0 0 7.2 0"/></g></svg>