<svg xmlns="http://www.w3.org/2000/svg" xmlns:xlink="http://www.w3.org/1999/xlink" width="24" height="24" viewBox="0 0 24 24"><g fill="none" stroke="currentColor" stroke-linecap="round" stroke-linejoin="round" stroke-width="1.5" color="currentColor"><path d="M3 3h18"/><circle cx="15.5" cy="10.5" r="3.5"/><circle cx="8.5" cy="17.5" r="3.5"/><path d="M5 17.5V3m7 14.5v-7M15.5 7V3M19 17v-6.5m0 6.5c-.714 0-1.097.2-1.383.896c-.373.908-.826 2.254-.511 2.807c.168.297.554.297 1.325.297h1.137c.772 0 1.158 0 1.326-.297c.315-.553-.138-1.9-.51-2.807C20.11 17.232 19.741 17 19 17"/></g></svg>