<svg xmlns="http://www.w3.org/2000/svg" xmlns:xlink="http://www.w3.org/1999/xlink" width="24" height="24" viewBox="0 0 24 24"><g fill="none" stroke="currentColor" stroke-linecap="round" stroke-linejoin="round" stroke-width="1.5" color="currentColor"><path d="M12 2a7.5 7.5 0 0 0-4.8 13.263C8.19 16.089 9 17.21 9 18.5h6c0-1.29.81-2.411 1.8-3.238A7.5 7.5 0 0 0 12 2m3 16.5H9v2a1.5 1.5 0 0 0 1.5 1.5h3a1.5 1.5 0 0 0 1.5-1.5z"/><path d="M10 8c0-1.013.895-2 2-2s2 .82 2 1.833c0 .365-.116.705-.317.991C13.085 9.676 12 10.488 12 11.5m-.008 2.5h.009"/></g></svg>