<svg xmlns="http://www.w3.org/2000/svg" xmlns:xlink="http://www.w3.org/1999/xlink" width="24" height="24" viewBox="0 0 24 24"><g fill="none" stroke="currentColor" stroke-linecap="round" stroke-linejoin="round" stroke-width="1.5" color="currentColor"><path d="M20.5 14v-3.5c0-2.335 0-3.502-.472-4.386a4 4 0 0 0-1.642-1.642C17.502 4 16.335 4 14 4a2 2 0 1 0-4 0c-2.335 0-3.502 0-4.386.472a4 4 0 0 0-1.642 1.642C3.5 6.998 3.5 8.165 3.5 10.5V14c0 3.771 0 5.657 1.172 6.828S7.729 22 11.5 22h1c3.771 0 5.657 0 6.828-1.172S20.5 17.771 20.5 14m-14-4h4"/><path d="M13.5 11s.5 0 1 1c0 0 1.588-2.5 3-3m-11 7h4m3 1s.5 0 1 1c0 0 1.588-2.5 3-3"/></g></svg>