<svg xmlns="http://www.w3.org/2000/svg" xmlns:xlink="http://www.w3.org/1999/xlink" width="24" height="24" viewBox="0 0 24 24"><g fill="none" stroke="currentColor" stroke-linecap="round" stroke-linejoin="round" stroke-width="1.5" color="currentColor"><path d="M3.195 6.024C5.31 3.675 9.44 2.789 10.93 3.042c.164 1.477 1.056 5.231 3.004 6.841s7.62 1.617 8.025 3.769c.244 1.297-.627 2.348-2.17 2.348H4.945c-1.145 0-1.718 0-2.294-.543c-.576-.542-.598-.896-.642-1.603c-.086-1.382.44-2.586.82-3.26c.732-1.304.668-3.094.366-4.57M12.5 8.5l-1 .5m0-3l-1.5.5"/><circle cx="4" cy="19" r="2"/><circle cx="12" cy="19" r="2"/><circle cx="20" cy="19" r="2"/><path d="M6 16c0-2.564-1.207-4.802-3-6m3 9h4m4 0h4"/></g></svg>