<svg xmlns="http://www.w3.org/2000/svg" xmlns:xlink="http://www.w3.org/1999/xlink" width="24" height="24" viewBox="0 0 24 24"><path fill="none" stroke="currentColor" stroke-linecap="round" stroke-linejoin="round" stroke-width="1.5" d="m7.624 10.46l-.444.765a1.763 1.763 0 0 0 .65 2.414m0 0l.77.442m-.77-.442a.89.89 0 0 0-1.212.323c-.49.845-.2 1.926.65 2.414m0 0l.768.442m-.768-.442a.753.753 0 0 0-1.08.385l-.109.288a1.76 1.76 0 0 0 .775 2.15l1.132.65c1.671.96 2.507 1.44 3.32 1.569c.47.074 1.187-.03 1.723-.136a1.96 1.96 0 0 1 1.357.203l.895.515M9.162 11.344L4.165 8.472a1.32 1.32 0 0 1-.488-1.81a1.335 1.335 0 0 1 1.82-.485l7.66 4.4l-.531-1.957a1.487 1.487 0 0 1 1.221-1.859a1.51 1.51 0 0 1 1.608.891l1.937 4.785c.371.916 1.248 1.8 2.107 2.294M8.863 4.966c.397.395 2.124.281 2.76.202m-2.76-.202c-.397-.396-.408-2.328-.328-2.963m.328 2.963c1.021-1.769 5.081-4.59 9.11-1.769c1.946 1.363 2.22 2.222 2.529 2.798" color="currentColor"/></svg>