<svg xmlns="http://www.w3.org/2000/svg" xmlns:xlink="http://www.w3.org/1999/xlink" width="24" height="24" viewBox="0 0 24 24"><path fill="none" stroke="currentColor" stroke-linecap="round" stroke-linejoin="round" stroke-width="1.5" d="M17.5 22h-11c-1.875 0-2.812 0-3.47-.53a2.7 2.7 0 0 1-.553-.615C2 20.125 2 19.083 2 17s0-3.125.477-3.855q.233-.356.554-.614C3.688 12 4.625 12 6.5 12h11c1.875 0 2.812 0 3.47.53c.212.172.398.38.553.615C22 13.875 22 14.917 22 17s0 3.125-.477 3.855q-.234.356-.553.614C20.312 22 19.375 22 17.5 22m-5-13h.009M17 3.952C15.848 2.746 14.257 2 12.5 2S9.152 2.746 8 3.952m2.25 2.356a3.1 3.1 0 0 1 2.25-.976c.879 0 1.674.373 2.25.976M18 17h.009M14 17h.009M6 17h4" color="currentColor"/></svg>