<svg xmlns="http://www.w3.org/2000/svg" xmlns:xlink="http://www.w3.org/1999/xlink" width="24" height="24" viewBox="0 0 24 24"><g fill="none" stroke="currentColor" stroke-linecap="round" stroke-linejoin="round" stroke-width="1.5" color="currentColor"><path d="M18.719 10.715a1.044 1.044 0 0 1-1.437 0c-1.765-1.683-4.13-3.564-2.977-6.294C14.929 2.945 16.425 2 18 2s3.072.945 3.695 2.42c1.152 2.728-1.207 4.617-2.977 6.295M18 6h.009"/><circle cx="5" cy="19" r="3"/><path d="M11 7H9.5C7.567 7 6 8.343 6 10s1.567 3 3.5 3h3c1.933 0 3.5 1.343 3.5 3s-1.567 3-3.5 3H11"/></g></svg>