<svg xmlns="http://www.w3.org/2000/svg" xmlns:xlink="http://www.w3.org/1999/xlink" width="24" height="24" viewBox="0 0 24 24"><path fill="none" stroke="currentColor" stroke-linecap="round" stroke-linejoin="round" stroke-width="1.5" d="M17.5 19v3m-11-3v3M4 10c0-3.771 0-5.657 1.172-6.828S8.229 2 12 2s5.657 0 6.828 1.172S20 6.229 20 10v3c0 2.828 0 4.243-.879 5.121C18.243 19 16.828 19 14 19h-4c-2.828 0-4.243 0-5.121-.879C4 17.243 4 15.828 4 13zm3 6h1m8 0h1M2 8v2m20-2v2M4.5 5h15m-15 8h15M12 13V5" color="currentColor"/></svg>