<svg xmlns="http://www.w3.org/2000/svg" xmlns:xlink="http://www.w3.org/1999/xlink" width="24" height="24" viewBox="0 0 24 24"><g fill="none" stroke="currentColor" stroke-linecap="round" stroke-linejoin="round" stroke-width="1.5" color="currentColor"><path d="M15 4H9C5.7 4 4.05 4 3.025 5.025S2 7.7 2 11v2c0 3.3 0 4.95 1.025 5.975S5.7 20 9 20h6c3.3 0 4.95 0 5.975-1.025S22 16.3 22 13v-2c0-3.3 0-4.95-1.025-5.975S18.3 4 15 4"/><path d="M21.5 8h-10l1 1.5h9zM10 11.5a2.5 2.5 0 1 1-5 0a2.5 2.5 0 0 1 5 0"/></g></svg>