<svg xmlns="http://www.w3.org/2000/svg" xmlns:xlink="http://www.w3.org/1999/xlink" width="24" height="24" viewBox="0 0 24 24"><g fill="none" stroke="currentColor" stroke-linecap="round" stroke-linejoin="round" stroke-width="1.5" color="currentColor"><path d="M17.5 17.5L22 22m-2-11a9 9 0 1 0-18 0a9 9 0 0 0 18 0"/><path d="M9.492 7.5c-.716.043-1.172.163-1.5.491c-.33.329-.449.785-.492 1.501M12.508 7.5c.716.043 1.172.163 1.5.491c.33.329.449.785.492 1.501m-.008 3.13c-.049.651-.173 1.076-.483 1.387c-.329.328-.785.448-1.501.491m-3.016 0c-.716-.043-1.172-.163-1.5-.491c-.311-.311-.435-.736-.484-1.388"/></g></svg>