<svg xmlns="http://www.w3.org/2000/svg" xmlns:xlink="http://www.w3.org/1999/xlink" width="24" height="24" viewBox="0 0 24 24"><path fill="none" stroke="currentColor" stroke-linecap="round" stroke-linejoin="round" stroke-width="1.5" d="M8.984 2c-2.807.064-4.446.331-5.566 1.447C2.438 4.424 2.11 5.797 2 8m13.017-6c2.806.064 4.445.331 5.566 1.447c.98.977 1.308 2.35 1.417 4.553m-6.983 14c2.806-.064 4.445-.331 5.566-1.447c.98-.977 1.308-2.35 1.417-4.553M8.984 22c-2.807-.064-4.446-.331-5.566-1.447C2.438 19.576 2.11 18.203 2 16m13-1l2 2m-1-5.5a4.5 4.5 0 1 0-9 0a4.5 4.5 0 0 0 9 0" color="currentColor"/></svg>