<svg xmlns="http://www.w3.org/2000/svg" xmlns:xlink="http://www.w3.org/1999/xlink" width="24" height="24" viewBox="0 0 24 24"><path fill="none" stroke="currentColor" stroke-linecap="round" stroke-linejoin="round" stroke-width="1.5" d="M2 11c2.332-2.442 5.643-2.557 8 0M8.495 4.5c0 1.38-1.12 2.5-2.503 2.5a2.5 2.5 0 0 1-2.504-2.5c0-1.38 1.12-2.5 2.504-2.5a2.5 2.5 0 0 1 2.503 2.5M14 22c2.332-2.442 5.643-2.557 8 0m-1.505-6.5c0 1.38-1.12 2.5-2.504 2.5a2.5 2.5 0 0 1-2.503-2.5c0-1.38 1.12-2.5 2.503-2.5a2.5 2.5 0 0 1 2.504 2.5M3 14c0 3.87 3.13 7 7 7l-1-2m6-16h6m-6 3h6m-6 3h3.5" color="currentColor"/></svg>