<svg xmlns="http://www.w3.org/2000/svg" xmlns:xlink="http://www.w3.org/1999/xlink" width="24" height="24" viewBox="0 0 24 24"><g fill="none" stroke="currentColor" stroke-linecap="round" stroke-linejoin="round" stroke-width="1.5" color="currentColor"><path d="m8 16l8.72-.727c2.729-.227 3.341-.823 3.643-3.544L21 6M6 6h1.5M22 6h-3m-8.5 1s1 0 2 2c0 0 3.177-5 6-6"/><circle cx="6" cy="20" r="2"/><circle cx="17" cy="20" r="2"/><path d="M8 20h7M2 2h.966c.945 0 1.768.625 1.997 1.515L7.94 15.076a1.96 1.96 0 0 1-.35 1.686L6.631 18"/></g></svg>