<svg xmlns="http://www.w3.org/2000/svg" xmlns:xlink="http://www.w3.org/1999/xlink" width="24" height="24" viewBox="0 0 24 24"><path fill="none" stroke="currentColor" stroke-linecap="round" stroke-linejoin="round" stroke-width="1.5" d="M13 22h-2.92c-2.333 0-3.5 0-4.312-.725c-.812-.724-1.017-1.949-1.427-4.397L3.178 9.936c-.19-1.13-.284-1.694.007-2.065c.292-.371.83-.371 1.906-.371h13.818c1.076 0 1.614 0 1.906.37c.29.372.196.936.007 2.066L20.56 11.5m-4.56 8c.491.506 1.8 2.5 2.5 2.5m2.5-2.5c-.491.506-1.8 2.5-2.5 2.5m0 0v-8M7 7.5V7a5 5 0 0 1 10 0v.5m-12.5 10H13" color="currentColor"/></svg>