<svg xmlns="http://www.w3.org/2000/svg" xmlns:xlink="http://www.w3.org/1999/xlink" width="24" height="24" viewBox="0 0 24 24"><g fill="none" stroke="currentColor" stroke-linecap="round" stroke-linejoin="round" stroke-width="1.5" color="currentColor"><path d="M7 8V6.364C7 3.954 9.015 2 11.5 2S16 3.954 16 6.364V8"/><path d="M19.5 11.502C18.48 8.48 17.204 7.5 13.43 7.5H9.65c-3.905 0-5.415.988-6.495 4.74c-.973 3.377-1.46 5.067-.95 6.376a4.35 4.35 0 0 0 1.588 2C5.035 21.474 7.968 21.944 11 22m3-7l3.5 3.5m0 0L21 22m-3.5-3.5L14 22m3.5-3.5L21 15m-10.5-4h2"/></g></svg>