<svg xmlns="http://www.w3.org/2000/svg" xmlns:xlink="http://www.w3.org/1999/xlink" width="24" height="24" viewBox="0 0 24 24"><path fill="none" stroke="currentColor" stroke-linecap="round" stroke-linejoin="round" stroke-width="1.5" d="M11.5 8h8.696c.625 0 .937 0 1.166.1c1.012.447.56 1.57.39 2.378a.48.48 0 0 1-.27.335c-.537.255-.844.678-1.015 1.187M7.5 8H3.804c-.625 0-.937 0-1.166.1c-1.012.447-.56 1.57-.39 2.378a.49.49 0 0 0 .27.335a1.93 1.93 0 0 1 1.09 1.4l.593 3.375c.26 1.485.35 3.606 1.65 4.652c.955.76 2.33.76 5.081.76h.568m2.5-2s1 0 2 2c0 0 3.177-5 6-6M6.5 11L10 3m5 0l2.5 5" color="currentColor"/></svg>