<svg xmlns="http://www.w3.org/2000/svg" xmlns:xlink="http://www.w3.org/1999/xlink" width="24" height="24" viewBox="0 0 24 24"><path fill="none" stroke="currentColor" stroke-linecap="round" stroke-linejoin="round" stroke-width="1.5" d="M13 21h-2.068c-2.75 0-4.126 0-5.08-.76c-1.301-1.046-1.39-3.167-1.651-4.652l-.593-3.375a1.93 1.93 0 0 0-1.09-1.4a.48.48 0 0 1-.27-.335c-.17-.807-.622-1.931.39-2.377C2.867 8 3.18 8 3.804 8H7.5m4 0h8.696c.625 0 .937 0 1.166.1c1.012.447.56 1.57.39 2.378a.48.48 0 0 1-.27.335a2 2 0 0 0-.802.687m-5.68 6h7M18.5 21v-7m-12-3L10 3m5 0l2.5 5" color="currentColor"/></svg>