<svg xmlns="http://www.w3.org/2000/svg" xmlns:xlink="http://www.w3.org/1999/xlink" width="24" height="24" viewBox="0 0 24 24"><path fill="none" stroke="currentColor" stroke-linecap="round" stroke-linejoin="round" stroke-width="1.5" d="M11 22H9.622c-2.348 0-3.522 0-4.336-.706c-.815-.705-1.014-1.895-1.413-4.275L2.669 9.84c-.182-1.085-.273-1.627.019-1.983c.291-.356.827-.356 1.898-.356h14.828c1.071 0 1.607 0 1.898.356c.292.356.2.898.019 1.984L20.8 13m-7.3 7s1 0 2 2c0 0 3.177-5 6-6m-4-8.5a5.5 5.5 0 1 0-11 0" color="currentColor"/></svg>