<svg xmlns="http://www.w3.org/2000/svg" xmlns:xlink="http://www.w3.org/1999/xlink" width="24" height="24" viewBox="0 0 24 24"><g fill="none" stroke="currentColor" stroke-linecap="round" stroke-linejoin="round" stroke-width="1.5" color="currentColor"><path d="M11 22H9.622c-2.348 0-3.522 0-4.336-.706c-.815-.705-1.014-1.895-1.413-4.275L2.669 9.84c-.182-1.085-.273-1.627.019-1.983c.291-.356.827-.356 1.898-.356h14.828c1.071 0 1.607 0 1.898.356c.292.356.2.898.019 1.984l-.279 1.66"/><path d="M17 14c-1.267 0-2.088.808-3.06 1.102c-.394.12-.592.18-.672.264s-.103.207-.15.454c-.5 2.638.594 5.078 3.204 6.027c.28.102.42.153.679.153c.257 0 .398-.051.678-.153c2.61-.95 3.704-3.389 3.203-6.027c-.047-.247-.07-.37-.15-.454s-.278-.144-.673-.264C19.088 14.808 18.266 14 17 14m.5-6.5a5.5 5.5 0 1 0-11 0"/></g></svg>