<svg xmlns="http://www.w3.org/2000/svg" xmlns:xlink="http://www.w3.org/1999/xlink" width="24" height="24" viewBox="0 0 24 24"><g fill="none" stroke="currentColor" stroke-linecap="round" stroke-linejoin="round" stroke-width="1.5" color="currentColor"><path d="M11.5 22H9.622c-2.348 0-3.522 0-4.336-.706c-.815-.705-1.014-1.895-1.413-4.275L2.669 9.84c-.182-1.085-.273-1.627.019-1.983c.291-.356.827-.356 1.898-.356h14.828c1.071 0 1.607 0 1.898.356c.292.356.2.898.019 1.984l-.279 1.66"/><path d="M13.642 14.442c1.207-.731 2.26-.437 2.893.033c.259.192.389.288.465.288s.206-.096.465-.288c.633-.47 1.686-.764 2.893-.033c1.584.96 1.942 4.125-1.71 6.795c-.697.509-1.044.763-1.648.763s-.951-.254-1.647-.763c-3.653-2.67-3.295-5.836-1.711-6.795M17.5 7.5a5.5 5.5 0 1 0-11 0"/></g></svg>