<svg xmlns="http://www.w3.org/2000/svg" xmlns:xlink="http://www.w3.org/1999/xlink" width="24" height="24" viewBox="0 0 24 24"><g fill="none" stroke="currentColor" stroke-linecap="round" stroke-linejoin="round" stroke-width="1.5" color="currentColor"><path d="M19.998 4.5A1.5 1.5 0 1 1 17 4.5a1.5 1.5 0 0 1 3 0m-7.521 3.32l1.075-.968a1.5 1.5 0 0 1 1.94-.057L17 8m-4.521-.18L15.3 9.7L17 8m-4.521-.18L6 3.5m6.5 9l-1.393-.929a1.5 1.5 0 0 1-.476-1.984M12.5 12.5l2.36 1.686a1 1 0 0 1 0 1.628L12.5 17.5m0-5l1-1M17 8l.5 3.167L21 13.5"/><path d="m3 12l14 9l2.5-.5"/></g></svg>