<svg xmlns="http://www.w3.org/2000/svg" xmlns:xlink="http://www.w3.org/1999/xlink" width="24" height="24" viewBox="0 0 24 24"><g fill="none" stroke="currentColor" stroke-linecap="round" stroke-linejoin="round" stroke-width="1.5" color="currentColor"><path d="M15 10c0-1.105-1.343-2-3-2s-3 .895-3 2s1.343 2 3 2s3 .895 3 2s-1.343 2-3 2s-3-.895-3-2"/><path d="M18 20a4 4 0 0 0 2.954-6.697c-.675-.739-.898-1.042-.986-2.026a7.97 7.97 0 0 0-2.311-4.934a8 8 0 0 0-8.054-1.977c-.943.295-1.31.205-2.254-.133a4 4 0 0 0-4.303 6.464c.675.739.898 1.042.986 2.026a7.97 7.97 0 0 0 2.311 4.934a8 8 0 0 0 8.054 1.977c.943-.295 1.31-.205 2.254.133c.421.15.875.233 1.349.233"/></g></svg>