<svg xmlns="http://www.w3.org/2000/svg" xmlns:xlink="http://www.w3.org/1999/xlink" width="24" height="24" viewBox="0 0 24 24"><g fill="none" stroke="currentColor" stroke-linecap="round" stroke-linejoin="round" stroke-width="1.5" color="currentColor"><path d="M3.5 6.73A9.95 9.95 0 0 0 2 12c0 5.523 4.477 10 10 10a10 10 0 0 0 3-.458m5.353-4.042A9.95 9.95 0 0 0 22 12c0-5.523-4.477-10-10-10a10 10 0 0 0-3 .458"/><circle cx="5" cy="5" r="2"/><circle cx="19" cy="19" r="2"/><circle cx="8" cy="15" r="2"/><path d="M12 17a5 5 0 1 0-4.9-4m4.909-1H12"/></g></svg>