<svg xmlns="http://www.w3.org/2000/svg" xmlns:xlink="http://www.w3.org/1999/xlink" width="24" height="24" viewBox="0 0 24 24"><path fill="none" stroke="currentColor" stroke-linecap="round" stroke-linejoin="round" stroke-width="1.5" d="m15 2l.539 2.392a5.39 5.39 0 0 0 4.07 4.07L22 9l-2.392.539a5.39 5.39 0 0 0-4.07 4.07L15 16l-.539-2.392a5.39 5.39 0 0 0-4.07-4.07L8 9l2.392-.539a5.39 5.39 0 0 0 4.07-4.07zM7 12l.385 1.708a3.85 3.85 0 0 0 2.907 2.907L12 17l-1.708.385a3.85 3.85 0 0 0-2.907 2.907L7 22l-.385-1.708a3.85 3.85 0 0 0-2.907-2.907L2 17l1.708-.385a3.85 3.85 0 0 0 2.907-2.907z" color="currentColor"/></svg>