<svg xmlns="http://www.w3.org/2000/svg" xmlns:xlink="http://www.w3.org/1999/xlink" width="24" height="24" viewBox="0 0 24 24"><g fill="none" stroke="currentColor" stroke-linecap="round" stroke-linejoin="round" stroke-width="1.5" color="currentColor"><path d="M20.5 13.5v-3c0-3.759 0-5.638-1.053-6.893a4.5 4.5 0 0 0-.555-.554C17.638 2 15.76 2 12 2S6.362 2 5.107 3.053a4.5 4.5 0 0 0-.554.554C3.5 4.862 3.5 6.741 3.5 10.5v3c0 3.759 0 5.638 1.053 6.892q.253.302.554.555C6.362 22 8.241 22 12 22s5.638 0 6.892-1.053a4.5 4.5 0 0 0 .555-.555C20.5 19.138 20.5 17.26 20.5 13.5"/><path d="M15.5 15a3.5 3.5 0 1 1-7 0a3.5 3.5 0 0 1 7 0m-2-8a1.5 1.5 0 1 1-3 0a1.5 1.5 0 0 1 3 0"/></g></svg>