<svg xmlns="http://www.w3.org/2000/svg" xmlns:xlink="http://www.w3.org/1999/xlink" width="24" height="24" viewBox="0 0 24 24"><g fill="none" stroke="currentColor" stroke-linecap="round" stroke-linejoin="round" stroke-width="1.5" color="currentColor"><path d="M8 22h10c1.886 0 2.828 0 3.414-.586S22 19.886 22 18v-1c0-1.886 0-2.828-.586-3.414S19.886 13 18 13h-3c-1.886 0-2.828 0-3.414-.586S11 10.886 11 9V6c0-1.886 0-2.828-.586-3.414S8.886 2 7 2H6c-1.886 0-2.828 0-3.414.586S2 4.114 2 6v10c0 2.828 0 4.243.879 5.121C3.757 22 5.172 22 8 22"/><path d="M10 16.5a2.5 2.5 0 1 1-5 0a2.5 2.5 0 0 1 5 0M6.5 10V2M14 17.5h8"/></g></svg>