<svg xmlns="http://www.w3.org/2000/svg" xmlns:xlink="http://www.w3.org/1999/xlink" width="24" height="24" viewBox="0 0 24 24"><path fill="none" stroke="currentColor" stroke-linecap="round" stroke-linejoin="round" stroke-width="1.5" d="M18.5 2.004v5.998m0-5.998c-.7 0-2.008 1.993-2.5 2.499m2.5-2.5c.7 0 2.009 1.994 2.5 2.5m-4.106 17.485c-.052-1.913.077-2.143.214-2.569c.136-.426 1.093-1.96 1.431-3.057c1.095-3.548.074-4.303-1.286-5.309c-1.508-1.115-4.354-1.68-5.765-1.558V3.744a1.744 1.744 0 0 0-3.488 0v10.26l-2.06-2.18c-.64-.694-1.668-.764-2.37-.133a1.72 1.72 0 0 0-.223 2.318l1.292 1.713M7.87 22l-.02-1.05c.044-1.232-.852-2.035-2.02-3.641l-.247-.336m0 0a72 72 0 0 0-.944-1.251m.944 1.25l1.17 1.55m-1.17-1.55l-.944-1.25m0 0c-.571-.742-1.002-1.281-1.374-1.816" color="currentColor"/></svg>