<svg xmlns="http://www.w3.org/2000/svg" xmlns:xlink="http://www.w3.org/1999/xlink" width="24" height="24" viewBox="0 0 24 24"><path fill="none" stroke="currentColor" stroke-linecap="round" stroke-linejoin="round" stroke-width="1.5" d="M18.5 2.001v6m0-6c-.7 0-2.009 1.995-2.5 2.5m2.5-2.5c.7 0 2.009 1.995 2.5 2.5m-5.608 17.497c-.052-1.915.077-2.145.214-2.57c.136-.427 1.093-1.962 1.431-3.059c1.095-3.55.075-4.304-1.286-5.31c-1.508-1.117-4.354-1.682-5.765-1.56V3.746a1.744 1.744 0 1 0-3.488 0v6.22m0 12.032v-1.013c-.064-.944-1.002-2.062-2.17-3.669c-1.202-1.74-1.46-2.62-1.272-3.432c.098-.415.35-1.101 1.591-2.274l1.85-1.644m0 4.066V9.966" color="currentColor"/></svg>