<svg xmlns="http://www.w3.org/2000/svg" xmlns:xlink="http://www.w3.org/1999/xlink" width="24" height="24" viewBox="0 0 24 24"><g fill="none" stroke="currentColor" stroke-linecap="round" stroke-linejoin="round" stroke-width="1.5" color="currentColor"><path d="M3.5 9.368c0-3.473 0-5.21 1.025-6.289S7.2 2 10.5 2h3c3.3 0 4.95 0 5.975 1.08C20.5 4.157 20.5 5.894 20.5 9.367v5.264c0 3.473 0 5.21-1.025 6.289S16.8 22 13.5 22h-3c-3.3 0-4.95 0-5.975-1.08C3.5 19.843 3.5 18.106 3.5 14.633zM13.5 11H17"/><path d="M7 12s.5 0 1 1c0 0 1.588-2.5 3-3m2.5 7H17M8 2l.082.493c.2 1.197.3 1.796.72 2.152C9.22 5 9.827 5 11.041 5h1.917c1.213 0 1.82 0 2.24-.355c.42-.356.52-.955.719-2.152L16 2M8 17h1"/></g></svg>