<svg xmlns="http://www.w3.org/2000/svg" xmlns:xlink="http://www.w3.org/1999/xlink" width="24" height="24" viewBox="0 0 24 24"><g fill="none" stroke="currentColor" stroke-linecap="round" stroke-linejoin="round" stroke-width="1.5" color="currentColor"><path d="M7.5 15h-3M6 3v12M6 3c-.793 0-1.811.114-2.622.227c-.343.048-.514.072-.666.156c-.316.175-.57.558-.666 1.004C2 4.6 2 4.845 2 5.333M6 3c.793 0 1.811.114 2.622.227c.343.048.514.072.666.156c.316.175.57.558.666 1.004c.046.214.046.458.046.946M19.5 15h-3M18 3v12m0-12c-.793 0-1.811.114-2.622.227c-.343.048-.514.072-.666.156c-.316.175-.57.558-.666 1.004C14 4.6 14 4.845 14 5.333M18 3c.793 0 1.811.114 2.622.227c.343.048.514.072.666.156c.316.175.57.558.666 1.004c.046.214.046.458.046.946M2 19h8m4 0h8"/><circle cx="12" cy="19" r="2"/></g></svg>