<svg xmlns="http://www.w3.org/2000/svg" xmlns:xlink="http://www.w3.org/1999/xlink" width="24" height="24" viewBox="0 0 24 24"><path fill="none" stroke="currentColor" stroke-linecap="round" stroke-linejoin="round" stroke-width="1.5" d="M11.5 14.012a10.6 10.6 0 0 0-5.922 1.47c-1.415.842-5.125 2.562-2.865 4.715C3.816 21.248 5.045 22 6.59 22H12m3.5-15.5a4.5 4.5 0 1 1-9 0a4.5 4.5 0 0 1 9 0M18 20.714V22m0-1.286a3.36 3.36 0 0 1-2.774-1.43M18 20.713a3.36 3.36 0 0 0 2.774-1.43M18 14.285c1.157 0 2.176.568 2.774 1.43M18 14.287a3.36 3.36 0 0 0-2.774 1.43M18 14.287V13m4 1.929l-1.226.788M14 20.07l1.226-.788M14 14.93l1.226.788M22 20.07l-1.226-.788m0-3.566a3.12 3.12 0 0 1 0 3.566m-5.548-3.566a3.12 3.12 0 0 0 0 3.566" color="currentColor"/></svg>