<svg xmlns="http://www.w3.org/2000/svg" xmlns:xlink="http://www.w3.org/1999/xlink" width="24" height="24" viewBox="0 0 24 24"><g fill="none" stroke="currentColor" stroke-linecap="round" stroke-linejoin="round" stroke-width="1.5" color="currentColor"><path d="M12.998 6.5h-1.996c-2.87 0-4.805 3.07-3.674 5.828a1 1 0 0 0 .918.633h.703c.237 0 .444.17.501.41l.905 3.786c.189.79.867 1.343 1.645 1.343s1.456-.554 1.645-1.343l.905-3.786a.52.52 0 0 1 .5-.41h.704a1 1 0 0 0 .918-.633c1.131-2.759-.804-5.828-3.674-5.828"/><path d="M14.5 4a2.5 2.5 0 1 1-5 0a2.5 2.5 0 0 1 5 0M7 16.5H6m6 5v1m6-6h-1"/></g></svg>