<svg xmlns="http://www.w3.org/2000/svg" xmlns:xlink="http://www.w3.org/1999/xlink" width="24" height="24" viewBox="0 0 24 24"><path fill="none" stroke="currentColor" stroke-linecap="round" stroke-linejoin="round" stroke-width="1.5" d="M13 22H6.59c-1.545 0-2.774-.752-3.877-1.803c-2.26-2.153 1.45-3.873 2.865-4.715A10.63 10.63 0 0 1 12 14.047M15.5 6.5a4.5 4.5 0 1 1-9 0a4.5 4.5 0 0 1 9 0m-.485 8.887c1.073-.64 2.009-.382 2.571.028c.23.169.346.253.414.253s.183-.084.414-.253c.562-.41 1.498-.668 2.571-.028c1.408.84 1.726 3.609-1.52 5.945c-.62.445-.928.668-1.465.668s-.846-.223-1.464-.668c-3.247-2.336-2.929-5.106-1.521-5.945" color="currentColor"/></svg>