<svg xmlns="http://www.w3.org/2000/svg" xmlns:xlink="http://www.w3.org/1999/xlink" width="24" height="24" viewBox="0 0 24 24"><path fill="none" stroke="currentColor" stroke-linecap="round" stroke-linejoin="round" stroke-width="1.5" d="M5.18 15.296c-1.258.738-4.555 2.243-2.547 4.126c.982.92 2.074 1.578 3.448 1.578h7.838c1.374 0 2.467-.658 3.447-1.578c2.009-1.883-1.288-3.389-2.546-4.126a9.61 9.61 0 0 0-9.64 0M14 7a4 4 0 1 1-8 0a4 4 0 0 1 8 0m2.761-3.724c.805-.457 1.507-.273 1.929.02c.173.12.26.181.31.181s.137-.06.31-.18c.422-.294 1.124-.478 1.929-.02c1.056.599 1.294 2.577-1.14 4.246C19.633 7.841 19.401 8 19 8s-.634-.159-1.098-.477c-2.436-1.669-2.197-3.647-1.14-4.247" color="currentColor"/></svg>