<svg xmlns="http://www.w3.org/2000/svg" xmlns:xlink="http://www.w3.org/1999/xlink" width="24" height="24" viewBox="0 0 24 24"><g fill="none" stroke="currentColor" stroke-linecap="round" stroke-linejoin="round" stroke-width="1.5" color="currentColor"><path d="M13 21.95q-.493.05-1 .05C6.477 22 2 17.523 2 12S6.477 2 12 2s10 4.477 10 10q0 .507-.05 1"/><path d="M7.5 17c1.402-1.469 3.521-2.096 5.5-1.806M14.495 9.5c0 1.38-1.12 2.5-2.503 2.5a2.5 2.5 0 0 1-2.504-2.5c0-1.38 1.12-2.5 2.504-2.5a2.5 2.5 0 0 1 2.503 2.5"/><circle cx="18.5" cy="18.5" r="3.5"/></g></svg>