<svg xmlns="http://www.w3.org/2000/svg" xmlns:xlink="http://www.w3.org/1999/xlink" width="24" height="24" viewBox="0 0 24 24"><g fill="none" stroke="currentColor" stroke-linecap="round" stroke-linejoin="round" stroke-width="1.5" color="currentColor"><path d="M12 2c5.524 0 10 4.478 10 10s-4.476 10-10 10m-3-.5a11 11 0 0 1-3.277-1.754m0-15.492A11.3 11.3 0 0 1 9 2.5m-7 7.746a9.6 9.6 0 0 1 1.296-3.305M2 13.754a9.6 9.6 0 0 0 1.296 3.305"/><path d="M8 16.5c2.073-2.198 5.905-2.301 8 0m-1.782-6.75c0 1.243-.996 2.25-2.226 2.25s-2.225-1.007-2.225-2.25s.996-2.25 2.226-2.25s2.225 1.007 2.225 2.25"/></g></svg>