<svg xmlns="http://www.w3.org/2000/svg" xmlns:xlink="http://www.w3.org/1999/xlink" width="24" height="24" viewBox="0 0 24 24"><g fill="none" stroke="currentColor" stroke-linecap="round" stroke-linejoin="round" stroke-width="1.5" color="currentColor"><path d="M2.5 12c0-4.478 0-6.718 1.391-8.109S7.521 2.5 12 2.5c4.478 0 6.718 0 8.109 1.391S21.5 7.521 21.5 12c0 4.478 0 6.718-1.391 8.109S16.479 21.5 12 21.5c-4.478 0-6.718 0-8.109-1.391S2.5 16.479 2.5 12"/><path d="M11.5 8h1v4.5M6.5 8c0 5.2 4 7.5 6 8v-3.5m0 0a5.8 5.8 0 0 0 1.648-.5m0 0c1.32-.613 2.81-1.832 3.352-4m-3.352 4c1.117.333 3.352 1.6 3.352 4"/></g></svg>