<svg xmlns="http://www.w3.org/2000/svg" xmlns:xlink="http://www.w3.org/1999/xlink" width="24" height="24" viewBox="0 0 24 24"><path fill="none" stroke="currentColor" stroke-linecap="round" stroke-linejoin="round" stroke-width="1.5" d="M2.5 8.187c.104-2.1.415-3.41 1.347-4.34c.93-.932 2.24-1.243 4.34-1.347M21.5 8.187c-.104-2.1-.415-3.41-1.347-4.34c-.93-.932-2.24-1.243-4.34-1.347m0 19c2.1-.104 3.41-.415 4.34-1.347c.932-.93 1.243-2.24 1.347-4.34M8.187 21.5c-2.1-.104-3.41-.415-4.34-1.347c-.932-.93-1.243-2.24-1.347-4.34M12 7v10M8 9v6m8 0V9" color="currentColor"/></svg>