<svg xmlns="http://www.w3.org/2000/svg" xmlns:xlink="http://www.w3.org/1999/xlink" width="24" height="24" viewBox="0 0 24 24"><g fill="none" stroke="currentColor" stroke-linecap="round" stroke-linejoin="round" stroke-width="1.5" color="currentColor"><path d="M2.5 12c0-4.478 0-6.718 1.391-8.109S7.521 2.5 12 2.5c4.478 0 6.718 0 8.109 1.391S21.5 7.521 21.5 12c0 4.478 0 6.718-1.391 8.109S16.479 21.5 12 21.5c-4.478 0-6.718 0-8.109-1.391S2.5 16.479 2.5 12"/><path d="m15 11l1.828-1.828c.579-.578.867-.868 1.02-1.235C18 7.569 18 7.16 18 6.343V3"/><path d="M17.197 9A6 6 0 1 1 14.5 6.544"/><path d="M9 13a3.29 3.29 0 0 0 2 2"/></g></svg>