<svg xmlns="http://www.w3.org/2000/svg" xmlns:xlink="http://www.w3.org/1999/xlink" width="24" height="24" viewBox="0 0 24 24"><g fill="none" stroke="currentColor" stroke-linecap="round" stroke-linejoin="round" stroke-width="1.5" color="currentColor"><path d="M15 15a1.5 1.5 0 1 0 3 0a1.5 1.5 0 0 0-3 0"/><path d="M15.004 7.803C9.576 7.426 5.104 6.62 3 6v9.061c0 1.995 0 2.992.62 3.805s1.47 1.043 3.17 1.503c2.746.742 5.634 1.184 8.22 1.436c2.682.262 4.022.393 5.006-.506c.984-.898.984-2.343.984-5.231v-2.014c0-2.805 0-4.207-.807-5.077s-2.268-.972-5.19-1.174"/><path d="M17.626 8c.377-1.423.72-4.012-.299-5.297c-.645-.815-1.605-.736-2.545-.654c-4.944.435-8.437 1.318-10.389 1.918C3.553 4.225 3 5.045 3 5.96"/></g></svg>