<svg xmlns="http://www.w3.org/2000/svg" xmlns:xlink="http://www.w3.org/1999/xlink" width="24" height="24" viewBox="0 0 24 24"><g fill="none" stroke="currentColor" stroke-linecap="round" stroke-linejoin="round" stroke-width="1.5" color="currentColor"><path d="M2 19s1 0 2 2c0 0 3.176-5 6-6m.5 6H16c2.828 0 4.243 0 5.121-.879C22 19.243 22 17.828 22 15v-2c0-2.828 0-4.243-.879-5.121C20.243 7 18.828 7 16 7h-6m-8 8v-4c0-3.771 0-5.657 1.172-6.828S6.229 3 10 3h4c.93 0 1.395 0 1.777.102a3 3 0 0 1 2.12 2.122C18 5.605 18 6.07 18 7"/><path d="M16 13.5a1.5 1.5 0 1 0 3 0a1.5 1.5 0 0 0-3 0"/></g></svg>