<svg xmlns="http://www.w3.org/2000/svg" xmlns:xlink="http://www.w3.org/1999/xlink" width="24" height="24" viewBox="0 0 24 24"><g fill="none" stroke="currentColor" stroke-linecap="round" stroke-linejoin="round" stroke-width="1.5" color="currentColor"><path d="M16 14a1.5 1.5 0 1 0 3 0a1.5 1.5 0 0 0-3 0"/><path d="M10 7h6c2.828 0 4.243 0 5.121.879C22 8.757 22 10.172 22 13v2c0 2.828 0 4.243-.879 5.121C20.243 21 18.828 21 16 21h-6c-3.771 0-5.657 0-6.828-1.172S2 16.771 2 13v-2c0-3.771 0-5.657 1.172-6.828S6.229 3 10 3h4c.93 0 1.395 0 1.777.102a3 3 0 0 1 2.12 2.122C18 5.605 18 6.07 18 7"/></g></svg>