<svg xmlns="http://www.w3.org/2000/svg" xmlns:xlink="http://www.w3.org/1999/xlink" width="24" height="24" viewBox="0 0 24 24"><g fill="none" stroke="currentColor" stroke-linecap="round" stroke-linejoin="round" stroke-width="1.5" color="currentColor"><path d="M17.5 9v.01m-7-.01v.01m0 3.99s1 2 3.5 2s3.5-2 3.5-2M11 20a2 2 0 1 1-4 0a2 2 0 0 1 4 0"/><path d="M11 19.945c.684.042 1.357.055 2 .055a9 9 0 1 0-9-9c0 1.039 0 3-2 4c1.058 2.38 2.974 3.64 5.126 4.3"/><path d="M17 22a2 2 0 0 0 1.163-3.627c-.935.656-2 1.139-3.15 1.401A2 2 0 0 0 17 22"/></g></svg>