<svg xmlns="http://www.w3.org/2000/svg" xmlns:xlink="http://www.w3.org/1999/xlink" width="24" height="24" viewBox="0 0 24 24"><g fill="none" stroke="currentColor" stroke-linecap="round" stroke-linejoin="round" stroke-width="1.5" color="currentColor"><path d="M12 2c4.87 0 9 4.033 9 8.926c0 4.97-4.197 8.459-8.073 10.83a1.89 1.89 0 0 1-1.854 0C7.203 19.363 3 15.915 3 10.927C3 6.033 7.13 2 12 2"/><path d="M8 9.478C9.149 8.543 10.52 8 11.995 8c1.478 0 2.854.547 4.005 1.487M14.174 12a4.1 4.1 0 0 0-2.18-.64a4.1 4.1 0 0 0-2.17.634M12 15h.006"/></g></svg>