<svg xmlns="http://www.w3.org/2000/svg" xmlns:xlink="http://www.w3.org/1999/xlink" width="24" height="24" viewBox="0 0 24 24"><path fill="none" stroke="currentColor" stroke-linecap="round" stroke-linejoin="round" stroke-width="1.5" d="M13.5 11a1.5 1.5 0 1 1-3 0a1.5 1.5 0 0 1 3 0m7.5-.5a9.18 9.18 0 0 0-3.928-7m-10.144 0A9.18 9.18 0 0 0 3 10.5m9-1V7m-1.801-3.01l.152 1.517c.056.559.083.838.22 1.044a1 1 0 0 0 .369.334C11.158 7 11.439 7 12 7s.842 0 1.06-.115a1 1 0 0 0 .37-.334c.136-.206.163-.485.22-1.044l.15-1.517c.083-.827.124-1.24-.068-1.535a1 1 0 0 0-.212-.235C13.247 2 12.831 2 12 2s-1.247 0-1.521.22a1 1 0 0 0-.212.235c-.192.294-.15.708-.068 1.535m.501 7.76L8.535 13m-1.704 3.065l1.238-.89c.456-.327.684-.491.794-.712a1 1 0 0 0 .105-.487c-.01-.247-.15-.49-.43-.975c-.281-.486-.422-.73-.63-.861a1 1 0 0 0-.475-.153c-.246-.015-.502.1-1.013.332l-1.39.627c-.758.342-1.136.513-1.296.826a1 1 0 0 0-.097.301c-.053.348.154.708.57 1.428s.623 1.08.951 1.207q.15.057.31.066c.35.019.688-.224 1.363-.709M13.3 11.75L15.465 13m3.505-.055l-1.39-.627c-.511-.231-.767-.347-1.013-.332a1 1 0 0 0-.475.153c-.208.132-.349.375-.63.86c-.28.487-.42.73-.43.976c-.007.169.03.336.105.487c.11.22.338.385.794.712l1.238.89c.675.485 1.012.728 1.364.71a1 1 0 0 0 .309-.067c.328-.128.535-.488.95-1.207c.416-.72.624-1.08.57-1.428a1 1 0 0 0-.096-.3c-.16-.314-.538-.485-1.296-.827M12 12.5V22m6 0H6" color="currentColor"/></svg>