<svg xmlns="http://www.w3.org/2000/svg" xmlns:xlink="http://www.w3.org/1999/xlink" width="24" height="24" viewBox="0 0 24 24"><g fill="none" stroke="currentColor" stroke-linecap="round" stroke-linejoin="round" stroke-width="1.5" color="currentColor"><path d="M9 5a3 3 0 1 1-6 0a3 3 0 0 1 6 0m12 0a3 3 0 1 1-6 0a3 3 0 0 1 6 0M9 19a3 3 0 1 1-6 0a3 3 0 0 1 6 0m-3-3V8"/><path d="M18 8c0 .932 0 3.398-.152 3.765a2 2 0 0 1-1.083 1.083C16.398 13 15.932 13 15 13H9c-.932 0-1.398 0-1.765.152a2 2 0 0 0-1.083 1.083C6 14.602 6 15.068 6 16"/></g></svg>