<svg xmlns="http://www.w3.org/2000/svg" xmlns:xlink="http://www.w3.org/1999/xlink" width="24" height="24" viewBox="0 0 24 24"><g fill="none" stroke="currentColor" stroke-linecap="round" stroke-linejoin="round" stroke-width="1.5" color="currentColor"><path d="M16 8.99c-3.184 0-4.816 6.02-8 6.02"/><path d="M15.54 15.01c-.809 0-1.253 0-1.594-.12a1.8 1.8 0 0 1-.52-.285c-.265-.209-.41-.508-.7-1.108l-1.451-2.995c-.29-.6-.436-.899-.7-1.108a1.8 1.8 0 0 0-.52-.284c-.342-.12-.786-.12-1.595-.12"/><path d="M12 22c5.523 0 10-4.477 10-10S17.523 2 12 2S2 6.477 2 12s4.477 10 10 10"/></g></svg>