<svg xmlns="http://www.w3.org/2000/svg" xmlns:xlink="http://www.w3.org/1999/xlink" width="24" height="24" viewBox="0 0 24 24"><g fill="none" stroke="currentColor" stroke-linecap="round" stroke-linejoin="round" stroke-width="1.5" color="currentColor"><path d="M7 13h2.877a.3.3 0 0 1 .234.487l-2.961 3.7a.5.5 0 0 0 .39.813h2.961m2.501-5h1.25m0 0h1.251m-1.25 0v4.81m-1.25.19h2.5m2.5 0v-5h1.466c.65 0 1.349.289 1.494.922c.05.215.05.424 0 .641c-.146.64-.85.937-1.508.937h-.45"/><path d="M15 22h-4.273c-3.26 0-4.892 0-6.024-.798a4.1 4.1 0 0 1-.855-.805C3 19.331 3 17.797 3 14.727v-2.545c0-2.963 0-4.445.469-5.628c.754-1.903 2.348-3.403 4.37-4.113C9.095 2 10.668 2 13.818 2c1.798 0 2.698 0 3.416.252c1.155.406 2.066 1.263 2.497 2.35C20 5.278 20 6.125 20 7.818V10"/><path d="M3 12a3.333 3.333 0 0 1 3.333-3.333c.666 0 1.451.116 2.098-.057A1.67 1.67 0 0 0 9.61 7.43c.173-.647.057-1.432.057-2.098A3.333 3.333 0 0 1 13 2"/></g></svg>