<svg xmlns="http://www.w3.org/2000/svg" xmlns:xlink="http://www.w3.org/1999/xlink" width="24" height="24" viewBox="0 0 24 24"><g fill="none" stroke="currentColor" stroke-linecap="round" stroke-linejoin="round" stroke-width="1.5" color="currentColor"><path d="M3.5 13v-.804c0-2.967 0-4.45.469-5.636c.754-1.905 2.348-3.407 4.37-4.118C9.595 2 11.168 2 14.318 2c1.798 0 2.698 0 3.416.253c1.155.406 2.066 1.264 2.497 2.353c.268.677.268 1.525.268 3.22V13"/><path d="M3.5 12a3.333 3.333 0 0 1 3.333-3.333c.666 0 1.451.116 2.098-.057a1.67 1.67 0 0 0 1.179-1.18c.173-.647.057-1.432.057-2.098A3.333 3.333 0 0 1 13.5 2m-10 14h3.4a.3.3 0 0 1 .24.48l-3.42 4.56a.6.6 0 0 0 .48.96h3.3m3-6h1.75m0 0H14m-1.75 0v5.679M10.5 22H14m3 0v-6h1.862c.706 0 1.436.352 1.587 1.04c.064.29.062.564 0 .852c-.155.722-.91 1.108-1.648 1.108H18"/></g></svg>