<svg xmlns="http://www.w3.org/2000/svg" xmlns:xlink="http://www.w3.org/1999/xlink" width="512" height="512" viewBox="0 0 512 512"><path fill="currentColor" fill-rule="evenodd" d="M447.998 256.001c0-106.039-85.961-192-192-192c-106.038 0-192 85.961-192 192c0 52.238 20.862 99.604 54.709 134.22l-33.36 57.778l36.951 21.333l29.889-51.788c29.931 19.274 65.565 30.457 103.811 30.457c8.643 0 17.152-.571 25.453-1.687a117.2 117.2 0 0 1-21.065-41.043q-2.186.063-4.388.063c-82.474 0-149.333-66.859-149.333-149.333s66.859-149.334 149.333-149.334s149.334 66.859 149.334 149.334l-.083 4.393c15.155 4.274 29.065 11.516 41.076 21.065a194 194 0 0 0 1.673-25.458m-192.427-26.759l-67.726-67.725l-30.17 30.17l67.617 67.865l30.435 30.187l30.009-30.332l59.481-59.441l-30.17-30.17zm213.458-115.251a257.4 257.4 0 0 0-71.012-71.01l-23.654 35.515a214.5 214.5 0 0 1 59.159 59.161zM137.642 78.496L113.97 42.993a257.4 257.4 0 0 0-70.986 70.985l35.503 23.672a214.5 214.5 0 0 1 59.155-59.154M373.333 448c16.771 0 32.251-5.529 44.716-14.865L313.531 328.618c-9.335 12.464-14.864 27.944-14.864 44.715c0 41.238 33.429 74.667 74.666 74.667m-44.717-134.467l104.518 104.518C442.47 405.586 448 390.105 448 373.333c0-41.237-33.429-74.666-74.667-74.666c-16.772 0-32.252 5.53-44.717 14.866m44.717 155.8c53.02 0 96-42.98 96-96c0-53.019-42.98-96-96-96c-53.019 0-96 42.981-96 96c0 53.02 42.981 96 96 96" clip-rule="evenodd"/></svg>