<svg xmlns="http://www.w3.org/2000/svg" xmlns:xlink="http://www.w3.org/1999/xlink" width="512" height="512" viewBox="0 0 512 512"><path fill="currentColor" fill-rule="evenodd" d="M128 96c0 17.664-14.336 32-32 32s-32-14.336-32-32s14.336-32 32-32s32 14.336 32 32m160 0c0 17.664-14.336 32-32 32s-32-14.336-32-32s14.336-32 32-32s32 14.336 32 32M128 416c0 17.664-14.336 32-32 32s-32-14.336-32-32s14.336-32 32-32s32 14.336 32 32m160 0c0 17.664-14.336 32-32 32s-32-14.336-32-32s14.336-32 32-32s32 14.336 32 32M128 256c0 17.664-14.336 32-32 32s-32-14.336-32-32s14.336-32 32-32s32 14.336 32 32m160 0c0 17.664-14.336 32-32 32s-32-14.336-32-32s14.336-32 32-32s32 14.336 32 32M448 96c0 17.664-14.336 32-32 32s-32-14.336-32-32s14.336-32 32-32s32 14.336 32 32m0 320c0 17.664-14.336 32-32 32s-32-14.336-32-32s14.336-32 32-32s32 14.336 32 32m0-160c0 17.664-14.336 32-32 32s-32-14.336-32-32s14.336-32 32-32s32 14.336 32 32"/></svg>