<svg xmlns="http://www.w3.org/2000/svg" xmlns:xlink="http://www.w3.org/1999/xlink" width="512" height="512" viewBox="0 0 512 512"><path fill="currentColor" fill-rule="evenodd" d="M234.877 389.333c14.728 0 26.667 11.94 26.667 26.667s-11.94 26.667-26.667 26.667S208.21 430.727 208.21 416s11.94-26.667 26.667-26.667M426.667 128v74.666h42.667v106.667h-42.667V384H286.925l-.004-10.667v-.603c.01-2.895.147-6.85 2.205-9.409q2.205-2.742 3.54-3.815c8.432-6.246 15.63-12.248 21.717-18.173H384V170.667H85.334v170.666h97.456c-1.75 9.216-2.534 19.838-2.534 32L180.24 384H42.667V128zm-195.349 72.001c18.16 0 34.093 3.534 47.799 10.589c22.803 11.703 34.195 31.571 34.195 59.58c0 13.516-3.435 25.318-10.288 35.398c-5.65 8.47-15.12 17.648-28.436 27.534c-7.664 5.247-12.711 10.183-15.126 14.822c-3.04 5.649-4.54 14.114-4.54 25.41h-42.666c0-17.137 1.824-29.64 5.454-37.505c4.23-9.483 13.407-19.064 27.521-28.742c6.664-5.045 11.503-10.184 14.529-15.426c3.625-5.851 5.449-12.502 5.449-19.966c0-11.898-3.539-20.765-10.594-26.623c-5.636-4.228-12.502-6.345-20.569-6.345c-13.108 0-22.59 4.338-28.436 13.009c-4.236 6.449-6.36 14.718-6.36 24.8v.304h-45.36c0-26.422 8.36-46.383 25.09-59.899c14.12-11.282 31.574-16.94 52.34-16.94"/></svg>