<svg xmlns="http://www.w3.org/2000/svg" xmlns:xlink="http://www.w3.org/1999/xlink" width="512" height="512" viewBox="0 0 512 512"><path fill="currentColor" fill-rule="evenodd" d="M256 224c64.802 0 117.334 52.532 117.334 117.333c0 64.802-52.532 117.334-117.334 117.334c-64.801 0-117.333-52.532-117.333-117.334C138.667 276.532 191.199 224 256 224m0 32c-47.128 0-85.333 38.205-85.333 85.333s38.205 85.334 85.333 85.334s85.334-38.205 85.334-85.334C341.334 294.205 303.129 256 256 256m21.334 21.333L277.333 320H320v42.667l-42.667-.001v42.667h-42.666v-42.667H192V320h42.667v-42.667zM298.667 64c58.91 0 106.667 47.756 106.667 106.667l-.033 2.683c36.814 9.449 64.033 42.87 64.033 82.65c0 43.082-31.927 78.708-73.411 84.507l-1.259.166l-.002-.519c-.12-14.53-2.477-28.527-6.74-41.665c21.773-1.963 38.745-20.315 38.745-42.489c0-18.434-11.805-34.533-28.74-40.354l-3.233-.969l-32.885-8.44l.858-35.57c0-35.347-28.654-64-64-64c-21.47 0-41.047 10.625-52.844 27.902l-2.254 3.543l-19.2 32.463l-34.574-15.072c-9.295-4.052-19.357-6.17-29.795-6.17c-41.237 0-74.666 33.43-74.666 74.667c0 29.167 16.808 54.649 41.457 66.909a137.9 137.9 0 0 0-9.235 42.51C73.735 316.412 42.667 273.833 42.667 224c0-64.801 52.532-117.333 117.333-117.333c16.653 0 32.496 3.469 46.845 9.724C225.395 85.03 259.575 64 298.667 64"/></svg>