<svg xmlns="http://www.w3.org/2000/svg" xmlns:xlink="http://www.w3.org/1999/xlink" width="512" height="512" viewBox="0 0 512 512"><path fill="currentColor" fill-rule="evenodd" d="M405.333 170.667C405.333 111.756 357.577 64 298.667 64c-39.092 0-73.272 21.029-91.822 52.391c-14.349-6.255-30.192-9.724-46.845-9.724c-64.802 0-117.333 52.532-117.333 117.333c0 61.209 46.868 111.471 106.675 116.856l-.009.477l111.079.018c4.477-15.84 12.198-30.32 22.4-42.675l-126.119-.009l-3.525-.306l-3.924-.458c-36.32-5.214-63.91-36.533-63.91-73.903c0-41.237 33.429-74.667 74.666-74.667c10.437 0 20.5 2.118 29.795 6.17l34.573 15.072l19.201-32.463l2.254-3.543c11.796-17.277 31.373-27.902 52.844-27.902c35.346 0 64 28.653 64 64l-.859 35.57l32.885 8.44l3.234.969c16.935 5.821 28.74 21.92 28.74 40.354c0 4.144-.593 8.155-1.718 11.933a117.5 117.5 0 0 1 35.243 26.534c5.847-11.559 9.141-24.628 9.141-38.467c0-39.779-27.219-73.201-64.033-82.65zm-32 106.666c-53.019 0-96 42.981-96 96c0 53.02 42.981 96 96 96s96-42.98 96-96c0-53.019-42.981-96-96-96m62.763 62.763l-84.095 84.095l-41.428-41.429l18.856-18.856l22.572 22.572l65.238-65.238z" clip-rule="evenodd"/></svg>