<svg xmlns="http://www.w3.org/2000/svg" xmlns:xlink="http://www.w3.org/1999/xlink" width="512" height="512" viewBox="0 0 512 512"><path fill="currentColor" fill-rule="evenodd" d="M256 289.83L350.17 384L320 414.17l-42.667-42.654v97.838h-42.666v-97.84L192 414.17L161.83 384zM298.667 64c58.91 0 106.667 47.756 106.667 106.667l-.033 2.683c36.814 9.449 64.033 42.87 64.033 82.65c0 45.7-35.925 83.01-81.075 85.229l-4.259.104h-33.83l-42.658-42.658l75.442.004l3.21-.065c22.613-1.112 40.503-19.849 40.503-42.614c0-18.434-11.805-34.533-28.74-40.354l-3.233-.969l-32.885-8.44l.858-35.57c0-35.347-28.654-64-64-64c-21.47 0-41.047 10.625-52.844 27.902l-2.254 3.543l-19.2 32.463l-34.574-15.072c-9.295-4.052-19.357-6.17-29.795-6.17c-41.237 0-74.666 33.43-74.666 74.667c0 37.37 27.59 68.689 63.91 73.903l3.924.458l3.526.306l47.8.002l-42.664 42.664h-12.496l.008-.477C89.535 335.47 42.667 285.209 42.667 224c0-64.801 52.532-117.333 117.333-117.333c16.653 0 32.496 3.469 46.845 9.724C225.395 85.03 259.575 64 298.667 64"/></svg>