<svg xmlns="http://www.w3.org/2000/svg" xmlns:xlink="http://www.w3.org/1999/xlink" width="512" height="512" viewBox="0 0 512 512"><path fill="currentColor" fill-rule="evenodd" d="M328.837 42.667L448 161.83v307.504H106.667l-.003-69.435a148.7 148.7 0 0 0 42.67 20.584v6.184h256V179.52l-94.187-94.186H149.333v48.85a148.7 148.7 0 0 0-42.669 20.585l.003-112.102zM192 149.334c70.576 0 128 57.424 128 128s-57.424 128-128 128s-128-57.425-128-128s57.424-128 128-128m21.333 117.333h-42.666V352h42.666zM192 192c-11.782 0-21.333 9.552-21.333 21.334s9.55 21.333 21.333 21.333s21.333-9.551 21.333-21.333S203.783 192 192 192"/></svg>