<svg xmlns="http://www.w3.org/2000/svg" xmlns:xlink="http://www.w3.org/1999/xlink" width="512" height="512" viewBox="0 0 512 512"><path fill="currentColor" fill-rule="evenodd" d="M356.3 234.667q48.224 0 79.707 25.985q15.665 12.992 24.419 31.92q8.907 19.568 8.907 43.147q0 37.374-20.733 59.67q-18.582 19.89-41.926 19.89q-24.88 0-27.337-22.617q-15.358 22.616-41.466 22.616q-21.04 0-33.326-12.19q-13.362-13.154-13.362-36.09q0-15.239 6.067-29.915q6.067-14.678 16.816-25.424q20.426-20.37 52.524-20.37q24.266 0 45.305 7.859l-10.29 66.727q-1.535 9.784-1.535 14.275q0 11.068 9.368 11.068q12.285 0 21.962-14.917q11.825-18.126 11.825-42.988q0-34.166-23.037-53.253q-25.493-21.012-63.274-21.012q-29.18 0-53.137 14.436q-22.577 13.635-33.941 36.892q-9.06 18.928-9.061 42.025q0 43.79 30.408 69.454q26.722 22.616 67.882 22.616q23.496 0 49.759-8.982l4.453 24.701q-27.796 9.144-56.67 9.143q-53.137 0-86.464-30.957q-35.476-32.722-35.476-86.617q0-50.847 33.633-83.569q34.71-33.523 88-33.523m10.75 78.917q-8.753 0-17.354 4.571q-8.6 4.572-14.743 12.592q-12.594 16.2-12.593 36.25q0 11.229 5.528 17.725q5.53 6.495 15.05 6.496q13.823 0 22.884-11.87q4.76-6.095 7.525-23.579l6.45-39.94q-7.832-2.245-12.746-2.245M448 64l.003 187.94a138.8 138.8 0 0 0-42.668-27.978L405.333 128L289.171 228.35a139.1 139.1 0 0 0-35.913 26.293L106.667 128v192l110.377-.001a139 139 0 0 0-3.71 32.001q.001 5.386.404 10.668L64 362.667V64zm-80 42.667H144l112 96z"/></svg>