<svg xmlns="http://www.w3.org/2000/svg" xmlns:xlink="http://www.w3.org/1999/xlink" width="512" height="512" viewBox="0 0 512 512"><path fill="currentColor" d="M356.3 234.667q48.224 0 79.707 25.985q15.665 12.993 24.419 31.92q8.907 19.568 8.907 43.148q0 37.373-20.732 59.669q-18.585 19.89-41.927 19.89q-24.88 0-27.337-22.617q-15.358 22.617-41.466 22.617q-21.04 0-33.326-12.19q-13.362-13.155-13.362-36.091q0-15.238 6.067-29.915t16.816-25.423q20.427-20.371 52.524-20.371q24.266 0 45.305 7.86l-10.29 66.726q-1.535 9.785-1.535 14.276q0 11.067 9.368 11.067q12.287 0 21.962-14.917q11.825-18.125 11.825-42.987q0-34.166-23.036-53.253q-25.494-21.013-63.274-21.013q-29.18 0-53.138 14.436q-22.575 13.635-33.94 36.892q-9.062 18.928-9.062 42.025q0 43.79 30.408 69.454q26.723 22.617 67.882 22.617q23.497 0 49.759-8.983l4.454 24.702q-27.798 9.143-56.67 9.143q-53.139 0-86.465-30.958q-35.476-32.721-35.476-86.616q0-50.847 33.633-83.57q34.71-33.523 88-33.523m10.75 78.917q-8.753 0-17.354 4.572q-8.6 4.571-14.743 12.591q-12.594 16.2-12.593 36.25q0 11.229 5.528 17.725q5.529 6.496 15.051 6.496q13.822 0 22.883-11.87q4.762-6.094 7.525-23.578l6.45-39.94q-7.831-2.246-12.746-2.246M64 92.153l189.002 162.75c-24.537 25.015-39.669 59.29-39.669 97.097q.001 5.386.405 10.668H64zm384-.001l.003 159.789c-24.915-23.912-58.743-38.607-96.003-38.607c-21.988 0-42.781 5.118-61.252 14.227zM415.306 64L256 201.174L96.693 64z"/></svg>