<svg xmlns="http://www.w3.org/2000/svg" xmlns:xlink="http://www.w3.org/1999/xlink" width="512" height="512" viewBox="0 0 512 512"><path fill="currentColor" fill-rule="evenodd" d="m324.786 334.944l-2.001 11.984c-13.136 72.688-40.65 122.406-66.785 122.406s-53.648-49.718-66.784-122.406l-2.002-11.984c-2.668-17.372-4.522-35.895-5.365-55.239h148.303c-.844 19.344-2.697 37.867-5.366 55.239m6.698 120.65c23.74-42.414 38.66-105.191 41.394-175.889h95.153c-8.938 80.85-63.056 148.082-136.547 175.89m-150.967-.002c-73.492-27.806-127.61-95.038-136.548-175.887h95.153c2.734 70.697 17.655 133.474 41.395 175.887m-.002-399.186c-23.739 42.416-38.66 105.193-41.393 175.89H43.97c8.938-80.85 63.055-148.081 136.546-175.89M256 42.667c26.135 0 53.649 49.717 66.785 122.405l2.001 11.985c2.669 17.371 4.522 35.895 5.366 55.24H181.848c.844-19.345 2.698-37.869 5.366-55.24l2.002-11.985c13.004-71.96 40.1-121.408 66-122.39zm75.485 13.74c73.49 27.808 127.609 95.04 136.546 175.888l-95.153.002c-2.722-70.411-17.533-132.965-41.106-175.371z"/></svg>