<svg xmlns="http://www.w3.org/2000/svg" xmlns:xlink="http://www.w3.org/1999/xlink" width="512" height="512" viewBox="0 0 512 512"><path fill="currentColor" d="M362.667 256c58.91 0 106.666 47.756 106.666 106.667c0 58.91-47.756 106.666-106.666 106.666S256 421.577 256 362.667S303.756 256 362.667 256m15.377 122.667h-30.755c1.422 18.054 5.206 34.265 10.618 46.293c1.381 3.07 2.793 5.687 4.153 7.813l.607.891l.606-.891a55 55 0 0 0 2.765-4.896l1.388-2.917c5.413-12.028 9.197-28.239 10.618-46.293m57.571 0H410.13c-1.208 17.853-4.408 34.257-9.08 48.06c17.349-10.42 30.116-27.685 34.565-48.06m-120.412 0h-25.485c4.449 20.376 17.217 37.641 34.566 48.059c-4.673-13.8-7.872-30.205-9.08-48.059M384 64l.002 172.437a129 129 0 0 0-21.335-1.77c-70.693 0-128 57.307-128 128c0 14.96 2.566 29.322 7.283 42.667H64V160l128 74.667V160l128 74.667V64zm-59.716 234.606l-.949.58c-16.865 10.472-29.25 27.478-33.616 47.48h25.484c1.209-17.853 4.408-34.257 9.08-48.06m38.383-6.958l-.607.912c-1.36 2.126-2.772 4.744-4.153 7.814c-5.412 12.027-9.196 28.238-10.618 46.292h30.755c-1.422-18.054-5.205-34.265-10.618-46.292c-1.381-3.07-2.793-5.688-4.153-7.814zm38.383 6.96l.355 1.063c4.48 13.578 7.548 29.599 8.725 46.995h25.485c-4.449-20.375-17.217-37.64-34.565-48.058"/></svg>