<svg xmlns="http://www.w3.org/2000/svg" xmlns:xlink="http://www.w3.org/1999/xlink" width="512" height="512" viewBox="0 0 512 512"><path fill="currentColor" fill-rule="evenodd" d="M277.334 64c106.038 0 192 85.961 192 192s-85.962 192-192 192c-52.074 0-99.306-20.73-133.893-54.389l29.755-30.58c26.9 26.179 63.636 42.302 104.138 42.302c82.474 0 149.333-66.858 149.333-149.333s-66.859-149.333-149.333-149.333S128 173.525 128 256q.001 6.065.476 12.008l42.19-42.178l30.17 30.17l-94.17 94.17L12.498 256l30.17-30.17l43.094 43.086A195 195 0 0 1 85.334 256c0-106.039 85.96-192 192-192m21.333 106.667v95.146l54.4 36.48l-23.467 35.414l-73.6-48.854V170.667z"/></svg>