<svg xmlns="http://www.w3.org/2000/svg" xmlns:xlink="http://www.w3.org/1999/xlink" width="512" height="512" viewBox="0 0 512 512"><path fill="currentColor" fill-rule="evenodd" d="M490.667 448v42.667H384V448zm-128 0v42.667H320V448zm128-64v42.667H384V384zm-128 0v42.667H320V384zM165.49 303.843c23.164 23.164 55.164 37.49 90.51 37.49c14.96 0 29.322-2.566 42.668-7.283v44.573C285.031 382.133 270.733 384 256 384c-47.129 0-89.796-19.103-120.68-49.988zM490.667 320v42.667H384V320zm-128 0v42.667H320V320zM256 42.667c94.256 0 170.667 76.41 170.667 170.667c0 31.086-8.312 60.23-22.833 85.334l-52.43.002C371.675 276.024 384 246.118 384 213.334c0-70.693-57.308-128-128-128s-128 57.307-128 128c0 4.025.186 8.008.55 11.938l20.783-20.775l30.17 30.17l-72.836 72.837l-72.837-72.837L64 204.497l21.82 21.812q-.486-6.426-.487-12.975c0-94.257 76.41-170.667 170.667-170.667m21.333 64v95.147l54.4 36.48l-23.466 35.413l-73.6-48.853V106.667z"/></svg>