<svg xmlns="http://www.w3.org/2000/svg" xmlns:xlink="http://www.w3.org/1999/xlink" width="512" height="512" viewBox="0 0 512 512"><path fill="currentColor" fill-rule="evenodd" d="m268.078 387.728l.393.3l.115.087za85.7 85.7 0 0 0 12.6 8.028a85 85 0 0 0 4.824 2.319l.058.025l.145.064a85 85 0 0 0 16.477 5.307a85 85 0 0 0 5.17.932L281.29 465.8l-39.274-16.671zm103.846-.004l26.063 61.402l-39.275 16.672l-26.06-61.396a85 85 0 0 0 11.796-2.623a84.7 84.7 0 0 0 17.16-7.26a85 85 0 0 0 4.308-2.579l.147-.094l.073-.047a85 85 0 0 0 5.443-3.811zM319.996 256C355.35 256 384 284.652 384 319.999c0 35.35-28.651 64.001-64.004 64.001C284.65 384 256 355.348 256 319.999C256 284.652 284.649 256 319.996 256M448 64v298.667h-54.081a85 85 0 0 0 6.102-12.961a84.7 84.7 0 0 0 4.886-21.123l.02-.203l.015-.153a86 86 0 0 0 .391-8.229V106.667H106.667V320h127.999l.012 1.41a87 87 0 0 0 .55 8.437a85 85 0 0 0 2.237 11.909a84 84 0 0 0 2.012 6.562a85 85 0 0 0 1.286 3.42l.1.248l.048.119a85 85 0 0 0 5.17 10.561H64V64zM319.999 298.667c-11.783 0-21.332 9.55-21.332 21.333s9.55 21.333 21.332 21.333c11.784 0 21.334-9.55 21.334-21.333s-9.55-21.333-21.334-21.333M149.333 149.333h213.334V192H149.333zm0 85.334h85.334v42.666h-85.334z" opacity=".85"/></svg>