<svg xmlns="http://www.w3.org/2000/svg" xmlns:xlink="http://www.w3.org/1999/xlink" width="512" height="512" viewBox="0 0 512 512"><path fill="currentColor" fill-rule="evenodd" d="M256 42.667c70.49 0 128 57.695 128 128v88.022c-22.126 5.695-40.779 20.04-52.138 39.215l-.446.762l-203.416.001v128l298.667-.001v42.668H85.332V256H128v-85.333c0-70.305 57.51-128 128-128m149.333 234.667c35.346 0 64 28.653 64 64c0 35.346-28.654 64-64 64c-27.866 0-51.572-17.81-60.358-42.666l-67.642-.001v42.667h-64v-42.667H192V320h152.975c8.786-24.857 32.492-42.666 60.358-42.666m0 42.666C393.551 320 384 329.552 384 341.334s9.55 21.333 21.333 21.333s21.333-9.551 21.333-21.333S417.116 320 405.333 320M256 85.334c-46.858 0-84.573 38.22-85.322 83.945l-.012 1.388V256h170.667v-85.333c0-46.337-38.003-85.333-85.333-85.333"/></svg>