<svg xmlns="http://www.w3.org/2000/svg" xmlns:xlink="http://www.w3.org/1999/xlink" width="512" height="512" viewBox="0 0 512 512"><path fill="currentColor" fill-rule="evenodd" d="M225.858 66.352c-27.657 30.349-44.525 70.695-44.525 114.981C181.333 275.59 257.743 352 352 352c29.07 0 56.444-7.269 80.401-20.087C403.001 400.186 335.084 448 256 448c-106.039 0-192-85.962-192-192c0-95.784 70.139-175.186 161.858-189.648m-86.36 96.192c-20.628 25.8-32.831 58.343-32.831 93.456c0 82.474 66.858 149.333 149.333 149.333c21.367 0 41.9-4.527 60.547-12.797l1.277-.616l-1-.14c-99.176-16.454-175.24-101.319-178.075-204.476l-.082-5.971c0-4.896.166-9.768.494-14.607z"/></svg>