<svg xmlns="http://www.w3.org/2000/svg" xmlns:xlink="http://www.w3.org/1999/xlink" width="512" height="512" viewBox="0 0 512 512"><path fill="currentColor" d="m392.18 256l.001 22.836a88.8 88.8 0 0 1 28.134 16.267l19.797-11.43l29.63 51.32l-19.784 11.424a89.4 89.4 0 0 1 1.482 16.25c0 5.55-.509 10.981-1.482 16.25l19.784 11.423l-29.63 51.32l-19.797-11.43a88.8 88.8 0 0 1-28.134 16.267v22.836h-59.26v-22.836a88.8 88.8 0 0 1-28.134-16.266L284.99 441.66l-29.63-51.32l19.784-11.423a89.4 89.4 0 0 1-1.482-16.25c0-5.55.509-10.983 1.482-16.251l-19.784-11.423l29.63-51.32l19.796 11.43a88.8 88.8 0 0 1 28.135-16.267V256zm12.434 67.99l-52.67 52.66l-28.132-28.121l-17.35 17.35l45.482 45.483l70.02-70.02zM384 64l.002 172.437a129 129 0 0 0-21.335-1.77c-37.908 0-71.968 16.479-95.405 42.664l-160.595.002v85.334h128c0 14.96 2.566 29.322 7.283 42.667H64V160l128 74.667V160l128 74.667V64z"/></svg>