<svg xmlns="http://www.w3.org/2000/svg" xmlns:xlink="http://www.w3.org/1999/xlink" width="512" height="512" viewBox="0 0 512 512"><path fill="currentColor" fill-rule="evenodd" d="m392.18 256l.001 22.836a88.8 88.8 0 0 1 28.134 16.267l19.797-11.43l29.63 51.32l-19.784 11.424a89.4 89.4 0 0 1 1.482 16.25c0 5.55-.509 10.981-1.482 16.25l19.784 11.423l-29.63 51.32l-19.797-11.43a88.8 88.8 0 0 1-28.134 16.267v22.836h-59.26v-22.836a88.8 88.8 0 0 1-28.134-16.266L284.99 441.66l-29.63-51.32l19.784-11.423a89.4 89.4 0 0 1-1.482-16.25c0-5.55.509-10.983 1.482-16.251l-19.784-11.423l29.63-51.32l19.796 11.43a88.8 88.8 0 0 1 28.135-16.267V256zm-29.63 71.111c-19.636 0-35.555 15.919-35.555 35.556s15.92 35.555 35.556 35.555c19.637 0 35.555-15.919 35.555-35.555c0-19.637-15.918-35.556-35.555-35.556M106.668 64v128l106.666-53.333V192L320 138.667V241.95c-15.9 5.62-30.357 14.292-42.67 25.312l.003-53.929H106.667v64l160.595-.002c-11.02 12.312-19.692 26.769-25.312 42.668L64 320V64z"/></svg>