<svg xmlns="http://www.w3.org/2000/svg" xmlns:xlink="http://www.w3.org/1999/xlink" width="512" height="512" viewBox="0 0 512 512"><path fill="currentColor" d="M405.333 256v170.667H288c-5.891 0-10.667 4.775-10.667 10.666S282.11 448 288 448h138.667V298.667H448v170.666H276.202c-11.157 0-20.202-9.184-20.202-20.512V276.513c0-11.33 9.045-20.513 20.202-20.513zm-58.666 85.333h-32l.046 64.146l31.954-.146zM384 64v170.666H277.333c-23.328 0-42.284 18.723-42.66 41.962l-.006.705l-.001 128H64V160l128 74.667V160l128 74.667V64zm-53.333 215.467c-10.604 0-19.2 8.596-19.2 19.2s8.596 19.2 19.2 19.2s19.2-8.596 19.2-19.2s-8.596-19.2-19.2-19.2"/></svg>