<svg xmlns="http://www.w3.org/2000/svg" xmlns:xlink="http://www.w3.org/1999/xlink" width="512" height="512" viewBox="0 0 512 512"><path fill="currentColor" fill-rule="evenodd" d="m384 256l84.885 20.587l-.11 8.629l.025 46.642l.06 12.71c.28 54.816-29.402 88.414-53.734 106.73l-5.504 3.958l-7.689 4.955l-4.607 2.673l-4.08 2.187l-6.191 2.98l-3.055 1.282l-3.193-1.341l-2.855-1.322l-3.602-1.795l-5.396-2.936l-6.2-3.734l-5.406-3.584c-24.11-16.708-56.201-48.868-58.545-102.576l-.136-6.293v-69.04zm0 43.883l-42.667 10.368l-.01 34.577l.106 5.357c1.252 28.676 14.66 50.187 35.505 65.982l3.994 2.895l3.03 2.037l.079-.052V299.891zM106.667 64v128l106.666-53.333V192L320 138.667V250.2l-42.667 10.357V320H64V64z"/></svg>