<svg xmlns="http://www.w3.org/2000/svg" xmlns:xlink="http://www.w3.org/1999/xlink" width="512" height="512" viewBox="0 0 512 512"><path fill="currentColor" fill-rule="evenodd" d="m379.697 277.331l.012 19.221a69.4 69.4 0 0 1 32.073 18.268l16.911-9.602l17.314 29.559l-16.877 9.628a67.4 67.4 0 0 1 2.505 18.259c0 6.323-.873 12.448-2.505 18.259l16.877 9.628l-17.314 29.56l-16.911-9.602a69.4 69.4 0 0 1-32.073 18.267l-.012 19.222h-34.624l.004-19.218a69.4 69.4 0 0 1-32.09-18.271l-16.911 9.602l-17.314-29.56l16.881-9.61a67.5 67.5 0 0 1-2.508-18.277c0-6.329.874-12.458 2.508-18.276l-16.881-9.611l17.314-29.559l16.911 9.602a69.4 69.4 0 0 1 32.09-18.272l-.004-19.217zm-234.568 42.674c10.858 18.852 26.675 35.184 46.871 46.844c20.862 12.045 43.706 17.549 66.157 17.15c3.074 15.228 9.426 29.3 18.277 41.433c-35.418 4.315-72.484-2.416-105.768-21.633c-26.927-15.546-48.014-37.323-62.495-62.456zm217.256 8.526c-19.124 0-34.624 15.281-34.624 34.133s15.5 34.134 34.624 34.134c19.123 0 34.624-15.281 34.624-34.134c0-18.852-15.501-34.133-34.624-34.133M256.003 85.302v42.675c-21.755-.022-43.808 5.51-64.003 17.169c-32.831 18.955-54.088 50.257-61.292 84.654l27.199-15.703l21.334 36.95l-92.376 53.334l-53.334-92.377l36.95-21.333l18.224 31.563c9.366-46.321 37.817-88.551 81.961-114.038c26.928-15.547 56.33-22.92 85.337-22.894m149.33.029v42.667h-36.446c35.433 31.272 57.779 77.026 57.779 128c0 6.904-.41 13.713-1.207 20.403a106.15 106.15 0 0 0-41.492-18.305l.033-2.098c0-37.91-16.48-71.97-42.667-95.408v31.408h-42.667V85.331z" clip-rule="evenodd"/></svg>