<svg xmlns="http://www.w3.org/2000/svg" xmlns:xlink="http://www.w3.org/1999/xlink" width="512" height="512" viewBox="0 0 512 512"><path fill="currentColor" fill-rule="evenodd" d="m318.458 50.945l-39.323-16.557l-17.44 41.42l-5.246-1.141l-171.115 37.281V236.22l.273 11.328c4.7 96.674 69.051 154.562 117.399 184.636l2.524 1.503l-11.675 27.243l39.217 16.807L341.816 224h-96.223zm-95.94 343.103l54.592-127.381h-95.777l61.178-145.296L128 146.32v89.385l.248 10.264c3.812 74.235 51.889 120.97 94.27 148.079m62.472 52.062l7.42-3.863l15.418-8.92l11.037-7.124c48.792-32.968 108.311-93.445 107.75-192.113l-.119-22.879l-.05-83.956l.221-15.532l-87.553-19.06l-16.842 39.999l61.519 13.393l.037 65.181l.011 2.097h.913l-.902 2.104l.099 18.896c.377 66.311-32.759 111.562-68.818 141.448z" clip-rule="evenodd"/></svg>