<svg xmlns="http://www.w3.org/2000/svg" xmlns:xlink="http://www.w3.org/1999/xlink" width="512" height="512" viewBox="0 0 512 512"><path fill="currentColor" d="M405.333 320c35.347 0 64 28.653 64 64c0 35.346-28.653 64-64 64c-27.865 0-51.572-17.81-60.358-42.666l-67.642-.001V448h-64v-42.667H192v-42.667h152.975C353.761 337.809 377.468 320 405.333 320M384 85.333v216.023a85 85 0 0 0-27.883 12.927a85.7 85.7 0 0 0-24.697 27.052l-11.42-.001v-42.668H106.667V384l63.999-.001v42.667H64V181.333L192 256v-74.667L320 256V85.333zm21.333 277.333C393.551 362.666 384 372.218 384 384s9.551 21.333 21.333 21.333s21.334-9.551 21.334-21.333s-9.552-21.334-21.334-21.334"/></svg>