<svg xmlns="http://www.w3.org/2000/svg" xmlns:xlink="http://www.w3.org/1999/xlink" width="512" height="512" viewBox="0 0 512 512"><path fill="currentColor" fill-rule="evenodd" d="M448 192v213.334q-106.667 0-192 64q-85.334-64-192-64V192q106.667 0 192 64q85.333-64 192-64m-42.667 45.739l-6.458 1.03c-42.354 7.299-81.272 24.363-117.275 51.365l-25.6 19.2l-25.6-19.2c-36.003-27.002-74.921-44.066-117.275-51.366l-6.458-1.029v127.317l4.645.527c49.5 6.216 95.876 22.36 138.773 48.314l5.894 3.66l5.936-3.66c42.897-25.954 89.273-42.098 138.773-48.314l4.645-.527zM256 42.667c47.128 0 85.333 38.205 85.333 85.333S303.128 213.334 256 213.334S170.667 175.129 170.667 128c0-47.128 38.205-85.333 85.333-85.333m0 42.667c-23.564 0-42.667 19.102-42.667 42.666s19.103 42.667 42.667 42.667s42.667-19.103 42.667-42.667S279.564 85.334 256 85.334"/></svg>