<svg xmlns="http://www.w3.org/2000/svg" xmlns:xlink="http://www.w3.org/1999/xlink" width="24" height="24" viewBox="0 0 24 24"><path fill="currentColor" d="m6.461 19.066l-.279.768h.559ZM17.12 7.23a2.1 2.1 0 0 0-.549-.759a2.01 2.01 0 0 1-.858 2.176l-.03-.12a1.85 1.85 0 0 0 .668-1.238A2.175 2.175 0 0 0 14.6 4.8a2.52 2.52 0 0 1 .7 3.094l-.119-.1c.409-2.285-1.018-3.862-3.314-3.513a3.26 3.26 0 0 1 2.555 3.3l-.159-.02A3.12 3.12 0 0 0 13.078 5.3a2.86 2.86 0 0 0-3.962-.02c1.1-.209 3.423.02 4.211 2.066c.4 1.038-.05 2.076-1.4 2.805a2.9 2.9 0 0 1-.579-1.727a.5.5 0 0 1 .769-.309c.02-.21 0-.28-.339-.4l.069-.09c.4.149.629.259.689.5c.339-.579.279-.958-.409-1.1c-.01-.2-.04-.27-.24-.309a7 7 0 0 0-.648-.07a.07.07 0 0 1-.05-.04a2.7 2.7 0 0 1-.09-.519a4.4 4.4 0 0 0-.779.948a1.01 1.01 0 0 0-.758.549a1.1 1.1 0 0 1 .5-.07a.4.4 0 0 0-.06.11a1.5 1.5 0 0 0-1.018.8a1.6 1.6 0 0 1 .719-.2a1 1 0 0 0-.05.119a2.25 2.25 0 0 0-1.026 1.032a1.8 1.8 0 0 1 .639-.159c-.11.329-.23.539-.529.539c-.37 0-1.008.049-1.577.01a.55.55 0 0 1-.469-.29a4.3 4.3 0 0 1 .159-.738a9 9 0 0 1 .35-.929a17 17 0 0 1 1.966-.1c.189-.35.778-1.308 1.018-1.687a9.4 9.4 0 0 0-2.475.16A6.4 6.4 0 0 0 6.411 8.7c-.07.219-.119.449-.169.678a3 3 0 0 0-.37.2l.15.319a.45.45 0 0 0-.08.2a1 1 0 0 0 .03.479a1 1 0 0 1-.15.309a1.2 1.2 0 0 0 .34.09a7.4 7.4 0 0 0 .409 1.677a2 2 0 0 0-.16.329a1 1 0 0 0 .28.16a.75.75 0 0 0 .369.638a3 3 0 0 0-.06.31a3 3 0 0 0 .339-.05a6 6 0 0 0 .429.529A5.3 5.3 0 0 0 9.6 15.882a20.4 20.4 0 0 1 4.92.02a5.9 5.9 0 0 0 1.98-1.676c.659-1.048.05-2.166.1-2.685s.559-.4.549-.1c.369-.3.209-.659.02-.619a1 1 0 0 1 .05-.089a.24.24 0 0 1 .279.03c.09.079.11.2.05.379c-.1.329.18.708.579.469c-.23-.16-.03-.439.05-.659a.67.67 0 0 0-.4-.858a.93.93 0 0 0-.639 0a1.2 1.2 0 0 0-.519.389a2.7 2.7 0 0 0-.34 1.906a1.94 1.94 0 0 1-.049 1.028a1.96 1.96 0 0 0-1.218-1.257a10.5 10.5 0 0 1-1.886-.769c1.706.02 2.684 0 3.094-.988a3.3 3.3 0 0 1-1.527.23l.129-.11a3.15 3.15 0 0 0 1.6-.429a1.79 1.79 0 0 0 .789-1.557A1.99 1.99 0 0 1 15.5 9.685l.07-.14a1.82 1.82 0 0 0 1.55-2.315m-5.339-.24a.4.4 0 0 0 .149.04c.06.01.08.04.03.07a.5.5 0 0 0-.1.05c-.159.11-.249-.08-.429-.12c.06-.14.22-.09.35-.04m-3.573-.649l.309.689l.439-.739h.529a13 13 0 0 0-.708 1.158a6 6 0 0 0-.6.02l-.4-1.058zm-1.2 6.078c-.06-.169-.12-.339-.17-.5a7 7 0 0 1-.189-1.048l.12-.05a.97.97 0 0 0 .608.479c-.04-.149-.05-.3-.08-.429h.16a.87.87 0 0 0 .669.5a2 2 0 0 1-.14-.469l.2.01a.93.93 0 0 0 .728.639a2.4 2.4 0 0 1-.09-.619h.19c.04.18.12.469.2.709c-.36.189-.769.479-1.258.718a1.07 1.07 0 0 1-.946.06zm7.166 2.126a19 19 0 0 0-5.529.13a4 4 0 0 1-.449-.41a3.6 3.6 0 0 1-.479-.558l.07-.1a1 1 0 0 0 .858.179a1.1 1.1 0 0 1-.31-.379l.14-.06a1.04 1.04 0 0 0 .928.18a1.3 1.3 0 0 1-.379-.379l.15-.07a.83.83 0 0 0 .928.2a1.2 1.2 0 0 1-.339-.429l.129-.07c.619.559 1.048.629 2.765.589c1.189-.021 1.609.518 1.519 1.177zM2.01 2v20h20V2Zm2.535 18.673h-.679a.21.21 0 0 1-.2-.14l-.679-1.727c-.02-.04-.02-.089.01-.109s.04-.05.11-.05h.519l.579 1.547l.578-1.547H5.3c.08 0 .09.01.12.05c.02.02.02.059.01.109l-.678 1.727a.23.23 0 0 1-.207.14m3.134-.05a.16.16 0 0 1-.11.05H7.04l-.12-.33H6l-.12.33h-.527a.16.16 0 0 1-.109-.05a.2.2 0 0 1-.01-.11l.688-1.727a.2.2 0 0 1 .21-.139H6.8a.2.2 0 0 1 .2.139l.689 1.727a.2.2 0 0 1-.01.11m2.126-.779c0 .669-.44.889-1.038.889s-1.038-.23-1.048-.889v-1.078a.117.117 0 0 1 .129-.119h.529v1.2c0 .22.07.38.39.38a.338.338 0 0 0 .379-.38v-1.2h.539a.11.11 0 0 1 .12.119zm2.425.819h-.619l-.519-.619l-.509.619h-.629c-.06 0-.1-.03-.1-.09a.15.15 0 0 1 .03-.07l.789-.918l-.629-.769a.13.13 0 0 1-.03-.079a.09.09 0 0 1 .1-.09h.609l.369.479l.379-.479h.6a.087.087 0 0 1 .1.09a.1.1 0 0 1-.03.079l-.619.769l.768.908a.12.12 0 0 1 .04.08a.087.087 0 0 1-.1.09m2.415-.11c0 .08-.03.11-.12.11H14v-.8h-.808v.8h-.529c-.08 0-.12-.04-.12-.11v-1.787c0-.079.05-.119.13-.119h.519v.708H14v-.708h.529c.1 0 .12.05.12.129zm2.654.07c-.02.03-.039.05-.109.05l-.529.01l-.12-.34h-.908l-.13.34l-.519-.01c-.07 0-.09-.02-.11-.05a.1.1 0 0 1-.01-.11l.679-1.727a.2.2 0 0 1 .21-.139h.668a.22.22 0 0 1 .21.139l.678 1.737a.11.11 0 0 1-.009.1zm1.867-.07q0 .105-.12.12h-1.357a.16.16 0 0 1-.16-.16v-1.747c0-.079.04-.119.13-.119h.519v1.517h.988zm-7.156-2.735a7.405 7.405 0 1 1 7.325-7.405a7.366 7.366 0 0 1-7.325 7.405m9.032 2.735q0 .105-.12.12h-1.357c-.1-.01-.16-.06-.16-.16v-1.747c0-.079.04-.119.13-.119h.519v1.517h.988zm-4.96-1.487l-.27.778h.549z"/></svg>