<svg xmlns="http://www.w3.org/2000/svg" xmlns:xlink="http://www.w3.org/1999/xlink" width="72" height="72" viewBox="0 0 72 72"><path fill="#5C9E31" d="M47.9 9.133c.003-.09-.018-.186-.02-.277a5 5 0 0 0-.037-.507c-.013-.091-.019-.18-.037-.271a5.3 5.3 0 0 0-.267-.99c-1.445-3.736-5.958-4.914-9.268-2.859c-2.541 1.579-3.972 4.473-4.87 7.227c-.868 2.656-1.369 5.49-1.536 8.3l.018-.003l-.008.083a19 19 0 0 1 2.86-.348l.008-.08a24 24 0 0 1 1.14-.027c1.711 0 3.112.172 4.247.424c-1.124-2.89-1.928-6.282-1.03-9.163c.387-1.238 1.095-2.506 2.312-3.145c1.362-.717 3.448-.157 2.959 1.75c-.096.373-.421.56-.616.863c-.898 1.388.34 2.317 1.652 1.985c1.641-.414 2.4-1.626 2.463-3.025z"/><path fill="#F4AA41" d="m26.642 19.757l.01-.005c-.125-.045-.25-.079-.375-.12q-.226-.077-.452-.144a15 15 0 0 0-.533-.142q-.226-.06-.45-.11c-.175-.04-.348-.07-.521-.101q-.225-.042-.449-.077c-.17-.025-.34-.042-.508-.06c-.15-.016-.298-.033-.446-.043q-.248-.016-.496-.022q-.22-.01-.44-.011c-.164 0-.326.008-.488.014c-.144.006-.288.01-.43.022q-.242.019-.48.05c-.14.016-.282.03-.421.051q-.236.037-.47.084q-.208.037-.411.08q-.234.055-.463.118c-.133.036-.267.069-.399.108c-.153.047-.304.1-.455.15c-.129.045-.258.086-.384.134q-.227.087-.45.183q-.185.076-.369.157q-.224.104-.443.216c-.117.059-.236.115-.352.177q-.22.12-.436.248q-.17.096-.336.197q-.217.136-.429.28q-.16.104-.319.213q-.213.152-.422.312q-.15.11-.3.226q-.209.168-.413.344q-.142.119-.283.24q-.205.182-.402.373q-.136.123-.267.251q-.2.2-.394.406q-.124.127-.247.257q-.194.215-.383.436q-.115.13-.229.264q-.187.228-.369.463c-.07.09-.144.18-.213.271q-.181.242-.355.49q-.1.138-.197.276q-.172.254-.337.514l-.183.282c-.109.175-.212.354-.317.533q-.086.144-.17.29q-.153.273-.297.551q-.08.148-.157.295q-.142.285-.278.575l-.14.293q-.13.289-.252.58l-.133.31q-.123.306-.237.617l-.109.285q-.108.307-.207.615c-.034.103-.071.204-.103.307c-.065.205-.122.41-.18.617q-.047.157-.091.314q-.087.325-.161.652c-.023.096-.05.192-.072.289q-.077.352-.143.707c-.015.08-.034.16-.048.24q-.076.426-.135.85l-.016.103c-.302 2.21-.27 4.452.076 6.645c.172 1.099.418 2.186.752 3.25a24 24 0 0 0 1.796 4.232a22 22 0 0 0 2.252 3.39c.084.103.174.2.26.3c.179.213.357.427.545.632l.002.002q.378.411.752.787q.124.124.247.244a28 28 0 0 0 .782.741a25 25 0 0 0 1.214 1.03q.125.1.25.197q.312.24.62.456l.082.06q.345.24.683.453l.233.142a17 17 0 0 0 .71.41a15 15 0 0 0 1.07.53q.12.055.238.105q.252.107.5.2l.12.047q.302.11.596.2l.204.06a12 12 0 0 0 .614.161a12 12 0 0 0 .914.175l.198.03q.21.026.413.044l.106.01q.253.02.494.028l.153.002q.166.004.328.001q.086 0 .171-.004a10 10 0 0 0 .742-.053l.136-.015q.175-.02.34-.049l.058-.008q.195-.033.378-.072l.08-.018q.139-.03.27-.063l.1-.027q.12-.03.23-.064l.089-.026l.223-.072l.062-.021q.28-.099.497-.19l.003-.002l.153-.067h-.001c.347-.158.534-.278.534-.278c1.47 1.463 7.67 1.715 8.089 1.73h.045c.419-.015 6.62-.267 8.089-1.73c0 0 6.843 4.436 15.588-5.086c7.038-7.045 7.9-20.523 2.017-28.668a17 17 0 0 0-1.844-2.15a17.5 17.5 0 0 0-3.528-2.702c-3.633-2.084-7.825-2.376-11.726-.892c0 0-2.028-2.488-8.619-2.488s-8.618 2.488-8.618 2.488c-.11-.041-.218-.073-.327-.112"/><path fill="#E27022" d="M44.588 59.645c1.75.803 7.67 2.592 14.904-5.364c2.196-2.414 3.827-5.404 4.805-8.555a23.05 23.05 0 0 0 .82-9.894c-1.364-10.115-9.731-19.865-20.242-16.08c5.759 2.711 9.814 9.439 10.743 16.328a24 24 0 0 1-.852 10.285c-1.017 3.276-2.712 6.383-4.994 8.894c-1.823 2.004-3.565 3.414-5.184 4.386"/><path fill="#FCEA2B" d="M20 48s15 10 32 0c0 0-16 20-32 0m15.896-.072l-1.711-2.964L32.473 42h6.846l-1.712 2.964zm13.078-10.083a5 5 0 0 0 2.956-6.424l-9.38 3.468a5 5 0 0 0 6.424 2.956m-26.156 0a5 5 0 0 1-2.956-6.424l9.38 3.468a5 5 0 0 1-6.424 2.956"/><g fill="none" stroke="#000" stroke-linecap="round" stroke-linejoin="round" stroke-miterlimit="10" stroke-width="2"><path d="M39.4 17.66c-.68-2.34-.98-4.83-.3-7.02c.39-1.24 1.1-2.5 2.31-3.14c1.36-.72 3.45-.16 2.96 1.75c-.09.37-.42.56-.62.86c-.89 1.39.35 2.32 1.66 1.99c1.64-.42 2.4-1.63 2.46-3.03l.03.06c0-.09-.02-.18-.02-.27c0-.17-.02-.34-.04-.51l-.03-.27a5.2 5.2 0 0 0-.27-.99c-1.45-3.74-5.96-4.92-9.27-2.86c-2.54 1.58-3.97 4.47-4.87 7.23a32 32 0 0 0-1.36 6.26"/><path d="M7.135 33.932q-.076.352-.142.707c-.015.08-.034.16-.048.24q-.075.426-.133.85l-.017.103a23.1 23.1 0 0 0 .076 6.645c.17 1.098.414 2.186.744 3.25a24 24 0 0 0 1.779 4.232a22 22 0 0 0 2.23 3.39c.082.103.171.2.256.3c.178.213.354.427.54.632l.002.002q.375.411.744.787q.123.124.245.244a28 28 0 0 0 .774.741a24 24 0 0 0 1.202 1.03q.123.1.247.197q.31.24.614.456l.081.06q.342.24.677.453q.116.073.231.142a16 16 0 0 0 .702.41a15 15 0 0 0 1.06.53q.118.054.235.105q.25.106.494.2l.12.047q.3.11.59.2l.202.06a12 12 0 0 0 .608.161a11 11 0 0 0 .905.175l.195.03q.208.026.41.044q.052.006.105.01q.25.02.489.028l.15.002q.166.003.326.001l.17-.004a10 10 0 0 0 .734-.053l.135-.015q.172-.02.336-.049l.057-.008a9 9 0 0 0 .374-.072l.08-.018q.137-.03.268-.064l.099-.026q.117-.03.227-.064l.087-.026l.222-.072l.061-.021q.277-.099.492-.19l.003-.002l.151-.067q0 0 0 0c.343-.158.529-.279.529-.279c1.454 1.464 7.593 1.716 8.008 1.731h.044c.415-.015 6.553-.267 8.008-1.73c0 0 6.776 4.436 15.433-5.086c6.967-7.045 7.821-20.524 1.996-28.668a17 17 0 0 0-1.824-2.15a17.3 17.3 0 0 0-3.494-2.702c-3.596-2.084-7.746-2.377-11.609-.892c0 0-2.008-2.489-8.532-2.489s-8.532 2.49-8.532 2.49c-.109-.042-.215-.074-.324-.113"/><path d="m27.027 19.757l.01-.005c-.124-.045-.247-.079-.371-.12q-.225-.077-.447-.144a14 14 0 0 0-.528-.142q-.224-.06-.446-.11c-.173-.04-.344-.07-.516-.101q-.223-.042-.444-.077c-.169-.025-.336-.042-.504-.06c-.147-.016-.294-.033-.44-.043q-.247-.016-.492-.022q-.218-.01-.435-.011c-.163 0-.323.008-.483.014c-.143.006-.286.01-.427.022q-.24.019-.474.05c-.14.016-.28.03-.418.051q-.233.037-.465.084q-.204.037-.407.08q-.23.055-.458.118c-.132.036-.264.069-.395.108c-.151.047-.3.1-.45.15c-.128.045-.255.086-.381.134q-.224.087-.444.183q-.185.076-.366.157q-.221.104-.439.216c-.116.059-.234.115-.348.177q-.219.12-.432.248q-.167.096-.333.197q-.213.136-.424.28q-.16.104-.316.213q-.212.152-.418.312q-.15.11-.296.226q-.208.168-.41.344l-.28.24q-.202.182-.398.373q-.134.123-.264.251q-.199.2-.39.406q-.124.127-.245.257q-.192.215-.38.436q-.114.13-.226.264M20 48s15 10 32 0c0 0-16 20-32 0m15.896-.072l-1.711-2.964L32.473 42h6.846l-1.712 2.964zm13.078-10.083a5 5 0 0 0 2.956-6.424l-9.38 3.468a5 5 0 0 0 6.424 2.956m-26.156 0a5 5 0 0 1-2.956-6.424l9.38 3.468a5 5 0 0 1-6.424 2.956"/></g></svg>