<svg xmlns="http://www.w3.org/2000/svg" xmlns:xlink="http://www.w3.org/1999/xlink" width="24" height="24" viewBox="0 0 24 24"><g fill="none"><g clip-path="url(#siFlareDuotone0)"><path fill="currentColor" fill-opacity=".16" d="M12 14a2 2 0 1 0 0-4a2 2 0 0 0 0 4"/><path stroke="currentColor" stroke-linecap="round" stroke-miterlimit="10" stroke-width="1.5" d="M7 12H1m22 0h-6m-5 5v6m3.536-7.464l1.414 1.414m-9.9-9.9l1.414 1.414m7.072 0L16.95 7.05m-9.9 9.9l1.414-1.414M12 1v6m2 5a2 2 0 1 1-4 0a2 2 0 0 1 4 0Z"/></g><defs><clipPath id="siFlareDuotone0"><path fill="#fff" d="M0 0h24v24H0z"/></clipPath></defs></g></svg>