<svg xmlns="http://www.w3.org/2000/svg" xmlns:xlink="http://www.w3.org/1999/xlink" width="48" height="48" viewBox="0 0 48 48"><path fill="none" stroke="currentColor" stroke-linecap="round" stroke-linejoin="round" d="M38.5 5.5h-29a4 4 0 0 0-4 4v29a4 4 0 0 0 4 4h29a4 4 0 0 0 4-4v-29a4 4 0 0 0-4-4"/><path fill="none" stroke="currentColor" stroke-linecap="round" stroke-linejoin="round" d="m16.063 18.542l3.75-2.042v15m12.124-3.75a3.75 3.75 0 0 1-3.75 3.75h0a3.75 3.75 0 0 1-3.75-3.75v-2.437a3.75 3.75 0 0 1 3.75-3.75h0a3.75 3.75 0 0 1 3.75 3.75m0 6.187v-9.937"/></svg>