<svg xmlns="http://www.w3.org/2000/svg" xmlns:xlink="http://www.w3.org/1999/xlink" width="48" height="48" viewBox="0 0 48 48"><path fill="none" stroke="currentColor" stroke-linecap="round" stroke-linejoin="round" d="M38.5 5.5h-29c-2.2 0-4 1.8-4 4v29c0 2.2 1.8 4 4 4h29c2.2 0 4-1.8 4-4v-29c0-2.2-1.8-4-4-4"/><path fill="none" stroke="currentColor" stroke-linecap="round" stroke-linejoin="round" d="M27.7 16.5v15.1h-7.5v-15C15.9 18.2 13 22.3 13 27c0 6.1 4.9 11 11 11s11-4.9 11-11c.1-4.8-2.9-9-7.3-10.5m-7.5-3.1h7.5"/><path fill="none" stroke="currentColor" stroke-linecap="round" stroke-linejoin="round" d="M20.2 9.1h7.5v22.4h-7.5z"/></svg>