<svg xmlns="http://www.w3.org/2000/svg" xmlns:xlink="http://www.w3.org/1999/xlink" width="48" height="48" viewBox="0 0 48 48"><ellipse cx="23.288" cy="24.224" fill="none" stroke="currentColor" stroke-linecap="round" stroke-linejoin="round" rx="11.249" ry="11.264"/><path fill="none" stroke="currentColor" stroke-linecap="round" stroke-linejoin="round" d="M11.84 21.039c-4.143-3.602-5.233-8.89-4.006-15.428m7.456 7.712c-.458-.825-1.223-1.692-1.988-2.316m7.411-.711c-.055-1.037-.03-1.956-.73-2.996m7.421 3.553s.09-1.734.648-2.435m3.237 4.329l1.278-1.506m1.243 17.406c2.207 3.717 3.996 7.228 7.497 11.072m-17.578-4.7l-.103 6.062L26.43 42.5m-4.855-8.428l-.223 6.978l-2.509 1.29m-3.67-19.987c4.94 4.934 12.141 4.725 15.643-1.83"/><path fill="none" stroke="currentColor" stroke-linecap="round" stroke-linejoin="round" d="M17.723 22.474c-.28-6.121 4.009-6.28 4.058-.35m1.828.101c1.19-5.536 3.585-5.962 3.574-.356m12.403 18.577l.007-2.668c.968.166 1.646.195 2.47-.017M5.938 5.5c.34 1.37.947 2.155 1.466 2.803l2.24-2.132"/></svg>