<svg xmlns="http://www.w3.org/2000/svg" xmlns:xlink="http://www.w3.org/1999/xlink" width="48" height="48" viewBox="0 0 48 48"><path fill="none" stroke="currentColor" stroke-linecap="round" stroke-linejoin="round" d="M9.5 5.5a4 4 0 0 0-4 4v29a4 4 0 0 0 4 4h29a4 4 0 0 0 4-4v-29a4 4 0 0 0-4-4z"/><path fill="none" stroke="currentColor" stroke-linecap="round" stroke-linejoin="round" d="M34.005 29.651a3.78 3.78 0 0 1-3.284 1.907h0a3.78 3.78 0 0 1-3.78-3.779v-2.456a3.78 3.78 0 0 1 3.78-3.78h0a3.78 3.78 0 0 1 3.78 3.78v1.228h-7.56"/><path fill="none" stroke="currentColor" stroke-linecap="round" stroke-linejoin="round" stroke-width=".866" d="M19.736 24a3.78 3.78 0 1 1 0 7.559H13.5V16.442h6.236a3.78 3.78 0 1 1 0 7.558m0 0H13.5"/><path fill="none" stroke="currentColor" stroke-linecap="round" stroke-linejoin="round" d="M26.942 16.442H34.5"/></svg>