<svg xmlns="http://www.w3.org/2000/svg" xmlns:xlink="http://www.w3.org/1999/xlink" width="48" height="48" viewBox="0 0 48 48"><path fill="none" stroke="currentColor" stroke-linecap="round" stroke-linejoin="round" stroke-width=".866" d="M27.126 24.838a5.326 5.326 0 1 1-2.757 10.289l-8.489-2.275l5.514-20.578l8.488 2.275a5.326 5.326 0 1 1-2.757 10.289Zm0 0l-8.489-2.275m2.757-10.289l-3.015-.808M15.88 32.852l-3.015-.808m11.146-19.069l.978-3.648m3.222 4.774l.977-3.649M17.52 37.202l.977-3.649m3.222 4.774l.978-3.648"/><path fill="none" stroke="currentColor" stroke-linecap="round" stroke-linejoin="round" d="M38.5 5.5h-29a4 4 0 0 0-4 4v29a4 4 0 0 0 4 4h29a4 4 0 0 0 4-4v-29a4 4 0 0 0-4-4"/></svg>