<svg xmlns="http://www.w3.org/2000/svg" xmlns:xlink="http://www.w3.org/1999/xlink" width="48" height="48" viewBox="0 0 48 48"><path fill="none" stroke="currentColor" stroke-linecap="round" stroke-linejoin="round" d="M38.5 5.093h-29a4 4 0 0 0-4 4l.001 33H38.5a4 4 0 0 0 4-4v-29a4 4 0 0 0-4-4m-5.617 28.906a2.47 2.47 0 0 1-2.464-2.475a2.47 2.47 0 0 1 2.464-2.476a2.475 2.475 0 0 1 0 4.951"/><path fill="none" stroke="currentColor" stroke-linecap="round" stroke-linejoin="round" stroke-width=".866" d="M22.89 23.998a5 5 0 0 1 0 9.999h-8.249V13.999h8.25a5 5 0 0 1 0 9.999Zm0 0h-8.249"/></svg>