<svg xmlns="http://www.w3.org/2000/svg" xmlns:xlink="http://www.w3.org/1999/xlink" width="48" height="48" viewBox="0 0 48 48"><path fill="none" stroke="currentColor" stroke-linecap="round" stroke-linejoin="round" d="M38.5 5.5h-29a4 4 0 0 0-4 4v29a4 4 0 0 0 4 4h29a4 4 0 0 0 4-4v-29a4 4 0 0 0-4-4M14.145 26.7L21.3 37.5m0-10.8l-7.155 10.8"/><path fill="none" stroke="currentColor" stroke-linecap="round" stroke-linejoin="round" d="M26.7 17.723a3.577 3.577 0 1 0 7.155 0v-3.645a3.577 3.577 0 1 0-7.155 0z"/><path fill="none" stroke="currentColor" stroke-linecap="round" stroke-linejoin="round" stroke-width=".866" d="M18.6 15.9a2.7 2.7 0 1 1 0 5.4h-4.455V10.5H18.6a2.7 2.7 0 1 1 0 5.4m0 0h-4.455"/><path fill="none" stroke="currentColor" stroke-linecap="round" stroke-linejoin="round" d="M26.7 32.1h7.155"/></svg>