<svg xmlns="http://www.w3.org/2000/svg" xmlns:xlink="http://www.w3.org/1999/xlink" width="48" height="48" viewBox="0 0 48 48"><g fill="none" stroke="currentColor" stroke-linecap="round" stroke-linejoin="round"><path d="M23.792 20.44c-1.996 0-3.623 1.623-3.623 3.617s1.627 3.619 3.623 3.619s3.623-1.624 3.623-3.619s-1.627-3.618-3.623-3.618"/><path d="M21.212 26.874c1.982 1.713 2.275 4.24 1.654 6.683c-.621 2.441-2.717 4.53-5.317 5.247s-4.98.266-6.946-1.462m18.89 5.148l5.904-6.856m-6.063-6.127l-2.675-.555l-6.135 13.538M5.499 22.813l14.269 5.202M14.8 15.052l11.005 4.36m2.22-2.687l5.406-2.053m7.963-7.93l-14.87 14.87M6.558 6.797l14.58 14.7M6.568 41.214l14.57-14.57m20.1 14.766L26.407 26.58"/></g><path fill="none" stroke="currentColor" stroke-linecap="round" stroke-linejoin="round" d="M38.5 5.5h-29a4 4 0 0 0-4 4v29a4 4 0 0 0 4 4h29a4 4 0 0 0 4-4v-29a4 4 0 0 0-4-4"/><path fill="none" stroke="currentColor" stroke-linecap="round" stroke-linejoin="round" d="M8.093 8.364c7.15.108 16.893-.747 23.958-2.845m5.424 5.143C33.972 18.85 35.13 28.664 42.5 36.009M28.725 19.411c-.5 3.645.198 10.192 3.073 12.582"/><circle cx="16.756" cy="28.708" r=".75" fill="currentColor"/><circle cx="13.671" cy="29.107" r=".75" fill="currentColor"/><circle cx="10.586" cy="29.506" r=".75" fill="currentColor"/><circle cx="7.501" cy="29.906" r=".75" fill="currentColor"/></svg>