<svg xmlns="http://www.w3.org/2000/svg" xmlns:xlink="http://www.w3.org/1999/xlink" width="48" height="48" viewBox="0 0 48 48"><path fill="none" stroke="currentColor" stroke-linecap="round" stroke-linejoin="round" d="M15.205 8.609a4.853 4.853 0 0 0-4.853 4.852v5.687A4.853 4.853 0 0 1 5.5 24a4.853 4.853 0 0 1 4.852 4.853v5.686a4.853 4.853 0 0 0 4.853 4.853m17.59-30.783a4.853 4.853 0 0 1 4.853 4.852v5.687A4.853 4.853 0 0 0 42.5 24a4.853 4.853 0 0 0-4.852 4.853v5.686a4.853 4.853 0 0 1-4.853 4.853"/></svg>