<svg xmlns="http://www.w3.org/2000/svg" xmlns:xlink="http://www.w3.org/1999/xlink" width="48" height="48" viewBox="0 0 48 48"><rect width="37" height="37" x="5.5" y="5.5" fill="none" stroke="currentColor" stroke-linecap="round" stroke-linejoin="round" rx="4" ry="4"/><circle cx="24" cy="32.094" r="2" fill="none" stroke="currentColor" stroke-linecap="round" stroke-linejoin="round"/><circle cx="15" cy="32.094" r="2" fill="none" stroke="currentColor" stroke-linecap="round" stroke-linejoin="round"/><circle cx="33" cy="32.094" r="2" fill="none" stroke="currentColor" stroke-linecap="round" stroke-linejoin="round"/><path fill="none" stroke="currentColor" stroke-linecap="round" stroke-linejoin="round" d="M15.69 20.307c0-1.504-1.283-2.724-2.866-2.724s-2.866 1.22-2.866 2.724v1.77c0 1.505 1.283 2.724 2.866 2.724s2.866-1.22 2.866-2.724m0 2.725V13.906m4.752 2.866v7.431c0 .426-.184.603-.62.603m-1.216-5.356h3.304"/><path fill="none" stroke="currentColor" stroke-linecap="round" stroke-linejoin="round" d="M18.606 22.128s1.897-.415 3.304-1.205m2.203-4.151s-1.46 7.895-2.554 8.034c0 0 2.705-.183 4.73-1.32"/><path fill="none" stroke="currentColor" stroke-linecap="round" stroke-linejoin="round" d="M25.057 21.286s1.433 2.153 1.81 3.52m9.11-8.028c1.698 1.39 2.093 4.297 2.065 6.552m-7.693-6.552c-.606 1.692-.582 4.263-.567 5.12c.05 2.907 2.499 4.104 4.13 1.39"/></svg>