<svg xmlns="http://www.w3.org/2000/svg" xmlns:xlink="http://www.w3.org/1999/xlink" width="48" height="48" viewBox="0 0 48 48"><path fill="none" stroke="currentColor" stroke-linecap="round" stroke-linejoin="round" d="M38.5 5.5h-29a4 4 0 0 0-4 4v29a4 4 0 0 0 4 4h29a4 4 0 0 0 4-4v-29a4 4 0 0 0-4-4"/><path fill="none" stroke="currentColor" stroke-linecap="round" stroke-linejoin="round" d="M18.608 10.39v11.594h5.332m3.281-11.594v11.594M9.854 10.39h5.797m-5.797 5.797h3.768M9.854 10.39v11.594M38.146 10.39l-2.683 4.05m0 3.494l2.683 4.05M30.465 10.39l3.84 5.797l-3.84 5.797m.585 14.356c.71.925 1.601 1.27 2.842 1.27h1.716a2.895 2.895 0 0 0 2.892-2.9h0c0-1.6-1.295-2.898-2.892-2.898H33.71a2.895 2.895 0 0 1-2.892-2.898h0a2.896 2.896 0 0 1 2.892-2.899h1.717c1.24 0 2.131.345 2.842 1.27m-18.141-1.269v7.753a3.84 3.84 0 1 0 7.68 0v-7.753"/><path fill="none" stroke="currentColor" stroke-linecap="round" stroke-linejoin="round" stroke-width=".866" d="M14.282 31.813a2.898 2.898 0 1 1 0 5.797H9.5V26.016h4.782a2.898 2.898 0 1 1 0 5.797m0 0H9.5"/></svg>