<svg xmlns="http://www.w3.org/2000/svg" xmlns:xlink="http://www.w3.org/1999/xlink" width="48" height="48" viewBox="0 0 48 48"><path fill="none" stroke="currentColor" stroke-linecap="round" stroke-linejoin="round" d="m25.574 35.917l-7.346 1.802c-.491.12-1.416.277-1.918-.228c-.503-.505-.347-1.434-.227-1.928l1.793-7.384z"/><path fill="none" stroke="currentColor" stroke-linecap="round" stroke-linejoin="round" d="m17.876 28.18l17.046-17.134a2.986 2.986 0 0 1 4.247 0l3.45 3.469a3.023 3.023 0 0 1 0 4.269L25.575 35.917M11.708 15.856c3.315.683 6.35 1.763 5.825 5.082s-2.993 2.765-6.745 3.28c-3.752.516-6.003 2.222-6.238 4.643s.117 4.971 5.63 5.663"/></svg>