<svg xmlns="http://www.w3.org/2000/svg" xmlns:xlink="http://www.w3.org/1999/xlink" width="48" height="48" viewBox="0 0 48 48"><path fill="none" stroke="currentColor" stroke-linecap="round" stroke-linejoin="round" d="M38.5 5.5h-29a4 4 0 0 0-4 4v29a4 4 0 0 0 4 4h29a4 4 0 0 0 4-4v-29a4 4 0 0 0-4-4"/><path fill="none" stroke="currentColor" stroke-linecap="round" stroke-linejoin="round" d="M21.5 16.758h5v5h-5zm0 2.5h5m-2.5-2.5v5M5.5 33.517a4 4 0 0 0 4 4h29a4 4 0 0 0 4-4m-37-4.826a4 4 0 0 0 4 4h29a4 4 0 0 0 4-4"/></svg>