<svg xmlns="http://www.w3.org/2000/svg" xmlns:xlink="http://www.w3.org/1999/xlink" width="48" height="48" viewBox="0 0 48 48"><path fill="none" stroke="currentColor" stroke-linecap="round" stroke-linejoin="round" d="M38.5 5.5h-29a4 4 0 0 0-4 4v29a4 4 0 0 0 4 4h29a4 4 0 0 0 4-4v-29a4 4 0 0 0-4-4"/><path fill="none" stroke="currentColor" stroke-linecap="round" stroke-linejoin="round" d="M6.756 8.193a15.52 15.52 0 0 0 1.612 9.787M6.756 8.193c.298.392.76.646 1.242.734m0 0c.142-.679.32-1.419.842-1.913m0 0c3.185-.165 6.55.719 8.955 2.885m-6.655 8.604c-1.765 3.764-2.05 8.472.2 12.107m2.596-8.178c.027 1.008-.087 2.425.902 3.022m2.332-5.529c-.425 2.334 1.048 4.602 3.119 5.6"/><path fill="none" stroke="currentColor" stroke-linecap="round" stroke-linejoin="round" d="M24.263 16.777c-2.526 2.137-4.037 5.435-3.975 8.747m3.975-8.747c-.2 3.37 1.947 6.822 5.301 7.678c1.67.765 3.678.01 5.231 1.008c1.094.81 1.438 2.238 1.484 3.528"/><path fill="none" stroke="currentColor" stroke-linecap="round" stroke-linejoin="round" d="M25.084 25.509c1.594-1.847 4.553-1.574 6.223.026c.612.601 2.015 1.405.663 2.17m-6.416-.85a8 8 0 0 0 .055 1.878"/><path fill="none" stroke="currentColor" stroke-linecap="round" stroke-linejoin="round" d="M25.609 28.733c.033 2.179 3.456 3.163 4.237.93c.47-1.138.254-2.385.264-3.578m7.708 6.895c.159 2.212-1.194 4.324-3.15 5.301m5.011-10.216c1.888 1.503 3.467 4.258 2.094 6.594c-.567 1.005-1.466 1.778-2.415 2.41m-1.925-20.737c2.282-2.457 2.158-6.14 1.752-9.257c-1.824.434-2.006-1.888-3.805-.983c-3.035.455-6.29 1.313-8.468 3.62"/><path fill="none" stroke="currentColor" stroke-linecap="round" stroke-linejoin="round" d="M26.036 9.523c4.928 1.112 10.063 3.722 12.301 8.491c1.25 2.696 1.235 5.81.506 8.644M26.036 9.523c-5.522-.657-11.683.464-15.712 4.56m0 0c-3.3 5.147-4.27 12.138-1.157 17.599c.484.881 1.05 1.716 1.679 2.5m0 0c.259 2.229 1.967 4.513 4.425 4.32"/><path fill="none" stroke="currentColor" stroke-linecap="round" stroke-linejoin="round" d="M15.271 38.502c-.906-.632-1.544-4.008.037-2.22c.615.426 1.263.82 1.973 1.066m-4.422-4.213c4.732 3.754 11.48 3.953 16.927 1.734a28 28 0 0 0 4.383-2.171"/><path fill="none" stroke="currentColor" stroke-linecap="round" stroke-linejoin="round" d="M21.64 34.046c1.335 1.21 3.576 1 4.24-.81m-12.973-5.543c.692-1.697 2.423-2.843 4.187-3.135c1.473.035 3.087.528 3.904 1.848"/><path fill="none" stroke="currentColor" stroke-linecap="round" stroke-linejoin="round" d="M15.32 26.578c-.663 1.595-.525 4.074 1.45 4.624c1.926.806 3.324-1.227 3.166-2.975c.019-.366.046-.738-.02-1.1m-.704 8.867c-1.104.379-1.142 1.818-2.644 1.464c-1.26.96-2.828 3.257-.753 4.311c.287.232.601.433.937.588m-.992-.511a1.55 1.55 0 0 0-.483.51"/><path fill="none" stroke="currentColor" stroke-linecap="round" stroke-linejoin="round" d="M20.32 36.24c-2.65.491-.51 3.133.86 3.87c1.062.825 2.195 1.553 3.347 2.245"/><path fill="none" stroke="currentColor" stroke-linecap="round" stroke-linejoin="round" d="M21.549 36.291c-.492 1.586-.054 3.343.843 4.7m1.638-4.74c-.727 1.622-1.236 3.51-.727 5.27m1.448-5.342c1.908-.142 3.84 2.05 1.632 3.338c-.93.803-2.003 1.422-3.08 2.005m4.168-5.894c2.413-.23 4.263 1.782 5.704 3.457c.177.53-.205 1.067-.433 1.522m.298-.496c1.66.922 3.362 1.84 5.208 2.332"/><ellipse cx="27.894" cy="27.8" fill="none" stroke="currentColor" stroke-linecap="round" stroke-linejoin="round" rx=".813" ry="1.444"/><ellipse cx="17.55" cy="28.202" fill="none" stroke="currentColor" stroke-linecap="round" stroke-linejoin="round" rx=".834" ry="1.385"/><path fill="none" stroke="currentColor" stroke-linecap="round" stroke-linejoin="round" d="M33.526 29.331c1.35.8 2.932 2.238 2.286 3.986c-.408 1.155-1.332 2.03-2.258 2.786"/></svg>