<svg xmlns="http://www.w3.org/2000/svg" xmlns:xlink="http://www.w3.org/1999/xlink" width="48" height="48" viewBox="0 0 48 48"><path fill="none" stroke="currentColor" stroke-linecap="round" stroke-linejoin="round" d="M36.649 20.649v6.702H40m-31 0V20.65l3.351 6.702l3.352-6.702v6.702m10.892-.001V20.65l3.351 6.702l3.351-6.702v6.702m-14.243-.001V20.65l4.44 6.702V20.65"/><path fill="none" stroke="currentColor" stroke-linecap="round" stroke-linejoin="round" d="M38.5 5.5h-29a4 4 0 0 0-4 4v29a4 4 0 0 0 4 4h29a4 4 0 0 0 4-4v-29a4 4 0 0 0-4-4"/></svg>