<svg xmlns="http://www.w3.org/2000/svg" xmlns:xlink="http://www.w3.org/1999/xlink" width="48" height="48" viewBox="0 0 48 48"><rect width="37" height="37" x="5.5" y="5.5" fill="none" stroke="currentColor" stroke-linecap="round" stroke-linejoin="round" rx="4" ry="4"/><path fill="none" stroke="currentColor" stroke-linecap="round" stroke-linejoin="round" d="M25 15.781v12.438c0 .2.078.39.219.531l4 4a.75.75 0 0 0 1.281-.531V19.781a.75.75 0 0 0-.219-.531l-4-4a.75.75 0 0 0-1.281.53m-7.604-.707l.354.354l.353-.354m-.707 2.5l.354.354l.353-.354m-.707 2.5l.354.354l.353-.354m-.707 2.5l.354.354l.353-.354m-.707 2.5l.354.354l.353-.354m-.707 2.5l.354.354l.353-.354m1.793-10l.354.354l.353-.354m-.707 2.5l.354.354l.353-.354m-.707 2.5l.354.354l.353-.354m-.707 2.5l.354.354l.353-.354m-.707 2.5l.354.354l.353-.354m-.707 2.5l.354.354l.353-.354m1.793-10l.354.354l.353-.354m-.707 2.5l.354.354l.353-.354m-.707 2.5l.354.354l.353-.354m-.707 2.5l.354.354l.353-.354m-.707 2.5l.354.354l.353-.354m-.707 2.5l.354.354l.353-.354"/></svg>