<svg xmlns="http://www.w3.org/2000/svg" xmlns:xlink="http://www.w3.org/1999/xlink" width="48" height="48" viewBox="0 0 48 48"><path fill="none" stroke="currentColor" stroke-linecap="round" stroke-linejoin="round" d="M38.5 5.5h-29c-2.2 0-4 1.8-4 4v29c0 2.2 1.8 4 4 4h29c2.2 0 4-1.8 4-4v-29c0-2.2-1.8-4-4-4"/><path fill="none" stroke="currentColor" stroke-linecap="round" stroke-linejoin="round" d="M13.7 18.566a3.63 3.63 0 0 0-4.2 3.585v3.698a3.63 3.63 0 0 0 7.259 0V22.15q-.002-.538-.149-1.03"/><path fill="none" stroke="currentColor" stroke-linecap="round" stroke-linejoin="round" stroke-width=".866" d="M24.976 24a2.74 2.74 0 1 1 0 5.478h-4.52V18.522h4.52a2.74 2.74 0 1 1 0 5.478m0 0h-4.52m15.304 0a2.74 2.74 0 1 1 0 5.478h-4.519V18.522h4.52a2.74 2.74 0 1 1 0 5.478Zm.001 0h-4.52"/><path fill="none" stroke="currentColor" stroke-linecap="round" stroke-linejoin="round" d="m14.237 20.643l2.121-2.121"/></svg>