<svg xmlns="http://www.w3.org/2000/svg" xmlns:xlink="http://www.w3.org/1999/xlink" width="48" height="48" viewBox="0 0 48 48"><path fill="none" stroke="currentColor" stroke-linecap="round" stroke-linejoin="round" d="M41.594 41.852c-.516 0-1.032-.516-1.032-1.032v-5.8m0 4.382a2.586 2.586 0 0 1-2.578 2.578h0a2.586 2.586 0 0 1-2.578-2.578v-1.675a2.586 2.586 0 0 1 2.578-2.579h0a2.586 2.586 0 0 1 2.578 2.579m4.938.773a7 7 0 1 1-14 0a7 7 0 0 1 14 0M24 28.57l7.827 7.845M15 37.4V10.5h9a9.035 9.035 0 0 1 0 18.07h-9"/><path fill="none" stroke="currentColor" stroke-linecap="round" stroke-linejoin="round" d="M42.5 32.755V9.5a4 4 0 0 0-4-4h-29a4 4 0 0 0-4 4v29a4 4 0 0 0 4 4h23.256"/></svg>