<svg xmlns="http://www.w3.org/2000/svg" xmlns:xlink="http://www.w3.org/1999/xlink" width="48" height="48" viewBox="0 0 48 48"><path fill="none" stroke="currentColor" stroke-linecap="round" stroke-linejoin="round" d="M21.848 25.155v8.4h4.2m8.452-19.11v8.4m-10.5 0v-8.4l5.565 8.4v-8.4m-16.065 0v5.565c0 1.575 1.26 2.835 2.73 2.835s2.835-1.26 2.835-2.835v-5.565m12.6 19.11c-1.575 0-2.73-1.26-2.73-2.73V27.99c0-1.575 1.26-2.835 2.73-2.835h0A2.823 2.823 0 0 1 34.5 27.99v2.73a2.823 2.823 0 0 1-2.835 2.835m-12.705 0l-2.73-2.835m0 2.835c-1.575 0-2.73-1.26-2.73-2.73V27.99c0-1.575 1.26-2.835 2.73-2.835h0c1.575 0 2.73 1.26 2.73 2.835v2.73c0 1.575-1.155 2.835-2.73 2.835"/><path fill="none" stroke="currentColor" stroke-linecap="round" stroke-linejoin="round" d="M9.5 5.5h29c2.216 0 4 1.784 4 4v29c0 2.216-1.784 4-4 4h-29c-2.216 0-4-1.784-4-4v-29c0-2.216 1.784-4 4-4"/></svg>