<svg xmlns="http://www.w3.org/2000/svg" xmlns:xlink="http://www.w3.org/1999/xlink" width="48" height="48" viewBox="0 0 48 48"><path fill="none" stroke="currentColor" stroke-linecap="round" stroke-linejoin="round" d="M42.5 17V9.5a4 4 0 0 0-4-4h-29a4 4 0 0 0-4 4v29a4 4 0 0 0 4 4h29a4 4 0 0 0 4-4V31"/><path fill="none" stroke="currentColor" stroke-linecap="round" stroke-linejoin="round" d="M44.486 17H29a.757.757 0 0 0-.757.757v12.486c0 .418.339.757.757.757h15.486a.757.757 0 0 0 .757-.757V17.757a.757.757 0 0 0-.757-.757"/><circle cx="34.743" cy="24" r="2.5" fill="none" stroke="currentColor" stroke-linecap="round" stroke-linejoin="round"/></svg>