<svg xmlns="http://www.w3.org/2000/svg" xmlns:xlink="http://www.w3.org/1999/xlink" width="50" height="50" viewBox="0 0 50 50"><path fill="none" stroke="#306CFE" stroke-linecap="round" stroke-linejoin="round" stroke-width="2" d="M14.583 6.25h4.167a2.083 2.083 0 0 1 2.083 2.083v33.334a2.083 2.083 0 0 1-2.083 2.083h-4.167a2.083 2.083 0 0 1-2.083-2.083V8.333a2.083 2.083 0 0 1 2.083-2.083m16.667 37.5h4.167a2.083 2.083 0 0 0 2.083-2.083V8.333a2.083 2.083 0 0 0-2.083-2.083H31.25a2.083 2.083 0 0 0-2.083 2.083v33.334a2.083 2.083 0 0 0 2.083 2.083"/></svg>